<svg width="16.000000" height="16.000000" viewBox="0 0 16 16" fill="none"
    xmlns="http://www.w3.org/2000/svg"
    xmlns:xlink="http://www.w3.org/1999/xlink">
    <desc>
			Created with Pixso.
    </desc>
    <defs>
        <clipPath id="clip164_69308">
            <rect id="halfselect" width="16.000000" height="16.000000" fill="white" fill-opacity="0"/>
        </clipPath>
    </defs>
    <g clip-path="url(#clip164_69308)">
        <path id="形状" d="M13.71 0C14.97 0 16 1.02 16 2.28L16 13.71C16 14.97 14.97 16 13.71 16L2.28 16C1.02 16 0 14.97 0 13.71L0 2.28C0 1.02 1.02 0 2.28 0L13.71 0ZM10.67 4.57L5.32 4.57C4.94 4.57 4.63 4.84 4.57 5.21L4.57 10.67C4.57 11.05 4.85 11.36 5.21 11.41L10.67 11.42C11.05 11.42 11.36 11.15 11.42 10.78L11.42 5.32C11.42 4.94 11.03 4.62 10.67 4.57Z" fill="#000000" fill-opacity="1.000000" fill-rule="nonzero"/>
        <path id="形状" d="M16 2.28L16 13.71C16 14.97 14.97 16 13.71 16L2.28 16C1.02 16 0 14.97 0 13.71L0 2.28C0 1.02 1.02 0 2.28 0L13.71 0C14.97 0 16 1.02 16 2.28ZM5.32 4.57C4.94 4.57 4.63 4.84 4.57 5.21L4.57 10.67C4.57 11.05 4.85 11.36 5.21 11.41L10.67 11.42C11.05 11.42 11.36 11.15 11.42 10.78L11.42 5.32C11.42 4.94 11.03 4.62 10.67 4.57L5.32 4.57Z" stroke="#000000" stroke-opacity="0" stroke-width="1.000000"/>
        <path id="路径" d="M10.67 4.57L5.32 4.57C4.94 4.57 4.63 4.85 4.57 5.21L4.57 10.67C4.57 11.05 4.84 11.36 5.21 11.42L10.67 11.42C11.05 11.42 11.36 11.15 11.41 10.78L11.42 5.32C11.42 4.94 11.03 4.62 10.67 4.57Z" fill="#FFFFFF" fill-opacity="1.000000" fill-rule="nonzero"/>
        <path id="路径" d="M5.32 4.57C4.94 4.57 4.63 4.85 4.57 5.21L4.57 10.67C4.57 11.05 4.84 11.36 5.21 11.42L10.67 11.42C11.05 11.42 11.36 11.15 11.41 10.78L11.42 5.32C11.42 4.94 11.03 4.62 10.67 4.57L5.32 4.57Z" stroke="#000000" stroke-opacity="0" stroke-width="1.000000"/>
    </g>
</svg>
