<svg viewBox="0 0 48 48" xmlns="http://www.w3.org/2000/svg" xmlns:xlink="http://www.w3.org/1999/xlink" width="48.000000" height="48.000000" fill="none">
  <path id="形状结合备份" d="M6.992 10C9.20443 10 11 11.7956 11 14.008L11 30.994C11 33.2064 9.20444 35 6.992 35L4.006 35C1.79357 35 0 33.2064 0 30.994L0 14.008C0 11.7956 1.79358 10 4.006 10L6.992 10ZM21.494 0C23.7064 0 25.5 1.79556 25.5 4.008L25.5 30.994C25.5 33.2064 23.7064 35 21.494 35L18.508 35C16.2941 35 14.5 33.2069 14.5 30.994L14.5 4.008C14.5 1.79507 16.2941 0 18.508 0L21.494 0ZM6.992 13L4.006 13C3.45118 13 3 13.4517 3 14.008L3 30.994C3 31.5496 3.45043 32 4.006 32L6.992 32C7.54832 32 8 31.5488 8 30.994L8 14.008C8 13.4524 7.54757 13 6.992 13ZM21.494 3L18.508 3C17.9513 3 17.5 3.45155 17.5 4.008L17.5 30.994C17.5 31.5497 17.9506 32 18.508 32L21.494 32C22.0496 32 22.5 31.5496 22.5 30.994L22.5 4.008C22.5 3.45168 22.0488 3 21.494 3Z" fill="#191919" fill-rule="evenodd" transform="matrix(0,1,-1,0,41.4966,17.5)"/>
  <path id="形状结合备份" d="M6.98 0C8.88609 0 10.5193 1.33722 10.9112 3.18C11.0835 3.9903 10.5663 4.78688 9.756 4.95919C9.01322 5.11715 8.28198 4.69572 8.03254 4.00025C7.94621 3.59425 7.56174 3.08694 7.15742 3.01552L4.02 3C3.51982 3 3.10292 3.36152 3.01645 3.83689L3 12.984C3 13.4866 3.36053 13.9032 3.83656 13.9896L6.986 14.006C7.48351 14.006 7.89774 13.6468 7.98365 13.1727L8 8.50166C8 7.67323 8.67157 7.00166 9.5 7.00166C10.2594 7.00166 10.887 7.56596 10.9863 8.29811L11 8.50166L11 12.99C11 15.1071 9.36258 16.8417 7.28558 16.995L6.986 17.006L4.02 17.006C1.90003 17.006 0.164425 15.3659 0.0110207 13.2842L0 12.984L0 4.02C0 1.90193 1.64016 0.164597 3.72002 0.011034L4.02 0L6.98 0Z" fill="#191919" fill-rule="evenodd" transform="matrix(0,1,-1,0,23.5026,4)"/>
  <path id="形状结合备份" d="M6.98 0C8.88609 0 10.5193 1.33722 10.9112 3.18C11.0835 3.99031 10.5663 4.78688 9.756 4.95919C9.01322 5.11715 8.28198 4.69572 8.03254 4.00025C7.94621 3.59425 7.56174 3.08694 7.15742 3.01552L4.02 3C3.51982 3 3.10292 3.36152 3.01645 3.83689L3 12.984C3 13.4866 3.36053 13.9032 3.83656 13.9896L6.986 14.006C7.48351 14.006 7.89774 13.6468 7.98365 13.1727L8 8.50166C8 7.67323 8.67157 7.00166 9.5 7.00166C10.2594 7.00166 10.887 7.56596 10.9863 8.29812L11 8.50166L11 12.99C11 15.1071 9.36258 16.8417 7.28558 16.995L6.986 17.006L4.02 17.006C1.90003 17.006 0.164425 15.3659 0.0110207 13.2842L0 12.984L0 4.02C0 1.90193 1.64016 0.164597 3.72002 0.011034L4.02 0L6.98 0Z" fill="#AEAEAE" fill-rule="evenodd" transform="matrix(0,1,-1,0,23.5027,4)"/>
</svg>
