<svg viewBox="0 0 48 48" xmlns="http://www.w3.org/2000/svg" xmlns:xlink="http://www.w3.org/1999/xlink" width="48.000000" height="48.000000" fill="none">
  <path id="合并" d="M11 4L31 4C34.3137 4 37 6.68652 37 10L37 17.9004C33.5701 17.335 29.6125 17.7168 26.9287 20.606L26.7107 20.8467C24.1399 23.7681 23.6089 26.7881 24.2834 30.604L24.3293 30.8477C24.3293 30.8477 21 33.5 19.1565 36C17.5 38.5 18.1204 42.5 21 44L11 44C7.68628 44 5 41.3135 5 38L5 10C5 6.68652 7.68628 4 11 4ZM25 10.5L11 10.5C10.1599 10.5 9.5 11.1602 9.5 12C9.5 12.8398 10.1599 13.5 11 13.5L25 13.5C25.8401 13.5 26.5 12.8398 26.5 12C26.5 11.1602 25.8401 10.5 25 10.5ZM15 17.5L11 17.5C10.1599 17.5 9.5 18.1602 9.5 19C9.5 19.8398 10.1599 20.5 11 20.5L15 20.5C15.8401 20.5 16.5 19.8398 16.5 19C16.5 18.1602 15.8401 17.5 15 17.5ZM34.4693 27.8646C33.1183 26.5136 33.118 24.3233 34.4687 22.972L35.3378 22.1024C35.5418 21.8983 35.6536 21.7853 35.7188 21.7018C36.412 20.8137 36.0826 19.525 35.0079 19.3314C34.9037 19.3126 34.7623 19.303 34.5016 19.3021L34.4699 19.302C29.7406 19.302 25.9067 23.1359 25.9067 27.8653C25.9067 28.9563 26.1107 29.9996 26.4827 30.9593L21.0134 36.4291C19.6622 37.7803 19.6622 39.971 21.0134 41.3223C22.3647 42.6735 24.5554 42.6735 25.9067 41.3222L31.376 35.8526C32.3356 36.2245 33.379 36.4286 34.4699 36.4286C39.1993 36.4286 43.0332 32.5946 43.0332 27.8653C43.0321 27.5621 43.021 27.3997 43.0018 27.2955C42.8048 26.2237 41.52 25.9167 40.6327 26.613C40.5494 26.6784 40.4364 26.7903 40.2324 26.9944L39.3633 27.864C38.0121 29.2159 35.8208 29.2161 34.4693 27.8646Z" fill="#191919" fill-rule="evenodd"/>
  <path id="Path" d="M34.4687 22.9717C33.118 24.3231 33.1183 26.5134 34.4693 27.8644C35.8208 29.2159 38.0121 29.2156 39.3633 27.8638L40.2324 26.9941C40.4364 26.79 40.5494 26.6781 40.6327 26.6127C41.52 25.9164 42.8048 26.2234 43.0018 27.2953C43.021 27.3994 43.0321 27.5618 43.0332 27.865C43.0332 32.5944 39.1993 36.4283 34.47 36.4283C33.379 36.4283 32.3356 36.2243 31.376 35.8523L25.9067 41.322C24.5555 42.6732 22.3647 42.6733 21.0134 41.322C19.6622 39.9708 19.6622 37.7801 21.0134 36.4288L26.4827 30.959C26.1107 29.9994 25.9067 28.956 25.9067 27.865C25.9067 23.1357 29.7406 19.3018 34.47 19.3018L34.5017 19.3018C34.7623 19.3028 34.9037 19.3124 35.0079 19.3312C36.0826 19.5247 36.412 20.8134 35.7188 21.7016C35.6536 21.7851 35.5418 21.898 35.3379 22.1021L34.4687 22.9717Z" fill="#AEAEAE" fill-rule="evenodd"/>
</svg>
