<svg viewBox="0 0 48 48" xmlns="http://www.w3.org/2000/svg" xmlns:xlink="http://www.w3.org/1999/xlink" width="48.000000" height="48.000000" fill="none">
  <path id="矢量 56" d="M7.4863 5.79645C7.38699 5.0643 6.7594 4.5 6 4.5C5.17157 4.5 4.5 5.17157 4.5 6L4.5 36.6L4.51022 36.9786C4.70676 40.6133 7.71625 43.5 11.4 43.5L42 43.5L42.2036 43.4863C42.9357 43.387 43.5 42.7594 43.5 42C43.5 41.1715 42.8284 40.5 42 40.5L11.4 40.5L11.1089 40.4893C9.09097 40.3404 7.5 38.656 7.5 36.6L7.5 6L7.4863 5.79645ZM20.6086 7.51037L20.3 7.5L16.7 7.5C14.5233 7.5 12.6753 9.04123 12.5117 11.0839L12.5 11.3791L12.5 32.6118C12.5 34.6997 14.2495 36.3443 16.3915 36.4895L16.7 36.5L20.3 36.5C22.4762 36.5 24.3247 34.9503 24.4883 32.907L24.5 32.6118L24.5 11.3791C24.5 9.29095 22.7509 7.65478 20.6086 7.51037ZM16.7 10.5L20.3 10.5C20.924 10.5 21.3868 10.8467 21.482 11.233L21.5 32.6118C21.5 33.0065 21.1038 33.4013 20.5251 33.4841L20.3 33.5L16.7 33.5C16.079 33.5 15.6139 33.149 15.5182 32.7592L15.5 11.3791C15.5 10.9877 15.8935 10.5975 16.474 10.5157L16.7 10.5ZM36.3 17.5L36.6073 17.51C38.7417 17.65 40.5 19.237 40.5 21.2932L40.5 32.6819L40.4882 32.9724C40.3237 34.983 38.4656 36.5 36.3 36.5L32.7 36.5L32.3929 36.4898C30.2597 36.3476 28.5 34.7373 28.5 32.6819L28.5 21.2932L28.5118 21.0028C28.6761 18.9934 30.533 17.5 32.7 17.5L36.3 17.5ZM36.3 20.5L32.7 20.5L32.4713 20.5147C31.8855 20.5916 31.5 20.9565 31.5 21.2932L31.5 32.6819C31.5951 33.0306 32.0755 33.5 32.7 33.5L36.3 33.5L36.5262 33.4848C37.107 33.4052 37.5 33.0279 37.5 32.6819L37.5 21.2932C37.4065 20.9544 36.933 20.5 36.3 20.5Z" fill="#191919" fill-rule="evenodd"/>
  <path id="矢量 56" d="M20.6086 7.51038L20.3 7.5L16.7 7.5C14.5233 7.5 12.6753 9.04123 12.5117 11.084L12.5 11.3791L12.5 32.6118C12.5 34.6997 14.2495 36.3443 16.3915 36.4895L16.7 36.5L20.3 36.5C22.4762 36.5 24.3247 34.9503 24.4883 32.907L24.5 32.6118L24.5 11.3791C24.5 9.29095 22.7509 7.65479 20.6086 7.51038ZM16.7 10.5L20.3 10.5C20.924 10.5 21.3868 10.8467 21.482 11.233L21.5 32.6118C21.5 33.0065 21.1038 33.4013 20.5251 33.4841L20.3 33.5L16.7 33.5C16.079 33.5 15.6139 33.149 15.5182 32.7592L15.5 11.3791C15.5 10.9877 15.8935 10.5975 16.474 10.5157L16.7 10.5ZM36.3 17.5L36.6073 17.51C38.7417 17.65 40.5 19.237 40.5 21.2932L40.5 32.6819L40.4882 32.9724C40.3237 34.983 38.4656 36.5 36.3 36.5L32.7 36.5L32.3929 36.4898C30.2597 36.3476 28.5 34.7373 28.5 32.6819L28.5 21.2932L28.5118 21.0028C28.6761 18.9934 30.533 17.5 32.7 17.5L36.3 17.5ZM36.3 20.5L32.7 20.5L32.4713 20.5147C31.8855 20.5916 31.5 20.9565 31.5 21.2932L31.5 32.6819C31.5951 33.0306 32.0755 33.5 32.7 33.5L36.3 33.5L36.5262 33.4848C37.107 33.4052 37.5 33.0279 37.5 32.6819L37.5 21.2932C37.4065 20.9544 36.933 20.5 36.3 20.5Z" fill="#AEAEAE" fill-rule="evenodd"/>
</svg>
