<svg viewBox="0 0 48 48" xmlns="http://www.w3.org/2000/svg" xmlns:xlink="http://www.w3.org/1999/xlink" width="48.000000" height="48.000000" fill="none">
  <path id="减去顶层" d="M36.9586 4C40.2446 4 42.9186 6.67401 42.9186 9.95801L42.9186 10.9741L5.08057 10.9741L5.08057 9.95801C5.08057 6.67401 7.75456 4 11.0406 4L36.9586 4ZM18 14.9741L5.08078 14.9741L5.08075 37.978C5.08075 41.264 7.75477 43.938 11.0408 43.938L36.9188 43.938C40.2268 43.938 42.9188 41.248 42.9188 37.938L42.9188 14.9741L30 14.9741L30 15L30.0002 15L30 15.1162L30 16L29.9988 16L29.9818 28.9985C29.9818 29.2865 29.8085 29.5486 29.5372 29.6726C29.4307 29.7226 29.3159 29.7466 29.199 29.7466C29.0237 29.7466 28.8504 29.6906 28.7106 29.5806L24.0014 25.9585L19.2735 29.5825C19.0376 29.7625 18.7161 29.8006 18.4448 29.6726C18.1734 29.5466 18.0002 29.2866 18.0002 28.9966L18.0002 16L18 16L18 14.9741Z" fill="#191919" fill-rule="evenodd"/>
  <path id="减去顶层" d="M36.9586 4C40.2446 4 42.9186 6.67401 42.9186 9.95801L42.9186 10.9741L5.08057 10.9741L5.08057 9.95801C5.08057 6.67401 7.75456 4 11.0406 4L36.9586 4Z" fill="#AEAEAE" fill-rule="evenodd"/>
</svg>
