<svg viewBox="0 0 48 48" xmlns="http://www.w3.org/2000/svg" xmlns:xlink="http://www.w3.org/1999/xlink" width="48.000000" height="48.000000" fill="none">
  <path id="形状结合" d="M37.548 3.99951C40.7365 3.99951 43.3418 6.48941 43.5238 9.63177L43.534 9.98351L43.534 24.6635C43.534 26.0133 43.0827 27.3006 42.2678 28.3432C41.7577 28.9959 40.815 29.1115 40.1623 28.6014C39.5689 28.1376 39.4195 27.3163 39.7805 26.6805C40.1189 26.2475 40.4543 25.5474 40.5155 24.9973L40.534 24.6635L40.534 9.98351C40.534 8.43153 39.3507 7.15766 37.8357 7.01316L37.548 6.99951L19.4774 6.99951C17.9266 6.99951 16.6535 8.18175 16.509 9.69592L16.4954 9.98351L31.526 10.0395C34.7408 10.0395 37.3217 12.7106 37.5019 16.0265L37.512 16.3975L37.512 32.7155C37.512 36.0822 35.04 38.8766 31.8684 39.0654L31.526 39.0755L17.7078 39.0745L13.2006 43.5322C12.3031 44.4196 10.8134 43.8639 10.659 42.6702L10.646 42.4655L10.6458 39.0745C7.43212 39.0745 4.69025 36.4036 4.51006 33.0866L4.5 32.7155L4.5 16.3975C4.5 13.1681 6.78431 10.4321 9.82851 10.0776C10.6514 9.98176 11.3961 10.5711 11.4919 11.394C11.5798 12.1483 11.0918 12.837 10.3761 13.0203L10.1755 13.0574C8.77356 13.2207 7.64057 14.4886 7.51213 16.0929L7.5 16.3975L7.5 32.7155C7.5 34.4922 8.71707 35.91 10.2166 36.062L10.484 36.0755L12.146 36.0755C12.9054 36.0755 13.533 36.6398 13.6323 37.372L13.646 37.5755L13.6458 38.8705L16.0374 36.5088C16.262 36.2867 16.5495 36.1427 16.8576 36.0939L17.092 36.0755L31.526 36.0755C33.0573 36.0755 34.3596 34.7567 34.4996 33.0252L34.512 32.7155L34.512 16.3975C34.512 14.6223 33.2946 13.205 31.7936 13.053L31.526 13.0395L14.998 13.0395L14.7919 13.0258C14.1263 12.9355 13.5994 12.4086 13.5091 11.7431L13.4954 11.5395L13.4954 9.98351C13.4954 6.79557 15.9848 4.1916 19.1258 4.00967L19.4774 3.99951L37.548 3.99951ZM19.1008 25.9993C19.9292 25.9993 20.6008 26.6709 20.6008 27.4993C20.6008 28.2587 20.0365 28.8863 19.3043 28.9856L19.1008 28.9993L12.1168 28.9993C11.2884 28.9993 10.6168 28.3277 10.6168 27.4993C10.6168 26.7399 11.1811 26.1123 11.9133 26.013L12.1168 25.9993L19.1008 25.9993ZM26.0868 18.9993C26.9152 18.9993 27.5868 19.6709 27.5868 20.4993C27.5868 21.2587 27.0225 21.8863 26.2903 21.9856L26.0868 21.9993L12.1168 21.9993C11.2884 21.9993 10.6168 21.3277 10.6168 20.4993C10.6168 19.7399 11.1811 19.1123 11.9133 19.013L12.1168 18.9993L26.0868 18.9993Z" fill="#191919" fill-rule="evenodd"/>
  <path id="矢量 1723" d="M43.524 9.63184C43.342 6.48926 40.7367 3.99951 37.5482 3.99951L19.4777 3.99951L19.126 4.00977C15.985 4.19141 13.4956 6.79541 13.4956 9.9834L16.4956 9.9834L16.5093 9.6958C16.6537 8.18164 17.9268 6.99951 19.4777 6.99951L37.5482 6.99951L37.8359 7.01318C39.351 7.15771 40.5342 8.43164 40.5342 9.9834L40.5342 24.6636L40.5157 24.9976C40.4546 25.5474 40.119 26.2476 39.7806 26.6807C39.4197 27.3164 39.5691 28.1377 40.1625 28.6016C40.8152 29.1113 41.7579 28.9961 42.2681 28.3433C43.0829 27.3008 43.5342 26.0132 43.5342 24.6636L43.5342 9.9834L43.524 9.63184Z" fill="#AEAEAE" fill-rule="evenodd"/>
</svg>
