<svg viewBox="0 0 48 48" xmlns="http://www.w3.org/2000/svg" xmlns:xlink="http://www.w3.org/1999/xlink" width="48.000000" height="48.000000" fill="none">
  <path id="减去顶层" d="M41.9906 11.5804C41.8166 8.4692 39.2386 6 36.0839 6L11.9161 6L11.5804 6.00937C8.46919 6.18341 6 8.76138 6 11.9161L6 36.0839L6.00935 36.4196C6.18342 39.5308 8.7614 42 11.9161 42L24.3692 42L24.5571 41.9873C25.2329 41.8956 25.7538 41.3163 25.7538 40.6154C25.7538 39.8507 25.1339 39.2307 24.3692 39.2307L11.9161 39.2307L11.6446 39.2192C11.405 39.1987 11.1731 39.1514 10.9519 39.0803L15.4645 34.8901C15.5543 34.8378 15.6397 34.7745 15.7186 34.7002L30.5525 20.7281C31.1459 20.3181 32.1984 20.2138 32.7471 20.6988L39.666 27.215C40.2198 27.6008 41.1466 27.6625 41.6233 27.1565C41.8843 26.8793 42.0089 26.523 41.9995 26.1703L42 11.9161L41.9906 11.5804ZM16.25 18.4999C18.0433 18.4999 19.5 17.0432 19.5 15.2499C19.5 13.4566 18.0433 11.9999 16.25 11.9999C14.4567 11.9999 13 13.4566 13 15.2499C13 17.0432 14.4567 18.4999 16.25 18.4999ZM35.0769 28.1538C35.7779 28.1538 36.3572 28.6747 36.4489 29.3506L36.4615 29.5384L36.4615 33.6904L40.6154 33.6923C41.3801 33.6923 42 34.3122 42 35.0769C42 35.7779 41.4791 36.3572 40.8033 36.4489L40.6154 36.4615L36.4597 36.4597L36.4615 40.6154C36.4615 41.3801 35.8416 42 35.0769 42C34.3759 42 33.7966 41.4791 33.705 40.8032L33.6923 40.6154L33.6904 36.4597L29.5385 36.4615C28.7738 36.4615 28.1538 35.8416 28.1538 35.0769C28.1538 34.3759 28.6747 33.7966 29.3506 33.7049L29.5385 33.6923L33.6923 33.6904L33.6923 29.5384C33.6923 28.7737 34.3122 28.1538 35.0769 28.1538Z" fill="#191919" fill-rule="evenodd"/>
  <path id="减去顶层" d="M35.0768 28.1538C35.7778 28.1538 36.3571 28.6747 36.4487 29.3505L36.4614 29.5384L36.4614 33.6904L40.6152 33.6923C41.3799 33.6923 41.9999 34.3122 41.9999 35.0769C41.9999 35.7779 41.479 36.3572 40.8031 36.4489L40.6152 36.4615L36.4595 36.4596L36.4614 40.6153C36.4614 41.38 35.8415 41.9999 35.0768 41.9999C34.3758 41.9999 33.7965 41.479 33.7048 40.8032L33.6922 40.6153L33.6903 36.4596L29.5383 36.4615C28.7736 36.4615 28.1537 35.8416 28.1537 35.0769C28.1537 34.3759 28.6746 33.7966 29.3504 33.7049L29.5383 33.6923L33.6922 33.6904L33.6922 29.5384C33.6922 28.7737 34.3121 28.1538 35.0768 28.1538Z" fill="#AEAEAE" fill-rule="evenodd"/>
</svg>
