<svg viewBox="0 0 48 48" xmlns="http://www.w3.org/2000/svg" xmlns:xlink="http://www.w3.org/1999/xlink" width="48.000000" height="48.000000" fill="none">
  <path id="形状结合" d="M32.5682 8.29932L19.7022 21.1653C19.5502 21.3153 19.4242 21.4913 19.3262 21.6853L17.7922 24.7553L15.2562 30.1473C14.8982 30.9073 15.0522 31.8093 15.6442 32.4053C16.0282 32.7953 16.5442 32.9993 17.0662 32.9993C17.3462 32.9993 17.6322 32.9393 17.8982 32.8173L22.8982 30.5273L26.2182 29.0053C26.4342 28.9053 26.6322 28.7693 26.8002 28.6013L39.5662 15.8353L39.5662 35.2993C39.5662 38.6073 36.8742 41.2993 33.5662 41.2993L12.5662 41.2993C9.25816 41.2993 6.56616 38.6073 6.56616 35.2993L6.56616 14.2993C6.56616 10.9893 9.25816 8.29932 12.5662 8.29932L32.5682 8.29932ZM33.6332 10.0621L38.0732 14.5021L25.3852 27.1881L22.0652 28.7081L17.0652 31.0001L19.5812 25.6501L21.1152 22.5801L33.6332 10.0621ZM36.0738 7.62052C37.2858 6.40852 39.2478 6.39252 40.4798 7.58652C41.7378 8.80652 41.7538 10.8205 40.5138 12.0605L40.1938 12.3805L35.7538 7.94052L36.0738 7.62052Z" fill="#191919" fill-rule="evenodd"/>
  <path id="形状结合" d="M33.6334 10.0616L38.0734 14.5016L25.3854 27.1876L22.0654 28.7076L17.0654 30.9996L19.5814 25.6496L21.1154 22.5796L33.6334 10.0616ZM36.074 7.62003C37.286 6.40803 39.248 6.39203 40.48 7.58603C41.738 8.80603 41.754 10.82 40.514 12.06L40.194 12.38L35.754 7.94003L36.074 7.62003Z" fill="#AEAEAE" fill-rule="evenodd"/>
</svg>
