<svg viewBox="0 0 48 48" xmlns="http://www.w3.org/2000/svg" xmlns:xlink="http://www.w3.org/1999/xlink" width="48.000000" height="48.000000" fill="none">
  <path id="减去顶层" d="M25.494 6C27.7064 6 29.5 7.79556 29.5 10.008L29.5 21.5519L26.5 23.2924L26.5 10.008C26.5 9.45168 26.0488 9 25.494 9L22.508 9C21.9513 9 21.5 9.45155 21.5 10.008L21.5 36.994C21.5 37.5497 21.9506 38 22.508 38L23.5972 38C24.0688 38.9287 24.801 39.7205 25.726 40.2565L26.6927 40.8176C26.3142 40.9361 25.9116 41 25.494 41L22.508 41C20.2941 41 18.5 39.2069 18.5 36.994L18.5 10.008C18.5 7.79507 20.2941 6 22.508 6L25.494 6ZM43.993 24.2424L43.993 21.4957L43.9793 21.2921C43.88 20.56 43.2524 19.9957 42.493 19.9957C41.6646 19.9957 40.993 20.6672 40.993 21.4957L40.992 22.4184L43.274 23.7429C43.5288 23.8909 43.7689 24.0582 43.993 24.2424ZM36.0071 19.7126L36.0095 16.8309C36.0959 16.3555 36.5128 15.994 37.013 15.994L40.1504 16.0095C40.5547 16.0809 40.9392 16.5882 41.0255 16.9942C41.275 17.6897 42.0062 18.1111 42.749 17.9532C43.5593 17.7809 44.0765 16.9843 43.9042 16.174C43.5123 14.3312 41.8791 12.994 39.973 12.994L37.013 12.994L36.713 13.005C34.6332 13.1586 32.993 14.8959 32.993 17.014L32.993 19.7122C33.976 19.4291 35.0235 19.4293 36.0071 19.7126ZM10.992 22C13.2044 22 15 23.7956 15 26.008L15 36.994C15 39.2064 13.2044 41 10.992 41L8.006 41C5.79357 41 4 39.2064 4 36.994L4 26.008C4 23.7956 5.79358 22 8.006 22L10.992 22ZM10.992 25L8.006 25C7.45118 25 7 25.4517 7 26.008L7 36.994C7 37.5496 7.45043 38 8.006 38L10.992 38C11.5483 38 12 37.5488 12 36.994L12 26.008C12 25.4524 11.5476 25 10.992 25Z" fill="#191919" fill-rule="evenodd"/>
  <path id="合并" d="M36.7519 22.1021L36.4249 21.9311C35.0964 21.304 33.5341 21.361 32.2479 22.1023L27.2517 24.9804L26.9614 25.1626C25.7401 25.9958 25 27.3812 25 28.8719L25 34.6281L25.013 34.97C25.1254 36.4419 25.9579 37.774 27.2517 38.5196L32.2481 41.3979L32.5751 41.5689C33.9036 42.196 35.4659 42.139 36.7521 41.3977L41.7481 38.5198L42.0384 38.3375C43.2599 37.5042 44 36.1189 44 34.6281L44 28.8719L43.987 28.53C43.8746 27.0581 43.0421 25.726 41.7483 24.9804L36.7519 22.1021ZM33.7493 24.6967L33.9544 24.5984C34.3751 24.4345 34.8525 24.4673 35.2504 24.6966L40.4347 27.7028C40.7873 27.9845 40.9975 28.4133 40.9975 28.8719L40.9975 34.6281L40.9803 34.8544C40.9121 35.2998 40.645 35.6958 40.2466 35.9254L35.2507 38.8033L35.0456 38.9016C34.6249 39.0655 34.1475 39.0327 33.7496 38.8034L28.5653 35.7972C28.2127 35.5155 28.0025 35.0867 28.0025 34.6281L28.0025 28.8719L28.0197 28.6456C28.0879 28.2002 28.355 27.8042 28.7534 27.5746L33.7493 24.6967ZM30.103 29.1451L30.302 34.2806C30.3345 35.1188 31.0201 35.7519 31.8601 35.7195C32.7002 35.6871 33.3348 35.0031 33.3023 34.1648L33.2514 32.8502L36.5557 36.1473C37.1502 36.7404 38.0844 36.7404 38.6788 36.1473C39.2733 35.5541 39.2733 34.622 38.6788 34.0288L35.3745 30.7318L36.692 30.7826C37.5321 30.815 38.2177 30.1818 38.2501 29.3436C38.2826 28.5054 37.6481 27.8213 36.808 27.7889L31.6612 27.5904C31.6419 27.5897 31.6226 27.5893 31.6032 27.5893C31.5936 27.5893 31.584 27.5894 31.5744 27.5896L31.5733 27.5896L31.5704 27.5896C31.562 27.5898 31.5536 27.5901 31.5452 27.5904C31.3372 27.5984 31.146 27.6427 30.9714 27.7232C30.7983 27.803 30.6416 27.9186 30.5014 28.0697C30.2198 28.3733 30.087 28.7318 30.103 29.1451Z" fill="#AEAEAE" fill-rule="evenodd"/>
</svg>
