<svg viewBox="0 0 48 48" xmlns="http://www.w3.org/2000/svg" xmlns:xlink="http://www.w3.org/1999/xlink" width="48.000000" height="48.000000" fill="none">
  <path id="合并" d="M30.9934 24.5169L30.9934 38.5038C30.9934 39.5321 30.8123 40.4857 30.4501 41.3647C30.0841 42.2529 29.5332 43.065 28.7974 43.8008C28.0615 44.5366 27.2495 45.0875 26.3613 45.4535C25.4823 45.8157 24.5287 45.9968 23.5004 45.9968L9.5135 45.9968C8.47497 45.9968 7.51295 45.8128 6.62742 45.4447C5.74666 45.0786 4.94159 44.5304 4.21219 43.8002C3.48232 43.0695 2.93474 42.2632 2.56946 41.3815C2.20349 40.4981 2.02051 39.5389 2.02051 38.5038L2.02051 24.5169C2.02051 23.4819 2.20349 22.5227 2.56946 21.6393C2.93474 20.7575 3.48231 19.9513 4.21219 19.2206C4.94159 18.4903 5.74667 17.9422 6.62744 17.576C7.51296 17.208 8.47498 17.0239 9.5135 17.0239L23.5004 17.0239C24.5287 17.0239 25.4823 17.205 26.3613 17.5672C27.2495 17.9332 28.0615 18.4841 28.7974 19.22C29.5332 19.9558 30.0841 20.7678 30.4501 21.656C30.8123 22.535 30.9934 23.4887 30.9934 24.5169ZM27.9962 24.5169C27.9962 23.9025 27.8883 23.3324 27.6724 22.8066C27.4527 22.2716 27.1213 21.7825 26.678 21.3393C26.2348 20.8961 25.7457 20.5646 25.2107 20.345C24.6849 20.1291 24.1148 20.0211 23.5004 20.0211L9.5135 20.0211C8.88914 20.0211 8.31091 20.1319 7.77882 20.3535C7.25148 20.5731 6.76946 20.9015 6.33275 21.3387C5.89509 21.7769 5.56667 22.2603 5.3475 22.789C5.12764 23.3194 5.0177 23.8954 5.0177 24.5169L5.0177 38.5038C5.0177 39.1254 5.12764 39.7013 5.3475 40.2317C5.56667 40.7604 5.89508 41.2439 6.33275 41.6821C6.76946 42.1193 7.25148 42.4477 7.77882 42.6673C8.31092 42.8888 8.88914 42.9996 9.5135 42.9996L23.5004 42.9996C24.1148 42.9996 24.6849 42.8917 25.2107 42.6758C25.7457 42.4561 26.2348 42.1247 26.678 41.6814C27.1212 41.2382 27.4527 40.7491 27.6724 40.2141C27.8883 39.6883 27.9962 39.1183 27.9962 38.5038L27.9962 24.5169ZM17.5891 23.3638C17.505 23.1445 17.4297 22.9578 17.3631 22.8037C17.0302 22.0334 16.1634 21.6896 15.393 22.0225C14.6227 22.3554 14.2789 23.2222 14.6118 23.9926C14.6618 24.1083 14.7213 24.2563 14.7905 24.4366C14.9118 24.7531 15.0105 25.0397 15.0865 25.2963L8.53446 25.2963C7.69524 25.2963 7.03586 25.9557 7.03586 26.7949C7.03586 27.6341 7.69524 28.2935 8.53446 28.2935L10.2675 28.2935C10.2964 28.3753 10.3271 28.4609 10.3597 28.5504C10.6294 29.2918 10.9339 30.0287 11.2733 30.7614C11.7511 31.7927 12.2669 32.7452 12.8207 33.619C13.2657 34.3213 13.7285 34.9612 14.2089 35.5388C13.92 35.7429 13.6135 35.9409 13.2893 36.1326C12.5452 36.5728 11.7287 36.9685 10.8398 37.3197C10.2004 37.5724 9.55859 37.789 8.91451 37.9695C8.60193 38.0571 8.35839 38.1187 8.18387 38.1544C7.36171 38.3228 6.84801 39.1011 7.01637 39.9232C7.18472 40.7454 7.96298 41.2591 8.78513 41.0907C9.0294 41.0407 9.3421 40.9623 9.72325 40.8555C10.4666 40.6472 11.206 40.3977 11.9413 40.1072C12.9771 39.6979 13.935 39.2329 14.8152 38.7123C15.3822 38.3769 15.9095 38.0225 16.3971 37.6491C16.8847 38.0225 17.412 38.3769 17.979 38.7123C18.8591 39.2329 19.8171 39.6979 20.8529 40.1072C21.5882 40.3977 22.3276 40.6472 23.0709 40.8555C23.4521 40.9623 23.7648 41.0407 24.0091 41.0907C24.8312 41.2591 25.6095 40.7454 25.7778 39.9232C25.9462 39.1011 25.4325 38.3228 24.6103 38.1544C24.4358 38.1187 24.1923 38.0571 23.8797 37.9695C23.2356 37.789 22.5938 37.5724 21.9544 37.3197C21.0655 36.9685 20.249 36.5728 19.5049 36.1326C19.1807 35.9409 18.8742 35.7429 18.5853 35.5388C19.0657 34.9612 19.5285 34.3213 19.9735 33.619C20.5273 32.7452 21.0431 31.7927 21.5208 30.7614C21.8603 30.0287 22.1648 29.2918 22.4345 28.5504C22.4671 28.4609 22.4978 28.3752 22.5267 28.2935L24.5195 28.2935C25.3587 28.2935 26.0181 27.6341 26.0181 26.7949C26.0181 25.9557 25.3587 25.2963 24.5195 25.2963L18.1839 25.2963C18.1281 25.0436 18.0665 24.8048 17.9992 24.5799C17.8953 24.2113 17.7586 23.806 17.5891 23.3638ZM13.4703 28.2935C13.6326 28.6973 13.8068 29.0999 13.9929 29.5015C14.4155 30.4138 14.8686 31.2515 15.3522 32.0145C15.6919 32.5505 16.0402 33.0392 16.3971 33.4808C16.754 33.0392 17.1023 32.5505 17.442 32.0145C17.9255 31.2515 18.3787 30.4138 18.8013 29.5015C18.9873 29.1 19.1616 28.6973 19.3239 28.2935L13.4703 28.2935Z" fill="#AEAEAE" fill-rule="evenodd"/>
  <path id="减去顶层" d="M47.478 23.5175L47.478 9.53059C47.478 8.50233 47.2969 7.5487 46.9347 6.66969C46.5687 5.78148 46.0178 4.96946 45.282 4.23363C44.5462 3.4978 43.7341 2.94689 42.8459 2.58089C41.9669 2.2187 41.0133 2.0376 39.985 2.0376L25.9981 2.0376C24.9596 2.0376 23.9976 2.22164 23.1121 2.58972C22.2313 2.95583 21.4262 3.50402 20.6968 4.23424C19.9669 4.96496 19.4194 5.77119 19.0541 6.65294C18.6881 7.53634 18.5051 8.4956 18.5051 9.53059L18.5051 14.0001L21.5023 14.0001L21.5023 9.53059C21.5023 8.90907 21.6123 8.33311 21.8321 7.80273C22.0513 7.27399 22.3797 6.79053 22.8174 6.35236C23.2541 5.91516 23.7361 5.58676 24.2634 5.36717C24.7955 5.14562 25.3738 5.03479 25.9981 5.03479L39.985 5.03479C40.5995 5.03479 41.1696 5.14274 41.6953 5.35863C42.2303 5.57831 42.7194 5.90976 43.1627 6.35297C43.6059 6.79618 43.9373 7.28529 44.157 7.82029C44.3729 8.34606 44.4808 8.91616 44.4808 9.53059L44.4808 23.5175C44.4808 24.1319 44.3729 24.702 44.157 25.2278C43.9373 25.7628 43.6059 26.2519 43.1627 26.6951C42.7194 27.1383 42.2303 27.4698 41.6953 27.6895C41.1696 27.9054 40.5995 28.0133 39.985 28.0133L34 28.0133L34 31.0001L39.985 31.0105C41.0133 31.0105 41.9669 30.8294 42.8459 30.4672C43.7341 30.1012 44.5462 29.5503 45.282 28.8145C46.0178 28.0786 46.5687 27.2666 46.9347 26.3784C47.2969 25.4994 47.478 24.5458 47.478 23.5175ZM33.2885 21.0999L36.2246 21.0999L37.7585 25.0582C38.0623 25.8405 38.9161 26.2175 39.6984 25.9136C40.4803 25.61 40.8563 24.7572 40.5532 23.9752L34.359 7.99018C34.2842 7.79724 34.1808 7.63165 34.0488 7.4934C33.9168 7.35516 33.7561 7.24425 33.5668 7.16069C33.1882 6.99357 32.806 6.98478 32.4201 7.1343C32.223 7.21069 32.0498 7.32373 31.9005 7.47343C31.7512 7.62312 31.6387 7.79664 31.5628 7.99398L28.6537 15.5623C29.5621 16.1077 30.3852 16.7804 31.0984 17.5559L32.9673 12.6938L35.0632 18.1027L31.5694 18.1027C32.2903 18.9972 32.874 20.0069 33.2885 21.0999Z" fill="#191919" fill-rule="evenodd"/>
</svg>
