<svg viewBox="0 0 48 48" xmlns="http://www.w3.org/2000/svg" xmlns:xlink="http://www.w3.org/1999/xlink" width="48.000000" height="48.000000" fill="none">
  <path id="形状结合" d="M29.2719 8.5C32.5799 8.5 35.2719 11.192 35.2719 14.5L35.2719 16.092L40.1359 13.52C41.2819 12.914 42.6259 12.952 43.7399 13.62C44.8519 14.29 45.5159 15.462 45.5159 16.762L45.5159 31.238C45.5159 32.538 44.8519 33.71 43.7399 34.38C42.6259 35.05 41.2819 35.086 40.1359 34.48L35.2719 31.95L35.2719 33.5C35.2719 36.808 32.5799 39.5 29.2719 39.5L8.48389 39.5C5.17589 39.5 2.48389 36.808 2.48389 33.5L2.48389 14.5C2.48389 11.192 5.17589 8.5 8.48389 8.5L29.2719 8.5ZM19.0159 15.998C14.5979 15.998 11.0159 19.58 11.0159 23.998C11.0159 28.416 14.5979 31.998 19.0159 31.998C23.4359 31.998 27.0159 28.416 27.0159 23.998C27.0159 19.58 23.4359 15.998 19.0159 15.998ZM19.0003 18.998C21.7623 18.998 24.0003 21.236 24.0003 23.998C24.0003 26.76 21.7623 28.998 19.0003 28.998C16.2383 28.998 14.0003 26.76 14.0003 23.998C14.0003 21.236 16.2383 18.998 19.0003 18.998Z" fill="#191919" fill-rule="evenodd"/>
  <path id="形状结合" d="M19.0159 15.998C14.5979 15.998 11.0159 19.58 11.0159 23.998C11.0159 28.416 14.5979 31.998 19.0159 31.998C23.4359 31.998 27.0159 28.416 27.0159 23.998C27.0159 19.58 23.4359 15.998 19.0159 15.998ZM19.0003 18.998C21.7623 18.998 24.0003 21.236 24.0003 23.998C24.0003 26.76 21.7623 28.998 19.0003 28.998C16.2383 28.998 14.0003 26.76 14.0003 23.998C14.0003 21.236 16.2383 18.998 19.0003 18.998Z" fill="#FFFFFF" fill-rule="evenodd"/>
  <path id="形状结合" d="M19.0003 18.998C21.7623 18.998 24.0003 21.236 24.0003 23.998C24.0003 26.76 21.7623 28.998 19.0003 28.998C16.2383 28.998 14.0003 26.76 14.0003 23.998C14.0003 21.236 16.2383 18.998 19.0003 18.998Z" fill="#AEAEAE" fill-rule="evenodd"/>
</svg>
