<svg viewBox="0 0 48 48" xmlns="http://www.w3.org/2000/svg" xmlns:xlink="http://www.w3.org/1999/xlink" width="48.000000" height="48.000000" fill="none">
  <path id="减去顶层" d="M41.9898 11.6475C41.8073 8.49784 39.1954 6 36 6L12 6L11.6475 6.01019C8.49784 6.19268 6 8.80464 6 12L6 36L6.01019 36.3525C6.19268 39.5022 8.80464 42 12 42L36 42L36.3525 41.9898C39.5022 41.8073 42 39.1954 42 36L42 12L41.9898 11.6475ZM35.0651 17.4438C35.5954 17.9785 35.6403 18.812 35.2022 19.3974L22.9549 31.5651C22.4233 32.0922 21.4279 31.9964 20.8425 31.5651L12.9438 23.7325C12.3556 23.1492 12.3516 22.1994 12.9349 21.6112C13.4652 21.0764 14.4671 21.169 15.0562 21.6023L21.898 28.3859L32.9438 17.4348C33.5321 16.8515 34.4818 16.8555 35.0651 17.4438Z" fill="#191919" fill-rule="evenodd"/>
  <path id="矢量 1748" d="M35.2022 19.3975C35.6403 18.8121 35.5954 17.9786 35.0651 17.4438C34.4818 16.8556 33.5321 16.8516 32.9438 17.4349L21.898 28.386L15.0562 21.6023C14.4671 21.1691 13.4652 21.0765 12.9349 21.6112C12.3516 22.1995 12.3556 23.1492 12.9438 23.7326L20.8425 31.5651C21.4279 31.9964 22.4233 32.0923 22.9549 31.5651L35.2022 19.3975Z" fill="#AEAEAE" fill-rule="evenodd"/>
</svg>
