<svg viewBox="0 0 48 48" xmlns="http://www.w3.org/2000/svg" xmlns:xlink="http://www.w3.org/1999/xlink" width="48.000000" height="48.000000" fill="none">
  <g id="ic_huawei_cloud_store_new-新店/base/ic_huawei_cloud_store_new">
    <path id="减去顶层" d="M22.5118 28.3634C22.2677 28.4294 22.0284 28.5121 21.7939 28.6112C21.1158 28.8981 20.5156 29.3026 19.9932 29.825C19.4709 30.3474 19.0663 30.9476 18.7795 31.6257C18.6425 31.9494 18.5372 32.28 18.4633 32.6175L18.4632 32.618C18.3768 33.0131 18.3335 33.4178 18.3335 33.8318L18.3335 38.9982L13.1672 38.9982C12.8931 38.9982 12.6261 38.9678 12.3662 38.9069L12.3662 38.9069C12.1754 38.8623 11.9885 38.8012 11.8053 38.7238C11.3868 38.5468 11.0158 38.2965 10.6924 37.9731C10.5165 37.7972 10.3623 37.6072 10.2297 37.4032C10.1185 37.2321 10.0225 37.0511 9.94179 36.8602C9.75885 36.4277 9.66737 35.9738 9.66737 35.4984L9.66737 23.9965C8.56218 23.9626 7.53515 23.6976 6.66737 23.2632L6.66737 35.4984C6.66737 35.975 6.71728 36.4407 6.81709 36.8955L6.81719 36.8959C6.90184 37.2814 7.02237 37.6591 7.17877 38.0289C7.33544 38.3993 7.52275 38.7494 7.7407 39.0793L7.74082 39.0795C7.98053 39.4423 8.25729 39.7806 8.57112 40.0945C9.17036 40.6937 9.85889 41.1578 10.6367 41.4868C11.0065 41.6432 11.3842 41.7637 11.7697 41.8484C12.2246 41.9483 12.6904 41.9982 13.1672 41.9982L19.8335 41.9982C20.3335 41.9982 20.7085 41.8732 20.9585 41.6232C21.2085 41.3732 21.3335 40.9982 21.3335 40.4982L21.3335 33.8318C21.3335 33.4943 21.394 33.1711 21.5148 32.8623C21.5887 31.2757 21.9364 29.7607 22.5118 28.3634Z" fill="#191919" fill-rule="evenodd"/>
    <path id="path6(边框)" d="M8.23589 22.3931C8.68796 22.4936 9.1512 22.5438 9.62561 22.5438C10.1 22.5438 10.5633 22.4936 11.0153 22.3931C11.3719 22.3138 11.7215 22.2033 12.0642 22.0615C12.8161 21.7504 13.4823 21.311 14.0626 20.7432C14.1867 20.6219 14.3048 20.4966 14.417 20.3675C14.5587 20.5307 14.7098 20.6875 14.8703 20.8377C15.1496 21.0993 15.4475 21.332 15.7639 21.5359C16.0999 21.7524 16.4568 21.9364 16.8346 22.0878C17.5929 22.3918 18.3842 22.5438 19.2085 22.5438C19.683 22.5438 20.1463 22.4936 20.5984 22.3931C20.9549 22.3138 21.3045 22.2033 21.6471 22.0615C22.399 21.7504 23.0652 21.311 23.6456 20.7432C23.7696 20.6219 23.8877 20.4966 23.9999 20.3675C24.1416 20.5307 24.2927 20.6875 24.4532 20.8377C24.7325 21.0993 25.0304 21.332 25.3468 21.5359C25.6828 21.7524 26.0397 21.9364 26.4175 22.0878C27.1758 22.3918 27.9671 22.5438 28.7915 22.5438C29.2659 22.5438 29.7291 22.4936 30.1812 22.3931C30.5377 22.3138 30.8874 22.2033 31.23 22.0615C31.982 21.7504 32.6481 21.311 33.2285 20.7432C33.3526 20.6218 33.4707 20.4965 33.5829 20.3674C33.6951 20.4965 33.8133 20.6218 33.9374 20.7432C34.2182 21.0179 34.519 21.2625 34.84 21.4771C35.1824 21.7061 35.5477 21.9009 35.9358 22.0615C36.7129 22.3831 37.5258 22.5438 38.3744 22.5438C38.8489 22.5438 39.3121 22.4936 39.7642 22.3931C40.1208 22.3138 40.4703 22.2033 40.8129 22.0615C41.5649 21.7504 42.2311 21.311 42.8114 20.7432C43.3941 20.1732 43.8456 19.5176 44.1661 18.7763C44.3249 18.409 44.4459 18.0335 44.529 17.6498C44.6202 17.2286 44.6659 16.7975 44.6659 16.3565C44.6659 16.1333 44.6425 15.8276 44.5957 15.4394L44.5765 15.2995C44.5704 15.2544 44.5622 15.2098 44.552 15.1657C44.5418 15.1216 44.5296 15.0779 44.5154 15.0346L41.9988 7.37698C41.842 6.88053 41.6114 6.4219 41.307 6.00109C41.1625 5.80122 41.0046 5.61445 40.8335 5.44079C40.6528 5.25746 40.4573 5.08873 40.247 4.93461C39.8374 4.6345 39.392 4.40467 38.9106 4.24512C38.4177 4.08171 37.9109 4 37.3902 4L10.6098 4C10.3366 4 10.0673 4.02249 9.80181 4.06746C9.5612 4.10821 9.32372 4.16743 9.08937 4.24512C8.8552 4.32274 8.62953 4.417 8.41236 4.52789C8.18313 4.64493 7.96336 4.7805 7.75305 4.93461C7.54275 5.0887 7.34727 5.25741 7.16661 5.44071C6.99543 5.61439 6.83755 5.80118 6.69297 6.00109C6.47802 6.2983 6.30078 6.6115 6.16126 6.94068C6.10323 7.07758 6.05173 7.21724 6.00674 7.35967L3.49299 14.9918C3.46712 15.0703 3.44788 15.1505 3.43526 15.2322L3.41668 15.3532C3.40064 15.4498 3.38694 15.5466 3.37558 15.6437C3.34796 15.8797 3.33415 16.1173 3.33415 16.3565C3.33415 16.7975 3.37977 17.2286 3.471 17.6499C3.55411 18.0335 3.67506 18.409 3.83387 18.7763C3.97417 19.1008 4.13959 19.4089 4.33013 19.7006C4.57485 20.0752 4.861 20.4227 5.1886 20.7432C5.76895 21.311 6.43511 21.7504 7.18706 22.0615C7.52972 22.2033 7.87933 22.3138 8.23589 22.3931ZM32.0829 16.3615L32.0829 16.3565C32.0829 15.8565 32.2079 15.4815 32.4579 15.2315C32.7079 14.9815 33.0829 14.8565 33.5829 14.8565C34.0829 14.8565 34.4579 14.9815 34.7079 15.2315C34.9579 15.4815 35.0829 15.8565 35.0829 16.3565L35.0829 16.3615C35.0836 16.7885 35.168 17.1966 35.3363 17.5858C35.5007 17.9661 35.7337 18.3037 36.0353 18.5987C36.3391 18.896 36.6883 19.1262 37.0828 19.2895C37.4927 19.459 37.9232 19.5438 38.3744 19.5438C38.8256 19.5438 39.2561 19.459 39.6659 19.2895C40.0605 19.1262 40.4097 18.896 40.7135 18.5987C40.9007 18.4156 41.0614 18.2161 41.1957 18.0002C41.2779 17.8682 41.3501 17.7301 41.4125 17.5858C41.5814 17.1951 41.6658 16.7854 41.6659 16.3565C41.6659 16.253 41.6517 16.0829 41.6234 15.8464L41.6228 15.8416L39.1382 8.28086C39.0178 7.8996 38.7963 7.59081 38.4738 7.35449C38.1513 7.11816 37.7901 7 37.3902 7L10.6098 7C10.4098 7 10.2196 7.02954 10.039 7.08862C9.85841 7.1477 9.68749 7.23633 9.52623 7.35449C9.20371 7.59082 8.98036 7.90537 8.85617 8.29817L6.38107 15.813L6.37613 15.8448C6.34814 16.0133 6.33415 16.1839 6.33415 16.3565C6.33415 16.5906 6.35932 16.8191 6.40966 17.0418C6.45153 17.2271 6.51081 17.4084 6.58751 17.5858C6.75194 17.9661 6.98493 18.3037 7.28648 18.5987C7.59033 18.896 7.93953 19.1262 8.33406 19.2895C8.49331 19.3553 8.65567 19.4084 8.82116 19.4487C9.08159 19.5121 9.34974 19.5438 9.62562 19.5438C10.0768 19.5438 10.5073 19.459 10.9172 19.2895C11.3117 19.1262 11.6609 18.896 11.9647 18.5987C12.1519 18.4156 12.3126 18.2162 12.4469 18.0002C12.5291 17.8682 12.6013 17.7301 12.6637 17.5858C12.7404 17.4084 12.7997 17.227 12.8416 17.0417C12.8919 16.819 12.9171 16.5906 12.9171 16.3565C12.9171 15.3799 13.4053 14.88 14.3816 14.857C14.8815 14.8451 15.2593 14.9612 15.5152 15.2053C15.771 15.4493 15.9048 15.8212 15.9167 16.3211L15.9214 16.5223C15.9427 16.9283 16.0402 17.315 16.2141 17.6822C16.2792 17.8196 16.3532 17.9511 16.4364 18.0765C16.5733 18.2833 16.7349 18.4738 16.9209 18.648C17.2225 18.9305 17.5659 19.1489 17.9509 19.3033C18.1037 19.3645 18.2593 19.4141 18.4177 19.452C18.674 19.5132 18.9376 19.5438 19.2085 19.5438C19.6597 19.5438 20.0902 19.459 20.5001 19.2895C20.8946 19.1262 21.2438 18.896 21.5477 18.5987C21.7348 18.4157 21.8955 18.2162 22.0298 18.0003C22.112 17.8683 22.1842 17.7301 22.2466 17.5858C22.4155 17.1951 22.5 16.7854 22.5 16.3565C22.5 15.3799 22.9882 14.88 23.9646 14.857C24.9643 14.8333 25.476 15.3214 25.4996 16.3211L25.5043 16.5223C25.5151 16.7271 25.5452 16.9269 25.5947 17.1218C25.6434 17.3134 25.7108 17.5002 25.797 17.6822C25.9693 18.0461 26.2049 18.3681 26.5039 18.648C26.8055 18.9305 27.1488 19.1489 27.5339 19.3033C27.9339 19.4637 28.3531 19.5438 28.7915 19.5438C29.2426 19.5438 29.6731 19.459 30.083 19.2895C30.4776 19.1262 30.8267 18.896 31.1306 18.5987C31.4321 18.3037 31.6651 17.9661 31.8296 17.5858C31.9063 17.4084 31.9656 17.227 32.0074 17.0418C32.0574 16.8206 32.0826 16.5939 32.0829 16.3615Z" fill="#191919" fill-rule="evenodd"/>
  </g>
  <path id="合并" d="M37.4969 22.7702C36.6846 22.5901 35.8523 22.5 35 22.5C34.1477 22.5 33.3154 22.5901 32.5031 22.7702C31.8294 22.9197 31.1694 23.131 30.5232 23.4043C29.8721 23.6797 29.2563 24.0087 28.6758 24.3913C28.0295 24.8172 27.427 25.3095 26.8683 25.8683C26.3095 26.427 25.8172 27.0296 25.3912 27.6759C25.0087 28.2563 24.6797 28.8721 24.4043 29.5232C24.131 30.1694 23.9197 30.8294 23.7702 31.5031C23.5901 32.3154 23.5 33.1477 23.5 34C23.5 34.8523 23.5901 35.6846 23.7702 36.4969C23.9196 37.1706 24.131 37.8306 24.4043 38.4768C24.6797 39.1279 25.0087 39.7437 25.3913 40.3242C25.8172 40.9705 26.3095 41.573 26.8683 42.1317C27.4271 42.6905 28.0296 43.1829 28.676 43.6088C29.2564 43.9913 29.8722 44.3203 30.5232 44.5957C31.1694 44.869 31.8294 45.0803 32.5031 45.2298C33.3154 45.4099 34.1477 45.5 35 45.5C35.8522 45.5 36.6845 45.4099 37.4968 45.2298C38.1705 45.0804 38.8305 44.869 39.4768 44.5957C40.1279 44.3203 40.7437 43.9913 41.3242 43.6087C41.9704 43.1828 42.573 42.6905 43.1317 42.1317C43.6905 41.5729 44.1829 40.9703 44.6088 40.324C44.9914 39.7436 45.3203 39.1278 45.5957 38.4768C45.869 37.8306 46.0804 37.1706 46.2298 36.4969C46.4099 35.6846 46.5 34.8523 46.5 34C46.5 33.1478 46.4099 32.3155 46.2298 31.5032C46.0804 30.8295 45.869 30.1695 45.5957 29.5232C45.3203 28.8721 44.9913 28.2564 44.6088 27.6759C44.1829 27.0296 43.6905 26.427 43.1317 25.8683C42.573 25.3095 41.9705 24.8172 41.3242 24.3913C40.7437 24.0087 40.1279 23.6797 39.4768 23.4043C38.8306 23.131 38.1706 22.9197 37.4969 22.7702ZM33.0997 25.7116C33.717 25.5705 34.3504 25.5 35 25.5C35.6496 25.5 36.283 25.5705 36.9003 25.7116C37.3793 25.8211 37.8486 25.973 38.3081 26.1674C38.7796 26.3668 39.2262 26.6044 39.6478 26.8801C40.1354 27.1989 40.5896 27.5687 41.0104 27.9896C41.4313 28.4105 41.8011 28.8647 42.12 29.3522C42.3957 29.7738 42.6332 30.2204 42.8326 30.6919C43.027 31.1514 43.1789 31.6207 43.2884 32.0997C43.4295 32.717 43.5 33.3504 43.5 34C43.5 34.6496 43.4295 35.2831 43.2884 35.9004C43.1789 36.3794 43.027 36.8486 42.8326 37.3081C42.6332 37.7796 42.3957 38.2262 42.1199 38.6478C41.8011 39.1353 41.4313 39.5896 41.0104 40.0104C40.5895 40.4313 40.1353 40.8011 39.6478 41.12C39.2262 41.3957 38.7796 41.6332 38.3081 41.8326C37.8486 42.027 37.3793 42.1789 36.9003 42.2884C36.283 42.4295 35.6496 42.5 35 42.5C34.3504 42.5 33.7169 42.4295 33.0995 42.2884C32.6206 42.1789 32.1514 42.027 31.6919 41.8326C31.2204 41.6332 30.7739 41.3957 30.3523 41.12C29.8647 40.8011 29.4105 40.4313 28.9896 40.0104C28.5687 39.5896 28.1989 39.1353 27.8801 38.6478C27.6043 38.2262 27.3668 37.7796 27.1674 37.3081C26.973 36.8486 26.8211 36.3793 26.7116 35.9004C26.5705 35.283 26.5 34.6496 26.5 34C26.5 33.3504 26.5705 32.717 26.7116 32.0996C26.8211 31.6207 26.973 31.1514 27.1674 30.6919C27.3668 30.2204 27.6043 29.7738 27.88 29.3522C28.1989 28.8647 28.5687 28.4105 28.9896 27.9896C29.4104 27.5687 29.8646 27.1989 30.3522 26.8801C30.7738 26.6044 31.2204 26.3668 31.6919 26.1674C32.1514 25.973 32.6207 25.8211 33.0997 25.7116ZM28 37.4365L28 31.7324C28.0247 31.2959 28.2633 31.0518 28.7156 31C28.9362 31.0129 29.1059 31.0776 29.2248 31.1941C29.3496 31.3165 29.4184 31.4959 29.4312 31.7324L29.4312 33.8525L31.8037 31.2695C31.9555 31.1152 32.1554 31.0195 32.3687 31C32.7953 31.0771 33.0339 31.3213 33.0843 31.7324C33.0843 31.9639 32.9212 32.2207 32.5948 32.5029L30.7871 34.3535L33.0089 36.7041C33.0107 36.7344 33.0243 36.7617 33.0467 36.7812C33.2974 37.0645 33.4229 37.2959 33.4232 37.4756C33.398 37.8857 33.1469 38.0918 32.67 38.0918C32.4188 38.0918 32.1678 37.9629 31.9168 37.7061L29.4312 34.9316L29.4312 37.4365C29.3806 37.873 29.1423 38.0918 28.7163 38.0918C28.2386 38.0918 27.9998 37.873 28 37.4365ZM40.569 31.7705C40.569 31.2832 40.8074 31.0264 41.2844 31C41.7364 31.0264 41.9749 31.2832 42 31.7705L42 37.3984C41.9748 37.8604 41.7362 38.0918 41.2844 38.0918C40.8071 38.0918 40.5687 37.8604 40.569 37.3984L40.569 31.7705ZM34.548 31.8457L34.548 37.3965C34.548 37.6201 34.6039 37.7891 34.7157 37.9053C34.835 38.0283 35.0179 38.0898 35.2644 38.0898C35.4844 38.0898 35.6539 38.0352 35.7727 37.9248C35.898 37.8096 35.967 37.6338 35.98 37.3965L35.98 35.7773L37.0338 35.7773C38.5399 35.6748 39.3433 34.8906 39.4441 33.4258C39.3962 32.7314 39.1875 32.1904 38.8179 31.8018L38.8163 31.8C38.4066 31.3704 37.7998 31.1288 36.9959 31.0752L35.2636 31.0752C35.0304 31.0879 34.8541 31.1562 34.7349 31.2793C34.6103 31.4072 34.548 31.5967 34.548 31.8457ZM35.9793 32.3877L35.9793 34.4688L36.9583 34.4688C37.224 34.4576 37.4359 34.3839 37.5942 34.2479C37.7951 34.0753 37.9095 33.8022 37.9376 33.4287C37.887 32.7871 37.5606 32.4404 36.9583 32.3877L35.9793 32.3877Z" fill="#AEAEAE" fill-rule="evenodd"/>
</svg>
