<svg viewBox="0 0 48 48" xmlns="http://www.w3.org/2000/svg" xmlns:xlink="http://www.w3.org/1999/xlink" width="48.000000" height="48.000000" fill="none">
  <path id="形状结合" d="M25.012 20.8705C27.4463 22.7098 26.6823 25.6951 22.8064 29.8094L22.204 30.4301L35.689 30.4301C35.9527 30.4301 36.2072 30.5169 36.4145 30.6742C36.8194 31.102 36.994 31.8806 36.6573 32.3392L27.839 40.7136C27.0631 41.4481 26.0633 41.8935 25.0065 41.9834L24.6079 42.0003L10.45 42.0003C9.18147 42.0003 8.13811 41.0363 8.01265 39.8008L8 39.5503L8 33.8072C8 33.0391 8.36028 32.3154 8.97322 31.8523L10.5144 30.6593C11.2606 30.0732 12.178 29.3447 13.2665 28.4739C14.1139 27.7961 14.9083 27.0096 15.7701 26.0239L16.4173 25.2627L17.9874 23.3192C18.671 22.4758 19.1616 21.914 19.6484 21.4385C21.4524 19.6762 23.0606 19.3962 25.012 20.8705ZM42 16L42.001 27.25C42.001 29.1318 40.6149 30.6898 38.808 30.9589C38.7171 30.5083 38.5273 30.0816 38.2434 29.7054L38.0129 29.4331L37.7497 29.1882L37.4576 28.9808L37.1655 28.8085C36.7757 28.6017 36.3845 28.4855 35.9877 28.4473L35.689 28.433L26.514 28.433L26.7227 28.1293L26.9672 27.747C29.0869 24.3242 29.0087 21.3864 26.2177 19.2777C23.4834 17.2118 20.7793 17.5407 18.2508 20.0108C17.7908 20.4602 17.3373 20.9645 16.7432 21.6842L16.4337 22.0627L14.8615 24.0087L14.2464 24.7314L13.857 25.1669C13.3457 25.7255 12.8635 26.1984 12.3802 26.6138L12.0171 26.9151L9.2791 29.0893L7.74901 30.2736C6.82995 29.6508 6.10274 28.7137 6.01225 27.5431L6.00097 27.25L6 16L42 16ZM38.251 6C40.2234 6 41.8402 7.52284 41.9897 9.45694L42.001 9.75L42 13L6 13L6.00097 9.75C6.00097 7.77755 7.52381 6.16079 9.45791 6.01128L9.75097 6L38.251 6Z" fill="#191919" fill-rule="evenodd"/>
  <path id="形状结合" d="M25.0121 20.8705C27.4464 22.7097 26.6824 25.6951 22.8065 29.8094L22.2041 30.43L35.6891 30.43C35.9529 30.43 36.2073 30.5168 36.4146 30.6741C36.8196 31.102 36.9941 31.8805 36.6574 32.3392L27.8391 40.7135C27.0632 41.448 26.0634 41.8934 25.0066 41.9833L24.608 42.0003L10.4501 42.0003C9.18159 42.0003 8.13824 41.0362 8.01277 39.8008L8.00012 39.5503L8.00012 33.8071C8.00012 33.039 8.36041 32.3153 8.97335 31.8522L10.5146 30.6592C11.2607 30.0731 12.1781 29.3446 13.2666 28.4739C14.114 27.796 14.9084 27.0095 15.7703 26.0238L16.4174 25.2626L17.9875 23.3191C18.6711 22.4757 19.1617 21.914 19.6485 21.4384C21.4525 19.6761 23.0607 19.3961 25.0121 20.8705Z" fill="#AEAEAE" fill-rule="evenodd"/>
</svg>
