<svg viewBox="0 0 48 48" xmlns="http://www.w3.org/2000/svg" xmlns:xlink="http://www.w3.org/1999/xlink" width="48.000000" height="48.000000" fill="none">
  <path id="形状结合" d="M40.5 38C41.606 38 42.5 38.894 42.5 40C42.5 41.106 41.606 42 40.5 42L7.5 42C6.394 42 5.5 41.106 5.5 40C5.5 38.894 6.394 38 7.5 38L40.5 38ZM8.914 15.379L15.698 22.161C16.71 23.173 16.71 24.825 15.698 25.837L8.914 32.621C8.53 33.003 8.02 33.207 7.502 33.207C7.242 33.207 6.982 33.157 6.732 33.053C5.984 32.743 5.5 32.017 5.5 31.207L5.5 16.793C5.5 15.981 5.984 15.255 6.734 14.945C7.482 14.635 8.342 14.805 8.914 15.379ZM40.5 27.332C41.606 27.332 42.5 28.226 42.5 29.332C42.5 30.438 41.606 31.332 40.5 31.332L20.5 31.332C19.394 31.332 18.5 30.438 18.5 29.332C18.5 28.226 19.394 27.332 20.5 27.332L40.5 27.332ZM40.5 16.666C41.606 16.666 42.5 17.56 42.5 18.666C42.5 19.772 41.606 20.666 40.5 20.666L20.5 20.666C19.394 20.666 18.5 19.772 18.5 18.666C18.5 17.56 19.394 16.666 20.5 16.666L40.5 16.666ZM40.5 6C41.606 6 42.5 6.894 42.5 8C42.5 9.106 41.606 10 40.5 10L7.5 10C6.394 10 5.5 9.106 5.5 8C5.5 6.894 6.394 6 7.5 6L40.5 6Z" fill="#191919" fill-rule="evenodd"/>
  <path id="形状结合" d="M8.914 15.379L15.698 22.161C16.71 23.173 16.71 24.825 15.698 25.837L8.914 32.621C8.53 33.003 8.02 33.207 7.502 33.207C7.242 33.207 6.982 33.157 6.732 33.053C5.984 32.743 5.5 32.017 5.5 31.207L5.5 16.793C5.5 15.981 5.984 15.255 6.734 14.945C7.482 14.635 8.342 14.805 8.914 15.379Z" fill="#AEAEAE" fill-rule="evenodd"/>
</svg>
