<svg viewBox="0 0 48 48" xmlns="http://www.w3.org/2000/svg" xmlns:xlink="http://www.w3.org/1999/xlink" width="48.000000" height="48.000000" fill="none">
  <path id="减去顶层" d="M27.65 5.06813C26.996 4.41213 26.092 4.03613 25.168 4.03613L12.078 4.03613C8.77 4.03613 6.078 6.72813 6.078 10.0361L6.078 37.9641C6.078 41.2721 8.77 43.9641 12.078 43.9641L22.6499 43.9641C19.8073 41.5794 18 38.0008 18 34C18 26.8203 23.8203 21 31 21C33.5442 21 35.9177 21.7309 37.922 22.9941L37.922 16.8241C37.922 15.8921 37.56 15.0161 36.904 14.3581L27.65 5.06813ZM25.5194 13.5127L25.524 7.18413L34.8117 16.5118L28.5194 16.5127L28.2316 16.4989C26.7153 16.3529 25.5194 15.0657 25.5194 13.5127ZM12 14.0946C12.0458 12.93 13.0047 12 14.181 12C15.3864 12 16.3636 12.9768 16.3636 14.1818C16.3636 15.3868 15.3864 16.3636 14.181 16.3636C13.0048 16.3636 12.0459 15.2591 12 14.0946ZM12.7273 19.8182C12.7273 19.0036 13.3673 18.3636 14.1818 18.3636C14.9964 18.3636 15.6364 19.0036 15.6364 19.8182L15.6364 28.5455C15.6364 29.36 14.9964 30 14.1818 30C13.3673 30 12.7273 29.36 12.7273 28.5455L12.7273 19.8182Z" fill="#191919" fill-rule="evenodd"/>
  <path id="减去顶层" d="M20 34C20 27.92 24.94 23 31 23C37.08 23 42 27.92 42 34C42 40.06 37.08 45 31 45C24.94 45 20 40.06 20 34ZM30.9578 28.6017C30.6459 28.5339 30.3266 28.5 30 28.5C29.6734 28.5 29.3541 28.5339 29.0422 28.6017C28.7719 28.6604 28.5071 28.7446 28.2479 28.8542C27.9897 28.9635 27.7458 29.0941 27.5161 29.2463C27.2666 29.4116 27.0339 29.6021 26.818 29.818C26.6021 30.0339 26.4116 30.2666 26.2463 30.516L26.2463 30.516C26.0941 30.7458 25.9635 30.9897 25.8542 31.2479C25.7446 31.5072 25.6604 31.7719 25.6017 32.0422C25.5339 32.3541 25.5 32.6734 25.5 33C25.5 33.3266 25.5339 33.6459 25.6017 33.9578C25.6604 34.2281 25.7446 34.4929 25.8542 34.7521C25.9635 35.0103 26.0941 35.2542 26.2463 35.4839L26.2463 35.484C26.4116 35.7334 26.6021 35.9661 26.818 36.182C27.0339 36.3979 27.2666 36.5884 27.516 36.7537C27.7458 36.9058 27.9897 37.0365 28.2479 37.1458C28.5071 37.2554 28.7719 37.3396 29.0422 37.3983C29.3541 37.4661 29.6734 37.5 30 37.5C30.3266 37.5 30.6459 37.4661 30.9578 37.3983C31.2281 37.3396 31.4929 37.2554 31.7521 37.1458C31.8156 37.1189 31.8782 37.0907 31.94 37.0613L33.9393 39.0607C34.5333 39.6547 35.4667 39.6547 36.0606 39.0607C36.6546 38.4667 36.6546 37.5334 36.0607 36.9394L34.0613 34.94C34.0907 34.8782 34.1189 34.8156 34.1458 34.7521C34.2554 34.4929 34.3396 34.2281 34.3983 33.9578C34.4661 33.6459 34.5 33.3266 34.5 33C34.5 32.6734 34.4661 32.3541 34.3983 32.0422C34.3396 31.7719 34.2554 31.5071 34.1458 31.2479C34.0365 30.9897 33.9058 30.7458 33.7537 30.516C33.5884 30.2666 33.3979 30.0339 33.182 29.818C32.9661 29.6021 32.7334 29.4116 32.484 29.2463L32.484 29.2463C32.2542 29.0941 32.0103 28.9635 31.7521 28.8542C31.4929 28.7446 31.2281 28.6604 30.9578 28.6017ZM29.6388 31.5432C29.7557 31.5144 29.876 31.5 30 31.5C30.124 31.5 30.2443 31.5144 30.3612 31.5432C30.4367 31.5619 30.5108 31.5866 30.5834 31.6173C30.662 31.6505 30.7367 31.6898 30.8076 31.7352C30.8983 31.7933 30.9827 31.8613 31.0607 31.9393C31.1387 32.0173 31.2067 32.1017 31.2648 32.1924C31.3102 32.2633 31.3495 32.338 31.3827 32.4166C31.4134 32.4892 31.4381 32.5633 31.4568 32.6388C31.4856 32.7557 31.5 32.8761 31.5 33C31.5 33.1239 31.4856 33.2443 31.4568 33.3612C31.4381 33.4367 31.4134 33.5108 31.3827 33.5834C31.3495 33.662 31.3102 33.7367 31.2648 33.8076C31.2067 33.8983 31.1387 33.9827 31.0607 34.0607C30.9827 34.1387 30.8983 34.2067 30.8076 34.2648C30.7367 34.3102 30.662 34.3495 30.5834 34.3827C30.5108 34.4134 30.4367 34.4381 30.3612 34.4568C30.2443 34.4856 30.1239 34.5 30 34.5C29.8761 34.5 29.7557 34.4856 29.6388 34.4568C29.5633 34.4381 29.4892 34.4134 29.4166 34.3827C29.338 34.3495 29.2633 34.3102 29.1924 34.2648C29.1017 34.2067 29.0173 34.1387 28.9393 34.0607C28.8613 33.9827 28.7933 33.8983 28.7352 33.8075C28.6898 33.7367 28.6505 33.662 28.6173 33.5834C28.5866 33.5108 28.5619 33.4368 28.5432 33.3612C28.5144 33.2444 28.5 33.124 28.5 33C28.5 32.8761 28.5144 32.7557 28.5432 32.6389L28.5432 32.6388C28.5619 32.5633 28.5866 32.4892 28.6173 32.4166C28.6505 32.338 28.6898 32.2633 28.7352 32.1924C28.7933 32.1017 28.8613 32.0173 28.9393 31.9393C29.0173 31.8613 29.1017 31.7933 29.1924 31.7352C29.2633 31.6898 29.338 31.6505 29.4166 31.6173C29.4892 31.5866 29.5633 31.5619 29.6388 31.5432Z" fill="#AEAEAE" fill-rule="evenodd"/>
</svg>
