<svg viewBox="0 0 48 48" xmlns="http://www.w3.org/2000/svg" xmlns:xlink="http://www.w3.org/1999/xlink" width="48.000000" height="48.000000" fill="none">
  <path id="形状结合" d="M37.9821 7.23242C41.1719 7.23242 43.789 9.73557 43.9719 12.8804L43.9821 13.2324L43.9821 28.8744C43.9821 32.0662 41.4789 34.6815 38.334 34.8642L37.9821 34.8744L25.4981 34.8744L25.4981 37.7664L35.9997 37.7676C36.8277 37.7676 37.4997 38.4396 37.4997 39.2676C37.4997 40.0956 36.8277 40.7676 35.9997 40.7676L11.9997 40.7676C11.1717 40.7676 10.4997 40.0956 10.4997 39.2676C10.4997 38.4396 11.1717 37.7676 11.9997 37.7676L22.4981 37.7664L22.4981 34.8744L10.0181 34.8744C6.82628 34.8744 4.211 32.3731 4.02827 29.2266L4.01807 28.8744L4.01807 13.2324C4.01807 10.0426 6.51935 7.42549 9.66589 7.24263L10.0181 7.23242L37.9821 7.23242ZM35.5969 17.0667C35.0637 16.4328 34.1174 16.3511 33.4835 16.8844L27.2991 22.0863L21.8178 16.9388C21.2703 16.5602 20.3506 16.4438 19.8269 16.8832L12.6049 22.9432C12.1197 23.4903 11.9359 24.4796 12.42 25.0565C12.967 25.5417 13.9563 25.7255 14.5333 25.2414L20.7351 20.0363L26.2183 25.1858C26.7664 25.5646 27.687 25.6807 28.2107 25.2402L35.4147 19.1802C35.8992 18.6326 36.0817 17.643 35.5969 17.0667Z" fill="#191919" fill-rule="evenodd"/>
  <path id="形状结合" d="M35.5968 17.0666C36.0816 17.643 36.0583 18.4774 35.5737 19.025L28.2105 25.2401C27.6868 25.6806 26.941 25.7058 26.393 25.327L20.7349 20.0362L14.5331 25.2413C13.9562 25.7254 13.1218 25.701 12.5748 25.2158C12.0907 24.6388 11.9602 23.6451 12.4454 23.0981L19.8268 16.8832C20.3505 16.4437 21.0956 16.419 21.6431 16.7976L27.2989 22.0862L33.4834 16.8843C34.1173 16.3511 35.0635 16.4327 35.5968 17.0666Z" fill="#AEAEAE" fill-rule="evenodd"/>
</svg>
