<svg viewBox="0 0 48 48" xmlns="http://www.w3.org/2000/svg" xmlns:xlink="http://www.w3.org/1999/xlink" width="48.000000" height="48.000000" fill="none">
  <path id="矢量 19" d="M23.5052 4.50846C17.3381 4.72227 14.2475 8.97538 14.2475 15.5061L14.252 15.832C13.5317 16.9511 13.2986 18.6502 13.7975 20.0962L13.926 20.4331C14.3418 21.4259 15.025 22.2515 15.8565 22.7621L16.106 22.902L16.4177 23.4167C16.5204 23.5771 16.6264 23.734 16.7358 23.8872L16.9474 24.1701C18.0721 25.6917 18.1217 26.2457 17.4344 26.6562L17.1755 26.7918L16.9172 26.9109L16.4861 27.0936L16.1343 27.2343L14.0584 28.0198L12.8607 28.4852L11.6042 29.0112L11.1109 29.2332C10.9268 29.3179 10.7585 29.3975 10.5934 29.4776L10.1063 29.7208C6.55855 31.5454 4.51184 33.7517 4.52071 36.7676L4.50014 38.5269L4.50185 39.0488L4.51906 39.5888L4.54073 39.9075C4.72801 42.0712 5.74706 43.4115 7.87434 43.4979L40.0649 43.5C42.317 43.4098 43.3121 42.017 43.4693 39.7826L43.4939 39.2647L43.4998 38.9301L43.497 38.2239L43.4794 36.7566C43.4892 33.4559 41.0871 31.1683 36.9015 29.2396L36.1438 28.9024L35.6515 28.6946L35.1539 28.4918L34.4262 28.2059L32.2217 27.373L31.6699 27.1576L31.3427 27.0236L31.0464 26.8955L30.7031 26.7325C29.8949 26.3214 29.8643 25.8386 30.9515 24.3108L31.3572 23.7521C31.4524 23.6144 31.5457 23.4725 31.6369 23.3269L31.888 22.9L32.1409 22.7614C33.0641 22.1941 33.8046 21.238 34.1986 20.0962L34.3103 19.7331C34.6723 18.3966 34.5123 17.0129 33.8535 15.9866L33.7495 15.5061C33.7495 8.80352 30.4942 4.5 23.9985 4.5L23.5052 4.50846ZM30.7495 15.5061C30.7495 10.307 28.6262 7.5 23.9985 7.5C19.3708 7.5 17.2475 10.307 17.2475 15.5061C17.2475 15.7648 17.2552 16.0243 17.2704 16.2837C17.2979 16.7511 17.1056 17.2045 16.7504 17.5096C16.5017 17.7233 16.3822 18.3897 16.6334 19.1176C16.8497 19.7443 17.2643 20.1861 17.6209 20.2966L17.8439 20.3858C18.1293 20.5275 18.3643 20.7576 18.5116 21.0449C18.7132 21.4379 18.9358 21.8055 19.1569 22.1159L19.578 22.6927C21.5172 25.5089 21.3328 28.0446 18.6434 29.4125L18.1422 29.6492L17.8047 29.7947L17.2265 30.0284L14.4386 31.0873L13.5152 31.4576L13.0425 31.6571L12.3542 31.9634L11.9188 32.1689L11.4627 32.3966C8.82826 33.7516 7.51602 35.1661 7.52066 36.7758L7.51453 37.5034L7.49998 38.542L7.50131 39.0037L7.50905 39.3007L7.5316 39.6754L7.56917 40.0626C7.60611 40.3698 7.64977 40.4554 7.77713 40.4837L40.0041 40.5012C40.2235 40.4615 40.4258 40.297 40.4752 39.596L40.4905 39.3182L40.5 38.9108L40.4795 36.7596C40.4847 34.9902 38.8646 33.4474 35.6582 31.9698L35.1884 31.7583L34.5025 31.4658L34.0397 31.2772L33.3439 31.0038L31.1481 30.1743L30.557 29.9434L30.1809 29.7893L29.8215 29.6337L29.505 29.4868L29.0531 29.2487C26.6301 27.8381 26.5497 25.3222 28.5152 22.5603L28.9557 21.9478C29.146 21.6636 29.3229 21.3621 29.4859 21.0444C29.67 20.6855 29.9908 20.4159 30.3761 20.2964C30.7321 20.1859 31.1465 19.744 31.3627 19.1176C31.6139 18.3896 31.4946 17.7226 31.2446 17.507C30.8907 17.2018 30.6992 16.7492 30.7267 16.2827C30.7419 16.0242 30.7495 15.7647 30.7495 15.5061Z" fill="#191919" fill-rule="evenodd"/>
</svg>
