<svg viewBox="0 0 48 48" xmlns="http://www.w3.org/2000/svg" xmlns:xlink="http://www.w3.org/1999/xlink" width="48.000000" height="48.000000" fill="none">
  <path id="减去顶层" d="M9.22436 17C9.22436 17.8284 9.89593 18.5 10.7244 18.5L38.4998 18.5L38.7039 18.4863C39.4361 18.387 40.0004 17.7594 40.0004 17L39.9998 13.916L39.9896 13.5634C39.8071 10.4132 37.1958 7.916 33.9998 7.916L30.4998 7.916L30.4998 6L30.4861 5.79646C30.3867 5.06431 29.7591 4.5 28.9998 4.5C28.1713 4.5 27.4998 5.17157 27.4998 6L27.4998 7.916L16.4998 7.916L16.4998 6L16.4861 5.79646C16.3867 5.06431 15.7591 4.5 14.9998 4.5C14.1713 4.5 13.4998 5.17157 13.4998 6L13.4998 7.916L9.99976 7.916L9.64714 7.92618C6.49693 8.10863 3.99976 10.7199 3.99976 13.916L3.99976 36.082L4.00994 36.4346C4.19238 39.5848 6.8037 42.082 9.99976 42.082L24.4619 42.082C23.4721 41.2175 22.6138 40.206 21.9217 39.082L9.99976 39.082L9.71072 39.0683C8.1889 38.923 6.99976 37.6421 6.99976 36.082L6.99976 13.916L7.01348 13.627C7.15878 12.1051 8.43969 10.916 9.99976 10.916L33.9998 10.916L34.2888 10.9297C35.8106 11.075 36.9998 12.3559 36.9998 13.916L36.9998 15.5L10.7244 15.5L10.5208 15.5137C9.78866 15.613 9.22436 16.2406 9.22436 17ZM20.0825 30.8194C20.028 31.3024 20 31.7934 20 32.291C20 32.7478 20.0238 33.1992 20.0701 33.6441C20.02 33.5293 19.9909 33.4034 19.9875 33.2714C19.9873 33.263 19.9872 33.2545 19.9872 33.246L19.9872 31.246L19.9872 31.2457C19.9872 31.2231 19.988 31.2006 19.9895 31.1784C19.998 31.0507 20.0305 30.9295 20.0825 30.8194ZM23.9908 22.9235C23.0023 23.8742 22.1635 24.9797 21.5138 26.2012L21.0298 26.2012C20.4919 26.2012 20.0527 25.7738 20.0299 25.2138L20.0298 25.2012L20.0298 23.2012L20.0298 23.2009L20.03 23.1849C20.0385 22.6403 20.4832 22.2009 21.0298 22.2009L23.0298 22.2009C23.4856 22.2009 23.8705 22.5063 23.9908 22.9235ZM15.9597 23.201C15.9597 22.649 15.5117 22.201 14.9597 22.201L12.9597 22.201C12.4131 22.201 11.9684 22.6403 11.9598 23.185L11.9597 23.201L11.9597 23.2012L11.9597 25.2012L11.9598 25.2138C11.9826 25.7739 12.4218 26.2012 12.9597 26.2012L14.9597 26.2012C15.4946 26.2012 15.9318 25.7788 15.9584 25.2522C15.9593 25.2353 15.9597 25.2183 15.9597 25.2012L15.9597 23.201ZM15.9872 31.201C15.9872 30.649 15.5392 30.201 14.9872 30.201L12.9872 30.201C12.4406 30.201 11.9959 30.6403 11.9873 31.185L11.9872 31.201L11.9872 31.2012L11.9872 33.2012L11.9873 33.2138C12.0101 33.7739 12.4493 34.2012 12.9872 34.2012L14.9872 34.2012C15.5221 34.2012 15.9593 33.7788 15.9859 33.2522C15.9868 33.2353 15.9872 33.2183 15.9872 33.2012L15.9872 31.201Z" fill="#191919" fill-rule="evenodd"/>
  <path id="合并" d="M33 21.5C39.0751 21.5 44 26.4249 44 32.5C44 38.5751 39.0751 43.5 33 43.5C26.9249 43.5 22 38.5751 22 32.5C22 26.4249 26.9249 21.5 33 21.5ZM24.64 32.5C24.64 27.8829 28.3829 24.14 33 24.14C37.6171 24.14 41.36 27.8829 41.36 32.5C41.36 37.1171 37.6171 40.86 33 40.86C28.3829 40.86 24.64 37.1171 24.64 32.5ZM34 32.75L34 28C34 27.16 33.34 26.5 32.5 26.5C31.66 26.5 31 27.16 31 28L31 33C31 33.1967 31.022 33.3882 31.066 33.5746L31.066 33.5746C31.11 33.7609 31.176 33.9421 31.2639 34.118C31.3519 34.294 31.4572 34.4555 31.5799 34.6025C31.7026 34.7495 31.8426 34.882 32 35L35.6 37.7C36.272 38.204 37.196 38.072 37.7 37.4C38.204 36.728 38.072 35.804 37.4 35.3L34 32.75Z" fill="#AEAEAE" fill-rule="evenodd"/>
</svg>
