<svg viewBox="0 0 48 48" xmlns="http://www.w3.org/2000/svg" xmlns:xlink="http://www.w3.org/1999/xlink" width="48.000000" height="48.000000" fill="none">
  <path id="矢量 128" d="M24 4C28.2999 4 32.398 5.36188 35.7963 7.84768C36.4184 8.30267 36.5537 9.1757 36.0987 9.79769C35.6438 10.4197 34.7707 10.5551 34.1488 10.1001C31.2246 7.96118 27.7024 6.7907 24 6.7907C14.4955 6.7907 6.7907 14.4956 6.7907 24C6.7907 33.5044 14.4955 41.2093 24 41.2093C33.5045 41.2093 41.2093 33.5044 41.2093 24C41.2093 20.2964 40.0381 16.7732 37.898 13.8485C37.4428 13.2266 37.5781 12.3536 38.1999 11.8985C38.8218 11.4434 39.695 11.5786 40.1501 12.2005C42.6372 15.5994 44 19.6988 44 24C44 35.0457 35.0457 44 24 44C12.9543 44 4 35.0457 4 24C4 12.9543 12.9543 4 24 4ZM16.093 15.1628C17.6343 15.1628 18.8837 16.4122 18.8837 17.9535C18.8837 19.4948 17.6343 20.7442 16.093 20.7442C14.5518 20.7442 13.3023 19.4948 13.3023 17.9535C13.3023 16.4122 14.5518 15.1628 16.093 15.1628ZM34.6977 17.9535C34.6977 16.4122 33.4482 15.1628 31.907 15.1628C30.3657 15.1628 29.1163 16.4122 29.1163 17.9535C29.1163 19.4948 30.3657 20.7442 31.907 20.7442C33.4482 20.7442 34.6977 19.4948 34.6977 17.9535ZM33.6583 31.8263C32.0332 27.9618 28.2533 25.3953 24.001 25.3953C19.7465 25.3953 15.965 27.9644 14.3413 31.832C14.043 32.5425 14.3772 33.3604 15.0877 33.6587C15.7984 33.957 16.6162 33.6228 16.9145 32.9122C18.1074 30.0709 20.8817 28.186 24.001 28.186C27.1188 28.186 29.892 30.0689 31.0859 32.9081C31.3845 33.6184 32.2026 33.9521 32.9129 33.6534C33.6233 33.3547 33.9571 32.5367 33.6583 31.8263Z" fill="#191919" fill-rule="evenodd"/>
  <path id="矢量 129" d="M16.093 15.1626C17.6343 15.1626 18.8837 16.412 18.8837 17.9533C18.8837 19.4946 17.6343 20.744 16.093 20.744C14.5517 20.744 13.3023 19.4946 13.3023 17.9533C13.3023 16.412 14.5517 15.1626 16.093 15.1626ZM34.6977 17.9533C34.6977 16.412 33.4482 15.1626 31.907 15.1626C30.3657 15.1626 29.1163 16.412 29.1163 17.9533C29.1163 19.4946 30.3657 20.744 31.907 20.744C33.4482 20.744 34.6977 19.4946 34.6977 17.9533ZM33.6583 31.8261C32.0332 27.9616 28.2533 25.3952 24.001 25.3952C19.7465 25.3952 15.965 27.9643 14.3413 31.8318C14.043 32.5423 14.3772 33.3602 15.0877 33.6585C15.7983 33.9568 16.6161 33.6226 16.9145 32.912C18.1073 30.0707 20.8817 28.1859 24.001 28.1859C27.1187 28.1859 29.8919 30.0687 31.0858 32.9079C31.3845 33.6182 32.2025 33.9519 32.9129 33.6532C33.6233 33.3545 33.9571 32.5365 33.6583 31.8261Z" fill="#AEAEAE" fill-rule="evenodd"/>
</svg>
