<svg viewBox="0 0 48 48" xmlns="http://www.w3.org/2000/svg" xmlns:xlink="http://www.w3.org/1999/xlink" width="48.000000" height="48.000000" fill="none">
  <path id="形状结合" d="M21.2989 3.69922C30.4229 3.69922 37.8429 11.1212 37.8429 20.2452C37.8429 22.8552 37.2529 25.3552 36.0889 27.6712C35.5909 28.6592 34.3869 29.0592 33.4029 28.5612C32.4169 28.0652 32.0169 26.8612 32.5129 25.8752C33.3969 24.1212 33.8429 22.2272 33.8429 20.2452C33.8429 13.3272 28.2169 7.69922 21.2989 7.69922C14.3809 7.69922 8.75488 13.3272 8.75488 20.2452C8.75488 27.1632 14.3809 32.7892 21.2989 32.7892C24.1769 32.7892 26.9909 31.7912 29.2149 29.9772C29.2866 29.9189 29.361 29.8664 29.4376 29.8196C29.4827 29.7952 29.6178 29.7212 29.6641 29.7005C29.7204 29.6771 29.8277 29.6351 29.8858 29.6172C29.9308 29.6053 30.0647 29.5703 30.1097 29.5619C30.1414 29.5582 30.3105 29.5348 30.3432 29.5326C30.388 29.5322 30.5397 29.5287 30.5858 29.5312C30.6079 29.5348 30.7825 29.5516 30.8044 29.5552C30.8173 29.5596 31.0234 29.604 31.0372 29.608C31.0712 29.6215 31.2394 29.6782 31.273 29.6927C31.2772 29.6951 31.4773 29.795 31.4814 29.7974C31.5091 29.8164 31.6565 29.9109 31.6838 29.9314C31.6901 29.9382 31.8844 30.1054 31.8921 30.113L42.6581 40.887C43.4401 41.669 43.4401 42.935 42.6581 43.715C42.2681 44.105 41.7561 44.301 41.2441 44.301C40.7321 44.301 40.2201 44.105 39.8301 43.715L30.2705 34.1476C27.611 35.8606 24.4852 36.7892 21.2989 36.7892C12.1749 36.7892 4.75488 29.3672 4.75488 20.2452C4.75488 11.1212 12.1749 3.69922 21.2989 3.69922ZM21.2499 12.1956C22.3559 12.1956 23.2499 13.0896 23.2499 14.1956L23.2489 18.1952L27.2499 18.1956C28.3559 18.1956 29.2499 19.0896 29.2499 20.1956C29.2499 21.3016 28.3559 22.1956 27.2499 22.1956L23.2489 22.1952L23.2499 26.1956C23.2499 27.3016 22.3559 28.1956 21.2499 28.1956C20.1439 28.1956 19.2499 27.3016 19.2499 26.1956L19.2489 22.1952L15.2499 22.1956C14.1439 22.1956 13.2499 21.3016 13.2499 20.1956C13.2499 19.0896 14.1439 18.1956 15.2499 18.1956L19.2489 18.1952L19.2499 14.1956C19.2499 13.0896 20.1439 12.1956 21.2499 12.1956Z" fill="#191919" fill-rule="evenodd"/>
  <path id="形状结合" d="M21.2499 12.1956C22.3559 12.1956 23.2499 13.0896 23.2499 14.1956L23.2489 18.1952L27.2499 18.1956C28.3559 18.1956 29.2499 19.0896 29.2499 20.1956C29.2499 21.3016 28.3559 22.1956 27.2499 22.1956L23.2489 22.1952L23.2499 26.1956C23.2499 27.3016 22.3559 28.1956 21.2499 28.1956C20.1439 28.1956 19.2499 27.3016 19.2499 26.1956L19.2489 22.1952L15.2499 22.1956C14.1439 22.1956 13.2499 21.3016 13.2499 20.1956C13.2499 19.0896 14.1439 18.1956 15.2499 18.1956L19.2489 18.1952L19.2499 14.1956C19.2499 13.0896 20.1439 12.1956 21.2499 12.1956Z" fill="#AEAEAE" fill-rule="evenodd"/>
</svg>
