<svg viewBox="0 0 48 48" xmlns="http://www.w3.org/2000/svg" xmlns:xlink="http://www.w3.org/1999/xlink" width="48.000000" height="48.000000" fill="none">
  <path id="矢量 1786" d="M35.1392 4.72998C33.9151 4.24333 32.5941 4 31.1765 4L18.8164 4L18.2186 4.01685C17.5015 4.05762 16.7954 4.16772 16.1144 4.34619C15.4411 4.52279 14.7833 4.76709 14.1453 5.07812C13.8971 5.19922 13.6885 5.35522 13.5194 5.54639C13.3504 5.73747 13.2209 5.96354 13.131 6.22461C13.0411 6.4856 13.0039 6.74365 13.0195 6.99829C13.0355 7.25171 13.104 7.5057 13.2244 7.75244C13.3455 8.00073 13.5015 8.20923 13.6926 8.37842C13.8836 8.54736 14.1097 8.677 14.3708 8.76685C14.6319 8.85669 14.8897 8.8938 15.1443 8.87842C15.399 8.86279 15.6505 8.79443 15.8987 8.67334C16.3363 8.45996 16.7861 8.29736 17.2483 8.1853C17.7584 8.06177 18.2835 8 18.8235 8L31.1698 8L31.5447 8.01001C32.3884 8.05591 33.1715 8.23869 33.8941 8.55835C34.7104 8.91968 35.4516 9.45679 36.1132 10.1677C37.3711 11.5193 38 13.1299 38 15L38 32.9919L37.9837 33.4885C37.9307 34.2805 37.7521 35.0393 37.4477 35.7644C36.9319 36.9939 37.2886 37.8667 38.5181 38.3826C38.7727 38.4895 39.0276 38.5435 39.2827 38.5447C39.5378 38.5459 39.7932 38.4941 40.0488 38.3896C40.56 38.1807 40.9225 37.8215 41.1362 37.3123C41.7121 35.9397 42 34.5024 42 33L42 15L41.9909 14.5464C41.929 13.0312 41.606 11.6353 41.0221 10.3589C40.4732 9.15894 39.6937 8.0647 38.6835 7.07568C37.6096 6.02441 36.4274 5.24219 35.1392 4.72998ZM19.75 43.5C19.3584 43.5 18.9822 43.3467 18.702 43.073L6.95203 31.5994C6.8696 31.5188 6.79742 31.4297 6.73636 31.3345L6.57764 31.0027C6.53149 30.8606 6.50089 30.688 6.50003 30.5435L6.5 16.7368C6.5 13.2825 9.36368 10.5 12.875 10.5L29.125 10.5C32.6363 10.5 35.5 13.2825 35.5 16.7368L35.5 37.2632C35.5 40.7173 32.6363 43.5 29.125 43.5L19.75 43.5ZM15.2241 32.0232L11.7188 32.0251L18.3908 38.4651L18.3908 35.1897C18.3908 33.5381 17.1262 32.1816 15.5123 32.0361L15.2241 32.0232Z" fill="#191919" fill-rule="evenodd"/>
  <path id="矢量 1785" d="M31.1765 4C32.5945 4 33.9158 4.24349 35.1402 4.73047C36.4285 5.24268 37.6096 6.02441 38.6836 7.07568C39.6937 8.06462 40.4732 9.15902 41.0221 10.3589C41.6061 11.6353 41.929 13.0312 41.9909 14.5464L42 15L42 33C42 34.5024 41.7121 35.9397 41.1362 37.3123C40.9225 37.8215 40.56 38.1807 40.0488 38.3896C39.7932 38.4941 39.5378 38.5459 39.2827 38.5447C39.0276 38.5435 38.7727 38.4895 38.5181 38.3826C37.2887 37.8667 36.9319 36.9939 37.4477 35.7644C37.7521 35.0393 37.9307 34.2805 37.9837 33.4885L38 32.9919L38 15C38 13.1299 37.3711 11.5193 36.1132 10.1677C35.4516 9.45679 34.7126 8.92065 33.8963 8.55933C33.1731 8.23901 32.3893 8.05591 31.5447 8.01001L31.1698 8L18.8235 8C18.2835 8 17.7584 8.06177 17.2483 8.1853C16.7861 8.29728 16.3363 8.45996 15.8987 8.67334C15.6505 8.79443 15.399 8.86279 15.1444 8.87842C14.8897 8.8938 14.6319 8.85669 14.3708 8.76685C14.1097 8.677 13.8837 8.54736 13.6926 8.37842C13.5015 8.20931 13.3455 8.00065 13.2244 7.75244C13.1034 7.50439 13.0351 7.25301 13.0195 6.99829C13.0039 6.74357 13.0411 6.48568 13.131 6.22461C13.2209 5.96354 13.3504 5.73747 13.5194 5.54639C13.6885 5.35531 13.8971 5.19922 14.1453 5.07812C14.784 4.76676 15.4404 4.52279 16.1144 4.34619C16.7954 4.16772 17.5015 4.05762 18.2186 4.01685L18.8164 4L31.1765 4Z" fill="#AEAEAE" fill-rule="evenodd"/>
</svg>
