<svg viewBox="0 0 48 48" xmlns="http://www.w3.org/2000/svg" xmlns:xlink="http://www.w3.org/1999/xlink" width="48.000000" height="48.000000" fill="none">
  <path id="形状结合" d="M11.998 42C8.692 42 6 39.308 6 36.002L6 11.998C6 8.692 8.692 6 11.998 6L36.002 6C39.308 6 42 8.692 42 11.998C42 12.826 41.328 13.498 40.5 13.498C39.672 13.498 39 12.826 39 11.998C39 10.346 37.654 9 36.002 9L11.998 9C10.346 9 9 10.346 9 11.998L9 36.002C9 37.654 10.346 39 11.998 39L36.002 39C37.654 39 39 37.654 39 36.002L39 17.0126C39 16.1846 39.672 15.5126 40.5 15.5126C41.328 15.5126 42 16.1846 42 17.0126L42 36.002C42 39.308 39.308 42 36.002 42L11.998 42Z" fill="#191919" fill-rule="evenodd"/>
  <path id="合并" d="M32.5465 35.9649L15.4535 35.9649C14.314 35.9649 13.4593 35.68 12.8895 35.1103C12.3198 34.5405 12.0349 33.6858 12.0349 32.5463L12.0349 15.4533C12.0349 14.3137 12.3198 13.4591 12.8895 12.8893C13.4593 12.3196 14.314 12.0347 15.4535 12.0347L32.5465 12.0347C33.0185 12.0347 33.456 12.1181 33.8589 12.285C34.2618 12.4519 34.6301 12.7022 34.9638 13.036C35.2976 13.3697 35.5479 13.738 35.7148 14.1409C35.8817 14.5438 35.9651 14.9813 35.9651 15.4533L35.9651 29.1533C36.0196 29.3795 36.0199 29.6159 35.9651 29.8435L35.9651 32.5463C35.9651 33.6858 35.6802 34.5405 35.1105 35.1103C34.5407 35.68 33.6861 35.9649 32.5465 35.9649ZM33.0349 26.1219L33.0349 15.4533C33.0349 15.2905 32.9942 15.1684 32.9128 15.087C32.8314 15.0056 32.7093 14.9649 32.5465 14.9649L15.4535 14.9649C15.2907 14.9649 15.1686 15.0056 15.0872 15.087C15.0058 15.1684 14.9651 15.2905 14.9651 15.4533L14.9651 32.5463C14.9651 32.7091 15.0058 32.8312 15.0872 32.9126C15.1686 32.994 15.2907 33.0347 15.4535 33.0347L32.5465 33.0347C32.7093 33.0347 32.8314 32.994 32.9128 32.9126C32.9942 32.8312 33.0349 32.7091 33.0349 32.5463L33.0349 30.1916L28.4473 25.9863L20.9536 32.1577C20.3052 32.6917 19.3761 32.6018 18.8421 31.9533C18.3081 31.3049 18.398 30.3759 19.0465 29.8419L26.8756 23.3943C26.9982 23.2934 27.1278 23.2055 27.2646 23.1306C27.3919 23.061 27.5254 23.0026 27.665 22.9554C27.8025 22.909 27.942 22.8749 28.0834 22.8531C28.2306 22.8304 28.3798 22.821 28.5312 22.825C28.6825 22.8291 28.831 22.8463 28.9768 22.8768C29.1168 22.906 29.2543 22.9475 29.3892 23.0012C29.5262 23.0556 29.6563 23.121 29.7797 23.1973C29.9124 23.2794 30.0372 23.374 30.1542 23.4813L33.0349 26.1219ZM19.9455 18.3199C20.8628 18.3199 21.6068 19.0681 21.6068 19.9906C21.6068 20.9132 20.8628 21.6614 19.9455 21.6614C19.0282 21.6614 18.2842 20.9132 18.2842 19.9906C18.2842 19.0681 19.0282 18.3199 19.9455 18.3199Z" fill="#AEAEAE" fill-rule="evenodd"/>
</svg>
