<svg viewBox="0 0 48 48" xmlns="http://www.w3.org/2000/svg" xmlns:xlink="http://www.w3.org/1999/xlink" width="48.000000" height="48.000000" fill="none">
  <path id="形状结合" d="M37.503 18C38.3314 18 39.003 18.6716 39.003 19.5C39.003 20.2594 38.4387 20.887 37.7065 20.9863L37.503 21L5.12301 20.9988L8.56367 24.4393C9.0962 24.9719 9.14461 25.8052 8.7089 26.3924C8.17637 26.925 7.19781 27.1416 6.61058 26.7059L0.442347 20.5607C-0.452866 19.6654 0.100674 18.1682 1.29769 18.0131L1.50301 18L37.503 18ZM32.3954 0.294104L38.5637 6.43934C39.4589 7.33455 38.9053 8.83178 37.7083 8.98691L37.503 9L1.50301 9C0.67458 9 0.00300741 8.32843 0.00300741 7.5C0.00300741 6.74061 0.567315 6.11302 1.29947 6.01369L1.50301 6L33.881 5.9988L30.4423 2.56066C29.9098 2.02813 29.8614 1.1948 30.2971 0.607576C30.8296 0.0750437 31.8082 -0.141605 32.3954 0.294104Z" fill="#191919" fill-rule="evenodd" transform="matrix(0,-1,1,0,10.5,43.5029)"/>
  <path id="形状结合" d="M32.3954 0.232758L38.5637 6.378C39.4589 7.27321 38.9053 8.77044 37.7083 8.92556L37.503 8.93865L1.50301 8.93865C0.67458 8.93865 0.00300726 8.26708 0.00300726 7.43866C0.00300726 6.67926 0.567315 6.05167 1.29947 5.95235L1.50301 5.93865L33.881 5.93745L30.4423 2.49932C29.9098 1.96678 29.8614 1.13345 30.2971 0.546231C30.8296 0.0136984 31.8082 -0.202951 32.3954 0.232758Z" fill="#AEAEAE" fill-rule="evenodd" transform="matrix(0,-1,1,0,10.562,43.5029)"/>
</svg>
