<svg viewBox="0 0 48 48" xmlns="http://www.w3.org/2000/svg" xmlns:xlink="http://www.w3.org/1999/xlink" width="48.000000" height="48.000000" fill="none">
  <path id="合并" d="M12 10.2564L12 9.3913C12 8.95038 11.952 8.52044 11.8561 8.10147L11.8561 8.10135C11.7974 7.84491 11.7207 7.59259 11.6261 7.34438C11.5874 7.24276 11.546 7.14293 11.5021 7.04489C11.4974 7.03224 11.4926 7.01962 11.4878 7.00704L34.5 7.00704C34.8492 7.00704 35.1895 7.04548 35.5209 7.12235C35.7693 7.17998 36.0127 7.25922 36.2512 7.36006C36.4982 7.46453 36.7323 7.58881 36.9535 7.73289C37.2142 7.90276 37.4571 8.10015 37.682 8.32506C37.9069 8.54996 38.1043 8.79279 38.2741 9.05355C38.4182 9.27477 38.5425 9.50888 38.647 9.7559C38.7479 9.99434 38.8271 10.2378 38.8847 10.4863C38.9616 10.8176 39 11.1579 39 11.507L39 38.0023C39 38.4744 39.0528 38.9341 39.1584 39.3813C39.264 39.8284 39.4223 40.2631 39.6334 40.6853C39.6873 40.793 39.7439 40.8984 39.8031 41.0016L16.5 41.0016C16.1508 41.0016 15.8105 40.9632 15.4791 40.8863C15.2307 40.8287 14.9873 40.7494 14.7489 40.6486C14.5019 40.5442 14.2678 40.4199 14.0467 40.2758C13.7859 40.106 13.543 39.9086 13.318 39.6836C13.0931 39.4586 12.8956 39.2158 12.7258 38.9549C12.5817 38.7338 12.4575 38.4997 12.353 38.2528C12.2522 38.0144 12.1729 37.7709 12.1153 37.5225C12.0384 37.1911 12 36.8508 12 36.5016L12 24.5043L12 10.2564ZM9 25.002L9 36.5016C9 37.0535 9.05796 37.5926 9.17389 38.119L9.174 38.1195C9.2716 38.5625 9.41027 38.9965 9.59 39.4214C9.77042 39.848 9.98608 40.2513 10.237 40.6313C10.5139 41.0509 10.8338 41.4421 11.1967 41.8049C11.5595 42.1678 11.9507 42.4877 12.3702 42.7646C12.7503 43.0155 13.1536 43.2312 13.5802 43.4116C14.0052 43.5914 14.4393 43.7301 14.8824 43.8277C15.4088 43.9436 15.948 44.0016 16.5 44.0016L45.0002 44.0016C45.9612 44.0016 46.369 42.7782 45.6001 42.2016L43.1998 40.4016C43.0109 40.2599 42.8429 40.1009 42.6957 39.9246L42.6955 39.9243C42.5484 39.7481 42.4221 39.5545 42.3167 39.3435C42.2111 39.1325 42.132 38.9152 42.0792 38.6917C42.0264 38.4681 42 38.2383 42 38.0023L42 11.507C42 10.9552 41.9421 10.416 41.8261 9.88967C41.7285 9.44648 41.5898 9.01233 41.41 8.58724C41.2296 8.16065 41.0139 7.75733 40.763 7.37727C40.486 6.95775 40.1661 6.56657 39.8033 6.20374C39.4405 5.84092 39.0493 5.52104 38.6298 5.24409C38.2498 4.99317 37.8464 4.77748 37.4198 4.59704C36.9948 4.41726 36.5607 4.27856 36.1175 4.18095C35.5911 4.06501 35.0519 4.00704 34.5 4.00704L8.20295 4.00704C8.01505 3.99047 7.83421 4.00315 7.66043 4.04508C7.6579 4.04569 7.65537 4.04631 7.65284 4.04693C7.43824 4.01694 7.22055 4.00195 6.99975 4.00195C6.67825 4.00195 6.3633 4.03375 6.05491 4.09735C5.69426 4.17173 5.34258 4.28959 4.99987 4.45095C4.8154 4.5378 4.63767 4.6353 4.46667 4.74344C4.08052 4.98766 3.7287 5.28616 3.41123 5.63896C3.25946 5.80762 3.11941 5.98441 2.99108 6.16933C2.74075 6.53007 2.53501 6.92176 2.37388 7.3444C2.27922 7.5927 2.20253 7.84512 2.14382 8.10164C2.04794 8.52056 2 8.95045 2 9.3913L2 23.4658C2 23.5699 2.01016 23.6719 2.03049 23.7719C2.05071 23.8714 2.08099 23.9688 2.12134 24.0642C2.16018 24.156 2.20694 24.2426 2.2616 24.3238C2.31643 24.4052 2.37921 24.4813 2.44994 24.552C2.52067 24.6227 2.59676 24.6855 2.6782 24.7404C2.7594 24.795 2.84593 24.8418 2.93777 24.8806C3.03316 24.921 3.13058 24.9512 3.23006 24.9715C3.33003 24.9918 3.43208 25.002 3.53619 25.002L9 25.002ZM9 22.002L9 10.253C8.99976 9.40326 8.90659 8.71195 8.7205 8.17911C8.64256 8.02266 8.55009 7.87791 8.44307 7.74485C8.4159 7.71107 8.38778 7.67804 8.35874 7.64576C8.17686 7.44367 7.97266 7.28732 7.74612 7.17671C7.73814 7.17282 7.73013 7.16898 7.7221 7.1652C7.58184 7.09917 7.43805 7.05317 7.29073 7.02721C7.19522 7.01037 7.09823 7.00195 6.99975 7.00195C6.90166 7.00195 6.80504 7.01031 6.70988 7.02704C6.56231 7.05297 6.41828 7.09901 6.27778 7.16516C6.26989 7.16887 6.26203 7.17264 6.25419 7.17647C6.02753 7.28708 5.82322 7.44349 5.64125 7.6457C5.61223 7.67795 5.58415 7.71095 5.557 7.74471C5.39844 7.94184 5.2718 8.16465 5.17706 8.41312C5.14756 8.4905 5.12175 8.56892 5.09962 8.64835C5.03321 8.88675 5 9.1344 5 9.3913L5 22.002L9 22.002Z" fill="#191919" fill-rule="evenodd"/>
  <path id="合并" d="M17.5 13.5L35 13.5C35.84 13.5 36.5 14.16 36.5 15C36.5 15.84 35.84 16.5 35 16.5L17.5 16.5C16.66 16.5 16 15.84 16 15C16 14.16 16.66 13.5 17.5 13.5ZM17.5 20.5L35 20.5C35.84 20.5 36.5 21.16 36.5 22C36.5 22.84 35.84 23.5 35 23.5L17.5 23.5C16.66 23.5 16 22.84 16 22C16 21.16 16.66 20.5 17.5 20.5ZM26.25 27.5L17.5 27.5C16.66 27.5 16 28.16 16 29C16 29.84 16.66 30.5 17.5 30.5L26.25 30.5C27.09 30.5 27.75 29.84 27.75 29C27.75 28.16 27.09 27.5 26.25 27.5Z" fill="#AEAEAE" fill-rule="evenodd"/>
</svg>
