<svg viewBox="0 0 48 48" xmlns="http://www.w3.org/2000/svg" xmlns:xlink="http://www.w3.org/1999/xlink" width="48.000000" height="48.000000" fill="none">
  <path id="形状结合" d="M26.3892 8.6362C26.4939 8.94152 26.5601 9.25827 26.5867 9.57911L26.6 9.90106L26.598 39L28.998 39L29 21.9799L29.0159 21.6279C29.0688 21.0443 29.2527 20.4785 29.5558 19.9734C30.664 18.1264 33.0596 17.5275 34.9065 18.6357L40.1065 21.7557L40.3694 21.9282C41.3876 22.6564 42 23.8354 42 25.0999L41.998 39L42.6 39C43.4284 39 44.1 39.6716 44.1 40.5C44.1 41.2594 43.5357 41.887 42.8035 41.9863L42.6 42L5.5 42C4.67157 42 4 41.3284 4 40.5C4 39.7406 4.56431 39.113 5.29646 39.0137L5.5 39L6.098 39L6.1 14.2553C6.1 12.6931 7.03058 11.2926 8.44577 10.6783L8.73514 10.5662L21.4351 6.21187C23.4726 5.51331 25.6906 6.59871 26.3892 8.6362ZM36 26L35 26L34.7965 26.0137C34.0643 26.113 33.5 26.7406 33.5 27.5C33.5 28.2594 34.0643 28.887 34.7965 28.9863L35 29L36 29L36.2035 28.9863C36.9357 28.887 37.5 28.2594 37.5 27.5C37.5 26.7406 36.9357 26.113 36.2035 26.0137L36 26ZM19.4 22L13.4 22L13.1965 22.0137C12.4643 22.113 11.9 22.7406 11.9 23.5C11.9 24.2594 12.4643 24.887 13.1965 24.9863L13.4 25L19.4 25L19.6035 24.9863C20.3357 24.887 20.9 24.2594 20.9 23.5C20.9 22.6716 20.2284 22 19.4 22ZM19.4 17L13.4 17L13.1965 17.0137C12.4643 17.113 11.9 17.7406 11.9 18.5C11.9 19.2594 12.4643 19.887 13.1965 19.9863L13.4 20L19.4 20L19.6035 19.9863C20.3357 19.887 20.9 19.2594 20.9 18.5C20.9 17.7406 20.3357 17.113 19.6035 17.0137L19.4 17Z" fill="#191919" fill-rule="evenodd"/>
  <path id="形状结合" d="M35.9996 26L34.9996 26L34.7961 26.0137C34.0639 26.113 33.4996 26.7406 33.4996 27.5C33.4996 28.2594 34.0639 28.887 34.7961 28.9863L34.9996 29L35.9996 29L36.2031 28.9863C36.9353 28.887 37.4996 28.2594 37.4996 27.5C37.4996 26.7406 36.9353 26.113 36.2031 26.0137L35.9996 26ZM19.3996 22L13.3996 22L13.1961 22.0137C12.4639 22.113 11.8996 22.7406 11.8996 23.5C11.8996 24.2594 12.4639 24.887 13.1961 24.9863L13.3996 25L19.3996 25L19.6032 24.9863C20.3353 24.887 20.8996 24.2594 20.8996 23.5C20.8996 22.6716 20.228 22 19.3996 22ZM19.3996 17L13.3996 17L13.1961 17.0137C12.4639 17.113 11.8996 17.7406 11.8996 18.5C11.8996 19.2594 12.4639 19.887 13.1961 19.9863L13.3996 20L19.3996 20L19.6032 19.9863C20.3353 19.887 20.8996 19.2594 20.8996 18.5C20.8996 17.7406 20.3353 17.113 19.6032 17.0137L19.3996 17Z" fill="#AEAEAE" fill-rule="evenodd"/>
</svg>
