<svg viewBox="0 0 48 48" xmlns="http://www.w3.org/2000/svg" xmlns:xlink="http://www.w3.org/1999/xlink" width="48.000000" height="48.000000" fill="none">
  <path id="形状结合" d="M36 6C39.1954 6 41.8073 8.49784 41.9898 11.6475L42 12L42 36C42 39.1954 39.5022 41.8073 36.3525 41.9898L36 42L12 42C8.80464 42 6.19268 39.5022 6.01019 36.3525L6 36L6 12C6 8.80464 8.49784 6.19268 11.6475 6.01019L12 6L36 6ZM33.1304 22.5L14.8696 22.5C14.2011 22.5993 13.5 23.2406 13.5 24C13.5 24.8284 14.1132 25.5 14.8696 25.5L33.1304 25.5C33.7989 25.4007 34.5 24.7594 34.5 24C34.5 23.1716 33.8868 22.5 33.1304 22.5Z" fill="#191919" fill-rule="evenodd"/>
  <path id="形状结合" d="M33.1304 22.5C33.8868 22.5 34.5 23.1716 34.5 24C34.5 24.7594 33.9848 25.387 33.3163 25.4863L14.8696 25.5C14.1132 25.5 13.5 24.8284 13.5 24C13.5 23.2406 14.0152 22.613 14.6837 22.5137L33.1304 22.5Z" fill="#AEAEAE" fill-rule="evenodd"/>
</svg>
