<svg viewBox="0 0 48 48" xmlns="http://www.w3.org/2000/svg" xmlns:xlink="http://www.w3.org/1999/xlink" width="48.000000" height="48.000000" fill="none">
  <path id="减去顶层" d="M24.6328 5.61049L25.0112 5.81276L36.9904 12.7849C38.7359 13.8006 39.8537 15.6239 39.9867 17.6319L40 18.0357L40 23.0436C39.0707 22.4487 38.0607 21.9687 36.9901 21.6238L36.9901 18.0317L31.7928 21.0553C29.436 21.2723 27.2613 22.1185 25.4382 23.4243C25.355 23.3373 25.2809 23.2388 25.2182 23.1295C24.8372 22.4648 25.0126 21.6303 25.5988 21.1732L35.478 15.408L23.5065 8.43892C22.6666 7.95087 21.6539 7.90207 20.7799 8.29224L20.4941 8.43856L8.514 15.404L22.7301 23.6732C23.1355 23.9004 23.4258 24.3108 23.4908 24.7933L23.5045 24.9991L23.5045 25.121C22.1127 26.6088 21.0664 28.4241 20.4938 30.4387L20.494 25.874L7.00987 18.0317L7.00987 31.9681C7.00987 32.9531 7.48419 33.8705 8.26981 34.4361L8.51467 34.5949L20.4935 41.5608L20.4936 37.5605C21.2513 40.2271 22.8388 42.5444 24.9593 44.2157C24.051 44.7327 23.0427 44.9941 22.0332 44.9997C21.1525 44.9945 20.2043 44.7948 19.3904 44.4006L18.9893 44.1873L7.00963 37.2209C5.26382 36.205 4.14622 34.3815 4.01334 32.3722L4 31.9681L4 18.0317C4 16.0011 5.00955 14.1123 6.67031 12.9934L7.01104 12.7801L18.9897 5.81221C20.7294 4.80137 22.8426 4.73399 24.6328 5.61049Z" fill="#191919" fill-rule="evenodd"/>
  <path id="合并" d="M33 23C39.0751 23 44 27.9249 44 34C44 40.0751 39.0751 45 33 45C26.9249 45 22 40.0751 22 34C22 27.9249 26.9249 23 33 23ZM24.64 34C24.64 29.3829 28.3829 25.64 33 25.64C37.6171 25.64 41.36 29.3829 41.36 34C41.36 38.6171 37.6171 42.36 33 42.36C28.3829 42.36 24.64 38.6171 24.64 34ZM34.0368 35.73C32.4778 35.263 30.5382 35.8851 28.2178 37.5963C27.6593 38.0082 26.8793 37.5216 27.1236 36.872C27.8747 34.875 28.959 33.4917 30.3765 32.7221C31.4171 32.1571 32.6372 31.9228 34.0368 32.0192L34.0368 30.6619C34.0368 30.0346 34.7875 29.712 35.2426 30.1436L38.7926 33.5106C39.0962 33.7985 39.0884 34.2847 38.7756 34.5627L35.2256 37.7181C34.765 38.1276 34.0368 37.8006 34.0368 37.1842L34.0368 35.73Z" fill="#AEAEAE" fill-rule="evenodd"/>
</svg>
