<svg viewBox="0 0 48 48" xmlns="http://www.w3.org/2000/svg" xmlns:xlink="http://www.w3.org/1999/xlink" width="48.000000" height="48.000000" fill="none">
  <path id="形状结合" d="M4 30.0095C6.206 30.0095 8 31.8013 8 34.0047C8 36.2081 6.206 38 4 38C1.794 38 0 36.2081 0 34.0047C0 31.8013 1.794 30.0095 4 30.0095ZM4 15.0252C6.206 15.0252 8 16.8171 8 19.0205C8 21.2239 6.206 23.0157 4 23.0157C1.794 23.0157 0 21.2239 0 19.0205C0 16.8171 1.794 15.0252 4 15.0252ZM4 0C6.206 0 8 1.79188 8 3.99527C8 6.19866 6.206 7.99054 4 7.99054C1.794 7.99054 0 6.19866 0 3.99527C0 1.79188 1.794 0 4 0Z" fill="#191919" fill-rule="evenodd" transform="matrix(0,1,-1,0,43,19.9775)"/>
  <path id="形状结合" d="M4 0C6.206 0 8 1.79188 8 3.99527C8 6.19866 6.206 7.99053 4 7.99053C1.794 7.99053 0 6.19866 0 3.99527C0 1.79188 1.794 0 4 0Z" fill="#AEAEAE" fill-rule="evenodd" transform="matrix(0,1,-1,0,27.9746,19.9775)"/>
</svg>
