<svg viewBox="0 0 48 48" xmlns="http://www.w3.org/2000/svg" xmlns:xlink="http://www.w3.org/1999/xlink" width="48.000000" height="48.000000" fill="none">
  <path id="减去顶层" d="M23.6163 7.5C26.6248 7.5 29.0626 9.78615 29.0626 12.6041C29.0626 13.986 28.8955 15.1986 28.5952 16.2368C23.3104 18.0637 19.5 23.0845 19.5 29C19.5 30.957 19.9198 32.8188 20.6739 34.5L13.4134 34.5C11.9072 34.5 10.7903 33.2272 11.0333 31.8718L11.0865 31.6454L11.9785 26.6297C12.3506 25.3502 13.1727 24.2311 14.3066 23.4515L14.656 23.228L20.8132 19.565C19.1891 18.1529 18.1732 15.6009 18.1732 12.6041C18.1732 9.78615 20.611 7.5 23.6163 7.5ZM36.559 15.9731C36.6814 15.2376 36.7472 14.4281 36.7472 13.5461C36.7472 10.8655 34.623 8.69097 31.9993 8.69097C31.5387 8.69097 31.0934 8.75807 30.6742 8.88352C31.3736 10.013 31.7865 11.3311 31.7865 12.7371C31.7865 13.7618 31.7152 14.7064 31.5832 15.5737C32.0489 15.525 32.5216 15.5 33 15.5C34.2321 15.5 35.4253 15.6646 36.559 15.9731ZM15.0007 8.69097C15.5527 8.69097 16.0826 8.78732 16.5725 8.96505C15.961 10.0763 15.6107 11.3647 15.6107 12.7371C15.6107 15.1701 16.0104 17.1514 16.6737 18.7188L16.8611 19.136L13.1365 21.3586L12.7596 21.6265C11.4086 22.6467 10.4017 24.0798 9.87433 25.7379L9.74249 26.1955L8.94441 31.2237L8.85518 31.638C8.71263 32.4687 8.78476 33.309 9.05664 34.0842L9.20916 34.4661L6.10431 34.465L5.86373 34.4512C4.6825 34.3153 3.84189 33.1904 4.0251 31.9905L4.0756 31.7498L4.85124 26.8847L4.97245 26.489C5.33287 25.4497 5.98748 24.5423 6.85278 23.8836L7.18698 23.6484L12.4431 20.2364L12.216 20.0113C11.0297 18.753 10.2528 16.5779 10.2528 13.5461C10.2528 10.8655 12.377 8.69097 15.0007 8.69097Z" fill="#191919" fill-rule="evenodd"/>
  <path id="减去顶层" d="M22 29C22 22.92 26.94 18 33 18C39.08 18 44 22.92 44 29C44 35.06 39.08 40 33 40C26.94 40 22 35.06 22 29ZM31 26.0001C31 24.8955 30.1046 24.0001 29 24.0001C27.8954 24.0001 27 24.8955 27 26.0001C27 27.1046 27.8954 28.0001 29 28.0001C30.1046 28.0001 31 27.1046 31 26.0001ZM39.7286 26.0001C39.7286 25.1716 39.057 24.5001 38.2286 24.5001L33.4957 24.5001L33.2922 24.5138C32.56 24.6131 31.9957 25.2407 31.9957 26.0001C31.9957 26.7595 32.56 27.387 33.2922 27.4864L33.4957 27.5001L38.2286 27.5001L38.4322 27.4864C39.1643 27.387 39.7286 26.7595 39.7286 26.0001ZM31 32.0097C31 30.9051 30.1046 30.0097 29 30.0097C27.8954 30.0097 27 30.9051 27 32.0097C27 33.1143 27.8954 34.0097 29 34.0097C30.1046 34.0097 31 33.1143 31 32.0097ZM39.7286 32.0097C39.7286 31.1813 39.057 30.5097 38.2286 30.5097L33.4957 30.5097L33.2922 30.5234C32.56 30.6227 31.9957 31.2503 31.9957 32.0097C31.9957 32.7691 32.56 33.3967 33.2922 33.496L33.4957 33.5097L38.2286 33.5097L38.4322 33.496C39.1643 33.3967 39.7286 32.7691 39.7286 32.0097Z" fill="#AEAEAE" fill-rule="evenodd"/>
</svg>
