<svg viewBox="0 0 48 48" xmlns="http://www.w3.org/2000/svg" xmlns:xlink="http://www.w3.org/1999/xlink" width="48.000000" height="48.000000" fill="none">
  <path id="形状" d="M7.5 6.01416C8.25939 6.01416 8.88698 6.57847 8.98631 7.31062L9 7.51416L9 36.5C9 37.7944 9.98375 38.8591 11.2444 38.9871L11.5 39L40.4953 39C41.3238 39 41.9953 39.6716 41.9953 40.5C41.9953 41.2594 41.431 41.887 40.6989 41.9863L40.4953 42L11.5 42C8.57494 42 6.18319 39.7166 6.01004 36.835L6 36.5L6 7.51416C6 6.68573 6.67157 6.01416 7.5 6.01416ZM13.3103 26.2857C14.0697 26.2857 14.6973 26.85 14.7967 27.5822L14.8103 27.7857L14.8103 34.7143C14.8103 35.5427 14.1388 36.2143 13.3103 36.2143C12.551 36.2143 11.9234 35.65 11.824 34.9178L11.8103 34.7143L11.8103 27.7857C11.8103 26.9573 12.4819 26.2857 13.3103 26.2857ZM21.3103 23.2143C22.0697 23.2143 22.6973 23.7786 22.7967 24.5107L22.8103 24.7143L22.8103 34.7143C22.8103 35.5427 22.1388 36.2143 21.3103 36.2143C20.551 36.2143 19.9234 35.65 19.824 34.9178L19.8103 34.7143L19.8103 24.7143C19.8103 23.8859 20.4819 23.2143 21.3103 23.2143ZM29.3103 26.2857C30.0697 26.2857 30.6973 26.85 30.7967 27.5822L30.8103 27.7857L30.8103 34.7143C30.8103 35.5427 30.1388 36.2143 29.3103 36.2143C28.551 36.2143 27.9234 35.65 27.824 34.9178L27.8103 34.7143L27.8103 27.7857C27.8103 26.9573 28.4819 26.2857 29.3103 26.2857ZM37.3103 17.2143C38.0697 17.2143 38.6973 17.7786 38.7966 18.5107L38.8103 18.7143L38.8103 34.7143C38.8103 35.5427 38.1388 36.2143 37.3103 36.2143C36.551 36.2143 35.9234 35.65 35.824 34.9178L35.8103 34.7143L35.8103 18.7143C35.8103 17.8859 36.4819 17.2143 37.3103 17.2143ZM39.6161 8.55893C40.1064 9.13056 40.0911 9.96515 39.6118 10.5174L28.9941 19.4307C28.4014 19.9391 27.5302 19.902 26.9821 19.3777L22.478 13.7062L13.1336 20.5675C12.5264 21.0131 11.6954 20.9346 11.181 20.4148C10.7354 19.8077 10.6697 18.8076 11.1895 18.2932L21.8711 10.4336C22.4628 9.99933 23.2706 10.0617 23.7888 10.5524L28.226 16.1362L37.501 8.39697C38.1298 7.85762 39.0768 7.93013 39.6161 8.55893Z" fill="#191919" fill-rule="nonzero"/>
  <path id="形状" d="M39.6162 8.55884C40.1065 9.13047 40.0911 9.96507 39.6119 10.5173L28.9942 19.4306C28.4015 19.939 27.5302 19.9019 26.9821 19.3776L22.4781 13.7061L13.1336 20.5674C12.5265 21.013 11.6954 20.9345 11.1811 20.4147C10.7355 19.8076 10.6698 18.8075 11.1895 18.2931L21.8712 10.4335C22.4629 9.99924 23.2706 10.0616 23.7889 10.5523L28.2261 16.1361L37.501 8.39689C38.1298 7.85753 39.0768 7.93004 39.6162 8.55884Z" fill="#AEAEAE" fill-rule="nonzero"/>
</svg>
