<svg viewBox="0 0 48 48" xmlns="http://www.w3.org/2000/svg" xmlns:xlink="http://www.w3.org/1999/xlink" width="48.000000" height="48.000000" fill="none">
  <path id="合并" d="M36.4898 10.1475C36.3073 6.99784 33.6954 4.5 30.5 4.5L10.5 4.5L10.1475 4.51019C6.99784 4.69268 4.5 7.30464 4.5 10.5L4.5 37.5L4.51019 37.8525C4.69268 41.0022 7.30464 43.5 10.5 43.5L19.3 43.5L19.5035 43.4863C20.2357 43.387 20.8 42.7594 20.8 42C20.8 41.1716 20.1284 40.5 19.3 40.5L10.5 40.5L10.2111 40.4863C8.68978 40.3409 7.5 39.0594 7.5 37.5L7.5 10.5L7.51373 10.2111C7.6591 8.68978 8.94061 7.5 10.5 7.5L30.5 7.5L30.7889 7.51373C32.3102 7.6591 33.5 8.94061 33.5 10.5L33.5 14.8438L33.5137 15.0473C33.613 15.7794 34.2406 16.3438 35 16.3438C35.8284 16.3438 36.5 15.6722 36.5 14.8438L36.5 10.5L36.4898 10.1475ZM27 11.5C27.8284 11.5 28.5 12.1716 28.5 13C28.5 13.7594 27.9357 14.387 27.2035 14.4863L27 14.5L13 14.5C12.1716 14.5 11.5 13.8284 11.5 13C11.5 12.2406 12.0643 11.613 12.7964 11.5137L13 11.5L27 11.5ZM21.5 19C21.5 18.1716 20.8284 17.5 20 17.5L13 17.5L12.7964 17.5137C12.0643 17.613 11.5 18.2406 11.5 19C11.5 19.8284 12.1716 20.5 13 20.5L20 20.5L20.2035 20.4863C20.9357 20.387 21.5 19.7594 21.5 19ZM31 18.5C37.9035 18.5 43.5 24.0964 43.5 31C43.5 37.9036 37.9035 43.5 31 43.5C24.0964 43.5 18.5 37.9036 18.5 31C18.5 24.0964 24.0964 18.5 31 18.5ZM21.5 31C21.5 25.7533 25.7533 21.5 31 21.5C36.2467 21.5 40.5 25.7533 40.5 31C40.5 36.2467 36.2467 40.5 31 40.5C25.7533 40.5 21.5 36.2467 21.5 31Z" fill="#191919" fill-rule="evenodd"/>
  <path id="合并" d="M43.5 31C43.5 24.0964 37.9035 18.5 31 18.5C24.0964 18.5 18.5 24.0964 18.5 31C18.5 37.9036 24.0964 43.5 31 43.5C37.9035 43.5 43.5 37.9036 43.5 31ZM31 21.5C25.7533 21.5 21.5 25.7533 21.5 31C21.5 36.2467 25.7533 40.5 31 40.5C36.2467 40.5 40.5 36.2467 40.5 31C40.5 25.7533 36.2467 21.5 31 21.5ZM31.3246 23.0185C31.2171 23.0062 31.1089 23 31 23C30.891 23 30.7828 23.0062 30.6753 23.0185C30.4123 23.0487 30.1534 23.116 29.8989 23.2201C29.5701 23.3547 29.2568 23.5479 28.959 23.7999C28.4773 24.2073 28.0533 24.7506 27.6869 25.4295C26.9156 25.4072 26.233 25.5029 25.6392 25.7163C25.2721 25.8483 24.9481 26.023 24.6672 26.2404C24.4497 26.4088 24.2621 26.5994 24.1043 26.8121C24.0399 26.899 23.9805 26.9896 23.926 27.0839C23.8716 27.1782 23.8228 27.275 23.7797 27.3743C23.6744 27.6173 23.6032 27.875 23.5661 28.1476C23.5183 28.4996 23.529 28.8675 23.5982 29.2514C23.7103 29.8722 23.9687 30.511 24.3734 31.1677C23.9687 31.8244 23.7103 32.4632 23.5982 33.0841C23.529 33.468 23.5183 33.8359 23.5661 34.1879C23.6032 34.4605 23.6744 34.7183 23.7798 34.9612C23.8228 35.0605 23.8716 35.1572 23.926 35.2516C23.9805 35.3459 24.0399 35.4365 24.1044 35.5234C24.2621 35.7362 24.4497 35.9267 24.6672 36.0951C24.9481 36.3125 25.2721 36.4872 25.6392 36.6192C26.2329 36.8326 26.9152 36.9282 27.6863 36.906C28.0528 37.5855 28.477 38.129 28.959 38.5367C29.2568 38.7887 29.5701 38.9819 29.8989 39.1164C30.1534 39.2206 30.4123 39.2878 30.6753 39.3181L30.6754 39.3181C30.7829 39.3304 30.891 39.3366 31 39.3366C31.1089 39.3366 31.2171 39.3304 31.3246 39.3181C31.5877 39.2878 31.8465 39.2206 32.101 39.1164C32.4298 38.9819 32.7431 38.7887 33.0409 38.5367C33.5227 38.1292 33.9468 37.5858 34.3132 36.9067C35.0845 36.9289 35.767 36.8332 36.3608 36.6198C36.7278 36.4879 37.0518 36.3132 37.3327 36.0957C37.5502 35.9273 37.7379 35.7368 37.8956 35.5241C37.96 35.4371 38.0195 35.3465 38.0739 35.2522C38.1284 35.1579 38.1771 35.0611 38.2202 34.9618C38.3256 34.7189 38.3968 34.4611 38.4338 34.1886C38.4817 33.8366 38.471 33.4686 38.4017 33.0848C38.2896 32.4637 38.0311 31.8247 37.6261 31.1677C38.0311 30.5108 38.2896 29.8718 38.4017 29.2507C38.471 28.8668 38.4817 28.4989 38.4338 28.1469C38.3968 27.8744 38.3255 27.6166 38.2202 27.3737C38.1771 27.2744 38.1284 27.1776 38.0739 27.0833C38.0195 26.9889 37.96 26.8983 37.8956 26.8114C37.7379 26.5987 37.5502 26.4081 37.3327 26.2398C37.0518 26.0223 36.7278 25.8476 36.3608 25.7157C35.7668 25.5022 35.0841 25.4066 34.3127 25.4288C33.9464 24.7502 33.5225 24.2072 33.0409 23.7998C32.7431 23.5479 32.4298 23.3547 32.101 23.2201C31.8465 23.116 31.5876 23.0487 31.3246 23.0185ZM35.3719 28.6438C35.3442 28.4851 35.3139 28.3276 35.2808 28.1712C35.2294 27.9279 35.1723 27.6915 35.1095 27.4619C35.3199 27.4904 35.5115 27.5357 35.6842 27.5978C36.0017 27.7119 36.2209 27.8737 36.3419 28.0833C36.4629 28.2928 36.4934 28.5636 36.4335 28.8956C36.4009 29.0763 36.3443 29.2649 36.2637 29.4615C36.0965 29.2926 35.9206 29.1252 35.736 28.9593C35.617 28.8524 35.4956 28.7472 35.3719 28.6438ZM35.1098 34.8736C35.1724 34.6443 35.2294 34.4082 35.2808 34.1654C35.314 34.0086 35.3444 33.8506 35.3721 33.6915C35.4958 33.5881 35.6171 33.483 35.736 33.3762C35.9206 33.2103 36.0965 33.0429 36.2637 32.874C36.3443 33.0706 36.4009 33.2592 36.4335 33.4399C36.4934 33.7719 36.4629 34.0427 36.3419 34.2522C36.2209 34.4618 36.0017 34.6236 35.6842 34.7377C35.5116 34.7998 35.3201 34.8451 35.1098 34.8736ZM32.1536 25.7556C32.0239 25.5881 31.8891 25.4451 31.7492 25.3268C31.4917 25.1089 31.2419 25 31 25C30.758 25 30.5082 25.1089 30.2507 25.3268C30.1106 25.4452 29.9757 25.5884 29.8459 25.7562C30.0758 25.8166 30.3088 25.8852 30.5448 25.9622C30.6966 26.0117 30.848 26.0641 30.9991 26.1194C31.1507 26.0638 31.3028 26.0112 31.4551 25.9615C31.691 25.8846 31.9238 25.816 32.1536 25.7556ZM28.4939 32.6149C28.4418 32.1451 28.4158 31.6629 28.4158 31.1683C28.4158 30.6732 28.4419 30.1906 28.494 29.7205C28.8749 29.4405 29.2795 29.1768 29.7079 28.9295C30.1361 28.6823 30.5665 28.4638 30.9992 28.274C31.4324 28.4639 31.8633 28.6826 32.292 28.9301C32.7205 29.1775 33.1251 29.4412 33.5059 29.7212C33.558 30.1911 33.5841 30.6735 33.5841 31.1683C33.5841 31.6627 33.5581 32.1447 33.5061 32.6142C33.1252 32.8943 32.7205 33.158 32.292 33.4054C31.8633 33.6529 31.4324 33.8716 30.9992 34.0614C30.5665 33.8717 30.1361 33.6532 29.7079 33.406C29.2794 33.1586 28.8748 32.8949 28.4939 32.6149ZM29.8452 36.5795C29.9752 36.7477 30.1104 36.8911 30.2507 37.0098C30.5082 37.2277 30.758 37.3366 31 37.3366C31.2419 37.3366 31.4917 37.2277 31.7492 37.0098C31.8894 36.8913 32.0244 36.748 32.1543 36.58C31.9243 36.5196 31.6912 36.4509 31.4551 36.374C31.3028 36.3243 31.1507 36.2717 30.9991 36.2161C30.848 36.2714 30.6966 36.3238 30.5448 36.3733C30.3086 36.4503 30.0754 36.5191 29.8452 36.5795ZM26.6279 33.6922C26.6556 33.8511 26.686 34.0088 26.7191 34.1654C26.7704 34.408 26.8273 34.6438 26.8899 34.8729C26.6797 34.8444 26.4883 34.7991 26.3157 34.7371C25.9983 34.6229 25.7791 34.4611 25.6581 34.2516C25.5371 34.042 25.5065 33.7712 25.5664 33.4393C25.599 33.2589 25.6555 33.0705 25.7358 32.8743C25.9032 33.0433 26.0792 33.2108 26.264 33.3768C26.3829 33.4837 26.5042 33.5888 26.6279 33.6922ZM26.8902 27.4625C26.8275 27.692 26.7705 27.9282 26.7191 28.1712C26.6861 28.3273 26.6557 28.4847 26.6281 28.6431C26.5044 28.7465 26.383 28.8517 26.264 28.9587C26.0792 29.1247 25.9032 29.2922 25.7358 29.4612C25.6555 29.265 25.599 29.0766 25.5664 28.8962C25.5065 28.5642 25.5371 28.2935 25.6581 28.0839C25.7791 27.8744 25.9983 27.7125 26.3157 27.5984C26.4884 27.5364 26.6799 27.4911 26.8902 27.4625Z" fill="#AEAEAE" fill-rule="evenodd"/>
</svg>
