<svg viewBox="0 0 48 48" xmlns="http://www.w3.org/2000/svg" xmlns:xlink="http://www.w3.org/1999/xlink" width="48.000000" height="48.000000" fill="none">
  <path id="减去顶层" d="M22.0051 4.00846C15.8379 4.22227 12.7474 8.47538 12.7474 15.0061L12.7519 15.332L12.6442 15.485C11.9239 16.6041 11.7984 18.1502 12.2974 19.5962L12.4259 19.9331C12.8416 20.9259 13.5249 21.7515 14.3564 22.2621L14.6059 22.402L14.9175 22.9167C15.0202 23.0771 15.1263 23.234 15.2357 23.3872L15.4473 23.6701C16.5719 25.1917 16.6216 25.7457 15.9343 26.1562L15.6754 26.2918L15.4171 26.4109L14.986 26.5936L14.6342 26.7343L12.5582 27.5198L11.3605 27.9852L10.1041 28.5112L9.61078 28.7332C9.42667 28.8179 9.25832 28.8975 9.09324 28.9776L8.6062 29.2208C5.05841 31.0454 3.0117 33.2517 3.02058 36.2676L3 38.0269L3.00171 38.5488L3.01892 39.0888L3.04059 39.4075C3.22788 41.5712 4.24692 42.9115 6.37421 42.9979L24.2011 42.9991C21.6085 40.4581 20 36.9169 20 33C20 25.6527 25.6598 19.6273 32.8574 19.046C33.1562 17.7684 32.9815 16.4651 32.3533 15.4866L32.2439 15.332L32.2494 15.0061C32.2494 8.30352 28.994 4 22.4984 4L22.0051 4.00846Z" fill="#191919" fill-rule="evenodd"/>
  <path id="合并" d="M34 22C40.0751 22 45 26.9249 45 33C45 39.0751 40.0751 44 34 44C27.9249 44 23 39.0751 23 33C23 26.9249 27.9249 22 34 22ZM39.4095 29.7504C39.5788 29.8769 39.7134 30.0458 39.7993 30.2427C39.9368 30.5449 39.9461 30.8894 39.8242 31.2003C39.7071 31.5131 39.4695 31.7628 39.1651 31.8956C38.9695 31.9844 38.7563 32.0198 38.5456 32.0006L29.6633 32.0006C28.9638 32.0006 28.4145 31.4512 28.4145 30.752C28.4145 30.0528 28.9638 29.5034 29.6633 29.5034L35.7621 29.5034C35.685 29.1305 35.783 28.7288 36.0621 28.4184C36.5299 27.8987 37.306 27.8578 37.826 28.3256L39.4095 29.7504ZM32.5571 35.9966C32.6342 36.3695 32.5361 36.7712 32.2566 37.0816C31.7888 37.6013 31.0126 37.6422 30.4931 37.1744L28.9096 35.7496C28.7404 35.6231 28.6052 35.4542 28.5194 35.2573C28.3823 34.9551 28.3726 34.6106 28.495 34.2997C28.6121 33.9869 28.8496 33.7372 29.154 33.6044C29.3497 33.5156 29.5628 33.4802 29.7731 33.4994L38.6558 33.4994C39.3554 33.4994 39.9046 34.0488 39.9046 34.748C39.9046 35.4472 39.3554 35.9966 38.6558 35.9966L32.5571 35.9966Z" fill="#AEAEAE" fill-rule="evenodd"/>
</svg>
