<svg viewBox="0 0 48 48" xmlns="http://www.w3.org/2000/svg" xmlns:xlink="http://www.w3.org/1999/xlink" width="48.000000" height="48.000000" fill="none">
  <path id="形状结合" d="M23.2037 9C28.1966 9 32.6685 11.8611 34.7495 16.2493C35.1045 16.9979 34.7854 17.8924 34.0369 18.2474C33.2884 18.6023 32.3938 18.2833 32.0389 17.5348C30.4519 14.1882 27.0316 12 23.2037 12C17.9194 12 13.6963 15.9225 13.4719 20.9579L13.4625 21.4804C13.4625 22.3088 12.791 22.9804 11.9625 22.9804C8.38834 22.9804 5.5 25.8254 5.5 29.3235C5.5 32.8216 8.38834 35.6667 11.9625 35.6667L34.3981 35.6667C38.8777 35.6667 42.5 32.0987 42.5 27.7088C42.5 24.6571 40.4084 21.785 37.6705 20.4488L37.387 20.3171C36.6291 19.9826 36.2857 19.0971 36.6202 18.3392C36.9546 17.5812 37.8401 17.2379 38.5981 17.5724L38.9863 17.7527C42.7413 19.5853 45.5 23.4947 45.5 27.7088C45.5 33.6215 40.7586 38.4326 34.8337 38.6584L34.3513 38.6667L11.8689 38.6667L11.5298 38.6571C6.50918 38.4338 2.5 34.3452 2.5 29.3235C2.5 24.6398 5.98765 20.7679 10.5307 20.0867C11.1849 13.7922 16.5874 9 23.2037 9Z" fill="#191919" fill-rule="evenodd"/>
  <path id="形状结合" d="M11.5004 0.232759L17.3247 6.034L17.5189 6.27232C17.5443 6.32589 17.6679 6.56161 17.6874 6.62013C17.7292 6.75709 17.764 6.94233 17.764 7.09466C17.764 7.17144 17.7582 7.24688 17.7471 7.32056L17.6978 7.53662C17.6809 7.58322 17.6382 7.6987 17.6177 7.7417L17.4956 7.95118L17.3247 8.15532L11.6627 13.8173C11.0769 14.4031 10.1271 14.4031 9.54134 13.8173C9.00881 13.2848 8.96039 12.4515 9.3961 11.8642L12.642 8.59266L1.5 8.59466C0.671574 8.59466 0 7.92308 0 7.09466C0 6.33526 0.564308 5.70767 1.29646 5.60835L1.5 5.59465L12.642 5.59266L9.54734 2.49932C9.01481 1.96678 8.9664 1.13345 9.4021 0.546231C9.93464 0.0136976 10.9132 -0.20295 11.5004 0.232759Z" fill="#AEAEAE" fill-rule="evenodd" transform="matrix(0,1,1,0,17.2073,16.4189)"/>
</svg>
