<svg viewBox="0 0 48 48" xmlns="http://www.w3.org/2000/svg" xmlns:xlink="http://www.w3.org/1999/xlink" width="48.000000" height="48.000000" fill="none">
  <path id="合并" d="M5.5 24.6363L5.5 37C5.5 37.4768 5.54994 37.9427 5.64983 38.3976C5.73448 38.7831 5.85501 39.1608 6.01142 39.5306C6.16811 39.901 6.35544 40.2512 6.57343 40.5811C6.81316 40.944 7.08995 41.2823 7.40381 41.5962C7.71765 41.91 8.05597 42.1868 8.41879 42.4265C8.74875 42.6445 9.09897 42.8319 9.46945 42.9886C9.83922 43.145 10.2169 43.2655 10.6024 43.3502C11.0573 43.4501 11.5232 43.5 12 43.5L36 43.5C36.4768 43.5 36.9426 43.4501 37.3975 43.3502C37.7831 43.2655 38.1608 43.145 38.5305 42.9886C38.901 42.8319 39.2512 42.6446 39.5812 42.4266C39.944 42.1868 40.2823 41.91 40.5962 41.5962C40.9101 41.2823 41.1869 40.9439 41.4266 40.5811C41.6446 40.2511 41.8319 39.901 41.9886 39.5306C42.145 39.1608 42.2655 38.7831 42.3502 38.3976C42.4501 37.9427 42.5 37.4768 42.5 37L42.5 31.7274C42.5 31.2827 42.4397 30.8558 42.319 30.4466C42.2226 30.1201 42.0878 29.8048 41.9146 29.5009C41.7432 29.2004 41.5432 28.9262 41.3146 28.6785C41.0514 28.3933 40.7503 28.1431 40.4112 27.9279C40.0721 27.7127 39.7175 27.5467 39.3473 27.43C39.0258 27.3287 38.6926 27.2645 38.3477 27.2374C37.999 27.21 37.6564 27.2223 37.3198 27.2742C36.8983 27.3392 36.4863 27.4663 36.0839 27.6557L25.0645 32.8414C24.8959 32.9207 24.723 32.9802 24.5455 33.0198C24.3681 33.0595 24.1863 33.0793 24 33.0793C23.8137 33.0793 23.6319 33.0595 23.4545 33.0198C23.2771 32.9802 23.1041 32.9207 22.9355 32.8414L8.5 26.0481L8.5 13C8.5 12.7259 8.53042 12.4589 8.59125 12.199C8.63592 12.0082 8.69698 11.8212 8.77443 11.6381C8.85516 11.4472 8.9511 11.2663 9.06226 11.0952C9.19489 10.8911 9.34918 10.7011 9.52513 10.5251C9.70109 10.3492 9.89112 10.1949 10.0952 10.0622C10.2663 9.95109 10.4473 9.85515 10.6381 9.77443C10.8212 9.69697 11.0082 9.63591 11.199 9.59125C11.4589 9.53042 11.7259 9.5 12 9.5L36 9.5C36.2741 9.5 36.5411 9.53042 36.801 9.59126C36.9918 9.63592 37.1788 9.69698 37.3619 9.77443C37.5527 9.85515 37.7337 9.95109 37.9048 10.0622C38.1089 10.1949 38.2989 10.3492 38.4749 10.5251C38.6508 10.7011 38.8051 10.8911 38.9377 11.0952C39.0489 11.2663 39.1448 11.4472 39.2256 11.6381C39.303 11.8213 39.3641 12.0083 39.4088 12.1991C39.4696 12.459 39.5 12.7259 39.5 13L39.5 24C39.5 24.84 40.16 25.5 41 25.5C41.84 25.5 42.5 24.84 42.5 24L42.5 13C42.5 12.5232 42.4501 12.0573 42.3502 11.6024C42.2655 11.2169 42.145 10.8392 41.9886 10.4694C41.8319 10.099 41.6445 9.74876 41.4265 9.41879C41.1868 9.05597 40.91 8.71765 40.5962 8.40381C40.2823 8.08994 39.944 7.81314 39.5811 7.57341C39.2512 7.35543 38.901 7.1681 38.5306 7.01142C38.1608 6.85501 37.7831 6.73448 37.3976 6.64983C36.9427 6.54994 36.4768 6.5 36 6.5L12 6.5C11.5232 6.5 11.0573 6.54994 10.6024 6.64983C10.2169 6.73449 9.83922 6.85502 9.46945 7.01142C9.099 7.1681 8.74881 7.35544 8.41887 7.57342C8.05602 7.81315 7.71767 8.08994 7.40381 8.40381C7.08995 8.71766 6.81316 9.05601 6.57344 9.41884C6.35545 9.74879 6.16811 10.099 6.01142 10.4694C5.85502 10.8392 5.73449 11.2169 5.64983 11.6024C5.54994 12.0573 5.5 12.5232 5.5 13L5.5 24.6363ZM8.5 29.3637L8.5 37C8.5 37.2741 8.53042 37.5411 8.59125 37.801C8.63591 37.9918 8.69697 38.1788 8.77443 38.3619C8.85516 38.5528 8.95111 38.7337 9.06227 38.9048C9.1949 39.1089 9.34918 39.2989 9.52513 39.4749C9.70106 39.6508 9.89107 39.8051 10.0952 39.9377C10.2662 40.0489 10.4472 40.1448 10.6381 40.2256C10.8212 40.303 11.0082 40.3641 11.199 40.4088C11.4589 40.4696 11.7259 40.5 12 40.5L36 40.5C36.2741 40.5 36.541 40.4696 36.8009 40.4088C36.9917 40.3641 37.1787 40.303 37.3619 40.2256C37.5527 40.1449 37.7336 40.0489 37.9047 39.9378C38.1088 39.8052 38.2989 39.6509 38.4749 39.4749C38.6508 39.2989 38.8051 39.1089 38.9378 38.9047C39.0489 38.7337 39.1449 38.5527 39.2256 38.3619C39.303 38.1787 39.3641 37.9917 39.4088 37.8009C39.4696 37.541 39.5 37.2741 39.5 37L39.5 31.7274C39.5 31.5473 39.4715 31.3774 39.4145 31.2176C39.3862 31.1381 39.3508 31.0612 39.3084 30.9868C39.26 30.9019 39.2044 30.8232 39.1418 30.7506C39.0458 30.6396 38.9331 30.543 38.8037 30.4609C38.6743 30.3788 38.539 30.3179 38.3977 30.2784C38.3053 30.2526 38.2104 30.2358 38.113 30.2282C38.0276 30.2215 37.9429 30.2222 37.8589 30.2304C37.6901 30.2469 37.5242 30.2935 37.3613 30.3702L26.3419 35.5558C25.9711 35.7303 25.5905 35.8612 25.2002 35.9485C24.8099 36.0357 24.4098 36.0793 24 36.0793C23.5902 36.0793 23.1901 36.0357 22.7998 35.9485C22.4095 35.8612 22.0289 35.7303 21.6581 35.5558L8.5 29.3637Z" fill="#191919" fill-rule="evenodd"/>
  <path id="矢量 1908" d="M13.5 13L22.5 13C23.3284 13 24 13.6716 24 14.5C24 15.2593 23.4357 15.887 22.7035 15.9863L22.5 16L13.5 16C12.6716 16 12 15.3284 12 14.5C12 13.7407 12.5643 13.113 13.2965 13.0137L13.5 13ZM13.5 19L34.5 19C35.3284 19 36 19.6716 36 20.5C36 21.2593 35.4357 21.887 34.7035 21.9863L34.5 22L13.5 22C12.6716 22 12 21.3284 12 20.5C12 19.7407 12.5643 19.113 13.2965 19.0137L13.5 19ZM18.5 25L27.5 25C28.3284 25 29 25.6716 29 26.5C29 27.2593 28.4357 27.887 27.7035 27.9863L27.5 28L18.5 28C17.6716 28 17 27.3284 17 26.5C17 25.7407 17.5643 25.113 18.2965 25.0137L18.5 25Z" fill="#AEAEAE" fill-rule="evenodd"/>
</svg>
