<svg viewBox="0 0 48 48" xmlns="http://www.w3.org/2000/svg" xmlns:xlink="http://www.w3.org/1999/xlink" width="48.000000" height="48.000000" fill="none">
  <path id="合并" d="M37.9898 10.1475C37.8073 6.99784 35.1954 4.5 32 4.5L11 4.5L10.6475 4.51019C7.49784 4.69268 5 7.30464 5 10.5L5 37.5L5.01019 37.8525C5.19268 41.0022 7.80464 43.5 11 43.5L22.8 43.5L23.0035 43.4863C23.7357 43.387 24.3 42.7594 24.3 42C24.3 41.1716 23.6284 40.5 22.8 40.5L11 40.5L10.7111 40.4863C9.18978 40.3409 8 39.0594 8 37.5L8 10.5L8.01373 10.2111C8.1591 8.68978 9.44061 7.5 11 7.5L32 7.5L32.2889 7.51373C33.8102 7.6591 35 8.94061 35 10.5L35 18.8438L35.0137 19.0473C35.113 19.7794 35.7406 20.3438 36.5 20.3438C37.3284 20.3438 38 19.6722 38 18.8438L38 10.5L37.9898 10.1475ZM20.1654 16.034L17.7942 13.0699C17.2695 12.4139 16.3418 12.3108 15.6859 12.8357C15.0299 13.3604 14.9269 14.2881 15.4516 14.9439L18.4137 18.6465L14.6229 18.6465C13.7829 18.6465 13.1229 19.3067 13.1229 20.1465C13.1229 20.9866 13.7829 21.6465 14.6229 21.6465L18.6312 21.6465L18.6312 23.909L14.5 23.909C13.66 23.909 13 24.5691 13 25.409C13 26.249 13.66 26.909 14.5 26.909L18.6312 26.909L18.6312 29.7945C18.6312 30.6345 19.2912 31.2944 20.1312 31.2944C20.9712 31.2944 21.6312 30.6345 21.6312 29.7945L21.6312 26.909L24.0059 26.909L24.0059 24.5007C24.0059 24.2947 24.0367 24.096 24.094 23.909L21.6312 23.909L21.6312 21.6465L25.6395 21.6465C26.4795 21.6465 27.1395 20.9866 27.1395 20.1465C27.1395 19.3067 26.4795 18.6465 25.6395 18.6465L21.8829 18.6465L24.996 14.9778C25.5395 14.3375 25.4632 13.407 24.8227 12.8636C24.1822 12.3201 23.252 12.3963 22.7085 13.0369L20.1654 16.034Z" fill="#191919" fill-rule="evenodd"/>
  <path id="矢量 1947(边框)" d="M36.6568 21.7385C36.2845 21.5795 35.8953 21.5 35.4891 21.5L29.4904 21.5C29.2786 21.5 29.0715 21.5216 28.869 21.5648C28.683 21.6045 28.5009 21.6624 28.3227 21.7385C28.1535 21.8108 27.9936 21.8971 27.8429 21.9972C27.675 22.1089 27.5187 22.2379 27.3738 22.3842C27.2358 22.5235 27.1136 22.6733 27.0069 22.8335C26.902 22.9912 26.8123 23.1591 26.7377 23.337C26.6649 23.5109 26.6092 23.6883 26.5705 23.8694C26.5265 24.0751 26.5045 24.2855 26.5045 24.5005L26.5045 30.2403L24.989 30.2403C24.7592 30.2403 24.5351 30.2652 24.3167 30.3148C24.2288 30.3348 24.1419 30.3588 24.0558 30.3868C23.9116 30.4338 23.7726 30.4911 23.6389 30.5589C23.5035 30.6275 23.3735 30.7068 23.2489 30.7967C23.1557 30.8639 23.067 30.9361 22.9827 31.0132C22.8544 31.1306 22.7366 31.2594 22.6291 31.3995C22.5552 31.4959 22.4875 31.596 22.4261 31.6998C22.3449 31.8368 22.2747 31.9802 22.2152 32.13C22.111 32.3929 22.0445 32.6645 22.0159 32.9449C21.9862 33.235 21.9982 33.5222 22.0519 33.8066C22.0801 33.9561 22.1193 34.1018 22.1695 34.2436C22.2196 34.3853 22.2806 34.5231 22.3525 34.657C22.5014 34.9342 22.6914 35.1841 22.9226 35.4069L30.458 42.6656C30.6107 42.8127 30.7751 42.941 30.9512 43.0507C31.1022 43.1448 31.2618 43.2251 31.43 43.2916C31.6031 43.3601 31.7795 43.4117 31.9591 43.4464C32.1455 43.4824 32.3354 43.5003 32.5288 43.5C32.9086 43.4994 33.2747 43.4289 33.627 43.2883C33.7958 43.2209 33.9559 43.1397 34.1072 43.0446C34.2822 42.9346 34.4455 42.8061 34.5972 42.659L42.0844 35.4001C42.3145 35.177 42.5035 34.9269 42.6515 34.6497C42.7945 34.3817 42.8939 34.0984 42.9496 33.7998C43.0026 33.5156 43.014 33.2287 42.9838 32.939C42.9547 32.6591 42.8878 32.3879 42.7833 32.1255C42.6785 31.8627 42.5404 31.6197 42.3689 31.3965C42.2614 31.2567 42.1435 31.1283 42.0153 31.0112C41.9311 30.9343 41.8424 30.8623 41.7492 30.7951C41.5017 30.6169 41.233 30.4807 40.9431 30.3864C40.6436 30.289 40.333 30.2403 40.0113 30.2403L38.475 30.2403L38.475 24.5005C38.475 24.2855 38.453 24.0751 38.409 23.8694C38.3703 23.6883 38.3145 23.5109 38.2417 23.337C38.0915 22.9783 37.8795 22.6607 37.6057 22.3842C37.3308 22.1066 37.0145 21.8914 36.6568 21.7385ZM35.475 24.5L29.5045 24.5L29.5045 24.5005L29.5045 33.2403L25.0024 33.2403C25.002 33.2415 25.0017 33.2427 25.0014 33.2438C25.0023 33.2447 25.0032 33.2456 25.0042 33.2466L32.5242 40.4904L39.9962 33.2462C39.9971 33.2453 39.998 33.2444 39.9988 33.2435C39.9985 33.2425 39.9982 33.2414 39.9979 33.2403L35.475 33.2403L35.475 24.5005L35.475 24.5Z" fill="#AEAEAE" fill-rule="evenodd"/>
</svg>
