<svg viewBox="0 0 48 48" xmlns="http://www.w3.org/2000/svg" xmlns:xlink="http://www.w3.org/1999/xlink" width="48.000000" height="48.000000" fill="none">
  <path id="形状结合" d="M21.5 33C21.5 26.6487 26.6487 21.5 33 21.5C39.3513 21.5 44.5 26.6487 44.5 33C44.5 39.3513 39.3513 44.5 33 44.5C26.6487 44.5 21.5 39.3513 21.5 33ZM41.74 33C41.74 28.173 37.827 24.26 33 24.26C28.173 24.26 24.26 28.173 24.26 33C24.26 37.827 28.173 41.74 33 41.74C37.827 41.74 41.74 37.827 41.74 33ZM32.1414 28.3531C31.6074 27.8093 30.7336 27.8014 30.1898 28.3354L26.5619 31.8981L26.4207 32.0569C25.9503 32.6654 25.9974 33.5443 26.5619 34.0987L30.1931 37.6646L30.3491 37.7968C30.8929 38.1928 31.6591 38.1413 32.1446 37.6469L32.2768 37.4909C32.6728 36.9471 32.6213 36.1808 32.1269 35.6954L30.7877 34.38L38.52 34.38L38.7073 34.3674C39.3809 34.276 39.9 33.6986 39.9 33C39.9 32.2378 39.2822 31.62 38.52 31.62L30.7842 31.62L32.1237 30.3046L32.2587 30.1511C32.6644 29.6145 32.6268 28.8474 32.1414 28.3531Z" fill="#AEAEAE" fill-rule="evenodd"/>
  <path id="合并" d="M19.4119 41.5L11 41.5C10.448 41.5 9.90883 41.442 9.3824 41.3261C8.93928 41.2285 8.50522 41.0898 8.0802 40.91C7.65362 40.7296 7.2503 40.5139 6.87024 40.263C6.45072 39.986 6.05954 39.6661 5.6967 39.3033C5.33388 38.9405 5.01399 38.5493 4.73704 38.1298C4.48612 37.7497 4.27044 37.3464 4.09 36.9198C3.91022 36.4947 3.77152 36.0606 3.67391 35.6175C3.55797 35.0911 3.5 34.5519 3.5 34L3.5 11C3.5 10.4481 3.55797 9.90893 3.67391 9.38255C3.77152 8.93938 3.91021 8.50527 4.09 8.0802C4.27043 7.65363 4.48609 7.25032 4.73699 6.87027L4.73699 6.87026C5.01395 6.45073 5.33386 6.05954 5.6967 5.6967C6.05954 5.33385 6.45074 5.01395 6.87028 4.73698L6.87028 4.73698C7.25033 4.48608 7.65363 4.27043 8.0802 4.09C8.50524 3.91023 8.93933 3.77153 9.38247 3.67393L9.38254 3.67391C9.90892 3.55797 10.4481 3.5 11 3.5L37 3.5C37.5519 3.5 38.0911 3.55797 38.6175 3.67391C39.0606 3.77152 39.4947 3.91022 39.9198 4.09C40.3464 4.27043 40.7497 4.4861 41.1298 4.73701C41.5493 5.01397 41.9405 5.33387 42.3033 5.6967C42.6662 6.05955 42.9861 6.45075 43.263 6.87029L43.2631 6.87042C43.514 7.25042 43.7296 7.65368 43.91 8.0802C44.0898 8.50522 44.2285 8.93929 44.3261 9.38241C44.442 9.90884 44.5 10.448 44.5 11L44.5 21.0312C44.5 21.8713 43.84 22.5312 43 22.5312C42.16 22.5312 41.5 21.8713 41.5 21.0312L41.5 11C41.5 10.6508 41.4616 10.3105 41.3847 9.9791C41.3271 9.73068 41.2478 9.48726 41.147 9.24886C41.0425 9.0019 40.9183 8.76783 40.7742 8.54666C40.6043 8.28585 40.4069 8.04297 40.182 7.81802C39.957 7.59304 39.7141 7.3956 39.4532 7.2257C39.2321 7.08168 38.9981 6.95745 38.7511 6.85302C38.5127 6.75218 38.2693 6.67294 38.0209 6.61531C37.6895 6.53844 37.3492 6.5 37 6.5L11 6.5C10.6508 6.5 10.3105 6.53844 9.97913 6.61531L9.97909 6.61532C9.73067 6.67295 9.48726 6.75218 9.24886 6.85302C9.00189 6.95747 8.76782 7.08173 8.54665 7.22579C8.28584 7.39567 8.04296 7.59308 7.81802 7.81802C7.59308 8.04296 7.39567 8.28583 7.2258 8.54664C7.08174 8.76781 6.95748 9.00189 6.85302 9.24886C6.75218 9.48727 6.67294 9.73069 6.61531 9.97912C6.53844 10.3105 6.5 10.6508 6.5 11L6.5 34C6.5 34.3492 6.53844 34.6895 6.61532 35.0209C6.67295 35.2693 6.75218 35.5127 6.85302 35.7511C6.95747 35.9981 7.08172 36.2322 7.22577 36.4533C7.39565 36.7141 7.59307 36.957 7.81802 37.182C8.04298 37.4069 8.28588 37.6044 8.54671 37.7743C8.76787 37.9183 9.00191 38.0425 9.24886 38.147C9.48726 38.2478 9.73068 38.3271 9.9791 38.3847C10.3105 38.4616 10.6508 38.5 11 38.5L19.4119 38.5C20.2519 38.5 20.9119 39.16 20.9119 40C20.9119 40.84 20.2519 41.5 19.4119 41.5ZM36.3022 11.2555C35.891 10.5363 34.9746 10.2866 34.2555 10.6978L24.3816 16.3436L24.2144 16.4333C23.9946 16.5254 23.79 16.5092 23.6339 16.4124L13.6856 11.2947L13.4983 11.2138C12.8017 10.9675 12.0129 11.2678 11.6659 11.9432C11.2872 12.6801 11.5776 13.5843 12.3144 13.963L22.1578 19.0213L22.4176 19.1664C23.4861 19.6958 24.8862 19.616 25.9642 18.8898L35.7446 13.3022L35.9145 13.1893C36.5008 12.7396 36.6791 11.9147 36.3022 11.2555Z" fill="#191919" fill-rule="evenodd"/>
</svg>
