<svg viewBox="0 0 48 48" xmlns="http://www.w3.org/2000/svg" xmlns:xlink="http://www.w3.org/1999/xlink" width="48.000000" height="48.000000" fill="none">
  <path id="合并" d="M27.7852 12.7566L27.786 12.7567C28.5311 12.851 29.2601 13.0008 29.973 13.2063C30.5727 13.3792 31.161 13.5913 31.738 13.8429C32.3765 14.1212 32.9885 14.4422 33.574 14.8058C34.1253 15.1481 34.6531 15.5282 35.1575 15.9461C35.7262 16.4173 36.2524 16.926 36.7362 17.4723C37.1378 17.9258 37.5101 18.4052 37.8532 18.9104C38.2383 19.4775 38.5789 20.0661 38.8752 20.6763C39.1726 21.2889 39.4252 21.9232 39.6331 22.5792L41.9819 29.9868C42.1239 30.435 42.2368 30.8885 42.3205 31.3474C42.3943 31.7517 42.4454 32.1602 42.4739 32.5729C42.503 32.9966 42.508 33.4191 42.4886 33.8406C42.4683 34.2839 42.4211 34.726 42.3471 35.1668C42.2766 35.5866 42.1828 35.9996 42.0655 36.4059L42.0653 36.4065C41.9425 36.8321 41.7939 37.2503 41.6197 37.6611C41.4641 38.0279 41.29 38.3842 41.0973 38.7303C40.8625 39.1518 40.6002 39.5579 40.3103 39.9487C40.0571 40.29 39.7864 40.6148 39.4981 40.9232C39.1856 41.2576 38.8525 41.5726 38.4987 41.8684C38.1933 42.1238 37.8761 42.3618 37.5472 42.5823C37.154 42.846 36.7441 43.0847 36.3175 43.2985C35.9384 43.4885 35.551 43.6563 35.1555 43.8019C34.7342 43.957 34.3036 44.0869 33.8638 44.1916C33.4546 44.2889 33.0425 44.3632 32.6277 44.4145C32.1665 44.4715 31.7019 44.5 31.2337 44.5L16.7674 44.5C16.3167 44.5 15.8692 44.4736 15.4249 44.4208C15.0201 44.3727 14.6179 44.3027 14.2184 44.2107C13.7905 44.1123 13.3711 43.9899 12.9602 43.8437C12.576 43.707 12.1991 43.5494 11.8297 43.3709C11.4132 43.1697 11.0119 42.9447 10.6259 42.6961C10.3032 42.4881 9.9912 42.2637 9.68986 42.0226C9.3394 41.7422 9.00802 41.4431 8.6957 41.1253C8.41049 40.835 8.14119 40.5291 7.88779 40.2076C7.59526 39.8365 7.32826 39.45 7.08677 39.0481C6.88974 38.7203 6.7097 38.3822 6.54664 38.0339C6.36205 37.6396 6.20159 37.2373 6.06527 36.827L6.0652 36.8267C5.93676 36.4401 5.82975 36.0464 5.74416 35.6455C5.65313 35.2191 5.58756 34.7904 5.54743 34.3593C5.50977 33.9546 5.49454 33.5479 5.50173 33.139C5.50886 32.7338 5.53795 32.3313 5.589 31.9317C5.64565 31.4882 5.72936 31.0481 5.84011 30.6115L7.67988 23.3618C7.8613 22.6465 8.09529 21.9537 8.38184 21.2833L8.38186 21.2833C8.66105 20.6301 8.99014 19.9983 9.36912 19.3879C9.71011 18.8386 10.0848 18.3172 10.4932 17.8238L10.4933 17.8237L10.4933 17.8236C10.9846 17.2301 11.5247 16.6769 12.1135 16.1641C12.6393 15.7062 13.1923 15.2906 13.7725 14.9174L13.7726 14.9174C14.3817 14.5256 15.0209 14.1805 15.69 13.882C16.2967 13.6115 16.916 13.3847 17.5481 13.2017L17.5481 13.2017C17.8794 13.1057 18.2142 13.0218 18.5525 12.9499L18.5525 12.8905L19.8731 12.7313C21.1932 12.5723 22.513 12.4949 23.8325 12.4992C25.1504 12.5035 26.4679 12.5893 27.7852 12.7566ZM27.408 15.7328C26.2132 15.581 25.0182 15.5032 23.8229 15.4993C22.7458 15.4957 21.6685 15.5522 20.591 15.6688L20.2279 15.7115C19.5845 15.7872 18.9565 15.915 18.3437 16.0948C17.8568 16.2376 17.3796 16.4133 16.912 16.6219C16.3795 16.8594 15.871 17.1343 15.3865 17.4465C14.931 17.7401 14.4967 18.0668 14.0838 18.4264C13.6084 18.8404 13.1734 19.2875 12.7788 19.7678C12.4666 20.1478 12.1796 20.5486 11.9179 20.9702C11.622 21.4468 11.3647 21.94 11.1461 22.4498L11.146 22.4499L11.146 22.45C10.9179 22.9818 10.7318 23.5318 10.5877 24.0997L8.74802 31.3491C8.66577 31.6733 8.60399 32.0001 8.56265 32.3294C8.52682 32.615 8.50636 32.9024 8.50127 33.1918C8.49609 33.4862 8.50687 33.7792 8.53362 34.0707C8.56278 34.3886 8.61092 34.7047 8.67804 35.0191C8.73977 35.3082 8.81677 35.5923 8.90907 35.8713C9.00925 36.1741 9.12744 36.471 9.26364 36.7619C9.37781 37.0058 9.50342 37.2429 9.64046 37.4731C9.82163 37.7775 10.0228 38.07 10.244 38.3506C10.4264 38.5821 10.6201 38.8025 10.8251 39.0119C11.0569 39.2487 11.3032 39.4714 11.5639 39.68C11.7772 39.8506 11.9978 40.0099 12.2257 40.1579C12.5168 40.3469 12.8198 40.5175 13.1348 40.6697C13.4031 40.7993 13.6768 40.914 13.9558 41.0137C14.2612 41.1228 14.573 41.2139 14.8912 41.2872C15.1761 41.3527 15.4628 41.4031 15.7514 41.4384C16.0876 41.4795 16.4262 41.5 16.7674 41.5L31.2337 41.5C31.5847 41.5 31.9329 41.4782 32.2784 41.4348C32.5774 41.3971 32.8743 41.3432 33.1692 41.2731C33.496 41.1953 33.8158 41.0986 34.1286 40.983C34.4161 40.8768 34.6977 40.7546 34.9734 40.6165C35.2959 40.4548 35.6053 40.2739 35.9016 40.0736C36.1339 39.9166 36.3582 39.7477 36.5744 39.5669C36.8372 39.3471 37.0845 39.1128 37.3162 38.8641C37.5236 38.6414 37.7185 38.4071 37.901 38.1612C38.1199 37.8662 38.3172 37.5592 38.493 37.2404C38.6271 36.9971 38.7487 36.7469 38.8578 36.4898C38.986 36.1874 39.0952 35.8795 39.1853 35.5662C39.2698 35.2723 39.3376 34.9736 39.3885 34.6701C39.443 34.3459 39.4775 34.0208 39.4921 33.6948C39.5057 33.3903 39.502 33.0851 39.4809 32.7791C39.4606 32.484 39.4244 32.1918 39.3722 31.9024C39.3109 31.5622 39.2275 31.2259 39.1222 30.8935L36.7733 23.4855C36.6094 22.9684 36.4103 22.4684 36.1758 21.9856L36.1757 21.9855C35.9425 21.5053 35.6744 21.042 35.3713 20.5957C35.1081 20.2081 34.8229 19.8396 34.5159 19.4905L34.5157 19.4903C34.1268 19.048 33.7027 18.6367 33.2435 18.2562C32.8479 17.9285 32.4341 17.6301 32.002 17.3611C31.5357 17.0708 31.048 16.8148 30.5391 16.5929C30.0938 16.3988 29.6399 16.2343 29.1773 16.0993L29.1772 16.0993C28.6011 15.9313 28.0117 15.8091 27.4088 15.7329L27.408 15.7328ZM28.4771 22.7868C28.6499 22.1797 28.4111 21.539 27.8752 21.2081C27.2199 20.8035 26.3607 21.0068 25.9561 21.6621L23.838 25.09L21.7206 21.6621L21.4522 21.3446C21.0004 20.9491 20.3308 20.8813 19.8015 21.2081C19.1462 21.6127 18.943 22.4719 19.3475 23.1272L20.874 25.6L19.2818 25.611L19.0703 25.6595C18.4579 25.8507 18.0494 26.44 18.0494 27.1125C18.0494 27.9368 18.6612 28.625 19.4439 28.625L22.442 28.624L22.442 30.118L19.2323 30.131L19.0209 30.1795C18.4085 30.3707 18 30.96 18 31.6325C18 32.4568 18.6117 33.145 19.3944 33.145L22.442 33.144L22.4549 36.408L22.5034 36.6194C22.6946 37.2318 23.2839 37.6403 23.9564 37.6403C24.7807 37.6403 25.4689 37.0286 25.4689 36.2459L25.468 33.144L28.3714 33.134L28.5828 33.0855C29.1952 32.8943 29.6037 32.305 29.6037 31.6325C29.6037 30.8082 28.992 30.12 28.2093 30.12L25.468 30.118L25.468 28.624L28.4208 28.614L28.6322 28.5655C29.2447 28.3743 29.6531 27.785 29.6531 27.1125C29.6531 26.2882 29.0414 25.6 28.2587 25.6L26.8 25.6L28.4042 22.9874L28.4771 22.7868Z" fill="#191919" fill-rule="evenodd"/>
  <path id="路径备份 5(边框)" d="M31.2518 3.63061C30.9547 3.54355 30.6447 3.50002 30.322 3.5L17.6779 3.5C17.3552 3.50002 17.0453 3.54355 16.7481 3.63061C16.5018 3.70277 16.2642 3.80482 16.0354 3.93677C15.7333 4.11101 15.4727 4.32196 15.2535 4.56962C15.0923 4.75177 14.9535 4.95378 14.8372 5.17565C14.7542 5.33404 14.6864 5.49719 14.6338 5.66511C14.5976 5.78074 14.5686 5.89863 14.5468 6.01878C14.5203 6.16479 14.505 6.31112 14.5009 6.45776C14.4969 6.6039 14.5039 6.75035 14.5221 6.89711C14.538 7.02528 14.562 7.15132 14.5943 7.27522C14.6356 7.43387 14.6904 7.58903 14.7585 7.74069C14.7988 7.83035 14.8433 7.91762 14.892 8.00249C14.9901 8.17356 15.1052 8.33487 15.2373 8.48643L16.4364 9.85998C16.6058 10.0543 16.7887 10.2323 16.985 10.3941C17.3179 10.6684 17.6893 10.8959 18.0993 11.0765C18.3802 11.2004 18.6675 11.297 18.9613 11.3665C19.3375 11.4556 19.7243 11.5 20.1215 11.5L27.8814 11.5C28.2791 11.4998 28.6663 11.455 29.0428 11.3655C29.3356 11.296 29.6221 11.1995 29.9021 11.0759C30.3137 10.8943 30.6864 10.6656 31.0202 10.3898C31.2144 10.2293 31.3954 10.0528 31.5632 9.86043L32.7633 8.48564C32.8898 8.34055 33.0007 8.18638 33.0961 8.02313C33.1494 7.93182 33.1978 7.83768 33.2414 7.74069C33.3096 7.58902 33.3644 7.43386 33.4057 7.2752C33.4379 7.1513 33.462 7.02527 33.4779 6.89711C33.496 6.75032 33.5031 6.60383 33.499 6.45766C33.4949 6.31106 33.4797 6.16476 33.4532 6.01878C33.4314 5.89866 33.4024 5.78079 33.3662 5.66519C33.3136 5.49724 33.2458 5.33407 33.1628 5.17565C33.0464 4.95378 32.9077 4.75177 32.7465 4.56961C32.5273 4.32195 32.2667 4.11101 31.9645 3.93677C31.7357 3.80482 31.4982 3.70276 31.2518 3.63061ZM30.3219 6.5L30.322 6.5C30.3768 6.50001 30.4247 6.51187 30.4658 6.53557C30.4699 6.53796 30.4738 6.54028 30.4773 6.54256L29.3032 7.88757C29.2765 7.91814 29.2488 7.94765 29.22 7.9761C29.0717 8.12271 28.8955 8.24105 28.6913 8.33112C28.6034 8.36988 28.5137 8.40197 28.4221 8.42739C28.2481 8.4757 28.0673 8.4999 27.8799 8.5L20.1215 8.5C19.9334 8.50002 19.752 8.47577 19.5774 8.42726C19.4862 8.40192 19.3968 8.36995 19.3092 8.33136C19.103 8.24046 18.9253 8.12083 18.7763 7.97247C18.7489 7.94529 18.7226 7.91713 18.6972 7.88801L17.5227 6.54256C17.5262 6.54028 17.53 6.53796 17.5342 6.53557C17.5753 6.51186 17.6233 6.5 17.6781 6.5L30.3219 6.5Z" fill="#AEAEAE" fill-rule="evenodd"/>
</svg>
