<svg viewBox="0 0 48 48" xmlns="http://www.w3.org/2000/svg" xmlns:xlink="http://www.w3.org/1999/xlink" width="48.000000" height="48.000000" fill="none">
  <path id="形状结合" d="M37.41 5.5865C38.192 6.3685 38.192 7.6325 37.41 8.4145L22.532 23.2925C22.278 23.5485 22.24 23.8465 22.24 24.0005C22.24 24.1545 22.278 24.4525 22.532 24.7085L37.41 39.5865C38.192 40.3685 38.192 41.6325 37.41 42.4145C37.02 42.8045 36.508 43.0005 35.996 43.0005C35.484 43.0005 34.972 42.8045 34.582 42.4145L19.704 27.5365C18.76 26.5905 18.24 25.3365 18.24 24.0005C18.24 22.6625 18.76 21.4065 19.704 20.4625L34.582 5.5865C35.364 4.8045 36.628 4.8045 37.41 5.5865ZM12 5.00025C13.1046 5.00025 14 5.89568 14 7.00025L14 41.0003C14 42.1048 13.1046 43.0003 12 43.0003C10.8954 43.0003 10 42.1048 10 41.0003L10 7.00025C10 5.89568 10.8954 5.00025 12 5.00025Z" fill="#191919" fill-rule="evenodd"/>
  <path id="形状结合" d="M12 5C13.1046 5 14 5.89543 14 7L14 41C14 42.1046 13.1046 43 12 43C10.8954 43 10 42.1046 10 41L10 7C10 5.89543 10.8954 5 12 5Z" fill="#AEAEAE" fill-rule="evenodd"/>
</svg>
