<svg viewBox="0 0 48 48" xmlns="http://www.w3.org/2000/svg" xmlns:xlink="http://www.w3.org/1999/xlink" width="48.000000" height="48.000000" fill="none">
  <path id="减去顶层" d="M31 4L17 4C15.88 4 15 4.88 15 6L15 8C15 9.1 15.88 10 17 10L31 10C32.1 10 33 9.1 33 8L33 6C33 4.88 32.1 4 31 4ZM12 7C11.9342 7.1974 11.955 7.41212 11.9769 7.63846C11.9883 7.7561 12 7.87688 12 8L12 9C12 11.2 13.78 13 16 13L32 13C34.2 13 36 11.2 36 9L36 8C36 7.64 35.94 7.3 35.86 7C39.18 7 42 9.68 42 13L42 38C42 41.3 39.3 44 36 44L12 44C8.68 44 6 41.3 6 38L6 13C6 9.68 8.68 7 12 7ZM28.1741 16.6665L29.7549 19.5063L28.1741 26L23.5326 16.6665L28.1741 16.6665ZM16.7194 18.9473L19.9248 18.8364L24.4672 23.5557L14.2295 23.3906L16.7194 18.9473ZM34.8238 28.5L28.5855 30.1929L33.8435 21.1416L36.3333 25.5845L34.8238 28.5ZM24.6667 25.8335C26.0474 25.8335 27.1667 26.9526 27.1667 28.3335C27.1667 29.7144 26.0474 30.8335 24.6667 30.8335C23.286 30.8335 22.1667 29.7144 22.1667 28.3335C22.1667 26.9526 23.286 25.8335 24.6667 25.8335ZM13 30.6143L14.5095 27.6987L20.7478 26.0054L15.4899 35.0571L13 30.6143ZM21.4349 40L19.8542 37.1602L21.4349 30.6665L26.0764 40L21.4349 40ZM32.614 37.251L29.4086 37.3618L24.8661 32.6426L35.1038 32.8081L32.614 37.251Z" fill="#191919" fill-rule="evenodd"/>
  <path id="合并" d="M29.7548 19.5064L28.1742 16.6665L23.5326 16.6665L28.1742 25.9998L29.7548 19.5064ZM19.9248 18.8365L16.7194 18.9474L14.2295 23.3904L24.4672 23.5559L19.9248 18.8365ZM28.5855 30.1929L34.8238 28.4998L36.3333 25.5844L33.8435 21.1414L28.5855 30.1929ZM27.1667 28.3335C27.1667 26.9528 26.0474 25.8335 24.6667 25.8335C23.286 25.8335 22.1667 26.9528 22.1667 28.3335C22.1667 29.7142 23.286 30.8335 24.6667 30.8335C26.0474 30.8335 27.1667 29.7142 27.1667 28.3335ZM14.5095 27.6987L13 30.614L15.4899 35.0571L20.7478 26.0055L14.5095 27.6987ZM19.8542 37.16L21.4349 39.9998L26.0764 39.9998L21.4349 30.6665L19.8542 37.16ZM29.4086 37.3619L32.614 37.2511L35.1038 32.8081L24.8661 32.6426L29.4086 37.3619Z" fill="#AEAEAE" fill-rule="evenodd"/>
</svg>
