<svg viewBox="0 0 48 48" xmlns="http://www.w3.org/2000/svg" xmlns:xlink="http://www.w3.org/1999/xlink" width="48.000000" height="48.000000" fill="none">
  <path id="合并" d="M19 14.5L19 12L28.5 12L28.5 14.5L19 14.5ZM16 17.5L16 18C16 18.84 16.66 19.5 17.5 19.5C18.34 19.5 19 18.84 19 18L19 17.5L28.5 17.5L28.5 18C28.5 18.84 29.16 19.5 30 19.5C30.84 19.5 31.5 18.84 31.5 18L31.5 17.5L33 17.5C33.069 17.5 33.133 17.5122 33.1919 17.5366C33.2509 17.561 33.3047 17.5976 33.3536 17.6464C33.4024 17.6953 33.439 17.7491 33.4634 17.8081C33.4878 17.867 33.5 17.931 33.5 18L33.5 21C33.5 21.069 33.4878 21.133 33.4634 21.1919C33.439 21.2509 33.4024 21.3047 33.3536 21.3536C33.3047 21.4024 33.2509 21.439 33.1919 21.4634L33.1919 21.4634C33.133 21.4878 33.069 21.5 33 21.5L15 21.5C14.931 21.5 14.867 21.4878 14.8081 21.4634C14.7491 21.439 14.6953 21.4024 14.6464 21.3536C14.5976 21.3047 14.561 21.2509 14.5366 21.1919C14.5122 21.133 14.5 21.069 14.5 21L14.5 18C14.5 17.931 14.5122 17.867 14.5366 17.8081C14.561 17.7491 14.5976 17.6953 14.6464 17.6464C14.6953 17.5976 14.7491 17.561 14.8081 17.5366C14.867 17.5122 14.931 17.5 15 17.5L16 17.5ZM16 14.5L16 12L11.998 12C10.346 12 9 13.346 9 14.998L9 36.002C9 37.654 10.346 39 11.998 39L36.002 39C37.654 39 39 37.654 39 36.002L39 20.0126C39 19.1846 39.672 18.5126 40.5 18.5126C41.328 18.5126 42 19.1846 42 20.0126L42 36.002C42 39.308 39.308 42 36.002 42L11.998 42C8.692 42 6 39.308 6 36.002L6 14.998C6 11.692 8.692 9 11.998 9L16 9L16 7C16 6.16 16.66 5.5 17.5 5.5C18.34 5.5 19 6.16 19 7L19 9L28.5 9L28.5 7C28.5 6.16 29.16 5.5 30 5.5C30.84 5.5 31.5 6.16 31.5 7L31.5 9L36.002 9C39.308 9 42 11.692 42 14.998C42 15.826 41.328 16.498 40.5 16.498C39.672 16.498 39 15.826 39 14.998C39 13.346 37.654 12 36.002 12L31.5 12L31.5 14.5L33 14.5C33.2516 14.5 33.4975 14.5259 33.738 14.5776C33.9506 14.6234 34.1589 14.6894 34.3628 14.7757C34.5649 14.8611 34.7557 14.9635 34.9353 15.0827C35.1281 15.2107 35.3079 15.3582 35.4749 15.5251C35.6418 15.692 35.7893 15.8719 35.9172 16.0647C36.0365 16.2443 36.1389 16.4351 36.2243 16.6372C36.3106 16.8411 36.3766 17.0494 36.4224 17.2621C36.4741 17.5025 36.5 17.7484 36.5 18L36.5 21C36.5 21.2515 36.4741 21.4975 36.4224 21.7379C36.3766 21.9506 36.3106 22.1589 36.2243 22.3628C36.1389 22.5649 36.0365 22.7557 35.9173 22.9353C35.7893 23.1281 35.6418 23.3079 35.4749 23.4749C35.308 23.6418 35.1281 23.7892 34.9353 23.9172C34.7557 24.0365 34.5649 24.1389 34.3628 24.2243C34.1589 24.3106 33.9506 24.3766 33.738 24.4224C33.4975 24.4741 33.2516 24.5 33 24.5L15 24.5C14.7484 24.5 14.5025 24.4741 14.2621 24.4224C14.0494 24.3766 13.8411 24.3106 13.6372 24.2243C13.4351 24.1389 13.2443 24.0365 13.0646 23.9172C12.8719 23.7892 12.692 23.6418 12.5251 23.4749C12.3582 23.308 12.2108 23.1281 12.0828 22.9354C11.9635 22.7557 11.8611 22.5649 11.7757 22.3628C11.6894 22.1589 11.6234 21.9506 11.5776 21.738C11.5259 21.4975 11.5 21.2516 11.5 21L11.5 18C11.5 17.7484 11.5259 17.5025 11.5776 17.262C11.6234 17.0494 11.6894 16.8411 11.7757 16.6372C11.8611 16.4351 11.9635 16.2443 12.0828 16.0646C12.2108 15.8719 12.3582 15.692 12.5251 15.5251C12.692 15.3582 12.8719 15.2108 13.0646 15.0828C13.2443 14.9635 13.4351 14.8611 13.6372 14.7757C13.8411 14.6894 14.0494 14.6234 14.262 14.5776C14.5025 14.5259 14.7484 14.5 15 14.5L16 14.5Z" fill="#191919" fill-rule="evenodd"/>
  <path id="path8(边框)" d="M32.0696 29.0519L24.2037 37.0519C24.2013 37.0544 24.1989 37.0568 24.1965 37.0592C24.193 37.0628 24.1894 37.0663 24.1858 37.0699C23.8904 37.3603 23.5357 37.5037 23.1215 37.5002C22.7073 37.4967 22.355 37.3473 22.0646 37.0519L16.9304 31.8302C16.3415 31.2313 16.3494 30.2979 16.9483 29.709C17.5473 29.1201 18.4807 29.1279 19.0696 29.7269L23.1342 33.8608L29.9304 26.9486C30.5193 26.3497 31.4527 26.3418 32.0517 26.9307C32.6506 27.5196 32.6585 28.453 32.0696 29.0519Z" fill="#AEAEAE" fill-rule="evenodd"/>
</svg>
