<svg viewBox="0 0 48 48" xmlns="http://www.w3.org/2000/svg" xmlns:xlink="http://www.w3.org/1999/xlink" width="48.000000" height="48.000000" fill="none">
  <path id="合并" d="M38.5 20.5436C36.4794 19.25 34.0773 18.5 31.5 18.5C30.5053 18.5 29.5367 18.6117 28.6061 18.8233C28.462 18.1428 27.8686 17.6455 27.1395 17.6455L23.3829 17.6455L26.496 13.9769C27.0395 13.3365 26.9632 12.4061 26.3227 11.8626C25.6822 11.3191 24.752 11.3953 24.2085 12.0359L21.6654 15.033L19.2942 12.0689C18.7695 11.4129 17.8418 11.3099 17.1859 11.8348C16.5299 12.3594 16.4269 13.2872 16.9516 13.9429L19.9137 17.6455L16.1229 17.6455C15.2829 17.6455 14.6229 18.3057 14.6229 19.1455C14.6229 19.9856 15.2829 20.6455 16.1229 20.6455L20.1312 20.6455L20.1312 22.908L16 22.908C15.16 22.908 14.5 23.5681 14.5 24.408C14.5 25.2481 15.16 25.908 16 25.908L19.7608 25.908C18.9525 27.6018 18.5 29.4981 18.5 31.5C18.5 35.5201 20.3247 39.1139 23.1911 41.4985L11.5 41.5C8.30464 41.5 5.69268 39.0022 5.51019 35.8525L5.5 35.5L5.5 11.5C5.5 8.30464 7.99784 5.69268 11.1475 5.51019L11.5 5.5L32.5 5.5C35.6954 5.5 38.3073 7.99784 38.4898 11.1475L38.5 11.5L38.5 20.5436ZM20.5 31.5C20.5 25.42 25.44 20.5 31.5 20.5C37.58 20.5 42.5 25.42 42.5 31.5C42.5 37.56 37.58 42.5 31.5 42.5C25.44 42.5 20.5 37.56 20.5 31.5ZM23.1312 20.6455L24.3433 20.6455C23.9214 20.9243 23.5168 21.2269 23.1312 21.5516L23.1312 20.6455ZM36.6779 29.6098C37.0635 29.0947 37.024 28.3612 36.5573 27.8906C36.044 27.373 35.2082 27.3694 34.6906 27.8827L30.2942 32.2398L27.7494 29.7164C27.2311 29.3352 26.3494 29.2537 25.8827 29.7243C25.3694 30.2419 25.3729 31.0777 25.8906 31.591L29.366 35.0374C29.8811 35.4169 30.7571 35.5012 31.2249 35.0374L36.6779 29.6098Z" fill="#191919" fill-rule="evenodd"/>
  <path id="减去顶层" d="M31.5 20.5C25.44 20.5 20.5 25.42 20.5 31.5C20.5 37.56 25.44 42.5 31.5 42.5C37.58 42.5 42.5 37.56 42.5 31.5C42.5 25.42 37.58 20.5 31.5 20.5ZM36.5573 27.8906C37.024 28.3612 37.0635 29.0947 36.6779 29.6098L31.2249 35.0374C30.7571 35.5012 29.8811 35.4169 29.366 35.0374L25.8906 31.591C25.3729 31.0777 25.3694 30.2419 25.8827 29.7243C26.3494 29.2537 27.2311 29.3352 27.7494 29.7164L30.2942 32.2398L34.6906 27.8827C35.2082 27.3694 36.044 27.373 36.5573 27.8906Z" fill="#AEAEAE" fill-rule="evenodd"/>
</svg>
