<svg viewBox="0 0 48 48" xmlns="http://www.w3.org/2000/svg" xmlns:xlink="http://www.w3.org/1999/xlink" width="48.000000" height="48.000000" fill="none">
  <defs>
    <filter id="pixso_custom_mask_type_luminance">
      <feColorMatrix values="1 0 0 0 0 0 1 0 0 0 0 0 1 0 0 0 0 0 1 0 "/>
    </filter>
  </defs>
  <mask id="mask_1" width="40.000004" height="39.998291" x="4.000000" y="4.000000" maskUnits="userSpaceOnUse">
    <g filter="url(#pixso_custom_mask_type_luminance)">
      <g id="mask-2">
        <path id="path-1" d="M44 21.9295L43.9991 43.9983L4.00086 43.9983L4 21.9295C5.33937 23.5278 7.36553 24.5436 9.62562 24.5436L9.84385 24.5405C11.5837 24.49 13.1741 23.8375 14.4044 22.7849L14.4204 22.77L14.4763 22.8186C15.7536 23.8984 17.409 24.5436 19.2085 24.5436L19.4268 24.5405C21.1666 24.49 22.7571 23.8375 23.9873 22.7849L24.0033 22.77L24.0592 22.8186C25.3365 23.8984 26.9919 24.5436 28.7915 24.5436L29.0097 24.5405C30.7495 24.49 32.34 23.8375 33.5702 22.7849L33.5829 22.7725L33.5956 22.7849C34.8771 23.8814 36.5495 24.5436 38.3744 24.5436C40.6345 24.5436 42.6606 23.5278 44 21.9295ZM43.9991 4L43.9991 11.2614L42.9435 8.04835C42.2079 5.71992 40.0658 4.09767 37.614 4.00426L37.3902 4L43.9991 4ZM10.6098 4C8.06527 4 5.81437 5.64936 5.04773 8.0756L4.00083 11.253L4.00086 4L10.6098 4Z" fill="#FFFFFF" fill-rule="evenodd"/>
      </g>
    </g>
  </mask>
  <g id="ic_huawei_cloud_store_new-新店/base/ic_huawei_cloud_store_new">
    <g id="mask" mask="url(#mask_1)">
      <path id="path5(边框)" d="M41.3327 36.4985L41.3327 14.8328C41.3327 13.9519 41.1622 13.1084 40.8213 12.3023C40.4923 11.5245 40.0282 10.836 39.4289 10.2368C39.1151 9.92292 38.7768 9.64616 38.414 9.40646C38.084 9.18845 37.7338 9.0011 37.3633 8.84441C36.5573 8.50348 35.7138 8.33301 34.8329 8.33301L13.1671 8.33301C12.6903 8.33301 12.2245 8.38295 11.7696 8.48283C11.3841 8.56749 11.0064 8.68801 10.6367 8.84441C10.2662 9.00109 9.91603 9.18843 9.58609 9.40641C9.22327 9.64613 8.88493 9.9229 8.57109 10.2368C8.25724 10.5506 7.98047 10.8889 7.74075 11.2517C7.52277 11.5817 7.33543 11.9319 7.17874 12.3023C7.02235 12.6721 6.90182 13.0497 6.81717 13.4353C6.71728 13.8901 6.66734 14.356 6.66734 14.8328L6.66734 36.4985C6.66734 36.9753 6.71728 37.4412 6.81716 37.896C6.90181 38.2816 7.02234 38.6592 7.17874 39.029C7.33544 39.3995 7.52279 39.7497 7.74079 40.0796C7.9805 40.4424 8.25726 40.7808 8.57109 41.0946C9.17033 41.6938 9.85886 42.1579 10.6367 42.4869C11.0065 42.6433 11.3841 42.7639 11.7697 42.8485C12.2245 42.9484 12.6903 42.9983 13.1671 42.9983L19.8335 42.9983C20.3335 42.9983 20.7085 42.8733 20.9585 42.6233C21.2085 42.3733 21.3335 41.9983 21.3335 41.4983L21.3335 34.8319C21.3335 34.4696 21.4032 34.1238 21.5424 33.7945C21.6773 33.4756 21.868 33.193 22.1145 32.9464C22.2496 32.8113 22.3956 32.6929 22.5525 32.5914C22.6818 32.5076 22.8185 32.4353 22.9625 32.3744C23.2919 32.2351 23.627 32.1653 23.9681 32.1651L24.1168 32.1679C24.4657 32.1828 24.7975 32.2626 25.1122 32.4074C25.4181 32.5481 25.6885 32.7406 25.9233 32.9851C26.1584 33.2298 26.34 33.508 26.4681 33.8196C26.6003 34.1416 26.6665 34.4791 26.6665 34.8319L26.6665 41.4983C26.6665 41.9983 26.7915 42.3733 27.0415 42.6233C27.2915 42.8733 27.6665 42.9983 28.1665 42.9983L34.8329 42.9983C35.3097 42.9983 35.7755 42.9484 36.2303 42.8485C36.6159 42.7639 36.9936 42.6433 37.3633 42.4869C38.1412 42.1579 38.8297 41.6938 39.4289 41.0946C40.0282 40.4953 40.4923 39.8068 40.8213 39.029C41.1622 38.2229 41.3327 37.3795 41.3327 36.4985ZM38.0582 13.471C38.2412 13.9035 38.3327 14.3574 38.3327 14.8328L38.3327 36.4985C38.3327 36.9739 38.2412 37.4278 38.0582 37.8604C37.9775 38.0512 37.8815 38.2322 37.7704 38.4033C37.6378 38.6074 37.4835 38.7973 37.3076 38.9733C36.9842 39.2967 36.6132 39.5469 36.1947 39.7239C35.7622 39.9069 35.3082 39.9983 34.8329 39.9983L29.6665 39.9983L29.6665 34.8319C29.6665 34.4264 29.625 34.0297 29.5419 33.642C29.4718 33.3148 29.3722 32.994 29.243 32.6796C28.9705 32.0165 28.5852 31.4255 28.0868 30.9068C27.5896 30.3891 27.0158 29.9808 26.3656 29.6818C26.047 29.5352 25.7205 29.4199 25.3862 29.3357C25.0154 29.2423 24.6349 29.1873 24.2447 29.1707L24.0319 29.1658C23.2428 29.1656 22.4967 29.3141 21.7939 29.6114C21.1158 29.8982 20.5155 30.3028 19.9932 30.8251C19.4708 31.3475 19.0662 31.9477 18.7794 32.6258C18.4822 33.3287 18.3335 34.064 18.3335 34.8319L18.3335 39.9983L13.1671 39.9983C12.893 39.9983 12.626 39.9679 12.3662 39.9071C12.1754 39.8624 11.9884 39.8014 11.8053 39.7239C11.3868 39.5469 11.0158 39.2967 10.6924 38.9733C10.5165 38.7973 10.3622 38.6074 10.2296 38.4033C10.1184 38.2322 10.0225 38.0512 9.94176 37.8604C9.75881 37.4278 9.66734 36.9739 9.66734 36.4985L9.66734 14.8328C9.66734 14.5587 9.69776 14.2917 9.75859 14.0318C9.80325 13.8411 9.86431 13.6541 9.94176 13.471C10.0225 13.2801 10.1184 13.0992 10.2296 12.9281C10.3622 12.724 10.5165 12.534 10.6924 12.3581C10.8684 12.1821 11.0584 12.0278 11.2625 11.8952C11.4336 11.7841 11.6145 11.6881 11.8053 11.6074C11.9884 11.53 12.1754 11.4689 12.3661 11.4243C12.626 11.3634 12.893 11.333 13.1671 11.333L34.8329 11.333C35.3082 11.333 35.7622 11.4245 36.1947 11.6074C36.3855 11.6881 36.5665 11.7841 36.7376 11.8953C36.9417 12.0279 37.1317 12.1821 37.3076 12.3581C37.631 12.6815 37.8812 13.0525 38.0582 13.471Z" fill="#191919" fill-rule="evenodd"/>
    </g>
    <path id="path6(边框)" d="M8.23589 23.3931C8.68796 23.4936 9.1512 23.5438 9.62561 23.5438C10.1 23.5438 10.5633 23.4936 11.0153 23.3931C11.3719 23.3138 11.7215 23.2033 12.0642 23.0615C12.8161 22.7504 13.4823 22.311 14.0626 21.7432C14.1867 21.6219 14.3048 21.4966 14.417 21.3675C14.5587 21.5307 14.7098 21.6875 14.8703 21.8377C15.1496 22.0993 15.4475 22.332 15.7639 22.5359C16.0999 22.7524 16.4568 22.9364 16.8346 23.0878C17.5929 23.3918 18.3842 23.5438 19.2085 23.5438C19.683 23.5438 20.1463 23.4936 20.5984 23.3931C20.9549 23.3138 21.3045 23.2033 21.6471 23.0615C22.399 22.7504 23.0652 22.311 23.6456 21.7432C23.7696 21.6219 23.8877 21.4966 23.9999 21.3675C24.1416 21.5307 24.2927 21.6875 24.4532 21.8377C24.7325 22.0993 25.0304 22.332 25.3468 22.5359C25.6828 22.7524 26.0397 22.9364 26.4175 23.0878C27.1758 23.3918 27.9671 23.5438 28.7915 23.5438C29.2659 23.5438 29.7291 23.4936 30.1812 23.3931C30.5377 23.3138 30.8874 23.2033 31.23 23.0615C31.982 22.7504 32.6481 22.311 33.2285 21.7432C33.3526 21.6218 33.4707 21.4965 33.5829 21.3674C33.6951 21.4965 33.8133 21.6218 33.9374 21.7432C34.2182 22.0179 34.519 22.2625 34.84 22.4771C35.1824 22.7061 35.5477 22.9009 35.9358 23.0615C36.7129 23.3831 37.5258 23.5438 38.3744 23.5438C38.8489 23.5438 39.3121 23.4936 39.7642 23.3931C40.1208 23.3138 40.4703 23.2033 40.8129 23.0615C41.5649 22.7504 42.2311 22.311 42.8114 21.7432C43.3941 21.1732 43.8456 20.5176 44.1661 19.7763C44.3249 19.409 44.4459 19.0335 44.529 18.6498C44.6202 18.2286 44.6659 17.7975 44.6659 17.3565C44.6659 17.1333 44.6425 16.8276 44.5957 16.4394L44.5765 16.2995C44.5704 16.2544 44.5622 16.2098 44.552 16.1657C44.5418 16.1216 44.5296 16.0779 44.5154 16.0346L41.9988 8.37698C41.842 7.88053 41.6114 7.4219 41.307 7.00109C41.1625 6.80122 41.0046 6.61445 40.8335 6.44079C40.6528 6.25746 40.4573 6.08873 40.247 5.93461C39.8374 5.6345 39.392 5.40467 38.9106 5.24512C38.4177 5.08171 37.9109 5 37.3902 5L10.6098 5C10.3366 5 10.0673 5.02249 9.80181 5.06746C9.5612 5.10821 9.32372 5.16743 9.08937 5.24512C8.8552 5.32274 8.62953 5.417 8.41236 5.52789C8.18313 5.64493 7.96336 5.7805 7.75305 5.93461C7.54275 6.0887 7.34727 6.25741 7.16661 6.44071C6.99543 6.61439 6.83755 6.80118 6.69297 7.00109C6.47802 7.2983 6.30078 7.6115 6.16126 7.94068C6.10323 8.07758 6.05173 8.21724 6.00674 8.35967L3.49299 15.9918C3.46712 16.0703 3.44788 16.1505 3.43526 16.2322L3.41668 16.3532C3.40064 16.4498 3.38694 16.5466 3.37558 16.6437C3.34796 16.8797 3.33415 17.1173 3.33415 17.3565C3.33415 17.7975 3.37977 18.2286 3.471 18.6499C3.55411 19.0335 3.67506 19.409 3.83387 19.7763C3.97417 20.1008 4.13959 20.4089 4.33013 20.7006C4.57485 21.0752 4.861 21.4227 5.1886 21.7432C5.76895 22.311 6.43511 22.7504 7.18706 23.0615C7.52972 23.2033 7.87933 23.3138 8.23589 23.3931ZM32.0829 17.3615L32.0829 17.3565C32.0829 16.8565 32.2079 16.4815 32.4579 16.2315C32.7079 15.9815 33.0829 15.8565 33.5829 15.8565C34.0829 15.8565 34.4579 15.9815 34.7079 16.2315C34.9579 16.4815 35.0829 16.8565 35.0829 17.3565L35.0829 17.3615C35.0836 17.7885 35.168 18.1966 35.3363 18.5858C35.5007 18.9661 35.7337 19.3037 36.0353 19.5987C36.3391 19.896 36.6883 20.1262 37.0828 20.2895C37.4927 20.459 37.9232 20.5438 38.3744 20.5438C38.8256 20.5438 39.2561 20.459 39.6659 20.2895C40.0605 20.1262 40.4097 19.896 40.7135 19.5987C40.9007 19.4156 41.0614 19.2161 41.1957 19.0002C41.2779 18.8682 41.3501 18.7301 41.4125 18.5858C41.5814 18.1951 41.6658 17.7854 41.6659 17.3565C41.6659 17.253 41.6517 17.0829 41.6234 16.8464L41.6228 16.8416L39.1382 9.28086C39.0178 8.8996 38.7963 8.59081 38.4738 8.35449C38.1513 8.11816 37.7901 8 37.3902 8L10.6098 8C10.4098 8 10.2196 8.02954 10.039 8.08862C9.85841 8.1477 9.68749 8.23633 9.52623 8.35449C9.20371 8.59082 8.98036 8.90537 8.85617 9.29817L6.38107 16.813L6.37613 16.8448C6.34814 17.0133 6.33415 17.1839 6.33415 17.3565C6.33415 17.5906 6.35932 17.8191 6.40966 18.0418C6.45153 18.2271 6.51081 18.4084 6.58751 18.5858C6.75194 18.9661 6.98493 19.3037 7.28648 19.5987C7.59033 19.896 7.93953 20.1262 8.33406 20.2895C8.49331 20.3553 8.65567 20.4084 8.82116 20.4487C9.08159 20.5121 9.34974 20.5438 9.62562 20.5438C10.0768 20.5438 10.5073 20.459 10.9172 20.2895C11.3117 20.1262 11.6609 19.896 11.9647 19.5987C12.1519 19.4156 12.3126 19.2162 12.4469 19.0002C12.5291 18.8682 12.6013 18.7301 12.6637 18.5858C12.7404 18.4084 12.7997 18.227 12.8416 18.0417C12.8919 17.819 12.9171 17.5906 12.9171 17.3565C12.9171 16.3799 13.4053 15.88 14.3816 15.857C14.8815 15.8451 15.2593 15.9612 15.5152 16.2053C15.771 16.4493 15.9048 16.8212 15.9167 17.3211L15.9214 17.5223C15.9427 17.9283 16.0402 18.315 16.2141 18.6822C16.2792 18.8196 16.3532 18.9511 16.4364 19.0765C16.5733 19.2833 16.7349 19.4738 16.9209 19.648C17.2225 19.9305 17.5659 20.1489 17.9509 20.3033C18.1037 20.3645 18.2593 20.4141 18.4177 20.452C18.674 20.5132 18.9376 20.5438 19.2085 20.5438C19.6597 20.5438 20.0902 20.459 20.5001 20.2895C20.8946 20.1262 21.2438 19.896 21.5477 19.5987C21.7348 19.4157 21.8955 19.2162 22.0298 19.0003C22.112 18.8683 22.1842 18.7301 22.2466 18.5858C22.4155 18.1951 22.5 17.7854 22.5 17.3565C22.5 16.3799 22.9882 15.88 23.9646 15.857C24.9643 15.8333 25.476 16.3214 25.4996 17.3211L25.5043 17.5223C25.5151 17.7271 25.5452 17.9269 25.5947 18.1218C25.6434 18.3134 25.7108 18.5002 25.797 18.6822C25.9693 19.0461 26.2049 19.3681 26.5039 19.648C26.8055 19.9305 27.1488 20.1489 27.5339 20.3033C27.9339 20.4637 28.3531 20.5438 28.7915 20.5438C29.2426 20.5438 29.6731 20.459 30.083 20.2895C30.4776 20.1262 30.8267 19.896 31.1306 19.5987C31.4321 19.3037 31.6651 18.9661 31.8296 18.5858C31.9063 18.4084 31.9656 18.227 32.0074 18.0418C32.0574 17.8206 32.0826 17.5939 32.0829 17.3615Z" fill="#AEAEAE" fill-rule="evenodd"/>
  </g>
</svg>
