<svg viewBox="0 0 48 48" xmlns="http://www.w3.org/2000/svg" xmlns:xlink="http://www.w3.org/1999/xlink" width="48.000000" height="48.000000" fill="none">
  <path id="形状结合" d="M38.9452 6.33494C42.0184 9.41058 42.1209 14.334 39.2521 17.5332L38.9448 17.8579L20.8262 35.977C18.9424 37.8608 15.8736 37.874 13.9898 35.9903C12.1062 34.1066 12.1062 31.0535 13.989 29.1677L30.1086 13.0497C30.6944 12.4639 31.6442 12.4639 32.23 13.0497C32.7625 13.5823 32.8109 14.4156 32.3752 15.0028L16.112 31.2891C15.5672 32.0055 15.4582 33.216 16.1112 33.8689C16.764 34.5218 17.79 34.5762 18.505 34.0321L36.823 15.7369C38.8318 13.7266 38.8318 10.4657 36.8234 8.45585C34.9006 6.53297 31.8338 6.44937 29.8101 8.20499L29.5408 8.45579L11.4106 26.5872C8.1021 29.8974 8.1021 35.2619 11.4104 38.5701C14.7186 41.8783 20.0828 41.8783 23.391 38.5701L39.5103 22.4529C40.0961 21.8671 41.0459 21.8672 41.6316 22.453C42.1641 22.9856 42.2125 23.8189 41.7767 24.4061L25.5115 40.6923L25.1431 41.0449C20.642 45.168 13.6478 45.0502 9.28904 40.6915C4.8093 36.2117 4.8093 28.9482 9.28877 24.4664L27.4198 6.33412C30.6036 3.15281 35.763 3.15281 38.9452 6.33494Z" fill="#191919" fill-rule="evenodd"/>
</svg>
