<svg viewBox="0 0 48 48" xmlns="http://www.w3.org/2000/svg" xmlns:xlink="http://www.w3.org/1999/xlink" width="48.000000" height="48.000000" fill="none">
  <path id="形状结合" d="M39.3804 14.1482C42.5643 16.3802 44.5003 20.0214 44.5003 23.9859C44.5003 30.4675 39.3648 35.7489 32.9406 35.9856L32.4903 35.9939L20.3283 35.9929L20.9503 36.6154C21.6704 37.3373 21.7244 38.4718 21.1134 39.2557C20.3915 39.9757 19.0904 40.218 18.3066 39.607L14.0944 35.4064C12.8915 34.2005 13.6561 32.1793 15.2832 32.0059L15.5103 31.9939L32.4903 31.9939C36.9143 31.9939 40.5003 28.4088 40.5003 23.9859C40.5003 21.3393 39.211 18.9144 37.0843 17.4236C36.1798 16.7895 35.9606 15.5423 36.5946 14.6379C37.2287 13.7334 38.4759 13.5142 39.3804 14.1482ZM29.6911 8.3928L33.9034 12.5914C35.1067 13.7971 34.3422 15.8187 32.7149 15.9922L32.4878 16.0042L15.5098 16.0042C11.0851 16.0042 7.49976 19.59 7.49976 24.0142C7.49976 26.6604 8.78888 29.0858 10.9144 30.5769C11.8186 31.2113 12.0374 32.4586 11.403 33.3628C10.7687 34.267 9.52137 34.4858 8.61713 33.8514C5.43514 31.6191 3.49976 27.9779 3.49976 24.0142C3.49976 17.5317 8.63423 12.2492 15.0594 12.0125L15.5098 12.0042L27.6648 12.0042L27.0481 11.385C26.3279 10.6633 26.2736 9.52878 26.8844 8.7448C27.6061 8.02455 28.9071 7.78197 29.6911 8.3928Z" fill="#191919" fill-rule="evenodd"/>
  <path id="形状结合" d="M39.3804 14.1486C42.5643 16.3806 44.5004 20.0218 44.5004 23.9863C44.5004 30.4679 39.3648 35.7493 32.9406 35.986L32.4904 35.9943L20.3284 35.9933L20.9503 36.6158C21.6704 37.3377 21.7244 38.4722 21.1134 39.2561C20.3916 39.9761 19.0904 40.2184 18.3066 39.6074L14.0944 35.4068C12.8915 34.2009 13.6562 32.1797 15.2832 32.0063L15.5104 31.9943L32.4904 31.9943C36.9143 31.9943 40.5004 28.4092 40.5004 23.9863C40.5004 21.3398 39.211 18.9148 37.0843 17.424C36.1799 16.79 35.9606 15.5427 36.5947 14.6383C37.2287 13.7338 38.4759 13.5146 39.3804 14.1486Z" fill="#AEAEAE" fill-rule="evenodd"/>
</svg>
