<svg viewBox="0 0 48 48" xmlns="http://www.w3.org/2000/svg" xmlns:xlink="http://www.w3.org/1999/xlink" width="48.000000" height="48.000000" fill="none">
  <path id="减去顶层" d="M36.002 6L11.996 6C8.69 6 6 8.692 6 11.998L6 36.002C6 39.308 8.69 42 11.996 42L36.002 42C39.308 42 42 39.308 42 36.002L42 11.998C42 8.692 39.308 6 36.002 6ZM20.2306 17.5302L29.3843 17.5302C30.2887 17.5302 31 16.8203 31 15.9158C31 15.01 30.2887 14.3002 29.3843 14.3002L18.615 14.3002C18.0767 14.3002 17.6731 14.4343 17.4036 14.7037C17.1341 14.9732 17 15.3768 17 15.9158L17 32.0697C17 32.6073 17.1341 33.0109 17.4036 33.2804C17.6731 33.5499 18.0767 33.684 18.615 33.684L29.3843 33.684C30.2887 33.684 31 32.974 31 32.0697C31 31.164 30.2887 30.454 29.3843 30.454L20.2306 30.454L20.2306 25.607L29.3842 25.6071C30.2887 25.6071 31 24.8971 31 23.9927C31 23.087 30.2887 22.3771 29.3842 22.3771L20.2306 22.3771L20.2306 17.5302Z" fill="#191919" fill-rule="evenodd"/>
  <path id="path" d="M29.3843 17.5298L20.2306 17.5298L20.2306 22.3767L29.3842 22.3767C30.2887 22.3767 31 23.0867 31 23.9924C31 24.8967 30.2887 25.6067 29.3842 25.6067L20.2306 25.6067L20.2306 30.4536L29.3843 30.4536C30.2887 30.4536 31 31.1636 31 32.0693C31 32.9736 30.2887 33.6836 29.3843 33.6836L18.615 33.6836C18.0767 33.6836 17.6731 33.5495 17.4036 33.28C17.1341 33.0105 17 32.607 17 32.0693L17 15.9155C17 15.3765 17.1341 14.9729 17.4036 14.7034C17.6731 14.4339 18.0767 14.2998 18.615 14.2998L29.3843 14.2998C30.2887 14.2998 31 15.0097 31 15.9155C31 16.8199 30.2887 17.5298 29.3843 17.5298Z" fill="#AEAEAE" fill-rule="evenodd"/>
</svg>
