<svg viewBox="0 0 48 48" xmlns="http://www.w3.org/2000/svg" xmlns:xlink="http://www.w3.org/1999/xlink" width="48.000000" height="48.000000" fill="none">
  <path id="合并" d="M35.026 2.5L35.026 11.5841L33.171 15.3678C33.0625 15.5891 32.927 15.7845 32.7644 15.954C32.6234 16.1011 32.462 16.2286 32.2803 16.3367C32.1071 16.4396 31.9269 16.5181 31.7397 16.5719L31.7395 16.572C31.5339 16.6311 31.3198 16.6607 31.0972 16.6607C30.8746 16.6607 30.6604 16.6311 30.4548 16.5719C30.2675 16.518 30.0873 16.4396 29.9142 16.3367C29.7325 16.2286 29.5711 16.1011 29.43 15.954C29.2675 15.7845 29.1319 15.5891 29.0234 15.3678L27.733 12.7357L20.4534 12.7357L20.4534 34.1658L9.35754 34.1658L9.35754 7.99734C9.35754 7.77437 9.38037 7.5563 9.42601 7.34311C9.46684 7.15242 9.52593 6.96563 9.60328 6.78275C9.67971 6.60206 9.77129 6.43145 9.87802 6.27091C9.99183 6.09973 10.1229 5.94001 10.2711 5.79175C10.4194 5.64349 10.5791 5.51245 10.7503 5.39865C10.9108 5.29191 11.0814 5.20033 11.2621 5.1239C11.445 5.04655 11.6318 4.98746 11.8225 4.94663C12.0357 4.90098 12.2538 4.87816 12.4767 4.87816L27.1685 4.87816L27.1685 2.5L35.026 2.5ZM31.0972 12.7827L30.1685 10.8883L30.1685 9.73569L17.4534 9.73569L17.4534 31.1658L12.3575 31.1658L12.3575 7.99734C12.3575 7.98088 12.3605 7.96563 12.3663 7.95159C12.3721 7.93754 12.3808 7.9247 12.3924 7.91307C12.4041 7.90143 12.4169 7.89271 12.431 7.88689C12.445 7.88107 12.4603 7.87816 12.4767 7.87816L30.1685 7.87816L30.1685 5.5L32.026 5.5L32.026 10.8883L31.0972 12.7827ZM36.3809 17C36.6038 17 36.8219 17.0228 37.0351 17.0685C37.2258 17.1093 37.4126 17.1684 37.5954 17.2457C37.7761 17.3222 37.9468 17.4138 38.1073 17.5205C38.2785 17.6343 38.4382 17.7653 38.5864 17.9136C38.7347 18.0618 38.8657 18.2216 38.9795 18.3927C39.0863 18.5533 39.1779 18.7239 39.2543 18.9046C39.3316 19.0875 39.3907 19.2743 39.4316 19.465C39.4772 19.6782 39.5 19.8962 39.5 20.1192L39.5 26.8808C39.5 27.1038 39.4772 27.3219 39.4316 27.535C39.3907 27.7257 39.3316 27.9125 39.2543 28.0954C39.1779 28.2761 39.0863 28.4467 38.9795 28.6073C38.8657 28.7785 38.7347 28.9382 38.5864 29.0864C38.4382 29.2347 38.2785 29.3657 38.1073 29.4795C37.9468 29.5862 37.7761 29.6778 37.5954 29.7543C37.4126 29.8316 37.2258 29.8907 37.0351 29.9315C36.8219 29.9772 36.6038 30 36.3809 30L25.6192 30C25.3963 30 25.1782 29.9772 24.965 29.9315C24.7743 29.8907 24.5875 29.8316 24.4046 29.7543C24.2239 29.6778 24.0533 29.5862 23.8928 29.4795C23.7216 29.3657 23.5619 29.2347 23.4136 29.0864C23.2653 28.9381 23.1343 28.7784 23.0205 28.6072C22.9138 28.4467 22.8222 28.2761 22.7458 28.0954C22.6684 27.9125 22.6093 27.7258 22.5685 27.5351L22.5685 27.535C22.5229 27.3219 22.5 27.1038 22.5 26.8808L22.5 20.1192C22.5 19.8962 22.5229 19.6781 22.5685 19.465C22.6093 19.2743 22.6684 19.0875 22.7458 18.9046C22.8222 18.7239 22.9138 18.5533 23.0205 18.3927C23.1343 18.2216 23.2654 18.0618 23.4136 17.9136C23.5619 17.7653 23.7216 17.6343 23.8928 17.5205C24.0533 17.4137 24.2239 17.3222 24.4046 17.2457C24.5875 17.1684 24.7743 17.1093 24.965 17.0685C25.1782 17.0228 25.3962 17 25.6192 17L36.3809 17ZM36.3809 20L25.6192 20C25.6028 20 25.5875 20.0029 25.5735 20.0087C25.5594 20.0145 25.5466 20.0233 25.5349 20.0349C25.5233 20.0465 25.5146 20.0594 25.5088 20.0734C25.5029 20.0875 25.5 20.1027 25.5 20.1192L25.5 26.8808C25.5 26.8973 25.5029 26.9125 25.5088 26.9266C25.5146 26.9406 25.5233 26.9535 25.5349 26.9651C25.5466 26.9767 25.5594 26.9855 25.5735 26.9913C25.5875 26.9971 25.6028 27 25.6192 27L36.3809 27C36.3973 27 36.4126 26.9971 36.4266 26.9913C36.4407 26.9855 36.4535 26.9767 36.4651 26.9651C36.4768 26.9535 36.4855 26.9406 36.4913 26.9266C36.4971 26.9125 36.5 26.8973 36.5 26.8808L36.5 20.1192C36.5 20.1027 36.4971 20.0875 36.4913 20.0734C36.4855 20.0594 36.4768 20.0465 36.4651 20.0349C36.4535 20.0233 36.4407 20.0145 36.4266 20.0087C36.4126 20.0029 36.3973 20 36.3809 20Z" fill="#AEAEAE" fill-rule="evenodd"/>
  <path id="合并" d="M39.1181 31.3319L39.1181 31.3319C39.5421 31.4252 39.9574 31.5578 40.3641 31.7299C40.772 31.9024 41.1576 32.1086 41.521 32.3485C41.9217 32.6131 42.2953 32.9187 42.6418 33.2652C42.9883 33.6117 43.2939 33.9853 43.5584 34.3859C43.7984 34.7493 44.0046 35.135 44.1772 35.5429C44.3492 35.9496 44.4818 36.3649 44.5751 36.7889C44.6857 37.2915 44.741 37.8062 44.741 38.3331C44.741 38.86 44.6857 39.3748 44.5751 39.8774C44.4818 40.3014 44.3492 40.7167 44.1772 41.1233C44.0046 41.5313 43.7984 41.9169 43.5584 42.2803C43.2939 42.681 42.9883 43.0545 42.6418 43.401C42.2953 43.7476 41.9217 44.0531 41.521 44.3177C41.1576 44.5577 40.772 44.7639 40.3641 44.9364C39.9575 45.1084 39.5422 45.241 39.1182 45.3343C38.6156 45.4449 38.1008 45.5002 37.5739 45.5002L11.6671 45.5002C11.1402 45.5002 10.6254 45.4449 10.1229 45.3343C9.69887 45.2411 9.28355 45.1084 8.87689 44.9364C8.46901 44.7639 8.08338 44.5576 7.72002 44.3177C7.31935 44.0531 6.94574 43.7476 6.5992 43.401C6.25269 43.0545 5.94715 42.681 5.6826 42.2803L5.68253 42.2802C5.44259 41.9169 5.23636 41.5312 5.06384 41.1234C4.89183 40.7167 4.75918 40.3013 4.66588 39.8773C4.55529 39.3748 4.5 38.86 4.5 38.3331C4.5 37.8062 4.5553 37.2915 4.66589 36.7889L4.66589 36.7889L4.6659 36.7888C4.7592 36.3649 4.89185 35.9496 5.06384 35.5429C5.23637 35.135 5.4426 34.7494 5.68255 34.386L5.68255 34.386C5.94712 33.9853 6.25267 33.6117 6.5992 33.2652C6.94573 32.9187 7.31933 32.6131 7.71999 32.3486C8.08336 32.1086 8.469 31.9024 8.87689 31.7299C9.28355 31.5579 9.69888 31.4252 10.1229 31.3319L10.1229 31.3319C10.6255 31.2213 11.1402 31.166 11.6671 31.166L37.5739 31.166C38.1008 31.166 38.6155 31.2213 39.1181 31.3319ZM37.5739 34.166L11.6671 34.166C11.3429 34.166 11.027 34.2018 10.7195 34.2733L10.7195 34.2733C10.4902 34.3266 10.2656 34.3998 10.0455 34.4929C9.81725 34.5894 9.60085 34.7043 9.39635 34.8374C9.15443 34.9949 8.92915 35.1779 8.72052 35.3865C8.51189 35.5952 8.32883 35.8204 8.17136 36.0624L8.17135 36.0624C8.03824 36.2669 7.92341 36.4833 7.82686 36.7116C7.7338 36.9316 7.66062 37.1562 7.6073 37.3854C7.53577 37.693 7.5 38.0089 7.5 38.3331C7.5 38.6573 7.53576 38.9732 7.60729 39.2808C7.66061 39.51 7.7338 39.7347 7.82686 39.9547C7.92341 40.183 8.03824 40.3994 8.17135 40.6039C8.32882 40.8458 8.51188 41.0711 8.72052 41.2797C8.92916 41.4884 9.15445 41.6714 9.39639 41.8289C9.60088 41.962 9.81726 42.0768 10.0455 42.1734C10.2656 42.2664 10.4902 42.3396 10.7194 42.3929C11.027 42.4645 11.3429 42.5002 11.6671 42.5002L37.5739 42.5002C37.8982 42.5002 38.2141 42.4645 38.5217 42.3929C38.7509 42.3396 38.9755 42.2664 39.1955 42.1734C39.4237 42.0768 39.6401 41.962 39.8446 41.8289C40.0865 41.6714 40.3118 41.4884 40.5205 41.2797C40.7291 41.0711 40.9122 40.8458 41.0697 40.6039C41.2028 40.3994 41.3176 40.183 41.4142 39.9547C41.5072 39.7346 41.5804 39.51 41.6337 39.2807C41.7053 38.9731 41.741 38.6573 41.741 38.3331C41.741 38.009 41.7053 37.6931 41.6337 37.3856C41.5804 37.1563 41.5072 36.9316 41.4142 36.7116C41.3176 36.4832 41.2027 36.2668 41.0696 36.0623C40.9121 35.8204 40.7291 35.5951 40.5205 35.3865C40.3118 35.1779 40.0865 34.9948 39.8446 34.8373C39.6401 34.7042 39.4237 34.5894 39.1955 34.4929C38.9754 34.3998 38.7508 34.3266 38.5215 34.2733C38.214 34.2018 37.8981 34.166 37.5739 34.166ZM15.715 38.3331C15.715 36.9917 14.6276 35.9043 13.2863 35.9043C11.9449 35.9043 10.8575 36.9917 10.8575 38.3331C10.8575 39.6744 11.9449 40.7618 13.2863 40.7618C14.6276 40.7618 15.715 39.6744 15.715 38.3331ZM27.0493 38.3331C27.0493 36.9917 25.9619 35.9043 24.6205 35.9043C23.2791 35.9043 22.1917 36.9917 22.1917 38.3331C22.1917 39.6744 23.2791 40.7618 24.6205 40.7618C25.9619 40.7618 27.0493 39.6744 27.0493 38.3331ZM35.9547 35.9043C37.2961 35.9043 38.3835 36.9917 38.3835 38.3331C38.3835 39.6744 37.2961 40.7618 35.9547 40.7618C34.6133 40.7618 33.526 39.6744 33.526 38.3331C33.526 36.9917 34.6133 35.9043 35.9547 35.9043Z" fill="#191919" fill-rule="evenodd"/>
</svg>
