<svg viewBox="0 0 48 48" xmlns="http://www.w3.org/2000/svg" xmlns:xlink="http://www.w3.org/1999/xlink" width="48.000000" height="48.000000" fill="none">
  <path id="形状结合" d="M31.3218 6C33.473 6 35.4597 7.1517 36.5286 9.01856L41.211 17.1958C42.3951 19.2639 42.2431 21.8367 40.8237 23.751L29.091 39.5738C27.1173 42.2356 23.3595 42.7934 20.6977 40.8197C20.2654 40.4991 19.8781 40.1218 19.5464 39.698L7.28279 24.0278C5.68274 21.9833 5.57913 19.1416 7.02604 16.986L12.6174 8.65607C13.7317 6.99596 15.5997 6 17.5991 6L31.3218 6ZM32.8849 16.904C32.5787 16.1439 31.7577 15.7947 31.0511 16.1241C26.714 18.146 22.015 18.146 16.8804 16.0943C16.1585 15.8058 15.3559 16.2015 15.0878 16.9781C14.8197 17.7547 15.1875 18.6181 15.9094 18.9065C21.6953 21.2185 27.1367 21.2185 32.1599 18.8767C32.8665 18.5474 33.1911 17.6641 32.8849 16.904Z" fill="#191919" fill-rule="evenodd"/>
  <path id="形状结合" d="M32.8848 16.9044C33.191 17.6645 32.8664 18.5477 32.1598 18.8771C27.1366 21.2188 21.6952 21.2188 15.9093 18.9069C15.1874 18.6185 14.8196 17.7551 15.0877 16.9785C15.3558 16.2019 16.1584 15.8062 16.8803 16.0946C22.0149 18.1463 26.7139 18.1463 31.051 16.1244C31.7576 15.7951 32.5786 16.1442 32.8848 16.9044Z" fill="#AEAEAE" fill-rule="evenodd"/>
</svg>
