<svg viewBox="0 0 48 48" xmlns="http://www.w3.org/2000/svg" xmlns:xlink="http://www.w3.org/1999/xlink" width="48.000000" height="48.000000" fill="none">
  <path id="减去顶层" d="M22.0051 4.00846C15.8379 4.22227 12.7474 8.47538 12.7474 15.0061L12.7519 15.332L12.6442 15.485C11.9239 16.6041 11.7984 18.1502 12.2974 19.5962L12.4259 19.9331C12.8416 20.9259 13.5249 21.7515 14.3564 22.2621L14.6059 22.402L14.9175 22.9167C15.0202 23.0771 15.1263 23.234 15.2357 23.3872L15.4473 23.6701C16.5719 25.1917 16.6216 25.7457 15.9343 26.1562L15.6754 26.2918L15.4171 26.4109L14.986 26.5936L14.6342 26.7343L12.5582 27.5198L11.3605 27.9852L10.1041 28.5112L9.61078 28.7332C9.42667 28.8179 9.25832 28.8975 9.09324 28.9776L8.6062 29.2208C5.05841 31.0454 3.0117 33.2517 3.02058 36.2676L3 38.0269L3.00171 38.5488L3.01892 39.0888L3.04059 39.4075C3.22788 41.5712 4.24692 42.9115 6.37421 42.9979L24.2011 42.9991C21.6085 40.4581 20 36.9169 20 33C20 25.6527 25.6598 19.6273 32.8574 19.046C33.1562 17.7684 32.9815 16.4651 32.3533 15.4866L32.2439 15.332L32.2494 15.0061C32.2494 8.30352 28.994 4 22.4984 4L22.0051 4.00846Z" fill="#191919" fill-rule="evenodd"/>
  <path id="减去顶层" d="M34 22C27.94 22 23 26.92 23 33C23 39.06 27.94 44 34 44C40.08 44 45 39.06 45 33C45 26.92 40.08 22 34 22ZM39.0573 29.3906C39.524 29.8612 39.5635 30.5947 39.1779 31.1098L33.7249 36.5374C33.2571 37.0012 32.3811 36.9169 31.866 36.5374L28.3906 33.091C27.8729 32.5777 27.8694 31.7419 28.3827 31.2243C28.8494 30.7537 29.7311 30.8352 30.2494 31.2164L32.7942 33.7398L37.1906 29.3827C37.7082 28.8694 38.544 28.873 39.0573 29.3906Z" fill="#AEAEAE" fill-rule="evenodd"/>
</svg>
