<svg viewBox="0 0 48 48" xmlns="http://www.w3.org/2000/svg" xmlns:xlink="http://www.w3.org/1999/xlink" width="48.000000" height="48.000000" fill="none">
  <path id="减去顶层" d="M3.55762 18.8157L20.0883 5.2465C20.347 5.03361 20.6202 4.84807 20.9078 4.68791C21.1639 4.54534 21.4313 4.42424 21.7102 4.32366C21.9892 4.22307 22.2726 4.14593 22.5602 4.09319C22.5641 4.09222 22.5681 4.09124 22.572 4.09026C22.875 4.0346 23.1828 4.00433 23.4953 4.00042C23.8119 3.99651 24.1243 4.01995 24.4324 4.06878C24.7213 4.11565 25.0065 4.18596 25.2879 4.27874C25.5692 4.37249 25.8396 4.48674 26.0991 4.62248C26.3906 4.77483 26.6683 4.95451 26.9322 5.15959L44.4131 18.7923C45.0769 19.3098 45.1943 20.2415 44.6798 20.9094C44.1654 21.5774 43.2397 21.6955 42.576 21.178L41.5 20.3381L41.5 38.0001C41.5 41.3135 38.8137 44 35.5 44L12.5 44C9.1863 44 6.5 41.3135 6.5 38.0001L6.5 20.2952L5.45346 21.1545C4.80277 21.6887 3.87441 21.594 3.34357 20.9387C2.81273 20.2844 2.90692 19.3499 3.55762 18.8157ZM23.5 23.2006C23.5 23.3276 23.4872 23.4516 23.4616 23.5727C23.438 23.684 23.4035 23.7944 23.3581 23.9018C23.3136 24.0063 23.2602 24.1059 23.1979 24.1996C23.1326 24.2973 23.0576 24.3881 22.9728 24.4731C22.888 24.558 22.7967 24.6332 22.6989 24.6987C22.6055 24.7602 22.5062 24.8139 22.401 24.8588C22.2936 24.9037 22.184 24.9389 22.0721 24.9623C21.9507 24.9877 21.8267 25.0004 21.7 25.0004L19.3 25.0004C19.1733 25.0004 19.0493 24.9877 18.9279 24.9623C18.816 24.9389 18.7064 24.9037 18.599 24.8588C18.4938 24.8139 18.3945 24.7602 18.3011 24.6987C18.2033 24.6332 18.112 24.558 18.0272 24.4731C17.9424 24.3881 17.8674 24.2973 17.8022 24.1996C17.7398 24.1059 17.6864 24.0063 17.6419 23.9018C17.5965 23.7944 17.562 23.684 17.5384 23.5727C17.5128 23.4516 17.5 23.3276 17.5 23.2006L17.5 20.8002C17.5 20.6742 17.5128 20.5502 17.5383 20.4291L17.5383 20.4282L17.5384 20.4282C17.562 20.3158 17.5965 20.2065 17.6419 20.0991C17.6864 19.9946 17.7398 19.895 17.8022 19.8012C17.8674 19.7035 17.9424 19.6127 18.0272 19.5278C18.112 19.4428 18.2033 19.3676 18.3011 19.3022C18.3945 19.2407 18.4938 19.1869 18.599 19.142C18.7064 19.0971 18.816 19.0619 18.9279 19.0385C19.0493 19.0131 19.1733 19.0004 19.3 19.0004L21.7 19.0004C21.8267 19.0004 21.9507 19.0131 22.0721 19.0385C22.184 19.0619 22.2936 19.0971 22.401 19.142C22.5062 19.1869 22.6055 19.2407 22.6989 19.3022L22.6989 19.3022C22.7967 19.3676 22.888 19.4428 22.9728 19.5278C23.0576 19.6127 23.1326 19.7035 23.1979 19.8012C23.2602 19.895 23.3136 19.9946 23.3581 20.0991C23.4035 20.2065 23.438 20.3168 23.4616 20.4282L23.4616 20.4282C23.4872 20.5502 23.5 20.6733 23.5 20.8002L23.5 23.2006ZM30.5 23.2006C30.5 23.3276 30.4872 23.4516 30.4616 23.5727C30.438 23.684 30.4035 23.7944 30.3581 23.9018C30.3136 24.0063 30.2602 24.1059 30.1979 24.1996C30.1326 24.2973 30.0576 24.3881 29.9728 24.4731C29.888 24.558 29.7967 24.6332 29.6989 24.6987C29.6055 24.7602 29.5062 24.8139 29.401 24.8588C29.2936 24.9037 29.184 24.9389 29.0721 24.9623C28.9507 24.9877 28.8267 25.0004 28.7 25.0004L26.3 25.0004C26.1733 25.0004 26.0493 24.9877 25.9279 24.9623C25.816 24.9389 25.7064 24.9037 25.599 24.8588C25.4938 24.8139 25.3945 24.7602 25.3011 24.6987C25.2033 24.6332 25.112 24.558 25.0272 24.4731C24.9424 24.3881 24.8674 24.2973 24.8022 24.1996C24.7398 24.1059 24.6864 24.0063 24.6419 23.9018C24.5965 23.7944 24.562 23.684 24.5384 23.5727C24.5128 23.4516 24.5 23.3276 24.5 23.2006L24.5 20.8002C24.5 20.6742 24.5128 20.5502 24.5383 20.4291L24.5383 20.4282L24.5384 20.4282C24.562 20.3168 24.5965 20.2065 24.6419 20.0991C24.6864 19.9946 24.7398 19.895 24.8022 19.8012C24.8674 19.7035 24.9424 19.6127 25.0272 19.5278C25.112 19.4428 25.2033 19.3676 25.3011 19.3022C25.3945 19.2407 25.4938 19.1869 25.599 19.142C25.7064 19.0971 25.816 19.0619 25.9279 19.0385C26.0493 19.0131 26.1733 19.0004 26.3 19.0004L28.7 19.0004C28.8267 19.0004 28.9507 19.0131 29.0721 19.0385C29.184 19.0619 29.2936 19.0971 29.401 19.142C29.5062 19.1869 29.6055 19.2407 29.6989 19.3022C29.7967 19.3676 29.888 19.4428 29.9728 19.5278C30.0576 19.6127 30.1326 19.7035 30.1979 19.8012C30.2602 19.895 30.3136 19.9946 30.3581 20.0991C30.4035 20.2065 30.438 20.3168 30.4616 20.4282L30.4616 20.4282C30.4872 20.5502 30.5 20.6733 30.5 20.8002L30.5 23.2006ZM16.4616 30.5727C16.4872 30.4516 16.5 30.3276 16.5 30.2006L16.5 27.8002C16.5 27.6733 16.4872 27.5492 16.4616 27.4282C16.438 27.3168 16.4035 27.2065 16.3581 27.0991C16.3136 26.9946 16.2602 26.895 16.1979 26.8012C16.1326 26.7035 16.0576 26.6127 15.9728 26.5278C15.888 26.4428 15.7967 26.3676 15.6989 26.3022C15.6055 26.2407 15.5062 26.1869 15.401 26.142C15.2936 26.0971 15.184 26.0619 15.0721 26.0385C14.9507 26.0131 14.8267 26.0004 14.7 26.0004L12.3 26.0004C12.1733 26.0004 12.0493 26.0131 11.9279 26.0385C11.816 26.0619 11.7063 26.0971 11.599 26.142C11.4938 26.1869 11.3945 26.2407 11.3011 26.3022L11.3008 26.3032C11.2031 26.3676 11.1119 26.4428 11.0272 26.5278C10.9424 26.6127 10.8674 26.7035 10.8022 26.8012C10.7398 26.895 10.6864 26.9946 10.6419 27.0991C10.5965 27.2065 10.562 27.3168 10.5384 27.4282C10.5128 27.5492 10.5 27.6733 10.5 27.8002L10.5 30.2006C10.5 30.3276 10.5128 30.4516 10.5384 30.5727C10.562 30.684 10.5965 30.7944 10.6419 30.9018C10.6864 31.0063 10.7398 31.1059 10.8022 31.1996C10.8674 31.2973 10.9424 31.3881 11.0272 31.4731C11.112 31.558 11.2033 31.6332 11.3011 31.6987C11.3945 31.7602 11.4938 31.8139 11.599 31.8588C11.7064 31.9037 11.816 31.9389 11.9279 31.9623C12.0493 31.9877 12.1733 32.0004 12.3 32.0004L14.7 32.0004C14.8266 32.0004 14.9505 31.9877 15.0718 31.9623L15.0721 31.9623C15.184 31.9389 15.2936 31.9037 15.401 31.8588C15.5062 31.8139 15.6055 31.7602 15.6989 31.6987C15.7967 31.6332 15.888 31.558 15.9728 31.4731C16.0576 31.3881 16.1326 31.2973 16.1979 31.1996C16.2602 31.1059 16.3136 31.0063 16.3581 30.9018C16.4035 30.7944 16.438 30.684 16.4616 30.5727ZM23.5 30.2006C23.5 30.3276 23.4872 30.4516 23.4616 30.5727C23.438 30.684 23.4035 30.7944 23.3581 30.9018C23.3136 31.0063 23.2602 31.1059 23.1979 31.1996C23.1326 31.2973 23.0576 31.3881 22.9728 31.4731C22.8882 31.558 22.7972 31.6323 22.6996 31.6977L22.699 31.6987L22.6989 31.6987C22.6055 31.7602 22.5062 31.8139 22.401 31.8588C22.2936 31.9037 22.184 31.9389 22.0721 31.9623C21.9507 31.9877 21.8267 32.0004 21.7 32.0004L19.3 32.0004C19.1733 32.0004 19.0493 31.9877 18.9279 31.9623C18.816 31.9389 18.7064 31.9037 18.599 31.8588C18.4938 31.8139 18.3945 31.7602 18.3011 31.6987C18.2033 31.6332 18.112 31.558 18.0272 31.4731C17.9424 31.3881 17.8674 31.2973 17.8022 31.1996C17.7398 31.1059 17.6864 31.0063 17.6419 30.9018C17.5965 30.7944 17.562 30.684 17.5384 30.5727C17.5128 30.4516 17.5 30.3276 17.5 30.2006L17.5 27.8002C17.5 27.6733 17.5128 27.5492 17.5384 27.4282C17.562 27.3168 17.5965 27.2065 17.6419 27.0991C17.6864 26.9946 17.7398 26.895 17.8022 26.8012C17.8674 26.7035 17.9424 26.6127 18.0272 26.5278C18.112 26.4428 18.2033 26.3676 18.3011 26.3022C18.3945 26.2407 18.4938 26.1869 18.599 26.142C18.7064 26.0971 18.816 26.0619 18.9279 26.0385C19.0493 26.0131 19.1733 26.0004 19.3 26.0004L21.7 26.0004C21.8267 26.0004 21.9507 26.0131 22.0721 26.0385C22.184 26.0619 22.2936 26.0971 22.401 26.142C22.5061 26.1869 22.6052 26.2397 22.6985 26.3022L22.6989 26.3022C22.7967 26.3676 22.888 26.4428 22.9728 26.5278C23.0576 26.6127 23.1326 26.7035 23.1979 26.8012C23.2602 26.895 23.3136 26.9946 23.3581 27.0991C23.4035 27.2065 23.438 27.3168 23.4616 27.4282C23.4872 27.5492 23.5 27.6733 23.5 27.8002L23.5 30.2006ZM30.4616 30.5727C30.4872 30.4516 30.5 30.3276 30.5 30.2006L30.5 27.8002C30.5 27.6733 30.4872 27.5492 30.4616 27.4282C30.438 27.3168 30.4035 27.2065 30.3581 27.0991C30.3136 26.9946 30.2602 26.895 30.1979 26.8012C30.1326 26.7035 30.0576 26.6127 29.9728 26.5278C29.888 26.4428 29.7967 26.3676 29.6989 26.3022L29.6985 26.3022C29.6053 26.2397 29.5061 26.1869 29.401 26.142C29.2936 26.0971 29.184 26.0619 29.0721 26.0385C28.9507 26.0131 28.8267 26.0004 28.7 26.0004L26.3 26.0004C26.1733 26.0004 26.0493 26.0131 25.9279 26.0385C25.816 26.0619 25.7064 26.0971 25.599 26.142C25.4938 26.1869 25.3945 26.2407 25.3011 26.3022C25.2033 26.3676 25.112 26.4428 25.0272 26.5278C24.9424 26.6127 24.8674 26.7035 24.8022 26.8012C24.7398 26.895 24.6864 26.9946 24.6419 27.0991C24.5965 27.2065 24.562 27.3168 24.5384 27.4282C24.5128 27.5492 24.5 27.6733 24.5 27.8002L24.5 30.2006C24.5 30.3276 24.5128 30.4516 24.5384 30.5727C24.562 30.684 24.5965 30.7944 24.6419 30.9018C24.6864 31.0063 24.7398 31.1059 24.8022 31.1996C24.8674 31.2973 24.9424 31.3881 25.0272 31.4731C25.112 31.558 25.2033 31.6332 25.3011 31.6987C25.3945 31.7602 25.4938 31.8139 25.599 31.8588C25.7064 31.9037 25.816 31.9389 25.9279 31.9623C26.0493 31.9877 26.1733 32.0004 26.3 32.0004L28.7 32.0004C28.8267 32.0004 28.9507 31.9877 29.0721 31.9623C29.184 31.9389 29.2936 31.9037 29.401 31.8588C29.5062 31.8139 29.6055 31.7602 29.6989 31.6987C29.7967 31.6332 29.888 31.558 29.9728 31.4731C30.0576 31.3881 30.1326 31.2973 30.1979 31.1996C30.2602 31.1059 30.3136 31.0063 30.3581 30.9018C30.4035 30.7944 30.438 30.684 30.4616 30.5727ZM37.4616 30.5727C37.4872 30.4516 37.5 30.3276 37.5 30.2006L37.5 27.8002C37.5 27.6733 37.4872 27.5492 37.4616 27.4282C37.438 27.3168 37.4035 27.2065 37.3581 27.0991C37.3136 26.9946 37.2602 26.895 37.1979 26.8012C37.1326 26.7035 37.0576 26.6127 36.9728 26.5278C36.888 26.4428 36.7967 26.3676 36.6989 26.3022L36.6985 26.3022C36.6053 26.2397 36.5061 26.1869 36.401 26.142C36.2936 26.0971 36.184 26.0619 36.0721 26.0385C35.9507 26.0131 35.8267 26.0004 35.7 26.0004L33.3 26.0004C33.1733 26.0004 33.0494 26.0131 32.9281 26.0385L32.9279 26.0385C32.816 26.0619 32.7064 26.0971 32.599 26.142C32.4938 26.1869 32.3945 26.2407 32.3011 26.3022C32.2033 26.3676 32.112 26.4428 32.0272 26.5278C31.9424 26.6127 31.8674 26.7035 31.8022 26.8012C31.7398 26.895 31.6864 26.9946 31.6419 27.0991C31.5965 27.2065 31.562 27.3168 31.5384 27.4282C31.5128 27.5492 31.5 27.6733 31.5 27.8002L31.5 30.2006C31.5 30.3276 31.5128 30.4516 31.5384 30.5727C31.562 30.684 31.5965 30.7944 31.6419 30.9018C31.6864 31.0063 31.7398 31.1059 31.8022 31.1996C31.8674 31.2973 31.9424 31.3881 32.0272 31.4731C32.112 31.558 32.2033 31.6332 32.3011 31.6987C32.3945 31.7602 32.4938 31.8139 32.599 31.8588C32.7064 31.9037 32.816 31.9389 32.9279 31.9623C33.0493 31.9877 33.1733 32.0004 33.3 32.0004L35.7 32.0004C35.8267 32.0004 35.9507 31.9877 36.0721 31.9623C36.184 31.9389 36.2936 31.9037 36.401 31.8588C36.5062 31.8139 36.6055 31.7602 36.6989 31.6987C36.7967 31.6332 36.888 31.558 36.9728 31.4731C37.0576 31.3881 37.1326 31.2973 37.1979 31.1996C37.2602 31.1059 37.3136 31.0063 37.3581 30.9018C37.4035 30.7944 37.438 30.684 37.4616 30.5727ZM16.4616 37.5727C16.4872 37.4506 16.5 37.3276 16.5 37.2006L16.5 34.8002C16.5 34.6733 16.4872 34.5492 16.4616 34.4282C16.438 34.3168 16.4035 34.2065 16.3581 34.0991C16.3136 33.9946 16.2602 33.895 16.1979 33.8012C16.1326 33.7035 16.0576 33.6127 15.9728 33.5278C15.888 33.4428 15.7967 33.3676 15.6989 33.3022C15.6055 33.2407 15.5062 33.1869 15.401 33.142C15.2936 33.0971 15.184 33.0619 15.0721 33.0385C14.9507 33.0131 14.8267 33.0004 14.7 33.0004L12.3 33.0004C12.1733 33.0004 12.0493 33.0131 11.9279 33.0385C11.816 33.0619 11.7064 33.0971 11.599 33.142C11.4938 33.1869 11.3945 33.2407 11.3011 33.3022C11.2033 33.3676 11.112 33.4428 11.0272 33.5278C10.9424 33.6127 10.8674 33.7035 10.8022 33.8012C10.7398 33.895 10.6864 33.9946 10.6419 34.0991C10.5965 34.2065 10.562 34.3168 10.5384 34.4282C10.5128 34.5492 10.5 34.6733 10.5 34.8002L10.5 37.2006C10.5 37.3276 10.5128 37.4516 10.5384 37.5727C10.562 37.684 10.5965 37.7944 10.6419 37.9018C10.6864 38.0063 10.7398 38.1059 10.8022 38.1996C10.8674 38.2973 10.9424 38.3881 11.0272 38.4731C11.112 38.558 11.2033 38.6332 11.3011 38.6987L11.3012 38.6987C11.3946 38.7602 11.4938 38.8139 11.599 38.8588C11.7044 38.903 11.812 38.9369 11.9219 38.9603L11.9271 38.9614L11.9279 38.9623C12.0493 38.9877 12.1733 39.0004 12.3 39.0004L14.7 39.0004C14.8267 39.0004 14.9507 38.9877 15.0721 38.9623C15.184 38.9389 15.2936 38.9037 15.401 38.8588C15.5062 38.8139 15.6055 38.7602 15.6989 38.6987C15.7967 38.6332 15.888 38.558 15.9728 38.4731C16.0576 38.3881 16.1326 38.2973 16.1979 38.1996C16.2602 38.1059 16.3136 38.0063 16.3581 37.9018C16.4035 37.7944 16.438 37.684 16.4616 37.5727ZM23.3581 37.9018C23.4035 37.7944 23.438 37.684 23.4616 37.5727C23.4872 37.4516 23.5 37.3276 23.5 37.2006L23.5 34.8002C23.5 34.6733 23.4872 34.5492 23.4616 34.4282C23.438 34.3168 23.4035 34.2065 23.3581 34.0991C23.3136 33.9946 23.2602 33.895 23.1979 33.8012C23.1326 33.7035 23.0576 33.6127 22.9728 33.5278C22.888 33.4428 22.7967 33.3676 22.6989 33.3022L22.6988 33.3022C22.6055 33.2407 22.5062 33.1869 22.401 33.142C22.2936 33.0971 22.184 33.0619 22.0721 33.0385C21.9507 33.0131 21.8267 33.0004 21.7 33.0004L19.3 33.0004C19.1733 33.0004 19.0493 33.0131 18.9279 33.0385C18.816 33.0619 18.7064 33.0971 18.599 33.142C18.4938 33.1869 18.3945 33.2407 18.3011 33.3022C18.2033 33.3676 18.112 33.4428 18.0272 33.5278C17.9424 33.6127 17.8674 33.7035 17.8022 33.8012C17.7398 33.895 17.6864 33.9946 17.6419 34.0991C17.5965 34.2065 17.562 34.3168 17.5384 34.4282C17.5128 34.5492 17.5 34.6733 17.5 34.8002L17.5 37.2006C17.5 37.3276 17.5128 37.4516 17.5384 37.5727C17.562 37.684 17.5965 37.7944 17.6419 37.9018C17.6864 38.0063 17.7398 38.1059 17.8022 38.1996C17.8674 38.2973 17.9424 38.3881 18.0272 38.4731C18.112 38.558 18.2033 38.6332 18.3011 38.6987C18.3945 38.7602 18.4938 38.8139 18.599 38.8588C18.7064 38.9037 18.816 38.9389 18.9279 38.9623C19.0493 38.9877 19.1733 39.0004 19.3 39.0004L21.7 39.0004C21.8267 39.0004 21.9507 38.9877 22.0721 38.9623C22.184 38.9389 22.2936 38.9037 22.401 38.8588C22.5062 38.8139 22.6055 38.7602 22.6989 38.6987C22.7967 38.6332 22.888 38.558 22.9728 38.4731C23.0576 38.3881 23.1326 38.2973 23.1979 38.1996C23.2602 38.1059 23.3136 38.0063 23.3581 37.9018ZM30.4618 37.5717L30.4616 37.5727C30.438 37.684 30.4035 37.7944 30.3581 37.9018C30.3136 38.0063 30.2602 38.1059 30.1979 38.1996C30.1326 38.2973 30.0576 38.3881 29.9728 38.4731C29.888 38.558 29.7967 38.6332 29.6989 38.6987C29.6055 38.7602 29.5062 38.8139 29.401 38.8588C29.2936 38.9037 29.184 38.9389 29.0721 38.9623C28.9507 38.9877 28.8267 39.0004 28.7 39.0004L26.3 39.0004C26.1733 39.0004 26.0493 38.9877 25.9279 38.9623C25.816 38.9389 25.7064 38.9037 25.599 38.8588C25.4938 38.8139 25.3945 38.7602 25.3011 38.6987C25.2033 38.6332 25.112 38.558 25.0272 38.4731C24.9424 38.3881 24.8674 38.2973 24.8022 38.1996C24.7398 38.1059 24.6864 38.0063 24.6419 37.9018C24.5965 37.7944 24.562 37.684 24.5384 37.5727C24.5128 37.4516 24.5 37.3276 24.5 37.2006L24.5 34.8002C24.5 34.6733 24.5128 34.5492 24.5384 34.4282C24.562 34.3168 24.5965 34.2065 24.6419 34.0991C24.6864 33.9946 24.7398 33.895 24.8022 33.8012C24.8674 33.7035 24.9424 33.6127 25.0272 33.5278C25.112 33.4428 25.2033 33.3676 25.3011 33.3022C25.3945 33.2407 25.4938 33.1869 25.599 33.142C25.7064 33.0971 25.816 33.0619 25.9279 33.0385C26.0493 33.0131 26.1733 33.0004 26.3 33.0004L28.7 33.0004C28.8267 33.0004 28.9507 33.0131 29.0721 33.0385C29.184 33.0619 29.2936 33.0971 29.401 33.142C29.5062 33.1869 29.6054 33.2407 29.6987 33.3022L29.6989 33.3022C29.7967 33.3676 29.888 33.4428 29.9728 33.5278C30.0576 33.6127 30.1326 33.7035 30.1979 33.8012C30.2602 33.895 30.3136 33.9946 30.3581 34.0991C30.4035 34.2065 30.438 34.3168 30.4616 34.4282C30.4872 34.5492 30.5 34.6733 30.5 34.8002L30.5 37.2006C30.5 37.3266 30.4873 37.4506 30.4618 37.5717ZM37.3581 37.9018C37.4035 37.7944 37.438 37.684 37.4616 37.5727L37.4618 37.5717C37.4873 37.4506 37.5 37.3266 37.5 37.2006L37.5 34.8002C37.5 34.6733 37.4872 34.5492 37.4616 34.4282C37.438 34.3168 37.4035 34.2065 37.3581 34.0991C37.3136 33.9946 37.2602 33.895 37.1979 33.8012C37.1326 33.7035 37.0576 33.6127 36.9728 33.5278C36.888 33.4428 36.7967 33.3676 36.6989 33.3022L36.6987 33.3022C36.6054 33.2407 36.5062 33.1869 36.401 33.142C36.2936 33.0971 36.184 33.0619 36.0721 33.0385C35.9507 33.0131 35.8267 33.0004 35.7 33.0004L33.3 33.0004C33.1734 33.0004 33.0494 33.0131 32.9282 33.0385L32.9279 33.0385C32.816 33.0619 32.7064 33.0971 32.599 33.142C32.4938 33.1869 32.3945 33.2407 32.3011 33.3022C32.2033 33.3676 32.112 33.4428 32.0272 33.5278C31.9424 33.6127 31.8674 33.7035 31.8022 33.8012C31.7398 33.895 31.6864 33.9946 31.6419 34.0991C31.5965 34.2065 31.562 34.3168 31.5384 34.4282C31.5128 34.5492 31.5 34.6733 31.5 34.8002L31.5 37.2006C31.5 37.3276 31.5128 37.4516 31.5384 37.5727C31.562 37.684 31.5965 37.7944 31.6419 37.9018C31.6864 38.0063 31.7398 38.1059 31.8022 38.1996C31.8674 38.2973 31.9424 38.3881 32.0272 38.4731C32.112 38.558 32.2033 38.6332 32.3011 38.6987C32.3945 38.7602 32.4938 38.8139 32.599 38.8588C32.7063 38.9037 32.8159 38.9379 32.9278 38.9623L32.9279 38.9623C33.0493 38.9877 33.1733 39.0004 33.3 39.0004L35.7 39.0004C35.8267 39.0004 35.9507 38.9877 36.0721 38.9623C36.184 38.9389 36.2936 38.9037 36.401 38.8588C36.5062 38.8139 36.6055 38.7602 36.6989 38.6987C36.7967 38.6332 36.888 38.558 36.9728 38.4731C37.0576 38.3881 37.1326 38.2973 37.1979 38.1996C37.2602 38.1059 37.3136 38.0063 37.3581 37.9018Z" fill="#191919" fill-rule="evenodd"/>
  <path id="合并" d="M23.4616 23.5721C23.4872 23.4508 23.5 23.3267 23.5 23.2L23.5 20.8C23.5 20.6733 23.4872 20.5494 23.4616 20.4281L23.4616 20.4279C23.438 20.316 23.4035 20.2064 23.3581 20.099C23.3136 19.9938 23.2602 19.8945 23.1979 19.8011C23.1326 19.7033 23.0576 19.612 22.9728 19.5272C22.888 19.4424 22.7967 19.3674 22.6989 19.3021L22.6989 19.3021L22.6989 19.3021C22.6055 19.2398 22.5062 19.1864 22.401 19.1419C22.2936 19.0965 22.184 19.062 22.0721 19.0384C21.9507 19.0128 21.8267 19 21.7 19L19.3 19C19.1733 19 19.0493 19.0128 18.9279 19.0384C18.816 19.062 18.7064 19.0965 18.599 19.1419C18.4938 19.1864 18.3945 19.2398 18.3011 19.3021C18.2033 19.3674 18.112 19.4424 18.0272 19.5272C17.9424 19.612 17.8674 19.7033 17.8021 19.8011C17.7398 19.8945 17.6864 19.9938 17.6419 20.099C17.5965 20.2063 17.562 20.3159 17.5384 20.4278L17.5384 20.4279L17.5384 20.4279L17.5383 20.4282L17.5383 20.4283C17.5128 20.5495 17.5 20.6734 17.5 20.8L17.5 23.2C17.5 23.3267 17.5128 23.4507 17.5384 23.5721C17.562 23.684 17.5965 23.7936 17.6419 23.901C17.6864 24.0062 17.7398 24.1055 17.8022 24.1989C17.8674 24.2967 17.9424 24.388 18.0272 24.4728C18.112 24.5576 18.2033 24.6326 18.3011 24.6979C18.3945 24.7602 18.4938 24.8136 18.599 24.8581C18.7064 24.9035 18.816 24.938 18.9279 24.9616C19.0493 24.9872 19.1733 25 19.3 25L21.7 25C21.8267 25 21.9507 24.9872 22.0721 24.9616C22.184 24.938 22.2936 24.9035 22.401 24.8581C22.5062 24.8136 22.6055 24.7602 22.6989 24.6979C22.7967 24.6326 22.888 24.5576 22.9728 24.4728C23.0576 24.388 23.1326 24.2967 23.1979 24.1989C23.2602 24.1055 23.3136 24.0062 23.3581 23.901C23.4035 23.7936 23.438 23.684 23.4616 23.5721ZM30.4616 23.5721C30.4872 23.4508 30.5 23.3267 30.5 23.2L30.5 20.8C30.5 20.6733 30.4872 20.5494 30.4616 20.4281L30.4616 20.4279C30.438 20.316 30.4035 20.2064 30.3581 20.099C30.3136 19.9938 30.2602 19.8945 30.1979 19.8011C30.1326 19.7033 30.0576 19.612 29.9728 19.5272C29.888 19.4424 29.7967 19.3674 29.6989 19.3021L29.6989 19.3021C29.6055 19.2398 29.5062 19.1864 29.401 19.1419C29.2936 19.0965 29.184 19.062 29.0721 19.0384C28.9507 19.0128 28.8267 19 28.7 19L26.3 19C26.1733 19 26.0493 19.0128 25.9279 19.0384C25.816 19.062 25.7064 19.0965 25.599 19.1419C25.4938 19.1864 25.3945 19.2398 25.3011 19.3021C25.2033 19.3674 25.112 19.4424 25.0272 19.5272C24.9424 19.612 24.8674 19.7033 24.8021 19.8011C24.7398 19.8945 24.6864 19.9938 24.6419 20.099C24.5965 20.2064 24.562 20.316 24.5384 20.4279L24.5383 20.4282L24.5383 20.4283C24.5128 20.5495 24.5 20.6734 24.5 20.8L24.5 23.2C24.5 23.3267 24.5128 23.4507 24.5384 23.5721C24.562 23.684 24.5965 23.7936 24.6419 23.901C24.6864 24.0062 24.7398 24.1055 24.8022 24.1989C24.8674 24.2967 24.9424 24.388 25.0272 24.4728C25.112 24.5576 25.2033 24.6326 25.3011 24.6979C25.3945 24.7602 25.4938 24.8136 25.599 24.8581C25.7064 24.9035 25.816 24.938 25.9279 24.9616C26.0493 24.9872 26.1733 25 26.3 25L28.7 25C28.8267 25 28.9507 24.9872 29.0721 24.9616C29.184 24.938 29.2936 24.9035 29.401 24.8581C29.5062 24.8136 29.6055 24.7602 29.6989 24.6979C29.7967 24.6326 29.888 24.5576 29.9728 24.4728C30.0576 24.388 30.1326 24.2967 30.1979 24.1989C30.2602 24.1055 30.3136 24.0062 30.3581 23.901C30.4035 23.7936 30.438 23.684 30.4616 23.5721ZM16.5 30.2C16.5 30.3267 16.4872 30.4508 16.4616 30.5721C16.438 30.684 16.4035 30.7936 16.3581 30.901C16.3136 31.0062 16.2602 31.1055 16.1979 31.1989C16.1326 31.2967 16.0576 31.388 15.9728 31.4728C15.888 31.5576 15.7967 31.6326 15.6989 31.6979C15.6055 31.7602 15.5062 31.8136 15.401 31.8581C15.2936 31.9035 15.184 31.938 15.0721 31.9616L15.0717 31.9617C14.9505 31.9872 14.8266 32 14.7 32L12.3 32C12.1733 32 12.0493 31.9872 11.9279 31.9616C11.816 31.938 11.7064 31.9035 11.599 31.8581C11.4938 31.8136 11.3945 31.7602 11.3011 31.6979C11.2033 31.6326 11.112 31.5576 11.0272 31.4728C10.9424 31.388 10.8674 31.2967 10.8022 31.1989C10.7398 31.1055 10.6864 31.0062 10.6419 30.901C10.5965 30.7936 10.562 30.684 10.5384 30.5721C10.5128 30.4507 10.5 30.3267 10.5 30.2L10.5 27.8C10.5 27.6733 10.5128 27.5493 10.5384 27.4279C10.562 27.316 10.5965 27.2064 10.6419 27.099C10.6864 26.9938 10.7398 26.8945 10.8021 26.8011C10.8674 26.7033 10.9424 26.612 11.0272 26.5272C11.1119 26.4425 11.2031 26.3676 11.3008 26.3023L11.3008 26.3023L11.3011 26.3021C11.3945 26.2398 11.4938 26.1864 11.599 26.1419C11.7063 26.0965 11.816 26.062 11.9279 26.0384L11.9279 26.0384C12.0493 26.0128 12.1733 26 12.3 26L14.7 26C14.8267 26 14.9507 26.0128 15.0721 26.0384C15.184 26.062 15.2936 26.0965 15.401 26.1419C15.5062 26.1864 15.6055 26.2398 15.6989 26.3021C15.7967 26.3674 15.888 26.4424 15.9728 26.5272C16.0576 26.612 16.1326 26.7033 16.1979 26.8011C16.2602 26.8945 16.3136 26.9938 16.3581 27.099C16.4035 27.2064 16.438 27.316 16.4616 27.4279C16.4872 27.5492 16.5 27.6733 16.5 27.8L16.5 30.2ZM23.4616 30.5721C23.4872 30.4508 23.5 30.3267 23.5 30.2L23.5 27.8C23.5 27.6733 23.4872 27.5492 23.4616 27.4279C23.438 27.316 23.4035 27.2064 23.3581 27.099C23.3136 26.9938 23.2602 26.8945 23.1979 26.8011C23.1326 26.7033 23.0576 26.612 22.9728 26.5272C22.888 26.4424 22.7967 26.3674 22.6989 26.3021L22.6985 26.3019L22.6985 26.3019C22.6052 26.2397 22.5061 26.1864 22.401 26.1419C22.2936 26.0965 22.184 26.062 22.0721 26.0384C21.9507 26.0128 21.8267 26 21.7 26L19.3 26C19.1733 26 19.0493 26.0128 18.9279 26.0384C18.816 26.062 18.7064 26.0965 18.599 26.1419C18.4938 26.1864 18.3945 26.2398 18.3011 26.3021C18.2033 26.3674 18.112 26.4424 18.0272 26.5272C17.9424 26.612 17.8674 26.7033 17.8021 26.8011C17.7398 26.8945 17.6864 26.9938 17.6419 27.099C17.5965 27.2064 17.562 27.316 17.5384 27.4279C17.5128 27.5493 17.5 27.6733 17.5 27.8L17.5 30.2C17.5 30.3267 17.5128 30.4507 17.5384 30.5721C17.562 30.684 17.5965 30.7936 17.6419 30.901C17.6864 31.0062 17.7398 31.1055 17.8022 31.1989C17.8674 31.2967 17.9424 31.388 18.0272 31.4728C18.112 31.5576 18.2033 31.6326 18.3011 31.6979C18.3945 31.7602 18.4938 31.8136 18.599 31.8581C18.7064 31.9035 18.816 31.938 18.9279 31.9616C19.0493 31.9872 19.1733 32 19.3 32L21.7 32C21.8267 32 21.9507 31.9872 22.0721 31.9616C22.184 31.938 22.2936 31.9035 22.401 31.8581C22.5062 31.8136 22.6055 31.7602 22.6989 31.6979L22.6989 31.6978L22.699 31.6978L22.6996 31.6974C22.7972 31.6322 22.8882 31.5574 22.9728 31.4728C23.0576 31.388 23.1326 31.2967 23.1979 31.1989C23.2602 31.1055 23.3136 31.0062 23.3581 30.901C23.4035 30.7936 23.438 30.684 23.4616 30.5721ZM30.5 30.2C30.5 30.3267 30.4872 30.4508 30.4616 30.5721C30.438 30.684 30.4035 30.7936 30.3581 30.901C30.3136 31.0062 30.2602 31.1055 30.1979 31.1989C30.1326 31.2967 30.0576 31.388 29.9728 31.4728C29.888 31.5576 29.7967 31.6326 29.6989 31.6979C29.6055 31.7602 29.5062 31.8136 29.401 31.8581C29.2936 31.9035 29.184 31.938 29.0721 31.9616C28.9507 31.9872 28.8267 32 28.7 32L26.3 32C26.1733 32 26.0493 31.9872 25.9279 31.9616C25.816 31.938 25.7064 31.9035 25.599 31.8581C25.4938 31.8136 25.3945 31.7602 25.3011 31.6979C25.2033 31.6326 25.112 31.5576 25.0272 31.4728C24.9424 31.388 24.8674 31.2967 24.8022 31.1989C24.7398 31.1055 24.6864 31.0062 24.6419 30.901C24.5965 30.7936 24.562 30.684 24.5384 30.5721C24.5128 30.4507 24.5 30.3267 24.5 30.2L24.5 27.8C24.5 27.6733 24.5128 27.5493 24.5384 27.4279C24.562 27.316 24.5965 27.2064 24.6419 27.099C24.6864 26.9938 24.7398 26.8945 24.8021 26.8011C24.8674 26.7033 24.9424 26.612 25.0272 26.5272C25.112 26.4424 25.2033 26.3674 25.3011 26.3021C25.3945 26.2398 25.4938 26.1864 25.599 26.1419C25.7064 26.0965 25.816 26.062 25.9279 26.0384C26.0493 26.0128 26.1733 26 26.3 26L28.7 26C28.8267 26 28.9507 26.0128 29.0721 26.0384C29.184 26.062 29.2936 26.0965 29.401 26.1419C29.5061 26.1864 29.6053 26.2397 29.6985 26.3019L29.6989 26.3021C29.7967 26.3674 29.888 26.4424 29.9728 26.5272C30.0576 26.612 30.1326 26.7033 30.1979 26.8011C30.2602 26.8945 30.3136 26.9938 30.3581 27.099C30.4035 27.2064 30.438 27.316 30.4616 27.4279C30.4872 27.5492 30.5 27.6733 30.5 27.8L30.5 30.2ZM37.5 30.2C37.5 30.3267 37.4872 30.4508 37.4616 30.5721C37.438 30.684 37.4035 30.7936 37.3581 30.901C37.3136 31.0062 37.2602 31.1055 37.1979 31.1989C37.1326 31.2967 37.0576 31.388 36.9728 31.4728C36.888 31.5576 36.7967 31.6326 36.6989 31.6979C36.6055 31.7602 36.5062 31.8136 36.401 31.8581C36.2936 31.9035 36.184 31.938 36.0721 31.9616C35.9507 31.9872 35.8267 32 35.7 32L33.3 32C33.1733 32 33.0493 31.9872 32.9279 31.9616C32.816 31.938 32.7064 31.9035 32.599 31.8581C32.4938 31.8136 32.3945 31.7602 32.3011 31.6979C32.2033 31.6326 32.112 31.5576 32.0272 31.4728C31.9424 31.388 31.8674 31.2967 31.8022 31.1989C31.7398 31.1055 31.6864 31.0062 31.6419 30.901C31.5965 30.7936 31.562 30.684 31.5384 30.5721C31.5128 30.4507 31.5 30.3267 31.5 30.2L31.5 27.8C31.5 27.6733 31.5128 27.5493 31.5384 27.4279C31.562 27.316 31.5965 27.2064 31.6419 27.099C31.6864 26.9938 31.7398 26.8945 31.8021 26.8011C31.8674 26.7033 31.9424 26.612 32.0272 26.5272C32.112 26.4424 32.2033 26.3674 32.3011 26.3021C32.3945 26.2398 32.4938 26.1864 32.599 26.1419C32.7064 26.0965 32.816 26.062 32.9279 26.0384L32.9281 26.0384C33.0494 26.0128 33.1733 26 33.3 26L35.7 26C35.8267 26 35.9507 26.0128 36.0721 26.0384C36.184 26.062 36.2936 26.0965 36.401 26.1419C36.5061 26.1864 36.6053 26.2397 36.6985 26.3019L36.6989 26.3021C36.7967 26.3674 36.888 26.4424 36.9728 26.5272C37.0576 26.612 37.1326 26.7033 37.1979 26.8011C37.2602 26.8945 37.3136 26.9938 37.3581 27.099C37.4035 27.2064 37.438 27.316 37.4616 27.4279C37.4872 27.5492 37.5 27.6733 37.5 27.8L37.5 30.2ZM16.5 37.2C16.5 37.3267 16.4872 37.4507 16.4616 37.572L16.4616 37.572L16.4616 37.5721C16.438 37.684 16.4035 37.7936 16.3581 37.901C16.3136 38.0062 16.2602 38.1055 16.1979 38.1989C16.1326 38.2967 16.0576 38.388 15.9728 38.4728C15.888 38.5576 15.7967 38.6326 15.6989 38.6979C15.6055 38.7602 15.5062 38.8136 15.401 38.8581C15.2936 38.9035 15.184 38.938 15.0721 38.9616C14.9507 38.9872 14.8267 39 14.7 39L12.3 39C12.1733 39 12.0493 38.9872 11.9279 38.9616L11.9271 38.9614C11.8154 38.9378 11.7061 38.9034 11.599 38.8581C11.4938 38.8136 11.3945 38.7602 11.3012 38.6979L11.3012 38.6979L11.3011 38.6979C11.2033 38.6326 11.112 38.5576 11.0272 38.4728C10.9424 38.388 10.8674 38.2967 10.8022 38.1989C10.7398 38.1055 10.6864 38.0062 10.6419 37.901C10.5965 37.7936 10.562 37.684 10.5384 37.5721C10.5128 37.4507 10.5 37.3267 10.5 37.2L10.5 34.8C10.5 34.6733 10.5128 34.5493 10.5384 34.4279C10.562 34.316 10.5965 34.2064 10.6419 34.099C10.6864 33.9938 10.7398 33.8945 10.8021 33.8011C10.8674 33.7033 10.9424 33.612 11.0272 33.5272C11.112 33.4424 11.2033 33.3674 11.3011 33.3021C11.3945 33.2398 11.4938 33.1864 11.599 33.1419C11.7064 33.0965 11.816 33.062 11.9279 33.0384C12.0493 33.0128 12.1733 33 12.3 33L14.7 33C14.8267 33 14.9507 33.0128 15.0721 33.0384C15.184 33.062 15.2936 33.0965 15.401 33.1419C15.5062 33.1864 15.6055 33.2398 15.6989 33.3022C15.7967 33.3674 15.888 33.4424 15.9728 33.5272C16.0576 33.612 16.1326 33.7033 16.1979 33.8011C16.2602 33.8945 16.3136 33.9938 16.3581 34.099C16.4035 34.2064 16.438 34.316 16.4616 34.4279C16.4872 34.5492 16.5 34.6733 16.5 34.8L16.5 37.2ZM23.4616 37.572L23.4616 37.5721C23.438 37.684 23.4035 37.7936 23.3581 37.901C23.3136 38.0062 23.2602 38.1055 23.1979 38.1989C23.1326 38.2967 23.0576 38.388 22.9728 38.4728C22.888 38.5576 22.7967 38.6326 22.6989 38.6979C22.6055 38.7602 22.5062 38.8136 22.401 38.8581C22.2936 38.9035 22.184 38.938 22.0721 38.9616C21.9507 38.9872 21.8267 39 21.7 39L19.3 39C19.1733 39 19.0493 38.9872 18.9279 38.9616C18.816 38.938 18.7064 38.9035 18.599 38.8581C18.4938 38.8136 18.3945 38.7602 18.3011 38.6979C18.2033 38.6326 18.112 38.5576 18.0272 38.4728C17.9424 38.388 17.8674 38.2967 17.8022 38.1989C17.7398 38.1055 17.6864 38.0062 17.6419 37.901C17.5965 37.7936 17.562 37.684 17.5384 37.5721C17.5128 37.4507 17.5 37.3267 17.5 37.2L17.5 34.8C17.5 34.6733 17.5128 34.5493 17.5384 34.4279C17.562 34.316 17.5965 34.2064 17.6419 34.099C17.6864 33.9938 17.7398 33.8945 17.8021 33.8011C17.8674 33.7033 17.9424 33.612 18.0272 33.5272C18.112 33.4424 18.2033 33.3674 18.3011 33.3021C18.3945 33.2398 18.4938 33.1864 18.599 33.1419C18.7064 33.0965 18.816 33.062 18.9279 33.0384C19.0493 33.0128 19.1733 33 19.3 33L21.7 33C21.8267 33 21.9507 33.0128 22.0721 33.0384C22.184 33.062 22.2936 33.0965 22.401 33.1419C22.5062 33.1864 22.6055 33.2398 22.6988 33.3021L22.6989 33.3021L22.6989 33.3022C22.7967 33.3674 22.888 33.4424 22.9728 33.5272C23.0576 33.612 23.1326 33.7033 23.1979 33.8011C23.2602 33.8945 23.3136 33.9938 23.3581 34.099C23.4035 34.2064 23.438 34.316 23.4616 34.4279C23.4872 34.5492 23.5 34.6733 23.5 34.8L23.5 37.2C23.5 37.3267 23.4872 37.4507 23.4616 37.572ZM30.4616 37.5721L30.4616 37.572L30.4618 37.5712C30.4873 37.4501 30.5 37.3264 30.5 37.2L30.5 34.8C30.5 34.6733 30.4872 34.5492 30.4616 34.4279C30.438 34.316 30.4035 34.2064 30.3581 34.099C30.3136 33.9938 30.2602 33.8945 30.1979 33.8011C30.1326 33.7033 30.0576 33.612 29.9728 33.5272C29.888 33.4424 29.7967 33.3674 29.6989 33.3022L29.6989 33.3021L29.6987 33.302C29.6054 33.2398 29.5061 33.1864 29.401 33.1419C29.2936 33.0965 29.184 33.062 29.0721 33.0384C28.9507 33.0128 28.8267 33 28.7 33L26.3 33C26.1733 33 26.0493 33.0128 25.9279 33.0384C25.816 33.062 25.7064 33.0965 25.599 33.1419C25.4938 33.1864 25.3945 33.2398 25.3011 33.3021C25.2033 33.3674 25.112 33.4424 25.0272 33.5272C24.9424 33.612 24.8674 33.7033 24.8021 33.8011C24.7398 33.8945 24.6864 33.9938 24.6419 34.099C24.5965 34.2064 24.562 34.316 24.5384 34.4279C24.5128 34.5493 24.5 34.6733 24.5 34.8L24.5 37.2C24.5 37.3267 24.5128 37.4507 24.5384 37.5721C24.562 37.684 24.5965 37.7936 24.6419 37.901C24.6864 38.0062 24.7398 38.1055 24.8022 38.1989C24.8674 38.2967 24.9424 38.388 25.0272 38.4728C25.112 38.5576 25.2033 38.6326 25.3011 38.6979C25.3945 38.7602 25.4938 38.8136 25.599 38.8581C25.7064 38.9035 25.816 38.938 25.9279 38.9616C26.0493 38.9872 26.1733 39 26.3 39L28.7 39C28.8267 39 28.9507 38.9872 29.0721 38.9616C29.184 38.938 29.2936 38.9035 29.401 38.8581C29.5062 38.8136 29.6055 38.7602 29.6989 38.6979C29.7967 38.6326 29.888 38.5576 29.9728 38.4728C30.0576 38.388 30.1326 38.2967 30.1979 38.1989C30.2602 38.1055 30.3136 38.0062 30.3581 37.901C30.4035 37.7936 30.438 37.684 30.4616 37.5721ZM37.4616 37.572L37.4616 37.5721C37.438 37.684 37.4035 37.7936 37.3581 37.901C37.3136 38.0062 37.2602 38.1055 37.1979 38.1989C37.1326 38.2967 37.0576 38.388 36.9728 38.4728C36.888 38.5576 36.7967 38.6326 36.6989 38.6979C36.6055 38.7602 36.5062 38.8136 36.401 38.8581C36.2936 38.9035 36.184 38.938 36.0721 38.9616C35.9507 38.9872 35.8267 39 35.7 39L33.3 39C33.1733 39 33.0493 38.9872 32.9279 38.9616L32.9278 38.9616L32.9277 38.9616C32.8159 38.938 32.7063 38.9035 32.599 38.8581C32.4938 38.8136 32.3945 38.7602 32.3011 38.6979C32.2033 38.6326 32.112 38.5576 32.0272 38.4728C31.9424 38.388 31.8674 38.2967 31.8022 38.1989C31.7398 38.1055 31.6864 38.0062 31.6419 37.901C31.5965 37.7936 31.562 37.684 31.5384 37.5721C31.5128 37.4507 31.5 37.3267 31.5 37.2L31.5 34.8C31.5 34.6733 31.5128 34.5493 31.5384 34.4279C31.562 34.316 31.5965 34.2064 31.6419 34.099C31.6864 33.9938 31.7398 33.8945 31.8021 33.8011C31.8674 33.7033 31.9424 33.612 32.0272 33.5272C32.112 33.4424 32.2033 33.3674 32.3011 33.3021C32.3945 33.2398 32.4938 33.1864 32.599 33.1419C32.7064 33.0965 32.816 33.062 32.9279 33.0384L32.9281 33.0384L32.9282 33.0383C33.0494 33.0128 33.1734 33 33.3 33L35.7 33C35.8267 33 35.9507 33.0128 36.0721 33.0384C36.184 33.062 36.2936 33.0965 36.401 33.1419C36.5061 33.1864 36.6054 33.2398 36.6987 33.302L36.6989 33.3021L36.6989 33.3022C36.7967 33.3674 36.888 33.4424 36.9728 33.5272C37.0576 33.612 37.1326 33.7033 37.1979 33.8011C37.2602 33.8945 37.3136 33.9938 37.3581 34.099C37.4035 34.2064 37.438 34.316 37.4616 34.4279C37.4872 34.5492 37.5 34.6733 37.5 34.8L37.5 37.2C37.5 37.3264 37.4873 37.4501 37.4618 37.5712L37.4616 37.572Z" fill="#AEAEAE" fill-rule="evenodd"/>
</svg>
