<svg viewBox="0 0 48 48" xmlns="http://www.w3.org/2000/svg" xmlns:xlink="http://www.w3.org/1999/xlink" width="48.000000" height="48.000000" fill="none">
  <g id="编组">
    <ellipse id="Oval" rx="5.007949" ry="5.000000" cx="24.0079498" cy="11.9492188" fill="#FFFFFF" fill-opacity="0.400000006"/>
    <path id="减去顶层" d="M4.82712 20.2822C3.69153 19.8539 3.75756 18.9314 4.82712 18.3176C5.67223 17.8317 17.18 8.90396 21.9414 5.20269C23.1424 4.26903 24.8233 4.26538 26.0282 5.19413C30.8232 8.89017 42.4396 17.8313 43.2331 18.3176C44.2348 18.9314 44.2825 19.8539 43.2147 20.2822L4.82712 20.2822ZM21.1271 13.6392C20.5136 12.5965 20.5132 11.3033 21.1261 10.2602C21.7389 9.2172 22.8688 8.58809 24.0783 8.61648C25.8879 8.65897 27.3328 10.1378 27.3334 11.9479C27.3339 13.758 25.8898 15.2377 24.0802 15.2813C22.8708 15.3104 21.7405 14.6819 21.1271 13.6392Z" fill="#AEAEAE" fill-rule="evenodd"/>
    <path id="Path" d="M44 43.5L4 43.5L5.23304 40.5484C5.75132 39.3078 6.96422 38.5 8.30877 38.5L39.69 38.5C41.0341 38.5 42.2467 39.3073 42.7653 40.5473L44 43.5Z" fill="#191919" fill-rule="evenodd"/>
    <path id="形状结合" d="M9.01401 24.8265L9 21.9492L15.6513 21.9492L15.6667 24.8721C14.2043 24.9069 13.0369 26.1024 13.0369 27.5652L13.0369 38.6159L9 38.6159L9.01401 24.8265ZM19.0151 24.867C20.5761 24.8447 21.8535 26.104 21.8535 27.6651L21.8535 38.6159L26.175 38.6159L26.175 27.7604C26.175 26.1898 27.4298 24.9069 29 24.8721L28.9835 21.9492L19 21.9492L19.0151 24.867ZM34.9846 27.4382C34.9846 25.9881 33.7973 24.8187 32.3474 24.8408L32.3333 21.9492L39 21.9492L39 38.6159L34.9846 38.6159L34.9846 27.4382Z" fill="#191919" fill-rule="evenodd"/>
  </g>
</svg>
