<svg viewBox="0 0 48 48" xmlns="http://www.w3.org/2000/svg" xmlns:xlink="http://www.w3.org/1999/xlink" width="48.000000" height="48.000000" fill="none">
  <path id="合并" d="M38.9898 9.64745C38.8073 6.49784 36.1954 4 33 4L12 4L11.6475 4.01019C8.49784 4.19268 6 6.80464 6 10L6 37L6.01019 37.3525C6.19268 40.5022 8.80464 43 12 43L22.8 43L23.0035 42.9863C23.7357 42.887 24.3 42.2594 24.3 41.5C24.3 40.6716 23.6284 40 22.8 40L12 40L11.7111 39.9863C10.1898 39.8409 9 38.5594 9 37L9 10L9.01373 9.71108C9.1591 8.18978 10.4406 7 12 7L33 7L33.2889 7.01373C34.8102 7.1591 36 8.44061 36 10L36 18.3438L36.0137 18.5473C36.113 19.2794 36.7406 19.8438 37.5 19.8438C38.3284 19.8438 39 19.1722 39 18.3438L39 10L38.9898 9.64745ZM22.1654 15.533L19.7942 12.5689C19.2695 11.9129 18.3418 11.8099 17.6859 12.3348C17.0299 12.8594 16.9269 13.7872 17.4516 14.4429L20.4137 18.1455L16.6229 18.1455C15.7829 18.1455 15.1229 18.8057 15.1229 19.6455C15.1229 20.4856 15.7829 21.1455 16.6229 21.1455L20.6312 21.1455L20.6312 23.408L16.5 23.408C15.66 23.408 15 24.0681 15 24.908C15 25.7481 15.66 26.408 16.5 26.408L20.6312 26.408L20.6312 29.2935C20.6312 30.0893 21.2235 30.7234 22 30.788L22 27.9902C22 26.1721 22.896 24.4827 24.3743 23.4666L24.467 23.408L23.6312 23.408L23.6312 21.1455L27.6395 21.1455C28.4795 21.1455 29.1395 20.4856 29.1395 19.6455C29.1395 18.8057 28.4795 18.1455 27.6395 18.1455L23.8829 18.1455L26.996 14.4769C27.5395 13.8365 27.4632 12.9061 26.8227 12.3626C26.1822 11.8191 25.252 11.8953 24.7085 12.5359L22.1654 15.533ZM36.25 22.0749L35.9233 21.9037C34.5959 21.2757 33.0349 21.3328 31.7498 22.0751L26.7578 24.9571L26.4678 25.1396C25.2475 25.9739 24.508 27.3612 24.508 28.854L24.508 34.618L24.521 34.9604C24.6333 36.4343 25.4651 37.7683 26.7578 38.5149L31.75 41.397L32.0767 41.5683C33.4041 42.1963 34.9651 42.1392 36.2502 41.3969L41.242 38.515L41.532 38.3325C42.7525 37.498 43.492 36.1108 43.492 34.618L43.492 28.854L43.479 28.5116C43.3667 27.0376 42.5349 25.7037 41.2422 24.9571L36.25 22.0749ZM33.25 24.673L33.4548 24.5746C33.8752 24.4105 34.3522 24.4433 34.7498 24.6729L39.9297 27.6833C40.282 27.9654 40.492 28.3947 40.492 28.854L40.492 34.618L40.4748 34.8446C40.4067 35.2906 40.1398 35.6872 39.7418 35.9171L34.75 38.7989L34.5452 38.8974C34.1248 39.0615 33.6478 39.0287 33.2502 38.7991L28.0703 35.7887C27.718 35.5066 27.508 35.0773 27.508 34.618L27.508 28.854L27.5252 28.6274C27.5933 28.1813 27.8602 27.7848 28.2582 27.5549L33.25 24.673ZM38.4998 31.7402C38.4998 29.2552 36.4857 27.2402 33.9998 27.2402C31.5139 27.2402 29.4998 29.2552 29.4998 31.7402C29.4998 34.2266 31.5134 36.2402 33.9998 36.2402C36.4862 36.2402 38.4998 34.2266 38.4998 31.7402ZM32.4998 31.7402C32.4998 30.9118 33.1711 30.2402 33.9998 30.2402C34.8285 30.2402 35.4998 30.9118 35.4998 31.7402C35.4998 32.5698 34.8294 33.2402 33.9998 33.2402C33.1702 33.2402 32.4998 32.5698 32.4998 31.7402Z" fill="#191919" fill-rule="evenodd"/>
  <path id="形状结合" d="M35.9233 21.9039L36.25 22.0751L41.2422 24.9573C42.5349 25.7039 43.3667 27.0378 43.479 28.5118L43.492 28.8542L43.492 34.6182C43.492 36.111 42.7525 37.4982 41.532 38.3327L41.242 38.5152L36.2502 41.3971C34.9651 42.1394 33.4041 42.1965 32.0767 41.5685L31.75 41.3972L26.7578 38.5151C25.4651 37.7685 24.6332 36.4345 24.521 34.9606L24.508 34.6182L24.508 28.8542C24.508 27.3614 25.2475 25.9741 26.4678 25.1398L26.7578 24.9573L31.7498 22.0753C33.0349 21.333 34.5959 21.2759 35.9233 21.9039ZM33.4548 24.5748L33.25 24.6732L28.2582 27.5551C27.8602 27.785 27.5933 28.1815 27.5252 28.6276L27.508 28.8542L27.508 34.6182C27.508 35.0775 27.718 35.5068 28.0703 35.7889L33.2502 38.7993C33.6478 39.0289 34.1248 39.0617 34.5452 38.8976L34.75 38.7991L39.7418 35.9173C40.1398 35.6874 40.4067 35.2908 40.4748 34.8448L40.492 34.6182L40.492 28.8542C40.492 28.3949 40.282 27.9656 39.9297 27.6835L34.7498 24.6731C34.3522 24.4435 33.8752 24.4107 33.4548 24.5748ZM33.9998 27.2404C36.4857 27.2404 38.4998 29.2554 38.4998 31.7404C38.4998 34.2268 36.4862 36.2404 33.9998 36.2404C31.5134 36.2404 29.4998 34.2268 29.4998 31.7404C29.4998 29.2554 31.5139 27.2404 33.9998 27.2404ZM33.9998 30.2404C33.1711 30.2404 32.4998 30.912 32.4998 31.7404C32.4998 32.57 33.1702 33.2404 33.9998 33.2404C34.8294 33.2404 35.4998 32.57 35.4998 31.7404C35.4998 30.912 34.8285 30.2404 33.9998 30.2404Z" fill="#AEAEAE" fill-rule="evenodd"/>
</svg>
