<svg viewBox="0 0 48 48" xmlns="http://www.w3.org/2000/svg" xmlns:xlink="http://www.w3.org/1999/xlink" width="48.000000" height="48.000000" fill="none">
  <path id="形状结合" d="M32.4794 4C36.4879 4 39.7619 7.14472 39.969 11.1017L39.9794 11.5L39.978 25.5L40.5 25.5C41.3284 25.5 42 26.1716 42 27C42 27.7594 41.4357 28.387 40.7035 28.4863L40.5 28.5L39.978 28.5L39.9794 33.513C39.9794 36.5846 38.1329 39.225 35.4893 40.3846L35.4941 42.4925C35.4941 43.3209 34.8226 43.9925 33.9941 43.9925C33.2348 43.9925 32.6072 43.4282 32.5078 42.696L32.4941 42.4925L32.494 41.012L15.494 41.012L15.4941 42.4925C15.4941 43.3209 14.8226 43.9925 13.9941 43.9925C13.2348 43.9925 12.6072 43.4282 12.5078 42.696L12.4941 42.4925L12.4941 40.4781C9.95828 39.3719 8.16027 36.8169 8.00823 33.9113L7.99784 33.513L7.996 28.5L7.5 28.5C6.67157 28.5 6 27.8284 6 27C6 26.2406 6.56431 25.613 7.29646 25.5137L7.5 25.5L7.996 25.5L7.99784 11.5C7.99784 7.49148 11.1426 4.21745 15.0995 4.0104L15.4978 4L32.4794 4ZM15.9941 31C14.8896 31 13.9941 31.8954 13.9941 33C13.9941 34.1046 14.8896 35 15.9941 35C17.0987 35 17.9941 34.1046 17.9941 33C17.9941 31.8954 17.0987 31 15.9941 31ZM31.9941 31C30.8896 31 29.9941 31.8954 29.9941 33C29.9941 34.1046 30.8896 35 31.9941 35C33.0987 35 33.9941 34.1046 33.9941 33C33.9941 31.8954 33.0987 31 31.9941 31ZM32.4794 7L15.4978 7C13.1161 7 11.1665 8.85032 11.0082 11.1919L10.9978 11.5L10.996 25.5L36.978 25.5L36.9794 11.5C36.9794 9.01472 34.9647 7 32.4794 7Z" fill="#191919" fill-rule="nonzero"/>
  <path id="形状结合" d="M15.9932 31C14.8886 31 13.9932 31.8954 13.9932 33C13.9932 34.1046 14.8886 35 15.9932 35C17.0977 35 17.9932 34.1046 17.9932 33C17.9932 31.8954 17.0977 31 15.9932 31ZM31.9932 31C30.8886 31 29.9932 31.8954 29.9932 33C29.9932 34.1046 30.8886 35 31.9932 35C33.0977 35 33.9932 34.1046 33.9932 33C33.9932 31.8954 33.0977 31 31.9932 31Z" fill="#AEAEAE" fill-rule="nonzero"/>
</svg>
