<svg viewBox="0 0 48 48" xmlns="http://www.w3.org/2000/svg" xmlns:xlink="http://www.w3.org/1999/xlink" width="48.000000" height="48.000000" fill="none">
  <path id="合并" d="M40.4793 7.99805L40.7668 8.00939C42.4657 8.1473 43.8216 9.49848 43.9666 11.195L43.9795 11.4978L43.9795 31.9653C43.9795 33.8017 42.5653 35.3077 40.7665 35.4537L39.4795 35.4653L40.1806 32.4638L40.4795 32.4653C40.7162 32.4653 40.9145 32.3008 40.9663 32.08L40.9795 11.4974C40.9795 11.2609 40.7006 11.0496 40.4798 10.9978L24.1925 11.0002C23.9555 11.0003 23.7571 11.165 23.7051 11.3858L23.6919 27.928C23.6919 28.7564 23.0203 29.428 22.1919 29.428C21.4325 29.428 20.8049 28.8637 20.7056 28.1315L20.6919 27.928L20.6905 16.678L13.3645 16.6773L7.11422 25.3934L7.02051 25.6849L7.02051 31.968C7.02051 32.2047 7.18497 32.403 7.40586 32.4548L8.2843 32.4666L8.19713 35.4666L7.52051 35.468C5.68416 35.468 4.17812 34.0538 4.03211 32.2551L4.02051 31.968L4.02051 25.6849C4.02051 25.0575 4.18907 24.4437 4.50587 23.9067L4.67653 23.6448L11.0774 14.7215C11.4948 14.1396 12.1387 13.7682 12.8424 13.6929L13.1088 13.6787L20.6905 13.678L20.6919 11.5001C20.6923 9.6642 22.1061 8.1585 23.9047 8.0119L24.1917 8.0002L40.4793 7.99805ZM19.5176 35.4666L28.9881 35.4666L29.0753 32.4666L19.3903 32.4658L19.5176 35.4666Z" fill="#191919" fill-rule="evenodd"/>
  <path id="合并" d="M14 28C10.6863 28 8 30.6863 8 34C8 37.3137 10.6863 40 14 40C17.3137 40 20 37.3137 20 34C20 30.6863 17.3137 28 14 28ZM28.5 34C28.5 30.6863 31.1863 28 34.5 28C37.8137 28 40.5 30.6863 40.5 34C40.5 37.3137 37.8137 40 34.5 40C31.1863 40 28.5 37.3137 28.5 34ZM14 31C12.3431 31 11 32.3431 11 34C11 35.6569 12.3431 37 14 37C15.6569 37 17 35.6569 17 34C17 32.3431 15.6569 31 14 31ZM31.5 34C31.5 32.3431 32.8431 31 34.5 31C36.1569 31 37.5 32.3431 37.5 34C37.5 35.6569 36.1569 37 34.5 37C32.8431 37 31.5 35.6569 31.5 34Z" fill="#AEAEAE" fill-rule="evenodd"/>
</svg>
