<svg viewBox="0 0 48 48" xmlns="http://www.w3.org/2000/svg" xmlns:xlink="http://www.w3.org/1999/xlink" width="48.000000" height="48.000000" fill="none">
  <path id="减去顶层" d="M16 3.5L30 3.5C31.1 3.5 32 4.38 32 5.5L32 7.5C32 8.6 31.1 9.5 30 9.5L16 9.5C14.88 9.5 14 8.6 14 7.5L14 5.5C14 4.38 14.88 3.5 16 3.5ZM10.9769 7.13846C10.955 6.91212 10.9342 6.6974 11 6.5C7.68 6.5 5 9.18 5 12.5L5 37.5C5 40.8 7.68 43.5 11 43.5L26.4246 43.5L24.8442 42.5859C23.21 41.6402 22.1583 39.9507 22.0164 38.0839L22 37.6502L22 34.2883C21.2235 34.2237 20.6312 33.5895 20.6312 32.7937L20.6312 29.9082L16.5 29.9082C15.66 29.9082 15 29.2483 15 28.4082C15 27.5684 15.66 26.9082 16.5 26.9082L20.6312 26.9082L20.6312 24.6458L16.6229 24.6458C15.7829 24.6458 15.1229 23.9859 15.1229 23.1458C15.1229 22.3059 15.7829 21.6458 16.6229 21.6458L20.4137 21.6458L17.4516 17.9432C16.9269 17.2874 17.0299 16.3597 17.6859 15.835C18.3418 15.3101 19.2695 15.4131 19.7942 16.0691L22.1654 19.0332L24.7085 16.0362C25.252 15.3956 26.1822 15.3194 26.8227 15.8628C27.4632 16.4063 27.5395 17.3367 26.996 17.9771L23.8829 21.6458L27.6395 21.6458C28.4088 21.6458 29.0271 22.1994 29.1258 22.9377L31.1552 21.7639C32.7799 20.8237 34.7534 20.7514 36.4315 21.5468L36.8445 21.7637L41 24.1672L41 12.5C41 9.18 38.18 6.5 34.86 6.5C34.94 6.8 35 7.14 35 7.5L35 8.5C35 10.7 33.2 12.5 31 12.5L15 12.5C12.78 12.5 11 10.7 11 8.5L11 7.5C11 7.37688 10.9883 7.2561 10.9769 7.13846ZM26.1726 24.6458L23.6312 24.6458L23.6312 26.355C23.8875 26.0937 24.1705 25.8556 24.4776 25.6453L24.8442 25.4141L26.1726 24.6458Z" fill="#191919" fill-rule="evenodd"/>
  <path id="减去顶层" d="M36.2519 24.5717L41.2481 27.4537C42.6373 28.2557 43.5 29.7497 43.5 31.3517L43.5 37.1157C43.5 38.7177 42.6373 40.2117 41.2501 41.0117L36.2519 43.8937C35.5573 44.2957 34.7787 44.4957 34 44.4957C33.2213 44.4957 32.4427 44.2957 31.7481 43.8937L26.7519 41.0117C25.3627 40.2117 24.5 38.7177 24.5 37.1157L24.5 31.3517C24.5 29.7497 25.3627 28.2557 26.7499 27.4537L31.7481 24.5717C33.1353 23.7697 34.8627 23.7697 36.2519 24.5717ZM39.3573 30.3906C39.824 30.8612 39.8635 31.5947 39.4779 32.1098L34.0249 37.5373C33.5571 38.0012 32.6811 37.9169 32.166 37.5373L28.6906 34.091C28.1729 33.5776 28.1694 32.7419 28.6827 32.2242C29.1494 31.7536 30.0311 31.8351 30.5494 32.2164L33.0942 34.7398L37.4906 30.3827C38.0082 29.8694 38.844 29.8729 39.3573 30.3906Z" fill="#AEAEAE" fill-rule="evenodd"/>
</svg>
