<svg viewBox="0 0 48 48" xmlns="http://www.w3.org/2000/svg" xmlns:xlink="http://www.w3.org/1999/xlink" width="48.000000" height="48.000000" fill="none">
  <path id="减去顶层" d="M11 15.9897L11 35.684C11 35.9996 11.0327 36.3081 11.0982 36.6095C11.1551 36.8713 11.2367 37.1277 11.343 37.3788C11.4488 37.6287 11.5755 37.8648 11.723 38.0872C11.8829 38.3283 12.0673 38.5532 12.2762 38.7618C12.4851 38.9705 12.7102 39.1547 12.9516 39.3145C13.1741 39.4618 13.4105 39.5883 13.6607 39.694C13.912 39.8002 14.1687 39.8817 14.4307 39.9386C14.7324 40.004 15.0412 40.0367 15.3571 40.0367L26.5 40.0367L26.5 37.0398L15.3571 37.0398C15.2439 37.0398 15.134 37.0265 15.0274 37C14.9601 36.9833 14.894 36.9612 14.8293 36.9339C14.7588 36.904 14.6916 36.8688 14.628 36.8282C14.5453 36.7755 14.4685 36.7136 14.3975 36.6427C14.3265 36.5718 14.2646 36.495 14.2118 36.4124C14.1711 36.3488 14.1359 36.2818 14.106 36.2113C14.0787 36.1467 14.0566 36.0807 14.0398 36.0134C14.0133 35.9069 14 35.7971 14 35.684L14 26.0371L26.5 26.0371L26.5 23.0371L14 23.0371L14 15.9897L11 15.9897L11 15.9897ZM19.3571 11.7801L26.5 11.7801L26.5 8.7832L19.3571 8.7832L19.3571 11.7801Z" fill="#191919" fill-rule="evenodd"/>
  <path id="合并" d="M17.9286 6C18.7176 6 19.3571 6.63893 19.3571 7.4271L19.3571 14.5626C19.3571 15.3508 18.7176 15.9897 17.9286 15.9897L7.92857 15.9897C7.13959 15.9897 6.5 15.3508 6.5 14.5626L6.5 7.4271C6.5 6.63893 7.13959 6 7.92857 6L17.9286 6ZM40.0714 6C40.8604 6 41.5 6.63893 41.5 7.4271L41.5 14.5626C41.5 15.3508 40.8604 15.9897 40.0714 15.9897L30.0714 15.9897C29.2824 15.9897 28.6429 15.3508 28.6429 14.5626L28.6429 7.4271C28.6429 6.63893 29.2824 6 30.0714 6L40.0714 6ZM9.5 8.99691L16.3571 8.99691L16.3571 12.9928L9.5 12.9928L9.5 8.99691ZM31.6429 8.99691L38.5 8.99691L38.5 12.9928L31.6429 12.9928L31.6429 8.99691ZM40.0714 18.9863C40.8604 18.9863 41.5 19.6253 41.5 20.4134L41.5 27.5489C41.5 28.3371 40.8604 28.976 40.0714 28.976L30.0714 28.976C29.2824 28.976 28.6429 28.3371 28.6429 27.5489L28.6429 20.4134C28.6429 19.6253 29.2824 18.9863 30.0714 18.9863L40.0714 18.9863ZM31.6429 21.9832L38.5 21.9832L38.5 25.9791L31.6429 25.9791L31.6429 21.9832ZM40.0714 32.0107C40.8604 32.0107 41.5 32.6497 41.5 33.4378L41.5 40.5733C41.5 41.3615 40.8604 42.0004 40.0714 42.0004L30.0714 42.0004C29.2824 42.0004 28.6429 41.3615 28.6429 40.5733L28.6429 33.4378C28.6429 32.6497 29.2824 32.0107 30.0714 32.0107L40.0714 32.0107ZM31.6429 35.0077L38.5 35.0077L38.5 39.0035L31.6429 39.0035L31.6429 35.0077Z" fill="#AEAEAE" fill-rule="evenodd"/>
</svg>
