<svg viewBox="0 0 48 48" xmlns="http://www.w3.org/2000/svg" xmlns:xlink="http://www.w3.org/1999/xlink" width="48.000000" height="48.000000" fill="none">
  <path id="形状结合" d="M21.8923 6.59974C22.7532 4.85152 25.2451 4.85152 26.106 6.59974L30.8733 16.2591L41.5375 17.8127C43.466 18.089 44.236 20.4581 42.8406 21.8181L35.1233 29.3371L36.9463 39.9603C37.2617 41.799 35.4245 43.2191 33.753 42.5378L33.5361 42.4369L23.9993 37.4211L14.4621 42.437C12.8115 43.3045 10.8904 41.9966 11.0228 40.1975L11.052 39.9602L12.8753 29.3371L5.15964 21.8181C3.82538 20.5176 4.47095 18.2933 6.21469 17.8605L6.45919 17.8129L17.1253 16.2591L21.8923 6.59974Z" fill="#191919" fill-rule="evenodd"/>
</svg>
