<svg viewBox="0 0 48 48" xmlns="http://www.w3.org/2000/svg" xmlns:xlink="http://www.w3.org/1999/xlink" width="48.000000" height="48.000000" fill="none">
  <path id="合并" d="M42.1134 9.60151C41.98 9.39492 41.8243 9.20269 41.6465 9.02482L37.9749 5.35325C37.797 5.17538 37.6048 5.01974 37.3982 4.88634C37.2155 4.76834 37.0215 4.66773 36.8163 4.58452C36.613 4.50207 36.4056 4.4395 36.1943 4.39682C35.9675 4.35102 35.7361 4.32812 35.5 4.32812C35.2639 4.32812 35.0325 4.35103 34.8057 4.39683C34.5944 4.43951 34.387 4.50207 34.1837 4.58452C33.9785 4.66772 33.7846 4.76832 33.6019 4.88631C33.3953 5.01972 33.203 5.17537 33.0251 5.35325L29.3536 9.02482C29.1757 9.20264 29.0201 9.39482 28.8868 9.60134L28.8866 9.60153L28.8865 9.60168C28.7686 9.78436 28.668 9.97827 28.5848 10.1834C28.5024 10.3867 28.4398 10.5941 28.3971 10.8054L28.3969 10.8067C28.3512 11.0331 28.3284 11.2641 28.3284 11.4997C28.3284 11.7358 28.3513 11.9672 28.3971 12.194C28.4398 12.4053 28.5024 12.6127 28.5848 12.816C28.668 13.0212 28.7686 13.2151 28.8866 13.3979C29.02 13.6045 29.1757 13.7967 29.3536 13.9746L33.0251 17.6461C33.203 17.824 33.3952 17.9797 33.6018 18.1131C33.7845 18.2311 33.9785 18.3317 34.1837 18.4149C34.387 18.4973 34.5942 18.5599 34.8055 18.6025L34.8058 18.6026C35.0326 18.6484 35.264 18.6713 35.5 18.6713C35.736 18.6713 35.9674 18.6484 36.1942 18.6026C36.4056 18.5599 36.613 18.4973 36.8163 18.4149C37.0215 18.3317 37.2155 18.2311 37.3982 18.1131C37.6048 17.9797 37.797 17.824 37.9749 17.6461L41.6465 13.9746C41.8243 13.7967 41.98 13.6045 42.1134 13.3979C42.2314 13.2152 42.332 13.0212 42.4152 12.816C42.4976 12.6126 42.5602 12.4053 42.6029 12.1939C42.6487 11.9671 42.6716 11.7357 42.6716 11.4997C42.6716 11.2637 42.6487 11.0323 42.6029 10.8055L42.6027 10.8047C42.5601 10.5936 42.4975 10.3865 42.4152 10.1834C42.332 9.97821 42.2314 9.78424 42.1134 9.60151ZM13.0075 4.66186C12.5168 4.55395 12.0144 4.5 11.5 4.5C10.9856 4.5 10.4831 4.55396 9.99248 4.66187C9.57813 4.753 9.17225 4.88262 8.77482 5.05071C8.37631 5.21927 7.99956 5.42077 7.64456 5.65521L7.64456 5.65521C7.25337 5.91356 6.8886 6.2119 6.55025 6.55025C6.2119 6.8886 5.91356 7.25337 5.65521 7.64455L5.6552 7.64458L5.6552 7.64458C5.42076 7.99957 5.21926 8.37632 5.05071 8.77482C4.88262 9.17224 4.75301 9.57812 4.66187 9.99246L4.66187 9.99248L4.66187 9.99249C4.55396 10.4831 4.5 10.9856 4.5 11.5C4.5 12.0144 4.55396 12.5169 4.66187 13.0075C4.753 13.4219 4.88261 13.8277 5.05071 14.2252C5.21927 14.6237 5.42077 15.0004 5.65522 15.3554L5.65523 15.3555C5.91357 15.7466 6.21191 16.1114 6.55025 16.4497C6.8886 16.7881 7.25336 17.0864 7.64454 17.3448C7.99954 17.5792 8.3763 17.7807 8.77482 17.9493C9.17226 18.1174 9.57815 18.247 9.99251 18.3381L9.99253 18.3381C10.4832 18.446 10.9856 18.5 11.5 18.5C12.0144 18.5 12.5169 18.446 13.0075 18.3381C13.4219 18.247 13.8278 18.1174 14.2252 17.9493C14.6237 17.7807 15.0004 17.5792 15.3554 17.3448C15.7466 17.0864 16.1114 16.7881 16.4497 16.4497C16.7881 16.1114 17.0864 15.7467 17.3447 15.3555L17.3447 15.3555L17.3448 15.3555C17.5792 15.0005 17.7807 14.6237 17.9493 14.2252C18.1174 13.8277 18.247 13.4218 18.3381 13.0075C18.446 12.5169 18.5 12.0144 18.5 11.5C18.5 10.9856 18.446 10.4831 18.3381 9.99247L18.3381 9.99242C18.247 9.57809 18.1174 9.17223 17.9493 8.77482C17.7807 8.37631 17.5792 7.99956 17.3448 7.64456L17.3448 7.64454C17.0864 7.25336 16.7881 6.8886 16.4497 6.55025C16.1115 6.21203 15.7469 5.91379 15.3559 5.65551L15.3555 5.65523C15.0005 5.42078 14.6237 5.21927 14.2252 5.05071C13.8277 4.88261 13.4219 4.753 13.0075 4.66187L13.0075 4.66186ZM35.8536 7.47457L39.5251 11.1461C39.5739 11.195 39.6106 11.2488 39.635 11.3078C39.6594 11.3667 39.6716 11.4307 39.6716 11.4997C39.6716 11.5687 39.6594 11.6327 39.635 11.6916C39.6106 11.7506 39.5739 11.8044 39.5251 11.8533L35.8536 15.5248C35.8047 15.5736 35.7509 15.6103 35.6919 15.6347C35.633 15.6591 35.569 15.6713 35.5 15.6713C35.431 15.6713 35.367 15.6591 35.3081 15.6347C35.2491 15.6103 35.1953 15.5736 35.1465 15.5248L31.4749 11.8533C31.4261 11.8044 31.3895 11.7506 31.365 11.6916C31.3406 11.6327 31.3284 11.5687 31.3284 11.4997C31.3284 11.4307 31.3406 11.3667 31.365 11.3078C31.3895 11.2488 31.4261 11.195 31.4749 11.1461L35.1465 7.47457C35.1953 7.42576 35.2491 7.38914 35.3081 7.36474C35.367 7.34033 35.431 7.32812 35.5 7.32812C35.569 7.32812 35.633 7.34033 35.6919 7.36474C35.7509 7.38915 35.8047 7.42576 35.8536 7.47457ZM10.5891 7.60328C10.8847 7.53443 11.1883 7.5 11.5 7.5C11.8117 7.5 12.1153 7.53443 12.4109 7.60328C12.6306 7.65443 12.8458 7.72458 13.0565 7.81372C13.2754 7.90632 13.483 8.01642 13.6791 8.14403C13.9115 8.29528 14.128 8.47113 14.3284 8.67157C14.5289 8.87202 14.7047 9.08848 14.856 9.32094L14.856 9.32098C14.9836 9.51709 15.0937 9.72459 15.1863 9.94348C15.2754 10.1542 15.3456 10.3694 15.3967 10.5891C15.4656 10.8847 15.5 11.1883 15.5 11.5C15.5 11.8116 15.4656 12.1153 15.3967 12.4109C15.3456 12.6305 15.2754 12.8457 15.1863 13.0565C15.0937 13.2754 14.9836 13.483 14.8559 13.6791C14.7047 13.9116 14.5289 14.128 14.3284 14.3284C14.128 14.5288 13.9116 14.7047 13.6792 14.8559L13.6791 14.856C13.4829 14.9836 13.2754 15.0937 13.0565 15.1863C12.8458 15.2754 12.6306 15.3456 12.4109 15.3967C12.1153 15.4656 11.8117 15.5 11.5 15.5C11.1884 15.5 10.8847 15.4656 10.5891 15.3967C10.3695 15.3456 10.1543 15.2754 9.94348 15.1863C9.72456 15.0937 9.51703 14.9836 9.32089 14.856C9.08845 14.7047 8.87201 14.5289 8.67157 14.3284C8.47113 14.128 8.29528 13.9115 8.14403 13.6791C8.01642 13.483 7.90632 13.2754 7.81372 13.0565C7.72458 12.8458 7.65443 12.6306 7.60328 12.4109C7.53443 12.1153 7.5 11.8117 7.5 11.5C7.5 11.1883 7.53443 10.8847 7.60328 10.5891C7.65443 10.3694 7.72458 10.1542 7.81372 9.94348C7.90632 9.72457 8.01642 9.51705 8.14403 9.32092L8.14404 9.3209L8.14405 9.32089C8.2953 9.08845 8.47114 8.87201 8.67157 8.67157C8.87202 8.47113 9.08847 8.29528 9.32092 8.14403C9.51705 8.01642 9.72457 7.90632 9.94348 7.81372C10.1542 7.72459 10.3694 7.65444 10.589 7.6033L10.5891 7.60328ZM37.0075 29.6619C36.5169 29.554 36.0144 29.5 35.5 29.5C34.9856 29.5 34.4831 29.554 33.9925 29.6619C33.5781 29.753 33.1722 29.8826 32.7748 30.0507C32.3763 30.2193 31.9996 30.4208 31.6446 30.6552C31.2534 30.9136 30.8886 31.2119 30.5503 31.5503C30.2119 31.8886 29.9136 32.2534 29.6552 32.6446C29.4208 32.9996 29.2193 33.3763 29.0507 33.7748C28.8826 34.1722 28.753 34.5781 28.6619 34.9925C28.554 35.4831 28.5 35.9856 28.5 36.5C28.5 37.0144 28.554 37.5169 28.6619 38.0075C28.753 38.4219 28.8826 38.8278 29.0507 39.2252C29.2193 39.6237 29.4208 40.0005 29.6552 40.3554C29.9136 40.7466 30.2119 41.1114 30.5503 41.4497C30.8886 41.7881 31.2534 42.0864 31.6445 42.3448C31.9995 42.5792 32.3763 42.7807 32.7748 42.9493C33.1723 43.1174 33.5782 43.247 33.9925 43.3381C34.4831 43.446 34.9856 43.5 35.5 43.5C36.0144 43.5 36.5169 43.446 37.0075 43.3381C37.4219 43.247 37.8278 43.1174 38.2252 42.9493C38.6237 42.7807 39.0004 42.5792 39.3554 42.3448C39.7466 42.0864 40.1114 41.7881 40.4497 41.4497C40.7881 41.1114 41.0864 40.7467 41.3447 40.3555C41.5792 40.0005 41.7807 39.6237 41.9493 39.2252C42.1174 38.8277 42.247 38.4218 42.3381 38.0075C42.446 37.5169 42.5 37.0144 42.5 36.5C42.5 35.9856 42.446 35.4831 42.3381 34.9925C42.247 34.5781 42.1174 34.1722 41.9493 33.7748C41.7807 33.3763 41.5792 32.9996 41.3448 32.6446C41.0864 32.2534 40.7881 31.8886 40.4497 31.5503C40.1114 31.2119 39.7467 30.9136 39.3555 30.6552C39.0005 30.4208 38.6237 30.2193 38.2252 30.0507C37.8278 29.8826 37.4219 29.753 37.0075 29.6619ZM14.738 30.5776C14.4975 30.5259 14.2516 30.5 14 30.5L8 30.5C7.74845 30.5 7.50246 30.5259 7.26205 30.5776C7.0494 30.6234 6.84111 30.6894 6.63718 30.7757C6.43511 30.8611 6.24427 30.9635 6.06464 31.0828C5.87188 31.2108 5.69204 31.3582 5.52513 31.5251C5.35821 31.692 5.21076 31.8719 5.08277 32.0646C4.9635 32.2443 4.86113 32.4351 4.77566 32.6372C4.68945 32.841 4.62346 33.0492 4.57769 33.2617L4.57762 33.262C4.52588 33.5025 4.5 33.7484 4.5 34L4.5 40C4.5 40.2516 4.52587 40.4975 4.57762 40.738C4.62339 40.9506 4.68941 41.1589 4.77566 41.3628C4.86113 41.5649 4.9635 41.7557 5.08277 41.9354L5.0828 41.9354C5.21078 42.1281 5.35822 42.308 5.52513 42.4749C5.69204 42.6418 5.87188 42.7892 6.06465 42.9172C6.24427 43.0365 6.43512 43.1389 6.63718 43.2243C6.84112 43.3106 7.04941 43.3766 7.26206 43.4224C7.50247 43.4741 7.74845 43.5 8 43.5L14 43.5C14.2516 43.5 14.4976 43.4741 14.738 43.4224C14.9506 43.3766 15.1589 43.3106 15.3628 43.2243C15.5649 43.1389 15.7557 43.0365 15.9353 42.9173C16.1281 42.7893 16.3079 42.6418 16.4749 42.4749C16.6418 42.308 16.7892 42.1281 16.9172 41.9354C17.0365 41.7557 17.1389 41.5649 17.2243 41.3628C17.3106 41.1589 17.3766 40.9506 17.4224 40.7379C17.4741 40.4975 17.5 40.2515 17.5 40L17.5 34C17.5 33.7484 17.4741 33.5024 17.4224 33.262C17.3766 33.0494 17.3106 32.8411 17.2243 32.6372C17.1389 32.4351 17.0365 32.2443 16.9173 32.0647C16.7893 31.8719 16.6418 31.6921 16.4749 31.5251C16.308 31.3582 16.1281 31.2108 15.9354 31.0828C15.7557 30.9635 15.5649 30.8611 15.3628 30.7757C15.1589 30.6894 14.9506 30.6234 14.738 30.5776ZM34.5891 32.6033C34.8847 32.5344 35.1883 32.5 35.5 32.5C35.8117 32.5 36.1153 32.5344 36.4109 32.6033L36.4112 32.6033C36.6307 32.6545 36.8458 32.7246 37.0565 32.8137C37.2754 32.9063 37.483 33.0164 37.6791 33.144C37.9115 33.2953 38.128 33.4711 38.3284 33.6716C38.5289 33.872 38.7047 34.0885 38.856 34.3209C38.9836 34.5171 39.0937 34.7246 39.1863 34.9435C39.2754 35.1542 39.3456 35.3694 39.3967 35.5891C39.4656 35.8847 39.5 36.1883 39.5 36.5C39.5 36.8116 39.4656 37.1153 39.3967 37.4109C39.3456 37.6305 39.2754 37.8457 39.1863 38.0565C39.0937 38.2754 38.9836 38.483 38.8559 38.6791C38.7047 38.9116 38.5289 39.128 38.3284 39.3284C38.128 39.5289 37.9115 39.7047 37.6791 39.856C37.4829 39.9836 37.2754 40.0937 37.0565 40.1863C36.8458 40.2754 36.6306 40.3456 36.4109 40.3967C36.1153 40.4656 35.8117 40.5 35.5 40.5C35.1884 40.5 34.8847 40.4656 34.5891 40.3967C34.3695 40.3456 34.1543 40.2754 33.9435 40.1863C33.7246 40.0937 33.517 39.9836 33.3209 39.8559C33.0885 39.7047 32.872 39.5289 32.6716 39.3284C32.4711 39.128 32.2953 38.9115 32.144 38.6791C32.0164 38.4829 31.9063 38.2754 31.8137 38.0565C31.7246 37.8458 31.6544 37.6306 31.6033 37.4109C31.5344 37.1153 31.5 36.8117 31.5 36.5C31.5 36.1883 31.5344 35.8847 31.6033 35.5891C31.6544 35.3694 31.7246 35.1542 31.8137 34.9435C31.9063 34.7246 32.0164 34.517 32.144 34.3209C32.2953 34.0885 32.4711 33.872 32.6716 33.6716C32.872 33.4711 33.0885 33.2953 33.3209 33.144C33.5171 33.0164 33.7246 32.9063 33.9435 32.8137C34.1542 32.7246 34.3694 32.6544 34.5891 32.6033ZM8 33.5L14 33.5C14.069 33.5 14.133 33.5122 14.1919 33.5366C14.2509 33.561 14.3047 33.5976 14.3536 33.6464C14.4024 33.6953 14.439 33.7491 14.4634 33.8081C14.4878 33.867 14.5 33.931 14.5 34L14.5 40C14.5 40.069 14.4878 40.133 14.4634 40.1919C14.439 40.2509 14.4024 40.3047 14.3536 40.3536C14.3047 40.4024 14.2509 40.439 14.1919 40.4634C14.133 40.4878 14.069 40.5 14 40.5L8 40.5C7.93097 40.5 7.86699 40.4878 7.80806 40.4634C7.74914 40.439 7.69526 40.4024 7.64645 40.3536C7.59763 40.3047 7.56102 40.2509 7.53661 40.1919C7.5122 40.133 7.5 40.069 7.5 40L7.5 34C7.5 33.931 7.5122 33.867 7.53661 33.8081C7.56102 33.7491 7.59763 33.6953 7.64645 33.6464C7.69526 33.5976 7.74913 33.561 7.80806 33.5366C7.86698 33.5122 7.93096 33.5 8 33.5Z" fill="#191919" fill-rule="evenodd"/>
  <path id="合并" d="M24.5523 16.0554L27.7314 13.075C28.0336 12.7917 28.1914 12.443 28.2047 12.029C28.2181 11.615 28.0831 11.2569 27.7998 10.9547C27.7888 10.9429 27.7775 10.9313 27.7661 10.9199C27.7547 10.9085 27.7431 10.8973 27.7314 10.8863L24.5523 7.90596C23.9395 7.33144 23.0066 7.36154 22.4321 7.97435C21.8576 8.58716 21.8877 9.52006 22.5005 10.0946L22.9125 10.4808L20 10.4808C19.16 10.4808 18.5 11.1408 18.5 11.9808C18.5 12.8208 19.16 13.4808 20 13.4808L22.9121 13.4808L22.5005 13.8667C21.8877 14.4412 21.8576 15.3741 22.4321 15.987C23.0066 16.5998 23.9395 16.6299 24.5523 16.0554ZM12.4804 25.0869L12.8665 25.4987C13.441 26.1115 14.3739 26.1416 14.9867 25.5671C15.5995 24.9926 15.6296 24.0597 15.0551 23.4469L12.0747 20.2678C11.7914 19.9656 11.4428 19.8078 11.0288 19.7945C10.6148 19.7811 10.2567 19.9161 9.9545 20.1994C9.94271 20.2105 9.93109 20.2217 9.91966 20.2331C9.90829 20.2445 9.8971 20.2561 9.8861 20.2678L6.90571 23.4469C6.3312 24.0597 6.36129 24.9926 6.9741 25.5671C7.58692 26.1416 8.51981 26.1115 9.09432 25.4987L9.48041 25.0869L9.48041 28C9.48041 28.84 10.1404 29.5 10.9804 29.5C11.8204 29.5 12.4804 28.84 12.4804 28L12.4804 25.0869ZM36.8665 25.4987L36.4804 25.0869L36.4804 28C36.4804 28.84 35.8204 29.5 34.9804 29.5C34.1404 29.5 33.4804 28.84 33.4804 28L33.4804 25.0869L33.0943 25.4987C32.5198 26.1115 31.5869 26.1416 30.9741 25.5671C30.3613 24.9926 30.3312 24.0597 30.9057 23.4469L33.8861 20.2678C33.8906 20.2629 33.8952 20.2581 33.8998 20.2533C33.9064 20.2465 33.913 20.2398 33.9196 20.2331C33.9311 20.2217 33.9427 20.2105 33.9545 20.1994C34.2567 19.9161 34.6148 19.7811 35.0288 19.7945C35.4428 19.8078 35.7914 19.9656 36.0747 20.2678L39.0551 23.4469C39.6296 24.0597 39.5995 24.9926 38.9867 25.5671C38.3739 26.1416 37.441 26.1115 36.8665 25.4987Z" fill="#AEAEAE" fill-rule="evenodd"/>
</svg>
