<svg viewBox="0 0 48 48" xmlns="http://www.w3.org/2000/svg" xmlns:xlink="http://www.w3.org/1999/xlink" width="48.000000" height="48.000000" fill="none">
  <path id="合并" d="M20.7233 14.1427L18.8155 16.0514L20.9373 18.1723L29.1569 9.94893C29.4709 9.63482 29.8113 9.36296 30.1782 9.13336C30.4577 8.95845 30.7525 8.80807 31.0627 8.68221C31.3825 8.55241 31.7087 8.45253 32.0411 8.38255C32.4296 8.30079 32.8267 8.25986 33.2323 8.25977C33.638 8.25967 34.0351 8.30042 34.4236 8.38201C34.7561 8.45184 35.0823 8.55158 35.4022 8.68123C35.7124 8.80696 36.0073 8.95721 36.2869 9.13201C36.6539 9.36143 36.9944 9.63313 37.3085 9.9471C37.6227 10.2612 37.8946 10.6017 38.1242 10.9686C38.2991 11.248 38.4494 11.5427 38.5752 11.8527C38.7049 12.1725 38.8048 12.4986 38.8748 12.831C38.9566 13.2195 38.9975 13.6166 38.9976 14.0223C38.9977 14.4278 38.9569 14.8247 38.8754 15.2131C38.8056 15.5457 38.7058 15.872 38.5761 16.1921C38.4505 16.5022 38.3003 16.797 38.1256 17.0764C37.8961 17.4435 37.6243 17.7842 37.3103 18.0984L35.8381 19.5717L37.9602 21.6922L39.4322 20.2191C39.8895 19.7616 40.288 19.2665 40.6277 18.7339C40.9118 18.2884 41.1547 17.8167 41.3565 17.3188C41.5594 16.818 41.7142 16.3074 41.8208 15.7868C41.9388 15.2105 41.9977 14.6221 41.9976 14.0216C41.9975 13.4209 41.9382 12.8323 41.8199 12.2559C41.7131 11.7356 41.5581 11.2252 41.355 10.7247C41.1531 10.227 40.91 9.75547 40.6257 9.31023L40.6257 9.31016L40.6256 9.31004L40.6255 9.30995C40.2856 8.77752 39.8869 8.28264 39.4293 7.8253C38.9719 7.36803 38.4769 6.96957 37.9444 6.62992C37.4988 6.34573 37.027 6.10271 36.529 5.90087C36.0283 5.69797 35.5178 5.54324 34.9974 5.43666C34.4209 5.3186 33.8323 5.25963 33.2317 5.25977C32.631 5.2599 32.0424 5.31913 31.466 5.43746C30.9456 5.54427 30.4352 5.69923 29.9346 5.90235C29.4367 6.10441 28.965 6.34764 28.5196 6.63202C27.9872 6.97191 27.4924 7.3706 27.0351 7.82809L20.7233 14.1427ZM16.113 28.6279L14.2043 26.7201L7.88961 20.4083C7.43213 19.951 7.03343 19.4562 6.69354 18.9238L6.6935 18.9238C6.40914 18.4784 6.16593 18.0067 5.96387 17.5088C5.76076 17.0082 5.60579 16.4978 5.49898 15.9775L5.49898 15.9774C5.38065 15.401 5.32142 14.8125 5.32129 14.2118C5.32115 13.6111 5.38012 13.0225 5.49817 12.4461L5.49819 12.446C5.60476 11.9256 5.7595 11.4151 5.96239 10.9145C6.16423 10.4164 6.40725 9.94459 6.69144 9.49904L6.69146 9.49902C7.0311 8.96653 7.42956 8.47155 7.88682 8.01408C8.34419 7.55651 8.8391 7.15776 9.37157 6.81783C9.81687 6.53355 10.2884 6.2904 10.7863 6.0884C11.2868 5.8853 11.7972 5.73035 12.3174 5.62355C12.8939 5.50521 13.4824 5.44598 14.0832 5.44585C14.6837 5.44571 15.2721 5.50465 15.8484 5.62265C16.3689 5.72923 16.8795 5.88399 17.3803 6.08694C17.8783 6.28872 18.3499 6.53166 18.7954 6.81574C19.328 7.15542 19.8231 7.55392 20.2807 8.01125L21.7537 9.48318L19.6332 11.6053L18.1599 10.1331C17.8457 9.81908 17.505 9.54733 17.138 9.31787C16.8585 9.14317 16.5637 8.99298 16.2536 8.8673C15.9335 8.7376 15.6072 8.63784 15.2746 8.56801C14.8862 8.48648 14.4893 8.44576 14.0838 8.44585C13.6781 8.44594 13.281 8.48687 12.8925 8.56865C12.5601 8.63862 12.2341 8.73849 11.9143 8.86825C11.6042 8.99406 11.3095 9.14437 11.0302 9.31918C10.6632 9.54881 10.3227 9.82073 10.0086 10.1349C9.69466 10.449 9.42296 10.7896 9.19353 11.1565C9.01874 11.4361 8.86848 11.731 8.74275 12.0412C8.6131 12.3612 8.51336 12.6874 8.44354 13.0198C8.36195 13.4084 8.3212 13.8054 8.32129 14.2111C8.32138 14.6168 8.36231 15.0138 8.44408 15.4023C8.51405 15.7348 8.61394 16.0609 8.74373 16.3808C8.86959 16.6909 9.01998 16.9858 9.19488 17.2652C9.42448 17.6321 9.69634 17.9725 10.0105 18.2865L18.2338 26.5062L16.113 28.6279ZM26.7833 33.2395L28.6911 31.3308L26.5693 29.2099L18.3497 37.4333C18.0357 37.7474 17.6953 38.0193 17.3284 38.2489C17.0489 38.4238 16.7541 38.5741 16.4439 38.7C16.1241 38.8298 15.7979 38.9297 15.4655 38.9997C15.077 39.0814 14.6799 39.1224 14.2743 39.1224C13.8686 39.1225 13.4715 39.0818 13.083 39.0002C12.7505 38.9304 12.4243 38.8306 12.1044 38.701C11.7942 38.5753 11.4993 38.425 11.2197 38.2502C10.8527 38.0208 10.5122 37.7491 10.1981 37.4351C9.8839 37.1211 9.61199 36.7806 9.38236 36.4136L9.38234 36.4136C9.20753 36.1342 9.05721 35.8395 8.93141 35.5295C8.80163 35.2097 8.70176 34.8836 8.63179 34.5512C8.55002 34.1627 8.50909 33.7656 8.509 33.3599C8.50891 32.9544 8.54963 32.5575 8.63116 32.1692C8.70099 31.8365 8.80076 31.5102 8.93046 31.1901C9.05613 30.88 9.20632 30.5852 9.38103 30.3058C9.61049 29.9387 9.88224 29.598 10.1963 29.2838L11.6685 27.8105L9.54634 25.69L8.07441 27.1631C7.61707 27.6206 7.21857 28.1157 6.87889 28.6484C6.59481 29.0938 6.35188 29.5655 6.15009 30.0634C5.94714 30.5642 5.79238 31.0748 5.6858 31.5954C5.5678 32.1717 5.50887 32.7601 5.509 33.3606C5.50913 33.9613 5.56836 34.5498 5.6867 35.1263C5.7935 35.6466 5.94845 36.157 6.15155 36.6575C6.35356 37.1553 6.59671 37.6269 6.881 38.0722C7.22093 38.6046 7.61967 39.0996 8.07724 39.5569C8.53473 40.0142 9.02974 40.4127 9.56226 40.7523C10.0078 41.0365 10.4796 41.2795 10.9776 41.4813C11.4783 41.6842 11.9888 41.839 12.5091 41.9455C13.0856 42.0636 13.6742 42.1226 14.2749 42.1224C14.8756 42.1223 15.4642 42.0631 16.0406 41.9448C16.5609 41.8379 17.0714 41.683 17.5719 41.4799C18.0699 41.2778 18.5416 41.0346 18.987 40.7502C19.5194 40.4103 20.0142 40.0116 20.4715 39.5541L26.7833 33.2395Z" fill="#191919" fill-rule="evenodd"/>
  <path id="矩形 1985(边框)" d="M0 17.6923L0 20.391L3 20.391L3 8.76404C3 8.31991 3.04858 7.88697 3.14574 7.46522C3.21975 7.14395 3.32196 6.82916 3.45235 6.52088C3.58682 6.20295 3.74689 5.90173 3.93255 5.61721C4.1495 5.28475 4.4014 4.9751 4.68825 4.68825C4.9751 4.40139 5.28476 4.14949 5.61723 3.93254C5.90174 3.74688 6.20296 3.58682 6.52088 3.45235C6.82916 3.32196 7.14394 3.21975 7.46521 3.14574C7.88696 3.04858 8.31991 3 8.76404 3C9.20828 3 9.64131 3.0486 10.0632 3.14581C10.3843 3.21981 10.6989 3.32199 11.0071 3.45233C11.325 3.58678 11.6262 3.74682 11.9106 3.93245C12.2431 4.1494 12.5528 4.4013 12.8396 4.68815C13.1263 4.97488 13.3781 5.2844 13.595 5.61671C13.7808 5.90133 13.9409 6.20266 14.0754 6.52071C14.2058 6.82889 14.308 7.14357 14.382 7.46474C14.4792 7.88657 14.5278 8.31961 14.5278 8.76384L14.5281 10.8466L17.5281 10.8462L17.5278 8.76374C17.5278 8.1168 17.4597 7.48492 17.3234 6.86809C17.2094 6.35221 17.0478 5.84687 16.8385 5.35205C16.628 4.85438 16.3764 4.38381 16.0838 3.94031C15.7598 3.44929 15.3856 2.99147 14.9609 2.56685C14.5362 2.14209 14.0782 1.76769 13.587 1.44365C13.1437 1.15118 12.6732 0.899731 12.1758 0.689313C11.6809 0.480022 11.1756 0.318389 10.6597 0.204417C10.0429 0.068139 9.41098 1.19209e-07 8.76404 0C8.11719 0 7.48539 0.0681177 6.86864 0.204353C6.35263 0.318334 5.84716 0.479995 5.35222 0.689337C4.8547 0.899771 4.38425 1.15124 3.94087 1.44373C3.44966 1.76777 2.99169 2.14217 2.56693 2.56693C2.14218 2.99168 1.76778 3.44965 1.44374 3.94085C1.15124 4.38424 0.899773 4.85469 0.689338 5.35222C0.479992 5.84717 0.318328 6.35265 0.204347 6.86867C0.0681157 7.48541 0 8.1172 0 8.76404L0 17.6923Z" fill="#AEAEAE" fill-rule="evenodd" transform="matrix(-0.706948,0.707266,-0.707266,-0.706948,45.8146,33.1689)"/>
</svg>
