<svg viewBox="0 0 48 48" xmlns="http://www.w3.org/2000/svg" xmlns:xlink="http://www.w3.org/1999/xlink" width="48.000000" height="48.000000" fill="none">
  <path id="Fill-1" d="M23.9999 37.716C22.8939 37.716 21.9999 36.822 21.9999 35.716C21.9999 34.612 22.8939 33.716 23.9999 33.716C25.1059 33.716 25.9999 34.612 25.9999 35.716C25.9999 36.822 25.1059 37.716 23.9999 37.716ZM22.4999 17.716C22.4999 16.888 23.1719 16.216 23.9999 16.216C24.8279 16.216 25.4999 16.888 25.4999 17.716L25.4999 29.464C25.4999 30.292 24.8279 30.964 23.9999 30.964C23.1719 30.964 22.4999 30.292 22.4999 29.464L22.4999 17.716ZM43.2139 37.888L27.1039 6.88205C26.4999 5.72005 25.3099 4.99805 23.9999 4.99805C22.6899 4.99805 21.4999 5.72005 20.8959 6.88205L4.78394 37.888C4.21394 38.984 4.25794 40.266 4.89794 41.32C5.53994 42.372 6.65594 43.002 7.88794 43.002L40.1119 43.002C41.3439 43.002 42.4599 42.372 43.1019 41.32C43.7419 40.266 43.7859 38.984 43.2139 37.888Z" fill="#191919" fill-rule="evenodd"/>
  <path id="形状结合" d="M23.9998 33.7002C25.1058 33.7002 25.9998 34.5942 25.9998 35.7002C25.9998 36.8042 25.1058 37.7002 23.9998 37.7002C22.8938 37.7002 21.9998 36.8042 21.9998 35.7002C21.9998 34.5942 22.8938 33.7002 23.9998 33.7002ZM23.9998 16.2002C24.7591 16.2002 25.3867 16.7645 25.4861 17.4967L25.4998 17.7002L25.4998 29.4482C25.4998 30.2766 24.8282 30.9482 23.9998 30.9482C23.2404 30.9482 22.6128 30.3839 22.5134 29.6517L22.4998 29.4482L22.4998 17.7002C22.4998 16.8718 23.1713 16.2002 23.9998 16.2002Z" fill="#AEAEAE" fill-rule="evenodd"/>
</svg>
