<svg viewBox="0 0 48 48" xmlns="http://www.w3.org/2000/svg" xmlns:xlink="http://www.w3.org/1999/xlink" width="48.000000" height="48.000000" fill="none">
  <path id="形状结合" d="M11.492 27.25C13.288 27.25 14.75 28.71 14.75 30.508L14.75 38.992C14.75 40.79 13.288 42.25 11.492 42.25L8.506 42.25C6.71 42.25 5.25 40.79 5.25 38.992L5.25 30.508C5.25 28.71 6.71 27.25 8.506 27.25L11.492 27.25ZM39.492 14.25C41.288 14.25 42.75 15.71 42.75 17.508L42.75 38.992C42.75 40.79 41.288 42.25 39.492 42.25L36.506 42.25C34.71 42.25 33.25 40.79 33.25 38.992L33.25 17.508C33.25 15.71 34.71 14.25 36.506 14.25L39.492 14.25ZM25.492 21.75C27.288 21.75 28.75 23.21 28.75 25.008L28.75 38.992C28.75 40.79 27.288 42.25 25.492 42.25L22.506 42.25C20.71 42.25 19.25 40.79 19.25 38.992L19.25 25.008C19.25 23.21 20.71 21.75 22.506 21.75L25.492 21.75Z" fill="#191919" fill-rule="evenodd"/>
  <path id="合并" d="M33.7313 10.1138C31.0182 11.9298 28.2549 13.3516 25.4411 14.3811C20.526 16.1794 14.4973 17.3823 7.35973 17.981C6.5479 18.0491 5.94116 18.8114 6.00455 19.6835C6.06793 20.5557 6.77744 21.2075 7.58928 21.1394C14.9568 20.5214 21.2227 19.2712 26.3917 17.38C31.6142 15.4692 36.643 12.3204 41.4758 7.94388C42.0984 7.38006 42.1777 6.38074 41.6529 5.71186C41.4117 5.40442 41.0848 5.22029 40.7415 5.16582C40.5964 5.14279 40.4483 5.14294 40.3025 5.16675L31.4281 5.00015C30.7646 4.9877 30.3809 5.74774 30.7849 6.27417L33.7313 10.1138Z" fill="#AEAEAE" fill-rule="evenodd"/>
</svg>
