<svg viewBox="0 0 48 48" xmlns="http://www.w3.org/2000/svg" xmlns:xlink="http://www.w3.org/1999/xlink" width="48.000000" height="48.000000" fill="none">
  <path id="减去顶层" d="M21.4887 7.45694C21.3392 5.52284 19.7224 4 17.75 4L7.75 4L7.45694 4.01123C5.52284 4.16074 4 5.77755 4 7.75L4 40.25L4.01129 40.543C4.1608 42.4771 5.77755 44 7.75 44L17.75 44L18.0431 43.9887C19.9772 43.8392 21.5 42.2224 21.5 40.25L21.5 26.463L18.0056 26.463C18.0428 26.511 18.0786 26.5602 18.1128 26.6105C18.288 26.8678 18.4464 27.231 18.5429 27.5464C18.647 27.9162 18.6908 28.3045 18.6743 28.7112C18.6687 28.8499 18.6562 28.9875 18.6369 29.124C18.6016 29.3729 18.5436 29.6182 18.4628 29.8601C18.335 30.2424 18.152 30.5982 17.9294 30.9059L17.7696 31.0946C17.6605 31.2058 17.5444 31.3069 17.4214 31.3978C17.1746 31.5803 16.826 31.7454 16.5235 31.846C16.1686 31.9544 15.7961 32 15.4059 31.9828C15.273 31.977 15.1411 31.964 15.0102 31.9438C14.7713 31.9071 14.5357 31.8466 14.3035 31.7623C13.9369 31.6293 13.4989 31.3621 13.2037 31.1303L7.85686 25.4317C7.75495 25.3231 7.6619 25.2078 7.57772 25.0859C7.40078 24.8296 7.24403 24.4813 7.14542 24.1663C7.03776 23.7984 6.98988 23.4116 7.00178 23.0058C7.00577 22.8696 7.01638 22.7344 7.0336 22.6001C7.06586 22.3687 7.12379 22.0955 7.19548 21.8695C7.31703 21.4864 7.55653 21.039 7.77351 20.7284L13.119 15.0313C13.2831 14.8564 13.4607 14.7028 13.6519 14.5706C13.8235 14.4518 14.006 14.3503 14.1995 14.2658C14.3906 14.1825 14.5857 14.1187 14.7848 14.0745C14.9965 14.0276 15.2127 14.0028 15.4334 14.0002C15.6542 13.9976 15.8709 14.0173 16.0836 14.0593C16.2836 14.0988 16.48 14.1579 16.6728 14.2368C16.868 14.3166 17.0527 14.4139 17.2268 14.5286C17.4209 14.6563 17.6018 14.8057 17.7696 14.9767C17.9243 15.1343 18.0617 15.3042 18.1819 15.4864C18.2867 15.6453 18.3784 15.8135 18.457 15.9911C18.5354 16.1682 18.5986 16.3496 18.6465 16.5352C18.6982 16.7353 18.7322 16.9404 18.7485 17.1505C18.7644 17.3559 18.7629 17.5595 18.744 17.7613C18.7259 17.9543 18.6919 18.1457 18.642 18.3355C18.5893 18.5357 18.5205 18.7279 18.4356 18.912C18.3512 19.0949 18.251 19.2699 18.1349 19.4369L17.9987 19.6084L21.5 19.6084L21.5 7.75L21.4887 7.45694ZM26.5 26.3581C26.6197 26.3897 26.7416 26.4142 26.8658 26.4318L27.2548 26.463L30.9116 26.463C30.8354 26.5589 30.7647 26.6585 30.6995 26.762C30.5968 26.9247 30.5077 27.0968 30.4322 27.2781C30.3576 27.4569 30.2984 27.6397 30.2545 27.8263C30.2071 28.0277 30.1776 28.2335 30.1658 28.444C30.1543 28.6497 30.1602 28.8533 30.1835 29.0547C30.2057 29.2472 30.2438 29.4376 30.2979 29.6261C30.3549 29.8251 30.4278 30.0156 30.5167 30.1977C30.6049 30.3786 30.7089 30.5511 30.8286 30.7153L30.9885 30.9041C31.247 31.1551 31.6034 31.426 31.9352 31.595C32.1491 31.7039 32.3687 31.791 32.5942 31.8564C32.731 31.8961 32.87 31.9278 33.0111 31.9514C33.3958 32.0159 33.7702 32.0162 34.1343 31.9524C34.4559 31.8886 34.8217 31.7652 35.0937 31.6081C35.2129 31.5392 35.3273 31.4614 35.4369 31.3746L41.0599 25.4346C41.2234 25.2604 41.3664 25.0726 41.4889 24.8714C41.5767 24.7273 41.6539 24.5764 41.7207 24.4185C41.7952 24.2424 41.8548 24.0624 41.8995 23.8785C41.9476 23.6805 41.9785 23.4779 41.9921 23.2708C42.0054 23.0683 42.0019 22.8677 41.9814 22.669C41.9618 22.4786 41.9267 22.2899 41.876 22.103C41.8227 21.9062 41.7538 21.7172 41.6693 21.5362C41.5853 21.3563 41.4859 21.1842 41.3712 21.0199L35.803 15.034C35.6274 14.8468 35.4367 14.6841 35.2309 14.5458C35.0699 14.4375 34.8995 14.3442 34.72 14.2658C34.5288 14.1824 34.3337 14.1187 34.1346 14.0745C33.9229 14.0276 33.7068 14.0028 33.486 14.0002C33.2652 13.9976 33.0484 14.0173 32.8356 14.0593C32.6357 14.0988 32.4394 14.1579 32.2467 14.2368C32.0513 14.3167 31.8665 14.414 31.6923 14.5287C31.4984 14.6565 31.3176 14.8058 31.1498 14.9767C30.9952 15.1343 30.8578 15.3042 30.7376 15.4865C30.6328 15.6453 30.5411 15.8135 30.4625 15.9911C30.384 16.1683 30.3209 16.3497 30.2729 16.5353C30.2213 16.7354 30.1873 16.9405 30.171 17.1505C30.1551 17.3558 30.1565 17.5594 30.1754 17.7612C30.1935 17.9542 30.2275 18.1457 30.2775 18.3355C30.3302 18.5357 30.399 18.7279 30.4839 18.912C30.5682 19.0949 30.6685 19.2699 30.7846 19.4369L30.9208 19.6084L27.31 19.6084C27.0754 19.6084 26.8459 19.6333 26.6215 19.6833C26.5808 19.6924 26.5403 19.7022 26.5 19.7129L26.5 7.75C26.5 5.77755 28.0228 4.16074 29.9569 4.01123L30.25 4L40.25 4C42.2224 4 43.8392 5.52284 43.9887 7.45694L44 7.75L44 40.25C44 42.2224 42.4772 43.8392 40.5431 43.9887L40.25 44L30.25 44C28.2776 44 26.6608 42.4771 26.5113 40.543L26.5 40.25L26.5 26.3581Z" fill="#191919" fill-rule="evenodd"/>
  <path id="矢量 1773" d="M17.4425 19.3789C17.8716 18.7868 17.8138 17.954 17.2753 17.4275C16.683 16.8483 15.7334 16.859 15.1542 17.4514L10.3542 22.3604C9.93021 22.9428 9.83603 23.9279 10.3542 24.4578L15.1542 29.3669C15.7365 29.8092 16.7369 29.9173 17.2753 29.3908C17.7176 28.8086 17.8257 27.808 17.2992 27.2695L14.9906 24.9091L21.8266 24.9091L22.0302 24.8955C22.7623 24.7961 23.3266 24.1685 23.3266 23.4091C23.3266 22.5807 22.655 21.9091 21.8266 21.9091L14.9887 21.9091L17.4425 19.3789ZM33.6991 17.4514C33.12 16.859 32.1703 16.8483 31.578 17.4275C31.0395 17.954 30.9817 18.7868 31.4108 19.3789L33.8627 21.9091L27.0267 21.9091C26.1982 21.9091 25.5267 22.5807 25.5267 23.4091C25.5267 24.1685 26.091 24.7961 26.8232 24.8955L27.0267 24.9091L33.8606 24.9091L31.5541 27.2695C31.0276 27.808 30.9886 28.6418 31.4308 29.2241C31.9693 29.7506 32.9504 29.9563 33.5326 29.514L38.4992 24.4578C39.0174 23.9279 39.0645 23.1099 38.6406 22.5275L33.6991 17.4514Z" fill="#191919" fill-rule="evenodd"/>
  <path id="矢量 1773" d="M17.4425 19.3789C17.8716 18.7868 17.8138 17.954 17.2753 17.4275C16.683 16.8483 15.7334 16.859 15.1542 17.4514L10.3542 22.3604C9.93021 22.9428 9.83603 23.9279 10.3542 24.4578L15.1542 29.3669C15.7365 29.8092 16.7369 29.9173 17.2753 29.3908C17.7176 28.8086 17.8257 27.808 17.2992 27.2695L14.9906 24.9091L21.8266 24.9091L22.0302 24.8955C22.7623 24.7961 23.3266 24.1685 23.3266 23.4091C23.3266 22.5807 22.655 21.9091 21.8266 21.9091L14.9887 21.9091L17.4425 19.3789ZM33.6991 17.4514C33.12 16.859 32.1703 16.8483 31.578 17.4275C31.0395 17.954 30.9817 18.7868 31.4108 19.3789L33.8627 21.9091L27.0267 21.9091C26.1982 21.9091 25.5267 22.5807 25.5267 23.4091C25.5267 24.1685 26.091 24.7961 26.8232 24.8955L27.0267 24.9091L33.8606 24.9091L31.5541 27.2695C31.0276 27.808 30.9886 28.6418 31.4308 29.2241C31.9693 29.7506 32.9504 29.9563 33.5326 29.514L38.4992 24.4578C39.0174 23.9279 39.0645 23.1099 38.6406 22.5275L33.6991 17.4514Z" fill="#AEAEAE" fill-rule="evenodd"/>
</svg>
