<svg viewBox="0 0 48 48" xmlns="http://www.w3.org/2000/svg" xmlns:xlink="http://www.w3.org/1999/xlink" width="48.000000" height="48.000000" fill="none">
  <path id="形状结合" d="M38.4919 9.5035C42.3639 13.3755 44.4959 18.5255 44.4959 23.9995C44.4959 24.1824 44.4714 24.3594 44.4255 24.5276C44.4093 24.5807 44.3624 24.7219 44.3412 24.7726C44.2818 24.9062 44.1847 25.0814 44.0987 25.1964C43.9455 25.3935 43.7255 25.5971 43.509 25.7244C43.4578 25.7534 43.3444 25.8123 43.289 25.8362C43.1554 25.8891 42.945 25.9546 42.7983 25.9768C42.7187 25.9868 42.5769 25.9995 42.4959 25.9995C42.4148 25.9995 42.3348 25.9947 42.2562 25.9853L42.4959 25.9995C42.3902 25.9995 42.3608 26.002 42.2562 25.9853C42.1934 25.9757 42.0546 25.9518 41.9941 25.9362C41.9308 25.9191 41.8353 25.8892 41.776 25.8664C41.7239 25.844 41.5908 25.7849 41.5419 25.7584C41.4818 25.7234 41.3624 25.6498 41.3069 25.6088C41.2322 25.5514 41.1289 25.4634 41.0642 25.3971L37.4889 21.8193C36.7069 21.0393 36.7069 19.7733 37.4889 18.9913C38.0514 18.4274 38.8666 18.2701 39.5709 18.5195C38.7614 16.2191 37.4395 14.1079 35.6619 12.3315C29.2279 5.8975 18.7599 5.8995 12.3279 12.3315C5.8939 18.7655 5.8939 29.2335 12.3279 35.6675C18.7619 42.1015 29.2299 42.1015 35.6619 35.6675C36.4439 34.8855 37.7099 34.8855 38.4919 35.6675C39.2719 36.4475 39.2719 37.7135 38.4919 38.4955C34.4959 42.4915 29.2459 44.4895 23.9959 44.4895C18.7459 44.4895 13.4959 42.4915 9.4999 38.4955C1.50589 30.5035 1.50589 17.4955 9.4999 9.5035C17.4919 1.5135 30.4979 1.5115 38.4919 9.5035Z" fill="#191919" fill-rule="evenodd"/>
</svg>
