<svg viewBox="0 0 48 48" xmlns="http://www.w3.org/2000/svg" xmlns:xlink="http://www.w3.org/1999/xlink" width="48.000000" height="48.000000" fill="none">
  <path id="合并" d="M5.09829 19.1893C5.14246 19.0153 5.18904 18.8419 5.23803 18.6692C5.2733 18.5448 5.30982 18.4208 5.34759 18.2971C5.43001 18.0272 5.51825 17.7593 5.6123 17.4935C5.72695 17.1695 5.85024 16.8485 5.98216 16.5306C6.19557 16.0164 6.43014 15.5131 6.68588 15.0208L6.68602 15.0205L6.68613 15.0203C7.0197 14.3782 7.38928 13.7549 7.79487 13.1502C8.12127 12.6636 8.46804 12.1935 8.83518 11.7398C9.26589 11.2077 9.72463 10.6982 10.2114 10.2114C10.687 9.73579 11.1844 9.28689 11.7035 8.86471C12.1516 8.50029 12.6158 8.15578 13.0963 7.83118C13.692 7.42876 14.306 7.06134 14.9385 6.72892L14.9385 6.72891C15.4182 6.47681 15.9084 6.24485 16.4092 6.03302C16.9963 5.7847 17.5928 5.56628 18.1985 5.37776L18.1985 5.37774C18.8133 5.1864 19.4377 5.02587 20.0716 4.89615C20.4552 4.81767 20.8404 4.75084 21.2272 4.69569C22.1422 4.56523 23.0664 4.5 24 4.5C24.9335 4.5 25.8577 4.56523 26.7727 4.69568L26.7729 4.69571C27.1597 4.75087 27.5449 4.81768 27.9283 4.89615C28.5624 5.0259 29.1869 5.18647 29.8018 5.37785C30.4074 5.56635 31.0037 5.78474 31.5907 6.03302C32.0915 6.24485 32.5818 6.4768 33.0614 6.72889C33.6939 7.06131 34.308 7.42874 34.9037 7.83118C35.3839 8.15561 35.8479 8.49993 36.2958 8.86414C36.8151 9.28648 37.3127 9.73558 37.7886 10.2114C38.2753 10.6981 38.734 11.2076 39.1647 11.7397L39.1647 11.7397C39.5319 12.1934 39.8787 12.6635 40.2051 13.1502C40.6107 13.7549 40.9804 14.3784 41.314 15.0206C41.5698 15.5129 41.8044 16.0163 42.0178 16.5306C42.256 17.1047 42.4658 17.6875 42.647 18.2789C42.8341 18.8892 42.9908 19.5088 43.1172 20.1376C43.1458 20.2801 43.1729 20.4229 43.1983 20.5659C43.2852 21.0546 43.3534 21.5467 43.4028 22.0421L43.6617 24.6367L35.3784 20.8652C34.6139 20.5171 34.2868 19.6429 34.6348 18.8784C34.9829 18.1139 35.8571 17.7868 36.6216 18.1349L39.917 19.6353C39.873 19.4744 39.8266 19.3142 39.7777 19.1548C39.6247 18.656 39.4478 18.1646 39.2469 17.6805C39.0714 17.2574 38.8789 16.8432 38.6694 16.4377C38.3826 15.8825 38.064 15.3437 37.7137 14.8213C37.4415 14.4156 37.1526 14.0233 36.8469 13.6446C36.4781 13.1876 36.0849 12.7503 35.6673 12.3327C35.2594 11.9249 34.8327 11.5403 34.3872 11.1789C34.0129 10.8752 33.6252 10.5879 33.2242 10.3171C32.7091 9.96906 32.1779 9.65203 31.6304 9.36599L31.63 9.36576C31.2357 9.15979 30.8331 8.96988 30.4221 8.79604C29.9266 8.58647 29.4233 8.40211 28.9122 8.24295C28.3919 8.08094 27.8635 7.94504 27.3269 7.83524C27.0423 7.77701 26.7566 7.72637 26.4698 7.68331L26.4696 7.68328C25.6555 7.56109 24.8323 7.5 24 7.5C23.1677 7.5 22.3446 7.56108 21.5306 7.68325C21.2436 7.72632 20.9578 7.77699 20.6731 7.83524C20.1365 7.94504 19.608 8.08095 19.0877 8.24298C18.5766 8.40213 18.0733 8.58649 17.5779 8.79604C17.1668 8.96991 16.7641 9.15986 16.3698 9.36587C15.8223 9.65195 15.2909 9.96901 14.7757 10.3171C14.3748 10.5879 13.9872 10.8752 13.6129 11.1788C13.1673 11.5402 12.7406 11.9249 12.3327 12.3327C11.915 12.7505 11.5216 13.1879 11.1527 13.6451C10.8472 14.0236 10.5584 14.4157 10.2863 14.8214C9.93582 15.3439 9.61715 15.8828 9.3303 16.4382L9.33023 16.4383C9.1209 16.8436 8.92851 17.2577 8.75306 17.6805C8.63995 17.953 8.53436 18.2283 8.43628 18.5061C8.35837 18.7268 8.28521 18.9492 8.21678 19.1733C8.18563 19.2753 8.15548 19.3776 8.12633 19.4802C8.08443 19.6276 8.04461 19.7757 8.00685 19.9243L8.00195 19.9437L7.79486 20.9996L5 19.4998L5.09338 19.2087L5.09829 19.1893ZM42.5635 27.9474C42.5193 28.1215 42.4727 28.2949 42.4237 28.4676C42.3884 28.5919 42.3519 28.716 42.3142 28.8396C42.2317 29.1095 42.1435 29.3774 42.0494 29.6432C41.9348 29.9672 41.8115 30.2882 41.6796 30.6061C41.4661 31.1205 41.2315 31.6238 40.9757 32.1162C40.6421 32.7584 40.2725 33.3818 39.8669 33.9865C39.5405 34.4731 39.1937 34.9433 38.8266 35.3969C38.3959 35.9291 37.9371 36.4385 37.4503 36.9253C36.9747 37.4009 36.4773 37.8498 35.9582 38.272C35.5102 38.6364 35.0459 38.9809 34.5654 39.3055C33.9698 39.708 33.3557 40.0754 32.7232 40.4078C32.2435 40.6599 31.7533 40.8919 31.2525 41.1037C30.6654 41.352 30.0689 41.5705 29.4632 41.759C28.8484 41.9503 28.2241 42.1108 27.5901 42.2406C27.2066 42.3191 26.8214 42.3859 26.4345 42.441C25.5196 42.5715 24.5953 42.6367 23.6618 42.6367C22.7281 42.6367 21.8038 42.5715 20.8888 42.441C20.502 42.3859 20.1169 42.319 19.7334 42.2406C19.0993 42.1108 18.4748 41.9502 17.8599 41.7589C17.2543 41.5704 16.658 41.352 16.071 41.1037C15.5702 40.8919 15.08 40.6599 14.6003 40.4078C13.9679 40.0754 13.3538 39.708 12.7581 39.3055C12.2779 38.9811 11.8138 38.6368 11.366 38.2726C10.8466 37.8502 10.349 37.4011 9.87317 36.9253C9.38643 36.4386 8.92772 35.9291 8.49704 35.397C8.12986 34.9433 7.78306 34.4732 7.45663 33.9865C7.051 33.3818 6.68137 32.7583 6.34777 32.1162C6.09198 31.6238 5.85737 31.1204 5.64393 30.6061C5.40572 30.032 5.19598 29.4493 5.01471 28.8578C4.82768 28.2475 4.67097 27.6279 4.54456 26.9991C4.51591 26.8566 4.48888 26.7139 4.46344 26.5708C4.37656 26.0821 4.30839 25.59 4.25895 25.0946L4 22.5L12.2833 26.2716C13.0478 26.6197 13.375 27.4938 13.0269 28.2583C12.6788 29.0228 11.8047 29.35 11.0402 29.0019L7.7447 27.5014C7.78871 27.6623 7.83516 27.8225 7.88404 27.9819C8.03702 28.4807 8.21394 28.9722 8.41483 29.4563C8.59037 29.8793 8.78286 30.2935 8.99232 30.699C9.27911 31.2542 9.59769 31.793 9.94807 32.3154C10.2202 32.7211 10.5092 33.1134 10.8148 33.4921C11.1837 33.9491 11.5769 34.3864 11.9945 34.804C12.4023 35.2118 12.829 35.5964 13.2745 35.9578C13.6489 36.2615 14.0365 36.5488 14.4375 36.8197C14.9526 37.1677 15.4839 37.4847 16.0314 37.7707C16.4257 37.9768 16.8285 38.1668 17.2397 38.3407C17.7351 38.5502 18.2384 38.7346 18.7496 38.8938C19.2699 39.0558 19.7983 39.1917 20.3348 39.3015C20.6195 39.3597 20.9053 39.4104 21.1922 39.4534C22.0062 39.5756 22.8294 39.6367 23.6618 39.6367C24.494 39.6367 25.3172 39.5756 26.1311 39.4535C26.4181 39.4104 26.704 39.3597 26.9887 39.3015C27.5252 39.1917 28.0537 39.0558 28.574 38.8937C29.0851 38.7346 29.5884 38.5502 30.0838 38.3407C30.4949 38.1668 30.8976 37.9769 31.2919 37.7709C31.8395 37.4848 32.3708 37.1677 32.886 36.8197C33.2869 36.5488 33.6746 36.2616 34.0489 35.9579C34.4944 35.5965 34.9212 35.2118 35.329 34.804C35.7468 34.3862 36.1401 33.9488 36.509 33.4917C36.8146 33.1131 37.1034 32.721 37.3754 32.3154C37.7259 31.7929 38.0446 31.2539 38.3314 30.6985C38.5408 30.2932 38.7332 29.8791 38.9087 29.4563C39.0218 29.1837 39.1274 28.9085 39.2255 28.6306C39.3034 28.4099 39.3765 28.1875 39.445 27.9634C39.4761 27.8614 39.5063 27.7591 39.5354 27.6565C39.5773 27.5091 39.6171 27.361 39.6549 27.2124L39.6598 27.193L39.8669 26.1371L42.6617 27.637L42.5684 27.928L42.5635 27.9474Z" fill="#191919" fill-rule="evenodd"/>
  <path id="形状结合" d="M27.8752 15.7081C28.4111 16.039 28.6499 16.6797 28.4771 17.2868L28.4042 17.4874L26.8 20.1L28.2587 20.1C29.0414 20.1 29.6531 20.7882 29.6531 21.6125C29.6531 22.285 29.2447 22.8743 28.6322 23.0655L28.4208 23.114L25.468 23.124L25.468 24.618L28.2093 24.62C28.992 24.62 29.6037 25.3082 29.6037 26.1325C29.6037 26.805 29.1952 27.3943 28.5828 27.5855L28.3714 27.634L25.468 27.644L25.4689 30.7459C25.4689 31.5286 24.7807 32.1403 23.9564 32.1403C23.2839 32.1403 22.6946 31.7318 22.5034 31.1194L22.4549 30.908L22.442 27.644L19.3944 27.645C18.6117 27.645 18 26.9568 18 26.1325C18 25.46 18.4085 24.8707 19.0209 24.6795L19.2323 24.631L22.442 24.618L22.442 23.124L19.4439 23.125C18.6612 23.125 18.0494 22.4368 18.0494 21.6125C18.0494 20.94 18.4579 20.3507 19.0703 20.1595L19.2818 20.111L20.874 20.1L19.3475 17.6272C18.943 16.9719 19.1462 16.1127 19.8015 15.7081C20.3308 15.3813 21.0004 15.4491 21.4522 15.8446L21.7206 16.1621L23.838 19.59L25.9561 16.1621C26.3607 15.5068 27.2199 15.3035 27.8752 15.7081Z" fill="#AEAEAE" fill-rule="evenodd"/>
</svg>
