<svg viewBox="0 0 48 48" xmlns="http://www.w3.org/2000/svg" xmlns:xlink="http://www.w3.org/1999/xlink" width="48.000000" height="48.000000" fill="none">
  <path id="合并" d="M16.6667 13.3338C16.6667 17.3839 19.9499 20.6672 24 20.6672L19.875 20.6672C16.078 20.6672 13 23.5986 13 27.2148L13 28.9172C13 29.4234 13.4104 29.8338 13.9167 29.8338L34.0833 29.8338C34.5896 29.8338 35 29.4234 35 28.9172L35 27.2148C35 23.5986 31.922 20.6672 28.125 20.6672L24 20.6672C28.0501 20.6672 31.3333 17.3839 31.3333 13.3338C31.3333 9.28374 28.0501 6.00049 24 6.00049C19.9499 6.00049 16.6667 9.28374 16.6667 13.3338Z" fill="#191919" fill-rule="evenodd"/>
  <path id="合并" d="M9.88332 28.1335C10.1628 27.6238 10.5842 27.1276 11.1473 26.6451C11.7852 26.0986 11.857 25.1679 11.3104 24.5301C10.7639 23.8922 9.83327 23.8204 9.19539 24.367C8.35527 25.0868 7.70776 25.8615 7.25287 26.691C6.87336 27.3831 6.63733 28.0933 6.54478 28.8218L6.54478 28.8219C6.51493 29.0568 6.5 29.2937 6.5 29.5325C6.5 29.7282 6.51013 29.9229 6.5304 30.1165C6.58696 30.6569 6.72243 31.189 6.93683 31.7129C7.20792 32.3753 7.5997 33.0094 8.11215 33.6152C9.05441 34.729 10.3555 35.701 12.0155 36.531C13.6066 37.3265 15.422 37.9399 17.4617 38.3713C18.7634 38.6466 20.1022 38.8359 21.4782 38.9393L21.4393 38.9781C20.8454 39.5721 20.8454 40.5055 21.4393 41.0994C22.0333 41.6934 22.9667 41.6934 23.5607 41.0994L25.668 38.9921C27.3454 38.9102 28.9689 38.7032 30.5383 38.3713C32.578 37.9399 34.3935 37.3265 35.9845 36.531C37.6445 35.701 38.9456 34.729 39.8878 33.6152C40.4003 33.0094 40.7921 32.3753 41.0632 31.7129C41.2776 31.189 41.413 30.6569 41.4696 30.1165C41.4899 29.9229 41.5 29.7282 41.5 29.5325C41.5 29.2937 41.4851 29.0569 41.4552 28.8219C41.3627 28.0934 41.1267 27.3831 40.7471 26.691C40.2922 25.8615 39.6447 25.0868 38.8046 24.367C38.1667 23.8204 37.2361 23.8922 36.6896 24.5301C36.143 25.1679 36.2148 26.0986 36.8527 26.6451C37.4158 27.1276 37.8372 27.6238 38.1167 28.1335C38.371 28.5973 38.4988 29.0615 38.5 29.5259L38.5 29.5325C38.5 29.5432 38.4999 29.5539 38.4998 29.5647C38.4909 30.2727 38.1902 30.977 37.5974 31.6777C36.9204 32.478 35.9356 33.2013 34.6429 33.8477C33.2813 34.5284 31.7062 35.058 29.9176 35.4362C28.8148 35.6695 27.68 35.8343 26.5132 35.9306L23.5607 32.9781C22.9667 32.3842 22.0333 32.3842 21.4393 32.9781C20.8454 33.5721 20.8454 34.5055 21.4393 35.0994L22.3278 35.988C20.8636 35.909 19.4484 35.7251 18.0824 35.4362C16.2938 35.058 14.7187 34.5284 13.3571 33.8477C12.0645 33.2013 11.0796 32.478 10.4026 31.6777C9.80985 30.977 9.50906 30.2727 9.5002 29.5647C9.50007 29.5539 9.5 29.5432 9.5 29.5325L9.50001 29.526C9.50118 29.0615 9.62895 28.5973 9.88332 28.1335Z" fill="#AEAEAE" fill-rule="evenodd"/>
</svg>
