<svg viewBox="0 0 48 48" xmlns="http://www.w3.org/2000/svg" xmlns:xlink="http://www.w3.org/1999/xlink" width="48.000000" height="48.000000" fill="none">
  <path id="减去顶层" d="M9.22436 17C9.22436 17.8284 9.89593 18.5 10.7244 18.5L38.4998 18.5L38.7039 18.4863C39.4361 18.387 40.0004 17.7594 40.0004 17L39.9998 13.916L39.9896 13.5634C39.8071 10.4132 37.1958 7.916 33.9998 7.916L30.4998 7.916L30.4998 6L30.4861 5.79646C30.3867 5.06431 29.7591 4.5 28.9998 4.5C28.1713 4.5 27.4998 5.17157 27.4998 6L27.4998 7.916L16.4998 7.916L16.4998 6L16.4861 5.79646C16.3867 5.06431 15.7591 4.5 14.9998 4.5C14.1713 4.5 13.4998 5.17157 13.4998 6L13.4998 7.916L9.99976 7.916L9.64714 7.92618C6.49693 8.10863 3.99976 10.7199 3.99976 13.916L3.99976 36.082L4.00994 36.4346C4.19238 39.5848 6.8037 42.082 9.99976 42.082L24.4619 42.082C23.4721 41.2175 22.6138 40.206 21.9217 39.082L9.99976 39.082L9.71072 39.0683C8.1889 38.923 6.99976 37.6421 6.99976 36.082L6.99976 13.916L7.01348 13.627C7.15878 12.1051 8.43969 10.916 9.99976 10.916L33.9998 10.916L34.2888 10.9297C35.8106 11.075 36.9998 12.3559 36.9998 13.916L36.9998 15.5L10.7244 15.5L10.5208 15.5137C9.78866 15.613 9.22436 16.2406 9.22436 17ZM26.3435 21.1256C25.3372 19.8321 23.7658 19 22 19C18.9624 19 16.5 21.4624 16.5 24.5C16.5 26.1502 17.2267 27.6306 18.3776 28.6388C18.3509 28.6443 18.3242 28.65 18.2975 28.6558C17.8975 28.7437 17.5057 28.8688 17.1221 29.0311C16.7377 29.1937 16.3742 29.3881 16.0317 29.6143L16.0316 29.6144L16.0315 29.6144L16.0315 29.6145C15.6545 29.8635 15.3031 30.151 14.977 30.477C14.6509 30.8031 14.3634 31.1547 14.1143 31.5317L14.1143 31.5317C13.8881 31.8742 13.6937 32.2377 13.5311 32.6221C13.3688 33.0057 13.2437 33.3975 13.1558 33.7975C13.0519 34.2702 13 34.7544 13 35.25C13 35.4828 13.0239 35.7105 13.0716 35.933C13.1141 36.1312 13.1756 36.3254 13.256 36.5155C13.3355 36.7035 13.4308 36.881 13.5418 37.048L13.5419 37.0482L13.5419 37.0483C13.6606 37.2268 13.7973 37.3934 13.9519 37.5481C14.1066 37.7028 14.2732 37.8395 14.4518 37.9581C14.6189 38.0692 14.7965 38.1645 14.9845 38.244C15.1736 38.324 15.3667 38.3852 15.5638 38.4277L15.5643 38.4278L15.567 38.4284L15.5673 38.4285C15.7898 38.4762 16.0173 38.5 16.25 38.5L21.5837 38.5C21.0717 37.5633 20.6716 36.5572 20.4017 35.5L16.25 35.5C16.2155 35.5 16.1835 35.4939 16.154 35.4817C16.1246 35.4695 16.0976 35.4512 16.0732 35.4268C16.0488 35.4024 16.0305 35.3754 16.0183 35.346C16.0061 35.3165 16 35.2845 16 35.25C16 34.9571 16.0324 34.6718 16.0973 34.394C16.1452 34.1888 16.2108 33.9877 16.2941 33.7908C16.3807 33.5859 16.4837 33.3917 16.6031 33.2082L16.6031 33.2081C16.7451 32.9898 16.9101 32.7866 17.0984 32.5984C17.2865 32.4102 17.4898 32.2451 17.7081 32.1031C17.8917 31.9838 18.0859 31.8807 18.2908 31.7941C18.4877 31.7108 18.6888 31.6452 18.894 31.5973L18.8944 31.5972C19.1721 31.5324 19.4573 31.5 19.75 31.5L20.0237 31.5C20.1227 29.8533 20.5287 28.2896 21.1848 26.865C21.132 26.8468 21.0797 26.8267 21.0278 26.8048C20.8987 26.7501 20.7758 26.6857 20.6591 26.6114C20.506 26.5138 20.3637 26.3993 20.2322 26.2678C20.1007 26.1363 19.9862 25.9939 19.8886 25.8408C19.8143 25.7242 19.7499 25.6013 19.6952 25.4722C19.6455 25.3546 19.6053 25.2347 19.5746 25.1124L19.5745 25.1123C19.5248 24.9145 19.5 24.7104 19.5 24.5C19.5 24.2896 19.5249 24.0855 19.5746 23.8876L19.5746 23.8876C19.6053 23.7653 19.6455 23.6454 19.6952 23.5278C19.7499 23.3987 19.8143 23.2758 19.8886 23.1592C19.9862 23.0061 20.1007 22.8637 20.2322 22.7322C20.3637 22.6007 20.5061 22.4862 20.6592 22.3886C20.7758 22.3143 20.8987 22.2498 21.0278 22.1952C21.1454 22.1455 21.2653 22.1053 21.3876 22.0746L21.3877 22.0745C21.5855 22.0248 21.7896 22 22 22C22.2104 22 22.4145 22.0249 22.6124 22.0746C22.7347 22.1053 22.8546 22.1455 22.9722 22.1952C23.1013 22.2499 23.2242 22.3143 23.3408 22.3886L23.3409 22.3886L23.3416 22.3891C23.4944 22.4866 23.6365 22.601 23.7678 22.7322C23.8375 22.802 23.9025 22.8748 23.9627 22.9506C24.6816 22.2551 25.4803 21.6417 26.3435 21.1256Z" fill="#191919" fill-rule="evenodd"/>
  <path id="矢量 1736" d="M44 32.5C44 26.4249 39.0751 21.5 33 21.5C26.9249 21.5 22 26.4249 22 32.5C22 38.5751 26.9249 43.5 33 43.5C39.0751 43.5 44 38.5751 44 32.5ZM33 24.14C28.3829 24.14 24.64 27.8829 24.64 32.5C24.64 37.1171 28.3829 40.86 33 40.86C37.6171 40.86 41.36 37.1171 41.36 32.5C41.36 27.8829 37.6171 24.14 33 24.14ZM38.4579 31.0898C38.8435 30.5746 38.804 29.8411 38.3373 29.3706C37.824 28.8529 36.9882 28.8494 36.4705 29.3627L32.0742 33.7198L29.5294 31.1964C29.0111 30.8151 28.1294 30.7336 27.6627 31.2042C27.1494 31.7219 27.1529 32.5576 27.6705 33.071L31.146 36.5173C31.6611 36.8969 32.5371 36.9812 33.0049 36.5173L38.4579 31.0898Z" fill="#AEAEAE" fill-rule="evenodd"/>
</svg>
