<svg viewBox="0 0 48 48" xmlns="http://www.w3.org/2000/svg" xmlns:xlink="http://www.w3.org/1999/xlink" width="48.000000" height="48.000000" fill="none">
  <path id="矢量 1972" d="M3.55762 17.8153L20.0883 4.24608C20.347 4.03319 20.6202 3.84765 20.9078 3.68749C21.1638 3.54492 21.4313 3.42382 21.7102 3.32324C21.9892 3.22265 22.2726 3.14551 22.5602 3.09277C22.5641 3.0918 22.5681 3.09082 22.572 3.08984C22.875 3.03418 23.1828 3.00391 23.4953 3C23.8119 2.99609 24.1243 3.01953 24.4324 3.06836C24.7213 3.11523 25.0065 3.18554 25.2879 3.27832C25.5692 3.37207 25.8396 3.48632 26.0991 3.62206C26.3906 3.77441 26.6683 3.95409 26.9322 4.15917L44.4131 17.7918C45.0769 18.3094 45.1943 19.241 44.6798 19.909C44.1654 20.577 43.2397 20.6951 42.576 20.1776L42.5 20.118L42.5 36.9997C42.5 37.5514 42.442 38.0905 42.326 38.6168C42.2284 39.0602 42.0898 39.4947 41.91 39.9195C41.7296 40.3463 41.5139 40.7496 41.263 41.1295C40.986 41.5484 40.6661 41.94 40.3033 42.3033C39.9405 42.6656 39.5493 42.9859 39.1298 43.2623C38.7498 43.5133 38.3464 43.7291 37.9198 43.9097C37.4947 44.0894 37.0606 44.2281 36.6174 44.3258C36.091 44.442 35.5519 44.4996 35 44.4996L13 44.4996C12.4481 44.4996 11.909 44.442 11.3826 44.3258C10.9394 44.2281 10.5053 44.0894 10.0802 43.9097C9.65366 43.7291 9.25038 43.5133 8.87035 43.2623C8.45079 42.9859 8.05957 42.6656 7.6967 42.3033C7.33386 41.94 7.01396 41.5484 6.737 41.1295C6.4861 40.7496 6.27043 40.3463 6.09 39.9195C5.91022 39.4947 5.77152 39.0602 5.67391 38.6168C5.55797 38.0905 5.5 37.5514 5.5 36.9997L5.5 20.116L5.45346 20.1541C4.80276 20.6883 3.87441 20.5936 3.34357 19.9383C2.81274 19.284 2.90692 18.3495 3.55762 17.8153ZM8.5 17.6532L8.5 36.9997C8.5 37.3493 8.53844 37.6891 8.61532 38.0202C8.67295 38.2692 8.75218 38.5123 8.85302 38.7506C8.95747 38.9977 9.08172 39.2321 9.22577 39.4528C9.39565 39.7135 9.59307 39.9567 9.81802 40.1813C10.043 40.4068 10.2859 40.6041 10.5467 40.774C10.7679 40.9176 11.0019 41.0426 11.2489 41.1471C11.4873 41.2477 11.7307 41.3268 11.9791 41.3844C12.3105 41.4615 12.6508 41.4996 13 41.4996L35 41.4996C35.3492 41.4996 35.6895 41.4615 36.0209 41.3844C36.2693 41.3268 36.5127 41.2477 36.7511 41.1471C36.9981 41.0426 37.2323 40.9176 37.4535 40.774C37.7142 40.6041 37.9571 40.4068 38.182 40.1813C38.4069 39.9567 38.6043 39.7135 38.7742 39.4528C38.9183 39.2321 39.0425 38.9977 39.147 38.7506C39.2478 38.5123 39.327 38.2692 39.3847 38.0202C39.4616 37.6891 39.5 37.3493 39.5 36.9997L39.5 17.9998C39.5 17.9286 39.5048 17.8582 39.5141 17.7899L25.095 6.54489C24.9669 6.44528 24.8319 6.35934 24.6899 6.28708C24.5801 6.23141 24.4662 6.18356 24.3481 6.1445C24.2253 6.10348 24.101 6.07321 23.9749 6.05173C23.8297 6.02731 23.6823 6.01657 23.5328 6.01852C23.3833 6.02048 23.2362 6.03513 23.0916 6.06247C22.9662 6.08688 22.8426 6.12106 22.7209 6.16501C22.6038 6.207 22.4911 6.25778 22.3827 6.31637C22.2426 6.39157 22.1097 6.48141 21.9842 6.58395L8.5 17.6532Z" fill="#191919" fill-rule="evenodd"/>
  <path id="合并" d="M23.4616 22.5721C23.4872 22.4508 23.5 22.3267 23.5 22.2L23.5 19.8C23.5 19.6733 23.4872 19.5494 23.4616 19.4281L23.4616 19.4279C23.438 19.316 23.4035 19.2064 23.3581 19.099C23.3136 18.9938 23.2602 18.8945 23.1979 18.8011C23.1326 18.7033 23.0576 18.612 22.9728 18.5272C22.888 18.4424 22.7967 18.3674 22.6989 18.3021L22.6989 18.3021L22.6989 18.3021C22.6055 18.2398 22.5062 18.1864 22.401 18.1419C22.2936 18.0965 22.184 18.062 22.0721 18.0384C21.9507 18.0128 21.8267 18 21.7 18L19.3 18C19.1733 18 19.0493 18.0128 18.9279 18.0384C18.816 18.062 18.7064 18.0965 18.599 18.1419C18.4938 18.1864 18.3945 18.2398 18.3011 18.3021C18.2033 18.3674 18.112 18.4424 18.0272 18.5272C17.9424 18.612 17.8674 18.7033 17.8021 18.8011C17.7398 18.8945 17.6864 18.9938 17.6419 19.099C17.5965 19.2063 17.562 19.3159 17.5384 19.4278L17.5384 19.4279L17.5384 19.4279L17.5383 19.4282L17.5383 19.4283C17.5128 19.5495 17.5 19.6734 17.5 19.8L17.5 22.2C17.5 22.3267 17.5128 22.4507 17.5384 22.5721C17.562 22.684 17.5965 22.7936 17.6419 22.901C17.6864 23.0062 17.7398 23.1055 17.8022 23.1989C17.8674 23.2967 17.9424 23.388 18.0272 23.4728C18.112 23.5576 18.2033 23.6326 18.3011 23.6979C18.3945 23.7602 18.4938 23.8136 18.599 23.8581C18.7064 23.9035 18.816 23.938 18.9279 23.9616C19.0493 23.9872 19.1733 24 19.3 24L21.7 24C21.8267 24 21.9507 23.9872 22.0721 23.9616C22.184 23.938 22.2936 23.9035 22.401 23.8581C22.5062 23.8136 22.6055 23.7602 22.6989 23.6979C22.7967 23.6326 22.888 23.5576 22.9728 23.4728C23.0576 23.388 23.1326 23.2967 23.1979 23.1989C23.2602 23.1055 23.3136 23.0062 23.3581 22.901C23.4035 22.7936 23.438 22.684 23.4616 22.5721ZM30.4616 22.5721C30.4872 22.4508 30.5 22.3267 30.5 22.2L30.5 19.8C30.5 19.6733 30.4872 19.5494 30.4616 19.4281L30.4616 19.4279C30.438 19.316 30.4035 19.2064 30.3581 19.099C30.3136 18.9938 30.2602 18.8945 30.1979 18.8011C30.1326 18.7033 30.0576 18.612 29.9728 18.5272C29.888 18.4424 29.7967 18.3674 29.6989 18.3021L29.6989 18.3021C29.6055 18.2398 29.5062 18.1864 29.401 18.1419C29.2936 18.0965 29.184 18.062 29.0721 18.0384C28.9507 18.0128 28.8267 18 28.7 18L26.3 18C26.1733 18 26.0493 18.0128 25.9279 18.0384C25.816 18.062 25.7064 18.0965 25.599 18.1419C25.4938 18.1864 25.3945 18.2398 25.3011 18.3021C25.2033 18.3674 25.112 18.4424 25.0272 18.5272C24.9424 18.612 24.8674 18.7033 24.8021 18.8011C24.7398 18.8945 24.6864 18.9938 24.6419 19.099C24.5965 19.2064 24.562 19.316 24.5384 19.4279L24.5383 19.4282L24.5383 19.4283C24.5128 19.5495 24.5 19.6734 24.5 19.8L24.5 22.2C24.5 22.3267 24.5128 22.4507 24.5384 22.5721C24.562 22.684 24.5965 22.7936 24.6419 22.901C24.6864 23.0062 24.7398 23.1055 24.8022 23.1989C24.8674 23.2967 24.9424 23.388 25.0272 23.4728C25.112 23.5576 25.2033 23.6326 25.3011 23.6979C25.3945 23.7602 25.4938 23.8136 25.599 23.8581C25.7064 23.9035 25.816 23.938 25.9279 23.9616C26.0493 23.9872 26.1733 24 26.3 24L28.7 24C28.8267 24 28.9507 23.9872 29.0721 23.9616C29.184 23.938 29.2936 23.9035 29.401 23.8581C29.5062 23.8136 29.6055 23.7602 29.6989 23.6979C29.7967 23.6326 29.888 23.5576 29.9728 23.4728C30.0576 23.388 30.1326 23.2967 30.1979 23.1989C30.2602 23.1055 30.3136 23.0062 30.3581 22.901C30.4035 22.7936 30.438 22.684 30.4616 22.5721ZM16.5 29.2C16.5 29.3267 16.4872 29.4508 16.4616 29.5721C16.438 29.684 16.4035 29.7936 16.3581 29.901C16.3136 30.0062 16.2602 30.1055 16.1979 30.1989C16.1326 30.2967 16.0576 30.388 15.9728 30.4728C15.888 30.5576 15.7967 30.6326 15.6989 30.6979C15.6055 30.7602 15.5062 30.8136 15.401 30.8581C15.2936 30.9035 15.184 30.938 15.0721 30.9616L15.0717 30.9617C14.9505 30.9872 14.8266 31 14.7 31L12.3 31C12.1733 31 12.0493 30.9872 11.9279 30.9616C11.816 30.938 11.7064 30.9035 11.599 30.8581C11.4938 30.8136 11.3945 30.7602 11.3011 30.6979C11.2033 30.6326 11.112 30.5576 11.0272 30.4728C10.9424 30.388 10.8674 30.2967 10.8022 30.1989C10.7398 30.1055 10.6864 30.0062 10.6419 29.901C10.5965 29.7936 10.562 29.684 10.5384 29.5721C10.5128 29.4507 10.5 29.3267 10.5 29.2L10.5 26.8C10.5 26.6733 10.5128 26.5493 10.5384 26.4279C10.562 26.316 10.5965 26.2064 10.6419 26.099C10.6864 25.9938 10.7398 25.8945 10.8021 25.8011C10.8674 25.7033 10.9424 25.612 11.0272 25.5272C11.1119 25.4425 11.2031 25.3676 11.3008 25.3023L11.3008 25.3023L11.3011 25.3021C11.3945 25.2398 11.4938 25.1864 11.599 25.1419C11.7063 25.0965 11.816 25.062 11.9279 25.0384L11.9279 25.0384C12.0493 25.0128 12.1733 25 12.3 25L14.7 25C14.8267 25 14.9507 25.0128 15.0721 25.0384C15.184 25.062 15.2936 25.0965 15.401 25.1419C15.5062 25.1864 15.6055 25.2398 15.6989 25.3021C15.7967 25.3674 15.888 25.4424 15.9728 25.5272C16.0576 25.612 16.1326 25.7033 16.1979 25.8011C16.2602 25.8945 16.3136 25.9938 16.3581 26.099C16.4035 26.2064 16.438 26.316 16.4616 26.4279C16.4872 26.5492 16.5 26.6733 16.5 26.8L16.5 29.2ZM23.4616 29.5721C23.4872 29.4508 23.5 29.3267 23.5 29.2L23.5 26.8C23.5 26.6733 23.4872 26.5492 23.4616 26.4279C23.438 26.316 23.4035 26.2064 23.3581 26.099C23.3136 25.9938 23.2602 25.8945 23.1979 25.8011C23.1326 25.7033 23.0576 25.612 22.9728 25.5272C22.888 25.4424 22.7967 25.3674 22.6989 25.3021L22.6985 25.3019L22.6985 25.3019C22.6052 25.2397 22.5061 25.1864 22.401 25.1419C22.2936 25.0965 22.184 25.062 22.0721 25.0384C21.9507 25.0128 21.8267 25 21.7 25L19.3 25C19.1733 25 19.0493 25.0128 18.9279 25.0384C18.816 25.062 18.7064 25.0965 18.599 25.1419C18.4938 25.1864 18.3945 25.2398 18.3011 25.3021C18.2033 25.3674 18.112 25.4424 18.0272 25.5272C17.9424 25.612 17.8674 25.7033 17.8021 25.8011C17.7398 25.8945 17.6864 25.9938 17.6419 26.099C17.5965 26.2064 17.562 26.316 17.5384 26.4279C17.5128 26.5493 17.5 26.6733 17.5 26.8L17.5 29.2C17.5 29.3267 17.5128 29.4507 17.5384 29.5721C17.562 29.684 17.5965 29.7936 17.6419 29.901C17.6864 30.0062 17.7398 30.1055 17.8022 30.1989C17.8674 30.2967 17.9424 30.388 18.0272 30.4728C18.112 30.5576 18.2033 30.6326 18.3011 30.6979C18.3945 30.7602 18.4938 30.8136 18.599 30.8581C18.7064 30.9035 18.816 30.938 18.9279 30.9616C19.0493 30.9872 19.1733 31 19.3 31L21.7 31C21.8267 31 21.9507 30.9872 22.0721 30.9616C22.184 30.938 22.2936 30.9035 22.401 30.8581C22.5062 30.8136 22.6055 30.7602 22.6989 30.6979L22.6989 30.6978L22.699 30.6978L22.6996 30.6974C22.7972 30.6322 22.8882 30.5574 22.9728 30.4728C23.0576 30.388 23.1326 30.2967 23.1979 30.1989C23.2602 30.1055 23.3136 30.0062 23.3581 29.901C23.4035 29.7936 23.438 29.684 23.4616 29.5721ZM30.5 29.2C30.5 29.3267 30.4872 29.4508 30.4616 29.5721C30.438 29.684 30.4035 29.7936 30.3581 29.901C30.3136 30.0062 30.2602 30.1055 30.1979 30.1989C30.1326 30.2967 30.0576 30.388 29.9728 30.4728C29.888 30.5576 29.7967 30.6326 29.6989 30.6979C29.6055 30.7602 29.5062 30.8136 29.401 30.8581C29.2936 30.9035 29.184 30.938 29.0721 30.9616C28.9507 30.9872 28.8267 31 28.7 31L26.3 31C26.1733 31 26.0493 30.9872 25.9279 30.9616C25.816 30.938 25.7064 30.9035 25.599 30.8581C25.4938 30.8136 25.3945 30.7602 25.3011 30.6979C25.2033 30.6326 25.112 30.5576 25.0272 30.4728C24.9424 30.388 24.8674 30.2967 24.8022 30.1989C24.7398 30.1055 24.6864 30.0062 24.6419 29.901C24.5965 29.7936 24.562 29.684 24.5384 29.5721C24.5128 29.4507 24.5 29.3267 24.5 29.2L24.5 26.8C24.5 26.6733 24.5128 26.5493 24.5384 26.4279C24.562 26.316 24.5965 26.2064 24.6419 26.099C24.6864 25.9938 24.7398 25.8945 24.8021 25.8011C24.8674 25.7033 24.9424 25.612 25.0272 25.5272C25.112 25.4424 25.2033 25.3674 25.3011 25.3021C25.3945 25.2398 25.4938 25.1864 25.599 25.1419C25.7064 25.0965 25.816 25.062 25.9279 25.0384C26.0493 25.0128 26.1733 25 26.3 25L28.7 25C28.8267 25 28.9507 25.0128 29.0721 25.0384C29.184 25.062 29.2936 25.0965 29.401 25.1419C29.5061 25.1864 29.6053 25.2397 29.6985 25.3019L29.6989 25.3021C29.7967 25.3674 29.888 25.4424 29.9728 25.5272C30.0576 25.612 30.1326 25.7033 30.1979 25.8011C30.2602 25.8945 30.3136 25.9938 30.3581 26.099C30.4035 26.2064 30.438 26.316 30.4616 26.4279C30.4872 26.5492 30.5 26.6733 30.5 26.8L30.5 29.2ZM37.5 29.2C37.5 29.3267 37.4872 29.4508 37.4616 29.5721C37.438 29.684 37.4035 29.7936 37.3581 29.901C37.3136 30.0062 37.2602 30.1055 37.1979 30.1989C37.1326 30.2967 37.0576 30.388 36.9728 30.4728C36.888 30.5576 36.7967 30.6326 36.6989 30.6979C36.6055 30.7602 36.5062 30.8136 36.401 30.8581C36.2936 30.9035 36.184 30.938 36.0721 30.9616C35.9507 30.9872 35.8267 31 35.7 31L33.3 31C33.1733 31 33.0493 30.9872 32.9279 30.9616C32.816 30.938 32.7064 30.9035 32.599 30.8581C32.4938 30.8136 32.3945 30.7602 32.3011 30.6979C32.2033 30.6326 32.112 30.5576 32.0272 30.4728C31.9424 30.388 31.8674 30.2967 31.8022 30.1989C31.7398 30.1055 31.6864 30.0062 31.6419 29.901C31.5965 29.7936 31.562 29.684 31.5384 29.5721C31.5128 29.4507 31.5 29.3267 31.5 29.2L31.5 26.8C31.5 26.6733 31.5128 26.5493 31.5384 26.4279C31.562 26.316 31.5965 26.2064 31.6419 26.099C31.6864 25.9938 31.7398 25.8945 31.8021 25.8011C31.8674 25.7033 31.9424 25.612 32.0272 25.5272C32.112 25.4424 32.2033 25.3674 32.3011 25.3021C32.3945 25.2398 32.4938 25.1864 32.599 25.1419C32.7064 25.0965 32.816 25.062 32.9279 25.0384L32.9281 25.0384C33.0494 25.0128 33.1733 25 33.3 25L35.7 25C35.8267 25 35.9507 25.0128 36.0721 25.0384C36.184 25.062 36.2936 25.0965 36.401 25.1419C36.5061 25.1864 36.6053 25.2397 36.6985 25.3019L36.6989 25.3021C36.7967 25.3674 36.888 25.4424 36.9728 25.5272C37.0576 25.612 37.1326 25.7033 37.1979 25.8011C37.2602 25.8945 37.3136 25.9938 37.3581 26.099C37.4035 26.2064 37.438 26.316 37.4616 26.4279C37.4872 26.5492 37.5 26.6733 37.5 26.8L37.5 29.2ZM16.5 36.2C16.5 36.3267 16.4872 36.4507 16.4616 36.572L16.4616 36.572L16.4616 36.5721C16.438 36.684 16.4035 36.7936 16.3581 36.901C16.3136 37.0062 16.2602 37.1055 16.1979 37.1989C16.1326 37.2967 16.0576 37.388 15.9728 37.4728C15.888 37.5576 15.7967 37.6326 15.6989 37.6979C15.6055 37.7602 15.5062 37.8136 15.401 37.8581C15.2936 37.9035 15.184 37.938 15.0721 37.9616C14.9507 37.9872 14.8267 38 14.7 38L12.3 38C12.1733 38 12.0493 37.9872 11.9279 37.9616L11.9271 37.9614C11.8154 37.9378 11.7061 37.9034 11.599 37.8581C11.4938 37.8136 11.3945 37.7602 11.3012 37.6979L11.3012 37.6979L11.3011 37.6979C11.2033 37.6326 11.112 37.5576 11.0272 37.4728C10.9424 37.388 10.8674 37.2967 10.8022 37.1989C10.7398 37.1055 10.6864 37.0062 10.6419 36.901C10.5965 36.7936 10.562 36.684 10.5384 36.5721C10.5128 36.4507 10.5 36.3267 10.5 36.2L10.5 33.8C10.5 33.6733 10.5128 33.5493 10.5384 33.4279C10.562 33.316 10.5965 33.2064 10.6419 33.099C10.6864 32.9938 10.7398 32.8945 10.8021 32.8011C10.8674 32.7033 10.9424 32.612 11.0272 32.5272C11.112 32.4424 11.2033 32.3674 11.3011 32.3021C11.3945 32.2398 11.4938 32.1864 11.599 32.1419C11.7064 32.0965 11.816 32.062 11.9279 32.0384C12.0493 32.0128 12.1733 32 12.3 32L14.7 32C14.8267 32 14.9507 32.0128 15.0721 32.0384C15.184 32.062 15.2936 32.0965 15.401 32.1419C15.5062 32.1864 15.6055 32.2398 15.6989 32.3022C15.7967 32.3674 15.888 32.4424 15.9728 32.5272C16.0576 32.612 16.1326 32.7033 16.1979 32.8011C16.2602 32.8945 16.3136 32.9938 16.3581 33.099C16.4035 33.2064 16.438 33.316 16.4616 33.4279C16.4872 33.5492 16.5 33.6733 16.5 33.8L16.5 36.2ZM23.4616 36.572L23.4616 36.5721C23.438 36.684 23.4035 36.7936 23.3581 36.901C23.3136 37.0062 23.2602 37.1055 23.1979 37.1989C23.1326 37.2967 23.0576 37.388 22.9728 37.4728C22.888 37.5576 22.7967 37.6326 22.6989 37.6979C22.6055 37.7602 22.5062 37.8136 22.401 37.8581C22.2936 37.9035 22.184 37.938 22.0721 37.9616C21.9507 37.9872 21.8267 38 21.7 38L19.3 38C19.1733 38 19.0493 37.9872 18.9279 37.9616C18.816 37.938 18.7064 37.9035 18.599 37.8581C18.4938 37.8136 18.3945 37.7602 18.3011 37.6979C18.2033 37.6326 18.112 37.5576 18.0272 37.4728C17.9424 37.388 17.8674 37.2967 17.8022 37.1989C17.7398 37.1055 17.6864 37.0062 17.6419 36.901C17.5965 36.7936 17.562 36.684 17.5384 36.5721C17.5128 36.4507 17.5 36.3267 17.5 36.2L17.5 33.8C17.5 33.6733 17.5128 33.5493 17.5384 33.4279C17.562 33.316 17.5965 33.2064 17.6419 33.099C17.6864 32.9938 17.7398 32.8945 17.8021 32.8011C17.8674 32.7033 17.9424 32.612 18.0272 32.5272C18.112 32.4424 18.2033 32.3674 18.3011 32.3021C18.3945 32.2398 18.4938 32.1864 18.599 32.1419C18.7064 32.0965 18.816 32.062 18.9279 32.0384C19.0493 32.0128 19.1733 32 19.3 32L21.7 32C21.8267 32 21.9507 32.0128 22.0721 32.0384C22.184 32.062 22.2936 32.0965 22.401 32.1419C22.5062 32.1864 22.6055 32.2398 22.6988 32.3021L22.6989 32.3021L22.6989 32.3022C22.7967 32.3674 22.888 32.4424 22.9728 32.5272C23.0576 32.612 23.1326 32.7033 23.1979 32.8011C23.2602 32.8945 23.3136 32.9938 23.3581 33.099C23.4035 33.2064 23.438 33.316 23.4616 33.4279C23.4872 33.5492 23.5 33.6733 23.5 33.8L23.5 36.2C23.5 36.3267 23.4872 36.4507 23.4616 36.572ZM30.4616 36.5721L30.4616 36.572L30.4618 36.5712C30.4873 36.4501 30.5 36.3264 30.5 36.2L30.5 33.8C30.5 33.6733 30.4872 33.5492 30.4616 33.4279C30.438 33.316 30.4035 33.2064 30.3581 33.099C30.3136 32.9938 30.2602 32.8945 30.1979 32.8011C30.1326 32.7033 30.0576 32.612 29.9728 32.5272C29.888 32.4424 29.7967 32.3674 29.6989 32.3022L29.6989 32.3021L29.6987 32.302C29.6054 32.2398 29.5061 32.1864 29.401 32.1419C29.2936 32.0965 29.184 32.062 29.0721 32.0384C28.9507 32.0128 28.8267 32 28.7 32L26.3 32C26.1733 32 26.0493 32.0128 25.9279 32.0384C25.816 32.062 25.7064 32.0965 25.599 32.1419C25.4938 32.1864 25.3945 32.2398 25.3011 32.3021C25.2033 32.3674 25.112 32.4424 25.0272 32.5272C24.9424 32.612 24.8674 32.7033 24.8021 32.8011C24.7398 32.8945 24.6864 32.9938 24.6419 33.099C24.5965 33.2064 24.562 33.316 24.5384 33.4279C24.5128 33.5493 24.5 33.6733 24.5 33.8L24.5 36.2C24.5 36.3267 24.5128 36.4507 24.5384 36.5721C24.562 36.684 24.5965 36.7936 24.6419 36.901C24.6864 37.0062 24.7398 37.1055 24.8022 37.1989C24.8674 37.2967 24.9424 37.388 25.0272 37.4728C25.112 37.5576 25.2033 37.6326 25.3011 37.6979C25.3945 37.7602 25.4938 37.8136 25.599 37.8581C25.7064 37.9035 25.816 37.938 25.9279 37.9616C26.0493 37.9872 26.1733 38 26.3 38L28.7 38C28.8267 38 28.9507 37.9872 29.0721 37.9616C29.184 37.938 29.2936 37.9035 29.401 37.8581C29.5062 37.8136 29.6055 37.7602 29.6989 37.6979C29.7967 37.6326 29.888 37.5576 29.9728 37.4728C30.0576 37.388 30.1326 37.2967 30.1979 37.1989C30.2602 37.1055 30.3136 37.0062 30.3581 36.901C30.4035 36.7936 30.438 36.684 30.4616 36.5721ZM37.4616 36.572L37.4616 36.5721C37.438 36.684 37.4035 36.7936 37.3581 36.901C37.3136 37.0062 37.2602 37.1055 37.1979 37.1989C37.1326 37.2967 37.0576 37.388 36.9728 37.4728C36.888 37.5576 36.7967 37.6326 36.6989 37.6979C36.6055 37.7602 36.5062 37.8136 36.401 37.8581C36.2936 37.9035 36.184 37.938 36.0721 37.9616C35.9507 37.9872 35.8267 38 35.7 38L33.3 38C33.1733 38 33.0493 37.9872 32.9279 37.9616L32.9278 37.9616L32.9277 37.9616C32.8159 37.938 32.7063 37.9035 32.599 37.8581C32.4938 37.8136 32.3945 37.7602 32.3011 37.6979C32.2033 37.6326 32.112 37.5576 32.0272 37.4728C31.9424 37.388 31.8674 37.2967 31.8022 37.1989C31.7398 37.1055 31.6864 37.0062 31.6419 36.901C31.5965 36.7936 31.562 36.684 31.5384 36.5721C31.5128 36.4507 31.5 36.3267 31.5 36.2L31.5 33.8C31.5 33.6733 31.5128 33.5493 31.5384 33.4279C31.562 33.316 31.5965 33.2064 31.6419 33.099C31.6864 32.9938 31.7398 32.8945 31.8021 32.8011C31.8674 32.7033 31.9424 32.612 32.0272 32.5272C32.112 32.4424 32.2033 32.3674 32.3011 32.3021C32.3945 32.2398 32.4938 32.1864 32.599 32.1419C32.7064 32.0965 32.816 32.062 32.9279 32.0384L32.9281 32.0384L32.9282 32.0383C33.0494 32.0128 33.1734 32 33.3 32L35.7 32C35.8267 32 35.9507 32.0128 36.0721 32.0384C36.184 32.062 36.2936 32.0965 36.401 32.1419C36.5061 32.1864 36.6054 32.2398 36.6987 32.302L36.6989 32.3021L36.6989 32.3022C36.7967 32.3674 36.888 32.4424 36.9728 32.5272C37.0576 32.612 37.1326 32.7033 37.1979 32.8011C37.2602 32.8945 37.3136 32.9938 37.3581 33.099C37.4035 33.2064 37.438 33.316 37.4616 33.4279C37.4872 33.5492 37.5 33.6733 37.5 33.8L37.5 36.2C37.5 36.3264 37.4873 36.4501 37.4618 36.5712L37.4616 36.572Z" fill="#AEAEAE" fill-rule="evenodd"/>
</svg>
