<svg viewBox="0 0 48 48" xmlns="http://www.w3.org/2000/svg" xmlns:xlink="http://www.w3.org/1999/xlink" width="48.000000" height="48.000000" fill="none">
  <path id="矢量 12" d="M15.96 10.1L22.22 6.46C22.5 6.3 22.78 6.18 23.06 6.1C23.36 6.02 23.66 6 23.98 6C24.3 6 24.6 6.02 24.9 6.1C25.18 6.18 25.46 6.3 25.74 6.46L32 10.1C32.26 10.26 32.5 10.44 32.72 10.66C32.92 10.88 33.1 11.12 33.26 11.38C33.42 11.66 33.54 11.94 33.62 12.22C33.7 12.52 33.74 12.82 33.74 13.12L33.74 20.44C33.74 20.54 33.72 20.64 33.72 20.72C33.82 20.78 33.9 20.82 34 20.88L40.26 24.52C40.52 24.68 40.76 24.86 40.98 25.08C41.18 25.28 41.36 25.52 41.52 25.8C41.68 26.06 41.8 26.34 41.88 26.64C41.96 26.92 42 27.24 42 27.54L42 34.86C42 35.16 41.96 35.46 41.88 35.76C41.8 36.04 41.68 36.32 41.52 36.6C41.36 36.86 41.18 37.1 40.98 37.32C40.76 37.54 40.52 37.72 40.26 37.88L34 41.52C33.72 41.68 33.44 41.8 33.16 41.88C32.86 41.96 32.56 42 32.24 42C31.92 42 31.62 41.96 31.32 41.88C31.04 41.8 30.76 41.68 30.48 41.52L24.22 37.88C24.14 37.82 24.06 37.78 24 37.72C23.92 37.78 23.84 37.82 23.76 37.88L17.5 41.52C17.22 41.68 16.94 41.8 16.66 41.88C16.36 41.96 16.06 42 15.74 42C15.42 42 15.12 41.96 14.82 41.88C14.54 41.8 14.26 41.68 13.98 41.52L7.72 37.88C7.46 37.72 7.22 37.54 7 37.32C6.8 37.1 6.62 36.86 6.46 36.6C6.3 36.32 6.18 36.04 6.1 35.76C6.02 35.46 6 35.16 6 34.86L6 27.54C6 27.24 6.02 26.92 6.1 26.64C6.18 26.34 6.3 26.06 6.46 25.8C6.62 25.52 6.8 25.28 7 25.08C7.22 24.86 7.46 24.68 7.72 24.52L13.98 20.88C14.06 20.82 14.16 20.78 14.24 20.74C14.24 20.64 14.24 20.54 14.24 20.44L14.24 13.12C14.24 12.82 14.26 12.52 14.34 12.22C14.42 11.94 14.54 11.66 14.7 11.38C14.86 11.12 15.04 10.88 15.24 10.66C15.46 10.44 15.7 10.26 15.96 10.1ZM27.82 12.3L23.98 10.06L20.12 12.3L23.98 14.66L27.82 12.3ZM25.98 22.34L29.74 20.16L29.74 15.84L25.98 18.12L25.98 22.34ZM18.24 15.84L18.24 20.16L21.98 22.34L21.98 18.12L18.24 15.84ZM15.74 24.48L19.58 26.72L15.74 29.06L11.9 26.72L15.74 24.48ZM26.5 30.24L26.5 34.56L30.24 36.74L30.24 32.52L26.5 30.24ZM28.4 26.72L32.24 29.06L36.08 26.72L32.24 24.48L28.4 26.72ZM38 30.24L34.24 32.52L34.24 36.76L38 34.56L38 30.24ZM21.5 34.56L17.74 36.76L17.74 32.52L21.5 30.24L21.5 34.56ZM10 34.56L10 30.24L13.74 32.52L13.74 36.74L10 34.56Z" fill="#191919" fill-rule="evenodd"/>
</svg>
