<svg viewBox="0 0 48 48" xmlns="http://www.w3.org/2000/svg" xmlns:xlink="http://www.w3.org/1999/xlink" width="48.000000" height="48.000000" fill="none">
  <path id="合并" d="M17.7286 7.41401L7.4142 17.7284C6.15427 18.9884 7.0466 21.1427 8.82841 21.1427L19.1428 21.1427C20.2474 21.1427 21.1428 20.2472 21.1428 19.1427L21.1428 8.82823C21.1428 7.04642 18.9886 6.15409 17.7286 7.41401ZM30.2713 7.41401L40.5858 17.7284C41.8457 18.9884 40.9534 21.1427 39.1716 21.1427L28.8571 21.1427C27.7526 21.1427 26.8571 20.2472 26.8571 19.1427L26.8571 8.82823C26.8571 7.04642 29.0114 6.15409 30.2713 7.41401ZM17.7286 40.5856L12.5714 35.4284L7.4142 30.2712C6.15427 29.0112 7.0466 26.8569 8.82841 26.8569L19.1428 26.8569C20.2474 26.8569 21.1428 27.7524 21.1428 28.8569L21.1428 39.1714C21.1428 40.9532 18.9886 41.8455 17.7286 40.5856ZM30.2713 40.5856L35.4286 35.4284L40.5858 30.2712C41.8457 29.0112 40.9534 26.8569 39.1716 26.8569L28.8571 26.8569C27.7526 26.8569 26.8571 27.7524 26.8571 28.8569L26.8571 39.1714C26.8571 40.9532 29.0114 41.8455 30.2713 40.5856Z" fill="#191919" fill-rule="evenodd"/>
  <circle id="椭圆 38" cx="23.9999962" cy="23.9997215" r="2.85714293" fill="#AEAEAE"/>
</svg>
