<svg viewBox="0 0 48 48" xmlns="http://www.w3.org/2000/svg" xmlns:xlink="http://www.w3.org/1999/xlink" width="48.000000" height="48.000000" fill="none">
  <path id="矢量 1810(边框)" d="M25 5L25 14C25 15.12 24.12 16 23 16C21.88 16 21 15.12 21 14L21 5C21 3.88 21.88 3 23 3C24.12 3 25 3.88 25 5Z" fill="#191919" fill-rule="evenodd"/>
  <path id="矢量 1811(边框)" d="M25 34L25 43C25 44.12 24.12 45 23 45C21.88 45 21 44.12 21 43L21 34C21 32.88 21.88 32 23 32C24.12 32 25 32.88 25 34Z" fill="#191919" fill-rule="evenodd"/>
  <path id="矢量 1812(边框)" d="M4 2L4 11C4 12.12 3.12 13 2 13C0.88 13 0 12.12 0 11L0 2C0 0.88 0.88 0 2 0C3.12 0 4 0.88 4 2Z" fill="#191919" fill-rule="evenodd" transform="matrix(0,-1,1,0,3,26)"/>
  <path id="矢量 1813(边框)" d="M4 2L4 11C4 12.12 3.12 13 2 13C0.88 13 0 12.12 0 11L0 2C0 0.88 0.88 0 2 0C3.12 0 4 0.88 4 2Z" fill="#191919" fill-rule="evenodd" transform="matrix(0,-1,1,0,32,26)"/>
  <path id="矢量 1814(边框)" d="M4 2L4 11C4 12.12 3.12 13 2 13C0.88 13 0 12.12 0 11L0 2C0 0.88 0.88 0 2 0C3.12 0 4 0.88 4 2Z" fill="#191919" fill-rule="evenodd" transform="matrix(0.707107,0.707107,-0.707107,0.707107,37,7.17139)"/>
  <path id="矢量 1815(边框)" d="M4 2L4 11C4 12.12 3.12 13 2 13C0.88 13 0 12.12 0 11L0 2C0 0.88 0.88 0 2 0C3.12 0 4 0.88 4 2Z" fill="#191919" fill-rule="evenodd" transform="matrix(0.707107,0.707107,-0.707107,0.707107,16,28.1714)"/>
  <path id="矢量 1816(边框)" d="M4 2L4 11C4 12.12 3.12 13 2 13C0.88 13 0 12.12 0 11L0 2C0 0.88 0.88 0 2 0C3.12 0 4 0.88 4 2Z" fill="#191919" fill-rule="evenodd" transform="matrix(0.707107,-0.707107,0.707107,0.707107,7.17154,10)"/>
  <path id="矢量 1817(边框)" d="M4 2L4 11C4 12.12 3.12 13 2 13C0.88 13 0 12.12 0 11L0 2C0 0.88 0.88 0 2 0C3.12 0 4 0.88 4 2Z" fill="#191919" fill-rule="evenodd" transform="matrix(0.707107,-0.707107,0.707107,0.707107,28.1715,31)"/>
</svg>
