<svg viewBox="0 0 48 48" xmlns="http://www.w3.org/2000/svg" xmlns:xlink="http://www.w3.org/1999/xlink" width="48.000000" height="48.000000" fill="none">
  <path id="合并" d="M24.4543 16.5261L27.6334 13.5457C27.9356 13.2624 28.0933 12.9137 28.1067 12.4997C28.1201 12.0857 27.9851 11.7276 27.7018 11.4254C27.6907 11.4137 27.6795 11.402 27.6681 11.3906C27.6567 11.3792 27.6451 11.3681 27.6334 11.3571L24.4543 8.37666C23.8415 7.80215 22.9086 7.83224 22.3341 8.44505C21.7596 9.05786 21.7897 9.99076 22.4025 10.5653L22.8145 10.9515L19.902 10.9515C19.062 10.9515 18.402 11.6115 18.402 12.4515C18.402 13.2915 19.062 13.9515 19.902 13.9515L22.8141 13.9515L22.4025 14.3374C21.7897 14.912 21.7596 15.8448 22.3341 16.4577C22.9086 17.0705 23.8415 17.1006 24.4543 16.5261ZM15.7806 23.5449L12.8002 20.3658C12.6585 20.2147 12.5006 20.0998 12.3263 20.0209L12.3262 20.0208L12.3261 20.0208C12.1518 19.9419 11.9612 19.8992 11.7542 19.8925C11.3402 19.8791 10.9821 20.0141 10.68 20.2974C10.6682 20.3085 10.6566 20.3197 10.6451 20.3311C10.6338 20.3425 10.6226 20.3541 10.6116 20.3658L7.63118 23.5449C7.05666 24.1577 7.08676 25.0906 7.69957 25.6651C8.31238 26.2396 9.24528 26.2095 9.81979 25.5967L10.2059 25.1849L10.2059 28.098C10.2059 28.938 10.8659 29.598 11.7059 29.598C12.5459 29.598 13.2059 28.938 13.2059 28.098L13.2059 25.1849L13.592 25.5967C14.1665 26.2095 15.0994 26.2396 15.7122 25.6651C16.325 25.0906 16.3551 24.1577 15.7806 23.5449ZM36.6433 20.3658L39.6237 23.5449C40.1982 24.1577 40.1681 25.0906 39.5553 25.6651C38.9425 26.2396 38.0096 26.2095 37.4351 25.5967L37.049 25.1849L37.049 28.098C37.049 28.938 36.389 29.598 35.549 29.598C34.709 29.598 34.049 28.938 34.049 28.098L34.049 25.1849L33.6629 25.5967C33.0884 26.2095 32.1555 26.2396 31.5427 25.6651C30.9299 25.0906 30.8998 24.1577 31.4743 23.5449L34.4547 20.3658C34.4593 20.361 34.4638 20.3561 34.4685 20.3514C34.475 20.3446 34.4816 20.3378 34.4883 20.3311C34.4997 20.3197 34.5113 20.3085 34.5231 20.2974C34.8253 20.0141 35.1834 19.8791 35.5974 19.8925C35.8044 19.8992 35.9951 19.942 36.1694 20.0208C36.3437 20.0997 36.5017 20.2147 36.6433 20.3658Z" fill="#AEAEAE" fill-rule="evenodd"/>
  <path id="合并" d="M11.7059 5.74512C15.4094 5.74512 18.4118 8.74744 18.4118 12.451C18.4118 16.1546 15.4094 19.1569 11.7059 19.1569C8.00233 19.1569 5 16.1546 5 12.451C5 8.74744 8.00233 5.74512 11.7059 5.74512ZM41.5858 11.0368C42.3668 11.8178 42.3668 13.0841 41.5858 13.8652L36.9632 18.4877C36.1822 19.2688 34.9159 19.2688 34.1348 18.4877L29.5123 13.8652C28.7312 13.0841 28.7312 11.8178 29.5123 11.0368L34.1348 6.41421C34.9159 5.63316 36.1822 5.63316 36.9632 6.41421L41.5858 11.0368ZM35.549 29.5879C39.2526 29.5879 42.2549 32.5902 42.2549 36.2938C42.2549 39.9973 39.2526 42.9997 35.549 42.9997C31.8455 42.9997 28.8431 39.9973 28.8431 36.2938C28.8431 32.5902 31.8455 29.5879 35.549 29.5879ZM15.6667 30.333C16.7712 30.333 17.6667 31.2284 17.6667 32.333L17.6667 40.2546C17.6667 41.3591 16.7712 42.2546 15.6667 42.2546L7.74509 42.2546C6.64052 42.2546 5.74509 41.3591 5.74509 40.2546L5.74509 32.333C5.74509 31.2284 6.64052 30.333 7.74509 30.333L15.6667 30.333Z" fill="#191919" fill-rule="evenodd"/>
</svg>
