<svg viewBox="0 0 48 48" xmlns="http://www.w3.org/2000/svg" xmlns:xlink="http://www.w3.org/1999/xlink" width="48.000000" height="48.000000" fill="none">
  <path id="形状结合" d="M37.9918 7.83008C39.5919 7.83008 41.0959 8.46061 42.2119 9.56288C42.2906 9.64159 42.3651 9.73339 42.4227 9.82347C42.4446 9.87112 42.5645 10.1055 42.5812 10.1559C42.5939 10.2007 42.6262 10.3191 42.6346 10.3662C42.6398 10.4102 42.6562 10.547 42.6573 10.5926C42.6563 10.6363 42.6527 10.7617 42.6476 10.8057C42.6404 10.8451 42.6152 10.9885 42.6045 11.0276C42.5659 11.1414 42.486 11.3389 42.419 11.4427L42.2183 11.6907L27.1823 26.7267C25.5082 28.4008 22.8437 28.4805 21.0753 26.9659L20.817 26.7267L9.93895 15.8487C9.35317 15.263 9.35317 14.3132 9.93895 13.7274C10.4715 13.1949 11.3048 13.1465 11.892 13.5822L22.9383 24.6054C23.4712 25.1383 24.305 25.1868 24.8926 24.7508L38.7405 10.9238C38.5937 10.8863 38.4432 10.8597 38.2901 10.8447L37.9918 10.8301L10.0078 10.8301C8.44774 10.8301 7.16684 12.0192 7.02154 13.541L7.00781 13.8301L7.00781 34.1701C7.00781 35.7301 8.19695 37.0111 9.71878 37.1563L10.0078 37.1701L37.9918 37.1701C39.5519 37.1701 40.8328 35.9809 40.9781 34.4591L40.9918 34.1701L40.9918 16.3402C40.9918 15.5117 41.6634 14.8402 42.4918 14.8402C43.2512 14.8402 43.8788 15.4045 43.9781 16.1366L43.9918 16.3402L43.9918 34.1701C43.9918 37.3661 41.4946 39.9774 38.3444 40.1599L37.9918 40.1701L10.0078 40.1701C6.81176 40.1701 4.20044 37.6729 4.018 34.5227L4.00781 34.1701L4.00781 13.8301C4.00781 10.634 6.50498 8.02271 9.6552 7.84026L10.0078 7.83008L37.9918 7.83008Z" fill="#191919" fill-rule="evenodd"/>
</svg>
