<svg viewBox="0 0 48 48" xmlns="http://www.w3.org/2000/svg" xmlns:xlink="http://www.w3.org/1999/xlink" width="48.000000" height="48.000000" fill="none">
  <path id="合并" d="M24 42.5L13 42.5C11.9834 42.5 11.0102 42.3033 10.0802 41.91C9.18273 41.5304 8.38823 40.9948 7.6967 40.3033C7.33386 39.9405 7.01395 39.5493 6.73699 39.1297C6.48609 38.7497 6.27043 38.3464 6.09 37.9198Q5.82032 37.2822 5.67391 36.6175Q5.5 35.8279 5.5 35L5.5 13Q5.5 12.1721 5.6739 11.3826Q5.82032 10.7178 6.09 10.0802Q6.36064 9.44034 6.73699 8.87027L6.73699 8.87026Q7.15244 8.24096 7.6967 7.6967Q8.24097 7.15243 8.87028 6.73698Q9.44035 6.36064 10.0802 6.09Q10.7178 5.82034 11.3825 5.67393L11.3825 5.67391Q12.1721 5.5 13 5.5L35 5.5Q35.8279 5.5 36.6175 5.67391Q37.2822 5.82032 37.9198 6.09C38.3464 6.27044 38.7497 6.48612 39.1298 6.73704C39.5493 7.01399 39.9405 7.33388 40.3033 7.6967C40.6661 8.05949 40.986 8.45062 41.2629 8.87009C41.5138 9.25019 41.7295 9.65356 41.91 10.0802C42.3033 11.0102 42.5 11.9834 42.5 13L42.5 21C42.5 21.84 41.84 22.5 41 22.5C40.16 22.5 39.5 21.84 39.5 21L39.5 13C39.5 12.389 39.3823 11.8053 39.147 11.2489C38.9193 10.7107 38.5977 10.2337 38.182 9.81802C37.7663 9.40232 37.2893 9.08065 36.7511 8.85302C36.1947 8.61767 35.611 8.5 35 8.5L13 8.5Q12.4762 8.5 11.9791 8.61531L11.9791 8.61532C11.7307 8.67295 11.4873 8.75218 11.2489 8.85302C11.0019 8.95747 10.7678 9.08173 10.5467 9.22579C10.2858 9.39567 10.043 9.59308 9.81802 9.81802C9.59308 10.043 9.39567 10.2858 9.2258 10.5466C9.08174 10.7678 8.95748 11.0019 8.85302 11.2489C8.75218 11.4873 8.67295 11.7307 8.61531 11.9791L8.61531 11.9791Q8.5 12.4762 8.5 13L8.5 35Q8.5 35.5238 8.61533 36.021C8.67296 36.2694 8.75219 36.5128 8.85302 36.7511C9.08065 37.2893 9.40232 37.7663 9.81802 38.182C10.2337 38.5977 10.7107 38.9193 11.2489 39.147C11.8053 39.3823 12.389 39.5 13 39.5L24 39.5C24.84 39.5 25.5 40.16 25.5 41C25.5 41.84 24.84 42.5 24 42.5ZM17 15C17 13.8955 16.1046 13 15 13C13.8954 13 13 13.8955 13 15C13 16.1045 13.8954 17 15 17C16.1046 17 17 16.1045 17 15ZM33.7286 15C33.7286 14.1714 33.057 13.5 32.2286 13.5L21.4957 13.5L21.2922 13.5137C20.56 13.6128 19.9957 14.2407 19.9957 15C19.9957 15.7593 20.56 16.3872 21.2922 16.4863L21.4957 16.5L32.2286 16.5L32.4322 16.4863C33.1643 16.3872 33.7286 15.7593 33.7286 15ZM17 22.0098C17 20.9053 16.1046 20.0098 15 20.0098C13.8954 20.0098 13 20.9053 13 22.0098C13 23.1143 13.8954 24.0098 15 24.0098C16.1046 24.0098 17 23.1143 17 22.0098ZM26.7286 22.0098C26.7286 21.1812 26.057 20.5098 25.2286 20.5098L21.4957 20.5098L21.2922 20.5234C20.56 20.6226 19.9957 21.2505 19.9957 22.0098C19.9957 22.769 20.56 23.3965 21.2922 23.4961L21.4957 23.5098L25.2286 23.5098L25.4322 23.4961C26.1643 23.3965 26.7286 22.769 26.7286 22.0098Z" fill="#191919" fill-rule="evenodd"/>
  <path id="矢量 1943" d="M36.742 22.603L36.4153 22.4316C35.0879 21.8037 33.5269 21.8608 32.2418 22.603L27.2498 25.4853L26.9598 25.6675C25.7395 26.5019 25 27.8891 25 29.3818L25 35.146L25.013 35.4882C25.1252 36.9624 25.9571 38.2963 27.2498 39.0429L32.242 41.9252L32.5687 42.0961C33.8961 42.7241 35.4571 42.6669 36.7422 41.9247L41.734 39.0429L42.024 38.8603C43.2445 38.0258 43.984 36.6386 43.984 35.146L43.984 29.3818L43.971 29.0395C43.8587 27.5654 43.0269 26.2319 41.7342 25.4853L36.742 22.603ZM33.742 25.2012L33.9468 25.1025C34.3672 24.9385 34.8442 24.9712 35.2418 25.2007L40.4217 28.2114C40.774 28.4931 40.984 28.9228 40.984 29.3818L40.984 35.146L40.9668 35.3725C40.8987 35.8188 40.6318 36.2153 40.2338 36.4453L35.242 39.3271L35.0372 39.4252C34.6168 39.5893 34.1398 39.5566 33.7422 39.3271L28.5623 36.3168C28.21 36.0346 28 35.6054 28 35.146L28 29.3818L28.0172 29.1553C28.0853 28.7095 28.3522 28.313 28.7502 28.083L33.742 25.2012ZM31.9345 28.1367C31.7375 28.2226 31.5683 28.3574 31.4417 28.5268L30.0153 30.1118C29.547 30.6323 29.5879 31.4091 30.1082 31.8774C30.4189 32.1567 30.8211 32.2549 31.1944 32.1777L31.1944 35.2812C31.1944 35.9814 31.7444 36.5312 32.4444 36.5312C33.1444 36.5312 33.6944 35.9814 33.6944 35.2812L33.6944 29.3916C33.7137 29.1806 33.6783 28.9673 33.5893 28.7715C33.4563 28.4668 33.2064 28.229 32.8933 28.1118C32.582 27.9897 32.2371 27.999 31.9345 28.1367ZM38.7811 32.6855C38.4704 32.4057 38.0682 32.3076 37.6949 32.3847L37.6949 29.2812C37.6949 28.581 37.1449 28.0312 36.4449 28.0312C35.7449 28.0312 35.1949 28.581 35.1949 29.2812L35.1949 35.1713C35.1757 35.3818 35.2111 35.5952 35.3 35.791C35.433 36.0957 35.683 36.3335 35.9961 36.4506C36.3073 36.5732 36.6522 36.5634 36.9548 36.4262C37.1519 36.3403 37.321 36.205 37.4477 36.0356L38.874 34.4506C39.3423 33.9306 39.3014 33.1538 38.7811 32.6855Z" fill="#AEAEAE" fill-rule="evenodd"/>
</svg>
