<svg viewBox="0 0 48 48" xmlns="http://www.w3.org/2000/svg" xmlns:xlink="http://www.w3.org/1999/xlink" width="48.000000" height="48.000000" fill="none">
  <path id="合并" d="M27.6684 5L32.526 5L32.526 12.2362L30.8241 15.7075C30.5279 16.3118 29.6665 16.3118 29.3703 15.7075L27.6684 12.2362L27.6684 12.2357L17.9534 12.2357L17.9534 31.6658L9.85751 31.6658L9.85751 8.99734C9.85751 8.10309 10.5824 7.37816 11.4767 7.37816L27.6684 7.37816L27.6684 5ZM37.3835 18.7119C37.3835 17.8177 36.6586 17.0928 35.7643 17.0928L22.8109 17.0928C21.9167 17.0928 21.1917 17.8177 21.1917 18.7119L21.1917 28.427C21.1917 29.3212 21.9167 30.0462 22.8109 30.0462L35.7643 30.0462C36.6586 30.0462 37.3835 29.3212 37.3835 28.427L37.3835 18.7119Z" fill="#AEAEAE" fill-rule="evenodd"/>
  <path id="形状结合" d="M42.241 37.3331C42.241 34.2033 39.7038 31.666 36.5739 31.666L10.6671 31.666C7.53725 31.666 5 34.2033 5 37.3331C5 40.463 7.53725 43.0002 10.6671 43.0002L36.5739 43.0002C39.7038 43.0002 42.241 40.463 42.241 37.3331ZM14.715 37.3331C14.715 35.9918 13.6277 34.9044 12.2863 34.9044C10.9449 34.9044 9.85752 35.9918 9.85752 37.3331C9.85752 38.6745 10.9449 39.7619 12.2863 39.7619C13.6277 39.7619 14.715 38.6745 14.715 37.3331ZM26.0493 37.3331C26.0493 35.9918 24.9619 34.9044 23.6205 34.9044C22.2791 34.9044 21.1917 35.9918 21.1917 37.3331C21.1917 38.6745 22.2791 39.7619 23.6205 39.7619C24.9619 39.7619 26.0493 38.6745 26.0493 37.3331ZM34.9547 34.9044C36.2961 34.9044 37.3835 35.9918 37.3835 37.3331C37.3835 38.6745 36.2961 39.7619 34.9547 39.7619C33.6134 39.7619 32.526 38.6745 32.526 37.3331C32.526 35.9918 33.6134 34.9044 34.9547 34.9044Z" fill="#191919" fill-rule="evenodd"/>
</svg>
