<svg viewBox="0 0 48 48" xmlns="http://www.w3.org/2000/svg" xmlns:xlink="http://www.w3.org/1999/xlink" width="48.000000" height="48.000000" fill="none">
  <path id="减去顶层" d="M27.65 5.06813C26.996 4.41213 26.092 4.03613 25.168 4.03613L12.078 4.03613C8.77 4.03613 6.078 6.72813 6.078 10.0361L6.078 37.9641C6.078 41.2721 8.77 43.9641 12.078 43.9641L20.8049 43.9641C20.6111 43.6106 20.5 43.1363 20.5 42.5002C20.5 41.4413 20.6967 40.7011 21 40.1841L21 38.9595C20.8282 38.709 20.6965 38.4248 20.6123 38.1046L18.0272 24.7783L18.0045 24.656C17.9482 24.1279 18.4283 23.6558 19.0606 23.6558L37.922 23.6552L37.922 16.8241C37.922 15.8921 37.56 15.0161 36.904 14.3581L27.65 5.06813ZM25.5194 13.5127L25.524 7.18413L34.8117 16.5118L28.5194 16.5127L28.2316 16.4989C26.7153 16.3529 25.5194 15.0657 25.5194 13.5127ZM20 15.5C20 14.6719 19.3284 14 18.5 14L11.5 14L11.2964 14.0137C10.5643 14.1133 10 14.7402 10 15.5C10 16.3281 10.6716 17 11.5 17L18.5 17L18.7036 16.9863C19.4357 16.8867 20 16.2598 20 15.5ZM15.5 20C16.3284 20 17 20.6719 17 21.5C17 22.2598 16.4357 22.8867 15.7036 22.9863L15.5 23L11.5 23C10.6716 23 10 22.3281 10 21.5C10 20.7402 10.5643 20.1133 11.2964 20.0137L11.5 20L15.5 20ZM15 27.5C15 26.6719 14.3284 26 13.5 26L11.5 26L11.2964 26.0137C10.5643 26.1133 10 26.7402 10 27.5C10 28.3281 10.6716 29 11.5 29L13.5 29L13.7036 28.9863C14.4357 28.8867 15 28.2598 15 27.5Z" fill="#191919" fill-rule="evenodd"/>
  <path id="形状结合备份" d="M3.09566 1.68699C2.77396 0.688039 1.84092 0 0.777433 0C0.348069 0 0 0.347606 0 0.776401C0 1.20519 0.348069 1.5528 0.777433 1.5528L0.897385 1.56096C1.2513 1.60942 1.54626 1.8695 1.63301 2.22448L4.71095 15.7845C5.65093 16.0646 6.3384 16.951 6.3384 18.0014C6.33764 16.7267 5.32434 15.6938 4.07633 15.6938C2.82491 15.6938 1.81107 16.7272 1.81107 18.0028C1.81107 19.2773 2.82379 20.3086 4.07633 20.3086C5.17266 20.3086 6.08648 19.5145 6.29414 18.4592L15.4372 18.4592C15.645 19.5147 16.5593 20.3086 17.6582 20.3086C18.9078 20.3086 19.9203 19.277 19.9203 18.0028C19.9203 16.7274 18.9067 15.6938 17.6582 15.6938C16.4068 15.6938 15.393 16.7272 15.393 18.0028C15.393 18.0276 15.3934 18.0522 15.3941 18.0768C15.3933 18.0517 15.3929 18.0266 15.3929 18.0014C15.3929 17.3835 15.6308 16.8225 16.0182 16.4082L6.45834 16.4082L6.07953 13.8779L17.0531 13.8788L17.2412 13.8732C18.6113 13.791 19.7763 12.816 20.0844 11.4653L21.9801 3.19701L21.9967 3.09333C22.038 2.64699 21.686 2.24732 21.2222 2.24732L3.23827 2.24639L3.14354 1.85629L3.09566 1.68699Z" fill="#AEAEAE" fill-rule="evenodd" transform="matrix(-1,0,0,1,42,24)"/>
</svg>
