<svg viewBox="0 0 48 48" xmlns="http://www.w3.org/2000/svg" xmlns:xlink="http://www.w3.org/1999/xlink" width="48.000000" height="48.000000" fill="none">
  <path id="减去顶层" d="M27.248 4C28.172 4 29.076 4.376 29.73 5.032L38.984 14.322C39.64 14.98 40.002 15.856 40.002 16.788L40.002 38.004C40.002 41.312 37.31 44.004 34.002 44.004L14 44.004C10.692 44.004 8 41.312 8 38.004L8 10C8 6.692 10.692 4 14 4L27.248 4ZM27.598 7.144L27.5994 13.4766C27.5994 15.0295 28.7952 16.3167 30.3116 16.4628L30.5994 16.4766L36.8917 16.4756L27.598 7.144ZM15.4999 30.3029L13.1263 32.6765C12.6948 33.1079 11.9953 33.1079 11.5639 32.6765L11.3235 32.4361C10.8921 32.0047 10.8921 31.3052 11.3235 30.8737L13.6971 28.5001L11.3235 26.1264C11.1163 25.9192 10.9999 25.6382 10.9999 25.3452C10.9999 25.0522 11.1163 24.7712 11.3235 24.564L11.5639 24.3237C11.771 24.1165 12.052 24.0001 12.3451 24.0001C12.6381 24.0001 12.9191 24.1165 13.1263 24.3237L15.4999 26.6973L17.8736 24.3237C18.0807 24.1165 18.3618 24.0001 18.6548 24.0001C18.9478 24.0001 19.2288 24.1165 19.436 24.3237L19.6763 24.564C19.8835 24.7712 19.9999 25.0522 19.9999 25.3452C19.9999 25.6382 19.8835 25.9192 19.6763 26.1264L17.3027 28.5001L19.6763 30.8737C20.1077 31.3052 20.1077 32.0047 19.6763 32.4361L19.4359 32.6765C19.0045 33.1079 18.305 33.1079 17.8735 32.6765L15.4999 30.3029ZM30.4999 25.0001L30.4999 32.0001C30.4999 32.5524 30.9476 33.0001 31.4999 33.0001L36.423 33.0001C36.9753 33.0001 37.423 32.5524 37.423 32.0001L37.423 31.6924C37.423 31.1401 36.9753 30.6924 36.423 30.6924L32.8076 30.6924L32.8076 25.0001C32.8076 24.4478 32.3599 24.0001 31.8076 24.0001L31.4999 24.0001C30.9476 24.0001 30.4999 24.4478 30.4999 25.0001ZM24.0303 30.0275L23.2763 28.7216L22.795 32.1465C22.7581 32.4091 22.6183 32.6464 22.4065 32.806C22.1947 32.9656 21.9282 33.0345 21.6655 32.9976L21.3608 32.9548C20.8139 32.8779 20.4329 32.3723 20.5098 31.8253L21.4091 25.4264C21.3106 25.0785 21.4075 24.7045 21.6627 24.4483C21.7215 24.3667 21.7921 24.2945 21.8724 24.234C22.0151 24.1264 22.1841 24.0591 22.3617 24.039C22.6381 23.9596 22.9353 24.0031 23.1774 24.1583C23.5066 24.3013 23.7339 24.6097 23.773 24.9665L25.231 27.4919L26.6894 24.966C26.7287 24.6097 26.9556 24.3017 27.2842 24.1586C27.371 24.1029 27.4659 24.0609 27.5656 24.0342C27.7409 23.9872 27.9258 23.9889 28.1003 24.0389C28.3811 24.0706 28.6354 24.2197 28.8002 24.4492C29.0546 24.7052 29.1513 25.0785 29.0532 25.4258L29.9526 31.8253C30.0294 32.3723 29.6484 32.8779 29.1015 32.9548L28.7968 32.9976C28.5342 33.0345 28.2676 32.9656 28.0558 32.806C27.844 32.6464 27.7043 32.4091 27.6674 32.1465L27.186 28.7213L26.4113 30.122C26.3537 30.3372 26.2258 30.527 26.048 30.6612C25.8463 30.9008 25.5439 31.032 25.231 31.0157C24.9182 31.032 24.6158 30.9008 24.414 30.6612C24.2363 30.527 24.0879 30.2427 24.0303 30.0275Z" fill="#191919" fill-rule="evenodd"/>
  <path id="合并" d="M13.1264 32.6764L15.5 30.3028L17.8736 32.6764C18.3051 33.1079 19.0046 33.1079 19.436 32.6764L19.6764 32.436C20.1078 32.0046 20.1078 31.3051 19.6764 30.8736L17.3028 28.5L19.6764 26.1264C19.8836 25.9192 20 25.6382 20 25.3452C20 25.0521 19.8836 24.7711 19.6764 24.564L19.4361 24.3236C19.2289 24.1164 18.9479 24 18.6549 24C18.3619 24 18.0808 24.1164 17.8737 24.3236L15.5 26.6973L13.1263 24.3236C12.9192 24.1164 12.6382 24 12.3451 24C12.0521 24 11.7711 24.1164 11.564 24.3236L11.3236 24.564C11.1164 24.7711 11 25.0521 11 25.3452C11 25.6382 11.1164 25.9192 11.3236 26.1264L13.6972 28.5L11.3236 30.8736C10.8922 31.3051 10.8922 32.0046 11.3236 32.436L11.564 32.6764C11.9954 33.1079 12.6949 33.1079 13.1264 32.6764ZM30.5 32L30.5 25C30.5 24.4477 30.9477 24 31.5 24L31.8077 24C32.36 24 32.8077 24.4477 32.8077 25L32.8077 30.6923L36.4231 30.6923C36.9754 30.6923 37.4231 31.14 37.4231 31.6923L37.4231 32C37.4231 32.5523 36.9754 33 36.4231 33L31.5 33C30.9477 33 30.5 32.5523 30.5 32ZM23.2764 28.7216L24.0304 30.0275C24.088 30.2426 24.2364 30.5269 24.4141 30.6611C24.6159 30.9007 24.9183 31.0319 25.2311 31.0156C25.544 31.0319 25.8464 30.9007 26.0481 30.6611C26.2259 30.5269 26.3538 30.3371 26.4114 30.122L27.1861 28.7212L27.6674 32.1464C27.7044 32.4091 27.8441 32.6463 28.0559 32.8059C28.2677 32.9655 28.5343 33.0344 28.7969 32.9975L29.1016 32.9547C29.6485 32.8778 30.0295 32.3722 29.9527 31.8253L29.0533 25.4258C29.1514 25.0784 29.0547 24.7051 28.8003 24.4491C28.6355 24.2196 28.3812 24.0706 28.1003 24.0389C27.9258 23.9888 27.741 23.9872 27.5657 24.0341C27.466 24.0608 27.3711 24.1028 27.2843 24.1585C26.9557 24.3016 26.7288 24.6096 26.6895 24.9659L25.2311 27.4919L23.7731 24.9664C23.734 24.6096 23.5067 24.3012 23.1775 24.1582C22.9354 24.003 22.6382 23.9595 22.3618 24.0389C22.1842 24.059 22.0152 24.1264 21.8725 24.2339C21.7922 24.2944 21.7215 24.3667 21.6628 24.4482C21.4076 24.7044 21.3107 25.0784 21.4092 25.4263L20.5098 31.8253C20.433 32.3722 20.814 32.8778 21.3609 32.9547L21.6656 32.9975C21.9283 33.0344 22.1948 32.9655 22.4066 32.8059C22.6184 32.6463 22.7582 32.4091 22.7951 32.1464L23.2764 28.7216Z" fill="#AEAEAE" fill-rule="evenodd"/>
</svg>
