<svg viewBox="0 0 48 48" xmlns="http://www.w3.org/2000/svg" xmlns:xlink="http://www.w3.org/1999/xlink" width="48.000000" height="48.000000" fill="none">
  <g id="ic_huawei_cloud_store_new-新店/base/ic_huawei_cloud_store_new">
    <path id="减去顶层" d="M24 28.1657C23.2226 28.1695 22.4873 28.318 21.7939 28.6112C21.1158 28.8981 20.5156 29.3026 19.9932 29.825C19.4708 30.3474 19.0663 30.9476 18.7794 31.6257C18.6425 31.9494 18.5371 32.28 18.4633 32.6175L18.4632 32.618C18.3767 33.0131 18.3335 33.4178 18.3335 33.8318L18.3335 38.9982L13.1671 38.9982C12.893 38.9982 12.6261 38.9678 12.3662 38.9069L12.3662 38.9069C12.1754 38.8623 11.9884 38.8012 11.8053 38.7238C11.3868 38.5468 11.0158 38.2965 10.6924 37.9731C10.5165 37.7972 10.3622 37.6072 10.2296 37.4032C10.1185 37.2321 10.0225 37.0511 9.94177 36.8602C9.75883 36.4277 9.66736 35.9738 9.66736 35.4984L9.66736 23.9965C8.56217 23.9626 7.53513 23.6976 6.66736 23.2632L6.66736 35.4984C6.66736 35.975 6.71726 36.4407 6.81708 36.8955L6.81718 36.8959C6.90183 37.2814 7.02236 37.6591 7.17876 38.0289C7.33542 38.3993 7.52273 38.7494 7.74068 39.0793L7.74081 39.0795C7.98051 39.4423 8.25728 39.7806 8.5711 40.0945C9.17035 40.6937 9.85887 41.1578 10.6367 41.4868C11.0065 41.6432 11.3841 41.7637 11.7697 41.8484C12.2245 41.9483 12.6904 41.9982 13.1671 41.9982L19.8335 41.9982C20.3335 41.9982 20.7085 41.8732 20.9585 41.6232C21.2085 41.3732 21.3335 40.9982 21.3335 40.4982L21.3335 33.8318C21.3335 33.4695 21.4032 33.1237 21.5425 32.7944C21.6773 32.4755 21.868 32.1928 22.1145 31.9463C22.2497 31.8112 22.3957 31.6928 22.5525 31.5912C22.6818 31.5075 22.8185 31.4352 22.9626 31.3743C23.2919 31.235 23.627 31.1652 23.9681 31.165L24 31.1656L24 28.1657ZM41.3327 24.7813L41.3327 23.9117C40.9323 23.9697 40.5169 24.0002 40.0909 24.0002C40.0686 24.0002 40.0462 24.0001 40.0239 23.9999L41.3327 24.7813Z" fill="#191919" fill-rule="evenodd"/>
    <path id="path6(边框)" d="M8.23591 22.3931C8.68798 22.4936 9.15122 22.5438 9.62563 22.5438C10.1 22.5438 10.5633 22.4936 11.0153 22.3931C11.3719 22.3138 11.7215 22.2033 12.0642 22.0615C12.8161 21.7504 13.4823 21.311 14.0626 20.7432C14.1867 20.6219 14.3048 20.4966 14.417 20.3675C14.5587 20.5307 14.7098 20.6875 14.8703 20.8377C15.1496 21.0993 15.4475 21.332 15.7639 21.5359C16.0999 21.7524 16.4568 21.9364 16.8346 22.0878C17.5929 22.3918 18.3842 22.5438 19.2086 22.5438C19.683 22.5438 20.1463 22.4936 20.5984 22.3931C20.9549 22.3138 21.3045 22.2033 21.6471 22.0615C22.3991 21.7504 23.0652 21.311 23.6456 20.7432C23.7696 20.6219 23.8878 20.4966 23.9999 20.3675C24.1417 20.5307 24.2928 20.6875 24.4532 20.8377C24.7325 21.0993 25.0304 21.332 25.3469 21.5359C25.6828 21.7524 26.0397 21.9364 26.4175 22.0878C27.1758 22.3918 27.9671 22.5438 28.7915 22.5438C29.2659 22.5438 29.7291 22.4936 30.1812 22.3931C30.5377 22.3138 30.8874 22.2033 31.23 22.0615C31.982 21.7504 32.6481 21.311 33.2285 20.7432C33.3526 20.6218 33.4707 20.4965 33.5829 20.3674C33.6951 20.4965 33.8133 20.6218 33.9374 20.7432C34.2182 21.0179 34.519 21.2625 34.84 21.4771C35.1824 21.7061 35.5477 21.9009 35.9359 22.0615C36.713 22.3831 37.5258 22.5438 38.3744 22.5438C38.8489 22.5438 39.3121 22.4936 39.7643 22.3931C40.1208 22.3138 40.4703 22.2033 40.813 22.0615C41.5649 21.7504 42.2311 21.311 42.8114 20.7432C43.3941 20.1732 43.8457 19.5176 44.1661 18.7763C44.325 18.409 44.4459 18.0335 44.529 17.6498C44.6203 17.2286 44.6659 16.7975 44.6659 16.3565C44.6659 16.1333 44.6425 15.8276 44.5957 15.4394L44.5765 15.2995C44.5704 15.2544 44.5622 15.2098 44.552 15.1657C44.5418 15.1216 44.5296 15.0779 44.5154 15.0346L41.9989 7.37698C41.842 6.88053 41.6114 6.4219 41.307 6.00109C41.1625 5.80122 41.0046 5.61445 40.8335 5.44079C40.6528 5.25746 40.4573 5.08873 40.247 4.93461C39.8374 4.6345 39.392 4.40467 38.9106 4.24512C38.4177 4.08171 37.9109 4 37.3903 4L10.6098 4C10.3366 4 10.0673 4.02249 9.80183 4.06746C9.56122 4.10821 9.32374 4.16743 9.08938 4.24512C8.85522 4.32274 8.62955 4.417 8.41237 4.52789C8.18314 4.64493 7.96337 4.7805 7.75306 4.93461C7.54277 5.0887 7.34728 5.25741 7.16662 5.44071C6.99544 5.61439 6.83756 5.80118 6.69299 6.00109C6.47804 6.2983 6.3008 6.6115 6.16127 6.94068C6.10324 7.07758 6.05174 7.21724 6.00676 7.35967L3.493 14.9918C3.46714 15.0703 3.4479 15.1505 3.43528 15.2322L3.41669 15.3532C3.40065 15.4498 3.38695 15.5466 3.37559 15.6437C3.34798 15.8797 3.33417 16.1173 3.33417 16.3565C3.33417 16.7975 3.37979 17.2286 3.47102 17.6499C3.55412 18.0335 3.67508 18.409 3.83388 18.7763C3.97418 19.1008 4.1396 19.4089 4.33014 19.7006C4.57486 20.0752 4.86102 20.4227 5.18861 20.7432C5.76897 21.311 6.43512 21.7504 7.18708 22.0615C7.52974 22.2033 7.87935 22.3138 8.23591 22.3931ZM32.0829 16.3615L32.0829 16.3565C32.0829 15.8565 32.2079 15.4815 32.4579 15.2315C32.7079 14.9815 33.0829 14.8565 33.5829 14.8565C34.0829 14.8565 34.4579 14.9815 34.7079 15.2315C34.9579 15.4815 35.0829 15.8565 35.0829 16.3565L35.0829 16.3615C35.0836 16.7885 35.168 17.1966 35.3363 17.5858C35.5007 17.9661 35.7337 18.3037 36.0353 18.5987C36.3391 18.896 36.6883 19.1262 37.0829 19.2895C37.4927 19.459 37.9232 19.5438 38.3744 19.5438C38.8256 19.5438 39.2561 19.459 39.666 19.2895C40.0605 19.1262 40.4097 18.896 40.7135 18.5987C40.9007 18.4156 41.0614 18.2161 41.1957 18.0002C41.2779 17.8682 41.3501 17.7301 41.4125 17.5858C41.5814 17.1951 41.6659 16.7854 41.6659 16.3565C41.6659 16.253 41.6517 16.0829 41.6234 15.8464L41.6228 15.8416L39.1383 8.28086C39.0178 7.8996 38.7963 7.59081 38.4738 7.35449C38.1513 7.11816 37.7901 7 37.3903 7L10.6098 7C10.4099 7 10.2196 7.02954 10.039 7.08862C9.85843 7.1477 9.6875 7.23633 9.52625 7.35449C9.20373 7.59082 8.98037 7.90537 8.85618 8.29817L6.38108 15.813L6.37614 15.8448C6.34816 16.0133 6.33417 16.1839 6.33417 16.3565C6.33417 16.5906 6.35934 16.8191 6.40968 17.0418C6.45155 17.2271 6.51083 17.4084 6.58752 17.5858C6.75195 17.9661 6.98494 18.3037 7.2865 18.5987C7.59035 18.896 7.93954 19.1262 8.33408 19.2895C8.49333 19.3553 8.65569 19.4084 8.82117 19.4487C9.0816 19.5121 9.34976 19.5438 9.62563 19.5438C10.0768 19.5438 10.5073 19.459 10.9172 19.2895C11.3117 19.1262 11.6609 18.896 11.9648 18.5987C12.1519 18.4156 12.3126 18.2162 12.447 18.0002C12.5291 17.8682 12.6013 17.7301 12.6637 17.5858C12.7404 17.4084 12.7997 17.227 12.8416 17.0417C12.8919 16.819 12.9171 16.5906 12.9171 16.3565C12.9171 15.3799 13.4053 14.88 14.3816 14.857C14.8815 14.8451 15.2594 14.9612 15.5152 15.2053C15.771 15.4493 15.9049 15.8212 15.9167 16.3211L15.9214 16.5223C15.9427 16.9283 16.0403 17.315 16.2141 17.6822C16.2792 17.8196 16.3533 17.9511 16.4364 18.0765C16.5734 18.2833 16.7349 18.4738 16.9209 18.648C17.2226 18.9305 17.5659 19.1489 17.9509 19.3033C18.1038 19.3645 18.2594 19.4141 18.4178 19.452C18.674 19.5132 18.9376 19.5438 19.2086 19.5438C19.6597 19.5438 20.0902 19.459 20.5001 19.2895C20.8946 19.1262 21.2438 18.896 21.5477 18.5987C21.7348 18.4157 21.8955 18.2162 22.0299 18.0003C22.112 17.8683 22.1843 17.7301 22.2467 17.5858C22.4156 17.1951 22.5 16.7854 22.5 16.3565C22.5 15.3799 22.9882 14.88 23.9646 14.857C24.9643 14.8333 25.476 15.3214 25.4996 16.3211L25.5044 16.5223C25.5151 16.7271 25.5452 16.9269 25.5947 17.1218C25.6434 17.3134 25.7109 17.5002 25.797 17.6822C25.9693 18.0461 26.2049 18.3681 26.5039 18.648C26.8055 18.9305 27.1488 19.1489 27.5339 19.3033C27.9339 19.4637 28.3531 19.5438 28.7915 19.5438C29.2426 19.5438 29.6732 19.459 30.083 19.2895C30.4776 19.1262 30.8268 18.896 31.1306 18.5987C31.4322 18.3037 31.6652 17.9661 31.8296 17.5858C31.9063 17.4084 31.9656 17.227 32.0074 17.0418C32.0574 16.8206 32.0826 16.5939 32.0829 16.3615Z" fill="#191919" fill-rule="evenodd"/>
  </g>
  <path id="合并" d="M44 34.4678C44 34.9543 43.9614 35.4347 43.8843 35.9088C43.8072 36.3829 43.6914 36.8509 43.5371 37.3126C43.3828 37.7743 43.1939 38.2179 42.9703 38.6434C42.7468 39.0688 42.4887 39.4762 42.196 39.8654C41.7817 40.4162 41.328 40.9257 40.8349 41.3937C40.3417 41.8618 39.8091 42.2884 39.237 42.6737C38.6718 43.0544 38.0834 43.3843 37.4719 43.6635C37.4644 43.6669 37.457 43.6703 37.4495 43.6737C36.83 43.955 36.1867 44.1844 35.5196 44.3618L35 44.5L34.4804 44.3618C33.8134 44.1844 33.1701 43.955 32.5506 43.6737C31.931 43.3924 31.3351 43.059 30.763 42.6737C30.1909 42.2884 29.6582 41.8617 29.1651 41.3937C28.6719 40.9256 28.2182 40.4162 27.804 39.8654C27.5113 39.4761 27.2532 39.0687 27.0296 38.6433C27.0266 38.6375 27.0235 38.6317 27.0205 38.6259C26.801 38.2057 26.6151 37.7679 26.4629 37.3126C26.3086 36.8509 26.1929 36.383 26.1157 35.9089C26.1153 35.9064 26.1149 35.9039 26.1145 35.9015C26.0382 35.4297 26 34.9519 26 34.4678L26 30.3887C26 30.195 26.0239 30.0075 26.0718 29.8263C26.1196 29.6452 26.1914 29.4703 26.2872 29.3017C26.3829 29.1331 26.4963 28.9817 26.6275 28.8476C26.7586 28.7134 26.9075 28.5965 27.0741 28.4968L32.6848 25.1395C32.8676 25.0302 33.0561 24.9346 33.2505 24.8528C33.4317 24.7765 33.6179 24.7122 33.8092 24.6599C34.0004 24.6076 34.1932 24.5681 34.3879 24.5415C34.59 24.5138 34.7941 24.5 35 24.5C35.2059 24.5 35.41 24.5138 35.6121 24.5415C35.8068 24.5681 35.9996 24.6076 36.1908 24.6599C36.382 24.7122 36.5683 24.7765 36.7494 24.8528C36.9438 24.9346 37.1324 25.0302 37.3152 25.1395L42.9259 28.4968C43.0925 28.5965 43.2414 28.7134 43.3725 28.8476C43.5037 28.9817 43.6171 29.1331 43.7128 29.3017C43.8086 29.4703 43.8803 29.6451 43.9282 29.8263C43.9761 30.0075 44 30.195 44 30.3887L44 34.4678ZM41 34.4678L41 30.8336L35.7717 27.7051C35.653 27.6341 35.5293 27.5808 35.4007 27.5453C35.2721 27.5097 35.1385 27.492 35 27.492C34.8615 27.492 34.728 27.5097 34.5993 27.5453C34.4707 27.5808 34.347 27.6341 34.2283 27.7051L29 30.8336L29 34.4678C29 34.7926 29.0257 35.1132 29.0772 35.4296C29.1287 35.7461 29.206 36.0583 29.3089 36.3664C29.4119 36.6746 29.538 36.9706 29.6872 37.2546C29.8364 37.5385 30.0087 37.8104 30.204 38.0702C30.5123 38.4802 30.8495 38.8598 31.2156 39.2091C31.2215 39.2148 31.2274 39.2204 31.2334 39.226C31.6063 39.58 32.0092 39.9027 32.4419 40.1941C32.8746 40.4855 33.3252 40.7376 33.7937 40.9504C34.1834 41.1274 34.5855 41.2771 35 41.3997C35.4145 41.2771 35.8165 41.1274 36.2062 40.9504C36.2118 40.9479 36.2174 40.9453 36.223 40.9428C36.6856 40.7316 37.1306 40.4821 37.5581 40.1941C37.9908 39.9027 38.3936 39.5801 38.7666 39.2261C39.1396 38.8721 39.4827 38.4868 39.796 38.0702C39.9914 37.8104 40.1637 37.5385 40.3129 37.2545C40.462 36.9705 40.5881 36.6745 40.6911 36.3664C40.794 36.0583 40.8713 35.746 40.9228 35.4295C40.9743 35.1131 41 34.7925 41 34.4678ZM39.5649 31.9019C40.032 32.3713 40.0715 33.1028 39.6856 33.6166L35.2289 38.0322C34.7607 38.4949 33.884 38.4108 33.3684 38.0322L30.8909 35.5924C30.3728 35.0805 30.3693 34.247 30.883 33.7307C31.3501 33.2614 32.2325 33.3427 32.7513 33.7229L34.2974 35.2422L37.6966 31.8941C38.2147 31.3822 39.0512 31.3857 39.5649 31.9019Z" fill="#AEAEAE" fill-rule="evenodd"/>
</svg>
