<svg viewBox="0 0 48 48" xmlns="http://www.w3.org/2000/svg" xmlns:xlink="http://www.w3.org/1999/xlink" width="48.000000" height="48.000000" fill="none">
  <path id="形状结合" d="M36.2179 25.0459C37.9359 25.0459 39.3859 26.2759 39.6699 27.9699L40.2275 31.3025C41.5073 31.8236 42.4117 33.081 42.4117 34.5459L42.4117 38.5459C42.4117 39.198 41.9948 39.7534 41.4132 39.9599L41.4117 40.5459C41.4117 41.3739 40.7397 42.0459 39.9117 42.0459C39.0837 42.0459 38.4117 41.3739 38.4117 40.5459L38.411 40.0441L25.411 40.0441L25.4117 40.5459C25.4117 41.3739 24.7397 42.0459 23.9117 42.0459C23.0837 42.0459 22.4117 41.3739 22.4117 40.5459L22.4102 39.9599C21.8286 39.7534 21.4117 39.198 21.4117 38.5459L21.4117 34.5459C21.4117 33.0803 22.317 31.8223 23.5979 31.3017L24.1539 27.9719C24.4359 26.2759 25.8879 25.0459 27.6059 25.0459L36.2179 25.0459ZM36.2179 28.0459L27.6059 28.0459C27.3599 28.0459 27.1539 28.2219 27.1119 28.4659L26.681 31.0441L37.141 31.0441L36.7099 28.4639C36.6699 28.2219 36.4619 28.0459 36.2179 28.0459ZM13.5725 6.02325L28.667 13.0621L36.9951 10.0331C37.8791 9.70905 38.8331 9.65305 39.7431 9.88105L42.1571 10.4691C43.1351 10.7091 43.8891 11.4271 44.1731 12.3891C44.4591 13.3551 44.2151 14.3691 43.5231 15.0991C43.0111 15.6391 42.3811 16.0531 41.6911 16.3051L12.3711 26.9751C12.0611 27.0891 11.7411 27.1431 11.4251 27.1431C10.7371 27.1431 10.0631 26.8831 9.5411 26.3891L3.9431 21.0891C3.7551 20.9091 3.6711 20.6451 3.7251 20.3911C3.7771 20.1371 3.9571 19.9291 4.2011 19.8391L8.6471 18.2211C8.8671 18.1451 9.1111 18.1691 9.3091 18.2951L11.1091 19.4551L14.5191 18.2111L18.357 16.8141L8.1005 9.00925C7.8825 8.84325 7.7725 8.56925 7.8145 8.29725C7.8545 8.02725 8.0405 7.79925 8.3005 7.70525L12.9985 5.99725C13.1825 5.93325 13.3885 5.93925 13.5725 6.02325Z" fill="#191919" fill-rule="evenodd"/>
  <path id="形状结合" d="M36.2183 25.0459C37.9363 25.0459 39.3863 26.2759 39.6703 27.9699L40.2279 31.3026C41.5077 31.8236 42.4121 33.0811 42.4121 34.5459L42.4121 38.5459C42.4121 39.1981 41.9952 39.7534 41.4136 39.9599L41.4121 40.5459C41.4121 41.3739 40.7401 42.0459 39.9121 42.0459C39.0841 42.0459 38.4121 41.3739 38.4121 40.5459L38.4114 40.0441L25.4114 40.0441L25.4121 40.5459C25.4121 41.3739 24.7401 42.0459 23.9121 42.0459C23.0841 42.0459 22.4121 41.3739 22.4121 40.5459L22.4106 39.9599C21.829 39.7534 21.4121 39.1981 21.4121 38.5459L21.4121 34.5459C21.4121 33.0803 22.3174 31.8223 23.5983 31.3018L24.1543 27.9719C24.4363 26.2759 25.8883 25.0459 27.6063 25.0459L36.2183 25.0459ZM36.2183 28.0459L27.6063 28.0459C27.3603 28.0459 27.1543 28.2219 27.1123 28.4659L26.6814 31.0441L37.1414 31.0441L36.7103 28.4639C36.6703 28.2219 36.4623 28.0459 36.2183 28.0459Z" fill="#AEAEAE" fill-rule="evenodd"/>
</svg>
