<svg viewBox="0 0 48 48" xmlns="http://www.w3.org/2000/svg" xmlns:xlink="http://www.w3.org/1999/xlink" width="48.000000" height="48.000000" fill="none">
  <path id="矢量 30" d="M32 4L12 4C8.68628 4 6 6.68628 6 10L6 38C6 41.3137 8.68628 44 12 44L23.7849 44C19.7192 41.5503 17 37.0928 17 32C17 24.2681 23.2681 18 31 18C33.55 18 35.9407 18.6816 38 19.873L38 10C38 6.68628 35.3137 4 32 4ZM12 10.5L27 10.5C27.8401 10.5 28.5 11.1599 28.5 12C28.5 12.8401 27.8401 13.5 27 13.5L12 13.5C11.1599 13.5 10.5 12.8401 10.5 12C10.5 11.1599 11.1599 10.5 12 10.5ZM12 17.5L16 17.5C16.8401 17.5 17.5 18.1599 17.5 19C17.5 19.8401 16.8401 20.5 16 20.5L12 20.5C11.1599 20.5 10.5 19.8401 10.5 19C10.5 18.1599 11.1599 17.5 12 17.5ZM20 32C20 25.9248 24.9248 21 31 21C37.0752 21 42 25.9248 42 32C42 38.0752 37.0752 43 31 43C24.9248 43 20 38.0752 20 32ZM37.0562 30.0649L31.0056 36.0649C30.6536 36.4141 30.3015 36.5886 29.9495 36.5886C29.5974 36.5886 29.2453 36.4141 28.8931 36.0649L24.9438 32.1487C24.3474 31.5571 24.3435 30.6238 24.9348 30.0273C25.5264 29.4309 26.4597 29.427 27.0562 30.0183L29.9495 32.8872L34.9438 27.9346C35.5403 27.3433 36.4736 27.3472 37.0652 27.9436C37.6565 28.54 37.6526 29.4734 37.0562 30.0649Z" fill="#191919" fill-rule="evenodd"/>
  <path id="矢量 31" d="M20 32C20 25.9248 24.9248 21 31 21C37.0752 21 42 25.9248 42 32C42 38.0752 37.0752 43 31 43C24.9248 43 20 38.0752 20 32ZM37.0562 30.0649L31.0056 36.0649C30.6536 36.4141 30.3015 36.5886 29.9495 36.5886C29.5974 36.5886 29.2453 36.4141 28.8931 36.0649L24.9438 32.1487C24.3474 31.5571 24.3435 30.6238 24.9348 30.0273C25.5264 29.4309 26.4597 29.427 27.0562 30.0183L29.9495 32.8872L34.9438 27.9346C35.5403 27.3433 36.4736 27.3472 37.0652 27.9436C37.6565 28.54 37.6526 29.4734 37.0562 30.0649Z" fill="#AEAEAE" fill-rule="evenodd"/>
</svg>
