<svg viewBox="0 0 48 48" xmlns="http://www.w3.org/2000/svg" xmlns:xlink="http://www.w3.org/1999/xlink" width="48.000000" height="48.000000" fill="none">
  <path id="减去顶层" d="M36 6L12 6C8.68 6 6 8.68 6 12L6 36C6 39.3 8.68 42 12 42L36 42C39.3 42 42 39.3 42 36L42 12C42 8.68 39.3 6 36 6ZM28.5 9L24.5 9C24.2239 9 24 9.22386 24 9.5L24 13.5C24 13.7761 24.2239 14 24.5 14L28.5 14C28.7761 14 29 13.7761 29 13.5L29 9.5C29 9.22386 28.7761 9 28.5 9ZM19.5 14L23.5 14C23.7761 14 24 14.2239 24 14.5L24 18.5C24 18.7761 23.7761 19 23.5 19L19.5 19C19.2239 19 19 18.7761 19 18.5L19 14.5C19 14.2239 19.2239 14 19.5 14ZM24.5 19L28.5 19C28.7761 19 29 19.2239 29 19.5L29 23.5C29 23.7761 28.7761 24 28.5 24L24.5 24C24.2239 24 24 23.7761 24 23.5L24 19.5C24 19.2239 24.2239 19 24.5 19ZM23.5 24L19.5 24C19.2239 24 19 24.2239 19 24.5L19 28.5C19 28.7761 19.2239 29 19.5 29L23.5 29C23.7761 29 24 28.7761 24 28.5L24 24.5C24 24.2239 23.7761 24 23.5 24ZM28.5 29L24.5 29C24.2239 29 24 29.2239 24 29.5L24 33.5C24 33.7761 24.2239 34 24.5 34L28.5 34C28.7761 34 29 33.7761 29 33.5L29 29.5C29 29.2239 28.7761 29 28.5 29ZM19.5 34L23.5 34C23.7761 34 24 34.2239 24 34.5L24 38.5C24 38.7761 23.7761 39 23.5 39L19.5 39C19.2239 39 19 38.7761 19 38.5L19 34.5C19 34.2239 19.2239 34 19.5 34Z" fill="#191919" fill-rule="evenodd"/>
  <path id="合并" d="M24.5 9L28.5 9C28.7761 9 29 9.22386 29 9.5L29 13.5C29 13.7761 28.7761 14 28.5 14L24.5 14C24.2239 14 24 13.7761 24 13.5L24 9.5C24 9.22386 24.2239 9 24.5 9ZM23.5 14L19.5 14C19.2239 14 19 14.2239 19 14.5L19 18.5C19 18.7761 19.2239 19 19.5 19L23.5 19C23.7761 19 24 18.7761 24 18.5L24 14.5C24 14.2239 23.7761 14 23.5 14ZM28.5 19L24.5 19C24.2239 19 24 19.2239 24 19.5L24 23.5C24 23.7761 24.2239 24 24.5 24L28.5 24C28.7761 24 29 23.7761 29 23.5L29 19.5C29 19.2239 28.7761 19 28.5 19ZM19.5 24L23.5 24C23.7761 24 24 24.2239 24 24.5L24 28.5C24 28.7761 23.7761 29 23.5 29L19.5 29C19.2239 29 19 28.7761 19 28.5L19 24.5C19 24.2239 19.2239 24 19.5 24ZM24.5 29L28.5 29C28.7761 29 29 29.2239 29 29.5L29 33.5C29 33.7761 28.7761 34 28.5 34L24.5 34C24.2239 34 24 33.7761 24 33.5L24 29.5C24 29.2239 24.2239 29 24.5 29ZM23.5 34L19.5 34C19.2239 34 19 34.2239 19 34.5L19 38.5C19 38.7761 19.2239 39 19.5 39L23.5 39C23.7761 39 24 38.7761 24 38.5L24 34.5C24 34.2239 23.7761 34 23.5 34Z" fill="#AEAEAE" fill-rule="evenodd"/>
</svg>
