<svg viewBox="0 0 48 48" xmlns="http://www.w3.org/2000/svg" xmlns:xlink="http://www.w3.org/1999/xlink" width="48.000000" height="48.000000" fill="none">
  <path id="合并" d="M37.9969 9.64745C37.8143 6.49784 35.2018 4 32.0058 4L11.0013 4L10.6487 4.01019C7.49837 4.19268 5 6.80464 5 10L5 37L5.01019 37.3525C5.19272 40.5022 7.80524 43 11.0013 43L21.8036 43L22.0072 42.9863C22.7395 42.887 23.3039 42.2594 23.3039 41.5C23.3039 40.6716 22.6322 40 21.8036 40L11.0013 40L10.7123 39.9863C9.19067 39.8409 8.00064 38.5594 8.00064 37L8.00064 10L8.01438 9.71108C8.15978 8.18978 9.44156 7 11.0013 7L32.0058 7L32.2947 7.01373C33.8164 7.1591 35.0064 8.44061 35.0064 10L35.0064 18.3438L35.0201 18.5473C35.1194 19.2794 35.7472 19.8438 36.5067 19.8438C37.3353 19.8438 38.007 19.1722 38.007 18.3438L38.007 10L37.9969 9.64745ZM21.1689 15.533L18.7972 12.5689C18.2723 11.9129 17.3444 11.8099 16.6884 12.3348C16.0323 12.8594 15.9292 13.7872 16.4541 14.4429L19.4168 18.1455L15.6252 18.1455C14.785 18.1455 14.1249 18.8057 14.1249 19.6455C14.1249 20.4856 14.785 21.1455 15.6252 21.1455L19.6343 21.1455L19.6343 23.408L15.5022 23.408C14.6621 23.408 14.0019 24.0681 14.0019 24.908C14.0019 25.7481 14.6621 26.408 15.5022 26.408L19.6343 26.408L19.6343 29.2935C19.6343 30.0893 20.2267 30.7234 21.0034 30.788L21.0034 27.9902C21.0034 26.1721 21.8996 24.4827 23.3783 23.4666L23.471 23.408L22.635 23.408L22.635 21.1455L26.6441 21.1455C27.4843 21.1455 28.1445 20.4856 28.1445 19.6455C28.1445 18.8057 27.4843 18.1455 26.6441 18.1455L22.8868 18.1455L26.0005 14.4769C26.5441 13.8365 26.4678 12.9061 25.8272 12.3626C25.1866 11.8191 24.2561 11.8953 23.7125 12.5359L21.1689 15.533ZM35.2564 22.0749L33.9297 21.9037C32.602 21.2757 32.0407 21.3328 30.7553 22.0751L25.7622 24.9571L25.4721 25.1396C24.2516 25.9739 23.5119 27.3612 23.5119 28.854L23.5119 34.618L23.525 34.9604C23.6372 36.4343 24.4693 37.7683 25.7622 38.5149L30.7555 41.397L31.0823 41.5683C32.4099 42.1963 33.9713 42.1392 35.2567 41.3969L40.2495 38.515L40.5396 38.3325C41.7603 37.498 42.5 36.1108 42.5 34.618L42.5 28.854L42.487 28.5116C42.3747 27.0376 41.5427 25.7037 40.2497 24.9571L35.2564 22.0749ZM32.2558 24.673L32.4607 24.5746C32.8812 24.4105 33.3583 24.4433 33.7559 24.6729L38.9369 27.6833C39.2893 27.9654 39.4994 28.3947 39.4994 28.854L39.4994 34.618L39.4822 34.8446C39.414 35.2906 39.1471 35.6872 38.749 35.9171L33.7562 38.7989L33.5513 38.8974C33.1308 39.0615 32.6537 39.0287 32.256 38.7991L27.075 35.7887C26.7227 35.5066 26.5126 35.0773 26.5126 34.618L26.5126 28.854L26.5298 28.6274C26.5979 28.1813 26.8649 27.7848 27.263 27.5549L32.2558 24.673Z" fill="#191919" fill-rule="evenodd"/>
  <path id="合并" d="M35.2519 22.0751L34.9249 21.9039C33.5964 21.2759 32.0341 21.333 30.7479 22.0753L25.7517 24.9573L25.4614 25.1398C24.2401 25.9741 23.5 27.3614 23.5 28.8542L23.5 34.6182L23.513 34.9606C23.6254 36.4345 24.4579 37.7685 25.7517 38.5151L30.7481 41.3972L31.0751 41.5685C32.4036 42.1965 33.9659 42.1394 35.2521 41.3971L40.2481 38.5152L40.5384 38.3327C41.7599 37.4982 42.5 36.111 42.5 34.6182L42.5 28.8542L42.487 28.5118C42.3746 27.0378 41.5421 25.7039 40.2483 24.9573L35.2519 22.0751ZM32.2493 24.6732L32.4544 24.5748C32.8751 24.4107 33.3525 24.4435 33.7504 24.6731L38.9347 27.6835C39.2873 27.9656 39.4975 28.3949 39.4975 28.8542L39.4975 34.6182L39.4803 34.8448C39.4121 35.2908 39.145 35.6874 38.7466 35.9173L33.7507 38.7991L33.5456 38.8976C33.1249 39.0617 32.6475 39.0289 32.2496 38.7993L27.0653 35.7889C26.7127 35.5068 26.5025 35.0775 26.5025 34.6182L26.5025 28.8542L26.5197 28.6276C26.5879 28.1815 26.855 27.785 27.2534 27.5551L32.2493 24.6732ZM37.361 29.3906C37.828 29.8612 37.8676 30.5947 37.4817 31.1098L33.0249 35.5373C32.5567 36.0012 31.68 35.9169 31.1644 35.5373L28.6869 33.091C28.1688 32.5776 28.1653 31.7419 28.6791 31.2242C29.1461 30.7536 30.0286 30.8351 30.5474 31.2164L32.0935 32.7398L35.4926 29.3827C36.0107 28.8694 36.8472 28.8729 37.361 29.3906Z" fill="#AEAEAE" fill-rule="evenodd"/>
</svg>
