<svg viewBox="0 0 48 48" xmlns="http://www.w3.org/2000/svg" xmlns:xlink="http://www.w3.org/1999/xlink" width="48.000000" height="48.000000" fill="none">
  <g id="组合 10">
    <path id="形状结合备份 4" d="M19.8203 13.2639C22.4738 12.9414 25.1572 12.95 27.8086 13.2897C33.0666 13.9604 37.4523 17.6255 39.0387 22.6747L41.5256 30.586C42.5111 33.7214 41.9424 37.1377 39.9942 39.7864C38.0459 42.4351 34.9509 43.9995 31.6592 43.9996L16.3419 43.9996C13.1556 43.9999 10.1471 42.5338 8.18737 40.0258C6.22762 37.5178 5.53548 34.2479 6.31134 31.1628L8.25929 23.4205C9.63007 17.9693 14.2297 13.929 19.8203 13.2652L19.8203 13.2639ZM28.4771 22.7868C28.6499 22.1797 28.4111 21.539 27.8752 21.2081C27.2199 20.8035 26.3607 21.0068 25.9561 21.6621L23.838 25.09L21.7206 21.6621L21.4522 21.3446C21.0004 20.9491 20.3308 20.8813 19.8015 21.2081C19.1462 21.6127 18.943 22.4719 19.3475 23.1272L20.874 25.6L19.2818 25.611L19.0703 25.6595C18.4579 25.8507 18.0494 26.44 18.0494 27.1125C18.0494 27.9368 18.6612 28.625 19.4439 28.625L22.442 28.624L22.442 30.118L19.2323 30.131L19.0209 30.1795C18.4085 30.3707 18 30.96 18 31.6325C18 32.4568 18.6117 33.145 19.3944 33.145L22.442 33.144L22.4549 36.408L22.5034 36.6194C22.6946 37.2318 23.2839 37.6403 23.9564 37.6403C24.7807 37.6403 25.4689 37.0286 25.4689 36.2459L25.468 33.144L28.3714 33.134L28.5828 33.0855C29.1952 32.8943 29.6037 32.305 29.6037 31.6325C29.6037 30.8082 28.992 30.12 28.2093 30.12L25.468 30.118L25.468 28.624L28.4208 28.614L28.6322 28.5655C29.2447 28.3743 29.6531 27.785 29.6531 27.1125C29.6531 26.2882 29.0414 25.6 28.2587 25.6L26.8 25.6L28.4042 22.9874L28.4771 22.7868Z" fill="#191919" fill-rule="evenodd"/>
    <path id="路径备份 5" d="M16.2717 4L31.2607 4C32.0252 4.00004 32.7221 4.4375 33.0534 5.12538C33.3847 5.81325 33.2918 6.6298 32.8144 7.22596L31.3925 8.99895C30.6571 9.91672 29.5439 10.4513 28.3666 10.4519L19.1684 10.4519C17.9902 10.452 16.8758 9.91742 16.1399 8.99895L14.718 7.22596C14.2406 6.6298 14.1477 5.81325 14.479 5.12538C14.8102 4.4375 15.5071 4.00004 16.2717 4L16.2717 4Z" fill="#AEAEAE" fill-rule="evenodd"/>
  </g>
</svg>
