<svg viewBox="0 0 48 48" xmlns="http://www.w3.org/2000/svg" xmlns:xlink="http://www.w3.org/1999/xlink" width="48.000000" height="48.000000" fill="none">
  <path id="矢量 1748" d="M19.4863 11.7965C19.387 11.0643 18.7594 10.5 18 10.5C17.1716 10.5 16.5 11.1716 16.5 12L16.5 36L16.5137 36.2035C16.613 36.9357 17.2406 37.5 18 37.5C18.8284 37.5 19.5 36.8284 19.5 36L19.5 12L19.4863 11.7965ZM31.4863 11.7965C31.387 11.0643 30.7594 10.5 30 10.5C29.1716 10.5 28.5 11.1716 28.5 12L28.5 36L28.5137 36.2035C28.613 36.9357 29.2406 37.5 30 37.5C30.8284 37.5 31.5 36.8284 31.5 36L31.5 12L31.4863 11.7965Z" fill="#191919" fill-rule="evenodd"/>
</svg>
