<svg viewBox="0 0 48 48" xmlns="http://www.w3.org/2000/svg" xmlns:xlink="http://www.w3.org/1999/xlink" width="48.000000" height="48.000000" fill="none">
  <path id="合并" d="M38.9898 9.64745C38.8073 6.49784 36.1954 4 33 4L12 4L11.6475 4.01019C8.49784 4.19268 6 6.80464 6 10L6 37L6.01019 37.3525C6.19268 40.5022 8.80464 43 12 43L22.8 43L23.0035 42.9863C23.7357 42.887 24.3 42.2594 24.3 41.5C24.3 40.6716 23.6284 40 22.8 40L12 40L11.7111 39.9863C10.1898 39.8409 9 38.5594 9 37L9 10L9.01373 9.71108C9.1591 8.18978 10.4406 7 12 7L33 7L33.2889 7.01373C34.8102 7.1591 36 8.44061 36 10L36 18.3438L36.0137 18.5473C36.113 19.2794 36.7406 19.8438 37.5 19.8438C38.3284 19.8438 39 19.1722 39 18.3438L39 10L38.9898 9.64745ZM28.1129 11.963L24.6588 11.963C24.4737 11.963 24.3021 11.9956 24.1441 12.061C23.986 12.1263 23.8414 12.2243 23.7104 12.355C23.5793 12.4856 23.4808 12.6299 23.415 12.7878C23.3492 12.9456 23.316 13.1171 23.3154 13.3022L23.2901 21.5274L23.2901 21.5315L23.2901 21.5319C23.2902 21.9029 23.4215 22.2195 23.6839 22.4817C23.9463 22.7439 24.2629 22.875 24.6339 22.8749L28.3765 22.8737C28.6335 22.8737 28.8848 22.8471 29.1304 22.794C29.3452 22.7475 29.5556 22.6807 29.7616 22.5936C29.9663 22.507 30.1597 22.4033 30.3418 22.2826C30.5384 22.1522 30.7218 22.0019 30.892 21.8317C31.0622 21.6615 31.2125 21.4781 31.3429 21.2815C31.4636 21.0994 31.5673 20.906 31.6539 20.7013C31.741 20.4953 31.8078 20.2849 31.8543 20.0701C31.9074 19.8245 31.934 19.5732 31.934 19.3162C31.934 19.0591 31.9074 18.8078 31.8543 18.5623C31.8078 18.3475 31.741 18.137 31.6539 17.931C31.5673 17.7263 31.4636 17.5329 31.3429 17.3508C31.2194 17.1647 31.0781 16.9903 30.919 16.8278C30.9859 16.712 31.0459 16.5914 31.0988 16.4662C31.1786 16.2777 31.2396 16.0851 31.282 15.8885C31.3301 15.6656 31.3541 15.4375 31.3541 15.2042C31.3541 14.9709 31.3301 14.7428 31.282 14.5198C31.2396 14.3232 31.1786 14.1307 31.0988 13.9421C31.0198 13.7552 30.9251 13.5786 30.8147 13.4124C30.6961 13.2337 30.5595 13.067 30.4048 12.9123C30.2501 12.7576 30.0834 12.6209 29.9047 12.5023C29.7385 12.392 29.5619 12.2973 29.3749 12.2182C29.1864 12.1385 28.9938 12.0774 28.7972 12.035C28.5743 11.987 28.3462 11.963 28.1129 11.963ZM18.3341 21.9131L17.7037 20.2856L15.2299 20.2856L14.6052 21.91C14.3352 22.6121 13.5713 22.9517 12.8692 22.6816C12.167 22.4116 11.8275 21.6478 12.0975 20.9456L15.2038 12.8682C15.2718 12.6913 15.3727 12.5358 15.5066 12.4017C15.5735 12.3346 15.6457 12.2757 15.7234 12.2251C15.801 12.1744 15.884 12.132 15.9724 12.0977C16.1453 12.0307 16.3174 11.9992 16.4888 12.0032C16.6601 12.0071 16.8306 12.0466 17.0002 12.1215C17.1699 12.1964 17.3139 12.2958 17.4323 12.4198C17.5506 12.5437 17.6433 12.6922 17.7103 12.8651L20.8394 20.9425C21.1112 21.644 20.7735 22.4087 20.072 22.6805C19.3705 22.9522 18.6059 22.6146 18.3341 21.9131ZM25.9946 15.7587L28.1129 15.7587C28.1894 15.7587 28.2604 15.7451 28.3257 15.7181C28.3911 15.691 28.4508 15.6504 28.505 15.5963C28.5591 15.5421 28.5997 15.4824 28.6268 15.417C28.6538 15.3517 28.6674 15.2807 28.6674 15.2042C28.6674 15.1276 28.6538 15.0567 28.6268 14.9913C28.5997 14.926 28.5591 14.8662 28.505 14.8121C28.4508 14.758 28.3911 14.7174 28.3257 14.6903C28.2604 14.6632 28.1894 14.6497 28.1129 14.6497L25.998 14.6497L25.9946 15.7587ZM16.4622 17.0811L16.6628 17.5989L16.2631 17.5989L16.4622 17.0811ZM28.1129 18.4454L25.9864 18.4454L25.981 20.1877L28.3765 20.187C28.4967 20.187 28.6081 20.1657 28.7108 20.1232C28.8134 20.0807 28.9072 20.0169 28.9922 19.9319C29.0772 19.8469 29.141 19.7531 29.1835 19.6505C29.226 19.5478 29.2473 19.4364 29.2473 19.3162C29.2473 19.1959 29.226 19.0845 29.1835 18.9819C29.141 18.8793 29.0772 18.7855 28.9922 18.7004C28.9072 18.6154 28.8134 18.5517 28.7108 18.5092C28.6081 18.4666 28.4967 18.4454 28.3765 18.4454L28.1129 18.4454ZM36.25 22.0749L35.9233 21.9037C34.5959 21.2757 33.0349 21.3328 31.7498 22.0751L26.7578 24.9571L26.4678 25.1396C25.2475 25.9739 24.508 27.3612 24.508 28.854L24.508 34.618L24.521 34.9604C24.6333 36.4343 25.4651 37.7683 26.7578 38.5149L31.75 41.397L32.0767 41.5683C33.4041 42.1963 34.9651 42.1392 36.2502 41.3969L41.242 38.515L41.532 38.3325C42.7525 37.498 43.492 36.1108 43.492 34.618L43.492 28.854L43.479 28.5116C43.3667 27.0376 42.5349 25.7037 41.2422 24.9571L36.25 22.0749ZM18.2267 27.758C18.0221 27.5056 17.7903 27.3128 17.5313 27.1793C17.3627 27.0925 17.1894 27.0351 17.0116 27.0073L17.0115 27.0073C16.9278 26.9942 16.843 26.9877 16.7572 26.9877C16.6726 26.9877 16.5891 26.994 16.5064 27.0068C16.3345 27.0333 16.1668 27.0874 16.0033 27.1691C15.7515 27.295 15.5244 27.4775 15.3221 27.7166C15.1058 27.9721 14.937 28.2695 14.8156 28.6087C14.7972 28.6602 14.7801 28.712 14.7643 28.7642L14.7643 28.7643C14.6686 29.0807 14.6207 29.4115 14.6207 29.7569C14.6207 30.1021 14.6686 30.4329 14.7642 30.7492L14.7643 30.7495C14.7801 30.8017 14.7972 30.8536 14.8156 30.905C14.937 31.2442 15.1058 31.5416 15.3221 31.7972C15.5244 32.0363 15.7515 32.2188 16.0033 32.3447C16.1668 32.4264 16.3345 32.4805 16.5064 32.507C16.589 32.5197 16.6726 32.5261 16.7572 32.5261C16.843 32.5261 16.9278 32.5195 17.0116 32.5064L17.0116 32.5064C17.1896 32.4786 17.3629 32.4212 17.5316 32.3343C17.7906 32.2008 18.0225 32.0078 18.2271 31.7552C18.7007 31.1708 19.5321 31.0837 20.1165 31.5573C20.701 32.031 20.7881 32.8623 20.3145 33.4468C19.9673 33.8753 19.573 34.2298 19.1318 34.5105C19.0121 34.5866 18.889 34.6572 18.7624 34.7225C18.401 34.9088 18.0284 35.042 17.6447 35.1221C17.3552 35.1826 17.0594 35.2128 16.7572 35.2128C16.4621 35.2128 16.1728 35.1839 15.8894 35.1261C15.5168 35.05 15.1543 34.924 14.8021 34.7479C14.6802 34.6869 14.5614 34.6209 14.4457 34.5499C14.0101 34.2825 13.6186 33.9434 13.2711 33.5326C13.1838 33.4295 13.1006 33.3233 13.0215 33.2142C12.7147 32.791 12.4695 32.323 12.286 31.8103C12.2162 31.6152 12.1567 31.4174 12.1076 31.2171C11.9919 30.7446 11.934 30.2578 11.934 29.7569C11.934 29.2559 11.9919 28.7692 12.1076 28.2966C12.1567 28.0963 12.2162 27.8986 12.286 27.7034C12.4695 27.1907 12.7147 26.7228 13.0215 26.2995C13.1006 26.1904 13.1838 26.0843 13.2711 25.9811C13.6186 25.5704 14.0101 25.2314 14.4455 24.9639L14.4457 24.9639C14.5614 24.8928 14.6802 24.8268 14.8021 24.7659C15.1543 24.5898 15.5168 24.4637 15.8894 24.3877L15.8895 24.3877C16.1728 24.3298 16.4621 24.3009 16.7572 24.3009C17.0593 24.3009 17.355 24.3311 17.6444 24.3916L17.6444 24.3916L17.6445 24.3916C18.028 24.4717 18.4004 24.6048 18.7618 24.791C18.8883 24.8561 19.0114 24.9268 19.131 25.0028L19.1311 25.0029C19.5722 25.2833 19.9664 25.6377 20.3136 26.0659C20.7874 26.6502 20.7005 27.4816 20.1162 27.9554C19.5318 28.4292 18.7004 28.3423 18.2267 27.758ZM33.25 24.673L33.4548 24.5746C33.8752 24.4105 34.3522 24.4433 34.7498 24.6729L39.9297 27.6833C40.282 27.9654 40.492 28.3947 40.492 28.854L40.492 34.618L40.4748 34.8446C40.4067 35.2906 40.1398 35.6872 39.7418 35.9171L34.75 38.7989L34.5452 38.8974C34.1248 39.0615 33.6478 39.0287 33.2502 38.7991L28.0703 35.7887C27.718 35.5066 27.508 35.0773 27.508 34.618L27.508 28.854L27.5252 28.6274C27.5933 28.1813 27.8602 27.7848 28.2582 27.5549L33.25 24.673ZM38.4998 31.7402C38.4998 29.2552 36.4857 27.2402 33.9998 27.2402C31.5139 27.2402 29.4998 29.2552 29.4998 31.7402C29.4998 34.2266 31.5134 36.2402 33.9998 36.2402C36.4862 36.2402 38.4998 34.2266 38.4998 31.7402ZM32.4998 31.7402C32.4998 30.9118 33.1711 30.2402 33.9998 30.2402C34.8285 30.2402 35.4998 30.9118 35.4998 31.7402C35.4998 32.5698 34.8294 33.2402 33.9998 33.2402C33.1702 33.2402 32.4998 32.5698 32.4998 31.7402Z" fill="#191919" fill-rule="evenodd"/>
  <path id="形状结合" d="M35.9233 21.9044L36.25 22.0756L41.2422 24.9578C42.5349 25.7044 43.3667 27.0383 43.479 28.5123L43.492 28.8547L43.492 34.6187C43.492 36.1115 42.7525 37.4987 41.532 38.3332L41.242 38.5157L36.2502 41.3976C34.9651 42.1398 33.4041 42.1969 32.0767 41.569L31.75 41.3977L26.7578 38.5156C25.4651 37.769 24.6332 36.435 24.521 34.9611L24.508 34.6187L24.508 28.8547C24.508 27.3619 25.2475 25.9746 26.4678 25.1403L26.7578 24.9578L31.7498 22.0758C33.0349 21.3335 34.5959 21.2764 35.9233 21.9044ZM33.4548 24.5753L33.25 24.6737L28.2582 27.5556C27.8602 27.7855 27.5933 28.182 27.5252 28.6281L27.508 28.8547L27.508 34.6187C27.508 35.078 27.718 35.5073 28.0703 35.7894L33.2502 38.7998C33.6478 39.0294 34.1248 39.0622 34.5452 38.8981L34.75 38.7996L39.7418 35.9178C40.1398 35.6879 40.4067 35.2913 40.4748 34.8453L40.492 34.6187L40.492 28.8547C40.492 28.3954 40.282 27.9661 39.9297 27.684L34.7498 24.6736C34.3522 24.444 33.8752 24.4112 33.4548 24.5753ZM33.9998 27.2409C36.4857 27.2409 38.4998 29.2559 38.4998 31.7409C38.4998 34.2273 36.4862 36.2409 33.9998 36.2409C31.5134 36.2409 29.4998 34.2273 29.4998 31.7409C29.4998 29.2559 31.5139 27.2409 33.9998 27.2409ZM33.9998 30.2409C33.1711 30.2409 32.4998 30.9125 32.4998 31.7409C32.4998 32.5704 33.1702 33.2409 33.9998 33.2409C34.8294 33.2409 35.4998 32.5704 35.4998 31.7409C35.4998 30.9125 34.8285 30.2409 33.9998 30.2409Z" fill="#AEAEAE" fill-rule="evenodd"/>
</svg>
