<svg viewBox="0 0 48 48" xmlns="http://www.w3.org/2000/svg" xmlns:xlink="http://www.w3.org/1999/xlink" width="48.000000" height="48.000000" fill="none">
  <path id="矢量 38" d="M41.9906 11.5804C41.8166 8.4692 39.2386 6 36.0839 6L11.9161 6L11.5804 6.00937C8.46919 6.18341 6 8.76138 6 11.9161L6 36.0839L6.00935 36.4196C6.18342 39.5308 8.7614 42 11.9161 42L24.3692 42L24.5571 41.9873C25.2329 41.8956 25.7538 41.3163 25.7538 40.6154C25.7538 39.8507 25.1339 39.2307 24.3692 39.2307L11.9161 39.2307L11.6446 39.2192C10.0337 39.0815 8.76923 37.7304 8.76923 36.0839L8.76923 11.9161L8.78078 11.6446C8.91845 10.0337 10.2696 8.76923 11.9161 8.76923L36.0839 8.76923L36.3554 8.78078C37.9663 8.91845 39.2308 10.2696 39.2308 11.9161L39.2308 23.0012L34.581 18.6238C32.9061 17.1435 30.2789 17.1817 28.6538 18.7123L13.8199 32.6844C13.4017 33.2142 13.2847 34.1356 13.7613 34.6416C14.2856 35.1983 15.1619 35.2245 15.7186 34.7002L30.5525 20.7281C31.1459 20.3181 32.1984 20.2138 32.7471 20.6988L39.666 27.215C40.2198 27.6008 41.1466 27.6625 41.6233 27.1565C41.8843 26.8793 42.0089 26.523 41.9995 26.1703L42 11.9161L41.9906 11.5804ZM19.8462 16.6154C19.8462 14.8311 18.3997 13.3846 16.6154 13.3846C14.8311 13.3846 13.3846 14.8311 13.3846 16.6154C13.3846 18.3997 14.8311 19.8461 16.6154 19.8461C18.3997 19.8461 19.8462 18.3997 19.8462 16.6154ZM35.0769 28.1538C35.7779 28.1538 36.3572 28.6747 36.4489 29.3506L36.4615 29.5384L36.4615 33.6904L40.6154 33.6923C41.3801 33.6923 42 34.3122 42 35.0769C42 35.7779 41.4791 36.3572 40.8033 36.4489L40.6154 36.4615L36.4597 36.4597L36.4615 40.6154C36.4615 41.3801 35.8416 42 35.0769 42C34.3759 42 33.7966 41.4791 33.705 40.8032L33.6923 40.6154L33.6904 36.4597L29.5385 36.4615C28.7738 36.4615 28.1538 35.8416 28.1538 35.0769C28.1538 34.3759 28.6747 33.7966 29.3506 33.7049L29.5385 33.6923L33.6923 33.6904L33.6923 29.5384C33.6923 28.7737 34.3122 28.1538 35.0769 28.1538Z" fill="#191919" fill-rule="evenodd"/>
  <path id="矢量 38" d="M35.0769 28.1538C35.7779 28.1538 36.3572 28.6747 36.4489 29.3505L36.4615 29.5384L36.4615 33.6904L40.6154 33.6923C41.3801 33.6923 42 34.3122 42 35.0769C42 35.7779 41.4791 36.3572 40.8033 36.4489L40.6154 36.4615L36.4597 36.4596L36.4615 40.6153C36.4615 41.38 35.8416 42 35.0769 42C34.3759 42 33.7966 41.479 33.7049 40.8032L33.6923 40.6153L33.6904 36.4596L29.5384 36.4615C28.7737 36.4615 28.1538 35.8416 28.1538 35.0769C28.1538 34.3759 28.6747 33.7966 29.3505 33.7049L29.5384 33.6923L33.6923 33.6904L33.6923 29.5384C33.6923 28.7737 34.3122 28.1538 35.0769 28.1538Z" fill="#AEAEAE" fill-rule="evenodd"/>
</svg>
