<svg viewBox="0 0 48 48" xmlns="http://www.w3.org/2000/svg" xmlns:xlink="http://www.w3.org/1999/xlink" width="48.000000" height="48.000000" fill="none">
  <path id="Stroke-1" d="M20.04 4C28.8984 4 36.08 11.1816 36.08 20.04C36.08 22.7964 35.3822 25.4547 34.0712 27.8145C33.6689 28.5386 32.7557 28.7996 32.0315 28.3972C31.3074 27.9949 31.0464 27.0817 31.4488 26.3575C32.5137 24.4406 33.08 22.2832 33.08 20.04C33.08 12.8384 27.2416 7 20.04 7C12.8371 7 7 12.8377 7 20.04C7 27.2423 12.8371 33.08 20.04 33.08C23.2338 33.08 26.2458 31.9289 28.6044 29.8732C29.1404 29.4061 29.9196 29.3851 30.4764 29.7937L41.2697 40.6106C41.8542 41.1977 41.852 42.1475 41.2649 42.7319C40.7312 43.2633 39.8977 43.3098 39.3115 42.8728L29.4724 33.0117L29.0609 33.3046C26.6083 34.976 23.7254 35.9451 20.6922 36.0669L20.04 36.08C11.1802 36.08 4 28.8991 4 20.04C4 11.1809 11.1802 4 20.04 4Z" fill="#191919" fill-rule="evenodd"/>
</svg>
