<svg viewBox="0 0 48 48" xmlns="http://www.w3.org/2000/svg" xmlns:xlink="http://www.w3.org/1999/xlink" width="48.000000" height="48.000000" fill="none">
  <path id="形状" d="M36.4973 7.99854C40.5058 7.99854 43.7799 11.1433 43.9869 15.1005L43.9973 15.4989L43.9964 19.6615C43.9963 20.1985 43.7091 20.6944 43.2435 20.9619C42.1625 21.5828 41.4831 22.7313 41.4831 23.9999C41.4831 25.2685 42.1625 26.417 43.2435 27.0379C43.6426 27.2672 43.9106 27.6643 43.9791 28.1112L43.9964 28.3383L43.9973 32.5058C43.9973 36.5143 40.8526 39.7883 36.8956 39.9954L36.4973 40.0058L11.5029 40.0058C7.49443 40.0058 4.22038 36.8611 4.01333 32.9041L4.00293 32.5058L4.00293 28.3311C4.00293 27.7956 4.28838 27.3008 4.7519 27.0327C5.82781 26.4104 6.50312 25.2648 6.50312 23.9999C6.50312 22.7351 5.82781 21.5895 4.7519 20.9671C4.35459 20.7373 4.08812 20.3409 4.02009 19.8952L4.00293 19.6687L4.00293 15.4985C4.00293 11.49 7.14767 8.21599 11.1046 8.00893L11.5029 7.99854L36.4973 7.99854ZM36.4973 10.9985L11.5029 10.9985C9.12122 10.9985 7.17166 12.8489 7.01333 15.1904L7.00295 15.4985L7.00112 18.8759L7.23765 19.0678C8.44128 20.1012 9.23727 21.5485 9.44751 23.1483L9.4902 23.5882L9.50312 23.9999C9.50312 25.7945 8.76899 27.4621 7.53195 28.6632L7.23765 28.932L7.00112 29.1219L7.00295 32.5058C7.00295 34.7793 8.68888 36.6589 10.8787 36.9628L11.1949 36.9954L11.5029 37.0058L36.4973 37.0058C38.879 37.0058 40.8286 35.1555 40.9869 32.8142L40.9973 32.5061L40.9951 29.1299L40.7608 28.9424C39.5427 27.9018 38.7394 26.438 38.5347 24.8203L38.4961 24.4129L38.4831 23.9999C38.4831 22.2 39.2216 20.5279 40.465 19.3262L40.7608 19.0574L40.9951 18.8679L40.9973 15.4985C40.9973 13.2251 39.3114 11.3454 37.1215 11.0415L36.8054 11.0089L36.4973 10.9985Z" fill="#191919" fill-rule="nonzero"/>
  <path id="矢量 1851" d="M24.7942 14.5689L27.1654 17.533L29.7085 14.5359C30.252 13.8953 31.1822 13.8191 31.8227 14.3626C32.4632 14.9061 32.5395 15.8365 31.996 16.4769L28.8829 20.1455L30.6395 20.1455C31.4795 20.1455 32.1395 20.8057 32.1395 21.6455C32.1395 22.4856 31.4795 23.1455 30.6395 23.1455L28.6312 23.1455L28.6312 25.408L30.7625 25.408C31.6025 25.408 32.2625 26.0681 32.2625 26.908C32.2625 27.7481 31.6025 28.408 30.7625 28.408L28.6312 28.408L28.6312 31.2935C28.6312 32.1336 27.9712 32.7935 27.1312 32.7935C26.2912 32.7935 25.6312 32.1336 25.6312 31.2935L25.6312 28.408L23.5 28.408C22.66 28.408 22 27.7481 22 26.908C22 26.0681 22.66 25.408 23.5 25.408L25.6312 25.408L25.6312 23.1455L23.6229 23.1455C22.7829 23.1455 22.1229 22.4856 22.1229 21.6455C22.1229 20.8057 22.7829 20.1455 23.6229 20.1455L25.4137 20.1455L22.4516 16.4429C21.9269 15.7872 22.0299 14.8594 22.6859 14.3348C23.3418 13.8099 24.2695 13.9129 24.7942 14.5689Z" fill="#AEAEAE" fill-rule="evenodd"/>
  <path id="矢量 1938(边框)" d="M15.5 13L15.5 14.5714C15.5 14.9856 15.3536 15.3392 15.0607 15.6321C14.7678 15.925 14.4142 16.0714 14 16.0714C13.5858 16.0714 13.2322 15.925 12.9393 15.6321C12.6464 15.3392 12.5 14.9856 12.5 14.5714L12.5 13C12.5 12.16 13.16 11.5 14 11.5C14.84 11.5 15.5 12.16 15.5 13ZM15.5 21.9048L15.5 18.7619C15.5 18.3477 15.3536 17.9941 15.0607 17.7012C14.7678 17.4084 14.4142 17.2619 14 17.2619C13.5858 17.2619 13.2322 17.4084 12.9393 17.7012C12.6464 17.9941 12.5 18.3477 12.5 18.7619L12.5 21.9048C12.5 22.319 12.6464 22.6725 12.9393 22.9654C13.2322 23.2583 13.5858 23.4048 14 23.4048C14.4142 23.4048 14.7678 23.2583 15.0607 22.9654C15.3536 22.6725 15.5 22.319 15.5 21.9048ZM15.5 29.2381L15.5 26.0952C15.5 25.681 15.3536 25.3275 15.0607 25.0346C14.7678 24.7417 14.4142 24.5952 14 24.5952C13.5858 24.5952 13.2322 24.7417 12.9393 25.0346C12.6464 25.3275 12.5 25.681 12.5 26.0952L12.5 29.2381C12.5 29.6523 12.6464 30.0059 12.9393 30.2988C13.2322 30.5917 13.5858 30.7381 14 30.7381C14.4142 30.7381 14.7678 30.5917 15.0607 30.2988C15.3536 30.0059 15.5 29.6523 15.5 29.2381ZM15.5 35L15.5 33.4286C15.5 33.0144 15.3536 32.6608 15.0607 32.3679C14.7678 32.075 14.4142 31.9286 14 31.9286C13.5858 31.9286 13.2322 32.075 12.9393 32.3679C12.6464 32.6608 12.5 33.0144 12.5 33.4286L12.5 35C12.5 35.84 13.16 36.5 14 36.5C14.84 36.5 15.5 35.84 15.5 35Z" fill="#AEAEAE" fill-rule="evenodd"/>
</svg>
