<svg viewBox="0 0 48 48" xmlns="http://www.w3.org/2000/svg" xmlns:xlink="http://www.w3.org/1999/xlink" width="48.000000" height="48.000000" fill="none">
  <g id="ic_simulcast_filled">
    <path id="形状结合" d="M21.1426 7C22.2486 7 23.1426 7.894 23.1426 9L23.1426 39C23.1426 40.106 22.2486 41 21.1426 41C20.0366 41 19.1426 40.106 19.1426 39L19.1426 9C19.1426 7.894 20.0366 7 21.1426 7ZM26.8574 13C27.9634 13 28.8574 13.894 28.8574 15L28.8574 33C28.8574 34.106 27.9634 35 26.8574 35C25.7514 35 24.8574 34.106 24.8574 33L24.8574 15C24.8574 13.894 25.7514 13 26.8574 13ZM15.4278 15C16.5338 15 17.4278 15.894 17.4278 17L17.4278 31C17.4278 32.106 16.5338 33 15.4278 33C14.3218 33 13.4278 32.106 13.4278 31L13.4278 17C13.4278 15.894 14.3218 15 15.4278 15ZM32.5704 17C33.6764 17 34.5704 17.894 34.5704 19L34.5704 29C34.5704 30.106 33.6764 31 32.5704 31C31.4644 31 30.5704 30.106 30.5704 29L30.5704 19C30.5704 17.894 31.4644 17 32.5704 17ZM9.71478 20C10.8208 20 11.7148 20.894 11.7148 22L11.7148 26C11.7148 27.106 10.8208 28 9.71478 28C8.60878 28 7.71478 27.106 7.71478 26L7.71478 22C7.71478 20.894 8.60878 20 9.71478 20ZM38.2852 21C39.3912 21 40.2852 21.894 40.2852 23L40.2852 25C40.2852 26.106 39.3912 27 38.2852 27C37.1792 27 36.2852 26.106 36.2852 25L36.2852 23C36.2852 21.894 37.1792 21 38.2852 21Z" fill="#191919" fill-rule="evenodd"/>
    <path id="形状结合" d="M26.8574 13C27.9634 13 28.8574 13.894 28.8574 15L28.8574 33C28.8574 34.106 27.9634 35 26.8574 35C25.7514 35 24.8574 34.106 24.8574 33L24.8574 15C24.8574 13.894 25.7514 13 26.8574 13ZM15.4278 15C16.5338 15 17.4278 15.894 17.4278 17L17.4278 31C17.4278 32.106 16.5338 33 15.4278 33C14.3218 33 13.4278 32.106 13.4278 31L13.4278 17C13.4278 15.894 14.3218 15 15.4278 15Z" fill="#AEAEAE" fill-rule="evenodd"/>
  </g>
</svg>
