<svg viewBox="0 0 48 48" xmlns="http://www.w3.org/2000/svg" xmlns:xlink="http://www.w3.org/1999/xlink" width="48.000000" height="48.000000" fill="none">
  <path id="形状结合" d="M32.2555 18.8279C32.788 19.3605 32.8364 20.1938 32.4007 20.781L26.122 27.08L30.7675 31.7264C31.6859 31.1531 32.7547 30.798 33.9013 30.7339L34.278 30.7234C37.9447 30.7234 40.918 33.6952 40.918 37.3614C40.918 41.0276 37.9447 43.9994 34.278 43.9994C30.6116 43.9994 27.64 41.0278 27.64 37.3614C27.64 36.0715 28.0078 34.8676 28.6443 33.8488L24 29.202L19.3584 33.8488C19.9324 34.7677 20.2879 35.8373 20.3521 36.9847L20.3626 37.3614C20.3626 41.0278 17.3911 43.9994 13.7246 43.9994C10.0564 43.9994 7.08263 41.028 7.08263 37.3614C7.08263 33.6948 10.0564 30.7234 13.7246 30.7234C15.0137 30.7234 16.2169 31.0907 17.2352 31.7264L30.1342 18.8279C30.72 18.2422 31.6697 18.2422 32.2555 18.8279ZM13.7246 33.7234C11.7127 33.7234 10.0826 35.3522 10.0826 37.3614C10.0826 39.3706 11.7127 40.9994 13.7246 40.9994C15.7342 40.9994 17.3626 39.371 17.3626 37.3614C17.3626 35.3518 15.7342 33.7234 13.7246 33.7234ZM34.278 33.7234C32.2685 33.7234 30.64 35.3518 30.64 37.3614C30.64 39.371 32.2685 40.9994 34.278 40.9994C36.2882 40.9994 37.918 39.3704 37.918 37.3614C37.918 35.3524 36.2882 33.7234 34.278 33.7234ZM35.822 4C39.0835 4 41.7475 6.54907 41.9336 9.76413L41.944 10.124L41.944 22.46C41.944 25.7218 39.3965 28.3874 36.1819 28.5736L35.822 28.584L34.278 28.584C33.4496 28.584 32.778 27.9124 32.778 27.084C32.778 26.3246 33.3423 25.697 34.0745 25.5977L34.278 25.584L35.822 25.584C37.4512 25.584 38.7878 24.3372 38.9313 22.7445L38.944 22.46L38.944 10.124C38.944 8.49374 37.6979 7.15633 36.1063 7.01276L35.822 7L12.18 7C10.5503 7 9.21242 8.24736 9.06879 9.83962L9.05603 10.124L9.05603 22.46C9.05603 24.0897 10.3034 25.4276 11.8956 25.5712L12.18 25.584L13.724 25.584C14.5525 25.584 15.224 26.2556 15.224 27.084C15.224 27.8434 14.6597 28.471 13.9276 28.5703L13.724 28.584L12.18 28.584C8.9184 28.584 6.25267 26.0348 6.06642 22.8199L6.05603 22.46L6.05603 10.124C6.05603 6.86237 8.60527 4.19664 11.8202 4.0104L12.18 4L35.822 4ZM17.6979 18.6831L21.5289 22.5214C22.1056 23.1028 22.1041 24.0409 21.5256 24.6205C20.9478 25.1994 20.0103 25.2006 19.431 24.6233L15.7448 20.9497C15.159 20.3639 15.159 19.4141 15.7448 18.8283C16.2773 18.2958 17.1106 18.2474 17.6979 18.6831Z" fill="#191919" fill-rule="evenodd"/>
  <path id="形状结合" d="M32.2555 18.828C32.788 19.3605 32.8364 20.1938 32.4007 20.7811L26.122 27.08L30.7675 31.7264C31.6859 31.1531 32.7547 30.7981 33.9013 30.7339L34.278 30.7234C37.9447 30.7234 40.918 33.6952 40.918 37.3614C40.918 41.0277 37.9447 43.9994 34.278 43.9994C30.6116 43.9994 27.64 41.0279 27.64 37.3614C27.64 36.0715 28.0078 34.8676 28.6443 33.8489L24 29.202L19.3584 33.8489C19.9324 34.7678 20.2879 35.8373 20.3521 36.9847L20.3626 37.3614C20.3626 41.0279 17.3911 43.9994 13.7246 43.9994C10.0564 43.9994 7.08263 41.0281 7.08263 37.3614C7.08263 33.6948 10.0564 30.7234 13.7246 30.7234C15.0137 30.7234 16.2169 31.0908 17.2352 31.7264L30.1342 18.828C30.72 18.2422 31.6697 18.2422 32.2555 18.828ZM13.7246 33.7234C11.7127 33.7234 10.0826 35.3522 10.0826 37.3614C10.0826 39.3707 11.7127 40.9994 13.7246 40.9994C15.7342 40.9994 17.3626 39.371 17.3626 37.3614C17.3626 35.3519 15.7342 33.7234 13.7246 33.7234ZM34.278 33.7234C32.2685 33.7234 30.64 35.3519 30.64 37.3614C30.64 39.371 32.2685 40.9994 34.278 40.9994C36.2882 40.9994 37.918 39.3704 37.918 37.3614C37.918 35.3524 36.2882 33.7234 34.278 33.7234ZM17.6979 18.6831L21.5289 22.5215C22.1056 23.1029 22.1041 24.041 21.5256 24.6206C20.9478 25.1994 20.0103 25.2006 19.431 24.6233L15.7448 20.9497C15.159 20.3639 15.159 19.4142 15.7448 18.8284C16.2773 18.2958 17.1106 18.2474 17.6979 18.6831Z" fill="#AEAEAE" fill-rule="evenodd"/>
</svg>
