<svg viewBox="0 0 48 48" xmlns="http://www.w3.org/2000/svg" xmlns:xlink="http://www.w3.org/1999/xlink" width="48.000000" height="48.000000" fill="none">
  <path id="形状结合" d="M28.1253 4.00138C28.1697 4.00534 28.303 4.01583 28.3462 4.02358C28.3938 4.03354 28.5025 4.05957 28.5483 4.07464C28.5755 4.0876 28.7861 4.17586 28.8137 4.19131C28.8673 4.23241 29.0919 4.39086 29.1405 4.4395L39.564 14.907C39.992 15.337 40.12 15.981 39.886 16.541C39.654 17.099 39.108 17.465 38.502 17.465L31.08 17.465C28.598 17.465 26.58 15.445 26.58 12.965L26.58 7L14 7C12.346 7 11 8.346 11 10L11 38.0039C11 39.6579 12.346 41.0039 14 41.0039L34.002 41.004C35.656 41.004 37.002 39.658 37.002 38.004L37.002 20.954C37.002 20.126 37.674 19.454 38.502 19.454C39.33 19.454 40.002 20.126 40.002 20.954L40.002 38.004C40.002 41.312 37.31 44.004 34.002 44.004L14 44.0039C10.692 44.0039 8 41.3119 8 38.0039L8 10C8 6.692 10.692 4 14 4L28.1253 4.00138ZM29.58 9.133L29.58 12.965C29.58 13.791 30.252 14.465 31.08 14.465L34.89 14.465L29.58 9.133Z" fill="#191919" fill-rule="evenodd"/>
  <path id="合并" d="M23.1536 28.1935L23.8232 29.3534C23.8279 29.3816 23.834 29.4096 23.8414 29.4373C23.8926 29.6284 24.0062 29.797 24.1641 29.9162C24.3433 30.129 24.6119 30.2455 24.8897 30.231C25.1675 30.2455 25.4361 30.129 25.6153 29.9162C25.7732 29.797 25.8868 29.6284 25.938 29.4373C25.9454 29.4096 25.9515 29.3816 25.9562 29.3534L26.626 28.1932L27.0536 31.2354C27.0863 31.4686 27.2104 31.6793 27.3986 31.8211C27.5867 31.9629 27.8234 32.0241 28.0567 31.9913L28.3273 31.9533C28.8131 31.885 29.1515 31.4359 29.0832 30.9501L28.2844 25.2663C28.3716 24.9578 28.2857 24.6262 28.0598 24.3988C27.9133 24.195 27.6875 24.0626 27.438 24.0345C27.2831 23.99 27.1189 23.9885 26.9632 24.0303C26.8746 24.054 26.7903 24.0913 26.7132 24.1408C26.4214 24.2678 26.2198 24.5414 26.185 24.8578L24.8897 27.1013L23.5947 24.8583C23.5599 24.5414 23.3581 24.2675 23.0657 24.1405C22.8507 24.0026 22.5867 23.964 22.3412 24.0345C22.1835 24.0524 22.0334 24.1122 21.9067 24.2077C21.8354 24.2614 21.7726 24.3256 21.7204 24.398C21.4938 24.6256 21.4076 24.9578 21.4951 25.2668L20.6964 30.9501C20.6281 31.4359 20.9665 31.885 21.4523 31.9533L21.7229 31.9913C21.9562 32.0241 22.1929 31.9629 22.3811 31.8211C22.5692 31.6793 22.6933 31.4686 22.7261 31.2354L23.1536 28.1935ZM16.2468 29.598L14.1386 31.7062C13.7554 32.0893 13.1341 32.0893 12.7509 31.7062L12.5374 31.4927C12.1542 31.1095 12.1542 30.4882 12.5374 30.105L14.6456 27.9968L12.5374 25.8886C12.3534 25.7046 12.25 25.455 12.25 25.1947C12.25 24.9345 12.3534 24.6849 12.5374 24.5009L12.7509 24.2874C12.9349 24.1034 13.1845 24 13.4447 24C13.705 24 13.9545 24.1034 14.1386 24.2874L16.2468 26.3956L18.355 24.2874C18.539 24.1034 18.7886 24 19.0488 24C19.3091 24 19.5586 24.1034 19.7427 24.2874L19.9562 24.5009C20.1402 24.6849 20.2435 24.9345 20.2435 25.1947C20.2435 25.455 20.1402 25.7046 19.9562 25.8886L17.8479 27.9968L19.9561 30.105C20.3393 30.4882 20.3393 31.1095 19.9561 31.4927L19.7426 31.7062C19.3594 32.0893 18.7382 32.0893 18.355 31.7062L16.2468 29.598ZM29.5694 31.1054L29.5694 24.8882C29.5694 24.3977 29.967 24 30.4575 24L30.7308 24C31.2213 24 31.619 24.3977 31.619 24.8882L31.619 29.9439L34.8301 29.9439C35.3206 29.9439 35.7183 30.3416 35.7183 30.8321L35.7183 31.1054C35.7183 31.5959 35.3206 31.9936 34.8301 31.9936L30.4575 31.9936C29.967 31.9936 29.5694 31.5959 29.5694 31.1054Z" fill="#AEAEAE" fill-rule="evenodd"/>
</svg>
