<svg viewBox="0 0 48 48" xmlns="http://www.w3.org/2000/svg" xmlns:xlink="http://www.w3.org/1999/xlink" width="48.000000" height="48.000000" fill="none">
  <path id="路径" d="M0 14.0612C0 16.1985 1.57006 17.9369 3.49975 17.9369C5.42994 17.9369 7 16.1985 7 14.0612L7 0.977947C7 0.434339 6.60749 0 6.11684 0L1 0C0.447715 0 6.56697e-14 0.447715 6.56697e-14 1L6.56697e-14 1.99993L0 14.0612Z" fill="#AEAEAE" fill-rule="evenodd" transform="matrix(1,0,0,-1,5,23)"/>
  <path id="减去顶层" d="M8 5.00541L8.25702 5.00541C8.54047 5.02704 9.02025 5.12547 9.50001 5.50524C9.50968 5.51289 9.51934 5.52065 9.529 5.52852C10.7345 6.51083 11 8.19971 11 9.75474L11 36C11 39.3137 13.6863 42 17 42L44 42L42.7998 41.1C41.6668 40.2504 41 38.9168 41 37.5006L41 11.0054C41 7.69171 38.3137 5.00541 35 5.00541L8.25702 5.00541C8.09737 4.99323 8 5.00541 8 5.00541ZM21.9178 13C21.9178 10.7908 23.7085 9 25.9178 9C28.127 9 29.9178 10.7908 29.9178 13C29.9178 14.6584 28.9085 16.0811 27.4707 16.6873L27.4707 18L28.9847 18C29.8248 18 30.4847 18.6599 30.4847 19.5C30.4847 20.3401 29.8248 21 28.9847 21L27.4707 21L27.4707 23.333C27.5796 23.3078 27.6876 23.2796 27.7947 23.2485C28.3216 23.0962 28.8284 22.8744 29.3152 22.5833C29.8145 22.2847 30.2598 21.9338 30.6514 21.5305C31.0396 21.1309 31.3748 20.6797 31.657 20.1772C32.0684 19.4448 32.9671 19.1926 33.6993 19.604C34.4317 20.0154 34.6839 20.9141 34.2725 21.6465C34.0831 21.9836 33.8748 22.3071 33.6475 22.6169C33.3873 22.9714 33.1023 23.3079 32.7923 23.6262C32.4859 23.9409 32.1612 24.2319 31.8177 24.4993C31.5115 24.7378 31.1905 24.9573 30.8548 25.158C30.4695 25.3884 30.0718 25.5898 29.6619 25.762C29.3013 25.9133 28.9314 26.0422 28.5518 26.1487C28.2247 26.2402 27.8943 26.314 27.5611 26.3696C27.0457 26.4561 26.5232 26.4993 25.9937 26.4998C25.4756 26.4976 24.9129 26.4541 24.4087 26.3696C24.0755 26.314 23.7452 26.2402 23.418 26.1487C23.0409 26.043 22.6731 25.9151 22.3147 25.7649C21.9049 25.5927 21.5002 25.3884 21.1148 25.158C20.7793 24.9573 20.4583 24.7378 20.1521 24.4995C19.8087 24.2321 19.4838 23.941 19.1773 23.6262C18.8676 23.308 18.5826 22.9717 18.3223 22.6172C18.095 22.3074 17.8865 21.9836 17.6971 21.6465C17.2857 20.9141 17.5381 20.0154 18.2703 19.604C19.0027 19.1926 19.9014 19.4448 20.3128 20.1772C20.595 20.6797 20.9302 21.1309 21.3184 21.5305C21.7098 21.9338 22.1553 22.2847 22.6546 22.5833C23.1414 22.8745 23.6482 23.0962 24.1751 23.2485C24.2705 23.2759 24.3742 23.3035 24.4707 23.3264L24.4707 21L22.9847 21C22.1446 21 21.4847 20.3401 21.4847 19.5C21.4847 18.6599 22.1446 18 22.9847 18L24.4707 18L24.4707 16.7302C22.9769 16.1504 21.9178 14.6987 21.9178 13ZM24.9178 13C24.9178 12.4478 25.3655 12 25.9178 12C26.47 12 26.9178 12.4478 26.9178 13C26.9178 13.5522 26.47 14 25.9178 14C25.3655 14 24.9178 13.5522 24.9178 13ZM34.5 28.5L18 28.5C17.16 28.5 16.5 29.16 16.5 30C16.5 30.84 17.16 31.5 18 31.5L34.5 31.5C35.34 31.5 36 30.84 36 30C36 29.16 35.34 28.5 34.5 28.5ZM26.75 33.5L18 33.5C17.16 33.5 16.5 34.16 16.5 35C16.5 35.84 17.16 36.5 18 36.5L26.75 36.5C27.59 36.5 28.25 35.84 28.25 35C28.25 34.16 27.59 33.5 26.75 33.5Z" fill="#191919" fill-rule="evenodd"/>
</svg>
