<svg viewBox="0 0 48 48" xmlns="http://www.w3.org/2000/svg" xmlns:xlink="http://www.w3.org/1999/xlink" width="48.000000" height="48.000000" fill="none">
  <path id="合并" d="M41.5957 6.63623C40.8341 6.20825 39.9603 6 38.9977 6C37.7822 6 36.6757 6.34009 35.7224 7.01636C35.0621 7.48486 34.649 7.95093 34.2161 8.66797C33.788 9.37695 34.0157 10.2991 34.7249 10.7273C35.4341 11.1555 36.3561 10.9277 36.7843 10.2185C37.015 9.83643 37.1555 9.67798 37.4583 9.46313C37.8951 9.15308 38.3936 9 38.9977 9C39.4662 9 39.8345 9.08789 40.1258 9.25146C40.4069 9.40942 40.6076 9.61182 40.7531 9.88062C40.9115 10.1731 40.9937 10.5193 40.9937 10.9417C40.9937 11.3433 40.9015 11.7041 40.7123 12.0476C40.4635 12.499 39.9688 13.1543 39.2379 13.9824L34.6824 18.427L34.5439 18.5808C33.7923 19.5342 34.4565 21 35.7306 21L43.5003 21L43.7038 20.9863C44.4359 20.887 45.0003 20.2593 45.0003 19.5L44.9865 19.2964C44.8872 18.5642 44.2597 18 43.5003 18L39.4122 18L41.4106 16.0481L41.748 15.6624C42.5006 14.7878 43.0119 14.0906 43.3399 13.4954C43.7742 12.707 43.9937 11.8479 43.9937 10.9417C43.9937 10.0352 43.7949 9.19775 43.3911 8.4519C42.9743 7.68262 42.3674 7.06982 41.5957 6.63623ZM18.25 20.4119L7.02386 7.20468C6.2985 6.35131 5.05806 6.25074 4.20469 6.9761C3.35132 7.70147 3.25074 8.94191 3.9761 9.79528L15.6251 23.5L3.9761 37.2047C3.25074 38.0581 3.35131 39.2985 4.20468 40.0239C5.05806 40.7492 6.29849 40.6487 7.02386 39.7953L18.25 26.5881L29.4761 39.7953C30.2015 40.6487 31.4419 40.7492 32.2953 40.0239C33.1487 39.2985 33.2492 38.0581 32.5239 37.2047L20.8749 23.5L32.5239 9.79528C33.2492 8.94191 33.1487 7.70147 32.2953 6.9761C31.4419 6.25074 30.2015 6.35131 29.4761 7.20468L18.25 20.4119Z" fill="#191919" fill-rule="evenodd"/>
  <path d="M43.0674 7.15271Q42.5415 6.59412 41.8406 6.20034L41.8406 6.20031Q41.7312 6.13887 41.6192 6.08282Q40.4542 5.5 38.9977 5.5Q37.7602 5.5 36.6904 5.92365Q36.0297 6.18531 35.433 6.60858Q34.8998 6.9869 34.5135 7.41319Q34.1424 7.82261 33.7881 8.40949Q33.6747 8.59725 33.6058 8.8001Q33.5469 8.97322 33.5204 9.15734Q33.4939 9.34111 33.5013 9.52351Q33.5095 9.72401 33.5586 9.92284Q33.6077 10.1215 33.6937 10.3025Q33.7721 10.4676 33.8813 10.6181Q33.9904 10.7686 34.123 10.8943Q34.2785 11.0418 34.4665 11.1553Q34.6545 11.2688 34.8576 11.3379Q35.0305 11.3966 35.2144 11.4231Q35.3984 11.4496 35.581 11.4421Q35.7813 11.4339 35.9799 11.3849Q36.1786 11.3358 36.3597 11.2497Q36.5247 11.1713 36.6752 11.0622Q36.8258 10.953 36.9516 10.8202Q37.099 10.6647 37.2123 10.477Q37.3618 10.2294 37.4675 10.1108Q37.5672 9.99888 37.7476 9.87088Q37.8364 9.80788 37.9311 9.75557Q38.3938 9.5 38.9977 9.5Q39.5472 9.5 39.8809 9.68737Q40.0822 9.80048 40.2144 9.96809Q40.27 10.0386 40.3134 10.1188Q40.4937 10.4516 40.4937 10.9417Q40.4937 11.223 40.4139 11.4794Q40.3614 11.6482 40.2744 11.8063Q39.9153 12.4578 38.8753 13.6376L34.3216 18.0804L34.1614 18.2584L34.1512 18.2713Q33.9566 18.5182 33.8512 18.7987Q33.7585 19.0453 33.7349 19.3179Q33.7138 19.5621 33.7501 19.7975Q33.7947 20.087 33.9262 20.363Q34.0622 20.6483 34.2673 20.8694Q34.4258 21.0403 34.6257 21.1728Q34.8248 21.3048 35.0432 21.3836Q35.3659 21.5 35.7306 21.5L43.517 21.5L43.7542 21.4841L43.771 21.4818Q43.9521 21.4572 44.1229 21.4013Q44.2935 21.3454 44.4539 21.2583Q44.6047 21.1764 44.7375 21.0717Q44.88 20.9594 45.0019 20.821Q45.1271 20.6787 45.222 20.5185Q45.3067 20.3755 45.3673 20.2182Q45.4272 20.0626 45.4601 19.9015Q45.5003 19.7049 45.5003 19.5L45.5003 19.4832L45.4843 19.2459L45.482 19.2292Q45.4574 19.0478 45.4013 18.8767Q45.3455 18.7064 45.2586 18.5463Q45.1767 18.3955 45.072 18.2626Q44.9597 18.1202 44.8213 17.9983Q44.6792 17.8733 44.5193 17.7785Q44.3761 17.6936 44.2185 17.633Q44.0633 17.5732 43.9025 17.5403Q43.7055 17.5 43.5003 17.5L40.6397 17.5L41.774 16.3921L42.127 15.9885Q43.267 14.6638 43.7778 13.7366Q44.1128 13.1286 44.291 12.4777Q44.4937 11.7374 44.4937 10.9417Q44.4937 9.72427 44.0589 8.68962Q43.9568 8.44664 43.8307 8.21374Q43.5115 7.62445 43.0674 7.15271Z" fill="#AEAEAE" fill-rule="evenodd" stroke="#AEAEAE"/>
</svg>
