<svg viewBox="0 0 48 48" xmlns="http://www.w3.org/2000/svg" xmlns:xlink="http://www.w3.org/1999/xlink" width="48.000000" height="48.000000" fill="none">
  <path id="合并" d="M5.78451 16.0942L16.0942 5.78451C16.2682 5.61042 16.4569 5.45958 16.6602 5.33197L16.6602 5.33197C16.7349 5.28508 16.8116 5.24133 16.8902 5.20071C17.0345 5.12616 17.1829 5.06354 17.3351 5.01285C17.4818 4.96402 17.6322 4.92626 17.7863 4.89957C17.9089 4.87832 18.032 4.86443 18.1555 4.85788C18.3334 4.84845 18.5121 4.8543 18.6917 4.87542C18.8228 4.89084 18.952 4.91414 19.0793 4.9453C19.2376 4.98405 19.3928 5.03497 19.5452 5.09806C19.6975 5.16115 19.8433 5.23495 19.9826 5.31947C20.0946 5.38742 20.2024 5.46231 20.3061 5.54412C20.448 5.65613 20.5785 5.77837 20.6976 5.91084C20.7803 6.00278 20.8575 6.09964 20.9292 6.20142C21.0193 6.32924 21.0989 6.46228 21.1681 6.60055C21.24 6.74407 21.3006 6.89322 21.3499 7.04799C21.3768 7.13231 21.4001 7.21745 21.4197 7.30342C21.4732 7.53739 21.5 7.77748 21.5 8.02368L21.5 18.3333C21.5 18.5598 21.4768 18.7813 21.4304 18.9979L21.4304 18.998C21.3889 19.1914 21.329 19.3809 21.2505 19.5664C21.173 19.7497 21.0801 19.9229 20.9718 20.0858C20.8562 20.2597 20.7231 20.4219 20.5725 20.5725C20.4219 20.7231 20.2596 20.8562 20.0857 20.9718C19.9228 21.0801 19.7497 21.173 19.5664 21.2505C19.3809 21.329 19.1915 21.3889 18.9981 21.4304C18.7815 21.4768 18.5599 21.5 18.3333 21.5L8.02368 21.5C7.7774 21.5 7.53724 21.4732 7.3032 21.4197C7.21731 21.4 7.13224 21.3768 7.04799 21.3499C6.89323 21.3006 6.7441 21.24 6.60059 21.1682C6.46231 21.0989 6.32925 21.0193 6.20142 20.9292C6.09966 20.8575 6.00281 20.7803 5.91089 20.6976C5.7784 20.5785 5.65615 20.448 5.54412 20.3061C5.46231 20.2025 5.38742 20.0946 5.31946 19.9826L5.3194 19.9825C5.23491 19.8432 5.16113 19.6974 5.09806 19.5452C5.03498 19.3929 4.98407 19.2376 4.94531 19.0793C4.91414 18.9521 4.89085 18.8228 4.87542 18.6917C4.8543 18.5122 4.84845 18.3335 4.85788 18.1556C4.86442 18.0321 4.87832 17.909 4.89957 17.7863C4.92626 17.6322 4.96402 17.4818 5.01286 17.3351C5.06354 17.1828 5.12616 17.0345 5.20071 16.8902C5.24133 16.8115 5.28509 16.7349 5.33199 16.6601C5.45959 16.4569 5.61043 16.2682 5.78451 16.0942ZM41.2155 16.0942L30.9058 5.78451C30.7317 5.61042 30.5431 5.45957 30.3398 5.33197L30.3395 5.33179C30.2649 5.28497 30.1883 5.24128 30.1098 5.20071C29.9654 5.12616 29.8171 5.06354 29.6648 5.01285C29.5181 4.96402 29.3678 4.92626 29.2137 4.89957C29.091 4.87832 28.968 4.86443 28.8445 4.85788C28.6666 4.84845 28.4878 4.8543 28.3083 4.87542C28.1772 4.89084 28.0481 4.91411 27.9209 4.94525L27.9208 4.94528L27.9207 4.9453C27.7624 4.98405 27.6071 5.03497 27.4548 5.09806C27.3026 5.16113 27.1568 5.23491 27.0175 5.31939L27.0174 5.31947C26.9054 5.38742 26.7975 5.46231 26.6939 5.54412C26.552 5.65613 26.4215 5.77837 26.3024 5.91084L26.3023 5.91095C26.2196 6.00285 26.1425 6.09968 26.0708 6.20142C25.9807 6.32924 25.901 6.46228 25.8318 6.60055C25.76 6.74407 25.6994 6.89322 25.6501 7.04799C25.6232 7.13231 25.5999 7.21745 25.5802 7.30342C25.5267 7.53739 25.5 7.77748 25.5 8.02368L25.5 18.3333C25.5 18.5598 25.5232 18.7813 25.5696 18.9979L25.5696 18.998C25.611 19.1914 25.671 19.3809 25.7495 19.5664C25.827 19.7497 25.9199 19.9229 26.0282 20.0858C26.1438 20.2597 26.2769 20.4219 26.4275 20.5725C26.5781 20.7231 26.7403 20.8562 26.9142 20.9718C27.0771 21.0801 27.2503 21.173 27.4336 21.2505C27.6191 21.329 27.8085 21.3889 28.0019 21.4304C28.2185 21.4768 28.4401 21.5 28.6667 21.5L38.9763 21.5C39.2226 21.5 39.4627 21.4732 39.6968 21.4197C39.7827 21.4 39.8677 21.3768 39.952 21.3499C40.1067 21.3006 40.2559 21.24 40.3994 21.1682C40.5377 21.0989 40.6707 21.0193 40.7986 20.9292C40.9003 20.8575 40.9972 20.7803 41.0891 20.6976L41.0893 20.6974C41.2217 20.5783 41.3439 20.4479 41.4559 20.3061C41.5377 20.2025 41.6126 20.0946 41.6805 19.9826C41.765 19.8433 41.8388 19.6975 41.9019 19.5452C41.965 19.3929 42.0159 19.2376 42.0547 19.0793C42.0858 18.9521 42.1091 18.8228 42.1246 18.6917C42.1457 18.5122 42.1515 18.3335 42.1421 18.1556C42.1356 18.0321 42.1217 17.909 42.1004 17.7863C42.0737 17.6322 42.036 17.4818 41.9871 17.3351C41.9364 17.1828 41.8738 17.0345 41.7993 16.8902C41.7586 16.8115 41.7149 16.7349 41.668 16.6601C41.5404 16.4569 41.3895 16.2682 41.2155 16.0942ZM18.2155 7.90583L13.0606 13.0607L7.90583 18.2155C7.87958 18.2417 7.86345 18.27 7.85742 18.3003C7.8514 18.3305 7.85549 18.3628 7.8697 18.3971C7.88391 18.4314 7.90384 18.4571 7.92951 18.4743C7.95517 18.4914 7.98656 18.5 8.02368 18.5L18.3333 18.5C18.3563 18.5 18.3777 18.4959 18.3973 18.4878L18.3974 18.4877C18.417 18.4796 18.4349 18.4674 18.4512 18.4512C18.4674 18.4349 18.4796 18.4169 18.4878 18.3973C18.4959 18.3777 18.5 18.3563 18.5 18.3333L18.5 8.02368C18.5 7.98656 18.4914 7.95517 18.4743 7.9295C18.4571 7.90384 18.4314 7.88391 18.3971 7.8697C18.3628 7.85549 18.3305 7.8514 18.3003 7.85742C18.27 7.86345 18.2417 7.87958 18.2155 7.90583ZM28.7845 7.90583L33.9393 13.0607L39.0941 18.2155C39.1204 18.2417 39.1365 18.27 39.1426 18.3003C39.1486 18.3305 39.1445 18.3628 39.1303 18.3971C39.1161 18.4314 39.0961 18.4571 39.0705 18.4743C39.0448 18.4914 39.0134 18.5 38.9763 18.5L28.6667 18.5C28.6436 18.5 28.6223 18.4959 28.6027 18.4878C28.583 18.4797 28.5651 18.4674 28.5488 18.4512C28.5325 18.4349 28.5203 18.4169 28.5122 18.3973C28.5041 18.3777 28.5 18.3563 28.5 18.3333L28.5 8.02368C28.5 7.98656 28.5086 7.95517 28.5257 7.9295C28.5429 7.90384 28.5686 7.88391 28.6029 7.8697C28.6372 7.85549 28.6695 7.8514 28.6997 7.85742C28.73 7.86345 28.7583 7.87958 28.7845 7.90583ZM5.78451 31.9058L16.0942 42.2155C16.2682 42.3896 16.4569 42.5404 16.6602 42.668C16.7349 42.7149 16.8116 42.7587 16.8902 42.7993C17.0345 42.8738 17.1829 42.9365 17.3351 42.9872C17.4818 43.036 17.6322 43.0737 17.7863 43.1004C17.9089 43.1217 18.032 43.1356 18.1555 43.1421C18.3334 43.1516 18.5121 43.1457 18.6917 43.1246C18.8228 43.1092 18.952 43.0859 19.0793 43.0547C19.2376 43.0159 19.3928 42.965 19.5452 42.9019C19.6975 42.8388 19.8433 42.765 19.9826 42.6805C20.0946 42.6126 20.2024 42.5377 20.3061 42.4559C20.448 42.3439 20.5785 42.2216 20.6976 42.0892C20.7803 41.9972 20.8575 41.9004 20.9292 41.7986C21.0193 41.6708 21.0989 41.5377 21.1681 41.3995C21.24 41.2559 21.3006 41.1068 21.3499 40.952C21.3768 40.8677 21.4001 40.7825 21.4197 40.6966C21.4732 40.4626 21.5 40.2225 21.5 39.9763L21.5 29.6667C21.5 29.4401 21.4768 29.2186 21.4304 29.002C21.3889 28.8086 21.329 28.6191 21.2505 28.4336C21.173 28.2503 21.0801 28.0771 20.9718 27.9142C20.8562 27.7403 20.7231 27.5781 20.5725 27.4275C20.4219 27.2769 20.2596 27.1438 20.0857 27.0282C19.9228 26.9199 19.7497 26.827 19.5664 26.7495C19.3809 26.671 19.1915 26.6111 18.9981 26.5696C18.7815 26.5232 18.5599 26.5 18.3333 26.5L8.02368 26.5C7.7774 26.5 7.53724 26.5268 7.3032 26.5803C7.21731 26.6 7.13224 26.6232 7.04799 26.6501C6.89323 26.6994 6.7441 26.76 6.60059 26.8318C6.46231 26.9011 6.32925 26.9807 6.20142 27.0708C6.09966 27.1425 6.00281 27.2197 5.91089 27.3024C5.7784 27.4215 5.65615 27.552 5.54412 27.6939C5.46231 27.7975 5.38742 27.9054 5.31946 28.0174C5.23495 28.1567 5.16115 28.3025 5.09806 28.4548C5.03498 28.6071 4.98407 28.7624 4.94531 28.9207C4.91414 29.0479 4.89085 29.1772 4.87542 29.3083C4.8543 29.4878 4.84845 29.6665 4.85788 29.8444C4.86442 29.9679 4.87832 30.091 4.89957 30.2137C4.92626 30.3678 4.96402 30.5182 5.01286 30.6649C5.06354 30.8172 5.12616 30.9655 5.20071 31.1098C5.24133 31.1885 5.28509 31.2651 5.33199 31.3399C5.45959 31.5431 5.61043 31.7318 5.78451 31.9058ZM41.2155 31.9058L30.9058 42.2155C30.7317 42.3896 30.5431 42.5404 30.3398 42.668L30.3391 42.6685C30.2646 42.7152 30.1882 42.7588 30.1098 42.7993C29.9654 42.8738 29.8171 42.9365 29.6648 42.9872C29.5181 43.036 29.3678 43.0737 29.2137 43.1004C29.091 43.1217 28.968 43.1356 28.8445 43.1421C28.6666 43.1516 28.4878 43.1457 28.3083 43.1246C28.1772 43.1092 28.048 43.0859 27.9207 43.0547C27.7624 43.0159 27.6071 42.965 27.4548 42.9019C27.3025 42.8388 27.1567 42.765 27.0174 42.6805C26.9054 42.6126 26.7975 42.5377 26.6939 42.4559C26.552 42.3439 26.4215 42.2216 26.3024 42.0892C26.2197 41.9972 26.1425 41.9004 26.0708 41.7986C25.9807 41.6708 25.901 41.5377 25.8318 41.3995C25.76 41.2559 25.6994 41.1068 25.6501 40.952C25.6232 40.8677 25.5999 40.7825 25.5802 40.6966C25.5267 40.4626 25.5 40.2225 25.5 39.9763L25.5 29.6667C25.5 29.4401 25.5232 29.2186 25.5696 29.002C25.611 28.8086 25.671 28.6191 25.7495 28.4336C25.827 28.2503 25.9199 28.0771 26.0282 27.9142C26.1438 27.7403 26.2769 27.5781 26.4275 27.4275C26.5781 27.2769 26.7403 27.1438 26.9142 27.0282C27.0771 26.9199 27.2503 26.827 27.4336 26.7495C27.6191 26.671 27.8085 26.6111 28.0019 26.5696C28.2185 26.5232 28.4401 26.5 28.6667 26.5L38.9763 26.5C39.2226 26.5 39.4627 26.5268 39.6968 26.5803C39.7827 26.6 39.8677 26.6232 39.952 26.6501C40.1067 26.6994 40.2559 26.76 40.3994 26.8318C40.5377 26.9011 40.6707 26.9807 40.7986 27.0708C40.9003 27.1425 40.9972 27.2197 41.0891 27.3024L41.0893 27.3026C41.2217 27.4217 41.3439 27.5521 41.4559 27.6939C41.5377 27.7975 41.6126 27.9054 41.6805 28.0174C41.765 28.1567 41.8388 28.3025 41.9019 28.4548C41.965 28.6071 42.0159 28.7624 42.0547 28.9207C42.0858 29.0479 42.1091 29.1772 42.1246 29.3083C42.1457 29.4878 42.1515 29.6665 42.1421 29.8444C42.1356 29.9679 42.1217 30.091 42.1004 30.2137C42.0737 30.3678 42.036 30.5182 41.9871 30.6649C41.9364 30.8172 41.8738 30.9655 41.7993 31.1098C41.7586 31.1885 41.7149 31.2651 41.668 31.3399C41.5404 31.5431 41.3895 31.7318 41.2155 31.9058ZM18.2155 40.0942L13.0606 34.9394L7.90583 29.7845C7.87958 29.7583 7.86345 29.73 7.85742 29.6997L7.85741 29.6997C7.85141 29.6694 7.85551 29.6372 7.8697 29.6029C7.88391 29.5686 7.90384 29.5429 7.92951 29.5257C7.95517 29.5086 7.98656 29.5 8.02368 29.5L18.3333 29.5C18.3563 29.5 18.3777 29.5041 18.3973 29.5122C18.4169 29.5203 18.4349 29.5326 18.4512 29.5488C18.4674 29.5651 18.4796 29.5831 18.4878 29.6027C18.4959 29.6223 18.5 29.6437 18.5 29.6667L18.5 39.9763C18.5 40.0134 18.4914 40.0448 18.4743 40.0705C18.4571 40.0962 18.4314 40.1161 18.3971 40.1303C18.3628 40.1445 18.3305 40.1486 18.3003 40.1426C18.27 40.1366 18.2417 40.1204 18.2155 40.0942ZM28.7845 40.0942L39.0941 29.7845C39.1204 29.7583 39.1365 29.73 39.1426 29.6997C39.1486 29.6695 39.1445 29.6372 39.1303 29.6029C39.1161 29.5686 39.0961 29.5429 39.0705 29.5257C39.0448 29.5086 39.0134 29.5 38.9763 29.5L28.6667 29.5C28.6436 29.5 28.6223 29.5041 28.6027 29.5122C28.583 29.5203 28.5651 29.5326 28.5488 29.5488C28.5325 29.5651 28.5203 29.5831 28.5122 29.6027C28.5041 29.6223 28.5 29.6437 28.5 29.6667L28.5 39.9763C28.5 40.0134 28.5086 40.0448 28.5257 40.0705C28.5429 40.0962 28.5686 40.1161 28.6029 40.1303C28.6372 40.1445 28.6695 40.1486 28.6997 40.1426C28.73 40.1366 28.7583 40.1204 28.7845 40.0942Z" fill="#191919" fill-rule="evenodd"/>
  <circle id="椭圆 38" cx="23.8571434" cy="23.8571434" r="2.85714293" fill="#AEAEAE"/>
</svg>
