<svg viewBox="0 0 48 48" xmlns="http://www.w3.org/2000/svg" xmlns:xlink="http://www.w3.org/1999/xlink" width="48.000000" height="48.000000" fill="none">
  <path id="形状结合" d="M11.006 18.6525C12.106 22.2305 14.328 25.4345 16.452 27.8865L16.452 39.3425L6.156 44.3505C5.948 44.4486 5.724 44.5005 5.5 44.5005C5.222 44.5005 4.946 44.4245 4.704 44.2725C4.264 43.9986 4 43.5186 4 43.0005L4 25.8145C4 23.5345 5.324 21.4165 7.374 20.4186L11.006 18.6525ZM41.8422 15.6507C42.3062 15.4307 42.8582 15.4548 43.2942 15.7287C43.7342 16.0028 44.0002 16.4827 44.0002 17.0007L44.0002 34.1867C44.0002 36.4647 42.6742 38.5848 40.6242 39.5827L31.6962 43.9248C31.6162 43.9627 31.5282 43.9808 31.4462 44.0148L31.4462 27.9667C33.7382 25.3447 36.1242 21.8527 37.1342 17.9408L41.8422 15.6507ZM19.4524 30.9989C19.9224 31.4349 20.3384 31.8009 20.6724 32.0869C21.0564 32.4949 21.5184 32.8309 22.0244 33.069C22.6224 33.353 23.2744 33.5009 23.9484 33.5009C24.5144 33.5009 25.0664 33.3969 25.5864 33.1909L25.8104 33.0989C26.2444 32.8909 26.7744 32.555 27.1184 32.221C27.4744 31.9249 27.9304 31.525 28.4464 31.049L28.4464 43.833L19.4524 39.457L19.4524 30.9989ZM23.9457 3.5C29.7737 3.578 34.6452 8.36175 34.6452 14.1957C34.6452 21.7358 26.5852 28.7657 25.0892 30.0057C24.9632 30.1418 24.8112 30.2537 24.6412 30.3357C24.4572 30.4138 24.1472 30.4998 23.9492 30.4998C23.7292 30.4998 23.5112 30.4537 23.3052 30.3557C23.0952 30.2557 22.9152 30.1117 22.7772 29.9357C21.0952 28.5238 13.3012 21.5837 13.3012 14.1957C13.3012 8.38175 18.1457 3.608 23.9457 3.5ZM23.9992 10.9537C22.2072 10.9537 20.7552 12.4057 20.7552 14.1978C20.7552 15.9877 22.2072 17.4397 23.9992 17.4397C25.7912 17.4397 27.2432 15.9877 27.2432 14.1978C27.2432 12.4057 25.7912 10.9537 23.9992 10.9537Z" fill="#191919" fill-rule="evenodd"/>
  <path id="形状结合" d="M23.9457 3.5C29.7737 3.578 34.6452 8.36175 34.6452 14.1957C34.6452 21.7358 26.5852 28.7657 25.0892 30.0057C24.9632 30.1418 24.8112 30.2537 24.6412 30.3357C24.4572 30.4138 24.1472 30.4998 23.9492 30.4998C23.7292 30.4998 23.5112 30.4537 23.3052 30.3557C23.0952 30.2557 22.9152 30.1117 22.7772 29.9357C21.0952 28.5238 13.3012 21.5837 13.3012 14.1957C13.3012 8.38175 18.1457 3.608 23.9457 3.5ZM23.9992 10.9537C22.2072 10.9537 20.7552 12.4057 20.7552 14.1978C20.7552 15.9877 22.2072 17.4397 23.9992 17.4397C25.7912 17.4397 27.2432 15.9877 27.2432 14.1978C27.2432 12.4057 25.7912 10.9537 23.9992 10.9537Z" fill="#AEAEAE" fill-rule="evenodd"/>
</svg>
