<svg viewBox="0 0 48 48" xmlns="http://www.w3.org/2000/svg" xmlns:xlink="http://www.w3.org/1999/xlink" width="48.000000" height="48.000000" fill="none">
  <path id="Combined Shape" d="M44 33.3333C44 31.4924 42.5076 30 40.6667 30L33 30C33 32.6924 30.8174 34.875 28.125 34.875L21.2083 34.875C18.5159 34.875 16.3333 32.6924 16.3333 30L7.33333 30C5.49238 30 4 31.4924 4 33.3333L4 39.6667C4 41.5076 5.49238 43 7.33333 43L40.6667 43C42.5076 43 44 41.5076 44 39.6667L44 33.3333Z" fill="#191919" fill-rule="evenodd"/>
  <path id="减去顶层" d="M30.3333 5C32.1743 5 33.6667 6.49238 33.6667 8.33333L33.6667 11.667L37 11.667C38.8409 11.667 40.3333 13.1594 40.3333 15.0003L40.3333 27L31.1667 27C31.1667 29.2785 29.2639 31.1251 26.9167 31.1251L22.25 31.1251C19.9028 31.1251 18 29.2785 18 27L7 27L7 8.33333C7 6.49238 8.49238 5 10.3333 5L30.3333 5ZM13.5591 11.8183L15.3688 11.8183L15.3688 9L16.6382 9L16.6382 11.8183L18.3231 11.8183L18.3231 13.1626L16.6382 13.1626L16.6382 14.8658L17.0537 14.4457C17.5801 15.0491 18.0864 15.6385 18.5725 16.2139L19.653 15.8511C20.1391 17.2284 20.5836 18.6108 20.9866 19.9984L19.7776 20.4337C19.4175 19.0487 19.0158 17.6829 18.5725 16.3361L17.5978 17.1342L16.6382 15.8511L16.6382 23L15.3688 23L15.3688 16.275C14.9658 17.2959 14.481 18.2557 13.9143 19.1544L13 18.1042C13.3808 17.5137 13.7197 16.9035 14.0169 16.2736L14.0169 16.2735L14.0169 16.2735C14.0657 16.1701 14.1133 16.0662 14.1598 15.9618C14.6056 15.0656 14.9885 14.1326 15.3083 13.1626L13.5591 13.1626L13.5591 11.8183ZM18.4478 15.0529L17.5978 13.9607C18.5176 13.3299 19.3286 12.6056 20.0307 11.7879C20.7455 10.9555 21.3475 10.0262 21.8366 9L23.0456 9C23.5291 9.98018 24.1109 10.856 24.791 11.6274C25.2317 12.1378 25.7059 12.6089 26.2135 13.0407L26.2136 13.0408L26.2137 13.0408C26.6808 13.438 27.1762 13.802 27.7 14.1326L26.85 15.2897C26.3664 14.9664 25.9231 14.6227 25.5201 14.2586L25.5201 15.2439L19.4225 15.2439L19.4225 14.2586C19.0926 14.5386 18.7677 14.8034 18.4478 15.0529ZM22.4411 10.5963C21.92 11.5462 21.3007 12.404 20.5829 13.1695L20.5828 13.1696C20.3465 13.4217 20.0995 13.6637 19.8419 13.8958L25.1008 13.8958C24.8837 13.7026 24.6736 13.5024 24.4706 13.2954C23.6894 12.4983 23.0129 11.5986 22.4411 10.5963ZM21.1717 15.9618L22.3769 15.6028C22.7798 16.9063 23.1614 18.2099 23.5216 19.5134L22.3164 19.8723C21.9966 18.5688 21.615 17.2653 21.1717 15.9618ZM17.7187 21.0447L23.106 21.0447C23.786 19.2931 24.4308 17.5212 25.0403 15.7289L26.3097 16.1489C25.7002 17.7758 25.097 19.4077 24.5001 21.0447L27.0993 21.0447L27.0993 22.389L17.7187 22.389L17.7187 21.0447Z" fill="#AEAEAE" fill-rule="evenodd"/>
</svg>
