<svg viewBox="0 0 48 48" xmlns="http://www.w3.org/2000/svg" xmlns:xlink="http://www.w3.org/1999/xlink" width="48.000000" height="48.000000" fill="none">
  <path id="形状结合" d="M30.715 5.99268C33.2256 5.99268 35.5441 7.33679 36.7917 9.51554C37.2034 10.2345 36.9543 11.151 36.2354 11.5626C35.5764 11.94 34.7513 11.7621 34.3013 11.1761C33.6431 10.0266 32.3503 9.11369 31.044 9.00618L30.715 8.99268L18.1304 8.99268C16.9078 8.99268 15.7588 9.55093 15.0138 10.4809L14.8209 10.7436L9.43602 19.0622C8.9099 19.875 8.90437 20.9096 9.39986 21.7219L9.56352 21.9584L21.9889 37.8865C22.1515 38.0949 22.3418 38.2801 22.5545 38.4369C23.7631 39.328 25.4343 39.1424 26.4216 38.0535L26.6096 37.8237L38.4375 21.7817C38.953 21.0825 39.0648 20.1724 38.7496 19.3772L38.6287 19.1169L36.616 15.3625C36.2246 14.6324 36.4992 13.7232 37.2293 13.3318C37.8986 12.973 38.7183 13.1738 39.1518 13.7722L41.2727 17.6994C42.2133 19.454 42.1282 21.5692 41.0755 23.2351L40.8521 23.562L29.0243 39.6041C27.0906 42.2267 23.3969 42.7853 20.7742 40.8515C20.4496 40.6122 20.1507 40.3405 19.882 40.0407L19.6235 39.7317L7.19812 23.8037C5.84178 22.065 5.66226 19.6972 6.70731 17.7849L6.91762 17.432L12.3163 9.09249C13.5355 7.27612 15.5278 6.141 17.6948 6.0062L18.1304 5.99268L30.715 5.99268ZM32.8848 16.9039C33.191 17.664 32.8664 18.5472 32.1598 18.8766C27.1366 21.2184 21.6952 21.2184 15.9093 18.9064C15.1874 18.618 14.8196 17.7546 15.0877 16.978C15.3558 16.2014 16.1584 15.8057 16.8803 16.0941C22.0149 18.1458 26.7139 18.1458 31.051 16.124C31.7576 15.7946 32.5786 16.1437 32.8848 16.9039Z" fill="#191919" fill-rule="evenodd"/>
  <path id="形状结合" d="M32.8848 16.9044C33.191 17.6645 32.8664 18.5477 32.1598 18.8771C27.1366 21.2188 21.6952 21.2188 15.9093 18.9069C15.1874 18.6185 14.8196 17.7551 15.0877 16.9785C15.3558 16.2019 16.1584 15.8062 16.8803 16.0946C22.0149 18.1463 26.7139 18.1463 31.051 16.1244C31.7576 15.7951 32.5786 16.1442 32.8848 16.9044Z" fill="#AEAEAE" fill-rule="evenodd"/>
</svg>
