<svg viewBox="0 0 48 48" xmlns="http://www.w3.org/2000/svg" xmlns:xlink="http://www.w3.org/1999/xlink" width="48.000000" height="48.000000" fill="none">
  <path id="path" d="M33.84 6.3999C33.5867 5.6999 33.1533 5.1266 32.54 4.67993C31.9333 4.2266 31.2466 4 30.48 4L17.52 4C16.7534 4 16.0667 4.2266 15.46 4.67993C14.8467 5.1266 14.4133 5.6999 14.16 6.3999L12.48 6.3999C11.3266 6.3999 10.2533 6.69671 9.26001 7.29004C8.27334 7.88337 7.48335 8.68327 6.89001 9.68994C6.29668 10.6966 6 11.7766 6 12.9299L6 37.96C6 39.1066 6.29668 40.1766 6.89001 41.1699C7.48335 42.1633 8.27334 42.9567 9.26001 43.55C10.2533 44.1434 11.3266 44.4399 12.48 44.4399L35.52 44.4399C36.6734 44.4399 37.7467 44.1434 38.74 43.55C39.7267 42.9567 40.5167 42.1633 41.11 41.1699C41.7033 40.1766 42 39.1066 42 37.96L42 12.9299C42 11.7766 41.7033 10.6966 41.11 9.68994C40.5167 8.68327 39.7267 7.88337 38.74 7.29004C37.7467 6.69671 36.6734 6.3999 35.52 6.3999L33.84 6.3999ZM16.99 7.51001C16.99 7.35001 17.04 7.22012 17.14 7.12012C17.2333 7.02678 17.36 6.97998 17.52 6.97998L30.48 6.97998C30.64 6.97998 30.7667 7.02678 30.86 7.12012C30.96 7.22012 31.01 7.35001 31.01 7.51001L31.01 10.9199C31.01 11.0466 30.96 11.1567 30.86 11.25C30.7667 11.35 30.64 11.3999 30.48 11.3999L17.52 11.3999C17.1667 11.3999 16.99 11.2399 16.99 10.9199L16.99 7.51001ZM39.02 37.96C39.02 38.92 38.67 39.7433 37.97 40.4299C37.2633 41.1166 36.4467 41.46 35.52 41.46L12.48 41.46C11.52 41.46 10.7034 41.1166 10.03 40.4299C9.3567 39.7433 9.02002 38.92 9.02002 37.96L9.02002 12.9299C9.02002 11.9699 9.3567 11.1466 10.03 10.46C10.7034 9.77329 11.52 9.42993 12.48 9.42993L14.02 9.42993L14.02 10.9199C14.02 11.8466 14.3633 12.6601 15.05 13.3601C15.7367 14.0668 16.56 14.4199 17.52 14.4199L30.48 14.4199C31.44 14.4199 32.2633 14.0668 32.95 13.3601C33.6367 12.6601 33.98 11.8466 33.98 10.9199L33.98 9.42993L35.52 9.42993C36.4467 9.42993 37.2633 9.77329 37.97 10.46C38.67 11.1466 39.02 11.9699 39.02 12.9299L39.02 37.96Z" fill="#191919" fill-rule="nonzero"/>
  <path id="合并" d="M16.05 35L14 35C13.8573 35 13.7178 34.9854 13.5813 34.9563C13.4588 34.9301 13.3387 34.8921 13.2212 34.8424C13.1052 34.7934 12.9957 34.7346 12.8927 34.666C12.783 34.5931 12.6807 34.5092 12.5858 34.4142C12.4908 34.3193 12.4069 34.217 12.334 34.1074L12.334 34.1073C12.2654 34.0043 12.2066 33.8948 12.1576 33.7788C12.1079 33.6613 12.0699 33.5412 12.0437 33.4187C12.0146 33.2822 12 33.1427 12 33L12 20.5C12 20.3573 12.0146 20.2178 12.0437 20.0813C12.0699 19.9588 12.1079 19.8387 12.1576 19.7212C12.2066 19.6052 12.2655 19.4957 12.334 19.3926C12.4069 19.283 12.4908 19.1807 12.5858 19.0858C12.6807 18.9908 12.783 18.9069 12.8926 18.834L12.8926 18.834C12.9957 18.7654 13.1052 18.7066 13.2212 18.6576C13.3387 18.6079 13.4588 18.5699 13.5813 18.5437L13.5813 18.5437C13.7178 18.5146 13.8573 18.5 14 18.5L24.5 18.5C24.6427 18.5 24.7822 18.5146 24.9187 18.5437C25.0412 18.5699 25.1613 18.6079 25.2788 18.6576C25.3948 18.7066 25.5043 18.7655 25.6074 18.834C25.717 18.9069 25.8193 18.9908 25.9142 19.0858C26.0092 19.1807 26.0931 19.283 26.166 19.3927C26.2346 19.4957 26.2934 19.6052 26.3424 19.7212C26.3921 19.8387 26.4301 19.9588 26.4563 20.0813C26.4854 20.2178 26.5 20.3573 26.5 20.5L26.5 21.5L30 21.5C30.1574 21.5 30.3106 21.5176 30.4596 21.5528C30.6087 21.588 30.7537 21.6408 30.8944 21.7111C31.0352 21.7815 31.1644 21.8658 31.2819 21.9639C31.3995 22.0621 31.5056 22.1741 31.6 22.3L35.6 27.6333C35.6649 27.7199 35.7222 27.8105 35.7717 27.9051C35.8213 27.9997 35.8632 28.0983 35.8974 28.2009C35.9316 28.3035 35.9572 28.4075 35.9743 28.5129C35.9914 28.6183 36 28.7251 36 28.8333L36 33C36 33.1427 35.9854 33.2823 35.9562 33.4188C35.9301 33.5413 35.8921 33.6613 35.8424 33.7788C35.7934 33.8948 35.7346 34.0043 35.666 34.1073C35.5931 34.2169 35.5092 34.3192 35.4142 34.4142C35.3193 34.5092 35.217 34.5931 35.1074 34.666C35.0043 34.7346 34.8948 34.7934 34.7788 34.8424C34.6613 34.8921 34.5412 34.9301 34.4186 34.9563C34.2822 34.9854 34.1427 35 34 35L31.95 35C31.7184 36.1411 30.7095 37 29.5 37C28.2905 37 27.2816 36.1411 27.05 35L20.95 35C20.7184 36.1411 19.7095 37 18.5 37C17.2905 37 16.2816 36.1411 16.05 35ZM16.4998 33L14 33L14 20.5L24.5 20.5L24.5 28.5C24.5 29.06 24.94 29.5 25.5 29.5C26.06 29.5 26.5 29.06 26.5 28.5L26.5 23.5L30 23.5L34 28.8333L34 33L31.5002 33C31.0441 32.3928 30.3179 32 29.5 32C28.6821 32 27.9559 32.3928 27.4998 33L20.5002 33C20.0441 32.3928 19.3179 32 18.5 32C17.6821 32 16.9559 32.3928 16.4998 33ZM20.6311 28.8891L23.2172 26.3581C23.375 26.2037 23.3784 25.9508 23.2248 25.7921L20.6385 23.1203C20.489 22.9658 20.2398 22.9592 20.082 23.1056C20.0035 23.1784 19.959 23.2795 19.959 23.3853L19.959 24.923L16.3937 24.9231C16.1763 24.9231 16 25.0954 16 25.3082L16 26.8497C16 27.0625 16.1763 27.2348 16.3937 27.2348L19.959 27.2349L19.959 28.6166C19.959 28.8294 20.1353 29.002 20.3527 29.002C20.4571 29.002 20.5573 28.9614 20.6311 28.8891Z" fill="#AEAEAE" fill-rule="evenodd"/>
</svg>
