<svg viewBox="0 0 48 48" xmlns="http://www.w3.org/2000/svg" xmlns:xlink="http://www.w3.org/1999/xlink" width="48.000000" height="48.000000" fill="none">
  <path id="形状结合" d="M38.9995 39.4978C39.828 39.4978 40.4995 40.1694 40.4995 40.9978C40.4995 41.7572 39.9352 42.3848 39.2031 42.4841L38.9995 42.4978L22.9995 42.4978C22.1711 42.4978 21.4995 41.8263 21.4995 40.9978C21.4995 40.2384 22.0638 39.6109 22.796 39.5115L22.9995 39.4978L38.9995 39.4978ZM29.4975 10.2106L37.8295 18.5446L19.6535 36.7186C19.5442 36.828 19.4113 36.928 19.2818 36.9964L19.0815 37.0846L7.57553 42.3546C7.37353 42.4466 7.16153 42.4926 6.95153 42.4926C6.55753 42.4926 6.17353 42.3366 5.88353 42.0466C5.49678 41.6546 5.35963 41.0881 5.51092 40.5707L5.59353 40.3526L10.9975 28.8526C11.0375 28.7626 11.0855 28.6766 11.1435 28.5946L11.3355 28.3726L29.4975 10.2106ZM32.4907 7.21763C34.7527 4.95763 38.4627 4.92563 40.7567 7.15363C41.9007 8.25963 42.5347 9.74563 42.5487 11.3376C42.5607 12.9316 41.9467 14.4276 40.8227 15.5516L39.9507 16.4236L31.6187 8.08963L32.4907 7.21763Z" fill="#191919" fill-rule="evenodd"/>
  <path id="形状结合" d="M38.9995 39.498C39.828 39.498 40.4995 40.1695 40.4995 40.998C40.4995 41.7573 39.9352 42.3849 39.2031 42.4843L38.9995 42.498L22.9995 42.498C22.1711 42.498 21.4995 41.8264 21.4995 40.998C21.4995 40.2386 22.0639 39.611 22.796 39.5117L22.9995 39.498L38.9995 39.498Z" fill="#AEAEAE" fill-rule="evenodd"/>
</svg>
