<svg viewBox="0 0 48 48" xmlns="http://www.w3.org/2000/svg" xmlns:xlink="http://www.w3.org/1999/xlink" width="48.000000" height="48.000000" fill="none">
  <path id="形状结合" d="M24 4C27.5899 4 30.5 6.91015 30.5 10.5L30.4926 10.2435C37.0331 12.8531 41.5 19.233 41.5 26.5C41.5 27.6552 41.3879 28.7961 41.1675 29.911C42.8771 31.0837 44 33.0514 44 35.2812C44 38.8711 41.0899 41.7812 37.5 41.7812C36.2433 41.7812 35.07 41.4246 34.0756 40.8071C31.1646 42.8651 27.6692 44 24 44C20.3321 44 16.8373 42.8661 13.9228 40.8093C12.93 41.4246 11.7567 41.7812 10.5 41.7812C6.91015 41.7812 4 38.8711 4 35.2812C4 33.0505 5.12373 31.0822 6.836 29.9116C6.61224 28.7969 6.5 27.6557 6.5 26.5C6.5 19.2415 10.9577 12.858 17.5059 10.2443C17.6392 6.77294 20.4958 4 24 4ZM18.1074 13.2472C12.9997 15.5478 9.5 20.7013 9.5 26.5C9.5 27.2888 9.56285 28.0686 9.68666 28.8343C9.95595 28.7982 10.226 28.7812 10.5 28.7812C14.0899 28.7812 17 31.6914 17 35.2812C17 36.5092 16.6595 37.6577 16.0677 38.6373C18.3935 40.1648 21.1307 41 24 41C26.8697 41 29.607 40.1644 31.9343 38.6393C31.3405 37.6577 31 36.5092 31 35.2812C31 31.6914 33.9101 28.7812 37.5 28.7812C37.7747 28.7812 38.0454 28.7983 38.3112 28.8314C38.4372 28.068 38.5 27.2885 38.5 26.5C38.5 20.6709 35.0304 15.5298 29.8937 13.2462C28.856 15.4649 26.6073 17 24 17C21.3919 17 19.1426 15.464 18.1074 13.2472ZM10.5 31.7812C8.567 31.7812 7 33.3483 7 35.2812C7 37.2142 8.567 38.7812 10.5 38.7812C12.433 38.7812 14 37.2142 14 35.2812C14 33.3483 12.433 31.7812 10.5 31.7812ZM37.5 31.7812C35.567 31.7812 34 33.3483 34 35.2812C34 37.2142 35.567 38.7812 37.5 38.7812C39.433 38.7812 41 37.2142 41 35.2812C41 33.3483 39.433 31.7812 37.5 31.7812ZM24 7C22.067 7 20.5 8.567 20.5 10.5C20.5 12.433 22.067 14 24 14C25.933 14 27.5 12.433 27.5 10.5C27.5 8.567 25.933 7 24 7Z" fill="#191919" fill-rule="evenodd"/>
  <path id="矢量 1730" d="M17.5046 10.2441C10.9568 12.8584 6.49951 19.2417 6.49951 26.4995C6.49951 27.6553 6.61182 28.7964 6.83569 29.9111C7.66724 29.3428 8.63794 28.9624 9.68579 28.8315C9.56226 28.0664 9.49951 27.2876 9.49951 26.4995C9.49951 20.7012 12.9993 15.5474 18.1069 13.2471C17.7168 12.4121 17.4995 11.4814 17.4995 10.4995C17.4995 10.4141 17.5012 10.3291 17.5046 10.2441ZM29.897 13.2476C30.2837 12.4155 30.4995 11.4771 30.4995 10.4995C30.4995 10.4146 30.4978 10.3286 30.4946 10.2441C37.0339 12.8545 41.4995 19.2334 41.4995 26.4995C41.4995 27.6548 41.3875 28.7959 41.167 29.9106C40.3352 29.3423 39.3611 28.9619 38.313 28.8311C38.4375 28.0718 38.4995 27.2837 38.4995 26.4995C38.4995 20.6719 35.0317 15.5317 29.897 13.2476ZM16.0664 38.6387C18.3916 40.165 21.1313 40.9995 23.9995 40.9995C26.8691 40.9995 29.606 40.1641 31.9333 38.6392C32.4658 39.52 33.2014 40.2642 34.0752 40.8066C31.1643 42.8647 27.6687 43.9995 23.9995 43.9995C20.3318 43.9995 16.8372 42.8657 13.9226 40.8091C14.7971 40.2666 15.5334 39.52 16.0664 38.6387Z" fill="#AEAEAE" fill-rule="evenodd"/>
</svg>
