<svg viewBox="0 0 48 48" xmlns="http://www.w3.org/2000/svg" xmlns:xlink="http://www.w3.org/1999/xlink" width="48.000000" height="48.000000" fill="none">
  <path id="形状结合" d="M11.998 42C8.692 42 6 39.308 6 36.002L6 11.998C6 8.692 8.692 6 11.998 6L36.002 6C39.308 6 42 8.692 42 11.998C42 12.826 41.328 13.498 40.5 13.498C39.672 13.498 39 12.826 39 11.998C39 10.346 37.654 9 36.002 9L11.998 9C10.346 9 9 10.346 9 11.998L9 36.002C9 37.654 10.346 39 11.998 39L36.002 39C37.654 39 39 37.654 39 36.002L39 17.0126C39 16.1846 39.672 15.5126 40.5 15.5126C41.328 15.5126 42 16.1846 42 17.0126L42 36.002C42 39.308 39.308 42 36.002 42L11.998 42Z" fill="#191919" fill-rule="evenodd"/>
  <path id="矢量 1883" d="M27.3054 15.022C27.3054 15.3975 27.3182 15.9048 27.3438 16.5439L28.8061 16.5439C28.9451 16.5439 29.0812 16.558 29.2145 16.586C29.3407 16.6128 29.4644 16.6522 29.5855 16.7039C29.7034 16.7547 29.8146 16.8154 29.9191 16.8863C30.0269 16.9596 30.1275 17.0436 30.221 17.1382C30.3145 17.2331 30.3974 17.3351 30.4695 17.4444C30.5394 17.5504 30.5994 17.6634 30.6493 17.7827C30.7005 17.9056 30.7392 18.031 30.7655 18.159C30.7932 18.2943 30.8071 18.4323 30.8071 18.5732L30.8071 24.8937L32.0611 24.6819C32.8901 24.5417 33.65 25.0921 33.7882 25.9328C33.9263 26.7736 33.3836 27.5442 32.5546 27.6842L30.1356 28.0932C29.9821 28.1192 29.8297 28.1271 29.6785 28.1174C29.5367 28.1083 29.3959 28.0832 29.2561 28.0426C29.1208 28.0035 28.9923 27.951 28.8706 27.8858C28.7441 27.8179 28.625 27.736 28.5132 27.6398C28.4015 27.5437 28.3022 27.4382 28.2153 27.3228C28.1318 27.2118 28.0597 27.0919 27.9993 26.9628C27.9368 26.8298 27.8895 26.6931 27.8572 26.5526C27.8228 26.403 27.8056 26.2492 27.8056 26.0914L27.8056 19.5879L27.4146 19.5879C27.4133 19.6253 27.4118 19.6624 27.4103 19.6988C27.3669 20.7018 27.2138 21.6102 26.9509 22.4242C26.638 23.393 26.1479 24.3145 25.4805 25.1887C24.7848 26.0998 23.8639 27.0025 22.7177 27.8967C22.0516 28.4164 21.1256 28.2938 20.6132 27.6183C20.1007 26.9428 20.2215 26.0037 20.8877 25.484C21.8296 24.7492 22.5694 24.0296 23.1072 23.3251C23.5629 22.7284 23.8933 22.1123 24.0985 21.4767C24.2741 20.9329 24.3782 20.3033 24.4107 19.5879L23.8037 19.5879C22.9632 19.5879 22.3029 18.9183 22.3029 18.0659C22.3029 17.2135 22.9632 16.5439 23.8037 16.5439L24.3399 16.5439C24.3159 15.9189 24.3039 15.4116 24.3039 15.022C24.3039 14.1696 24.9642 13.5 25.8046 13.5C26.6451 13.5 27.3054 14.1696 27.3054 15.022ZM19.5516 23.2927L19.5516 26.183C19.5516 27.0354 18.8912 27.705 18.0508 27.705C18.0087 27.705 17.967 27.7033 17.9258 27.7C17.8846 27.7033 17.8429 27.705 17.8007 27.705L15.2995 27.705C14.4591 27.705 13.7987 27.0354 13.7987 26.183C13.7987 25.3306 14.4591 24.6611 15.2995 24.6611L16.5501 24.6611L16.5501 24.1082L15.7817 24.317C14.9699 24.5377 14.1612 24.0641 13.9437 23.2409C13.7262 22.4175 14.1931 21.5973 15.0048 21.3769L16.5501 20.957L16.5501 19.5879L15.2995 19.5879C14.4591 19.5879 13.7987 18.9183 13.7987 18.0659C13.7987 17.2135 14.4591 16.5439 15.2995 16.5439L16.5501 16.5439L16.5501 15.2756C16.5501 14.4232 17.2104 13.7537 18.0508 13.7537C18.8912 13.7537 19.5516 14.4232 19.5516 15.2756L19.5516 16.5439L20.8022 16.5439C21.6426 16.5439 22.3029 17.2135 22.3029 18.0659C22.3029 18.9183 21.6426 19.5879 20.8022 19.5879L19.5516 19.5879L19.5516 20.1412L20.3201 19.9324C21.1318 19.712 21.9406 20.1853 22.1581 21.0087C22.3756 21.8319 21.9087 22.6521 21.0969 22.8726L19.5516 23.2927ZM17.697 31.7234C18.2136 31.0955 18.1909 30.0335 17.6455 29.3102C17.1 28.5869 16.2655 28.5118 15.7489 29.1398L13.873 31.4205C13.3564 32.0484 13.3791 33.1101 13.9245 33.8337C14.47 34.557 15.3045 34.6321 15.8211 34.0039L17.697 31.7234ZM20.3393 33.4715L19.4283 30.7952C19.1541 29.9894 19.5629 29.138 20.3573 28.8598C21.1517 28.5819 21.9913 28.9963 22.2656 29.8019L23.1765 32.4785C23.4507 33.284 23.042 34.1357 22.2475 34.4136C21.4531 34.6918 20.6135 34.2771 20.3393 33.4715ZM25.7972 33.4715L24.8863 30.7952C24.6121 29.9894 25.0208 29.138 25.8152 28.8598C26.6097 28.5819 27.4493 28.9963 27.7235 29.8019L28.6344 32.4785C28.9086 33.284 28.4999 34.1357 27.7055 34.4136C26.9111 34.6918 26.0714 34.2771 25.7972 33.4715ZM31.7973 33.5486L30.1112 31.2917C29.6037 30.6124 29.7312 29.6743 30.401 29.1596C31.0709 28.6448 31.996 28.7741 32.5035 29.4534L34.1896 31.7103C34.6971 32.3895 34.5696 33.3276 33.8998 33.8424C33.2299 34.3571 32.3048 34.2278 31.7973 33.5486Z" fill="#AEAEAE" fill-rule="evenodd"/>
</svg>
