<svg viewBox="0 0 48 48" xmlns="http://www.w3.org/2000/svg" xmlns:xlink="http://www.w3.org/1999/xlink" width="48.000000" height="48.000000" fill="none">
  <path id="减去顶层" d="M33 19.9999C35.3038 19.9999 36.9233 20.5886 38 21.5599L38 12L37.9898 11.6475C37.8073 8.49784 35.1954 6 32 6L11 6L10.6475 6.01019C7.49784 6.19268 5 8.80464 5 12L5 36L5.01019 36.3525C5.19268 39.5022 7.80464 42 11 42L22.1532 41.9986C21.4713 41.7491 21 41.1077 21 40.3771C21 40.2848 21.0077 40.1919 21.023 40.1003L21.0516 39.9638L22.3026 32.9092C22.5552 31.9119 23.4261 31.1762 24.4744 31.0885L24.6863 31.0793L28.4598 31.0787L28.5 30.9999C26.7303 29.8523 26.2231 28.2634 26.2231 26.2114C26.2231 22.7731 29.2655 19.9999 33 19.9999ZM20.1654 15.5332L17.7942 12.5691C17.2695 11.9131 16.3418 11.8101 15.6859 12.335C15.0299 12.8597 14.9269 13.7874 15.4516 14.4432L18.4137 18.1458L14.6229 18.1458C13.7829 18.1458 13.1229 18.8059 13.1229 19.6458C13.1229 20.4859 13.7829 21.1458 14.6229 21.1458L18.6312 21.1458L18.6312 23.4082L14.5 23.4082C13.66 23.4082 13 24.0684 13 24.9082C13 25.7483 13.66 26.4082 14.5 26.4082L18.6312 26.4082L18.6312 29.2937C18.6312 30.1338 19.2912 30.7937 20.1312 30.7937C20.9712 30.7937 21.6312 30.1338 21.6312 29.2937L21.6312 26.4082L24.7625 26.4082C25.6025 26.4082 26.2625 25.7483 26.2625 24.9082C26.2625 24.0684 25.6025 23.4082 24.7625 23.4082L21.6312 23.4082L21.6312 21.1458L25.6395 21.1458C26.4795 21.1458 27.1395 20.4859 27.1395 19.6458C27.1395 18.8059 26.4795 18.1458 25.6395 18.1458L21.8829 18.1458L24.996 14.4771C25.5395 13.8367 25.4632 12.9063 24.8227 12.3628C24.1822 11.8194 23.252 11.8956 22.7085 12.5362L20.1654 15.5332Z" fill="#191919" fill-rule="evenodd"/>
  <path id="形状结合" d="M38.4522 26.601C38.4522 24.054 36.229 22 33.5 22C30.7709 22 28.5477 24.054 28.5477 26.601C28.5477 28.1209 29.3474 29.5084 30.6407 30.3583L30.1821 32.514L26.6939 32.5147L26.539 32.5213C25.7729 32.5865 25.1365 33.1313 24.9519 33.8701L24.0377 37.5288L24.0168 37.6299C24.0056 37.6977 24 37.7664 24 37.8352C24 38.5313 24.5701 39.118 25.3047 39.118L41.6952 39.118L41.8096 39.113C41.8856 39.1065 41.9609 39.0934 42.0346 39.0738C42.7307 38.8897 43.1289 38.1961 42.9622 37.5288L42.048 33.8701L42.0052 33.725C41.7617 33.0133 41.088 32.5147 40.306 32.5147L36.8096 32.514L36.3657 30.3541C37.6558 29.5034 38.4522 28.1178 38.4522 26.601ZM41.9143 41.1319C41.9143 40.6565 41.5287 40.2707 41.0533 40.2709L25.9459 40.2788C25.4708 40.279 25.0857 40.6639 25.0857 41.139C25.0857 41.6145 25.4712 42.0002 25.9467 42L41.0541 41.9921C41.5292 41.9919 41.9143 41.6071 41.9143 41.1319Z" fill="#AEAEAE" fill-rule="evenodd"/>
</svg>
