<svg viewBox="0 0 48 48" xmlns="http://www.w3.org/2000/svg" xmlns:xlink="http://www.w3.org/1999/xlink" width="48.000000" height="48.000000" fill="none">
  <path id="减去顶层" d="M38 10C38 6.68629 35.3137 4 32 4L12 4C8.68629 4 6 6.68629 6 10L6 37C6 40.3137 8.68629 43 12 43L20.5 43L20.5 41.1429C20.5 37.8741 22.8054 35.1183 25.952 34.2695C24.7276 32.67 24 30.67 24 28.5C24 23.2533 28.2533 19 33.5 19C35.1281 19 36.6606 19.4096 38 20.1313L38 10ZM29 11.5C29.8284 11.5 30.5 12.1716 30.5 13C30.5 13.7594 29.9357 14.387 29.2035 14.4863L29 14.5L15 14.5C14.1716 14.5 13.5 13.8284 13.5 13C13.5 12.2406 14.0643 11.613 14.7964 11.5137L15 11.5L29 11.5ZM23.5 19C23.5 18.1716 22.8284 17.5 22 17.5L15 17.5L14.7964 17.5137C14.0643 17.613 13.5 18.2406 13.5 19C13.5 19.8284 14.1716 20.5 15 20.5L22 20.5L22.2035 20.4863C22.9357 20.387 23.5 19.7594 23.5 19Z" fill="#191919" fill-rule="evenodd"/>
  <path id="合并" d="M27.3333 28.6667C27.3333 32.3486 30.3181 35.3333 34 35.3333L30.25 35.3333C26.7982 35.3333 24 37.9983 24 41.2857L24 42.8333C24 43.2936 24.3731 43.6667 24.8333 43.6667L43.1667 43.6667C43.6269 43.6667 44 43.2936 44 42.8333L44 41.2857C44 37.9983 41.2018 35.3333 37.75 35.3333L34 35.3333C37.6819 35.3333 40.6667 32.3486 40.6667 28.6667C40.6667 24.9848 37.6819 22 34 22C30.3181 22 27.3333 24.9848 27.3333 28.6667Z" fill="#AEAEAE" fill-rule="evenodd"/>
</svg>
