<svg viewBox="0 0 48 48" xmlns="http://www.w3.org/2000/svg" xmlns:xlink="http://www.w3.org/1999/xlink" width="48.000000" height="48.000000" fill="none">
  <path id="减去顶层" d="M24.0956 8.01045L24.4438 8.03976C27.7824 8.40773 30.2869 11.2119 29.8453 15.0412L29.789 15.4409C29.7629 15.5981 29.735 15.7532 29.7054 15.9061C28.4497 16.2217 27.2631 16.7136 26.1738 17.354C26.4364 16.7135 26.656 15.918 26.8137 14.9683C27.208 12.5939 25.826 11.0649 23.9647 10.9554L23.6781 10.9489C21.9478 10.9864 20.524 12.5507 20.826 15.0302C21.0526 16.8907 21.6131 18.1252 22.2423 18.6843C22.7217 18.9959 23.1931 19.1978 23.6318 19.2842C22.8769 20.0121 22.2064 20.827 21.6366 21.713C21.6285 21.7093 21.6205 21.7055 21.6124 21.7018L15.8967 25.8453C15.436 26.1547 15.1005 26.612 14.9484 27.138L14.703 27.9864C14.4764 28.7697 13.6435 29.2251 12.8425 29.0035C12.0416 28.7819 11.576 27.9672 11.8025 27.1839L12.0479 26.3355C12.3534 25.2792 12.9863 24.3455 13.8542 23.6601L14.1905 23.415L19.2632 19.7026C18.5249 18.5767 18.0459 17.1281 17.8329 15.379C17.3093 11.0802 20.2166 7.98679 23.7614 8.00004C23.8722 8.00046 23.9836 8.00391 24.0956 8.01045ZM19.6548 31.044L8.0218 31.0395C7.90769 31.0229 7.79636 30.9901 7.69147 30.9417C7.10238 30.6699 6.85009 28.9999 7.12796 28.4237L8.21271 26.1745L8.3768 25.8663C8.72881 25.2641 9.22168 24.7498 9.81697 24.3668L13.8905 21.5844C14.4783 21.046 14.535 20.129 13.9783 19.5241C13.0517 18.5171 12.7221 17.5294 12.6962 15.7971L12.7034 15.3082C12.7881 13.2651 13.5604 12.0437 15.3323 11.7051C16.1492 11.549 16.6821 10.7748 16.5225 9.97581C16.3629 9.17683 15.5712 8.65567 14.7543 8.81178C11.1696 9.49678 9.68222 12.3129 9.68222 15.8403L9.69803 16.3428C9.77025 17.8185 10.1043 19.0716 10.732 20.157L7.76165 22.1773C6.8013 22.8826 6.01193 23.8274 5.48651 24.9168L4.40176 27.166L4.27865 27.4476C3.49772 29.4339 4.40602 32.6856 6.40552 33.608C6.96502 33.8661 7.57598 34 8.19459 34L20.4617 34C20.0855 33.0615 19.8119 32.0715 19.6548 31.044ZM38.2816 16.5703C38.2879 16.4974 38.2934 16.424 38.298 16.35L38.3188 15.7009C38.3188 12.0076 36.6825 9.25691 32.7881 8.73782C32.7194 8.72865 32.6511 8.72418 32.5836 8.72414C31.8413 8.72369 31.1943 9.25989 31.0913 9.9993C30.9789 10.8059 31.5564 11.549 32.3811 11.6589C34.3777 11.925 35.2151 13.1701 35.2977 15.3321L35.3025 15.6951C36.341 15.8732 37.3389 16.1698 38.2816 16.5703Z" fill="#191919" fill-rule="evenodd"/>
  <path id="合并" d="M33 18C39.0751 18 44 22.9249 44 29C44 35.0751 39.0751 40 33 40C26.9249 40 22 35.0751 22 29C22 22.9249 26.9249 18 33 18ZM24.64 29C24.64 24.3829 28.3829 20.64 33 20.64C37.6171 20.64 41.36 24.3829 41.36 29C41.36 33.6171 37.6171 37.36 33 37.36C28.3829 37.36 24.64 33.6171 24.64 29ZM31 26C31 24.8954 30.1046 24 29 24C27.8954 24 27 24.8954 27 26C27 27.1046 27.8954 28 29 28C30.1046 28 31 27.1046 31 26ZM39.7286 26C39.7286 25.1716 39.057 24.5 38.2286 24.5L33.4957 24.5L33.2922 24.5137C32.56 24.613 31.9957 25.2406 31.9957 26C31.9957 26.7594 32.56 27.387 33.2922 27.4863L33.4957 27.5L38.2286 27.5L38.4322 27.4863C39.1643 27.387 39.7286 26.7594 39.7286 26ZM31 32.0096C31 30.9051 30.1046 30.0096 29 30.0096C27.8954 30.0096 27 30.9051 27 32.0096C27 33.1142 27.8954 34.0096 29 34.0096C30.1046 34.0096 31 33.1142 31 32.0096ZM39.7286 32.0096C39.7286 31.1812 39.057 30.5096 38.2286 30.5096L33.4957 30.5096L33.2922 30.5233C32.56 30.6227 31.9957 31.2502 31.9957 32.0096C31.9957 32.769 32.56 33.3966 33.2922 33.4959L33.4957 33.5096L38.2286 33.5096L38.4322 33.4959C39.1643 33.3966 39.7286 32.769 39.7286 32.0096Z" fill="#AEAEAE" fill-rule="evenodd"/>
</svg>
