<svg viewBox="0 0 48 48" xmlns="http://www.w3.org/2000/svg" xmlns:xlink="http://www.w3.org/1999/xlink" width="48.000000" height="48.000000" fill="none">
  <path id="形状结合" d="M37.9821 7.23193C41.2921 7.23193 43.9821 9.92393 43.9821 13.2319L43.9821 28.8759C43.9821 32.1839 41.2921 34.8759 37.9821 34.8759L29.0001 34.8759C28.1721 34.8759 27.5001 34.2039 27.5001 33.3759C27.5001 32.5479 28.1721 31.8759 29.0001 31.8759L37.9821 31.8759C39.6361 31.8759 40.9821 30.5299 40.9821 28.8759L40.9821 13.2319C40.9821 11.5779 39.6361 10.2319 37.9821 10.2319L10.0181 10.2319C8.36407 10.2319 7.01807 11.5779 7.01807 13.2319L7.01807 28.8759C7.01807 30.5299 8.36407 31.8759 10.0181 31.8759L22.0001 31.8759C23.9301 31.8759 25.5001 33.4459 25.5001 35.3759L25.4981 37.7679L36.0001 37.7679C36.8281 37.7679 37.5001 38.4399 37.5001 39.2679C37.5001 40.0959 36.8281 40.7679 36.0001 40.7679L12.0001 40.7679C11.1721 40.7679 10.5001 40.0959 10.5001 39.2679C10.5001 38.4399 11.1721 37.7679 12.0001 37.7679L22.4981 37.7679L22.5001 35.3759C22.5001 35.0999 22.2761 34.8759 22.0001 34.8759L10.0181 34.8759C6.70807 34.8759 4.01807 32.1839 4.01807 28.8759L4.01807 13.2319C4.01807 9.92393 6.70807 7.23193 10.0181 7.23193L37.9821 7.23193ZM35.5969 17.0666C36.0817 17.643 36.0584 18.4774 35.5738 19.025L28.2107 25.2401C27.687 25.6806 26.9411 25.7058 26.3931 25.327L20.7351 20.0362L14.5333 25.2413C13.9563 25.7254 13.122 25.701 12.5749 25.2158C12.0908 24.6388 11.9603 23.6451 12.4455 23.0981L19.8269 16.8832C20.3506 16.4437 21.0957 16.419 21.6432 16.7976L27.2991 22.0862L33.4835 16.8843C34.1174 16.3511 35.0637 16.4327 35.5969 17.0666Z" fill="#191919" fill-rule="evenodd"/>
  <path id="形状结合" d="M35.5968 17.0666C36.0816 17.643 36.0583 18.4774 35.5737 19.025L28.2105 25.2401C27.6868 25.6806 26.941 25.7058 26.393 25.327L20.7349 20.0362L14.5331 25.2413C13.9562 25.7254 13.1218 25.701 12.5748 25.2158C12.0907 24.6388 11.9602 23.6451 12.4454 23.0981L19.8268 16.8832C20.3505 16.4437 21.0956 16.419 21.6431 16.7976L27.2989 22.0862L33.4834 16.8843C34.1173 16.3511 35.0635 16.4327 35.5968 17.0666Z" fill="#AEAEAE" fill-rule="evenodd"/>
</svg>
