<svg viewBox="0 0 48 48" xmlns="http://www.w3.org/2000/svg" xmlns:xlink="http://www.w3.org/1999/xlink" width="48.000000" height="48.000000" fill="none">
  <path id="形状结合" d="M16.1342 27.6347C16.1342 27.5158 16.1418 27.5265 16.169 27.4132C16.1793 27.3893 16.2437 27.187 16.2549 27.1613C16.2881 27.0854 16.3269 27.0136 16.3704 26.9462C16.3788 26.936 16.5318 26.7383 16.5418 26.7277L34.5275 12.8717L7.74174 21.8034L13.7093 24.4296C14.4044 24.7355 14.7515 25.5048 14.5475 26.2149C14.2416 26.91 13.4029 27.4489 12.6928 27.2449L5.5475 24.1155C3.46544 23.2075 3.51548 20.2934 5.50586 19.4021L5.76475 19.3015L42.0247 7.21355C42.1347 7.17688 42.2447 7.15357 42.3533 7.14249C42.7052 7.11402 43.0746 7.21165 43.3471 7.39903C43.3716 7.42022 43.5479 7.56282 43.5708 7.58624C43.704 7.76078 43.9143 8.08844 43.9625 8.29755C43.974 8.34982 43.9902 8.44894 43.9948 8.50423L43.9981 8.70663L40.084 34.1986C39.7359 36.4825 37.3966 37.8519 35.2615 37.1034L34.9958 36.9988L26.6655 33.3537L20.6212 40.014C19.0897 41.6973 16.3336 40.7141 16.1387 38.5247L16.1277 38.2766L16.1342 27.6347ZM19.1275 30.0537L19.1277 37.1934L23.7655 32.0837L19.1275 30.0537ZM40.4455 12.1057L20.5515 27.4037L36.1995 34.2508C36.5528 34.4057 36.9524 34.2249 37.0829 33.8808L40.4455 12.1057Z" fill="#191919" fill-rule="evenodd"/>
</svg>
