<svg viewBox="0 0 48 48" xmlns="http://www.w3.org/2000/svg" xmlns:xlink="http://www.w3.org/1999/xlink" width="48.000000" height="48.000000" fill="none">
  <path id="减去顶层" d="M20 4C25.799 4 30.5 8.70101 30.5 14.5C30.5 15.855 30.2411 17.166 29.7603 18.3767C23.5903 19.8384 19 25.3831 19 32C19 34.3462 19.5771 36.5576 20.5972 38.5L7.75 38.5C5.77755 38.5 4.16079 36.9772 4.01128 35.0431L4 34.75L4 29.75C4 27.7776 5.52284 26.1608 7.45694 26.0113L7.75 26L14.5035 26C14.7399 26 14.938 25.8359 14.9901 25.6154L15.0058 24.1542C15.0063 23.8778 14.8547 23.6235 14.6113 23.4925C14.4679 23.4153 14.3825 23.3685 14.3156 23.3281L13.8593 23.018C11.1504 21.0635 9.5 17.9213 9.5 14.5C9.5 8.70101 14.201 4 20 4ZM22.2757 41L5.5 41L5.29646 41.0137C4.56431 41.113 4 41.7406 4 42.5C4 43.3284 4.67157 44 5.5 44L25.7848 44C24.455 43.1988 23.2693 42.1828 22.2757 41Z" fill="#191919" fill-rule="evenodd"/>
  <path id="矢量 1739" d="M22 32C22 25.9248 26.9248 21 33 21C39.0752 21 44 25.9248 44 32C44 38.0752 39.0752 43 33 43C26.9248 43 22 38.0752 22 32ZM33.502 28L33.502 31.8677L36.9807 34.8633C37.6172 35.4111 37.6865 36.3423 37.1384 36.9785C36.5903 37.6152 35.6597 37.6846 35.0232 37.1367L31.0232 33.6924C30.8577 33.5498 30.7295 33.3794 30.6384 33.1807C30.593 33.0817 30.5589 32.9801 30.5361 32.876C30.5133 32.7718 30.502 32.6647 30.502 32.5557L30.502 28C30.502 27.1602 31.1619 26.5 32.002 26.5C32.842 26.5 33.502 27.1602 33.502 28Z" fill="#191919" fill-rule="evenodd"/>
  <path id="矢量 1739" d="M22 32C22 25.9248 26.9248 21 33 21C39.0752 21 44 25.9248 44 32C44 38.0752 39.0752 43 33 43C26.9248 43 22 38.0752 22 32ZM33.502 28L33.502 31.8677L36.9807 34.8633C37.6172 35.4111 37.6865 36.3423 37.1384 36.9785C36.5903 37.6152 35.6597 37.6846 35.0232 37.1367L31.0232 33.6924C30.8577 33.5498 30.7295 33.3794 30.6384 33.1807C30.593 33.0817 30.5589 32.9801 30.5361 32.876C30.5133 32.7718 30.502 32.6647 30.502 32.5557L30.502 28C30.502 27.1602 31.1619 26.5 32.002 26.5C32.842 26.5 33.502 27.1602 33.502 28Z" fill="#AEAEAE" fill-rule="evenodd"/>
</svg>
