<svg viewBox="0 0 48 48" xmlns="http://www.w3.org/2000/svg" xmlns:xlink="http://www.w3.org/1999/xlink" width="48.000000" height="48.000000" fill="none">
  <path id="减去顶层" d="M36 6.91602C39.1954 6.91602 41.8073 9.41386 41.9898 12.5635L42 12.916L42 15.0848L6 15.0848L6 12.916C6 9.72065 8.49784 7.10869 11.6475 6.9262L12 6.91602L36 6.91602ZM42 18.0848L42 35.084C42 38.2739 39.4969 40.8909 36.352 41.0738L36 41.084L12 41.084C8.81014 41.084 6.19307 38.5809 6.01021 35.436L6 35.084L6 18.0848L42 18.0848ZM12.5 22.9999L27.5 22.9999C28.34 22.9999 29 23.6598 29 24.4999C29 25.3397 28.34 25.9999 27.5 25.9999L12.5 25.9999C11.66 25.9999 11 25.3397 11 24.4999C11 23.6598 11.66 22.9999 12.5 22.9999ZM12.5 30.3998L21.5 30.3998C22.34 30.3998 23 31.0597 23 31.8998C23 32.7399 22.34 33.3998 21.5 33.3998L12.5 33.3998C11.66 33.3998 11 32.7399 11 31.8998C11 31.0597 11.66 30.3998 12.5 30.3998Z" fill="#191919" fill-rule="evenodd"/>
  <path id="形状结合" d="M36 6.91602C39.1954 6.91602 41.8073 9.41386 41.9898 12.5635L42 12.916L42 15.0848L6 15.0848L6 12.916C6 9.72065 8.49784 7.10869 11.6475 6.9262L12 6.91602L36 6.91602Z" fill="#AEAEAE" fill-rule="evenodd"/>
</svg>
