<svg viewBox="0 0 48 48" xmlns="http://www.w3.org/2000/svg" xmlns:xlink="http://www.w3.org/1999/xlink" width="48.000000" height="48.000000" fill="none">
  <path id="形状结合" d="M31 4C34.1955 4 36.8073 6.49849 36.9898 9.64752L37 10L37 19C37 19.8284 36.3284 20.5 35.5 20.5C34.7406 20.5 34.113 19.9357 34.0137 19.2035L34 19L34 10C34 8.44107 32.8102 7.15916 31.2889 7.01374L31 7L11 7C9.44068 7 8.15911 8.19021 8.01373 9.71116L8 10L8 38.002C8 39.5604 9.18932 40.841 10.711 40.9863L11 41L20 41C20.8284 41 21.5 41.6716 21.5 42.5C21.5 43.2594 20.9357 43.887 20.2035 43.9863L20 44L11 44C7.80434 44 5.19266 41.5032 5.01018 38.3545L5 38.002L5 10C5 6.80531 7.49772 4.19273 10.6474 4.01019L11 4L31 4ZM23 19.5C23.8284 19.5 24.5 20.1716 24.5 21C24.5 21.7594 23.9357 22.387 23.2035 22.4863L23 22.5L14 22.5C13.1716 22.5 12.5 21.8284 12.5 21C12.5 20.2406 13.0643 19.613 13.7965 19.5137L14 19.5L23 19.5ZM28 11.5C28.8284 11.5 29.5 12.1716 29.5 13C29.5 13.7594 28.9357 14.387 28.2035 14.4863L28 14.5L14 14.5C13.1716 14.5 12.5 13.8284 12.5 13C12.5 12.2406 13.0643 11.613 13.7965 11.5137L14 11.5L28 11.5Z" fill="#191919" fill-rule="evenodd"/>
  <path id="合并" d="M0 8.75L0 6C0 5.56072 0.04593 5.13151 0.13779 4.71236C0.215968 4.35564 0.327413 4.00621 0.472126 3.66407C0.616942 3.32168 0.790118 2.99805 0.991654 2.69315L0.991658 2.69315C1.21276 2.35866 1.46799 2.04673 1.75736 1.75736C2.04673 1.46799 2.35866 1.21275 2.69316 0.991648C2.99805 0.790115 3.32169 0.616941 3.66407 0.472126C4.0062 0.327415 4.35563 0.21597 4.71234 0.137792C5.1315 0.0459308 5.56072 0 6 0C6.43929 0 6.8685 0.045931 7.28766 0.137793C7.64437 0.215972 7.9938 0.327416 8.33593 0.472126C8.67832 0.616944 9.00196 0.790122 9.30686 0.99166C9.64135 1.21276 9.95327 1.46799 10.2426 1.75736C10.532 2.04674 10.7873 2.35869 11.0084 2.6932C11.2099 2.99808 11.3831 3.3217 11.5279 3.66407C11.6726 4.0062 11.784 4.35562 11.8622 4.71233C11.9541 5.13149 12 5.56071 12 6L12 8.75C12 9.59 11.34 10.25 10.5 10.25C9.66 10.25 9 9.59 9 8.75L9 6C9 5.76342 8.97359 5.53307 8.92077 5.30894C8.8826 5.14695 8.83063 4.98821 8.76486 4.83272C8.69601 4.66995 8.61424 4.51557 8.51955 4.36956C8.40554 4.19378 8.2728 4.03016 8.12132 3.87868C7.96984 3.72721 7.80622 3.59447 7.63045 3.48046C7.48444 3.38576 7.33005 3.30399 7.16727 3.23514C7.01179 3.16937 6.85304 3.1174 6.69105 3.07923L6.69104 3.07922C6.46691 3.02641 6.23657 3 6 3C5.76343 3 5.53307 3.02641 5.30895 3.07923L5.30893 3.07923C5.14694 3.11741 4.98821 3.16937 4.83272 3.23514C4.66994 3.30399 4.51554 3.38577 4.36953 3.48047L4.36952 3.48048C4.19376 3.59448 4.03014 3.72722 3.87868 3.87868C3.72721 4.03015 3.59448 4.19377 3.48047 4.36953C3.38577 4.51555 3.30399 4.66994 3.23514 4.83272C3.16938 4.9882 3.11741 5.14693 3.07923 5.30891L3.07923 5.30894L3.07922 5.30896C3.02641 5.53308 3 5.76343 3 6L3 8.75C3 9.59 2.34 10.25 1.5 10.25C0.66 10.25 0 9.59 0 8.75ZM7.39337 15.3933L7.39337 8.39331C7.39337 7.55331 6.73337 6.89331 5.89337 6.89331C5.05337 6.89331 4.39337 7.55331 4.39337 8.39331L4.39337 15.3933C4.39337 16.2333 5.05337 16.8933 5.89337 16.8933C6.73337 16.8933 7.39337 16.2333 7.39337 15.3933ZM0 15.1433L0 17.8933C0 18.3326 0.045928 18.7618 0.137784 19.1809C0.215962 19.5377 0.32741 19.8871 0.472126 20.2292C0.616938 20.5716 0.790108 20.8952 0.991637 21.2001C1.21274 21.5346 1.46798 21.8466 1.75736 22.136C2.04673 22.4253 2.35866 22.6806 2.69316 22.9017C2.99805 23.1032 3.32169 23.2764 3.66407 23.4212C4.00621 23.5659 4.35564 23.6773 4.71236 23.7555C5.13151 23.8474 5.56072 23.8933 6 23.8933C6.43928 23.8933 6.86849 23.8474 7.28764 23.7555C7.64436 23.6773 7.99379 23.5659 8.33593 23.4212C8.67831 23.2764 9.00194 23.1032 9.30683 22.9017C9.64133 22.6806 9.95327 22.4253 10.2426 22.136C10.532 21.8466 10.7873 21.5346 11.0084 21.2001C11.2099 20.8952 11.3831 20.5716 11.5279 20.2292C11.6726 19.8871 11.784 19.5377 11.8622 19.181C11.9541 18.7618 12 18.3326 12 17.8933L12 15.1433C12 14.3033 11.34 13.6433 10.5 13.6433C9.66 13.6433 9 14.3033 9 15.1433L9 17.8933C9 18.1299 8.97359 18.3602 8.92077 18.5844C8.8826 18.7464 8.83063 18.9051 8.76486 19.0606C8.69601 19.2234 8.61424 19.3778 8.51954 19.5238C8.40553 19.6995 8.27279 19.8632 8.12132 20.0146C7.96985 20.1661 7.80623 20.2988 7.63046 20.4128C7.48445 20.5075 7.33005 20.5893 7.16727 20.6582C7.01178 20.7239 6.85304 20.7759 6.69105 20.8141C6.46692 20.8669 6.23657 20.8933 6 20.8933C5.76342 20.8933 5.53306 20.8669 5.30893 20.8141C5.14694 20.7759 4.98821 20.7239 4.83273 20.6582C4.66994 20.5893 4.51553 20.5075 4.36952 20.4128C4.19376 20.2988 4.03014 20.1661 3.87868 20.0146C3.72721 19.8632 3.59447 19.6995 3.48047 19.5238C3.38577 19.3778 3.30399 19.2234 3.23514 19.0606C3.16937 18.9051 3.1174 18.7464 3.07923 18.5844C3.02641 18.3602 3 18.1299 3 17.8933L3 15.1433C3 14.3033 2.34 13.6433 1.5 13.6433C0.66 13.6433 0 14.3033 0 15.1433Z" fill="#AEAEAE" fill-rule="evenodd" transform="matrix(0.707107,0.707107,-0.707107,0.707107,36.8115,19.8628)"/>
</svg>
