<svg viewBox="0 0 48 48" xmlns="http://www.w3.org/2000/svg" xmlns:xlink="http://www.w3.org/1999/xlink" width="48.000000" height="48.000000" fill="none">
  <path id="路径" d="M7.45791 7.46377C7.32831 7.59336 7.2202 7.73632 7.13357 7.88821C6.4271 8.75555 5.99297 9.84621 5.99414 11.0007L5.99414 32.0414C5.99414 33.1473 6.88798 34.0411 7.99389 34.0411C8.54544 34.0411 9.04607 33.8176 9.40811 33.4556C9.77015 33.0936 9.99359 32.5929 9.99359 32.0414L9.99253 12.8261L38.5702 41.4201C39.3523 42.2021 40.6295 42.2007 41.4102 41.4201C42.1908 40.6394 42.1923 39.3821 41.4102 38.6001L12.8224 9.9991L32.0355 9.99945C33.1414 9.99945 34.0352 9.10567 34.0352 7.99975C34.0352 6.89384 33.1414 6 32.0355 6L10.9949 6C9.84035 5.99883 8.74969 6.43296 7.88335 7.14197C7.73046 7.22606 7.5875 7.33417 7.45791 7.46377Z" fill="#191919" fill-rule="evenodd"/>
</svg>
