<svg viewBox="0 0 48 48" xmlns="http://www.w3.org/2000/svg" xmlns:xlink="http://www.w3.org/1999/xlink" width="48.000000" height="48.000000" fill="none">
  <path id="矢量 56" d="M20.6086 7.51038L20.3 7.5L16.7 7.5C14.5233 7.5 12.6753 9.04123 12.5117 11.084L12.5 11.3791L12.5 32.6118C12.5 34.6997 14.2495 36.3443 16.3915 36.4895L16.7 36.5L20.3 36.5C22.4762 36.5 24.3247 34.9503 24.4883 32.907L24.5 32.6118L24.5 11.3791C24.5 9.29095 22.7509 7.65479 20.6086 7.51038ZM36.3 17.5L36.6073 17.51C38.7417 17.65 40.5 19.237 40.5 21.2932L40.5 32.6819L40.4882 32.9724C40.3237 34.983 38.4656 36.5 36.3 36.5L32.7 36.5L32.3929 36.4898C30.2597 36.3476 28.5 34.7373 28.5 32.6819L28.5 21.2932L28.5118 21.0028C28.6761 18.9934 30.533 17.5 32.7 17.5L36.3 17.5Z" fill="#191919" fill-rule="evenodd"/>
  <path id="矢量 56" d="M20.6086 7.51038L20.3 7.5L16.7 7.5C14.5233 7.5 12.6753 9.04123 12.5117 11.084L12.5 11.3791L12.5 32.6118C12.5 34.6997 14.2495 36.3443 16.3915 36.4895L16.7 36.5L20.3 36.5C22.4762 36.5 24.3247 34.9503 24.4883 32.907L24.5 32.6118L24.5 11.3791C24.5 9.29095 22.7509 7.65479 20.6086 7.51038ZM36.3 17.5L36.6073 17.51C38.7417 17.65 40.5 19.237 40.5 21.2932L40.5 32.6819L40.4882 32.9724C40.3237 34.983 38.4656 36.5 36.3 36.5L32.7 36.5L32.3929 36.4898C30.2597 36.3476 28.5 34.7373 28.5 32.6819L28.5 21.2932L28.5118 21.0028C28.6761 18.9934 30.533 17.5 32.7 17.5L36.3 17.5Z" fill="#AEAEAE" fill-rule="evenodd"/>
  <path id="合并" d="M8 36.5L8 7C8 5.88 7.12 5 6 5C4.88 5 4 5.88 4 7L4 37.5C4 40.8137 6.68629 43.5 10 43.5L41 43.5C42.12 43.5 43 42.62 43 41.5C43 40.38 42.12 39.5 41 39.5L11 39.5C9.34315 39.5 8 38.1569 8 36.5Z" fill="#191919" fill-rule="evenodd"/>
</svg>
