<svg viewBox="0 0 48 48" xmlns="http://www.w3.org/2000/svg" xmlns:xlink="http://www.w3.org/1999/xlink" width="48.000000" height="48.000000" fill="none">
  <path id="形状结合" d="M19 24C20.8363 24 22.3424 25.4142 22.4884 27.2129L22.5 27.5L22.5 38.5C22.5 40.3363 21.0858 41.8424 19.287 41.9884L19 42L9.5 42C7.66365 42 6.15761 40.5858 6.0116 38.7871L6 38.5L6 27.5C6 25.6637 7.41423 24.1576 9.21295 24.0116L9.5 24L19 24ZM38.5 32L38.787 32.0116C40.5858 32.1576 42 33.6637 42 35.5L42 38.5L41.9884 38.7871C41.8424 40.5858 40.3363 42 38.5 42L29 42L28.713 41.9884C26.9142 41.8424 25.5 40.3363 25.5 38.5L25.5 35.5L25.5116 35.2129C25.6576 33.4142 27.1637 32 29 32L38.5 32ZM38.5 6L38.787 6.0116C40.5858 6.15761 42 7.66365 42 9.5L42 25.5L41.9884 25.7871C41.8424 27.5858 40.3363 29 38.5 29L29 29L28.713 28.9884C26.9142 28.8424 25.5 27.3363 25.5 25.5L25.5 9.5L25.5116 9.21289C25.6576 7.41417 27.1637 6 29 6L38.5 6ZM19 6C20.8363 6 22.3424 7.41417 22.4884 9.21289L22.5 9.5L22.5 17.5C22.5 19.3363 21.0858 20.8424 19.287 20.9884L19 21L9.5 21C7.66365 21 6.15761 19.5858 6.0116 17.7871L6 17.5L6 9.5C6 7.66365 7.41423 6.15761 9.21295 6.0116L9.5 6L19 6Z" fill="#191919" fill-rule="evenodd"/>
  <path id="形状结合" d="M38.5 6L38.787 6.0116C40.5858 6.15761 42 7.66365 42 9.5L42 25.5L41.9884 25.7871C41.8424 27.5858 40.3363 29 38.5 29L29 29L28.713 28.9884C26.9142 28.8424 25.5 27.3363 25.5 25.5L25.5 9.5L25.5116 9.21289C25.6576 7.41417 27.1637 6 29 6L38.5 6Z" fill="#AEAEAE" fill-rule="evenodd"/>
</svg>
