<svg viewBox="0 0 48 48" xmlns="http://www.w3.org/2000/svg" xmlns:xlink="http://www.w3.org/1999/xlink" width="48.000000" height="48.000000" fill="none">
  <path id="形状结合" d="M14 44.5C12.8954 44.5 12 43.6046 12 42.5C12 41.4743 12.7721 40.629 13.7668 40.5135L14 40.5L18.384 40.5L25.52 7.5L22 7.5C20.8954 7.5 20 6.60457 20 5.5C20 4.47433 20.7721 3.62899 21.7668 3.51346L22 3.5L34 3.5C35.1046 3.5 36 4.39543 36 5.5C36 6.52567 35.2279 7.37101 34.2332 7.48654L34 7.5L29.612 7.5L22.478 40.5L26 40.5C27.1046 40.5 28 41.3954 28 42.5C28 43.5257 27.2279 44.371 26.2332 44.4865L26 44.5L14 44.5Z" fill="#191919" fill-rule="evenodd"/>
</svg>
