<svg viewBox="0 0 48 48" xmlns="http://www.w3.org/2000/svg" xmlns:xlink="http://www.w3.org/1999/xlink" width="48.000000" height="48.000000" fill="none">
  <path id="合并" d="M8.5 27.5L16.8333 27.5L16.8333 29C16.8333 29.2745 16.8638 29.5419 16.9248 29.8022C16.9695 29.9926 17.0305 30.1792 17.1078 30.362C17.1885 30.553 17.2845 30.734 17.3957 30.9051C17.5283 31.1091 17.6825 31.2991 17.8584 31.475C18.0343 31.6508 18.2242 31.805 18.4281 31.9376C18.5993 32.0488 18.7804 32.1448 18.9714 32.2256C19.1543 32.303 19.3411 32.364 19.5317 32.4086C19.7918 32.4695 20.059 32.5 20.3333 32.5L28 32.5C28.2743 32.5 28.5415 32.4696 28.8015 32.4086C28.9921 32.364 29.179 32.303 29.3619 32.2256C29.5529 32.1448 29.734 32.0488 29.9052 31.9375C30.1092 31.805 30.2991 31.6508 30.4749 31.475C30.6508 31.2991 30.805 31.1091 30.9376 30.9051C31.0488 30.734 31.1448 30.5529 31.2256 30.362C31.3029 30.1792 31.3639 29.9926 31.4085 29.8021C31.4695 29.5419 31.5 29.2745 31.5 29L31.5 11C31.5 10.7259 31.4696 10.4589 31.4087 10.199L31.4087 10.199C31.3641 10.0082 31.303 9.82122 31.2256 9.6381C31.1448 9.44726 31.0489 9.2663 30.9378 9.09523C30.8051 8.89112 30.6508 8.70109 30.4749 8.52513C30.2989 8.34917 30.1089 8.19488 29.9048 8.06226C29.7337 7.9511 29.5527 7.85515 29.3619 7.77443C29.1788 7.69698 28.9918 7.63593 28.8011 7.59127L28.801 7.59126C28.5411 7.53042 28.2741 7.5 28 7.5L12 7.5C11.7259 7.5 11.4589 7.53042 11.199 7.59125C11.0082 7.63591 10.8212 7.69697 10.6381 7.77443C10.4473 7.85515 10.2663 7.95109 10.0952 8.06224C9.89112 8.19487 9.70109 8.34917 9.52513 8.52513C9.34918 8.70108 9.19489 8.89111 9.06226 9.09521C8.9511 9.26628 8.85516 9.44725 8.77443 9.6381C8.69698 9.82123 8.63592 10.0082 8.59125 10.199C8.53042 10.4589 8.5 10.7259 8.5 11L8.5 27.5ZM34.5 27.5L40 27.5C40.4017 27.5 40.7942 27.5419 41.1775 27.6257C41.5055 27.6974 41.8268 27.7998 42.1413 27.9329C42.4556 28.0658 42.7526 28.2248 43.0324 28.4098C43.3386 28.6123 43.6242 28.846 43.8891 29.111C44.1541 29.376 44.3878 29.6616 44.5903 29.9678C44.7753 30.2476 44.9343 30.5445 45.0672 30.8587C45.2002 31.1734 45.3026 31.4947 45.3743 31.8228C45.4581 32.206 45.5 32.5984 45.5 33L45.5 38.333C45.5 38.7346 45.4581 39.127 45.3743 39.5103C45.3026 39.8383 45.2002 40.1596 45.0672 40.4743C44.9343 40.7884 44.7753 41.0854 44.5904 41.3651C44.3878 41.6714 44.1541 41.957 43.8891 42.222C43.6242 42.487 43.3386 42.7207 43.0324 42.9232C42.7526 43.1082 42.4556 43.2672 42.1413 43.4001C41.8268 43.5332 41.5055 43.6356 41.1775 43.7073C40.7942 43.7911 40.4017 43.833 40 43.833L8 43.833C7.59834 43.833 7.20585 43.7911 6.82252 43.7073C6.49452 43.6356 6.17324 43.5332 5.85866 43.4001C5.54442 43.2672 5.2474 43.1082 4.96762 42.9232C4.6614 42.7207 4.37583 42.487 4.1109 42.222C3.84598 41.9571 3.61227 41.6715 3.40977 41.3653L3.4097 41.3652C3.22469 41.0855 3.06574 40.7885 2.93284 40.4743C2.79975 40.1596 2.69735 39.8382 2.62564 39.5102C2.54188 39.1269 2.5 38.7345 2.5 38.333L2.5 33C2.5 32.5985 2.54188 32.2061 2.62564 31.8229C2.69734 31.4948 2.79974 31.1734 2.93284 30.8587C3.06576 30.5445 3.22475 30.2474 3.40979 29.9676C3.61229 29.6615 3.84599 29.3759 4.1109 29.111C4.37583 28.846 4.66141 28.6123 4.96762 28.4098C5.13864 28.2967 5.3161 28.1933 5.5 28.0997L5.5 11C5.5 10.5232 5.54994 10.0573 5.64983 9.60242L5.64983 9.60239L5.64984 9.60237C5.7345 9.21685 5.85502 8.83921 6.01142 8.46945C6.16809 8.09903 6.35541 7.74886 6.57337 7.41894L6.57344 7.41884C6.81316 7.05601 7.08995 6.71766 7.40381 6.40381C7.71766 6.08995 8.05601 5.81316 8.41885 5.57343L8.41887 5.57343C8.74881 5.35544 9.099 5.1681 9.46945 5.01142C9.83923 4.85501 10.2169 4.73448 10.6024 4.64983C11.0573 4.54994 11.5232 4.5 12 4.5L28 4.5C28.4768 4.5 28.9427 4.54994 29.3976 4.64983L29.3976 4.64984L29.3978 4.64987C29.7832 4.73452 30.1608 4.85504 30.5306 5.01142C30.9009 5.16808 31.2511 5.35538 31.581 5.57332L31.5811 5.57343C31.944 5.81316 32.2823 6.08995 32.5962 6.40381C32.9101 6.71767 33.1868 7.05602 33.4266 7.41886C33.6446 7.74881 33.8319 8.099 33.9886 8.46945C34.145 8.83926 34.2655 9.21694 34.3502 9.60251C34.4501 10.0574 34.5 10.5232 34.5 11L34.5 11.5L37.6667 11.5C38.0183 11.5 38.3621 11.5366 38.6978 11.6097C38.9873 11.6728 39.2708 11.763 39.5485 11.8804C39.8254 11.9976 40.0871 12.1377 40.3335 12.3008C40.6018 12.4785 40.8521 12.6834 41.0844 12.9157C41.3166 13.1479 41.5215 13.3982 41.6992 13.6665C41.8623 13.913 42.0024 14.1746 42.1196 14.4515C42.237 14.7292 42.3272 15.0127 42.3903 15.3022C42.4634 15.6379 42.5 15.9817 42.5 16.3333L42.5 24C42.5 24.84 41.84 25.5 41 25.5C40.16 25.5 39.5 24.84 39.5 24L39.5 16.3333C39.5 16.1844 39.4829 16.0395 39.4488 15.8988C39.4258 15.8041 39.395 15.7112 39.3565 15.6202C39.3154 15.5229 39.2666 15.4304 39.2103 15.3429C39.1398 15.2333 39.0574 15.1313 38.963 15.037C38.8687 14.9426 38.7667 14.8602 38.6571 14.7897C38.5696 14.7334 38.4771 14.6846 38.3798 14.6435C38.2888 14.605 38.1959 14.5742 38.1012 14.5512L38.1011 14.5512C37.9604 14.5171 37.8156 14.5 37.6667 14.5L34.5 14.5L34.5 27.5ZM40 30.5L34.3268 30.5C34.2439 30.8501 34.1311 31.1937 33.9886 31.5307C33.8319 31.9012 33.6445 32.2514 33.4265 32.5814C33.1867 32.9442 32.91 33.2825 32.5962 33.5963C32.2824 33.91 31.9442 34.1867 31.5816 34.4264C31.2515 34.6445 30.9011 34.8319 30.5305 34.9886C30.1609 35.145 29.7834 35.2654 29.3981 35.3501C28.943 35.45 28.477 35.5 28 35.5L20.3333 35.5C19.8563 35.5 19.3903 35.45 18.9352 35.3501C18.5499 35.2654 18.1724 35.145 17.8028 34.9886C17.4322 34.8319 17.0819 34.6445 16.7518 34.4264C16.3891 34.1867 16.0509 33.91 15.7372 33.5963C15.4234 33.2825 15.1466 32.9443 14.907 32.5816C14.6889 32.2515 14.5015 31.9012 14.3448 31.5307C14.2022 31.1937 14.0895 30.8501 14.0065 30.5L8 30.5C7.80109 30.5 7.60749 30.5224 7.4192 30.5671C7.28593 30.5988 7.15532 30.6417 7.02738 30.6959C6.89273 30.7528 6.76496 30.8204 6.64405 30.8986C6.49656 30.994 6.35929 31.1052 6.23225 31.2323C6.10523 31.3593 5.99402 31.4966 5.89862 31.644C5.8204 31.7649 5.75281 31.8927 5.69584 32.0274C5.6417 32.1554 5.59878 32.2861 5.56709 32.4195C5.52236 32.6077 5.5 32.8012 5.5 33L5.5 38.333C5.5 38.5318 5.52236 38.7253 5.56709 38.9135L5.56718 38.9139C5.59887 39.0472 5.64175 39.1777 5.69584 39.3056C5.75281 39.4403 5.8204 39.5681 5.89862 39.689C5.99403 39.8365 6.10524 39.9737 6.23225 40.1007C6.35928 40.2278 6.49654 40.339 6.64403 40.4344C6.76494 40.5126 6.89272 40.5802 7.02738 40.6372C7.15532 40.6913 7.28593 40.7342 7.41921 40.7659C7.60748 40.8106 7.80108 40.833 8 40.833L40 40.833C40.1989 40.833 40.3925 40.8106 40.5808 40.7659C40.7141 40.7342 40.8447 40.6913 40.9726 40.6372C41.1073 40.5802 41.2351 40.5126 41.3561 40.4343C41.5035 40.3389 41.6408 40.2277 41.7678 40.1007C41.8948 39.9737 42.006 39.8365 42.1013 39.689C42.1796 39.5681 42.2472 39.4403 42.3042 39.3056C42.3583 39.1776 42.4012 39.0469 42.4329 38.9136C42.4776 38.7254 42.5 38.5318 42.5 38.333L42.5 33C42.5 32.8012 42.4776 32.6076 42.4329 32.4194C42.4012 32.2861 42.3583 32.1554 42.3042 32.0274C42.2472 31.8927 42.1796 31.7649 42.1013 31.644C42.006 31.4965 41.8948 31.3593 41.7678 31.2323C41.6407 31.1052 41.5035 30.994 41.356 30.8986C41.2351 30.8204 41.1073 30.7528 40.9726 30.6959C40.8447 30.6417 40.7141 30.5989 40.5809 30.5672C40.3926 30.5224 40.1989 30.5 40 30.5Z" fill="#191919" fill-rule="evenodd"/>
  <path id="合并" d="M27.3333 13.6667C27.3333 12.7462 26.5871 12 25.6667 12L15.6667 12C14.7462 12 14 12.7462 14 13.6667C14 14.5871 14.7462 15.3333 15.6667 15.3333L25.6667 15.3333C26.5871 15.3333 27.3333 14.5871 27.3333 13.6667ZM27.3333 21.6667C27.3333 20.7462 26.5871 20 25.6667 20L15.6667 20C14.7462 20 14 20.7462 14 21.6667C14 22.5871 14.7462 23.3333 15.6667 23.3333L25.6667 23.3333C26.5871 23.3333 27.3333 22.5871 27.3333 21.6667Z" fill="#AEAEAE" fill-rule="evenodd"/>
</svg>
