<svg viewBox="0 0 48 48" xmlns="http://www.w3.org/2000/svg" xmlns:xlink="http://www.w3.org/1999/xlink" width="48.000000" height="48.000000" fill="none">
  <path id="合并" d="M19.8607 13.5295L17.9528 15.4382L20.7819 18.266L29.0015 10.0426C29.2916 9.75242 29.6063 9.50172 29.9456 9.29056C30.1974 9.13385 30.4628 8.99892 30.7416 8.88575C31.0314 8.76818 31.3268 8.67748 31.628 8.61366C31.9851 8.53797 32.3503 8.50008 32.7234 8.5C33.0966 8.49992 33.4618 8.53764 33.8189 8.61317C34.1201 8.67685 34.4156 8.76742 34.7054 8.88486C34.9843 8.9979 35.2498 9.13272 35.5016 9.28932C35.841 9.50033 36.1558 9.75088 36.446 10.041C36.7363 10.3311 36.9871 10.6459 37.1983 10.9853C37.3549 11.237 37.4897 11.5022 37.6029 11.781C37.7204 12.0707 37.8111 12.366 37.8749 12.6671C37.9506 13.0243 37.9885 13.3894 37.9886 13.7626C37.9887 14.1356 37.951 14.5007 37.8755 14.8577C37.8118 15.159 37.7212 15.4546 37.6037 15.7445C37.4907 16.0233 37.356 16.2886 37.1995 16.5404C36.9884 16.8799 36.7378 17.1948 36.4476 17.4851L34.9754 18.9585L37.8049 21.7858L39.2768 20.3128C39.758 19.8314 40.1776 19.3105 40.5356 18.7503C40.838 18.2773 41.0964 17.7761 41.3109 17.2468C41.526 16.7159 41.6899 16.1746 41.8026 15.6228C41.9267 15.0151 41.9887 14.3948 41.9886 13.7618C41.9884 13.1285 41.9261 12.508 41.8017 11.9003L41.8017 11.9001C41.6887 11.3486 41.5246 10.8075 41.3093 10.277C41.0946 9.74783 40.836 9.2468 40.5334 8.77386C40.1752 8.2138 39.7553 7.69315 39.2738 7.2119C38.7924 6.73074 38.2717 6.31116 37.7116 5.95317C37.2384 5.65073 36.7371 5.39224 36.2077 5.17771C35.677 4.96262 35.1358 4.79873 34.5842 4.68604L34.584 4.68602C33.9762 4.56186 33.3557 4.49986 32.7225 4.5C32.0893 4.50014 31.4689 4.56243 30.8611 4.68686C30.3095 4.7998 29.7683 4.96394 29.2376 5.17928C28.7084 5.39404 28.2072 5.65275 27.7341 5.9554C27.1742 6.31365 26.6536 6.73347 26.1725 7.21485L19.8607 13.5295ZM14.947 28.7694L13.0383 26.8616L6.7237 20.5498C6.24232 20.0686 5.8225 19.5481 5.46425 18.9881C5.1616 18.5151 4.90289 18.0139 4.68813 17.4846C4.47279 16.954 4.30865 16.4128 4.19571 15.8612C4.07128 15.2534 4.00899 14.6329 4.00885 13.9997C4.00871 13.3665 4.07071 12.746 4.19487 12.1382C4.30756 11.5865 4.47146 11.0453 4.68656 10.5145C4.90109 9.98515 5.15958 9.48386 5.46202 9.01067C5.82001 8.45057 6.23959 7.92983 6.72075 7.44846C7.202 6.96699 7.72265 6.54712 8.28271 6.18883C8.75565 5.88628 9.25668 5.62765 9.78582 5.41294C10.3164 5.19762 10.8575 5.0335 11.4091 4.92057C12.0169 4.79613 12.6374 4.73384 13.2706 4.7337C13.9036 4.73356 14.524 4.79554 15.1316 4.91963C15.6834 5.03233 16.2248 5.19625 16.7557 5.41139C17.2849 5.62587 17.7861 5.88428 18.2592 6.18663C18.8194 6.54464 19.3402 6.96425 19.8217 7.44546L21.2947 8.91735L18.4673 11.7468L16.994 10.2746C16.7037 9.98446 16.3888 9.73385 16.0493 9.52281C15.7975 9.3663 15.5322 9.23154 15.2534 9.11855C14.9634 9.00106 14.6678 8.91047 14.3666 8.84679C14.0095 8.77131 13.6445 8.73362 13.2715 8.7337C12.8983 8.73378 12.5331 8.77167 12.176 8.84737C11.8749 8.91118 11.5795 9.00187 11.2898 9.11941C11.0111 9.23252 10.7459 9.36738 10.4942 9.52399C10.1548 9.73519 9.83999 9.98594 9.54981 10.2762C9.25973 10.5665 9.00918 10.8813 8.79817 11.2206C8.64157 11.4725 8.50675 11.7379 8.39371 12.0169C8.27627 12.3067 8.1857 12.6022 8.12202 12.9033C8.04649 13.2605 8.00877 13.6257 8.00885 13.9988C8.00893 14.372 8.04682 14.7371 8.12251 15.0943C8.18633 15.3954 8.27703 15.6909 8.3946 15.9806C8.50777 16.2595 8.6427 16.5248 8.79941 16.7766C9.01057 17.1159 9.26127 17.4306 9.55149 17.7207L17.7748 25.9404L14.947 28.7694ZM26.6279 33.333L28.5357 31.4243L25.7067 28.5965L17.487 36.8199C17.1969 37.1101 16.8822 37.3608 16.5429 37.572C16.2911 37.7287 16.0258 37.8636 15.7469 37.9768C15.4572 38.0943 15.1617 38.185 14.8606 38.2489C14.5034 38.3246 14.1383 38.3624 13.7651 38.3625C13.392 38.3626 13.0268 38.3249 12.6696 38.2494C12.3684 38.1857 12.073 38.0951 11.7832 37.9777C11.5042 37.8646 11.2389 37.7298 10.987 37.5732C10.6476 37.3622 10.3328 37.1117 10.0425 36.8216C9.75224 36.5314 9.50149 36.2166 9.29029 35.8772C9.13368 35.6255 8.99882 35.3603 8.88571 35.0816C8.76815 34.7919 8.67747 34.4965 8.61366 34.1954C8.53796 33.8382 8.50007 33.4731 8.49999 33.0999C8.49991 32.7269 8.53761 32.3619 8.61308 32.0048C8.67677 31.7035 8.76735 31.4079 8.88484 31.118C8.99784 30.8392 9.13259 30.5739 9.2891 30.3221C9.50015 29.9826 9.75075 29.6677 10.0409 29.3774L11.5131 27.9041L8.68365 25.0767L7.21176 26.5497C6.73055 27.0312 6.31094 27.552 5.95293 28.1122C5.65058 28.5853 5.39217 29.0864 5.17769 29.6157C4.96254 30.1466 4.79862 30.688 4.68593 31.2398C4.56183 31.8474 4.49985 32.4678 4.49999 33.1008C4.50013 33.734 4.56242 34.3544 4.68685 34.9622C4.79978 35.5138 4.96391 36.0549 5.17923 36.5856C5.39395 37.1147 5.65258 37.6157 5.95514 38.0887L5.95633 38.0905C6.31437 38.6499 6.73384 39.1699 7.21476 39.6506C7.69615 40.1318 8.2169 40.5514 8.77702 40.9094C9.2502 41.2118 9.75147 41.4703 10.2808 41.6848C10.8108 41.8996 11.3511 42.0633 11.9019 42.176L11.9045 42.1765C12.5123 42.3007 13.1328 42.3627 13.766 42.3625C14.3992 42.3624 15.0197 42.3001 15.6274 42.1757C16.1791 42.0627 16.7202 41.8986 17.2509 41.6833C17.7802 41.4685 18.2814 41.2098 18.7544 40.9071C19.3144 40.5489 19.8349 40.1291 20.3161 39.6477L26.6279 33.333Z" fill="#191919" fill-rule="evenodd"/>
  <path id="矩形 1985(边框)" d="M0 18.1923L0 20.891L4 20.891L4 9.26404C4 8.85369 4.04535 8.4539 4.13604 8.06468C4.20334 7.77585 4.29561 7.49284 4.41285 7.21565C4.53466 6.92766 4.6795 6.65465 4.84737 6.39662C5.04646 6.09061 5.27793 5.80567 5.5418 5.5418C5.80568 5.27793 6.09063 5.04644 6.39665 4.84735C6.65467 4.67949 6.92767 4.53466 7.21565 4.41285C7.49284 4.29561 7.77584 4.20334 8.06466 4.13604C8.45389 4.04535 8.85368 4 9.26404 4C9.6745 4 10.0744 4.04537 10.4637 4.13611C10.7524 4.2034 11.0353 4.29564 11.3123 4.41283C11.6003 4.53462 11.8732 4.67943 12.1312 4.84727C12.4372 5.04635 12.7222 5.27783 12.9861 5.54171C13.2498 5.80546 13.4812 6.09028 13.6802 6.39616C13.8482 6.65427 13.9931 6.92738 14.1149 7.21549C14.2321 7.49258 14.3244 7.77548 14.3917 8.0642C14.4824 8.45351 14.5278 8.8534 14.5278 9.26386L14.5281 11.3467L18.5281 11.3461L18.5278 9.26372C18.5278 8.58302 18.4564 7.91802 18.3136 7.26872C18.193 6.72037 18.0214 6.18322 17.799 5.65727C17.5758 5.12969 17.309 4.63092 16.9986 4.16096C16.6568 3.64347 16.2621 3.16091 15.8145 2.7133C15.3668 2.26556 14.8841 1.87075 14.3664 1.52887C13.8966 1.21858 13.398 0.951894 12.8705 0.728811C12.3446 0.50636 11.8075 0.334832 11.2591 0.214227C10.6098 0.0714093 9.94478 2.38419e-07 9.26404 0C8.5834 2.38419e-07 7.91846 0.0713873 7.26923 0.214161C6.72076 0.334774 6.1835 0.506332 5.65744 0.728835C5.12998 0.951931 4.63133 1.21864 4.16147 1.52895C3.64381 1.87082 3.16112 2.26563 2.71337 2.71337C2.26564 3.16111 1.87084 3.6438 1.52896 4.16144C1.21865 4.63131 0.951936 5.12998 0.728835 5.65744C0.506328 6.18351 0.334768 6.72078 0.214155 7.26926C0.0713849 7.91849 0 8.58341 0 9.26404L0 18.1923Z" fill="#AEAEAE" fill-rule="evenodd" transform="matrix(-0.706948,0.707266,-0.707266,-0.706948,45.8284,32.999)"/>
</svg>
