<svg viewBox="0 0 48 48" xmlns="http://www.w3.org/2000/svg" xmlns:xlink="http://www.w3.org/1999/xlink" width="48.000000" height="48.000000" fill="none">
  <path id="形状结合" d="M23.5001 37.0001C22.3941 37.0001 21.5001 36.1061 21.5001 35.0001C21.5001 33.8941 22.3941 33.0001 23.5001 33.0001L30.172 33L22.0861 24.9141C21.3041 24.1321 21.3041 22.8681 22.0861 22.0861C22.8681 21.3041 24.1321 21.3041 24.9141 22.0861L33 30.172L33.0001 23.5001C33.0001 22.3941 33.8941 21.5001 35.0001 21.5001C36.1061 21.5001 37.0001 22.3941 37.0001 23.5001L37.0001 35.0001C37.0001 35.1015 36.9926 35.2011 36.9781 35.2984C36.969 35.3431 36.9406 35.4895 36.9288 35.5323C36.9152 35.5744 36.8723 35.7075 36.856 35.7482C36.8338 35.7971 36.77 35.9352 36.7434 35.9823C36.7119 36.0351 36.6441 36.1423 36.6079 36.1911C36.5062 36.3222 36.354 36.4825 36.2226 36.5841C36.167 36.6258 36.0666 36.6946 36.0062 36.7297C35.949 36.7621 35.8504 36.8126 35.7902 36.8385C35.7399 36.8587 35.6213 36.9029 35.5685 36.9185C35.4856 36.9397 35.3202 36.9767 35.2336 36.9867L35.0001 37.0001L23.5001 37.0001ZM13.5001 0.00014019C14.6061 0.00014019 15.5001 0.89414 15.5001 2.00014C15.5001 3.10614 14.6061 4.00014 13.5001 4.00014L6.828 4L14.9161 12.0861C15.6981 12.8681 15.6981 14.1321 14.9161 14.9141C14.5261 15.3041 14.0141 15.5001 13.5021 15.5001C12.9901 15.5001 12.4781 15.3041 12.0881 14.9141L4 6.828L4.00014 13.5001C4.00014 14.6061 3.10614 15.5001 2.00014 15.5001C0.89414 15.5001 0.00014019 14.6061 0.00014019 13.5001L0.00014019 2.00014C0.00014019 1.89877 0.00765038 1.79918 0.0221462 1.70189C0.0313258 1.65715 0.0597229 1.5108 0.0714827 1.46796C0.0850854 1.42587 0.127931 1.29276 0.14432 1.25205C0.166447 1.20321 0.230284 1.06509 0.256842 1.01799C0.288334 0.965193 0.356201 0.857966 0.39235 0.809206C0.491 0.68203 0.639205 0.524733 0.766035 0.425271C0.785809 0.413854 0.999411 0.267879 1.01872 0.256976C1.04781 0.243903 1.22178 0.156825 1.25192 0.144658C1.28259 0.134765 1.43756 0.0799332 1.46848 0.0714178C1.50381 0.0641227 1.66814 0.0269852 1.70293 0.0217738C1.74989 0.0172215 1.91545 0.000884056 1.96213 0L13.5001 0.00014019Z" fill="#191919" fill-rule="evenodd" transform="matrix(-1,0,0,1,42.5,5.5)"/>
  <path id="形状结合" d="M13.5 0.00014019C14.606 0.00014019 15.5 0.89414 15.5 2.00014C15.5 3.10614 14.606 4.00014 13.5 4.00014L6.82786 4L14.916 12.0861C15.698 12.8681 15.698 14.1321 14.916 14.9141C14.526 15.3041 14.014 15.5001 13.502 15.5001C12.99 15.5001 12.478 15.3041 12.088 14.9141L3.99986 6.828L4 13.5001C4 14.6061 3.106 15.5001 2 15.5001C0.894 15.5001 0 14.6061 0 13.5001L0 2.00014C0 1.89877 0.00751019 1.79918 0.022006 1.70189C0.0311856 1.65715 0.0595827 1.5108 0.0713425 1.46796C0.0849452 1.42587 0.12779 1.29276 0.14418 1.25205C0.166306 1.20321 0.230144 1.06509 0.256701 1.01799C0.288194 0.965193 0.356061 0.857966 0.39221 0.809206C0.49086 0.68203 0.639065 0.524733 0.765894 0.425271C0.785669 0.413854 0.999271 0.267879 1.01858 0.256976C1.04767 0.243903 1.22164 0.156825 1.25178 0.144658C1.28245 0.134765 1.43742 0.0799332 1.46834 0.0714178C1.50367 0.0641227 1.668 0.0269852 1.70279 0.0217738C1.74975 0.0172215 1.91531 0.000884056 1.96199 0L13.5 0.00014019Z" fill="#AEAEAE" fill-rule="evenodd" transform="matrix(-1,0,0,1,42.4998,5.5)"/>
</svg>
