<svg viewBox="0 0 48 48" xmlns="http://www.w3.org/2000/svg" xmlns:xlink="http://www.w3.org/1999/xlink" width="48.000000" height="48.000000" fill="none">
  <path id="形状结合" d="M34.5049 25.4949C36.4379 25.4949 38.0049 27.0619 38.0049 28.9949L38.0049 36.4949C38.0049 38.4279 36.4379 39.9949 34.5049 39.9949L17.5149 39.9949C15.5819 39.9949 14.0049 38.4279 14.0049 36.4949L14.0049 28.9949C14.0049 27.0619 15.5819 25.4949 17.5149 25.4949L34.5049 25.4949ZM42.4949 8.0149C43.2313 8.0149 43.8437 8.54553 43.9707 9.24528L43.9949 9.5149L43.9949 38.4849C43.9949 39.3133 43.3233 39.9849 42.4949 39.9849C41.7585 39.9849 41.1461 39.4546 41.0191 38.7549L40.9949 38.4849L40.9949 9.5149C40.9949 8.68647 41.6665 8.0149 42.4949 8.0149ZM34.5049 28.4949L17.5149 28.4949C17.2387 28.4949 17.0049 28.7187 17.0049 28.9949L17.0049 36.4949C17.0049 36.771 17.2387 36.9949 17.5149 36.9949L34.5049 36.9949C34.781 36.9949 35.0049 36.771 35.0049 36.4949L35.0049 28.9949C35.0049 28.7187 34.781 28.4949 34.5049 28.4949ZM34.5049 8.00488C36.4379 8.00488 38.0049 9.57189 38.0049 11.5049L38.0049 19.0049C38.0049 20.9379 36.4379 22.5049 34.5049 22.5049L7.51488 22.5049C5.58189 22.5049 4.00488 20.9379 4.00488 19.0049L4.00488 11.5049C4.00488 9.57189 5.58189 8.00488 7.51488 8.00488L34.5049 8.00488ZM34.5249 11.0049L7.51488 11.0049C7.23874 11.0049 7.00488 11.2287 7.00488 11.5049L7.00488 19.0049C7.00488 19.281 7.23874 19.5049 7.51488 19.5049L34.5249 19.5049C34.801 19.5049 35.0249 19.281 35.0249 19.0049L35.0249 11.5049C35.0249 11.2287 34.801 11.0049 34.5249 11.0049Z" fill="#191919" fill-rule="evenodd"/>
  <path id="形状结合" d="M42.4949 8.01514C43.2313 8.01514 43.8437 8.54576 43.9707 9.24551L43.9949 9.51514L43.9949 38.4851C43.9949 39.3135 43.3233 39.9851 42.4949 39.9851C41.7585 39.9851 41.146 39.4549 41.019 38.7551L40.9949 38.4851L40.9949 9.51514C40.9949 8.68671 41.6664 8.01514 42.4949 8.01514Z" fill="#AEAEAE" fill-rule="evenodd"/>
</svg>
