<svg viewBox="0 0 48 48" xmlns="http://www.w3.org/2000/svg" xmlns:xlink="http://www.w3.org/1999/xlink" width="48.000000" height="48.000000" fill="none">
  <path id="合并" d="M3.55762 18.8158L20.0883 5.24567C20.347 5.03327 20.6202 4.84721 20.9078 4.68748C21.1638 4.5453 21.4313 4.42399 21.7102 4.32353C21.9892 4.22304 22.2726 4.14596 22.5602 4.09229C22.5641 4.09155 22.5681 4.09082 22.572 4.0901C22.875 4.03426 23.1828 4.00438 23.4953 4.00044C23.8119 3.99646 24.1243 4.01923 24.4324 4.06874C24.7213 4.11516 25.0065 4.1851 25.2879 4.27854C25.5692 4.37195 25.8396 4.4865 26.0991 4.62219C26.3906 4.77464 26.6683 4.95377 26.9322 5.1596L44.4131 18.792C45.0769 19.3096 45.1943 20.2411 44.6798 20.9091C44.1654 21.577 43.2397 21.6951 42.576 21.1774L42.5 21.1182L42.5 38C42.5 38.552 42.442 39.0912 42.326 39.6177C42.2284 40.0608 42.0898 40.4948 41.91 40.9198C41.7296 41.3464 41.5139 41.7497 41.263 42.1297C40.986 42.5493 40.6661 42.9405 40.3033 43.3033C39.9405 43.6661 39.5493 43.986 39.1298 44.2629C38.7498 44.5139 38.3464 44.7296 37.9198 44.91C37.4947 45.0898 37.0606 45.2285 36.6174 45.3261C36.091 45.442 35.5519 45.5 35 45.5L13 45.5C12.4481 45.5 11.909 45.442 11.3826 45.3261C10.9394 45.2285 10.5053 45.0898 10.0802 44.91C9.65366 44.7296 9.25038 44.5139 8.87035 44.2631C8.45079 43.9861 8.05957 43.6662 7.6967 43.3033C7.33386 42.9405 7.01396 42.5493 6.737 42.1298C6.4861 41.7497 6.27043 41.3464 6.09 40.9198C5.91022 40.4947 5.77152 40.0606 5.67391 39.6175C5.55797 39.0911 5.5 38.5519 5.5 38L5.5 21.1161L5.45347 21.1543C4.80276 21.6884 3.87441 21.5937 3.34357 20.9389C2.81274 20.2841 2.90692 19.3499 3.55762 18.8158ZM8.5 18.6534L8.5 38C8.5 38.3492 8.53844 38.6895 8.61532 39.0209C8.67295 39.2693 8.75218 39.5127 8.85302 39.7511C8.95747 39.9981 9.08172 40.2322 9.22577 40.4533C9.39565 40.7141 9.59307 40.957 9.81802 41.182C10.043 41.4069 10.2859 41.6044 10.5467 41.7742C10.7679 41.9183 11.0019 42.0425 11.2489 42.147C11.4873 42.2478 11.7307 42.3271 11.9791 42.3847C12.3105 42.4616 12.6508 42.5 13 42.5L35 42.5C35.3492 42.5 35.6895 42.4616 36.0209 42.3847C36.2693 42.3271 36.5127 42.2478 36.7511 42.147C36.9981 42.0425 37.2323 41.9182 37.4535 41.7741C37.7142 41.6043 37.9571 41.4069 38.182 41.182C38.4069 40.9571 38.6043 40.7142 38.7742 40.4534C38.9183 40.2322 39.0425 39.9981 39.147 39.7511C39.2478 39.5127 39.327 39.2693 39.3847 39.0209C39.4616 38.6895 39.5 38.3492 39.5 38L39.5 19C39.5 18.9285 39.5048 18.8583 39.5141 18.7896L25.095 7.54505C24.9669 7.44517 24.8319 7.35915 24.6899 7.28699C24.5801 7.23121 24.4662 7.18371 24.3481 7.1445C24.2253 7.10374 24.101 7.07282 23.9749 7.05176C23.8297 7.02748 23.6823 7.01628 23.5328 7.01816C23.3833 7.02004 23.2362 7.03495 23.0916 7.06287C22.9662 7.0871 22.8426 7.12113 22.7209 7.16496C22.6038 7.20713 22.4911 7.25749 22.3827 7.31602C22.2426 7.39172 22.1097 7.4811 21.9842 7.58417L8.5 18.6534Z" fill="#191919" fill-rule="evenodd"/>
  <path id="合并" d="M24.0144 31.884L33.0064 22.892L33.2393 22.6414C34.791 20.8408 34.696 18.1017 32.9663 16.3719C32.0544 15.458 30.8604 15 29.6704 15C28.5002 15 27.3342 15.444 26.4463 16.332L17.3005 25.4954C17.2051 25.6156 17.1238 25.7467 17.0584 25.884L13.0715 34.3756C12.7532 35.3729 13.5447 36.338 14.5103 36.338C14.7224 36.338 14.9443 36.292 15.1624 36.1899L23.4543 32.28L23.656 32.1702C23.7859 32.0894 23.9063 31.9933 24.0144 31.884ZM28.7388 18.3042C29.0305 18.0862 29.4551 18.0159 29.6704 18C30.1104 18 30.5283 18.176 30.8464 18.4919C31.1604 18.806 31.332 19.3384 31.334 19.7764C31.3154 20.0374 31.2258 20.4326 30.8862 20.772L30.5049 21.1517L28.1868 18.8337L28.7388 18.3042ZM19.6982 27.322L26.0647 20.9537L28.3848 23.2717L22.0164 29.64L17.6284 31.708L19.6982 27.322ZM33.5 37L14.5 37C13.66 37 13 37.66 13 38.5C13 39.34 13.66 40 14.5 40L33.5 40C34.34 40 35 39.34 35 38.5C35 37.66 34.34 37 33.5 37Z" fill="#AEAEAE" fill-rule="evenodd"/>
</svg>
