<svg viewBox="0 0 48 48" xmlns="http://www.w3.org/2000/svg" xmlns:xlink="http://www.w3.org/1999/xlink" width="48.000000" height="48.000000" fill="none">
  <path id="Stroke-1" d="M0.43934 0.43934C0.971873 -0.0931931 1.8052 -0.141605 2.39242 0.294104L17.4387 15.3173C17.9716 15.8503 18.8054 15.8987 19.393 15.4627L34.4393 0.43934C35.0251 -0.146446 35.9749 -0.146446 36.5607 0.43934C37.0932 0.971873 37.1416 1.8052 36.7059 2.39242L21.6827 17.4387C20.0086 19.1127 17.3441 19.1925 15.5756 17.6778L15.3173 17.4387L0.43934 2.56066C-0.146447 1.97487 -0.146447 1.02513 0.43934 0.43934Z" fill="#191919" fill-rule="evenodd" transform="matrix(1,0,0,-1,5.5,21)"/>
  <path id="Stroke-1" d="M5.93934 27.4393C6.47187 26.9068 7.3052 26.8584 7.89242 27.2941L22.9387 42.3173C23.4716 42.8503 24.3054 42.8987 24.893 42.4627L39.9393 27.4393C40.5251 26.8536 41.4749 26.8536 42.0607 27.4393C42.5932 27.9719 42.6416 28.8052 42.2059 29.3924L27.1827 44.4387C25.5086 46.1127 22.8441 46.1925 21.0756 44.6778L20.8173 44.4387L5.93934 29.5607C5.35355 28.9749 5.35355 28.0251 5.93934 27.4393Z" fill="#AEAEAE" fill-rule="evenodd"/>
</svg>
