<svg viewBox="0 0 48 48" xmlns="http://www.w3.org/2000/svg" xmlns:xlink="http://www.w3.org/1999/xlink" width="48.000000" height="48.000000" fill="none">
  <path id="减去顶层" d="M11.5 10.5L11.5 12L9 12C8.59833 12 8.20582 12.0419 7.82247 12.1257L7.82246 12.1257L7.82234 12.1257L7.8223 12.1258C7.49439 12.1975 7.17319 12.2998 6.85869 12.4328C6.54437 12.5658 6.2473 12.7248 5.96746 12.9099L5.96743 12.9099C5.66129 13.1124 5.37579 13.346 5.11091 13.6109C4.84604 13.8758 4.61236 14.1613 4.40988 14.4674C4.22479 14.7473 4.06578 15.0444 3.93283 15.3587C3.79981 15.6732 3.69745 15.9944 3.62575 16.3223C3.54192 16.7057 3.5 17.0983 3.5 17.5L3.5 36.5C3.5 36.9017 3.54192 37.2943 3.62576 37.6777C3.69746 38.0056 3.79982 38.3268 3.93283 38.6413C4.06579 38.9557 4.22481 39.2527 4.40991 39.5326C4.61238 39.8387 4.84605 40.1242 5.11091 40.3891C5.3758 40.654 5.66133 40.8877 5.96749 41.0901C6.24732 41.2752 6.54438 41.4342 6.85869 41.5672C7.17322 41.7002 7.49445 41.8026 7.82239 41.8743C8.20576 41.9581 8.5983 42 9 42L24.4452 42C23.4815 41.1264 22.6439 40.116 21.9636 39L9 39C8.80101 39 8.60734 38.9776 8.419 38.9328L8.4189 38.9328C8.28572 38.9011 8.1552 38.8582 8.02735 38.8042C7.89263 38.7472 7.7648 38.6796 7.64384 38.6013C7.49642 38.5059 7.35921 38.3947 7.23223 38.2678C7.10527 38.1408 6.9941 38.0036 6.89872 37.8562C6.82046 37.7352 6.75283 37.6074 6.69585 37.4727C6.64177 37.3448 6.59889 37.2143 6.56721 37.0811C6.5224 36.8927 6.5 36.699 6.5 36.5L6.5 25.5L13.5 25.5L13.5 27C13.5 27.8398 14.16 28.5 15 28.5C15.84 28.5 16.5 27.8398 16.5 27L16.5 25.5L21.6673 25.5C22.2753 24.3967 23.0331 23.3876 23.913 22.5L16.5 22.5L16.5 21C16.5 20.1602 15.84 19.5 15 19.5C14.16 19.5 13.5 20.1602 13.5 21L13.5 22.5L6.5 22.5L6.5 17.5C6.5 17.301 6.5224 17.1073 6.56721 16.9189C6.59889 16.7857 6.64177 16.6552 6.69585 16.5273C6.75283 16.3926 6.82045 16.2648 6.8987 16.1438C6.99408 15.9964 7.10526 15.8592 7.23223 15.7322C7.35921 15.6053 7.4964 15.4941 7.64382 15.3987C7.76478 15.3205 7.89262 15.2528 8.02735 15.1958C8.1552 15.1418 8.28572 15.0989 8.41891 15.0672C8.60728 15.0224 8.80097 15 9 15L37 15C37.199 15 37.3928 15.0224 37.5811 15.0672L37.5812 15.0672C37.7144 15.0989 37.8448 15.1418 37.9727 15.1958C38.1073 15.2528 38.2351 15.3204 38.356 15.3986C38.5035 15.494 38.6407 15.6052 38.7678 15.7322C38.8948 15.8592 39.006 15.9965 39.1014 16.1439C39.1796 16.2649 39.2472 16.3927 39.3042 16.5273C39.3582 16.6552 39.4011 16.7857 39.4328 16.9189L39.4331 16.9202C39.4777 17.1082 39.5 17.3014 39.5 17.5L39.5 19.9009C40.5923 20.4431 41.6005 21.1287 42.5 21.9333L42.5 17.5C42.5 17.0982 42.4581 16.7057 42.3742 16.3222L42.3742 16.3222C42.3025 15.9943 42.2002 15.6731 42.0672 15.3587C41.9342 15.0444 41.7752 14.7473 41.5902 14.4675C41.3877 14.1613 41.154 13.8758 40.8891 13.6109C40.6242 13.346 40.3387 13.1124 40.0325 12.9099C39.7527 12.7248 39.4556 12.5658 39.1413 12.4328C38.8268 12.2998 38.5056 12.1974 38.1777 12.1257L38.1773 12.1257L38.1772 12.1256L38.1771 12.1256C37.7938 12.0419 37.4015 12 37 12L34.5 12L34.5 10.5C34.5 10.0987 34.4582 9.70648 34.3745 9.32342L34.3742 9.32228C34.3025 8.99438 34.2002 8.67318 34.0672 8.35869C33.9345 8.04507 33.7759 7.7486 33.5913 7.46928L33.5908 7.46846L33.5902 7.46757C33.3877 7.16138 33.154 6.87583 32.8891 6.61091C32.6242 6.34604 32.3387 6.11236 32.0326 5.90988C31.7527 5.7248 31.4556 5.56578 31.1413 5.43283C30.8268 5.29982 30.5056 5.19746 30.1777 5.12576C29.7943 5.04192 29.4017 5 29 5L17 5C16.5983 5 16.2057 5.04192 15.8223 5.12575C15.4944 5.19745 15.1732 5.29981 14.8587 5.43283C14.5444 5.56578 14.2473 5.7248 13.9674 5.90989C13.6613 6.11236 13.3758 6.34604 13.1109 6.61091C12.846 6.87579 12.6124 7.1613 12.4099 7.46745L12.4097 7.46765C12.2247 7.74743 12.0657 8.04445 11.9328 8.35869C11.7998 8.67319 11.6975 8.99439 11.6258 9.32229L11.6257 9.32244L11.6257 9.32246C11.5419 9.70581 11.5 10.0983 11.5 10.5ZM31.5 12L14.5 12L14.5 10.5C14.5 10.301 14.5224 10.1073 14.5672 9.91889C14.5989 9.78571 14.6418 9.6552 14.6958 9.52735C14.7528 9.39263 14.8204 9.26479 14.8987 9.14383C14.9941 8.99641 15.1053 8.85921 15.2322 8.73223C15.3592 8.60526 15.4964 8.49409 15.6438 8.39871C15.7648 8.32045 15.8926 8.25283 16.0273 8.19585C16.1552 8.14177 16.2857 8.09889 16.4189 8.06721L16.4194 8.06709L16.4194 8.06708L16.4195 8.06708C16.6077 8.02236 16.8012 8 17 8L29 8C29.199 8 29.3927 8.0224 29.5811 8.06721C29.7143 8.09889 29.8448 8.14177 29.9727 8.19585C30.1074 8.25283 30.2352 8.32044 30.3562 8.3987C30.5036 8.49407 30.6408 8.60525 30.7678 8.73223C30.8948 8.85925 31.006 8.99648 31.1014 9.14395C31.1796 9.26487 31.2472 9.39267 31.3042 9.52735C31.3582 9.65517 31.4011 9.78565 31.4328 9.91879C31.4776 10.1072 31.5 10.3009 31.5 10.5L31.5 12Z" fill="#191919" fill-rule="evenodd"/>
  <path id="合并" d="M33.3636 21C34.2067 21 35.03 21.0892 35.8334 21.2676C36.4983 21.4152 37.1496 21.6238 37.7873 21.8936C38.4302 22.1655 39.0383 22.4903 39.6116 22.868C40.2507 23.2891 40.8465 23.7758 41.3989 24.3283C41.9514 24.8808 42.4381 25.4765 42.8591 26.1155C43.2369 26.6888 43.5617 27.297 43.8337 27.94C44.1034 28.5777 44.3121 29.229 44.4597 29.8938C44.6381 30.6973 44.7273 31.5206 44.7273 32.3636C44.7273 33.2068 44.6381 34.0301 44.4597 34.8336C44.3121 35.4984 44.1034 36.1496 43.8337 36.7873C43.5618 37.4302 43.2369 38.0384 42.8592 38.6116C42.4382 39.2507 41.9514 39.8465 41.3989 40.3989C40.8465 40.9514 40.2508 41.4381 39.6118 41.8591C39.0385 42.2369 38.4303 42.5617 37.7873 42.8337C37.1496 43.1034 36.4983 43.3121 35.8335 43.4597C35.03 43.6381 34.2067 43.7273 33.3636 43.7273C32.5205 43.7273 31.6972 43.6381 30.8937 43.4597C30.2289 43.3121 29.5777 43.1034 28.94 42.8337C28.297 42.5618 27.6889 42.2369 27.1156 41.8592C26.4765 41.4382 25.8808 40.9514 25.3283 40.3989C24.7759 39.8465 24.2891 39.2507 23.868 38.6116C23.4903 38.0384 23.1655 37.4302 22.8936 36.7873C22.6238 36.1496 22.4152 35.4983 22.2676 34.8335C22.0892 34.03 22 33.2067 22 32.3636C22 31.5206 22.0892 30.6973 22.2676 29.8938L22.2676 29.8938C22.4152 29.229 22.6238 28.5777 22.8936 27.94C23.1655 27.2971 23.4903 26.689 23.868 26.1157L23.868 26.1157C24.2891 25.4766 24.7758 24.8808 25.3283 24.3283C25.8808 23.7759 26.4766 23.2891 27.1156 22.868L27.1156 22.868C27.6889 22.4903 28.297 22.1655 28.94 21.8936C29.5777 21.6238 30.229 21.4152 30.8938 21.2676L30.8938 21.2676L30.8939 21.2676C31.6973 21.0892 32.5206 21 33.3636 21ZM33.3636 23.7273C32.7048 23.7273 32.0624 23.7987 31.4362 23.9415C30.9484 24.0528 30.4704 24.2074 30.0024 24.4054C29.5227 24.6083 29.0685 24.85 28.6396 25.1306C28.1449 25.4543 27.6839 25.8297 27.2568 26.2568C26.8297 26.6839 26.4543 27.1449 26.1306 27.6396L26.1305 27.6397C25.85 28.0685 25.6083 28.5227 25.4054 29.0024C25.2075 29.4704 25.0528 29.9483 24.9416 30.4361L24.9415 30.4361C24.7987 31.0623 24.7273 31.7048 24.7273 32.3636C24.7273 33.0224 24.7987 33.6649 24.9415 34.2911C25.0528 34.7789 25.2074 35.2569 25.4054 35.7249C25.6083 36.2045 25.85 36.6588 26.1306 37.0876C26.4543 37.5824 26.8297 38.0433 27.2568 38.4705C27.6839 38.8976 28.1449 39.273 28.6397 39.5968C29.0685 39.8773 29.5228 40.119 30.0024 40.3219C30.4704 40.5198 30.9483 40.6744 31.436 40.7857C32.0623 40.9286 32.7048 41 33.3636 41C34.0224 41 34.6649 40.9286 35.2911 40.7857C35.7789 40.6744 36.2569 40.5198 36.7249 40.3219C37.2046 40.119 37.6588 39.8773 38.0877 39.5967C38.5824 39.273 39.0434 38.8976 39.4705 38.4705C39.8976 38.0433 40.2731 37.5823 40.5968 37.0875C40.8773 36.6587 41.119 36.2045 41.3219 35.7249C41.5198 35.2569 41.6744 34.779 41.7857 34.2912C41.9286 33.665 42 33.0225 42 32.3636C42 31.7048 41.9286 31.0623 41.7857 30.4361C41.6744 29.9483 41.5198 29.4704 41.3219 29.0024C41.119 28.5227 40.8773 28.0685 40.5967 27.6396C40.273 27.1449 39.8976 26.6839 39.4705 26.2568C39.0433 25.8297 38.5824 25.4542 38.0876 25.1305C37.6587 24.85 37.2045 24.6083 36.7249 24.4054C36.2569 24.2074 35.7789 24.0528 35.2911 23.9415C34.6649 23.7987 34.0224 23.7273 33.3636 23.7273ZM28.8636 29.1657C28.8636 28.8496 28.9089 28.5477 28.9994 28.26C29.0741 28.0225 29.1796 27.7946 29.316 27.5765C29.4483 27.365 29.6015 27.1753 29.7757 27.0074C29.973 26.8172 30.1971 26.655 30.4481 26.5207C30.6991 26.3863 30.9584 26.2898 31.226 26.2312C31.4623 26.1794 31.7052 26.1572 31.9545 26.1644C32.2117 26.1719 32.4598 26.2105 32.6989 26.2801C32.9884 26.3644 33.2647 26.4942 33.5277 26.6695L38.3236 29.8668C38.557 30.0223 38.7617 30.2025 38.9378 30.4073C39.0876 30.5815 39.2167 30.7735 39.3251 30.9833C39.431 31.1882 39.5117 31.3995 39.5673 31.6172C39.6288 31.8579 39.6595 32.1065 39.6595 32.3629C39.6595 32.6193 39.6288 32.8679 39.5673 33.1087C39.5117 33.3264 39.431 33.5377 39.3251 33.7425C39.2167 33.9523 39.0876 34.1443 38.9378 34.3185C38.7617 34.5233 38.557 34.7035 38.3236 34.8591L33.5277 38.0563C33.2647 38.2316 32.9884 38.3615 32.6989 38.4458C32.4598 38.5154 32.2117 38.5539 31.9545 38.5614C31.7052 38.5687 31.4624 38.5464 31.226 38.4946C30.9584 38.436 30.6991 38.3395 30.4481 38.2052C30.1971 38.0708 29.9729 37.9086 29.7757 37.7185C29.6015 37.5505 29.4483 37.3608 29.316 37.1493C29.1796 36.9312 29.0741 36.7034 28.9994 36.4659C28.9089 36.1782 28.8636 35.8763 28.8636 35.5601L28.8636 29.1657ZM31.8636 35.5601L36.6595 32.3629L31.8636 29.1657L31.8636 35.5601Z" fill="#AEAEAE" fill-rule="evenodd"/>
</svg>
