<svg viewBox="0 0 48 48" xmlns="http://www.w3.org/2000/svg" xmlns:xlink="http://www.w3.org/1999/xlink" width="48.000000" height="48.000000" fill="none">
  <path id="矢量 33" d="M36.003 6.16001C32.4833 3.78756 28.3357 2.5 24 2.5C12.1259 2.5 2.5 12.1259 2.5 24C2.5 35.8741 12.1259 45.5 24 45.5C35.8741 45.5 45.5 35.8741 45.5 24C45.5 19.7106 44.2399 15.6048 41.9145 12.1082L41.655 11.727C41.1816 11.0472 40.2467 10.8799 39.5669 11.3533C38.8871 11.8267 38.7197 12.7616 39.1931 13.4414L39.4164 13.7695L39.8043 14.378C41.5565 17.2488 42.5 20.5525 42.5 24C42.5 34.2172 34.2173 42.5 24 42.5C13.7827 42.5 5.5 34.2172 5.5 24C5.5 13.7827 13.7827 5.5 24 5.5C27.7335 5.5 31.2982 6.60659 34.3262 8.64765C35.0132 9.11069 35.9454 8.92917 36.4084 8.24223C36.8715 7.55528 36.69 6.62304 36.003 6.16001ZM26.5 14C26.5 12.6193 25.3807 11.5 24 11.5C22.6193 11.5 21.5 12.6193 21.5 14C21.5 15.3807 22.6193 16.5 24 16.5C25.3807 16.5 26.5 15.3807 26.5 14ZM24 19.5C24.7594 19.5 25.387 20.0643 25.4863 20.7964L25.5 21L25.5 35C25.5 35.8284 24.8284 36.5 24 36.5C23.2406 36.5 22.613 35.9357 22.5137 35.2035L22.5 35L22.5 21C22.5 20.1716 23.1716 19.5 24 19.5Z" fill="#191919" fill-rule="evenodd"/>
  <path id="矢量 33" d="M26.5 14C26.5 12.6193 25.3807 11.5 24 11.5C22.6193 11.5 21.5 12.6193 21.5 14C21.5 15.3807 22.6193 16.5 24 16.5C25.3807 16.5 26.5 15.3807 26.5 14ZM24 19.5C24.7594 19.5 25.387 20.0643 25.4863 20.7965L25.5 21L25.5 35C25.5 35.8284 24.8284 36.5 24 36.5C23.2406 36.5 22.613 35.9357 22.5137 35.2035L22.5 35L22.5 21C22.5 20.1716 23.1716 19.5 24 19.5Z" fill="#AEAEAE" fill-rule="evenodd"/>
</svg>
