<svg viewBox="0 0 48 48" xmlns="http://www.w3.org/2000/svg" xmlns:xlink="http://www.w3.org/1999/xlink" width="48.000000" height="48.000000" fill="none">
  <path id="形状结合" d="M40 31.9996C41.106 31.9996 42 32.8936 42 33.9996L42 37.4996C42 41.0836 39.084 43.9996 35.5 43.9996L12.5 43.9996C8.916 43.9996 6 41.0836 6 37.4996L6 33.9996C6 32.8936 6.894 31.9996 8 31.9996C9.106 31.9996 10 32.8936 10 33.9996L10 37.4996C10 38.8776 11.122 39.9996 12.5 39.9996L35.5 39.9996C36.878 39.9996 38 38.8776 38 37.4996L38 33.9996C38 32.8936 38.894 31.9996 40 31.9996ZM24 4C24.1865 4 24.367 4.02543 24.5382 4.07301C25.6487 4.18706 26.7244 4.65092 27.538 5.4654L37.414 15.3434C38.196 16.1254 38.196 17.3894 37.414 18.1714C37.024 18.5614 36.512 18.7574 36 18.7574C35.488 18.7574 34.976 18.5614 34.586 18.1714L26 9.584L26 34.15C26 35.256 25.106 36.15 24 36.15C22.894 36.15 22 35.256 22 34.15L22 9.584L13.414 18.1714C12.632 18.9534 11.368 18.9534 10.586 18.1714C9.804 17.3894 9.804 16.1254 10.586 15.3434L20.464 5.4654C21.2801 4.65018 22.3561 4.18696 23.4674 4.07479C23.6358 4.02503 23.8149 4 24 4Z" fill="#191919" fill-rule="evenodd"/>
  <path id="形状结合" d="M24 4C24.1865 4 24.367 4.02543 24.5382 4.07301C25.6487 4.18706 26.7244 4.65092 27.538 5.4654L37.414 15.3434C38.196 16.1254 38.196 17.3894 37.414 18.1714C37.024 18.5614 36.512 18.7574 36 18.7574C35.488 18.7574 34.976 18.5614 34.586 18.1714L26 9.584L26 34.15C26 35.256 25.106 36.15 24 36.15C22.894 36.15 22 35.256 22 34.15L22 9.584L13.414 18.1714C12.632 18.9534 11.368 18.9534 10.586 18.1714C9.804 17.3894 9.804 16.1254 10.586 15.3434L20.464 5.4654C21.2801 4.65018 22.3561 4.18696 23.4674 4.07479C23.6358 4.02503 23.8149 4 24 4Z" fill="#AEAEAE" fill-rule="evenodd"/>
</svg>
