<svg viewBox="0 0 48 48" xmlns="http://www.w3.org/2000/svg" xmlns:xlink="http://www.w3.org/1999/xlink" width="48.000000" height="48.000000" fill="none">
  <path id="形状结合" d="M41.842 15.6506C42.306 15.4306 42.858 15.4546 43.294 15.7286C43.734 16.0026 44 16.4826 44 17.0006L44 34.1866C44 36.4646 42.674 38.5846 40.624 39.5826L31.696 43.9246C30.726 44.3966 29.61 44.3986 28.632 43.9226L18.052 38.7746C17.918 38.7066 17.754 38.7066 17.618 38.7726L6.156 44.3506C5.948 44.4486 5.724 44.5006 5.5 44.5006C5.222 44.5006 4.946 44.4246 4.704 44.2706C4.264 43.9986 4 43.5186 4 43.0006L4 25.8146C4 23.5346 5.324 21.4166 7.374 20.4186L11.932 18.2006C12.218 19.1666 12.586 20.1046 13.02 21.0106L8.686 23.1166C7.662 23.6146 7 24.6746 7 25.8146L7 40.6026L16.302 36.0766L16.5 26.3826C17.552 27.6766 18.6 28.7866 19.5 29.6606L19.5 36.1426L28.5 40.5206L28.5 29.6606C29.398 28.7866 30.446 27.6766 31.5 26.3806L31.5 40.6846L39.312 36.8826C40.336 36.3846 41 35.3266 41 34.1866L41 19.3986L34.014 22.7966C34.812 21.4546 35.494 20.0166 35.974 18.5066L41.842 15.6506ZM23.9992 3.5C29.9073 3.5 34.6972 8.28921 34.6972 14.196C34.6972 17.8731 32.8296 21.6335 29.7527 25.3427C28.7034 26.6076 27.5827 27.7774 26.4615 28.827C26.1993 29.0725 25.9492 29.2999 25.7138 29.5083L25.1107 30.028L24.8986 30.2009L25.1107 30.028C25.0388 30.0857 24.9769 30.1586 24.8986 30.2009C24.861 30.2214 24.6343 30.36 24.5941 30.3773C24.5591 30.3875 24.3367 30.4623 24.3011 30.4696C24.2589 30.4763 24.1411 30.494 24.099 30.4968C24.0572 30.4942 23.8152 30.4895 23.7733 30.4831C23.7336 30.4715 23.5091 30.4184 23.4714 30.4043C23.4462 30.3903 23.2298 30.2882 23.2054 30.2729L22.6264 29.8064C22.2963 29.5228 21.9302 29.1952 21.5369 28.827C20.4157 27.7774 19.295 26.6076 18.2457 25.3427C15.1688 21.6335 13.3012 17.8731 13.3012 14.196C13.3012 8.28921 18.0911 3.5 23.9992 3.5ZM23.9992 6.5C19.7479 6.5 16.3012 9.94617 16.3012 14.196C16.3012 17.0219 17.8828 20.2065 20.5547 23.4273C21.5175 24.5879 22.5526 25.6685 23.5871 26.637L23.998 27.014C24.0801 26.9385 24.3231 26.7195 24.4113 26.637C25.4458 25.6685 26.4809 24.5879 27.4437 23.4273C30.1156 20.2065 31.6972 17.0219 31.6972 14.196C31.6972 9.94617 28.2505 6.5 23.9992 6.5ZM23.9992 9.4534C26.6183 9.4534 28.7432 11.5756 28.7432 14.1954C28.7432 16.8153 26.6182 18.9394 23.9992 18.9394C21.3789 18.9394 19.2572 16.8159 19.2572 14.1954C19.2572 11.575 21.3788 9.4534 23.9992 9.4534ZM23.9992 12.4534C23.0356 12.4534 22.2572 13.2318 22.2572 14.1954C22.2572 15.1596 23.0363 15.9394 23.9992 15.9394C24.9616 15.9394 25.7432 15.1581 25.7432 14.1954C25.7432 13.2333 24.9623 12.4534 23.9992 12.4534Z" fill="#191919" fill-rule="evenodd"/>
  <path id="形状结合" d="M23.9992 3.5C29.9073 3.5 34.6972 8.28921 34.6972 14.196C34.6972 17.8731 32.8296 21.6335 29.7527 25.3427C28.7034 26.6076 27.5827 27.7774 26.4615 28.827C26.1993 29.0725 25.9492 29.2999 25.7138 29.5083L25.1107 30.028L24.8986 30.2009L25.1107 30.028C25.0388 30.0857 24.9769 30.1586 24.8986 30.2009C24.861 30.2214 24.6343 30.36 24.5941 30.3773C24.5591 30.3875 24.3367 30.4623 24.3011 30.4696C24.2589 30.4763 24.1411 30.494 24.099 30.4968C24.0572 30.4942 23.8152 30.4895 23.7733 30.4831C23.7336 30.4715 23.5091 30.4184 23.4714 30.4043C23.4462 30.3903 23.2298 30.2882 23.2054 30.2729L22.6264 29.8064C22.2963 29.5228 21.9302 29.1952 21.5369 28.827C20.4157 27.7774 19.295 26.6076 18.2457 25.3427C15.1688 21.6335 13.3012 17.8731 13.3012 14.196C13.3012 8.28921 18.0911 3.5 23.9992 3.5ZM23.9992 6.5C19.7479 6.5 16.3012 9.94617 16.3012 14.196C16.3012 17.0219 17.8828 20.2065 20.5547 23.4273C21.5175 24.5879 22.5526 25.6685 23.5871 26.637L23.998 27.014C24.0801 26.9385 24.3231 26.7195 24.4113 26.637C25.4458 25.6685 26.4809 24.5879 27.4437 23.4273C30.1156 20.2065 31.6972 17.0219 31.6972 14.196C31.6972 9.94617 28.2505 6.5 23.9992 6.5ZM23.9992 9.4534C26.6183 9.4534 28.7432 11.5756 28.7432 14.1954C28.7432 16.8153 26.6182 18.9394 23.9992 18.9394C21.3789 18.9394 19.2572 16.8159 19.2572 14.1954C19.2572 11.575 21.3788 9.4534 23.9992 9.4534ZM23.9992 12.4534C23.0356 12.4534 22.2572 13.2318 22.2572 14.1954C22.2572 15.1596 23.0363 15.9394 23.9992 15.9394C24.9616 15.9394 25.7432 15.1581 25.7432 14.1954C25.7432 13.2333 24.9623 12.4534 23.9992 12.4534Z" fill="#AEAEAE" fill-rule="evenodd"/>
</svg>
