<svg viewBox="0 0 48 48" xmlns="http://www.w3.org/2000/svg" xmlns:xlink="http://www.w3.org/1999/xlink" width="48.000000" height="48.000000" fill="none">
  <path id="Fill-1" d="M32.132 30.034C32.718 30.62 32.718 31.57 32.132 32.156C31.84 32.448 31.456 32.594 31.072 32.594C30.688 32.594 30.304 32.448 30.01 32.156L24 26.146L17.99 32.156C17.696 32.448 17.312 32.594 16.928 32.594C16.546 32.594 16.162 32.448 15.868 32.156C15.282 31.57 15.282 30.62 15.868 30.034L21.88 24.024L15.868 18.012C15.282 17.426 15.282 16.478 15.868 15.892C16.454 15.306 17.404 15.306 17.99 15.892L24 21.904L30.01 15.892C30.596 15.306 31.546 15.306 32.132 15.892C32.718 16.478 32.718 17.426 32.132 18.012L26.122 24.024L32.132 30.034ZM24 4C12.954 4 4 12.954 4 24C4 35.046 12.954 44 24 44C35.046 44 44 35.046 44 24C44 12.954 35.046 4 24 4Z" fill="#191919" fill-rule="evenodd"/>
  <path id="Fill-1" d="M32.1322 30.0336C32.7182 30.6197 32.7182 31.5696 32.1322 32.1556C31.8402 32.4477 31.4562 32.5937 31.0722 32.5937C30.6882 32.5937 30.3042 32.4477 30.0102 32.1556L24.0002 26.1456L17.9902 32.1556C17.6962 32.4477 17.3122 32.5937 16.9282 32.5937C16.5462 32.5937 16.1622 32.4477 15.8682 32.1556C15.2822 31.5696 15.2822 30.6197 15.8682 30.0336L21.8802 24.0236L15.8682 18.0116C15.2822 17.4256 15.2822 16.4776 15.8682 15.8916C16.4542 15.3056 17.4042 15.3056 17.9902 15.8916L24.0002 21.9036L30.0102 15.8916C30.5962 15.3056 31.5462 15.3056 32.1322 15.8916C32.7182 16.4776 32.7182 17.4256 32.1322 18.0116L26.1222 24.0236L32.1322 30.0336Z" fill="#AEAEAE" fill-rule="evenodd"/>
</svg>
