<svg viewBox="0 0 48 48" xmlns="http://www.w3.org/2000/svg" xmlns:xlink="http://www.w3.org/1999/xlink" width="48.000000" height="48.000000" fill="none">
  <path id="Fill-1" d="M41 21.711C40.488 21.711 39.976 21.515 39.586 21.125L24.708 6.247C24.452 5.991 24.154 5.953 24 5.953C23.846 5.953 23.548 5.991 23.294 6.247L8.41401 21.125C7.63201 21.907 6.36801 21.907 5.58601 21.125C4.80401 20.343 4.80401 19.079 5.58601 18.297L20.464 3.419C22.352 1.527 25.648 1.527 27.536 3.419L42.414 18.297C43.196 19.079 43.196 20.343 42.414 21.125C42.024 21.515 41.512 21.711 41 21.711Z" fill="#191919" fill-rule="evenodd"/>
  <path id="Fill-1" d="M36.0005 19.711C35.4885 19.711 34.9765 19.515 34.5865 19.125L19.7085 4.247C19.4525 3.991 19.1545 3.953 19.0005 3.953C18.8465 3.953 18.5485 3.991 18.2945 4.247L3.4145 19.125C2.6325 19.907 1.3685 19.907 0.5865 19.125C-0.1955 18.343 -0.1955 17.079 0.5865 16.297L15.4645 1.419C17.3525 -0.473 20.6485 -0.473 22.5365 1.419L37.4145 16.297C38.1965 17.079 38.1965 18.343 37.4145 19.125C37.0245 19.515 36.5125 19.711 36.0005 19.711Z" fill="#AEAEAE" fill-rule="evenodd" transform="matrix(1,0,0,-1,4.99927,46)"/>
</svg>
