<svg viewBox="0 0 48 48" xmlns="http://www.w3.org/2000/svg" xmlns:xlink="http://www.w3.org/1999/xlink" width="48.000000" height="48.000000" fill="none">
  <path id="Combined Shape" d="M44 33.3333C44 31.4924 42.5076 30 40.6667 30L33 30C33 32.6924 30.8174 34.875 28.125 34.875L21.2083 34.875C18.5159 34.875 16.3333 32.6924 16.3333 30L7.33333 30C5.49238 30 4 31.4924 4 33.3333L4 39.6667C4 41.5076 5.49238 43 7.33333 43L40.6667 43C42.5076 43 44 41.5076 44 39.6667L44 33.3333Z" fill="#191919" fill-rule="evenodd"/>
  <path id="减去顶层" d="M30.3333 5C32.1743 5 33.6667 6.49238 33.6667 8.33333L33.6667 11.667L37 11.667C38.8409 11.667 40.3333 13.1594 40.3333 15.0003L40.3333 27L31.1667 27C31.1667 29.2785 29.2639 31.1251 26.9167 31.1251L22.25 31.1251C19.9028 31.1251 18 29.2785 18 27L7 27L7 8.33333C7 6.49238 8.49238 5 10.3333 5L30.3333 5ZM23.8752 8.20812C24.4111 8.53899 24.6499 9.17972 24.4771 9.78677L24.4042 9.9874L22.8 12.6L24.2587 12.6C25.0414 12.6 25.6531 13.2882 25.6531 14.1125C25.6531 14.785 25.2447 15.3743 24.6322 15.5655L24.4208 15.614L21.468 15.624L21.468 17.118L24.2093 17.12C24.992 17.12 25.6037 17.8082 25.6037 18.6325C25.6037 19.305 25.1952 19.8943 24.5828 20.0855L24.3714 20.134L21.468 20.144L21.4689 23.2459C21.4689 24.0286 20.7807 24.6403 19.9564 24.6403C19.2839 24.6403 18.6946 24.2318 18.5034 23.6194L18.4549 23.408L18.442 20.144L15.3944 20.145C14.6117 20.145 14 19.4568 14 18.6325C14 17.96 14.4085 17.3707 15.0209 17.1795L15.2323 17.131L18.442 17.118L18.442 15.624L15.4439 15.625C14.6612 15.625 14.0494 14.9368 14.0494 14.1125C14.0494 13.44 14.4579 12.8507 15.0703 12.6595L15.2818 12.611L16.874 12.6L15.3475 10.1272C14.943 9.47191 15.1462 8.61271 15.8015 8.20812C16.3308 7.88134 17.0004 7.94906 17.4522 8.34464L17.7206 8.66207L19.838 12.09L21.9561 8.66207C22.3607 8.00678 23.2199 7.80354 23.8752 8.20812Z" fill="#AEAEAE" fill-rule="evenodd"/>
</svg>
