<svg viewBox="0 0 48 48" xmlns="http://www.w3.org/2000/svg" xmlns:xlink="http://www.w3.org/1999/xlink" width="48.000000" height="48.000000" fill="none">
  <path id="减去顶层" d="M11.996 6L36.002 6C39.308 6 42 8.692 42 11.998L42 36.002C42 39.308 39.308 42 36.002 42L11.996 42C8.69 42 6 39.308 6 36.002L6 11.998C6 8.692 8.69 6 11.996 6ZM21.0987 16.7373L19.7628 12.7422C19.7432 12.6826 19.7295 12.623 19.7217 12.5615C19.714 12.5 19.7123 12.4385 19.7167 12.377C19.7211 12.3145 19.7315 12.2539 19.7479 12.1943C19.7643 12.1348 19.7864 12.0771 19.8142 12.0215C19.842 11.9658 19.8749 11.9141 19.913 11.8652C19.9315 11.8408 19.951 11.8184 19.9716 11.7969C19.9934 11.7734 20.0164 11.752 20.0405 11.7305C20.0633 11.7109 20.087 11.6924 20.1114 11.6748C20.1373 11.6562 20.1642 11.6396 20.1919 11.624C20.2459 11.5928 20.3023 11.5684 20.3613 11.5488C20.4096 11.5322 20.4585 11.5205 20.5081 11.5127C20.5582 11.5039 20.609 11.5 20.6605 11.5L27.3395 11.5C27.3708 11.5 27.4018 11.502 27.4328 11.5049C27.4634 11.5078 27.4938 11.5117 27.5241 11.5186C27.585 11.5303 27.6442 11.5479 27.7016 11.5723C27.7313 11.584 27.7601 11.5977 27.7883 11.6133C27.8146 11.627 27.8402 11.6426 27.8652 11.6592C27.892 11.6768 27.9177 11.6963 27.9424 11.7168C27.9654 11.7354 27.9874 11.7549 28.0086 11.7764C28.0525 11.8203 28.0917 11.8682 28.1263 11.9189C28.144 11.9453 28.1602 11.9727 28.1751 12.001C28.1892 12.0273 28.2021 12.0547 28.2137 12.082C28.2258 12.1113 28.2364 12.1406 28.2455 12.1709C28.2542 12.2002 28.2616 12.2295 28.2675 12.2598C28.2736 12.29 28.2782 12.3203 28.2812 12.3516C28.2842 12.3818 28.2857 12.4131 28.2857 12.4434C28.2857 12.5459 28.2695 12.6445 28.2372 12.7422L26.9014 16.7373C26.8857 16.7842 26.8666 16.8291 26.8439 16.873C26.8212 16.917 26.7953 16.958 26.766 16.998C26.7368 17.0371 26.7047 17.0742 26.6696 17.1094C26.6345 17.1436 26.597 17.1758 26.557 17.2041C26.5169 17.2334 26.4749 17.2588 26.4309 17.2803C26.3868 17.3027 26.3413 17.3213 26.2944 17.3369C26.2474 17.3516 26.1996 17.3633 26.1509 17.3711C26.1021 17.3789 26.0531 17.3828 26.0037 17.3828L21.9963 17.3828C21.9733 17.3828 21.9504 17.382 21.9275 17.3803C21.9013 17.3783 21.8752 17.3753 21.8492 17.3711C21.8004 17.3633 21.7526 17.3516 21.7056 17.3369C21.6587 17.3213 21.6132 17.3027 21.5691 17.2803C21.5251 17.2588 21.4831 17.2334 21.443 17.2041C21.403 17.1758 21.3655 17.1436 21.3304 17.1094C21.2954 17.0742 21.2632 17.0371 21.234 16.998C21.2048 16.958 21.1788 16.917 21.1561 16.873C21.1334 16.8291 21.1143 16.7842 21.0987 16.7373ZM19.0166 31.4424L21.2346 19.6045C21.2444 19.5518 21.2585 19.501 21.2769 19.4502C21.2884 19.4191 21.3014 19.3887 21.316 19.3591C21.3247 19.3413 21.334 19.3238 21.3439 19.3066C21.3701 19.2607 21.4 19.2168 21.4335 19.1768C21.4669 19.1357 21.5035 19.0986 21.5431 19.0645C21.5747 19.0372 21.6079 19.0124 21.6427 18.9902C21.6516 18.9845 21.6605 18.979 21.6696 18.9736C21.7002 18.9551 21.7318 18.9395 21.7642 18.9248C21.7789 18.918 21.7939 18.9121 21.809 18.9062C21.8574 18.8887 21.9068 18.875 21.9574 18.8652C21.9847 18.8604 22.0121 18.8574 22.0397 18.8545C22.0632 18.8525 22.0867 18.8516 22.1103 18.8516L25.8897 18.8516C25.941 18.8516 25.992 18.8564 26.0426 18.8652C26.0932 18.875 26.1426 18.8887 26.191 18.9062C26.2117 18.9142 26.2322 18.9229 26.2523 18.9324C26.2789 18.9448 26.305 18.9586 26.3304 18.9736C26.3423 18.9805 26.354 18.9883 26.3655 18.9951C26.3973 19.0166 26.4278 19.0391 26.4569 19.0645C26.4965 19.0986 26.5331 19.1357 26.5665 19.1768C26.6 19.2168 26.6299 19.2607 26.6562 19.3066C26.6825 19.3525 26.7048 19.4004 26.7231 19.4502C26.7415 19.501 26.7556 19.5518 26.7654 19.6045L28.9834 31.4424C28.998 31.5205 29.003 31.5996 28.9983 31.6787C28.9936 31.7588 28.9793 31.8359 28.9556 31.9121C28.9318 31.9873 28.8992 32.0586 28.858 32.126C28.8167 32.1924 28.768 32.2529 28.7118 32.3066L24.6042 36.2529C24.5634 36.292 24.5194 36.3271 24.4724 36.3574C24.4253 36.3887 24.3759 36.4141 24.3243 36.4355C24.2726 36.4561 24.2195 36.4717 24.165 36.4834C24.1105 36.4932 24.0555 36.499 24 36.499C23.9445 36.499 23.8895 36.4932 23.835 36.4834C23.7805 36.4717 23.7274 36.4561 23.6757 36.4355C23.6241 36.4141 23.5747 36.3887 23.5276 36.3574C23.4806 36.3271 23.4366 36.292 23.3958 36.2529L19.2882 32.3066C19.232 32.2529 19.1833 32.1924 19.142 32.126C19.1199 32.0899 19.1004 32.0527 19.0833 32.0145C19.0684 31.9812 19.0555 31.9471 19.0444 31.9121C19.0207 31.8359 19.0064 31.7588 19.0017 31.6787C18.997 31.5996 19.002 31.5205 19.0166 31.4424Z" fill="#191919" fill-rule="evenodd"/>
  <path id="形状结合" d="M19.7629 12.7417L21.0987 16.7373C21.1143 16.784 21.1334 16.8291 21.1561 16.8728C21.1788 16.9165 21.2048 16.9582 21.234 16.9978C21.2632 17.0374 21.2954 17.0746 21.3304 17.1092C21.3655 17.1438 21.403 17.1755 21.443 17.2043C21.4831 17.233 21.5251 17.2585 21.5691 17.2807C21.6132 17.303 21.6587 17.3216 21.7056 17.3367C21.7526 17.3518 21.8004 17.3632 21.8492 17.3709C21.8979 17.3785 21.947 17.3824 21.9963 17.3824L26.0037 17.3824C26.0531 17.3824 26.1021 17.3785 26.1508 17.3709C26.1996 17.3632 26.2474 17.3518 26.2944 17.3367C26.3413 17.3216 26.3868 17.303 26.4309 17.2807C26.4749 17.2585 26.5169 17.233 26.557 17.2043C26.597 17.1755 26.6345 17.1438 26.6696 17.1092C26.7046 17.0746 26.7368 17.0374 26.766 16.9978C26.7952 16.9582 26.8212 16.9165 26.8439 16.8728C26.8666 16.8291 26.8857 16.784 26.9014 16.7373L28.2372 12.7417C28.2695 12.6449 28.2857 12.5455 28.2857 12.4434C28.2857 12.4126 28.2842 12.382 28.2812 12.3515C28.2782 12.3206 28.2736 12.2899 28.2675 12.2593C28.2616 12.2295 28.2542 12.2001 28.2455 12.1711C28.2364 12.1411 28.2258 12.1115 28.2137 12.0824C28.2021 12.0545 28.1892 12.0273 28.1751 12.0008C28.1602 11.9728 28.1439 11.9457 28.1262 11.9193C28.0917 11.8678 28.0525 11.8201 28.0086 11.7763C27.9874 11.7552 27.9654 11.7352 27.9425 11.7163C27.9177 11.6959 27.892 11.6768 27.8652 11.659C27.8402 11.6424 27.8146 11.627 27.7883 11.6128C27.7601 11.5977 27.7313 11.5841 27.7016 11.5718C27.6442 11.5481 27.585 11.5302 27.5241 11.5181C27.4938 11.5121 27.4634 11.5076 27.4328 11.5046C27.4018 11.5015 27.3708 11.5 27.3395 11.5L20.6605 11.5C20.609 11.5 20.5582 11.5041 20.5081 11.5122C20.4585 11.5203 20.4096 11.5324 20.3613 11.5484C20.3023 11.568 20.2459 11.5931 20.1919 11.6238C20.1642 11.6396 20.1373 11.6567 20.1114 11.6751C20.087 11.6924 20.0633 11.711 20.0405 11.7307C20.0164 11.7516 19.9934 11.7736 19.9716 11.7967C19.951 11.8185 19.9315 11.8412 19.913 11.865C19.8749 11.9139 19.842 11.9661 19.8142 12.0215C19.7864 12.0769 19.7643 12.1345 19.7479 12.1942C19.7315 12.254 19.7211 12.3147 19.7167 12.3765C19.7123 12.4383 19.714 12.4999 19.7217 12.5614C19.7295 12.6228 19.7432 12.683 19.7629 12.7417ZM21.2346 19.6047L19.0166 31.4425C19.002 31.5206 18.997 31.5994 19.0017 31.6789C19.0064 31.7584 19.0207 31.836 19.0445 31.9117C19.0682 31.9873 19.1007 32.0587 19.142 32.1256C19.1833 32.1926 19.232 32.253 19.2882 32.3069L23.3958 36.2529C23.4366 36.2921 23.4806 36.3271 23.5276 36.3577C23.5747 36.3883 23.6241 36.4142 23.6757 36.4352C23.7274 36.4563 23.7805 36.4722 23.835 36.4829C23.8895 36.4936 23.9445 36.4989 24 36.4989C24.0555 36.4989 24.1105 36.4936 24.165 36.4829C24.2195 36.4722 24.2726 36.4563 24.3243 36.4352C24.3759 36.4142 24.4253 36.3883 24.4724 36.3577C24.5194 36.3271 24.5634 36.2921 24.6042 36.2529L28.7118 32.3069C28.768 32.253 28.8167 32.1926 28.858 32.1256C28.8993 32.0587 28.9318 31.9873 28.9556 31.9117C28.9793 31.836 28.9936 31.7584 28.9983 31.6789C29.003 31.5994 28.998 31.5206 28.9834 31.4425L26.7654 19.6047C26.7556 19.5521 26.7415 19.5007 26.7231 19.4507C26.7048 19.4006 26.6824 19.3525 26.6562 19.3065C26.6299 19.2604 26.6 19.2171 26.5665 19.1764C26.5331 19.1358 26.4965 19.0984 26.4569 19.0643C26.4277 19.0393 26.3973 19.0163 26.3655 18.9954C26.354 18.9878 26.3423 18.9805 26.3304 18.9735C26.2858 18.947 26.2393 18.9247 26.191 18.9066C26.1426 18.8885 26.0932 18.8749 26.0426 18.8657C25.992 18.8565 25.941 18.8519 25.8897 18.8519L22.1103 18.8519C22.0867 18.8519 22.0631 18.8529 22.0397 18.8548C22.0121 18.8571 21.9847 18.8607 21.9574 18.8657C21.9068 18.8749 21.8574 18.8885 21.809 18.9066C21.7939 18.9123 21.7789 18.9183 21.7642 18.9248C21.7318 18.9391 21.7002 18.9553 21.6696 18.9735C21.6249 19 21.5828 19.0302 21.5431 19.0643C21.5035 19.0984 21.4669 19.1358 21.4335 19.1764C21.4 19.2171 21.3701 19.2604 21.3439 19.3065C21.3176 19.3525 21.2952 19.4006 21.2769 19.4507C21.2585 19.5007 21.2444 19.5521 21.2346 19.6047Z" fill="#AEAEAE" fill-rule="evenodd"/>
</svg>
