<svg viewBox="0 0 48 48" xmlns="http://www.w3.org/2000/svg" xmlns:xlink="http://www.w3.org/1999/xlink" width="48.000000" height="48.000000" fill="none">
  <path id="形状结合" d="M34 4C37.1955 4 39.8073 6.49849 39.9898 9.64752L40 10L40 20C40 20.8284 39.3284 21.5 38.5 21.5C37.7406 21.5 37.113 20.9358 37.0137 20.2036L37 20L37 10C37 8.44107 35.8102 7.15916 34.2889 7.01374L34 7L14 7C12.4407 7 11.1591 8.19021 11.0137 9.71116L11 10L11 38.002C11 39.5604 12.1893 40.841 13.711 40.9863L14 41L22 41C22.8284 41 23.5 41.6716 23.5 42.5C23.5 43.2594 22.9357 43.887 22.2035 43.9863L22 44L14 44C10.8043 44 8.19266 41.5032 8.01018 38.3545L8 38.002L8 10C8 6.80531 10.4977 4.19273 13.6474 4.01019L14 4L34 4ZM26 19.5C26.8284 19.5 27.5 20.1716 27.5 21C27.5 21.7594 26.9357 22.387 26.2035 22.4863L26 22.5L17 22.5C16.1716 22.5 15.5 21.8284 15.5 21C15.5 20.2406 16.0643 19.613 16.7965 19.5137L17 19.5L26 19.5ZM31 11.5C31.8284 11.5 32.5 12.1716 32.5 13C32.5 13.7594 31.9357 14.387 31.2035 14.4863L31 14.5L17 14.5C16.1716 14.5 15.5 13.8284 15.5 13C15.5 12.2406 16.0643 11.613 16.7965 11.5137L17 11.5L31 11.5Z" fill="#191919" fill-rule="evenodd"/>
  <path id="矢量 1923" d="M45.2395 36.4487C45.0891 37.1377 44.874 37.813 44.594 38.4741C44.3213 39.1177 43.9961 39.7271 43.6187 40.3018C43.1895 40.9551 42.6929 41.564 42.1284 42.1284C41.0674 43.1895 39.8491 44.0112 38.4739 44.5942C37.813 44.874 37.1379 45.0894 36.4487 45.2393C35.6514 45.4131 34.8352 45.5 34 45.5C33.1648 45.5 32.3486 45.4131 31.5513 45.2393C30.8621 45.0894 30.187 44.874 29.5261 44.5942C28.8823 44.3213 28.2729 43.9961 27.6982 43.6187C27.0449 43.1895 26.436 42.6929 25.8716 42.1284C25.3071 41.564 24.8105 40.9551 24.3816 40.3022L24.3816 40.3018C24.0039 39.7271 23.6787 39.1177 23.406 38.4741C23.126 37.813 22.9109 37.1382 22.7607 36.4487C22.5869 35.6514 22.5 34.835 22.5 34C22.5 33.165 22.5869 32.3486 22.7605 31.5513C22.9109 30.8623 23.126 30.187 23.406 29.5259C23.6787 28.8823 24.0039 28.2729 24.3813 27.6982L24.3813 27.6982C24.8105 27.0449 25.3071 26.436 25.8716 25.8716C26.436 25.3071 27.0447 24.8105 27.698 24.3813L27.6982 24.3813L27.6982 24.3813C28.2732 24.0039 28.8823 23.6787 29.5261 23.4058C30.187 23.126 30.8621 22.9106 31.5513 22.7607L31.5513 22.7607L31.5513 22.7607C32.3486 22.5869 33.1648 22.5 34 22.5C34.8352 22.5 35.6514 22.5869 36.4487 22.7607L36.4487 22.7607C37.1379 22.9106 37.813 23.126 38.4739 23.4058C39.1177 23.6787 39.7271 24.0039 40.302 24.3813C40.9553 24.8105 41.564 25.3071 42.1284 25.8716C42.6929 26.436 43.1895 27.0449 43.6187 27.6982C43.9961 28.2729 44.3213 28.8823 44.594 29.5259C44.874 30.187 45.0891 30.8623 45.2395 31.5513C45.4131 32.3486 45.5 33.165 45.5 34C45.5 34.835 45.4131 35.6514 45.2395 36.4487ZM42.2983 32.1484C42.1882 31.6543 42.0325 31.1704 41.8318 30.6963C41.4011 29.6797 40.7927 28.7788 40.0071 27.9927C39.5803 27.5664 39.1196 27.1919 38.6248 26.8696C38.2085 26.5991 37.7681 26.3652 37.3035 26.1685C36.8296 25.9673 36.3455 25.812 35.8513 25.7017C35.2493 25.5674 34.6321 25.5 34 25.5C33.3679 25.5 32.7507 25.5674 32.1487 25.7017L32.1484 25.7017C31.6543 25.812 31.1704 25.9673 30.6965 26.1685C30.2319 26.3652 29.7915 26.5991 29.3752 26.8696C28.8804 27.1919 28.4197 27.5664 27.9929 27.9927C27.5662 28.4194 27.1919 28.8804 26.8699 29.375C26.5989 29.7915 26.365 30.2319 26.1682 30.6963C25.9675 31.1704 25.8118 31.6543 25.7017 32.1484C25.5671 32.751 25.5 33.3677 25.5 34C25.5 34.6323 25.5671 35.249 25.7017 35.8516C25.8118 36.3457 25.9675 36.8296 26.1682 37.3037C26.365 37.7681 26.5989 38.2085 26.8699 38.625C27.1919 39.1196 27.5662 39.5806 27.9929 40.0073C28.4197 40.4336 28.8804 40.8081 29.3752 41.1304C29.7915 41.4009 30.2319 41.6348 30.6965 41.8315C31.1704 42.0327 31.6545 42.188 32.1487 42.2983C32.7507 42.4326 33.3679 42.5 34 42.5C34.6321 42.5 35.2493 42.4326 35.8516 42.2983C36.3457 42.188 36.8296 42.0327 37.3035 41.8315C37.7681 41.6348 38.2085 41.4014 38.6248 41.1304C39.1196 40.8081 39.5803 40.4336 40.0071 40.0073C40.4338 39.5806 40.8081 39.1196 41.1301 38.625C41.4011 38.2085 41.635 37.7681 41.8318 37.3037C42.0325 36.8296 42.1882 36.3457 42.2983 35.8516C42.4329 35.249 42.5 34.6323 42.5 34C42.5 33.3677 42.4329 32.751 42.2983 32.1484ZM35.4863 28.2964C35.387 27.5645 34.7593 27 34 27C33.1716 27 32.5 27.6714 32.5 28.5L32.5 34.248L32.5137 34.4517C32.613 35.1836 33.2407 35.748 34 35.748C34.8284 35.748 35.5 35.0767 35.5 34.248L35.5 28.5L35.4863 28.2964ZM36 39.5C36 38.394 35.106 37.5 34 37.5C32.894 37.5 32 38.394 32 39.5C32 40.604 32.894 41.5 34 41.5C35.106 41.5 36 40.604 36 39.5Z" fill="#AEAEAE" fill-rule="evenodd"/>
</svg>
