<svg viewBox="0 0 48 48" xmlns="http://www.w3.org/2000/svg" xmlns:xlink="http://www.w3.org/1999/xlink" width="48.000000" height="48.000000" fill="none">
  <path id="形状结合" d="M38.5 29.9961C39.3284 29.9961 40 30.6677 40 31.4961C40 32.2555 39.4357 32.8831 38.7035 32.9824L38.5 32.9961L1.5 32.9961C0.671574 32.9961 0 32.3245 0 31.4961C0 30.7367 0.564305 30.1093 1.29646 30.01L1.5 29.9961L38.5 29.9961ZM38.5 14.9983C39.3284 14.9983 40 15.6699 40 16.4983C40 17.2577 39.4357 17.8853 38.7035 17.9846L38.5 17.9983L1.5 17.9983C0.671574 17.9983 0 17.3267 0 16.4983C0 15.7389 0.564305 15.1113 1.29646 15.012L1.5 14.9983L38.5 14.9983ZM38.5 0C39.3284 0 40 0.671573 40 1.5C40 2.25939 39.4357 2.887 38.7035 2.98633L38.5 3L1.5 3C0.671574 3 0 2.32843 0 1.5C0 0.740608 0.564305 0.112997 1.29646 0.0136719L1.5 0L38.5 0Z" fill="#191919" fill-rule="evenodd" transform="matrix(0,-1,1,0,7.50195,43.998)"/>
  <path id="形状结合" d="M38.5 0C39.3284 0 40 0.671572 40 1.5C40 2.25939 39.4357 2.887 38.7035 2.98633L38.5 3L1.5 3C0.671574 3 0 2.32843 0 1.5C0 0.740608 0.564305 0.112997 1.29646 0.0136719L1.5 0L38.5 0Z" fill="#AEAEAE" fill-rule="evenodd" transform="matrix(0,-1,1,0,22.5002,43.998)"/>
</svg>
