<svg viewBox="0 0 48 48" xmlns="http://www.w3.org/2000/svg" xmlns:xlink="http://www.w3.org/1999/xlink" width="48.000000" height="48.000000" fill="none">
  <path id="形状结合" d="M43.078 10.8327C43.652 11.7527 44 12.8307 44 13.9927L44 34.0067C44 37.3107 41.312 40.0007 38.008 40.0007L9.994 40.0007C6.69 40.0007 4 37.3107 4 34.0067L4 13.9927C4 12.8287 4.348 11.7527 4.924 10.8327L20.818 26.7267C21.696 27.6027 22.848 28.0427 24.002 28.0427C25.154 28.0427 26.308 27.6027 27.184 26.7267L43.078 10.8327ZM38.0078 7.99951C39.0598 7.99951 40.0338 8.29751 40.8958 8.77351L25.0638 24.6055C24.4758 25.1935 23.5238 25.1895 22.9398 24.6055L7.1078 8.77351C7.9678 8.29751 8.9418 7.99951 9.9938 7.99951L38.0078 7.99951Z" fill="#191919" fill-rule="evenodd"/>
  <path id="形状结合" d="M38.0078 7.99951C39.0598 7.99951 40.0338 8.29751 40.8958 8.77351L25.0638 24.6055C24.4758 25.1935 23.5238 25.1895 22.9398 24.6055L7.1078 8.77351C7.9678 8.29751 8.9418 7.99951 9.9938 7.99951L38.0078 7.99951Z" fill="#AEAEAE" fill-rule="evenodd"/>
</svg>
