<svg viewBox="0 0 48 48" xmlns="http://www.w3.org/2000/svg" xmlns:xlink="http://www.w3.org/1999/xlink" width="48.000000" height="48.000000" fill="none">
  <path id="形状结合" d="M34.9092 37C36.0132 37 36.9092 37.894 36.9092 39C36.9092 40.106 36.0132 41 34.9092 41C33.8032 41 32.9092 40.106 32.9092 39C32.9092 37.894 33.8032 37 34.9092 37ZM7.98312 25.8408L13.044 30.88L17.9394 25.9861C18.5253 25.4003 19.475 25.4004 20.0607 25.9862C20.5932 26.5188 20.6416 27.3521 20.2058 27.9393L15.166 33L20.0614 37.8941C20.6472 38.4798 20.6473 39.4295 20.0616 40.0154C19.5291 40.548 18.6957 40.5964 18.1085 40.1608L13.046 35.12L8.15057 40.0155C7.56474 40.6013 6.61499 40.6012 6.02925 40.0154C5.49676 39.4828 5.44842 38.6495 5.88418 38.0623L10.924 33L6.03023 28.1075C5.44439 27.5218 5.44431 26.5721 6.03005 25.9862C6.56254 25.4537 7.39586 25.4052 7.98312 25.8408ZM42 31.5C42.8284 31.5 43.5 32.1716 43.5 33C43.5 33.7594 42.9357 34.387 42.2035 34.4863L42 34.5L28 34.5C27.1716 34.5 26.5 33.8284 26.5 33C26.5 32.2406 27.0643 31.613 27.7965 31.5137L28 31.5L42 31.5ZM34.9092 25C36.0132 25 36.9092 25.896 36.9092 27C36.9092 28.106 36.0132 29 34.9092 29C33.8032 29 32.9092 28.106 32.9092 27C32.9092 25.896 33.8032 25 34.9092 25ZM13 4.5C13.7594 4.5 14.387 5.06431 14.4863 5.79646L14.5 6L14.5 11.5L20 11.5C20.8284 11.5 21.5 12.1716 21.5 13C21.5 13.7594 20.9357 14.387 20.2035 14.4863L20 14.5L14.5 14.5L14.5 20C14.5 20.8284 13.8284 21.5 13 21.5C12.2406 21.5 11.613 20.9357 11.5137 20.2035L11.5 20L11.5 14.5L6 14.5C5.17157 14.5 4.5 13.8284 4.5 13C4.5 12.2406 5.06431 11.613 5.79646 11.5137L6 11.5L11.5 11.5L11.5 6C11.5 5.17157 12.1716 4.5 13 4.5ZM42 11.5C42.8284 11.5 43.5 12.1716 43.5 13C43.5 13.7594 42.9357 14.387 42.2035 14.4863L42 14.5L28 14.5C27.1716 14.5 26.5 13.8284 26.5 13C26.5 12.2406 27.0643 11.613 27.7965 11.5137L28 11.5L42 11.5Z" fill="#191919" fill-rule="evenodd"/>
  <path id="形状结合" d="M34.9092 37C36.0132 37 36.9092 37.894 36.9092 39C36.9092 40.106 36.0132 41 34.9092 41C33.8032 41 32.9092 40.106 32.9092 39C32.9092 37.894 33.8032 37 34.9092 37ZM42 31.5C42.8284 31.5 43.5 32.1716 43.5 33C43.5 33.7594 42.9357 34.387 42.2035 34.4863L42 34.5L28 34.5C27.1716 34.5 26.5 33.8284 26.5 33C26.5 32.2406 27.0643 31.613 27.7965 31.5137L28 31.5L42 31.5ZM34.9092 25C36.0132 25 36.9092 25.896 36.9092 27C36.9092 28.106 36.0132 29 34.9092 29C33.8032 29 32.9092 28.106 32.9092 27C32.9092 25.896 33.8032 25 34.9092 25ZM13 4.5C13.7594 4.5 14.387 5.06431 14.4863 5.79646L14.5 6L14.5 11.5L20 11.5C20.8284 11.5 21.5 12.1716 21.5 13C21.5 13.7594 20.9357 14.387 20.2035 14.4863L20 14.5L14.5 14.5L14.5 20C14.5 20.8284 13.8284 21.5 13 21.5C12.2406 21.5 11.613 20.9357 11.5137 20.2035L11.5 20L11.5 14.5L6 14.5C5.17157 14.5 4.5 13.8284 4.5 13C4.5 12.2406 5.06431 11.613 5.79646 11.5137L6 11.5L11.5 11.5L11.5 6C11.5 5.17157 12.1716 4.5 13 4.5Z" fill="#AEAEAE" fill-rule="evenodd"/>
</svg>
