<svg viewBox="0 0 48 48" xmlns="http://www.w3.org/2000/svg" xmlns:xlink="http://www.w3.org/1999/xlink" width="48.000000" height="48.000000" fill="none">
  <path id="形状结合" d="M32.3066 36.1725C33.5382 37.8503 35.7105 38.9089 38.1173 38.9089C38.8077 38.9089 39.4828 38.8225 40.1278 38.6548C40.9295 38.4462 41.7485 38.9271 41.9571 39.7289C42.1656 40.5306 41.6847 41.3496 40.883 41.5582C39.9914 41.7901 39.0625 41.9089 38.1173 41.9089C35.4384 41.9089 32.9319 40.9475 31.1116 39.3003C29.2874 41.0013 26.7398 41.9967 24.014 41.9967C21.3793 41.9967 18.9112 41.0667 17.0986 39.4687C15.276 41.1143 12.6066 41.9179 9.93483 41.9179C8.9703 41.9179 8.02282 41.7941 7.11479 41.5529C6.31415 41.3401 5.83756 40.5186 6.05031 39.7179C6.26306 38.9173 7.08457 38.4407 7.88522 38.6535C8.54191 38.828 9.23041 38.9179 9.93483 38.9179C12.244 38.9179 14.3408 37.9439 15.5983 36.3734C15.7374 36.1996 15.9074 36.0649 16.0941 35.971C16.7607 35.4792 17.7198 35.6049 18.2116 36.2715C19.4449 37.943 21.6129 38.9967 24.014 38.9967C26.4149 38.9967 28.5829 37.9431 29.8162 36.2717C29.9105 36.1308 30.0652 35.9571 30.2098 35.8509C30.8776 35.3607 31.8164 35.5047 32.3066 36.1725ZM26 6C27.2944 6 28.3591 6.98375 28.4871 8.24439L28.5 8.5L28.4996 10.868L32 10.8699C35.1954 10.8699 37.8073 13.3677 37.9898 16.5174L38 16.8699L37.9996 23.474L39.2826 23.843C41.0491 24.3512 42.172 26.0565 41.9738 27.8548L41.9284 28.1551L40.4892 35.638C40.3328 36.4516 39.5464 36.9842 38.7329 36.8278C37.9872 36.6843 37.4775 36.0117 37.5182 35.2739L37.5432 35.0715L38.9824 27.5885C39.0465 27.2551 38.8788 26.927 38.586 26.7783L25.482 22.9945L25.4836 35.354C25.4836 36.1825 24.8121 36.854 23.9836 36.854C23.2242 36.854 22.5967 36.2897 22.4973 35.5576L22.4836 35.354L22.482 22.9845L9.54521 26.6763C9.19512 26.7773 8.9756 27.1082 9.00311 27.4559L11.1476 34.9446C11.3772 35.7406 10.9181 36.572 10.1222 36.8016C9.39252 37.0121 8.63311 36.6438 8.33474 35.9679L6.14791 28.4369C5.60255 26.5465 6.61115 24.5761 8.41948 23.8916L8.72215 23.7914L9.99963 23.426L10 16.8699C10 13.6745 12.4978 11.0626 15.6475 10.8801L16 10.8699L19.4996 10.868L19.5 8.5C19.5 7.20558 20.4838 6.14093 21.7444 6.01291L22 6L26 6ZM32 13.8699L16 13.8699C14.4406 13.8699 13.1591 15.0597 13.0137 16.581L13 16.8699L12.9996 22.57L22.9422 19.7344C23.5048 19.5739 24.0956 19.5477 24.6673 19.6557L25.0077 19.7367L34.9996 22.61L35 16.8699C35 15.3105 33.8102 14.029 32.2889 13.8836L32 13.8699ZM25.5 9L22.5 9L22.4996 10.868L25.4996 10.868L25.5 9Z" fill="#191919" fill-rule="nonzero"/>
  <path id="形状结合" d="M32.3066 36.1727C33.5382 37.8505 35.7105 38.9091 38.1173 38.9091C38.8077 38.9091 39.4828 38.8228 40.1278 38.655C40.9295 38.4464 41.7485 38.9273 41.9571 39.7291C42.1656 40.5308 41.6847 41.3498 40.883 41.5584C39.9914 41.7903 39.0625 41.9091 38.1173 41.9091C35.4384 41.9091 32.9319 40.9477 31.1116 39.3005C29.2874 41.0015 26.7398 41.9969 24.014 41.9969C21.3793 41.9969 18.9112 41.067 17.0986 39.4689C15.276 41.1145 12.6066 41.9181 9.93483 41.9181C8.9703 41.9181 8.02282 41.7944 7.11479 41.5531C6.31415 41.3403 5.83756 40.5188 6.05031 39.7182C6.26306 38.9175 7.08457 38.4409 7.88522 38.6537C8.54191 38.8282 9.23041 38.9181 9.93483 38.9181C12.244 38.9181 14.3408 37.9441 15.5983 36.3736C15.7374 36.1998 15.9074 36.0652 16.0941 35.9712C16.7607 35.4794 17.7198 35.6051 18.2116 36.2718C19.4449 37.9432 21.6129 38.9969 24.014 38.9969C26.4149 38.9969 28.5829 37.9433 29.8162 36.2719C29.9105 36.131 30.0652 35.9573 30.2098 35.8511C30.8776 35.3609 31.8164 35.5049 32.3066 36.1727Z" fill="#AEAEAE" fill-rule="nonzero"/>
</svg>
