<svg viewBox="0 0 48 48" xmlns="http://www.w3.org/2000/svg" xmlns:xlink="http://www.w3.org/1999/xlink" width="48.000000" height="48.000000" fill="none">
  <path id="减去顶层" d="M25.2662 4.05971C25.1798 4.04422 25.0908 4.03613 25 4.03613L11.078 4.03613C7.77 4.03613 5.078 6.72813 5.078 10.0361L5.078 37.9641C5.078 41.2721 7.77 43.9641 11.078 43.9641L20.9353 43.9641C20.8705 43.7442 20.836 43.5134 20.836 43.2754C20.7754 42.2532 20.8489 41.5077 21.0222 40.9641L11.078 40.9641C9.424 40.9641 8.078 39.6181 8.078 37.9641L8.078 10.0361C8.078 8.38213 9.424 7.03613 11.078 7.03613L23.498 7.03413L23.5 13.0011C23.5 15.4811 25.518 17.5011 28 17.5011L34 17.5011L34 24L37 24L37 16C37 15.423 36.6886 14.9309 36.2214 14.6794L26.0755 4.49082C26.022 4.43582 25.7937 4.27325 25.7337 4.22745C25.7061 4.21199 25.4955 4.12373 25.4683 4.11077C25.4225 4.09571 25.3138 4.06968 25.2662 4.05971ZM26.5 13.0011L26.5 9.16913L31.81 14.5011L28 14.5011C27.172 14.5011 26.5 13.8271 26.5 13.0011ZM19.5 15C20.3284 15 21 15.6716 21 16.5C21 17.2594 20.4357 17.887 19.7035 17.9863L19.5 18L12.5 18C11.6716 18 11 17.3284 11 16.5C11 15.7406 11.5643 15.113 12.2964 15.0137L12.5 15L19.5 15ZM18 22.5C18 21.6716 17.3284 21 16.5 21L12.5 21L12.2964 21.0137C11.5643 21.113 11 21.7406 11 22.5C11 23.3284 11.6716 24 12.5 24L16.5 24L16.7035 23.9863C17.4357 23.887 18 23.2594 18 22.5ZM14.5 27C15.3284 27 16 27.6716 16 28.5C16 29.2594 15.4357 29.887 14.7035 29.9863L14.5 30L12.5 30C11.6716 30 11 29.3284 11 28.5C11 27.7406 11.5643 27.113 12.2964 27.0137L12.5 27L14.5 27Z" fill="#191919" fill-rule="evenodd"/>
  <path id="矢量 1963(边框)" d="M41.0881 24.7883C40.8441 24.6872 40.5791 24.6367 40.2932 24.6367C39.903 24.6367 39.5317 24.6944 39.1792 24.8096C38.8282 24.9244 38.4959 25.0964 38.1823 25.3255C37.8669 25.5559 37.6008 25.8218 37.3841 26.1231C37.2593 26.2967 37.1509 26.482 37.0588 26.6791L21.7071 26.68C21.3998 26.68 21.1179 26.737 20.8614 26.8512C20.6064 26.9647 20.3765 27.1346 20.1717 27.361C19.9665 27.5878 19.8201 27.8339 19.7327 28.0995C19.6467 28.3603 19.6176 28.6399 19.6452 28.9381L19.6494 28.9838L19.6874 29.2198L21.4253 34.7833C21.5293 35.2141 21.6909 35.6099 21.9101 35.9707C22.1405 36.3499 22.4346 36.6905 22.7923 36.9924C23.1484 37.2929 23.5318 37.525 23.9425 37.6887C24.3498 37.8509 24.7838 37.9458 25.2447 37.9734L25.2642 37.9746L25.4759 37.9812L35.8222 37.9811L35.5525 39.0703C35.5126 39.2315 35.4411 39.3524 35.3381 39.433C35.2352 39.5136 35.1007 39.5538 34.9348 39.5538L26.9511 39.5533C26.729 39.3872 26.4938 39.2529 26.2454 39.1505C25.8465 38.9861 25.4137 38.9039 24.9471 38.9039C24.4827 38.9039 24.0518 38.9855 23.6546 39.1488C23.2395 39.3194 22.8611 39.5791 22.5193 39.9279C22.1954 40.2584 21.9508 40.6219 21.7855 41.0186C21.6132 41.432 21.527 41.8814 21.527 42.3667C21.527 42.8521 21.6133 43.3014 21.7858 43.7148C21.9511 44.1109 22.1957 44.474 22.5195 44.804C22.8599 45.151 23.2368 45.4096 23.65 45.58C24.0485 45.7442 24.4809 45.8263 24.9471 45.8263C25.3567 45.8263 25.7427 45.7608 26.1049 45.6298C26.4744 45.4962 26.8193 45.2943 27.1394 45.0244C27.4449 44.7669 27.6941 44.4759 27.8871 44.1515C27.8884 44.1493 27.8897 44.1471 27.891 44.1449L34.3531 44.1449C34.3544 44.1471 34.3558 44.1494 34.3571 44.1517C34.5498 44.4757 34.7987 44.7665 35.1036 45.0239C35.4248 45.295 35.7708 45.4975 36.1415 45.6312C36.5023 45.7613 36.8866 45.8263 37.2943 45.8263C37.7627 45.8263 38.197 45.7437 38.597 45.5783C39.0088 45.408 39.3844 45.1502 39.7237 44.8048C40.0476 44.4751 40.2922 44.1123 40.4577 43.7164C40.6307 43.3027 40.7172 42.8527 40.7172 42.3667C40.7172 41.8807 40.6308 41.4308 40.4581 41.0169C40.2926 40.6206 40.0479 40.2573 39.7239 39.9271C39.3832 39.5798 39.0061 39.321 38.5925 39.1505C38.5305 39.1249 38.4676 39.1013 38.404 39.0797L38.891 36.9339L39.3069 35.2538L39.2723 35.2538L40.7535 28.7281C40.8691 28.7032 40.9806 28.6685 41.0881 28.624C41.3318 28.5231 41.5546 28.3718 41.7566 28.1701C41.9591 27.9678 42.111 27.7445 42.2122 27.5002C42.3132 27.2565 42.3636 26.9918 42.3636 26.7061C42.3636 26.4205 42.3132 26.1558 42.2122 25.912C42.111 25.6678 41.9591 25.4445 41.7566 25.2422C41.5546 25.0405 41.3318 24.8892 41.0881 24.7883ZM36.4759 35.2538L37.8032 29.4064L22.6032 29.4072L24.0591 34.0679L24.071 34.1202C24.1067 34.2765 24.1639 34.4198 24.2427 34.5501C24.3231 34.683 24.426 34.8024 24.5513 34.9082C24.6767 35.014 24.8118 35.0956 24.9565 35.1529C25.0928 35.2068 25.2377 35.2392 25.3912 35.2499L25.5184 35.2539L36.4759 35.2538ZM25.6424 42.3919C25.6426 42.383 25.6428 42.3746 25.6428 42.3667C25.6428 42.2521 25.6213 42.1471 25.5784 42.0518C25.5433 41.9738 25.4938 41.9022 25.43 41.8371C25.3565 41.7622 25.2752 41.7077 25.1861 41.6737C25.1119 41.6453 25.0322 41.6311 24.9471 41.6311C24.8645 41.6311 24.787 41.6447 24.7146 41.6718C24.6242 41.7057 24.5417 41.7606 24.4672 41.8367C24.403 41.9022 24.3533 41.9742 24.3182 42.0527C24.2756 42.1478 24.2543 42.2525 24.2543 42.3667C24.2543 42.4806 24.2756 42.5851 24.3182 42.6799C24.3532 42.7577 24.4025 42.829 24.4662 42.8939C24.5394 42.9686 24.6204 43.0229 24.7092 43.0568C24.7831 43.085 24.8624 43.0991 24.9471 43.0991C25.1257 43.0991 25.2706 43.0558 25.3818 42.9692C25.5059 42.8726 25.588 42.7222 25.6282 42.518L25.6528 42.3931L25.6423 42.3928L25.6424 42.3919ZM36.5862 42.3661L36.6161 42.5181C36.6565 42.7234 36.739 42.8744 36.8637 42.9709C36.9741 43.0563 37.1177 43.0991 37.2943 43.0991C37.3815 43.0991 37.4629 43.0843 37.5386 43.0548C37.6261 43.0208 37.706 42.967 37.7781 42.8935C37.8415 42.829 37.8907 42.7581 37.9256 42.6807C37.9685 42.5857 37.9899 42.481 37.9899 42.3667C37.9899 42.2521 37.9685 42.1471 37.9256 42.0519C37.8905 41.9738 37.841 41.9022 37.7771 41.8371C37.7037 41.7622 37.6224 41.7077 37.5333 41.6737C37.459 41.6453 37.3793 41.6311 37.2943 41.6311C37.2293 41.6311 37.1676 41.6395 37.1089 41.6563L37.1063 41.657C37.0984 41.6594 37.0906 41.6618 37.0829 41.6643C37.0757 41.6667 37.0686 41.6692 37.0615 41.6719C36.9713 41.7057 36.8889 41.7606 36.8145 41.8365C36.7504 41.9018 36.7008 41.9737 36.6656 42.052C36.623 42.1469 36.6016 42.2514 36.6015 42.3653L36.6015 42.3661L36.5862 42.3661Z" fill="#AEAEAE" fill-rule="evenodd"/>
</svg>
