<svg viewBox="0 0 48 48" xmlns="http://www.w3.org/2000/svg" xmlns:xlink="http://www.w3.org/1999/xlink" width="48.000000" height="48.000000" fill="none">
  <path id="矩形 141" d="M10.8181 23.5958L22.1819 32.2538C23.2559 33.0721 24.7441 33.0721 25.8181 32.2538L37.1819 23.5958C39.1566 22.0912 42 23.4994 42 25.9821L42 39.4248C42 41.0817 40.6569 42.4248 39 42.4248L9 42.4248C7.34315 42.4248 6 41.0817 6 39.4248L6 25.9821C6 23.4994 8.84338 22.0912 10.8181 23.5958Z" fill="#191919" fill-rule="evenodd"/>
  <path id="合并" d="M8.03532 14.9025L20.8201 6.91201C22.7658 5.696 25.2345 5.696 27.1801 6.91201L39.9649 14.9025C40.9049 15.49 40.9049 16.859 39.9649 17.4465L37.5001 18.987L37.5001 18.4245C37.5001 16.7677 36.157 15.4245 34.5001 15.4245L13.5001 15.4245C11.8433 15.4245 10.5001 16.7677 10.5001 18.4245L10.5001 18.987L8.03532 17.4465C7.09532 16.859 7.09532 15.49 8.03532 14.9025ZM29.302 18.0498L18.698 18.0498C18.068 18.0498 17.573 18.5448 17.573 19.1748C17.573 19.8048 18.068 20.2998 18.698 20.2998L29.302 20.2998C29.932 20.2998 30.427 19.8048 30.427 19.1748C30.427 18.5448 29.932 18.0498 29.302 18.0498ZM29.302 21.7998L18.698 21.7998C18.068 21.7998 17.573 22.2948 17.573 22.9248C17.573 23.5548 18.068 24.0498 18.698 24.0498L29.302 24.0498C29.932 24.0498 30.427 23.5548 30.427 22.9248C30.427 22.2948 29.932 21.7998 29.302 21.7998ZM18.6987 25.5498L29.3027 25.5498C29.9328 25.5498 30.4277 26.0448 30.4277 26.6748C30.4277 27.3048 29.9328 27.7998 29.3027 27.7998L18.6987 27.7998C18.0687 27.7998 17.5737 27.3048 17.5737 26.6748C17.5737 26.0448 18.0687 25.5498 18.6987 25.5498Z" fill="#AEAEAE" fill-rule="evenodd"/>
</svg>
