<svg viewBox="0 0 48 48" xmlns="http://www.w3.org/2000/svg" xmlns:xlink="http://www.w3.org/1999/xlink" width="48.000000" height="48.000000" fill="none">
  <path id="形状结合" d="M24.1163 10.5C27.1248 10.5 29.5626 12.7862 29.5626 15.6041C29.5626 18.7928 28.6728 21.0799 27.3106 22.4031L27.0498 22.6398L33.0798 26.228C34.2732 26.9379 35.1714 28.0052 35.6323 29.2509L35.7573 29.6297L36.6493 34.6454C37.0448 36.0062 36.0294 37.3507 34.5682 37.4884L34.3207 37.5L13.9134 37.5C12.4072 37.5 11.2903 36.2272 11.5333 34.8718L11.5865 34.6454L12.4785 29.6297C12.8506 28.3502 13.6727 27.2311 14.8066 26.4515L15.156 26.228L21.3132 22.565C19.6891 21.1529 18.6732 18.6009 18.6732 15.6041C18.6732 12.7862 21.111 10.5 24.1163 10.5ZM32.4993 11.691C35.123 11.691 37.2472 13.8655 37.2472 16.5461C37.2472 19.5779 36.4703 21.753 35.284 23.0113L35.0569 23.2364L40.313 26.6484C41.3443 27.3175 42.1221 28.3198 42.5276 29.489L42.6488 29.8847L43.4244 34.7498C43.7687 36.036 42.8962 37.3063 41.6363 37.4512L41.3957 37.465L38.2908 37.4661C38.6852 36.5893 38.8111 35.6071 38.6448 34.638L38.5556 34.2237L37.7575 29.1955C37.2785 27.3438 36.2142 25.7395 34.7404 24.6265L34.3635 24.3586L31.0338 22.136C31.8085 20.5079 32.2865 18.3913 32.2865 15.7371C32.2865 14.3311 31.8736 13.013 31.1742 11.8835C31.5934 11.7581 32.0387 11.691 32.4993 11.691ZM15.5007 11.691C16.0527 11.691 16.5826 11.7873 17.0725 11.965C16.461 13.0763 16.1107 14.3647 16.1107 15.7371C16.1107 18.1701 16.5104 20.1514 17.1737 21.7188L17.3611 22.136L13.6365 24.3586L13.2596 24.6265C11.9086 25.6467 10.9017 27.0798 10.3743 28.7379L10.2425 29.1955L9.44441 34.2237L9.35518 34.638C9.21263 35.4687 9.28476 36.309 9.55664 37.0842L9.70916 37.4661L6.60431 37.465L6.36373 37.4512C5.1825 37.3153 4.34189 36.1904 4.5251 34.9905L4.5756 34.7498L5.35124 29.8847L5.47245 29.489C5.83287 28.4497 6.48748 27.5423 7.35278 26.8836L7.68698 26.6484L12.9431 23.2364L12.716 23.0113C11.5297 21.753 10.7528 19.5779 10.7528 16.5461C10.7528 13.8655 12.877 11.691 15.5007 11.691Z" fill="#191919" fill-rule="evenodd"/>
</svg>
