<svg viewBox="0 0 48 48" xmlns="http://www.w3.org/2000/svg" xmlns:xlink="http://www.w3.org/1999/xlink" width="48.000000" height="48.000000" fill="none">
  <path id="减去顶层" d="M19.0883 4.2465L2.55762 17.8157C1.90692 18.3499 1.81274 19.2844 2.34357 19.9387C2.87441 20.594 3.80276 20.6887 4.45346 20.1545L4.5 20.1165L4.5 37.0001C4.5 37.5518 4.55797 38.0909 4.67391 38.6172C4.77152 39.0606 4.91022 39.4952 5.09 39.92C5.27043 40.3467 5.4861 40.75 5.737 41.1299C6.01396 41.5489 6.33386 41.9405 6.6967 42.3037C7.05957 42.666 7.45079 42.9863 7.87035 43.2627C8.25038 43.5137 8.65366 43.7295 9.0802 43.9102C9.50529 44.0898 9.93944 44.2285 10.3826 44.3262C10.909 44.4424 11.4481 44.5 12 44.5L26.1258 44.5C25.1905 43.6259 24.3844 42.6154 23.7392 41.5L12 41.5C11.6508 41.5 11.3105 41.4619 10.9791 41.3848C10.7307 41.3272 10.4873 41.2481 10.2489 41.1475C10.0019 41.043 9.76786 40.918 9.5467 40.7745C9.28587 40.6045 9.04298 40.4073 8.81802 40.1817C8.59307 39.9571 8.39565 39.7139 8.22577 39.4532C8.08172 39.2325 7.95747 38.9981 7.85302 38.751C7.75218 38.5128 7.67295 38.2696 7.61532 38.0206C7.53844 37.6895 7.5 37.3497 7.5 37.0001L7.5 17.6536L20.9842 6.58437C21.1097 6.48183 21.2426 6.39199 21.3827 6.31679C21.4911 6.2582 21.6038 6.20742 21.7209 6.16543C21.8426 6.12148 21.9662 6.0873 22.0916 6.06289C22.2362 6.03554 22.3833 6.0209 22.5328 6.01894C22.6823 6.01699 22.8297 6.02773 22.9749 6.05215C23.101 6.07363 23.2253 6.1039 23.3481 6.14492C23.4662 6.18398 23.5801 6.23183 23.6899 6.2875C23.8319 6.35976 23.9669 6.4457 24.095 6.54531L38.5141 17.7903C38.5048 17.8587 38.5 17.929 38.5 18.0003L38.5 22.4766C39.5609 22.7725 40.5671 23.1995 41.5 23.7392L41.5 20.1184L41.576 20.178C42.2397 20.6956 43.1654 20.5774 43.6798 19.9094C44.1943 19.2415 44.0769 18.3098 43.4131 17.7923L25.9322 4.15959C25.6683 3.95451 25.3906 3.77483 25.0991 3.62248C24.8396 3.48674 24.5692 3.37249 24.2879 3.27874C24.0065 3.18596 23.7213 3.11565 23.4324 3.06878C23.1243 3.01995 22.8119 2.99651 22.4953 3.00042C22.1828 3.00433 21.875 3.0346 21.572 3.09026L21.5602 3.09319C21.2726 3.14593 20.9892 3.22307 20.7102 3.32366C20.4313 3.42424 20.1638 3.54534 19.9078 3.68791C19.6202 3.84807 19.347 4.03361 19.0883 4.2465ZM34.0197 22.0364C33.8823 22.0122 33.7425 22.0004 33.6 22.0004L30.4 22.0004C30.2311 22.0004 30.0657 22.017 29.904 22.0512L29.9039 22.0512C29.7547 22.0834 29.6085 22.1293 29.4654 22.1899C29.325 22.2494 29.1926 22.3198 29.0681 22.4037C28.9377 22.4907 28.816 22.5903 28.7029 22.7035C28.5899 22.8168 28.4899 22.9379 28.4029 23.0688C28.3198 23.1928 28.2486 23.3256 28.1892 23.4662C28.1287 23.6088 28.0827 23.7553 28.0512 23.9047C28.0427 23.9446 28.0354 23.9847 28.029 24.0251C29.7846 22.9077 31.8263 22.1999 34.0197 22.0364ZM27 24.7523L27 24.4008C27 24.2319 26.9829 24.0658 26.9488 23.9047C26.9173 23.7553 26.8713 23.6088 26.8108 23.4662C26.7514 23.3256 26.6802 23.1928 26.5971 23.0688C26.5101 22.9379 26.4101 22.8168 26.2971 22.7035C26.184 22.5903 26.0623 22.4907 25.9319 22.4037C25.8074 22.3198 25.675 22.2494 25.5346 22.1899C25.3915 22.1293 25.2453 22.0834 25.0961 22.0512C24.9343 22.017 24.769 22.0004 24.6 22.0004L21.4 22.0004C21.231 22.0004 21.0657 22.017 20.9039 22.0512C20.7547 22.0834 20.6085 22.1293 20.4654 22.1899C20.325 22.2494 20.1926 22.3198 20.0681 22.4037C19.9377 22.4907 19.816 22.5903 19.7029 22.7035C19.5899 22.8168 19.4899 22.9379 19.4029 23.0688C19.3198 23.1928 19.2486 23.3256 19.1892 23.4662C19.1287 23.6088 19.0827 23.7553 19.0512 23.9047C19.0171 24.0658 19 24.2319 19 24.4008L19 27.6C19 27.769 19.0171 27.935 19.0512 28.0961C19.0827 28.2455 19.1287 28.392 19.1892 28.5346C19.2486 28.6752 19.3198 28.808 19.4029 28.9321C19.4899 29.0629 19.5899 29.184 19.7029 29.2973C19.816 29.4106 19.9377 29.5102 20.0681 29.5971C20.1926 29.6811 20.325 29.7514 20.4654 29.811C20.6085 29.8715 20.7547 29.9174 20.9039 29.9496C21.0657 29.9838 21.231 30.0004 21.4 30.0004L22.9962 30.0004C23.8623 27.9233 25.2518 26.119 27 24.7523ZM22.6269 31.0004L21.4 31.0004C21.231 31.0004 21.0657 31.017 20.9039 31.0512C20.7547 31.0834 20.6085 31.1293 20.4654 31.1899C20.325 31.2494 20.1926 31.3198 20.0681 31.4037C19.9377 31.4907 19.816 31.5903 19.7029 31.7035C19.5899 31.8168 19.4899 31.9379 19.4029 32.0688C19.3198 32.1928 19.2486 32.3256 19.1892 32.4662C19.1288 32.6088 19.0828 32.7543 19.0514 32.9037L19.0512 32.9037L19.0512 32.9047C19.0171 33.0658 19 33.2319 19 33.4008L19 36.6C19 36.769 19.017 36.934 19.051 37.0951L19.0512 37.0961C19.0827 37.2455 19.1287 37.392 19.1892 37.5346C19.2486 37.6752 19.3198 37.808 19.4029 37.9321C19.4899 38.0629 19.5899 38.184 19.7029 38.2973C19.816 38.4106 19.9377 38.5102 20.0681 38.5971C20.1926 38.6811 20.325 38.7514 20.4654 38.811C20.6085 38.8715 20.7547 38.9174 20.9039 38.9496C21.0657 38.9838 21.231 39.0004 21.4 39.0004L22.6271 39.0004C22.3182 38.0441 22.117 37.0393 22.0379 36.0004L22 36.0004L22 34.0004L22.0379 34.0004C22.1169 32.9615 22.318 31.9567 22.6269 31.0004ZM26.9488 19.0961C26.9829 18.935 27 18.769 27 18.6L27 15.4008C27 15.2319 26.9829 15.0658 26.9488 14.9047C26.9173 14.7553 26.8713 14.6088 26.8108 14.4662C26.7514 14.3256 26.6802 14.1928 26.5971 14.0688C26.5101 13.9379 26.4101 13.8168 26.2971 13.7035C26.184 13.5903 26.0623 13.4907 25.9319 13.4037C25.8074 13.3198 25.675 13.2494 25.5346 13.1899C25.3915 13.1293 25.2453 13.0834 25.0961 13.0512C24.9343 13.017 24.769 13.0004 24.6 13.0004L21.4 13.0004C21.231 13.0004 21.0657 13.017 20.9039 13.0512C20.7547 13.0834 20.6085 13.1293 20.4654 13.1899C20.325 13.2494 20.1926 13.3198 20.0681 13.4037C19.9377 13.4907 19.816 13.5903 19.7029 13.7035C19.5899 13.8168 19.4899 13.9379 19.4029 14.0688C19.3198 14.1928 19.2486 14.3256 19.1892 14.4662C19.1287 14.6088 19.0827 14.7553 19.0512 14.9047C19.0171 15.0658 19 15.2319 19 15.4008L19 18.6C19 18.769 19.0171 18.935 19.0512 19.0961C19.0827 19.2455 19.1287 19.392 19.1892 19.5346C19.2486 19.6752 19.3198 19.808 19.4029 19.9321C19.4899 20.0629 19.5899 20.184 19.7029 20.2973C19.816 20.4106 19.9377 20.5102 20.0681 20.5971C20.1926 20.6811 20.325 20.7514 20.4654 20.811C20.6085 20.8715 20.7547 20.9174 20.9039 20.9496C21.0657 20.9838 21.231 21.0004 21.4 21.0004L24.6 21.0004C24.769 21.0004 24.9343 20.9838 25.0961 20.9496C25.2453 20.9174 25.3915 20.8715 25.5346 20.811C25.675 20.7514 25.8074 20.6811 25.9319 20.5971C26.0623 20.5102 26.184 20.4106 26.2971 20.2973C26.4101 20.184 26.5101 20.0629 26.5972 19.9321C26.6802 19.808 26.7514 19.6752 26.8108 19.5346C26.8713 19.392 26.9173 19.2455 26.9488 19.0961ZM24 18.0004L24 16.0004L22 16.0004L22 18.0004L24 18.0004ZM17.9488 28.0961C17.9829 27.935 18 27.769 18 27.6L18 24.4008C18 24.2319 17.9829 24.0658 17.9488 23.9047C17.9173 23.7553 17.8713 23.6088 17.8108 23.4662C17.7514 23.3256 17.6802 23.1928 17.5971 23.0688C17.5101 22.9379 17.4101 22.8168 17.2971 22.7035C17.184 22.5903 17.0623 22.4907 16.9319 22.4037C16.8074 22.3198 16.675 22.2494 16.5346 22.1899C16.3915 22.1293 16.2453 22.0834 16.0961 22.0512L16.0956 22.0512C15.934 22.017 15.7688 22.0004 15.6 22.0004L12.4 22.0004C12.2312 22.0004 12.0661 22.017 11.9045 22.0512L11.9039 22.0512C11.7547 22.0834 11.6085 22.1293 11.4654 22.1899C11.325 22.2494 11.1926 22.3198 11.0681 22.4037C10.9377 22.4907 10.816 22.5903 10.7029 22.7035C10.5899 22.8168 10.4899 22.9379 10.4029 23.0688C10.3198 23.1928 10.2486 23.3256 10.1892 23.4662C10.1287 23.6088 10.0827 23.7553 10.0512 23.9047C10.0171 24.0658 10 24.2319 10 24.4008L10 27.6C10 27.769 10.0171 27.935 10.0512 28.0961C10.0827 28.2455 10.1287 28.392 10.1892 28.5346C10.2486 28.6752 10.3198 28.808 10.4029 28.9321C10.4899 29.0629 10.5899 29.184 10.7029 29.2973C10.816 29.4106 10.9377 29.5102 11.0681 29.5971C11.1926 29.6811 11.325 29.7514 11.4654 29.811C11.6085 29.8715 11.7547 29.9174 11.9039 29.9496L11.904 29.9496C12.0657 29.9838 12.2311 30.0004 12.4 30.0004L15.6 30.0004C15.769 30.0004 15.9343 29.9838 16.0961 29.9496C16.2453 29.9174 16.3915 29.8715 16.5346 29.811C16.675 29.7514 16.8074 29.6811 16.9319 29.5971C17.0623 29.5102 17.184 29.4106 17.2971 29.2973C17.4101 29.184 17.5101 29.0629 17.5972 28.9321C17.6802 28.808 17.7514 28.6752 17.8108 28.5346C17.8713 28.392 17.9173 28.2455 17.9488 28.0961ZM15 27.0004L15 25.0004L13 25.0004L13 27.0004L15 27.0004ZM24 27.0004L24 25.0004L22 25.0004L22 27.0004L24 27.0004ZM17.9488 37.0961C17.9829 36.935 18 36.769 18 36.6L18 33.4008C18 33.2319 17.9829 33.0658 17.9488 32.9047C17.9173 32.7553 17.8713 32.6088 17.8108 32.4662C17.7514 32.3256 17.6802 32.1928 17.5971 32.0688C17.5101 31.9379 17.4101 31.8168 17.2971 31.7035C17.184 31.5903 17.0623 31.4907 16.9319 31.4037C16.8074 31.3198 16.675 31.2494 16.5346 31.1899C16.3915 31.1293 16.2453 31.0834 16.0961 31.0512C15.9343 31.017 15.769 31.0004 15.6 31.0004L12.4 31.0004C12.2312 31.0004 12.0661 31.017 11.9045 31.0512L11.9039 31.0512C11.7547 31.0834 11.6085 31.1293 11.4654 31.1899C11.325 31.2494 11.1926 31.3198 11.0681 31.4037C10.9377 31.4907 10.816 31.5903 10.7029 31.7035C10.5899 31.8168 10.4899 31.9379 10.4029 32.0688C10.3198 32.1928 10.2486 32.3256 10.1892 32.4662C10.1287 32.6088 10.0827 32.7553 10.0512 32.9037L10.0512 32.9047C10.0171 33.0658 10 33.2319 10 33.4008L10 36.6C10 36.769 10.0171 36.935 10.0512 37.0961C10.0827 37.2455 10.1287 37.392 10.1892 37.5346C10.2486 37.6752 10.3198 37.808 10.4029 37.9321C10.4899 38.0629 10.5899 38.184 10.7029 38.2973C10.816 38.4106 10.9377 38.5102 11.0681 38.5971C11.1926 38.6811 11.325 38.7514 11.4654 38.811C11.6085 38.8715 11.7547 38.9174 11.9039 38.9496L11.904 38.9496C12.0657 38.9838 12.2311 39.0004 12.4 39.0004L15.6 39.0004C15.769 39.0004 15.9343 38.9838 16.0961 38.9496C16.2453 38.9174 16.3915 38.8715 16.5346 38.811C16.675 38.7514 16.8074 38.6811 16.9319 38.5971C17.0623 38.5102 17.184 38.4106 17.2971 38.2973C17.4101 38.184 17.5101 38.0629 17.5972 37.9321C17.6802 37.808 17.7514 37.6752 17.8108 37.5346C17.8713 37.392 17.9173 37.2455 17.9488 37.0961ZM15 36.0004L15 34.0004L13 34.0004L13 36.0004L15 36.0004Z" fill="#191919" fill-rule="evenodd"/>
  <path id="合并" d="M35 24C41.0751 24 46 28.9249 46 35C46 41.0751 41.0751 46 35 46C28.9249 46 24 41.0751 24 35C24 28.9249 28.9249 24 35 24ZM26.64 35C26.64 30.3829 30.3829 26.64 35 26.64C39.6171 26.64 43.36 30.3829 43.36 35C43.36 39.6171 39.6171 43.36 35 43.36C30.3829 43.36 26.64 39.6171 26.64 35ZM34.829 33.5018L35.7958 32.607C36.4123 32.0364 36.4483 31.1037 35.8777 30.4872C35.3072 29.8707 34.3745 29.8347 33.758 30.4053L29.9812 33.901C29.9741 33.9076 29.967 33.9142 29.9601 33.9209C29.9531 33.9276 29.9462 33.9343 29.9394 33.9411C29.9328 33.9477 29.9263 33.9544 29.9198 33.9611C29.9129 33.9683 29.906 33.9756 29.8992 33.9829C29.7585 34.1349 29.655 34.3007 29.5887 34.4801C29.5223 34.6596 29.4932 34.8528 29.5012 35.0598C29.5092 35.2667 29.5532 35.4571 29.6332 35.6309C29.7132 35.8047 29.8292 35.962 29.9812 36.1027L33.758 39.5984C34.3745 40.169 35.3072 40.1329 35.8777 39.5164C36.4483 38.9 36.4123 37.9673 35.7958 37.3967L34.829 36.5018L39.4981 36.5018C40.3381 36.5018 40.9981 35.8418 40.9981 35.0018C40.9981 34.1618 40.3381 33.5018 39.4981 33.5018L34.829 33.5018Z" fill="#AEAEAE" fill-rule="evenodd"/>
</svg>
