<svg viewBox="0 0 48 48" xmlns="http://www.w3.org/2000/svg" xmlns:xlink="http://www.w3.org/1999/xlink" width="48.000000" height="48.000000" fill="none">
  <path id="形状结合" d="M37.7655 40.41C38.5935 40.41 39.2655 41.082 39.2655 41.91C39.2655 42.738 38.5935 43.41 37.7655 43.41L10.2335 43.41C9.40546 43.41 8.73346 42.738 8.73346 41.91C8.73346 41.082 9.40546 40.41 10.2335 40.41L37.7655 40.41ZM25.3657 5.39283L31.8857 19.7928L41.9717 10.1908C42.4397 9.74683 43.1417 9.64883 43.7097 9.95283C44.2797 10.2548 44.5917 10.8888 44.4857 11.5248L40.5557 35.0368C40.2637 36.7828 38.7657 38.0528 36.9937 38.0528L11.0057 38.0528C9.23366 38.0528 7.73566 36.7828 7.44366 35.0348L3.51366 11.5248C3.40766 10.8888 3.71966 10.2548 4.29166 9.95283C4.85766 9.64683 5.55966 9.74483 6.02766 10.1908L16.1137 19.7928L22.6337 5.39283C23.1177 4.32283 24.8817 4.32283 25.3657 5.39283Z" fill="#191919" fill-rule="evenodd"/>
  <path id="形状结合" d="M37.7664 40.4099C38.5944 40.4099 39.2664 41.0819 39.2664 41.9099C39.2664 42.7379 38.5944 43.4099 37.7664 43.4099L10.2344 43.4099C9.40637 43.4099 8.73438 42.7379 8.73438 41.9099C8.73438 41.0819 9.40637 40.4099 10.2344 40.4099L37.7664 40.4099Z" fill="#AEAEAE" fill-rule="evenodd"/>
</svg>
