<svg viewBox="0 0 48 48" xmlns="http://www.w3.org/2000/svg" xmlns:xlink="http://www.w3.org/1999/xlink" width="48.000000" height="48.000000" fill="none">
  <path id="矢量 1957" d="M33.84 6.3999C33.5867 5.69971 33.1533 5.12646 32.54 4.67969C31.9333 4.22656 31.2466 4 30.48 4L17.52 4C16.7534 4 16.0667 4.22656 15.46 4.67969C14.8467 5.12646 14.4133 5.69971 14.16 6.3999L12.48 6.3999C11.3267 6.3999 10.2534 6.69678 9.26001 7.29004C8.27335 7.8833 7.48334 8.68311 6.89001 9.68994C6.29669 10.6968 6 11.7764 6 12.9297L6 37.96C6 39.1064 6.29669 40.1768 6.89001 41.1699C7.48334 42.1631 8.27335 42.9565 9.26001 43.5498C10.2534 44.1436 11.3267 44.4399 12.48 44.4399L21.2255 44.4399C21.3553 43.9082 21.5414 43.3877 21.7834 42.8789C21.9183 42.5957 22.068 42.3213 22.2324 42.0562C22.3589 41.8521 22.4941 41.6533 22.6381 41.46L12.48 41.46C11.52 41.46 10.7034 41.1167 10.03 40.4297Q9.52199 39.9117 9.26949 39.2899Q9.02002 38.6756 9.02002 37.96L9.02002 12.9297Q9.02002 12.2141 9.26949 11.5997Q9.52199 10.9779 10.03 10.46C10.7034 9.77344 11.52 9.42969 12.48 9.42969L14.02 9.42969L14.02 10.9199C14.02 11.8467 14.3633 12.6602 15.05 13.3604C15.7367 14.0669 16.56 14.4199 17.52 14.4199L30.48 14.4199C31.44 14.4199 32.2633 14.0669 32.95 13.3604C33.6367 12.6602 33.98 11.8467 33.98 10.9199L33.98 9.42969L35.52 9.42969C36.4467 9.42969 37.2633 9.77344 37.97 10.46C38.67 11.1465 39.02 11.9697 39.02 12.9297L39.02 19.8413C39.542 20.0703 40.0374 20.3398 40.5063 20.6494C41.0384 21.0005 41.5363 21.4038 42 21.8584L42 12.9297C42 11.7764 41.7033 10.6968 41.11 9.68994C40.5167 8.68311 39.7267 7.8833 38.74 7.29004C37.7466 6.69678 36.6733 6.3999 35.52 6.3999L33.84 6.3999ZM16.99 7.50977C16.99 7.3501 17.04 7.22021 17.14 7.12012C17.2333 7.02686 17.36 6.97998 17.52 6.97998L30.48 6.97998C30.64 6.97998 30.7667 7.02686 30.86 7.12012C30.96 7.22021 31.01 7.3501 31.01 7.50977L31.01 10.9199C31.01 11.0464 30.96 11.1567 30.86 11.25C30.7667 11.3501 30.64 11.3999 30.48 11.3999L17.52 11.3999C17.1667 11.3999 16.99 11.2397 16.99 10.9199L16.99 7.50977ZM18 22C18 20.8955 17.1046 20 16 20C14.8954 20 14 20.8955 14 22C14 23.1045 14.8954 24 16 24C17.1046 24 18 23.1045 18 22ZM29.4937 20.6494C29.5707 20.5986 29.6485 20.5488 29.727 20.5L22.4957 20.5L22.2922 20.5137C21.56 20.6128 20.9957 21.2407 20.9957 22C20.9957 22.7593 21.56 23.3872 22.2922 23.4863L22.4957 23.5L26.6451 23.5C26.6465 23.498 26.6479 23.4956 26.6493 23.4937C27.0186 22.9341 27.4452 22.4126 27.9289 21.9287C28.4127 21.4453 28.9343 21.0186 29.4937 20.6494ZM18 30.0098C18 28.9053 17.1046 28.0098 16 28.0098C14.8954 28.0098 14 28.9053 14 30.0098C14 31.1143 14.8954 32.0098 16 32.0098C17.1046 32.0098 18 31.1143 18 30.0098ZM25 29C25 28.8354 25.0038 28.6724 25.0116 28.5098L22.4957 28.5098L22.2922 28.5234C21.56 28.6226 20.9957 29.2505 20.9957 30.0098C20.9957 30.769 21.56 31.3965 22.2922 31.4961L22.4957 31.5098L25.3165 31.5098C25.2861 31.3926 25.2579 31.2749 25.2319 31.1567C25.0773 30.4546 25 29.7358 25 29ZM42 37.0024C41.8389 37.1235 41.6743 37.2397 41.5064 37.3506C41.3332 37.4648 41.1564 37.5737 40.976 37.6772C41.3214 37.6924 41.6627 37.7241 42 37.7729L42 37.0024Z" fill="#191919" fill-rule="evenodd"/>
  <path id="合并(边框)" d="M28.1739 27.8825C28.058 28.4089 28 28.9481 28 29.5C28 30.0519 28.058 30.591 28.1739 31.1174C28.2715 31.5606 28.4102 31.9947 28.59 32.4198C28.7704 32.8464 28.9861 33.2497 29.237 33.6297C29.514 34.0493 29.8339 34.4405 30.1967 34.8033C30.5595 35.1661 30.9507 35.486 31.3702 35.763C31.5001 35.8487 31.6327 35.9303 31.768 36.0078C31.2741 36.0296 30.7912 36.0969 30.319 36.2097C30.0106 36.2833 29.7068 36.3764 29.4076 36.4889C28.8104 36.7134 28.2602 37.0042 27.757 37.3612C27.5468 37.5103 27.3448 37.6711 27.151 37.8433C26.6629 38.2771 26.254 38.76 25.9243 39.2919C25.801 39.4909 25.6887 39.6966 25.5876 39.9093C25.3746 40.3568 25.2196 40.8162 25.1224 41.2876C25.0408 41.6833 25 42.0874 25 42.5L25 43.6667C25 43.8306 25.0165 43.9911 25.0496 44.1481C25.0802 44.2935 25.125 44.4359 25.184 44.5754C25.2418 44.712 25.3111 44.8408 25.392 44.962C25.4765 45.0886 25.5737 45.2068 25.6834 45.3166C25.7932 45.4263 25.9114 45.5235 26.038 45.608C26.1592 45.6889 26.288 45.7582 26.4246 45.816C26.5641 45.875 26.7065 45.9198 26.8519 45.9504C27.0089 45.9835 27.1694 46 27.3333 46L43.6667 46C43.8306 46 43.9911 45.9835 44.1481 45.9504C44.2935 45.9198 44.4359 45.875 44.5754 45.816C44.7119 45.7583 44.8408 45.6889 44.9619 45.6081C45.0886 45.5235 45.2068 45.4264 45.3166 45.3166C45.4264 45.2068 45.5235 45.0886 45.608 44.962C45.6889 44.8408 45.7582 44.712 45.816 44.5754C45.875 44.4359 45.9198 44.2935 45.9504 44.1481C45.9835 43.9911 46 43.8306 46 43.6667L46 42.5C46 42.0874 45.9592 41.6832 45.8776 41.2875C45.7804 40.8161 45.6254 40.3567 45.4124 39.9093C45.3113 39.6966 45.199 39.4908 45.0757 39.2919C44.746 38.76 44.3371 38.2771 43.849 37.8433C43.6553 37.6711 43.4533 37.5104 43.2431 37.3613C42.7399 37.0042 42.1896 36.7134 41.5924 36.4889C41.2933 36.3764 40.9895 36.2834 40.6812 36.2097C40.209 36.0969 39.7259 36.0296 39.232 36.0078C39.3673 35.9303 39.4999 35.8487 39.6298 35.763C40.0493 35.486 40.4405 35.1661 40.8033 34.8033C41.1661 34.4405 41.486 34.0493 41.763 33.6298C42.0139 33.2497 42.2296 32.8464 42.41 32.4198C42.5898 31.9947 42.7285 31.5606 42.8261 31.1175C42.942 30.5911 43 30.0519 43 29.5C43 28.9481 42.942 28.4089 42.8261 27.8825C42.7285 27.4394 42.5898 27.0053 42.41 26.5802C42.2296 26.1536 42.0139 25.7503 41.763 25.3702C41.486 24.9507 41.1661 24.5595 40.8033 24.1967C40.4405 23.8339 40.0493 23.514 39.6297 23.237C39.2497 22.9861 38.8464 22.7704 38.4198 22.59C37.9947 22.4102 37.5606 22.2715 37.1175 22.1739C36.5911 22.058 36.0519 22 35.5 22C34.9481 22 34.4089 22.058 33.8826 22.1739C33.4394 22.2715 33.0053 22.4102 32.5802 22.59C32.1536 22.7704 31.7503 22.9861 31.3703 23.237C30.9507 23.5139 30.5595 23.8339 30.1967 24.1967C29.8339 24.5595 29.514 24.9507 29.237 25.3703C28.9861 25.7503 28.7704 26.1536 28.59 26.5802C28.4102 27.0053 28.2715 27.4394 28.1739 27.8825ZM31.1153 30.5209C31.0384 30.1895 31 29.8492 31 29.5C31 29.1508 31.0384 28.8105 31.1153 28.4791C31.173 28.2307 31.2522 27.9873 31.353 27.7489C31.4575 27.5019 31.5817 27.2678 31.7258 27.0467C31.8957 26.7858 32.0931 26.543 32.318 26.318C32.543 26.0931 32.7859 25.8957 33.0467 25.7258C33.2678 25.5817 33.5019 25.4575 33.7489 25.353C33.9873 25.2522 34.2307 25.1729 34.4791 25.1153C34.8105 25.0384 35.1508 25 35.5 25C35.8492 25 36.1895 25.0384 36.5209 25.1153C36.7693 25.1729 37.0127 25.2522 37.2511 25.353C37.4981 25.4575 37.7322 25.5817 37.9533 25.7258C38.2141 25.8957 38.457 26.0931 38.682 26.318C38.9069 26.5429 39.1043 26.7858 39.2742 27.0466C39.4182 27.2678 39.5425 27.5019 39.647 27.7489C39.7478 27.9873 39.8271 28.2307 39.8847 28.4791C39.9616 28.8105 40 29.1508 40 29.5C40 29.8492 39.9616 30.1895 39.8847 30.5209C39.8271 30.7693 39.7478 31.0127 39.647 31.2511C39.5425 31.4981 39.4183 31.7322 39.2742 31.9534C39.1043 32.2142 38.9069 32.4571 38.682 32.682C38.4571 32.9069 38.2142 33.1043 37.9534 33.2742C37.7322 33.4182 37.4981 33.5425 37.2511 33.647C37.0127 33.7478 36.7693 33.8271 36.5208 33.8847C36.1895 33.9616 35.8492 34 35.5 34C35.1508 34 34.8105 33.9616 34.4791 33.8847C34.2307 33.8271 33.9873 33.7478 33.7489 33.647C33.5019 33.5425 33.2678 33.4182 33.0466 33.2742C32.7858 33.1043 32.5429 32.9069 32.318 32.682C32.0931 32.457 31.8957 32.2142 31.7258 31.9534C31.5817 31.7322 31.4575 31.4981 31.353 31.2511C31.2522 31.0127 31.1729 30.7693 31.1153 30.5209ZM28 43L43 43L43 42.5C43 42.313 42.9831 42.1292 42.9493 41.9485C42.9014 41.6921 42.8195 41.442 42.7035 41.1983C42.6865 41.1625 42.6689 41.1271 42.6506 41.0921C42.4567 40.7196 42.1918 40.3841 41.8559 40.0856C41.7981 40.0342 41.7389 39.9845 41.6784 39.9366C41.3406 39.6693 40.96 39.4561 40.5367 39.297C40.4062 39.2479 40.274 39.2049 40.1402 39.168C39.7339 39.056 39.3122 39 38.875 39L32.125 39C31.6879 39 31.2662 39.056 30.86 39.168C30.7261 39.2049 30.5939 39.2479 30.4634 39.297C30.04 39.4561 29.6595 39.6693 29.3217 39.9366C29.2611 39.9845 29.2019 40.0342 29.1441 40.0856C28.8081 40.3842 28.5432 40.7197 28.3493 41.0923C28.3311 41.1273 28.3135 41.1626 28.2965 41.1983C28.1805 41.442 28.0986 41.6921 28.0507 41.9485C28.0169 42.1292 28 42.313 28 42.5L28 43Z" fill="#AEAEAE" fill-rule="evenodd"/>
</svg>
