<svg viewBox="0 0 48 48" xmlns="http://www.w3.org/2000/svg" xmlns:xlink="http://www.w3.org/1999/xlink" width="48.000000" height="48.000000" fill="none">
  <path id="合并" d="M25.1969 20.197C25.1573 20.2198 25.1192 20.2442 25.0825 20.2699L21.4391 22.3649L5.22485 13.003C5.59885 12.621 6.02485 12.283 6.49885 12.007L18.4409 5.115C20.2889 4.045 22.5909 4.045 24.4409 5.115L36.3809 12.013C36.8549 12.287 37.2789 12.623 37.6529 13.005L25.1969 20.197ZM3.726 15.6021L19.94 24.9641L19.94 43.688C19.42 43.5541 18.914 43.356 18.44 43.0801L6.5 36.188C4.648 35.1181 3.5 33.128 3.5 30.9921L3.5 17.2041C3.5 16.6541 3.58 16.118 3.726 15.6021ZM26.5536 22.8678C26.6017 22.8463 26.6492 22.8222 26.6959 22.7953L30.7888 20.4325L31.0759 20.2667L39.1539 15.6033C39.2979 16.1213 39.3799 16.6593 39.3799 17.2093L39.3799 22.197C38.1501 21.7464 36.8229 21.5003 35.4399 21.5003C29.0836 21.5003 23.9399 26.6648 23.9399 33.0003C23.9399 36.2731 25.3036 39.2245 27.4943 41.3177L24.4399 43.0813C23.9639 43.3553 23.4579 43.5533 22.9399 43.6873L22.9399 24.9457L26.5536 22.8678ZM16.9947 27.0831L10.4767 23.1721C10.1494 22.9757 9.73162 23.2037 9.71968 23.5852L9.64505 25.9712C9.63939 26.1523 9.73472 26.3183 9.88755 26.4155L16.4055 30.3265C16.7328 30.5229 17.1506 30.2949 17.1625 29.9134L17.2372 27.5275C17.2428 27.3463 17.1475 27.1804 16.9947 27.0831ZM35.5 24C30.5294 24 26.5 28.0293 26.5 33C26.5 37.9705 30.5294 42 35.5 42C40.4706 42 44.5 37.9705 44.5 33C44.5 28.0293 40.4706 24 35.5 24ZM36 29.5L36 32.7383L39.4026 35.3018C40.0735 35.8074 40.2035 36.7317 39.698 37.4026C39.1925 38.0735 38.2683 38.2034 37.5974 37.698L33.5974 34.6841C33.1991 34.3841 33 33.9849 33 33.4861L33 29.5C33 28.6599 33.66 28 34.5 28C35.34 28 36 28.6599 36 29.5Z" fill="#191919" fill-rule="evenodd"/>
  <path id="矢量 1743" d="M26.5 33C26.5 28.0293 30.5294 24 35.5 24C40.4706 24 44.5 28.0293 44.5 33C44.5 37.9705 40.4706 42 35.5 42C30.5294 42 26.5 37.9705 26.5 33ZM36 32.7383L36 29.5C36 28.6599 35.34 28 34.5 28C33.66 28 33 28.6599 33 29.5L33 33.4861C33 33.9849 33.1991 34.384 33.5974 34.6841L37.5974 37.698C38.2683 38.2034 39.1925 38.0735 39.698 37.4026C40.2035 36.7317 40.0735 35.8074 39.4026 35.3018L36 32.7383Z" fill="#AEAEAE" fill-rule="evenodd"/>
</svg>
