<svg viewBox="0 0 48 48" xmlns="http://www.w3.org/2000/svg" xmlns:xlink="http://www.w3.org/1999/xlink" width="48.000000" height="48.000000" fill="none">
  <path id="Fill-1" d="M18 37.3791C16.664 37.3791 15.408 36.8591 14.464 35.9151L4.58601 26.0351C3.80401 25.2551 3.80401 23.9891 4.58601 23.2071C5.36801 22.4251 6.63201 22.4251 7.41401 23.2071L17.292 33.0871C17.548 33.3411 17.846 33.3791 18 33.3791C18.154 33.3791 18.452 33.3411 18.706 33.0871L40.586 11.2071C41.368 10.4251 42.632 10.4251 43.414 11.2071C44.196 11.9891 44.196 13.2531 43.414 14.0351L21.536 35.9151C20.592 36.8591 19.336 37.3791 18 37.3791Z" fill="#191919" fill-rule="evenodd"/>
</svg>
