<svg viewBox="0 0 48 48" xmlns="http://www.w3.org/2000/svg" xmlns:xlink="http://www.w3.org/1999/xlink" width="48.000000" height="48.000000" fill="none">
  <path id="矢量 34" d="M41.5 8C41.5 7.17157 40.8284 6.5 40 6.5L8 6.5L7.79646 6.51369C7.0643 6.61302 6.5 7.24061 6.5 8C6.5 8.82843 7.17157 9.5 8 9.5L40 9.5L40.2035 9.4863C40.9357 9.38698 41.5 8.75939 41.5 8ZM36 14.5L12 14.5C8.96243 14.5 6.5 16.9624 6.5 20L6.5 28C6.5 31.0375 8.96243 33.5 12 33.5L36 33.5C39.0376 33.5 41.5 31.0375 41.5 28L41.5 20C41.5 16.9624 39.0376 14.5 36 14.5ZM36 17.5L12 17.5C10.6193 17.5 9.5 18.6193 9.5 20L9.5 28C9.5 29.3807 10.6193 30.5 12 30.5L36 30.5C37.3807 30.5 38.5 29.3807 38.5 28L38.5 20C38.5 18.6193 37.3807 17.5 36 17.5ZM41.5 40C41.5 39.1715 40.8284 38.5 40 38.5L8 38.5L7.79646 38.5137C7.0643 38.613 6.5 39.2406 6.5 40C6.5 40.8284 7.17157 41.5 8 41.5L40 41.5L40.2035 41.4863C40.9357 41.387 41.5 40.7594 41.5 40Z" fill="#191919" fill-rule="evenodd"/>
  <path id="矢量 34" d="M41.5 8C41.5 7.17157 40.8284 6.5 40 6.5L8 6.5L7.79646 6.51369C7.0643 6.61302 6.5 7.24061 6.5 8C6.5 8.82843 7.17157 9.5 8 9.5L40 9.5L40.2035 9.4863C40.9357 9.38698 41.5 8.75939 41.5 8ZM41.5 40C41.5 39.1715 40.8284 38.5 40 38.5L8 38.5L7.79646 38.5137C7.0643 38.613 6.5 39.2406 6.5 40C6.5 40.8284 7.17157 41.5 8 41.5L40 41.5L40.2035 41.4863C40.9357 41.387 41.5 40.7594 41.5 40Z" fill="#AEAEAE" fill-rule="evenodd"/>
</svg>
