<svg viewBox="0 0 48 48" xmlns="http://www.w3.org/2000/svg" xmlns:xlink="http://www.w3.org/1999/xlink" width="48.000000" height="48.000000" fill="none">
  <path id="路径" d="M0 14.0612C0 16.1985 1.57006 17.9369 3.49975 17.9369C5.42994 17.9369 7 16.1985 7 14.0612L7 0.977947C7 0.434339 6.60749 0 6.11684 0L1 0C0.447715 0 6.56697e-14 0.447715 6.56697e-14 1L6.56697e-14 1.99993L0 14.0612Z" fill="#AEAEAE" fill-rule="evenodd" transform="matrix(1,0,0,-1,5,23)"/>
  <path id="减去顶层" d="M8 5.00541L8.25702 5.00541C8.54047 5.02704 9.02025 5.12547 9.50001 5.50524C9.50968 5.51289 9.51934 5.52065 9.529 5.52852C10.7345 6.51083 11 8.19971 11 9.75474L11 36C11 39.3137 13.6863 42 17 42L44 42L42.7998 41.1C41.6668 40.2504 41 38.9168 41 37.5006L41 11.0054C41 7.69171 38.3137 5.00541 35 5.00541L8.25702 5.00541C8.09737 4.99323 8 5.00541 8 5.00541ZM32.7308 9C32.9485 9 33.1614 9.02259 33.3693 9.06778C33.5495 9.10694 33.726 9.16307 33.8988 9.23617C34.0709 9.30897 34.2336 9.3961 34.3868 9.49756C34.5531 9.60771 34.7082 9.73475 34.8521 9.87868C34.996 10.0226 35.1231 10.1777 35.2332 10.344L35.2332 10.3441C35.3347 10.4972 35.4218 10.6598 35.4946 10.832C35.5677 11.0047 35.6238 11.1812 35.663 11.3613L35.6631 11.3618C35.7082 11.5696 35.7308 11.7824 35.7308 12L35.7308 22.5385C35.7308 22.7562 35.7082 22.9691 35.663 23.1771C35.6238 23.3572 35.5677 23.5337 35.4946 23.7065C35.4218 23.8786 35.3347 24.0412 35.2333 24.1944C35.1231 24.3607 34.996 24.5158 34.8521 24.6598C34.7086 24.8033 34.554 24.93 34.3883 25.0399L34.3878 25.0402L34.3868 25.0409L34.3867 25.0409C34.2538 25.129 34.1137 25.2062 33.9665 25.2727C33.9276 25.4468 33.8728 25.6173 33.8023 25.7842C33.7295 25.9561 33.6424 26.1182 33.5409 26.2715C33.4308 26.4385 33.3037 26.5928 33.1598 26.7373C33.0158 26.8809 32.8607 27.0078 32.6943 27.1182C32.5412 27.2197 32.3786 27.3066 32.2065 27.3799C32.0337 27.4531 31.8572 27.5088 31.677 27.5479C31.4936 27.5875 31.3064 27.6104 31.1154 27.6152L31.5357 27.6152C31.4133 27.9615 31.2017 28.2656 30.9285 28.5L34.5 28.5C35.34 28.5 36 29.16 36 30C36 30.84 35.34 31.5 34.5 31.5L18 31.5C17.16 31.5 16.5 30.84 16.5 30C16.5 29.16 17.16 28.5 18 28.5L21.3023 28.5C21.0291 28.2656 20.8175 27.9615 20.6951 27.6152L21.1154 27.6152C20.9244 27.6104 20.7372 27.5875 20.5538 27.5479L20.5538 27.5479C20.3736 27.5088 20.1971 27.4531 20.0243 27.3799C19.8521 27.3066 19.6895 27.2197 19.5363 27.1182C19.37 27.0078 19.2149 26.8809 19.071 26.7373C18.9271 26.5928 18.8 26.4385 18.6899 26.2715C18.5884 26.1191 18.5013 25.9561 18.4285 25.7842C18.3579 25.6173 18.3032 25.4468 18.2642 25.2727C18.117 25.2062 17.9769 25.129 17.844 25.0409C17.6777 24.9308 17.5226 24.8037 17.3787 24.6598C17.2348 24.5159 17.1077 24.3607 16.9976 24.1944C16.8961 24.0413 16.809 23.8786 16.7362 23.7065C16.6631 23.5337 16.6069 23.3572 16.5678 23.177C16.5226 22.9691 16.5 22.7562 16.5 22.5385L16.5 12C16.5 11.7822 16.5226 11.5694 16.5678 11.3615L16.568 11.3603C16.6072 11.1805 16.6632 11.0044 16.7362 10.832C16.809 10.6599 16.8961 10.4973 16.9975 10.3441L16.9976 10.344C17.1077 10.1777 17.2348 10.0226 17.3787 9.87868C17.5226 9.73475 17.6777 9.60771 17.844 9.49756L17.8452 9.49677C17.998 9.39565 18.1603 9.30878 18.332 9.23617C18.5048 9.16308 18.6812 9.10695 18.8614 9.06779L18.8615 9.06779C19.0694 9.0226 19.2822 9 19.5 9L32.7308 9ZM33.7308 21.9667C33.6723 21.8472 33.6065 21.7325 33.5333 21.623C33.425 21.4609 33.3004 21.3096 33.1598 21.1689L32.9467 20.9561C32.8999 20.9092 32.8583 20.8584 32.8222 20.8047C32.7861 20.751 32.7553 20.6934 32.73 20.6318C32.7046 20.5703 32.6856 20.5078 32.6729 20.4443C32.6602 20.3799 32.6538 20.3154 32.6538 20.249L32.6538 16.1543C32.6538 15.9378 32.6315 15.7262 32.5869 15.5194L32.5868 15.5192L32.5868 15.519L32.586 15.5156C32.5469 15.3359 32.4908 15.1592 32.4177 14.9863C32.3449 14.8145 32.2578 14.6514 32.1563 14.498L32.1563 14.498C32.0461 14.332 31.9191 14.1768 31.7752 14.0332C31.6312 13.8887 31.4761 13.7617 31.3099 13.6523L31.3098 13.6514C31.1567 13.5508 30.994 13.4629 30.8219 13.3906C30.6491 13.3174 30.4726 13.2617 30.2924 13.2217C30.0844 13.1768 29.8716 13.1543 29.6538 13.1543L22.6253 13.1543C22.4075 13.1543 22.1946 13.1768 21.9867 13.2217C21.8065 13.2617 21.63 13.3174 21.4572 13.3906C21.2851 13.4629 21.1224 13.5508 20.9693 13.6514C20.803 13.7617 20.6479 13.8887 20.5039 14.0332C20.36 14.1768 20.233 14.332 20.1228 14.498C20.0214 14.6514 19.9342 14.8145 19.8614 14.9863C19.7883 15.1592 19.7322 15.3359 19.6931 15.5156C19.6479 15.7236 19.6253 15.9365 19.6253 16.1543L19.6253 20.2285C19.6253 20.2969 19.6186 20.3633 19.6054 20.4277C19.5922 20.4932 19.5723 20.5566 19.5458 20.6191C19.5193 20.6816 19.4873 20.7402 19.4497 20.7949C19.4121 20.8496 19.3689 20.9004 19.3201 20.9482L19.1077 21.1533C18.9614 21.2949 18.8319 21.4473 18.719 21.6113C18.6373 21.7302 18.5642 21.8553 18.5 21.9865L18.5 12C18.5 11.9174 18.5096 11.8371 18.5288 11.7592C18.5413 11.7088 18.5577 11.6595 18.5782 11.6111C18.6003 11.5587 18.6265 11.5089 18.6568 11.4616C18.6955 11.4011 18.7409 11.3449 18.7929 11.2929C18.8449 11.2409 18.9011 11.1955 18.9616 11.1568C19.0089 11.1265 19.0587 11.1003 19.1111 11.0782C19.1595 11.0577 19.2088 11.0413 19.2592 11.0288C19.3371 11.0096 19.4174 11 19.5 11L32.7308 11C32.8134 11 32.8937 11.0096 32.9715 11.0288C33.0219 11.0413 33.0713 11.0577 33.1197 11.0782C33.1721 11.1003 33.2219 11.1265 33.2691 11.1568C33.3296 11.1955 33.3859 11.2409 33.4379 11.2929C33.4899 11.3449 33.5352 11.4011 33.574 11.4616C33.6042 11.5088 33.6304 11.5587 33.6526 11.6111C33.6731 11.6595 33.6895 11.7088 33.7019 11.7592C33.7212 11.8371 33.7308 11.9174 33.7308 12L33.7308 21.9667ZM28.1495 16.0437C28.013 16.0146 27.8735 16 27.7308 16L24.7308 16C24.5881 16 24.4485 16.0146 24.3121 16.0437C24.1895 16.0699 24.0695 16.1079 23.952 16.1576C23.8361 16.2066 23.7268 16.2653 23.6239 16.3337L23.6234 16.334L23.6234 16.334L23.6231 16.3342C23.5136 16.4071 23.4114 16.4909 23.3166 16.5858C23.2216 16.6807 23.1377 16.783 23.0648 16.8926L23.0648 16.8927C22.9962 16.9957 22.9374 17.1052 22.8884 17.2212C22.8387 17.3387 22.8007 17.4588 22.7745 17.5813L22.7745 17.5813L22.7745 17.5814L22.7745 17.5814C22.7453 17.7178 22.7308 17.8574 22.7308 18L22.7308 19C22.7308 19.1427 22.7454 19.2822 22.7745 19.4187C22.8007 19.5412 22.8386 19.6613 22.8884 19.7788C22.9374 19.8948 22.9962 20.0043 23.0648 20.1074C23.1377 20.217 23.2216 20.3193 23.3166 20.4142C23.4115 20.5092 23.5138 20.5931 23.6234 20.666C23.7265 20.7345 23.836 20.7934 23.952 20.8424C24.0695 20.8921 24.1895 20.9301 24.3121 20.9563C24.4485 20.9854 24.5881 21 24.7308 21L27.7308 21C27.8735 21 28.013 20.9854 28.1495 20.9563C28.272 20.9301 28.392 20.8921 28.5096 20.8424C28.6256 20.7934 28.7351 20.7346 28.8381 20.666C28.9478 20.5931 29.05 20.5092 29.145 20.4142C29.2399 20.3193 29.3239 20.217 29.3968 20.1074C29.4653 20.0043 29.5241 19.8948 29.5732 19.7788C29.6229 19.6613 29.6609 19.5412 29.687 19.4187L29.6871 19.4183C29.7162 19.282 29.7308 19.1426 29.7308 19L29.7308 18C29.7308 17.8574 29.7162 17.7178 29.6871 17.5814L29.687 17.5813C29.6609 17.4588 29.6229 17.3387 29.5732 17.2212C29.5241 17.1052 29.4653 16.9957 29.3968 16.8927C29.3239 16.783 29.2399 16.6807 29.145 16.5858C29.05 16.4908 28.9478 16.4069 28.8381 16.334C28.7351 16.2654 28.6256 16.2066 28.5096 16.1576C28.392 16.1079 28.272 16.0699 28.1495 16.0437ZM22.5385 22.4619C21.9649 22.4619 21.5 22.9268 21.5 23.5004C21.5 24.0739 21.9649 24.5388 22.5385 24.5388C23.112 24.5388 23.5769 24.0739 23.5769 23.5004C23.5769 22.9268 23.112 22.4619 22.5385 22.4619ZM30.1539 22.4619C29.5803 22.4619 29.1154 22.9268 29.1154 23.5004C29.1154 24.0739 29.5803 24.5388 30.1539 24.5388C30.7274 24.5388 31.1923 24.0739 31.1923 23.5004C31.1923 22.9268 30.7274 22.4619 30.1539 22.4619ZM27.6186 27.6162C27.741 27.962 27.9525 28.2658 28.2254 28.5L24.0055 28.5C24.2784 28.2658 24.4898 27.962 24.6123 27.6162L27.6186 27.6162ZM33.5106 33.5L18.9894 33.5C17.5953 33.5 16.5 34.16 16.5 35C16.5 35.84 17.5953 36.5 18.9894 36.5L33.5106 36.5C34.9047 36.5 36 35.84 36 35C36 34.16 34.9047 33.5 33.5106 33.5Z" fill="#191919" fill-rule="evenodd"/>
</svg>
