<svg viewBox="0 0 48 48" xmlns="http://www.w3.org/2000/svg" xmlns:xlink="http://www.w3.org/1999/xlink" width="48.000000" height="48.000000" fill="none">
  <path id="形状结合备份" d="M10.9932 28.5031C13.206 28.5031 15.0019 30.2983 15.0019 32.5103L15.0019 39.4948C15.0019 41.7068 13.206 43.5 10.9932 43.5L8.0067 43.5C5.79389 43.5 4 41.7068 4 39.4948L4 32.5103C4 30.2983 5.7939 28.5031 8.0067 28.5031L10.9932 28.5031ZM25.4978 22.5043C27.7106 22.5043 29.5045 24.2995 29.5045 26.5115L29.5045 39.4948C29.5045 41.7068 27.7106 43.5 25.4978 43.5L22.5112 43.5C20.2969 43.5 18.5025 41.7073 18.5025 39.4948L18.5025 26.5115C18.5025 24.299 20.2969 22.5043 22.5112 22.5043L25.4978 22.5043ZM39.9793 14.5C41.8857 14.5 43.5192 15.8369 43.9112 17.6793C44.0835 18.4895 43.5662 19.2859 42.7558 19.4582C42.0129 19.6161 41.2815 19.1948 41.032 18.4994C40.9457 18.0935 40.5611 17.5863 40.1567 17.5149L37.0188 17.4994C36.5185 17.4994 36.1015 17.8608 36.0151 18.3361L35.9986 39.4788C35.9986 39.9813 36.3592 40.3978 36.8353 40.4842L39.9853 40.5006C40.4829 40.5006 40.8972 40.1415 40.9831 39.6675L40.9995 22.9999C40.9995 22.1716 41.6712 21.5002 42.4997 21.5002C43.2593 21.5002 43.887 22.0644 43.9863 22.7964L44 22.9999L44 39.4848C44 41.6015 42.3623 43.3357 40.2849 43.489L39.9853 43.5L37.0188 43.5C34.8984 43.5 33.1625 41.8602 33.0091 39.779L32.9981 39.4788L32.9981 18.5192C32.9981 16.4015 34.6385 14.6646 36.7187 14.511L37.0188 14.5L39.9793 14.5ZM10.9932 31.5025L8.0067 31.5025C7.45178 31.5025 7.00053 31.9541 7.00053 32.5103L7.00053 39.4948C7.00053 40.0503 7.45103 40.5006 8.0067 40.5006L10.9932 40.5006C11.5496 40.5006 12.0014 40.0495 12.0014 39.4948L12.0014 32.5103C12.0014 31.9548 11.5489 31.5025 10.9932 31.5025ZM25.4978 25.5037L22.5112 25.5037C21.9544 25.5037 21.5031 25.9552 21.5031 26.5115L21.5031 39.4948C21.5031 40.0504 21.9537 40.5006 22.5112 40.5006L25.4978 40.5006C26.0534 40.5006 26.5039 40.0503 26.5039 39.4948L26.5039 26.5115C26.5039 25.9553 26.0527 25.5037 25.4978 25.5037Z" fill="#191919" fill-rule="evenodd"/>
  <path id="合并" d="M33.7313 9.61381C31.0182 11.4298 28.2549 12.8516 25.4411 13.8811C20.526 15.6794 14.4973 16.8823 7.35973 17.481C6.5479 17.5491 5.94116 18.3114 6.00455 19.1835C6.06793 20.0557 6.77744 20.7075 7.58928 20.6394C14.9568 20.0214 21.2227 18.7712 26.3917 16.88C31.6142 14.9692 36.643 11.8204 41.4758 7.44388C42.0984 6.88006 42.1777 5.88074 41.6529 5.21186C41.4117 4.90442 41.0848 4.72029 40.7415 4.66582C40.5964 4.64279 40.4483 4.64294 40.3025 4.66675L31.4281 4.50015C30.7646 4.4877 30.3809 5.24774 30.7849 5.77417L33.7313 9.61381Z" fill="#AEAEAE" fill-rule="evenodd"/>
</svg>
