<svg viewBox="0 0 48 48" xmlns="http://www.w3.org/2000/svg" xmlns:xlink="http://www.w3.org/1999/xlink" width="48.000000" height="48.000000" fill="none">
  <path id="形状结合" d="M20.0031 44C19.1746 44 18.5031 43.3284 18.5031 42.5C18.5031 41.7406 19.0674 41.113 19.7995 41.0137L20.0031 41L22.5011 41L22.5018 37.7494C15.7527 37.0015 10.4871 31.2653 10.4871 24.32C10.4871 23.492 11.1591 22.82 11.9871 22.82C12.8151 22.82 13.4871 23.492 13.4871 24.32C13.4871 30.118 18.2051 34.832 24.0011 34.832C29.7971 34.832 34.5131 30.118 34.5131 24.32C34.5131 23.492 35.1851 22.82 36.0131 22.82C36.8411 22.82 37.5131 23.492 37.5131 24.32C37.5131 31.2646 32.2502 37.0004 25.5023 37.7492L25.5011 41L27.9971 41C28.8255 41 29.4971 41.6716 29.4971 42.5C29.4971 43.2594 28.9328 43.887 28.2006 43.9863L27.9971 44L20.0031 44ZM24.0011 4C28.2271 4 31.6671 7.44 31.6671 11.666L31.6671 24C31.6671 28.226 28.2271 31.666 24.0011 31.666C19.7731 31.666 16.3331 28.226 16.3331 24L16.3331 11.666C16.3331 7.44 19.7731 4 24.0011 4Z" fill="#191919" fill-rule="evenodd"/>
  <path id="形状结合" d="M20.0031 44.0003C19.1746 44.0003 18.5031 43.3287 18.5031 42.5003C18.5031 41.7409 19.0674 41.1133 19.7995 41.014L20.0031 41.0003L22.5011 41.0003L22.5018 37.7497C15.7527 37.0018 10.4871 31.2656 10.4871 24.3203C10.4871 23.4923 11.1591 22.8203 11.9871 22.8203C12.8151 22.8203 13.4871 23.4923 13.4871 24.3203C13.4871 30.1183 18.2051 34.8323 24.0011 34.8323C29.7971 34.8323 34.5131 30.1183 34.5131 24.3203C34.5131 23.4923 35.1851 22.8203 36.0131 22.8203C36.8411 22.8203 37.5131 23.4923 37.5131 24.3203C37.5131 31.2649 32.2502 37.0007 25.5023 37.7495L25.5011 41.0003L27.9971 41.0003C28.8255 41.0003 29.4971 41.6719 29.4971 42.5003C29.4971 43.2597 28.9328 43.8873 28.2006 43.9866L27.9971 44.0003L20.0031 44.0003Z" fill="#AEAEAE" fill-rule="evenodd"/>
</svg>
