<svg viewBox="0 0 48 48" xmlns="http://www.w3.org/2000/svg" xmlns:xlink="http://www.w3.org/1999/xlink" width="48.000000" height="48.000000" fill="none">
  <path id="Fill-1" d="M37.983 7.23193L10.017 7.23193C6.70897 7.23193 4.01697 9.92393 4.01697 13.2319L4.01697 28.8739C4.01697 32.1839 6.70897 34.8739 10.017 34.8739L22.501 34.8739L22.501 37.7679L12.001 37.7679C11.173 37.7679 10.501 38.4399 10.501 39.2679C10.501 40.0959 11.173 40.7679 12.001 40.7679L36.001 40.7679C36.829 40.7679 37.501 40.0959 37.501 39.2679C37.501 38.4399 36.829 37.7679 36.001 37.7679L25.501 37.7679L25.501 34.8739L37.983 34.8739C41.291 34.8739 43.983 32.1839 43.983 28.8739L43.983 13.2319C43.983 9.92393 41.291 7.23193 37.983 7.23193Z" fill="#191919" fill-rule="evenodd"/>
</svg>
