<svg viewBox="0 0 48 48" xmlns="http://www.w3.org/2000/svg" xmlns:xlink="http://www.w3.org/1999/xlink" width="48.000000" height="48.000000" fill="none">
  <path id="减去顶层" d="M11.996 6L36.002 6C39.308 6 42 8.692 42 11.998L42 36.002C42 39.308 39.308 42 36.002 42L11.996 42C8.69 42 6 39.308 6 36.002L6 11.998C6 8.692 8.69 6 11.996 6ZM17.4034 14.9751L17.4127 15.0029L15.5051 15.0029C14.6654 15.0029 14.0056 15.6629 14.0056 16.5029C14.0056 17.3103 14.6152 17.9514 15.4083 18C15.3023 18.3018 15.2935 18.6416 15.404 18.9751L15.7448 20.0029L15.5051 20.0029C14.6654 20.0029 14.0056 20.6629 14.0056 21.5029C14.0056 22.3428 14.6654 23.0029 15.5051 23.0029L17.7545 23.0029L17.7545 24.0029L15.5051 24.0029C14.6654 24.0029 14.0056 24.6628 14.0056 25.5029C14.0056 26.3428 14.6654 27.0029 15.5051 27.0029L15.91 27.0029C15.8915 27.04 15.8727 27.0772 15.8536 27.1138C15.6052 27.5935 15.3153 28.04 14.984 28.4531C14.581 28.9561 14.1167 29.4094 13.5911 29.814C12.9255 30.3262 12.8048 31.2517 13.3168 31.9175C13.8288 32.5833 14.7541 32.7039 15.4197 32.1919C16.1213 31.6521 16.7432 31.0476 17.2856 30.3787C17.4491 30.177 17.6054 29.9695 17.7545 29.7561L17.7545 31.0029L17.5046 31.0029C16.6648 31.0029 16.005 31.6628 16.005 32.5029C16.005 33.3428 16.6648 34.0029 17.5046 34.0029L19.0041 34.0029C19.0463 34.0029 19.0879 34.0012 19.1291 33.998C19.1703 34.0012 19.2119 34.0029 19.2541 34.0029C20.0938 34.0029 20.7536 33.3428 20.7536 32.5029L20.7536 29.126L21.8652 30.5933C21.775 30.668 21.6829 30.7415 21.5888 30.814C20.9232 31.3259 20.8025 32.2515 21.3145 32.9175C21.8266 33.5833 22.7518 33.7039 23.4174 33.1917C24.5503 32.3201 25.4743 31.3167 26.1894 30.1819C26.2272 30.1218 26.2644 30.0615 26.301 30.001C26.9414 28.9392 27.4095 27.7524 27.7053 26.4402C27.9346 25.4229 28.0689 24.2771 28.1081 23.0029L28.7514 23.0029L28.7514 32.5029C28.7514 33.3428 29.4112 34.0029 30.2509 34.0029C31.0907 34.0029 31.7505 33.3428 31.7505 32.5029L31.7505 23.0029L32.5004 23.0029C33.3402 23.0029 34 22.3428 34 21.5029C34 20.6629 33.3402 20.0029 32.5004 20.0029L28.0726 20.0029C28.068 19.8762 28.0629 19.7427 28.0575 19.6026C28.0336 18.9863 28.0173 18.4776 28.0087 18.0757L32.2012 16.9519C33.0123 16.7346 33.4789 15.9263 33.2615 15.1148C33.0442 14.3035 32.2361 13.8367 31.425 14.0542L26.1139 15.4778C25.3371 15.6858 24.8763 16.4361 25.0296 17.2119C25.0117 17.3059 25.0024 17.4031 25.0024 17.5029C25.0024 17.9812 25.0218 18.72 25.0606 19.719C25.0872 20.4063 25.1044 20.9238 25.1122 21.2715C25.1249 21.8435 25.1252 22.3584 25.1131 22.8159C25.0834 23.9373 24.9723 24.9255 24.7796 25.7805C24.5742 26.6917 24.2648 27.5142 23.8514 28.2481L22.9083 27.0029L23.003 27.0029C23.8428 27.0029 24.5026 26.3428 24.5026 25.5029C24.5026 24.6628 23.8428 24.0029 23.003 24.0029L20.7536 24.0029L20.7536 23.0029L23.003 23.0029C23.8428 23.0029 24.5026 22.3428 24.5026 21.5029C24.5026 20.6629 23.8428 20.0029 23.003 20.0029L22.2586 20.0029L22.5994 18.9751C22.7095 18.6428 22.7011 18.3042 22.5961 18.0029L23.003 18.0029C23.8428 18.0029 24.5026 17.3428 24.5026 16.5029C24.5026 15.6629 23.8428 15.0029 23.003 15.0029L20.5724 15.0029L20.2501 14.0308C19.9858 13.2334 19.1518 12.8147 18.3547 13.0791C17.5577 13.3435 17.1391 14.1778 17.4034 14.9751ZM18.2507 18.0308C18.2476 18.0215 18.2444 18.0122 18.2412 18.0029L19.7622 18.0029C19.7589 18.0122 19.7558 18.0215 19.7527 18.0308L19.4029 19.0859C19.2994 19.398 19.3006 19.7158 19.3882 20.0029L18.6152 20.0029C18.7028 19.7158 18.704 19.398 18.6005 19.0859L18.2507 18.0308Z" fill="#191919" fill-rule="evenodd"/>
  <path id="矢量 1886" d="M17.4127 15.0029L17.4034 14.9751C17.1391 14.1778 17.5577 13.3435 18.3547 13.0791C19.1518 12.8147 19.9858 13.2334 20.2501 14.0308L20.5724 15.0029L23.003 15.0029C23.8428 15.0029 24.5026 15.6629 24.5026 16.5029C24.5026 17.3428 23.8428 18.0029 23.003 18.0029L22.5961 18.0029C22.7011 18.3042 22.7095 18.6428 22.5994 18.9751L22.2586 20.0029L23.003 20.0029C23.8428 20.0029 24.5026 20.6629 24.5026 21.5029C24.5026 22.3428 23.8428 23.0029 23.003 23.0029L20.7536 23.0029L20.7536 24.0029L23.003 24.0029C23.8428 24.0029 24.5026 24.6628 24.5026 25.5029C24.5026 26.3428 23.8428 27.0029 23.003 27.0029L22.9083 27.0029L23.8514 28.2481C24.2648 27.5142 24.5742 26.6917 24.7796 25.7805C24.9723 24.9255 25.0834 23.9373 25.1131 22.8159C25.1252 22.3584 25.1249 21.8435 25.1122 21.2715C25.1044 20.9238 25.0872 20.4063 25.0606 19.719C25.0218 18.72 25.0024 17.9812 25.0024 17.5029C25.0024 17.4031 25.0117 17.3059 25.0296 17.2119C24.8763 16.4361 25.3371 15.6858 26.1139 15.4778L31.425 14.0542C32.2361 13.8367 33.0442 14.3035 33.2615 15.1148C33.4789 15.9263 33.0123 16.7346 32.2012 16.9519L28.0087 18.0757C28.0173 18.4776 28.0336 18.9863 28.0575 19.6026C28.0629 19.7427 28.068 19.8762 28.0726 20.0029L32.5004 20.0029C33.3402 20.0029 34 20.6629 34 21.5029C34 22.3428 33.3402 23.0029 32.5004 23.0029L31.7505 23.0029L31.7505 32.5029C31.7505 33.3428 31.0907 34.0029 30.2509 34.0029C29.4112 34.0029 28.7514 33.3428 28.7514 32.5029L28.7514 23.0029L28.1081 23.0029C28.0689 24.2771 27.9346 25.4229 27.7053 26.4402C27.4095 27.7524 26.9414 28.9392 26.301 30.001C26.2644 30.0615 26.2272 30.1218 26.1894 30.1819C25.4743 31.3167 24.5503 32.3201 23.4174 33.1917C22.7518 33.7039 21.8266 33.5833 21.3145 32.9175C20.8025 32.2515 20.9232 31.3259 21.5888 30.814C21.6829 30.7415 21.775 30.668 21.8652 30.5933L20.7536 29.126L20.7536 32.5029C20.7536 33.3428 20.0938 34.0029 19.2541 34.0029C19.2119 34.0029 19.1703 34.0012 19.1291 33.998C19.0879 34.0012 19.0463 34.0029 19.0041 34.0029L17.5046 34.0029C16.6648 34.0029 16.005 33.3428 16.005 32.5029C16.005 31.6628 16.6648 31.0029 17.5046 31.0029L17.7545 31.0029L17.7545 29.7561C17.6054 29.9695 17.4491 30.177 17.2856 30.3787C16.7432 31.0476 16.1213 31.6521 15.4197 32.1919C14.7541 32.7039 13.8288 32.5833 13.3168 31.9175C12.8048 31.2517 12.9255 30.3262 13.5911 29.814C14.1167 29.4094 14.581 28.9561 14.984 28.4531C15.3153 28.04 15.6052 27.5935 15.8536 27.1138C15.8727 27.0772 15.8915 27.04 15.91 27.0029L15.5051 27.0029C14.6654 27.0029 14.0056 26.3428 14.0056 25.5029C14.0056 24.6628 14.6654 24.0029 15.5051 24.0029L17.7545 24.0029L17.7545 23.0029L15.5051 23.0029C14.6654 23.0029 14.0056 22.3428 14.0056 21.5029C14.0056 20.6629 14.6654 20.0029 15.5051 20.0029L15.7448 20.0029L15.404 18.9751C15.2935 18.6416 15.3023 18.3018 15.4083 18C14.6152 17.9514 14.0056 17.3103 14.0056 16.5029C14.0056 15.6629 14.6654 15.0029 15.5051 15.0029L17.4127 15.0029ZM18.2412 18.0029C18.2444 18.0122 18.2476 18.0215 18.2507 18.0308L18.6005 19.0859C18.704 19.398 18.7028 19.7158 18.6152 20.0029L19.3882 20.0029C19.3006 19.7158 19.2994 19.398 19.4029 19.0859L19.7527 18.0308C19.7558 18.0215 19.7589 18.0122 19.7622 18.0029L18.2412 18.0029Z" fill="#AEAEAE" fill-rule="evenodd"/>
</svg>
