<svg viewBox="0 0 48 48" xmlns="http://www.w3.org/2000/svg" xmlns:xlink="http://www.w3.org/1999/xlink" width="48.000000" height="48.000000" fill="none">
  <path id="减去顶层" d="M22.238 4.169C21.652 3.943 21.012 3.945 20.438 4.167L7.434 9.041C5.98 9.589 5 11.001 5 12.555L5 25.917C5 32.145 8.462 37.745 14.032 40.529L20.648 43.839C20.864 43.947 21.1 44.001 21.334 44.001C21.568 44.001 21.804 43.947 22.02 43.839L23.6944 43.0013C20.8261 40.6167 19 37.0216 19 33C19 30.8655 19.5144 28.8512 20.426 27.0742C20.1546 26.7802 19.8814 26.491 19.6064 26.2066L20.7128 25.1543L19.0798 25.1543L19.0798 23.225L23.4295 23.225C24.5234 22.2651 25.7799 21.4858 27.1523 20.934L18.4043 20.934L18.4043 18.9334L23.6755 18.9334L23.6755 16.5547L19.6064 16.5547L19.6064 14.6254L23.6755 14.6254L23.6755 12L25.6383 12L25.6383 14.6254L30.0638 14.6254L30.0638 16.5547L25.6383 16.5547L25.6383 18.9334L31 18.9334L31 20.0379C31.33 20.0128 31.6635 20 32 20C34.0319 20 35.955 20.4662 37.668 21.2974L37.668 12.555C37.668 11.001 36.688 9.589 35.234 9.041L22.238 4.169ZM21.6335 25.1543L21.2181 25.1543C21.2949 25.2377 21.3717 25.3212 21.4484 25.4047C21.5091 25.3205 21.5708 25.237 21.6335 25.1543ZM15.0053 12.1754L16.883 12.1754L16.883 16.467L19.1702 16.467L19.1702 18.3963L16.883 18.3963L16.883 22.2603C17.4468 22.0776 18.0124 21.8749 18.5798 21.652L18.8404 22.8633L18.9309 23.6744L16.883 24.4582L16.883 32L15.0053 32L15.0053 25.0666C13.8138 25.4685 12.6525 25.9088 11.5213 26.3875L11 24.1896C12.3652 23.784 13.7004 23.3419 15.0053 22.8633L15.0053 18.3963L13.3936 18.3963C13.2199 19.624 12.9876 20.8207 12.6968 21.9863L11 21.652C11.2861 20.3447 11.522 19.0303 11.7077 17.7089C11.8879 16.4264 12.0208 15.1373 12.1064 13.8416L13.8936 14.017C13.7801 14.8428 13.6933 15.6595 13.633 16.467L15.0053 16.467L15.0053 12.1754Z" fill="#191919" fill-rule="evenodd"/>
  <path id="减去顶层" d="M21 33C21 26.92 25.94 22 32 22C38.08 22 43 26.92 43 33C43 39.06 38.08 44 32 44C25.94 44 21 39.06 21 33ZM31.9578 27.6017C31.6459 27.5339 31.3266 27.5 31 27.5C30.6734 27.5 30.3541 27.5339 30.0422 27.6017C29.7719 27.6604 29.5071 27.7446 29.2479 27.8542C28.9897 27.9635 28.7458 28.0941 28.5161 28.2463L28.5158 28.2465C28.2664 28.4117 28.0338 28.6022 27.818 28.818C27.6021 29.0339 27.4116 29.2666 27.2463 29.516L27.2463 29.516C27.0941 29.7458 26.9635 29.9897 26.8542 30.2479C26.7446 30.5071 26.6604 30.7719 26.6017 31.0422L26.6016 31.0425C26.5339 31.3543 26.5 31.6735 26.5 32C26.5 32.3266 26.5339 32.6459 26.6017 32.9578C26.6604 33.2281 26.7446 33.4929 26.8542 33.7521C26.9635 34.0103 27.0941 34.2542 27.2463 34.4839L27.2463 34.484C27.4116 34.7334 27.6021 34.9661 27.818 35.182C28.0339 35.3979 28.2666 35.5884 28.516 35.7537C28.7458 35.9058 28.9897 36.0365 29.2479 36.1458C29.5071 36.2554 29.7719 36.3396 30.0422 36.3983C30.3541 36.4661 30.6734 36.5 31 36.5C31.3266 36.5 31.6459 36.4661 31.9578 36.3983C32.2281 36.3396 32.4929 36.2554 32.7521 36.1458C32.8156 36.1189 32.8782 36.0907 32.94 36.0613L34.9393 38.0607C35.5333 38.6547 36.4667 38.6547 37.0606 38.0607C37.6546 37.4667 37.6546 36.5334 37.0607 35.9394L35.0613 33.94C35.0907 33.8782 35.1189 33.8156 35.1458 33.7521C35.2554 33.4929 35.3396 33.2281 35.3983 32.9578C35.4661 32.6459 35.5 32.3266 35.5 32C35.5 31.6734 35.4661 31.3541 35.3983 31.0422C35.3396 30.7719 35.2554 30.5071 35.1458 30.2479C35.0365 29.9897 34.9058 29.7458 34.7537 29.516C34.5884 29.2666 34.3979 29.0339 34.182 28.818C33.9661 28.6021 33.7334 28.4116 33.484 28.2464L33.484 28.2463L33.484 28.2463C33.2542 28.0941 33.0103 27.9635 32.7521 27.8542C32.4929 27.7446 32.2281 27.6604 31.9578 27.6017L31.9578 27.6017ZM30.6388 30.5432C30.7557 30.5144 30.876 30.5 31 30.5C31.124 30.5 31.2443 30.5144 31.3612 30.5432C31.4367 30.5619 31.5108 30.5866 31.5834 30.6173C31.662 30.6505 31.7367 30.6898 31.8076 30.7352C31.8983 30.7933 31.9827 30.8613 32.0607 30.9393C32.1386 31.0173 32.2067 31.1017 32.2648 31.1924C32.3102 31.2633 32.3495 31.338 32.3827 31.4166C32.4134 31.4892 32.4381 31.5633 32.4568 31.6388C32.4856 31.7557 32.5 31.8761 32.5 32C32.5 32.1239 32.4856 32.2443 32.4568 32.3612C32.4381 32.4367 32.4134 32.5108 32.3827 32.5834C32.3495 32.662 32.3102 32.7367 32.2648 32.8076C32.2067 32.8983 32.1387 32.9827 32.0607 33.0607C31.9827 33.1387 31.8983 33.2067 31.8076 33.2648C31.7367 33.3102 31.662 33.3495 31.5834 33.3827C31.5108 33.4134 31.4367 33.4381 31.3612 33.4568C31.2443 33.4856 31.1239 33.5 31 33.5C30.8761 33.5 30.7557 33.4856 30.6388 33.4568C30.5633 33.4381 30.4892 33.4134 30.4166 33.3827C30.338 33.3495 30.2633 33.3102 30.1924 33.2648C30.1017 33.2067 30.0173 33.1387 29.9393 33.0607C29.8613 32.9827 29.7933 32.8983 29.7352 32.8075C29.6898 32.7367 29.6505 32.662 29.6173 32.5834C29.5866 32.5108 29.5619 32.4368 29.5432 32.3612C29.5144 32.2444 29.5 32.124 29.5 32C29.5 31.8761 29.5144 31.7557 29.5432 31.6389L29.5432 31.6388C29.5619 31.5633 29.5866 31.4892 29.6173 31.4166C29.6505 31.338 29.6898 31.2633 29.7352 31.1924C29.7933 31.1017 29.8613 31.0173 29.9393 30.9393C30.0173 30.8613 30.1017 30.7933 30.1924 30.7352C30.2633 30.6898 30.338 30.6505 30.4166 30.6173C30.4892 30.5866 30.5633 30.5619 30.6388 30.5432Z" fill="#AEAEAE" fill-rule="evenodd"/>
</svg>
