<svg viewBox="0 0 48 48" xmlns="http://www.w3.org/2000/svg" xmlns:xlink="http://www.w3.org/1999/xlink" width="48.000000" height="48.000000" fill="none">
  <path id="Fill-1" d="M34 16.4995C32.62 16.4995 31.5 15.3795 31.5 13.9995C31.5 12.6195 32.62 11.4995 34 11.4995C35.38 11.4995 36.5 12.6195 36.5 13.9995C36.5 15.3795 35.38 16.4995 34 16.4995ZM27.904 5.15953C22.64 5.96753 18.324 10.0735 17.23 15.2855C16.618 18.2075 17.018 20.9815 18.104 23.3815L5.372 36.1135C5.134 36.3515 5 36.6735 5 37.0095L5 41.7335C5 42.4315 5.568 42.9995 6.266 42.9995L12.418 42.9995C13.12 42.9995 13.686 42.4315 13.686 41.7335L13.686 39.9235C13.686 39.2235 14.252 38.6575 14.952 38.6575L16.762 38.6575C17.462 38.6575 18.028 38.0895 18.028 37.3895L18.028 35.5815C18.028 34.8795 18.596 34.3135 19.294 34.3135L20.2 34.3135L24.618 29.8955C27.016 30.9815 29.79 31.3795 32.71 30.7695C37.92 29.6795 42.028 25.3655 42.84 20.1035C44.2 11.2895 36.716 3.80353 27.904 5.15953Z" fill="#191919" fill-rule="evenodd"/>
  <path id="Fill-2" d="M34 16.4995C32.62 16.4995 31.5 15.3795 31.5 13.9995C31.5 12.6195 32.62 11.4995 34 11.4995C35.38 11.4995 36.5 12.6195 36.5 13.9995C36.5 15.3795 35.38 16.4995 34 16.4995Z" fill="#AEAEAE" fill-rule="evenodd"/>
</svg>
