<svg viewBox="0 0 48 48" xmlns="http://www.w3.org/2000/svg" xmlns:xlink="http://www.w3.org/1999/xlink" width="48.000000" height="48.000000" fill="none">
  <path id="合并" d="M34 7L10 7C6.68629 7 4 9.68629 4 13L4 15L40 15L40 13C40 9.68629 37.3137 7 34 7ZM40 17.5L40 26.2778L37.2482 21.8444C35.2925 18.6934 30.7075 18.6934 28.7518 21.8444L19.7401 36.3632C18.7848 37.9023 18.7824 39.6495 19.4429 41.084L10 41.084C6.692 41.084 4 38.392 4 35.084L4 17.5L40 17.5Z" fill="#191919" fill-rule="evenodd"/>
  <path id="减去顶层" d="M40.9956 40.9614L25.0047 40.9614C22.6564 40.9614 21.2185 38.3851 22.4514 36.3864L30.4469 23.4245C31.6189 21.5245 34.3815 21.5245 35.5535 23.4245L43.5489 36.3864C44.7818 38.3851 43.344 40.9614 40.9956 40.9614ZM32.9011 24.8184C33.6531 24.8184 34.2748 25.3745 34.3732 26.0957L34.3868 26.2963L34.3868 31.9597C34.3868 32.7762 33.7216 33.4377 32.9011 33.4377C32.1491 33.4377 31.5274 32.8815 31.429 32.1604L31.4155 31.9597L31.4155 26.2963C31.4155 25.4799 32.0807 24.8184 32.9011 24.8184ZM32.9011 35.1638C33.9965 35.1638 34.882 36.0447 34.882 37.1344C34.882 38.2222 33.9965 39.105 32.9011 39.105C31.8057 39.105 30.9203 38.2222 30.9203 37.1344C30.9203 36.0447 31.8057 35.1638 32.9011 35.1638Z" fill="#AEAEAE" fill-rule="evenodd"/>
</svg>
