<svg viewBox="0 0 48 48" xmlns="http://www.w3.org/2000/svg" xmlns:xlink="http://www.w3.org/1999/xlink" width="48.000000" height="48.000000" fill="none">
  <path id="减去顶层" d="M33 6C36.1954 6 38.8073 8.49784 38.9898 11.6475L39 12L39 22.068L35.7212 20.021C34.5834 19.3636 33.2579 19.1517 31.9999 19.3855C32 19.3747 32 19.364 32 19.3533C32 19.0962 31.9734 18.8449 31.9203 18.5994C31.8738 18.3846 31.807 18.1742 31.7199 17.9681C31.6333 17.7634 31.5296 17.57 31.4089 17.388C31.2854 17.2018 31.1441 17.0275 30.985 16.865C31.0519 16.7491 31.1119 16.6285 31.1648 16.5033C31.2446 16.3148 31.3056 16.1222 31.348 15.9257C31.3961 15.7027 31.4201 15.4746 31.4201 15.2413C31.4201 15.008 31.3961 14.7799 31.348 14.5569C31.3056 14.3603 31.2446 14.1678 31.1648 13.9792C31.0858 13.7923 30.9911 13.6157 30.8807 13.4495C30.7621 13.2708 30.6255 13.1041 30.4708 12.9494C30.3161 12.7947 30.1494 12.658 29.9707 12.5394C29.8045 12.4291 29.6279 12.3344 29.4409 12.2553C29.2524 12.1756 29.0598 12.1145 28.8632 12.0722C28.6403 12.0241 28.4122 12.0001 28.1789 12.0001L24.7248 12.0001C24.5397 12.0001 24.3682 12.0327 24.2101 12.0981C24.052 12.1634 23.9074 12.2614 23.7764 12.3921C23.6453 12.5227 23.5469 12.667 23.481 12.8249C23.4152 12.9828 23.382 13.1542 23.3814 13.3393L23.3561 21.5645L23.3561 21.5686L23.3561 21.569C23.3563 21.94 23.4875 22.2566 23.7499 22.5188C24.0123 22.781 24.329 22.9121 24.6999 22.912L25.2696 22.9118L24.2391 23.5065C22.6746 24.4118 21.6621 26.0461 21.5341 27.8352L21.5203 28.2207L21.5203 35.1918C21.5203 37.0001 22.4285 38.6946 23.9144 39.6991L24.2415 39.9036L27.87 41.998L12 42C8.80464 42 6.19268 39.5022 6.01019 36.3525L6 36L6 12C6 8.80464 8.49784 6.19268 11.6475 6.01019L12 6L33 6ZM29.5567 22.7327L25.756 24.9261C24.37 25.7281 23.508 27.2221 23.508 28.8241L23.508 34.5881C23.508 36.1901 24.37 37.6841 25.758 38.4841L30.75 41.3661C31.444 41.7681 32.222 41.9681 33 41.9681C33.778 41.9681 34.556 41.7681 35.25 41.3661L40.244 38.4841C41.63 37.6841 42.492 36.1901 42.492 34.5881L42.492 28.8241C42.492 27.2221 41.63 25.7281 40.242 24.9261L35.25 22.0441C33.8809 21.253 32.1828 21.2422 30.8067 22.0119C30.6804 22.1245 30.5474 22.2271 30.4078 22.3197C30.2257 22.4404 30.0324 22.5441 29.8276 22.6307C29.7382 22.6685 29.6479 22.7025 29.5567 22.7327ZM18.4001 21.9502L17.7697 20.3227L15.2959 20.3227L14.6712 21.9471C14.4012 22.6492 13.6374 22.9888 12.9352 22.7188C12.233 22.4487 11.8935 21.6849 12.1635 20.9827L15.2698 12.9053C15.3378 12.7285 15.4387 12.5729 15.5726 12.4388C15.6395 12.3717 15.7118 12.3128 15.7894 12.2622C15.867 12.2115 15.95 12.1691 16.0384 12.1349C16.2113 12.0678 16.3835 12.0363 16.5548 12.0403C16.7261 12.0442 16.8966 12.0837 17.0663 12.1586C17.2359 12.2335 17.3799 12.333 17.4983 12.4569C17.6166 12.5808 17.7093 12.7293 17.7763 12.9022L20.9054 20.9796C21.1772 21.6811 20.8395 22.4458 20.138 22.7176C19.4366 22.9893 18.6719 22.6517 18.4001 21.9502ZM26.0606 15.7958L28.1789 15.7958C28.2554 15.7958 28.3264 15.7822 28.3917 15.7552C28.4571 15.7281 28.5168 15.6875 28.571 15.6334C28.6251 15.5792 28.6657 15.5195 28.6928 15.4541C28.7198 15.3888 28.7334 15.3178 28.7334 15.2413C28.7334 15.1647 28.7198 15.0938 28.6928 15.0284C28.6657 14.9631 28.6251 14.9033 28.571 14.8492C28.5168 14.7951 28.4571 14.7545 28.3917 14.7274C28.3264 14.7003 28.2554 14.6868 28.1789 14.6868L26.064 14.6868L26.0606 15.7958ZM16.5282 17.1182L16.7288 17.636L16.3291 17.636L16.5282 17.1182ZM28.1789 18.4825L26.0524 18.4825L26.047 20.2248L28.4425 20.2241C28.5627 20.2241 28.6741 20.2028 28.7768 20.1603C28.8794 20.1178 28.9732 20.054 29.0582 19.969C29.1432 19.884 29.207 19.7902 29.2495 19.6876C29.292 19.5849 29.3133 19.4735 29.3133 19.3533C29.3133 19.2331 29.292 19.1216 29.2495 19.019C29.207 18.9164 29.1432 18.8226 29.0582 18.7375C28.9732 18.6525 28.8794 18.5888 28.7768 18.5463C28.6741 18.5038 28.5627 18.4825 28.4425 18.4825L28.1789 18.4825ZM18.2927 27.7951C18.0881 27.5427 17.8563 27.3499 17.5973 27.2165C17.4287 27.1296 17.2554 27.0722 17.0776 27.0444L17.0775 27.0444C16.9938 27.0313 16.909 27.0248 16.8232 27.0248C16.7387 27.0248 16.6551 27.0311 16.5724 27.0439C16.4005 27.0704 16.2328 27.1245 16.0694 27.2062C15.8175 27.3321 15.5904 27.5146 15.3881 27.7537C15.1719 28.0092 15.003 28.3066 14.8816 28.6458C14.8632 28.6973 14.8461 28.7491 14.8303 28.8013L14.8303 28.8014C14.7346 29.1178 14.6867 29.4486 14.6867 29.794C14.6867 30.1392 14.7346 30.47 14.8302 30.7863L14.8303 30.7866C14.8461 30.8389 14.8632 30.8907 14.8816 30.9421C15.003 31.2813 15.1719 31.5787 15.3881 31.8343C15.5904 32.0734 15.8175 32.2559 16.0694 32.3818C16.2328 32.4635 16.4005 32.5176 16.5724 32.5441C16.6551 32.5568 16.7387 32.5632 16.8232 32.5632C16.909 32.5632 16.9938 32.5566 17.0776 32.5436L17.0776 32.5435C17.2556 32.5157 17.4289 32.4583 17.5976 32.3714C17.8566 32.2379 18.0885 32.0449 18.2931 31.7924C18.7667 31.2079 19.5981 31.1208 20.1826 31.5944C20.767 32.0681 20.8541 32.8994 20.3805 33.4839C20.0333 33.9124 19.639 34.2669 19.1978 34.5476C19.0781 34.6237 18.955 34.6943 18.8285 34.7596C18.467 34.9459 18.0944 35.0791 17.7107 35.1592C17.4212 35.2197 17.1254 35.2499 16.8232 35.2499C16.5281 35.2499 16.2388 35.221 15.9554 35.1632C15.5828 35.0871 15.2203 34.9611 14.8681 34.785C14.7462 34.724 14.6274 34.6581 14.5117 34.587C14.0762 34.3196 13.6846 33.9805 13.3371 33.5697C13.2498 33.4666 13.1666 33.3605 13.0875 33.2514C12.7807 32.8281 12.5355 32.3601 12.352 31.8474C12.2822 31.6523 12.2227 31.4545 12.1737 31.2543C12.0579 30.7817 12 30.2949 12 29.794C12 29.293 12.0579 28.8063 12.1737 28.3337C12.2227 28.1334 12.2822 27.9357 12.352 27.7405C12.5355 27.2278 12.7807 26.7599 13.0875 26.3366C13.1666 26.2275 13.2498 26.1214 13.3371 26.0182C13.6846 25.6075 14.0761 25.2685 14.5116 25.001L14.5117 25.001C14.6274 24.9299 14.7462 24.8639 14.8681 24.803C15.2203 24.6269 15.5828 24.5008 15.9554 24.4248L15.9555 24.4248C16.2388 24.367 16.5281 24.338 16.8232 24.338C17.1253 24.338 17.421 24.3682 17.7104 24.4287L17.7104 24.4287L17.7105 24.4287C18.094 24.5088 18.4665 24.6419 18.8278 24.8281C18.9543 24.8933 19.0774 24.9639 19.197 25.0399L19.1971 25.04C19.6383 25.3204 20.0324 25.6748 20.3796 26.103C20.8534 26.6873 20.7665 27.5187 20.1822 27.9925C19.5978 28.4663 18.7664 28.3794 18.2927 27.7951ZM33 27.7097C30.794 27.7097 29 29.5037 29 31.7097C29 33.9157 30.794 35.7097 33 35.7097C35.206 35.7097 37 33.9157 37 31.7097C37 29.5037 35.206 27.7097 33 27.7097Z" fill="#191919" fill-rule="evenodd"/>
  <path id="形状结合" d="M35.25 22.0449L40.242 24.9269C41.63 25.7289 42.492 27.2229 42.492 28.8249L42.492 34.5889C42.492 36.1909 41.63 37.6849 40.244 38.4849L35.25 41.3669C34.556 41.7689 33.778 41.9689 33 41.9689C32.222 41.9689 31.444 41.7689 30.75 41.3669L25.758 38.4849C24.37 37.6849 23.508 36.1909 23.508 34.5889L23.508 28.8249C23.508 27.2229 24.37 25.7289 25.756 24.9269L30.75 22.0449C32.136 21.2429 33.862 21.2429 35.25 22.0449ZM33 27.7105C30.794 27.7105 29 29.5045 29 31.7105C29 33.9165 30.794 35.7105 33 35.7105C35.206 35.7105 37 33.9165 37 31.7105C37 29.5045 35.206 27.7105 33 27.7105Z" fill="#AEAEAE" fill-rule="evenodd"/>
</svg>
