<svg viewBox="0 0 48 48" xmlns="http://www.w3.org/2000/svg" xmlns:xlink="http://www.w3.org/1999/xlink" width="48.000000" height="48.000000" fill="none">
  <path id="形状" d="M39.126 16.5L36.9775 36.2049C36.6177 39.5024 33.8328 42 30.5158 42L17.4842 42C14.1672 42 11.3823 39.5024 11.0225 36.2049L8.872 16.5L39.126 16.5ZM20 19.5C19.1716 19.5 18.5 20.1716 18.5 21L18.5 33C18.5 33.8284 19.1716 34.5 20 34.5C20.8284 34.5 21.5 33.8284 21.5 33L21.5 21C21.5 20.1716 20.8284 19.5 20 19.5ZM28 19.5C27.1716 19.5 26.5 20.1716 26.5 21L26.5 33C26.5 33.8284 27.1716 34.5 28 34.5C28.8284 34.5 29.5 33.8284 29.5 33L29.5 21C29.5 20.1716 28.8284 19.5 28 19.5ZM28.3063 6C30.266 6 32.0003 7.26819 32.5945 9.1356L33.346 11.5L40.5 11.5C41.2594 11.5 41.887 12.0643 41.9863 12.7965L42 13C42 13.8284 41.3284 14.5 40.5 14.5L7.5 14.5C6.67157 14.5 6 13.8284 6 13C6 12.1716 6.67157 11.5 7.5 11.5L14.652 11.5L15.4055 9.1357C15.9647 7.37809 17.5339 6.15128 19.3504 6.01303L19.6937 6L28.3063 6Z" fill="#191919" fill-rule="nonzero"/>
  <path id="形状" d="M28.3063 6C30.266 6 32.0003 7.26819 32.5945 9.1356L33.346 11.5L40.5 11.5C41.2594 11.5 41.887 12.0643 41.9863 12.7965L42 13C42 13.8284 41.3284 14.5 40.5 14.5L7.5 14.5C6.67157 14.5 6 13.8284 6 13C6 12.1716 6.67157 11.5 7.5 11.5L14.652 11.5L15.4055 9.1357C15.9647 7.37809 17.5339 6.15128 19.3504 6.01303L19.6937 6L28.3063 6Z" fill="#AEAEAE" fill-rule="nonzero"/>
</svg>
