<svg viewBox="0 0 48 48" xmlns="http://www.w3.org/2000/svg" xmlns:xlink="http://www.w3.org/1999/xlink" width="48.000000" height="48.000000" fill="none">
  <path id="矢量 157" d="M7.48374 4.65827C6.73251 3.8277 5.48959 3.7652 4.65878 4.51642C3.82822 5.26764 3.76572 6.51056 4.51694 7.34137L8.00034 11.1929L8.00034 30.9998C8.00034 32.1199 8.88046 32.9998 10.0003 32.9998L41 32.9996C42.6799 32.9996 44 31.6798 44 29.9996C44 28.3196 42.6799 26.9996 41 26.9996L12.0003 26.9996L12.0003 10.4227C12.0003 10.1749 11.9559 9.93537 11.8668 9.70392C11.7777 9.47272 11.65 9.26496 11.4837 9.08112L7.48374 4.65827ZM15.0001 34.9996C12.2386 34.9996 10.0001 37.2383 10.0001 39.9996C10.0001 42.761 12.2386 44.9996 15.0001 44.9996C17.7613 44.9996 20.0001 42.761 20.0001 39.9996C20.0001 37.2383 17.7613 34.9996 15.0001 34.9996ZM35.0001 34.9996C32.2386 34.9996 30.0001 37.2383 30.0001 39.9996C30.0001 42.761 32.2386 44.9996 35.0001 44.9996C37.7612 44.9996 40 42.761 40 39.9996C40 37.2383 37.7612 34.9996 35.0001 34.9996Z" fill="#191919" fill-rule="evenodd"/>
  <path id="减去顶层" d="M35.0372 27C36.6733 27 37.9999 25.6736 37.9999 24.0371L37.9999 9.96313C37.9999 8.32666 36.6733 7 35.0372 7L18.963 7C17.3267 7 16.0001 8.32666 16.0001 9.96313L16.0001 24.0371C16.0001 25.6736 17.3267 27 18.963 27L35.0372 27ZM26.5 13L26.5 18L31.5 18C32.34 18 33 18.66 33 19.5C33 20.34 32.34 21 31.5 21L26 21C25.8235 21 25.6508 20.9821 25.4819 20.9464C25.3269 20.9136 25.1751 20.8658 25.0264 20.8029C24.8805 20.7412 24.7428 20.6672 24.6133 20.5808C24.4772 20.4901 24.3502 20.3857 24.2322 20.2678C24.1143 20.1498 24.01 20.0228 23.9192 19.8868C23.8329 19.7572 23.7588 19.6195 23.6971 19.4736C23.6342 19.3249 23.5864 19.1731 23.5536 19.0181C23.5179 18.8492 23.5 18.6765 23.5 18.5L23.5 13C23.5 12.16 24.16 11.5 25 11.5C25.84 11.5 26.5 12.16 26.5 13Z" fill="#191919" fill-rule="evenodd"/>
  <path id="减去顶层" d="M35.0372 27C36.6733 27 37.9999 25.6736 37.9999 24.0371L37.9999 9.96313C37.9999 8.32666 36.6733 7 35.0372 7L18.963 7C17.3267 7 16.0001 8.32666 16.0001 9.96313L16.0001 24.0371C16.0001 25.6736 17.3267 27 18.963 27L35.0372 27ZM26.5 13L26.5 18L31.5 18C32.34 18 33 18.66 33 19.5C33 20.34 32.34 21 31.5 21L26 21C25.8235 21 25.6508 20.9821 25.4819 20.9464C25.3269 20.9136 25.1751 20.8658 25.0264 20.8029C24.8805 20.7412 24.7428 20.6672 24.6133 20.5808C24.4772 20.4901 24.3502 20.3857 24.2322 20.2678C24.1143 20.1498 24.01 20.0228 23.9192 19.8868C23.8329 19.7572 23.7588 19.6195 23.6971 19.4736C23.6342 19.3249 23.5864 19.1731 23.5536 19.0181C23.5179 18.8492 23.5 18.6765 23.5 18.5L23.5 13C23.5 12.16 24.16 11.5 25 11.5C25.84 11.5 26.5 12.16 26.5 13Z" fill="#AEAEAE" fill-rule="evenodd"/>
</svg>
