<svg viewBox="0 0 48 48" xmlns="http://www.w3.org/2000/svg" xmlns:xlink="http://www.w3.org/1999/xlink" width="48.000000" height="48.000000" fill="none">
  <path id="减去顶层" d="M27.248 4C28.172 4 29.076 4.376 29.73 5.032L38.984 14.322C39.64 14.98 40.002 15.856 40.002 16.788L40.002 38.004C40.002 41.312 37.31 44.004 34.002 44.004L14 44.004C10.692 44.004 8 41.312 8 38.004L8 10C8 6.692 10.692 4 14 4L27.248 4ZM27.598 7.144L27.5994 13.4766C27.5994 15.0295 28.7952 16.3167 30.3116 16.4628L30.5994 16.4766L36.8917 16.4756L27.598 7.144ZM25.8982 27.8068L24.7096 27.3809C24.2603 27.2101 24.1244 27.0378 24.0991 26.8699L24.1762 26.6815C24.4566 26.1089 24.9275 26.1395 26.1716 26.8489C26.7305 27.1676 27.4447 26.9778 27.767 26.4251C28.0892 25.8724 27.8973 25.166 27.3384 24.8473C24.7386 23.3649 22.6026 23.8131 21.8256 26.3083L21.7789 26.5413L21.7605 26.8624C21.7351 28.3103 22.551 29.0587 24.1546 29.6425L25.5264 30.1345L25.5496 30.2412C25.5592 30.3159 25.5549 30.3995 25.5224 30.4514C25.3565 30.716 24.6526 30.8587 23.1671 30.4705C22.5435 30.3075 21.9042 30.6754 21.7394 31.2922C21.5746 31.9091 21.9466 32.5413 22.5703 32.7042C24.9387 33.3232 26.6939 32.9675 27.508 31.6687C28.223 30.5278 27.8947 28.9538 26.8671 28.2153L26.6304 28.0838L26.4381 28.0078L25.8982 27.8068ZM35.3987 31.8268C35.5524 31.6715 35.6989 31.5026 35.8409 31.319C36.1077 31.1318 36.2665 30.8263 36.2665 30.5004L36.2665 28.6759C36.2665 28.2065 35.9401 27.8003 35.4818 27.6993C35.3626 27.6574 35.2328 27.6343 35.095 27.6343L33.0152 27.6343L32.8078 27.6529C32.2695 27.7506 31.8614 28.2217 31.8614 28.7881L31.88 28.9955C31.9777 29.5338 32.4488 29.942 33.0152 29.942L33.9516 29.941L33.8872 30.0641L33.7585 30.2035C33.4231 30.5424 33.0932 30.6924 32.652 30.6924C31.4717 30.6924 30.5081 29.7146 30.5081 28.5001C30.5081 27.2856 31.4717 26.3078 32.652 26.3078C33.1463 26.3078 33.6126 26.478 33.9905 26.7875L34.1628 26.9045C34.6411 27.1699 35.2554 27.064 35.6143 26.6258C36.018 26.1328 35.9456 25.4058 35.4526 25.002C34.6665 24.3583 33.6851 24.0001 32.652 24.0001C30.1896 24.0001 28.2004 26.0185 28.2004 28.5001C28.2004 30.9816 30.1896 33.0001 32.652 33.0001C33.7375 33.0001 34.6468 32.5865 35.3987 31.8268ZM14.4767 28.7216L15.2307 30.0275C15.2884 30.2427 15.4367 30.527 15.6145 30.6612C15.8162 30.9008 16.1186 31.032 16.4315 31.0157C16.7443 31.032 17.0467 30.9008 17.2485 30.6612C17.4262 30.527 17.5746 30.2427 17.6322 30.0275L18.3864 28.7213L18.8678 32.1465C18.9047 32.4091 19.0444 32.6464 19.2562 32.806C19.468 32.9656 19.7346 33.0345 19.9972 32.9976L20.3019 32.9548C20.8488 32.8779 21.2299 32.3723 21.153 31.8253L20.2536 25.4258C20.3517 25.0785 20.2551 24.7052 20.0007 24.4492C19.8358 24.2197 19.5815 24.0706 19.3007 24.0389C19.1262 23.9889 18.9413 23.9872 18.766 24.0342C18.6663 24.0609 18.5714 24.1029 18.4846 24.1586C18.156 24.3017 17.9291 24.6097 17.8898 24.966L16.4315 27.4919L14.9734 24.9665C14.9343 24.6097 14.707 24.3013 14.3778 24.1583C14.1357 24.0031 13.8385 23.9596 13.5621 24.039C13.3845 24.0591 13.2156 24.1264 13.0728 24.234C12.9926 24.2945 12.9219 24.3667 12.8631 24.4483C12.608 24.7045 12.511 25.0785 12.6095 25.4264L11.7102 31.8253C11.6333 32.3723 12.0143 32.8779 12.5613 32.9548L12.866 32.9976C13.1286 33.0345 13.3951 32.9656 13.6069 32.806C13.8188 32.6464 13.9585 32.4091 13.9954 32.1465L14.4767 28.7216Z" fill="#191919" fill-rule="evenodd"/>
  <path id="合并" d="M35.8407 31.3189C35.6988 31.5025 35.5523 31.6714 35.3986 31.8267C34.6467 32.5864 33.7374 33 32.6519 33C30.1895 33 28.2003 30.9815 28.2003 28.5C28.2003 26.0185 30.1895 24 32.6519 24C33.685 24 34.6664 24.3583 35.4525 25.002C35.9455 25.4057 36.0179 26.1327 35.6142 26.6257C35.2553 27.064 34.641 27.1699 34.1627 26.9044L33.9904 26.7874C33.6125 26.4779 33.1462 26.3077 32.6519 26.3077C31.4716 26.3077 30.508 27.2855 30.508 28.5C30.508 29.7145 31.4716 30.6923 32.6519 30.6923C33.0931 30.6923 33.423 30.5423 33.7584 30.2034L33.8871 30.064L33.9515 29.9409L33.0151 29.9419C32.4487 29.9419 31.9775 29.5337 31.8798 28.9955L31.8613 28.7881C31.8613 28.2216 32.2694 27.7505 32.8077 27.6528L33.0151 27.6342L35.0949 27.6342C35.2327 27.6342 35.3625 27.6573 35.4817 27.6992C35.94 27.8002 36.2664 28.2064 36.2664 28.6758L36.2664 30.5003C36.2664 30.8262 36.1076 31.1317 35.8407 31.3189ZM24.7095 27.3809L25.8981 27.8067L26.438 28.0077L26.6303 28.0837L26.867 28.2152C27.8946 28.9538 28.2229 30.5277 27.5078 31.6686C26.6938 32.9674 24.9386 33.3231 22.5702 32.7042C21.9465 32.5412 21.5745 31.909 21.7393 31.2921C21.9041 30.6753 22.5433 30.3074 23.167 30.4704C24.6524 30.8586 25.3564 30.7159 25.5222 30.4513C25.5548 30.3994 25.5591 30.3158 25.5495 30.2411L25.5263 30.1345L24.1545 29.6424C22.5509 29.0587 21.735 28.3102 21.7604 26.8623L21.7788 26.5412L21.8255 26.3082C22.6025 23.8131 24.7385 23.3648 27.3383 24.8472C27.8972 25.1659 28.0891 25.8723 27.7668 26.425C27.4446 26.9777 26.7304 27.1675 26.1715 26.8488C24.9274 26.1394 24.4565 26.1088 24.1761 26.6814L24.0989 26.8698C24.1243 27.0377 24.2602 27.2101 24.7095 27.3809ZM15.2306 30.0275L14.4766 28.7216L13.9953 32.1464C13.9584 32.4091 13.8186 32.6463 13.6068 32.8059C13.395 32.9655 13.1285 33.0344 12.8658 32.9975L12.5611 32.9547C12.0142 32.8778 11.6332 32.3722 11.7101 31.8253L12.6094 25.4263C12.5109 25.0784 12.6078 24.7044 12.863 24.4482C12.9218 24.3667 12.9924 24.2944 13.0727 24.2339C13.2155 24.1264 13.3844 24.059 13.562 24.0389C13.8384 23.9595 14.1356 24.003 14.3777 24.1582C14.7069 24.3012 14.9342 24.6096 14.9733 24.9664L16.4313 27.4919L17.8897 24.9659C17.929 24.6096 18.1559 24.3016 18.4845 24.1585C18.5713 24.1028 18.6662 24.0608 18.7659 24.0341C18.9412 23.9872 19.1261 23.9888 19.3006 24.0389C19.5814 24.0706 19.8357 24.2196 20.0005 24.4491C20.2549 24.7051 20.3516 25.0784 20.2535 25.4258L21.1529 31.8253C21.2297 32.3722 20.8487 32.8778 20.3018 32.9547L19.9971 32.9975C19.7345 33.0344 19.4679 32.9655 19.2561 32.8059C19.0443 32.6463 18.9046 32.4091 18.8677 32.1464L18.3863 28.7212L17.6321 30.0275C17.5745 30.2426 17.4261 30.5269 17.2483 30.6611C17.0466 30.9007 16.7442 31.0319 16.4313 31.0156C16.1185 31.0319 15.8161 30.9007 15.6143 30.6611C15.4366 30.5269 15.2882 30.2426 15.2306 30.0275Z" fill="#AEAEAE" fill-rule="evenodd"/>
</svg>
