<svg viewBox="0 0 48 48" xmlns="http://www.w3.org/2000/svg" xmlns:xlink="http://www.w3.org/1999/xlink" width="48.000000" height="48.000000" fill="none">
  <path id="Fill-1" d="M33 25.4468C31.62 25.4468 30.5 24.3268 30.5 22.9468C30.5 21.5668 31.62 20.4468 33 20.4468C34.38 20.4468 35.5 21.5668 35.5 22.9468C35.5 24.3268 34.38 25.4468 33 25.4468ZM24 25.4468C22.62 25.4468 21.5 24.3268 21.5 22.9468C21.5 21.5668 22.62 20.4468 24 20.4468C25.38 20.4468 26.5 21.5668 26.5 22.9468C26.5 24.3268 25.38 25.4468 24 25.4468ZM15 25.4468C13.62 25.4468 12.5 24.3268 12.5 22.9468C12.5 21.5668 13.62 20.4468 15 20.4468C16.38 20.4468 17.5 21.5668 17.5 22.9468C17.5 24.3268 16.38 25.4468 15 25.4468ZM24 6.19678C13.11 6.19678 4.25 13.7108 4.25 22.9468C4.25 26.8448 5.862 30.6248 8.796 33.6268C8.456 36.1328 7.606 38.4588 6.274 40.5448L5.47 41.8028L6.958 41.6968C10.32 41.4588 13.548 40.3128 16.322 38.3788C17.05 38.6468 18.702 39.1948 20.55 39.4388C20.696 39.4608 22.332 39.6988 24 39.6988C34.89 39.6988 43.75 32.1828 43.75 22.9468C43.75 13.7108 34.89 6.19678 24 6.19678Z" fill="#191919" fill-rule="evenodd"/>
  <path id="形状结合" d="M15 20.5C16.38 20.5 17.5 21.62 17.5 23C17.5 24.38 16.38 25.5 15 25.5C13.62 25.5 12.5 24.38 12.5 23C12.5 21.62 13.62 20.5 15 20.5ZM33 20.5C34.38 20.5 35.5 21.62 35.5 23C35.5 24.38 34.38 25.5 33 25.5C31.62 25.5 30.5 24.38 30.5 23C30.5 21.62 31.62 20.5 33 20.5ZM24 20.5C25.38 20.5 26.5 21.62 26.5 23C26.5 24.38 25.38 25.5 24 25.5C22.62 25.5 21.5 24.38 21.5 23C21.5 21.62 22.62 20.5 24 20.5Z" fill="#AEAEAE" fill-rule="evenodd"/>
</svg>
