<svg viewBox="0 0 48 48" xmlns="http://www.w3.org/2000/svg" xmlns:xlink="http://www.w3.org/1999/xlink" width="48.000000" height="48.000000" fill="none">
  <path id="形状结合" d="M37.0423 4.49951C40.2309 4.49951 42.8362 6.98941 43.0182 10.1318L43.0283 10.4835L43.0283 25.1635C43.0283 26.5133 42.5771 27.8006 41.7622 28.8432C41.252 29.4959 40.3093 29.6115 39.6566 29.1014C39.0633 28.6376 38.9138 27.8163 39.2748 27.1805C39.6132 26.7475 39.9487 26.0474 40.0099 25.4973L40.0283 25.1635L40.0283 10.4835C40.0283 8.93153 38.845 7.65766 37.3301 7.51316L37.0423 7.49951L16.9717 7.49951C15.6863 7.49951 14.5917 8.31169 14.1725 9.45189L32.5616 9.45151C35.0456 9.45151 37.0616 11.4655 37.0616 13.9515L37.0616 33.9515C37.0616 36.4355 35.0456 38.4515 32.5616 38.4515L20.5676 38.4515L14.0776 43.2995C13.4176 43.7935 12.4796 43.3215 12.4796 42.4975L12.4796 38.4515L10.5616 38.4515C8.0736 38.4515 6.0616 36.4355 6.0616 33.9515L6.0616 13.9515C6.0616 11.4655 8.0736 9.45151 10.5616 9.45151L11.078 9.45295C11.5465 6.75088 13.8254 4.67154 16.6202 4.50967L16.9717 4.49951L37.0423 4.49951ZM21.9796 26.0075L13.9796 26.0075C13.1516 26.0075 12.4796 26.6795 12.4796 27.5075C12.4796 28.3355 13.1516 29.0075 13.9796 29.0075L21.9796 29.0075C22.8096 29.0075 23.4796 28.3355 23.4796 27.5075C23.4796 26.6795 22.8096 26.0075 21.9796 26.0075ZM26.4376 18.0075L13.9796 18.0075C13.1516 18.0075 12.4796 18.6795 12.4796 19.5075C12.4796 20.3355 13.1516 21.0075 13.9796 21.0075L26.4376 21.0075C27.2656 21.0075 27.9376 20.3355 27.9376 19.5075C27.9376 18.6795 27.2656 18.0075 26.4376 18.0075Z" fill="#191919" fill-rule="evenodd"/>
  <path id="矢量 1724" d="M43.0183 10.1318C42.8362 6.98926 40.231 4.49951 37.0425 4.49951L16.9718 4.49951L16.6202 4.50977C13.8254 4.67139 11.5466 6.75098 11.0781 9.45312L14.1725 9.45166C14.5918 8.31152 15.6864 7.49951 16.9718 7.49951L37.0425 7.49951L37.3302 7.51318C38.8451 7.65771 40.0284 8.93164 40.0284 10.4834L40.0284 25.1636L40.01 25.4976C39.9487 26.0474 39.6133 26.7476 39.2749 27.1807C38.9138 27.8164 39.0634 28.6377 39.6567 29.1016C40.3094 29.6113 41.2521 29.4961 41.7623 28.8433C42.5771 27.8008 43.0284 26.5132 43.0284 25.1636L43.0284 10.4834L43.0183 10.1318Z" fill="#AEAEAE" fill-rule="evenodd"/>
</svg>
