<svg viewBox="0 0 48 48" xmlns="http://www.w3.org/2000/svg" xmlns:xlink="http://www.w3.org/1999/xlink" width="48.000000" height="48.000000" fill="none">
  <path id="形状结合" d="M34.9875 5.99325C38.8595 9.86525 40.9915 15.0152 40.9915 20.4893C40.9915 20.6721 40.967 20.8492 40.9211 21.0174C40.9049 21.0705 40.858 21.2117 40.8368 21.2623C40.7774 21.396 40.6803 21.5711 40.5943 21.6861C40.4412 21.8833 40.2211 22.0869 40.0047 22.2142C39.9534 22.2431 39.84 22.302 39.7847 22.3259C39.651 22.3788 39.4406 22.4443 39.2939 22.4665C39.2143 22.4765 39.0725 22.4893 38.9915 22.4893C38.9104 22.4893 38.8304 22.4844 38.7518 22.4751L38.9915 22.4893C38.8858 22.4893 38.8564 22.4918 38.7518 22.4751C38.689 22.4655 38.5502 22.4416 38.4897 22.426C38.4264 22.4089 38.3309 22.379 38.2716 22.3562C38.2195 22.3338 38.0864 22.2746 38.0375 22.2481C37.9774 22.2131 37.8581 22.1396 37.8026 22.0985C37.7278 22.0412 37.6245 21.9531 37.5598 21.8869L33.9845 18.3091C33.2025 17.529 33.2025 16.2631 33.9845 15.481C34.547 14.9171 35.3623 14.7599 36.0665 15.0093C35.257 12.7089 33.9351 10.5977 32.1575 8.82125C25.7235 2.38725 15.2555 2.38925 8.8235 8.82125C2.3895 15.2552 2.3895 25.7233 8.8235 32.1572C15.2575 38.5912 25.7255 38.5912 32.1575 32.1572C32.9395 31.3752 34.2055 31.3752 34.9875 32.1572C35.7675 32.9372 35.7675 34.2033 34.9875 34.9852C30.9915 38.9813 25.7415 40.9792 20.4915 40.9792C15.2415 40.9792 9.9915 38.9813 5.9955 34.9852C-1.9985 26.9933 -1.9985 13.9852 5.9955 5.99325C13.9875 -1.99675 26.9935 -1.99875 34.9875 5.99325Z" fill="#191919" fill-rule="evenodd" transform="matrix(-1,0,0,1,44.4958,3.51025)"/>
</svg>
