<svg viewBox="0 0 48 48" xmlns="http://www.w3.org/2000/svg" xmlns:xlink="http://www.w3.org/1999/xlink" width="48.000000" height="48.000000" fill="none">
  <path id="合并" d="M42 12C42 8.68629 39.3137 6 36 6L12 6C8.68629 6 6 8.68629 6 12L6 36C6 39.3137 8.68629 42 12 42L36 42C39.3137 42 42 39.3137 42 36L42 12ZM28 9L20 9L20 22.4922L28 22.4924L28 9ZM31 22.4925L38.9253 22.4927L39 12C39 10.4406 37.8102 9.1591 36.2889 9.01373L36 9L31 9L31 22.4926L31 22.4925ZM17 22.4922L17 9L12 9C10.3431 9 9 10.3431 9 12L9 22.492L17 22.4922ZM30.924 25.492L39 25.486L39 36L38.9863 36.2889C38.8409 37.8102 37.5594 39 36 39L30.924 39L30.924 25.492ZM9 25.492L16.924 25.492L16.924 39L12 39L11.7111 38.9863C10.1898 38.8409 9 37.5594 9 36L9 25.492ZM19.924 25.492L27.924 25.492L27.924 39L19.924 39L19.924 25.492Z" fill="#191919" fill-rule="evenodd"/>
</svg>
