<svg viewBox="0 0 48 48" xmlns="http://www.w3.org/2000/svg" xmlns:xlink="http://www.w3.org/1999/xlink" width="48.000000" height="48.000000" fill="none">
  <path id="形状结合" d="M39.0032 40.9997C39.8316 40.9997 40.5032 41.6713 40.5032 42.4997C40.5032 43.2591 39.9389 43.8867 39.2068 43.9861L39.0032 43.9997L9.00322 43.9997C8.17479 43.9997 7.50322 43.3282 7.50322 42.4997C7.50322 41.7404 8.06752 41.1128 8.79968 41.0134L9.00322 40.9997L39.0032 40.9997ZM13.6715 9.88486L13.8934 9.9677L28.7109 16.8771L36.7425 13.9532C37.6359 13.6281 38.5963 13.5412 39.5288 13.6975L39.9264 13.7794L42.3397 14.3672C44.8873 14.9865 45.8718 18.0368 44.2366 20.0501C43.7485 20.5656 42.9944 21.1783 42.3478 21.4736L41.9524 21.6363L12.6339 32.3057C11.4922 32.7227 10.2254 32.5144 9.27961 31.7747L9.02994 31.5598L3.43194 26.2578C2.67627 25.5421 2.87023 24.3177 3.75153 23.8477L8.3948 22.1431C8.76155 22.0097 9.16267 22.0254 9.51416 22.1809L9.71843 22.2909L11.2092 23.2473L14.2677 22.1335C14.9811 21.8734 15.764 22.1886 16.1081 22.8424C16.3682 23.5559 16.1356 24.5254 15.4817 24.8694L11.5372 26.322C11.1702 26.4558 10.7687 26.4402 10.4169 26.2847L10.2124 26.1746L8.72122 25.2153L7.25522 25.7473L11.0919 29.3808C11.1954 29.4786 11.3327 29.5262 11.4702 29.5164L40.9218 18.8189C41.1979 18.7174 41.4523 18.5703 41.6868 18.3718L41.8952 18.1713C42.0443 17.9091 42.0226 17.468 41.7551 17.3287L39.2148 16.6937C38.831 16.5998 38.4321 16.5985 38.0509 16.6881L37.7687 16.7722L32.3602 18.7397C32.7168 19.172 32.8155 19.7874 32.5629 20.3291C32.2419 21.0173 31.4652 21.3476 30.7597 21.1282L28.0293 19.8711L13.1872 12.9473L11.6532 13.5053L22.7138 21.9215C23.3131 22.3775 23.4732 23.1968 23.1204 23.8372C22.6643 24.4366 21.7238 24.7829 21.0833 24.4301L7.65308 14.2308C6.76773 13.5571 6.90975 12.2154 7.84979 11.7158L12.7464 9.91762C13.0454 9.80876 13.3693 9.79852 13.6715 9.88486Z" fill="#191919" fill-rule="evenodd"/>
  <path id="形状结合" d="M39.0034 41.0005C39.8318 41.0005 40.5034 41.6721 40.5034 42.5005C40.5034 43.2599 39.9391 43.8875 39.207 43.9868L39.0034 44.0005L9.00342 44.0005C8.17499 44.0005 7.50342 43.3289 7.50342 42.5005C7.50342 41.7411 8.06773 41.1135 8.79988 41.0142L9.00342 41.0005L39.0034 41.0005Z" fill="#AEAEAE" fill-rule="evenodd"/>
</svg>
