<svg viewBox="0 0 48 48" xmlns="http://www.w3.org/2000/svg" xmlns:xlink="http://www.w3.org/1999/xlink" width="48.000000" height="48.000000" fill="none">
  <path id="合并" d="M12.9963 17.5L35.0018 17.5C35.5071 17.5 36.0012 17.5522 36.4839 17.6565C36.9055 17.7477 37.3185 17.8786 37.7228 18.0493C38.1222 18.2179 38.4997 18.4195 38.8555 18.6541C39.2451 18.911 39.6085 19.2075 39.9459 19.5435C40.2928 19.8891 40.5978 20.2622 40.8608 20.6628C41.0875 21.0081 41.283 21.3738 41.4473 21.76C41.6215 22.1692 41.7545 22.5874 41.8463 23.0144C41.9488 23.4907 42 23.9781 42 24.4764L42 34.5236C42 35.022 41.9488 35.5094 41.8463 35.9858C41.7544 36.4127 41.6214 36.8308 41.4473 37.24C41.283 37.6261 41.0876 37.9918 40.861 38.337C40.5979 38.7377 40.2929 39.1109 39.9459 39.4565C39.6086 39.7925 39.2451 40.089 38.8555 40.3458C38.4997 40.5805 38.1222 40.7821 37.7228 40.9507C37.3185 41.1214 36.9055 41.2523 36.4839 41.3435C36.0012 41.4478 35.5071 41.5 35.0018 41.5L12.9963 41.5C12.49 41.5 11.9951 41.4476 11.5115 41.3428C11.0909 41.2517 10.6789 41.121 10.2755 40.9506C9.8764 40.7821 9.49907 40.5806 9.1435 40.3461C8.75385 40.0891 8.39032 39.7925 8.05293 39.4562C7.70688 39.1114 7.4026 38.7391 7.1401 38.3394C6.91286 37.9934 6.71692 37.6269 6.55228 37.2397C6.3786 36.8313 6.24588 36.4141 6.15413 35.9881C6.05138 35.511 6 35.0228 6 34.5236L6 24.4764C6 23.9772 6.05137 23.489 6.15412 23.0119L6.15413 23.0119C6.24588 22.5859 6.3786 22.1687 6.55228 21.7603C6.71692 21.3731 6.91285 21.0066 7.14008 20.6606L7.14008 20.6606C7.40259 20.2609 7.70687 19.8886 8.05293 19.5438C8.39032 19.2075 8.75383 18.9109 9.14348 18.654L9.14348 18.654C9.49906 18.4194 9.8764 18.2179 10.2755 18.0494C10.6789 17.879 11.0909 17.7483 11.5116 17.6571L11.5116 17.6571C11.9951 17.5524 12.4901 17.5 12.9963 17.5ZM12.9963 20.5C12.6925 20.5 12.3961 20.5328 12.1072 20.5985C11.8811 20.6499 11.6596 20.7214 11.4426 20.813C11.2226 20.906 11.014 21.0165 10.817 21.1447C10.5857 21.2951 10.3702 21.4698 10.1705 21.6688C9.96251 21.8761 9.781 22.1004 9.62599 22.3417C9.5057 22.529 9.40136 22.7266 9.31299 22.9343C9.21905 23.1552 9.14625 23.3809 9.0946 23.6113L9.0946 23.6113C9.03153 23.8926 9 24.181 9 24.4764L9 34.5236C9 34.819 9.03154 35.1074 9.09461 35.3888C9.14626 35.6191 9.21905 35.8448 9.31299 36.0657C9.40137 36.2735 9.5057 36.471 9.62601 36.6583C9.78101 36.8996 9.96252 37.1239 10.1705 37.3312C10.3702 37.5302 10.5857 37.7049 10.8169 37.8553C11.014 37.9835 11.2226 38.094 11.4426 38.187C11.6596 38.2786 11.8811 38.3501 12.1073 38.4015C12.3961 38.4672 12.6925 38.5 12.9963 38.5L35.0018 38.5C35.3048 38.5 35.6003 38.4674 35.8884 38.4021C36.1155 38.3506 36.3381 38.2789 36.556 38.1869C36.7764 38.0939 36.9852 37.9832 37.1826 37.8548C37.4138 37.7044 37.6292 37.5298 37.8288 37.331C38.0378 37.1228 38.22 36.8976 38.3755 36.6552C38.4951 36.4687 38.5989 36.2721 38.6869 36.0653C38.7812 35.8437 38.8542 35.6173 38.9059 35.3862C38.9686 35.1056 39 34.8181 39 34.5236L39 24.4764C39 24.182 38.9686 23.8945 38.9059 23.614C38.8542 23.3828 38.7812 23.1564 38.6869 22.9347C38.5988 22.7278 38.495 22.5311 38.3753 22.3446C38.2199 22.1023 38.0377 21.8771 37.8288 21.669C37.6291 21.4702 37.4137 21.2955 37.1825 21.1452C36.9852 21.0168 36.7763 20.9061 36.556 20.8131C36.3381 20.7211 36.1155 20.6494 35.8884 20.5979C35.6003 20.5326 35.3047 20.5 35.0018 20.5L12.9963 20.5ZM31.8658 24.3958C32.3343 24.8727 32.374 25.616 31.9869 26.1381L23.501 34.6787C23.0314 35.1488 22.152 35.0633 21.6349 34.6787L17.1421 30.1727C16.6224 29.6525 16.6189 28.8055 17.1342 28.2809C17.6027 27.804 18.4878 27.8866 19.0082 28.273L22.5668 31.8436L29.9918 24.3878C30.5115 23.8676 31.3505 23.8712 31.8658 24.3958Z" fill="#191919" fill-rule="evenodd"/>
  <path id="合并" d="M32 6.5L16 6.5C15.16 6.5 14.5 7.16 14.5 8C14.5 8.84 15.16 9.5 16 9.5L32 9.5C32.84 9.5 33.5 8.84 33.5 8C33.5 7.16 32.84 6.5 32 6.5ZM36.5 12.5L11.5 12.5C10.66 12.5 10 13.16 10 14C10 14.84 10.66 15.5 11.5 15.5L36.5 15.5C37.34 15.5 38 14.84 38 14C38 13.16 37.34 12.5 36.5 12.5Z" fill="#AEAEAE" fill-rule="evenodd"/>
</svg>
