<svg viewBox="0 0 48 48" xmlns="http://www.w3.org/2000/svg" xmlns:xlink="http://www.w3.org/1999/xlink" width="48.000000" height="48.000000" fill="none">
  <path id="减去顶层" d="M33 17.5C34.8346 17.5 36.5477 18.02 38 18.9207L38 11.5L37.9898 11.1475C37.8073 7.99784 35.1954 5.5 32 5.5L11 5.5L10.6475 5.51019C7.49784 5.69268 5 8.30464 5 11.5L5 35.5L5.01019 35.8525C5.19268 39.0022 7.80464 41.5 11 41.5L20 41.4989L20 40.6431C20 37.374 22.3054 33.6182 25.4521 32.7695C24.2276 31.1699 23.5 29.1699 23.5 27C23.5 26.6308 23.5211 26.2665 23.5621 25.9082L21.6312 25.9082L21.6312 28.7937C21.6312 29.6338 20.9712 30.2937 20.1312 30.2937C19.2912 30.2937 18.6312 29.6338 18.6312 28.7937L18.6312 25.9082L14.5 25.9082C13.66 25.9082 13 25.2483 13 24.4082C13 23.5684 13.66 22.9082 14.5 22.9082L18.6312 22.9082L18.6312 20.6458L14.6229 20.6458C13.7829 20.6458 13.1229 19.9859 13.1229 19.1458C13.1229 18.3059 13.7829 17.6458 14.6229 17.6458L18.4137 17.6458L15.4516 13.9432C14.9269 13.2874 15.0299 12.3597 15.6859 11.835C16.3418 11.3101 17.2695 11.4131 17.7942 12.0691L20.1654 15.0332L22.7085 12.0362C23.252 11.3956 24.1822 11.3194 24.8227 11.8628C25.4632 12.4063 25.5395 13.3367 24.996 13.9771L21.8829 17.6458L25.6395 17.6458C26.4795 17.6458 27.1395 18.3059 27.1395 19.1458C27.1395 19.2932 27.1192 19.435 27.0812 19.5687C28.7047 18.2739 30.762 17.5 33 17.5ZM25.9695 20.6107C25.8636 20.6337 25.7532 20.6458 25.6395 20.6458L21.6312 20.6458L21.6312 22.9082L24.4239 22.9082C24.8263 22.0665 25.3489 21.2932 25.9695 20.6107Z" fill="#191919" fill-rule="evenodd"/>
  <path id="合并" d="M26.3333 27.2692C26.3333 31.0078 29.3181 34.0385 33 34.0385L29.25 34.0385C25.7982 34.0385 23 36.7444 23 40.0824L23 41.6667C23 42.1269 23.3731 42.5 23.8333 42.5L42.1667 42.5C42.6269 42.5 43 42.1269 43 41.6667L43 40.0824C43 36.7444 40.2018 34.0385 36.75 34.0385L33 34.0385C36.6819 34.0385 39.6667 31.0078 39.6667 27.2692C39.6667 23.5307 36.6819 20.5 33 20.5C29.3181 20.5 26.3333 23.5307 26.3333 27.2692Z" fill="#AEAEAE" fill-rule="evenodd"/>
</svg>
