<svg viewBox="0 0 48 48" xmlns="http://www.w3.org/2000/svg" xmlns:xlink="http://www.w3.org/1999/xlink" width="48.000000" height="48.000000" fill="none">
  <path id="减去顶层" d="M30.54 4.17253C31.1533 4.61434 31.5867 5.18141 31.84 5.87379L33.52 5.87379C34.6734 5.87379 35.7467 6.16737 36.74 6.75425C37.7267 7.34113 38.5167 8.13233 39.11 9.12804C39.7033 10.1238 40 11.192 40 12.3328L40 24.4245L37.02 22.6951L37.02 12.3328C37.02 11.3832 36.67 10.5689 35.97 9.88968C35.2633 9.21049 34.4467 8.87086 33.52 8.87086L31.98 8.87086L31.98 10.3446C31.98 11.2612 31.6367 12.0659 30.95 12.7583C30.2633 13.4573 29.44 13.8066 28.48 13.8066L15.52 13.8066C14.56 13.8066 13.7367 13.4573 13.05 12.7583C12.3633 12.0659 12.02 11.2612 12.02 10.3446L12.02 8.87086L10.48 8.87086C9.51998 8.87086 8.70336 9.21049 8.03003 9.88968C7.3567 10.5689 7.02002 11.3832 7.02002 12.3328L7.02002 37.0905C7.02002 38.0401 7.3567 38.8544 8.03003 39.5336C8.70336 40.2128 9.51998 40.5524 10.48 40.5524L22.9175 40.5524C23.3747 41.2408 23.9883 41.8275 24.7257 42.2557L26.8699 43.5L10.48 43.5C9.32665 43.5 8.25334 43.2067 7.26001 42.6198C6.27334 42.0329 5.48335 41.2481 4.89001 40.2656C4.29668 39.283 4 38.2247 4 37.0905L4 12.3328C4 11.192 4.29668 10.1238 4.89001 9.12804C5.48335 8.13233 6.27334 7.34113 7.26001 6.75425C8.25334 6.16737 9.32665 5.87379 10.48 5.87379L12.16 5.87379C12.4133 5.18141 12.8467 4.61434 13.46 4.17253C14.0667 3.72413 14.7534 3.5 15.52 3.5L28.48 3.5C29.2466 3.5 29.9333 3.72413 30.54 4.17253ZM15.14 6.58617C15.04 6.68509 14.99 6.81357 14.99 6.97182L14.99 10.3446C14.99 10.6612 15.1667 10.8194 15.52 10.8194L28.48 10.8194C28.64 10.8194 28.7667 10.77 28.86 10.6711C28.96 10.5788 29.01 10.4699 29.01 10.3446L29.01 6.97182C29.01 6.81357 28.96 6.68509 28.86 6.58617C28.7667 6.49386 28.64 6.44756 28.48 6.44756L15.52 6.44756C15.36 6.44756 15.2333 6.49386 15.14 6.58617ZM15 19C15 17.8954 14.1046 17 13 17C11.8954 17 11 17.8954 11 19C11 20.1046 11.8954 21 13 21C14.1046 21 15 20.1046 15 19ZM15 27.0096C15 25.9051 14.1046 25.0096 13 25.0096C11.8954 25.0096 11 25.9051 11 27.0096C11 28.1142 11.8954 29.0096 13 29.0096C14.1046 29.0096 15 28.1142 15 27.0096ZM15 35.0193C15 33.9147 14.1046 33.0193 13 33.0193C11.8954 33.0193 11 33.9147 11 35.0193C11 36.1238 11.8954 37.0193 13 37.0193C14.1046 37.0193 15 36.1238 15 35.0193Z" fill="#191919" fill-rule="evenodd"/>
  <path id="合并" d="M36.242 24.5732L35.9153 24.4019C34.5879 23.774 33.0269 23.8311 31.7418 24.5733L26.7498 27.4553L26.4598 27.6378C25.2395 28.4722 24.5 29.8594 24.5 31.3522L24.5 37.1162L24.513 37.4586C24.6253 38.9326 25.4571 40.2665 26.7498 41.0131L31.742 43.8953L32.0687 44.0665C33.3961 44.6945 34.9571 44.6374 36.2422 43.8951L41.234 41.0133L41.524 40.8307C42.7445 39.9963 43.484 38.6091 43.484 37.1162L43.484 31.3522L43.471 31.0098C43.3587 29.5359 42.5269 28.202 41.2342 27.4553L36.242 24.5732ZM33.242 27.1713L33.4468 27.0728C33.8672 26.9087 34.3442 26.9415 34.7418 27.1711L39.9217 30.1815C40.274 30.4636 40.484 30.8929 40.484 31.3522L40.484 37.1162L40.4668 37.3428C40.3987 37.7889 40.1318 38.1854 39.7338 38.4153L34.742 41.2972L34.5372 41.3956C34.1168 41.5597 33.6398 41.5269 33.2422 41.2973L28.0623 38.2869C27.71 38.0049 27.5 37.5755 27.5 37.1162L27.5 31.3522L27.5172 31.1256C27.5853 30.6796 27.8522 30.283 28.2502 30.0531L33.242 27.1713ZM38.5649 31.3906C39.032 31.8612 39.0715 32.5947 38.6856 33.1098L34.2289 37.5373C33.7607 38.0012 32.884 37.9169 32.3684 37.5373L29.8909 35.091C29.3728 34.5776 29.3693 33.7419 29.883 33.2242C30.3501 32.7536 31.2325 32.8351 31.7513 33.2164L33.2974 34.7398L36.6966 31.3827C37.2147 30.8694 38.0512 30.8729 38.5649 31.3906Z" fill="#AEAEAE" fill-rule="evenodd"/>
</svg>
