<svg viewBox="0 0 48 48" xmlns="http://www.w3.org/2000/svg" xmlns:xlink="http://www.w3.org/1999/xlink" width="48.000000" height="48.000000" fill="none">
  <path id="减去顶层" d="M23.5052 3.50846C17.3381 3.72227 14.2475 7.97538 14.2475 14.5061L14.252 14.832C13.5317 15.9511 13.2986 17.6502 13.7975 19.0962L13.926 19.4331C14.3418 20.4259 15.025 21.2515 15.8565 21.7621L16.106 21.902L16.4177 22.4167C16.5204 22.5771 16.6264 22.734 16.7358 22.8872L16.9474 23.1701C18.0721 24.6917 18.1217 25.2457 17.4344 25.6562L17.1755 25.7918L16.9172 25.9109L16.4861 26.0936L16.1343 26.2343L14.0584 27.0198L12.8607 27.4852L11.6042 28.0112L11.1109 28.2332C10.9268 28.3179 10.7585 28.3975 10.5934 28.4776L10.1063 28.7208C6.55855 30.5454 4.51184 32.7517 4.52071 35.7676L4.50014 37.5269L4.50185 38.0488L4.51906 38.5888L4.54073 38.9075C4.72801 41.0712 5.74706 42.4115 7.87434 42.4979L22.8739 42.4989C22.1704 41.5793 21.5783 40.5699 21.1178 39.491L7.77713 39.4837C7.64977 39.4554 7.60611 39.3698 7.56917 39.0626L7.5316 38.6754L7.50905 38.3007L7.50131 38.0037L7.49998 37.542L7.51453 36.5034L7.52066 35.7758C7.51602 34.1661 8.82826 32.7516 11.4627 31.3966L11.9188 31.1689L12.3542 30.9634L13.0425 30.6571L13.5152 30.4576L14.4386 30.0873L17.2265 29.0284L17.8047 28.7947L18.1422 28.6492L18.6434 28.4125C21.3328 27.0446 21.5172 24.5089 19.578 21.6927L19.1569 21.1159C18.9358 20.8055 18.7132 20.4379 18.5116 20.0449C18.3643 19.7576 18.1293 19.5275 17.8439 19.3858L17.6209 19.2966C17.2643 19.1861 16.8497 18.7443 16.6334 18.1176C16.3822 17.3897 16.5017 16.7233 16.7504 16.5096C17.1056 16.2045 17.2979 15.7511 17.2704 15.2837C17.2552 15.0243 17.2475 14.7648 17.2475 14.5061C17.2475 9.30698 19.3708 6.5 23.9985 6.5C28.6262 6.5 30.7495 9.30698 30.7495 14.5061C30.7495 14.7647 30.7419 15.0242 30.7267 15.2827C30.6992 15.7492 30.8907 16.2018 31.2446 16.507C31.4946 16.7226 31.6139 17.3896 31.3627 18.1176C31.1465 18.744 30.7321 19.1859 30.3761 19.2964C29.9908 19.4159 29.67 19.6855 29.4859 20.0444C29.3259 20.3563 29.1525 20.6526 28.9661 20.9322C30.4674 20.3536 32.0935 20.0261 33.7929 20.0015C33.9526 19.717 34.089 19.4138 34.1986 19.0962L34.3103 18.7331C34.6723 17.3966 34.5123 16.0129 33.8535 14.9866L33.7495 14.5061C33.7495 7.80352 30.4942 3.5 23.9985 3.5L23.5052 3.50846Z" fill="#191919" fill-rule="evenodd"/>
  <path id="合并" d="M34 23C40.0751 23 45 27.9249 45 34C45 40.0751 40.0751 45 34 45C27.9249 45 23 40.0751 23 34C23 27.9249 27.9249 23 34 23ZM25.64 34C25.64 29.3829 29.3829 25.64 34 25.64C38.6171 25.64 42.36 29.3829 42.36 34C42.36 38.6171 38.6171 42.36 34 42.36C29.3829 42.36 25.64 38.6171 25.64 34ZM35.8195 30.0396C35.3644 29.5284 35.4085 28.7691 35.9202 28.3141C36.4314 27.8592 37.1905 27.9033 37.6457 28.4146L39.9127 30.9621C40.0122 31.074 40.0885 31.2 40.1419 31.34C40.1952 31.48 40.2218 31.6248 40.2218 31.7747C40.2218 31.9435 40.192 32.0999 40.1323 32.2439C40.0726 32.3879 39.9831 32.5196 39.8638 32.6388C39.625 32.8776 39.337 32.9969 38.9996 32.9969L29.2222 32.9969C28.5375 32.9969 28 32.4592 28 31.7747C28 31.0902 28.5375 30.5525 29.2222 30.5525L36.2759 30.5525L35.8195 30.0396ZM39 37.6797L31.946 37.6797L32.4019 38.1924C32.8571 38.7038 32.8129 39.4629 32.3017 39.9181C31.7904 40.373 31.0309 40.3289 30.5761 39.8174L28.3091 37.2701C28.2094 37.1582 28.133 37.0322 28.08 36.8922C28.0267 36.7522 28 36.6074 28 36.4575C28 36.12 28.1194 35.8319 28.3581 35.5933C28.5965 35.3546 28.8846 35.2353 29.2222 35.2353L39 35.2353C39.6843 35.2353 40.2222 35.773 40.2222 36.4575C40.2222 37.1418 39.6843 37.6797 39 37.6797Z" fill="#AEAEAE" fill-rule="evenodd"/>
</svg>
