<svg viewBox="0 0 48 48" xmlns="http://www.w3.org/2000/svg" xmlns:xlink="http://www.w3.org/1999/xlink" width="48.000000" height="48.000000" fill="none">
  <path id="合并" d="M3.55762 18.8158L20.0883 5.24567C20.347 5.03327 20.6202 4.84721 20.9078 4.68748C21.1638 4.5453 21.4313 4.42399 21.7102 4.32353C21.9892 4.22304 22.2726 4.14596 22.5602 4.09229C22.5641 4.09155 22.5681 4.09082 22.572 4.0901C22.875 4.03426 23.1828 4.00438 23.4953 4.00044C23.8119 3.99646 24.1243 4.01923 24.4324 4.06874C24.7213 4.11516 25.0065 4.1851 25.2879 4.27854C25.5692 4.37195 25.8396 4.4865 26.0991 4.62219C26.3906 4.77464 26.6683 4.95377 26.9322 5.1596L44.4131 18.792C45.0769 19.3096 45.1943 20.2411 44.6798 20.9091C44.1654 21.577 43.2397 21.6951 42.576 21.1774L42.5 21.1182L42.5 38C42.5 38.552 42.442 39.0912 42.326 39.6177C42.2284 40.0608 42.0898 40.4948 41.91 40.9198C41.7296 41.3464 41.5139 41.7497 41.263 42.1297C40.986 42.5493 40.6661 42.9405 40.3033 43.3033C39.9405 43.6661 39.5493 43.986 39.1298 44.2629C38.7498 44.5139 38.3464 44.7296 37.9198 44.91C37.4947 45.0898 37.0606 45.2285 36.6174 45.3261C36.091 45.442 35.5519 45.5 35 45.5L13 45.5C12.4481 45.5 11.909 45.442 11.3826 45.3261C10.9394 45.2285 10.5053 45.0898 10.0802 44.91C9.65366 44.7296 9.25038 44.5139 8.87035 44.2631C8.45079 43.9861 8.05957 43.6662 7.6967 43.3033C7.33386 42.9405 7.01396 42.5493 6.737 42.1298C6.4861 41.7497 6.27043 41.3464 6.09 40.9198C5.91022 40.4947 5.77152 40.0606 5.67391 39.6175C5.55797 39.0911 5.5 38.5519 5.5 38L5.5 21.1161L5.45347 21.1543C4.80276 21.6884 3.87441 21.5937 3.34357 20.9389C2.81274 20.2841 2.90692 19.3499 3.55762 18.8158ZM8.5 18.6534L8.5 38C8.5 38.3492 8.53844 38.6895 8.61532 39.0209C8.67295 39.2693 8.75218 39.5127 8.85302 39.7511C8.95747 39.9981 9.08172 40.2322 9.22577 40.4533C9.39565 40.7141 9.59307 40.957 9.81802 41.182C10.043 41.4069 10.2859 41.6044 10.5467 41.7742C10.7679 41.9183 11.0019 42.0425 11.2489 42.147C11.4873 42.2478 11.7307 42.3271 11.9791 42.3847C12.3105 42.4616 12.6508 42.5 13 42.5L35 42.5C35.3492 42.5 35.6895 42.4616 36.0209 42.3847C36.2693 42.3271 36.5127 42.2478 36.7511 42.147C36.9981 42.0425 37.2323 41.9182 37.4535 41.7741C37.7142 41.6043 37.9571 41.4069 38.182 41.182C38.4069 40.9571 38.6043 40.7142 38.7742 40.4534C38.9183 40.2322 39.0425 39.9981 39.147 39.7511C39.2478 39.5127 39.327 39.2693 39.3847 39.0209C39.4616 38.6895 39.5 38.3492 39.5 38L39.5 19C39.5 18.9285 39.5048 18.8583 39.5141 18.7896L25.095 7.54505C24.9669 7.44517 24.8319 7.35915 24.6899 7.28699C24.5801 7.23121 24.4662 7.18371 24.3481 7.1445C24.2253 7.10374 24.101 7.07282 23.9749 7.05176C23.8297 7.02748 23.6823 7.01628 23.5328 7.01816C23.3833 7.02004 23.2362 7.03495 23.0916 7.06287C22.9662 7.0871 22.8426 7.12113 22.7209 7.16496C22.6038 7.20713 22.4911 7.25749 22.3827 7.31602C22.2426 7.39172 22.1097 7.4811 21.9842 7.58417L8.5 18.6534Z" fill="#191919" fill-rule="evenodd"/>
  <path id="合并" d="M33.4232 21.7436C33.4232 21.9489 33.4022 22.1498 33.3604 22.3463L33.3601 22.3473C33.3224 22.5241 33.2676 22.6973 33.1959 22.8669C33.1252 23.034 33.0405 23.1918 32.9418 23.3403L32.9411 23.3413C32.836 23.4992 32.7151 23.6465 32.5783 23.7833C32.4415 23.9201 32.2942 24.041 32.1363 24.1461C31.9875 24.2451 31.8294 24.33 31.6619 24.4009C31.4919 24.4728 31.3184 24.5276 31.1412 24.5654C30.9448 24.6073 30.7439 24.6282 30.5386 24.6282L25.5 24.6282L25.5 26.5L31.9615 26.5C32.1784 26.5 32.3906 26.5222 32.598 26.5665C32.7841 26.6063 32.9663 26.6639 33.1447 26.7394C33.3209 26.8139 33.4872 26.9032 33.6437 27.0073C33.8103 27.1181 33.9657 27.2456 34.1101 27.3899C34.2544 27.5343 34.3819 27.6897 34.4927 27.8563L34.4928 27.8565C34.5969 28.0129 34.6861 28.1792 34.7606 28.3553C34.8361 28.5337 34.8937 28.7159 34.9335 28.902C34.9778 29.1094 35 29.3216 35 29.5385L35 31.533C35.0315 31.5383 35.0629 31.5442 35.0942 31.5508L35.0961 31.5512C35.2453 31.5827 35.3915 31.6287 35.5346 31.6892C35.6745 31.7484 35.8065 31.8193 35.9306 31.902L35.9319 31.9029C36.0623 31.9899 36.184 32.0899 36.2971 32.2029C36.4101 32.316 36.5101 32.4377 36.5971 32.5681C36.6802 32.6926 36.7514 32.825 36.8108 32.9654C36.8713 33.1085 36.9173 33.2547 36.9488 33.4039C36.9829 33.5657 37 33.731 37 33.9L37 37.1C37 37.269 36.9829 37.4343 36.9488 37.5961C36.9173 37.7454 36.8713 37.8915 36.8108 38.0346C36.7514 38.175 36.6802 38.3074 36.5972 38.4319C36.5101 38.5623 36.4101 38.684 36.2971 38.7971C36.184 38.9101 36.0623 39.0101 35.9319 39.0971C35.8074 39.1802 35.675 39.2514 35.5346 39.3108C35.3915 39.3713 35.2453 39.4173 35.0961 39.4488C34.9343 39.4829 34.769 39.5 34.6 39.5L31.4 39.5C31.231 39.5 31.0657 39.4829 30.9039 39.4488C30.7547 39.4173 30.6085 39.3713 30.4654 39.3108C30.325 39.2514 30.1926 39.1802 30.0681 39.0971C29.9377 39.0101 29.816 38.9101 29.7029 38.7971C29.5899 38.684 29.4899 38.5623 29.4029 38.4319C29.3198 38.3074 29.2486 38.175 29.1892 38.0346C29.1287 37.8915 29.0827 37.7453 29.0512 37.5961C29.0171 37.4343 29 37.269 29 37.1L29 33.9C29 33.731 29.0171 33.5657 29.0512 33.4039L29.0512 33.4038C29.0827 33.2546 29.1287 33.1084 29.1892 32.9654C29.2486 32.825 29.3198 32.6926 29.4029 32.5681C29.4899 32.4377 29.5899 32.316 29.7029 32.2029C29.816 32.0899 29.9377 31.9899 30.0681 31.9029C30.1926 31.8198 30.325 31.7486 30.4654 31.6892C30.6085 31.6287 30.7547 31.5827 30.9039 31.5512L30.904 31.5512C31.0657 31.5171 31.2311 31.5 31.4 31.5L32 31.5L32 29.5385C32 29.5256 31.9968 29.516 31.9904 29.5096C31.984 29.5032 31.9744 29.5 31.9615 29.5L25.5 29.5L25.5 31.5L25.6 31.5C25.769 31.5 25.9343 31.5171 26.0961 31.5512C26.2453 31.5827 26.3915 31.6287 26.5346 31.6892C26.675 31.7486 26.8074 31.8198 26.9319 31.9029C27.0623 31.9899 27.184 32.0899 27.2971 32.2029C27.4101 32.316 27.5101 32.4377 27.5971 32.5681C27.6802 32.6926 27.7514 32.825 27.8108 32.9654C27.8713 33.1085 27.9173 33.2547 27.9488 33.4039C27.9829 33.5657 28 33.731 28 33.9L28 37.1C28 37.269 27.9829 37.4343 27.9488 37.5961C27.9173 37.7454 27.8713 37.8915 27.8108 38.0346C27.7514 38.175 27.6802 38.3074 27.5972 38.4319C27.5101 38.5623 27.4101 38.684 27.2971 38.7971C27.184 38.9101 27.0623 39.0101 26.9319 39.0971C26.8074 39.1802 26.675 39.2514 26.5346 39.3108C26.3915 39.3713 26.2453 39.4173 26.0961 39.4488C25.9343 39.4829 25.769 39.5 25.6 39.5L22.4 39.5C22.231 39.5 22.0657 39.4829 21.9039 39.4488C21.7547 39.4173 21.6085 39.3713 21.4654 39.3108C21.325 39.2514 21.1926 39.1802 21.0681 39.0971C20.9377 39.0101 20.816 38.9101 20.7029 38.7971C20.5899 38.684 20.4899 38.5623 20.4029 38.4319C20.3198 38.3074 20.2486 38.175 20.1892 38.0346C20.1287 37.8915 20.0827 37.7453 20.0512 37.5961L20.051 37.5951C20.017 37.4336 20 37.2686 20 37.1L20 33.9C20 33.731 20.0171 33.5657 20.0512 33.4039L20.0512 33.4038C20.0827 33.2546 20.1287 33.1084 20.1892 32.9654C20.2486 32.825 20.3198 32.6926 20.4029 32.5681C20.4899 32.4377 20.5899 32.316 20.7029 32.2029C20.816 32.0899 20.9377 31.9899 21.0681 31.9029C21.1926 31.8198 21.325 31.7486 21.4654 31.6892C21.6085 31.6287 21.7547 31.5827 21.9039 31.5512C22.0657 31.5171 22.231 31.5 22.4 31.5L22.5 31.5L22.5 29.5L16.0385 29.5C16.0256 29.5 16.016 29.5032 16.0096 29.5096C16.0032 29.516 16 29.5256 16 29.5385L16 31.5L16.6 31.5C16.7688 31.5 16.934 31.517 17.0956 31.5511L17.0961 31.5512C17.2453 31.5827 17.3915 31.6287 17.5346 31.6892C17.675 31.7486 17.8074 31.8198 17.9319 31.9029C18.0623 31.9899 18.184 32.0899 18.2971 32.2029C18.4101 32.316 18.5101 32.4377 18.5971 32.5681C18.6802 32.6926 18.7514 32.825 18.8108 32.9654C18.8713 33.1085 18.9173 33.2547 18.9488 33.4039C18.9829 33.5657 19 33.731 19 33.9L19 37.1C19 37.269 18.9829 37.4343 18.9488 37.5961C18.9173 37.7454 18.8713 37.8915 18.8108 38.0346C18.7514 38.175 18.6802 38.3074 18.5972 38.4319C18.5101 38.5623 18.4101 38.684 18.2971 38.7971C18.184 38.9101 18.0623 39.0101 17.9319 39.0971C17.8074 39.1802 17.675 39.2514 17.5346 39.3108C17.3915 39.3713 17.2453 39.4173 17.0961 39.4488C16.9343 39.4829 16.769 39.5 16.6 39.5L13.4 39.5C13.2311 39.5 13.0657 39.4829 12.904 39.4488L12.9039 39.4488C12.7547 39.4173 12.6085 39.3713 12.4654 39.3108C12.325 39.2514 12.1926 39.1802 12.0681 39.0971C11.9377 39.0101 11.816 38.9101 11.7029 38.7971C11.5899 38.684 11.4899 38.5623 11.4029 38.4319C11.3198 38.3074 11.2486 38.175 11.1892 38.0346C11.1287 37.8915 11.0827 37.7453 11.0512 37.5961L11.0512 37.5961L11.0512 37.596C11.0171 37.4343 11 37.2689 11 37.1L11 33.9C11 33.731 11.0171 33.5657 11.0512 33.4039L11.0512 33.4038C11.0827 33.2546 11.1287 33.1084 11.1892 32.9654C11.2486 32.825 11.3198 32.6926 11.4029 32.5681C11.4899 32.4377 11.5899 32.316 11.7029 32.2029C11.816 32.0899 11.9377 31.9899 12.0681 31.9029C12.1926 31.8198 12.325 31.7486 12.4654 31.6892C12.6085 31.6287 12.7547 31.5827 12.9039 31.5512L12.9045 31.5511C12.9362 31.5444 12.968 31.5384 13 31.533L13 29.5385C13 29.3216 13.0222 29.1094 13.0665 28.902C13.1063 28.7159 13.1639 28.5337 13.2394 28.3553C13.3139 28.1791 13.4032 28.0128 13.5073 27.8563C13.6181 27.6897 13.7456 27.5343 13.8899 27.3899C14.0343 27.2456 14.1897 27.1181 14.3563 27.0073C14.5128 26.9032 14.6791 26.8139 14.8553 26.7394C15.0337 26.6639 15.2159 26.6063 15.402 26.5665C15.6094 26.5222 15.8216 26.5 16.0385 26.5L22.5 26.5L22.5 24.6282L17.9488 24.6282C17.7437 24.6282 17.543 24.6073 17.3468 24.5655L17.3462 24.5654C17.169 24.5276 16.9955 24.4728 16.8256 24.4009C16.658 24.33 16.4999 24.2451 16.3511 24.1461C16.1932 24.041 16.0459 23.9201 15.9091 23.7833C15.7723 23.6465 15.6514 23.4992 15.5463 23.3413C15.4473 23.1925 15.3624 23.0344 15.2915 22.8669C15.2197 22.697 15.1648 22.5234 15.1271 22.3462C15.0852 22.1498 15.0642 21.9489 15.0642 21.7436L15.0642 19.3846C15.0642 19.1793 15.0852 18.9784 15.1271 18.782L15.1271 18.782C15.1648 18.6048 15.2197 18.4312 15.2915 18.2613C15.3624 18.0938 15.4473 17.9356 15.5463 17.7869C15.6514 17.629 15.7723 17.4817 15.9091 17.3449C16.0459 17.2081 16.1932 17.0872 16.3511 16.9821L16.3511 16.9821C16.4999 16.8831 16.658 16.7982 16.8256 16.7273C16.9955 16.6554 17.169 16.6006 17.3462 16.5628L17.3462 16.5628L17.3462 16.5628C17.5426 16.5209 17.7435 16.5 17.9488 16.5L30.5386 16.5C30.7439 16.5 30.9448 16.5209 31.1412 16.5628C31.3184 16.6006 31.492 16.6554 31.6619 16.7273C31.8294 16.7982 31.9875 16.8831 32.1363 16.9821C32.2942 17.0872 32.4415 17.2081 32.5783 17.3449C32.7151 17.4817 32.836 17.629 32.9411 17.7868C33.0401 17.9356 33.125 18.0938 33.1959 18.2613C33.2678 18.4313 33.3226 18.6048 33.3604 18.7821L33.3605 18.7828C33.4023 18.979 33.4232 19.1796 33.4232 19.3846L33.4232 21.7436ZM30.4232 19.5L30.4232 21.6282L18.0642 21.6282L18.0642 19.5L30.4232 19.5ZM16 36.5L16 34.5L14 34.5L14 36.5L16 36.5ZM25 36.5L25 34.5L23 34.5L23 36.5L25 36.5ZM34 36.5L34 34.5L32 34.5L32 36.5L34 36.5Z" fill="#AEAEAE" fill-rule="evenodd"/>
</svg>
