<svg viewBox="0 0 48 48" xmlns="http://www.w3.org/2000/svg" xmlns:xlink="http://www.w3.org/1999/xlink" width="48.000000" height="48.000000" fill="none">
  <path id="合并" d="M31.1613 7.04443C29.8503 7.04443 28.5448 7.54918 27.5515 8.54426C26.3491 9.74648 26.0579 10.9507 26.0956 12.8102L26.1054 14.0211C26.0017 14.5603 25.2853 15.6042 24.183 16.5433C22.922 17.6189 21.4957 18.2659 21.0189 18.1885C20.8536 18.1618 20.7074 18.143 20.5347 18.1253L20.0442 18.0794L19.5483 17.9675C17.411 17.5429 15.4257 17.8965 13.7856 18.8607C12.6419 19.5331 11.8582 20.3666 11.3768 21.1275L11.2333 21.4043C10.6728 22.6188 10.9073 24.0165 11.8306 24.9404L18.0406 31.1552L16.9887 32.2071L9.56242 39.6334C8.96845 40.2273 8.96845 41.1607 9.56242 41.7547C10.1564 42.3487 11.0898 42.3487 11.6837 41.7547L19.0958 34.3426L19.11 34.3284L20.1617 33.2767L20.2278 33.3428L20.2281 33.3425L26.9695 40.0873L27.1954 40.2921C28.208 41.1241 29.6396 41.232 30.7879 40.539C31.5521 40.0568 32.3781 39.2829 33.0466 38.1593C34.0112 36.5382 34.3722 34.5791 33.9325 32.3342L33.8205 31.8163L33.7413 30.904C33.8153 30.2237 34.6913 28.479 35.8494 27.2188C36.7257 26.2655 37.5344 25.7915 38.0075 25.7915L38.7006 25.8016L39.1077 25.8149C40.9599 25.8545 42.1642 25.5665 43.3657 24.3634C44.3277 23.4009 44.8603 22.1132 44.8597 20.7505C44.8569 19.3865 44.3229 18.0991 43.3605 17.1361L34.3818 8.19352L34.0851 7.96911C33.2032 7.35051 32.1806 7.04443 31.1613 7.04443ZM29.6738 10.6643C30.3818 9.95508 31.4631 9.848 32.2873 10.3747L41.2386 19.2566L41.4239 19.4674C41.7067 19.8349 41.8587 20.28 41.8597 20.7542C41.8597 21.3191 41.6431 21.8435 41.2432 22.2435C40.7864 22.7009 40.2363 22.8365 39.1411 22.8148L38.0075 22.7919L37.6683 22.8075C36.3091 22.9318 34.9232 23.7936 33.6405 25.1892C31.887 27.0973 30.6187 29.7337 30.7521 31.3219L30.8769 32.3922L30.9738 32.8329C31.5061 35.5641 30.3916 37.1448 29.0907 37.9662L13.9439 22.6786C14.8018 21.3247 16.5548 20.2941 19.5029 21.0241L19.9918 21.0874L20.3005 21.117L20.5391 21.1495L20.8579 21.1836L21.0923 21.3515L27.6099 27.8487C28.1978 28.2961 29.0406 28.2514 29.5776 27.7145C30.1634 27.1288 30.1634 26.1792 29.5776 25.5935L24.1822 20.1997C24.8424 19.826 25.503 19.3602 26.1294 18.8258C27.9261 17.2951 29.1185 15.4609 29.1185 13.8972L29.1113 13.3273L29.0961 12.7749C29.0753 11.6734 29.2122 11.1258 29.6738 10.6643Z" fill="#191919" fill-rule="evenodd"/>
  <path id="矢量 1915(边框)" d="M18.0493 31.1465L16.9887 32.2071L9.56242 39.6334C8.96845 40.2274 8.96845 41.1607 9.56242 41.7547C10.1564 42.3487 11.0898 42.3487 11.6837 41.7547L19.0958 34.3426L19.11 34.3285L20.1706 33.2678L18.0493 31.1465Z" fill="#AEAEAE" fill-rule="evenodd"/>
</svg>
