<svg viewBox="0 0 48 48" xmlns="http://www.w3.org/2000/svg" xmlns:xlink="http://www.w3.org/1999/xlink" width="48.000000" height="48.000000" fill="none">
  <path id="减去顶层" d="M25.168 4.03613C26.092 4.03613 26.996 4.41213 27.65 5.06813L36.904 14.3581C37.0625 14.5171 37.2038 14.6887 37.327 14.8708L20.8037 31.3954L18.6615 35.7759L16.3455 40.5787C15.8811 41.5419 16.8621 42.5647 17.8439 42.1407L22.2765 40.2262L27.1081 38.0112L37.922 27.1979L37.922 37.9641C37.922 41.2721 35.23 43.9641 31.922 43.9641L12.078 43.9641C8.77 43.9641 6.078 41.2721 6.078 37.9641L6.078 10.0361C6.078 6.72813 8.77 4.03613 12.078 4.03613L25.168 4.03613ZM25.524 7.18413L25.5194 13.5127C25.5194 15.0657 26.7153 16.3529 28.2316 16.4989L28.5194 16.5127L34.8117 16.5118L25.524 7.18413ZM16.1654 16.533L13.7942 13.5689C13.2695 12.9129 12.3418 12.8099 11.6859 13.3348C11.0299 13.8594 10.9269 14.7872 11.4516 15.4429L14.4137 19.1455L12.6229 19.1455C11.7829 19.1455 11.1229 19.8057 11.1229 20.6455C11.1229 21.4856 11.7829 22.1455 12.6229 22.1455L14.6312 22.1455L14.6312 24.408L12.5 24.408C11.66 24.408 11 25.0681 11 25.908C11 26.7481 11.66 27.408 12.5 27.408L14.6312 27.408L14.6312 30.2935C14.6312 31.1336 15.2912 31.7935 16.1312 31.7935C16.9712 31.7935 17.6312 31.1336 17.6312 30.2935L17.6312 27.408L19.7625 27.408C20.6025 27.408 21.2625 26.7481 21.2625 25.908C21.2625 25.0681 20.6025 24.408 19.7625 24.408L17.6312 24.408L17.6312 22.1455L19.6395 22.1455C20.4795 22.1455 21.1395 21.4856 21.1395 20.6455C21.1395 19.8057 20.4795 19.1455 19.6395 19.1455L17.8829 19.1455L20.996 15.4769C21.5395 14.8365 21.4632 13.9061 20.8227 13.3626C20.1822 12.8191 19.252 12.8953 18.7085 13.5359L16.1654 16.533Z" fill="#191919" fill-rule="evenodd"/>
  <path id="形状结合" d="M34.568 19.5582L39.008 23.9982L26.32 36.6842L23 38.2062L18 40.4982L20.516 35.1482L21.988 32.1382L34.568 19.5582ZM41.1736 16.8749L41.4124 17.0846C42.5964 18.2328 42.682 20.0844 41.6542 21.332L41.4484 21.5586L41.1284 21.8766L36.6884 17.4366L37.0084 17.1186C38.1447 15.9823 39.9401 15.8972 41.1736 16.8749Z" fill="#AEAEAE" fill-rule="evenodd"/>
</svg>
