<svg viewBox="0 0 48 48" xmlns="http://www.w3.org/2000/svg" xmlns:xlink="http://www.w3.org/1999/xlink" width="48.000000" height="48.000000" fill="none">
  <path id="形状结合" d="M42.5 37.4961C43.3284 37.4961 44 38.1677 44 38.9961C44 39.7555 43.4357 40.3831 42.7035 40.4824L42.5 40.4961L5.5 40.4961C4.67157 40.4961 4 39.8245 4 38.9961C4 38.2367 4.5643 37.6093 5.29646 37.51L5.5 37.4961L42.5 37.4961ZM42.5 22.4983C43.3284 22.4983 44 23.1699 44 23.9983C44 24.7577 43.4357 25.3853 42.7035 25.4846L42.5 25.4983L5.5 25.4983C4.67157 25.4983 4 24.8267 4 23.9983C4 23.2389 4.5643 22.6113 5.29646 22.512L5.5 22.4983L42.5 22.4983ZM42.5 7.5C43.3284 7.5 44 8.17157 44 9C44 9.75939 43.4357 10.387 42.7035 10.4863L42.5 10.5L5.5 10.5C4.67157 10.5 4 9.82843 4 9C4 8.24061 4.5643 7.613 5.29646 7.51367L5.5 7.5L42.5 7.5Z" fill="#191919" fill-rule="evenodd"/>
  <path id="形状结合" d="M42.5 22.498C43.3284 22.498 44 23.1696 44 23.998C44 24.7574 43.4357 25.385 42.7035 25.4844L42.5 25.498L5.5 25.498C4.67157 25.498 4 24.8265 4 23.998C4 23.2387 4.5643 22.611 5.29646 22.5117L5.5 22.498L42.5 22.498Z" fill="#AEAEAE" fill-rule="evenodd"/>
</svg>
