<svg viewBox="0 0 48 48" xmlns="http://www.w3.org/2000/svg" xmlns:xlink="http://www.w3.org/1999/xlink" width="48.000000" height="48.000000" fill="none">
  <path id="形状结合" d="M32 4C35.1954 4 37.8073 6.49784 37.9898 9.64745L38 10L38 18.3438C38 19.1722 37.3284 19.8438 36.5 19.8438C35.7406 19.8438 35.113 19.2794 35.0137 18.5473L35 18.3438L35 10C35 8.44061 33.8102 7.1591 32.2889 7.01373L32 7L11 7C9.44061 7 8.1591 8.18978 8.01373 9.71108L8 10L8 37C8 38.5594 9.18978 39.8409 10.7111 39.9863L11 40L21.8 40C22.6284 40 23.3 40.6716 23.3 41.5C23.3 42.2594 22.7357 42.887 22.0035 42.9863L21.8 43L11 43C7.80464 43 5.19268 40.5022 5.01019 37.3525L5 37L5 10C5 6.80464 7.49784 4.19268 10.6475 4.01019L11 4L32 4Z" fill="#191919" fill-rule="evenodd"/>
  <path id="合并" d="M39.3227 27.8944C39.3807 27.6 39.4097 27.3 39.4097 26.9942C39.4097 26.6674 39.3768 26.3476 39.311 26.0347C39.236 25.6774 39.118 25.3291 38.9572 24.9898C38.8719 24.8097 38.7763 24.636 38.6705 24.4688C38.4232 24.078 38.1202 23.7226 37.7613 23.4024C37.6015 23.2598 37.4343 23.1276 37.2599 23.0058C36.8893 22.747 36.4858 22.5353 36.0495 22.3706C35.8093 22.2799 35.5653 22.2059 35.3174 22.1485C34.8897 22.0495 34.4506 22 34 22C33.5494 22 33.1102 22.0495 32.6825 22.1485C32.4347 22.2059 32.1906 22.2799 31.9505 22.3706C31.5141 22.5353 31.1106 22.747 30.74 23.0058C30.5656 23.1276 30.3984 23.2598 30.2386 23.4024C29.8797 23.7226 29.5767 24.0781 29.3294 24.4688C29.2236 24.636 29.128 24.8097 29.0427 24.9898C28.8819 25.3291 28.764 25.6774 28.6889 26.0346C28.6231 26.3476 28.5903 26.6674 28.5903 26.9942C28.5903 27.2999 28.6192 27.5999 28.6772 27.8941C28.7474 28.2509 28.8602 28.5993 29.0156 28.9392C29.1012 29.1265 29.1977 29.307 29.3053 29.4807C29.4136 29.6557 29.5331 29.8238 29.6638 29.985L28.596 29.9853L28.4127 29.9927L28.3821 29.9952C28.2158 30.0089 28.0529 30.0359 27.8935 30.0764C27.7635 30.1094 27.6358 30.1514 27.5103 30.2022C27.3598 30.2633 27.2162 30.3357 27.0795 30.4195C26.9667 30.4887 26.8586 30.5656 26.7552 30.6502C26.623 30.7586 26.5021 30.8767 26.3926 31.0045C26.3108 31.0999 26.2354 31.2007 26.1663 31.307C26.0768 31.4446 26.0002 31.5877 25.9365 31.7364C25.8811 31.8659 25.8355 31.9996 25.7997 32.1375L25.07 34.9467L25.0401 35.0855L25.0348 35.1168C25.0228 35.1869 25.0139 35.2574 25.0081 35.3281C25.0027 35.3938 25 35.4597 25 35.5258C25 35.6918 25.0163 35.8545 25.0491 36.0138C25.0836 36.1819 25.1362 36.3462 25.2071 36.5068C25.2655 36.6391 25.3344 36.7644 25.4136 36.8828C25.5125 37.0306 25.6277 37.1676 25.7592 37.2936C25.8674 37.3975 25.9829 37.4903 26.1058 37.5722C26.2481 37.6671 26.4003 37.7473 26.5622 37.8128C26.6946 37.8663 26.8296 37.9084 26.9671 37.9389C27.1503 37.9796 27.3379 38 27.53 38L40.501 38L40.6535 37.9937L40.6845 37.9911C40.7639 37.9845 40.8425 37.9743 40.9206 37.9605C40.9834 37.9494 41.0459 37.9359 41.1079 37.9201C41.298 37.8718 41.478 37.8039 41.648 37.7166C41.7673 37.6553 41.8817 37.5844 41.9911 37.5039C42.1322 37.4002 42.2598 37.2845 42.374 37.1568C42.4714 37.0479 42.559 36.9302 42.6368 36.8038C42.7289 36.6542 42.8035 36.4985 42.8608 36.3367C42.91 36.1978 42.9463 36.0543 42.9699 35.9063C42.9958 35.7437 43.0052 35.5817 42.9982 35.4204C42.9909 35.2515 42.9654 35.0834 42.922 34.916L42.192 32.1057L42.1389 31.9328L42.1279 31.9019C42.0827 31.7746 42.0289 31.6518 41.9667 31.5334C41.8895 31.3864 41.7991 31.2464 41.6958 31.1131C41.6177 31.0126 41.5338 30.9179 41.4439 30.8292C41.3254 30.7122 41.1966 30.6055 41.0576 30.5091C40.9459 30.4318 40.8301 30.3628 40.7101 30.3022C40.5681 30.2304 40.4201 30.1704 40.2663 30.122C40.138 30.0816 40.0081 30.0502 39.8767 30.0277C39.7114 29.9994 39.5437 29.9853 39.3736 29.9853L38.3361 29.985C38.4668 29.8238 38.5863 29.6557 38.6946 29.4808C38.8022 29.3071 38.8988 29.1266 38.9843 28.9393C39.1397 28.5994 39.2525 28.2511 39.3227 27.8944ZM36.3825 26.6933C36.4006 26.792 36.4097 26.8922 36.4097 26.9942C36.4097 27.0826 36.4027 27.17 36.3889 27.2562C36.3651 27.4049 36.3207 27.5502 36.2558 27.6923C36.251 27.7028 36.2461 27.7132 36.2411 27.7236C36.1357 27.9433 35.9868 28.1422 35.7945 28.3202C35.5713 28.5269 35.3876 28.7561 35.2434 29.0081C35.1753 29.1271 35.1161 29.2511 35.0656 29.3802C34.9552 29.6628 34.8953 29.9471 34.8859 30.2329C34.8792 30.4339 34.8976 30.6357 34.9409 30.8384L34.9769 31.0072C35.0083 31.1539 35.0519 31.2957 35.1079 31.4323C35.1603 31.5603 35.2234 31.6838 35.2973 31.8029C35.3703 31.9205 35.4518 32.0307 35.5419 32.1333C35.6352 32.2397 35.7377 32.3381 35.8494 32.4284C35.9611 32.5188 36.0787 32.5985 36.2023 32.6675C36.3215 32.7342 36.4462 32.7909 36.5765 32.8377C36.7084 32.8851 36.8424 32.921 36.9784 32.9455C37.1238 32.9716 37.2715 32.9847 37.4216 32.9847L39.3209 32.9852L39.8442 35L28.1557 35L28.679 32.9852L30.5782 32.9847C30.7249 32.9847 30.8693 32.9722 31.0116 32.9471C31.1493 32.9229 31.2849 32.8869 31.4185 32.8392C31.5482 32.7929 31.6724 32.7368 31.7912 32.6708C31.9143 32.6024 32.0316 32.5235 32.143 32.4341C32.2544 32.3446 32.3567 32.2471 32.4501 32.1417C32.5401 32.0399 32.6218 31.9308 32.695 31.8141C32.7692 31.696 32.8327 31.5735 32.8856 31.4465C32.942 31.311 32.9864 31.1703 33.0186 31.0247L33.0556 30.8573C33.1008 30.653 33.1205 30.4494 33.1148 30.2465C33.1067 29.9591 33.0476 29.6731 32.9375 29.3885C32.8866 29.2573 32.8267 29.1312 32.7577 29.0103C32.6133 28.7575 32.4292 28.5274 32.2052 28.3201C32.013 28.1421 31.8643 27.9433 31.7589 27.7237C31.7539 27.7133 31.749 27.7028 31.7441 27.6923C31.6792 27.5501 31.6348 27.4047 31.611 27.2559C31.5972 27.1698 31.5903 27.0825 31.5903 26.9942C31.5903 26.8922 31.5993 26.792 31.6175 26.6934C31.6438 26.5503 31.6892 26.4106 31.7537 26.2746C31.7554 26.2709 31.7571 26.2673 31.7588 26.2637C31.87 26.0331 32.0289 25.8255 32.2358 25.641C32.2597 25.6197 32.2841 25.5988 32.3088 25.5785C32.5139 25.41 32.7476 25.2763 33.0098 25.1773C33.0807 25.1506 33.1525 25.1268 33.2252 25.1061C33.4733 25.0354 33.7316 25 34 25C34.2683 25 34.5266 25.0354 34.7748 25.1061C34.8474 25.1268 34.9192 25.1506 34.9901 25.1773C35.2523 25.2763 35.486 25.41 35.6911 25.5785C35.7159 25.5988 35.7402 25.6197 35.7642 25.641C35.971 25.8255 36.13 26.0331 36.2411 26.2637C36.2428 26.2673 36.2445 26.2709 36.2463 26.2746C36.3108 26.4106 36.3562 26.5502 36.3825 26.6933ZM26.5 39L41.5 39C42.34 39 43 39.66 43 40.5C43 41.34 42.34 42 41.5 42L26.5 42C25.66 42 25 41.34 25 40.5C25 39.66 25.66 39 26.5 39Z" fill="#AEAEAE" fill-rule="evenodd"/>
  <path id="减去顶层" d="M18.7942 12.5689L21.1654 15.533L23.7085 12.5359C24.252 11.8953 25.1822 11.8191 25.8227 12.3626C26.4632 12.9061 26.5395 13.8365 25.996 14.4769L22.8829 18.1455L26.6395 18.1455C27.4795 18.1455 28.1395 18.8057 28.1395 19.6455C28.1395 20.4856 27.4795 21.1455 26.6395 21.1455L22.6312 21.1455L22.6312 23.408L25.7625 23.408C26.1491 23.408 26.4977 23.5479 26.7612 23.7808C26.4149 24.5268 26.2231 25.3481 26.2231 26.2114C26.2231 26.2538 26.2233 26.2961 26.2238 26.3381C26.0789 26.3836 25.924 26.408 25.7625 26.408L22.6312 26.408L22.6312 29.2935C22.6312 30.1336 21.9712 30.7935 21.1312 30.7935C20.2912 30.7935 19.6312 30.1336 19.6312 29.2935L19.6312 26.408L15.5 26.408C14.66 26.408 14 25.7481 14 24.908C14 24.0681 14.66 23.408 15.5 23.408L19.6312 23.408L19.6312 21.1455L15.6229 21.1455C14.7829 21.1455 14.1229 20.4856 14.1229 19.6455C14.1229 18.8057 14.7829 18.1455 15.6229 18.1455L19.4137 18.1455L16.4516 14.4429C15.9269 13.7872 16.0299 12.8594 16.6859 12.3348C17.3418 11.8099 18.2695 11.9129 18.7942 12.5689Z" fill="#191919" fill-rule="evenodd"/>
</svg>
