<svg viewBox="0 0 48 48" xmlns="http://www.w3.org/2000/svg" xmlns:xlink="http://www.w3.org/1999/xlink" width="48.000000" height="48.000000" fill="none">
  <path id="矢量 13" d="M15.96 10.1L22.22 6.46C22.5 6.3 22.78 6.18 23.06 6.1C23.36 6.02 23.66 6 23.98 6C24.3 6 24.6 6.02 24.9 6.1C25.18 6.18 25.46 6.3 25.74 6.46L32 10.1C32.26 10.26 32.5 10.44 32.72 10.66C32.92 10.88 33.1 11.12 33.26 11.38C33.42 11.66 33.54 11.94 33.62 12.22C33.7 12.52 33.74 12.82 33.74 13.12L33.74 20.44C33.74 20.54 33.72 20.64 33.72 20.72C33.82 20.78 33.9 20.82 34 20.88L40.26 24.52C40.52 24.68 40.76 24.86 40.98 25.08C41.18 25.28 41.36 25.52 41.52 25.8C41.68 26.06 41.8 26.34 41.88 26.64C41.96 26.92 42 27.24 42 27.54L42 34.86C42 35.16 41.96 35.46 41.88 35.76C41.8 36.04 41.68 36.32 41.52 36.6C41.36 36.86 41.18 37.1 40.98 37.32C40.76 37.54 40.52 37.72 40.26 37.88L34 41.52C33.72 41.68 33.44 41.8 33.16 41.88C32.86 41.96 32.56 42 32.24 42C31.92 42 31.62 41.96 31.32 41.88C31.04 41.8 30.76 41.68 30.48 41.52L24.22 37.88C24.14 37.82 24.06 37.78 24 37.72C23.92 37.78 23.84 37.82 23.76 37.88L17.5 41.52C17.22 41.68 16.94 41.8 16.66 41.88C16.36 41.96 16.06 42 15.74 42C15.42 42 15.12 41.96 14.82 41.88C14.54 41.8 14.26 41.68 13.98 41.52L7.72 37.88C7.46 37.72 7.22 37.54 7 37.32C6.8 37.1 6.62 36.86 6.46 36.6C6.3 36.32 6.18 36.04 6.1 35.76C6.02 35.46 6 35.16 6 34.86L6 27.54C6 27.24 6.02 26.92 6.1 26.64C6.18 26.34 6.3 26.06 6.46 25.8C6.62 25.52 6.8 25.28 7 25.08C7.22 24.86 7.46 24.68 7.72 24.52L13.98 20.88C14.06 20.82 14.16 20.78 14.24 20.74C14.24 20.64 14.24 20.54 14.24 20.44L14.24 13.12C14.24 12.82 14.26 12.52 14.34 12.22C14.42 11.94 14.54 11.66 14.7 11.38C14.86 11.12 15.04 10.88 15.24 10.66C15.46 10.44 15.7 10.26 15.96 10.1ZM18.68 12.02L23.72 9.06C23.78 9.04 23.94 8.98 23.98 8.98C24.02 9 24.2 9.04 24.24 9.06L29.3 12L23.98 15.24L18.68 12.02ZM22.48 23.78L22.48 17.84L17.24 14.64L17.24 20.56C17.26 20.6 17.42 20.8 17.46 20.86L22.48 23.78ZM30.72 14.66L25.48 17.84L25.48 23.78L30.66 20.68C30.68 20.64 30.72 20.48 30.74 20.44L30.72 14.66ZM15.74 29.64L21.04 26.42L15.96 23.46C15.9 23.44 15.78 23.42 15.74 23.4C15.7 23.4 15.54 23.46 15.48 23.48L10.44 26.42L15.74 29.64ZM25.5 29.06L25.5 34.98C25.52 35.02 25.72 35.24 25.74 35.28L30.74 38.2L30.74 32.24L25.5 29.06ZM33.74 38.18L38.92 35.1C38.94 35.06 38.98 34.9 39 34.86L38.98 29.06L33.74 32.24L33.74 38.18ZM37.54 26.42L32.5 23.48C32.46 23.44 32.28 23.42 32.24 23.4C32.2 23.4 32.04 23.46 31.98 23.48L26.94 26.42L32.24 29.64L37.54 26.42ZM14.24 32.24L14.24 38.2L9.24 35.28C9.22 35.24 9.02 35.02 9 34.98L9 29.06L14.24 32.24ZM17.24 32.24L22.48 29.06L22.5 34.86C22.48 34.9 22.44 35.06 22.42 35.1L17.24 38.18L17.24 32.24Z" fill="#191919" fill-rule="evenodd"/>
</svg>
