<svg viewBox="0 0 48 48" xmlns="http://www.w3.org/2000/svg" xmlns:xlink="http://www.w3.org/1999/xlink" width="48.000000" height="48.000000" fill="none">
  <path id="形状结合" d="M22.7919 5.5865C23.5739 6.3685 23.5739 7.6325 22.7919 8.4145L9.20595 22L42.3779 22.0005C43.4819 22.0005 44.3779 22.8945 44.3779 24.0005C44.3779 25.1065 43.4819 26.0005 42.3779 26.0005L9.20595 26L22.7919 39.5865C23.5739 40.3685 23.5739 41.6325 22.7919 42.4145C22.4019 42.8045 21.8899 43.0005 21.3779 43.0005C20.8659 43.0005 20.3539 42.8045 19.9639 42.4145L5.08595 27.5365C4.131 26.5816 3.64371 25.3335 3.62407 24.0795C3.64565 22.8282 4.13303 21.4174 5.08595 20.4645L19.9639 5.5865C20.7459 4.8045 22.0099 4.8045 22.7919 5.5865Z" fill="#191919" fill-rule="evenodd"/>
</svg>
