<svg viewBox="0 0 48 48" xmlns="http://www.w3.org/2000/svg" xmlns:xlink="http://www.w3.org/1999/xlink" width="48.000000" height="48.000000" fill="none">
  <g id="ic_huawei_cloud_store_new-新店/base/ic_huawei_cloud_store_new">
    <path id="减去顶层" d="M7.37585 22.7221L7.37585 36C7.37585 38.8995 9.72636 41.25 12.6259 41.25L19.6259 41.25L19.6259 34.25C19.6259 32.5547 20.5901 31.0846 22 30.3583L22 27.8915C22 27.5394 22.1844 27.2131 22.486 27.0314L29.3896 22.8734C27.4119 22.8327 25.6976 22.0197 24.787 20.832C23.6512 22.0615 21.6871 22.875 19.4545 22.875C17.1303 22.875 15.0971 21.9941 13.9865 20.6787C12.9552 21.9941 11.0672 22.875 8.90903 22.875C8.37876 22.875 7.8648 22.8218 7.37585 22.7221ZM33.4604 21.6599C33.7089 21.4721 33.9325 21.2665 34.1272 21.0459C35.18 22.1465 37.0098 22.875 39.0909 22.875C39.6218 22.875 40.1364 22.8276 40.6259 22.7387L40.6259 25.8942L34.0478 21.9323C33.8601 21.8192 33.6631 21.7284 33.4604 21.6599Z" fill="#191919" fill-rule="evenodd"/>
    <path id="path7" d="M13.9384 15.8999C13.9384 18.6181 11.6858 20.8217 8.9071 20.8217C6.12842 20.8217 3.87585 18.6181 3.87585 15.8999C3.87585 15.629 3.89821 15.3633 3.94122 15.1044L3.96358 14.9596L6.60314 6.94547C7.06314 5.48966 8.41374 4.5 9.9405 4.5L38.0612 4.5C39.588 4.5 40.9386 5.48966 41.3986 6.94547L44.0466 15.0035L44.0667 15.1505C44.1062 15.4785 44.1259 15.7283 44.1259 15.8999C44.1259 18.6181 41.8733 20.8217 39.0946 20.8217C36.3159 20.8217 34.0634 18.6181 34.0634 15.8999M24.0009 15.8999C24.0009 18.6181 21.7483 20.8217 18.9696 20.8217C16.2703 20.8217 14.0675 18.7423 13.9438 16.1316L13.9384 15.8999M34.0634 15.8999C34.0634 18.6181 31.8108 20.8217 29.0321 20.8217C26.3328 20.8217 24.13 18.7423 24.0063 16.1316L24.0009 15.8999" fill="#191919" fill-rule="evenodd"/>
  </g>
  <path id="减去顶层" d="M24.3493 28.398L30.9548 24.4286C31.9057 23.8571 33.0943 23.8571 34.0453 24.4286L40.6507 28.398C40.8674 28.5283 41 28.7626 41 29.0154L41 33.8484C41 35.6925 40.4026 37.4869 39.2973 38.963C37.6472 41.1666 35.3038 42.7511 32.644 43.4615L32.5 43.5L32.356 43.4615C29.6962 42.7511 27.3528 41.1666 25.7027 38.963C24.5974 37.4869 24 35.6925 24 33.8484L24 29.0154C24 28.7626 24.1326 28.5283 24.3493 28.398ZM37.0649 30.9198C37.532 31.3904 37.5715 32.1239 37.1856 32.6391L32.7289 37.0666C32.2607 37.5305 31.384 37.4461 30.8684 37.0666L28.3909 34.6203C27.8728 34.1069 27.8693 33.2712 28.383 32.7535C28.8501 32.2829 29.7325 32.3644 30.2513 32.7457L31.7974 34.2691L35.1966 30.912C35.7147 30.3987 36.5512 30.4022 37.0649 30.9198Z" fill="#AEAEAE" fill-rule="evenodd"/>
</svg>
