<svg viewBox="0 0 48 48" xmlns="http://www.w3.org/2000/svg" xmlns:xlink="http://www.w3.org/1999/xlink" width="48.000000" height="48.000000" fill="none">
  <path id="减去顶层" d="M23.564 4.34541L23.8572 4.49739L38.105 12.6973C38.2888 12.8031 38.4615 12.9232 38.6221 13.0558L21.998 22.426L5.3567 13.0697C5.44386 12.9969 5.53464 12.9278 5.62886 12.8626L5.89057 12.6973L20.1383 4.49739C21.1946 3.88947 22.471 3.83881 23.564 4.34541ZM39.986 15.752L39.9956 15.9797L39.9956 22.0408C37.9759 20.7489 35.5754 20 33 20C32.8086 20 32.6181 20.0041 32.4287 20.0123L39.986 15.752ZM20.4966 36.5709L20.4969 44L20.1383 43.8185L5.89057 35.6186C4.81147 34.9975 4.11366 33.8823 4.01268 32.6472L4 32.3362L4 15.9797L4.008 15.774L20.496 25.044L20.4962 29.4303C20.173 30.5646 20 31.7621 20 33C20 34.2384 20.1732 35.4363 20.4966 36.5709ZM23.4983 41.8724C23.9436 42.349 24.4243 42.7921 24.9362 43.1975L23.8572 43.8185C23.7402 43.8858 23.6205 43.9463 23.4986 44L23.4983 41.8724Z" fill="#191919" fill-rule="evenodd"/>
  <path id="合并" d="M33 22C39.0751 22 44 26.9249 44 33C44 39.0751 39.0751 44 33 44C26.9249 44 22 39.0751 22 33C22 26.9249 26.9249 22 33 22ZM33.9464 34.73C32.3874 34.263 30.4477 34.8851 28.1273 36.5963C27.5688 37.0082 26.7888 36.5216 27.0331 35.872C27.7843 33.875 28.8686 32.4917 30.2861 31.7221C31.3266 31.1571 32.5467 30.9228 33.9464 31.0192L33.9464 29.6619C33.9464 29.0346 34.697 28.712 35.1522 29.1436L38.7021 32.5106C39.0058 32.7985 38.9979 33.2847 38.6851 33.5627L35.1352 36.7181C34.6745 37.1276 33.9464 36.8006 33.9464 36.1842L33.9464 34.73Z" fill="#AEAEAE" fill-rule="evenodd"/>
</svg>
