<svg viewBox="0 0 48 48" xmlns="http://www.w3.org/2000/svg" xmlns:xlink="http://www.w3.org/1999/xlink" width="48.000000" height="48.000000" fill="none">
  <path id="合并" d="M13.5 20.0002C12.6716 20.0002 12 20.6721 12 21.5002C12 22.3293 12.6716 23.0002 13.5 23.0002L28.5 23.0002C29.3284 23.0002 30 22.3293 30 21.5002C30 20.6721 29.3284 20.0002 28.5 20.0002L13.5 20.0002ZM22.5 29.0002C23.3284 29.0002 24 28.3293 24 27.5002C24 26.6721 23.3284 26.0002 22.5 26.0002L13.5 26.0002C12.6716 26.0002 12 26.6721 12 27.5002C12 28.3293 12.6716 29.0002 13.5 29.0002L22.5 29.0002ZM16.5 35.0001C17.3284 35.0001 18 34.3292 18 33.5001C18 32.672 17.3284 32.0001 16.5 32.0001L13.5 32.0001C12.6716 32.0001 12 32.672 12 33.5001C12 34.3292 12.6716 35.0001 13.5 35.0001L16.5 35.0001ZM2.55761 17.8157L19.0883 4.2465C19.347 4.03361 19.6202 3.84807 19.9078 3.68791C20.1638 3.54534 20.4313 3.42424 20.7102 3.32366C20.9892 3.22307 21.2725 3.14593 21.5602 3.09319L21.572 3.09026C21.875 3.0346 22.1828 3.00433 22.4953 3.00042C22.8119 2.99651 23.1243 3.01995 23.4324 3.06878C23.7213 3.11565 24.0065 3.18596 24.2879 3.27874C24.5692 3.37249 24.8396 3.48674 25.0991 3.62248C25.3906 3.77483 25.6683 3.95451 25.9322 4.15959L43.4131 17.7923C43.4945 17.8557 43.5676 17.9254 43.6324 18L38.5 18C38.5 17.9288 38.5048 17.8586 38.5141 17.7903L24.095 6.54531C23.9669 6.4457 23.8319 6.35976 23.6899 6.2875C23.5801 6.23183 23.4662 6.18398 23.3481 6.14492C23.2253 6.1039 23.1009 6.07363 22.9749 6.05215C22.8297 6.02773 22.6823 6.01699 22.5328 6.01894C22.3832 6.0209 22.2362 6.03554 22.0916 6.06289C21.9662 6.0873 21.8426 6.12148 21.7209 6.16543C21.6038 6.20742 21.4911 6.2582 21.3827 6.31679C21.2426 6.39199 21.1097 6.48183 20.9842 6.58437L7.5 17.6536L7.5 37.0001C7.5 37.3497 7.53845 37.6895 7.61532 38.0206C7.67294 38.2696 7.75216 38.5128 7.85302 38.751C7.95745 38.9981 8.08172 39.2325 8.22577 39.4532C8.39566 39.7139 8.59307 39.9571 8.81802 40.1817C9.04296 40.4073 9.28585 40.6045 9.54669 40.7745C9.76785 40.918 10.0019 41.043 10.2489 41.1475C10.4872 41.2481 10.7307 41.3272 10.9791 41.3848C11.3105 41.4619 11.6508 41.5 12 41.5L34 41.5C34.3492 41.5 34.6895 41.4619 35.0209 41.3848C35.2693 41.3272 35.5127 41.2481 35.7512 41.1475C35.9981 41.043 36.2323 40.918 36.4535 40.7745C36.7142 40.6045 36.9571 40.4073 37.182 40.1817C37.4069 39.9571 37.6043 39.7139 37.7742 39.4532C37.9182 39.2325 38.0425 38.9981 38.147 38.751C38.2478 38.5128 38.327 38.2696 38.3847 38.0206C38.4615 37.6895 38.5 37.3497 38.5 37.0001L38.5 34C38.5 33.16 39.16 32.5 40 32.5C40.84 32.5 41.5 33.16 41.5 34L41.5 36L41.5 36.0049L41.5 37.0001C41.5 37.5518 41.442 38.0909 41.326 38.6172C41.2284 39.0606 41.0897 39.4952 40.91 39.92C40.7296 40.3467 40.5139 40.75 40.263 41.1299C39.986 41.5489 39.6661 41.9405 39.3033 42.3037C38.9405 42.666 38.5493 42.9863 38.1298 43.2627C37.7497 43.5137 37.3464 43.7295 36.9198 43.9102C36.4947 44.0898 36.0606 44.2285 35.6174 44.3262C35.091 44.4424 34.5519 44.5 34 44.5L12 44.5C11.4481 44.5 10.909 44.4424 10.3826 44.3262C9.93945 44.2285 9.50528 44.0898 9.0802 43.9102C8.65365 43.7295 8.25036 43.5137 7.87036 43.2627C7.45077 42.9863 7.05957 42.666 6.69668 42.3037C6.33386 41.9405 6.01394 41.5489 5.737 41.1299C5.48608 40.75 5.27041 40.3467 5.08999 39.92C4.91021 39.4952 4.77151 39.0606 4.67392 38.6172C4.55798 38.0909 4.5 37.5518 4.5 37.0001L4.5 20.1165L4.45346 20.1545C3.80276 20.6887 2.87442 20.594 2.34356 19.9387C1.81274 19.2844 1.90692 18.3499 2.55761 17.8157Z" fill="#191919" fill-rule="evenodd"/>
  <path id="矢量 1706" d="M44.0064 23.892L29.0144 38.884C28.9063 38.9933 28.7859 39.0894 28.656 39.1702L28.4543 39.28L20.1624 43.1899C19.9443 43.292 19.7224 43.338 19.5103 43.338C18.5447 43.338 17.7532 42.3729 18.0715 41.3756L22.0584 32.884C22.1238 32.7467 22.2051 32.6156 22.3005 32.4954L37.4463 17.332C38.3342 16.444 39.5002 16 40.6704 16C41.8604 16 43.0544 16.458 43.9663 17.3719C45.696 19.1017 45.791 21.8408 44.2393 23.6414L44.0064 23.892ZM40.6704 19C40.4551 19.0159 40.0305 19.0862 39.7388 19.3042L39.1868 19.8337L41.5049 22.1517L41.8862 21.772C42.2258 21.4326 42.3154 21.0374 42.334 20.7764C42.332 20.3384 42.1604 19.806 41.8464 19.4919C41.5283 19.176 41.1104 19 40.6704 19ZM37.0647 21.9537L24.6982 34.322L22.6284 38.708L27.0164 36.64L39.3848 24.2717L37.0647 21.9537Z" fill="#AEAEAE" fill-rule="evenodd"/>
</svg>
