<svg viewBox="0 0 48 48" xmlns="http://www.w3.org/2000/svg" xmlns:xlink="http://www.w3.org/1999/xlink" width="48.000000" height="48.000000" fill="none">
  <path id="形状结合" d="M38.5 41C39.3284 41 40 41.6716 40 42.5C40 43.2594 39.4357 43.887 38.7035 43.9863L38.5 44L9.5 44C8.67157 44 8 43.3284 8 42.5C8 41.7406 8.56431 41.113 9.29646 41.0137L9.5 41L38.5 41ZM24 4C29.799 4 34.5 8.70101 34.5 14.5C34.5 18.1252 32.6468 21.4354 29.6497 23.3518C29.5747 23.3998 29.4885 23.4507 29.3874 23.5075C29.1986 23.6136 29.0672 23.7945 29.022 24.0012L29.002 25.462C29.0212 25.6276 29.1268 25.866 29.2675 25.9412L29.5028 26L36.25 26C38.2224 26 39.8392 27.5228 39.9887 29.4569L40 29.75L40 34.75C40 36.7224 38.4772 38.3392 36.5431 38.4887L36.25 38.5L11.75 38.5C9.77755 38.5 8.16079 36.9772 8.01128 35.0431L8 34.75L8 29.75C8 27.7776 9.52284 26.1608 11.4569 26.0113L11.75 26L18.5035 26C18.7399 26 18.938 25.8359 18.9901 25.6154L19.0058 24.1542C19.0063 23.8778 18.8547 23.6235 18.6113 23.4925C18.4679 23.4153 18.3825 23.3685 18.3156 23.3281L17.8593 23.018C15.1504 21.0635 13.5 17.9213 13.5 14.5C13.5 8.70101 18.201 4 24 4Z" fill="#191919" fill-rule="evenodd"/>
  <path id="形状结合" d="M38.5 41C39.3284 41 40 41.6716 40 42.5C40 43.2594 39.4357 43.887 38.7035 43.9863L38.5 44L9.5 44C8.67157 44 8 43.3284 8 42.5C8 41.7406 8.56431 41.113 9.29646 41.0137L9.5 41L38.5 41Z" fill="#AEAEAE" fill-rule="evenodd"/>
</svg>
