<svg viewBox="0 0 48 48" xmlns="http://www.w3.org/2000/svg" xmlns:xlink="http://www.w3.org/1999/xlink" width="48.000000" height="48.000000" fill="none">
  <path id="减去顶层" d="M21.238 4.169L20.9411 4.07496C20.4405 3.94978 19.9163 3.982 19.438 4.167L6.434 9.041L6.14967 9.16191C4.85369 9.7779 4 11.1046 4 12.555L4 25.917L4.0101 26.499C4.21843 32.4922 7.63606 37.832 13.032 40.529L19.648 43.839L19.8699 43.929C20.0211 43.977 20.178 44.001 20.334 44.001C20.568 44.001 20.804 43.947 21.02 43.839L23.9776 42.3593C23.2386 41.6467 22.5838 40.8475 22.0295 39.9779L20.332 40.8265L14.3743 37.846L13.9093 37.6025C9.62844 35.2543 7 30.8327 7 25.917L7.01646 12.4049C7.07035 12.1586 7.25164 11.9388 7.4869 11.8502L20.334 7.0325L33.3151 11.9182C33.5259 12.0552 33.668 12.3023 33.668 12.555L33.668 20.0169C34.7047 20.0693 35.7093 20.2433 36.668 20.5247L36.668 12.555L36.6551 12.2463C36.5352 10.8166 35.5911 9.55247 34.234 9.041L21.238 4.169ZM31 20.1529L31 19.9334L25.6383 19.9334L25.6383 17.5547L30.0638 17.5547L30.0638 15.6254L25.6383 15.6254L25.6383 13L23.6755 13L23.6755 15.6254L19.6064 15.6254L19.6064 17.5547L23.6755 17.5547L23.6755 19.9334L18.4043 19.9334L18.4043 21.934L26.1743 21.934C27.6192 21.0408 29.2521 20.4228 31 20.1529ZM23.4083 24.225L19.0798 24.225L19.0798 26.1543L20.7128 26.1543L19.6064 27.2066C20.0094 27.6235 20.4087 28.0507 20.8043 28.4883C21.0421 27.8456 21.3293 27.2269 21.6612 26.6367C21.5137 26.4757 21.366 26.3149 21.2181 26.1543L21.9464 26.1543C22.3738 25.4657 22.8637 24.8199 23.4083 24.225ZM16.883 13.1754L15.0053 13.1754L15.0053 17.467L13.633 17.467C13.6933 16.6595 13.7801 15.8428 13.8936 15.017L12.1064 14.8416C12.0208 16.1373 11.8879 17.4264 11.7077 18.7089C11.522 20.0303 11.2861 21.3447 11 22.652L12.6968 22.9863C12.9876 21.8207 13.2199 20.624 13.3936 19.3963L15.0053 19.3963L15.0053 23.8633C13.7004 24.3419 12.3652 24.784 11 25.1896L11.5213 27.3875C12.6525 26.9088 13.8138 26.4685 15.0053 26.0666L15.0053 33L16.883 33L16.883 25.4582L18.9309 24.6744L18.8404 23.8633L18.5798 22.652C18.0124 22.8749 17.4468 23.0776 16.883 23.2603L16.883 19.3963L19.1702 19.3963L19.1702 17.467L16.883 17.467L16.883 13.1754Z" fill="#191919" fill-rule="evenodd"/>
  <path id="合并" d="M33 22C39.0751 22 44 26.9249 44 33C44 39.0751 39.0751 44 33 44C26.9249 44 22 39.0751 22 33C22 26.9249 26.9249 22 33 22ZM24.64 33C24.64 28.3829 28.3829 24.64 33 24.64C37.6171 24.64 41.36 28.3829 41.36 33C41.36 37.6171 37.6171 41.36 33 41.36C28.3829 41.36 24.64 37.6171 24.64 33ZM32.9578 27.6017C32.6459 27.5339 32.3266 27.5 32 27.5C31.6734 27.5 31.3541 27.5339 31.0422 27.6017C30.7719 27.6604 30.5071 27.7446 30.2479 27.8542C29.9897 27.9635 29.7458 28.0941 29.5161 28.2463L29.5158 28.2465C29.2664 28.4117 29.0338 28.6022 28.818 28.818C28.6021 29.0339 28.4116 29.2666 28.2463 29.516L28.2463 29.516C28.0941 29.7458 27.9635 29.9897 27.8542 30.2479C27.7446 30.5071 27.6604 30.7719 27.6017 31.0422L27.6016 31.0425C27.5339 31.3543 27.5 31.6735 27.5 32C27.5 32.3266 27.5339 32.6459 27.6017 32.9578C27.6604 33.2281 27.7446 33.4929 27.8542 33.7521C27.9635 34.0103 28.0941 34.2542 28.2463 34.4839L28.2463 34.484C28.4116 34.7334 28.6021 34.9661 28.818 35.182C29.0339 35.3979 29.2666 35.5884 29.516 35.7537C29.7458 35.9058 29.9897 36.0365 30.2479 36.1458C30.5071 36.2554 30.7719 36.3396 31.0422 36.3983C31.3541 36.4661 31.6734 36.5 32 36.5C32.3266 36.5 32.6459 36.4661 32.9578 36.3983C33.2281 36.3396 33.4929 36.2554 33.7521 36.1458C33.8156 36.1189 33.8782 36.0907 33.94 36.0613L35.9393 38.0607C36.5333 38.6547 37.4667 38.6547 38.0606 38.0607C38.6546 37.4667 38.6546 36.5334 38.0607 35.9394L36.0613 33.94C36.0907 33.8782 36.1189 33.8156 36.1458 33.7521C36.2554 33.4929 36.3396 33.2281 36.3983 32.9578C36.4661 32.6459 36.5 32.3266 36.5 32C36.5 31.6734 36.4661 31.3541 36.3983 31.0422C36.3396 30.7719 36.2554 30.5071 36.1458 30.2479C36.0365 29.9897 35.9058 29.7458 35.7537 29.516C35.5884 29.2666 35.3979 29.0339 35.182 28.818C34.9661 28.6021 34.7334 28.4116 34.484 28.2464L34.484 28.2463L34.484 28.2463C34.2542 28.0941 34.0103 27.9635 33.7521 27.8542C33.4929 27.7446 33.2281 27.6604 32.9578 27.6017L32.9578 27.6017ZM31.6388 30.5432C31.7557 30.5144 31.876 30.5 32 30.5C32.124 30.5 32.2443 30.5144 32.3612 30.5432C32.4367 30.5619 32.5108 30.5866 32.5834 30.6173C32.662 30.6505 32.7367 30.6898 32.8075 30.7352C32.8983 30.7933 32.9827 30.8613 33.0607 30.9393C33.1386 31.0173 33.2067 31.1017 33.2648 31.1924C33.3102 31.2633 33.3495 31.338 33.3827 31.4166C33.4134 31.4892 33.4381 31.5633 33.4568 31.6388C33.4856 31.7557 33.5 31.8761 33.5 32C33.5 32.1239 33.4856 32.2443 33.4568 32.3612C33.4381 32.4367 33.4134 32.5108 33.3827 32.5834C33.3495 32.662 33.3102 32.7367 33.2648 32.8076C33.2067 32.8983 33.1387 32.9827 33.0607 33.0607C32.9827 33.1387 32.8983 33.2067 32.8076 33.2648C32.7367 33.3102 32.662 33.3495 32.5834 33.3827C32.5108 33.4134 32.4367 33.4381 32.3612 33.4568C32.2443 33.4856 32.1239 33.5 32 33.5C31.8761 33.5 31.7557 33.4856 31.6388 33.4568C31.5633 33.4381 31.4892 33.4134 31.4166 33.3827C31.338 33.3495 31.2633 33.3102 31.1924 33.2648C31.1017 33.2067 31.0173 33.1387 30.9393 33.0607C30.8613 32.9827 30.7933 32.8983 30.7352 32.8075C30.6898 32.7367 30.6505 32.662 30.6173 32.5834C30.5866 32.5108 30.5619 32.4368 30.5432 32.3612C30.5144 32.2444 30.5 32.124 30.5 32C30.5 31.8761 30.5144 31.7557 30.5432 31.6389L30.5432 31.6388C30.5619 31.5633 30.5866 31.4892 30.6173 31.4166C30.6505 31.338 30.6898 31.2633 30.7352 31.1924C30.7933 31.1017 30.8613 31.0173 30.9393 30.9393C31.0173 30.8613 31.1017 30.7933 31.1924 30.7352C31.2633 30.6898 31.338 30.6505 31.4166 30.6173C31.4892 30.5866 31.5633 30.5619 31.6388 30.5432Z" fill="#AEAEAE" fill-rule="evenodd"/>
</svg>
