<svg viewBox="0 0 48 48" xmlns="http://www.w3.org/2000/svg" xmlns:xlink="http://www.w3.org/1999/xlink" width="48.000000" height="48.000000" fill="none">
  <path id="path" d="M30 3.47998L10 3.47998C6.68 3.47998 4 6.17998 4 9.47998L4 40.14C4 41.66 5.6 42.62 6.94 41.92L13.3 38.5C14.1 38.08 15.08 38.24 15.7 38.9L18.52 41.92C19.32 42.76 20.66 42.76 21.46 41.92L21.66 41.7C19.98 39.4 19 36.56 19 33.48C19 33.2 19 32.92 19.02 32.64C18.7 32.36 18.5 31.96 18.5 31.48L18.5 25.8L14 25.8C13.14 25.8 12.5 25.14 12.5 24.3C12.5 23.46 13.14 22.8 14 22.8L18.5 22.8L18.5 19.08L14 19.08C13.14 19.08 12.5 18.42 12.5 17.58C12.5 16.74 13.14 16.08 14 16.08L17.02 16.08L12.78 10.38C12.28 9.69998 12.42 8.77998 13.1 8.27998C13.78 7.77998 14.7 7.91998 15.2 8.59998L20 15.06L24.78 8.59998C25.28 7.91998 26.2 7.77998 26.88 8.27998C27.56 8.77998 27.7 9.69998 27.2 10.38L22.96 16.08L26 16.08C26.84 16.08 27.5 16.74 27.5 17.58C27.5 18.42 26.84 19.08 26 19.08L21.5 19.08L21.5 22.8L23.96 22.8C26.38 20.74 29.54 19.48 33 19.48C34.02 19.48 35.02 19.6 36 19.82L36 9.47998C36 6.17998 33.3 3.47998 30 3.47998Z" fill="#191919" fill-rule="evenodd"/>
  <path id="减去顶层" d="M33 22C26.94 22 22 26.92 22 33C22 39.06 26.94 44 33 44C39.08 44 44 39.06 44 33C44 26.92 39.08 22 33 22ZM38.0573 29.3906C38.524 29.8612 38.5635 30.5947 38.1779 31.1098L32.7249 36.5374C32.2571 37.0012 31.3811 36.9169 30.866 36.5374L27.3906 33.091C26.8729 32.5777 26.8694 31.7419 27.3827 31.2243C27.8494 30.7537 28.7311 30.8352 29.2494 31.2164L31.7942 33.7398L36.1906 29.3827C36.7082 28.8694 37.544 28.873 38.0573 29.3906Z" fill="#191919" fill-rule="evenodd"/>
  <path id="减去顶层" d="M33 22C26.94 22 22 26.92 22 33C22 39.06 26.94 44 33 44C39.08 44 44 39.06 44 33C44 26.92 39.08 22 33 22ZM38.0573 29.3906C38.524 29.8612 38.5635 30.5947 38.1779 31.1098L32.7249 36.5374C32.2571 37.0012 31.3811 36.9169 30.866 36.5374L27.3906 33.091C26.8729 32.5777 26.8694 31.7419 27.3827 31.2243C27.8494 30.7537 28.7311 30.8352 29.2494 31.2164L31.7942 33.7398L36.1906 29.3827C36.7082 28.8694 37.544 28.873 38.0573 29.3906Z" fill="#AEAEAE" fill-rule="evenodd"/>
</svg>
