<svg viewBox="0 0 48 48" xmlns="http://www.w3.org/2000/svg" xmlns:xlink="http://www.w3.org/1999/xlink" width="48.000000" height="48.000000" fill="none">
  <path id="形状结合" d="M38.9988 40.9999C39.8273 40.9999 40.4988 41.6715 40.4988 42.4999C40.4988 43.2593 39.9345 43.8869 39.2024 43.9862L38.9988 43.9999L8.99885 43.9999C8.17042 43.9999 7.49885 43.3284 7.49885 42.4999C7.49885 41.7405 8.06316 41.1129 8.79531 41.0136L8.99885 40.9999L38.9988 40.9999ZM12.999 10.6233C13.1858 10.5553 13.392 10.5644 13.5722 10.6484L28.6688 17.6875L36.9948 14.6593C37.7515 14.384 38.563 14.3054 39.3523 14.4289L39.7447 14.5074L42.1584 15.0954C44.2405 15.6015 44.9977 18.1679 43.5236 19.7241C43.0087 20.2673 42.3846 20.6785 41.6917 20.9309L12.3725 31.6006C11.3937 31.9581 10.2959 31.7305 9.54161 31.0148L3.94361 25.7148C3.53876 25.3315 3.67879 24.6561 4.20266 24.4654L8.64666 22.8474C8.86678 22.7672 9.1117 22.7945 9.30875 22.9212L11.1108 24.0775L18.3608 21.4395L8.10302 13.6329C7.67373 13.3062 7.72765 12.6653 8.16003 12.3992L12.999 10.6233Z" fill="#191919" fill-rule="evenodd"/>
  <path id="形状结合" d="M39.0034 41.0005C39.8318 41.0005 40.5034 41.6721 40.5034 42.5005C40.5034 43.2599 39.9391 43.8875 39.207 43.9868L39.0034 44.0005L9.00342 44.0005C8.17499 44.0005 7.50342 43.3289 7.50342 42.5005C7.50342 41.7411 8.06773 41.1135 8.79988 41.0142L9.00342 41.0005L39.0034 41.0005Z" fill="#AEAEAE" fill-rule="evenodd"/>
</svg>
