<svg viewBox="0 0 48 48" xmlns="http://www.w3.org/2000/svg" xmlns:xlink="http://www.w3.org/1999/xlink" width="48.000000" height="48.000000" fill="none">
  <path id="形状结合" d="M24 4C28.4341 4 32.6516 5.44838 36.1066 8.07848C36.7657 8.58028 36.8933 9.52142 36.3915 10.1806C35.8897 10.8397 34.9486 10.9673 34.2894 10.4655C31.3523 8.22962 27.7718 7 24 7C14.6117 7 7 14.6111 7 24C7 33.3876 14.6124 41 24 41C33.3889 41 41 33.3883 41 24C41 20.2292 39.7717 16.6507 37.5362 13.7122C37.0346 13.0529 37.1625 12.1118 37.8218 11.6102C38.4811 11.1086 39.4222 11.2365 39.9238 11.8958C42.5532 15.352 44 19.5672 44 24C44 35.0451 35.0458 44 24 44C12.9556 44 4 35.0444 4 24C4 12.9542 12.9549 4 24 4ZM24 31.9932C25.106 31.9932 26 32.8872 26 33.9932C26 35.0972 25.106 35.9932 24 35.9932C22.894 35.9932 22 35.0972 22 33.9932C22 32.8872 22.894 31.9932 24 31.9932ZM25.2424 11.6078C28.0425 12.1015 30.3185 14.3768 30.8096 17.1765C31.3114 20.0443 30.0252 22.8116 27.6645 24.2858L27.336 24.4787C26.2803 25.0605 25.6173 25.9898 25.5141 27.0105L25.5 27.291L25.5 28.575C25.5 29.4034 24.8284 30.075 24 30.075C23.2406 30.075 22.613 29.5107 22.5137 28.7785L22.5 28.575L22.5 27.291C22.5 25.1472 23.6695 23.2296 25.5309 22.0615L25.8879 21.8513C27.3472 21.047 28.1555 19.414 27.8546 17.6941C27.5818 16.139 26.2793 14.8369 24.7232 14.5625C22.2653 14.132 20.082 15.9837 20.082 18.417C20.082 19.2454 19.4104 19.917 18.582 19.917C17.7536 19.917 17.082 19.2454 17.082 18.417C17.082 14.1265 20.9403 10.8543 25.2424 11.6078Z" fill="#191919" fill-rule="evenodd"/>
  <path id="形状结合" d="M24 31.9928C25.106 31.9928 26 32.8868 26 33.9928C26 35.0968 25.106 35.9928 24 35.9928C22.894 35.9928 22 35.0968 22 33.9928C22 32.8868 22.894 31.9928 24 31.9928ZM25.2424 11.6074C28.0425 12.1011 30.3185 14.3764 30.8096 17.1761C31.3114 20.0439 30.0252 22.8112 27.6645 24.2854L27.336 24.4784C26.2803 25.0601 25.6173 25.9895 25.5141 27.0102L25.5 27.2906L25.5 28.5746C25.5 29.4031 24.8284 30.0746 24 30.0746C23.2406 30.0746 22.613 29.5103 22.5137 28.7782L22.5 28.5746L22.5 27.2906C22.5 25.1469 23.6695 23.2293 25.5309 22.0611L25.8879 21.851C27.3472 21.0467 28.1555 19.4136 27.8546 17.6938C27.5818 16.1386 26.2793 14.8365 24.7232 14.5622C22.2653 14.1317 20.082 15.9833 20.082 18.4166C20.082 19.2451 19.4104 19.9166 18.582 19.9166C17.7536 19.9166 17.082 19.2451 17.082 18.4166C17.082 14.1262 20.9403 10.854 25.2424 11.6074Z" fill="#AEAEAE" fill-rule="evenodd"/>
</svg>
