<svg viewBox="0 0 48 48" xmlns="http://www.w3.org/2000/svg" xmlns:xlink="http://www.w3.org/1999/xlink" width="48.000000" height="48.000000" fill="none">
  <path id="形状结合" d="M6.242 8.5C8.038 8.5 9.5 9.96 9.5 11.758L9.5 27.242C9.5 29.04 8.038 30.5 6.242 30.5L3.256 30.5C1.46 30.5 0 29.04 0 27.242L0 11.758C0 9.96 1.46 8.5 3.256 8.5L6.242 8.5ZM20.242 0C22.038 0 23.5 1.46 23.5 3.258L23.5 27.242C23.5 29.04 22.038 30.5 20.242 30.5L17.256 30.5C15.46 30.5 14 29.04 14 27.242L14 3.258C14 1.46 15.46 0 17.256 0L20.242 0Z" fill="#191919" fill-rule="evenodd" transform="matrix(0,1,-1,0,39.25,19)"/>
  <path id="形状结合" d="M6.242 0C8.038 0 9.5 1.46 9.5 3.258L9.5 10.742C9.5 12.54 8.038 14 6.242 14L3.256 14C1.46 14 0 12.54 0 10.742L0 3.258C0 1.46 1.46 0 3.256 0L6.242 0Z" fill="#191919" fill-rule="evenodd" transform="matrix(0,1,-1,0,22.75,5)"/>
  <path id="形状结合" d="M6.242 0C8.038 0 9.5 1.46 9.5 3.258L9.5 10.742C9.5 12.54 8.038 14 6.242 14L3.256 14C1.46 14 0 12.54 0 10.742L0 3.258C0 1.46 1.46 0 3.256 0L6.242 0Z" fill="#AEAEAE" fill-rule="evenodd" transform="matrix(0,1,-1,0,22.75,5)"/>
</svg>
