<svg viewBox="0 0 48 48" xmlns="http://www.w3.org/2000/svg" xmlns:xlink="http://www.w3.org/1999/xlink" width="48.000000" height="48.000000" fill="none">
  <path id="矢量 238" d="M33.2531 27.2769L21.856 39.9154C20.9464 40.9241 19.6558 41.5 18.3015 41.5C15.6462 41.5 13.5 39.3319 13.5 36.6649L13.5 11.3352C13.5 9.97449 14.0694 8.67603 15.0697 7.75928C17.0355 5.95764 20.0803 6.1073 21.8626 8.09204L33.2597 20.7832C34.916 22.6274 34.9131 25.436 33.2531 27.2769ZM19.6306 10.0964L31.0277 22.7876C31.6584 23.49 31.6573 24.5668 31.0252 25.2678L19.6281 37.9064C19.2864 38.2852 18.805 38.5 18.3015 38.5C17.31 38.5 16.5 37.6818 16.5 36.6648L16.5 11.3352C16.5 10.8142 16.7173 10.3185 17.0966 9.97095C17.8317 9.29724 18.9627 9.35278 19.6306 10.0964Z" fill="#191919" fill-rule="evenodd"/>
</svg>
