<svg viewBox="0 0 48 48" xmlns="http://www.w3.org/2000/svg" xmlns:xlink="http://www.w3.org/1999/xlink" width="48.000000" height="48.000000" fill="none">
  <path id="减去顶层" d="M31 4L17 4C15.88 4 15 4.88 15 6L15 8C15 9.1 15.88 10 17 10L31 10C32.1 10 33 9.1 33 8L33 6C33 4.88 32.1 4 31 4ZM12 7C11.9342 7.1974 11.955 7.41212 11.9769 7.63846C11.9883 7.7561 12 7.87688 12 8L12 9C12 11.2 13.78 13 16 13L32 13C34.2 13 36 11.2 36 9L36 8C36 7.64 35.94 7.3 35.86 7C39.18 7 42 9.68 42 13L42 38C42 41.3 39.3 44 36 44L12 44C8.68 44 6 41.3 6 38L6 13C6 9.68 8.68 7 12 7ZM18 20C18 18.8954 17.1046 18 16 18C14.8954 18 14 18.8954 14 20C14 21.1046 14.8954 22 16 22C17.1046 22 18 21.1046 18 20ZM34.7286 20C34.7286 19.1716 34.057 18.5 33.2286 18.5L22.4957 18.5L22.2922 18.5137C21.56 18.613 20.9957 19.2406 20.9957 20C20.9957 20.7594 21.56 21.387 22.2922 21.4863L22.4957 21.5L33.2286 21.5L33.4322 21.4863C34.1643 21.387 34.7286 20.7594 34.7286 20ZM18 28.0096C18 26.9051 17.1046 26.0096 16 26.0096C14.8954 26.0096 14 26.9051 14 28.0096C14 29.1142 14.8954 30.0096 16 30.0096C17.1046 30.0096 18 29.1142 18 28.0096ZM34.7286 28.0096C34.7286 27.1812 34.057 26.5096 33.2286 26.5096L22.4957 26.5096L22.2922 26.5233C21.56 26.6227 20.9957 27.2502 20.9957 28.0096C20.9957 28.769 21.56 29.3966 22.2922 29.4959L22.4957 29.5096L33.2286 29.5096L33.4322 29.4959C34.1643 29.3966 34.7286 28.769 34.7286 28.0096ZM18 36.0193C18 34.9147 17.1046 34.0193 16 34.0193C14.8954 34.0193 14 34.9147 14 36.0193C14 37.1238 14.8954 38.0193 16 38.0193C17.1046 38.0193 18 37.1238 18 36.0193ZM34.7286 36.0193C34.7286 35.1908 34.057 34.5193 33.2286 34.5193L22.4957 34.5193L22.2922 34.533C21.56 34.6323 20.9957 35.2599 20.9957 36.0193C20.9957 36.7787 21.56 37.4063 22.2922 37.5056L22.4957 37.5193L33.2286 37.5193L33.4322 37.5056C34.1643 37.4063 34.7286 36.7787 34.7286 36.0193Z" fill="#191919" fill-rule="evenodd"/>
  <path id="形状" d="M16 34.0193C17.1046 34.0193 18 34.9147 18 36.0193C18 37.1238 17.1046 38.0193 16 38.0193C14.8954 38.0193 14 37.1238 14 36.0193C14 34.9147 14.8954 34.0193 16 34.0193ZM33.2286 34.5193C34.057 34.5193 34.7286 35.1908 34.7286 36.0193C34.7286 36.7787 34.1643 37.4063 33.4322 37.5056L33.2286 37.5193L22.4957 37.5193L22.2922 37.5056C21.56 37.4063 20.9957 36.7787 20.9957 36.0193C20.9957 35.2599 21.56 34.6323 22.2922 34.533L22.4957 34.5193L33.2286 34.5193ZM16 26.0096C17.1046 26.0096 18 26.9051 18 28.0096C18 29.1142 17.1046 30.0096 16 30.0096C14.8954 30.0096 14 29.1142 14 28.0096C14 26.9051 14.8954 26.0096 16 26.0096ZM33.2286 26.5096C34.057 26.5096 34.7286 27.1812 34.7286 28.0096C34.7286 28.769 34.1643 29.3966 33.4322 29.4959L33.2286 29.5096L22.4957 29.5096L22.2922 29.4959C21.56 29.3966 20.9957 28.769 20.9957 28.0096C20.9957 27.2502 21.56 26.6227 22.2922 26.5233L22.4957 26.5096L33.2286 26.5096ZM16 18C17.1046 18 18 18.8954 18 20C18 21.1046 17.1046 22 16 22C14.8954 22 14 21.1046 14 20C14 18.8954 14.8954 18 16 18ZM33.2286 18.5C34.057 18.5 34.7286 19.1716 34.7286 20C34.7286 20.7594 34.1643 21.387 33.4322 21.4863L33.2286 21.5L22.4957 21.5L22.2922 21.4863C21.56 21.387 20.9957 20.7594 20.9957 20C20.9957 19.2406 21.56 18.613 22.2922 18.5137L22.4957 18.5L33.2286 18.5Z" fill="#AEAEAE" fill-rule="nonzero"/>
</svg>
