<svg viewBox="0 0 48 48" xmlns="http://www.w3.org/2000/svg" xmlns:xlink="http://www.w3.org/1999/xlink" width="48.000000" height="48.000000" fill="none">
  <path id="形状结合" d="M31 4C34.1954 4 36.8073 6.49784 36.9898 9.64745L37 10L37 16.3438C37 17.1722 36.3284 17.8438 35.5 17.8438C34.7406 17.8438 34.113 17.2794 34.0137 16.5473L34 16.3438L34 10C34 8.44061 32.8102 7.1591 31.2889 7.01373L31 7L10 7C8.44061 7 7.1591 8.18978 7.01373 9.71108L7 10L7 37C7 38.5594 8.18978 39.8409 9.71108 39.9863L10 40L19.8 40C20.6284 40 21.3 40.6716 21.3 41.5C21.3 42.2594 20.7357 42.887 20.0035 42.9863L19.8 43L10 43C6.80464 43 4.19268 40.5022 4.01019 37.3525L4 37L4 10C4 6.80464 6.49784 4.19268 9.64745 4.01019L10 4L31 4Z" fill="#191919" fill-rule="evenodd"/>
  <path id="合并(边框)" d="M26.1739 25.8825C26.058 26.4089 26 26.9481 26 27.5C26 28.0519 26.058 28.591 26.1739 29.1174C26.2715 29.5606 26.4102 29.9947 26.59 30.4198C26.7704 30.8464 26.9861 31.2497 27.237 31.6297C27.514 32.0493 27.8339 32.4405 28.1967 32.8033C28.5595 33.1661 28.9507 33.486 29.3702 33.763C29.5001 33.8487 29.6327 33.9303 29.768 34.0078C29.2741 34.0296 28.7912 34.0969 28.319 34.2097C28.0106 34.2833 27.7068 34.3764 27.4076 34.4889C26.8104 34.7134 26.2602 35.0042 25.757 35.3612C25.5468 35.5103 25.3448 35.6711 25.151 35.8433C24.6629 36.2771 24.254 36.76 23.9243 37.2919C23.801 37.4909 23.6887 37.6966 23.5876 37.9093C23.3746 38.3568 23.2196 38.8162 23.1224 39.2876C23.0408 39.6833 23 40.0874 23 40.5L23 41.6667C23 41.8306 23.0165 41.9911 23.0496 42.1481C23.0802 42.2935 23.125 42.4359 23.184 42.5754C23.2418 42.712 23.3111 42.8408 23.392 42.962C23.4765 43.0886 23.5737 43.2068 23.6834 43.3166C23.7932 43.4263 23.9114 43.5235 24.038 43.608C24.1592 43.6889 24.288 43.7582 24.4246 43.816C24.5641 43.875 24.7065 43.9198 24.8519 43.9504C25.0089 43.9835 25.1694 44 25.3333 44L41.6667 44C41.8306 44 41.9911 43.9835 42.1481 43.9504C42.2935 43.9198 42.4359 43.875 42.5754 43.816C42.7119 43.7583 42.8408 43.6889 42.9619 43.6081C43.0886 43.5235 43.2068 43.4264 43.3166 43.3166C43.4264 43.2068 43.5235 43.0886 43.608 42.962C43.6889 42.8408 43.7582 42.712 43.816 42.5754C43.875 42.4359 43.9198 42.2935 43.9504 42.1481C43.9835 41.9911 44 41.8306 44 41.6667L44 40.5C44 40.0874 43.9592 39.6832 43.8776 39.2875C43.7804 38.8161 43.6254 38.3567 43.4124 37.9093C43.3113 37.6966 43.199 37.4908 43.0757 37.2919C42.746 36.76 42.3371 36.2771 41.849 35.8433C41.6553 35.6711 41.4533 35.5104 41.2431 35.3613C40.7399 35.0042 40.1896 34.7134 39.5924 34.4889C39.2933 34.3764 38.9895 34.2834 38.6812 34.2097C38.209 34.0969 37.7259 34.0296 37.232 34.0078C37.3673 33.9303 37.4999 33.8487 37.6298 33.763C38.0493 33.486 38.4405 33.1661 38.8033 32.8033C39.1661 32.4405 39.486 32.0493 39.763 31.6298C40.0139 31.2497 40.2296 30.8464 40.41 30.4198C40.5898 29.9947 40.7285 29.5606 40.8261 29.1175C40.942 28.5911 41 28.0519 41 27.5C41 26.9481 40.942 26.4089 40.8261 25.8825C40.7285 25.4394 40.5898 25.0053 40.41 24.5802C40.2296 24.1536 40.0139 23.7503 39.763 23.3702C39.486 22.9507 39.1661 22.5595 38.8033 22.1967C38.4405 21.8339 38.0493 21.514 37.6297 21.237C37.2497 20.9861 36.8464 20.7704 36.4198 20.59C35.9947 20.4102 35.5606 20.2715 35.1175 20.1739C34.5911 20.058 34.0519 20 33.5 20C32.9481 20 32.4089 20.058 31.8826 20.1739C31.4394 20.2715 31.0053 20.4102 30.5802 20.59C30.1536 20.7704 29.7503 20.9861 29.3703 21.237C28.9507 21.5139 28.5595 21.8339 28.1967 22.1967C27.8339 22.5595 27.514 22.9507 27.237 23.3703C26.9861 23.7503 26.7704 24.1536 26.59 24.5802C26.4102 25.0053 26.2715 25.4394 26.1739 25.8825ZM29.1153 28.5209C29.0384 28.1895 29 27.8492 29 27.5C29 27.1508 29.0384 26.8105 29.1153 26.4791C29.173 26.2307 29.2522 25.9873 29.353 25.7489C29.4575 25.5019 29.5817 25.2678 29.7258 25.0467C29.8957 24.7858 30.0931 24.543 30.318 24.318C30.543 24.0931 30.7859 23.8957 31.0467 23.7258C31.2678 23.5817 31.5019 23.4575 31.7489 23.353C31.9873 23.2522 32.2307 23.1729 32.4791 23.1153C32.8105 23.0384 33.1508 23 33.5 23C33.8492 23 34.1895 23.0384 34.5209 23.1153C34.7693 23.1729 35.0127 23.2522 35.2511 23.353C35.4981 23.4575 35.7322 23.5817 35.9533 23.7258C36.2141 23.8957 36.457 24.0931 36.682 24.318C36.9069 24.5429 37.1043 24.7858 37.2742 25.0466C37.4182 25.2678 37.5425 25.5019 37.647 25.7489C37.7478 25.9873 37.8271 26.2307 37.8847 26.4791C37.9616 26.8105 38 27.1508 38 27.5C38 27.8492 37.9616 28.1895 37.8847 28.5209C37.8271 28.7693 37.7478 29.0127 37.647 29.2511C37.5425 29.4981 37.4183 29.7322 37.2742 29.9534C37.1043 30.2142 36.9069 30.4571 36.682 30.682C36.4571 30.9069 36.2142 31.1043 35.9534 31.2742C35.7322 31.4182 35.4981 31.5425 35.2511 31.647C35.0127 31.7478 34.7693 31.8271 34.5208 31.8847C34.1895 31.9616 33.8492 32 33.5 32C33.1508 32 32.8105 31.9616 32.4791 31.8847C32.2307 31.8271 31.9873 31.7478 31.7489 31.647C31.5019 31.5425 31.2678 31.4182 31.0466 31.2742C30.7858 31.1043 30.5429 30.9069 30.318 30.682C30.0931 30.457 29.8957 30.2142 29.7258 29.9534C29.5817 29.7322 29.4575 29.4981 29.353 29.2511C29.2522 29.0127 29.1729 28.7693 29.1153 28.5209ZM26 41L41 41L41 40.5C41 40.313 40.9831 40.1292 40.9493 39.9485C40.9014 39.6921 40.8195 39.442 40.7035 39.1983C40.6865 39.1625 40.6689 39.1271 40.6506 39.0921C40.4567 38.7196 40.1918 38.3841 39.8559 38.0856C39.7981 38.0342 39.7389 37.9845 39.6784 37.9366C39.3406 37.6693 38.96 37.4561 38.5367 37.297C38.4062 37.2479 38.274 37.2049 38.1402 37.168C37.7339 37.056 37.3122 37 36.875 37L30.125 37C29.6879 37 29.2662 37.056 28.86 37.168C28.7261 37.2049 28.5939 37.2479 28.4634 37.297C28.04 37.4561 27.6595 37.6693 27.3217 37.9366C27.2611 37.9845 27.2019 38.0342 27.1441 38.0856C26.8081 38.3842 26.5432 38.7197 26.3493 39.0923C26.3311 39.1273 26.3135 39.1626 26.2965 39.1983C26.1805 39.442 26.0986 39.6921 26.0507 39.9485C26.0169 40.1292 26 40.313 26 40.5L26 41Z" fill="#AEAEAE" fill-rule="evenodd"/>
  <path id="减去顶层" d="M17.7942 12.5689L20.1654 15.533L22.7085 12.5359C23.252 11.8953 24.1822 11.8191 24.8227 12.3626C25.4632 12.9061 25.5395 13.8365 24.996 14.4769L21.8829 18.1455L25.6395 18.1455C26.4795 18.1455 27.1395 18.8057 27.1395 19.6455C27.1395 20.4856 26.4795 21.1455 25.6395 21.1455L21.6312 21.1455L21.6312 23.408L24.7625 23.408C25.1491 23.408 25.4977 23.5479 25.7612 23.7808C25.4149 24.5268 25.2231 25.3481 25.2231 26.2114C25.2231 26.2538 25.2233 26.2961 25.2238 26.3381C25.0789 26.3836 24.924 26.408 24.7625 26.408L21.6312 26.408L21.6312 29.2935C21.6312 30.1336 20.9712 30.7935 20.1312 30.7935C19.2912 30.7935 18.6312 30.1336 18.6312 29.2935L18.6312 26.408L14.5 26.408C13.66 26.408 13 25.7481 13 24.908C13 24.0681 13.66 23.408 14.5 23.408L18.6312 23.408L18.6312 21.1455L14.6229 21.1455C13.7829 21.1455 13.1229 20.4856 13.1229 19.6455C13.1229 18.8057 13.7829 18.1455 14.6229 18.1455L18.4137 18.1455L15.4516 14.4429C14.9269 13.7872 15.0299 12.8594 15.6859 12.3348C16.3418 11.8099 17.2695 11.9129 17.7942 12.5689Z" fill="#191919" fill-rule="evenodd"/>
</svg>
