<svg viewBox="0 0 48 48" xmlns="http://www.w3.org/2000/svg" xmlns:xlink="http://www.w3.org/1999/xlink" width="48.000000" height="48.000000" fill="none">
  <path id="矢量 1" d="M24 3.5C24.84 3.5 25.5 4.16 25.5 5L25.5 7.29334C25.5 8.13334 24.84 8.79334 24 8.79334C23.16 8.79334 22.5 8.13334 22.5 7.29334L22.5 5C22.5 4.16 23.16 3.5 24 3.5ZM37.5509 13.4663L39.1953 11.8447C39.7935 11.2549 39.7999 10.3215 39.2102 9.72342C38.6204 9.12532 37.687 9.11881 37.0889 9.70862L35.4445 11.3303C34.8463 11.9201 34.8398 12.8534 35.4297 13.4515C36.0195 14.0496 36.9529 14.0561 37.5509 13.4663ZM8.78979 9.72342C8.20007 10.3215 8.20654 11.2549 8.80469 11.8447L10.4491 13.4663C11.0471 14.0561 11.9805 14.0496 12.5703 13.4515C13.1602 12.8534 13.1537 11.9201 12.5555 11.3303L10.9111 9.70862C10.313 9.11881 9.37964 9.12532 8.78979 9.72342ZM17.0397 34.1849L17.0396 36.5L12 36.5C11.16 36.5 10.5 37.16 10.5 38C10.5 38.84 11.16 39.5 12 39.5L36 39.5C36.84 39.5 37.5 38.84 37.5 38C37.5 37.16 36.84 36.5 36 36.5L30.9604 36.5L30.9603 34.1849C31.7467 33.6618 32.4651 33.0568 33.1155 32.3699C33.5199 31.9428 33.8906 31.4919 34.2278 31.017C34.4786 30.6638 34.7108 30.2973 34.9243 29.9175C35.4343 29.0109 35.8224 28.0565 36.0886 27.0545C36.1939 26.6581 36.279 26.2585 36.3439 25.8557C36.448 25.2093 36.5 24.5543 36.5 23.8911C36.5 22.9863 36.4049 22.1024 36.2148 21.2394C36.0517 20.4984 35.8184 19.7727 35.515 19.0625C35.2284 18.3916 34.8885 17.7556 34.4954 17.1543C34.0195 16.4265 33.4656 15.7498 32.8335 15.124C32.2496 14.5458 31.6218 14.0338 30.9501 13.5878C30.2954 13.1532 29.599 12.7813 28.8611 12.4723C28.1748 12.1849 27.4741 11.9612 26.7593 11.8012C25.8619 11.6004 24.9423 11.5 24 11.5C23.0577 11.5 22.1381 11.6004 21.2407 11.8012C20.5259 11.9612 19.8252 12.1849 19.1389 12.4723C18.401 12.7813 17.7047 13.1531 17.05 13.5877C16.3783 14.0337 15.7505 14.5458 15.1665 15.124C14.5345 15.7497 13.9805 16.4265 13.5046 17.1543C13.1115 17.7556 12.7716 18.3916 12.485 19.0625C12.1816 19.7728 11.9484 20.4985 11.785 21.2396C11.595 22.1025 11.5 22.9863 11.5 23.8911C11.5 24.5543 11.552 25.209 11.6561 25.8554C11.7209 26.2568 11.8065 26.6596 11.9114 27.0545C12.0305 27.5028 12.174 27.9416 12.3419 28.3708C12.5493 28.901 12.7938 29.4165 13.0757 29.9175C13.5763 30.8076 14.1792 31.6251 14.8845 32.3699C15.5349 33.0568 16.2533 33.6618 17.0397 34.1849ZM27.9603 33.9303L27.9604 36.5L20.0396 36.5L20.0397 33.9303C20.0397 33.4862 19.9283 33.0698 19.7057 32.681C19.495 32.3131 19.2094 32.0139 18.8489 31.7834C18.1437 31.3326 17.5172 30.8095 16.9694 30.214C16.4805 29.6826 16.0541 29.0935 15.6904 28.4469C15.3074 27.7658 15.0167 27.0596 14.8186 26.3284C14.6063 25.5448 14.5 24.7323 14.5 23.8911C14.5 23.1909 14.5751 22.5076 14.7252 21.8413C14.8479 21.2966 15.0208 20.7632 15.2439 20.2411C15.4536 19.7501 15.7012 19.2836 15.9867 18.8415C16.3541 18.2724 16.7843 17.7439 17.2772 17.2559C17.7231 16.8144 18.2026 16.4236 18.7157 16.0835C19.2117 15.7548 19.739 15.4734 20.2977 15.2395C20.7988 15.0296 21.3103 14.8644 21.8322 14.7439C22.536 14.5813 23.2587 14.5 24 14.5C24.7414 14.5 25.464 14.5813 26.1678 14.7439C26.6897 14.8644 27.2012 15.0296 27.7023 15.2395C28.261 15.4734 28.7884 15.7548 29.2843 16.0835C29.7974 16.4236 30.2769 16.8144 30.7228 17.2559C31.2157 17.7439 31.6459 18.2724 32.0133 18.8415C32.2988 19.2836 32.5464 19.7501 32.7561 20.2411C32.9792 20.7632 33.1521 21.2966 33.2748 21.8413C33.4249 22.5076 33.5 23.1909 33.5 23.8911C33.5 24.7323 33.3938 25.5448 33.1814 26.3284C32.9833 27.0596 32.6926 27.7658 32.3096 28.4469C31.9459 29.0935 31.5195 29.6825 31.0306 30.214C30.4828 30.8094 29.8563 31.3326 29.1511 31.7834C28.7906 32.0139 28.505 32.3131 28.2943 32.681C28.1755 32.8886 28.0884 33.104 28.033 33.3274C27.9845 33.5223 27.9603 33.7233 27.9603 33.9303ZM8.32556 23.2227L6 23.2227C5.16003 23.2227 4.5 23.8827 4.5 24.7227C4.5 25.5627 5.16003 26.2227 6 26.2227L8.32556 26.2227C9.16553 26.2227 9.82556 25.5627 9.82556 24.7227C9.82556 23.8827 9.16553 23.2227 8.32556 23.2227ZM42 23.2227L39.6744 23.2227C38.8345 23.2227 38.1744 23.8827 38.1744 24.7227C38.1744 25.5627 38.8345 26.2227 39.6744 26.2227L42 26.2227C42.84 26.2227 43.5 25.5627 43.5 24.7227C43.5 23.8827 42.84 23.2227 42 23.2227ZM32 41.5L16 41.5C15.16 41.5 14.5 42.16 14.5 43C14.5 43.84 15.16 44.5 16 44.5L32 44.5C32.84 44.5 33.5 43.84 33.5 43C33.5 42.16 32.84 41.5 32 41.5Z" fill="#191919" fill-rule="evenodd"/>
  <path id="矢量 1" d="M24 3.5C24.84 3.5 25.5 4.16 25.5 5L25.5 7.29334C25.5 8.13334 24.84 8.79334 24 8.79334C23.16 8.79334 22.5 8.13334 22.5 7.29334L22.5 5C22.5 4.16 23.16 3.5 24 3.5ZM37.5509 13.4663L39.1953 11.8447C39.7935 11.2549 39.7999 10.3215 39.2102 9.72342C38.6204 9.12532 37.687 9.11881 37.0889 9.70862L35.4445 11.3303C34.8463 11.9201 34.8398 12.8534 35.4297 13.4515C36.0195 14.0496 36.9529 14.0561 37.5509 13.4663ZM8.78979 9.72342C8.20007 10.3215 8.20654 11.2549 8.80469 11.8447L10.4491 13.4663C11.0471 14.0561 11.9805 14.0496 12.5703 13.4515C13.1602 12.8534 13.1537 11.9201 12.5555 11.3303L10.9111 9.70862C10.313 9.11881 9.37964 9.12532 8.78979 9.72342ZM8.32556 23.2227L6 23.2227C5.16003 23.2227 4.5 23.8827 4.5 24.7227C4.5 25.5627 5.16003 26.2227 6 26.2227L8.32556 26.2227C9.16553 26.2227 9.82556 25.5627 9.82556 24.7227C9.82556 23.8827 9.16553 23.2227 8.32556 23.2227ZM42 23.2227L39.6744 23.2227C38.8345 23.2227 38.1744 23.8827 38.1744 24.7227C38.1744 25.5627 38.8345 26.2227 39.6744 26.2227L42 26.2227C42.84 26.2227 43.5 25.5627 43.5 24.7227C43.5 23.8827 42.84 23.2227 42 23.2227Z" fill="#AEAEAE" fill-rule="evenodd"/>
</svg>
