<svg viewBox="0 0 48 48" xmlns="http://www.w3.org/2000/svg" xmlns:xlink="http://www.w3.org/1999/xlink" width="48.000000" height="48.000000" fill="none">
  <path id="形状结合" d="M16.5759 20.1107C17.1085 20.6432 17.1569 21.4766 16.7212 22.0638L9.50358 29.3044C6.96582 31.8405 6.96582 35.9582 9.50426 38.495C11.9484 40.9408 15.8539 41.0314 18.408 38.7665L18.6966 38.4947L25.7666 31.4247C26.3524 30.8389 27.3021 30.8389 27.8879 31.4247C28.4205 31.9572 28.4689 32.7906 28.0332 33.3778L20.8179 40.616C17.1061 44.3279 11.0921 44.3279 7.38294 40.6164C3.78513 37.0209 3.67611 31.2529 7.05556 27.526L7.3826 27.1827L14.4546 20.1107C15.0404 19.5249 15.9901 19.5249 16.5759 20.1107ZM32.1399 15.8759C32.6725 16.4084 32.7209 17.2418 32.2852 17.829L17.9979 32.1392C17.4121 32.725 16.4624 32.725 15.8766 32.1392C15.3441 31.6067 15.2957 30.7734 15.7314 30.1861L30.0186 15.8759C30.6044 15.2901 31.5541 15.2901 32.1399 15.8759ZM40.615 7.38343C44.2152 10.979 44.3243 16.7475 40.9431 20.474L40.6159 20.8173L33.5459 27.8893C32.9602 28.4751 32.0104 28.4753 31.4246 27.8896C30.8919 27.3571 30.8434 26.5238 31.279 25.9365L38.4951 18.6954C41.0344 16.1594 41.0344 12.0422 38.4937 9.50475C36.0515 7.05943 32.1448 6.96887 29.592 9.23379L29.3036 9.50558L22.2316 16.5756C21.6457 17.1613 20.696 17.1611 20.1103 16.5753C19.5778 16.0427 19.5295 15.2093 19.9653 14.6222L27.1821 7.38445C30.892 3.67215 36.9085 3.67215 40.615 7.38343Z" fill="#191919" fill-rule="evenodd"/>
  <path id="形状结合" d="M32.14 15.8759C32.6725 16.4084 32.7209 17.2417 32.2852 17.8289L17.998 32.1392C17.4122 32.725 16.4624 32.725 15.8766 32.1392C15.3441 31.6066 15.2957 30.7733 15.7314 30.1861L30.0186 15.8759C30.6044 15.2901 31.5542 15.2901 32.14 15.8759Z" fill="#AEAEAE" fill-rule="evenodd"/>
</svg>
