<svg viewBox="0 0 48 48" xmlns="http://www.w3.org/2000/svg" xmlns:xlink="http://www.w3.org/1999/xlink" width="48.000000" height="48.000000" fill="none">
  <path id="矢量 1926" d="M41.9897 11.6475C41.8074 8.49805 39.1953 6 36 6L12 6L11.6475 6.01025C8.4978 6.19287 6 8.80469 6 12L6 36L6.01025 36.3525C6.19263 39.502 8.80469 42 12 42L36 42L36.3525 41.9897C39.5022 41.8071 42 39.1953 42 36L42 12L41.9897 11.6475ZM15 14L30 14C30.3267 14 30.646 14.0337 30.9578 14.1016L30.958 14.1016L30.958 14.1016C31.2283 14.1606 31.4929 14.2446 31.752 14.3545C32.0103 14.4634 32.2542 14.5942 32.4839 14.7461C32.7334 14.9116 32.9661 15.1021 33.1819 15.3179C33.3979 15.5337 33.5884 15.7666 33.7537 16.0161C33.9058 16.2456 34.0366 16.4897 34.1458 16.748C34.2554 17.0073 34.3396 17.272 34.3982 17.542C34.4661 17.854 34.5 18.1733 34.5 18.5L34.5 18.9014C35.3967 19.4199 36 20.3896 36 21.5L36 30C36 31.6567 34.6567 33 33 33L15 33C13.3433 33 12 31.6567 12 30L12 17C12 15.3433 13.3433 14 15 14Z" fill="#191919" fill-rule="evenodd"/>
  <path id="矢量 1925" d="M17 14L15 14C13.3433 14 12 15.3433 12 17L12 30C12 31.6567 13.3433 33 15 33L33 33C34.6567 33 36 31.6567 36 30L36 21.5C36 20.3896 35.3967 19.4199 34.5 18.9014L34.5 18.5C34.5 18.1733 34.4661 17.854 34.3982 17.542C34.3396 17.272 34.2554 17.0073 34.1458 16.748C34.0366 16.4897 33.9058 16.2456 33.7537 16.0161C33.5884 15.7666 33.3979 15.5337 33.1819 15.3179C32.9661 15.1021 32.7334 14.9116 32.4839 14.7461C32.2542 14.5942 32.0103 14.4634 31.752 14.354C31.4929 14.2446 31.2283 14.1606 30.958 14.1016L30.9578 14.1016C30.646 14.0337 30.3267 14 30 14L17 14ZM22.6667 17L23.105 17.4932C23.6743 18.1338 24.4902 18.5 25.3472 18.5L31.5 18.5C31.5 18.376 31.4856 18.2559 31.4568 18.1387C31.4382 18.0635 31.4133 17.9893 31.3828 17.9165C31.3496 17.8379 31.3103 17.7632 31.2649 17.6924C31.2068 17.6016 31.1387 17.5176 31.0605 17.4395C30.9827 17.3613 30.8982 17.2935 30.8076 17.2354C30.7368 17.1899 30.6621 17.1504 30.5835 17.1172C30.5107 17.0864 30.4368 17.062 30.3611 17.0435C30.2444 17.0146 30.124 17 30 17L22.6667 17Z" fill="#AEAEAE" fill-rule="evenodd"/>
</svg>
