<svg viewBox="0 0 48 48" xmlns="http://www.w3.org/2000/svg" xmlns:xlink="http://www.w3.org/1999/xlink" width="48.000000" height="48.000000" fill="none">
  <path id="形状结合" d="M24 6C25.0257 6 25.871 6.77208 25.9865 7.76676L26 8L26 22L40 22C41.1046 22 42 22.8954 42 24C42 25.0257 41.2279 25.871 40.2332 25.9865L40 26L26 26L26 40C26 41.1046 25.1046 42 24 42C22.9743 42 22.129 41.2279 22.0135 40.2332L22 40L22 26L8 26C6.89543 26 6 25.1046 6 24C6 22.9743 6.77208 22.129 7.76676 22.0135L8 22L22 22L22 8C22 6.89543 22.8954 6 24 6Z" fill="#191919" fill-rule="evenodd"/>
</svg>
