<svg viewBox="0 0 48 48" xmlns="http://www.w3.org/2000/svg" xmlns:xlink="http://www.w3.org/1999/xlink" width="48.000000" height="48.000000" fill="none">
  <path id="合并" d="M40.4793 7.99756L40.7668 8.0089C42.4657 8.14682 43.8216 9.49799 43.9666 11.1945L43.9795 11.4973L43.9795 31.9648C43.9795 33.8012 42.5653 35.3072 40.7665 35.4532L39.4795 35.4648L40.1806 32.4633L40.4795 32.4648C40.7162 32.4648 40.9145 32.3004 40.9663 32.0795L40.9795 11.4969C40.9795 11.2604 40.7006 11.0491 40.4798 10.9973L24.1925 10.9997C23.9555 10.9998 23.7571 11.1645 23.7051 11.3854L23.6919 27.9275C23.6919 28.7559 23.0203 29.4275 22.1919 29.4275C21.4325 29.4275 20.8049 28.8632 20.7056 28.131L20.6919 27.9275L20.6905 16.6776L13.3645 16.6768L7.11422 25.3929L7.02051 25.6844L7.02051 31.9675C7.02051 32.2042 7.18497 32.4025 7.40586 32.4543L8.2843 32.4661L8.19713 35.4661L7.52051 35.4675C5.68416 35.4675 4.17812 34.0533 4.03211 32.2546L4.02051 31.9675L4.02051 25.6844C4.02051 25.0571 4.18907 24.4433 4.50587 23.9062L4.67653 23.6443L11.0774 14.721C11.4948 14.1392 12.1387 13.7678 12.8424 13.6924L13.1088 13.6782L20.6905 13.6776L20.6919 11.4996C20.6923 9.66371 22.1061 8.15801 23.9047 8.01142L24.1917 7.99971L40.4793 7.99756ZM32.5 15.0004L32.5 19.2504L35.9 21.8004C36.572 22.3044 36.704 23.2284 36.2 23.9004C35.696 24.5724 34.772 24.7044 34.1 24.2004L30.5 21.5004C30.3426 21.3823 30.2026 21.2498 30.0799 21.1028C29.9572 20.9558 29.8519 20.7944 29.7639 20.6184C29.676 20.4425 29.61 20.2613 29.566 20.075C29.522 19.8886 29.5 19.6971 29.5 19.5004L29.5 15.0004C29.5 14.1604 30.16 13.5004 31 13.5004C31.84 13.5004 32.5 14.1604 32.5 15.0004ZM19.5176 35.4661L28.9881 35.4661L29.0753 32.4661L19.3903 32.4653L19.5176 35.4661Z" fill="#191919" fill-rule="evenodd"/>
  <path id="合并" d="M14 28C10.6863 28 8 30.6863 8 34C8 37.3137 10.6863 40 14 40C17.3137 40 20 37.3137 20 34C20 30.6863 17.3137 28 14 28ZM28.5 34C28.5 30.6863 31.1863 28 34.5 28C37.8137 28 40.5 30.6863 40.5 34C40.5 37.3137 37.8137 40 34.5 40C31.1863 40 28.5 37.3137 28.5 34ZM14 31C12.3431 31 11 32.3431 11 34C11 35.6569 12.3431 37 14 37C15.6569 37 17 35.6569 17 34C17 32.3431 15.6569 31 14 31ZM31.5 34C31.5 32.3431 32.8431 31 34.5 31C36.1569 31 37.5 32.3431 37.5 34C37.5 35.6569 36.1569 37 34.5 37C32.8431 37 31.5 35.6569 31.5 34Z" fill="#AEAEAE" fill-rule="evenodd"/>
</svg>
