<svg viewBox="0 0 48 48" xmlns="http://www.w3.org/2000/svg" xmlns:xlink="http://www.w3.org/1999/xlink" width="48.000000" height="48.000000" fill="none">
  <path id="矢量 1915" d="M11 6L21 6C22.1045 6 23 6.89551 23 8L23 27C23 27.7051 22.9517 28.4038 22.8547 29.0952C22.8113 29.4053 22.7581 29.7139 22.6953 30.021C22.5955 30.5083 22.4722 30.9883 22.325 31.4609C22.1799 31.9277 22.0117 32.3872 21.8203 32.8394C21.6558 33.2285 21.4753 33.6094 21.2793 33.9814C21.0251 34.4644 20.7444 34.9331 20.437 35.3882C20.186 35.7593 19.9197 36.1182 19.6377 36.4648C19.3145 36.8618 18.9707 37.2427 18.6067 37.6064C18.2424 37.9707 17.8618 38.3145 17.4646 38.6377C17.1184 38.9199 16.7595 39.186 16.3879 39.437C15.9333 39.7441 15.4648 40.0249 14.9824 40.2788L14.9822 40.2788L14.9819 40.2793C14.6094 40.4756 14.2285 40.6558 13.8394 40.8203C13.3872 41.0117 12.928 41.1797 12.4617 41.3247L12.4614 41.3247L12.4609 41.3252C11.9883 41.4722 11.5083 41.5957 11.021 41.6953C10.7139 41.7583 10.4053 41.811 10.0955 41.8545C9.40381 41.9517 8.70532 42 8 42C6.87988 42 6 41.1201 6 40C6 38.8799 6.87988 38 8 38C8.84106 38 9.66138 37.9087 10.4604 37.7261C11.0798 37.5845 11.6868 37.3877 12.281 37.1362C12.8911 36.8784 13.4688 36.5713 14.0142 36.2144C14.6455 35.8018 15.2334 35.3228 15.7781 34.7783C16.323 34.2334 16.8018 33.6455 17.2144 33.0142C17.571 32.4688 17.8784 31.8911 18.1365 31.2812C18.3877 30.687 18.5842 30.0801 18.7258 29.4604C18.9087 28.6611 19 27.8413 19 27L19 22L11 22C9.89551 22 9 21.1045 9 20L9 8C9 6.89551 9.89551 6 11 6ZM30 6L40 6C41.1045 6 42 6.89551 42 8L42 27C42 27.7051 41.9517 28.4038 41.8547 29.0952C41.8113 29.4053 41.7581 29.7139 41.6953 30.021C41.5955 30.5083 41.4722 30.9883 41.325 31.4609C41.1799 31.9277 41.0117 32.3872 40.8203 32.8394C40.6558 33.2285 40.4753 33.6094 40.2793 33.9814C40.0251 34.4644 39.7444 34.9331 39.437 35.3882C39.186 35.7593 38.9197 36.1182 38.6377 36.4648C38.3145 36.8618 37.9707 37.2427 37.6067 37.6064C37.2424 37.9707 36.8618 38.3145 36.4646 38.6377C36.1184 38.9199 35.7595 39.186 35.3879 39.437C34.9333 39.7441 34.4648 40.0249 33.9822 40.2788L33.9819 40.2793C33.6094 40.4756 33.2285 40.6558 32.8394 40.8203C32.3872 41.0117 31.928 41.1797 31.4617 41.3247L31.4614 41.3247L31.4609 41.3252C30.9883 41.4722 30.5083 41.5957 30.021 41.6953C29.7139 41.7583 29.4053 41.811 29.0955 41.8545C28.4038 41.9517 27.7053 42 27 42C25.8799 42 25 41.1201 25 40C25 38.8799 25.8799 38 27 38C27.8411 38 28.6614 37.9087 29.4604 37.7261C30.0798 37.5845 30.6868 37.3877 31.281 37.1362C31.8911 36.8784 32.4688 36.5713 33.0142 36.2144C33.6455 35.8018 34.2334 35.3228 34.7781 34.7783C35.323 34.2334 35.8018 33.6455 36.2144 33.0142C36.571 32.4688 36.8784 31.8911 37.1365 31.2812C37.3877 30.687 37.5842 30.0801 37.7258 29.4604C37.9087 28.6611 38 27.8413 38 27L38 22L30 22C28.8955 22 28 21.1045 28 20L28 8C28 6.89551 28.8955 6 30 6Z" fill="#191919" fill-rule="evenodd"/>
  <path id="矢量 1916" d="M40 6L30 6C28.8955 6 28 6.89551 28 8L28 20C28 21.1045 28.8955 22 30 22L38 22L38 27C38 27.8413 37.9087 28.6611 37.7258 29.4604C37.5842 30.0801 37.3877 30.687 37.1365 31.2812C36.8784 31.8911 36.571 32.4688 36.2144 33.0142C35.8018 33.6455 35.323 34.2334 34.7781 34.7783C34.2334 35.3228 33.6455 35.8018 33.0142 36.2144C32.4688 36.5713 31.8911 36.8784 31.281 37.1362C30.6868 37.3877 30.0798 37.5845 29.4604 37.7261C28.6614 37.9087 27.8411 38 27 38C25.8799 38 25 38.8799 25 40C25 41.1201 25.8799 42 27 42C27.7053 42 28.4038 41.9517 29.0955 41.8545C29.4053 41.811 29.7139 41.7583 30.021 41.6953C30.5083 41.5957 30.9883 41.4722 31.4609 41.3252L31.4614 41.3247L31.4617 41.3247C31.928 41.1797 32.3872 41.0117 32.8394 40.8203C33.2285 40.6558 33.6094 40.4756 33.9819 40.2793L33.9822 40.2788C34.4648 40.0249 34.9333 39.7441 35.3879 39.437C35.7595 39.186 36.1184 38.9199 36.4646 38.6377C36.8618 38.3145 37.2424 37.9707 37.6067 37.6064C37.9707 37.2427 38.3145 36.8618 38.6377 36.4648C38.9197 36.1182 39.186 35.7593 39.437 35.3882C39.7444 34.9331 40.0251 34.4644 40.2793 33.9814C40.4753 33.6094 40.6558 33.2285 40.8203 32.8394C41.0117 32.3872 41.1799 31.9277 41.325 31.4609C41.4722 30.9883 41.5955 30.5083 41.6953 30.021C41.7581 29.7139 41.8113 29.4053 41.8547 29.0952C41.9517 28.4038 42 27.7051 42 27L42 8C42 6.89551 41.1045 6 40 6Z" fill="#AEAEAE" fill-rule="evenodd"/>
</svg>
