<svg viewBox="0 0 48 48" xmlns="http://www.w3.org/2000/svg" xmlns:xlink="http://www.w3.org/1999/xlink" width="48.000000" height="48.000000" fill="none">
  <path id="形状结合" d="M36 6.00732C39.3137 6.00732 42 8.69362 42 12.0073L42 36.0073C42 39.321 39.3137 42.0073 36 42.0073L12 42.0073C8.68629 42.0073 6 39.321 6 36.0073L6 12.0073C6 8.69362 8.68629 6.00732 12 6.00732L36 6.00732ZM16.924 19.4993L9 19.4993L9 36.0073C9 37.5667 10.1898 38.8482 11.7111 38.9936L12 39.0073L16.924 39.0073L16.924 19.4993ZM27.924 19.4993L19.924 19.4993L19.924 39.0073L27.924 39.0073L27.924 19.4993ZM39 19.4933L30.924 19.4993L30.924 39.0073L36 39.0073C37.5594 39.0073 38.8409 37.8175 38.9863 36.2962L39 36.0073L39 19.4933ZM36 9.00732L12 9.00732C10.3431 9.00732 9 10.3505 9 12.0073L9 16.4993L38.9253 16.5L39 12.0073C39 10.4479 37.8102 9.16643 36.2889 9.02106L36 9.00732Z" fill="#191919" fill-rule="evenodd"/>
</svg>
