<svg viewBox="0 0 48 48" xmlns="http://www.w3.org/2000/svg" xmlns:xlink="http://www.w3.org/1999/xlink" width="48.000000" height="48.000000" fill="none">
  <path id="矢量 171" d="M44 9.18213L32.6943 4.99707C31.3881 4.51367 30 5.47998 30 6.87305L30 41.127C30 42.52 31.3881 43.4863 32.6943 43.0024L44 38.8179L44 9.18213ZM19.478 6.60986L27 8.46143L27 39.5386L19.478 41.3901C18.2175 41.7002 17 40.7461 17 39.4478L17 8.55176C17 7.25391 18.2175 6.2998 19.478 6.60986ZM14 10.1538L6.42114 8.52148C5.17554 8.25293 4 9.20264 4 10.4766L4 37.5234C4 38.7974 5.17554 39.7466 6.42114 39.4785L14 37.8462L14 10.1538Z" fill="#191919" fill-rule="evenodd"/>
  <path id="矢量 171" d="M44 9.18226L32.6943 4.9972C31.3881 4.5138 30 5.48011 30 6.87318L30 41.1271C30 42.5201 31.3881 43.4865 32.6943 43.0026L44 38.818L44 9.18226Z" fill="#AEAEAE" fill-rule="evenodd"/>
</svg>
