<svg viewBox="0 0 48 48" xmlns="http://www.w3.org/2000/svg" xmlns:xlink="http://www.w3.org/1999/xlink" width="48.000000" height="48.000000" fill="none">
  <path id="合并" d="M2.55762 17.8158L19.0883 4.24567C19.347 4.03327 19.6202 3.84721 19.9078 3.68748C20.1638 3.5453 20.4313 3.42399 20.7102 3.32353C20.9892 3.22304 21.2726 3.14596 21.5602 3.09229C21.5641 3.09155 21.5681 3.09082 21.572 3.0901C21.875 3.03426 22.1828 3.00438 22.4953 3.00044C22.8119 2.99646 23.1243 3.01923 23.4324 3.06874C23.7213 3.11516 24.0065 3.1851 24.2879 3.27854C24.5692 3.37195 24.8396 3.4865 25.0991 3.6222C25.3906 3.77464 25.6683 3.95377 25.9322 4.1596L43.4131 17.792C44.0769 18.3096 44.1943 19.2411 43.6798 19.9091C43.1654 20.577 42.2397 20.6951 41.576 20.1774L40.5 19.3384L40.5 23.2174C38.8296 22.4363 36.9658 22 35 22C34.6702 22 34.3434 22.0123 34.0198 22.0364C33.8824 22.0121 33.7425 22 33.6 22L30.4 22C30.2311 22 30.0657 22.0171 29.904 22.0512L29.9039 22.0512C29.7547 22.0827 29.6085 22.1287 29.4654 22.1892C29.325 22.2486 29.1926 22.3198 29.0681 22.4029C28.9377 22.4899 28.816 22.5899 28.7029 22.7029C28.5899 22.816 28.4899 22.9377 28.4029 23.0681C28.3198 23.1926 28.2486 23.325 28.1892 23.4654C28.1287 23.6085 28.0827 23.7547 28.0512 23.9039L28.0512 23.904L28.0512 23.9041C28.0427 23.9442 28.0353 23.9846 28.0289 24.0252C27.6739 24.2512 27.3305 24.4939 27 24.7523L27 24.4C27 24.231 26.9829 24.0657 26.9488 23.9039C26.9173 23.7547 26.8713 23.6085 26.8108 23.4654C26.7516 23.3254 26.6806 23.1933 26.5977 23.069L26.5977 23.0689L26.5971 23.0681C26.5101 22.9377 26.4101 22.816 26.2971 22.7029C26.184 22.5899 26.0623 22.4899 25.9319 22.4029C25.8074 22.3198 25.675 22.2486 25.5346 22.1892C25.3915 22.1287 25.2453 22.0827 25.0961 22.0512C24.9343 22.0171 24.769 22 24.6 22L21.4 22C21.2311 22 21.0657 22.0171 20.904 22.0512L20.9039 22.0512C20.7547 22.0827 20.6085 22.1287 20.4654 22.1892C20.325 22.2486 20.1926 22.3198 20.0681 22.4029C19.9377 22.4899 19.816 22.5899 19.7029 22.7029C19.5899 22.816 19.4899 22.9377 19.4029 23.0681C19.3198 23.1926 19.2486 23.325 19.1892 23.4654C19.1287 23.6085 19.0827 23.7547 19.0512 23.9039L19.051 23.9049L19.051 23.905C19.017 24.0664 19 24.2314 19 24.4L19 27.6C19 27.769 19.0171 27.9343 19.0512 28.0961C19.0827 28.2453 19.1287 28.3915 19.1892 28.5346C19.2486 28.675 19.3198 28.8074 19.4029 28.9319C19.4899 29.0623 19.5899 29.184 19.7029 29.2971C19.816 29.4101 19.9377 29.5101 20.0681 29.5971C20.1926 29.6802 20.325 29.7514 20.4654 29.8108C20.6085 29.8713 20.7547 29.9173 20.9039 29.9488C21.0657 29.9829 21.231 30 21.4 30L22.9963 30C22.86 30.3268 22.7367 30.6603 22.627 31L21.4 31C21.2311 31 21.0657 31.0171 20.904 31.0512L20.9039 31.0512C20.7547 31.0827 20.6085 31.1287 20.4654 31.1892C20.325 31.2486 20.1926 31.3198 20.0681 31.4029C19.9377 31.4899 19.816 31.5899 19.7029 31.7029C19.5899 31.816 19.4899 31.9377 19.4029 32.0681C19.3198 32.1926 19.2486 32.325 19.1892 32.4654C19.1288 32.6082 19.0828 32.7542 19.0514 32.9031L19.0512 32.9038L19.0512 32.9039C19.0171 33.0657 19 33.231 19 33.4L19 36.6C19 36.7686 19.017 36.9336 19.051 37.095L19.051 37.0951L19.0512 37.0961C19.0827 37.2453 19.1287 37.3915 19.1892 37.5346C19.2486 37.675 19.3198 37.8074 19.4029 37.9319C19.4899 38.0623 19.5899 38.184 19.7029 38.2971C19.816 38.4101 19.9377 38.5101 20.0681 38.5971C20.1926 38.6802 20.325 38.7514 20.4654 38.8108C20.6085 38.8713 20.7547 38.9173 20.9039 38.9488C21.0657 38.9829 21.231 39 21.4 39L22.627 39C23.0998 40.4637 23.8252 41.814 24.7518 42.9993L11.5 42.9993C8.18629 42.9993 5.5 40.313 5.5 36.9993L5.5 19.2952L4.45347 20.1543C3.80276 20.6884 2.87441 20.5937 2.34357 19.9389C1.81274 19.2841 1.90692 18.3499 2.55762 17.8158ZM26.9488 19.0961C26.9829 18.9343 27 18.769 27 18.6L27 15.4C27 15.2312 26.983 15.066 26.9489 14.9043L26.9488 14.9039C26.9173 14.7547 26.8713 14.6085 26.8108 14.4654C26.7514 14.325 26.6802 14.1926 26.5971 14.0681C26.5101 13.9377 26.4101 13.816 26.2971 13.7029C26.184 13.5899 26.0623 13.4899 25.9319 13.4029C25.8074 13.3198 25.675 13.2486 25.5346 13.1892C25.3915 13.1287 25.2453 13.0827 25.0961 13.0512C24.9343 13.0171 24.769 13 24.6 13L21.4 13C21.2311 13 21.0657 13.0171 20.904 13.0512L20.9039 13.0512C20.7547 13.0827 20.6085 13.1287 20.4654 13.1892C20.325 13.2486 20.1926 13.3198 20.0681 13.4029C19.9377 13.4899 19.816 13.5899 19.7029 13.7029C19.5899 13.816 19.4899 13.9377 19.4029 14.0681C19.3198 14.1926 19.2486 14.325 19.1892 14.4654C19.1287 14.6085 19.0827 14.7547 19.0512 14.9039L19.051 14.9046C19.017 15.0662 19 15.2313 19 15.4L19 18.6C19 18.769 19.0171 18.9343 19.0512 19.0961C19.0827 19.2453 19.1287 19.3915 19.1892 19.5346C19.2486 19.675 19.3198 19.8074 19.4029 19.9319C19.4899 20.0623 19.5899 20.184 19.7029 20.2971C19.816 20.4101 19.9377 20.5101 20.0681 20.5971C20.1926 20.6802 20.325 20.7514 20.4654 20.8108C20.6085 20.8713 20.7547 20.9173 20.9039 20.9488C21.0657 20.9829 21.231 21 21.4 21L24.6 21C24.769 21 24.9343 20.9829 25.0961 20.9488C25.2453 20.9173 25.3915 20.8713 25.5346 20.8108C25.675 20.7514 25.8074 20.6802 25.9319 20.5971C26.0623 20.5101 26.184 20.4101 26.2971 20.2971C26.4101 20.184 26.5101 20.0623 26.5972 19.9319C26.6802 19.8074 26.7514 19.675 26.8108 19.5346C26.8713 19.3915 26.9173 19.2454 26.9488 19.0961ZM17.9488 28.0961C17.9829 27.9343 18 27.769 18 27.6L18 24.4C18 24.231 17.9829 24.0657 17.9488 23.9039C17.9173 23.7547 17.8713 23.6085 17.8108 23.4654C17.7514 23.325 17.6802 23.1926 17.5971 23.0681C17.5101 22.9377 17.4101 22.816 17.2971 22.7029C17.184 22.5899 17.0623 22.4899 16.9319 22.4029C16.8074 22.3198 16.675 22.2486 16.5346 22.1892C16.3915 22.1287 16.2453 22.0827 16.0961 22.0512L16.0956 22.0511L16.0956 22.0511L16.0949 22.0509C15.9335 22.017 15.7685 22 15.6 22L12.4 22C12.2312 22 12.0661 22.017 11.9045 22.0511L11.9039 22.0512C11.7547 22.0827 11.6085 22.1287 11.4654 22.1892C11.325 22.2486 11.1926 22.3198 11.0681 22.4029C10.9377 22.4899 10.816 22.5899 10.7029 22.7029C10.5899 22.816 10.4899 22.9377 10.4029 23.0681C10.3198 23.1926 10.2486 23.325 10.1892 23.4654C10.1287 23.6085 10.0827 23.7547 10.0512 23.9039L10.051 23.9049L10.051 23.905C10.017 24.0664 10 24.2314 10 24.4L10 27.6C10 27.769 10.0171 27.9343 10.0512 28.0961C10.0827 28.2453 10.1287 28.3915 10.1892 28.5346C10.2486 28.675 10.3198 28.8074 10.4029 28.9319C10.4899 29.0623 10.5899 29.184 10.7029 29.2971C10.816 29.4101 10.9377 29.5101 11.0681 29.5971C11.1926 29.6802 11.325 29.7514 11.4654 29.8108C11.6085 29.8713 11.7547 29.9173 11.9039 29.9488L11.904 29.9488C12.0657 29.9829 12.2311 30 12.4 30L15.6 30C15.769 30 15.9343 29.9829 16.0961 29.9488C16.2453 29.9173 16.3915 29.8713 16.5346 29.8108C16.675 29.7514 16.8074 29.6802 16.9319 29.5971C17.0623 29.5101 17.184 29.4101 17.2971 29.2971C17.4101 29.184 17.5101 29.0623 17.5972 28.9319C17.6802 28.8074 17.7514 28.675 17.8108 28.5346C17.8713 28.3915 17.9173 28.2454 17.9488 28.0961ZM17.9488 37.0961C17.9829 36.9343 18 36.769 18 36.6L18 33.4C18 33.231 17.9829 33.0657 17.9488 32.9039C17.9173 32.7547 17.8713 32.6085 17.8108 32.4654C17.7514 32.325 17.6802 32.1926 17.5971 32.0681C17.5101 31.9377 17.4101 31.816 17.2971 31.7029C17.184 31.5899 17.0623 31.4899 16.9319 31.4029C16.8074 31.3198 16.675 31.2486 16.5346 31.1892C16.3915 31.1287 16.2453 31.0827 16.0961 31.0512C15.9343 31.0171 15.769 31 15.6 31L12.4 31C12.2312 31 12.0661 31.017 11.9045 31.0511L11.9039 31.0512C11.7547 31.0827 11.6085 31.1287 11.4654 31.1892C11.325 31.2486 11.1926 31.3198 11.0681 31.4029C10.9377 31.4899 10.816 31.5899 10.7029 31.7029C10.5899 31.816 10.4899 31.9377 10.4029 32.0681C10.3198 32.1926 10.2486 32.325 10.1892 32.4654C10.1289 32.6081 10.0829 32.7538 10.0515 32.9026L10.0512 32.9037L10.0512 32.9038L10.0512 32.9039C10.0171 33.0657 10 33.231 10 33.4L10 36.6C10 36.7685 10.017 36.9335 10.0509 37.0948L10.0512 37.096C10.0827 37.2453 10.1287 37.3915 10.1892 37.5346C10.2486 37.675 10.3198 37.8074 10.4029 37.9319L10.4037 37.9332C10.4905 38.0631 10.5903 38.1844 10.7029 38.2971C10.816 38.4101 10.9377 38.5101 11.0681 38.5971C11.1926 38.6802 11.325 38.7514 11.4654 38.8108C11.6085 38.8713 11.7547 38.9173 11.9039 38.9488L11.904 38.9488L11.9054 38.9491C12.0667 38.983 12.2316 39 12.4 39L15.6 39C15.769 39 15.9343 38.9829 16.0961 38.9488C16.2453 38.9173 16.3915 38.8713 16.5346 38.8108C16.675 38.7514 16.8074 38.6802 16.9319 38.5971L16.9319 38.5971C17.0623 38.5101 17.184 38.4101 17.2971 38.2971C17.4101 38.184 17.5101 38.0623 17.5972 37.9319C17.6802 37.8074 17.7514 37.675 17.8108 37.5346C17.8713 37.3915 17.9173 37.2454 17.9488 37.0961Z" fill="#191919" fill-rule="evenodd"/>
  <path id="合并" d="M35 24C41.0751 24 46 28.9249 46 35C46 41.0751 41.0751 46 35 46C28.9249 46 24 41.0751 24 35C24 28.9249 28.9249 24 35 24ZM35.5786 33.5021L34.6117 32.6075C33.9953 32.0362 33.9592 31.1036 34.5298 30.4873C35.1004 29.8711 36.0331 29.835 36.6495 30.4053L40.4264 33.9016C40.4406 33.9142 40.4545 33.9279 40.4681 33.9416C40.4818 33.9553 40.4952 33.9689 40.5083 33.9836C40.7897 34.2873 40.9224 34.6457 40.9064 35.0598C40.8984 35.2673 40.8542 35.4581 40.7739 35.6322C40.6939 35.8056 40.5781 35.9625 40.4264 36.1028L36.6495 39.5991C36.0331 40.1694 35.1004 40.1333 34.5298 39.5171C33.9592 38.9008 33.9953 37.9682 34.6117 37.3968L35.5786 36.5023L30.9095 36.5023C30.0695 36.5023 29.4095 35.8421 29.4095 35.0022C29.4095 34.1623 30.0695 33.5021 30.9095 33.5021L35.5786 33.5021Z" fill="#AEAEAE" fill-rule="evenodd"/>
</svg>
