<svg viewBox="0 0 48 48" xmlns="http://www.w3.org/2000/svg" xmlns:xlink="http://www.w3.org/1999/xlink" width="48.000000" height="48.000000" fill="none">
  <path id="path" d="M33.84 6.3999C33.5867 5.6999 33.1533 5.1266 32.54 4.67993C31.9333 4.2266 31.2466 4 30.48 4L17.52 4C16.7534 4 16.0667 4.2266 15.46 4.67993C14.8467 5.1266 14.4133 5.6999 14.16 6.3999L12.48 6.3999C11.3266 6.3999 10.2533 6.69671 9.26001 7.29004C8.27334 7.88337 7.48335 8.68327 6.89001 9.68994C6.29668 10.6966 6 11.7766 6 12.9299L6 37.96C6 39.1066 6.29668 40.1766 6.89001 41.1699C7.48335 42.1633 8.27334 42.9567 9.26001 43.55C10.2533 44.1434 11.3266 44.4399 12.48 44.4399L35.52 44.4399C36.6734 44.4399 37.7467 44.1434 38.74 43.55C39.7267 42.9567 40.5167 42.1633 41.11 41.1699C41.7033 40.1766 42 39.1066 42 37.96L42 12.9299C42 11.7766 41.7033 10.6966 41.11 9.68994C40.5167 8.68327 39.7267 7.88337 38.74 7.29004C37.7467 6.69671 36.6734 6.3999 35.52 6.3999L33.84 6.3999ZM16.99 7.51001C16.99 7.35001 17.04 7.22012 17.14 7.12012C17.2333 7.02678 17.36 6.97998 17.52 6.97998L30.48 6.97998C30.64 6.97998 30.7667 7.02678 30.86 7.12012C30.96 7.22012 31.01 7.35001 31.01 7.51001L31.01 10.9199C31.01 11.0466 30.96 11.1567 30.86 11.25C30.7667 11.35 30.64 11.3999 30.48 11.3999L17.52 11.3999C17.1667 11.3999 16.99 11.2399 16.99 10.9199L16.99 7.51001ZM39.02 37.96C39.02 38.92 38.67 39.7433 37.97 40.4299C37.2633 41.1166 36.4467 41.46 35.52 41.46L12.48 41.46C11.52 41.46 10.7034 41.1166 10.03 40.4299C9.3567 39.7433 9.02002 38.92 9.02002 37.96L9.02002 12.9299C9.02002 11.9699 9.3567 11.1466 10.03 10.46C10.7034 9.77329 11.52 9.42993 12.48 9.42993L14.02 9.42993L14.02 10.9199C14.02 11.8466 14.3633 12.6601 15.05 13.3601C15.7367 14.0668 16.56 14.4199 17.52 14.4199L30.48 14.4199C31.44 14.4199 32.2633 14.0668 32.95 13.3601C33.6367 12.6601 33.98 11.8466 33.98 10.9199L33.98 9.42993L35.52 9.42993C36.4467 9.42993 37.2633 9.77329 37.97 10.46C38.67 11.1466 39.02 11.9699 39.02 12.9299L39.02 37.96Z" fill="#191919" fill-rule="nonzero"/>
  <path id="合并" d="M20.3036 19.2666C20.3566 19.1425 20.4197 19.0227 20.4932 18.9073C20.5654 18.7938 20.6456 18.6874 20.7339 18.5882C20.8293 18.4811 20.934 18.3823 21.0481 18.2918C21.1572 18.2054 21.2718 18.1289 21.3919 18.0625C21.5128 17.9957 21.6392 17.939 21.7712 17.8925C21.8994 17.8473 22.0295 17.8129 22.1616 17.7892C22.3072 17.7631 22.4551 17.75 22.6054 17.75L25.6096 17.75C25.7598 17.75 25.9078 17.7631 26.0534 17.7892C26.1854 17.8129 26.3156 17.8473 26.4438 17.8925C26.5758 17.939 26.7022 17.9957 26.823 18.0625C26.9431 18.1289 27.0578 18.2054 27.1668 18.2918C27.2809 18.3823 27.3856 18.4811 27.481 18.5882C27.5693 18.6874 27.6496 18.7938 27.7218 18.9073C27.7917 19.0172 27.8524 19.1312 27.9038 19.2491C27.9661 19.3922 28.0148 19.5412 28.0498 19.6961L28.3 20.8065L29.469 20.5197C29.6153 20.4739 29.7632 20.4418 29.9128 20.4235C30.0451 20.4074 30.1787 20.4019 30.3136 20.4073C30.4496 20.4127 30.5834 20.4289 30.7149 20.4559C30.8538 20.4844 30.9904 20.5249 31.1244 20.5775C31.2546 20.6286 31.3789 20.6896 31.4973 20.7606C31.6151 20.8313 31.7271 20.912 31.8331 21.0024C31.9323 21.087 32.0238 21.1782 32.1077 21.2759C32.2078 21.3925 32.297 21.5186 32.3753 21.654L33.8791 24.2574C33.953 24.3851 34.0148 24.5173 34.0645 24.6539C34.1116 24.7834 34.1479 24.9169 34.1732 25.0544C34.198 25.1886 34.2118 25.3231 34.2145 25.4578C34.2173 25.5986 34.2081 25.7398 34.1867 25.8811C34.1652 26.024 34.1319 26.1631 34.087 26.2982C34.0448 26.4248 33.9924 26.5481 33.9296 26.6679C33.858 26.8046 33.7754 26.9326 33.6816 27.0518C33.6004 27.1551 33.5109 27.2519 33.4131 27.3421L32.5721 28.121L33.4112 28.9853C33.5205 29.0861 33.6194 29.1949 33.7079 29.3115C33.791 29.4211 33.8649 29.5377 33.9296 29.6612C33.9924 29.7811 34.0448 29.9043 34.087 30.031C34.1319 30.1661 34.1652 30.3051 34.1867 30.448C34.2081 30.5894 34.2173 30.7305 34.2145 30.8714C34.2118 31.006 34.198 31.1405 34.1732 31.2748C34.147 31.417 34.1091 31.555 34.0596 31.6886C34.0108 31.8203 33.9508 31.9477 33.8795 32.071L32.3749 34.6759C32.2992 34.8068 32.2132 34.9289 32.117 35.0424C32.0307 35.1442 31.936 35.239 31.8331 35.3268C31.7272 35.4172 31.6153 35.4977 31.4976 35.5684C31.3792 35.6394 31.2547 35.7006 31.1244 35.7517C30.9904 35.8042 30.854 35.8448 30.715 35.8733C30.5834 35.9003 30.4496 35.9165 30.3136 35.9219C30.1465 35.9285 29.982 35.9188 29.8201 35.8928C29.7036 35.874 29.5882 35.8468 29.4744 35.8111L28.375 35.472L28.0496 36.6342C28.0166 36.7798 27.9715 36.9204 27.9143 37.0558C27.861 37.1819 27.7972 37.3037 27.7228 37.4209C27.6501 37.5356 27.5693 37.6429 27.4803 37.7431C27.3859 37.8492 27.2824 37.9473 27.1697 38.0371C27.0579 38.1263 26.9403 38.2049 26.8169 38.2729C26.6989 38.3379 26.5755 38.3934 26.4469 38.4391C26.3154 38.4858 26.1819 38.5212 26.0464 38.5452C25.903 38.5706 25.7574 38.5833 25.6096 38.5833L22.6054 38.5833C22.4576 38.5833 22.312 38.5706 22.1686 38.5452C22.0331 38.5212 21.8996 38.4858 21.7681 38.4391C21.6395 38.3934 21.5162 38.338 21.3982 38.273C21.2747 38.2049 21.157 38.1263 21.0452 38.0371C20.9326 37.9473 20.8291 37.8493 20.7348 37.7432C20.6458 37.643 20.5649 37.5356 20.4922 37.4209C20.4142 37.298 20.3478 37.1702 20.293 37.0377C20.2395 36.9082 20.197 36.7741 20.1656 36.6354L19.9114 35.5166L18.7459 35.8094C18.5997 35.8553 18.4517 35.8874 18.3021 35.9056C18.1698 35.9218 18.0363 35.9272 17.9014 35.9219C17.7653 35.9165 17.6315 35.9003 17.4998 35.8733C17.361 35.8448 17.2245 35.8042 17.0906 35.7517C16.9603 35.7006 16.8361 35.6396 16.7177 35.5686C16.5999 35.4979 16.4879 35.4172 16.3818 35.3268C16.2827 35.2422 16.1912 35.151 16.1073 35.0533C16.0072 34.9366 15.918 34.8106 15.8397 34.6752L14.3359 32.0718C14.262 31.944 14.2002 31.8119 14.1505 31.6753C14.1034 31.5458 14.0671 31.4122 14.0417 31.2748C14.017 31.1406 14.0032 31.0062 14.0005 30.8715C13.9977 30.7306 14.0069 30.5894 14.0282 30.448C14.0498 30.3051 14.083 30.1661 14.128 30.031C14.1702 29.9043 14.2226 29.7811 14.2854 29.6612C14.3565 29.5254 14.4386 29.3982 14.5316 29.2796C14.6133 29.1754 14.7034 29.0779 14.802 28.987L15.6387 28.2122L14.8038 27.3438C14.6944 27.243 14.5955 27.1343 14.5071 27.0176C14.424 26.908 14.3501 26.7915 14.2854 26.6679C14.2226 26.5481 14.1702 26.4249 14.128 26.2982C14.083 26.1631 14.0498 26.024 14.0282 25.8811C14.0069 25.7397 13.9977 25.5986 14.0005 25.4576C14.0032 25.323 14.017 25.1886 14.0417 25.0544C14.068 24.9121 14.1059 24.7741 14.1554 24.6404C14.2041 24.5088 14.2642 24.3814 14.3355 24.2581L15.8401 21.6532C15.9158 21.5224 16.0017 21.4003 16.0979 21.2869C16.1843 21.185 16.2789 21.0902 16.3818 21.0024C16.4878 20.912 16.5998 20.8314 16.7176 20.7607C16.8359 20.6897 16.9603 20.6286 17.0906 20.5775C17.2246 20.5249 17.361 20.4844 17.4999 20.4559C17.6315 20.4289 17.7653 20.4127 17.9014 20.4073C18.0698 20.4006 18.2355 20.4105 18.3985 20.437C18.5138 20.4557 18.6277 20.4827 18.7403 20.518L19.828 20.8533L20.1653 19.6954C20.1988 19.5473 20.245 19.404 20.3036 19.2666ZM22.233 21.8879L22.603 20.2502L25.6096 20.25L25.9818 21.8914C26.001 21.9767 26.0284 22.0583 26.064 22.1361C26.0995 22.214 26.1432 22.2881 26.1951 22.3585C26.247 22.4288 26.3049 22.4925 26.3687 22.5495C26.4326 22.6065 26.5024 22.6568 26.5782 22.7003L27.6074 23.292C27.6825 23.3352 27.7604 23.37 27.841 23.3964C27.9216 23.4228 28.0049 23.4409 28.091 23.4505C28.1771 23.4602 28.2624 23.4611 28.3469 23.4532C28.4313 23.4453 28.515 23.4286 28.5978 23.4031L30.2119 22.9068L31.7143 25.5079L30.4727 26.6579C30.4088 26.717 30.3522 26.7813 30.3029 26.8508C30.2535 26.9202 30.2114 26.9948 30.1766 27.0746C30.1418 27.1544 30.1156 27.2359 30.0982 27.3193C30.0808 27.4027 30.0721 27.488 30.0721 27.575L30.0721 28.7542C30.0721 28.8412 30.0808 28.9264 30.0982 29.0098C30.1156 29.0932 30.1418 29.1748 30.1766 29.2546C30.2114 29.3343 30.2535 29.4089 30.3029 29.4784C30.3522 29.5478 30.4088 29.6121 30.4727 29.6713L31.7143 30.8212L30.2109 33.4241L28.5905 32.9222C28.5074 32.8966 28.4235 32.8798 28.3387 32.8718C28.2539 32.8639 28.1683 32.8648 28.0819 32.8745C27.9954 32.8843 27.9118 32.9025 27.8309 32.9291C27.75 32.9558 27.672 32.9909 27.5966 33.0344L26.58 33.6219C26.5046 33.6654 26.4352 33.7156 26.3717 33.7724C26.3082 33.8293 26.2506 33.8927 26.199 33.9628C26.1473 34.0329 26.1038 34.1067 26.0684 34.1842C26.0329 34.2617 26.0056 34.3429 25.9863 34.4278L25.6112 36.0825L22.6054 36.0833L22.2285 34.4313C22.2092 34.3466 22.1819 34.2656 22.1466 34.1883C22.1112 34.111 22.0678 34.0373 22.0163 33.9674C21.9648 33.8974 21.9074 33.8341 21.8441 33.7773C21.7808 33.7206 21.7115 33.6704 21.6364 33.6269L20.6155 33.0352C20.5401 32.9915 20.4619 32.9562 20.3808 32.9294C20.2998 32.9027 20.2159 32.8844 20.1293 32.8746C20.0426 32.8648 19.9568 32.8639 19.8718 32.8719C19.7868 32.8798 19.7027 32.8967 19.6194 32.9225L18.0031 33.4224L16.5007 30.8212L17.738 29.6755C17.8019 29.6164 17.8585 29.5521 17.9079 29.4826C17.9572 29.4132 17.9993 29.3386 18.0342 29.2588C18.069 29.179 18.0952 29.0974 18.1126 29.014C18.13 28.9306 18.1387 28.8454 18.1387 28.7583L18.1387 27.5708C18.1387 27.4838 18.13 27.3986 18.1126 27.3151C18.0952 27.2317 18.069 27.1501 18.0342 27.0704C17.9993 26.9906 17.9572 26.916 17.9079 26.8465C17.8585 26.7771 17.8019 26.7128 17.738 26.6536L16.5007 25.5079L18.004 22.9051L19.6121 23.4029C19.6951 23.4284 19.779 23.4452 19.8636 23.4532C19.9483 23.4611 20.0338 23.4602 20.1201 23.4505C20.2064 23.4408 20.29 23.4227 20.3708 23.3961C20.4515 23.3696 20.5296 23.3346 20.6048 23.2912L21.6381 22.6954C21.7137 22.6518 21.7833 22.6016 21.847 22.5446C21.9107 22.4877 21.9684 22.4242 22.0201 22.3539C22.0718 22.2837 22.1155 22.2097 22.151 22.1321C22.1864 22.0544 22.2138 21.973 22.233 21.8879ZM19.1096 28.1667C19.1096 25.4052 21.3481 23.1667 24.1096 23.1667C26.871 23.1667 29.1096 25.4052 29.1096 28.1667C29.1096 30.9281 26.871 33.1667 24.1096 33.1667C21.3481 33.1667 19.1096 30.9281 19.1096 28.1667ZM21.6096 28.1667C21.6096 26.786 22.7288 25.6667 24.1096 25.6667C25.4903 25.6667 26.6096 26.786 26.6096 28.1667C26.6096 29.5474 25.4903 30.6667 24.1096 30.6667C22.7288 30.6667 21.6096 29.5474 21.6096 28.1667Z" fill="#AEAEAE" fill-rule="evenodd"/>
</svg>
