<svg viewBox="0 0 48 48" xmlns="http://www.w3.org/2000/svg" xmlns:xlink="http://www.w3.org/1999/xlink" width="48.000000" height="48.000000" fill="none">
  <path id="减去顶层" d="M38.497 11.6475C38.3145 8.49784 35.702 6 32.5059 6L11.5013 6L11.1487 6.01019C7.99839 6.19268 5.5 8.80464 5.5 12L5.5 36L5.51019 36.3525C5.69272 39.5022 8.30525 42 11.5013 42L27.3748 41.998L23.7455 39.9036L23.4183 39.6991C21.9321 38.6946 21.0237 37.0001 21.0237 35.1918L21.0237 28.2207L21.0375 27.8352C21.1656 26.0461 22.1782 24.4118 23.7431 23.5065L29.7842 20.021L30.1247 19.8399C31.7373 19.0553 33.6606 19.1157 35.2277 20.021L38.5072 22.068L38.5072 12L38.497 11.6475ZM19.2972 12.5689L21.669 15.533L24.2126 12.5359C24.7562 11.8953 25.6867 11.8191 26.3273 12.3626C26.9679 12.9061 27.0442 13.8365 26.5006 14.4769L23.3869 18.1455L27.1443 18.1455C27.9844 18.1455 28.6446 18.8057 28.6446 19.6455C28.6446 20.4856 27.9844 21.1455 27.1443 21.1455L23.1351 21.1455L23.1351 23.408L23.8953 23.408L23.7297 23.5041L23.3783 23.7264C21.8996 24.7425 21.0034 26.4319 21.0034 28.2499L21.0034 30.6588C20.4864 30.4242 20.1344 29.9069 20.1344 29.2935L20.1344 26.408L16.0023 26.408C15.1621 26.408 14.502 25.7481 14.502 24.908C14.502 24.0681 15.1621 23.408 16.0023 23.408L20.1344 23.408L20.1344 21.1455L16.1252 21.1455C15.2851 21.1455 14.6249 20.4856 14.6249 19.6455C14.6249 18.8057 15.2851 18.1455 16.1252 18.1455L19.9169 18.1455L16.9541 14.4429C16.4293 13.7872 16.5324 12.8594 17.1884 12.3348C17.8445 11.8099 18.7724 11.9129 19.2972 12.5689ZM39.7495 24.9261L34.7564 22.0441C33.3681 21.2421 31.6417 21.2421 30.2554 22.0441L25.2603 24.9261C23.874 25.7281 23.0118 27.2221 23.0118 28.8241L23.0118 34.5881C23.0118 36.1901 23.874 37.6841 25.2623 38.4841L30.2554 41.3661C30.9496 41.7681 31.7277 41.9681 32.5059 41.9681C33.2841 41.9681 34.0623 41.7681 34.7564 41.3661L39.7515 38.4841C41.1378 37.6841 42 36.1901 42 34.5881L42 28.8241C42 27.2221 41.1378 25.7281 39.7495 24.9261ZM38.5645 28.3906C39.0313 28.8612 39.0708 29.5947 38.6852 30.1098L33.231 35.5374C32.763 36.0012 31.8869 35.9169 31.3716 35.5374L27.8955 32.091C27.3777 31.5777 27.3742 30.7419 27.8876 30.2243C28.3544 29.7537 29.2363 29.8352 29.7548 30.2164L32.3001 32.7398L36.6974 28.3827C37.2152 27.8694 38.0511 27.873 38.5645 28.3906Z" fill="#191919" fill-rule="evenodd"/>
  <path id="减去顶层" d="M34.742 22.0449L39.734 24.9269C41.122 25.7289 41.984 27.2229 41.984 28.8249L41.984 34.5889C41.984 36.1909 41.122 37.6849 39.736 38.4849L34.742 41.3669C34.048 41.7689 33.27 41.9689 32.492 41.9689C31.714 41.9689 30.936 41.7689 30.242 41.3669L25.25 38.4849C23.862 37.6849 23 36.1909 23 34.5889L23 28.8249C23 27.2229 23.862 25.7289 25.248 24.9269L30.242 22.0449C31.628 21.2429 33.354 21.2429 34.742 22.0449ZM38.5493 28.3906C39.016 28.8612 39.0555 29.5947 38.6699 30.1098L33.2169 35.5374C32.7491 36.0012 31.8731 35.9169 31.358 35.5374L27.8826 32.091C27.3649 31.5777 27.3614 30.7419 27.8747 30.2243C28.3414 29.7537 29.2231 29.8352 29.7414 30.2164L32.2862 32.7398L36.6826 28.3827C37.2002 27.8694 38.036 27.873 38.5493 28.3906Z" fill="#AEAEAE" fill-rule="evenodd"/>
</svg>
