<svg viewBox="0 0 48 48" xmlns="http://www.w3.org/2000/svg" xmlns:xlink="http://www.w3.org/1999/xlink" width="48.000000" height="48.000000" fill="none">
  <path id="合并" d="M20 43.5L13 43.5C12.448 43.5 11.9088 43.442 11.3824 43.3261C10.9393 43.2285 10.5052 43.0898 10.0802 42.91C9.65362 42.7296 9.2503 42.5139 8.87024 42.263C8.45072 41.986 8.05954 41.6661 7.6967 41.3033C7.33384 40.9404 7.01393 40.5492 6.73696 40.1297C6.48607 39.7496 6.27042 39.3464 6.09 38.9198C5.91022 38.4947 5.77152 38.0606 5.67391 37.6175C5.55797 37.0911 5.5 36.5519 5.5 36L5.5 11C5.5 10.4481 5.55797 9.90893 5.67391 9.38255C5.77152 8.93938 5.91021 8.50527 6.09 8.0802C6.27043 7.65363 6.48609 7.25032 6.73699 6.87027L6.73699 6.87026C7.01395 6.45073 7.33386 6.05954 7.6967 5.6967C8.05954 5.33385 8.45074 5.01395 8.87028 4.73698L8.87028 4.73698C9.25033 4.48608 9.65363 4.27043 10.0802 4.09C10.5052 3.91023 10.9393 3.77153 11.3825 3.67393L11.3825 3.67391C11.9089 3.55797 12.4481 3.5 13 3.5L31 3.5C31.5519 3.5 32.0911 3.55797 32.6175 3.67391L32.6175 3.67391C33.0606 3.77152 33.4947 3.91022 33.9198 4.09C34.3464 4.27044 34.7497 4.48612 35.1298 4.73703C35.5493 5.01399 35.9405 5.33388 36.3033 5.6967C36.6661 6.05954 36.986 6.45072 37.263 6.87025C37.5139 7.2503 37.7296 7.65362 37.91 8.0802C38.0898 8.50529 38.2285 8.93943 38.3261 9.38262C38.442 9.90898 38.5 10.4481 38.5 11L38.5 18.875C38.5 19.715 37.84 20.375 37 20.375C36.16 20.375 35.5 19.715 35.5 18.875L35.5 11C35.5 10.6508 35.4616 10.3105 35.3847 9.9791C35.3271 9.73067 35.2478 9.48726 35.147 9.24886C35.0425 9.00188 34.9183 8.76779 34.7742 8.54661L34.7742 8.54657C34.6043 8.28579 34.4069 8.04294 34.182 7.81802C33.9571 7.5931 33.7142 7.39571 33.4534 7.22585C33.2322 7.08177 32.9981 6.95749 32.7511 6.85302C32.5127 6.75218 32.2693 6.67295 32.0209 6.61532C31.6895 6.53844 31.3492 6.5 31 6.5L13 6.5C12.6508 6.5 12.3105 6.53844 11.9791 6.61531L11.9791 6.61532C11.7307 6.67295 11.4873 6.75218 11.2489 6.85302C11.0019 6.95747 10.7678 7.08173 10.5467 7.22579C10.2858 7.39567 10.043 7.59308 9.81802 7.81802C9.59308 8.04296 9.39567 8.28583 9.2258 8.54664C9.08174 8.76781 8.95748 9.00189 8.85302 9.24886C8.75218 9.48727 8.67294 9.73069 8.61531 9.97912C8.53844 10.3105 8.5 10.6508 8.5 11L8.5 36C8.5 36.3492 8.53844 36.6895 8.61532 37.0209C8.67295 37.2693 8.75218 37.5128 8.85302 37.7511C8.95746 37.9981 9.08171 38.2321 9.22574 38.4533C9.39563 38.7141 9.59306 38.957 9.81802 39.182C10.0429 39.4069 10.2858 39.6043 10.5466 39.7742L10.5467 39.7742C10.7678 39.9183 11.0019 40.0425 11.2489 40.147C11.4873 40.2478 11.7307 40.3271 11.9791 40.3847C12.3105 40.4616 12.6508 40.5 13 40.5L20 40.5C20.84 40.5 21.5 41.16 21.5 42C21.5 42.84 20.84 43.5 20 43.5ZM28.5 11C29.3284 11 30 11.6716 30 12.5C30 13.2594 29.4357 13.887 28.7035 13.9863L28.5 14L14.5 14C13.6716 14 13 13.3284 13 12.5C13 11.7406 13.5643 11.113 14.2964 11.0137L14.5 11L28.5 11ZM23 18.5C23 17.6716 22.3284 17 21.5 17L14.5 17L14.2964 17.0137C13.5643 17.113 13 17.7406 13 18.5C13 19.3284 13.6716 20 14.5 20L21.5 20L21.7035 19.9863C22.4357 19.887 23 19.2594 23 18.5Z" fill="#191919" fill-rule="evenodd"/>
  <path id="合并(边框)" d="M26.6739 27.3825C26.558 27.9089 26.5 28.4481 26.5 29C26.5 29.5519 26.558 30.091 26.6739 30.6174C26.7715 31.0606 26.9102 31.4947 27.09 31.9198C27.2704 32.3464 27.4861 32.7497 27.737 33.1297C28.014 33.5493 28.3339 33.9405 28.6967 34.3033C29.0595 34.6661 29.4507 34.986 29.8702 35.263C30.0001 35.3487 30.1327 35.4303 30.268 35.5078C29.7741 35.5296 29.2912 35.5969 28.819 35.7097C28.5106 35.7833 28.2068 35.8764 27.9076 35.9889C27.3104 36.2134 26.7602 36.5042 26.257 36.8612C26.0468 37.0103 25.8448 37.1711 25.651 37.3433C25.1629 37.7771 24.754 38.26 24.4243 38.7919C24.301 38.9909 24.1887 39.1966 24.0876 39.4093C23.8746 39.8568 23.7196 40.3162 23.6224 40.7876C23.5408 41.1833 23.5 41.5874 23.5 42L23.5 43.1667C23.5 43.3306 23.5165 43.4911 23.5496 43.6481C23.5802 43.7935 23.625 43.9359 23.684 44.0754C23.7418 44.212 23.8111 44.3408 23.892 44.462C23.9765 44.5886 24.0737 44.7068 24.1834 44.8166C24.2932 44.9263 24.4114 45.0235 24.538 45.108C24.6592 45.1889 24.788 45.2582 24.9246 45.316C25.0641 45.375 25.2065 45.4198 25.3519 45.4504C25.5089 45.4835 25.6694 45.5 25.8333 45.5L42.1667 45.5C42.3306 45.5 42.4911 45.4835 42.6481 45.4504C42.7935 45.4198 42.9359 45.375 43.0754 45.316C43.2119 45.2583 43.3408 45.1889 43.4619 45.1081C43.5886 45.0235 43.7068 44.9264 43.8166 44.8166C43.9264 44.7068 44.0235 44.5886 44.108 44.462C44.1889 44.3408 44.2582 44.212 44.316 44.0754C44.375 43.9359 44.4198 43.7935 44.4504 43.6481C44.4835 43.4911 44.5 43.3306 44.5 43.1667L44.5 42C44.5 41.5874 44.4592 41.1832 44.3776 40.7875C44.2804 40.3161 44.1254 39.8567 43.9124 39.4093C43.8113 39.1966 43.699 38.9908 43.5757 38.7919C43.246 38.26 42.8371 37.7771 42.349 37.3433C42.1553 37.1711 41.9533 37.0104 41.7431 36.8613C41.2399 36.5042 40.6896 36.2134 40.0924 35.9889C39.7933 35.8764 39.4895 35.7834 39.1812 35.7097C38.709 35.5969 38.2259 35.5296 37.732 35.5078C37.8673 35.4303 37.9999 35.3487 38.1298 35.263C38.5493 34.986 38.9405 34.6661 39.3033 34.3033C39.6661 33.9405 39.986 33.5493 40.263 33.1298C40.5139 32.7497 40.7296 32.3464 40.91 31.9198C41.0898 31.4947 41.2285 31.0606 41.3261 30.6175C41.442 30.0911 41.5 29.5519 41.5 29C41.5 28.4481 41.442 27.9089 41.3261 27.3825C41.2285 26.9394 41.0898 26.5053 40.91 26.0802C40.7296 25.6536 40.5139 25.2503 40.263 24.8702C39.986 24.4507 39.6661 24.0595 39.3033 23.6967C38.9405 23.3339 38.5493 23.014 38.1297 22.737C37.7497 22.4861 37.3464 22.2704 36.9198 22.09C36.4947 21.9102 36.0606 21.7715 35.6175 21.6739C35.0911 21.558 34.5519 21.5 34 21.5C33.4481 21.5 32.9089 21.558 32.3826 21.6739C31.9394 21.7715 31.5053 21.9102 31.0802 22.09C30.6536 22.2704 30.2503 22.4861 29.8703 22.737C29.4507 23.0139 29.0595 23.3339 28.6967 23.6967C28.3339 24.0595 28.014 24.4507 27.737 24.8703C27.4861 25.2503 27.2704 25.6536 27.09 26.0802C26.9102 26.5053 26.7715 26.9394 26.6739 27.3825ZM29.6153 30.0209C29.5384 29.6895 29.5 29.3492 29.5 29C29.5 28.6508 29.5384 28.3105 29.6153 27.9791C29.673 27.7307 29.7522 27.4873 29.853 27.2489C29.9575 27.0019 30.0817 26.7678 30.2258 26.5467C30.3957 26.2858 30.5931 26.043 30.818 25.818C31.043 25.5931 31.2859 25.3957 31.5467 25.2258C31.7678 25.0817 32.0019 24.9575 32.2489 24.853C32.4873 24.7522 32.7307 24.6729 32.9791 24.6153C33.3105 24.5384 33.6508 24.5 34 24.5C34.3492 24.5 34.6895 24.5384 35.0209 24.6153C35.2693 24.6729 35.5127 24.7522 35.7511 24.853C35.9981 24.9575 36.2322 25.0817 36.4533 25.2258C36.7141 25.3957 36.957 25.5931 37.182 25.818C37.4069 26.0429 37.6043 26.2858 37.7742 26.5466C37.9182 26.7678 38.0425 27.0019 38.147 27.2489C38.2478 27.4873 38.3271 27.7307 38.3847 27.9791C38.4616 28.3105 38.5 28.6508 38.5 29C38.5 29.3492 38.4616 29.6895 38.3847 30.0209C38.3271 30.2693 38.2478 30.5127 38.147 30.7511C38.0425 30.9981 37.9183 31.2322 37.7742 31.4534C37.6043 31.7142 37.4069 31.9571 37.182 32.182C36.9571 32.4069 36.7142 32.6043 36.4534 32.7742C36.2322 32.9182 35.9981 33.0425 35.7511 33.147C35.5127 33.2478 35.2693 33.3271 35.0208 33.3847C34.6895 33.4616 34.3492 33.5 34 33.5C33.6508 33.5 33.3105 33.4616 32.9791 33.3847C32.7307 33.3271 32.4873 33.2478 32.2489 33.147C32.0019 33.0425 31.7678 32.9182 31.5466 32.7742C31.2858 32.6043 31.0429 32.4069 30.818 32.182C30.5931 31.957 30.3957 31.7142 30.2258 31.4534C30.0817 31.2322 29.9575 30.9981 29.853 30.7511C29.7522 30.5127 29.6729 30.2693 29.6153 30.0209ZM26.5 42.5L41.5 42.5L41.5 42C41.5 41.813 41.4831 41.6292 41.4493 41.4485C41.4014 41.1921 41.3195 40.942 41.2035 40.6983C41.1865 40.6625 41.1689 40.6271 41.1506 40.5921C40.9567 40.2196 40.6918 39.8841 40.3559 39.5856C40.2981 39.5342 40.2389 39.4845 40.1784 39.4366C39.8406 39.1693 39.46 38.9561 39.0367 38.797C38.9062 38.7479 38.774 38.7049 38.6402 38.668C38.2339 38.556 37.8122 38.5 37.375 38.5L30.625 38.5C30.1879 38.5 29.7662 38.556 29.36 38.668C29.2261 38.7049 29.0939 38.7479 28.9634 38.797C28.54 38.9561 28.1595 39.1693 27.8217 39.4366C27.7611 39.4845 27.7019 39.5342 27.6441 39.5856C27.3081 39.8842 27.0432 40.2197 26.8493 40.5923C26.8311 40.6273 26.8135 40.6626 26.7965 40.6983C26.6805 40.942 26.5986 41.1921 26.5507 41.4485C26.5169 41.6292 26.5 41.813 26.5 42L26.5 42.5Z" fill="#AEAEAE" fill-rule="evenodd"/>
</svg>
