<svg viewBox="0 0 48 48" xmlns="http://www.w3.org/2000/svg" xmlns:xlink="http://www.w3.org/1999/xlink" width="48.000000" height="48.000000" fill="none">
  <path id="矢量 1891" d="M12.5 10L12.5 9C12.5 8.52319 12.55 8.05737 12.6498 7.60229C12.7345 7.2168 12.855 6.83911 13.0114 6.46948C13.1681 6.09888 13.3554 5.74878 13.5735 5.41895L13.5735 5.41895C13.8132 5.05591 14.09 4.71777 14.4038 4.40381C14.7177 4.08984 15.056 3.81323 15.4188 3.57349L15.4188 3.57349L15.4189 3.57349L15.4189 3.57349C15.7488 3.35547 16.099 3.16821 16.4695 3.01147C16.8392 2.85498 17.2169 2.73438 17.6024 2.6499C18.0573 2.55005 18.5232 2.5 19 2.5L29 2.5C29.4768 2.5 29.9427 2.55005 30.3976 2.6499L30.3976 2.6499L30.3978 2.6499C30.7832 2.73462 31.1608 2.85498 31.5305 3.01147C31.9008 3.16797 32.2509 3.35522 32.5808 3.57324L32.581 3.57324L32.5811 3.57349C32.944 3.81323 33.2823 4.08984 33.5962 4.40381C33.9101 4.71777 34.1869 5.05591 34.4266 5.41895C34.6446 5.74878 34.8319 6.09912 34.9886 6.46948C35.145 6.83936 35.2655 7.21704 35.3502 7.60254L35.3503 7.60303C35.4501 8.05786 35.5 8.52344 35.5 9L35.5 10L36 10C39.1954 10 41.8073 12.3005 41.9898 15.2017L42 15.5264L42 38.4736C42 41.4167 39.5022 43.8225 36.3525 43.9907L36 44L12 44C8.80463 44 6.19269 41.6995 6.01019 38.7983L6 38.4736L6 15.5264C6 12.5833 8.49783 10.1775 11.6475 10.0093L12 10L12.5 10ZM32.5 9L32.5 10L15.5 10L15.5 9C15.5 8.72583 15.5304 8.45898 15.5912 8.19897C15.6359 8.0083 15.697 7.82129 15.7744 7.63818C15.8552 7.44727 15.9511 7.26636 16.0623 7.09521C16.1949 6.89111 16.3492 6.70117 16.5251 6.52515C16.7011 6.34912 16.8911 6.19482 17.0952 6.06226C17.2663 5.95117 17.4473 5.85522 17.6381 5.77441C17.8212 5.69702 18.0082 5.63599 18.199 5.59131C18.4589 5.53052 18.7259 5.5 19 5.5L29 5.5C29.2741 5.5 29.5411 5.53052 29.801 5.59131C29.9918 5.63599 30.1788 5.69702 30.3619 5.77441C30.5527 5.85522 30.7337 5.95117 30.9048 6.06226C31.1089 6.19482 31.2989 6.34912 31.4749 6.52515C31.6508 6.70117 31.8051 6.89111 31.9377 7.09521C32.0489 7.26636 32.1448 7.44727 32.2256 7.63818C32.3029 7.82104 32.364 8.00781 32.4086 8.19849L32.4088 8.19897L32.4088 8.19897C32.4696 8.45898 32.5 8.72583 32.5 9ZM25.5 7.5C25.5 6.67163 24.8284 6 24 6C23.1716 6 22.5 6.67163 22.5 7.5C22.5 8.32837 23.1716 9 24 9C24.8284 9 25.5 8.32837 25.5 7.5ZM39 15.5732L39 17L9 17L9 15.5264C9 15.3918 9.01224 15.2598 9.03668 15.1301C9.06699 14.969 9.11612 14.8115 9.18405 14.6577C9.18683 14.6514 9.18961 14.6453 9.19244 14.6389L9.1925 14.6387C9.31839 14.3604 9.49899 14.1067 9.73434 13.8777C9.76981 13.8433 9.80609 13.8098 9.8432 13.7771L9.84323 13.7771C10.0747 13.574 10.3387 13.4077 10.6351 13.2786C10.7208 13.2412 10.8077 13.2075 10.8959 13.1777L10.896 13.1777C11.1756 13.083 11.4681 13.0261 11.7733 13.0071L12.0399 13L36 13C36.3318 13 36.651 13.0439 36.9576 13.1321L36.9582 13.1323L36.9583 13.1323L36.9588 13.1326C37.0423 13.1565 37.1248 13.1838 37.2063 13.2144C37.5021 13.3252 37.7699 13.4724 38.0095 13.6565L38.0104 13.6572C38.059 13.6946 38.1065 13.7334 38.1528 13.7739C38.4064 13.9949 38.6057 14.2444 38.7507 14.5222C38.7531 14.5269 38.7555 14.5315 38.7579 14.5361C38.8508 14.7168 38.917 14.9031 38.9564 15.0947L38.9565 15.0952C38.9739 15.1802 38.9861 15.2659 38.9931 15.353L39 15.5732ZM9 38.4268L9 20L39 20L39 38.4736C39 38.6082 38.9878 38.7402 38.9633 38.8701C38.933 39.031 38.8839 39.1885 38.8159 39.3423C38.8132 39.3486 38.8103 39.355 38.8075 39.3613C38.6816 39.6396 38.501 39.8933 38.2657 40.1223C38.2302 40.1567 38.194 40.1902 38.1569 40.2229L38.1567 40.2229C37.9253 40.426 37.6613 40.5923 37.3649 40.7214C37.2792 40.7588 37.1923 40.7925 37.1042 40.8223C36.8245 40.917 36.532 40.9739 36.2268 40.9929L35.9601 41L12 41C11.6679 41 11.3486 40.9558 11.0419 40.8677C10.9582 40.8438 10.8755 40.8164 10.7937 40.7856C10.4974 40.6748 10.2293 40.5271 9.98941 40.3428C9.94086 40.3054 9.89343 40.2666 9.84717 40.2261C9.59369 40.0051 9.39441 39.7556 9.24939 39.478C9.24692 39.4734 9.24448 39.4685 9.24207 39.4639C9.1492 39.2832 9.08307 39.0969 9.04361 38.9053L9.04358 38.905C9.02612 38.8201 9.01389 38.7341 9.00693 38.647L9 38.4268Z" fill="#191919" fill-rule="evenodd"/>
  <path id="矢量 1890" d="M30.8493 33.0061L28.0962 35.7593C27.5022 36.3533 27.5022 37.2867 28.0962 37.8807C28.6902 38.4744 29.6235 38.4744 30.2175 37.8807L35.5208 32.5772C35.6191 32.479 35.7054 32.3731 35.78 32.2593C35.8506 32.1514 35.9107 32.0367 35.96 31.9148C36.0081 31.7962 36.0444 31.6753 36.0688 31.552C36.094 31.4248 36.1066 31.2952 36.1066 31.1631C36.1066 31.0308 36.094 30.9012 36.0688 30.774C36.0444 30.6507 36.0081 30.5298 35.96 30.4112C35.9107 30.2893 35.8507 30.1746 35.78 30.0669C35.7055 29.9532 35.6191 29.8469 35.5208 29.7488L30.2175 24.4456C29.6235 23.8516 28.6902 23.8516 28.0962 24.4456C27.5022 25.0396 27.5022 25.9729 28.0962 26.5669L31.5359 30.0066C31.524 30.0064 31.512 30.0061 31.5 30.0061L30 30.0061L30 33.0061L30.8493 33.0061ZM15 30.0061L13.5 30.0061C12.66 30.0061 12 30.666 12 31.5061C12 32.3462 12.66 33.0061 13.5 33.0061L15 33.0061L15 30.0061ZM18 30.0061L21 30.0061L21 33.0061L18 33.0061L18 30.0061ZM24 30.0061L27 30.0061L27 33.0061L24 33.0061L24 30.0061Z" fill="#AEAEAE" fill-rule="evenodd"/>
</svg>
