<svg viewBox="0 0 48 48" xmlns="http://www.w3.org/2000/svg" xmlns:xlink="http://www.w3.org/1999/xlink" width="48.000000" height="48.000000" fill="none">
  <path id="形状结合" d="M34 4C37.308 4 40 6.692 40 10L40 23.624C38.232 22.598 36.188 22 34 22C27.382 22 22 27.382 22 34C22 38.172 24.142 41.85 27.38 44L14 44C10.692 44 8 41.308 8 38L8 10C8 6.692 10.692 4 14 4L34 4ZM34.0006 24.0006C39.5146 24.0006 44.0006 28.4866 44.0006 34.0006C44.0006 39.5146 39.5146 44.0006 34.0006 44.0006C28.4866 44.0006 24.0006 39.5146 24.0006 34.0006C24.0006 28.4866 28.4866 24.0006 34.0006 24.0006ZM36.1422 30.2944L34.266 32.1443L32.5607 30.4396C31.9727 29.9922 30.9763 29.9027 30.4393 30.4396C29.9068 30.9722 29.8584 31.8055 30.2941 32.3927L32.144 34.2663L30.4393 35.9742C29.9919 36.5622 29.9024 37.5586 30.4393 38.0955C30.9719 38.6281 31.8052 38.6765 32.3924 38.2408L34.266 36.3883L35.9739 38.0955C36.5619 38.543 37.5583 38.6325 38.0952 38.0955C38.6278 37.563 38.6762 36.7297 38.2405 36.1425L36.388 34.2663L38.0952 32.561C38.5427 31.973 38.6322 30.9766 38.0952 30.4396C37.5627 29.9071 36.7294 29.8587 36.1422 30.2944ZM24 18.5L16 18.5C15.172 18.5 14.5 19.172 14.5 20C14.5 20.828 15.172 21.5 16 21.5L24 21.5C24.828 21.5 25.5 20.828 25.5 20C25.5 19.172 24.828 18.5 24 18.5ZM32 10.5L16 10.5C15.172 10.5 14.5 11.172 14.5 12C14.5 12.828 15.172 13.5 16 13.5L32 13.5C32.828 13.5 33.5 12.828 33.5 12C33.5 11.172 32.828 10.5 32 10.5Z" fill="#191919" fill-rule="evenodd"/>
  <path id="形状结合" d="M34.0005 24.0005C39.5145 24.0005 44.0005 28.4865 44.0005 34.0005C44.0005 39.5145 39.5145 44.0005 34.0005 44.0005C28.4865 44.0005 24.0005 39.5145 24.0005 34.0005C24.0005 28.4865 28.4865 24.0005 34.0005 24.0005ZM36.142 30.2943L34.2659 32.1442L32.5605 30.4395C31.9726 29.9921 30.9762 29.9026 30.4392 30.4395C29.9067 30.9721 29.8583 31.8054 30.294 32.3926L32.1439 34.2662L30.4392 35.9741C29.9918 36.5621 29.9023 37.5585 30.4392 38.0954C30.9718 38.628 31.8051 38.6764 32.3923 38.2407L34.2659 36.3882L35.9738 38.0954C36.5617 38.5429 37.5582 38.6324 38.0951 38.0954C38.6277 37.5629 38.6761 36.7296 38.2404 36.1423L36.3879 34.2662L38.0951 32.5609C38.5426 31.9729 38.6321 30.9765 38.0951 30.4395C37.5626 29.907 36.7293 29.8586 36.142 30.2943Z" fill="#AEAEAE" fill-rule="evenodd"/>
</svg>
