<svg viewBox="0 0 48 48" xmlns="http://www.w3.org/2000/svg" xmlns:xlink="http://www.w3.org/1999/xlink" width="48.000000" height="48.000000" fill="none">
  <path id="合并" d="M19 5.5L29 5.5C30.1046 5.5 31 6.39543 31 7.5L31 17.5C31 18.6046 30.1046 19.5 29 19.5L26 19.5L26 23.5L35 23.5C35.2516 23.5 35.4976 23.5259 35.738 23.5776C35.9506 23.6234 36.1589 23.6894 36.3628 23.7757C36.5649 23.8611 36.7558 23.9635 36.9354 24.0828C37.1281 24.2108 37.308 24.3582 37.4749 24.5251C37.6418 24.6921 37.7893 24.872 37.9173 25.0648C38.0366 25.2444 38.1389 25.4352 38.2243 25.6372C38.3106 25.8411 38.3766 26.0494 38.4224 26.2621C38.4741 26.5025 38.5 26.7485 38.5 27L38.5 29L42 29C43.1046 29 44 29.8954 44 31L44 41C44 42.1046 43.1046 43 42 43L32 43C30.8954 43 30 42.1046 30 41L30 31C30 29.8954 30.8954 29 32 29L35.5 29L35.5 27C35.5 26.931 35.4878 26.867 35.4634 26.8081C35.439 26.7491 35.4024 26.6953 35.3536 26.6464C35.3047 26.5976 35.2509 26.561 35.1919 26.5366C35.133 26.5122 35.069 26.5 35 26.5L13 26.5C12.931 26.5 12.867 26.5122 12.8081 26.5366C12.7492 26.561 12.6953 26.5976 12.6464 26.6464C12.5976 26.6953 12.561 26.7491 12.5366 26.8081C12.5122 26.867 12.5 26.931 12.5 27L12.5 29L16 29C17.1046 29 18 29.8954 18 31L18 41C18 42.1046 17.1046 43 16 43L6 43C4.89543 43 4 42.1046 4 41L4 31C4 29.8954 4.89543 29 6 29L9.5 29L9.5 27C9.5 26.7485 9.52587 26.5025 9.57762 26.2621C9.62339 26.0494 9.68941 25.8411 9.77566 25.6372C9.86113 25.4351 9.96351 25.2442 10.0828 25.0646C10.2108 24.8719 10.3582 24.692 10.5251 24.5251C10.692 24.3582 10.8719 24.2108 11.0646 24.0828C11.2443 23.9635 11.4351 23.8611 11.6372 23.7757C11.8411 23.6894 12.0494 23.6234 12.2621 23.5776C12.5025 23.5259 12.7484 23.5 13 23.5L23 23.5L23 19.5L19 19.5C17.8954 19.5 17 18.6046 17 17.5L17 7.5C17 6.39543 17.8954 5.5 19 5.5Z" fill="#191919" fill-rule="evenodd"/>
  <path id="合并" d="M26 23.5L26 19.5L23 19.5L23 23.5L13 23.5C12.7484 23.5 12.5025 23.5259 12.2621 23.5776C12.0494 23.6234 11.8411 23.6894 11.6372 23.7757C11.4351 23.8611 11.2443 23.9635 11.0646 24.0828C10.8719 24.2108 10.692 24.3582 10.5251 24.5251C10.3582 24.692 10.2108 24.8719 10.0828 25.0646C9.96351 25.2442 9.86113 25.4351 9.77566 25.6372C9.68941 25.8411 9.6234 26.0494 9.57763 26.262C9.52588 26.5024 9.5 26.7484 9.5 27L9.5 29L12.5 29L12.5 27C12.5 26.931 12.5122 26.867 12.5366 26.8081C12.561 26.7491 12.5976 26.6953 12.6464 26.6464C12.6953 26.5976 12.7491 26.561 12.8081 26.5366C12.867 26.5122 12.931 26.5 13 26.5L35 26.5C35.069 26.5 35.133 26.5122 35.1919 26.5366C35.2509 26.561 35.3047 26.5976 35.3536 26.6464C35.4024 26.6953 35.439 26.7491 35.4634 26.8081C35.4878 26.867 35.5 26.931 35.5 27L35.5 29L38.5 29L38.5 27C38.5 26.7485 38.4741 26.5025 38.4224 26.2621C38.3766 26.0494 38.3106 25.8411 38.2243 25.6372C38.1389 25.4352 38.0366 25.2444 37.9173 25.0648C37.7893 24.872 37.6418 24.6921 37.4749 24.5251C37.308 24.3582 37.1281 24.2108 36.9354 24.0828C36.7558 23.9635 36.5649 23.8611 36.3628 23.7757C36.1589 23.6894 35.9506 23.6234 35.738 23.5776C35.4976 23.5259 35.2516 23.5 35 23.5L26 23.5Z" fill="#AEAEAE" fill-rule="evenodd"/>
</svg>
