<svg viewBox="0 0 48 48" xmlns="http://www.w3.org/2000/svg" xmlns:xlink="http://www.w3.org/1999/xlink" width="48.000000" height="48.000000" fill="none">
  <path id="减去顶层" d="M24.0051 4.00894C17.8379 4.22276 14.7474 8.47587 14.7474 15.0066L14.7518 15.3325C14.0315 16.4516 13.7984 18.1507 14.2974 19.5967L14.4259 19.9336C14.8416 20.9264 15.5249 21.752 16.3563 22.2626L16.6058 22.4025L16.9175 22.9172C17.0202 23.0776 17.1263 23.2345 17.2357 23.3877L17.4472 23.6706C18.5719 25.1922 18.6216 25.7462 17.9343 26.1566L17.6753 26.2923L17.417 26.4114L16.986 26.5941L16.6341 26.7348L14.5582 27.5203L13.3605 27.9857L12.1041 28.5117L11.6108 28.7336C11.4266 28.8184 11.2583 28.898 11.0932 28.9781L10.6062 29.2213C7.05839 31.0459 5.01168 33.2521 5.02055 36.2681L4.99998 38.0274L5.00169 38.5493L5.0189 39.0893L5.04057 39.408C5.22785 41.5717 6.24689 42.912 8.37418 42.9984L25.053 42.9995C24.7139 42.0525 24.5062 41.043 24.4518 39.993L8.27697 39.9842C8.1496 39.9559 8.10595 39.8703 8.06901 39.5631L8.03144 39.1759L8.00889 38.8012L8.00115 38.5042L7.99982 38.0425L8.01437 37.0039L8.0205 36.2762C8.01586 34.6666 9.3281 33.2521 11.9625 31.8971L12.4186 31.6694L12.854 31.4639L13.5423 31.1576L14.015 30.9581L14.9385 30.5878L17.7263 29.5289L18.3045 29.2952L18.642 29.1497L19.1432 28.913C21.8326 27.5451 22.0171 25.0093 20.0779 22.1932L19.6567 21.6164C19.4356 21.306 19.213 20.9384 19.0115 20.5454C18.8642 20.2581 18.6292 20.028 18.3437 19.8863L18.1207 19.7971C17.7642 19.6866 17.3495 19.2447 17.1333 18.618C16.8821 17.8901 17.0015 17.2238 17.2503 17.0101C17.6054 16.705 17.7978 16.2516 17.7703 15.7841C17.755 15.5248 17.7474 15.2653 17.7474 15.0066C17.7474 9.80747 19.8707 7.00049 24.4984 7.00049C29.1261 7.00049 31.2494 9.80747 31.2494 15.0066C31.2494 15.2652 31.2417 15.5247 31.2265 15.7832C31.199 16.2497 31.3905 16.7023 31.7444 17.0075C31.9761 17.2072 32.0956 17.7947 31.9119 18.4591C32.8877 18.1612 33.9235 18.0008 34.9966 18.0005C35.0268 17.0808 34.8098 16.1982 34.3533 15.4871L34.2494 15.0066C34.2494 8.30401 30.994 4.00049 24.4984 4.00049L24.0051 4.00894Z" fill="#191919" fill-rule="evenodd"/>
  <path id="合并" d="M41.4284 33.2141C41.4284 33.6909 41.3784 34.1568 41.2785 34.6117C41.1939 34.9972 41.0733 35.3748 40.9169 35.7446C40.7603 36.1151 40.5729 36.4653 40.3549 36.7952C40.1152 37.1581 39.8384 37.4964 39.5246 37.8102C39.2108 38.1241 38.8724 38.4008 38.5097 38.6405L38.5095 38.6406C38.1796 38.8586 37.8294 39.0459 37.459 39.2026C37.0892 39.359 36.7116 39.4795 36.3261 39.5642L36.326 39.5642C35.8711 39.6641 35.4052 39.714 34.9284 39.714C34.4516 39.714 33.9857 39.6641 33.5308 39.5642L33.5308 39.5642C33.1453 39.4795 32.7677 39.359 32.3979 39.2026C32.0275 39.0459 31.6773 38.8586 31.3473 38.6406C30.9845 38.4009 30.6462 38.1241 30.3323 37.8102C30.0185 37.4964 29.7417 37.1581 29.502 36.7952L29.5019 36.7952C29.284 36.4653 29.0966 36.1151 28.9399 35.7446C28.7835 35.3749 28.663 34.9972 28.5784 34.6117L28.5783 34.6116C28.4785 34.1568 28.4285 33.6909 28.4285 33.2141L28.4285 27.4999C28.4285 27.0231 28.4785 26.5572 28.5784 26.1023L28.5784 26.1023C28.663 25.7168 28.7835 25.3392 28.9399 24.9694C29.0966 24.599 29.284 24.2488 29.5019 23.9188C29.7417 23.556 30.0185 23.2176 30.3323 22.9038C30.6462 22.5899 30.9845 22.3132 31.3473 22.0734L31.3473 22.0734C31.6773 21.8554 32.0275 21.6681 32.3979 21.5114C32.7677 21.355 33.1453 21.2345 33.5309 21.1498L33.5309 21.1498L33.5309 21.1498C33.9858 21.0499 34.4516 21 34.9284 21C35.4053 21 35.8711 21.0499 36.326 21.1498C36.7115 21.2345 37.0892 21.355 37.459 21.5114C37.8294 21.6681 38.1796 21.8554 38.5095 22.0734C38.8724 22.3131 39.2107 22.5899 39.5246 22.9038C39.8384 23.2176 40.1152 23.556 40.3549 23.9188C40.5729 24.2487 40.7603 24.5989 40.9169 24.9694C41.0733 25.3392 41.1939 25.7169 41.2785 26.1024C41.3784 26.5573 41.4284 27.0231 41.4284 27.4999L41.4284 33.2141ZM38.4284 33.2141L38.4284 27.4999C38.4284 27.2258 38.3979 26.9589 38.3371 26.699C38.2925 26.5082 38.2314 26.3212 38.1539 26.1381C38.0732 25.9472 37.9772 25.7662 37.8661 25.5951C37.7335 25.391 37.5792 25.201 37.4033 25.0251C37.2273 24.8491 37.0373 24.6949 36.8332 24.5622C36.6621 24.4511 36.4811 24.3551 36.2903 24.2744C36.1072 24.197 35.9202 24.1359 35.7294 24.0912C35.4696 24.0304 35.2026 24 34.9284 24C34.6543 24 34.3873 24.0304 34.1275 24.0912C33.9367 24.1359 33.7497 24.197 33.5666 24.2744C33.3757 24.3551 33.1948 24.4511 33.0237 24.5623C32.8196 24.6949 32.6296 24.8492 32.4536 25.0251C32.2777 25.2011 32.1234 25.3911 31.9908 25.5952C31.8796 25.7663 31.7837 25.9472 31.703 26.1381C31.6255 26.3212 31.5644 26.5081 31.5198 26.6989C31.4589 26.9588 31.4285 27.2258 31.4285 27.4999L31.4285 33.2141C31.4285 33.4882 31.4589 33.7552 31.5198 34.0151C31.5644 34.2059 31.6255 34.3929 31.703 34.576C31.7837 34.7668 31.8796 34.9477 31.9907 35.1188L31.9908 35.1188C32.1234 35.3229 32.2777 35.513 32.4536 35.6889C32.6296 35.8649 32.8196 36.0192 33.0237 36.1518C33.1948 36.2629 33.3757 36.3589 33.5666 36.4396C33.7497 36.517 33.9367 36.5781 34.1275 36.6228C34.3873 36.6836 34.6543 36.714 34.9284 36.714C35.2025 36.714 35.4695 36.6836 35.7294 36.6228C35.9202 36.5781 36.1072 36.5171 36.2903 36.4396C36.4812 36.3589 36.6621 36.2629 36.8332 36.1517C37.0373 36.0191 37.2273 35.8648 37.4033 35.6889C37.5792 35.513 37.7335 35.3229 37.8661 35.1188L37.8662 35.1187C37.9773 34.9477 38.0732 34.7668 38.1539 34.576C38.2314 34.3928 38.2924 34.2059 38.3371 34.0151C38.3979 33.7552 38.4284 33.4882 38.4284 33.2141ZM37.0713 30.3567C37.0713 29.1732 36.1119 28.2139 34.9285 28.2139C33.745 28.2139 32.7856 29.1732 32.7856 30.3567C32.7856 31.5401 33.745 32.4995 34.9285 32.4995C36.1119 32.4995 37.0713 31.5401 37.0713 30.3567ZM28.5 41L41.5 41C42.34 41 43 41.66 43 42.5C43 43.34 42.34 44 41.5 44L28.5 44C27.66 44 27 43.34 27 42.5C27 41.66 27.66 41 28.5 41Z" fill="#AEAEAE" fill-rule="evenodd"/>
</svg>
