<svg viewBox="0 0 48 48" xmlns="http://www.w3.org/2000/svg" xmlns:xlink="http://www.w3.org/1999/xlink" width="48.000000" height="48.000000" fill="none">
  <path id="形状结合" d="M30.9021 6C34.1507 6 36.8062 8.53947 36.9917 11.7416L37.0021 12.1C37.0021 12.9284 36.3305 13.7395 35.5021 13.7395C34.7427 13.7395 34.1151 13.1752 34.0158 12.443L34.0021 12.2395C34.0021 10.6225 32.7641 9.15521 31.1842 9.01267L30.9021 9L12.1021 9C10.4851 9 9.15729 10.238 9.01474 11.8178L9.00208 12.1L9.00208 35.9C9.00208 37.517 10.2401 38.8448 11.8199 38.9873L12.1021 39L30.9021 39C32.519 39 33.8469 37.762 33.9894 36.1822L34.0021 35.8416C34.0021 35.0131 34.6736 34.3416 35.5021 34.3416C36.2615 34.3416 36.8891 34.9059 36.9884 35.638L37.0021 35.8416C37.0021 39.0902 34.4626 41.8041 31.2605 41.9896L30.9021 42L12.1021 42C8.85346 42 6.19796 39.4605 6.01243 36.2584L6.00208 35.9L6.00208 12.1C6.00208 8.85138 8.54155 6.19589 11.7437 6.01035L12.1021 6L30.9021 6ZM34.1232 17.2715C34.65 16.8937 35.3664 16.8985 35.8884 17.2858L41.5587 22.933C41.9363 23.4597 42.0912 24.3639 41.704 24.8859L36.0568 30.5582C35.4697 30.994 34.4682 31.091 33.9355 30.5586C33.4029 30.0261 33.3543 29.1928 33.7899 28.6055L36.878 25.4917L23.5007 25.4937L23.2972 25.48C22.565 25.3807 22.0007 24.7531 22.0007 23.9937C22.0007 23.2343 22.565 22.6067 23.2972 22.5074L23.5007 22.4937L36.878 22.4917L33.9353 19.5524C33.5576 19.0256 33.4028 18.1213 33.7901 17.5993L34.1232 17.2715Z" fill="#191919" fill-rule="evenodd"/>
  <path id="形状结合" d="M34.1233 17.2715C34.65 16.8937 35.3665 16.8985 35.8884 17.2858L41.5587 22.933C41.9364 23.4597 42.0912 24.3639 41.7041 24.8859L36.0569 30.5582C35.4697 30.994 34.4682 31.091 33.9355 30.5586C33.4029 30.0261 33.3544 29.1928 33.79 28.6055L36.878 25.4917L23.5007 25.4937L23.2972 25.48C22.565 25.3807 22.0007 24.7531 22.0007 23.9937C22.0007 23.2343 22.565 22.6067 23.2972 22.5074L23.5007 22.4937L36.878 22.4917L33.9354 19.5524C33.5576 19.0256 33.4028 18.1213 33.7901 17.5993L34.1233 17.2715Z" fill="#AEAEAE" fill-rule="evenodd"/>
</svg>
