<svg viewBox="0 0 48 48" xmlns="http://www.w3.org/2000/svg" xmlns:xlink="http://www.w3.org/1999/xlink" width="48.000000" height="48.000000" fill="none">
  <path id="矩形 141(边框)" d="M44.3983 40.9582C44.4661 40.6463 44.5 40.327 44.5 40.0003L44.5 27.6927C44.5 27.3621 44.4658 27.039 44.3974 26.7232C44.3752 26.6207 44.3494 26.519 44.32 26.418C44.2611 26.2156 44.1886 26.0194 44.1025 25.8293C44.0194 25.6459 43.9236 25.4682 43.8153 25.2962C43.7295 25.1602 43.637 25.0295 43.5377 24.9042C43.3909 24.719 43.2293 24.5455 43.0529 24.3837C42.9246 24.2662 42.7906 24.1566 42.6507 24.0551C42.4756 23.9281 42.2914 23.8136 42.0981 23.7117C41.9047 23.6098 41.706 23.5225 41.5022 23.4499C41.3395 23.3919 41.1734 23.3433 41.004 23.3039C40.7707 23.2498 40.5362 23.2146 40.3003 23.1982C40.1409 23.1871 39.9809 23.1846 39.8203 23.1908C39.6171 23.1986 39.4164 23.2201 39.218 23.2552C39.0126 23.2917 38.8098 23.3427 38.6096 23.4085C38.5097 23.4413 38.4111 23.4775 38.314 23.5172C38.0149 23.6393 37.729 23.7937 37.4564 23.9805L24.8479 32.6201C24.7201 32.7076 24.5856 32.7733 24.4443 32.817C24.303 32.8608 24.1549 32.8827 24 32.8827C23.8451 32.8827 23.697 32.8608 23.5557 32.817C23.4144 32.7733 23.2799 32.7076 23.1521 32.6201L10.5436 23.9805C10.271 23.7937 9.98514 23.6393 9.68608 23.5172C9.58891 23.4776 9.49035 23.4413 9.3904 23.4085C9.19014 23.3427 8.98727 23.2916 8.78181 23.2552C8.58352 23.2201 8.38281 23.1986 8.17968 23.1908C8.01908 23.1846 7.85908 23.1871 7.69968 23.1982C7.4638 23.2146 7.22924 23.2498 6.99599 23.3039C6.82654 23.3433 6.66042 23.3919 6.49763 23.4499C6.29385 23.5226 6.09528 23.6098 5.90194 23.7117C5.70857 23.8136 5.52433 23.9281 5.34922 24.0552C5.20937 24.1567 5.07535 24.2662 4.94714 24.3837C4.77067 24.5455 4.60902 24.7191 4.4622 24.9043C4.36294 25.0296 4.27045 25.1602 4.18474 25.2962C4.07636 25.4682 3.98063 25.6459 3.89754 25.8293C3.81143 26.0194 3.7389 26.2156 3.67996 26.418C3.65053 26.519 3.62472 26.6208 3.60251 26.7234C3.53417 27.0391 3.5 27.3622 3.5 27.6927L3.5 40.0003C3.5 40.327 3.5339 40.6463 3.60169 40.9582C3.66043 41.2285 3.74461 41.4932 3.85425 41.7524C3.96345 42.0106 4.09414 42.2545 4.24631 42.4843C4.41155 42.7337 4.60212 42.9664 4.81802 43.1823C5.03393 43.3982 5.26662 43.5888 5.51609 43.754C5.74581 43.9062 5.98976 44.0369 6.24794 44.1461C6.50715 44.2557 6.77189 44.3399 7.04217 44.3987C7.35408 44.4664 7.67336 44.5003 8 44.5003L40 44.5003C40.3267 44.5003 40.6459 44.4664 40.9579 44.3987C41.2281 44.3399 41.4929 44.2557 41.7521 44.1461C42.0102 44.0369 42.2541 43.9062 42.4838 43.7541C42.7333 43.5888 42.966 43.3982 43.182 43.1823C43.3979 42.9664 43.5885 42.7337 43.7537 42.4843C43.9059 42.2545 44.0365 42.0106 44.1458 41.7524C44.2554 41.4932 44.3396 41.2285 44.3983 40.9582ZM41.5 27.6927L41.5 40.0003C41.5 40.1243 41.4856 40.2446 41.4568 40.3614C41.4381 40.437 41.4134 40.5111 41.3827 40.5837C41.3495 40.6623 41.3102 40.7371 41.2648 40.8079C41.2067 40.8986 41.1387 40.983 41.0607 41.061C40.9826 41.139 40.8982 41.2071 40.8074 41.2653C40.7366 41.3106 40.6619 41.3499 40.5834 41.3831C40.5109 41.4138 40.4368 41.4384 40.3613 41.4571C40.2444 41.4859 40.124 41.5003 40 41.5003L8 41.5003C7.87602 41.5003 7.7556 41.4859 7.63873 41.4571C7.5632 41.4384 7.48915 41.4138 7.41659 41.3831C7.33801 41.3498 7.2633 41.3105 7.19247 41.2652C7.10172 41.2071 7.01735 41.139 6.93934 41.061C6.86134 40.983 6.79329 40.8986 6.73518 40.8079C6.68981 40.7371 6.65051 40.6623 6.61726 40.5837C6.58656 40.5112 6.56189 40.4371 6.54325 40.3615C6.51442 40.2447 6.5 40.1243 6.5 40.0003L6.5 27.6927C6.5 27.4881 6.53554 27.2979 6.60663 27.1221C6.63828 27.0438 6.67699 26.9684 6.72274 26.8958C6.77607 26.8112 6.83657 26.7334 6.90424 26.6625C7.0166 26.5447 7.14874 26.4458 7.30064 26.3657C7.45255 26.2856 7.60885 26.2325 7.76953 26.2064C7.86629 26.1907 7.96464 26.1848 8.06458 26.1886C8.15033 26.1919 8.23444 26.2026 8.31693 26.2208C8.50214 26.2615 8.67912 26.3397 8.84787 26.4553L21.4564 35.0948C21.6541 35.2303 21.8599 35.3487 22.0737 35.45C22.2699 35.5429 22.4729 35.6215 22.6826 35.6857C22.8921 35.7498 23.1041 35.7983 23.3184 35.8311C23.5429 35.8655 23.7702 35.8827 24 35.8827C24.2299 35.8827 24.4571 35.8655 24.6817 35.8311C24.896 35.7983 25.1079 35.7498 25.3174 35.6857C25.5271 35.6215 25.7301 35.5429 25.9263 35.45C26.1401 35.3487 26.3459 35.2303 26.5436 35.0948L39.1521 26.4553C39.3209 26.3397 39.4978 26.2615 39.683 26.2208C39.7655 26.2026 39.8497 26.1919 39.9354 26.1886C40.0354 26.1848 40.1337 26.1907 40.2305 26.2064C40.3911 26.2325 40.5474 26.2856 40.6994 26.3657C40.8513 26.4458 40.9834 26.5447 41.0958 26.6625C41.1634 26.7334 41.2239 26.8112 41.2773 26.8958C41.323 26.9684 41.3617 27.0438 41.3934 27.1222C41.4645 27.298 41.5 27.4881 41.5 27.6927Z" fill="#191919" fill-rule="evenodd"/>
  <path id="合并" d="M19.9621 5.67978C20.281 5.47603 20.6114 5.29815 20.9533 5.14612C21.2648 5.0076 21.5859 4.89054 21.9165 4.79496C22.2481 4.6991 22.5831 4.62661 22.9215 4.57748C23.2772 4.52583 23.6367 4.5 24 4.5C24.3632 4.5 24.7228 4.52583 25.0785 4.57748C25.4169 4.62661 25.7519 4.69911 26.0834 4.79496C26.4139 4.8905 26.7349 5.0075 27.0463 5.14594L27.0467 5.14613C27.3886 5.29815 27.719 5.47604 28.0379 5.67978L40.8291 13.8519C41.0714 14.0067 41.284 14.1877 41.4669 14.3949C41.6216 14.57 41.755 14.7639 41.8673 14.9765C41.9767 15.1839 42.0603 15.398 42.1179 15.6188C42.1819 15.8642 42.2139 16.1179 42.2139 16.38C42.2139 16.6421 42.1819 16.8958 42.1179 17.1411C42.0603 17.362 41.9767 17.5761 41.8673 17.7835C41.755 17.9961 41.6216 18.19 41.4669 18.3651C41.284 18.5723 41.0713 18.7533 40.8291 18.9081L35.5 22.3128L35.5 18.8795C35.5 18.7556 35.4856 18.6352 35.4567 18.5184C35.4381 18.4428 35.4134 18.3687 35.3827 18.2961C35.3495 18.2175 35.3102 18.1428 35.2648 18.0719C35.2067 17.9812 35.1386 17.8968 35.0606 17.8188C34.9826 17.7409 34.8983 17.6728 34.8076 17.6147C34.7367 17.5693 34.662 17.53 34.5834 17.4968C34.5108 17.4661 34.4367 17.4414 34.3611 17.4227C34.2443 17.3939 34.1239 17.3795 34 17.3795L14 17.3795C13.876 17.3795 13.7557 17.3939 13.6388 17.4227C13.5633 17.4414 13.4892 17.4661 13.4166 17.4968C13.338 17.53 13.2632 17.5693 13.1924 17.6147C13.1017 17.6728 13.0173 17.7409 12.9393 17.8188C12.8613 17.8969 12.7932 17.9812 12.7351 18.072C12.6898 18.1428 12.6505 18.2175 12.6172 18.2961C12.5865 18.3687 12.5619 18.4428 12.5432 18.5183C12.5144 18.6352 12.5 18.7556 12.5 18.8795L12.5 22.3128L7.1709 18.9081C6.92864 18.7533 6.71604 18.5723 6.5331 18.3652C6.37843 18.19 6.24496 17.9961 6.13271 17.7835C6.02322 17.5761 5.93967 17.362 5.88206 17.1411C5.81807 16.8957 5.78607 16.642 5.78607 16.38C5.78607 16.118 5.81807 15.8643 5.88206 15.6189L5.88206 15.6189C5.93968 15.398 6.02322 15.1839 6.13271 14.9765C6.24496 14.7639 6.37843 14.57 6.5331 14.3948C6.71604 14.1877 6.92864 14.0067 7.1709 13.8519L19.9621 5.67978ZM21.5772 8.20787L8.78607 16.38L9.87616 17.0764C9.9808 16.8371 10.1042 16.6101 10.2463 16.3955C10.4115 16.1461 10.6021 15.9134 10.818 15.6975C11.0339 15.4816 11.2666 15.2911 11.516 15.1258C11.7457 14.9737 11.9897 14.843 12.2479 14.7338C12.5071 14.6241 12.7719 14.5399 13.0421 14.4812C13.3541 14.4134 13.6733 14.3795 14 14.3795L34 14.3795C34.3266 14.3795 34.6459 14.4134 34.9578 14.4812C35.2281 14.5399 35.4928 14.6241 35.752 14.7338C36.0102 14.843 36.2542 14.9737 36.4839 15.1258C36.7334 15.2911 36.9661 15.4816 37.182 15.6975C37.3979 15.9134 37.5884 16.1461 37.7537 16.3956C37.8958 16.6101 38.0192 16.8371 38.1238 17.0764L39.2139 16.38L26.4227 8.20787C26.2256 8.08191 26.0212 7.97243 25.8095 7.87945C25.6284 7.79988 25.442 7.73238 25.2503 7.67695C25.0548 7.62043 24.8573 7.57745 24.6578 7.54801C24.4409 7.516 24.2216 7.5 24 7.5C23.7784 7.5 23.5591 7.516 23.3423 7.548C23.1427 7.57744 22.9452 7.62043 22.7497 7.67695C22.5579 7.73239 22.3715 7.7999 22.1903 7.8795C21.9787 7.97247 21.7744 8.08193 21.5772 8.20787ZM28.964 19L19.89 19C19.26 19 18.765 19.495 18.765 20.125C18.765 20.755 19.26 21.25 19.89 21.25L28.964 21.25C29.594 21.25 30.089 20.755 30.089 20.125C30.089 19.495 29.594 19 28.964 19ZM28.964 22.75L19.89 22.75C19.26 22.75 18.765 23.245 18.765 23.875C18.765 24.505 19.26 25 19.89 25L28.964 25C29.594 25 30.089 24.505 30.089 23.875C30.089 23.245 29.594 22.75 28.964 22.75ZM19.8907 26.5L28.9647 26.5C29.5947 26.5 30.0897 26.995 30.0897 27.625C30.0897 28.255 29.5947 28.75 28.9647 28.75L19.8907 28.75C19.2607 28.75 18.7657 28.255 18.7657 27.625C18.7657 26.995 19.2607 26.5 19.8907 26.5Z" fill="#AEAEAE" fill-rule="evenodd"/>
</svg>
