<svg viewBox="0 0 48 48" xmlns="http://www.w3.org/2000/svg" xmlns:xlink="http://www.w3.org/1999/xlink" width="48.000000" height="48.000000" fill="none">
  <path id="矢量 244" d="M18 4.5C18.315 4.5 18.6231 4.53223 18.9243 4.5968C19.2126 4.65857 19.4946 4.74988 19.7703 4.87085C19.9987 4.97107 20.2159 5.0885 20.4218 5.22314C20.7025 5.40674 20.9623 5.62231 21.2011 5.87C21.3903 6.06628 21.5598 6.27576 21.7095 6.49866C21.8837 6.7583 22.0326 7.03809 22.1532 7.33362C22.2541 7.58105 22.333 7.83337 22.3899 8.09058C22.4633 8.42261 22.5 8.76282 22.5 9.11108L22.5 17.8889C22.5 18.2372 22.4633 18.5774 22.3899 18.9094C22.333 19.1665 22.2541 19.4189 22.1532 19.6664C22.0325 19.9623 21.8849 20.2402 21.7104 20.5001C21.5605 20.7234 21.3907 20.9333 21.2011 21.13C20.9623 21.3777 20.7025 21.5933 20.4218 21.7769C20.2159 21.9115 19.9987 22.0289 19.7703 22.1292C19.495 22.25 19.2133 22.3412 18.9253 22.403C18.6241 22.4675 18.315 22.5 18 22.5L9 22.5C8.68518 22.5 8.37726 22.4678 8.07626 22.4033C7.78796 22.3416 7.5054 22.2501 7.22974 22.1292C7.00128 22.0289 6.78409 21.9115 6.57819 21.7769C6.29773 21.5934 6.03751 21.3774 5.79892 21.13C5.60928 20.9333 5.43948 20.7233 5.28955 20.5C5.11511 20.2401 4.96753 19.9623 4.84683 19.6664C4.74594 19.4189 4.66705 19.1667 4.61017 18.9095C4.53677 18.5775 4.5 18.2372 4.5 17.8889L4.5 9.11108C4.5 8.76282 4.53671 8.42261 4.61017 8.09045C4.66705 7.83337 4.74594 7.58105 4.84683 7.33362C4.96753 7.03772 5.11511 6.75989 5.28955 6.5C5.43948 6.27661 5.60928 6.06665 5.79892 5.87C6.03769 5.62244 6.29742 5.40674 6.57809 5.22327C6.784 5.08862 7.00128 4.97107 7.22974 4.87085C7.5054 4.74988 7.78738 4.65857 8.07568 4.5968C8.37689 4.53223 8.685 4.5 9 4.5L18 4.5ZM18.8824 25.5909C18.5947 25.5303 18.3005 25.5 18 25.5L9 25.5C8.69946 25.5 8.4053 25.5303 8.11755 25.5909C7.80545 25.6567 7.50089 25.7581 7.2038 25.8951C7.0159 25.9819 6.83575 26.0807 6.66336 26.1915C6.33911 26.4 6.0423 26.6511 5.77295 26.9449C5.62125 27.1105 5.48254 27.2848 5.35681 27.4681C5.14771 27.7729 4.97449 28.1024 4.83719 28.4565C4.74893 28.6842 4.67801 28.9158 4.62442 29.1512C4.54147 29.5156 4.5 29.8895 4.5 30.2727L4.5 38.7273C4.5 39.1106 4.54147 39.4844 4.62442 39.8489C4.67804 40.0844 4.74896 40.3158 4.83719 40.5435C4.97452 40.8976 5.14774 41.2271 5.35687 41.532C5.48257 41.7152 5.62128 41.8895 5.77295 42.0551C6.0423 42.3489 6.33911 42.6 6.66336 42.8085C6.83575 42.9193 7.0159 43.0181 7.20383 43.1049C7.50089 43.2419 7.80545 43.3433 8.11752 43.4091C8.4053 43.4697 8.69946 43.5 9 43.5L18 43.5C18.3005 43.5 18.5947 43.4697 18.8824 43.4091C19.1945 43.3433 19.4991 43.2419 19.7962 43.1049C19.9841 43.0181 20.1642 42.9193 20.3366 42.8085C20.6609 42.6001 20.9577 42.3489 21.2271 42.0551C21.3788 41.8895 21.5175 41.7151 21.6432 41.5317C21.8523 41.2269 22.0255 40.8975 22.1628 40.5435C22.251 40.3158 22.322 40.0844 22.3756 39.8489C22.4585 39.4844 22.5 39.1106 22.5 38.7273L22.5 30.2727C22.5 29.8895 22.4585 29.5157 22.3756 29.1514C22.322 28.9158 22.2511 28.6842 22.1628 28.4565C22.0255 28.1024 21.8523 27.7729 21.6431 27.468C21.5174 27.2848 21.3787 27.1105 21.2271 26.9449C20.9577 26.6511 20.6609 26.4 20.3367 26.1915C20.1642 26.0807 19.9841 25.9819 19.7962 25.8951C19.4991 25.7581 19.1945 25.6567 18.8824 25.5909ZM38.7273 25.5C39.0677 25.5 39.4005 25.5352 39.7257 25.6053C40.0217 25.6693 40.3113 25.7623 40.5946 25.8844C40.8517 25.9951 41.0953 26.1261 41.3257 26.2776C41.6078 26.463 41.8698 26.679 42.1118 26.9254C42.3268 27.1444 42.5179 27.3794 42.6852 27.6301C42.8585 27.8899 43.0061 28.1667 43.1281 28.4606C43.2395 28.7288 43.3258 29.0023 43.3871 29.2815C43.4624 29.6239 43.5 29.9745 43.5 30.3334L43.5 38.6666C43.5 39.0255 43.4624 39.3761 43.3872 39.7184C43.3258 39.9976 43.2395 40.2712 43.1281 40.5394C43.0061 40.8333 42.8585 41.1101 42.6852 41.3698C42.518 41.6206 42.3268 41.8556 42.1118 42.0746C41.8698 42.321 41.6077 42.537 41.3256 42.7225C41.0953 42.8739 40.8517 43.0049 40.5946 43.1156C40.3113 43.2377 40.0218 43.3307 39.726 43.3945C39.4007 43.4647 39.0677 43.5 38.7273 43.5L30.2727 43.5C29.9323 43.5 29.5995 43.4648 29.2742 43.3947C28.9783 43.3307 28.6887 43.2377 28.4054 43.1156C28.1484 43.0049 27.9047 42.8739 27.6744 42.7225C27.3923 42.5371 27.1302 42.321 26.8882 42.0746C26.6732 41.8556 26.482 41.6206 26.3148 41.3698C26.1415 41.1101 25.9939 40.8333 25.8719 40.5394C25.7605 40.2712 25.6742 39.9976 25.6128 39.7184C25.5376 39.3761 25.5 39.0255 25.5 38.6666L25.5 30.3334C25.5 29.9745 25.5376 29.6239 25.6128 29.2816C25.6742 29.0024 25.7605 28.7288 25.8719 28.4606C25.9939 28.1667 26.1415 27.8899 26.3148 27.6301C26.4821 27.3794 26.6732 27.1444 26.8882 26.9254C27.1302 26.679 27.3923 26.463 27.6744 26.2775C27.9047 26.1261 28.1483 25.9951 28.4054 25.8844C28.6887 25.7623 28.9783 25.6693 29.2743 25.6053C29.5995 25.5352 29.9323 25.5 30.2727 25.5L38.7273 25.5Z" fill="#191919" fill-rule="evenodd"/>
  <circle id="椭圆 407" cx="34.5" cy="13.5" r="9" fill="#AEAEAE"/>
</svg>
