<svg viewBox="0 0 48 48" xmlns="http://www.w3.org/2000/svg" xmlns:xlink="http://www.w3.org/1999/xlink" width="48.000000" height="48.000000" fill="none">
  <path id="路径" d="M0 14.0612C0 16.1985 1.57006 17.9369 3.49975 17.9369C5.42994 17.9369 7 16.1985 7 14.0612L7 0.977947C7 0.434339 6.60749 0 6.11684 0L1 0C0.447715 0 6.56697e-14 0.447715 6.56697e-14 1L6.56697e-14 1.99993L0 14.0612Z" fill="#AEAEAE" fill-rule="evenodd" transform="matrix(1,0,0,-1,5,23)"/>
  <path id="减去顶层" d="M8.25702 5.00541L8 5.00541C8 5.00541 8.09737 4.99323 8.25702 5.00541ZM8.25702 5.00541L35 5.00541C38.3137 5.00541 41 7.69171 41 11.0054L41 37.5006C41 38.9168 41.6668 40.2504 42.7998 41.1L44 42L17 42C13.6863 42 11 39.3137 11 36L11 9.75474C11 8.19971 10.7345 6.51083 9.529 5.52852C9.51934 5.52065 9.50968 5.51289 9.50001 5.50524C9.02025 5.12547 8.54047 5.02704 8.25702 5.00541ZM31.8333 22.8298C33.181 22.8298 34.2796 23.8962 34.3314 25.2311L34.5653 25.2308C35.3348 25.09 35.9297 24.4381 35.9942 23.6345L36 23.4893L36 20.3107C36 19.9933 35.9157 19.6828 35.7573 19.4111L35.6719 19.2786L32.4708 15.4077C32.262 15.1133 31.94 14.9254 31.5881 14.8873L28.9043 14.8814C28.606 14.8807 28.3581 15.1004 28.311 15.3887L28.3029 15.4878L28.3029 21.1723C28.3029 21.5916 27.9672 21.9317 27.5527 21.9322C27.139 21.9328 26.8031 21.5939 26.8026 21.1754L26.8026 13.012C26.8026 12.4932 26.4165 12.0655 25.919 12.007L25.8024 12.0002L25.8012 12.0002L16.9991 12.0106C16.4471 12.0113 16 12.4641 16 13.0224L16 24.2468C16.0001 24.8056 16.4478 25.2586 17.0002 25.2587L18.5011 25.2563C18.5399 23.9096 19.6439 22.8298 21 22.8298C22.3535 22.8298 23.4557 23.9053 23.4987 25.2484L29.3349 25.2391C29.3826 23.9004 30.4829 22.8298 31.8333 22.8298ZM21 23.6625C21.9205 23.6625 22.6667 24.4087 22.6667 25.3292C22.6667 26.2497 21.9205 26.9959 21 26.9959C20.0795 26.9959 19.3333 26.2497 19.3333 25.3292C19.3333 24.4087 20.0795 23.6625 21 23.6625ZM31.8334 23.6625C32.7539 23.6625 33.5001 24.4087 33.5001 25.3292C33.5001 26.2497 32.7539 26.9959 31.8334 26.9959C30.913 26.9959 30.1668 26.2497 30.1668 25.3292C30.1668 24.4087 30.913 23.6625 31.8334 23.6625ZM36.4651 27L17.5349 27C16.6753 27 16 27.66 16 28.5C16 29.34 16.6753 30 17.5349 30L36.4651 30C37.3247 30 38 29.34 38 28.5C38 27.66 37.3247 27 36.4651 27ZM25 32L15.5 32C14.66 32 14 32.66 14 33.5C14 34.34 14.66 35 15.5 35L25 35C25.84 35 26.5 34.34 26.5 33.5C26.5 32.66 25.84 32 25 32ZM30.5 32L33.25 32C34.09 32 34.75 32.66 34.75 33.5C34.75 34.34 34.09 35 33.25 35L30.5 35C29.66 35 29 34.34 29 33.5C29 32.66 29.66 32 30.5 32Z" fill="#191919" fill-rule="evenodd"/>
</svg>
