<svg viewBox="0 0 48 48" xmlns="http://www.w3.org/2000/svg" xmlns:xlink="http://www.w3.org/1999/xlink" width="48.000000" height="48.000000" fill="none">
  <path id="路径" d="M6.0111 10.1492L5.99756 10.501L5.99756 32.5C5.99756 33.3284 6.66913 34 7.49756 34C8.25067 34 8.87416 33.4433 8.98129 32.72L8.99756 32.5L8.99734 11.1211L39.4276 41.56C40.0134 42.1458 40.9618 42.1458 41.5476 41.56C42.0846 41.023 42.1351 40.1679 41.6876 39.58L11.1172 8.99836L32.4876 9C33.316 9 33.9876 8.32843 33.9876 7.5C33.9876 6.74688 33.4309 6.1234 32.7076 6.01626L32.4876 6L10.4985 6C9.38225 6 8.36092 6.40632 7.57435 7.07913L7.32229 7.31326C6.58117 8.05054 6.09653 9.04391 6.0111 10.1492Z" fill="#191919" fill-rule="evenodd"/>
</svg>
