<svg viewBox="0 0 48 48" xmlns="http://www.w3.org/2000/svg" xmlns:xlink="http://www.w3.org/1999/xlink" width="48.000000" height="48.000000" fill="none">
  <path id="形状结合" d="M36.0695 7.25931C41.9284 9.39003 44.9485 15.8659 42.8155 21.7229C41.3741 25.6863 38.2832 29.7327 34.0361 33.7453C31.9636 35.7034 29.7468 37.5274 27.5288 39.172C27.1402 39.4601 26.7653 39.7324 26.4062 39.9883L25.3783 40.7061L24.5683 41.2471C24.4933 41.2987 24.4139 41.3386 24.332 41.3673C24.3031 41.3721 24.125 41.4157 24.0952 41.4186C24.072 41.4164 23.8784 41.4157 23.8557 41.4124C23.8293 41.4042 23.6221 41.3497 23.5957 41.338L22.6226 40.7063L22.1215 40.3602L21.0444 39.5926C20.8571 39.4565 20.6662 39.3163 20.4718 39.1723C18.2541 37.5282 16.0371 35.7042 13.9644 33.7461C9.71686 29.7334 6.62545 25.6866 5.1841 21.7233C3.05125 15.8667 6.07223 9.39039 11.9297 7.2594C16.2268 5.6954 20.9596 6.89173 24.0012 10.1186C27.042 6.89149 31.773 5.69551 36.0695 7.25931Z" fill="#191919" fill-rule="evenodd"/>
</svg>
