<svg viewBox="0 0 48 48" xmlns="http://www.w3.org/2000/svg" xmlns:xlink="http://www.w3.org/1999/xlink" width="48.000000" height="48.000000" fill="none">
  <path id="形状结合" d="M25.6469 4C31.0314 4 35.3969 8.36557 35.3969 13.75C35.3969 16.9639 33.8416 19.8148 31.4426 21.591C32.141 21.9136 32.8076 22.3072 33.4336 22.7657C36.4354 24.9634 38.2475 28.457 38.2475 32.25C38.2475 38.7381 32.9862 43.998 26.4975 43.998C26.3505 43.998 26.2083 43.9768 26.074 43.9374C26.002 43.9597 25.9272 43.9759 25.8505 43.9863L25.6469 44L14.2529 44C11.872 44 9.92171 42.1489 9.76332 39.808L9.75293 39.5L9.75293 8.502C9.75293 6.11969 11.6035 4.17066 13.9449 4.01238L14.2529 4.002L25.6469 4ZM12.7529 23.5L12.7529 39.5C12.7529 40.2586 13.318 40.8869 14.0496 40.9863L14.2529 41L25.6469 41C25.794 41 25.9361 41.0212 26.0704 41.0606C26.2054 41.0196 26.349 40.998 26.4975 40.998C31.3296 40.998 35.2475 37.0811 35.2475 32.25C35.2475 29.4238 33.8995 26.8248 31.6613 25.1862C30.173 24.0963 28.3814 23.5 26.4975 23.5L12.7529 23.5ZM25.6469 7L14.2529 7.002C13.4935 7.002 12.8659 7.56606 12.7666 8.2984L12.7529 8.502L12.7529 20.5L25.6469 20.5C29.3745 20.5 32.3969 17.4776 32.3969 13.75C32.3969 10.0224 29.3745 7 25.6469 7Z" fill="#191919" fill-rule="evenodd"/>
</svg>
