<svg viewBox="0 0 48 48" xmlns="http://www.w3.org/2000/svg" xmlns:xlink="http://www.w3.org/1999/xlink" width="48.000000" height="48.000000" fill="none">
  <path id="形状结合" d="M26.5367 26.5606C30.0506 23.0443 35.7509 23.0443 39.2648 26.5606C42.412 29.7078 42.74 34.6075 40.2486 38.122L43.5254 41.402C44.1112 41.9878 44.1112 42.9375 43.5254 43.5233C42.9929 44.0559 42.1596 44.1043 41.5723 43.6686L38.1293 40.2505C34.614 42.765 29.6936 42.444 26.5371 39.2875C23.0212 35.7717 23.0212 30.0737 26.5367 26.5606ZM21.9292 25.4785C22.7576 25.4785 23.4292 26.15 23.4292 26.9785C23.4292 27.7379 22.8648 28.3655 22.1327 28.4648L21.9292 28.4785L11.2472 28.4785C8.92136 28.4785 7.03516 30.3651 7.03516 32.6925C7.03516 34.9169 8.76111 36.7396 10.9464 36.8939L11.2472 36.9045L21.9292 36.9045C22.7576 36.9045 23.4292 37.576 23.4292 38.4045C23.4292 39.1639 22.8648 39.7915 22.1327 39.8908L21.9292 39.9045L11.2472 39.9045C7.26473 39.9045 4.03516 36.6749 4.03516 32.6925C4.03516 28.837 7.05936 25.6876 10.8642 25.4885L11.2472 25.4785L21.9292 25.4785ZM36.8549 28.4112C34.499 26.3412 30.9072 26.4312 28.6581 28.6819C26.3143 31.0241 26.3143 34.8221 28.6584 37.1662C31.0006 39.5084 34.8009 39.5084 37.1427 37.1666C39.4854 34.8223 39.4854 31.0238 37.1431 28.6815L36.8549 28.4112ZM36.6832 8.07617C40.6672 8.07617 43.8932 11.3022 43.8932 15.2862C43.8932 19.2722 40.6672 22.5002 36.6832 22.5002L5.60716 22.5002C3.60716 22.5002 3.60716 19.5002 5.60716 19.5002C7.93316 19.5002 9.81716 17.6162 9.81716 15.2862C9.81716 12.9602 7.93316 11.0762 5.60716 11.0762C3.60716 11.0762 3.60716 8.07617 5.60716 8.07617L36.6832 8.07617ZM11.4612 11.0742C12.2852 12.2462 12.8172 13.7462 12.8172 15.2862L12.8072 15.6722C12.7432 16.9122 12.3652 18.0682 11.7512 19.0642L11.4632 19.4982L36.6832 19.5002C39.0092 19.5002 40.8932 17.6162 40.8932 15.2862L40.8852 14.9862C40.7292 12.8002 38.9092 11.0762 36.6832 11.0762L11.4612 11.0742Z" fill="#191919" fill-rule="evenodd"/>
  <path id="形状结合" d="M26.5368 26.5606C30.0506 23.0443 35.751 23.0443 39.2648 26.5606C42.412 29.7078 42.74 34.6075 40.2486 38.122L43.5255 41.402C44.1113 41.9878 44.1113 42.9375 43.5255 43.5233C42.9929 44.0559 42.1596 44.1043 41.5724 43.6686L38.1293 40.2505C34.6141 42.765 29.6936 42.444 26.5371 39.2875C23.0213 35.7717 23.0213 30.0737 26.5368 26.5606ZM36.8549 28.4112C34.499 26.3412 30.9072 26.4312 28.6581 28.6819C26.3143 31.0241 26.3143 34.8221 28.6585 37.1662C31.0007 39.5084 34.8009 39.5084 37.1428 37.1666C39.4854 34.8223 39.4854 31.0238 37.1431 28.6815L36.8549 28.4112Z" fill="#AEAEAE" fill-rule="evenodd"/>
</svg>
