<svg viewBox="0 0 48 48" xmlns="http://www.w3.org/2000/svg" xmlns:xlink="http://www.w3.org/1999/xlink" width="48.000000" height="48.000000" fill="none">
  <path id="减去顶层" d="M25.2662 4.05971C25.1798 4.04422 25.0908 4.03613 25 4.03613L11.078 4.03613C7.77 4.03613 5.078 6.72813 5.078 10.0361L5.078 37.9641C5.078 41.2721 7.77 43.9641 11.078 43.9641L20.1088 43.9641C20.0912 43.9027 20.0758 43.8408 20.0624 43.7785C20.0613 43.7731 20.0602 43.7677 20.059 43.7623C20.0197 43.5726 20 43.3787 20 43.1806L20 41.7708C20 41.4989 20.0145 41.23 20.0434 40.9641L11.078 40.9641C9.424 40.9641 8.078 39.6181 8.078 37.9641L8.078 10.0361C8.078 8.38213 9.424 7.03613 11.078 7.03613L23.498 7.03413L23.5 13.0011C23.5 15.4811 25.518 17.5011 28 17.5011L34 17.5011L34 18.1262C34.1426 18.1506 34.2845 18.1786 34.4255 18.2101C34.9531 18.3281 35.4699 18.4957 35.9759 18.7129C36.3308 18.8653 36.6722 19.0384 37 19.2323L37 16C37 15.423 36.6886 14.9309 36.2214 14.6794L26.0755 4.49082C26.022 4.43582 25.7937 4.27325 25.7337 4.22745C25.7061 4.21199 25.4955 4.12373 25.4683 4.11077C25.4225 4.09571 25.3138 4.06968 25.2662 4.05971ZM26.5 13.0011L26.5 9.16913L31.81 14.5011L28 14.5011C27.172 14.5011 26.5 13.8271 26.5 13.0011ZM22.1509 18L16.25 18C15.41 18 14.75 18.66 14.75 19.5C14.75 20.34 15.41 21 16.25 21L17.7012 21L17.7012 27.1797C17.7012 28.0197 18.3612 28.6797 19.2012 28.6797C20.0412 28.6797 20.7012 28.0197 20.7012 27.1797L20.7012 21L22.1509 21C22.9909 21 23.6509 20.34 23.6509 19.5C23.6509 18.66 22.9909 18 22.1509 18ZM12.5 18.0225C11.66 18.0225 11 18.6825 11 19.5225L11 27.2498C11 28.0898 11.66 28.7498 12.5 28.7498C13.34 28.7498 14 28.0898 14 27.2498L14 19.5225C14 18.6825 13.34 18.0225 12.5 18.0225Z" fill="#191919" fill-rule="evenodd"/>
  <path id="合并(边框)" d="M25.1739 25.8825C25.058 26.4089 25 26.9481 25 27.5C25 28.0519 25.058 28.591 25.1739 29.1174C25.2715 29.5606 25.4102 29.9947 25.59 30.4198C25.7704 30.8464 25.9861 31.2497 26.237 31.6297C26.514 32.0493 26.8339 32.4405 27.1967 32.8033C27.5595 33.1661 27.9507 33.486 28.3702 33.763C28.5001 33.8487 28.6327 33.9303 28.768 34.0078C28.2741 34.0296 27.7912 34.0969 27.319 34.2097C27.0106 34.2833 26.7068 34.3764 26.4076 34.4889C25.8104 34.7134 25.2602 35.0042 24.757 35.3612C24.5468 35.5103 24.3448 35.6711 24.151 35.8433C23.6629 36.2771 23.254 36.76 22.9243 37.2919C22.801 37.4909 22.6887 37.6966 22.5876 37.9093C22.3746 38.3568 22.2196 38.8162 22.1224 39.2876C22.0408 39.6833 22 40.0874 22 40.5L22 41.6667C22 41.8306 22.0165 41.9911 22.0496 42.1481C22.0802 42.2935 22.125 42.4359 22.184 42.5754C22.2418 42.712 22.3111 42.8408 22.392 42.962C22.4765 43.0886 22.5737 43.2068 22.6834 43.3166C22.7932 43.4263 22.9114 43.5235 23.038 43.608C23.1592 43.6889 23.288 43.7582 23.4246 43.816C23.5641 43.875 23.7065 43.9198 23.8519 43.9504C24.0089 43.9835 24.1694 44 24.3333 44L40.6667 44C40.8306 44 40.9911 43.9835 41.1481 43.9504C41.2935 43.9198 41.4359 43.875 41.5754 43.816C41.7119 43.7583 41.8408 43.6889 41.9619 43.6081C42.0886 43.5235 42.2068 43.4264 42.3166 43.3166C42.4264 43.2068 42.5235 43.0886 42.608 42.962C42.6889 42.8408 42.7582 42.712 42.816 42.5754C42.875 42.4359 42.9198 42.2935 42.9504 42.1481C42.9835 41.9911 43 41.8306 43 41.6667L43 40.5C43 40.0874 42.9592 39.6832 42.8776 39.2875C42.7804 38.8161 42.6254 38.3567 42.4124 37.9093C42.3113 37.6966 42.199 37.4908 42.0757 37.2919C41.746 36.76 41.3371 36.2771 40.849 35.8433C40.6553 35.6711 40.4533 35.5104 40.2431 35.3613C39.7399 35.0042 39.1896 34.7134 38.5924 34.4889C38.2933 34.3764 37.9895 34.2834 37.6812 34.2097C37.209 34.0969 36.7259 34.0296 36.232 34.0078C36.3673 33.9303 36.4999 33.8487 36.6298 33.763C37.0493 33.486 37.4405 33.1661 37.8033 32.8033C38.1661 32.4405 38.486 32.0493 38.763 31.6298C39.0139 31.2497 39.2296 30.8464 39.41 30.4198C39.5898 29.9947 39.7285 29.5606 39.8261 29.1175C39.942 28.5911 40 28.0519 40 27.5C40 26.9481 39.942 26.4089 39.8261 25.8825C39.7285 25.4394 39.5898 25.0053 39.41 24.5802C39.2296 24.1536 39.0139 23.7503 38.763 23.3702C38.486 22.9507 38.1661 22.5595 37.8033 22.1967C37.4405 21.8339 37.0493 21.514 36.6297 21.237C36.2497 20.9861 35.8464 20.7704 35.4198 20.59C34.9947 20.4102 34.5606 20.2715 34.1175 20.1739C33.5911 20.058 33.0519 20 32.5 20C31.9481 20 31.4089 20.058 30.8826 20.1739C30.4394 20.2715 30.0053 20.4102 29.5802 20.59C29.1536 20.7704 28.7503 20.9861 28.3703 21.237C27.9507 21.5139 27.5595 21.8339 27.1967 22.1967C26.8339 22.5595 26.514 22.9507 26.237 23.3703C25.9861 23.7503 25.7704 24.1536 25.59 24.5802C25.4102 25.0053 25.2715 25.4394 25.1739 25.8825ZM28.1153 28.5209C28.0384 28.1895 28 27.8492 28 27.5C28 27.1508 28.0384 26.8105 28.1153 26.4791C28.173 26.2307 28.2522 25.9873 28.353 25.7489C28.4575 25.5019 28.5817 25.2678 28.7258 25.0467C28.8957 24.7858 29.0931 24.543 29.318 24.318C29.543 24.0931 29.7859 23.8957 30.0467 23.7258C30.2678 23.5817 30.5019 23.4575 30.7489 23.353C30.9873 23.2522 31.2307 23.1729 31.4791 23.1153C31.8105 23.0384 32.1508 23 32.5 23C32.8492 23 33.1895 23.0384 33.5209 23.1153C33.7693 23.1729 34.0127 23.2522 34.2511 23.353C34.4981 23.4575 34.7322 23.5817 34.9533 23.7258C35.2141 23.8957 35.457 24.0931 35.682 24.318C35.9069 24.5429 36.1043 24.7858 36.2742 25.0466C36.4182 25.2678 36.5425 25.5019 36.647 25.7489C36.7478 25.9873 36.8271 26.2307 36.8847 26.4791C36.9616 26.8105 37 27.1508 37 27.5C37 27.8492 36.9616 28.1895 36.8847 28.5209C36.8271 28.7693 36.7478 29.0127 36.647 29.2511C36.5425 29.4981 36.4183 29.7322 36.2742 29.9534C36.1043 30.2142 35.9069 30.4571 35.682 30.682C35.4571 30.9069 35.2142 31.1043 34.9534 31.2742C34.7322 31.4182 34.4981 31.5425 34.2511 31.647C34.0127 31.7478 33.7693 31.8271 33.5208 31.8847C33.1895 31.9616 32.8492 32 32.5 32C32.1508 32 31.8105 31.9616 31.4791 31.8847C31.2307 31.8271 30.9873 31.7478 30.7489 31.647C30.5019 31.5425 30.2678 31.4182 30.0466 31.2742C29.7858 31.1043 29.5429 30.9069 29.318 30.682C29.0931 30.457 28.8957 30.2142 28.7258 29.9534C28.5817 29.7322 28.4575 29.4981 28.353 29.2511C28.2522 29.0127 28.1729 28.7693 28.1153 28.5209ZM25 41L40 41L40 40.5C40 40.313 39.9831 40.1292 39.9493 39.9485C39.9014 39.6921 39.8195 39.442 39.7035 39.1983C39.6865 39.1625 39.6689 39.1271 39.6506 39.0921C39.4567 38.7196 39.1918 38.3841 38.8559 38.0856C38.7981 38.0342 38.7389 37.9845 38.6784 37.9366C38.3406 37.6693 37.96 37.4561 37.5367 37.297C37.4062 37.2479 37.274 37.2049 37.1402 37.168C36.7339 37.056 36.3122 37 35.875 37L29.125 37C28.6879 37 28.2662 37.056 27.86 37.168C27.7261 37.2049 27.5939 37.2479 27.4634 37.297C27.04 37.4561 26.6595 37.6693 26.3217 37.9366C26.2611 37.9845 26.2019 38.0342 26.1441 38.0856C25.8081 38.3842 25.5432 38.7197 25.3493 39.0923C25.3311 39.1273 25.3135 39.1626 25.2965 39.1983C25.1805 39.442 25.0986 39.6921 25.0507 39.9485C25.0169 40.1292 25 40.313 25 40.5L25 41Z" fill="#AEAEAE" fill-rule="evenodd"/>
</svg>
