<svg viewBox="0 0 48 48" xmlns="http://www.w3.org/2000/svg" xmlns:xlink="http://www.w3.org/1999/xlink" width="48.000000" height="48.000000" fill="none">
  <path id="减去顶层" d="M15 5L31 5C33.2091 5 35 6.79077 35 9L35 11L39 11C41.2091 11 43 12.7908 43 15L43 21L40.9361 21C38.9295 19.733 36.5512 19 34 19C33.47 19 32.9473 19.0318 32.4336 19.0937C32.0727 18.7256 31.5671 18.5 31 18.5C30.064 18.5 29.2956 19.1146 29.0684 19.9703C28.3715 20.2568 27.7047 20.602 27.0743 21L17 21L17 20.5C17 19.3799 16.12 18.5 15 18.5C13.88 18.5 13 19.3799 13 20.5L13 21L3 21L3 15C3 12.7908 4.79086 11 7 11L11 11L11 9C11 6.79077 12.7909 5 15 5ZM23.0464 25L17 25L17 26.5C17 27.6201 16.12 28.5 15 28.5C13.88 28.5 13 27.6201 13 26.5L13 25L3 25L3 38C3 40.2092 4.79086 42 7 42L25.7072 42C22.8341 39.6124 21 36.0141 21 32C21 29.4217 21.7517 27.02 23.0464 25Z" fill="#191919" fill-rule="evenodd"/>
  <path id="减去顶层" d="M23 32C23 25.92 27.94 21 34 21C40.08 21 45 25.92 45 32C45 38.06 40.08 43 34 43C27.94 43 23 38.06 23 32ZM31 28.1142L31 35.2191C31 36.5503 32.4836 37.3443 33.5912 36.6059L38.9199 33.0534C39.9094 32.3937 39.9094 30.9396 38.9199 30.2799L33.5912 26.7274C32.4836 25.989 31 26.783 31 28.1142Z" fill="#AEAEAE" fill-rule="evenodd"/>
</svg>
