<svg viewBox="0 0 48 48" xmlns="http://www.w3.org/2000/svg" xmlns:xlink="http://www.w3.org/1999/xlink" width="48.000000" height="48.000000" fill="none">
  <path id="path" d="M25.46 17.3202C24.98 17.2202 24.5 17.1602 24 17.1602L9.82 17.1602C9.32 17.1602 8.82 17.2202 8.34 17.3202C7.94 17.4202 7.54 17.5402 7.16 17.7002C6.76 17.8602 6.4 18.0602 6.06 18.3002C5.68 18.5402 5.32 18.8402 4.98 19.1602C4.66 19.5002 4.36 19.8402 4.12 20.2202C3.88 20.5802 3.7 20.9402 3.52 21.3402C3.36 21.7202 3.24 22.1202 3.14 22.5202C3.04 23.0002 3 23.4802 3 24.0002L3 38.1602C3 38.6602 3.04 39.1602 3.14 39.6402C3.24 40.0402 3.36 40.4402 3.52 40.8202C3.7 41.2202 3.88 41.5802 4.12 41.9202C4.36 42.3002 4.66 42.6602 4.98 43.0002C5.32 43.3202 5.68 43.6202 6.06 43.8602C6.4 44.1002 6.76 44.2802 7.16 44.4602C7.54 44.6202 7.94 44.7402 8.34 44.8402C8.82 44.9402 9.32 45.0002 9.82 45.0002L24 45.0002C24.5 45.0002 24.98 44.9402 25.46 44.8402C25.86 44.7402 26.26 44.6202 26.64 44.4602C27.04 44.2802 27.4 44.1002 27.76 43.8602C28.14 43.6202 28.48 43.3202 28.82 43.0002C29.14 42.6602 29.44 42.3002 29.68 41.9202C29.92 41.5802 30.12 41.2202 30.28 40.8202C30.44 40.4402 30.56 40.0402 30.66 39.6402C30.76 39.1602 30.82 38.6602 30.82 38.1602L30.82 24.0002C30.82 23.4802 30.76 23.0002 30.66 22.5202C30.56 22.1202 30.44 21.7202 30.28 21.3402C30.12 20.9402 29.92 20.5802 29.68 20.2202C29.44 19.8402 29.14 19.5002 28.82 19.1602C28.48 18.8402 28.14 18.5402 27.76 18.3002C27.4 18.0602 27.04 17.8602 26.64 17.7002C26.26 17.5402 25.86 17.4202 25.46 17.3202ZM9.82 20.3202L24 20.3202C24.28 20.3202 24.56 20.3402 24.84 20.4202C25.04 20.4602 25.22 20.5202 25.42 20.6002C25.62 20.6802 25.82 20.7802 26 20.9002C26.2 21.0402 26.4 21.2002 26.58 21.4002C26.78 21.5802 26.94 21.7802 27.08 22.0002C27.2 22.1602 27.3 22.3602 27.38 22.5602C27.46 22.7602 27.52 22.9402 27.56 23.1402C27.64 23.4202 27.66 23.7002 27.66 24.0002L27.66 38.1602C27.66 38.4602 27.64 38.7402 27.56 39.0002C27.52 39.2002 27.46 39.4002 27.38 39.6002C27.3 39.8002 27.2 39.9802 27.08 40.1602C26.94 40.3802 26.78 40.5802 26.58 40.7602C26.4 40.9402 26.2 41.1202 26 41.2402C25.82 41.3602 25.62 41.4602 25.42 41.5602C25.22 41.6402 25.04 41.7002 24.84 41.7402C24.56 41.8002 24.28 41.8402 24 41.8402L9.82 41.8402C9.52 41.8402 9.24 41.8002 8.98 41.7402C8.78 41.7002 8.58 41.6402 8.38 41.5602C8.18 41.4602 8 41.3602 7.82 41.2402C7.6 41.1202 7.4 40.9402 7.22 40.7602C7.04 40.5802 6.86 40.3802 6.74 40.1602C6.62 39.9802 6.52 39.8002 6.42 39.6002C6.34 39.4002 6.28 39.2002 6.24 39.0002C6.18 38.7402 6.14 38.4602 6.14 38.1602L6.14 24.0002C6.14 23.7002 6.18 23.4202 6.24 23.1402C6.28 22.9402 6.34 22.7602 6.42 22.5602C6.52 22.3602 6.62 22.1602 6.74 22.0002C6.86 21.7802 7.04 21.5802 7.22 21.4002C7.4 21.2002 7.6 21.0402 7.82 20.9002C8 20.7802 8.18 20.6802 8.38 20.6002C8.58 20.5202 8.78 20.4602 8.98 20.4202C9.24 20.3402 9.52 20.3202 9.82 20.3202ZM18.42 23.1002L21.08 29.9202L21.2 30.2002L21.3 30.4802L22.74 34.1402L24.02 37.4602L24.18 37.8402C24.26 38.0402 24.3 38.2602 24.28 38.4802C24.28 38.6802 24.24 38.9002 24.14 39.1002C24.06 39.3202 23.94 39.5002 23.78 39.6402C23.62 39.7802 23.44 39.9002 23.22 39.9802C23.02 40.0602 22.8 40.1002 22.6 40.1002C22.38 40.1002 22.16 40.0402 21.96 39.9602C21.74 39.8602 21.58 39.7402 21.42 39.5802C21.28 39.4402 21.16 39.2602 21.08 39.0402L21 38.8202L19.72 35.5602L14.04 35.5802L12.7 39.0402C12.62 39.2602 12.5 39.4402 12.36 39.5802C12.22 39.7402 12.04 39.8602 11.82 39.9602C11.62 40.0402 11.4 40.1002 11.2 40.1002C10.98 40.1002 10.78 40.0602 10.56 39.9802C10.34 39.9002 10.16 39.7802 10 39.6402C9.86 39.5002 9.74 39.3202 9.64 39.1002C9.54 38.9002 9.5 38.6802 9.5 38.4802C9.5 38.2602 9.52 38.0602 9.62 37.8402L9.7 37.6202L11.04 34.1602L11.12 33.9202L12.4 30.6402L12.56 30.2002L15.32 23.1002C15.4 22.9002 15.5 22.7402 15.62 22.6002C15.72 22.4802 15.84 22.3802 15.96 22.3002C16.1 22.2202 16.22 22.1602 16.36 22.1202C16.52 22.0602 16.7 22.0402 16.86 22.0402C17.04 22.0402 17.22 22.0602 17.38 22.1202C17.52 22.1602 17.64 22.2202 17.78 22.3002C17.9 22.3802 18.02 22.4802 18.12 22.6002C18.24 22.7402 18.34 22.9002 18.42 23.1002ZM15.72 31.2602L15.6 31.5402L15.5 31.8402L15.34 32.2202L18.42 32.2402L18.2 31.6802L16.88 28.2802L15.72 31.2602Z" fill="#AEAEAE" fill-rule="evenodd"/>
  <path id="减去顶层" d="M38.1602 3C38.6602 3 39.1602 3.04 39.6402 3.14C40.0402 3.24 40.4402 3.36 40.8202 3.52C41.2202 3.7 41.5802 3.9 41.9202 4.12C42.3002 4.38 42.6602 4.66 43.0002 4.98C43.3202 5.32 43.6202 5.68 43.8602 6.06C44.1002 6.4 44.2802 6.78 44.4602 7.16C44.6202 7.54 44.7402 7.94 44.8402 8.34C44.9402 8.82 45.0002 9.32 45.0002 9.82L45.0002 24C45.0002 24.5 44.9402 24.98 44.8402 25.46C44.7402 25.86 44.6202 26.26 44.4602 26.64C44.2802 27.04 44.1002 27.4 43.8602 27.76C43.6202 28.14 43.3202 28.48 43.0002 28.82C42.6602 29.14 42.3002 29.44 41.9202 29.68C41.5802 29.92 41.2202 30.12 40.8202 30.28C40.4402 30.44 40.0402 30.56 39.6402 30.66C39.1602 30.76 38.6602 30.82 38.1602 30.82L34 30.8201L34 27.6599L38.1602 27.66C38.4602 27.66 38.7402 27.64 39.0002 27.56C39.2002 27.52 39.4002 27.46 39.6002 27.38C39.8002 27.3 39.9802 27.2 40.1602 27.08C40.3802 26.94 40.5802 26.78 40.7602 26.58C40.9402 26.4 41.1202 26.2 41.2402 26C41.3602 25.82 41.4602 25.62 41.5602 25.42C41.6402 25.22 41.7002 25.04 41.7402 24.84C41.8002 24.56 41.8402 24.28 41.8402 24L41.8402 9.82C41.8402 9.52 41.8002 9.24 41.7402 8.96C41.7002 8.78 41.6402 8.58 41.5602 8.38C41.4602 8.18 41.3602 8 41.2402 7.82C41.1202 7.6 40.9402 7.4 40.7602 7.22C40.5802 7.04 40.3802 6.86 40.1602 6.74C39.9802 6.62 39.8002 6.52 39.6002 6.42C39.4002 6.34 39.2002 6.28 39.0002 6.24C38.7402 6.18 38.4602 6.14 38.1602 6.14L24.0002 6.14C23.7002 6.14 23.4202 6.18 23.1402 6.24C22.9402 6.28 22.7602 6.34 22.5602 6.42C22.3602 6.52 22.1602 6.62 22.0002 6.74C21.7802 6.86 21.5802 7.04 21.4002 7.22C21.2002 7.4 21.0402 7.6 20.9002 7.82C20.7802 8 20.6802 8.18 20.6002 8.38C20.5202 8.58 20.4602 8.78 20.4202 8.98C20.3402 9.24 20.3202 9.52 20.3202 9.82L20.3202 13.9999L17.1602 13.9999L17.1602 9.82C17.1602 9.32 17.2202 8.82 17.3202 8.34C17.4202 7.94 17.5402 7.54 17.7002 7.16C17.8602 6.76 18.0602 6.4 18.3002 6.06C18.5402 5.68 18.8402 5.32 19.1602 4.98C19.5002 4.66 19.8602 4.36 20.2402 4.12C20.5802 3.88 20.9402 3.7 21.3402 3.52C21.7202 3.36 22.1202 3.24 22.5202 3.14C23.0002 3.04 23.4802 3 24.0002 3L38.1602 3ZM33.9909 24.5485C34.4175 24.7507 34.8592 24.942 35.316 25.1225C36.0513 25.4131 36.7906 25.6625 37.534 25.8709C37.9152 25.9777 38.2279 26.0561 38.4721 26.1061C39.2943 26.2745 40.0725 25.7608 40.2409 24.9386C40.4092 24.1164 39.8955 23.3382 39.0734 23.1698C38.8989 23.1341 38.6553 23.0724 38.3428 22.9848C37.6987 22.8043 37.0569 22.5878 36.4175 22.3351C35.5286 21.9838 34.7121 21.5881 33.9679 21.148C33.6526 20.9615 33.354 20.7691 33.072 20.5709C33.6115 21.7959 33.934 23.138 33.9909 24.5485ZM33.072 20.5709C33.5486 19.9966 33.9948 19.3315 34.4366 18.6344C34.9904 17.7606 35.5061 16.8081 35.9839 15.7768C36.3233 15.0441 36.6279 14.3071 36.8976 13.5658C36.9301 13.4763 36.9609 13.3906 36.9897 13.3088L38.9826 13.3088C39.8218 13.3088 40.4812 12.6495 40.4812 11.8103C40.4812 10.971 39.8218 10.3117 38.9826 10.3117L32.647 10.3117C32.5911 10.059 32.5296 9.82022 32.4623 9.59526C32.3584 9.22671 32.2216 8.82135 32.0521 8.37918C31.9681 8.15987 31.8927 7.97318 31.8262 7.81913C31.4933 7.04876 30.6265 6.70501 29.8561 7.03789C29.0857 7.37077 28.742 8.23761 29.0749 9.00798C29.1248 9.12368 29.1844 9.27168 29.2535 9.45199C29.3748 9.76849 29.4735 10.055 29.5495 10.3117L22.9975 10.3117C22.1583 10.3117 21.4989 10.971 21.4989 11.8103C21.4989 12.6495 22.1583 13.3088 22.9975 13.3088L24.7306 13.3088C24.7595 13.3906 24.7902 13.4763 24.8227 13.5658C24.8988 13.775 24.9777 13.9838 25.0594 14.1923C26.5445 14.4736 27.924 15.0534 29.1332 15.867C28.8993 15.4368 28.6736 14.9867 28.4559 14.5169C28.2699 14.1153 28.0957 13.7126 27.9333 13.3088L33.787 13.3088C33.6246 13.7126 33.4504 14.1153 33.2644 14.5169C32.8417 15.4292 32.3886 16.2669 31.905 17.0299C31.7243 17.315 31.5412 17.5868 31.3556 17.8452C32.0464 18.6513 32.6356 19.5878 33.072 20.5709Z" fill="#191919" fill-rule="evenodd"/>
</svg>
