<svg viewBox="0 0 48 48" xmlns="http://www.w3.org/2000/svg" xmlns:xlink="http://www.w3.org/1999/xlink" width="48.000000" height="48.000000" fill="none">
  <path id="合并" d="M38.9005 10.4612C38.9005 6.89279 36.0798 4 32.6004 4L12.2 4C8.72058 4 5.89999 6.89279 5.89999 10.4612L5.89999 37.5369C5.89999 41.1053 8.72058 43.9981 12.2 43.9981L22.7906 44C21.7345 43.1015 20.7929 42.0663 19.9916 40.921L12.2 40.9213C10.3774 40.9213 8.89999 39.4061 8.89999 37.5369L8.89999 10.4612C8.89999 8.59204 10.3774 7.07678 12.2 7.07678L32.6004 7.07678C34.423 7.07678 35.9005 8.59204 35.9005 10.4612L35.9001 15.2242C36.939 15.4192 37.9428 15.7172 38.9012 16.1074L38.9005 10.4612ZM29 11.5C29.8284 11.5 30.5 12.1716 30.5 13C30.5 13.7594 29.9357 14.387 29.2035 14.4863L29 14.5L15 14.5C14.1716 14.5 13.5 13.8284 13.5 13C13.5 12.2406 14.0643 11.613 14.7964 11.5137L15 11.5L29 11.5ZM23.5 19C23.5 18.1716 22.8284 17.5 22 17.5L15 17.5L14.7964 17.5137C14.0643 17.613 13.5 18.2406 13.5 19C13.5 19.8284 14.1716 20.5 15 20.5L22 20.5L22.2035 20.4863C22.9357 20.387 23.5 19.7594 23.5 19ZM33 18.5C39.9035 18.5 45.5 24.0964 45.5 31C45.5 37.9036 39.9035 43.5 33 43.5C26.0964 43.5 20.5 37.9036 20.5 31C20.5 24.0964 26.0964 18.5 33 18.5ZM23.5 31C23.5 25.7533 27.7533 21.5 33 21.5C38.2467 21.5 42.5 25.7533 42.5 31C42.5 36.2467 38.2467 40.5 33 40.5C27.7533 40.5 23.5 36.2467 23.5 31ZM33.1654 26.533L30.7942 24.5689C30.2695 23.9129 29.3418 23.8099 28.6859 24.3348C28.0299 24.8594 27.9269 25.7872 28.4516 26.4429L31.4137 29.1455L29.6229 29.1455C28.7829 29.1455 28.1229 29.8057 28.1229 30.6455C28.1229 31.4856 28.7829 32.1455 29.6229 32.1455L31.6312 32.1455L31.6312 33.408L29.5 33.408C28.66 33.408 28 34.0681 28 34.908C28 35.7481 28.66 36.408 29.5 36.408L31.6312 36.408L31.6312 38.2935C31.6312 39.1336 32.2912 39.7935 33.1312 39.7935C33.9712 39.7935 34.6312 39.1336 34.6312 38.2935L34.6312 36.408L36.7625 36.408C37.6025 36.408 38.2625 35.7481 38.2625 34.908C38.2625 34.0681 37.6025 33.408 36.7625 33.408L34.6312 33.408L34.6312 32.1455L36.6395 32.1455C37.4795 32.1455 38.1395 31.4856 38.1395 30.6455C38.1395 29.8057 37.4795 29.1455 36.6395 29.1455L34.8829 29.1455L37.996 26.4769C38.5395 25.8365 38.4632 24.9061 37.8227 24.3626C37.1822 23.8191 36.252 23.8953 35.7085 24.5359L33.1654 26.533Z" fill="#191919" fill-rule="evenodd"/>
  <path id="合并" d="M33 18.5C39.9035 18.5 45.5 24.0964 45.5 31C45.5 37.9036 39.9035 43.5 33 43.5C26.0964 43.5 20.5 37.9036 20.5 31C20.5 24.0964 26.0964 18.5 33 18.5ZM23.5 31C23.5 25.7533 27.7533 21.5 33 21.5C38.2467 21.5 42.5 25.7533 42.5 31C42.5 36.2467 38.2467 40.5 33 40.5C27.7533 40.5 23.5 36.2467 23.5 31ZM33.1654 26.533L30.7942 24.5689C30.2694 23.9129 29.3418 23.8099 28.6858 24.3348C28.0299 24.8594 27.9268 25.7872 28.4516 26.4429L31.4137 29.1455L29.6229 29.1455C28.7829 29.1455 28.1229 29.8057 28.1229 30.6455C28.1229 31.4856 28.7829 32.1455 29.6229 32.1455L31.6312 32.1455L31.6312 33.408L29.5 33.408C28.66 33.408 28 34.0681 28 34.908C28 35.7481 28.66 36.408 29.5 36.408L31.6312 36.408L31.6312 38.2935C31.6312 39.1336 32.2912 39.7935 33.1312 39.7935C33.9712 39.7935 34.6312 39.1336 34.6312 38.2935L34.6312 36.408L36.7624 36.408C37.6024 36.408 38.2624 35.7481 38.2624 34.908C38.2624 34.0681 37.6024 33.408 36.7624 33.408L34.6312 33.408L34.6312 32.1455L36.6395 32.1455C37.4795 32.1455 38.1395 31.4856 38.1395 30.6455C38.1395 29.8057 37.4795 29.1455 36.6395 29.1455L34.8829 29.1455L37.996 26.4769C38.5394 25.8365 38.4632 24.9061 37.8227 24.3626C37.1822 23.8191 36.252 23.8953 35.7085 24.5359L33.1654 26.533Z" fill="#AEAEAE" fill-rule="evenodd"/>
</svg>
