<svg viewBox="0 0 48 48" xmlns="http://www.w3.org/2000/svg" xmlns:xlink="http://www.w3.org/1999/xlink" width="48.000000" height="48.000000" fill="none">
  <path id="合并" d="M12 10.2564L12 9.3913C12 8.95038 11.952 8.52044 11.8561 8.10147L11.8561 8.10135C11.7974 7.84491 11.7207 7.59259 11.6261 7.34438C11.5874 7.24276 11.546 7.14293 11.5021 7.04489C11.4974 7.03224 11.4926 7.01962 11.4878 7.00704L34.5 7.00704C34.8492 7.00704 35.1895 7.04548 35.5209 7.12235C35.7693 7.17998 36.0127 7.25922 36.2512 7.36006C36.4982 7.46453 36.7323 7.58881 36.9535 7.73289C37.2142 7.90276 37.4571 8.10015 37.682 8.32506C37.9069 8.54996 38.1043 8.79279 38.2741 9.05355C38.4182 9.27477 38.5425 9.50888 38.647 9.7559C38.7479 9.99434 38.8271 10.2378 38.8847 10.4863C38.9616 10.8176 39 11.1579 39 11.507L39 38.0023C39 38.4744 39.0528 38.9341 39.1584 39.3813C39.264 39.8284 39.4223 40.2631 39.6334 40.6853C39.6873 40.793 39.7439 40.8984 39.8031 41.0016L16.5 41.0016C16.1508 41.0016 15.8105 40.9632 15.4791 40.8863C15.2307 40.8287 14.9873 40.7494 14.7489 40.6486C14.5019 40.5442 14.2678 40.4199 14.0467 40.2758C13.7859 40.106 13.543 39.9086 13.318 39.6836C13.0931 39.4586 12.8956 39.2158 12.7258 38.9549C12.5817 38.7338 12.4575 38.4997 12.353 38.2528C12.2522 38.0144 12.1729 37.7709 12.1153 37.5225C12.0384 37.1911 12 36.8508 12 36.5016L12 24.5043L12 10.2564ZM9 25.002L9 36.5016C9 37.0535 9.05796 37.5926 9.17389 38.119L9.174 38.1195C9.2716 38.5625 9.41027 38.9965 9.59 39.4214C9.77042 39.848 9.98608 40.2513 10.237 40.6313C10.5139 41.0509 10.8338 41.4421 11.1967 41.8049C11.5595 42.1678 11.9507 42.4877 12.3702 42.7646C12.7503 43.0155 13.1536 43.2312 13.5802 43.4116C14.0052 43.5914 14.4393 43.7301 14.8824 43.8277C15.4088 43.9436 15.948 44.0016 16.5 44.0016L45.0002 44.0016C45.9612 44.0016 46.369 42.7782 45.6001 42.2016L43.1998 40.4016C43.0109 40.2599 42.8429 40.1009 42.6957 39.9246L42.6955 39.9243C42.5484 39.7481 42.4221 39.5545 42.3167 39.3435C42.2111 39.1325 42.132 38.9152 42.0792 38.6917C42.0264 38.4681 42 38.2383 42 38.0023L42 11.507C42 10.9552 41.9421 10.416 41.8261 9.88967C41.7285 9.44648 41.5898 9.01233 41.41 8.58724C41.2296 8.16065 41.0139 7.75733 40.763 7.37727C40.486 6.95775 40.1661 6.56657 39.8033 6.20374C39.4405 5.84092 39.0493 5.52104 38.6298 5.24409C38.2498 4.99317 37.8464 4.77748 37.4198 4.59704C36.9948 4.41726 36.5607 4.27856 36.1175 4.18095C35.5911 4.06501 35.0519 4.00704 34.5 4.00704L8.20295 4.00704C8.01505 3.99047 7.83421 4.00315 7.66043 4.04508C7.6579 4.04569 7.65537 4.04631 7.65284 4.04693C7.43824 4.01694 7.22055 4.00195 6.99975 4.00195C6.67825 4.00195 6.3633 4.03375 6.05491 4.09735C5.69426 4.17173 5.34258 4.28959 4.99987 4.45095C4.8154 4.5378 4.63767 4.6353 4.46667 4.74344C4.08052 4.98766 3.7287 5.28616 3.41123 5.63896C3.25946 5.80762 3.11941 5.98441 2.99108 6.16933C2.74075 6.53007 2.53501 6.92176 2.37388 7.3444C2.27922 7.5927 2.20253 7.84512 2.14382 8.10164C2.04794 8.52056 2 8.95045 2 9.3913L2 23.4658C2 23.5699 2.01016 23.6719 2.03049 23.7719C2.05071 23.8714 2.08099 23.9688 2.12134 24.0642C2.16018 24.156 2.20694 24.2426 2.2616 24.3238C2.31643 24.4052 2.37921 24.4813 2.44994 24.552C2.52067 24.6227 2.59676 24.6855 2.6782 24.7404C2.7594 24.795 2.84593 24.8418 2.93777 24.8806C3.03316 24.921 3.13058 24.9512 3.23006 24.9715C3.33003 24.9918 3.43208 25.002 3.53619 25.002L9 25.002ZM9 22.002L9 10.253C8.99976 9.40326 8.90659 8.71195 8.7205 8.17911C8.64256 8.02266 8.55009 7.87791 8.44307 7.74485C8.4159 7.71107 8.38778 7.67804 8.35874 7.64576C8.17686 7.44367 7.97266 7.28732 7.74612 7.17671C7.73814 7.17282 7.73013 7.16898 7.7221 7.1652C7.58184 7.09917 7.43805 7.05317 7.29073 7.02721C7.19522 7.01037 7.09823 7.00195 6.99975 7.00195C6.90166 7.00195 6.80504 7.01031 6.70988 7.02704C6.56231 7.05297 6.41828 7.09901 6.27778 7.16516C6.26989 7.16887 6.26203 7.17264 6.25419 7.17647C6.02753 7.28708 5.82322 7.44349 5.64125 7.6457C5.61223 7.67795 5.58415 7.71095 5.557 7.74471C5.39844 7.94184 5.2718 8.16465 5.17706 8.41312C5.14756 8.4905 5.12175 8.56892 5.09962 8.64835C5.03321 8.88675 5 9.1344 5 9.3913L5 22.002L9 22.002Z" fill="#191919" fill-rule="evenodd"/>
  <path id="合并" d="M34 30L17.5 30C16.66 30 16 30.66 16 31.5C16 32.34 16.66 33 17.5 33L34 33C34.84 33 35.5 32.34 35.5 31.5C35.5 30.66 34.84 30 34 30ZM33.94 35L17.56 35C16.6864 35 16 35.66 16 36.5C16 37.34 16.6864 38 17.56 38L33.94 38C34.8136 38 35.5 37.34 35.5 36.5C35.5 35.66 34.8136 35 33.94 35Z" fill="#AEAEAE" fill-rule="evenodd"/>
  <path id="矩形 63(边框)" d="M32.8693 10.0678C32.6614 10.0226 32.4485 10 32.2308 10L19 10C18.7822 10 18.5694 10.0226 18.3614 10.0678C18.1813 10.1069 18.0048 10.1631 17.832 10.2362C17.6598 10.309 17.4972 10.3961 17.344 10.4976C17.1777 10.6077 17.0226 10.7348 16.8787 10.8787C16.7347 11.0226 16.6077 11.1777 16.4975 11.344C16.3961 11.4972 16.309 11.6598 16.2362 11.832C16.1631 12.0048 16.1069 12.1813 16.0678 12.3614C16.0226 12.5694 16 12.7822 16 13L16 23.5385C16 23.7562 16.0226 23.9691 16.0678 24.177C16.1069 24.3572 16.1631 24.5337 16.2362 24.7065C16.309 24.8786 16.3961 25.0413 16.4976 25.1944C16.6077 25.3607 16.7348 25.5159 16.8787 25.6598C17.0226 25.8037 17.1777 25.9308 17.344 26.0409C17.4972 26.1424 17.6598 26.2295 17.832 26.3023C18.0048 26.3754 18.1813 26.4315 18.3615 26.4707C18.5694 26.5159 18.7822 26.5385 19 26.5385L32.2308 26.5385C32.4485 26.5385 32.6614 26.5159 32.8694 26.4707C33.0495 26.4315 33.226 26.3754 33.3988 26.3023C33.5709 26.2295 33.7336 26.1424 33.8867 26.0409C34.053 25.9308 34.2081 25.8037 34.3521 25.6598C34.496 25.5158 34.6231 25.3607 34.7333 25.1944C34.8347 25.0412 34.9218 24.8786 34.9946 24.7065C35.0677 24.5337 35.1238 24.3572 35.163 24.1771C35.2082 23.9691 35.2308 23.7562 35.2308 23.5385L35.2308 13C35.2308 12.7822 35.2082 12.5693 35.163 12.3613C35.1238 12.1812 35.0677 12.0047 34.9946 11.832C34.9218 11.6598 34.8347 11.4972 34.7332 11.344C34.6231 11.1777 34.496 11.0226 34.3521 10.8787C34.2082 10.7348 34.0531 10.6077 33.8868 10.4976C33.7336 10.3961 33.5709 10.309 33.3988 10.2362C33.226 10.1631 33.0495 10.1069 32.8693 10.0678ZM19 12L32.2308 12C32.3134 12 32.3937 12.0096 32.4715 12.0288C32.5219 12.0413 32.5713 12.0577 32.6197 12.0782C32.6721 12.1003 32.7219 12.1265 32.7691 12.1568C32.8296 12.1955 32.8859 12.2409 32.9379 12.2929C32.9899 12.3449 33.0352 12.4011 33.074 12.4616C33.1042 12.5088 33.1304 12.5587 33.1526 12.6111C33.1731 12.6595 33.1895 12.7088 33.2019 12.7592C33.2212 12.8371 33.2308 12.9174 33.2308 13L33.2308 23.5385C33.2308 23.6211 33.2212 23.7013 33.202 23.7792C33.1895 23.8296 33.1731 23.879 33.1526 23.9274C33.1304 23.9798 33.1042 24.0296 33.074 24.0769C33.0352 24.1373 32.9899 24.1936 32.9379 24.2456C32.8859 24.2976 32.8296 24.343 32.7691 24.3817C32.7219 24.4119 32.6721 24.4381 32.6197 24.4603C32.5713 24.4808 32.522 24.4972 32.4716 24.5096C32.3937 24.5289 32.3134 24.5385 32.2308 24.5385L19 24.5385C18.9174 24.5385 18.8371 24.5289 18.7592 24.5096C18.7088 24.4972 18.6595 24.4808 18.6111 24.4603C18.5587 24.4381 18.5088 24.4119 18.4616 24.3817C18.4011 24.3429 18.3449 24.2976 18.2929 24.2456C18.2409 24.1936 18.1955 24.1373 18.1568 24.0768C18.1265 24.0296 18.1003 23.9798 18.0782 23.9274C18.0577 23.879 18.0413 23.8296 18.0288 23.7792C18.0096 23.7013 18 23.6211 18 23.5385L18 13C18 12.9174 18.0096 12.8371 18.0288 12.7592C18.0413 12.7088 18.0577 12.6595 18.0782 12.6111C18.1003 12.5587 18.1265 12.5089 18.1568 12.4616C18.1955 12.4011 18.2409 12.3449 18.2929 12.2929C18.3449 12.2409 18.4011 12.1955 18.4616 12.1568C18.5089 12.1265 18.5587 12.1003 18.6111 12.0782C18.6595 12.0577 18.7088 12.0413 18.7592 12.0288C18.8371 12.0096 18.9174 12 19 12Z" fill="#AEAEAE" fill-rule="evenodd"/>
  <path id="矢量 1989" d="M20.1952 28.6152C20.4803 29.4219 21.2496 30 22.1539 30C23.0582 30 23.8276 29.4219 24.1127 28.6152L20.1952 28.6152ZM27.1183 28.6152C27.4034 29.4219 28.1727 30 29.077 30C29.9813 30 30.7506 29.4219 31.0358 28.6152L27.1183 28.6152Z" fill="#AEAEAE" fill-rule="evenodd"/>
  <path id="矢量 1991" d="M19.1147 23.0537L19.7027 22.4854C19.9727 22.2246 20.1252 21.8652 20.1252 21.4902L20.1252 16.5391C20.1252 15.7744 20.7451 15.1543 21.5098 15.1543L29.7692 15.1543C30.5339 15.1543 31.1538 15.7744 31.1538 16.5391L31.1538 21.5039C31.1538 21.8711 31.2997 22.2236 31.5593 22.4834L32.1329 23.0566C32.3925 23.3164 32.5384 23.668 32.5384 24.0352L32.5384 26.2314C32.5384 26.9961 31.9185 27.6162 31.1538 27.6162L20.0769 27.6162C19.3122 27.6162 18.6923 26.9961 18.6923 26.2314L18.6923 24.0498C18.6923 23.6738 18.8447 23.3145 19.1147 23.0537Z" fill="#FFFFFF" fill-rule="evenodd"/>
  <path id="矢量 1991" d="M33.4706 26.2539C33.5158 26.0469 33.5384 25.834 33.5384 25.6162L33.5384 24.29C33.5384 24.0918 33.5194 23.8965 33.4813 23.7051C33.4433 23.5137 33.3862 23.3262 33.3101 23.1426C33.2339 22.959 33.1417 22.7852 33.0333 22.623C32.9249 22.4609 32.8004 22.3096 32.6597 22.1689L32.4467 21.9561C32.3998 21.9092 32.3583 21.8584 32.3222 21.8047C32.286 21.751 32.2553 21.6934 32.2299 21.6318C32.2045 21.5703 32.1855 21.5078 32.1728 21.4443C32.1601 21.3799 32.1538 21.3154 32.1538 21.249L32.1538 17.1543C32.1538 16.9365 32.1312 16.7236 32.086 16.5156C32.0468 16.3359 31.9907 16.1592 31.9176 15.9863C31.8448 15.8145 31.7577 15.6514 31.6563 15.498C31.5461 15.332 31.4191 15.1768 31.2751 15.0332C31.1312 14.8887 30.9761 14.7617 30.8098 14.6514C30.6566 14.5508 30.494 14.4629 30.3218 14.3906C30.149 14.3174 29.9725 14.2617 29.7923 14.2217C29.5844 14.1768 29.3716 14.1543 29.1538 14.1543L22.1252 14.1543C21.9075 14.1543 21.6946 14.1768 21.4867 14.2217C21.3065 14.2617 21.13 14.3174 20.9572 14.3906C20.785 14.4629 20.6224 14.5508 20.4692 14.6514C20.3029 14.7617 20.1478 14.8887 20.0039 15.0332C19.86 15.1768 19.7329 15.332 19.6228 15.498C19.5213 15.6514 19.4342 15.8145 19.3614 15.9863C19.2883 16.1592 19.2322 16.3359 19.193 16.5156C19.1478 16.7236 19.1252 16.9365 19.1252 17.1543L19.1252 21.2285C19.1252 21.2969 19.1186 21.3633 19.1054 21.4277C19.0921 21.4932 19.0723 21.5566 19.0458 21.6191C19.0193 21.6816 18.9873 21.7402 18.9496 21.7949C18.912 21.8496 18.8688 21.9004 18.8201 21.9482L18.6076 22.1533C18.4614 22.2949 18.3318 22.4473 18.219 22.6113C18.1062 22.7754 18.01 22.9512 17.9306 23.1387C17.8511 23.3262 17.7916 23.5176 17.7518 23.7129C17.7121 23.9082 17.6923 24.1074 17.6923 24.3105L17.6923 25.6162C17.6923 25.834 17.7149 26.0469 17.76 26.2539C17.7992 26.4346 17.8553 26.6113 17.9284 26.7842C18.0012 26.9561 18.0884 27.1191 18.1898 27.2715C18.3 27.4385 18.427 27.5928 18.5709 27.7373C18.7149 27.8809 18.87 28.0078 19.0363 28.1182C19.1894 28.2197 19.3521 28.3066 19.5242 28.3799C19.697 28.4531 19.8735 28.5088 20.0537 28.5479C20.2617 28.5928 20.4745 28.6162 20.6923 28.6162L30.5384 28.6162C30.7562 28.6162 30.969 28.5928 31.177 28.5479C31.3572 28.5088 31.5337 28.4531 31.7065 28.3799C31.8786 28.3066 32.0412 28.2197 32.1943 28.1182C32.3606 28.0078 32.5158 27.8809 32.6597 27.7373C32.8037 27.5928 32.9307 27.4385 33.0409 27.2715C33.1423 27.1182 33.2294 26.9561 33.3022 26.7842C33.3753 26.6113 33.4315 26.4346 33.4706 26.2539ZM31.5384 24.29L31.5384 25.6162C31.5384 25.6982 31.5288 25.7783 31.5096 25.8564C31.4972 25.9072 31.4807 25.9561 31.4602 26.0049C31.4381 26.0576 31.4119 26.1074 31.3816 26.1543C31.3429 26.2148 31.2975 26.2705 31.2455 26.3232C31.1935 26.375 31.1372 26.4199 31.0767 26.459C31.0295 26.4893 30.9797 26.5156 30.9274 26.5381C30.879 26.5586 30.8296 26.5742 30.7792 26.5869C30.7013 26.6064 30.6211 26.6162 30.5384 26.6162L20.6923 26.6162C20.6096 26.6162 20.5294 26.6064 20.4515 26.5869C20.4011 26.5742 20.3517 26.5586 20.3033 26.5381C20.2509 26.5156 20.2011 26.4893 20.1539 26.459C20.0934 26.4199 20.0372 26.375 19.9852 26.3232C19.9332 26.2705 19.8878 26.2148 19.8491 26.1543C19.8188 26.1074 19.7926 26.0576 19.7704 26.0049C19.75 25.9561 19.7335 25.9072 19.7211 25.8564C19.7019 25.7783 19.6923 25.6982 19.6923 25.6162L19.6923 24.3105C19.6923 24.2432 19.6989 24.1768 19.7121 24.1113C19.7254 24.0459 19.7452 23.9824 19.7717 23.9199C19.7982 23.8574 19.8302 23.7988 19.8678 23.7441C19.9055 23.6895 19.9486 23.6387 19.9974 23.5918L20.2098 23.3857C20.3561 23.2451 20.4856 23.0918 20.5985 22.9277C20.7113 22.7637 20.8075 22.5879 20.8869 22.4004C20.9663 22.2129 21.0259 22.0225 21.0656 21.8271C21.1054 21.6318 21.1252 21.4326 21.1252 21.2285L21.1252 17.1543C21.1252 17.0713 21.1348 16.9912 21.154 16.9131C21.1665 16.8633 21.1829 16.8135 21.2034 16.7656C21.2256 16.7129 21.2518 16.6631 21.282 16.6162C21.3207 16.5557 21.3661 16.499 21.4181 16.4473C21.4701 16.3955 21.5263 16.3496 21.5868 16.3115C21.6341 16.2812 21.6839 16.2549 21.7363 16.2324C21.7847 16.2119 21.8341 16.1953 21.8844 16.1836C21.9623 16.1641 22.0426 16.1543 22.1252 16.1543L29.1538 16.1543C29.2364 16.1543 29.3167 16.1641 29.3946 16.1836C29.445 16.1953 29.4943 16.2119 29.5427 16.2324C29.5951 16.2549 29.645 16.2812 29.6922 16.3115C29.7527 16.3496 29.8089 16.3955 29.8609 16.4473C29.9129 16.499 29.9583 16.5557 29.997 16.6162C30.0273 16.6631 30.0535 16.7129 30.0756 16.7656C30.0961 16.8135 30.1125 16.8633 30.125 16.9131C30.1442 16.9912 30.1538 17.0713 30.1538 17.1543L30.1538 21.249C30.1538 21.4482 30.1728 21.6426 30.2109 21.834C30.249 22.0254 30.306 22.2129 30.3822 22.3975C30.4583 22.5811 30.5505 22.7539 30.6589 22.916C30.7673 23.0781 30.8918 23.2295 31.0325 23.3701L31.2455 23.583C31.2924 23.6299 31.3339 23.6807 31.37 23.7344C31.4061 23.7891 31.4369 23.8467 31.4623 23.9082C31.4877 23.9688 31.5067 24.0312 31.5194 24.0957C31.5321 24.1592 31.5384 24.2246 31.5384 24.29Z" fill="#FFFFFF" fill-rule="evenodd"/>
  <path id="矢量 1991" d="M33.4706 26.2539C33.5158 26.0469 33.5384 25.834 33.5384 25.6162L33.5384 24.29C33.5384 24.0918 33.5194 23.8965 33.4813 23.7051C33.4433 23.5137 33.3862 23.3262 33.3101 23.1426C33.2339 22.959 33.1417 22.7852 33.0333 22.623C32.9249 22.4609 32.8004 22.3096 32.6597 22.1689L32.4467 21.9561C32.3998 21.9092 32.3583 21.8584 32.3222 21.8047C32.286 21.751 32.2553 21.6934 32.2299 21.6318C32.2045 21.5703 32.1855 21.5078 32.1728 21.4443C32.1601 21.3799 32.1538 21.3154 32.1538 21.249L32.1538 17.1543C32.1538 16.9365 32.1312 16.7236 32.086 16.5156C32.0468 16.3359 31.9907 16.1592 31.9176 15.9863C31.8448 15.8145 31.7577 15.6514 31.6563 15.498C31.5461 15.332 31.4191 15.1768 31.2751 15.0332C31.1312 14.8887 30.9761 14.7617 30.8098 14.6514C30.6566 14.5508 30.494 14.4629 30.3218 14.3906C30.149 14.3174 29.9725 14.2617 29.7923 14.2217C29.5844 14.1768 29.3716 14.1543 29.1538 14.1543L22.1252 14.1543C21.9075 14.1543 21.6946 14.1768 21.4867 14.2217C21.3065 14.2617 21.13 14.3174 20.9572 14.3906C20.785 14.4629 20.6224 14.5508 20.4692 14.6514C20.3029 14.7617 20.1478 14.8887 20.0039 15.0332C19.86 15.1768 19.7329 15.332 19.6228 15.498C19.5213 15.6514 19.4342 15.8145 19.3614 15.9863C19.2883 16.1592 19.2322 16.3359 19.193 16.5156C19.1478 16.7236 19.1252 16.9365 19.1252 17.1543L19.1252 21.2285C19.1252 21.2969 19.1186 21.3633 19.1054 21.4277C19.0921 21.4932 19.0723 21.5566 19.0458 21.6191C19.0193 21.6816 18.9873 21.7402 18.9496 21.7949C18.912 21.8496 18.8688 21.9004 18.8201 21.9482L18.6076 22.1533C18.4614 22.2949 18.3318 22.4473 18.219 22.6113C18.1062 22.7754 18.01 22.9512 17.9306 23.1387C17.8511 23.3262 17.7916 23.5176 17.7518 23.7129C17.7121 23.9082 17.6923 24.1074 17.6923 24.3105L17.6923 25.6162C17.6923 25.834 17.7149 26.0469 17.76 26.2539C17.7992 26.4346 17.8553 26.6113 17.9284 26.7842C18.0012 26.9561 18.0884 27.1191 18.1898 27.2715C18.3 27.4385 18.427 27.5928 18.5709 27.7373C18.7149 27.8809 18.87 28.0078 19.0363 28.1182C19.1894 28.2197 19.3521 28.3066 19.5242 28.3799C19.697 28.4531 19.8735 28.5088 20.0537 28.5479C20.2617 28.5928 20.4745 28.6162 20.6923 28.6162L30.5384 28.6162C30.7562 28.6162 30.969 28.5928 31.177 28.5479C31.3572 28.5088 31.5337 28.4531 31.7065 28.3799C31.8786 28.3066 32.0412 28.2197 32.1943 28.1182C32.3606 28.0078 32.5158 27.8809 32.6597 27.7373C32.8037 27.5928 32.9307 27.4385 33.0409 27.2715C33.1423 27.1182 33.2294 26.9561 33.3022 26.7842C33.3753 26.6113 33.4315 26.4346 33.4706 26.2539ZM31.5384 24.29L31.5384 25.6162C31.5384 25.6982 31.5288 25.7783 31.5096 25.8564C31.4972 25.9072 31.4807 25.9561 31.4602 26.0049C31.4381 26.0576 31.4119 26.1074 31.3816 26.1543C31.3429 26.2148 31.2975 26.2705 31.2455 26.3232C31.1935 26.375 31.1372 26.4199 31.0767 26.459C31.0295 26.4893 30.9797 26.5156 30.9274 26.5381C30.879 26.5586 30.8296 26.5742 30.7792 26.5869C30.7013 26.6064 30.6211 26.6162 30.5384 26.6162L20.6923 26.6162C20.6096 26.6162 20.5294 26.6064 20.4515 26.5869C20.4011 26.5742 20.3517 26.5586 20.3033 26.5381C20.2509 26.5156 20.2011 26.4893 20.1539 26.459C20.0934 26.4199 20.0372 26.375 19.9852 26.3232C19.9332 26.2705 19.8878 26.2148 19.8491 26.1543C19.8188 26.1074 19.7926 26.0576 19.7704 26.0049C19.75 25.9561 19.7335 25.9072 19.7211 25.8564C19.7019 25.7783 19.6923 25.6982 19.6923 25.6162L19.6923 24.3105C19.6923 24.2432 19.6989 24.1768 19.7121 24.1113C19.7254 24.0459 19.7452 23.9824 19.7717 23.9199C19.7982 23.8574 19.8302 23.7988 19.8678 23.7441C19.9055 23.6895 19.9486 23.6387 19.9974 23.5918L20.2098 23.3857C20.3561 23.2451 20.4856 23.0918 20.5985 22.9277C20.7113 22.7637 20.8075 22.5879 20.8869 22.4004C20.9663 22.2129 21.0259 22.0225 21.0656 21.8271C21.1054 21.6318 21.1252 21.4326 21.1252 21.2285L21.1252 17.1543C21.1252 17.0713 21.1348 16.9912 21.154 16.9131C21.1665 16.8633 21.1829 16.8135 21.2034 16.7656C21.2256 16.7129 21.2518 16.6631 21.282 16.6162C21.3207 16.5557 21.3661 16.499 21.4181 16.4473C21.4701 16.3955 21.5263 16.3496 21.5868 16.3115C21.6341 16.2812 21.6839 16.2549 21.7363 16.2324C21.7847 16.2119 21.8341 16.1953 21.8844 16.1836C21.9623 16.1641 22.0426 16.1543 22.1252 16.1543L29.1538 16.1543C29.2364 16.1543 29.3167 16.1641 29.3946 16.1836C29.445 16.1953 29.4943 16.2119 29.5427 16.2324C29.5951 16.2549 29.645 16.2812 29.6922 16.3115C29.7527 16.3496 29.8089 16.3955 29.8609 16.4473C29.9129 16.499 29.9583 16.5557 29.997 16.6162C30.0273 16.6631 30.0535 16.7129 30.0756 16.7656C30.0961 16.8135 30.1125 16.8633 30.125 16.9131C30.1442 16.9912 30.1538 17.0713 30.1538 17.1543L30.1538 21.249C30.1538 21.4482 30.1728 21.6426 30.2109 21.834C30.249 22.0254 30.306 22.2129 30.3822 22.3975C30.4583 22.5811 30.5505 22.7539 30.6589 22.916C30.7673 23.0781 30.8918 23.2295 31.0325 23.3701L31.2455 23.583C31.2924 23.6299 31.3339 23.6807 31.37 23.7344C31.4061 23.7891 31.4369 23.8467 31.4623 23.9082C31.4877 23.9688 31.5067 24.0312 31.5194 24.0957C31.5321 24.1592 31.5384 24.2246 31.5384 24.29Z" fill="#AEAEAE" fill-rule="evenodd"/>
  <path id="合并" d="M27.0001 17C27.1427 17 27.2823 17.0146 27.4187 17.0437C27.5413 17.0699 27.6613 17.1079 27.7789 17.1576C27.8949 17.2066 28.0044 17.2654 28.1074 17.334C28.217 17.4069 28.3193 17.4908 28.4143 17.5858C28.5092 17.6807 28.5932 17.783 28.6661 17.8927C28.7346 17.9957 28.7934 18.1052 28.8425 18.2212C28.8922 18.3387 28.9301 18.4588 28.9563 18.5813C28.9855 18.7178 29.0001 18.8573 29.0001 19L29.0001 20C29.0001 20.1427 28.9855 20.2822 28.9563 20.4187C28.9301 20.5412 28.8922 20.6613 28.8425 20.7788C28.7934 20.8948 28.7346 21.0043 28.6661 21.1074C28.5932 21.217 28.5092 21.3193 28.4143 21.4142C28.3193 21.5092 28.217 21.5931 28.1074 21.666C28.0044 21.7346 27.8949 21.7934 27.7789 21.8424C27.6613 21.8921 27.5413 21.9301 27.4187 21.9563C27.2823 21.9854 27.1427 22 27.0001 22L24.0001 22C23.8574 22 23.7178 21.9854 23.5814 21.9563C23.4588 21.9301 23.3388 21.8921 23.2213 21.8424C23.1053 21.7934 22.9957 21.7345 22.8927 21.666C22.7831 21.5931 22.6808 21.5092 22.5858 21.4142C22.4909 21.3193 22.407 21.217 22.3341 21.1074C22.2655 21.0043 22.2067 20.8948 22.1576 20.7788C22.1079 20.6613 22.07 20.5412 22.0438 20.4187C22.0146 20.2822 22.0001 20.1427 22.0001 20L22.0001 19C22.0001 18.8573 22.0146 18.7178 22.0438 18.5813L22.0438 18.5813C22.07 18.4588 22.1079 18.3387 22.1576 18.2212C22.2067 18.1052 22.2655 17.9957 22.3341 17.8926C22.407 17.783 22.4909 17.6807 22.5858 17.5858C22.6808 17.4908 22.7831 17.4069 22.8927 17.334L22.8927 17.334C22.9957 17.2654 23.1053 17.2066 23.2213 17.1576C23.3388 17.1079 23.4588 17.0699 23.5814 17.0437C23.7178 17.0146 23.8574 17 24.0001 17L27.0001 17ZM27.0001 19L24.0001 19L24.0001 20L27.0001 20L27.0001 19ZM20.7693 24.5004C20.7693 23.9268 21.2342 23.4619 21.8077 23.4619C22.3813 23.4619 22.8462 23.9268 22.8462 24.5004C22.8462 25.0739 22.3813 25.5388 21.8077 25.5388C21.2342 25.5388 20.7693 25.0739 20.7693 24.5004ZM28.3847 24.5004C28.3847 23.9268 28.8496 23.4619 29.4231 23.4619C29.9967 23.4619 30.4616 23.9268 30.4616 24.5004C30.4616 25.0739 29.9967 25.5388 29.4231 25.5388C28.8496 25.5388 28.3847 25.0739 28.3847 24.5004Z" opacity="0.899999976" fill="#AEAEAE" fill-rule="evenodd"/>
</svg>
