<svg viewBox="0 0 48 48" xmlns="http://www.w3.org/2000/svg" xmlns:xlink="http://www.w3.org/1999/xlink" width="48.000000" height="48.000000" fill="none">
  <path id="形状结合" d="M34 4C37.308 4 40 6.692 40 10L40 23.624C38.232 22.598 36.188 22 34 22C27.382 22 22 27.382 22 34C22 38.172 24.142 41.85 27.38 44L14 44C10.692 44 8 41.308 8 38L8 10C8 6.692 10.692 4 14 4L34 4ZM24 18.5L16 18.5C15.172 18.5 14.5 19.172 14.5 20C14.5 20.828 15.172 21.5 16 21.5L24 21.5C24.828 21.5 25.5 20.828 25.5 20C25.5 19.172 24.828 18.5 24 18.5ZM32 10.5L16 10.5C15.172 10.5 14.5 11.172 14.5 12C14.5 12.828 15.172 13.5 16 13.5L32 13.5C32.828 13.5 33.5 12.828 33.5 12C33.5 11.172 32.828 10.5 32 10.5Z" fill="#191919" fill-rule="evenodd"/>
  <path id="减去顶层" d="M44.0005 34C44.0005 28.486 39.5145 24 34.0005 24C28.4865 24 24.0005 28.486 24.0005 34C24.0005 39.514 28.4865 44 34.0005 44C39.5145 44 44.0005 39.514 44.0005 34ZM38 32.4998L30 32.4998C29.16 32.4998 28.5 33.1598 28.5 33.9998C28.5 34.8398 29.16 35.4998 30 35.4998L38 35.4998C38.84 35.4998 39.5 34.8398 39.5 33.9998C39.5 33.1598 38.84 32.4998 38 32.4998Z" fill="#191919" fill-rule="evenodd"/>
  <path id="减去顶层" d="M44.0005 34C44.0005 28.486 39.5145 24 34.0005 24C28.4865 24 24.0005 28.486 24.0005 34C24.0005 39.514 28.4865 44 34.0005 44C39.5145 44 44.0005 39.514 44.0005 34ZM38 32.4998L30 32.4998C29.16 32.4998 28.5 33.1598 28.5 33.9998C28.5 34.8398 29.16 35.4998 30 35.4998L38 35.4998C38.84 35.4998 39.5 34.8398 39.5 33.9998C39.5 33.1598 38.84 32.4998 38 32.4998Z" fill="#AEAEAE" fill-rule="evenodd"/>
</svg>
