<svg viewBox="0 0 48 48" xmlns="http://www.w3.org/2000/svg" xmlns:xlink="http://www.w3.org/1999/xlink" width="48.000000" height="48.000000" fill="none">
  <path id="形状结合" d="M32 4C35.1955 4 37.8073 6.49849 37.9898 9.64752L38 10L38 18C38 18.8284 37.3284 19.5 36.5 19.5C35.7406 19.5 35.113 18.9358 35.0137 18.2036L35 18L35 10C35 8.44107 33.8102 7.15916 32.2889 7.01374L32 7L11 7C9.44068 7 8.15911 8.19023 8.01373 9.71118L8 10L8 38.002C8 39.5603 9.18932 40.8411 10.711 40.9863L11 41L21 41C21.8284 41 22.5 41.6716 22.5 42.5C22.5 43.2594 21.9357 43.887 21.2035 43.9863L21 44L11 44C7.80434 44 5.19266 41.5033 5.01019 38.3545L5 38.002L5 10C5 6.80531 7.49772 4.19279 10.6474 4.01025L11 4L32 4ZM18 18.5C18.8284 18.5 19.5 19.1716 19.5 20C19.5 20.7594 18.9357 21.387 18.2035 21.4863L18 21.5L12 21.5C11.1716 21.5 10.5 20.8284 10.5 20C10.5 19.2406 11.0643 18.613 11.7965 18.5137L12 18.5L18 18.5ZM28 11.5C28.8284 11.5 29.5 12.1716 29.5 13C29.5 13.7594 28.9357 14.387 28.2035 14.4863L28 14.5L12 14.5C11.1716 14.5 10.5 13.8284 10.5 13C10.5 12.2406 11.0643 11.613 11.7965 11.5137L12 11.5L28 11.5Z" fill="#191919" fill-rule="evenodd"/>
  <path id="合并" d="M42.7395 34.4481C42.5893 35.1373 42.3741 35.813 42.0941 36.4739C41.8213 37.1176 41.4962 37.727 41.1186 38.3018C40.6895 38.9551 40.1928 39.564 39.6284 40.1284C39.064 40.6928 38.4552 41.1895 37.8018 41.6186C37.227 41.9961 36.6176 42.3213 35.9739 42.5941C35.313 42.8741 34.638 43.0892 33.9488 43.2393C33.1515 43.4131 32.3352 43.5 31.5 43.5C30.665 43.5 29.849 43.4132 29.0519 43.2395C28.3627 43.0893 27.687 42.8741 27.0261 42.5941C26.3824 42.3213 25.7731 41.9962 25.1982 41.6186C24.5449 41.1896 23.936 40.6928 23.3716 40.1284C22.8072 39.564 22.3105 38.9552 21.8815 38.302C21.504 37.7272 21.1786 37.1175 20.9059 36.4739C20.6259 35.813 20.4108 35.138 20.2607 34.4489C20.0869 33.6516 20 32.8351 20 32C20 31.1648 20.0869 30.3486 20.2606 29.5513C20.4108 28.8621 20.6259 28.187 20.9059 27.5261C21.1787 26.8823 21.5039 26.273 21.8815 25.6981C22.3105 25.0448 22.8072 24.436 23.3716 23.8716C23.936 23.3072 24.5448 22.8105 25.1981 22.3814C25.773 22.0039 26.3824 21.6787 27.0261 21.4059C27.6869 21.126 28.3618 20.9109 29.0509 20.7607C29.848 20.587 30.665 20.5 31.5 20.5C32.3352 20.5 33.1514 20.5869 33.9487 20.7606C34.6379 20.9108 35.313 21.1259 35.9739 21.4059C36.6177 21.6787 37.2271 22.0039 37.802 22.3815C38.4553 22.8105 39.064 23.3072 39.6284 23.8716C40.1928 24.436 40.6895 25.0448 41.1186 25.6981C41.4961 26.273 41.8213 26.8824 42.0941 27.5261C42.3741 28.187 42.5892 28.8621 42.7394 29.5513C42.9131 30.3486 43 31.1648 43 32C43 32.835 42.9132 33.651 42.7395 34.4481ZM40 32C40 31.3679 39.9328 30.7508 39.7984 30.1487C39.6881 29.6545 39.5326 29.1704 39.3318 28.6965C39.1349 28.2319 38.9011 27.7915 38.6301 27.3752C38.3081 26.8804 37.9338 26.4196 37.5071 25.9929C37.0804 25.5662 36.6196 25.1919 36.1248 24.8698C35.7085 24.5989 35.2681 24.3651 34.8035 24.1682C34.3296 23.9674 33.8456 23.8119 33.3514 23.7016C32.7493 23.5672 32.1321 23.5 31.5 23.5C30.8679 23.5 30.2508 23.5672 29.6486 23.7016C29.1545 23.8119 28.6704 23.9674 28.1965 24.1682C27.732 24.365 27.2916 24.5989 26.8753 24.8698C26.3805 25.1918 25.9196 25.5662 25.4929 25.9929C25.0662 26.4196 24.6918 26.8804 24.3698 27.3752C24.0989 27.7915 23.8651 28.2319 23.6682 28.6965C23.4675 29.1702 23.3121 29.6539 23.2018 30.1478C23.0674 30.7499 23 31.3679 23 32C23 32.6321 23.0672 33.2492 23.2016 33.8513C23.3119 34.3454 23.4674 34.8296 23.6682 35.3035C23.865 35.7681 24.0989 36.2085 24.3698 36.6248C24.6918 37.1196 25.0662 37.5804 25.4929 38.0071C25.9196 38.4338 26.3804 38.8082 26.8753 39.1302C27.2915 39.4011 27.732 39.635 28.1965 39.8318C28.6704 40.0326 29.1545 40.1881 29.6487 40.2984C30.2508 40.4328 30.8679 40.5 31.5 40.5C32.1318 40.5 32.7487 40.4329 33.3506 40.2986C33.8442 40.1883 34.3301 40.0324 34.8035 39.8318C35.268 39.635 35.7084 39.4011 36.1246 39.1303C36.6195 38.8083 37.0803 38.4338 37.5071 38.0071C37.9338 37.5804 38.3082 37.1196 38.6302 36.6248C38.9011 36.2085 39.135 35.768 39.3318 35.3035C39.5324 34.8299 39.6879 34.3462 39.7982 33.8524C39.9326 33.2503 40 32.6321 40 32ZM30.1381 28.7744C29.9497 28.8541 29.771 28.9486 29.6019 29.0579C29.6704 29.1156 29.735 29.1804 29.7948 29.252C30.3328 29.8971 30.2487 30.8267 29.6036 31.3647L27.4608 33.1519C27.1427 33.4172 26.7773 33.5312 26.3648 33.4939C25.9523 33.4566 25.6134 33.2788 25.3481 32.9608C25.2356 32.8259 25.1495 32.676 25.0897 32.5109C25.0299 32.3459 25 32.1756 25 32C25 31.5232 25.0499 31.0573 25.1498 30.6024C25.2345 30.2169 25.355 29.8392 25.5114 29.4694C25.6681 29.099 25.8554 28.7489 26.0734 28.419C26.3131 28.0561 26.59 27.7177 26.9038 27.4038C27.2177 27.0899 27.556 26.8132 27.9188 26.5734C28.2488 26.3554 28.599 26.1681 28.9694 26.0114C29.3392 25.855 29.7169 25.7345 30.1024 25.6498C30.5573 25.5499 31.0232 25.5 31.5 25.5C31.9768 25.5 32.4427 25.5499 32.8976 25.6498C33.2831 25.7345 33.6608 25.855 34.0306 26.0114C34.401 26.1681 34.7512 26.3554 35.0812 26.5734C35.444 26.8132 35.7823 27.09 36.0962 27.4038C36.41 27.7177 36.6868 28.056 36.9265 28.4188C37.1445 28.7488 37.3319 29.099 37.4886 29.4694C37.645 29.8392 37.7655 30.2168 37.8501 30.6023C37.95 31.0572 38 31.5232 38 32C38 32.4768 37.9501 32.9427 37.8502 33.3976C37.7655 33.7831 37.645 34.1608 37.4886 34.5306C37.3319 34.901 37.1446 35.2512 36.9266 35.5811C36.6868 35.944 36.4101 36.2823 36.0962 36.5962C35.7823 36.91 35.444 37.1868 35.0812 37.4266C34.7512 37.6446 34.401 37.8319 34.0306 37.9886C33.6608 38.145 33.2831 38.2655 32.8975 38.3502C32.4427 38.4501 31.9768 38.5 31.5 38.5C31.0232 38.5 30.5573 38.4501 30.1024 38.3502C29.7169 38.2655 29.3392 38.145 28.9694 37.9886C28.599 37.8319 28.2488 37.6446 27.9188 37.4266C27.556 37.1868 27.2177 36.91 26.9038 36.5962C26.3098 36.0022 26.3098 35.0688 26.9038 34.4749C27.4978 33.8809 28.4312 33.8809 29.0251 34.4749C29.2011 34.6508 29.3911 34.8051 29.5953 34.9378C29.7663 35.0489 29.9473 35.1449 30.1381 35.2256C30.3212 35.303 30.5082 35.3641 30.699 35.4088C30.9589 35.4696 31.2259 35.5 31.5 35.5C31.7741 35.5 32.0411 35.4696 32.3009 35.4088C32.4918 35.3641 32.6788 35.303 32.8619 35.2256C33.0527 35.1448 33.2337 35.0489 33.4048 34.9377C33.6089 34.8051 33.7989 34.6508 33.9749 34.4749C34.1508 34.2989 34.3051 34.1089 34.4378 33.9048C34.5489 33.7337 34.6449 33.5527 34.7256 33.3619C34.803 33.1788 34.8641 32.9918 34.9087 32.801C34.9696 32.5411 35 32.2741 35 32C35 31.7259 34.9696 31.4589 34.9088 31.199C34.8641 31.0082 34.803 30.8212 34.7256 30.6381C34.6448 30.4473 34.5489 30.2663 34.4377 30.0952C34.3051 29.8911 34.1508 29.7011 33.9749 29.5251C33.7989 29.3492 33.6089 29.1949 33.4048 29.0623C33.2337 28.9511 33.0527 28.8552 32.8619 28.7744C32.6788 28.697 32.4918 28.6359 32.301 28.5912C32.0411 28.5304 31.7741 28.5 31.5 28.5C31.2259 28.5 30.9589 28.5304 30.699 28.5912C30.5082 28.6359 30.3212 28.697 30.1381 28.7744Z" fill="#AEAEAE" fill-rule="evenodd"/>
</svg>
