<svg viewBox="0 0 48 48" xmlns="http://www.w3.org/2000/svg" xmlns:xlink="http://www.w3.org/1999/xlink" width="48.000000" height="48.000000" fill="none">
  <path id="减去顶层" d="M0 18.4851L0 28.168C0 31.476 2.692 34.168 6 34.168L30 34.168C33.308 34.168 36 31.476 36 28.168L36 10.584L21 10.584L21 14.7423C21 17.3224 18.7976 19.376 16.126 19.376L2.87388 19.376C1.80343 19.376 0.8083 19.0463 0 18.4851ZM21 7.584L36 7.584L36 6C36 4.292 35.08 2.594 33.928 1.5L33.6021 1.23395C32.5978 0.468181 31.3572 0 30 0L16.727 0C16.9398 0.563546 17.0728 1.1617 17.1132 1.78451L17.1262 2.19018L17.1283 2.60306C19.327 3.04079 21 4.88956 21 7.13835L21 7.584ZM28.0298 15.3802C28.0298 14.8282 27.5818 14.3802 27.0298 14.3802L25.0298 14.3802C24.4778 14.3802 24.0298 14.8282 24.0298 15.3802L24.0298 17.3802C24.0298 17.9302 24.4778 18.3802 25.0298 18.3802L27.0298 18.3802C27.5818 18.3802 28.0298 17.9302 28.0298 17.3802L28.0298 15.3802ZM10.9872 22.3761C11.5392 22.3761 11.9872 22.8241 11.9872 23.3761L11.9872 25.3761C11.9872 25.9261 11.5392 26.3761 10.9872 26.3761L8.98722 26.3761C8.43522 26.3761 7.98722 25.9261 7.98722 25.3761L7.98722 23.3761C7.98722 22.8241 8.43522 22.3761 8.98722 22.3761L10.9872 22.3761ZM26.9872 22.4167C27.5392 22.4167 27.9872 22.8647 27.9872 23.4167L27.9872 25.4167C27.9872 25.9667 27.5392 26.4167 26.9872 26.4167L24.9872 26.4167C24.4352 26.4167 23.9872 25.9667 23.9872 25.4167L23.9872 23.4167C23.9872 22.8647 24.4352 22.4167 24.9872 22.4167L26.9872 22.4167ZM19.9872 23.4208C19.9872 22.8688 19.5392 22.4208 18.9872 22.4208L16.9872 22.4208C16.4352 22.4208 15.9872 22.8688 15.9872 23.4208L15.9872 25.4208C15.9872 25.9708 16.4352 26.4208 16.9872 26.4208L18.9872 26.4208C19.5392 26.4208 19.9872 25.9708 19.9872 25.4208L19.9872 23.4208Z" fill="#191919" fill-rule="evenodd" transform="matrix(-1,0,0,1,42,8.62402)"/>
  <path id="减去顶层" d="M4.27301 7.584L19.273 7.584L19.273 6C19.273 4.292 18.353 2.594 17.201 1.5L16.8751 1.23395C15.8707 0.468181 14.6302 0 13.273 0L0 0C0.212858 0.563546 0.345796 1.1617 0.386233 1.78451L0.399237 2.19018L0.401305 2.60306C2.59996 3.04079 4.27301 4.88956 4.27301 7.13835L4.27301 7.584Z" fill="#191919" fill-rule="evenodd" transform="matrix(-1,0,0,1,25.2729,8.62402)"/>
  <path id="矢量 49" d="M32.5 6C35.8176 6 38.595 8.34608 38.7892 11.3938L38.7999 11.7353L38.8016 12.0828C40.6179 12.4512 42 14.0073 42 15.9L42 22.3C42 24.4716 40.1807 26.2 37.9736 26.2L27.0262 26.2C24.8193 26.2 23 24.4716 23 22.3L23 15.9C23 14.0066 24.3831 12.4501 26.2002 12.0824L26.2 11.7353C26.2 8.52308 29.0594 6 32.5 6ZM37.9736 15C38.5573 15 39 15.4206 39 15.9L39 22.3C39 22.7793 38.5573 23.2 37.9736 23.2L27.0262 23.2C26.4427 23.2 26 22.7793 26 22.3L26 15.9C26 15.4206 26.4427 15 27.0262 15L37.9736 15ZM34.1 17.6C34.9283 17.6 35.6 18.2716 35.6 19.1C35.6 19.8594 35.0356 20.487 34.3035 20.5863L34.1 20.6L30.9 20.6C30.0715 20.6 29.4 19.9284 29.4 19.1C29.4 18.3406 29.9642 17.713 30.6964 17.6137L30.9 17.6L34.1 17.6ZM32.5 9C34.3615 9 35.7999 10.2693 35.7999 11.7353L35.7999 12L29.2 12L29.2 11.7353L29.2131 11.493C29.3611 10.1322 30.7419 9 32.5 9Z" fill="#AEAEAE" fill-rule="evenodd"/>
</svg>
