<svg viewBox="0 0 48 48" xmlns="http://www.w3.org/2000/svg" xmlns:xlink="http://www.w3.org/1999/xlink" width="48.000000" height="48.000000" fill="none">
  <path id="路径" d="M12.1913 1.06878L1.35823 10.8377C0.493658 11.6174 0 12.7236 0 13.8845C0 16.1604 1.85842 18 4.14441 18L25.8556 18C27.0219 18 28.1349 17.5119 28.9207 16.6545C30.4649 14.9696 30.3366 12.3598 28.6354 10.832L17.7573 1.06308C16.1765 -0.356537 13.7691 -0.354076 12.1913 1.06878Z" fill="#191919" fill-rule="evenodd" transform="matrix(0,-1,-1,0,44,39)"/>
  <path id="路径" d="M12.1913 1.06878L1.35823 10.8377C0.493658 11.6174 0 12.7236 0 13.8845C0 16.1604 1.85842 18 4.14441 18L25.8556 18C27.0219 18 28.1349 17.5119 28.9207 16.6545C30.4649 14.9696 30.3366 12.3598 28.6354 10.832L17.7573 1.06308C16.1765 -0.356537 13.7691 -0.354076 12.1913 1.06878Z" fill="#AEAEAE" fill-rule="evenodd" transform="matrix(0,-1,-1,0,22,39)"/>
</svg>
