<svg viewBox="0 0 48 48" xmlns="http://www.w3.org/2000/svg" xmlns:xlink="http://www.w3.org/1999/xlink" width="48.000000" height="48.000000" fill="none">
  <path id="合并" d="M12 4.5L32 4.5C33.6569 4.5 35 5.84315 35 7.5L9 7.5C9 5.84315 10.3431 4.5 12 4.5ZM38.5 20.7392C36.5879 19.6331 34.3679 19 32 19C29.9244 19 27.9624 19.4864 26.2219 20.3515C25.5406 18.4 23.6838 17 21.5 17C18.7386 17 16.5 19.2386 16.5 22C16.5 23.677 17.3256 25.1611 18.5925 26.0682C15.7094 26.5056 13.5 28.9948 13.5 32C13.5 33.1046 14.3954 34 15.5 34L19.1529 34C19.6472 37.2015 21.3096 40.0173 23.691 41.9985L11.5 42C8.30464 42 5.69268 39.5022 5.51019 36.3525L5.5 36L5.5 15C5.5 11.8046 7.99784 9.19268 11.1475 9.01019L11.5 9L32.5 9C35.6954 9 38.3073 11.4978 38.4898 14.6475L38.5 15L38.5 20.7392Z" fill="#191919" fill-rule="evenodd"/>
  <path id="减去顶层" d="M21 32C21 25.92 25.94 21 32 21C38.08 21 43 25.92 43 32C43 38.06 38.08 43 32 43C25.94 43 21 38.06 21 32ZM30 29.0001C30 27.8955 29.1046 27.0001 28 27.0001C26.8954 27.0001 26 27.8955 26 29.0001C26 30.1046 26.8954 31.0001 28 31.0001C29.1046 31.0001 30 30.1046 30 29.0001ZM38.7286 29.0001C38.7286 28.1716 38.057 27.5001 37.2286 27.5001L32.4957 27.5001L32.2922 27.5138C31.56 27.6131 30.9957 28.2407 30.9957 29.0001C30.9957 29.7595 31.56 30.387 32.2922 30.4864L32.4957 30.5001L37.2286 30.5001L37.4322 30.4864C38.1643 30.387 38.7286 29.7595 38.7286 29.0001ZM30 35.0097C30 33.9051 29.1046 33.0097 28 33.0097C26.8954 33.0097 26 33.9051 26 35.0097C26 36.1143 26.8954 37.0097 28 37.0097C29.1046 37.0097 30 36.1143 30 35.0097ZM38.7286 35.0097C38.7286 34.1813 38.057 33.5097 37.2286 33.5097L32.4957 33.5097L32.2922 33.5234C31.56 33.6227 30.9957 34.2503 30.9957 35.0097C30.9957 35.7691 31.56 36.3967 32.2922 36.496L32.4957 36.5097L37.2286 36.5097L37.4322 36.496C38.1643 36.3967 38.7286 35.7691 38.7286 35.0097Z" fill="#AEAEAE" fill-rule="evenodd"/>
</svg>
