<svg viewBox="0 0 48 48" xmlns="http://www.w3.org/2000/svg" xmlns:xlink="http://www.w3.org/1999/xlink" width="48.000000" height="48.000000" fill="none">
  <path id="合并" d="M5.5 28.0997L5.5 11C5.5 10.5232 5.54994 10.0573 5.64983 9.60242L5.64983 9.60239C5.73449 9.21687 5.85502 8.83922 6.01142 8.46945C6.16811 8.09899 6.35545 7.74879 6.57344 7.41884C6.81316 7.05601 7.08995 6.71766 7.40381 6.40381C7.71767 6.08994 8.05602 5.81315 8.41887 5.57343C8.74881 5.35544 9.099 5.1681 9.46945 5.01142C9.83923 4.85501 10.2169 4.73448 10.6024 4.64983C11.0573 4.54994 11.5232 4.5 12 4.5L35 4.5C35.4768 4.5 35.9426 4.54994 36.3975 4.64981L36.3976 4.64983C36.7831 4.73449 37.1608 4.85502 37.5306 5.01142C37.9009 5.16806 38.251 5.35532 38.5808 5.57323L38.5811 5.57343C38.944 5.81316 39.2823 6.08995 39.5962 6.40381C39.9101 6.71767 40.1868 7.05602 40.4266 7.41886C40.6446 7.74881 40.8319 8.099 40.9886 8.46945C41.145 8.83926 41.2655 9.21694 41.3502 9.60251C41.4501 10.0574 41.5 10.5232 41.5 11L41.5 27.7067C41.7168 27.7683 41.9306 27.8437 42.1413 27.9329C42.4556 28.0658 42.7526 28.2248 43.0324 28.4098C43.3386 28.6123 43.6242 28.846 43.8891 29.111C44.1541 29.376 44.3878 29.6616 44.5903 29.9678C44.7753 30.2476 44.9343 30.5445 45.0672 30.8587C45.2002 31.1734 45.3026 31.4947 45.3743 31.8228C45.4581 32.206 45.5 32.5984 45.5 33L45.5 38.333C45.5 38.7346 45.4581 39.127 45.3743 39.5103C45.3026 39.8383 45.2002 40.1596 45.0672 40.4743C44.9343 40.7884 44.7753 41.0854 44.5904 41.3651C44.3878 41.6714 44.1541 41.957 43.8891 42.222C43.6242 42.487 43.3386 42.7207 43.0324 42.9232C42.7526 43.1082 42.4556 43.2672 42.1413 43.4001C41.8268 43.5332 41.5055 43.6356 41.1775 43.7073C40.7942 43.7911 40.4017 43.833 40 43.833L8 43.833C7.59834 43.833 7.20585 43.7911 6.82252 43.7073C6.49452 43.6356 6.17324 43.5332 5.85866 43.4001C5.54442 43.2672 5.2474 43.1082 4.96762 42.9232C4.6614 42.7207 4.37583 42.487 4.1109 42.222C3.84598 41.9571 3.61227 41.6715 3.40977 41.3653L3.4097 41.3652C3.22469 41.0855 3.06574 40.7885 2.93284 40.4743C2.79975 40.1596 2.69735 39.8382 2.62564 39.5102C2.54188 39.1269 2.5 38.7345 2.5 38.333L2.5 33C2.5 32.5985 2.54188 32.2061 2.62564 31.8229C2.69734 31.4948 2.79974 31.1734 2.93284 30.8587C3.06576 30.5445 3.22475 30.2474 3.40979 29.9676C3.61229 29.6615 3.84599 29.3759 4.1109 29.111C4.37583 28.846 4.66141 28.6123 4.96762 28.4098C5.13864 28.2967 5.3161 28.1933 5.5 28.0997ZM8.5 27.5L16.8333 27.5L16.8333 29C16.8333 29.2745 16.8638 29.5419 16.9248 29.8022C16.9695 29.9926 17.0305 30.1792 17.1078 30.362C17.1885 30.553 17.2845 30.734 17.3957 30.9051C17.5283 31.1091 17.6825 31.2991 17.8584 31.475C18.0343 31.6508 18.2242 31.805 18.4281 31.9376C18.5993 32.0488 18.7804 32.1448 18.9714 32.2256C19.1543 32.303 19.3411 32.364 19.5317 32.4086C19.7918 32.4695 20.059 32.5 20.3333 32.5L28 32.5C28.2743 32.5 28.5415 32.4696 28.8015 32.4086C28.9921 32.364 29.179 32.303 29.3619 32.2256C29.5529 32.1448 29.734 32.0488 29.9052 31.9375C30.1092 31.805 30.2991 31.6508 30.4749 31.475C30.6508 31.2991 30.805 31.1091 30.9376 30.9051C31.0488 30.734 31.1448 30.5529 31.2256 30.362C31.3029 30.1792 31.3639 29.9926 31.4085 29.8021C31.4695 29.5419 31.5 29.2745 31.5 29L31.5 27.5L38.5 27.5L38.5 11C38.5 10.7259 38.4696 10.4589 38.4087 10.199C38.3641 10.0082 38.303 9.82123 38.2256 9.6381C38.1449 9.44726 38.0489 9.2663 37.9378 9.09523C37.8051 8.89112 37.6508 8.70109 37.4749 8.52513C37.2989 8.34917 37.1089 8.19488 36.9048 8.06226C36.7337 7.9511 36.5527 7.85515 36.3619 7.77443C36.1788 7.69698 35.9918 7.63592 35.801 7.59126L35.8008 7.5912C35.541 7.5304 35.274 7.5 35 7.5L12 7.5C11.7259 7.5 11.4589 7.53042 11.199 7.59125C11.0082 7.63591 10.8212 7.69697 10.6381 7.77443C10.4473 7.85515 10.2663 7.95109 10.0952 8.06224C9.89112 8.19487 9.70109 8.34917 9.52513 8.52513C9.34918 8.70108 9.19489 8.89111 9.06226 9.09521C8.9511 9.26628 8.85516 9.44725 8.77443 9.6381C8.69698 9.82123 8.63592 10.0082 8.59125 10.199C8.53042 10.4589 8.5 10.7259 8.5 11L8.5 27.5ZM40 30.5L34.3268 30.5C34.2439 30.8501 34.1311 31.1937 33.9886 31.5307C33.8319 31.9012 33.6445 32.2514 33.4265 32.5814C33.1867 32.9442 32.91 33.2825 32.5962 33.5963C32.2824 33.91 31.9442 34.1867 31.5816 34.4264C31.2515 34.6445 30.9011 34.8319 30.5305 34.9886C30.1609 35.145 29.7834 35.2654 29.3981 35.3501C28.943 35.45 28.477 35.5 28 35.5L20.3333 35.5C19.8563 35.5 19.3903 35.45 18.9352 35.3501C18.5499 35.2654 18.1724 35.145 17.8028 34.9886C17.4322 34.8319 17.0819 34.6445 16.7518 34.4264C16.3891 34.1867 16.0509 33.91 15.7372 33.5963C15.4234 33.2825 15.1466 32.9443 14.907 32.5816C14.6889 32.2515 14.5015 31.9012 14.3448 31.5307C14.2022 31.1937 14.0895 30.8501 14.0065 30.5L8 30.5C7.80109 30.5 7.60749 30.5224 7.4192 30.5671C7.28593 30.5988 7.15532 30.6417 7.02738 30.6959C6.89273 30.7528 6.76496 30.8204 6.64405 30.8986C6.49656 30.994 6.35929 31.1052 6.23225 31.2323C6.10523 31.3593 5.99402 31.4966 5.89862 31.644C5.8204 31.7649 5.75281 31.8927 5.69584 32.0274C5.6417 32.1554 5.59878 32.2861 5.56709 32.4195C5.52236 32.6077 5.5 32.8012 5.5 33L5.5 38.333C5.5 38.5318 5.52236 38.7253 5.56709 38.9135L5.56718 38.9139C5.59887 39.0472 5.64175 39.1777 5.69584 39.3056C5.75281 39.4403 5.8204 39.5681 5.89862 39.689C5.99403 39.8365 6.10524 39.9737 6.23225 40.1007C6.35928 40.2278 6.49654 40.339 6.64403 40.4344C6.76494 40.5126 6.89272 40.5802 7.02738 40.6372C7.15532 40.6913 7.28593 40.7342 7.41921 40.7659C7.60748 40.8106 7.80108 40.833 8 40.833L40 40.833C40.1989 40.833 40.3925 40.8106 40.5808 40.7659C40.7141 40.7342 40.8447 40.6913 40.9726 40.6372C41.1073 40.5802 41.2351 40.5126 41.3561 40.4343C41.5035 40.3389 41.6408 40.2277 41.7678 40.1007C41.8948 39.9737 42.006 39.8365 42.1013 39.689C42.1796 39.5681 42.2472 39.4403 42.3042 39.3056C42.3583 39.1776 42.4012 39.0469 42.4329 38.9136C42.4776 38.7254 42.5 38.5318 42.5 38.333L42.5 33C42.5 32.8012 42.4776 32.6076 42.4329 32.4194C42.4012 32.2861 42.3583 32.1554 42.3042 32.0274C42.2472 31.8927 42.1796 31.7649 42.1013 31.644C42.006 31.4965 41.8948 31.3593 41.7678 31.2323C41.6407 31.1052 41.5035 30.994 41.356 30.8986C41.2351 30.8204 41.1073 30.7528 40.9726 30.6959C40.8447 30.6417 40.7141 30.5989 40.5809 30.5672C40.3926 30.5224 40.1989 30.5 40 30.5Z" fill="#191919" fill-rule="evenodd"/>
  <path id="合并" d="M24.2918 8.75C24.6016 8.75 24.9043 8.78226 25.1999 8.84677C25.454 8.9022 25.7028 8.98144 25.9465 9.0845C26.1897 9.18738 26.4196 9.31045 26.6361 9.45372C26.8723 9.61003 27.0926 9.79039 27.297 9.9948C27.5014 10.1992 27.6818 10.4195 27.8381 10.6557C27.9814 10.8722 28.1044 11.1021 28.2073 11.3453C28.3104 11.589 28.3896 11.8378 28.445 12.0919C28.5096 12.3875 28.5418 12.6903 28.5418 13C28.5418 13.3097 28.5096 13.6125 28.445 13.9081C28.3896 14.1622 28.3104 14.411 28.2073 14.6547C28.1044 14.8979 27.9814 15.1278 27.8381 15.3443C27.6818 15.5805 27.5014 15.8008 27.297 16.0052C27.0926 16.2096 26.8723 16.39 26.6361 16.5463L26.636 16.5463C26.4195 16.6896 26.1897 16.8126 25.9465 16.9155C25.8132 16.9719 25.6783 17.0212 25.5418 17.0633L25.5418 18.75L27.2918 18.75C27.9918 18.75 28.5418 19.3 28.5418 20C28.5418 20.7 27.9918 21.25 27.2918 21.25L25.5418 21.25L25.5418 24.6803C25.8386 24.6419 26.1322 24.5897 26.4227 24.5236L26.4228 24.5236L26.4228 24.5236C26.9653 24.4002 27.4969 24.2284 28.0174 24.0082C28.55 23.7829 29.0542 23.5145 29.5302 23.2029L29.5303 23.2028L29.5304 23.2028L29.5304 23.2028L29.5331 23.201C29.7931 23.0307 30.0447 22.8474 30.2878 22.6513L30.0421 22.7274C29.4806 22.9013 28.9028 22.5969 28.7289 22.0354C28.5549 21.474 28.8594 20.8961 29.4208 20.7222L32.8606 19.6565C32.8736 19.6525 32.8865 19.6488 32.8996 19.6453C32.9126 19.6418 32.9258 19.6385 32.939 19.6355C33.2216 19.5714 33.4856 19.6165 33.7308 19.7711C33.976 19.9256 34.1307 20.1441 34.1949 20.4268L34.9918 23.9386C35.1219 24.5118 34.7738 25.0644 34.2005 25.1945C33.6273 25.3246 33.0747 24.9764 32.9447 24.4032L32.7975 23.7547C32.2186 24.3296 31.5952 24.837 30.9273 25.2768C30.3189 25.6775 29.6735 26.0221 28.9913 26.3107C28.3152 26.5967 27.6247 26.818 26.9199 26.9747L26.9199 26.9748C26.4665 27.0756 26.0071 27.1497 25.5418 27.197L25.5418 28C25.5418 28.7 24.9918 29.25 24.2918 29.25C23.5918 29.25 23.0418 28.7 23.0418 28L23.0418 27.197C22.5766 27.1497 22.1172 27.0756 21.6639 26.9748L21.6623 26.9744C20.958 26.8177 20.268 26.5965 19.5924 26.3107C18.9101 26.0221 18.2647 25.6775 17.6563 25.2768C17.124 24.9262 16.6199 24.5327 16.144 24.0963L16.0744 24.4032C15.9443 24.9764 15.3917 25.3246 14.8185 25.1945C14.2453 25.0644 13.8971 24.5118 14.0272 23.9386L14.8242 20.4268C14.8883 20.1441 15.043 19.9256 15.2882 19.7711C15.5335 19.6165 15.7974 19.5714 16.0801 19.6355C16.0933 19.6385 16.1064 19.6418 16.1195 19.6453C16.1325 19.6488 16.1455 19.6525 16.1584 19.6565L19.5982 20.7222C20.1597 20.8961 20.4641 21.474 20.2902 22.0354C20.1162 22.5969 19.5384 22.9013 18.977 22.7274L18.0395 22.437C18.3618 22.7161 18.6998 22.9713 19.0533 23.2028C19.5293 23.5144 20.0337 23.7829 20.5663 24.0082C21.0868 24.2284 21.6184 24.4002 22.161 24.5236C22.4515 24.5897 22.7451 24.6419 23.0418 24.6803L23.0418 21.25L21.2918 21.25C20.5918 21.25 20.0418 20.7 20.0418 20C20.0418 19.3 20.5918 18.75 21.2918 18.75L23.0418 18.75L23.0418 17.0633C22.9054 17.0212 22.7705 16.9719 22.6371 16.9155C22.3939 16.8126 22.164 16.6895 21.9475 16.5463C21.7113 16.39 21.491 16.2096 21.2866 16.0052C21.0822 15.8008 20.9019 15.5805 20.7455 15.3443C20.6023 15.1278 20.4792 14.8979 20.3763 14.6547C20.2733 14.411 20.194 14.1622 20.1386 13.9082C20.0741 13.6125 20.0418 13.3098 20.0418 13C20.0418 12.6903 20.0741 12.3875 20.1386 12.0919C20.194 11.8378 20.2733 11.589 20.3763 11.3453C20.4792 11.1021 20.6023 10.8722 20.7455 10.6557C20.9018 10.4195 21.0822 10.1992 21.2866 9.9948C21.491 9.79039 21.7113 9.61003 21.9476 9.45371C22.1641 9.31045 22.3939 9.18738 22.6371 9.0845C22.8808 8.98144 23.1296 8.9022 23.3837 8.84677C23.6794 8.78226 23.9821 8.75 24.2918 8.75ZM24.2918 11.25C24.151 11.25 24.014 11.266 23.8809 11.298C23.7891 11.3201 23.6991 11.3497 23.611 11.387C23.5175 11.4266 23.4286 11.4735 23.3446 11.5277C23.2406 11.5948 23.1439 11.6731 23.0544 11.7626C22.9649 11.852 22.8866 11.9488 22.8196 12.0527C22.7653 12.1368 22.7184 12.2256 22.6788 12.3192C22.6416 12.4073 22.6119 12.4973 22.5898 12.589C22.5578 12.7222 22.5418 12.8592 22.5418 13C22.5418 13.1408 22.5578 13.2778 22.5898 13.411C22.6119 13.5027 22.6416 13.5927 22.6788 13.6808C22.7184 13.7744 22.7653 13.8632 22.8196 13.9473C22.8866 14.0512 22.9649 14.1479 23.0544 14.2374C23.1438 14.3269 23.2405 14.4052 23.3445 14.4722L23.3445 14.4723C23.4286 14.5265 23.5175 14.5734 23.611 14.613C23.6991 14.6503 23.7891 14.6799 23.8809 14.702C24.014 14.734 24.151 14.75 24.2918 14.75C24.4326 14.75 24.5696 14.734 24.7028 14.702C24.7945 14.6799 24.8845 14.6503 24.9726 14.613C25.0662 14.5734 25.155 14.5265 25.2391 14.4722C25.3431 14.4052 25.4398 14.3269 25.5293 14.2374C25.6187 14.148 25.697 14.0513 25.764 13.9473L25.7641 13.9473C25.8183 13.8632 25.8652 13.7744 25.9048 13.6808C25.9421 13.5927 25.9717 13.5027 25.9938 13.4109C26.0258 13.2778 26.0418 13.1408 26.0418 13C26.0418 12.8592 26.0258 12.7222 25.9938 12.5891C25.9717 12.4973 25.9421 12.4073 25.9048 12.3192C25.8652 12.2256 25.8183 12.1368 25.7641 12.0527C25.697 11.9488 25.6187 11.852 25.5293 11.7626C25.4398 11.6731 25.343 11.5948 25.2391 11.5277C25.155 11.4735 25.0662 11.4266 24.9726 11.387C24.8845 11.3497 24.7946 11.3201 24.7028 11.298C24.5696 11.266 24.4327 11.25 24.2918 11.25Z" fill="#AEAEAE" fill-rule="evenodd"/>
</svg>
