<svg viewBox="0 0 48 48" xmlns="http://www.w3.org/2000/svg" xmlns:xlink="http://www.w3.org/1999/xlink" width="48.000000" height="48.000000" fill="none">
  <path id="减去顶层" d="M35 5C38.3137 5 41 7.68629 41 11L41 37C41 40.3137 38.3137 43 35 43L13 43C9.68629 43 7 40.3137 7 37L7 11C7 7.68629 9.68629 5 13 5L35 5Z" fill="#191919" fill-rule="evenodd"/>
  <path id="合并" d="M24 22.6667C21.0545 22.6667 18.6667 20.2789 18.6667 17.3333C18.6667 14.3878 21.0545 12 24 12C26.9455 12 29.3333 14.3878 29.3333 17.3333C29.3333 20.2789 26.9455 22.6667 24 22.6667ZM24 22.6667L27 22.6667C29.7615 22.6667 32 24.7986 32 27.4286L32 28.6667C32 29.0349 31.7015 29.3333 31.3333 29.3333L16.6667 29.3333C16.2985 29.3333 16 29.0349 16 28.6667L16 27.4286C16 24.7986 18.2386 22.6667 21 22.6667L24 22.6667ZM31 33L17 33C16.16 33 15.5 33.66 15.5 34.5C15.5 35.34 16.16 36 17 36L31 36C31.84 36 32.5 35.34 32.5 34.5C32.5 33.66 31.84 33 31 33Z" fill="#AEAEAE" fill-rule="evenodd"/>
</svg>
