<svg viewBox="0 0 48 48" xmlns="http://www.w3.org/2000/svg" xmlns:xlink="http://www.w3.org/1999/xlink" width="48.000000" height="48.000000" fill="none">
  <path id="形状结合" d="M23.8924 21.7941L32.998 30.876L33 23.002C33 22.2426 33.5643 21.615 34.2965 21.5157L34.5 21.502C35.2594 21.502 35.887 22.0663 35.9863 22.7985L36 23.002L36 34.5C36 34.5937 35.9914 34.6854 35.975 34.7743C35.9641 34.8212 35.9368 34.9346 35.922 34.9786C35.9082 35.0075 35.8226 35.2092 35.8063 35.2381C35.7204 35.3516 35.5111 35.6171 35.3975 35.702C35.3572 35.7283 35.2401 35.8059 35.1968 35.8287C35.1433 35.8542 35.033 35.9039 34.9745 35.9234C34.9003 35.9461 34.7838 35.9754 34.7035 35.9863L34.5 36L23 36C22.1716 36 21.5 35.3284 21.5 34.5C21.5 33.7406 22.0643 33.113 22.7965 33.0137L23 33L30.878 33L21.9393 24.0607C21.3536 23.4749 21.3536 22.5251 21.9393 21.9393C22.4719 21.4068 23.3052 21.3584 23.8924 21.7941ZM13 0C13.8284 0 14.5 0.671573 14.5 1.5C14.5 2.25939 13.9357 2.88698 13.2035 2.98631L13 3L5.122 3L14.0627 11.9413C14.6484 12.5271 14.6484 13.4769 14.0627 14.0627C13.5301 14.5952 12.6968 14.6436 12.1096 14.2079L2.998 5.12L3 13.002C3 13.7614 2.43569 14.389 1.70354 14.4883L1.5 14.502C0.740609 14.502 0.113018 13.9377 0.0136933 13.2055L0 13.002L0 1.5C0 1.40631 0.00858974 1.31462 0.0250249 1.22569C0.0358973 1.17877 0.0631585 1.06543 0.0779605 1.02143C0.0917978 0.992517 0.177404 0.790751 0.193722 0.761909C0.281039 0.646477 0.492378 0.37953 0.608312 0.293691C0.626556 0.284024 0.838869 0.152962 0.856459 0.14461C0.867057 0.141273 1.05494 0.0671997 1.06369 0.0645494C1.13787 0.0418372 1.21615 0.0245876 1.29646 0.0136933L1.5 0L13 0Z" fill="#191919" fill-rule="evenodd" transform="matrix(-1,0,0,1,42,6)"/>
  <path id="形状结合" d="M13 0C13.8284 0 14.5 0.671573 14.5 1.5C14.5 2.25939 13.9357 2.88698 13.2035 2.98631L13 3L5.122 3L14.0627 11.9413C14.6484 12.5271 14.6484 13.4769 14.0627 14.0627C13.5301 14.5952 12.6968 14.6436 12.1096 14.2079L2.998 5.12L3 13.002C3 13.7614 2.43569 14.389 1.70354 14.4883L1.5 14.502C0.740609 14.502 0.113018 13.9377 0.0136933 13.2055L0 13.002L0 1.5C0 1.40631 0.00858974 1.31462 0.0250249 1.22569C0.0358973 1.17877 0.0631585 1.06543 0.0779605 1.02143C0.0917978 0.992517 0.177404 0.790751 0.193722 0.761909C0.281039 0.646477 0.492378 0.37953 0.608312 0.293691C0.626556 0.284024 0.838869 0.152962 0.856459 0.14461C0.867057 0.141273 1.05494 0.0671997 1.06369 0.0645494C1.13787 0.0418372 1.21615 0.0245876 1.29646 0.0136933L1.5 0L13 0Z" fill="#AEAEAE" fill-rule="evenodd" transform="matrix(-1,0,0,1,42,6)"/>
</svg>
