<svg viewBox="0 0 48 48" xmlns="http://www.w3.org/2000/svg" xmlns:xlink="http://www.w3.org/1999/xlink" width="48.000000" height="48.000000" fill="none">
  <path id="形状结合" d="M29.8924 27.7941L38.998 36.876L39 29.002C39 28.2426 39.5643 27.615 40.2965 27.5157L40.5 27.502C41.2594 27.502 41.887 28.0663 41.9863 28.7985L42 29.002L42 40.5C42 40.5937 41.9914 40.6854 41.975 40.7743C41.9641 40.8212 41.9368 40.9346 41.922 40.9786C41.9082 41.0075 41.8226 41.2092 41.8063 41.2381C41.7204 41.3516 41.5111 41.6171 41.3975 41.702C41.3572 41.7283 41.2401 41.8059 41.1968 41.8287C41.1433 41.8542 41.033 41.9039 40.9745 41.9234C40.9003 41.9461 40.7838 41.9754 40.7035 41.9863L40.5 42L29 42C28.1716 42 27.5 41.3284 27.5 40.5C27.5 39.7406 28.0643 39.113 28.7965 39.0137L29 39L36.878 39L27.9393 30.0607C27.3536 29.4749 27.3536 28.5251 27.9393 27.9393C28.4719 27.4068 29.3052 27.3584 29.8924 27.7941ZM19 6C19.8284 6 20.5 6.67157 20.5 7.5C20.5 8.25939 19.9357 8.88698 19.2035 8.98631L19 9L11.122 9L20.0627 17.9413C20.6484 18.5271 20.6484 19.4769 20.0627 20.0627C19.5301 20.5952 18.6968 20.6436 18.1096 20.2079L8.998 11.12L9 19.002C9 19.7614 8.43569 20.389 7.70354 20.4883L7.5 20.502C6.74061 20.502 6.11302 19.9377 6.01369 19.2055L6 19.002L6 7.5C6 7.40631 6.00859 7.31462 6.02502 7.22569C6.0359 7.17877 6.06316 7.06543 6.07796 7.02143C6.0918 6.99252 6.1774 6.79075 6.19372 6.76191C6.28104 6.64648 6.49238 6.37953 6.60831 6.29369C6.62656 6.28402 6.83887 6.15296 6.85646 6.14461C6.86706 6.14127 7.05494 6.0672 7.06369 6.06455C7.13787 6.04184 7.21615 6.02459 7.29646 6.01369L7.5 6L19 6Z" fill="#191919" fill-rule="evenodd"/>
  <path id="形状结合" d="M29.8924 27.7941L38.998 36.876L39 29.002C39 28.2426 39.5643 27.615 40.2965 27.5157L40.5 27.502C41.2594 27.502 41.887 28.0663 41.9863 28.7985L42 29.002L42 40.5C42 40.5937 41.9914 40.6854 41.975 40.7743C41.9641 40.8212 41.9368 40.9346 41.922 40.9786C41.9082 41.0075 41.8226 41.2092 41.8063 41.2381C41.7204 41.3516 41.5111 41.6171 41.3975 41.702C41.3572 41.7283 41.2401 41.8059 41.1968 41.8287C41.1433 41.8542 41.033 41.9039 40.9745 41.9234C40.9003 41.9461 40.7838 41.9754 40.7035 41.9863L40.5 42L29 42C28.1716 42 27.5 41.3284 27.5 40.5C27.5 39.7406 28.0643 39.113 28.7965 39.0137L29 39L36.878 39L27.9393 30.0607C27.3536 29.4749 27.3536 28.5251 27.9393 27.9393C28.4719 27.4068 29.3052 27.3584 29.8924 27.7941Z" fill="#AEAEAE" fill-rule="evenodd"/>
</svg>
