<svg viewBox="0 0 48 48" xmlns="http://www.w3.org/2000/svg" xmlns:xlink="http://www.w3.org/1999/xlink" width="48.000000" height="48.000000" fill="none">
  <path id="减去顶层" d="M22.0051 4.00846C15.8379 4.22227 12.7474 8.47538 12.7474 15.0061L12.7519 15.332L12.6442 15.485C11.9239 16.6041 11.7984 18.1502 12.2974 19.5962L12.4259 19.9331C12.8416 20.9259 13.5249 21.7515 14.3564 22.2621L14.6059 22.402L14.9175 22.9167C15.0202 23.0771 15.1263 23.234 15.2357 23.3872L15.4473 23.6701C16.5719 25.1917 16.6216 25.7457 15.9343 26.1562L15.6754 26.2918L15.4171 26.4109L14.986 26.5936L14.6342 26.7343L12.5582 27.5198L11.3605 27.9852L10.1041 28.5112L9.61078 28.7332C9.42667 28.8179 9.25832 28.8975 9.09324 28.9776L8.6062 29.2208C5.05841 31.0454 3.0117 33.2517 3.02058 36.2676L3 38.0269L3.00171 38.5488L3.01892 39.0888L3.04059 39.4075C3.22788 41.5712 4.24692 42.9115 6.37421 42.9979L24.2011 42.9991C21.6085 40.4581 20 36.9169 20 33C20 25.6527 25.6598 19.6273 32.8574 19.046C33.1562 17.7684 32.9815 16.4651 32.3533 15.4866L32.2439 15.332L32.2494 15.0061C32.2494 8.30352 28.994 4 22.4984 4L22.0051 4.00846Z" fill="#191919" fill-rule="evenodd"/>
  <path id="矢量 1976" d="M34 22C40.0751 22 45 26.9248 45 33C45 39.0752 40.0751 44 34 44C27.9249 44 23 39.0752 23 33C23 26.9248 27.9249 22 34 22ZM33.7385 31.502L34.7054 30.6074C35.3218 30.0361 35.3579 29.1035 34.7873 28.4873C34.2167 27.8711 33.2841 27.835 32.6676 28.4053L28.8907 31.9014C28.8766 31.9141 28.8627 31.9277 28.849 31.9414C28.8353 31.9551 28.8219 31.9688 28.8088 31.9834C28.5274 32.2871 28.3947 32.6455 28.4107 33.0596C28.4267 33.4736 28.5867 33.8213 28.8907 34.1025L32.6676 37.5986C33.2841 38.1699 34.2167 38.1328 34.7873 37.5166C35.3579 36.9004 35.3218 35.9678 34.7054 35.3965L33.7385 34.502L38.4077 34.502C39.2477 34.502 39.9077 33.8418 39.9077 33.002C39.9077 32.1621 39.2477 31.502 38.4077 31.502L33.7385 31.502Z" fill="#AEAEAE" fill-rule="evenodd"/>
</svg>
