<svg viewBox="0 0 48 48" xmlns="http://www.w3.org/2000/svg" xmlns:xlink="http://www.w3.org/1999/xlink" width="48.000000" height="48.000000" fill="none">
  <path id="矢量 1987(边框)" d="M40.3976 9.64983C39.9427 9.54994 39.4768 9.5 39 9.5C38.16 9.5 37.5 10.16 37.5 11C37.5 11.84 38.16 12.5 39 12.5C39.2741 12.5 39.5411 12.5304 39.801 12.5913C39.9918 12.6359 40.1788 12.697 40.3619 12.7744C40.5527 12.8552 40.7337 12.9511 40.9048 13.0623C41.1089 13.1949 41.2989 13.3492 41.4749 13.5251C41.6508 13.7011 41.8051 13.8911 41.9377 14.0952C42.0489 14.2663 42.1448 14.4472 42.2256 14.6381C42.303 14.8212 42.3641 15.0082 42.4087 15.1989C42.4696 15.4588 42.5 15.7259 42.5 16L42.5 38C42.5 38.3493 42.4615 38.6896 42.3846 39.0211C42.327 39.2694 42.2478 39.5128 42.147 39.7511C42.0425 39.9981 41.9183 40.2322 41.7742 40.4533C41.6043 40.7141 41.4069 40.957 41.182 41.182C40.9571 41.4069 40.7142 41.6043 40.4534 41.7742C40.2322 41.9183 39.9981 42.0425 39.7511 42.147C39.5128 42.2478 39.2694 42.327 39.021 42.3847C38.6896 42.4616 38.3493 42.5 38 42.5L14 42.5C13.8385 42.5 13.6815 42.4816 13.5289 42.4448C13.4245 42.4196 13.3222 42.3858 13.222 42.3434C13.1153 42.2983 13.014 42.2448 12.918 42.183C12.799 42.1063 12.6882 42.0167 12.5858 41.9142C12.4833 41.8117 12.3937 41.7009 12.3169 41.5819C12.2551 41.486 12.2017 41.3847 12.1566 41.278C12.1142 41.1778 12.0804 41.0755 12.0552 40.9712C12.0184 40.8186 12 40.6615 12 40.5C12 39.66 11.34 39 10.5 39C9.66 39 9 39.66 9 40.5C9 40.8642 9.03791 41.2201 9.11372 41.5678C9.17894 41.8669 9.27221 42.1598 9.39354 42.4467C9.51462 42.733 9.65949 43.0035 9.82812 43.2583C10.012 43.5361 10.2241 43.7952 10.4645 44.0355C10.7048 44.2759 10.9639 44.488 11.2417 44.6719C11.4965 44.8405 11.767 44.9854 12.0533 45.1065C12.3402 45.2278 12.6331 45.3211 12.9322 45.3863C13.2798 45.4621 13.6358 45.5 14 45.5L38 45.5C38.552 45.5 39.0912 45.442 39.6176 45.3261C40.0607 45.2284 40.4948 45.0898 40.9198 44.91C41.3464 44.7296 41.7498 44.5139 42.1299 44.2629C42.5493 43.986 42.9405 43.6661 43.3033 43.3033C43.6662 42.9404 43.9861 42.5492 44.2631 42.1296C44.514 41.7496 44.7296 41.3463 44.91 40.9198C45.0898 40.4948 45.2284 40.0608 45.326 39.6177C45.442 39.0912 45.5 38.552 45.5 38L45.5 16C45.5 15.5232 45.4501 15.0573 45.3502 14.6024C45.2655 14.2169 45.145 13.8392 44.9886 13.4694C44.8319 13.099 44.6445 12.7488 44.4265 12.4188C44.1868 12.056 43.91 11.7176 43.5962 11.4038C43.2823 11.0899 42.944 10.8131 42.5811 10.5734C42.2512 10.3554 41.901 10.1681 41.5306 10.0114C41.1608 9.85502 40.7831 9.73449 40.3976 9.64983Z" fill="#AEAEAE" fill-rule="evenodd"/>
  <path id="减去顶层" d="M9.996 5L34.002 5C37.308 5 40 7.692 40 10.998L40 35.002C40 38.308 37.308 41 34.002 41L9.996 41C6.69 41 4 38.308 4 35.002L4 10.998C4 7.692 6.69 5 9.996 5ZM32.5494 14.4971C33.0366 13.9482 33.0601 13.1123 32.5727 12.5352C32.0366 11.9004 31.0852 11.8184 30.4478 12.3525L23.2245 17.5625L19.5489 14.2685C18.9985 13.8896 18.2494 13.9141 17.7228 14.3545L11.3069 18.5761C10.819 19.124 10.9503 20.1191 11.437 20.6972C11.987 21.1826 12.8259 21.208 13.4059 20.7226L18.6359 17.5127L22.3137 20.8085C22.8647 21.1875 23.6146 21.163 24.1411 20.7216L32.5494 14.4971ZM33 32.4979L33 21.4804C33 20.6396 32.3364 19.9785 31.4919 19.9785C30.6473 19.9785 29.9838 20.6396 29.9838 21.4804L29.9838 32.4979C29.9838 33.3388 30.6473 33.9999 31.4919 33.9999C32.3364 33.9999 33 33.3388 33 32.4979ZM14.378 32.4979L14.378 25.4863C14.378 24.6454 13.7144 23.9843 12.8699 23.9843C12.0253 23.9843 11.3618 24.6454 11.3618 25.4863L11.3618 32.4979C11.3618 33.3388 12.0253 33.9999 12.8699 33.9999C13.7144 33.9999 14.378 33.3388 14.378 32.4979ZM24.4321 32.4979L24.4321 27.4902C24.4321 26.6484 23.7685 25.9872 22.9239 25.9872C22.0794 25.9872 21.4158 26.6484 21.4158 27.4902L21.4158 32.4979C21.4158 33.3388 22.0794 33.9999 22.9239 33.9999C23.7685 33.9999 24.4321 33.3388 24.4321 32.4979Z" fill="#191919" fill-rule="evenodd"/>
</svg>
