<svg viewBox="0 0 48 48" xmlns="http://www.w3.org/2000/svg" xmlns:xlink="http://www.w3.org/1999/xlink" width="48.000000" height="48.000000" fill="none">
  <path id="合并" d="M3.55762 18.8158L20.0883 5.24567C20.347 5.03327 20.6202 4.84721 20.9078 4.68748C21.1638 4.5453 21.4313 4.42399 21.7102 4.32353C21.9892 4.22304 22.2726 4.14596 22.5602 4.09229C22.5641 4.09155 22.5681 4.09082 22.572 4.0901C22.875 4.03426 23.1828 4.00438 23.4953 4.00044C23.8119 3.99646 24.1243 4.01923 24.4324 4.06874C24.7213 4.11516 25.0065 4.1851 25.2879 4.27854C25.5692 4.37195 25.8396 4.4865 26.0991 4.62219C26.3906 4.77464 26.6683 4.95377 26.9322 5.1596L44.4131 18.792C45.0769 19.3096 45.1943 20.2411 44.6798 20.9091C44.1654 21.577 43.2397 21.6951 42.576 21.1774L41.5 20.3384L41.5 37.9993C41.5 41.313 38.8137 43.9993 35.5 43.9993L12.5 43.9993C9.18629 43.9993 6.5 41.313 6.5 37.9993L6.5 20.2952L5.45347 21.1543C4.80276 21.6884 3.87441 21.5937 3.34357 20.9389C2.81274 20.2841 2.90692 19.3499 3.55762 18.8158ZM16 20.0001C17.1046 20.0001 18 20.8956 18 22.0001C18 23.1047 17.1046 24.0001 16 24.0001C14.8954 24.0001 14 23.1047 14 22.0001C14 20.8956 14.8954 20.0001 16 20.0001ZM32.2286 20.5001C33.0571 20.5001 33.7286 21.1717 33.7286 22.0001C33.7286 22.7595 33.1643 23.3871 32.4322 23.4864L32.2286 23.5001L21.4957 23.5001L21.2922 23.4864C20.56 23.3871 19.9957 22.7595 19.9957 22.0001C19.9957 21.2407 20.56 20.6131 21.2922 20.5138L21.4957 20.5001L32.2286 20.5001ZM16 26.0098C17.1046 26.0098 18 26.9052 18 28.0098C18 29.1143 17.1046 30.0098 16 30.0098C14.8954 30.0098 14 29.1143 14 28.0098C14 26.9052 14.8954 26.0098 16 26.0098ZM32.2286 26.5098C33.0571 26.5098 33.7286 27.1813 33.7286 28.0098C33.7286 28.7692 33.1643 29.3967 32.4322 29.4961L32.2286 29.5098L21.4957 29.5098L21.2922 29.4961C20.56 29.3967 19.9957 28.7692 19.9957 28.0098C19.9957 27.2504 20.56 26.6228 21.2922 26.5235L21.4957 26.5098L32.2286 26.5098ZM16 32.0194C17.1046 32.0194 18 32.9148 18 34.0194C18 35.124 17.1046 36.0194 16 36.0194C14.8954 36.0194 14 35.124 14 34.0194C14 32.9148 14.8954 32.0194 16 32.0194ZM32.2286 32.5194C33.0571 32.5194 33.7286 33.191 33.7286 34.0194C33.7286 34.7788 33.1643 35.4064 32.4322 35.5057L32.2286 35.5194L21.4957 35.5194L21.2922 35.5057C20.56 35.4064 19.9957 34.7788 19.9957 34.0194C19.9957 33.26 20.56 32.6324 21.2922 32.5331L21.4957 32.5194L32.2286 32.5194Z" fill="#191919" fill-rule="evenodd"/>
  <path id="形状" d="M16 32.0193C17.1046 32.0193 18 32.9147 18 34.0193C18 35.1238 17.1046 36.0193 16 36.0193C14.8954 36.0193 14 35.1238 14 34.0193C14 32.9147 14.8954 32.0193 16 32.0193ZM32.2286 32.5193C33.0571 32.5193 33.7286 33.1908 33.7286 34.0193C33.7286 34.7787 33.1643 35.4063 32.4322 35.5056L32.2286 35.5193L21.4957 35.5193L21.2922 35.5056C20.56 35.4063 19.9957 34.7787 19.9957 34.0193C19.9957 33.2599 20.56 32.6323 21.2922 32.533L21.4957 32.5193L32.2286 32.5193ZM16 26.0096C17.1046 26.0096 18 26.9051 18 28.0096C18 29.1142 17.1046 30.0096 16 30.0096C14.8954 30.0096 14 29.1142 14 28.0096C14 26.9051 14.8954 26.0096 16 26.0096ZM32.2286 26.5096C33.0571 26.5096 33.7286 27.1812 33.7286 28.0096C33.7286 28.769 33.1643 29.3966 32.4322 29.4959L32.2286 29.5096L21.4957 29.5096L21.2922 29.4959C20.56 29.3966 19.9957 28.769 19.9957 28.0096C19.9957 27.2502 20.56 26.6227 21.2922 26.5233L21.4957 26.5096L32.2286 26.5096ZM16 20C17.1046 20 18 20.8954 18 22C18 23.1046 17.1046 24 16 24C14.8954 24 14 23.1046 14 22C14 20.8954 14.8954 20 16 20ZM32.2286 20.5C33.0571 20.5 33.7286 21.1716 33.7286 22C33.7286 22.7594 33.1643 23.387 32.4322 23.4863L32.2286 23.5L21.4957 23.5L21.2922 23.4863C20.56 23.387 19.9957 22.7594 19.9957 22C19.9957 21.2406 20.56 20.613 21.2922 20.5137L21.4957 20.5L32.2286 20.5Z" fill="#AEAEAE" fill-rule="nonzero"/>
</svg>
