<svg viewBox="0 0 48 48" xmlns="http://www.w3.org/2000/svg" xmlns:xlink="http://www.w3.org/1999/xlink" width="48.000000" height="48.000000" fill="none">
  <path id="合并" d="M10.0001 4.5C10.7595 4.5 11.3871 5.06433 11.4864 5.79645L11.5001 6L11.5001 14C11.5001 14.8284 10.8285 15.5 10.0001 15.5C9.24071 15.5 8.61309 14.9357 8.51378 14.2035L8.50005 14L8.50005 7.65399L7.10979 9.18451C6.60308 9.74163 5.59807 9.69232 4.99084 9.28497C4.43371 8.77826 4.48296 7.77325 4.89037 7.16607L6.86864 4.99078C7.10558 4.73029 7.42486 4.56311 7.76922 4.51465L7.97838 4.5L10.0001 4.5ZM43.2452 10C43.2452 8.89543 42.3498 8 41.2452 8L19 8C17.8954 8 17 8.89543 17 10C17 11.1046 17.8954 12 19 12L41.2452 12C42.3498 12 43.2452 11.1046 43.2452 10ZM10.1216 19.0094C9.54955 18.6664 8.89483 18.5 8.18596 18.5C7.2943 18.5 6.4743 18.7687 5.77624 19.297C5.30034 19.6571 4.99731 20.022 4.69469 20.5566C4.28661 21.2775 4.54021 22.1927 5.26116 22.6008C5.98211 23.0089 6.89739 22.7553 7.30547 22.0344C7.41759 21.8363 7.46044 21.7847 7.58654 21.6893C7.75731 21.56 7.94042 21.5 8.18596 21.5C8.37163 21.5 8.49315 21.5309 8.57909 21.5824C8.66521 21.634 8.72167 21.6948 8.76995 21.7899C8.83495 21.9179 8.87102 22.0799 8.87102 22.2944C8.87102 22.4925 8.83019 22.663 8.74602 22.8259C8.65502 23.0021 8.4956 23.2432 8.27032 23.5403L7.88335 24.027L4.92382 27.1258C4.22381 28.0861 4.89593 29.5 6.14403 29.5L11.0001 29.5L11.2036 29.4863C11.9358 29.3869 12.5001 28.7594 12.5001 28L12.4864 27.7964C12.3871 27.0643 11.7595 26.5 11.0001 26.5L9.6621 26.5L10.1212 26.022L10.3791 25.7076C10.8674 25.101 11.1944 24.6229 11.4114 24.2027C11.717 23.6112 11.871 22.9684 11.871 22.2944C11.871 21.623 11.7314 20.996 11.445 20.4318C11.1418 19.8348 10.6936 19.3522 10.1216 19.0094ZM43.2 23.4C43.2 22.2954 42.3046 21.4 41.2 21.4L19 21.4C17.8954 21.4 17 22.2954 17 23.4C17 24.5046 17.8954 25.4 19 25.4L41.2 25.4C42.3046 25.4 43.2 24.5046 43.2 23.4ZM8.40874 39.4848C6.7282 39.2652 6.7282 36.7348 8.40874 36.5152L8.94994 36.4663L9.21703 36.3759L9.25762 36.1424C9.25762 35.9859 9.23022 35.8813 9.18041 35.7987C9.13213 35.7187 9.06872 35.6606 8.96258 35.6067C8.82873 35.5388 8.65172 35.5 8.41405 35.5C8.11913 35.5 7.90655 35.5642 7.73107 35.6897C7.65313 35.7454 7.50664 35.9653 7.44903 36.0549C7.11291 36.8121 6.22668 37.1535 5.46947 36.8174C4.71227 36.4813 4.3709 35.595 4.70702 34.8378C4.99511 34.1888 5.42504 33.6507 5.98577 33.2496C6.68578 32.7489 7.51024 32.5 8.41405 32.5C9.1057 32.5 9.747 32.6406 10.3202 32.9315C10.9213 33.2365 11.4067 33.6814 11.749 34.2488C12.0897 34.8135 12.2576 35.4546 12.2576 36.1424C12.2576 36.6654 12.111 37.2499 11.9101 37.698C12.2439 38.1852 12.431 38.7412 12.4842 39.3493L12.5001 39.7203C12.5001 40.4889 12.3004 41.1934 11.8915 41.794C11.5026 42.3651 10.9746 42.8041 10.3338 43.0959C9.73937 43.3667 9.09136 43.5 8.40398 43.5C7.5039 43.5 6.68053 43.2666 5.97173 42.7948C5.4071 42.419 4.96416 41.9108 4.65691 41.2928C4.28814 40.5509 4.59051 39.6506 5.33233 39.2818C6.01232 38.9438 6.9284 39.3459 7.34325 39.9573C7.41924 40.1101 7.51147 40.2159 7.63396 40.2975C7.83434 40.4308 8.07836 40.5 8.40398 40.5C8.67284 40.5 8.8969 40.4539 9.09044 40.3658C9.2376 40.2987 9.33581 40.2171 9.41167 40.1057C9.4674 40.0238 9.50005 39.9085 9.50005 39.7203L9.34185 39.4738L8.9461 39.4927L8.64831 39.5L8.40874 39.4848ZM43.4 36.8C43.4 35.6954 42.5046 34.8 41.4 34.8L19 34.8C17.8954 34.8 17 35.6954 17 36.8C17 37.9046 17.8954 38.8 19 38.8L41.4 38.8C42.5046 38.8 43.4 37.9046 43.4 36.8Z" fill="#191919" fill-rule="evenodd"/>
  <path id="矢量 204" d="M11.4864 5.79645C11.3871 5.06433 10.7595 4.5 10.0001 4.5L7.97838 4.5L7.76922 4.51465C7.42486 4.56311 7.10558 4.73029 6.86864 4.99078L4.89037 7.16607C4.48296 7.77325 4.43371 8.77826 4.99084 9.28497C5.59807 9.69232 6.60308 9.74163 7.10979 9.18451L8.50005 7.65399L8.50005 14L8.51378 14.2035C8.61309 14.9357 9.24071 15.5 10.0001 15.5C10.8285 15.5 11.5001 14.8284 11.5001 14L11.5001 6L11.4864 5.79645ZM8.18596 18.5C8.89483 18.5 9.54955 18.6664 10.1216 19.0094C10.6936 19.3522 11.1418 19.8348 11.445 20.4318C11.7314 20.996 11.871 21.623 11.871 22.2944C11.871 22.9684 11.717 23.6112 11.4114 24.2027C11.1944 24.6229 10.8674 25.101 10.3791 25.7076L10.1212 26.022L9.6621 26.5L11.0001 26.5C11.7595 26.5 12.3871 27.0643 12.4864 27.7964L12.5001 28C12.5001 28.7594 11.9358 29.3869 11.2036 29.4863L11.0001 29.5L6.14403 29.5C4.89593 29.5 4.22381 28.0861 4.92382 27.1258L7.88335 24.027L8.27032 23.5403C8.4956 23.2432 8.65502 23.0021 8.74602 22.8259C8.83019 22.663 8.87102 22.4925 8.87102 22.2944C8.87102 22.0799 8.83495 21.9179 8.76995 21.7899C8.72167 21.6948 8.66521 21.634 8.57909 21.5824C8.49315 21.5309 8.37163 21.5 8.18596 21.5C7.94042 21.5 7.75731 21.56 7.58654 21.6893C7.46044 21.7847 7.41759 21.8363 7.30547 22.0344C6.89739 22.7553 5.98211 23.0089 5.26116 22.6008C4.54021 22.1927 4.28661 21.2775 4.69469 20.5566C4.99731 20.022 5.30034 19.6571 5.77624 19.297C6.4743 18.7687 7.2943 18.5 8.18596 18.5ZM8.40874 36.5152C6.7282 36.7348 6.7282 39.2652 8.40874 39.4848L8.64831 39.5L8.9461 39.4927L9.34185 39.4738L9.50005 39.7203C9.50005 39.9085 9.4674 40.0238 9.41167 40.1057C9.33581 40.2171 9.2376 40.2987 9.09044 40.3658C8.8969 40.4539 8.67284 40.5 8.40398 40.5C8.07836 40.5 7.83434 40.4308 7.63396 40.2975C7.51147 40.2159 7.41924 40.1101 7.34325 39.9573C6.9284 39.3459 6.01232 38.9438 5.33233 39.2818C4.59051 39.6506 4.28814 40.5509 4.65691 41.2928C4.96416 41.9108 5.4071 42.419 5.97173 42.7948C6.68053 43.2666 7.5039 43.5 8.40398 43.5C9.09136 43.5 9.73937 43.3667 10.3338 43.0959C10.9746 42.8041 11.5026 42.3651 11.8915 41.794C12.3004 41.1934 12.5001 40.4889 12.5001 39.7203L12.4842 39.3493C12.431 38.7412 12.2439 38.1852 11.9101 37.698C12.111 37.2499 12.2576 36.6654 12.2576 36.1424C12.2576 35.4546 12.0897 34.8135 11.749 34.2488C11.4067 33.6814 10.9213 33.2365 10.3202 32.9315C9.747 32.6406 9.1057 32.5 8.41405 32.5C7.51024 32.5 6.68578 32.7489 5.98577 33.2496C5.42504 33.6507 4.99511 34.1888 4.70702 34.8378C4.3709 35.595 4.71227 36.4813 5.46947 36.8174C6.22668 37.1535 7.11291 36.8121 7.44903 36.0549C7.50664 35.9653 7.65313 35.7454 7.73107 35.6897C7.90655 35.5642 8.11913 35.5 8.41405 35.5C8.65172 35.5 8.82873 35.5388 8.96258 35.6067C9.06872 35.6606 9.13213 35.7187 9.18041 35.7987C9.23022 35.8813 9.25762 35.9859 9.25762 36.1424L9.21703 36.3759L8.94994 36.4663L8.40874 36.5152Z" fill="#AEAEAE" fill-rule="evenodd"/>
</svg>
