<svg viewBox="0 0 48 48" xmlns="http://www.w3.org/2000/svg" xmlns:xlink="http://www.w3.org/1999/xlink" width="48.000000" height="48.000000" fill="none">
  <g id="ic_huawei_cloud_store_new-新店/base/ic_huawei_cloud_store_new">
    <path id="减去顶层" d="M22.8852 28.276C22.5105 28.3502 22.1468 28.462 21.7939 28.6112C21.1158 28.8981 20.5156 29.3026 19.9932 29.825C19.4709 30.3474 19.0663 30.9476 18.7795 31.6257C18.6425 31.9494 18.5372 32.28 18.4633 32.6175L18.4632 32.618C18.3768 33.0131 18.3335 33.4178 18.3335 33.8318L18.3335 38.9982L13.1672 38.9982C12.8931 38.9982 12.6261 38.9678 12.3662 38.9069L12.3662 38.9069C12.1754 38.8623 11.9885 38.8012 11.8053 38.7238C11.3868 38.5468 11.0158 38.2965 10.6924 37.9731C10.5165 37.7972 10.3623 37.6072 10.2297 37.4032C10.1185 37.2321 10.0225 37.0511 9.94179 36.8602C9.75885 36.4277 9.66737 35.9738 9.66737 35.4984L9.66737 23.9965C8.56218 23.9626 7.53515 23.6976 6.66737 23.2632L6.66737 35.4984C6.66737 35.975 6.71728 36.4407 6.81709 36.8955L6.81719 36.8959C6.90184 37.2814 7.02237 37.6591 7.17877 38.0289C7.33544 38.3993 7.52275 38.7494 7.7407 39.0793L7.74082 39.0795C7.98053 39.4423 8.25729 39.7806 8.57112 40.0945C9.17036 40.6937 9.85889 41.1578 10.6367 41.4868C11.0065 41.6432 11.3842 41.7637 11.7697 41.8484C12.2246 41.9483 12.6904 41.9982 13.1672 41.9982L19.8335 41.9982C20.3335 41.9982 20.7085 41.8732 20.9585 41.6232C21.2085 41.3732 21.3335 40.9982 21.3335 40.4982L21.3335 33.8318C21.3335 33.4695 21.4032 33.1237 21.5425 32.7944C21.6626 32.5103 21.8271 32.255 22.0358 32.0283C22.133 30.7135 22.4258 29.453 22.8852 28.276Z" fill="#191919" fill-rule="evenodd"/>
    <path id="path6(边框)" d="M8.23589 22.3931C8.68796 22.4936 9.1512 22.5438 9.62561 22.5438C10.1 22.5438 10.5633 22.4936 11.0153 22.3931C11.3719 22.3138 11.7215 22.2033 12.0642 22.0615C12.8161 21.7504 13.4823 21.311 14.0626 20.7432C14.1867 20.6219 14.3048 20.4966 14.417 20.3675C14.5587 20.5307 14.7098 20.6875 14.8703 20.8377C15.1496 21.0993 15.4475 21.332 15.7639 21.5359C16.0999 21.7524 16.4568 21.9364 16.8346 22.0878C17.5929 22.3918 18.3842 22.5438 19.2085 22.5438C19.683 22.5438 20.1463 22.4936 20.5984 22.3931C20.9549 22.3138 21.3045 22.2033 21.6471 22.0615C22.399 21.7504 23.0652 21.311 23.6456 20.7432C23.7696 20.6219 23.8877 20.4966 23.9999 20.3675C24.1416 20.5307 24.2927 20.6875 24.4532 20.8377C24.7325 21.0993 25.0304 21.332 25.3468 21.5359C25.6828 21.7524 26.0397 21.9364 26.4175 22.0878C27.1758 22.3918 27.9671 22.5438 28.7915 22.5438C29.2659 22.5438 29.7291 22.4936 30.1812 22.3931C30.5377 22.3138 30.8874 22.2033 31.23 22.0615C31.982 21.7504 32.6481 21.311 33.2285 20.7432C33.3526 20.6218 33.4707 20.4965 33.5829 20.3674C33.6951 20.4965 33.8133 20.6218 33.9374 20.7432C34.2182 21.0179 34.519 21.2625 34.84 21.4771C35.1824 21.7061 35.5477 21.9009 35.9358 22.0615C36.7129 22.3831 37.5258 22.5438 38.3744 22.5438C38.8489 22.5438 39.3121 22.4936 39.7642 22.3931C40.1208 22.3138 40.4703 22.2033 40.8129 22.0615C41.5649 21.7504 42.2311 21.311 42.8114 20.7432C43.3941 20.1732 43.8456 19.5176 44.1661 18.7763C44.3249 18.409 44.4459 18.0335 44.529 17.6498C44.6202 17.2286 44.6659 16.7975 44.6659 16.3565C44.6659 16.1333 44.6425 15.8276 44.5957 15.4394L44.5765 15.2995C44.5704 15.2544 44.5622 15.2098 44.552 15.1657C44.5418 15.1216 44.5296 15.0779 44.5154 15.0346L41.9988 7.37698C41.842 6.88053 41.6114 6.4219 41.307 6.00109C41.1625 5.80122 41.0046 5.61445 40.8335 5.44079C40.6528 5.25746 40.4573 5.08873 40.247 4.93461C39.8374 4.6345 39.392 4.40467 38.9106 4.24512C38.4177 4.08171 37.9109 4 37.3902 4L10.6098 4C10.3366 4 10.0673 4.02249 9.80181 4.06746C9.5612 4.10821 9.32372 4.16743 9.08937 4.24512C8.8552 4.32274 8.62953 4.417 8.41236 4.52789C8.18313 4.64493 7.96336 4.7805 7.75305 4.93461C7.54275 5.0887 7.34727 5.25741 7.16661 5.44071C6.99543 5.61439 6.83755 5.80118 6.69297 6.00109C6.47802 6.2983 6.30078 6.6115 6.16126 6.94068C6.10323 7.07758 6.05173 7.21724 6.00674 7.35967L3.49299 14.9918C3.46712 15.0703 3.44788 15.1505 3.43526 15.2322L3.41668 15.3532C3.40064 15.4498 3.38694 15.5466 3.37558 15.6437C3.34796 15.8797 3.33415 16.1173 3.33415 16.3565C3.33415 16.7975 3.37977 17.2286 3.471 17.6499C3.55411 18.0335 3.67506 18.409 3.83387 18.7763C3.97417 19.1008 4.13959 19.4089 4.33013 19.7006C4.57485 20.0752 4.861 20.4227 5.1886 20.7432C5.76895 21.311 6.43511 21.7504 7.18706 22.0615C7.52972 22.2033 7.87933 22.3138 8.23589 22.3931ZM32.0829 16.3615L32.0829 16.3565C32.0829 15.8565 32.2079 15.4815 32.4579 15.2315C32.7079 14.9815 33.0829 14.8565 33.5829 14.8565C34.0829 14.8565 34.4579 14.9815 34.7079 15.2315C34.9579 15.4815 35.0829 15.8565 35.0829 16.3565L35.0829 16.3615C35.0836 16.7885 35.168 17.1966 35.3363 17.5858C35.5007 17.9661 35.7337 18.3037 36.0353 18.5987C36.3391 18.896 36.6883 19.1262 37.0828 19.2895C37.4927 19.459 37.9232 19.5438 38.3744 19.5438C38.8256 19.5438 39.2561 19.459 39.6659 19.2895C40.0605 19.1262 40.4097 18.896 40.7135 18.5987C40.9007 18.4156 41.0614 18.2161 41.1957 18.0002C41.2779 17.8682 41.3501 17.7301 41.4125 17.5858C41.5814 17.1951 41.6658 16.7854 41.6659 16.3565C41.6659 16.253 41.6517 16.0829 41.6234 15.8464L41.6228 15.8416L39.1382 8.28086C39.0178 7.8996 38.7963 7.59081 38.4738 7.35449C38.1513 7.11816 37.7901 7 37.3902 7L10.6098 7C10.4098 7 10.2196 7.02954 10.039 7.08862C9.85841 7.1477 9.68749 7.23633 9.52623 7.35449C9.20371 7.59082 8.98036 7.90537 8.85617 8.29817L6.38107 15.813L6.37613 15.8448C6.34814 16.0133 6.33415 16.1839 6.33415 16.3565C6.33415 16.5906 6.35932 16.8191 6.40966 17.0418C6.45153 17.2271 6.51081 17.4084 6.58751 17.5858C6.75194 17.9661 6.98493 18.3037 7.28648 18.5987C7.59033 18.896 7.93953 19.1262 8.33406 19.2895C8.49331 19.3553 8.65567 19.4084 8.82116 19.4487C9.08159 19.5121 9.34974 19.5438 9.62562 19.5438C10.0768 19.5438 10.5073 19.459 10.9172 19.2895C11.3117 19.1262 11.6609 18.896 11.9647 18.5987C12.1519 18.4156 12.3126 18.2162 12.4469 18.0002C12.5291 17.8682 12.6013 17.7301 12.6637 17.5858C12.7404 17.4084 12.7997 17.227 12.8416 17.0417C12.8919 16.819 12.9171 16.5906 12.9171 16.3565C12.9171 15.3799 13.4053 14.88 14.3816 14.857C14.8815 14.8451 15.2593 14.9612 15.5152 15.2053C15.771 15.4493 15.9048 15.8212 15.9167 16.3211L15.9214 16.5223C15.9427 16.9283 16.0402 17.315 16.2141 17.6822C16.2792 17.8196 16.3532 17.9511 16.4364 18.0765C16.5733 18.2833 16.7349 18.4738 16.9209 18.648C17.2225 18.9305 17.5659 19.1489 17.9509 19.3033C18.1037 19.3645 18.2593 19.4141 18.4177 19.452C18.674 19.5132 18.9376 19.5438 19.2085 19.5438C19.6597 19.5438 20.0902 19.459 20.5001 19.2895C20.8946 19.1262 21.2438 18.896 21.5477 18.5987C21.7348 18.4157 21.8955 18.2162 22.0298 18.0003C22.112 17.8683 22.1842 17.7301 22.2466 17.5858C22.4155 17.1951 22.5 16.7854 22.5 16.3565C22.5 15.3799 22.9882 14.88 23.9646 14.857C24.9643 14.8333 25.476 15.3214 25.4996 16.3211L25.5043 16.5223C25.5151 16.7271 25.5452 16.9269 25.5947 17.1218C25.6434 17.3134 25.7108 17.5002 25.797 17.6822C25.9693 18.0461 26.2049 18.3681 26.5039 18.648C26.8055 18.9305 27.1488 19.1489 27.5339 19.3033C27.9339 19.4637 28.3531 19.5438 28.7915 19.5438C29.2426 19.5438 29.6731 19.459 30.083 19.2895C30.4776 19.1262 30.8267 18.896 31.1306 18.5987C31.4321 18.3037 31.6651 17.9661 31.8296 17.5858C31.9063 17.4084 31.9656 17.227 32.0074 17.0418C32.0574 16.8206 32.0826 16.5939 32.0829 16.3615Z" fill="#191919" fill-rule="evenodd"/>
  </g>
  <path id="合并" d="M36.777 23.2461L36.777 23.2462C37.3931 23.3826 37.9966 23.5758 38.5875 23.8258C39.1825 24.0774 39.7452 24.378 40.2755 24.7277L40.2756 24.7277C40.8652 25.1164 41.4149 25.5656 41.9246 26.0754C42.4344 26.5852 42.8837 27.1349 43.2723 27.7245C43.622 28.2549 43.9226 28.8175 44.1742 29.4125C44.4242 30.0034 44.6174 30.6069 44.7538 31.223C44.9179 31.9638 45 32.7228 45 33.5C45 34.2772 44.918 35.0362 44.7539 35.777C44.6174 36.3931 44.4242 36.9966 44.1742 37.5875C43.9226 38.1825 43.622 38.7451 43.2723 39.2755C42.8837 39.8651 42.4344 40.4148 41.9246 40.9246C41.4148 41.4344 40.8651 41.8837 40.2755 42.2724C39.7451 42.622 39.1825 42.9226 38.5875 43.1742C37.9966 43.4242 37.3931 43.6174 36.777 43.7539C36.0362 43.918 35.2772 44 34.5 44C33.7229 44 32.9639 43.918 32.2231 43.7539L32.223 43.7539C31.6069 43.6174 31.0034 43.4242 30.4125 43.1742C29.8175 42.9226 29.2549 42.622 28.7245 42.2724C28.1349 41.8837 27.5852 41.4344 27.0754 40.9246C26.5656 40.4148 26.1164 39.8651 25.7277 39.2755C25.378 38.7452 25.0774 38.1825 24.8258 37.5875C24.5758 36.9966 24.3826 36.3931 24.2462 35.777L24.2461 35.777C24.082 35.0362 24 34.2772 24 33.5C24 32.7228 24.082 31.9638 24.2461 31.223L24.2462 31.223C24.3826 30.6069 24.5758 30.0034 24.8258 29.4125C25.0774 28.8175 25.3781 28.2548 25.7277 27.7244C26.1164 27.1348 26.5656 26.5852 27.0754 26.0754C27.5851 25.5656 28.1348 25.1164 28.7244 24.7277L28.7244 24.7277C29.2548 24.3781 29.8175 24.0774 30.4125 23.8258C31.0034 23.5758 31.6069 23.3826 32.2229 23.2462C32.9638 23.0821 33.7228 23 34.5 23C35.2772 23 36.0362 23.082 36.777 23.2461ZM34.5 26C33.9255 26 33.3654 26.0625 32.8195 26.1875C32.3982 26.284 31.9854 26.4178 31.5811 26.5888C31.1657 26.7645 30.7723 26.9737 30.4008 27.2165C29.9699 27.4981 29.5686 27.8248 29.1967 28.1967C28.8248 28.5686 28.4981 28.9699 28.2165 29.4008L28.2165 29.4008L28.2165 29.4008C27.9737 29.7723 27.7645 30.1658 27.5888 30.5811C27.4178 30.9854 27.284 31.3982 27.1875 31.8195C27.0625 32.3654 27 32.9255 27 33.5C27 34.0745 27.0625 34.6346 27.1875 35.1804L27.1875 35.1805L27.1875 35.1805C27.284 35.6019 27.4178 36.0146 27.5888 36.4189C27.7645 36.8342 27.9737 37.2277 28.2165 37.5992L28.2165 37.5992C28.4981 38.0301 28.8248 38.4314 29.1967 38.8033C29.5686 39.1752 29.97 39.5019 30.4009 39.7835C30.7724 40.0263 31.1658 40.2355 31.5811 40.4112C31.9854 40.5822 32.3982 40.716 32.8195 40.8125C33.3653 40.9375 33.9255 41 34.5 41C35.0745 41 35.6347 40.9375 36.1806 40.8124C36.6019 40.7159 37.0146 40.5822 37.4189 40.4112C37.8342 40.2355 38.2277 40.0263 38.5992 39.7835C39.0301 39.5019 39.4314 39.1752 39.8033 38.8033C40.1752 38.4314 40.502 38.03 40.7836 37.5991C41.0263 37.2276 41.2356 36.8342 41.4112 36.4189C41.5822 36.0146 41.716 35.6019 41.8125 35.1805C41.9375 34.6347 42 34.0745 42 33.5C42 32.9255 41.9375 32.3653 41.8125 31.8194C41.716 31.3981 41.5822 30.9854 41.4112 30.5811C41.2355 30.1658 41.0263 29.7723 40.7835 29.4008C40.5019 28.9699 40.1752 28.5686 39.8033 28.1967C39.4315 27.8249 39.0301 27.4981 38.5993 27.2166L38.5991 27.2165C38.2277 26.9737 37.8342 26.7645 37.4189 26.5888C37.0146 26.4178 36.6018 26.284 36.1805 26.1875C35.6347 26.0625 35.0745 26 34.5 26ZM34.4894 29.4563L32.6581 27.9394C32.2528 27.4327 31.5363 27.3532 31.0297 27.7586C30.5231 28.1638 30.4435 28.8803 30.8488 29.3867L33.1365 31.4741L31.7534 31.4741C31.1047 31.4741 30.5949 31.9839 30.5949 32.6326C30.5949 33.2814 31.1047 33.791 31.7534 33.791L33.3045 33.791L33.3045 34.7661L31.6585 34.7661C31.0097 34.7661 30.5 35.2759 30.5 35.9246C30.5 36.5734 31.0097 37.0831 31.6585 37.0831L33.3045 37.0831L33.3045 38.5393C33.3045 39.1881 33.8142 39.6978 34.463 39.6978C35.1118 39.6978 35.6215 39.1881 35.6215 38.5393L35.6215 37.0831L37.2675 37.0831C37.9163 37.0831 38.426 36.5734 38.426 35.9246C38.426 35.2759 37.9163 34.7661 37.2675 34.7661L35.6215 34.7661L35.6215 33.791L37.1726 33.791C37.8213 33.791 38.3311 33.2814 38.3311 32.6326C38.3311 31.9839 37.8213 31.4741 37.1726 31.4741L35.8159 31.4741L38.2202 29.413C38.6399 28.9184 38.5811 28.1998 38.0864 27.7801C37.5917 27.3603 36.8733 27.4192 36.4535 27.9139L34.4894 29.4563Z" fill="#AEAEAE" fill-rule="evenodd"/>
</svg>
