<svg viewBox="0 0 48 48" xmlns="http://www.w3.org/2000/svg" xmlns:xlink="http://www.w3.org/1999/xlink" width="48.000000" height="48.000000" fill="none">
  <path id="合并" d="M18.5 15L18.5 18C18.5 18.84 17.84 19.5 17 19.5C16.16 19.5 15.5 18.84 15.5 18L15.5 15L12 15C10.8954 15 10 15.8954 10 17L10 21C10 22.1046 10.8954 23 12 23L36 23C37.1046 23 38 22.1046 38 21L38 17C38 15.8954 37.1046 15 36 15L31.5 15L31.5 18C31.5 18.84 30.84 19.5 30 19.5C29.16 19.5 28.5 18.84 28.5 18L28.5 15L18.5 15ZM18.5 9L28.5 9L28.5 7C28.5 6.16 29.16 5.5 30 5.5C30.84 5.5 31.5 6.16 31.5 7L31.5 9L36.002 9C39.308 9 42 11.692 42 14.998L42 36.002C42 39.308 39.308 42 36.002 42L11.996 42C8.69 42 6 39.308 6 36.002L6 14.998C6 11.692 8.69 9 11.996 9L15.5 9L15.5 7C15.5 6.16 16.16 5.5 17 5.5C17.84 5.5 18.5 6.16 18.5 7L18.5 9ZM32.0696 29.0519L24.2037 37.0519C24.2013 37.0544 24.1989 37.0568 24.1965 37.0592C24.193 37.0628 24.1894 37.0663 24.1858 37.0699C24.0381 37.2151 23.8756 37.3235 23.6982 37.3953C23.5208 37.467 23.3286 37.502 23.1215 37.5002C22.7073 37.4967 22.355 37.3473 22.0646 37.0519L16.9304 31.8302C16.3415 31.2313 16.3494 30.2979 16.9483 29.709C17.5473 29.1201 18.4807 29.1279 19.0696 29.7269L23.1342 33.8608L29.9304 26.9486C30.5193 26.3497 31.4527 26.3418 32.0517 26.9307C32.6506 27.5196 32.6585 28.453 32.0696 29.0519Z" fill="#191919" fill-rule="evenodd"/>
  <path id="path8(边框)" d="M32.0696 29.0519L24.2037 37.0519C24.2013 37.0544 24.1989 37.0568 24.1965 37.0592C24.193 37.0628 24.1894 37.0663 24.1858 37.0699C23.8904 37.3603 23.5357 37.5037 23.1215 37.5002C22.7073 37.4967 22.355 37.3473 22.0646 37.0519L16.9304 31.8302C16.3415 31.2313 16.3494 30.2979 16.9483 29.709C17.5473 29.1201 18.4807 29.1279 19.0696 29.7269L23.1342 33.8608L29.9304 26.9486C30.5193 26.3497 31.4527 26.3418 32.0517 26.9307C32.6506 27.5196 32.6585 28.453 32.0696 29.0519Z" fill="#AEAEAE" fill-rule="evenodd"/>
</svg>
