<svg viewBox="0 0 48 48" xmlns="http://www.w3.org/2000/svg" xmlns:xlink="http://www.w3.org/1999/xlink" width="48.000000" height="48.000000" fill="none">
  <path id="减去顶层" d="M11.996 6L36.002 6C39.308 6 42 8.692 42 11.998L42 36.002C42 39.308 39.308 42 36.002 42L11.996 42C8.69 42 6 39.308 6 36.002L6 11.998C6 8.692 8.69 6 11.996 6ZM13 21.9995L13 19.5C13 18.6599 12.34 18 11.5 18C10.66 18 10 18.6599 10 19.5L10 27.5C10 28.3401 10.66 29 11.5 29C12.34 29 13 28.3401 13 27.5L13 24.9995L15.5 24.9995L15.5 27.5C15.5 28.3401 16.16 29 17 29C17.84 29 18.5 28.3401 18.5 27.5L18.5 19.5C18.5 18.6599 17.84 18 17 18C16.16 18 15.5 18.6599 15.5 19.5L15.5 21.9995L13 21.9995ZM29.3737 23.4861C29.3737 20.6421 27.2142 18.2861 24.482 18.2861C21.7499 18.2861 19.5904 20.6421 19.5904 23.4861C19.5904 26.3303 21.7499 28.686 24.482 28.686C27.2142 28.686 29.3737 26.3303 29.3737 23.4861ZM36 18.5L31 18.5C30.16 18.5 29.5 19.1599 29.5 20C29.5 20.8401 30.16 21.5 31 21.5L32 21.5L32 28C32 28.8401 32.66 29.5 33.5 29.5C34.34 29.5 35 28.8401 35 28L35 21.5L36 21.5C36.84 21.5 37.5 20.8401 37.5 20C37.5 19.1599 36.84 18.5 36 18.5ZM22.5904 23.4861C22.5904 22.2434 23.4678 21.2861 24.482 21.2861C25.4962 21.2861 26.3737 22.2434 26.3737 23.4861C26.3737 24.729 25.4962 25.686 24.482 25.686C23.4678 25.686 22.5904 24.729 22.5904 23.4861Z" fill="#191919" fill-rule="evenodd"/>
  <path id="矢量 1857" d="M13 19.5L13 21.9995L15.5 21.9995L15.5 19.5C15.5 18.6599 16.16 18 17 18C17.84 18 18.5 18.6599 18.5 19.5L18.5 27.5C18.5 28.3401 17.84 29 17 29C16.16 29 15.5 28.3401 15.5 27.5L15.5 24.9995L13 24.9995L13 27.5C13 28.3401 12.34 29 11.5 29C10.66 29 10 28.3401 10 27.5L10 19.5C10 18.6599 10.66 18 11.5 18C12.34 18 13 18.6599 13 19.5ZM24.482 18.2861C27.2142 18.2861 29.3737 20.6421 29.3737 23.4861C29.3737 26.3303 27.2142 28.686 24.482 28.686C21.7499 28.686 19.5904 26.3303 19.5904 23.4861C19.5904 20.6421 21.7499 18.2861 24.482 18.2861ZM31 18.5L36 18.5C36.84 18.5 37.5 19.1599 37.5 20C37.5 20.8401 36.84 21.5 36 21.5L35 21.5L35 28C35 28.8401 34.34 29.5 33.5 29.5C32.66 29.5 32 28.8401 32 28L32 21.5L31 21.5C30.16 21.5 29.5 20.8401 29.5 20C29.5 19.1599 30.16 18.5 31 18.5ZM24.482 21.2861C23.4678 21.2861 22.5904 22.2434 22.5904 23.4861C22.5904 24.729 23.4678 25.686 24.482 25.686C25.4962 25.686 26.3737 24.729 26.3737 23.4861C26.3737 22.2434 25.4962 21.2861 24.482 21.2861Z" fill="#AEAEAE" fill-rule="evenodd"/>
</svg>
