<svg viewBox="0 0 48 48" xmlns="http://www.w3.org/2000/svg" xmlns:xlink="http://www.w3.org/1999/xlink" width="48.000000" height="48.000000" fill="none">
  <path id="合并" d="M24.5392 3.52918C24.3605 3.50973 24.1808 3.5 24 3.5C23.8192 3.5 23.6395 3.50973 23.4608 3.52918C22.8731 3.59317 22.2969 3.76241 21.732 4.0369C21.0638 4.36168 20.4274 4.82766 19.823 5.43486C18.7285 6.5343 17.7744 8.05031 16.9607 9.98289C16.8122 10.3356 16.6701 10.6979 16.5345 11.0696C16.1448 11.0012 15.7602 10.9431 15.3806 10.8954C13.3001 10.6338 11.5101 10.7021 10.0107 11.1002C9.18265 11.3201 8.46091 11.6382 7.84552 12.0545C7.3254 12.4064 6.89071 12.8209 6.54143 13.2979C6.43525 13.4428 6.33697 13.5936 6.24658 13.7502C6.15619 13.9067 6.07475 14.0673 6.00226 14.2317C5.76382 14.7727 5.62226 15.3564 5.57758 15.9827C5.5247 16.7238 5.61008 17.5079 5.8337 18.335C6.23862 19.8326 7.07447 21.4169 8.34127 23.0878C8.57245 23.3928 8.8151 23.6969 9.0692 24.0002C8.8151 24.3035 8.57245 24.6076 8.34127 24.9125C7.07447 26.5835 6.23861 28.1678 5.8337 29.6654C5.61008 30.4924 5.5247 31.2765 5.57757 32.0176C5.62226 32.644 5.76382 33.2277 6.00227 33.7687C6.07475 33.9331 6.15619 34.0936 6.24658 34.2502C6.33697 34.4068 6.43525 34.5575 6.54143 34.7025C6.89071 35.1795 7.32541 35.594 7.84552 35.9458C8.46091 36.3622 9.18264 36.6803 10.0107 36.9002C11.5101 37.2983 13.3001 37.3666 15.3806 37.105C15.7602 37.0572 16.1449 36.9992 16.5346 36.9307C16.6702 37.3024 16.8122 37.6645 16.9607 38.0171C17.7744 39.9497 18.7285 41.4657 19.823 42.5651C20.4274 43.1723 21.0638 43.6383 21.732 43.9631C22.2968 44.2376 22.8731 44.4068 23.4608 44.4708C23.6395 44.4903 23.8192 44.5 24 44.5C24.1808 44.5 24.3605 44.4903 24.5392 44.4708C25.1269 44.4068 25.7031 44.2376 26.2679 43.9631C26.9362 43.6383 27.5725 43.1723 28.177 42.5651C29.2715 41.4657 30.2256 39.9497 31.0393 38.0171C31.1878 37.6645 31.3298 37.3023 31.4654 36.9307C31.8551 36.9991 32.2399 37.0572 32.6196 37.105C34.7001 37.3666 36.4901 37.2983 37.9895 36.9002C38.8176 36.6803 39.5393 36.3622 40.1547 35.9458C40.6748 35.594 41.1095 35.1795 41.4588 34.7025C41.5649 34.5575 41.6632 34.4068 41.7536 34.2502C41.844 34.0936 41.9254 33.9331 41.9979 33.7687C42.2364 33.2277 42.3779 32.644 42.4226 32.0176C42.4755 31.2765 42.3901 30.4924 42.1665 29.6654C41.7616 28.1678 40.9257 26.5835 39.6589 24.9125C39.4277 24.6076 39.1851 24.3035 38.931 24.0002C39.1851 23.6969 39.4277 23.3928 39.6589 23.0879C40.9257 21.4169 41.7616 19.8326 42.1665 18.335C42.3901 17.508 42.4755 16.7239 42.4226 15.9827C42.3779 15.3564 42.2364 14.7727 41.9979 14.2317C41.9255 14.0673 41.844 13.9068 41.7536 13.7502C41.6632 13.5936 41.565 13.4429 41.4588 13.2979C41.1095 12.8209 40.6748 12.4064 40.1547 12.0545C39.5393 11.6382 38.8175 11.3201 37.9895 11.1002C36.4901 10.7021 34.7001 10.6338 32.6196 10.8954C32.2399 10.9432 31.8552 11.0012 31.4655 11.0697C31.3299 10.6979 31.1878 10.3356 31.0393 9.98289C30.2256 8.05031 29.2715 6.5343 28.177 5.43486C27.5726 4.82766 26.9362 4.36167 26.2679 4.0369C25.7031 3.76241 25.1269 3.59317 24.5392 3.52918ZM36.8633 21.7921C37.0027 21.62 37.1377 21.4478 37.2683 21.2755C37.7864 20.592 38.2161 19.9303 38.5573 19.2905C38.8861 18.6737 39.1239 18.0942 39.2705 17.552C39.5286 16.5973 39.4903 15.83 39.1555 15.2502C38.8208 14.6704 38.1755 14.2536 37.2196 13.9997C36.6767 13.8556 36.056 13.7717 35.3574 13.7482C34.6327 13.7237 33.8449 13.765 32.9939 13.872C32.7793 13.899 32.5627 13.9298 32.3439 13.9644C32.5333 14.7252 32.7014 15.5175 32.8481 16.3413C32.9856 17.1134 33.1013 17.8967 33.1953 18.6912C33.8364 19.1699 34.4569 19.6618 35.0567 20.1669C35.6969 20.7059 36.2991 21.2476 36.8633 21.7921ZM33.4843 22.7688C33.9584 23.1787 34.4074 23.5892 34.8313 24.0002C34.4074 24.4112 33.9584 24.8216 33.4843 25.2316C33.4948 24.8238 33.5 24.4132 33.5 24C33.5 23.5869 33.4948 23.1765 33.4843 22.7688ZM29.8085 16.4021C29.6905 15.7866 29.5596 15.1926 29.4156 14.6201C28.8478 14.7817 28.2679 14.9653 27.6759 15.1708C28.0342 15.3657 28.3923 15.5664 28.7501 15.7729C29.1079 15.9795 29.4607 16.1892 29.8085 16.4021ZM24.0001 16.6709C25.0846 17.1795 26.1679 17.7462 27.2501 18.371C28.3322 18.9958 29.3646 19.6506 30.3474 20.3355C30.4491 21.529 30.5 22.7505 30.5 24C30.5 25.2497 30.4491 26.4713 30.3473 27.6649C29.3646 28.3498 28.3322 29.0046 27.2501 29.6294C26.1679 30.2541 25.0846 30.8209 24.0001 31.3295C22.9156 30.8209 21.8323 30.2541 20.7501 29.6294C19.6679 29.0045 18.6354 28.3497 17.6526 27.6648C17.5509 26.4712 17.5 25.2496 17.5 24C17.5 22.7505 17.5509 21.5291 17.6526 20.3356C18.6354 19.6507 19.6679 18.9958 20.7501 18.371C21.8323 17.7462 22.9156 17.1795 24.0001 16.6709ZM24.0001 13.3824C24.7352 13.0665 25.4713 12.7751 26.2086 12.5082C26.9955 12.2233 27.7658 11.9727 28.5194 11.7563C28.44 11.5495 28.3583 11.3464 28.2744 11.1471C27.9416 10.3566 27.5834 9.65365 27.1999 9.03829C26.8301 8.44507 26.4472 7.94943 26.0509 7.55137C25.3531 6.85046 24.6695 6.5 24 6.5C23.3305 6.5 22.6468 6.85046 21.9491 7.55137C21.5528 7.94944 21.1698 8.44508 20.8001 9.03829C20.4166 9.65364 20.0584 10.3566 19.7256 11.1471C19.6417 11.3464 19.56 11.5494 19.4806 11.7562C20.2343 11.9726 21.0046 12.2233 21.7916 12.5082C22.5289 12.7751 23.265 13.0665 24.0001 13.3824ZM18.5844 14.6201C19.1522 14.7817 19.7322 14.9653 20.3243 15.1708C19.966 15.3657 19.6079 15.5664 19.2501 15.7729C18.8923 15.9796 18.5393 16.1893 18.1914 16.4023C18.3094 15.7867 18.4404 15.1927 18.5844 14.6201ZM15.6561 13.9643C15.4374 13.9297 15.2208 13.8989 15.0063 13.872C14.1553 13.765 13.3675 13.7237 12.6428 13.7482C11.9442 13.7717 11.3235 13.8556 10.7806 13.9997C9.82474 14.2535 9.17942 14.6704 8.84466 15.2502C8.50989 15.83 8.47158 16.5973 8.72972 17.552C8.87632 18.0942 9.11406 18.6737 9.44294 19.2905C9.7841 19.9303 10.2138 20.592 10.7319 21.2755C10.8625 21.4478 10.9975 21.62 11.1369 21.7921C11.7011 21.2476 12.3033 20.7059 12.9435 20.1669C13.5432 19.6618 14.1636 19.17 14.8047 18.6914C14.8987 17.8968 15.0144 17.1134 15.1519 16.3413C15.2986 15.5175 15.4667 14.7252 15.6561 13.9643ZM11.1369 26.2083C10.9975 26.3804 10.8625 26.5526 10.7319 26.7249C10.2138 27.4084 9.7841 28.0701 9.44294 28.7099C9.11406 29.3267 8.87632 29.9062 8.72971 30.4484C8.47158 31.4031 8.50989 32.1704 8.84465 32.7502C9.17942 33.33 9.82474 33.7468 10.7806 34.0006C11.3235 34.1448 11.9442 34.2286 12.6428 34.2522C13.3675 34.2767 14.1553 34.2354 15.0063 34.1284C15.2208 34.1014 15.4374 34.0706 15.6562 34.036C15.4667 33.2751 15.2986 32.4826 15.1519 31.6587C15.0144 30.8867 14.8987 30.1035 14.8047 29.309C14.1637 28.8304 13.5433 28.3386 12.9435 27.8335C12.3033 27.2945 11.7011 26.7528 11.1369 26.2083ZM14.5157 25.2314C14.0417 24.8215 13.5927 24.4111 13.1689 24.0002C13.5927 23.5893 14.0416 23.1789 14.5156 22.769C14.5052 23.1766 14.5 23.587 14.5 24C14.5 24.4132 14.5052 24.8236 14.5157 25.2314ZM18.1915 31.5981C18.3095 32.2137 18.4405 32.8077 18.5845 33.3803C19.1523 33.2187 19.7322 33.0351 20.3243 32.8295C19.966 32.6347 19.6079 32.434 19.2501 32.2274C18.8923 32.0208 18.5394 31.8111 18.1915 31.5981ZM24.0001 34.618C23.265 34.9339 22.5289 35.2253 21.7915 35.4922C21.0047 35.7771 20.2344 36.0277 19.4807 36.2441C19.5601 36.4508 19.6417 36.6537 19.7256 36.8529C20.0584 37.6434 20.4166 38.3464 20.8001 38.9617C21.1698 39.5549 21.5528 40.0506 21.9491 40.4486C22.6468 41.1495 23.3305 41.5 24 41.5C24.6695 41.5 25.3531 41.1495 26.0509 40.4486C26.4472 40.0506 26.8301 39.5549 27.1999 38.9617C27.5834 38.3464 27.9416 37.6434 28.2744 36.8529C28.3583 36.6537 28.4399 36.4508 28.5193 36.2441C27.7657 36.0277 26.9955 35.777 26.2086 35.4922C25.4713 35.2253 24.7352 34.9339 24.0001 34.618ZM32.3438 34.036C32.5333 33.275 32.7013 32.4826 32.8481 31.6587C32.9855 30.8868 33.1013 30.1036 33.1953 29.3092C33.8364 28.8305 34.4569 28.3386 35.0567 27.8335C35.6969 27.2945 36.2991 26.7528 36.8633 26.2083C37.0027 26.3804 37.1377 26.5526 37.2683 26.7249C37.7864 27.4084 38.2161 28.0701 38.5573 28.7099C38.8861 29.3267 39.1239 29.9062 39.2705 30.4484C39.5286 31.4031 39.4903 32.1704 39.1555 32.7502C38.8208 33.33 38.1755 33.7468 37.2196 34.0006C36.6767 34.1448 36.056 34.2286 35.3574 34.2522C34.6327 34.2767 33.8449 34.2354 32.9939 34.1284C32.7793 34.1014 32.5626 34.0706 32.3438 34.036ZM29.4155 33.3802C28.8478 33.2186 28.2679 33.0351 27.6759 32.8295C28.0342 32.6347 28.3923 32.434 28.7501 32.2274C29.1078 32.0209 29.4606 31.8112 29.8085 31.5983C29.6905 32.2138 29.5595 32.8077 29.4155 33.3802Z" fill="#191919" fill-rule="evenodd"/>
</svg>
