<svg viewBox="0 0 48 48" xmlns="http://www.w3.org/2000/svg" xmlns:xlink="http://www.w3.org/1999/xlink" width="48.000000" height="48.000000" fill="none">
  <path id="矢量 240" d="M20.7232 15.7469L8.08459 27.144C7.07593 28.0536 6.5 29.3442 6.5 30.6986C6.5 33.3538 8.66815 35.5 11.3351 35.5L36.6648 35.5C38.0255 35.5 39.324 34.9305 40.2408 33.9303C42.0424 31.9645 41.8927 28.9198 39.908 27.1373L27.2169 15.7402C25.3726 14.084 22.564 14.0869 20.7232 15.7469ZM37.9035 29.3694L25.2124 17.9723C24.5101 17.3416 23.4332 17.3427 22.7322 17.9749L10.0937 29.3719C9.71484 29.7136 9.5 30.1949 9.5 30.6986C9.5 31.6901 10.3182 32.5 11.3351 32.5L36.6648 32.5C37.1858 32.5 37.6815 32.2826 38.0291 31.9033C38.7028 31.1683 38.6472 30.0372 37.9035 29.3694Z" fill="#191919" fill-rule="evenodd"/>
</svg>
