<svg viewBox="0 0 48 48" xmlns="http://www.w3.org/2000/svg" xmlns:xlink="http://www.w3.org/1999/xlink" width="48.000000" height="48.000000" fill="none">
  <path id="合并" d="M12.2475 13.5061C12.2475 6.97534 15.338 2.72217 21.5052 2.50854L21.9985 2.5C28.4942 2.5 31.7495 6.80347 31.7495 13.5061L31.744 13.832L31.8535 13.9866C32.5123 15.0129 32.6723 16.3967 32.3103 17.7332L32.1986 18.0962C31.8343 19.1519 31.174 20.0486 30.3469 20.6262C24.6426 22.3958 20.5 27.7141 20.5 34C20.5 36.7588 21.2979 39.3311 22.6756 41.499L5.87433 41.4978C3.74704 41.4116 2.728 40.0713 2.54071 37.9075L2.51904 37.5889L2.50183 37.0488L2.50012 36.5269L2.52069 34.7676C2.51183 31.7517 4.55853 29.5454 8.10632 27.7207L8.59337 27.4775C8.75844 27.3975 8.92679 27.3179 9.1109 27.2332L9.6042 27.0112L10.8607 26.4851L12.0584 26.0198L14.1343 25.2344L14.4861 25.0935L14.9172 24.9109L15.1755 24.7917L15.4344 24.6562C16.1217 24.2456 16.0721 23.6917 14.9474 22.1702L14.7358 21.8872C14.6264 21.7339 14.5204 21.5771 14.4177 21.4167L14.106 20.9021L13.8565 20.7622C13.025 20.2515 12.3417 19.4258 11.926 18.4331L11.7975 18.0962C11.2985 16.6501 11.424 15.104 12.1443 13.9849L12.252 13.832L12.2475 13.5061ZM23.5 34C23.5 27.9249 28.4247 23 34.5 23C40.5749 23 45.5 27.9249 45.5 34C45.5 40.0751 40.5749 45 34.5 45C28.4247 45 23.5 40.0751 23.5 34ZM36.2084 29.9235C35.7533 29.4123 35.7974 28.653 36.3091 28.198C36.8203 27.7431 37.5794 27.7872 38.0346 28.2985L40.3016 30.846C40.401 30.9579 40.4774 31.0839 40.5307 31.2239C40.5841 31.3639 40.6107 31.5087 40.6107 31.6586C40.6107 31.9961 40.4914 32.2842 40.2526 32.5228C40.0139 32.7615 39.7259 32.8808 39.3885 32.8808L29.6111 32.8808C28.9264 32.8808 28.3889 32.3431 28.3889 31.6586C28.3889 30.9741 28.9264 30.4364 29.6111 30.4364L36.6647 30.4364L36.2084 29.9235ZM39.3889 37.5636L32.3349 37.5636L32.7908 38.0763C33.2459 38.5877 33.2018 39.3468 32.6905 39.802C32.1793 40.2569 31.4198 40.2128 30.965 39.7013L28.698 37.154C28.5983 37.0421 28.5219 36.9161 28.4689 36.7761C28.4155 36.6361 28.3889 36.4913 28.3889 36.3414C28.3889 36.0039 28.5082 35.7158 28.747 35.4772C28.8659 35.3582 28.9972 35.2688 29.1408 35.2091C29.2851 35.1492 29.4419 35.1192 29.6111 35.1192L39.3889 35.1192C40.0732 35.1192 40.6111 35.6569 40.6111 36.3414C40.6111 37.0257 40.0732 37.5636 39.3889 37.5636Z" fill="#191919" fill-rule="evenodd"/>
  <path id="矢量 249" d="M34.5 23C28.4247 23 23.5 27.9249 23.5 34C23.5 40.0751 28.4247 45 34.5 45C40.5749 45 45.5 40.0751 45.5 34C45.5 27.9249 40.5749 23 34.5 23ZM36.3091 28.198C35.7974 28.653 35.7533 29.4123 36.2084 29.9235L36.6647 30.4364L29.6111 30.4364C28.9264 30.4364 28.3889 30.9741 28.3889 31.6586C28.3889 32.3431 28.9264 32.8808 29.6111 32.8808L39.3885 32.8808C39.7259 32.8808 40.0139 32.7615 40.2526 32.5228C40.4914 32.2842 40.6107 31.9961 40.6107 31.6586C40.6107 31.5087 40.5841 31.3639 40.5307 31.2239C40.4774 31.0839 40.401 30.9579 40.3016 30.846L38.0346 28.2985C37.5794 27.7872 36.8203 27.7431 36.3091 28.198ZM32.3349 37.5636L39.3889 37.5636C40.0732 37.5636 40.6111 37.0257 40.6111 36.3414C40.6111 35.6569 40.0732 35.1192 39.3889 35.1192L29.6111 35.1192C29.2735 35.1192 28.9854 35.2385 28.747 35.4772C28.5082 35.7158 28.3889 36.0039 28.3889 36.3414C28.3889 36.4913 28.4155 36.6361 28.4689 36.7761C28.5219 36.9161 28.5983 37.0421 28.698 37.154L30.965 39.7013C31.4198 40.2128 32.1793 40.2569 32.6905 39.802C33.2018 39.3468 33.2459 38.5877 32.7908 38.0763L32.3349 37.5636Z" fill="#AEAEAE" fill-rule="evenodd"/>
</svg>
