<svg viewBox="0 0 48 48" xmlns="http://www.w3.org/2000/svg" xmlns:xlink="http://www.w3.org/1999/xlink" width="48.000000" height="48.000000" fill="none">
  <path id="合并" d="M12.7244 19.209C11.8959 19.209 11.2244 18.5374 11.2244 17.709C11.2244 16.9496 11.7887 16.322 12.5208 16.2227L12.7244 16.209L38.9998 16.209L38.9998 14.625C38.9998 13.0649 37.8106 11.784 36.2888 11.6387L35.9998 11.625L11.9998 11.625C10.4397 11.625 9.15878 12.8141 9.01348 14.336L8.99976 14.625L8.99976 36.791C8.99976 38.3511 10.1889 39.632 11.7107 39.7773L11.9998 39.791L35.9998 39.791C37.5598 39.791 38.8407 38.6018 38.986 37.08L38.9998 36.791L38.9998 23.607C38.9998 22.7786 39.6713 22.107 40.4998 22.107C41.2591 22.107 41.8867 22.6713 41.9861 23.4034L41.9998 23.607L41.9998 36.791C41.9998 39.987 39.5026 42.5984 36.3524 42.7808L35.9998 42.791L11.9998 42.791C8.8037 42.791 6.19238 40.2938 6.00994 37.1436L5.99976 36.791L5.99976 14.625C5.99976 11.4289 8.49693 8.81761 11.6471 8.63517L11.9998 8.62498L15.4998 8.62498L15.4998 6.70898C15.4998 5.88056 16.1713 5.20898 16.9998 5.20898C17.7591 5.20898 18.3867 5.77329 18.4861 6.50544L18.4998 6.70898L18.4998 8.62498L29.4998 8.62498L29.4998 6.70898C29.4998 5.88056 30.1713 5.20898 30.9998 5.20898C31.7591 5.20898 32.3867 5.77329 32.4861 6.50544L32.4998 6.70898L32.4998 8.62498L35.9998 8.62498C39.1958 8.62498 41.8071 11.1222 41.9896 14.2724L41.9998 14.625L42.0004 17.709C42.0004 18.4684 41.4361 19.096 40.7039 19.1953L40.4998 19.209L12.7244 19.209ZM25.0298 22.9099C25.5818 22.9099 26.0298 23.3579 26.0298 23.9099L26.0298 25.9099C26.0298 26.4599 25.5818 26.9099 25.0298 26.9099L23.0298 26.9099C22.4778 26.9099 22.0298 26.4599 22.0298 25.9099L22.0298 23.9099C22.0298 23.3579 22.4778 22.9099 23.0298 22.9099L25.0298 22.9099ZM16.9597 22.91C17.5117 22.91 17.9597 23.358 17.9597 23.91L17.9597 25.91C17.9597 26.46 17.5117 26.91 16.9597 26.91L14.9597 26.91C14.4077 26.91 13.9597 26.46 13.9597 25.91L13.9597 23.91C13.9597 23.358 14.4077 22.91 14.9597 22.91L16.9597 22.91ZM34.0298 23.914C34.0298 23.362 33.5818 22.914 33.0298 22.914L31.0298 22.914C30.4778 22.914 30.0298 23.362 30.0298 23.914L30.0298 25.914C30.0298 26.464 30.4778 26.914 31.0298 26.914L33.0298 26.914C33.5818 26.914 34.0298 26.464 34.0298 25.914L34.0298 23.914ZM16.9872 30.91C17.5392 30.91 17.9872 31.358 17.9872 31.91L17.9872 33.91C17.9872 34.46 17.5392 34.91 16.9872 34.91L14.9872 34.91C14.4352 34.91 13.9872 34.46 13.9872 33.91L13.9872 31.91C13.9872 31.358 14.4352 30.91 14.9872 30.91L16.9872 30.91ZM32.9872 30.9506C33.5392 30.9506 33.9872 31.3986 33.9872 31.9506L33.9872 33.9506C33.9872 34.5006 33.5392 34.9506 32.9872 34.9506L30.9872 34.9506C30.4352 34.9506 29.9872 34.5006 29.9872 33.9506L29.9872 31.9506C29.9872 31.3986 30.4352 30.9506 30.9872 30.9506L32.9872 30.9506ZM25.9872 31.9547C25.9872 31.4027 25.5392 30.9547 24.9872 30.9547L22.9872 30.9547C22.4352 30.9547 21.9872 31.4027 21.9872 31.9547L21.9872 33.9547C21.9872 34.5047 22.4352 34.9547 22.9872 34.9547L24.9872 34.9547C25.5392 34.9547 25.9872 34.5047 25.9872 33.9547L25.9872 31.9547Z" fill="#191919" fill-rule="evenodd"/>
  <path id="形状结合" d="M26.0298 23.9099C26.0298 23.3579 25.5818 22.9099 25.0298 22.9099L23.0298 22.9099C22.4778 22.9099 22.0298 23.3579 22.0298 23.9099L22.0298 25.9099C22.0298 26.4599 22.4778 26.9099 23.0298 26.9099L25.0298 26.9099C25.5818 26.9099 26.0298 26.4599 26.0298 25.9099L26.0298 23.9099ZM17.9597 23.91C17.9597 23.358 17.5117 22.91 16.9597 22.91L14.9597 22.91C14.4077 22.91 13.9597 23.358 13.9597 23.91L13.9597 25.91C13.9597 26.46 14.4077 26.91 14.9597 26.91L16.9597 26.91C17.5117 26.91 17.9597 26.46 17.9597 25.91L17.9597 23.91ZM33.0298 22.9141C33.5818 22.9141 34.0298 23.3621 34.0298 23.9141L34.0298 25.9141C34.0298 26.4641 33.5818 26.9141 33.0298 26.9141L31.0298 26.9141C30.4778 26.9141 30.0298 26.4641 30.0298 25.9141L30.0298 23.9141C30.0298 23.3621 30.4778 22.9141 31.0298 22.9141L33.0298 22.9141ZM17.9872 31.91C17.9872 31.358 17.5392 30.91 16.9872 30.91L14.9872 30.91C14.4352 30.91 13.9872 31.358 13.9872 31.91L13.9872 33.91C13.9872 34.46 14.4352 34.91 14.9872 34.91L16.9872 34.91C17.5392 34.91 17.9872 34.46 17.9872 33.91L17.9872 31.91ZM33.9872 31.9506C33.9872 31.3986 33.5392 30.9506 32.9872 30.9506L30.9872 30.9506C30.4352 30.9506 29.9872 31.3986 29.9872 31.9506L29.9872 33.9506C29.9872 34.5006 30.4352 34.9506 30.9872 34.9506L32.9872 34.9506C33.5392 34.9506 33.9872 34.5006 33.9872 33.9506L33.9872 31.9506ZM24.9872 30.9547C25.5392 30.9547 25.9872 31.4027 25.9872 31.9547L25.9872 33.9547C25.9872 34.5047 25.5392 34.9547 24.9872 34.9547L22.9872 34.9547C22.4352 34.9547 21.9872 34.5047 21.9872 33.9547L21.9872 31.9547C21.9872 31.4027 22.4352 30.9547 22.9872 30.9547L24.9872 30.9547Z" fill="#AEAEAE" fill-rule="evenodd"/>
</svg>
