<svg viewBox="0 0 48 48" xmlns="http://www.w3.org/2000/svg" xmlns:xlink="http://www.w3.org/1999/xlink" width="48.000000" height="48.000000" fill="none">
  <path id="形状结合" d="M37.7664 39.6979C38.5948 39.6979 39.2664 40.3695 39.2664 41.1979C39.2664 41.9573 38.7021 42.5849 37.9699 42.6842L37.7664 42.6979L10.2344 42.6979C9.40598 42.6979 8.73441 42.0263 8.73441 41.1979C8.73441 40.4385 9.29871 39.8109 10.0309 39.7116L10.2344 39.6979L37.7664 39.6979ZM26.1991 6.55361L26.328 6.80324L32.7578 21.0048C33.0996 21.7594 32.765 22.6482 32.0104 22.9901C31.3186 23.3034 30.5141 23.0484 30.1215 22.4224L23.9982 8.93052L17.976 22.2422C17.5805 23.1158 16.4943 23.3844 15.7423 22.8483L7.21421 14.7505L10.4029 33.8287C10.4439 34.0741 10.6285 34.2654 10.8621 34.3223L36.9934 34.3397C37.2429 34.3397 37.4622 34.1893 37.5568 33.9687L40.7822 14.7505L36.4373 18.8884C35.8917 19.4076 35.0575 19.4352 34.4813 18.985C33.9621 18.4394 33.7699 17.4558 34.2201 16.8796L39.6786 11.6637C41.3948 10.0223 44.1697 11.4068 43.9933 13.6854L43.9629 13.9329L40.5569 34.3228C40.2833 35.9614 38.9317 37.188 37.302 37.3266L36.9934 37.3397L11.0074 37.3397C9.34614 37.3397 7.9129 36.2095 7.50767 34.6252L7.44393 34.323L4.03558 13.9309C3.64804 11.5917 6.34856 10.0719 8.13223 11.4972L16.1122 19.0805L21.6722 6.80027C22.5421 4.88927 25.1787 4.80619 26.1991 6.55361Z" fill="#191919" fill-rule="evenodd"/>
  <path id="形状结合" d="M37.7664 39.6979C38.5948 39.6979 39.2664 40.3695 39.2664 41.1979C39.2664 41.9573 38.7021 42.5849 37.9699 42.6842L37.7664 42.6979L10.2344 42.6979C9.40595 42.6979 8.73438 42.0264 8.73438 41.1979C8.73438 40.4386 9.29868 39.811 10.0308 39.7116L10.2344 39.6979L37.7664 39.6979Z" fill="#AEAEAE" fill-rule="evenodd"/>
</svg>
