<svg viewBox="0 0 48 48" xmlns="http://www.w3.org/2000/svg" xmlns:xlink="http://www.w3.org/1999/xlink" width="48.000000" height="48.000000" fill="none">
  <path id="形状结合" d="M27 36L27.3 36.0263C28.2892 36.2039 29 37.0304 29 38C29 39.1046 28.1046 40 27 40L8 40L7.68 39.9738C6.69044 39.7963 6 38.9707 6 38C6 36.8954 6.89543 36 8 36L27 36ZM34 8C35.0033 8 35.8479 8.74053 35.9851 9.76L36 10L36.002 33.166L38.5858 30.5828C39.2305 29.9381 40.2168 29.8195 41.0085 30.2743L41.2192 30.4126C41.9225 31.1159 42.1946 32.3959 41.6074 33.1874L41.4142 33.4112L35.4142 39.4112C34.236 40.5895 32.2276 39.8899 32.0141 38.2341L32 37.997L32 10C32 8.89543 32.8954 8 34 8ZM27 22L27.3 22.0263C28.2892 22.2039 29 23.0304 29 24C29 25.1046 28.1046 26 27 26L8 26L7.68 25.9738C6.69044 25.7963 6 24.9707 6 24C6 22.8954 6.89543 22 8 22L27 22ZM27 8L27.3 8.02631C28.2892 8.20394 29 9.03036 29 10C29 11.1046 28.1046 12 27 12L8 12L7.68 11.9738C6.69044 11.7963 6 10.9707 6 10C6 8.89543 6.89543 8 8 8L27 8Z" fill="#191919" fill-rule="evenodd"/>
  <path id="形状结合" d="M34 8C35.0033 8 35.8479 8.74053 35.9851 9.76L36 10L36.002 33.166L38.5858 30.5828C39.2305 29.9381 40.2168 29.8195 41.0085 30.2743L41.2192 30.4126C41.9225 31.1159 42.1946 32.3959 41.6074 33.1874L41.4142 33.4112L35.4142 39.4112C34.236 40.5895 32.2276 39.8899 32.0141 38.2341L32 37.997L32 10C32 8.89543 32.8954 8 34 8Z" fill="#AEAEAE" fill-rule="evenodd"/>
</svg>
