<svg viewBox="0 0 48 48" xmlns="http://www.w3.org/2000/svg" xmlns:xlink="http://www.w3.org/1999/xlink" width="48.000000" height="48.000000" fill="none">
  <path id="减去顶层" d="M22.0051 4.00846C15.8379 4.22227 12.7474 8.47538 12.7474 15.0061L12.7519 15.332L12.6442 15.485C11.9239 16.6041 11.7984 18.1502 12.2974 19.5962L12.4259 19.9331C12.8416 20.9259 13.5249 21.7515 14.3564 22.2621L14.6059 22.402L14.9175 22.9167C15.0202 23.0771 15.1263 23.234 15.2357 23.3872L15.4473 23.6701C16.5719 25.1917 16.6216 25.7457 15.9343 26.1562L15.6754 26.2918L15.4171 26.4109L14.986 26.5936L14.6342 26.7343L12.5582 27.5198L11.3605 27.9852L10.1041 28.5112L9.61078 28.7332C9.42667 28.8179 9.25832 28.8975 9.09324 28.9776L8.6062 29.2208C5.05841 31.0454 3.0117 33.2517 3.02058 36.2676L3 38.0269L3.00171 38.5488L3.01892 39.0888L3.04059 39.4075C3.22788 41.5712 4.24692 42.9115 6.37421 42.9979L24.2011 42.9991C21.6085 40.4581 20 36.9169 20 33C20 25.6527 25.6598 19.6273 32.8574 19.046C33.1562 17.7684 32.9815 16.4651 32.3533 15.4866L32.2439 15.332L32.2494 15.0061C32.2494 8.30352 28.994 4 22.4984 4L22.0051 4.00846Z" fill="#191919" fill-rule="evenodd"/>
  <path id="合并" d="M34 22C40.0751 22 45 26.9249 45 33C45 39.0751 40.0751 44 34 44C27.9249 44 23 39.0751 23 33C23 26.9249 27.9249 22 34 22ZM34.5786 31.5021L33.6117 30.6075C32.9953 30.0362 32.9592 29.1036 33.5298 28.4873C34.1004 27.8711 35.0331 27.835 35.6495 28.4053L39.4264 31.9016C39.4406 31.9142 39.4545 31.9279 39.4681 31.9416C39.4818 31.9553 39.4952 31.9689 39.5083 31.9836C39.7897 32.2873 39.9224 32.6457 39.9064 33.0598C39.8984 33.2673 39.8542 33.4581 39.7739 33.6322C39.6939 33.8056 39.5781 33.9625 39.4264 34.1028L35.6495 37.5991C35.0331 38.1694 34.1004 38.1333 33.5298 37.5171C32.9592 36.9008 32.9953 35.9682 33.6117 35.3968L34.5786 34.5023L29.9095 34.5023C29.0695 34.5023 28.4095 33.8421 28.4095 33.0022C28.4095 32.1623 29.0695 31.5021 29.9095 31.5021L34.5786 31.5021Z" fill="#AEAEAE" fill-rule="evenodd"/>
</svg>
