<svg viewBox="0 0 48 48" xmlns="http://www.w3.org/2000/svg" xmlns:xlink="http://www.w3.org/1999/xlink" width="48.000000" height="48.000000" fill="none">
  <g id="ic_huawei_cloud_store_new-新店/base/ic_huawei_cloud_store_new">
    <path id="减去顶层" d="M7.37592 22.8471C7.86486 22.9468 8.37882 23 8.90909 23C11.0673 23 12.9553 22.1191 13.9865 20.8037C15.0972 22.1191 17.1303 23 19.4546 23C21.6872 23 23.6513 22.1865 24.787 20.957C25.2616 21.576 25.9544 22.0932 26.7891 22.4523C23.8275 24.3405 21.7146 27.4418 21.1502 31.0561C20.217 31.8584 19.6259 33.0477 19.6259 34.375L19.6259 41.375L12.6259 41.375C9.72642 41.375 7.37592 39.0245 7.37592 36.125L7.37592 22.8471L7.37592 22.8471Z" fill="#191919" fill-rule="evenodd"/>
    <path id="path7" d="M13.9384 16.0249C13.9384 18.7431 11.6858 20.9467 8.90717 20.9467C6.12848 20.9467 3.87592 18.7431 3.87592 16.0249C3.87592 15.754 3.89827 15.4883 3.94128 15.2294L3.96365 15.0846L6.6032 7.07047C7.06321 5.61466 8.4138 4.625 9.94056 4.625L38.0613 4.625C39.588 4.625 40.9386 5.61466 41.3986 7.07047L44.0467 15.1285L44.0668 15.2755C44.1062 15.6035 44.1259 15.8533 44.1259 16.0249C44.1259 18.7431 41.8734 20.9467 39.0947 20.9467C36.316 20.9467 34.0634 18.7431 34.0634 16.0249M24.0009 16.0249C24.0009 18.7431 21.7484 20.9467 18.9697 20.9467C16.2704 20.9467 14.0676 18.8673 13.9439 16.2566L13.9384 16.0249M34.0634 16.0249C34.0634 18.7431 31.8109 20.9467 29.0322 20.9467C26.3329 20.9467 24.1301 18.8673 24.0064 16.2566L24.0009 16.0249" fill="#191919" fill-rule="evenodd"/>
  </g>
  <path id="减去顶层" d="M33.5 23C27.701 23 23 27.701 23 33.5C23 39.299 27.701 44 33.5 44C39.299 44 44 39.299 44 33.5C44 27.701 39.299 23 33.5 23ZM26.5 36.624L26.5 30.9199C26.5247 30.4834 26.7633 30.2393 27.2156 30.1875C27.4362 30.2004 27.6059 30.2651 27.7248 30.3816C27.8496 30.504 27.9184 30.6834 27.9313 30.9199L27.9313 33.04L30.3037 30.457C30.4556 30.3027 30.6554 30.207 30.8687 30.1875C31.2953 30.2646 31.5339 30.5088 31.5843 30.9199C31.5843 31.1514 31.4212 31.4082 31.0948 31.6904L29.2871 33.541L31.5089 35.8916C31.5107 35.9219 31.5243 35.9492 31.5467 35.9688C31.7974 36.252 31.9229 36.4834 31.9232 36.6631C31.898 37.0732 31.6469 37.2793 31.17 37.2793C30.9189 37.2793 30.6678 37.1504 30.4168 36.8936L27.9313 34.1191L27.9313 36.624C27.8806 37.0605 27.6423 37.2793 27.2163 37.2793C26.7386 37.2793 26.4998 37.0605 26.5 36.624ZM39.069 30.958C39.069 30.4707 39.3074 30.2139 39.7844 30.1875C40.2364 30.2139 40.4749 30.4707 40.5 30.958L40.5 36.5859C40.4748 37.0479 40.2362 37.2793 39.7844 37.2793C39.3071 37.2793 39.0687 37.0479 39.069 36.5859L39.069 30.958ZM33.048 31.0332L33.048 36.584C33.048 36.8076 33.1039 36.9766 33.2158 37.0928C33.335 37.2158 33.5179 37.2773 33.7644 37.2773C33.9844 37.2773 34.1539 37.2227 34.2727 37.1123C34.398 36.9971 34.467 36.8213 34.48 36.584L34.48 34.9648L35.5338 34.9648C37.0399 34.8623 37.8434 34.0781 37.9441 32.6133C37.8962 31.9189 37.6875 31.3779 37.3179 30.9893L37.3163 30.9875C36.9066 30.5579 36.2998 30.3163 35.4959 30.2627L33.7636 30.2627C33.5304 30.2754 33.3541 30.3438 33.2349 30.4668C33.1103 30.5947 33.048 30.7842 33.048 31.0332ZM34.4793 31.5752L34.4793 33.6562L35.4583 33.6562C35.724 33.6451 35.9359 33.5714 36.0942 33.4354C36.2951 33.2628 36.4095 32.9897 36.4377 32.6162C36.387 31.9746 36.0606 31.6279 35.4583 31.5752L34.4793 31.5752Z" fill="#AEAEAE" fill-rule="evenodd"/>
</svg>
