<svg viewBox="0 0 48 48" xmlns="http://www.w3.org/2000/svg" xmlns:xlink="http://www.w3.org/1999/xlink" width="48.000000" height="48.000000" fill="none">
  <path id="Fill-1" d="M41 33.8555C40.488 33.8555 39.976 33.6595 39.586 33.2695L24.708 18.3915C24.452 18.1355 24.154 18.0975 24 18.0975C23.846 18.0975 23.548 18.1355 23.294 18.3915L8.41401 33.2695C7.63201 34.0515 6.36801 34.0515 5.58601 33.2695C4.80401 32.4875 4.80401 31.2235 5.58601 30.4415L20.464 15.5635C22.352 13.6715 25.648 13.6715 27.536 15.5635L42.414 30.4415C43.196 31.2235 43.196 32.4875 42.414 33.2695C42.024 33.6595 41.512 33.8555 41 33.8555Z" fill="#191919" fill-rule="evenodd"/>
</svg>
