<svg viewBox="0 0 48 48" xmlns="http://www.w3.org/2000/svg" xmlns:xlink="http://www.w3.org/1999/xlink" width="48.000000" height="48.000000" fill="none">
  <path id="矢量 144" d="M32.6004 4C36.0798 4 38.9005 6.89279 38.9005 10.4612L38.9012 16.1074C37.9429 15.7172 36.939 15.4192 35.9002 15.2242L35.9005 10.4612C35.9005 8.59204 34.423 7.07678 32.6004 7.07678L12.2 7.07678C10.3775 7.07678 8.90002 8.59204 8.90002 10.4612L8.90002 37.5369C8.90002 39.4061 10.3775 40.9213 12.2 40.9213L19.9916 40.921C20.793 42.0663 21.7346 43.1015 22.7906 44L12.2 43.9981C8.72061 43.9981 5.90002 41.1053 5.90002 37.5369L5.90002 10.4612C5.90002 6.89279 8.72061 4 12.2 4L32.6004 4ZM30.5 13C30.5 12.1716 29.8285 11.5 29 11.5L15 11.5L14.7965 11.5137C14.0643 11.613 13.5 12.2406 13.5 13C13.5 13.8284 14.1716 14.5 15 14.5L29 14.5L29.2036 14.4863C29.9357 14.387 30.5 13.7594 30.5 13ZM22 17.5C22.8284 17.5 23.5 18.1716 23.5 19C23.5 19.7594 22.9357 20.387 22.2036 20.4863L22 20.5L15 20.5C14.1716 20.5 13.5 19.8284 13.5 19C13.5 18.2406 14.0643 17.613 14.7965 17.5137L15 17.5L22 17.5ZM45.5 31C45.5 24.0964 39.9036 18.5 33 18.5C26.0965 18.5 20.5 24.0964 20.5 31C20.5 37.9036 26.0965 43.5 33 43.5C39.9036 43.5 45.5 37.9036 45.5 31ZM33 21.5C27.7533 21.5 23.5 25.7533 23.5 31C23.5 36.2467 27.7533 40.5 33 40.5C38.2467 40.5 42.5 36.2467 42.5 31C42.5 25.7533 38.2467 21.5 33 21.5ZM39.2022 29.3975C39.6403 28.8121 39.5954 27.9786 39.0651 27.4438C38.4818 26.8556 37.5321 26.8516 36.9438 27.4349L31.948 32.3861L29.0562 29.5186C28.4672 29.0854 27.4652 28.9928 26.9349 29.5275C26.3516 30.1158 26.3556 31.0655 26.9438 31.6488L30.8932 35.5651C31.4786 35.9964 32.474 36.0923 33.0056 35.5651L39.2022 29.3975Z" fill="#191919" fill-rule="evenodd"/>
  <path id="矢量 145" d="M45.5 31C45.5 24.0964 39.9035 18.5 33 18.5C26.0964 18.5 20.5 24.0964 20.5 31C20.5 37.9036 26.0964 43.5 33 43.5C39.9035 43.5 45.5 37.9036 45.5 31ZM33 21.5C27.7533 21.5 23.5 25.7533 23.5 31C23.5 36.2467 27.7533 40.5 33 40.5C38.2467 40.5 42.5 36.2467 42.5 31C42.5 25.7533 38.2467 21.5 33 21.5ZM39.2021 29.3975C39.6403 28.8121 39.5954 27.9786 39.0651 27.4438C38.4818 26.8556 37.532 26.8516 36.9438 27.4349L31.948 32.3861L29.0562 29.5186C28.4671 29.0854 27.4652 28.9928 26.9349 29.5275C26.3516 30.1158 26.3556 31.0655 26.9438 31.6488L30.8931 35.5651C31.4785 35.9964 32.4739 36.0923 33.0055 35.5651L39.2021 29.3975Z" fill="#AEAEAE" fill-rule="evenodd"/>
</svg>
