<svg viewBox="0 0 48 48" xmlns="http://www.w3.org/2000/svg" xmlns:xlink="http://www.w3.org/1999/xlink" width="48.000000" height="48.000000" fill="none">
  <path id="Path" d="M37.8469 10.0229L37.8469 17.5454C37.8469 18.3738 37.1753 19.0454 36.3469 19.0454C35.5876 19.0454 34.96 18.4812 34.8606 17.749L34.8469 17.5454L34.8469 10.0151C34.8469 8.35828 33.5037 7.01514 31.8469 7.01514L11.0029 7.01514C9.4436 7.01514 8.16211 8.20532 8.0166 9.72632L8.00293 10.0151L8.00293 37.9431C8.00293 39.5021 9.19287 40.7839 10.7141 40.9294L11.0029 40.9431L18.895 40.9431C19.7234 40.9431 20.395 41.6147 20.395 42.4431C20.395 43.2025 19.8306 43.8301 19.0984 43.9294L18.895 43.9431L11.0029 43.9431C7.80737 43.9431 5.19556 41.4447 5.01318 38.2957L5.00293 37.9431L5.00293 10.0151C5.00293 6.82043 7.50073 4.20776 10.6504 4.02515L11.0029 4.01514L31.8494 4.02295C35.1621 4.02295 37.8469 6.71021 37.8469 10.0229ZM13.9634 12.1755L29.9634 12.1755C30.7917 12.1755 31.4634 12.8472 31.4634 13.6755C31.4634 14.504 30.7917 15.1755 29.9634 15.1755L13.9634 15.1755C13.1348 15.1755 12.4634 14.504 12.4634 13.6755C12.4634 12.8472 13.1348 12.1755 13.9634 12.1755ZM13.9634 20.1853L21.9634 20.1853C22.7917 20.1853 23.4634 20.8569 23.4634 21.6853C23.4634 22.5138 22.7917 23.1853 21.9634 23.1853L13.9634 23.1853C13.1348 23.1853 12.4634 22.5138 12.4634 21.6853C12.4634 20.8569 13.1348 20.1853 13.9634 20.1853Z" fill="#191919" fill-rule="evenodd"/>
  <path id="Path" d="M39.2054 28.5723C38.1599 29.6178 36.4648 29.6178 35.4193 28.5723C34.3738 27.5268 34.3738 25.8317 35.4193 24.7861L36.0755 24.13C36.827 23.3784 37.2108 22.9963 37.2934 22.5907C37.3618 22.2549 37.2962 21.9113 37.1044 21.649C36.86 21.3149 36.3488 21.1374 35.2739 21.037C35.011 21.0124 34.7464 21 34.4812 21C29.7764 21 25.9623 24.814 25.9623 29.5188C25.9623 30.3795 26.09 31.2103 26.3273 31.9934L22.1762 36.1446C20.6079 37.7128 20.6079 40.2555 22.1762 41.8238C23.7445 43.3921 26.2871 43.3921 27.8554 41.8238L32.0066 37.6727C32.7897 37.91 33.6205 38.0377 34.4812 38.0377C39.186 38.0377 43 34.2236 43 29.5188C43 29.2527 42.9875 28.9873 42.9628 28.7235C42.8618 27.6464 42.6821 27.1333 42.3487 26.8885C42.086 26.6955 41.7419 26.6282 41.4059 26.6952C41.0003 26.7761 40.6183 27.1594 39.8679 27.9099L39.2054 28.5723ZM33.4114 30.5802C31.7955 28.9644 31.7955 26.6792 31.7955 26.6792C31.7955 25.3435 32.3476 24.2364 32.3476 24.2364C31.3163 24.652 30.4654 25.503 30.4654 25.503C28.802 27.1664 28.802 29.5188 28.802 29.5188C28.802 30.3683 29.0449 31.1698 29.0449 31.1698L29.5384 32.7982L24.1841 38.1525C23.3524 38.9842 24.1841 39.8159 24.1841 39.8159C25.0158 40.6476 25.8475 39.8159 25.8475 39.8159L31.2018 34.4616L32.8302 34.9551C33.6317 35.198 34.4812 35.198 34.4812 35.198C36.8336 35.198 38.497 33.5346 38.497 33.5346C39.3545 32.6771 39.7699 31.6365 39.7699 31.6365C38.657 32.196 37.3123 32.196 37.3123 32.196C35.0272 32.196 33.4114 30.5802 33.4114 30.5802Z" fill="#AEAEAE" fill-rule="evenodd"/>
</svg>
