<svg viewBox="0 0 48 48" xmlns="http://www.w3.org/2000/svg" xmlns:xlink="http://www.w3.org/1999/xlink" width="48.000000" height="48.000000" fill="none">
  <path id="合并" d="M25.2662 4.05971C25.1798 4.04422 25.0908 4.03613 25 4.03613L11.078 4.03613C7.77 4.03613 5.078 6.72813 5.078 10.0361L5.078 37.9641C5.078 41.2721 7.77 43.9641 11.078 43.9641L30.922 43.9641C34.23 43.9641 36.922 41.2721 36.922 37.9641L36.922 31.9901C36.922 31.1621 36.25 30.4901 35.422 30.4901C34.594 30.4901 33.922 31.1621 33.922 31.9901L33.922 37.9641C33.922 39.6181 32.576 40.9641 30.922 40.9641L11.078 40.9641C9.424 40.9641 8.078 39.6181 8.078 37.9641L8.078 10.0361C8.078 8.38213 9.424 7.03613 11.078 7.03613L23.498 7.03413L23.5 13.0011C23.5 15.4811 25.518 17.5011 28 17.5011L35.422 17.5011C36.028 17.5011 36.574 17.1351 36.806 16.5771C37.04 16.0171 36.912 15.3731 36.484 14.9431L26.0755 4.49082C26.022 4.43582 25.7937 4.27325 25.7337 4.22745C25.7061 4.21199 25.4955 4.12373 25.4683 4.11077C25.4225 4.09571 25.3138 4.06968 25.2662 4.05971ZM26.5 13.0011L26.5 9.16913L31.81 14.5011L28 14.5011C27.172 14.5011 26.5 13.8271 26.5 13.0011ZM12.7692 18.5384C12.4614 18.5384 12.169 18.4922 11.8919 18.3999C11.7167 18.3415 11.5476 18.2646 11.3846 18.1692C11.1982 18.0601 11.0284 17.9333 10.8752 17.7889L10.8752 17.7888L10.8751 17.7887L10.875 17.7887C10.6828 17.6074 10.5168 17.3984 10.3769 17.1615C10.2663 16.9742 10.1801 16.7794 10.1181 16.5771L10.1181 16.577C10.0394 16.3198 10 16.0505 10 15.7692C10 15.539 10.028 15.3161 10.0841 15.1005C10.1479 14.855 10.2481 14.6189 10.3846 14.3923C10.5185 14.1701 10.6754 13.9716 10.8554 13.797C11.0201 13.637 11.2042 13.497 11.4077 13.3769C11.6588 13.2287 11.9198 13.1241 12.1905 13.0634C12.3787 13.0211 12.5716 13 12.7692 13C13.077 13 13.3694 13.0462 13.6465 13.1385L13.6465 13.1385L13.6466 13.1385C13.8218 13.197 13.9909 13.2739 14.1538 13.3692C14.3403 13.4784 14.5101 13.6051 14.6632 13.7496C14.8555 13.9309 15.0216 14.14 15.1615 14.3769C15.2721 14.5643 15.3584 14.7591 15.4203 14.9614L15.4203 14.9615L15.4204 14.9616C15.4991 15.2188 15.5384 15.488 15.5384 15.7692C15.5384 16.0505 15.499 16.3198 15.4203 16.577L15.4202 16.5772C15.3583 16.7794 15.2721 16.9742 15.1615 17.1615C15.0217 17.3983 14.8557 17.6074 14.6635 17.7886L14.6633 17.7888L14.6633 17.7888C14.5101 17.9333 14.3403 18.06 14.1538 18.1692C13.9909 18.2646 13.8218 18.3414 13.6466 18.3999L13.6465 18.3999C13.3694 18.4922 13.077 18.5384 12.7692 18.5384ZM20.1539 13.2315L10.4617 24.4621L11.8463 25.8467L21.5385 14.6315L20.1539 13.2315ZM12.7696 16.7703C12.8763 16.7703 12.9776 16.7543 13.0736 16.7223L13.0736 16.7223C13.2176 16.6743 13.3496 16.5903 13.4696 16.4703C13.5896 16.3503 13.6736 16.2183 13.7216 16.0743C13.7536 15.9783 13.7696 15.8769 13.7696 15.7703C13.7696 15.6636 13.7536 15.5623 13.7216 15.4663C13.6736 15.3223 13.5896 15.1903 13.4696 15.0703C13.3496 14.9503 13.2176 14.8663 13.0736 14.8183L13.0735 14.8182C12.9775 14.7863 12.8762 14.7703 12.7696 14.7703C12.663 14.7703 12.5616 14.7863 12.4656 14.8183C12.3216 14.8663 12.1896 14.9503 12.0696 15.0703C11.9496 15.1903 11.8656 15.3223 11.8176 15.4663L11.8176 15.4665C11.7856 15.5624 11.7696 15.6637 11.7696 15.7703C11.7696 15.8769 11.7856 15.9783 11.8176 16.0743L11.8177 16.0743C11.8657 16.2183 11.9496 16.3503 12.0696 16.4703C12.1896 16.5903 12.3216 16.6743 12.4656 16.7223C12.5616 16.7543 12.663 16.7703 12.7696 16.7703ZM17.8462 25.7085C18.0091 25.8039 18.1782 25.8808 18.3535 25.9392C18.6305 26.0315 18.923 26.0777 19.2308 26.0777C19.5386 26.0777 19.831 26.0315 20.1081 25.9392C20.2833 25.8808 20.4524 25.8039 20.6154 25.7085C21.0359 25.4623 21.3718 25.1264 21.6231 24.7008C21.7337 24.5134 21.82 24.3186 21.8819 24.1163C21.9606 23.8591 22 23.5898 22 23.3085C22 23.0272 21.9606 22.7579 21.8819 22.5007C21.82 22.2984 21.7337 22.1036 21.6231 21.9162C21.3718 21.4906 21.0359 21.1547 20.6154 20.9085C20.4524 20.8131 20.2833 20.7362 20.1081 20.6778C19.831 20.5855 19.5386 20.5393 19.2308 20.5393C19.0332 20.5393 18.8403 20.5604 18.6521 20.6026C18.3813 20.6634 18.1204 20.7679 17.8693 20.9162C17.4436 21.1675 17.1026 21.5059 16.8462 21.9316C16.7097 22.1582 16.6095 22.3942 16.5457 22.6398C16.4896 22.8554 16.4616 23.0783 16.4616 23.3085C16.4616 23.5898 16.501 23.8591 16.5797 24.1163C16.6416 24.3186 16.7279 24.5134 16.8385 24.7008C17.0898 25.1264 17.4257 25.4623 17.8462 25.7085ZM19.2312 24.308C19.4979 24.308 19.7312 24.208 19.9312 24.008C20.0512 23.888 20.1352 23.756 20.1832 23.612C20.2152 23.516 20.2312 23.4146 20.2312 23.308C20.2312 23.0413 20.1312 22.808 19.9312 22.608C19.7312 22.408 19.4979 22.308 19.2312 22.308C18.9646 22.308 18.7312 22.408 18.5312 22.608C18.3312 22.808 18.2312 23.0413 18.2312 23.308C18.2312 23.4146 18.2472 23.516 18.2792 23.612C18.3272 23.756 18.4112 23.888 18.5312 24.008C18.7312 24.208 18.9646 24.308 19.2312 24.308Z" fill="#191919" fill-rule="evenodd"/>
  <path id="矢量 1706" d="M42.0064 20.892L27.0144 35.884C26.9063 35.9933 26.7859 36.0894 26.656 36.1702L26.4543 36.28L18.1624 40.1899C17.9443 40.292 17.7224 40.338 17.5103 40.338C16.5447 40.338 15.7532 39.3729 16.0715 38.3756L20.0584 29.884C20.1238 29.7467 20.2051 29.6156 20.3005 29.4954L35.4463 14.332C36.3342 13.444 37.5002 13 38.6704 13C39.8604 13 41.0544 13.458 41.9663 14.3719C43.696 16.1017 43.791 18.8408 42.2393 20.6414L42.0064 20.892ZM38.6704 16C38.4551 16.0159 38.0305 16.0862 37.7388 16.3042L37.1868 16.8337L39.5049 19.1517L39.8862 18.772C40.2258 18.4326 40.3154 18.0374 40.334 17.7764C40.332 17.3384 40.1604 16.806 39.8464 16.4919C39.5283 16.176 39.1104 16 38.6704 16ZM35.0647 18.9537L22.6982 31.322L20.6284 35.708L25.0164 33.64L37.3848 21.2717L35.0647 18.9537Z" fill="#AEAEAE" fill-rule="evenodd"/>
</svg>
