<svg viewBox="0 0 48 48" xmlns="http://www.w3.org/2000/svg" xmlns:xlink="http://www.w3.org/1999/xlink" width="48.000000" height="48.000000">
  <path id="减去顶层" d="M37 14.5L9.5 14.5C8.66 14.5 8 15.16 8 16C8 16.84 8.66 17.5 9.5 17.5L37.5 17.5C37.6765 17.5 37.8491 17.4821 38.018 17.4464C38.1731 17.4136 38.3249 17.3658 38.4736 17.3029C38.6195 17.2412 38.7573 17.1671 38.8868 17.0807C39.0229 16.99 39.1499 16.8857 39.2678 16.7678C39.3857 16.6499 39.49 16.5229 39.5807 16.3869C39.6671 16.2573 39.7412 16.1196 39.8029 15.9736C39.8658 15.8249 39.9136 15.6731 39.9464 15.518C39.9821 15.3491 40 15.1765 40 15L40 14C40 13.4481 39.942 12.909 39.8261 12.3826C39.7285 11.9394 39.5898 11.5053 39.41 11.0802C39.2296 10.6536 39.0139 10.2503 38.763 9.87027C38.486 9.45073 38.1661 9.05954 37.8033 8.6967C37.4405 8.33386 37.0493 8.01396 36.6297 7.737C36.2497 7.4861 35.8464 7.27043 35.4198 7.09C34.9947 6.91022 34.5606 6.77152 34.1175 6.67391C33.5911 6.55797 33.0519 6.5 32.5 6.5L11.5 6.5C10.9481 6.5 10.4089 6.55797 9.88256 6.67391L9.88255 6.67391C9.43938 6.77152 9.00527 6.91022 8.5802 7.09C8.15363 7.27043 7.75032 7.48609 7.37027 7.73698L7.37027 7.73699L7.37026 7.73699C6.95073 8.01395 6.55954 8.33386 6.1967 8.6967C5.83386 9.05954 5.51395 9.45073 5.23698 9.87027L5.23698 9.87028L5.23698 9.87028L5.23696 9.87031C4.98607 10.2503 4.77042 10.6536 4.59 11.0802C4.41023 11.5052 4.27154 11.9393 4.17393 12.3824L4.17393 12.3825L4.17391 12.3825C4.05797 12.9089 4 13.4481 4 14L4 34C4 34.5519 4.05797 35.0911 4.1739 35.6174C4.27151 36.0606 4.41021 36.4947 4.59 36.9198C4.77044 37.3464 4.98613 37.7498 5.23705 38.1298C5.514 38.5493 5.83389 38.9405 6.1967 39.3033C6.55954 39.6661 6.95073 39.986 7.37027 40.263C7.75032 40.5139 8.15363 40.7296 8.5802 40.91C9.00529 41.0898 9.43943 41.2285 9.88262 41.3261L9.88412 41.3264C10.41 41.4421 10.9486 41.5 11.5 41.5L16.4457 41.5C15.6609 40.6912 15.1577 39.6288 15.0399 38.5L11.5 38.5C11.1508 38.5 10.8105 38.4616 10.4791 38.3847C10.2307 38.3271 9.98726 38.2478 9.74886 38.147C9.5019 38.0425 9.26784 37.9183 9.04668 37.7742L9.04659 37.7742C8.7858 37.6043 8.54294 37.4069 8.31802 37.182C8.09311 36.9571 7.89573 36.7142 7.72587 36.4535C7.58178 36.2323 7.45749 35.9982 7.35302 35.7511C7.25218 35.5127 7.17295 35.2693 7.11532 35.0209L7.11529 35.0208C7.03843 34.6894 7 34.3492 7 34L7 14C7 13.6508 7.03844 13.3105 7.11532 12.9791C7.17295 12.7307 7.25218 12.4873 7.35302 12.2489C7.45747 12.0019 7.58173 11.7678 7.72579 11.5467C7.89567 11.2858 8.09308 11.043 8.31802 10.818C8.54296 10.5931 8.78584 10.3957 9.04664 10.2258C9.26782 10.0817 9.50189 9.95748 9.74886 9.85302C9.98727 9.75218 10.2307 9.67294 10.4791 9.61531C10.8105 9.53844 11.1508 9.5 11.5 9.5L32.5 9.5C32.8492 9.5 33.1895 9.53843 33.5209 9.6153L33.5209 9.61532C33.7693 9.67295 34.0127 9.75218 34.2511 9.85302C34.4981 9.95747 34.7322 10.0817 34.9533 10.2258C35.2141 10.3957 35.457 10.5931 35.682 10.818C35.9069 11.0429 36.1043 11.2858 36.2742 11.5466C36.4182 11.7678 36.5425 12.0019 36.647 12.2489C36.7478 12.4873 36.8271 12.7307 36.8847 12.9792C36.9616 13.3105 37 13.6508 37 14L37 14.5Z" fill="var(--tiny-first-color, #191919)" fill-rule="evenodd"/>
  <path id="合并" d="M21.551 41.4097C21.5437 41.4082 21.5365 41.4067 21.5293 41.4052C21.4263 41.3835 21.3241 41.3581 21.2226 41.329C21.0277 41.2731 20.8385 41.2043 20.6548 41.1225C20.4772 41.0435 20.3048 40.9523 20.1376 40.8491C20.0038 40.7665 19.875 40.6772 19.7513 40.5812C19.5718 40.4419 19.403 40.2886 19.2448 40.1212C19.1407 40.0109 19.0426 39.8961 18.9504 39.7767C18.9392 39.7621 18.928 39.7474 18.9169 39.7326C18.7912 39.5654 18.677 39.3894 18.5744 39.2044C18.4782 39.031 18.3938 38.8529 18.3213 38.67C18.3165 38.6578 18.3117 38.6455 18.3069 38.6332C18.2457 38.4749 18.1933 38.313 18.1498 38.1477C18.0919 37.9278 18.0508 37.7061 18.0264 37.4826C18.026 37.4785 18.0256 37.4745 18.0252 37.4705C18.0085 37.3135 18.0001 37.1556 18 36.9968C17.9999 36.7984 18.0127 36.6019 18.0384 36.407C18.0649 36.2057 18.1053 36.0062 18.1594 35.8086C18.1876 35.7057 18.2193 35.6042 18.2546 35.5039C18.3573 35.2118 18.4899 34.9305 18.6524 34.66L27.2047 20.4298C27.4386 20.0406 27.716 19.7004 28.0367 19.4094C28.2908 19.1788 28.5721 18.979 28.8807 18.8101C29.1856 18.6431 29.501 18.5148 29.8266 18.4252C29.8355 18.4228 29.8444 18.4204 29.8533 18.418C30.2222 18.319 30.6045 18.2695 31 18.2695C31.3956 18.2695 31.7778 18.319 32.1469 18.418C32.1557 18.4204 32.1645 18.4228 32.1734 18.4252C32.4991 18.5148 32.8144 18.6431 33.1193 18.8101C33.4279 18.979 33.7092 19.1788 33.9633 19.4094C34.284 19.7004 34.5614 20.0406 34.7953 20.4298L43.3476 34.66C43.5102 34.9305 43.6428 35.2119 43.7455 35.5041C43.7807 35.6043 43.8124 35.7058 43.8406 35.8086C43.8947 36.0061 43.935 36.2054 43.9616 36.4066C43.9873 36.6016 44.0001 36.7983 44 36.9968C43.9999 37.1557 43.9915 37.3138 43.9748 37.4709C43.9507 37.6984 43.9091 37.924 43.8502 38.1477C43.8067 38.3131 43.7543 38.475 43.693 38.6334C43.6174 38.8291 43.5282 39.0194 43.4256 39.2044C43.323 39.3893 43.2088 39.5654 43.0831 39.7326C42.9814 39.8679 42.8721 39.9975 42.7552 40.1212C42.5971 40.2885 42.4283 40.4418 42.249 40.581C42.1252 40.6771 41.9963 40.7664 41.8624 40.8491C41.6951 40.9524 41.5226 41.0436 41.3449 41.1227C41.1613 41.2043 40.9722 41.2731 40.7774 41.329C40.676 41.3581 40.5739 41.3834 40.471 41.4051C40.1713 41.4682 39.865 41.4997 39.5523 41.4997L22.4477 41.4997C22.1426 41.4997 21.8437 41.4697 21.551 41.4097ZM22.4477 38.4997L39.5523 38.4997C39.7459 38.4997 39.9268 38.4667 40.0951 38.4006C40.173 38.37 40.2481 38.3323 40.3205 38.2876C40.4043 38.2359 40.4816 38.177 40.5523 38.1109C40.6664 38.0042 40.7634 37.8787 40.8434 37.7346C40.9221 37.5927 40.977 37.4459 41.0079 37.2943C41.0084 37.2919 41.0089 37.2895 41.0093 37.2872C41.0283 37.1916 41.0379 37.0941 41.0379 36.9947C41.038 36.9088 41.0307 36.8242 41.016 36.741C40.9842 36.561 40.918 36.3873 40.8174 36.2198L32.2651 21.9896C32.1698 21.8311 32.0549 21.6976 31.9203 21.5892C31.855 21.5366 31.7851 21.4899 31.7106 21.4491C31.6251 21.4023 31.5369 21.3646 31.4459 21.3361C31.304 21.2917 31.1554 21.2695 31 21.2695C30.8482 21.2695 30.7028 21.2907 30.5639 21.3331C30.5607 21.3341 30.5574 21.3351 30.5541 21.3361C30.4631 21.3646 30.3749 21.4023 30.2894 21.4491C30.2149 21.4899 30.145 21.5366 30.0797 21.5892C29.9451 21.6977 29.8302 21.8311 29.7349 21.9896L21.1826 36.2198C21.082 36.3873 21.0157 36.561 20.984 36.741C20.9693 36.8242 20.962 36.9088 20.9621 36.9947C20.9621 37.0941 20.9717 37.1916 20.9907 37.2871C21.0213 37.4413 21.0766 37.5905 21.1566 37.7346C21.2366 37.8787 21.3336 38.0041 21.4477 38.1108C21.5184 38.1769 21.5957 38.2359 21.6795 38.2876C21.7519 38.3323 21.827 38.37 21.9049 38.4006C22.0732 38.4667 22.2541 38.4997 22.4477 38.4997ZM31 24.1152C31.7497 24.1152 32.3694 24.6797 32.4675 25.4116L32.481 25.6152L32.481 30.3633C32.481 31.1919 31.8179 31.8633 31 31.8633C30.2503 31.8633 29.6306 31.2988 29.5325 30.5669L29.519 30.3633L29.519 25.6152C29.519 24.7866 30.1821 24.1152 31 24.1152ZM31 33.6152C32.092 33.6152 32.9747 34.5093 32.9747 35.6152C32.9747 36.7192 32.092 37.6152 31 37.6152C29.908 37.6152 29.0253 36.7192 29.0253 35.6152C29.0253 34.5093 29.908 33.6152 31 33.6152Z" fill="var(--tiny-second-color, #aeaeAE)" fill-rule="evenodd"/>
</svg>