<svg viewBox="0 0 48 48" xmlns="http://www.w3.org/2000/svg" xmlns:xlink="http://www.w3.org/1999/xlink" width="48.000000" height="48.000000" fill="none">
  <path id="减去顶层" d="M31 4L17 4C15.88 4 15 4.88 15 6L15 8C15 9.1 15.88 10 17 10L31 10C32.1 10 33 9.1 33 8L33 6C33 4.88 32.1 4 31 4ZM12 7C11.9342 7.1974 11.955 7.41212 11.9769 7.63846C11.9883 7.7561 12 7.87688 12 8L12 9C12 11.2 13.78 13 16 13L32 13C34.2 13 36 11.2 36 9L36 8C36 7.64 35.94 7.3 35.86 7C39.18 7 42 9.68 42 13L42 38C42 41.3 39.3 44 36 44L12 44C8.68 44 6 41.3 6 38L6 13C6 9.68 8.68 7 12 7ZM34.5651 20.4438C35.0954 20.9786 35.1403 21.8121 34.7022 22.3975L22.4549 34.5651C21.9233 35.0923 20.9279 34.9964 20.3425 34.5651L12.4438 26.7326C11.8556 26.1492 11.8516 25.1995 12.4349 24.6112C12.9652 24.0765 13.9671 24.1691 14.5562 24.6023L21.398 31.386L32.4438 20.4349C33.0321 19.8516 33.9818 19.8556 34.5651 20.4438Z" fill="var(--tiny-first-color)" fill-rule="evenodd"/>
  <path id="矢量 1749" d="M34.7022 22.3975C35.1403 21.8121 35.0954 20.9786 34.5651 20.4438C33.9818 19.8556 33.0321 19.8516 32.4438 20.4349L21.398 31.386L14.5562 24.6023C13.9671 24.1691 12.9652 24.0765 12.4349 24.6112C11.8516 25.1995 11.8556 26.1492 12.4438 26.7326L20.3425 34.5651C20.9279 34.9964 21.9233 35.0923 22.4549 34.5651L34.7022 22.3975Z" fill="var(--tiny-second-color)" fill-rule="evenodd"/>
</svg>