<svg viewBox="0 0 48 48" xmlns="http://www.w3.org/2000/svg" xmlns:xlink="http://www.w3.org/1999/xlink" width="48.000000" height="48.000000" fill="none">
  <path id="path" d="M33.84 6.3999C33.5867 5.6999 33.1533 5.1266 32.54 4.67993C31.9333 4.2266 31.2466 4 30.48 4L17.52 4C16.7534 4 16.0667 4.2266 15.46 4.67993C14.8467 5.1266 14.4133 5.6999 14.16 6.3999L12.48 6.3999C11.3266 6.3999 10.2533 6.69671 9.26001 7.29004C8.27334 7.88337 7.48335 8.68327 6.89001 9.68994C6.29668 10.6966 6 11.7766 6 12.9299L6 37.96C6 39.1066 6.29668 40.1766 6.89001 41.1699C7.48335 42.1633 8.27334 42.9567 9.26001 43.55C10.2533 44.1434 11.3266 44.4399 12.48 44.4399L35.52 44.4399C36.6734 44.4399 37.7467 44.1434 38.74 43.55C39.7267 42.9567 40.5167 42.1633 41.11 41.1699C41.7033 40.1766 42 39.1066 42 37.96L42 12.9299C42 11.7766 41.7033 10.6966 41.11 9.68994C40.5167 8.68327 39.7267 7.88337 38.74 7.29004C37.7467 6.69671 36.6734 6.3999 35.52 6.3999L33.84 6.3999ZM16.99 7.51001C16.99 7.35001 17.04 7.22012 17.14 7.12012C17.2333 7.02678 17.36 6.97998 17.52 6.97998L30.48 6.97998C30.64 6.97998 30.7667 7.02678 30.86 7.12012C30.96 7.22012 31.01 7.35001 31.01 7.51001L31.01 10.9199C31.01 11.0466 30.96 11.1567 30.86 11.25C30.7667 11.35 30.64 11.3999 30.48 11.3999L17.52 11.3999C17.1667 11.3999 16.99 11.2399 16.99 10.9199L16.99 7.51001ZM39.02 37.96C39.02 38.92 38.67 39.7433 37.97 40.4299C37.2633 41.1166 36.4467 41.46 35.52 41.46L12.48 41.46C11.52 41.46 10.7034 41.1166 10.03 40.4299C9.3567 39.7433 9.02002 38.92 9.02002 37.96L9.02002 12.9299C9.02002 11.9699 9.3567 11.1466 10.03 10.46C10.7034 9.77329 11.52 9.42993 12.48 9.42993L14.02 9.42993L14.02 10.9199C14.02 11.8466 14.3633 12.6601 15.05 13.3601C15.7367 14.0668 16.56 14.4199 17.52 14.4199L30.48 14.4199C31.44 14.4199 32.2633 14.0668 32.95 13.3601C33.6367 12.6601 33.98 11.8466 33.98 10.9199L33.98 9.42993L35.52 9.42993C36.4467 9.42993 37.2633 9.77329 37.97 10.46C38.67 11.1466 39.02 11.9699 39.02 12.9299L39.02 37.96Z" fill="var(--tiny-first-color)" fill-rule="nonzero"/>
  <path id="矢量 1747" d="M35.7022 22.3975C36.1403 21.8121 36.0954 20.9786 35.5651 20.4438C34.9818 19.8556 34.0321 19.8516 33.4438 20.4349L22.398 31.386L15.5562 24.6023C14.9671 24.1691 13.9652 24.0765 13.4349 24.6112C12.8516 25.1995 12.8556 26.1492 13.4438 26.7326L21.3425 34.5651C21.9279 34.9964 22.9233 35.0923 23.4549 34.5651L35.7022 22.3975Z" fill="var(--tiny-second-color)" fill-rule="evenodd"/>
</svg>