<svg viewBox="0 0 48 48" xmlns="http://www.w3.org/2000/svg" xmlns:xlink="http://www.w3.org/1999/xlink" width="48.000000" height="48.000000" fill="none">
  <path id="合并" d="M17.0396 36.0001L17.0397 34.1849C16.2533 33.6618 15.5349 33.0568 14.8845 32.3699C14.1792 31.6251 13.5763 30.8076 13.0757 29.9175C12.7938 29.4165 12.5493 28.901 12.3419 28.3708C12.174 27.9416 12.0305 27.5028 11.9114 27.0545C11.8065 26.6596 11.7209 26.2568 11.6561 25.8554C11.552 25.209 11.5 24.5543 11.5 23.8911C11.5 22.9863 11.595 22.1025 11.785 21.2396C11.9484 20.4985 12.1816 19.7728 12.485 19.0625C12.7716 18.3916 13.1115 17.7556 13.5046 17.1543C13.9805 16.4265 14.5345 15.7497 15.1665 15.124C15.7505 14.5458 16.3783 14.0337 17.05 13.5877C17.7044 13.1534 18.4012 12.7812 19.1389 12.4723C19.8252 12.1849 20.5259 11.9612 21.2407 11.8012C22.1381 11.6004 23.0577 11.5 24 11.5C24.9423 11.5 25.8619 11.6004 26.7593 11.8012C27.4741 11.9612 28.1748 12.1849 28.8611 12.4723C29.599 12.7813 30.2954 13.1532 30.9501 13.5878C31.621 14.0335 32.2502 14.5464 32.8335 15.124C33.4656 15.7498 34.0195 16.4265 34.4954 17.1543C34.8885 17.7556 35.2284 18.3916 35.515 19.0625C35.8184 19.7727 36.0517 20.4984 36.2148 21.2394C36.4049 22.1024 36.5 22.9863 36.5 23.8911C36.5 24.5543 36.448 25.2093 36.3439 25.8557C36.279 26.2585 36.1939 26.6581 36.0886 27.0545C35.8224 28.0565 35.4343 29.0109 34.9243 29.9175C34.7108 30.2973 34.4786 30.6638 34.2278 31.017C33.8906 31.4919 33.5199 31.9428 33.1155 32.3699C32.4651 33.0568 31.7467 33.6618 30.9603 34.1849L30.9604 36.0001L36 36.0001C37.12 36.0001 38 36.8801 38 38.0001C38 39.1201 37.12 40.0001 36 40.0001L12 40.0001C10.88 40.0001 10 39.1201 10 38.0001C10 36.8801 10.88 36.0001 12 36.0001L17.0396 36.0001ZM16.5 45.0001L32 45.0001C33.12 45.0001 34 44.1201 34 43.0001C34 41.8801 33.12 41.0001 32 41.0001L16.5 41.0001C15.38 41.0001 14.5001 41.8801 14.5 43.0001C14.5 44.1201 15.38 45.0001 16.5 45.0001Z" fill="var(--tiny-first-color)" fill-rule="evenodd"/>
  <path id="矢量 1787" d="M26 5L26 7.29346C26 7.95996 25.8333 8.45996 25.5 8.79346C25.1667 9.12679 24.6667 9.29346 24 9.29346C23.704 9.29346 23.4319 9.23885 23.1839 9.12964C22.9643 9.0332 22.7635 8.8938 22.5815 8.71191C22.3994 8.52979 22.2601 8.3291 22.1636 8.10938C22.0545 7.86133 22 7.58936 22 7.29346L22 5C22 4.33333 22.1667 3.83333 22.5 3.5C22.8333 3.16667 23.3333 3 24 3C24.6667 3 25.1667 3.16667 25.5 3.5C25.8333 3.83325 26 4.33325 26 5ZM8.45361 12.2007C7.97894 11.7327 7.73999 11.2629 7.73663 10.7915C7.7333 10.3202 7.96568 9.84709 8.43378 9.37231C8.90188 8.89771 9.37162 8.65877 9.84302 8.65552C10.3145 8.6521 10.7875 8.88452 11.2622 9.35254L12.9066 10.9741C13.1174 11.1821 13.2728 11.4119 13.3729 11.6638C13.4614 11.8867 13.5066 12.127 13.5084 12.3843C13.5102 12.6416 13.4684 12.8823 13.383 13.1064C13.2864 13.3597 13.1342 13.5918 12.9263 13.8027C12.7184 14.0134 12.4885 14.1689 12.2366 14.2688C12.0137 14.3574 11.7736 14.4026 11.5162 14.4043C11.2588 14.4062 11.018 14.3643 10.7938 14.2788C10.5406 14.1824 10.3087 14.0303 10.098 13.8223L8.45361 12.2007ZM39.5464 12.2007L37.902 13.8223C37.6913 14.0303 37.4594 14.1824 37.2062 14.2788C36.982 14.3643 36.7412 14.4062 36.4838 14.4043C36.2264 14.4026 35.9863 14.3574 35.7634 14.2688C35.5115 14.1689 35.2816 14.0134 35.0737 13.8027C34.8658 13.5918 34.7136 13.3599 34.6171 13.1064C34.5316 12.8823 34.4898 12.6416 34.4916 12.3843C34.4934 12.127 34.5386 11.8867 34.6271 11.6638C34.7272 11.4119 34.8826 11.1821 35.0934 10.9744L36.7378 9.35254C37.2125 8.88444 37.6855 8.6521 38.1569 8.65552C38.6284 8.65869 39.0981 8.89771 39.5662 9.37231C40.0343 9.84709 40.2667 10.3202 40.2634 10.7915C40.2601 11.2629 40.0211 11.7327 39.5464 12.2007ZM6 22.7227L8.32556 22.7227C8.99223 22.7227 9.49223 22.8893 9.82556 23.2227C10.1589 23.556 10.3256 24.056 10.3256 24.7227C10.3256 25.3893 10.1589 25.8893 9.82556 26.2227C9.49225 26.5559 8.99225 26.7227 8.32556 26.7227L6 26.7227C5.33333 26.7227 4.83333 26.556 4.5 26.2227C4.16667 25.8893 4 25.3893 4 24.7227C4 24.056 4.16667 23.556 4.5 23.2227C4.83331 22.8894 5.33331 22.7227 6 22.7227ZM39.6744 22.7227L42 22.7227C42.6667 22.7227 43.1667 22.8893 43.5 23.2227C43.8333 23.5559 44 24.0559 44 24.7227C44 25.3894 43.8333 25.8894 43.5 26.2227C43.1667 26.5559 42.6667 26.7227 42 26.7227L39.6744 26.7227C39.0078 26.7227 38.5078 26.556 38.1744 26.2227C37.8411 25.8894 37.6744 25.3894 37.6744 24.7227C37.6744 24.0559 37.8411 23.5559 38.1744 23.2227C38.5078 22.8894 39.0078 22.7227 39.6744 22.7227Z" fill="var(--tiny-first-color)" fill-rule="evenodd"/>
  <path id="矢量 1787" d="M26 5L26 7.29346C26 7.95996 25.8333 8.45996 25.5 8.79346C25.1667 9.12679 24.6667 9.29346 24 9.29346C23.704 9.29346 23.4319 9.23885 23.1839 9.12964C22.9643 9.0332 22.7635 8.8938 22.5815 8.71191C22.3994 8.52979 22.2601 8.3291 22.1636 8.10938C22.0545 7.86133 22 7.58936 22 7.29346L22 5C22 4.33333 22.1667 3.83333 22.5 3.5C22.8333 3.16667 23.3333 3 24 3C24.6667 3 25.1667 3.16667 25.5 3.5C25.8333 3.83325 26 4.33325 26 5ZM8.45361 12.2007C7.97894 11.7327 7.73999 11.2629 7.73663 10.7915C7.7333 10.3202 7.96568 9.84709 8.43378 9.37231C8.90188 8.89771 9.37162 8.65877 9.84302 8.65552C10.3145 8.6521 10.7875 8.88452 11.2622 9.35254L12.9066 10.9741C13.1174 11.1821 13.2728 11.4119 13.3729 11.6638C13.4614 11.8867 13.5066 12.127 13.5084 12.3843C13.5102 12.6416 13.4684 12.8823 13.383 13.1064C13.2864 13.3597 13.1342 13.5918 12.9263 13.8027C12.7184 14.0134 12.4885 14.1689 12.2366 14.2688C12.0137 14.3574 11.7736 14.4026 11.5162 14.4043C11.2588 14.4062 11.018 14.3643 10.7938 14.2788C10.5406 14.1824 10.3087 14.0303 10.098 13.8223L8.45361 12.2007ZM39.5464 12.2007L37.902 13.8223C37.6913 14.0303 37.4594 14.1824 37.2062 14.2788C36.982 14.3643 36.7412 14.4062 36.4838 14.4043C36.2264 14.4026 35.9863 14.3574 35.7634 14.2688C35.5115 14.1689 35.2816 14.0134 35.0737 13.8027C34.8658 13.5918 34.7136 13.3599 34.6171 13.1064C34.5316 12.8823 34.4898 12.6416 34.4916 12.3843C34.4934 12.127 34.5386 11.8867 34.6271 11.6638C34.7272 11.4119 34.8826 11.1821 35.0934 10.9744L36.7378 9.35254C37.2125 8.88444 37.6855 8.6521 38.1569 8.65552C38.6284 8.65869 39.0981 8.89771 39.5662 9.37231C40.0343 9.84709 40.2667 10.3202 40.2634 10.7915C40.2601 11.2629 40.0211 11.7327 39.5464 12.2007ZM6 22.7227L8.32556 22.7227C8.99223 22.7227 9.49223 22.8893 9.82556 23.2227C10.1589 23.556 10.3256 24.056 10.3256 24.7227C10.3256 25.3893 10.1589 25.8893 9.82556 26.2227C9.49225 26.5559 8.99225 26.7227 8.32556 26.7227L6 26.7227C5.33333 26.7227 4.83333 26.556 4.5 26.2227C4.16667 25.8893 4 25.3893 4 24.7227C4 24.056 4.16667 23.556 4.5 23.2227C4.83331 22.8894 5.33331 22.7227 6 22.7227ZM39.6744 22.7227L42 22.7227C42.6667 22.7227 43.1667 22.8893 43.5 23.2227C43.8333 23.5559 44 24.0559 44 24.7227C44 25.3894 43.8333 25.8894 43.5 26.2227C43.1667 26.5559 42.6667 26.7227 42 26.7227L39.6744 26.7227C39.0078 26.7227 38.5078 26.556 38.1744 26.2227C37.8411 25.8894 37.6744 25.3894 37.6744 24.7227C37.6744 24.0559 37.8411 23.5559 38.1744 23.2227C38.5078 22.8894 39.0078 22.7227 39.6744 22.7227Z" fill="var(--tiny-second-color)" fill-rule="evenodd"/>
</svg>