<svg viewBox="0 0 48 48" xmlns="http://www.w3.org/2000/svg" xmlns:xlink="http://www.w3.org/1999/xlink" width="48.000000" height="48.000000" fill="none">
  <path id="路径" d="M23.5052 4.50846C17.3381 4.72227 14.2475 8.97538 14.2475 15.5061L14.252 15.832L14.1443 15.985C13.424 17.1041 13.2985 18.6502 13.7975 20.0962L13.926 20.4331C14.3417 21.4259 15.025 22.2515 15.8565 22.7621L16.106 22.902L16.4177 23.4167C16.5204 23.5771 16.6264 23.734 16.7358 23.8872L16.9474 24.1701C18.0721 25.6917 18.1217 26.2457 17.4344 26.6562L17.1755 26.7918L16.9172 26.9109L16.4861 27.0936L16.1343 27.2343L14.0584 28.0198L12.8607 28.4852L11.6042 29.0112L11.1109 29.2332C10.9268 29.3179 10.7584 29.3975 10.5934 29.4776L10.1063 29.7208C6.55853 31.5454 4.51183 33.7517 4.5207 36.7676L4.50012 38.5269L4.50184 39.0488L4.51905 39.5888L4.54071 39.9075C4.728 42.0712 5.74704 43.4115 7.87433 43.4979L40.0649 43.5C42.317 43.4098 43.3121 42.017 43.4693 39.7826L43.4939 39.2647L43.4998 38.9301L43.497 38.2239L43.4794 36.7566C43.4892 33.4559 41.0871 31.1683 36.9015 29.2396L36.1438 28.9024L35.6515 28.6946L35.1539 28.4918L34.4262 28.2059L32.2217 27.373L31.6699 27.1576L31.3427 27.0236L31.0464 26.8955L30.7031 26.7325C29.8949 26.3214 29.8643 25.8386 30.9515 24.3108L31.3572 23.7521C31.4524 23.6144 31.5457 23.4725 31.6369 23.3269L31.888 22.9L32.1409 22.7614C33.0641 22.1941 33.8046 21.238 34.1986 20.0962L34.3103 19.7331C34.6723 18.3966 34.5123 17.0129 33.8535 15.9866L33.744 15.832L33.7495 15.5061C33.7495 8.80352 30.4942 4.5 23.9985 4.5L23.5052 4.50846Z" fill="var(--tiny-first-color, #191919)" fill-rule="evenodd"/>
</svg>
