<svg viewBox="0 0 48 48" xmlns="http://www.w3.org/2000/svg" xmlns:xlink="http://www.w3.org/1999/xlink" width="48.000000" height="48.000000" fill="none">
  <path id="合并" d="M40.5 6L8 6C6.88 6 6 6.88 6 8C6 9.12 6.88 10 8 10L40.5 10C41.62 10 42.5 9.12 42.5 8C42.5 6.88 41.62 6 40.5 6ZM8 38L40.5 38C41.62 38 42.5 38.88 42.5 40C42.5 41.12 41.62 42 40.5 42L8 42C6.88 42 6 41.12 6 40C6 38.88 6.88 38 8 38Z" fill="var(--tiny-first-color)" fill-rule="evenodd"/>
  <path id="合并" d="M40.5 6L8 6C6.88 6 6 6.88 6 8C6 9.12 6.88 10 8 10L40.5 10C41.62 10 42.5 9.12 42.5 8C42.5 6.88 41.62 6 40.5 6ZM8 38L40.5 38C41.62 38 42.5 38.88 42.5 40C42.5 41.12 41.62 42 40.5 42L8 42C6.88 42 6 41.12 6 40C6 38.88 6.88 38 8 38Z" fill="var(--tiny-second-color)" fill-rule="evenodd"/>
  <path id="矢量 34" d="M36 14.5L12 14.5C8.96243 14.5 6.5 16.9624 6.5 20L6.5 28C6.5 31.0376 8.96243 33.5 12 33.5L36 33.5C39.0376 33.5 41.5 31.0376 41.5 28L41.5 20C41.5 16.9624 39.0376 14.5 36 14.5Z" fill="var(--tiny-first-color)" fill-rule="evenodd"/>
</svg>