<svg viewBox="0 0 48 48" xmlns="http://www.w3.org/2000/svg" xmlns:xlink="http://www.w3.org/1999/xlink" width="48.000000" height="48.000000" fill="none">
  <path id="合并" d="M10 35.5L10 8C10 6.88 9.12 6 8 6C6.88 6 6 6.88 6 8L6 36.5C6 39.8137 8.68629 42.5 12 42.5L40 42.5C41.12 42.5 42 41.62 42 40.5C42 39.38 41.12 38.5 40 38.5L13 38.5C11.3431 38.5 10 37.1569 10 35.5ZM38 36C39.12 36 40 35.12 40 34L40 18C40 16.88 39.12 16 38 16C36.88 16 36 16.88 36 18L36 34C36 35.12 36.88 36 38 36ZM24 34L24 24C24 22.88 23.12 22 22 22C20.88 22 20 22.88 20 24L20 34C20 35.12 20.88 36 22 36C23.12 36 24 35.12 24 34ZM16 28L16 34C16 35.12 15.12 36 14 36C12.88 36 12 35.12 12 34L12 28C12 26.88 12.88 26 14 26C15.12 26 16 26.88 16 28ZM32 28L32 34C32 35.12 31.12 36 30 36C28.88 36 28 35.12 28 34L28 28C28 26.88 28.88 26 30 26C31.12 26 32 26.88 32 28Z" fill="var(--tiny-first-color)" fill-rule="evenodd"/>
  <path id="合并" d="M30.0937 19.3391L39.8014 11.0183C40.6517 10.2894 40.7472 9.04854 40.0183 8.19817C39.2894 7.3478 38.0486 7.25235 37.1982 7.98124L28.2829 15.6229L24.6917 11.0523C24.5616 10.8866 24.4175 10.7376 24.2595 10.6053C24.1125 10.4821 23.9534 10.3732 23.7822 10.2788C23.6148 10.1865 23.4418 10.1112 23.2632 10.053C23.0771 9.99233 22.8849 9.95023 22.6867 9.92667C22.4885 9.90312 22.2918 9.89902 22.0967 9.91438C21.9094 9.92911 21.7236 9.96175 21.5392 10.0123C21.3506 10.064 21.1705 10.1325 20.9987 10.2178C20.8141 10.3095 20.6391 10.4206 20.4738 10.5511L12.7605 16.43C11.8814 17.124 11.736 18.36 12.43 19.239C13.124 20.1181 14.36 20.2635 15.2391 19.5695L22.1657 14.3117L25.7824 18.9148C25.9163 19.0853 26.0649 19.2381 26.2281 19.3732C26.3795 19.4985 26.5434 19.6086 26.7199 19.7035C26.8924 19.7963 27.0704 19.8711 27.254 19.9278C27.4458 19.9872 27.6436 20.0268 27.8475 20.0469C28.0514 20.067 28.2532 20.0666 28.4529 20.0458C28.644 20.0259 28.8332 19.9873 29.0205 19.93C29.2121 19.8713 29.3944 19.7952 29.5673 19.7018C29.7537 19.6011 29.9291 19.4802 30.0937 19.3391Z" fill="var(--tiny-second-color)" fill-rule="evenodd"/>
</svg>