<svg viewBox="0 0 48 48" xmlns="http://www.w3.org/2000/svg" xmlns:xlink="http://www.w3.org/1999/xlink" width="48.000000" height="48.000000">
  <path id="形状结合" d="M18.3177 0.43934C18.8502 0.971873 18.8986 1.8052 18.4629 2.39242L3.876 17L38.257 17C39.0854 17 39.757 17.6716 39.757 18.5C39.757 19.2594 39.1927 19.887 38.4605 19.9863L38.257 20L3.878 20L18.3177 34.4393C18.9034 35.0251 18.9034 35.9749 18.3177 36.5607C17.7851 37.0932 16.9518 37.1416 16.3646 36.7059L1.31834 21.6827C-0.355742 20.0086 -0.435461 17.3441 1.07919 15.5756L1.31834 15.3173L16.1963 0.43934C16.7821 -0.146447 17.7319 -0.146447 18.3177 0.43934Z" fill="var(--tiny-first-color)" fill-rule="evenodd" transform="matrix(-1,0,0,1,43.8785,5.5)"/>
</svg>