<svg viewBox="0 0 48 48" xmlns="http://www.w3.org/2000/svg" xmlns:xlink="http://www.w3.org/1999/xlink" width="48.000000" height="48.000000" fill="none">
  <path id="align_up" d="M8 6L40 6C41.1046 6 42 6.89543 42 8C42 9.10457 41.1046 10 40 10L8 10C6.89543 10 6 9.10457 6 8C6 6.89543 6.89543 6 8 6ZM27.5355 13.4645L38.4142 24.3431C39.1953 25.1242 39.1953 26.3905 38.4142 27.1716C37.6332 27.9526 36.3668 27.9526 35.5858 27.1716L26 17.586L26 40C26 41.0257 25.2279 41.871 24.2332 41.9865L24 42C22.8954 42 22 41.1046 22 40L22 17.584L12.4142 27.1716C11.6332 27.9526 10.3668 27.9526 9.58579 27.1716C8.80474 26.3905 8.80474 25.1242 9.58579 24.3431L20.4645 13.4645C22.4171 11.5118 25.5829 11.5118 27.5355 13.4645Z" fill="var(--tiny-first-color, #191919)" fill-rule="evenodd"/>
  <path id="align_up" d="M8 6L40 6C41.1046 6 42 6.89543 42 8C42 9.10457 41.1046 10 40 10L8 10C6.89543 10 6 9.10457 6 8C6 6.89543 6.89543 6 8 6Z" fill="var(--tiny-second-color, #aeaeAE)" fill-rule="evenodd"/>
</svg>
