<svg viewBox="0 0 48 48" xmlns="http://www.w3.org/2000/svg" xmlns:xlink="http://www.w3.org/1999/xlink" width="48.000000" height="48.000000" fill="none">
  <path id="align_bottom" d="M40 42L8 42C6.89543 42 6 41.1046 6 40C6 38.8954 6.89543 38 8 38L40 38C41.1046 38 42 38.8954 42 40C42 41.1046 41.1046 42 40 42ZM20.4645 34.5355L9.58579 23.6569C8.80474 22.8758 8.80474 21.6095 9.58579 20.8284C10.3668 20.0474 11.6332 20.0474 12.4142 20.8284L22 30.414L22 8C22 6.97433 22.7721 6.12899 23.7668 6.01346L24 6C25.1046 6 26 6.89543 26 8L26 30.416L35.5858 20.8284C36.3668 20.0474 37.6332 20.0474 38.4142 20.8284C39.1953 21.6095 39.1953 22.8758 38.4142 23.6569L27.5355 34.5355C25.5829 36.4882 22.4171 36.4882 20.4645 34.5355Z" fill="var(--tiny-first-color, #191919)" fill-rule="evenodd"/>
  <path id="align_bottom" d="M40 42L8 42C6.89543 42 6 41.1046 6 40C6 38.8954 6.89543 38 8 38L40 38C41.1046 38 42 38.8954 42 40C42 41.1046 41.1046 42 40 42Z" fill="var(--tiny-second-color, #aeaeAE)" fill-rule="evenodd"/>
</svg>
