<svg viewBox="0 0 48 48" xmlns="http://www.w3.org/2000/svg" xmlns:xlink="http://www.w3.org/1999/xlink" width="48.000000" height="48.000000" fill="none">
  <path id="形状结合" d="M19.17 0.5865C19.952 1.3685 19.952 2.6325 19.17 3.4145L5.584 17L38.756 17.0005C39.86 17.0005 40.756 17.8945 40.756 19.0005C40.756 20.1065 39.86 21.0005 38.756 21.0005L5.584 21L19.17 34.5865C19.952 35.3685 19.952 36.6325 19.17 37.4145C18.78 37.8045 18.268 38.0005 17.756 38.0005C17.244 38.0005 16.732 37.8045 16.342 37.4145L1.464 22.5365C0.509053 21.5816 0.0217595 20.3335 0.00211859 19.0795C0.0237024 17.8282 0.511084 16.4174 1.464 15.4645L16.342 0.5865C17.124 -0.1955 18.388 -0.1955 19.17 0.5865Z" fill="var(--tiny-first-color, #191919)" fill-rule="evenodd" transform="matrix(-1,0,0,1,44.3779,5)"/>
</svg>
