<svg viewBox="0 0 48 48" xmlns="http://www.w3.org/2000/svg" xmlns:xlink="http://www.w3.org/1999/xlink" width="48.000000" height="48.000000" fill="none">
  <path id="形状" d="M21.0756 34.9194L20.8173 34.6802L9.93934 23.8022C9.35355 23.2165 9.35355 22.2667 9.93934 21.6809C10.4719 21.1484 11.3052 21.1 11.8924 21.5357L22.5 32.1206L22.5 7.5C22.5 6.67157 23.1716 6 24 6C24.7594 6 25.387 6.56431 25.4863 7.29646L25.5 7.5L25.5 32.1226L35.9393 21.6809C36.5251 21.0951 37.4749 21.0951 38.0607 21.6809C38.5932 22.2135 38.6416 23.0468 38.2059 23.634L27.1827 34.6802C26.3056 35.5573 25.1568 35.9967 24.0074 35.9987C22.9627 36.0003 21.9176 35.6406 21.0756 34.9194ZM40.5 38.9986C41.3284 38.9986 42 39.6702 42 40.4986C42 41.327 41.3284 41.9986 40.5 41.9986L7.5 41.9986C6.67157 41.9986 6 41.327 6 40.4986C6 39.6702 6.67157 38.9986 7.5 38.9986L40.5 38.9986Z" fill="var(--tiny-first-color, #191919)" fill-rule="nonzero"/>
  <path id="形状" d="M40.5 38.9985C41.3284 38.9985 42 39.6701 42 40.4985C42 41.327 41.3284 41.9985 40.5 41.9985L7.5 41.9985C6.67157 41.9985 6 41.327 6 40.4985C6 39.6701 6.67157 38.9985 7.5 38.9985L40.5 38.9985Z" fill="var(--tiny-second-color, #aeaeAE)" fill-rule="nonzero"/>
</svg>
