<svg viewBox="0 0 48 48" xmlns="http://www.w3.org/2000/svg" xmlns:xlink="http://www.w3.org/1999/xlink" width="48.000000" height="48.000000" fill="none">
  <path id="形状结合" d="M22.4391 5.93934C22.9717 6.47187 23.0201 7.3052 22.5844 7.89242L7.99746 22.5L42.3785 22.5C43.2069 22.5 43.8785 23.1716 43.8785 24C43.8785 24.7594 43.3142 25.387 42.582 25.4863L42.3785 25.5L7.99946 25.5L22.4391 39.9393C23.0249 40.5251 23.0249 41.4749 22.4391 42.0607C21.9066 42.5932 21.0733 42.6416 20.486 42.2059L5.4398 27.1827C3.76572 25.5086 3.686 22.8441 5.20064 21.0756L5.4398 20.8173L20.3178 5.93934C20.9036 5.35355 21.8533 5.35355 22.4391 5.93934Z" fill="var(--tiny-first-color)" fill-rule="evenodd"/>
</svg>