<svg viewBox="0 0 48 48" xmlns="http://www.w3.org/2000/svg" xmlns:xlink="http://www.w3.org/1999/xlink" width="48.000000" height="48.000000">
  <path id="形状" d="M26.9244 13.0792L27.1827 13.3183L38.0607 24.1963C38.6464 24.7821 38.6464 25.7319 38.0607 26.3177C37.5281 26.8502 36.6948 26.8986 36.1076 26.4629L25.5 15.878L25.5 40.4986C25.5 41.327 24.8284 41.9986 24 41.9986C23.2406 41.9986 22.613 41.4343 22.5137 40.7021L22.5 40.4986L22.5 15.876L12.0607 26.3177C11.4749 26.9034 10.5251 26.9034 9.93934 26.3177C9.40681 25.7851 9.35839 24.9518 9.7941 24.3646L20.8173 13.3183C21.6944 12.4413 22.8432 12.0019 23.9926 11.9999C25.0373 11.9983 26.0824 12.358 26.9244 13.0792ZM7.5 9C6.67157 9 6 8.32843 6 7.5C6 6.67157 6.67157 6 7.5 6L40.5 6C41.3284 6 42 6.67157 42 7.5C42 8.32843 41.3284 9 40.5 9L7.5 9Z" fill="var(--tiny-first-color)" fill-rule="nonzero"/>
  <path id="形状" d="M7.5 9C6.67157 9 6 8.32843 6 7.5C6 6.67157 6.67157 6 7.5 6L40.5 6C41.3284 6 42 6.67157 42 7.5C42 8.32843 41.3284 9 40.5 9L7.5 9Z" fill="var(--tiny-second-color)" fill-rule="nonzero"/>
</svg>