<svg viewBox="0 0 48 48" xmlns="http://www.w3.org/2000/svg" xmlns:xlink="http://www.w3.org/1999/xlink" width="48.000000" height="48.000000" fill="none">
  <path id="形状结合" d="M21 28L21.3 28.0263C22.2892 28.2039 23 29.0304 23 30C23 31.1046 22.1046 32 21 32L2 32L1.68 31.9738C0.690439 31.7963 0 30.9707 0 30C0 28.8954 0.895431 28 2 28L21 28ZM28 0C29.0033 0 29.8479 0.74053 29.9851 1.76L30 2L30.002 25.166L32.5858 22.5828C33.2305 21.9381 34.2168 21.8195 35.0085 22.2743L35.2192 22.4126C35.9225 23.1159 36.1946 24.3959 35.6074 25.1874L35.4142 25.4112L29.4142 31.4112C28.236 32.5895 26.2276 31.8899 26.0141 30.2341L26 29.997L26 2C26 0.895431 26.8954 0 28 0ZM21 14L21.3 14.0263C22.2892 14.2039 23 15.0304 23 16C23 17.1046 22.1046 18 21 18L2 18L1.68 17.9738C0.690439 17.7963 0 16.9707 0 16C0 14.8954 0.895431 14 2 14L21 14ZM21 0L21.3 0.0263128C22.2892 0.203943 23 1.03036 23 2C23 3.10457 22.1046 4 21 4L2 4L1.68 3.97384C0.690439 3.79629 0 2.97073 0 2C0 0.895431 0.895431 0 2 0L21 0Z" fill="var(--tiny-first-color, #191919)" fill-rule="evenodd" transform="matrix(1,0,0,-1,6,40)"/>
  <path id="形状结合" d="M2 0C3.00325 0 3.84795 0.74053 3.98513 1.76L4 2L4.002 25.166L6.58578 22.5828C7.23048 21.9381 8.21679 21.8195 9.00847 22.2743L9.21916 22.4126C9.92246 23.1159 10.1946 24.3959 9.60744 25.1874L9.41421 25.4112L3.41421 31.4112C2.23595 32.5895 0.227613 31.8899 0.0141048 30.2341L0 29.997L0 2C0 0.895431 0.89543 0 2 0Z" fill="var(--tiny-second-color, #aeaeAE)" fill-rule="evenodd" transform="matrix(1,0,0,-1,32,39.998)"/>
</svg>
