<svg viewBox="0 0 48 48" xmlns="http://www.w3.org/2000/svg" xmlns:xlink="http://www.w3.org/1999/xlink" width="48.000000" height="48.000000">
  <path id="路径-88" d="M21.5 0C22.3284 0 23 0.671573 23 1.5C23 2.23638 22.4694 2.84883 21.7696 2.97583L21.5 3L1.5 3C0.671573 3 0 2.32843 0 1.5C0 0.76362 0.540252 0.151175 1.24 0.0241671L1.5 0L21.5 0Z" fill="var(--tiny-first-color)" fill-rule="evenodd" transform="matrix(-1,0,0,1,29,8)"/>
  <path id="路径-88备份-3" d="M21.5 0C22.3284 0 23 0.671574 23 1.5C23 2.23638 22.4694 2.84883 21.7696 2.97583L21.5 3L1.5 3C0.671573 3 0 2.32843 0 1.5C0 0.76362 0.540252 0.151175 1.24 0.0241661L1.5 0L21.5 0Z" fill="var(--tiny-first-color)" fill-rule="evenodd" transform="matrix(-1,0,0,1,29,22.5)"/>
  <path id="路径-88备份-4" d="M21.5 0C22.3284 0 23 0.671574 23 1.5C23 2.23638 22.4694 2.84882 21.7696 2.97583L21.5 3L1.5 3C0.671573 3 0 2.32843 0 1.5C0 0.763622 0.540252 0.151176 1.24 0.0241661L1.5 0L21.5 0Z" fill="var(--tiny-first-color)" fill-rule="evenodd" transform="matrix(-1,0,0,1,29,37)"/>
  <path id="Stroke-1备份" d="M23.4363 0.439341C23.9689 -0.0931931 24.8022 -0.141605 25.3894 0.294104L31.5577 6.43934C32.4529 7.33455 31.8993 8.83178 30.7023 8.98691L30.497 9L1.5 9C0.671574 9 0 8.32843 0 7.5C0 6.74061 0.567848 6.11302 1.3 6.01369L1.5 6L26.875 5.9988L23.4363 2.56066C22.9038 2.02813 23.0006 1.02656 23.4363 0.439341Z" fill="var(--tiny-second-color)" fill-rule="evenodd" transform="matrix(0,-1,-1,0,42,40)"/>
</svg>