<svg viewBox="0 0 48 48" xmlns="http://www.w3.org/2000/svg" xmlns:xlink="http://www.w3.org/1999/xlink" width="48.000000" height="48.000000">
  <path id="减去顶层" d="M30.5 6C30.5 5.172 29.828 4.5 29 4.5C28.172 4.5 27.5 5.172 27.5 6L27.5 7.916L16.5 7.916L16.5 6C16.5 5.172 15.828 4.5 15 4.5C14.172 4.5 13.5 5.172 13.5 6L13.5 7.916L10 7.916C8.492 7.916 6.934 8.654 5.878 9.576C4.726 10.67 4 12.208 4 13.916L4 15.5L40 15.5L40 13.916C40 12.208 39.08 10.51 37.928 9.416L37.6021 9.14995C36.5978 8.38418 35.3572 7.916 34 7.916L30.5 7.916L30.5 6ZM40 20.9513L40 18.5L4 18.5L4 36.084C4 39.392 6.692 42.084 10 42.084L23.5063 42.084C22.3273 40.916 21.3616 39.5331 20.6739 38L14 38C12.8954 38 12 37.1046 12 36C12 32.9948 14.2094 30.5056 17.0925 30.0682C15.8256 29.1611 15 27.677 15 26C15 23.2386 17.2386 21 20 21C21.4878 21 22.8239 21.6499 23.7398 22.6812C26.1598 20.3985 29.4207 19 33 19C35.5638 19 37.9595 19.7128 40 20.9513Z" fill="var(--tiny-first-color, #191919)" fill-rule="evenodd"/>
  <path id="减去顶层" d="M33 21.5C26.94 21.5 22 26.42 22 32.5C22 38.56 26.94 43.5 33 43.5C39.08 43.5 44 38.56 44 32.5C44 26.42 39.08 21.5 33 21.5ZM38.0573 28.8906C38.524 29.3612 38.5635 30.0947 38.1779 30.6098L32.7249 36.0374C32.2571 36.5012 31.3811 36.4169 30.866 36.0374L27.3906 32.591C26.8729 32.0777 26.8694 31.2419 27.3827 30.7243C27.8494 30.2537 28.7311 30.3352 29.2494 30.7164L31.7942 33.2398L36.1906 28.8827C36.7082 28.3694 37.544 28.373 38.0573 28.8906Z" fill="var(--tiny-second-color, #aeaeAE)" fill-rule="evenodd"/>
</svg>