<svg viewBox="0 0 48 48" xmlns="http://www.w3.org/2000/svg" xmlns:xlink="http://www.w3.org/1999/xlink" width="48.000000" height="48.000000" fill="none">
  <path id="形状" d="M5.99744 19.3635C6.10778 19.4064 6.22448 19.4367 6.34576 19.4524L14.0328 19.5134L14.0047 23.9936L14.0171 24.1981C14.1125 24.9341 14.7417 25.5034 15.5046 25.5034C17.4801 25.5034 19.0816 27.1049 19.0816 29.0804C19.0816 31.0558 17.4801 32.6573 15.5046 32.6573C14.7455 32.6573 14.1181 33.2212 14.0184 33.953L14.0046 34.1565L13.9994 42.002L12 42.0034C8.80466 42.0034 6.1927 39.5056 6.01021 36.356L6.00002 36.0034L5.99744 19.3635ZM29.1177 14.5034C31.0932 14.5034 32.6946 16.1049 32.6946 18.0804C32.6946 18.8395 33.2585 19.4669 33.9904 19.5666L34.1938 19.5804L41.9994 19.584L42 36.0034C42 39.1988 39.5022 41.8108 36.3526 41.9933L36 42.0034L16.9994 42.002L17.004 35.4834L17.3105 35.4063C19.9451 34.6556 21.9048 32.3036 22.0702 29.4697L22.0816 29.0804L22.0711 28.7072C21.9194 25.9952 20.1247 23.7221 17.6662 22.8669L17.3105 22.7545L17.012 22.6774L17.0328 19.5334L24.0309 19.5803L24.2354 19.5679C24.9714 19.4725 25.5408 18.8433 25.5408 18.0804C25.5408 16.1049 27.1422 14.5034 29.1177 14.5034ZM36 6.00344C39.1954 6.00344 41.8073 8.50128 41.9898 11.6509L42 12.0034L41.9994 16.584L35.522 16.581L35.4436 16.2745C34.6929 13.6399 32.3409 11.6802 29.507 11.5148L29.1177 11.5034L28.7445 11.5139C26.0326 11.6656 23.7594 13.4603 22.9042 15.9188L22.7918 16.2745L22.714 16.573L17.0528 16.5334L17.12 6.51333L17.1076 6.30971C17.0938 6.20254 17.0687 6.09889 17.0334 6L36 6.00344ZM14.2065 6.00041C14.1699 6.10324 14.1442 6.21127 14.1308 6.32311L14.0528 16.5134L6.55068 16.465L6.34706 16.4774C6.22541 16.4931 6.10829 16.5233 5.99752 16.5664L6.00002 12.0034C6.00002 8.80808 8.49786 6.19612 11.6475 6.01363L12 6.00344L14.2065 6.00041Z" fill="var(--tiny-first-color)" fill-rule="evenodd"/>
  <path id="形状" d="M29.1178 14.5034C31.0933 14.5034 32.6947 16.1049 32.6947 18.0803C32.6947 18.8394 33.2586 19.4669 33.9904 19.5665L34.1939 19.5803L41.9995 19.584L42.0001 36.0034C42.0001 39.1988 39.5023 41.8107 36.3526 41.9932L36.0001 42.0034L16.9995 42.002L17.0041 35.4834L17.3106 35.4062C19.9451 34.6556 21.9049 32.3035 22.0703 29.4697L22.0816 29.0803L22.0712 28.7071C21.9195 25.9952 20.1248 23.722 17.6662 22.8669L17.3106 22.7544L17.0121 22.6774L17.0328 19.5334L24.031 19.5803L24.2355 19.5678C24.9715 19.4725 25.5409 18.8433 25.5409 18.0803C25.5409 16.1049 27.1423 14.5034 29.1178 14.5034Z" fill="var(--tiny-second-color)" fill-rule="evenodd"/>
</svg>