<svg viewBox="0 0 48 48" xmlns="http://www.w3.org/2000/svg" xmlns:xlink="http://www.w3.org/1999/xlink" width="48.000000" height="48.000000" fill="none">
  <path id="合并" d="M39 20L39 12.5C39 12.0168 38.9146 11.5689 38.7437 11.1564C38.5729 10.7439 38.3166 10.3668 37.9749 10.0251C37.6332 9.68342 37.2561 9.42714 36.8436 9.25628C36.4311 9.08543 35.9832 9 35.5 9L17 9L17 17.5C17 17.6765 16.9821 17.8492 16.9464 18.0181C16.9136 18.1731 16.8658 18.3249 16.8029 18.4736C16.7412 18.6195 16.6672 18.7572 16.5808 18.8867C16.4901 19.0228 16.3857 19.1498 16.2678 19.2678C16.1498 19.3857 16.0228 19.4901 15.8867 19.5808C15.7572 19.6672 15.6195 19.7412 15.4736 19.8029C15.3249 19.8658 15.1731 19.9136 15.0181 19.9464C14.8492 19.9821 14.6765 20 14.5 20L9 20L9 35.5C9 36.6667 9.29167 37.5417 9.875 38.125C10.4583 38.7083 11.3333 39 12.5 39L17 39L17 42L12.5 42C11.6025 42 10.7708 41.8413 10.0047 41.524C9.23871 41.2067 8.5384 40.7308 7.90381 40.0962C7.2692 39.4616 6.79325 38.7613 6.47595 37.9952C6.15865 37.2292 6 36.3975 6 35.5L6 12.5C6 11.6025 6.15865 10.7708 6.47595 10.0048C6.79325 9.23873 7.2692 8.53841 7.90381 7.90381C8.53841 7.2692 9.23872 6.79325 10.0048 6.47595C10.7708 6.15865 11.6025 6 12.5 6L35.5 6C36.3975 6 37.2292 6.15865 37.9952 6.47595C38.7613 6.79325 39.4616 7.2692 40.0962 7.9038C40.7308 8.53841 41.2067 9.23872 41.524 10.0048C41.8414 10.7708 42 11.6025 42 12.5L42 20L39 20ZM9 17L9 12.5C9 12.0168 9.08543 11.5689 9.25628 11.1564C9.42714 10.7439 9.68342 10.3668 10.0251 10.0251C10.3668 9.68342 10.7439 9.42714 11.1564 9.25628C11.5689 9.08543 12.0168 9 12.5 9L14 9L14 17L9 17Z" fill="var(--tiny-first-color)" fill-rule="evenodd"/>
  <path id="矢量 1707 (边框)" d="M22.7887 17C23.321 15.1402 24.2008 13.7992 25.4282 12.9771C26.4006 12.3257 27.5912 12 29 12C30.3517 12 31.5174 12.3018 32.4971 12.9054C33.8198 13.7203 34.8036 15.0851 35.4485 17L39.5 17C39.8452 17 40.1651 17.061 40.4597 17.1831C40.7543 17.3051 41.0237 17.4882 41.2678 17.7322C41.5118 17.9763 41.6949 18.2457 41.8169 18.5403C41.939 18.8349 42 19.1548 42 19.5L42 35.5C42 36.3975 41.8414 37.2292 41.5241 37.9952C41.2067 38.7613 40.7308 39.4616 40.0962 40.0962C39.4616 40.7308 38.7613 41.2068 37.9952 41.5241C37.2292 41.8414 36.3975 42 35.5 42L16.5 42C15.6667 42 15.0417 41.7917 14.625 41.375C14.2083 40.9583 14 40.3333 14 39.5L14 35.1527C14 34.5504 14.1413 34.0466 14.4239 33.6413C14.7355 33.1946 15.2187 32.8677 15.8736 32.6605C17.2147 32.2362 18.1244 31.5798 18.6026 30.6911C18.8675 30.1987 19 29.635 19 29C19 28.3491 18.8569 27.7834 18.5707 27.303C18.1007 26.5139 17.2447 25.9548 16.0027 25.6256C15.3034 25.4402 14.7872 25.1205 14.4541 24.6665C14.1514 24.2537 14 23.7299 14 23.095L14 19.5C14 18.6667 14.2083 18.0417 14.625 17.625C15.0417 17.2083 15.6667 17 16.5 17L22.7887 17ZM17 20L23.095 20C23.7299 20 24.2537 19.8486 24.6665 19.5459C25.1205 19.2128 25.4402 18.6966 25.6256 17.9973C25.9548 16.7553 26.5139 15.8993 27.303 15.4293C27.7834 15.1431 28.3491 15 29 15C29.635 15 30.1987 15.1325 30.6911 15.3974C31.5798 15.8756 32.2363 16.7853 32.6606 18.1264C32.8678 18.7813 33.1947 19.2645 33.6414 19.5761C34.0466 19.8587 34.5504 20 35.1528 20L39 20L39 35.5C39 36.6667 38.7083 37.5417 38.125 38.125C37.5417 38.7083 36.6667 39 35.5 39L17 39L17 35.4485C18.9148 34.8036 20.2797 33.8198 21.0946 32.4972C21.6982 31.5174 22 30.3517 22 29C22 27.5912 21.6743 26.4006 21.0229 25.4282C20.2008 24.2008 18.8598 23.321 17 22.7887L17 20Z" fill="var(--tiny-second-color)" fill-rule="evenodd"/>
</svg>