<svg viewBox="0 0 48 48" xmlns="http://www.w3.org/2000/svg" xmlns:xlink="http://www.w3.org/1999/xlink" width="48.000000" height="48.000000" fill="none">
  <path id="形状结合" d="M33.1812 3.4502C35.4912 3.4502 37.6632 4.35019 39.2952 5.98419C40.9292 7.6182 41.8292 9.79019 41.8292 12.0982C41.8292 14.4082 40.9292 16.5802 39.2952 18.2142L21.1945 36.3162C20.1885 37.3222 18.8206 37.9068 17.3986 37.9068C15.9766 37.9068 14.6406 37.3528 13.6346 36.3468C11.5586 34.2708 11.5586 30.8928 13.6326 28.8168L29.752 12.699C30.534 11.919 31.798 11.919 32.58 12.699C33.362 13.481 33.362 14.747 32.58 15.527L16.4797 31.6275C15.9637 32.1435 15.9466 33.0028 16.4626 33.5188C16.9608 34.0169 17.8282 34.0188 18.329 33.5243L36.4672 15.3862C38.2792 13.5722 38.2792 10.6262 36.4672 8.81219C34.7092 7.0562 31.6512 7.0562 29.8932 8.81219L11.7616 26.9434C10.2556 28.4494 9.42762 30.4514 9.42762 32.5834C9.42762 34.7114 10.2556 36.7134 11.7616 38.2194C14.8716 41.3274 19.9276 41.3314 23.0356 38.2194L39.1544 22.1014C39.9344 21.3214 41.2004 21.3214 41.9824 22.1014C42.7624 22.8834 42.7624 24.1494 41.9824 24.9294L25.8636 41.0474C23.5296 43.3814 20.4656 44.5494 17.3996 44.5494C14.3336 44.5494 11.2676 43.3814 8.93362 41.0474C4.26562 36.3794 4.26562 28.7834 8.93362 24.1154L27.0652 5.98419C28.6992 4.35019 30.8712 3.4502 33.1812 3.4502Z" fill="var(--tiny-first-color, #191919)" fill-rule="evenodd"/>
</svg>
