<svg viewBox="0 0 48 48" xmlns="http://www.w3.org/2000/svg" xmlns:xlink="http://www.w3.org/1999/xlink" width="48.000000" height="48.000000" fill="none">
  <g id="ic_simulcast_lined">
    <path id="形状结合" d="M21.1429 7.5C21.9022 7.5 22.5298 8.06431 22.6292 8.79646L22.6429 9L22.6429 39C22.6429 39.8284 21.9713 40.5 21.1429 40.5C20.3835 40.5 19.7559 39.9357 19.6566 39.2035L19.6429 39L19.6429 9C19.6429 8.17157 20.3144 7.5 21.1429 7.5ZM26.8577 13.5C27.617 13.5 28.2446 14.0643 28.344 14.7965L28.3577 15L28.3577 33C28.3577 33.8284 27.6861 34.5 26.8577 34.5C26.0983 34.5 25.4707 33.9357 25.3714 33.2035L25.3577 33L25.3577 15C25.3577 14.1716 26.0292 13.5 26.8577 13.5ZM15.4279 15.5C16.1872 15.5 16.8148 16.0643 16.9142 16.7965L16.9279 17L16.9279 31C16.9279 31.8284 16.2563 32.5 15.4279 32.5C14.6685 32.5 14.0409 31.9357 13.9416 31.2035L13.9279 31L13.9279 17C13.9279 16.1716 14.5994 15.5 15.4279 15.5ZM32.5705 17.5C33.3298 17.5 33.9574 18.0643 34.0568 18.7965L34.0705 19L34.0705 29C34.0705 29.8284 33.3989 30.5 32.5705 30.5C31.8111 30.5 31.1835 29.9357 31.0842 29.2035L31.0705 29L31.0705 19C31.0705 18.1716 31.742 17.5 32.5705 17.5ZM9.71506 20.5C10.4744 20.5 11.102 21.0643 11.2014 21.7965L11.2151 22L11.2151 26C11.2151 26.8284 10.5435 27.5 9.71506 27.5C8.95567 27.5 8.32808 26.9357 8.22875 26.2035L8.21506 26L8.21506 22C8.21506 21.1716 8.88663 20.5 9.71506 20.5ZM38.2853 21.5C39.0446 21.5 39.6722 22.0643 39.7716 22.7965L39.7853 23L39.7853 25C39.7853 25.8284 39.1137 26.5 38.2853 26.5C37.5259 26.5 36.8983 25.9357 36.799 25.2035L36.7853 25L36.7853 23C36.7853 22.1716 37.4568 21.5 38.2853 21.5Z" fill="var(--tiny-first-color, #191919)" fill-rule="evenodd"/>
    <path id="形状结合" d="M26.8576 13.5C27.617 13.5 28.2445 14.0643 28.3439 14.7965L28.3576 15L28.3576 33C28.3576 33.8284 27.686 34.5 26.8576 34.5C26.0982 34.5 25.4706 33.9357 25.3713 33.2035L25.3576 33L25.3576 15C25.3576 14.1716 26.0291 13.5 26.8576 13.5ZM15.4278 15.5C16.1872 15.5 16.8147 16.0643 16.9141 16.7965L16.9278 17L16.9278 31C16.9278 31.8284 16.2562 32.5 15.4278 32.5C14.6684 32.5 14.0408 31.9357 13.9415 31.2035L13.9278 31L13.9278 17C13.9278 16.1716 14.5993 15.5 15.4278 15.5Z" fill="var(--tiny-second-color, #aeaeAE)" fill-rule="evenodd"/>
  </g>
</svg>
