<svg viewBox="0 0 48 48" xmlns="http://www.w3.org/2000/svg" xmlns:xlink="http://www.w3.org/1999/xlink" width="48.000000" height="48.000000" fill="none">
  <path id="形状结合" d="M38.5 41C39.3284 41 40 41.6716 40 42.5C40 43.2594 39.4357 43.887 38.7035 43.9863L38.5 44L9.5 44C8.67157 44 8 43.3284 8 42.5C8 41.7406 8.56431 41.113 9.29646 41.0137L9.5 41L38.5 41ZM24 4C29.799 4 34.5 8.70101 34.5 14.5C34.5 18.1252 32.6468 21.4354 29.6497 23.3518C29.5747 23.3998 29.4885 23.4507 29.3874 23.5075C29.1514 23.6401 29.0051 23.8896 29.0047 24.1603L29.0028 25.4972C29.0028 25.776 29.2266 26 29.5028 26L36.25 26C38.3211 26 40 27.6789 40 29.75L40 34.75C40 36.8211 38.3211 38.5 36.25 38.5L11.75 38.5C9.67893 38.5 8 36.8211 8 34.75L8 29.75C8 27.6789 9.67893 26 11.75 26L18.5035 26C18.7793 26 19.003 25.7767 19.0035 25.5009L19.0058 24.1542C19.0063 23.8778 18.8547 23.6235 18.6113 23.4925C18.4202 23.3896 18.332 23.3406 18.2534 23.2891L17.8593 23.018C15.1504 21.0635 13.5 17.9213 13.5 14.5C13.5 8.70101 18.201 4 24 4ZM24 7C19.8579 7 16.5 10.3579 16.5 14.5C16.5 17.0618 17.7927 19.4012 19.8971 20.7795L20.3059 21.0129C21.3623 21.7023 22.008 22.8837 22.0058 24.1594L22.0034 25.506C22.0001 27.4367 20.4341 29 18.5035 29L11.75 29C11.3358 29 11 29.3358 11 29.75L11 34.75C11 35.1642 11.3358 35.5 11.75 35.5L36.25 35.5C36.6642 35.5 37 35.1642 37 34.75L37 29.75C37 29.3358 36.6642 29 36.25 29L29.5028 29C27.5691 29 26.0028 27.4322 26.0028 25.4951L26.0047 24.1561C26.0066 22.8024 26.7379 21.5549 27.9182 20.8919C30.0619 19.5212 31.5 17.091 31.5 14.5C31.5 10.3579 28.1421 7 24 7Z" fill="var(--tiny-first-color)" fill-rule="evenodd"/>
  <path id="形状结合" d="M38.5 41C39.3284 41 40 41.6716 40 42.5C40 43.2594 39.4357 43.887 38.7035 43.9863L38.5 44L9.5 44C8.67157 44 8 43.3284 8 42.5C8 41.7406 8.56431 41.113 9.29646 41.0137L9.5 41L38.5 41Z" fill="var(--tiny-second-color)" fill-rule="evenodd"/>
</svg>