<svg viewBox="0 0 48 48" xmlns="http://www.w3.org/2000/svg" xmlns:xlink="http://www.w3.org/1999/xlink" width="48.000000" height="48.000000" fill="none">
  <path id="矢量 1744" d="M44.7823 32.3477C44.6373 32.4927 44.42 32.5649 44.1301 32.5649L37.1737 32.5649C37.0497 32.5649 36.9283 32.5522 36.8097 32.5269C36.7031 32.5044 36.5988 32.4712 36.4966 32.4282C36.3956 32.3853 36.3004 32.334 36.2108 32.2744C36.1155 32.2114 36.0266 32.1382 35.944 32.0557C35.8615 31.9731 35.7885 31.8843 35.7251 31.7891C35.6655 31.6992 35.6144 31.604 35.5717 31.5029C35.5284 31.4009 35.4955 31.2964 35.4727 31.1899C35.4473 31.0713 35.4347 30.9502 35.4347 30.8262L35.4347 23.8696C35.4347 23.5796 35.5071 23.3623 35.652 23.2173C35.797 23.0723 36.0144 23 36.3042 23C36.9506 23 37.5818 23.0684 38.1978 23.2056C38.7052 23.3184 39.2024 23.478 39.6891 23.6836C40.1805 23.8916 40.6452 24.1398 41.0834 24.4282C41.5731 24.7505 42.0295 25.1235 42.4529 25.5469C42.8761 25.9702 43.249 26.4268 43.5715 26.9165C43.8601 27.3545 44.1082 27.8193 44.316 28.3105C44.5219 28.7974 44.6813 29.2944 44.7942 29.8018C44.9312 30.418 44.9996 31.0488 44.9998 31.6953C44.9998 31.9854 44.9272 32.2026 44.7823 32.3477ZM33.6958 26.5264L33.6956 32.5654C33.6956 32.8018 33.741 33.0273 33.8319 33.2422C33.8718 33.3364 33.9192 33.4258 33.9741 33.5107C34.0402 33.6123 34.1171 33.7075 34.205 33.7949C34.3657 33.9561 34.55 34.0801 34.7579 34.168C34.8481 34.2065 34.9402 34.2363 35.0341 34.2588C35.1639 34.2891 35.2975 34.3047 35.4347 34.3047L41.4738 34.3052C41.7637 34.3052 41.981 34.3774 42.1259 34.5225C42.2709 34.6675 42.338 34.9805 42.338 35.2705C42.2776 35.8154 42.1683 36.3457 42.01 36.8613C41.8571 37.3594 41.6582 37.8433 41.4136 38.3135C41.1825 38.7578 40.9175 39.1758 40.6187 39.5684C40.2914 39.9985 39.9235 40.3975 39.5149 40.7656C39.0966 41.1426 38.6506 41.4736 38.177 41.7588C37.7614 42.0093 37.3246 42.2241 36.8666 42.4033C35.8516 42.8013 34.7946 43 33.6956 43C33.0492 43 32.418 42.9316 31.802 42.7944C31.2946 42.6816 30.7974 42.522 30.3107 42.3164C29.8193 42.1084 29.3546 41.8604 28.9166 41.5718C28.4268 41.2495 27.9702 40.8765 27.5469 40.4531C27.1237 40.0298 26.7507 39.5732 26.4283 39.0835C26.1399 38.6455 25.8916 38.1807 25.6837 37.6895C25.4779 37.2028 25.3186 36.7059 25.2057 36.1987C25.0687 35.5825 25 34.9507 25 34.3047C25 33.6914 25.062 33.0908 25.1858 32.5039C25.2839 32.0386 25.4209 31.582 25.5967 31.1333C25.7762 30.6753 25.9911 30.2383 26.2413 29.8228C26.5265 29.3491 26.8575 28.9033 27.2346 28.4849C27.6028 28.0762 28.0018 27.7085 28.4318 27.3813C28.8243 27.0825 29.2429 26.8174 29.6871 26.5864C30.1572 26.3418 30.6415 26.1426 31.1396 25.9897C31.655 25.8315 32.1853 25.7222 32.7307 25.6621C33.307 25.5981 33.6322 25.9502 33.6958 26.5264Z" fill="var(--tiny-second-color, #aeaeAE)" fill-rule="evenodd"/>
  <path id="减去顶层" d="M27.1681 4.03613C28.0921 4.03613 28.9961 4.41213 29.6501 5.06813L38.9041 14.3581C39.5601 15.0161 39.9221 15.8921 39.9221 16.8241L39.9221 19.3013C39.8872 19.2932 39.8523 19.2853 39.8173 19.2775C38.9857 19.0923 38.1336 19 37.261 19C36.8697 19 36.5762 19.0976 36.3805 19.2933C36.1849 19.4891 36.0871 19.7824 36.0871 20.174L36.0871 22.1659C35.7229 22.1325 35.3539 22.1154 34.9809 22.1154C33.4314 22.1154 31.9509 22.4105 30.5924 22.9475C30.4907 22.9757 30.3895 23.0052 30.2887 23.0362C29.6162 23.2425 28.9625 23.5114 28.3278 23.8417C27.7281 24.1535 27.163 24.5114 26.6331 24.9148C26.0526 25.3565 25.5139 25.8528 25.0169 26.4046C24.5078 26.9695 24.0609 27.5713 23.6759 28.2107C23.3381 28.7717 23.0481 29.3616 22.8056 29.98C22.5683 30.5857 22.3834 31.2021 22.2509 31.8303C22.0838 32.6226 22.0001 33.4334 22.0001 34.2613C22.0001 35.1334 22.0929 35.9864 22.2778 36.8183C22.4302 37.503 22.6453 38.1738 22.9232 38.8308C23.2038 39.4939 23.539 40.1214 23.9284 40.7127C24.3636 41.3739 24.8671 41.9902 25.4384 42.5617C25.9634 43.0866 26.5261 43.5543 27.1268 43.9641L14.0781 43.9641C10.7701 43.9641 8.07812 41.2721 8.07812 37.9641L8.07812 10.0361C8.07812 6.72813 10.7701 4.03613 14.0781 4.03613L27.1681 4.03613ZM27.5241 7.18413L27.5195 13.5127C27.5195 15.0657 28.7154 16.3529 30.2317 16.4989L30.5195 16.5127L36.8119 16.5118L27.5241 7.18413ZM20.1616 21.5147L25.6161 15.5147C26.1812 14.8936 26.1368 13.961 25.5153 13.3961C24.8937 12.8311 23.9613 12.8756 23.3964 13.4972L19.0516 18.276L16.788 15.796C16.6347 15.6567 16.4681 15.5546 16.288 15.4898C16.108 15.4251 15.9145 15.3977 15.7076 15.4078C15.5008 15.4176 15.3108 15.4631 15.1377 15.5445C14.9646 15.6262 14.8084 15.7437 14.6691 15.8971L11.3964 19.4972C10.8313 20.1182 10.8756 21.0509 11.4972 21.6158C12.1188 22.1807 13.0511 22.1363 13.6161 21.5147L15.7789 19.1358L17.9418 21.5147C18.0811 21.6681 18.2373 21.7856 18.4104 21.8673C18.5835 21.9487 18.7735 21.9944 18.9803 22.0045C19.1872 22.0142 19.3807 21.9867 19.5607 21.922C19.7408 21.8572 20.0084 21.6541 20.1616 21.5147Z" fill="var(--tiny-first-color, #191919)" fill-rule="evenodd"/>
</svg>
