<svg viewBox="0 0 48 48" xmlns="http://www.w3.org/2000/svg" xmlns:xlink="http://www.w3.org/1999/xlink" width="48.000000" height="48.000000" fill="none">
  <path id="矢量 1744(边框)" d="M42.1301 32.5649C42.2212 32.5649 42.3051 32.5578 42.3819 32.5435C42.5494 32.5124 42.6829 32.4471 42.7823 32.3477C42.9272 32.2026 42.9998 31.9854 42.9998 31.6953C42.9996 31.0488 42.9312 30.418 42.7942 29.8018C42.6813 29.2944 42.5219 28.7974 42.316 28.3105C42.1082 27.8193 41.8601 27.3545 41.5715 26.9165C41.249 26.4268 40.8761 25.9702 40.4529 25.5469C40.0295 25.1235 39.5731 24.7505 39.0834 24.4282C38.6452 24.1398 38.1805 23.8916 37.6891 23.6836C37.2024 23.478 36.7052 23.3184 36.1978 23.2056C35.5818 23.0684 34.9506 23 34.3042 23C34.0144 23 33.797 23.0723 33.652 23.2173C33.5448 23.3246 33.4772 23.4715 33.4494 23.6581C33.4396 23.7237 33.4347 23.7942 33.4347 23.8696L33.4347 30.8262C33.4347 30.9502 33.4473 31.0713 33.4727 31.1899C33.4809 31.2285 33.4905 31.2667 33.5014 31.3047L33.502 31.3067C33.5211 31.373 33.5444 31.4385 33.5717 31.5029C33.6144 31.604 33.6655 31.6992 33.7251 31.7891C33.7885 31.8843 33.8615 31.9731 33.944 32.0557C34.0266 32.1382 34.1155 32.2114 34.2108 32.2744C34.3004 32.334 34.3956 32.3853 34.4966 32.4282C34.5614 32.4555 34.6272 32.4788 34.6938 32.498L34.6956 32.4985C34.7333 32.5093 34.7714 32.5188 34.8097 32.5269C34.9283 32.5522 35.0497 32.5649 35.1737 32.5649L42.1301 32.5649ZM29.1396 25.9897C29.5613 25.8603 29.993 25.7636 30.4347 25.6998C30.5329 25.6856 30.6315 25.673 30.7307 25.6621C31.307 25.5981 31.6322 25.9502 31.6958 26.5264L31.6956 32.5654C31.6956 32.8018 31.741 33.0273 31.8319 33.2422C31.8718 33.3364 31.9192 33.4258 31.9741 33.5107C32.0402 33.6123 32.1171 33.7075 32.205 33.7949C32.3657 33.9561 32.55 34.0801 32.7579 34.168C32.8481 34.2065 32.9402 34.2363 33.0341 34.2588C33.1639 34.2891 33.2975 34.3047 33.4347 34.3047L39.4738 34.3052C39.7637 34.3052 39.981 34.3774 40.1259 34.5225C40.2709 34.6675 40.338 34.9805 40.338 35.2705C40.3271 35.3691 40.3145 35.4673 40.3004 35.5649C40.2364 36.0069 40.1397 36.439 40.01 36.8613C39.8571 37.3594 39.6582 37.8433 39.4136 38.3135C39.1825 38.7578 38.9175 39.1758 38.6187 39.5684C38.2914 39.9985 37.9235 40.3975 37.5149 40.7656C37.0966 41.1426 36.6506 41.4736 36.177 41.7588C35.7614 42.0093 35.3246 42.2241 34.8666 42.4033C33.8516 42.8013 32.7946 43 31.6956 43C31.0492 43 30.418 42.9316 29.802 42.7944C29.2946 42.6816 28.7974 42.522 28.3107 42.3164C27.8193 42.1084 27.3546 41.8604 26.9166 41.5718C26.4268 41.2495 25.9702 40.8765 25.5469 40.4531C25.1237 40.0298 24.7507 39.5732 24.4283 39.0835C24.1399 38.6455 23.8916 38.1807 23.6837 37.6895C23.4779 37.2028 23.3186 36.7059 23.2057 36.1987C23.0687 35.5825 23 34.9507 23 34.3047C23 33.6914 23.062 33.0908 23.1858 32.5039C23.2839 32.0386 23.4209 31.582 23.5967 31.1333C23.7762 30.6753 23.9911 30.2383 24.2413 29.8228C24.5265 29.3491 24.8575 28.9033 25.2346 28.4849C25.6028 28.0762 26.0018 27.7085 26.4318 27.3813C26.8243 27.0825 27.2429 26.8174 27.6871 26.5864C28.1572 26.3418 28.6415 26.1426 29.1396 25.9897ZM36.4347 29.5649L36.4347 26.4112C36.4638 26.4229 36.4928 26.4349 36.5218 26.4472C36.8439 26.5835 37.148 26.7458 37.4339 26.9341C37.7527 27.1438 38.0519 27.3885 38.3316 27.6682C38.6107 27.9475 38.8556 28.2469 39.066 28.5665C39.2538 28.8514 39.4162 29.1559 39.5533 29.4798C39.5652 29.5081 39.577 29.5365 39.5885 29.5649L36.4347 29.5649ZM28.2484 29.7688C28.392 29.6594 28.5411 29.557 28.6957 29.4613L28.6956 32.5653L28.6956 32.5654C28.6956 32.907 28.7308 33.241 28.8013 33.5674L28.8013 33.5675C28.8633 33.8548 28.9526 34.1361 29.0692 34.4116C29.1377 34.5732 29.2145 34.7301 29.2998 34.8823C29.3487 34.9696 29.4004 35.0554 29.4548 35.1396C29.6167 35.3886 29.7984 35.6188 29.9997 35.8303C30.0292 35.8613 30.0592 35.8919 30.0896 35.9221C30.2702 36.1032 30.463 36.2675 30.6679 36.4149C30.9519 36.6193 31.2592 36.7914 31.5897 36.9312C31.8258 37.0321 32.0745 37.1139 32.3359 37.1764C32.7026 37.2619 33.0689 37.3047 33.4347 37.3047L36.5385 37.3049C36.443 37.4591 36.3407 37.6079 36.2315 37.7513C36.0179 38.0321 35.7763 38.294 35.5066 38.537C35.2309 38.7854 34.9386 39.0026 34.6296 39.1887C34.3586 39.352 34.0732 39.4923 33.7735 39.6096C33.4967 39.7181 33.2149 39.804 32.928 39.8673C32.527 39.9558 32.1161 40 31.6956 40C31.2685 40 30.8547 39.9554 30.4543 39.8662C30.1245 39.7929 29.799 39.6884 29.4779 39.5528C29.1555 39.4163 28.8519 39.2542 28.5672 39.0666C28.2473 38.8562 27.9477 38.6113 27.6682 38.3318C27.389 38.0525 27.1443 37.7533 26.9342 37.434C26.7458 37.148 26.5833 36.8434 26.4465 36.5202C26.3116 36.2013 26.2075 35.8769 26.134 35.547C26.0447 35.145 26 34.7309 26 34.3047C26 33.9001 26.0404 33.5062 26.1212 33.123C26.185 32.8207 26.2746 32.5222 26.39 32.2275C26.508 31.9266 26.6484 31.6409 26.8113 31.3705C26.9973 31.0615 27.2146 30.7691 27.4633 30.4931C27.7056 30.2241 27.9673 29.9827 28.2484 29.7688Z" fill="var(--tiny-second-color)" fill-rule="evenodd"/>
  <path id="合并" d="M20.875 43.5L21.6875 43.5C22.5275 43.5 23.1875 42.84 23.1875 42C23.1875 41.16 22.5275 40.5 21.6875 40.5L14 40.5C13.801 40.5 13.6073 40.4776 13.4189 40.4328C13.2857 40.4011 13.1552 40.3582 13.0273 40.3042C12.8927 40.2472 12.7649 40.1796 12.6439 40.1014C12.4965 40.006 12.3592 39.8948 12.2322 39.7678C12.1052 39.6408 11.994 39.5035 11.8986 39.356C11.8204 39.2351 11.7528 39.1073 11.6958 38.9727C11.6418 38.8448 11.5989 38.7143 11.5672 38.5811C11.5224 38.3928 11.5 38.199 11.5 38L11.5 10C11.5 9.80096 11.5224 9.60726 11.5672 9.41888C11.5989 9.28571 11.6418 9.1552 11.6958 9.02735C11.7528 8.89263 11.8204 8.76479 11.8987 8.64383C11.9941 8.49641 12.1053 8.35921 12.2322 8.23223C12.3592 8.10526 12.4964 7.99408 12.6438 7.89871C12.7648 7.82045 12.8926 7.75283 13.0273 7.69585C13.1552 7.64177 13.2857 7.59889 13.4189 7.56721C13.6073 7.5224 13.801 7.5 14 7.5L24.5 7.5L26 7.5L26 13C26 13.3266 26.0339 13.6459 26.1017 13.9578C26.1604 14.2281 26.2446 14.4929 26.3542 14.7521C26.4635 15.0103 26.5941 15.2542 26.7463 15.484C26.9116 15.7334 27.1021 15.9661 27.318 16.182C27.5339 16.3979 27.7666 16.5884 28.016 16.7537C28.2458 16.9058 28.4897 17.0365 28.7479 17.1458C29.0071 17.2554 29.2718 17.3396 29.542 17.3983L29.5421 17.3983C29.8541 17.4661 30.1733 17.5 30.5 17.5L37.4274 17.5L37.5 17.5799L37.5 20.75C37.5 21.59 38.16 22.25 39 22.25C39.84 22.25 40.5 21.59 40.5 20.75L40.5 17.25C40.5 17.1165 40.488 16.9853 40.4639 16.8563C40.4398 16.7272 40.4037 16.6005 40.3556 16.4759C40.3074 16.3514 40.2489 16.2333 40.1799 16.1217C40.1109 16.01 40.0315 15.9048 39.9417 15.806L35.0976 10.4774L30.2666 5.41638C30.1269 5.27006 29.9757 5.14042 29.8128 5.02747C29.65 4.91454 29.4757 4.81829 29.2897 4.73872C29.1037 4.65915 28.9137 4.59947 28.7196 4.55968C28.5255 4.51989 28.3273 4.5 28.125 4.5L14 4.5C13.5983 4.5 13.2057 4.54192 12.8223 4.62575C12.4944 4.69745 12.1732 4.79981 11.8587 4.93283C11.5444 5.06578 11.2473 5.2248 10.9674 5.40988C10.6613 5.61236 10.3758 5.84604 10.1109 6.11091C9.84604 6.37579 9.61236 6.6613 9.40988 6.96745C9.2248 7.24729 9.06578 7.54437 8.93283 7.85869C8.79981 8.17319 8.69745 8.49438 8.62575 8.82229C8.54192 9.20569 8.5 9.59826 8.5 10L8.5 38C8.5 38.4017 8.54191 38.7943 8.62574 39.1777C8.69744 39.5056 8.79981 39.8268 8.93283 40.1413C9.06578 40.4556 9.22479 40.7527 9.40987 41.0325C9.61235 41.3387 9.84603 41.6242 10.1109 41.8891C10.3758 42.154 10.6613 42.3877 10.9675 42.5902C11.2473 42.7752 11.5444 42.9342 11.8587 43.0672C12.1731 43.2002 12.4943 43.3025 12.8222 43.3742C13.2056 43.4581 13.5982 43.5 14 43.5L20.875 43.5ZM34.7001 14.5L32.9024 12.5225L29 8.43431L29 13C29 13.1239 29.0144 13.2443 29.0432 13.3612C29.0619 13.4367 29.0866 13.5108 29.1173 13.5834C29.1505 13.662 29.1898 13.7367 29.2351 13.8075L29.2352 13.8076L29.2352 13.8076C29.2933 13.8983 29.3614 13.9827 29.4393 14.0607C29.5173 14.1386 29.6017 14.2067 29.6924 14.2648C29.7632 14.3102 29.838 14.3495 29.9166 14.3827C29.9892 14.4134 30.0632 14.4381 30.1388 14.4567L30.1389 14.4568C30.2557 14.4856 30.3761 14.5 30.5 14.5L34.7001 14.5ZM22.2415 22.5035L26.1368 17.9786C26.6848 17.342 26.6152 16.4112 25.9786 15.8632C25.342 15.3152 24.4112 15.3848 23.8632 16.0214L20.7859 19.596L19.3809 17.6919C19.289 17.5674 19.1858 17.4561 19.0712 17.3582C18.9637 17.2663 18.8461 17.1861 18.7187 17.1176C18.5952 17.0513 18.4677 16.9988 18.3362 16.9601L18.3362 16.9601C18.1995 16.92 18.0585 16.8947 17.9131 16.8844C17.7676 16.8741 17.6245 16.8792 17.4835 16.8997C17.3478 16.9194 17.2142 16.9533 17.0826 17.0016C16.9467 17.0514 16.8191 17.1142 16.6997 17.19C16.5724 17.2708 16.4545 17.3664 16.3459 17.4768L12.9307 20.948C12.3416 21.5468 12.3492 22.4801 12.948 23.0693C13.5468 23.6584 14.4801 23.6508 15.0693 23.052L17.6627 20.416L19.1164 22.3862C19.2124 22.5162 19.3206 22.6317 19.441 22.7326C19.5534 22.8268 19.6764 22.9083 19.8101 22.9771C19.9392 23.0435 20.0722 23.095 20.2093 23.1316L20.2093 23.1316C20.3521 23.1697 20.4992 23.1916 20.6507 23.1973C20.8022 23.2029 20.9505 23.1921 21.0958 23.1649C21.2352 23.1387 21.3717 23.0973 21.5054 23.0407C21.6439 22.9822 21.7727 22.9101 21.8918 22.8246C22.0195 22.733 22.136 22.626 22.2415 22.5035Z" fill="var(--tiny-first-color)" fill-rule="evenodd"/>
</svg>