<svg viewBox="0 0 48 48" xmlns="http://www.w3.org/2000/svg" xmlns:xlink="http://www.w3.org/1999/xlink" width="48.000000" height="48.000000">
  <g id="编组">
    <path id="Path(边框)" d="M21.2847 5.32817C10.9634 12.2977 5.53443 15.937 4.99776 16.2462L4.99755 16.2463L4.99678 16.2467C4.58824 16.4813 4.25869 16.7606 4.00815 17.0845C3.77946 17.3801 3.62796 17.6931 3.55364 18.0235C3.52166 18.1656 3.50397 18.311 3.50057 18.4595C3.49745 18.5961 3.50707 18.7304 3.52942 18.8626C3.55264 19 3.58962 19.135 3.64034 19.2677C3.6622 19.3249 3.68637 19.381 3.71286 19.4359C3.79994 19.6166 3.91202 19.7853 4.04909 19.9419C4.34265 20.2774 4.73129 20.5363 5.21503 20.7188L5.47092 20.8153L42.5829 20.8153L42.8518 20.7075C43.3209 20.5193 43.6974 20.2546 43.9812 19.9134C44.1064 19.7629 44.2094 19.6021 44.2904 19.4307C44.3179 19.3726 44.3429 19.3132 44.3653 19.2526C44.4119 19.1268 44.4464 18.9989 44.4688 18.8689C44.4909 18.7408 44.5012 18.6107 44.4999 18.4786C44.4984 18.3297 44.4827 18.1839 44.4529 18.041C44.3864 17.7221 44.2493 17.4179 44.0419 17.1284C43.8094 16.8041 43.5022 16.5228 43.1201 16.2846L33.9894 10.2093L26.6822 5.31804C26.4715 5.17693 26.2526 5.05369 26.0254 4.9483C25.8167 4.85152 25.6011 4.7698 25.3785 4.70314C25.1564 4.63665 24.9319 4.58648 24.705 4.55264C24.4666 4.51709 24.2255 4.49954 23.9818 4.50001C23.7384 4.50047 23.4978 4.51889 23.2599 4.55524C23.0327 4.58996 22.8081 4.64103 22.586 4.70845C22.3637 4.77593 22.1484 4.85843 21.9402 4.95595C21.7133 5.06219 21.4948 5.18626 21.2847 5.32817ZM8.08323 17.8153L40.0051 17.8153L32.3206 12.7023L25.0125 7.81047C24.8577 7.70677 24.695 7.62905 24.5244 7.5773C24.3534 7.52541 24.1744 7.49965 23.9875 7.5C23.8009 7.50036 23.6222 7.52675 23.4515 7.57917C23.2808 7.63157 23.1182 7.70999 22.9635 7.81442C15.4226 12.9064 10.4625 16.2401 8.08323 17.8153Z" fill="var(--tiny-second-color, #aeaeAE)" fill-rule="evenodd"/>
    <path id="Path" d="M21.4134 11.4802C20.8619 12.419 20.8622 13.5829 21.4143 14.5213C21.9664 15.4597 22.9837 16.0253 24.0722 15.9991C25.7008 15.9599 27.0005 14.6282 27 12.9991C26.9995 11.3701 25.699 10.0391 24.0704 10.0008C22.9819 9.97527 21.965 10.5415 21.4134 11.4802Z" fill="var(--tiny-second-color, #aeaeAE)" fill-rule="evenodd"/>
    <path id="Path" d="M44 43.5L4 43.5L5.09406 41.9287C5.71727 41.0336 6.73895 40.5 7.82963 40.5L40.1693 40.5C41.2594 40.5 42.2807 41.033 42.904 41.9274L44 43.5Z" fill="var(--tiny-first-color, #191919)" fill-rule="evenodd"/>
    <path id="形状结合" d="M8.51401 25.6414L8.5 22.7642L15.1513 22.7642L15.1667 25.687C13.152 25.7218 11.5369 27.3649 11.5369 29.3799L11.5369 41.4308L8.5 41.4308L8.51401 25.6414ZM18.5151 25.682C20.6284 25.6596 22.3535 27.3666 22.3535 29.48L22.3535 41.4308L25.675 41.4308L25.675 29.5751C25.675 27.4523 27.3775 25.7218 29.5 25.687L29.4835 22.7642L18.5 22.7642L18.5151 25.682ZM36.4846 29.2531C36.4846 27.2507 34.8496 25.6336 32.8474 25.6558L32.8333 22.7642L39.5 22.7642L39.5 41.4308L36.4846 41.4308L36.4846 29.2531Z" fill="var(--tiny-first-color, #191919)" fill-rule="evenodd"/>
  </g>
</svg>