<svg viewBox="0 0 48 48" xmlns="http://www.w3.org/2000/svg" xmlns:xlink="http://www.w3.org/1999/xlink" width="48.000000" height="48.000000" fill="none">
  <path id="矢量 122" d="M38.5217 27C41.2711 27 43.5 29.2288 43.5 31.9783L43.5 39.0217C43.5 41.7711 41.2711 44 38.5217 44L9.47827 44C6.72885 44 4.5 41.7711 4.5 39.0217L4.5 31.9783C4.5 29.2288 6.72885 27 9.47827 27L38.5217 27ZM9.47827 30L38.5217 30C39.6143 30 40.5 30.8857 40.5 31.9783L40.5 39.0217C40.5 40.1143 39.6143 41 38.5217 41L9.47827 41C8.38571 41 7.5 40.1143 7.5 39.0217L7.5 31.9783C7.5 30.8857 8.38571 30 9.47827 30ZM18 4L18.2036 4.0137C18.9357 4.11301 19.5 4.7406 19.5 5.5C19.5 6.32843 18.8284 7 18 7L14 7L13.7444 7.01291C12.4838 7.14093 11.5 8.20559 11.5 9.5L11.5 17.904L12.9298 16.449C13.4575 15.9116 14.2903 15.8557 14.8814 16.2861C15.1805 16.5798 15.5 17.1116 15.5 17.5001C15.5 17.8096 15.4048 18.1193 15.2139 18.3814L11.1942 22.498C10.5916 23.1116 9.63629 23.1627 8.97491 22.6514L4.92978 18.5545C4.64297 18.2625 4.5 17.8829 4.5 17.5036C4.5 17.1152 4.64996 16.727 4.94901 16.4333C5.48636 15.9056 6.32007 15.8648 6.90332 16.3058L8.5 17.908L8.5 9.5L8.51004 9.16494C8.6832 6.28341 11.075 4 14 4L18 4ZM43 4L43 7L35 7L35 4L43 4ZM43 20L43 23L35 23L35 20L43 20ZM32 4L32 7L24 7L24 4L32 4ZM32 20L32 23L24 23L24 20L32 20ZM27 17.5L24 17.5L24 9.5L27 9.5L27 17.5ZM43 17.5L40 17.5L40 9.5L43 9.5L43 17.5Z" fill="var(--tiny-first-color, #191919)" fill-rule="evenodd"/>
  <path id="矢量 123" d="M43 4L43 7L35 7L35 4L43 4ZM43 20L43 23L35 23L35 20L43 20ZM32 4L32 7L24 7L24 4L32 4ZM32 20L32 23L24 23L24 20L32 20ZM27 17.5L24 17.5L24 9.5L27 9.5L27 17.5ZM43 17.5L40 17.5L40 9.5L43 9.5L43 17.5Z" fill="var(--tiny-second-color, #aeaeAE)" fill-rule="evenodd"/>
</svg>
