<svg viewBox="0 0 48 48" xmlns="http://www.w3.org/2000/svg" xmlns:xlink="http://www.w3.org/1999/xlink" width="48.000000" height="48.000000" fill="none">
  <path id="形状结合" d="M32.3066 36.1708C33.5382 37.8486 35.7105 38.9072 38.1173 38.9072C38.8077 38.9072 39.4828 38.8208 40.1278 38.6531C40.9295 38.4445 41.7485 38.9254 41.9571 39.7272C42.1656 40.5289 41.6847 41.3479 40.883 41.5565C39.9914 41.7884 39.0625 41.9072 38.1173 41.9072C35.4384 41.9072 32.9319 40.9458 31.1116 39.2986C29.2874 40.9996 26.7398 41.995 24.014 41.995C21.3793 41.995 18.9112 41.0651 17.0986 39.467C15.276 41.1126 12.6066 41.9162 9.93483 41.9162C8.9703 41.9162 8.02282 41.7924 7.11479 41.5512C6.31415 41.3384 5.83756 40.5169 6.05031 39.7163C6.26306 38.9156 7.08457 38.439 7.88522 38.6518C8.54191 38.8263 9.23041 38.9162 9.93483 38.9162C12.244 38.9162 14.3408 37.9422 15.5983 36.3717C15.691 36.2558 15.7975 36.1574 15.9135 36.0768L16.1141 35.9534C16.7807 35.4615 17.7198 35.6032 18.2116 36.2698C19.4449 37.9413 21.6129 38.995 24.014 38.995C26.2649 38.995 28.311 38.069 29.5741 36.5761L29.8508 36.2235C29.9452 36.0826 30.0652 35.9554 30.2098 35.8492C30.8776 35.359 31.8164 35.503 32.3066 36.1708ZM22.8125 20.7749C22.6558 20.9777 22.5498 21.2217 22.5137 21.488L22.5 21.6915L22.4987 36.8027C21.6253 36.5745 20.8532 36.1531 20.27 35.5924L20.0318 35.3437L19.821 35.0824L19.6203 34.8346C18.5018 33.5736 16.6323 33.2916 15.1915 34.1664L14.9266 34.344L14.6103 34.5595L14.3925 34.7429L14.037 35.1217L13.8223 35.3685C12.919 36.3256 11.4964 36.9162 9.93483 36.9162C9.67053 36.9162 9.40938 36.8995 9.15288 36.8665L8.7718 36.8048L8.30199 35.8214L6.30027 29.9096C5.66927 28.046 6.58697 26.0317 8.3622 25.2654L8.64952 25.155L22.8125 20.7749ZM25.1775 20.7621L39.2566 24.8171C41.0512 25.3341 42.1763 27.0838 41.9372 28.9052L41.8846 29.2092L40.4577 35.8026L40.1892 36.6201L39.9198 36.6539L39.6243 36.7175L39.258 36.8001C38.8877 36.8711 38.5059 36.9072 38.1173 36.9072C36.6278 36.9072 35.2672 36.3694 34.3641 35.4959L34.1294 35.2495L33.9189 34.9873L33.7188 34.739C32.5336 33.3963 30.498 33.1567 29.0264 34.2369C28.7788 34.4187 28.558 34.6304 28.3683 34.8665L28.189 35.1106L28.0007 35.3415L27.7763 35.5832C27.2033 36.1488 26.4083 36.5816 25.5012 36.8113L25.5 21.6915L25.4863 21.488C25.4494 21.2161 25.3397 20.9674 25.1775 20.7621ZM26 6C27.2944 6 28.3591 6.98375 28.4871 8.24439L28.5 8.5L28.4996 10.848L32 10.8499C35.1954 10.8499 37.8073 13.3477 37.9898 16.4974L38 16.8499L37.9998 22.3719L25.6045 18.8028L25.0613 18.6745L24.6021 18.6083C23.9876 18.545 23.3666 18.5811 22.7631 18.7155L22.314 18.8347L9.99975 22.6439L10 16.8499C10 13.6545 12.4978 11.0426 15.6475 10.8601L16 10.8499L19.4996 10.848L19.5 8.5C19.5 7.20558 20.4838 6.14093 21.7444 6.01291L22 6L26 6Z" fill="var(--tiny-first-color, #191919)" fill-rule="evenodd"/>
  <path id="形状结合" d="M32.3066 36.1727C33.5382 37.8505 35.7105 38.9091 38.1173 38.9091C38.8077 38.9091 39.4828 38.8228 40.1278 38.655C40.9295 38.4464 41.7485 38.9273 41.9571 39.7291C42.1656 40.5308 41.6847 41.3498 40.883 41.5584C39.9914 41.7903 39.0625 41.9091 38.1173 41.9091C35.4384 41.9091 32.9319 40.9477 31.1116 39.3005C29.2874 41.0015 26.7398 41.9969 24.014 41.9969C21.3793 41.9969 18.9112 41.067 17.0986 39.4689C15.276 41.1145 12.6066 41.9181 9.93483 41.9181C8.9703 41.9181 8.02282 41.7944 7.11479 41.5531C6.31415 41.3403 5.83756 40.5188 6.05031 39.7182C6.26306 38.9175 7.08457 38.4409 7.88522 38.6537C8.54191 38.8282 9.23041 38.9181 9.93483 38.9181C12.244 38.9181 14.3408 37.9441 15.5983 36.3736C15.7374 36.1998 15.9074 36.0652 16.0941 35.9712C16.7607 35.4794 17.7198 35.6051 18.2116 36.2718C19.4449 37.9432 21.6129 38.9969 24.014 38.9969C26.4149 38.9969 28.5829 37.9433 29.8162 36.2719C29.9105 36.131 30.0652 35.9573 30.2098 35.8511C30.8776 35.3609 31.8164 35.5049 32.3066 36.1727Z" fill="var(--tiny-second-color, #aeaeAE)" fill-rule="nonzero"/>
</svg>
