<svg viewBox="0 0 48 48" xmlns="http://www.w3.org/2000/svg" xmlns:xlink="http://www.w3.org/1999/xlink" width="48.000000" height="48.000000" fill="none">
  <path id="形状结合" d="M34.9092 37.5C36.2892 37.5 37.4092 38.62 37.4092 40C37.4092 41.38 36.2892 42.5 34.9092 42.5C33.5292 42.5 32.4092 41.38 32.4092 40C32.4092 38.62 33.5292 37.5 34.9092 37.5ZM8.504 25.633L13.044 30.172L17.5868 25.633C18.3668 24.851 19.6328 24.851 20.4148 25.633C21.1948 26.413 21.1948 27.679 20.4148 28.461L15.872 33L20.414 37.541C21.196 38.323 21.196 39.587 20.414 40.369C20.024 40.759 19.512 40.955 19 40.955C18.488 40.955 17.976 40.759 17.586 40.369L13.044 35.828L8.5048 40.369C8.1148 40.759 7.6028 40.955 7.0908 40.955C6.5788 40.955 6.0668 40.759 5.6768 40.369C4.8948 39.587 4.8948 38.323 5.6768 37.541L10.216 33L5.676 28.461C4.896 27.679 4.896 26.413 5.676 25.633C6.458 24.851 7.724 24.851 8.504 25.633ZM42 31C43.104 31 44 31.894 44 33C44 34.106 43.104 35 42 35L28 35C26.896 35 26 34.106 26 33C26 31.894 26.896 31 28 31L42 31ZM34.9092 23.5C36.2892 23.5 37.4092 24.62 37.4092 26C37.4092 27.38 36.2892 28.5 34.9092 28.5C33.5292 28.5 32.4092 27.38 32.4092 26C32.4092 24.62 33.5292 23.5 34.9092 23.5ZM13 4C14.104 4 15 4.894 15 6L15 11L20 11C21.104 11 22 11.894 22 13C22 14.106 21.104 15 20 15L15 15L15 20C15 21.106 14.104 22 13 22C11.896 22 11 21.106 11 20L11 15L6 15C4.896 15 4 14.106 4 13C4 11.894 4.896 11 6 11L11 11L11 6C11 4.894 11.896 4 13 4ZM42 11C43.104 11 44 11.894 44 13C44 14.106 43.104 15 42 15L28 15C26.896 15 26 14.106 26 13C26 11.894 26.896 11 28 11L42 11Z" fill="var(--tiny-first-color)" fill-rule="evenodd"/>
  <path id="形状结合" d="M34.9092 37.5C36.2892 37.5 37.4092 38.62 37.4092 40C37.4092 41.38 36.2892 42.5 34.9092 42.5C33.5292 42.5 32.4092 41.38 32.4092 40C32.4092 38.62 33.5292 37.5 34.9092 37.5ZM42 31C43.104 31 44 31.894 44 33C44 34.106 43.104 35 42 35L28 35C26.896 35 26 34.106 26 33C26 31.894 26.896 31 28 31L42 31ZM34.9092 23.5C36.2892 23.5 37.4092 24.62 37.4092 26C37.4092 27.38 36.2892 28.5 34.9092 28.5C33.5292 28.5 32.4092 27.38 32.4092 26C32.4092 24.62 33.5292 23.5 34.9092 23.5ZM13 4C14.104 4 15 4.894 15 6L15 11L20 11C21.104 11 22 11.894 22 13C22 14.106 21.104 15 20 15L15 15L15 20C15 21.106 14.104 22 13 22C11.896 22 11 21.106 11 20L11 15L6 15C4.896 15 4 14.106 4 13C4 11.894 4.896 11 6 11L11 11L11 6C11 4.894 11.896 4 13 4Z" fill="var(--tiny-second-color)" fill-rule="evenodd"/>
</svg>