<svg viewBox="0 0 48 48" xmlns="http://www.w3.org/2000/svg" xmlns:xlink="http://www.w3.org/1999/xlink" width="48.000000" height="48.000000" fill="none">
  <path id="减去顶层" d="M31 5.20801C31.828 5.20801 32.5 5.88001 32.5 6.70801L32.5 8.62401L36 8.62401C37.3572 8.62401 38.5978 9.09219 39.6021 9.85796L39.928 10.124C41.08 11.218 42 12.916 42 14.624L42 16.208L6 16.208L6 14.624C6 12.916 6.726 11.378 7.878 10.284C8.934 9.36201 10.492 8.62401 12 8.62401L15.5 8.62401L15.5 6.70801C15.5 5.88001 16.172 5.20801 17 5.20801C17.828 5.20801 18.5 5.88001 18.5 6.70801L18.5 8.62401L29.5 8.62401L29.5 6.70801C29.5 5.88001 30.172 5.20801 31 5.20801ZM42 19.208L42 36.792C42 40.1 39.308 42.792 36 42.792L12 42.792C8.692 42.792 6 40.1 6 36.792L6 19.208L42 19.208ZM25.0298 23C25.5818 23 26.0298 23.448 26.0298 24L26.0298 26C26.0298 26.55 25.5818 27 25.0298 27L23.0298 27C22.4778 27 22.0298 26.55 22.0298 26L22.0298 24C22.0298 23.448 22.4778 23 23.0298 23L25.0298 23ZM16.9597 23.0001C17.5117 23.0001 17.9597 23.4481 17.9597 24.0001L17.9597 26.0001C17.9597 26.5501 17.5117 27.0001 16.9597 27.0001L14.9597 27.0001C14.4077 27.0001 13.9597 26.5501 13.9597 26.0001L13.9597 24.0001C13.9597 23.4481 14.4077 23.0001 14.9597 23.0001L16.9597 23.0001ZM34.0298 24.0042C34.0298 23.4522 33.5818 23.0042 33.0298 23.0042L31.0298 23.0042C30.4778 23.0042 30.0298 23.4522 30.0298 24.0042L30.0298 26.0042C30.0298 26.5542 30.4778 27.0042 31.0298 27.0042L33.0298 27.0042C33.5818 27.0042 34.0298 26.5542 34.0298 26.0042L34.0298 24.0042ZM16.9872 31.0001C17.5392 31.0001 17.9872 31.4481 17.9872 32.0001L17.9872 34.0001C17.9872 34.5501 17.5392 35.0001 16.9872 35.0001L14.9872 35.0001C14.4352 35.0001 13.9872 34.5501 13.9872 34.0001L13.9872 32.0001C13.9872 31.4481 14.4352 31.0001 14.9872 31.0001L16.9872 31.0001ZM32.9872 31.0407C33.5392 31.0407 33.9872 31.4887 33.9872 32.0407L33.9872 34.0407C33.9872 34.5907 33.5392 35.0407 32.9872 35.0407L30.9872 35.0407C30.4352 35.0407 29.9872 34.5907 29.9872 34.0407L29.9872 32.0407C29.9872 31.4887 30.4352 31.0407 30.9872 31.0407L32.9872 31.0407ZM25.9872 32.0448C25.9872 31.4928 25.5392 31.0448 24.9872 31.0448L22.9872 31.0448C22.4352 31.0448 21.9872 31.4928 21.9872 32.0448L21.9872 34.0448C21.9872 34.5948 22.4352 35.0448 22.9872 35.0448L24.9872 35.0448C25.5392 35.0448 25.9872 34.5948 25.9872 34.0448L25.9872 32.0448Z" fill="var(--tiny-first-color)" fill-rule="evenodd"/>
  <path id="形状结合" d="M31 5.20752C31.828 5.20752 32.5 5.87952 32.5 6.70752L32.5 8.62552L36 8.62552C37.3572 8.62552 38.5978 9.0937 39.6007 9.85947L39.926 10.1255C41.076 11.2195 42 12.9155 42 14.6255L42 16.2075L6 16.2075L6 14.6255C6 12.9155 6.726 11.3795 7.878 10.2855C8.932 9.36352 10.492 8.62552 12 8.62552L15.5 8.62552L15.5 6.70752C15.5 5.87952 16.172 5.20752 17 5.20752C17.828 5.20752 18.5 5.87952 18.5 6.70752L18.5 8.62552L29.5 8.62552L29.5 6.70752C29.5 5.87952 30.172 5.20752 31 5.20752Z" fill="var(--tiny-second-color)" fill-rule="evenodd"/>
</svg>