<svg viewBox="0 0 48 48" xmlns="http://www.w3.org/2000/svg" xmlns:xlink="http://www.w3.org/1999/xlink" width="48.000000" height="48.000000">
  <path id="减去顶层" d="M27.168 4.03613C28.092 4.03613 28.996 4.41213 29.65 5.06813L38.904 14.3581C39.0625 14.5171 39.2038 14.6887 39.327 14.8708L22.8037 31.3954L20.6615 35.7759L18.3455 40.5787C17.8811 41.5419 18.8621 42.5647 19.8439 42.1407L24.2765 40.2262L29.1081 38.0112L39.922 27.1979L39.922 37.9641C39.922 41.2721 37.23 43.9641 33.922 43.9641L14.078 43.9641C10.77 43.9641 8.078 41.2721 8.078 37.9641L8.078 10.0361C8.078 6.72813 10.77 4.03613 14.078 4.03613L27.168 4.03613ZM27.524 7.18413L27.5194 13.5127C27.5194 15.0657 28.7153 16.3529 30.2316 16.4989L30.5194 16.5127L36.8117 16.5118L27.524 7.18413ZM20.9701 19.0011L24.5861 15.3851C25.138 14.8332 25.138 13.9659 24.5861 13.4139C24.0341 12.862 23.1668 12.862 22.6149 13.4139L18.9989 17.0299L15.3851 13.4161C14.8332 12.8642 13.9659 12.8642 13.4139 13.4161C12.862 13.9681 12.862 14.8354 13.4139 15.3873L17.0277 19.0011L13.4141 22.6147C12.8622 23.1666 12.8622 24.0339 13.4141 24.5859C13.9661 25.1378 14.8334 25.1378 15.3853 24.5859L18.9989 20.9723L22.6147 24.588C23.1666 25.14 24.0339 25.14 24.5859 24.588C25.1378 24.0361 25.1378 23.1688 24.5859 22.6169L20.9701 19.0011Z" fill="var(--tiny-first-color, #191919)" fill-rule="evenodd"/>
  <path id="形状结合" d="M36.568 19.5582L41.008 23.9982L28.32 36.6842L25 38.2062L20 40.4982L22.516 35.1482L23.988 32.1382L36.568 19.5582ZM43.1736 16.8749L43.4124 17.0846C44.5964 18.2328 44.682 20.0844 43.6542 21.332L43.4484 21.5586L43.1284 21.8766L38.6884 17.4366L39.0084 17.1186C40.1447 15.9823 41.9401 15.8972 43.1736 16.8749Z" fill="var(--tiny-second-color, #aeaeAE)" fill-rule="evenodd"/>
</svg>