<svg viewBox="0 0 48 48" xmlns="http://www.w3.org/2000/svg" xmlns:xlink="http://www.w3.org/1999/xlink" width="48.000000" height="48.000000">
  <path id="合并" d="M28.2662 4.05971C28.1798 4.04422 28.0908 4.03613 28 4.03613L14.078 4.03613C10.77 4.03613 8.078 6.72813 8.078 10.0361L8.078 37.9641C8.078 41.2721 10.77 43.9641 14.078 43.9641L33.922 43.9641C37.23 43.9641 39.922 41.2721 39.922 37.9641L39.922 30.9901C39.922 30.1621 39.25 29.4901 38.422 29.4901C37.594 29.4901 36.922 30.1621 36.922 30.9901L36.922 37.9641C36.922 39.6181 35.576 40.9641 33.922 40.9641L14.078 40.9641C12.424 40.9641 11.078 39.6181 11.078 37.9641L11.078 10.0361C11.078 8.38213 12.424 7.03613 14.078 7.03613L26.498 7.03413L26.5 13.0011C26.5 15.4811 28.518 17.5011 31 17.5011L38.422 17.5011C39.028 17.5011 39.574 17.1351 39.806 16.5771C40.04 16.0171 39.912 15.3731 39.484 14.9431L29.0755 4.49082C29.022 4.43582 28.7937 4.27325 28.7337 4.22745C28.7061 4.21199 28.4955 4.12373 28.4683 4.11077C28.4225 4.09571 28.3138 4.06968 28.2662 4.05971ZM29.5 13.0011L29.5 9.16913L34.81 14.5011L31 14.5011C30.172 14.5011 29.5 13.8271 29.5 13.0011ZM13.4141 22.6147L17.0277 19.0011L13.4139 15.3873C12.862 14.8354 12.862 13.9681 13.4139 13.4161C13.9659 12.8642 14.8332 12.8642 15.3851 13.4161L18.9989 17.0299L22.6149 13.4139C23.1668 12.862 24.0341 12.862 24.5861 13.4139C25.138 13.9659 25.138 14.8332 24.5861 15.3851L20.9701 19.0011L24.5859 22.6169C25.1378 23.1688 25.1378 24.0361 24.5859 24.588C24.0339 25.14 23.1666 25.14 22.6147 24.588L18.9989 20.9723L15.3853 24.5859C14.8334 25.1378 13.9661 25.1378 13.4141 24.5859C12.8622 24.0339 12.8622 23.1666 13.4141 22.6147Z" fill="var(--tiny-first-color, #191919)" fill-rule="evenodd"/>
  <path id="矢量 1706" d="M45.0064 19.892L30.0144 34.884C29.9063 34.9933 29.7859 35.0894 29.656 35.1702L29.4543 35.28L21.1624 39.1899C20.9443 39.292 20.7224 39.338 20.5103 39.338C19.5447 39.338 18.7532 38.3729 19.0715 37.3756L23.0584 28.884C23.1238 28.7467 23.2051 28.6156 23.3005 28.4954L38.4463 13.332C39.3342 12.444 40.5002 12 41.6704 12C42.8604 12 44.0544 12.458 44.9663 13.3719C46.696 15.1017 46.791 17.8408 45.2393 19.6414L45.0064 19.892ZM41.6704 15C41.4551 15.0159 41.0305 15.0862 40.7388 15.3042L40.1868 15.8337L42.5049 18.1517L42.8862 17.772C43.2258 17.4326 43.3154 17.0374 43.334 16.7764C43.332 16.3384 43.1604 15.806 42.8464 15.4919C42.5283 15.176 42.1104 15 41.6704 15ZM38.0647 17.9537L25.6982 30.322L23.6284 34.708L28.0164 32.64L40.3848 20.2717L38.0647 17.9537Z" fill="var(--tiny-second-color, #aeaeAE)" fill-rule="evenodd"/>
</svg>