<svg viewBox="0 0 48 48" xmlns="http://www.w3.org/2000/svg" xmlns:xlink="http://www.w3.org/1999/xlink" width="48.000000" height="48.000000" fill="none">
  <path id="形状结合" d="M19 23C20.933 23 22.5 24.567 22.5 26.5L22.5 38.5C22.5 40.433 20.933 42 19 42L9.5 42C7.567 42 6 40.433 6 38.5L6 26.5C6 24.567 7.567 23 9.5 23L19 23ZM38.5 31C40.433 31 42 32.567 42 34.5L42 38.5C42 40.433 40.433 42 38.5 42L29 42C27.067 42 25.5 40.433 25.5 38.5L25.5 34.5C25.5 32.567 27.067 31 29 31L38.5 31ZM19 26L9.5 26C9.22386 26 9 26.2239 9 26.5L9 38.5C9 38.7761 9.22386 39 9.5 39L19 39C19.2761 39 19.5 38.7761 19.5 38.5L19.5 26.5C19.5 26.2239 19.2761 26 19 26ZM38.5 34L29 34C28.7239 34 28.5 34.2239 28.5 34.5L28.5 38.5C28.5 38.7761 28.7239 39 29 39L38.5 39C38.7761 39 39 38.7761 39 38.5L39 34.5C39 34.2239 38.7761 34 38.5 34ZM38.5 6C40.433 6 42 7.567 42 9.5L42 24.5C42 26.433 40.433 28 38.5 28L29 28C27.067 28 25.5 26.433 25.5 24.5L25.5 9.5C25.5 7.567 27.067 6 29 6L38.5 6ZM38.5 9L29 9C28.7239 9 28.5 9.22386 28.5 9.5L28.5 24.5C28.5 24.7761 28.7239 25 29 25L38.5 25C38.7761 25 39 24.7761 39 24.5L39 9.5C39 9.22386 38.7761 9 38.5 9ZM19 6C20.933 6 22.5 7.567 22.5 9.5L22.5 16.5C22.5 18.433 20.933 20 19 20L9.5 20C7.567 20 6 18.433 6 16.5L6 9.5C6 7.567 7.567 6 9.5 6L19 6ZM19 9L9.5 9C9.22386 9 9 9.22386 9 9.5L9 16.5C9 16.7761 9.22386 17 9.5 17L19 17C19.2761 17 19.5 16.7761 19.5 16.5L19.5 9.5C19.5 9.22386 19.2761 9 19 9Z" fill="var(--tiny-first-color, #191919)" fill-rule="evenodd"/>
  <path id="形状结合" d="M38.5 6C40.433 6 42 7.567 42 9.5L42 24.5C42 26.433 40.433 28 38.5 28L29 28C27.067 28 25.5 26.433 25.5 24.5L25.5 9.5C25.5 7.567 27.067 6 29 6L38.5 6ZM38.5 9L29 9C28.7239 9 28.5 9.22386 28.5 9.5L28.5 24.5C28.5 24.7761 28.7239 25 29 25L38.5 25C38.7761 25 39 24.7761 39 24.5L39 9.5C39 9.22386 38.7761 9 38.5 9Z" fill="var(--tiny-second-color, #aeaeAE)" fill-rule="evenodd"/>
</svg>
