<svg viewBox="0 0 48 48" xmlns="http://www.w3.org/2000/svg" xmlns:xlink="http://www.w3.org/1999/xlink" width="48.000000" height="48.000000">
  <path id="形状结合" d="M36 6C39.3137 6 42 8.68629 42 12C42 12.8284 41.3284 13.5 40.5 13.5C39.6716 13.5 39 12.8284 39 12C39 10.4615 37.8419 9.19348 36.3499 9.02018L36 9L12 9C10.4615 9 9.19348 10.1581 9.02018 11.6501L9 12L9 36C9 37.5385 10.1581 38.8065 11.6501 38.9798L12 39L36 39C37.5385 39 38.8065 37.8419 38.9798 36.3499L39 36L39 17C39 16.1716 39.6716 15.5 40.5 15.5C41.2364 15.5 41.8488 16.0306 41.9758 16.7304L42 17L42 36C42 39.1631 39.5524 41.7545 36.4478 41.9835L36 42L12 42C8.83692 42 6.2455 39.5524 6.01646 36.4478L6 36L6 12C6 8.83692 8.44763 6.2455 11.5522 6.01646L12 6L36 6Z" fill="var(--tiny-first-color)" fill-rule="evenodd"/>
  <path id="矢量 1747" d="M35.2022 18.8975C35.6403 18.3121 35.5954 17.4786 35.0651 16.9438C34.4818 16.3556 33.5321 16.3516 32.9438 16.9349L21.898 27.886L15.0562 21.1023C14.4671 20.6691 13.4652 20.5765 12.9349 21.1112C12.3516 21.6995 12.3556 22.6492 12.9438 23.2326L20.8425 31.0651C21.4279 31.4964 22.4233 31.5923 22.9549 31.0651L35.2022 18.8975Z" fill="var(--tiny-second-color)" fill-rule="evenodd"/>
</svg>