<svg viewBox="0 0 48 48" xmlns="http://www.w3.org/2000/svg" xmlns:xlink="http://www.w3.org/1999/xlink" width="48.000000" height="48.000000" fill="none">
  <path id="Fill-1" d="M36.0005 19.711C35.4885 19.711 34.9765 19.515 34.5865 19.125L19.7085 4.247C19.4525 3.991 19.1545 3.953 19.0005 3.953C18.8465 3.953 18.5485 3.991 18.2945 4.247L3.4145 19.125C2.6325 19.907 1.3685 19.907 0.5865 19.125C-0.1955 18.343 -0.1955 17.079 0.5865 16.297L15.4645 1.419C17.3525 -0.473 20.6485 -0.473 22.5365 1.419L37.4145 16.297C38.1965 17.079 38.1965 18.343 37.4145 19.125C37.0245 19.515 36.5125 19.711 36.0005 19.711Z" fill="var(--tiny-first-color)" fill-rule="evenodd" transform="matrix(1,0,0,-1,4.99951,33.8555)"/>
</svg>