<svg viewBox="0 0 48 48" xmlns="http://www.w3.org/2000/svg" xmlns:xlink="http://www.w3.org/1999/xlink" width="48.000000" height="48.000000">
  <path id="Fill-1" d="M31.8781 43.0005C31.3661 43.0005 30.8541 42.8045 30.4641 42.4145L15.5861 27.5365C14.6421 26.5905 14.1221 25.3365 14.1221 24.0005C14.1221 22.6625 14.6421 21.4065 15.5861 20.4625L30.4641 5.5865C31.2461 4.8045 32.5101 4.8045 33.2921 5.5865C34.0741 6.3685 34.0741 7.6325 33.2921 8.4145L18.4141 23.2925C18.1601 23.5485 18.1221 23.8465 18.1221 24.0005C18.1221 24.1545 18.1601 24.4525 18.4141 24.7085L33.2921 39.5865C34.0741 40.3685 34.0741 41.6325 33.2921 42.4145C32.9021 42.8045 32.3901 43.0005 31.8781 43.0005Z" fill="var(--tiny-first-color)" fill-rule="evenodd"/>
</svg>