<svg viewBox="0 0 48 48" xmlns="http://www.w3.org/2000/svg" xmlns:xlink="http://www.w3.org/1999/xlink" width="48.000000" height="48.000000" fill="none">
  <path id="Fill-1" d="M16.1216 43.0005C15.6096 43.0005 15.0976 42.8045 14.7076 42.4145C13.9256 41.6325 13.9256 40.3685 14.7076 39.5865L29.5856 24.7085C29.8416 24.4525 29.8796 24.1545 29.8796 24.0005C29.8796 23.8465 29.8416 23.5485 29.5876 23.2945L14.7076 8.4145C13.9256 7.6325 13.9256 6.3685 14.7076 5.5865C15.4896 4.8045 16.7536 4.8045 17.5356 5.5865L32.4136 20.4645C33.3596 21.4065 33.8796 22.6625 33.8796 24.0005C33.8796 25.3365 33.3596 26.5905 32.4136 27.5365L17.5356 42.4145C17.1456 42.8045 16.6336 43.0005 16.1216 43.0005Z" fill="var(--tiny-first-color)" fill-rule="evenodd"/>
</svg>