<svg viewBox="0 0 48 48" xmlns="http://www.w3.org/2000/svg" xmlns:xlink="http://www.w3.org/1999/xlink" width="48.000000" height="48.000000">
  <path id="icon_clear_filter" d="M28.062 45C27.724 45.0031 27.394 44.898 27.12 44.7001L18.549 38.142C18.1985 37.8682 17.9955 37.4467 18 37.002L18 23.1211L4.332 9.92999C3.59033 9.20252 3.01556 8.04071 3 7.00196C3.03763 4.7818 4.84753 3.00128 7.06796 3L40.929 3C41.9847 2.9989 42.9994 3.40888 43.758 4.14295C44.5313 4.89588 44.9775 5.92291 45 7.00196C44.9964 7.875 44.6971 8.72095 44.151 9.40192L43.8 9.79193L29.619 23.421L29.559 43.539C29.5596 44.105 29.2218 44.6164 28.701 44.838C28.5024 44.9379 28.2843 44.9932 28.062 45ZM6.75604 7.42804L20.367 20.7689C20.9854 21.3734 21.3773 22.1721 21.477 23.031L21.501 23.469L21.501 36.6L26.061 40.158L26.061 23.8951L26.079 23.5291C26.1508 22.7875 26.4387 22.0834 26.907 21.5041L27.207 21.204L41.328 7.36505C41.3275 7.31904 41.3371 7.24835 41.3479 7.16899C41.3731 6.98339 41.4048 6.75047 41.328 6.67493L40.923 6.50995L7.07996 6.50995C6.92743 6.50849 6.78058 6.56781 6.672 6.67493C6.58667 6.75641 6.52634 6.8606 6.49796 6.97504C6.51013 7.10871 6.65634 7.33795 6.75604 7.42804ZM40.938 43.062L44.376 46.5C44.6571 46.7803 45.038 46.938 45.4351 46.938C45.8321 46.938 46.2131 46.7803 46.4941 46.5C47.0778 45.9146 47.0778 44.9672 46.4941 44.3818L43.0562 40.9438L46.4941 37.5059C47.0778 36.9205 47.0778 35.9731 46.4941 35.3877C45.9088 34.8041 44.9614 34.8041 44.376 35.3877L40.938 38.8257L37.5 35.3877C36.9146 34.8041 35.9672 34.8041 35.3818 35.3877C34.7982 35.9731 34.7982 36.9205 35.3818 37.5059L38.8198 40.9438L35.3818 44.3818C34.7982 44.9672 34.7982 45.9146 35.3818 46.5C35.9672 47.0836 36.9146 47.0836 37.5 46.5L40.938 43.062Z" fill="var(--tiny-first-color)" fill-rule="evenodd"/>
  <path id="icon_clear_filter" d="M44.376 46.5001L40.9381 43.0621L37.5001 46.5001C36.9147 47.0837 35.9673 47.0837 35.3819 46.5001C34.7983 45.9147 34.7983 44.9673 35.3819 44.382L38.8199 40.944L35.3819 37.506C34.7983 36.9206 34.7983 35.9732 35.3819 35.3878C35.9673 34.8043 36.9147 34.8043 37.5001 35.3878L40.9381 38.8258L44.376 35.3878C44.9614 34.8043 45.9088 34.8043 46.4942 35.3878C47.0779 35.9732 47.0779 36.9206 46.4942 37.506L43.0562 40.944L46.4942 44.382C47.0779 44.9673 47.0779 45.9147 46.4942 46.5001C46.2131 46.7805 45.8322 46.9381 45.4351 46.9381C45.0381 46.9381 44.6572 46.7805 44.376 46.5001Z" fill="var(--tiny-second-color)" fill-rule="evenodd"/>
</svg>