<svg viewBox="0 0 48 48" xmlns="http://www.w3.org/2000/svg" xmlns:xlink="http://www.w3.org/1999/xlink" width="48.000000" height="48.000000" fill="none">
  <path id="icon_clear_filter" d="M43.759 4.14312C42.9825 3.39257 41.9398 2.98113 40.86 2.99962L7.14001 2.99962C6.06024 2.98113 5.01746 3.39257 4.241 4.14312C3.46454 4.89366 3.01813 5.92198 3 7.00176C3.01218 8.04051 3.58621 9.20323 4.32898 9.92961L18 23.1207L18 36.9986C17.996 37.4434 18.1989 37.8646 18.549 38.1387L27.12 44.6997C27.393 44.8973 27.722 45.0024 28.059 44.9998C28.2812 44.9947 28.4995 44.9403 28.698 44.8407C29.22 44.62 29.5591 44.1083 29.559 43.5417L29.619 23.4206L43.806 9.79466L44.154 9.40172C44.7006 8.72112 44.999 7.87462 45 7.00176C44.9819 5.92198 44.5355 4.89366 43.759 4.14312ZM43.9351 46.05L40.4971 42.6121L37.0591 46.05C36.4737 46.6336 35.5263 46.6336 34.9409 46.05C34.3573 45.4647 34.3573 44.5173 34.9409 43.9319L38.3789 40.4939L34.9409 37.0559C34.3573 36.4705 34.3573 35.5231 34.9409 34.9377C35.5263 34.3542 36.4737 34.3542 37.0591 34.9377L40.4971 38.3757L43.9351 34.9377C44.5204 34.3542 45.4678 34.3542 46.0532 34.9377C46.6369 35.5231 46.6369 36.4705 46.0532 37.0559L42.6152 40.4939L46.0532 43.9319C46.6369 44.5173 46.6369 45.4647 46.0532 46.05C45.7722 46.3304 45.3912 46.488 44.9941 46.488C44.5971 46.488 44.2162 46.3304 43.9351 46.05Z" fill="var(--tiny-first-color, #191919)" fill-rule="evenodd"/>
  <path id="icon_clear_filter" d="M43.9353 46.05L40.4973 42.612L37.0593 46.05C36.4739 46.6335 35.5265 46.6335 34.9412 46.05C34.3575 45.4646 34.3575 44.5172 34.9412 43.9318L38.3791 40.4938L34.9412 37.0558C34.3575 36.4704 34.3575 35.5231 34.9412 34.9377C35.5265 34.3541 36.4739 34.3541 37.0593 34.9377L40.4973 38.3757L43.9353 34.9377C44.5207 34.3541 45.4681 34.3541 46.0535 34.9377C46.6371 35.5231 46.6371 36.4704 46.0535 37.0558L42.6155 40.4938L46.0535 43.9318C46.6371 44.5172 46.6371 45.4646 46.0535 46.05C45.7724 46.3303 45.3914 46.488 44.9944 46.488C44.5973 46.488 44.2165 46.3303 43.9353 46.05Z" fill="var(--tiny-second-color, #aeaeAE)" fill-rule="evenodd"/>
</svg>
