<svg viewBox="0 0 48 48" xmlns="http://www.w3.org/2000/svg" xmlns:xlink="http://www.w3.org/1999/xlink" width="48.000000" height="48.000000">
  <path id="Fill-1" d="M30.63 30.63C30.338 30.922 29.954 31.07 29.57 31.07C29.184 31.07 28.802 30.922 28.508 30.63L22.938 25.06C22.658 24.778 22.5 24.398 22.5 24L22.5 12.06C22.5 11.232 23.172 10.56 24 10.56C24.828 10.56 25.5 11.232 25.5 12.06L25.5 23.378L30.63 28.508C31.216 29.094 31.216 30.044 30.63 30.63ZM24 4C12.972 4 4 12.972 4 24C4 35.026 12.972 44 24 44C35.026 44 44 35.026 44 24C44 12.972 35.026 4 24 4Z" fill="var(--tiny-first-color)" fill-rule="evenodd"/>
  <path id="Fill-1" d="M30.63 30.6301C30.338 30.9221 29.954 31.0701 29.57 31.0701C29.184 31.0701 28.802 30.9221 28.508 30.6301L22.938 25.0601C22.658 24.7781 22.5 24.3981 22.5 24.0001L22.5 12.0601C22.5 11.2321 23.172 10.5601 24 10.5601C24.828 10.5601 25.5 11.2321 25.5 12.0601L25.5 23.3781L30.63 28.5081C31.216 29.0941 31.216 30.0441 30.63 30.6301Z" fill="var(--tiny-second-color)" fill-rule="evenodd"/>
</svg>