<svg viewBox="0 0 48 48" xmlns="http://www.w3.org/2000/svg" xmlns:xlink="http://www.w3.org/1999/xlink" width="48.000000" height="48.000000" fill="none">
  <path id="Stroke-1" d="M21.5704 4.08678C23.5639 3.84302 25.3326 5.32807 25.4892 7.29201L25.5005 7.57569L25.5001 23.3179L30.6322 28.4401C31.1652 28.9721 31.2144 29.8054 30.7792 30.393C30.2471 30.926 29.2688 31.1436 28.6811 30.7084L22.9408 25.0013C22.7153 24.7762 22.5688 24.4867 22.5192 24.176L22.5005 23.9397L22.5005 7.57569C22.5005 7.26968 22.23 7.02848 21.9327 7.06483C13.4518 8.09113 7.00049 15.3205 7.00049 23.9397C7.00049 33.5095 14.8917 41.1982 24.4834 40.9323C33.4462 40.6864 40.8976 33.1046 40.9986 24.1329C41.0853 16.3863 35.9419 9.62772 28.5997 7.57004C27.802 7.34648 27.3366 6.5186 27.5601 5.7209C27.7837 4.92321 28.6116 4.45778 29.4093 4.68134C38.05 7.10295 44.1004 15.0533 43.9984 24.1666C43.8793 34.7492 35.1403 43.6411 24.5661 43.9311C13.285 44.2439 4.00049 35.1977 4.00049 23.9397C4.00049 13.7987 11.5893 5.29463 21.5704 4.08678Z" fill="var(--tiny-first-color, #191919)" fill-rule="evenodd"/>
</svg>
