<svg viewBox="0 0 48 48" xmlns="http://www.w3.org/2000/svg" xmlns:xlink="http://www.w3.org/1999/xlink" width="48.000000" height="48.000000" fill="none">
  <path id="形状结合" d="M11.998 42C8.692 42 6 39.308 6 36.002L6 11.998C6 8.692 8.692 6 11.998 6L36.002 6C39.308 6 42 8.692 42 11.998C42 12.826 41.328 13.498 40.5 13.498C39.672 13.498 39 12.826 39 11.998C39 10.346 37.654 9 36.002 9L11.998 9C10.346 9 9 10.346 9 11.998L9 36.002C9 37.654 10.346 39 11.998 39L36.002 39C37.654 39 39 37.654 39 36.002L39 17.0126C39 16.1846 39.672 15.5126 40.5 15.5126C41.328 15.5126 42 16.1846 42 17.0126L42 36.002C42 39.308 39.308 42 36.002 42L11.998 42Z" fill="var(--tiny-first-color)" fill-rule="evenodd"/>
  <path id="形状结合" d="M17.3923 16.294L23.5712 22.4488L29.5818 16.4393C30.1676 15.8535 31.1174 15.8536 31.7031 16.4394C32.2356 16.972 32.284 17.8053 31.8482 18.3925L25.6912 24.5688L31.7026 30.5793C32.2884 31.165 32.2885 32.1148 31.7027 32.7006C31.1702 33.2332 30.3369 33.2816 29.7497 32.846L23.5692 26.6888L17.561 32.7007C16.9752 33.2865 16.0254 33.2864 15.4397 32.7006C14.9072 32.168 14.8588 31.3347 15.2946 30.7475L21.4492 24.5688L15.4394 18.5607C14.8536 17.975 14.8535 17.0252 15.4393 16.4394C15.9718 15.9068 16.8051 15.8584 17.3923 16.294Z" fill="var(--tiny-second-color)" fill-rule="evenodd"/>
</svg>