<svg viewBox="0 0 48 48" xmlns="http://www.w3.org/2000/svg" xmlns:xlink="http://www.w3.org/1999/xlink" width="48.000000" height="48.000000">
  <path id="形状结合" d="M10.8924 8.7941L24 21.878L36.9393 8.93934C37.5251 8.35355 38.4749 8.35355 39.0607 8.93934C39.5932 9.47187 39.6416 10.3052 39.2059 10.8924L26.122 24L39.0607 36.9393C39.6464 37.5251 39.6464 38.4749 39.0607 39.0607C38.5281 39.5932 37.6948 39.6416 37.1076 39.2059L24 26.122L11.0607 39.0607C10.4749 39.6464 9.52513 39.6464 8.93934 39.0607C8.40681 38.5281 8.35839 37.6948 8.7941 37.1076L21.878 24L8.93934 11.0607C8.35355 10.4749 8.35355 9.52513 8.93934 8.93934C9.47187 8.40681 10.3052 8.35839 10.8924 8.7941Z" fill="var(--tiny-first-color)" fill-rule="evenodd"/>
</svg>