<svg viewBox="0 0 48 48" xmlns="http://www.w3.org/2000/svg" xmlns:xlink="http://www.w3.org/1999/xlink" width="48.000000" height="48.000000" fill="none">
  <path id="形状结合" d="M11.414 8.5865L23.9995 21.172L36.586 8.5865C37.368 7.8045 38.632 7.8045 39.414 8.5865C40.196 9.3685 40.196 10.6325 39.414 11.4145L26.8275 24L39.414 36.5865C40.196 37.3685 40.196 38.6325 39.414 39.4145C39.024 39.8045 38.512 40.0005 38 40.0005C37.488 40.0005 36.976 39.8045 36.586 39.4145L23.9995 26.828L11.414 39.4145C11.024 39.8045 10.512 40.0005 10 40.0005C9.48801 40.0005 8.97601 39.8045 8.58601 39.4145C7.80401 38.6325 7.80401 37.3685 8.58601 36.5865L21.1715 24L8.58601 11.4145C7.80401 10.6325 7.80401 9.3685 8.58601 8.5865C9.36801 7.8045 10.632 7.8045 11.414 8.5865Z" fill="var(--tiny-first-color)" fill-rule="evenodd"/>
</svg>