<svg viewBox="0 0 48 48" xmlns="http://www.w3.org/2000/svg" xmlns:xlink="http://www.w3.org/1999/xlink" width="48.000000" height="48.000000">
  <path id="形状结合" d="M24 4C28.4341 4 32.6516 5.44838 36.1066 8.07848C36.7657 8.58028 36.8933 9.52142 36.3915 10.1806C35.8897 10.8397 34.9486 10.9673 34.2894 10.4655C31.3523 8.22962 27.7718 7 24 7C14.6117 7 7 14.6111 7 24C7 33.3876 14.6124 41 24 41C33.3889 41 41 33.3883 41 24C41 20.2292 39.7717 16.6507 37.5362 13.7122C37.0346 13.0529 37.1625 12.1118 37.8218 11.6102C38.4811 11.1086 39.4222 11.2365 39.9238 11.8958C42.5532 15.352 44 19.5672 44 24C44 35.0451 35.0458 44 24 44C12.9556 44 4 35.0444 4 24C4 12.9542 12.9549 4 24 4ZM17.8211 15.7472L24 21.902L30.0106 15.8925C30.5964 15.3067 31.5462 15.3068 32.1319 15.8926C32.6644 16.4252 32.7128 17.2585 32.277 17.8457L26.12 24.022L32.1314 30.0325C32.7172 30.6182 32.7173 31.568 32.1315 32.1538C31.599 32.6864 30.7657 32.7348 30.1785 32.2992L23.998 26.142L17.9898 32.1539C17.404 32.7397 16.4542 32.7396 15.8685 32.1538C15.336 31.6212 15.2876 30.7879 15.7234 30.2007L21.878 24.022L15.8682 18.0139C15.2824 17.4282 15.2823 16.4784 15.8681 15.8926C16.4006 15.36 17.2339 15.3116 17.8211 15.7472Z" fill="var(--tiny-first-color)" fill-rule="evenodd"/>
  <path id="形状结合" d="M17.821 15.7472L23.9999 21.9019L30.0105 15.8924C30.5964 15.3066 31.5461 15.3067 32.1318 15.8925C32.6643 16.4251 32.7127 17.2584 32.2769 17.8456L26.1199 24.0219L32.1313 30.0324C32.7171 30.6181 32.7172 31.5679 32.1314 32.1537C31.599 32.6863 30.7656 32.7347 30.1784 32.2991L23.9979 26.1419L17.9897 32.1539C17.4039 32.7396 16.4541 32.7395 15.8684 32.1537C15.3359 31.6211 15.2875 30.7878 15.7233 30.2006L21.8779 24.0219L15.8681 18.0139C15.2823 17.4281 15.2822 16.4784 15.868 15.8925C16.4005 15.36 17.2338 15.3115 17.821 15.7472Z" fill="var(--tiny-second-color)" fill-rule="evenodd"/>
</svg>