<svg viewBox="0 0 48 48" xmlns="http://www.w3.org/2000/svg" xmlns:xlink="http://www.w3.org/1999/xlink" width="48.000000" height="48.000000" fill="none">
  <path id="减去顶层" d="M11.996 6L36.002 6C39.308 6 42 8.692 42 11.998L42 36.002C42 39.308 39.308 42 36.002 42L11.996 42C8.69 42 6 39.308 6 36.002L6 11.998C6 8.692 8.69 6 11.996 6ZM23.5712 22.4487L17.3923 16.294C16.8051 15.8583 15.9718 15.9068 15.4393 16.4394C14.8535 17.0252 14.8536 17.9749 15.4394 18.5607L21.4492 24.5687L15.2946 30.7474C14.8588 31.3346 14.9072 32.168 15.4397 32.7005C16.0254 33.2864 16.9752 33.2864 17.561 32.7007L23.5692 26.6887L29.7497 32.8459C30.3369 33.2816 31.1702 33.2331 31.7027 32.7005C32.2885 32.1147 32.2884 31.165 31.7026 30.5792L25.6912 24.5687L31.8482 18.3925C32.284 17.8053 32.2356 16.9719 31.7031 16.4394C31.1174 15.8535 30.1676 15.8535 29.5818 16.4392L23.5712 22.4487Z" fill="var(--tiny-first-color, #191919)" fill-rule="evenodd"/>
  <path id="形状结合" d="M17.3923 16.294L23.5712 22.4488L29.5818 16.4393C30.1676 15.8535 31.1174 15.8536 31.7031 16.4394C32.2356 16.972 32.284 17.8053 31.8482 18.3925L25.6912 24.5688L31.7026 30.5793C32.2884 31.165 32.2885 32.1148 31.7027 32.7006C31.1702 33.2332 30.3369 33.2816 29.7497 32.846L23.5692 26.6888L17.561 32.7007C16.9752 33.2865 16.0254 33.2864 15.4397 32.7006C14.9072 32.168 14.8588 31.3347 15.2946 30.7475L21.4492 24.5688L15.4394 18.5607C14.8536 17.975 14.8535 17.0252 15.4393 16.4394C15.9718 15.9068 16.8051 15.8584 17.3923 16.294Z" fill="var(--tiny-second-color, #aeaeAE)" fill-rule="evenodd"/>
</svg>
