<svg viewBox="0 0 48 48" xmlns="http://www.w3.org/2000/svg" xmlns:xlink="http://www.w3.org/1999/xlink" width="48.000000" height="48.000000" fill="none">
  <path id="矢量 26" d="M7.33103 0.294104L12.4993 5.43934C13.0851 6.02513 13.0851 6.97487 12.4993 7.56066C11.9668 8.09319 11.1335 8.14161 10.5462 7.70589L7.94065 5.124L7.93864 14.5C7.93864 15.3284 7.26707 16 6.43864 16C5.67924 16 5.05167 15.4357 4.95231 14.7035L4.93864 14.5L4.94065 5.12L2.49931 7.56066C1.96677 8.09319 1.13346 8.14161 0.546243 7.70589C0.013711 7.17336 -0.202964 6.1948 0.232766 5.60758L5.37797 0.439339C5.9105 -0.0931931 6.74381 -0.141605 7.33103 0.294104Z" fill="var(--tiny-first-color, #191919)" fill-rule="evenodd" transform="matrix(1,0,0,-1,9,34)"/>
  <path id="矢量 27" d="M37.8463 29.4607C36.6676 27.3624 34.4193 26 31.9117 26L31.5407 26.0099C28.7141 26.1617 26.3209 28.0368 25.4594 30.6298L25.362 30.944L25.0967 31.0319C22.6941 31.8935 21 34.1797 21 36.8333C21 40.2419 23.7812 43 27.2059 43L37.2059 43C40.9554 43 44 39.9807 44 36.25L43.9899 35.8794C43.8096 32.5667 41.127 29.8138 37.8463 29.4607ZM28.1382 32.356C28.3374 30.4605 29.9619 29 31.9117 29C33.5382 29 34.9659 30.0203 35.4938 31.5095C35.714 32.1307 36.3138 32.5353 36.9722 32.507L37.2274 32.4998C39.3041 32.5 41 34.1818 41 36.25C41 38.3182 39.3041 40 37.2059 40L27.2059 40C25.4325 40 24 38.5794 24 36.8333C24 35.3223 25.0792 34.0371 26.5427 33.7342L27.0256 33.6507C27.6227 33.4951 28.0723 32.9838 28.1382 32.356Z" fill="var(--tiny-second-color, #aeaeAE)" fill-rule="evenodd"/>
  <path id="合并" d="M41 25.375L41 26.6875C41 27.5275 41.66 28.1875 42.5 28.1875C43.34 28.1875 44 27.5275 44 26.6875L44 20.5C44 20.1734 43.9661 19.8541 43.8983 19.5422C43.8396 19.2719 43.7554 19.0071 43.6458 18.7479C43.5365 18.4897 43.4059 18.2458 43.2537 18.016C43.0884 17.7666 42.8979 17.5339 42.682 17.318C42.4661 17.1021 42.2334 16.9115 41.9839 16.7463C41.7542 16.5941 41.5103 16.4635 41.2521 16.3542C41.0051 16.2498 40.7532 16.1684 40.4962 16.1102C40.4987 16.0738 40.5 16.0371 40.5 16L40.5 15C40.5 14.5983 40.4581 14.2057 40.3742 13.8223C40.3025 13.4944 40.2002 13.1732 40.0672 12.8587C39.9342 12.5444 39.7752 12.2473 39.5901 11.9675C39.3876 11.6613 39.154 11.3758 38.8891 11.1109C38.6242 10.846 38.3387 10.6124 38.0326 10.4099C37.7527 10.2248 37.4556 10.0658 37.1413 9.93283C36.8268 9.7998 36.5056 9.69744 36.1777 9.62574C35.7943 9.54191 35.4017 9.5 35 9.5L24 9.5C23.16 9.5 22.5 10.16 22.5 11C22.5 11.84 23.16 12.5 24 12.5L35 12.5C35.199 12.5 35.3927 12.5224 35.5811 12.5672C35.7143 12.5989 35.8448 12.6418 35.9727 12.6958C36.1074 12.7528 36.2352 12.8204 36.3562 12.8987C36.5036 12.9941 36.6408 13.1053 36.7678 13.2322C36.8947 13.3592 37.0059 13.4964 37.1013 13.6438C37.1795 13.7648 37.2472 13.8926 37.3042 14.0273C37.3582 14.1552 37.4011 14.2857 37.4328 14.4189C37.4776 14.6073 37.5 14.801 37.5 15L37.5 16L25.0863 16C24.9271 16 24.7707 15.9853 24.6171 15.956C24.4635 15.9266 24.3127 15.8826 24.1647 15.8239C24.0167 15.7652 23.8767 15.6939 23.7448 15.61C23.6128 15.5261 23.4888 15.4296 23.3729 15.3205L17.1832 9.4949C16.9281 9.25484 16.6554 9.04251 16.3651 8.85792C16.0748 8.67334 15.7668 8.51649 15.4412 8.38737C15.1157 8.25824 14.7839 8.1614 14.446 8.09684C14.108 8.03228 13.7639 8 13.4137 8L9.5 8C9.09826 8 8.70569 8.04192 8.32228 8.12575C7.99438 8.19745 7.67319 8.29981 7.35869 8.43283C7.04437 8.56578 6.74729 8.7248 6.46745 8.90988C6.1613 9.11236 5.87579 9.34604 5.61091 9.61091C5.34604 9.87579 5.11236 10.1613 4.90989 10.4674C4.7248 10.7473 4.56578 11.0444 4.43283 11.3587C4.29981 11.6732 4.19745 11.9944 4.12575 12.3223C4.04192 12.7057 4 13.0983 4 13.5L4 34.5C4 34.9017 4.04192 35.2943 4.12575 35.6777C4.19745 36.0056 4.29981 36.3268 4.43283 36.6413C4.56578 36.9556 4.7248 37.2527 4.90988 37.5326C5.11236 37.8387 5.34604 38.1242 5.61091 38.3891C5.87583 38.654 6.16138 38.8877 6.46757 39.0902C6.74737 39.2753 7.04442 39.4342 7.35869 39.5672C7.67319 39.7002 7.99438 39.8025 8.32229 39.8742C8.70569 39.9581 9.09826 40 9.5 40L17.0625 40C17.9025 40 18.5625 39.34 18.5625 38.5C18.5625 37.66 17.9025 37 17.0625 37L9.5 37C9.30093 37 9.10719 36.9776 8.91878 36.9328C8.78564 36.9011 8.65516 36.8582 8.52735 36.8042C8.39267 36.7472 8.26486 36.6796 8.14394 36.6014C7.99648 36.506 7.85924 36.3948 7.73223 36.2678C7.60524 36.1408 7.49406 36.0036 7.39867 35.8561C7.32043 35.7352 7.25282 35.6074 7.19585 35.4727C7.14177 35.3448 7.09889 35.2143 7.06721 35.0811C7.0224 34.8927 7 34.699 7 34.5L7 13.5C7 13.301 7.0224 13.1073 7.06721 12.9189C7.09889 12.7857 7.14177 12.6552 7.19585 12.5273C7.25283 12.3926 7.32045 12.2648 7.39871 12.1438C7.49408 11.9964 7.60526 11.8592 7.73223 11.7322C7.85921 11.6053 7.99641 11.4941 8.14383 11.3987C8.26479 11.3204 8.39263 11.2528 8.52735 11.1958C8.6552 11.1418 8.78571 11.0989 8.91888 11.0672C9.10726 11.0224 9.30096 11 9.5 11L13.4137 11C13.5729 11 13.7293 11.0147 13.8829 11.044C14.0365 11.0734 14.1873 11.1174 14.3353 11.1761C14.4833 11.2348 14.6233 11.3061 14.7553 11.39C14.8872 11.4739 15.0112 11.5704 15.1271 11.6795L21.3168 17.5051C21.5718 17.7451 21.8445 17.9575 22.1348 18.142C22.4252 18.3266 22.7331 18.4835 23.0588 18.6126C23.3844 18.7418 23.7161 18.8386 24.0541 18.9032C24.392 18.9677 24.7361 19 25.0863 19L39.5 19C39.6239 19 39.7443 19.0144 39.8611 19.0432C39.9367 19.0619 40.0108 19.0866 40.0834 19.1173C40.162 19.1505 40.2366 19.1898 40.3074 19.2351C40.3982 19.2932 40.4826 19.3613 40.5607 19.4393C40.6387 19.5173 40.7067 19.6017 40.7648 19.6924C40.8102 19.7633 40.8495 19.838 40.8827 19.9166C40.9135 19.9892 40.9381 20.0634 40.9568 20.139C40.9856 20.2558 41 20.3761 41 20.5L41 25.375Z" fill="var(--tiny-first-color, #191919)" fill-rule="evenodd"/>
</svg>
