<svg viewBox="0 0 48 48" xmlns="http://www.w3.org/2000/svg" xmlns:xlink="http://www.w3.org/1999/xlink" width="48.000000" height="48.000000" fill="none">
  <path id="减去顶层" d="M40.5 15.002L40.5 16.05C42.464 16.3 44 17.972 44 20L44 29.4595C42.6858 28.3182 41.0343 27.5565 39.241 27.3635C37.7548 24.7178 34.9199 23 31.7583 23L31.2905 23.0125C27.7265 23.2039 24.7089 25.5682 23.6227 28.8376L23.4999 29.2337L23.1654 29.3445C20.136 30.4309 18 33.3135 18 36.6594C18 37.8556 18.2716 38.9882 18.7568 40L10 40C6.702 40 4 37.3 4 34L4 12C4 11.026 4.368 10.14 4.954 9.444C5.69 8.57 6.776 8 8 8L15.172 8C15.438 8 15.698 8.052 15.938 8.152C16.178 8.252 16.4 8.398 16.586 8.586L17.5 9.502L35 9.502C38.034 9.502 40.5 11.968 40.5 15.002ZM37.5 15.002C37.5 13.624 36.378 12.502 35 12.502L20.5 12.502L23.416 15.416C23.602 15.604 23.824 15.75 24.064 15.85C24.304 15.948 24.564 16 24.83 16L37.5 16L37.5 15.002ZM14.331 33.7059L19.4993 28.5607C20.085 27.9749 20.085 27.0251 19.4993 26.4393C18.9668 25.9068 18.1334 25.8584 17.5462 26.2941L14.9406 28.876L14.9386 19.5C14.9386 18.6716 14.2671 18 13.4386 18C12.6792 18 12.0517 18.5643 11.9523 19.2965L11.9386 19.5L11.9406 28.88L9.49929 26.4393C8.96676 25.9068 8.13345 25.8584 7.54623 26.2941C7.0137 26.8266 6.79702 27.8052 7.23275 28.3924L12.378 33.5607C12.9105 34.0932 13.7438 34.1416 14.331 33.7059Z" fill="var(--tiny-first-color, #191919)" fill-rule="evenodd"/>
  <path id="矢量 28" d="M37.8463 29.4607C36.6676 27.3624 34.4193 26 31.9117 26L31.5407 26.0099C28.7141 26.1617 26.3209 28.0368 25.4594 30.6298L25.362 30.944L25.0967 31.0319C22.6941 31.8935 21 34.1797 21 36.8333C21 40.2419 23.7812 43 27.2059 43L37.2059 43C40.9554 43 44 39.9807 44 36.25L43.9899 35.8794C43.8096 32.5667 41.127 29.8138 37.8463 29.4607Z" fill="var(--tiny-second-color, #aeaeAE)" fill-rule="evenodd"/>
</svg>
