<svg viewBox="0 0 48 48" xmlns="http://www.w3.org/2000/svg" xmlns:xlink="http://www.w3.org/1999/xlink" width="48.000000" height="48.000000" fill="none">
  <path id="合并" d="M36.1066 8.07848C32.6516 5.44838 28.4341 4 24 4C12.9549 4 4 12.9542 4 24C4 35.0444 12.9556 44 24 44C35.0458 44 44 35.0451 44 24C44 19.5672 42.5532 15.352 39.9238 11.8958C39.4222 11.2365 38.4811 11.1086 37.8218 11.6102C37.1625 12.1118 37.0346 13.0529 37.5362 13.7122C39.7717 16.6507 41 20.2292 41 24C41 33.3883 33.3889 41 24 41C14.6124 41 7 33.3876 7 24C7 14.6111 14.6117 7 24 7C27.7718 7 31.3523 8.22962 34.2894 10.4655C34.9486 10.9673 35.8897 10.8397 36.3915 10.1806C36.8933 9.52142 36.7657 8.58028 36.1066 8.07848ZM24.5017 10C25.2611 10 25.8887 10.5643 25.988 11.2964L26.0017 11.5L26.0044 13.115C28.1078 13.4149 29.674 14.292 30.7062 15.6343C31.5919 16.7861 31.9434 18.0405 31.9981 19.24C32.0358 20.0676 31.3955 20.769 30.5679 20.8068C29.7404 20.8445 29.0389 20.2042 29.0012 19.3766C28.972 18.7366 28.7798 18.0505 28.3281 17.4631C27.6295 16.5547 26.3862 16 24.3004 16C21.7833 16 20.1448 17.2508 20.0107 18.7077C19.8789 20.14 21.1467 21.4008 24.3347 21.9523L24.7814 22.0231C29.7079 22.7348 32.2928 25.2484 31.9776 28.5799C31.7157 31.3477 29.3086 33.4709 26.0028 33.9144L26.0017 35.5C26.0017 36.3284 25.3301 37 24.5017 37C23.7423 37 23.1147 36.4357 23.0154 35.7035L23.0017 35.5L23.0013 33.8855C20.8961 33.586 19.3287 32.7087 18.2959 31.3656C17.4102 30.2139 17.0587 28.9596 17.004 27.76C16.9663 26.9324 17.6066 26.2309 18.4341 26.1932C19.2617 26.1555 19.9632 26.7958 20.0009 27.6233C20.0301 28.2634 20.2223 28.9494 20.674 29.5369C21.3726 30.4453 22.6159 31 24.7017 31C27.2155 31 28.8533 29.7524 28.991 28.2974C29.1303 26.8243 27.9496 25.6063 24.7949 25.0622L24.3525 24.9923C19.411 24.2784 16.7186 21.7444 17.0233 18.4328C17.2786 15.6589 19.6892 13.5289 23.0018 13.0853L23.0017 11.5C23.0017 10.6716 23.6732 10 24.5017 10Z" fill="var(--tiny-first-color)" fill-rule="evenodd"/>
  <path id="矢量 179" d="M25.988 11.2964C25.8887 10.5643 25.2611 10 24.5017 10C23.6732 10 23.0017 10.6716 23.0017 11.5L23.0018 13.0853C19.6892 13.5289 17.2786 15.6589 17.0233 18.4328C16.7186 21.7444 19.411 24.2784 24.3525 24.9923L24.7949 25.0622C27.9496 25.6063 29.1303 26.8243 28.991 28.2974C28.8533 29.7524 27.2155 31 24.7017 31C22.6159 31 21.3726 30.4453 20.674 29.5369C20.2223 28.9494 20.0301 28.2634 20.0009 27.6233C19.9632 26.7958 19.2617 26.1555 18.4341 26.1932C17.6066 26.2309 16.9663 26.9324 17.004 27.76C17.0587 28.9596 17.4102 30.2139 18.2959 31.3656C19.3287 32.7087 20.8961 33.586 23.0013 33.8855L23.0017 35.5L23.0154 35.7035C23.1147 36.4357 23.7423 37 24.5017 37C25.3301 37 26.0017 36.3284 26.0017 35.5L26.0028 33.9144C29.3086 33.4709 31.7157 31.3477 31.9776 28.5799C32.2928 25.2484 29.7079 22.7348 24.7814 22.0231L24.3347 21.9523C21.1467 21.4008 19.8789 20.14 20.0107 18.7077C20.1448 17.2508 21.7833 16 24.3004 16C26.3862 16 27.6295 16.5547 28.3281 17.4631C28.7798 18.0505 28.972 18.7366 29.0012 19.3766C29.0389 20.2042 29.7404 20.8445 30.5679 20.8068C31.3955 20.769 32.0358 20.0676 31.9981 19.24C31.9434 18.0405 31.5919 16.7861 30.7062 15.6343C29.674 14.292 28.1078 13.4149 26.0044 13.115L26.0017 11.5L25.988 11.2964Z" fill="var(--tiny-second-color)" fill-rule="evenodd"/>
</svg>