<svg viewBox="0 0 48 48" xmlns="http://www.w3.org/2000/svg" xmlns:xlink="http://www.w3.org/1999/xlink" width="48.000000" height="48.000000" fill="none">
  <path id="形状结合" d="M29.5 5C36.9544 5 43 11.0456 43 18.5C43 25.9571 36.9557 32 29.5 32C27.5671 32 25.6882 31.5859 23.9492 30.7984C23.1946 30.4567 22.8598 29.5679 23.2016 28.8132C23.5433 28.0586 24.4321 27.7238 25.1868 28.0656C26.5409 28.6788 27.9985 29 29.5 29C35.299 29 40 24.3001 40 18.5C40 12.7024 35.2976 8 29.5 8C23.6999 8 19 12.701 19 18.5C19 20.0015 19.3212 21.4591 19.9344 22.8132C20.1598 23.311 20.0948 23.8854 19.7791 24.317L7.999 36.1192L7.999 39.9992L12.999 39.9992L13 37.5C13 36.7406 13.5643 36.113 14.2965 36.0137L14.5 36L16.999 35.9992L17 33.5C17 32.7406 17.5643 32.113 18.2965 32.0137L18.5 32L20.5 32C21.3284 32 22 32.6716 22 33.5C22 34.2594 21.4357 34.887 20.7035 34.9863L20.5 35L19.999 34.9992L20 37.5C20 38.2594 19.4357 38.887 18.7035 38.9863L18.5 39L15.999 38.9992L16 41.5C16 42.2594 15.4357 42.887 14.7035 42.9863L14.5 43L6.5 43C5.74061 43 5.11302 42.4357 5.01369 41.7035L5 41.5L5 35.5C5 35.1817 5.10114 34.8739 5.28563 34.6195L16.805 23.0732L16.7323 22.8717C16.3193 21.6737 16.0763 20.422 16.0153 19.1422L16 18.5C16 11.0443 22.0429 5 29.5 5ZM32.4996 13.0002C33.878 13.0002 34.9996 14.1218 34.9996 15.5002C34.9996 16.8804 33.8783 18.0002 32.4996 18.0002C31.1192 18.0002 29.9996 16.8806 29.9996 15.5002C29.9996 14.1215 31.1194 13.0002 32.4996 13.0002ZM32.4996 15.0002C32.2223 15.0002 31.9996 15.2226 31.9996 15.5002C31.9996 15.7786 32.2212 16.0002 32.4996 16.0002C32.7772 16.0002 32.9996 15.7775 32.9996 15.5002C32.9996 15.2238 32.776 15.0002 32.4996 15.0002Z" fill="var(--tiny-first-color, #191919)" fill-rule="evenodd"/>
  <path id="形状结合" d="M32.4996 13.0002C33.878 13.0002 34.9996 14.1218 34.9996 15.5002C34.9996 16.8804 33.8783 18.0002 32.4996 18.0002C31.1192 18.0002 29.9996 16.8806 29.9996 15.5002C29.9996 14.1215 31.1194 13.0002 32.4996 13.0002ZM32.4996 15.0002C32.2223 15.0002 31.9996 15.2226 31.9996 15.5002C31.9996 15.7786 32.2212 16.0002 32.4996 16.0002C32.7772 16.0002 32.9996 15.7775 32.9996 15.5002C32.9996 15.2238 32.776 15.0002 32.4996 15.0002Z" fill="var(--tiny-second-color, #aeaeAE)" fill-rule="evenodd"/>
</svg>
