<svg viewBox="0 0 48 48" xmlns="http://www.w3.org/2000/svg" xmlns:xlink="http://www.w3.org/1999/xlink" width="48.000000" height="48.000000">
  <path id="形状结合" d="M26.3892 8.6362C26.4939 8.94152 26.5601 9.25827 26.5867 9.57911L26.6 9.90106L26.6 35.44C26.6 36.2684 25.9284 36.94 25.1 36.94C24.3406 36.94 23.713 36.3722 23.6137 35.64L23.6 35.44L23.6 9.90106C23.6 9.80175 23.5836 9.70312 23.5514 9.60917C23.4081 9.19122 22.9877 8.94688 22.5658 9.01096L9.70811 13.404C9.3963 13.5109 9.17225 13.7775 9.1146 14.0936L9.098 39L38.998 39L39 25.0999C38.9489 24.8579 38.7799 24.4583 38.563 24.3282L33.363 21.2082C32.9682 21.0691 32.352 21.1439 32.1283 21.5169C32.0443 21.6567 32 21.8168 32 21.9799L32 35.44L31.9863 35.64C31.887 36.3722 31.2594 36.94 30.5 36.94C29.6716 36.94 29 36.2684 29 35.44L29 21.9799L29.0159 21.6279C29.0688 21.0443 29.2527 20.4785 29.5558 19.9734C30.664 18.1264 33.0596 17.5275 34.9065 18.6357L40.1065 21.7557L40.3694 21.9282C41.3876 22.6564 42 23.8354 42 25.0999L41.998 39L42.6 39C43.4284 39 44.1 39.6716 44.1 40.5C44.1 41.2594 43.5357 41.887 42.8035 41.9863L42.6 42L5.5 42C4.67157 42 4 41.3284 4 40.5C4 39.7406 4.56431 39.113 5.29646 39.0137L5.5 39L6.098 39L6.1 14.2553C6.1 12.6931 7.03058 11.2926 8.44577 10.6783L8.73514 10.5662L21.4351 6.21187C23.4726 5.51331 25.6906 6.59871 26.3892 8.6362ZM36 26C36.8284 26 37.5 26.6716 37.5 27.5C37.5 28.2594 36.9357 28.887 36.2035 28.9863L36 29L35 29C34.1716 29 33.5 28.3284 33.5 27.5C33.5 26.7406 34.0643 26.113 34.7965 26.0137L35 26L36 26ZM19.4 22C20.2284 22 20.9 22.6716 20.9 23.5C20.9 24.2594 20.3357 24.887 19.6035 24.9863L19.4 25L13.4 25C12.5716 25 11.9 24.3284 11.9 23.5C11.9 22.7406 12.4643 22.113 13.1965 22.0137L13.4 22L19.4 22ZM19.4 17C20.2284 17 20.9 17.6716 20.9 18.5C20.9 19.2594 20.3357 19.887 19.6035 19.9863L19.4 20L13.4 20C12.5716 20 11.9 19.3284 11.9 18.5C11.9 17.7406 12.4643 17.113 13.1965 17.0137L13.4 17L19.4 17Z" fill="var(--tiny-first-color)" fill-rule="evenodd"/>
  <path id="形状结合" d="M35.9996 26C36.828 26 37.4996 26.6716 37.4996 27.5C37.4996 28.2594 36.9353 28.887 36.2031 28.9863L35.9996 29L34.9996 29C34.1712 29 33.4996 28.3284 33.4996 27.5C33.4996 26.7406 34.0639 26.113 34.7961 26.0137L34.9996 26L35.9996 26ZM19.3996 22C20.228 22 20.8996 22.6716 20.8996 23.5C20.8996 24.2594 20.3353 24.887 19.6032 24.9863L19.3996 25L13.3996 25C12.5712 25 11.8996 24.3284 11.8996 23.5C11.8996 22.7406 12.4639 22.113 13.1961 22.0137L13.3996 22L19.3996 22ZM19.3996 17C20.228 17 20.8996 17.6716 20.8996 18.5C20.8996 19.2594 20.3353 19.887 19.6032 19.9863L19.3996 20L13.3996 20C12.5712 20 11.8996 19.3284 11.8996 18.5C11.8996 17.7406 12.4639 17.113 13.1961 17.0137L13.3996 17L19.3996 17Z" fill="var(--tiny-second-color)" fill-rule="evenodd"/>
</svg>