<svg viewBox="0 0 48 48" xmlns="http://www.w3.org/2000/svg" xmlns:xlink="http://www.w3.org/1999/xlink" width="48.000000" height="48.000000">
  <path id="形状结合" d="M38 8C41.1961 8 43.8176 10.5698 44 13.72L44 28.242C44 31.4381 41.5102 34.0494 38.36 34.2318L38 34.242L28.982 34.242C28.1536 34.242 27.482 33.5704 27.482 32.742C27.482 31.9826 28.0463 31.355 28.7785 31.2557L28.982 31.242L38 31.242C39.5601 31.242 40.8547 30.0529 41 28.531L41 14C41 12.4399 39.8218 11.1653 38.3 11.02L38 11L10 11C8.43993 11 7.15902 12.1982 7.01373 13.72L7 14L7 28.242C7 29.8021 8.18914 31.083 9.71097 31.2283L10 31.242L21.982 31.242C23.8178 31.242 25.3243 32.6567 25.4704 34.455L25.482 34.742L25.482 36.998L35.982 37C36.8104 37 37.482 37.6716 37.482 38.5C37.482 39.2594 36.9177 39.887 36.1855 39.9863L35.982 40L11.982 40C11.1536 40 10.482 39.3284 10.482 38.5C10.482 37.7406 11.0463 37.113 11.7785 37.0137L11.982 37L22.482 36.998L22.482 34.742C22.482 34.5058 22.3171 34.3072 22.0965 34.2552L10 34.242C6.80395 34.242 4.19263 31.7448 4.01018 28.5946L4 28.242L4 14C4 10.8039 6.49717 8.20245 9.64738 8.02L10 8L38 8ZM23.8992 13C28.5597 13 32.3371 16.777 32.3371 21.4371C32.3371 22.0419 31.9763 22.5747 31.432 22.8116L31.2197 22.8861L31.0035 22.9293L29.9219 22.9397C29.5506 26.5397 26.5082 29.3474 22.81 29.3474C18.8612 29.3474 15.66 26.1462 15.66 22.1974C15.66 18.3874 18.6399 15.2735 22.3962 15.0592L22.3977 14.5014L22.4114 14.2977C22.5109 13.5648 23.139 13 23.8992 13ZM22.3966 18.0677C20.2987 18.2752 18.66 20.0449 18.66 22.1974C18.66 24.4894 20.518 26.3474 22.81 26.3474C24.8486 26.3474 26.5438 24.8775 26.8938 22.9398L23.8992 22.9386L23.6762 22.922C23.1658 22.8455 22.732 22.5097 22.5247 22.0335L22.4502 21.8211L22.4069 21.6049L22.3966 18.0677ZM25.796 16.768L25.796 19.532L28.56 19.532L28.4306 19.2385C27.9438 18.2368 27.1349 17.4192 26.147 16.9273L25.796 16.768Z" fill="var(--tiny-first-color, #191919)" fill-rule="evenodd"/>
  <path id="形状结合" d="M23.8992 13C28.5597 13 32.3371 16.777 32.3371 21.4371C32.3371 22.0419 31.9763 22.5747 31.432 22.8116L31.2197 22.8861L31.0035 22.9293L29.9219 22.9397C29.5506 26.5397 26.5082 29.3474 22.81 29.3474C18.8612 29.3474 15.66 26.1462 15.66 22.1974C15.66 18.3874 18.6399 15.2735 22.3962 15.0592L22.3977 14.5014L22.4114 14.2977C22.5109 13.5648 23.139 13 23.8992 13ZM22.3966 18.0677C20.2987 18.2752 18.66 20.0449 18.66 22.1974C18.66 24.4894 20.518 26.3474 22.81 26.3474C24.8486 26.3474 26.5438 24.8775 26.8938 22.9398L23.8992 22.9386L23.6762 22.922C23.1658 22.8455 22.732 22.5097 22.5247 22.0335L22.4502 21.8211L22.4069 21.6049L22.3966 18.0677ZM25.796 16.768L25.796 19.532L28.56 19.532L28.4306 19.2385C27.9438 18.2368 27.1349 17.4192 26.147 16.9273L25.796 16.768Z" fill="var(--tiny-second-color, #aeaeAE)" fill-rule="evenodd"/>
</svg>