<svg viewBox="0 0 48 48" xmlns="http://www.w3.org/2000/svg" xmlns:xlink="http://www.w3.org/1999/xlink" width="48.000000" height="48.000000">
  <path id="形状结合" d="M38 8C41.1961 8 43.8176 10.5698 44 13.72L44 28.242C44 31.4381 41.5102 34.0494 38.36 34.2318L38 34.242L30.84 34.24L25.48 34.242L25.48 37L35.982 37C36.8104 37 37.482 37.6716 37.482 38.5C37.482 39.2594 36.9177 39.887 36.1855 39.9863L35.982 40L11.982 40C11.1536 40 10.482 39.3284 10.482 38.5C10.482 37.7406 11.0463 37.113 11.7785 37.0137L11.982 37L22.48 37L22.48 34.242L18.8413 34.242L10 34.242C6.80395 34.242 4.19263 31.7448 4.01018 28.5946L4 28.242L4 14C4 10.8039 6.49717 8.20245 9.64738 8.02L10 8L38 8ZM21.6024 14.8863C18.3945 15.6156 16 18.4851 16 21.9139C16 25.8941 19.2266 29.1207 23.2068 29.1207C26.6417 29.1207 29.5154 26.7177 30.2383 23.5011L23.6023 23.5005L23.3691 23.487C22.4509 23.3804 21.7224 22.6519 21.6158 21.7337L21.6023 21.5005L21.6024 14.8863ZM24.7828 13C24.1231 13 23.5883 13.5348 23.5883 14.1945L23.6019 20.4735C23.6889 21.0474 24.1845 21.4873 24.7828 21.4873L30.8818 21.4873C31.4649 21.4082 32.0764 20.8975 32.0764 20.2928C32.0764 16.2647 28.8113 13 24.7828 13Z" fill="var(--tiny-first-color, #191919)" fill-rule="evenodd"/>
  <path id="形状结合" d="M21.6024 14.8863C18.3945 15.6156 16 18.4851 16 21.9139C16 25.8941 19.2266 29.1207 23.2068 29.1207C26.6417 29.1207 29.5154 26.7177 30.2383 23.5011L23.6023 23.5005L23.3691 23.487C22.4509 23.3804 21.7224 22.6519 21.6158 21.7337L21.6023 21.5005L21.6024 14.8863ZM24.7828 13C24.1231 13 23.5883 13.5348 23.5883 14.1945L23.6019 20.4735C23.6889 21.0474 24.1845 21.4873 24.7828 21.4873L30.8818 21.4873C31.4649 21.4082 32.0764 20.8975 32.0764 20.2928C32.0764 16.2647 28.8113 13 24.7828 13Z" fill="var(--tiny-second-color, #aeaeAE)" fill-rule="evenodd"/>
</svg>