<svg viewBox="0 0 48 48" xmlns="http://www.w3.org/2000/svg" xmlns:xlink="http://www.w3.org/1999/xlink" width="48.000000" height="48.000000" fill="none">
  <path id="形状结合" d="M42.4503 25.4991C42.4271 25.4955 42.2275 25.4753 42.2042 25.4707C42.1809 25.4634 42.0106 25.4185 41.9867 25.4098C41.9635 25.3988 41.8051 25.33 41.7807 25.3167C41.7143 25.2665 41.4885 25.1098 41.4393 25.0606L37.8453 21.4666C37.2596 20.8808 37.2596 19.9311 37.8453 19.3453C38.3779 18.8128 39.2112 18.7644 39.7984 19.2001L40.4939 19.8682C39.76 16.9266 38.241 14.1995 36.0213 11.9786C29.3831 5.34041 18.6169 5.34041 11.9787 11.9786C5.34042 18.6169 5.34042 29.3812 11.9787 36.0213C18.6169 42.6595 29.3831 42.6595 36.0213 36.0213C36.6071 35.4355 37.5569 35.4355 38.1427 36.0213C38.7284 36.6071 38.7284 37.5568 38.1427 38.1426C30.3329 45.9524 17.6671 45.9524 9.85719 38.1425C2.04758 30.3307 2.04758 17.6671 9.85734 9.8573C17.6671 2.04752 30.3329 2.04752 38.143 9.8576C41.9434 13.6602 44 18.7322 44 24C44 24.0937 43.9914 24.1853 43.975 24.2743C43.9641 24.3212 43.9368 24.4345 43.922 24.4785C43.9082 24.5074 43.8226 24.7092 43.8063 24.7381C43.7204 24.8516 43.5111 25.117 43.3975 25.202C43.3572 25.2283 43.2401 25.3059 43.1968 25.3286C43.1433 25.3541 43.033 25.4039 42.9745 25.4234C42.8376 25.4652 42.6026 25.4991 42.4503 25.4991Z" fill="var(--tiny-first-color, #191919)" fill-rule="evenodd"/>
</svg>
