<svg viewBox="0 0 48 48" xmlns="http://www.w3.org/2000/svg" xmlns:xlink="http://www.w3.org/1999/xlink" width="48.000000" height="48.000000" fill="none">
  <path id="形状结合" d="M26.1055 5.5C29.6921 5.5 32.5995 8.40743 32.5995 11.994C32.5995 13.0986 31.7041 13.994 30.5995 13.994C29.5738 13.994 28.7285 13.2219 28.613 12.2272L28.5995 11.994C28.5995 10.7027 27.6182 9.64059 26.3605 9.51288L26.1055 9.5L11.9935 9.5C10.7022 9.5 9.6401 10.4814 9.51239 11.739L9.49951 11.994L9.49951 26.106C9.49951 27.3973 10.4809 28.4594 11.7385 28.5871L11.9935 28.6L17.366 28.5999L26.1055 28.6C27.3969 28.6 28.4589 27.6186 28.5866 26.361L28.5995 26.106L28.5995 19.398L21.8943 19.3996C20.603 19.3996 19.5409 20.381 19.4132 21.6386L19.4003 21.8936L19.4003 24.9996C19.4003 26.1042 18.5049 26.9996 17.4003 26.9996C16.3746 26.9996 15.5293 26.2275 15.4138 25.2328L15.4003 24.9996L15.4003 21.8936C15.4003 18.4307 18.1107 15.6009 21.5258 15.4099L21.8943 15.3996L36.0063 15.3996C39.4692 15.3996 42.299 18.11 42.49 21.5251L42.5003 21.8936L42.5003 36.0056C42.5003 39.4685 39.7899 42.2983 36.3748 42.4893L36.0063 42.4996L21.8943 42.4996C18.4314 42.4996 15.6016 39.7892 15.4106 36.3741L15.4003 36.0056L15.3995 32.6L11.9935 32.6C8.53062 32.6 5.70083 29.8896 5.50979 26.4745L5.49951 26.106L5.49951 11.994C5.49951 8.53111 8.20989 5.70132 11.625 5.51028L11.9935 5.5L26.1055 5.5ZM36.0063 19.3996L32.5995 19.398L32.5995 26.106C32.5995 29.5689 29.8891 32.3987 26.474 32.5897L26.1055 32.6L19.3995 32.6L19.4003 36.0056C19.4003 37.2969 20.3817 38.359 21.6393 38.4867L21.8943 38.4996L36.0063 38.4996C37.2977 38.4996 38.3597 37.5182 38.4874 36.2606L38.5003 36.0056L38.5003 21.8936C38.5003 20.6023 37.519 19.5402 36.2613 19.4125L36.0063 19.3996Z" fill="var(--tiny-first-color)" fill-rule="evenodd"/>
  <path id="矢量 1707" d="M19.4001 36.0059L19.4005 32.6002L15.3994 32.6002L15.4001 36.0059L15.4105 36.3744C15.6016 39.7894 18.4313 42.4999 21.8942 42.4999L36.0062 42.4999L36.3748 42.4896C39.7898 42.2986 42.5002 39.4688 42.5002 36.0059L42.5002 21.8938L42.4899 21.5254C42.2988 18.1102 39.4691 15.3999 36.0062 15.3999L21.8942 15.3999L21.5256 15.4102C18.1106 15.6012 15.4001 18.4309 15.4001 21.8938L15.4001 24.9999L15.4137 25.233C15.5292 26.2278 16.3745 26.9999 17.4001 26.9999C18.5048 26.9999 19.4001 26.1044 19.4001 24.9999L19.4001 21.8938L19.4131 21.6388C19.5408 20.3812 20.6029 19.3999 21.8942 19.3999L22.4005 19.3986L27.3879 19.3986L28.5994 19.3986L32.5994 19.3982L33.215 19.3986L35.5829 19.3997L36.0062 19.3999L36.2612 19.4127C37.5188 19.5404 38.5002 20.6025 38.5002 21.8938L38.5005 22.3986L38.5002 35.5402L38.5002 36.0059L38.4873 36.2609C38.3596 37.5184 37.2975 38.4999 36.0062 38.4999L21.8942 38.4999L21.6392 38.4869C20.3816 38.3593 19.4001 37.2972 19.4001 36.0059Z" fill="var(--tiny-second-color)" fill-rule="evenodd"/>
</svg>