<svg viewBox="0 0 48 48" xmlns="http://www.w3.org/2000/svg" xmlns:xlink="http://www.w3.org/1999/xlink" width="48.000000" height="48.000000" fill="none">
  <path id="形状结合" d="M26.1055 6C29.2971 6 31.907 8.49663 32.0893 11.6419L32.0995 11.994L32.0995 12.4014C32.0995 13.2298 31.4279 13.9014 30.5995 13.9014C29.8401 13.9014 29.2125 13.3371 29.1132 12.605L29.0995 12.4014L29.0995 11.994C29.0995 10.4388 27.9114 9.15891 26.3937 9.01372L26.1055 9L11.9935 9C10.438 9 9.15838 10.1884 9.01323 11.7058L8.99951 11.994L8.99951 26.108C8.99951 27.6632 10.1876 28.9431 11.7053 29.0883L11.9935 29.102L26.1055 29.102C27.6611 29.102 28.9406 27.9136 29.0858 26.3962L29.0995 26.108L29.0995 18.898L21.8943 18.8996C20.338 18.8996 19.0591 20.087 18.914 21.6053L18.9003 21.8936L18.9003 25.5983C18.9003 26.4267 18.2287 27.0983 17.4003 27.0983C16.6409 27.0983 16.0133 26.534 15.914 25.8019L15.9003 25.5983L15.9003 21.8936C15.9003 18.7014 18.3956 16.0921 21.5421 15.9098L21.8943 15.8996L36.0063 15.8996C39.1985 15.8996 41.8078 18.3949 41.9901 21.5414L42.0003 21.8936L42.0003 36.0076C42.0003 39.1983 39.5046 41.8071 36.3585 41.9894L36.0063 41.9996L21.8943 41.9996C18.7025 41.9996 16.0928 39.5047 15.9105 36.3596L15.9003 36.0076L15.8995 32.1L11.9935 32.102C8.80188 32.102 6.19204 29.6054 6.00969 26.4601L5.99951 26.108L5.99951 11.994C5.99951 8.80317 8.49537 6.19258 11.6414 6.01018L11.9935 6L26.1055 6ZM36.0063 18.8996L32.0995 18.898L32.0995 26.108C32.0995 29.2988 29.6037 31.9094 26.4576 32.0918L26.1055 32.102L18.8995 32.1L18.9003 36.0076C18.9003 37.5622 20.0879 38.8409 21.606 38.9859L21.8943 38.9996L36.0063 38.9996C37.5624 38.9996 38.8415 37.8124 38.9866 36.2956L39.0003 36.0076L39.0003 21.8936C39.0003 20.3373 37.8129 19.0584 36.2947 18.9133L36.0063 18.8996Z" fill="var(--tiny-first-color)" fill-rule="evenodd"/>
  <path id="矢量 1708" d="M18.8997 33.2213L18.8997 32.1002L15.8994 32.1002L15.9001 36.0078L15.9104 36.3599C16.0927 39.5049 18.7024 41.9999 21.8942 41.9999L36.0062 41.9999L36.3584 41.9896C39.5045 41.8074 42.0002 39.1985 42.0002 36.0078L42.0002 21.8938L41.99 21.5416C41.8077 18.3951 39.1984 15.8999 36.0062 15.8999L21.8942 15.8999L21.542 15.91C18.3955 16.0923 15.9001 18.7017 15.9001 21.8938L15.9001 25.5985L15.9139 25.8021C16.0132 26.5343 16.6407 27.0985 17.4001 27.0985C18.2146 27.0985 18.8774 26.4495 18.8997 25.6404L18.9001 22.8302L18.9001 21.8938L18.9139 21.6055C19.059 20.0872 20.3379 18.8999 21.8942 18.8999L22.8997 18.8986L27.7983 18.8986L29.0994 18.8986L32.0994 18.8982L32.8048 18.8986L35.0869 18.8994L36.0062 18.8999L36.2946 18.9136C37.8129 19.0586 39.0002 20.3375 39.0002 21.8938L39.0002 36.0078L38.9865 36.2959C38.8414 37.8126 37.5623 38.9999 36.0062 38.9999L21.8942 38.9999L21.6058 38.9861C20.0878 38.8411 18.9001 37.5625 18.9001 36.0078L18.8997 34.9985L18.8997 33.2213Z" fill="var(--tiny-second-color)" fill-rule="evenodd"/>
</svg>