<svg viewBox="0 0 48 48" xmlns="http://www.w3.org/2000/svg" xmlns:xlink="http://www.w3.org/1999/xlink" width="48.000000" height="48.000000" fill="none">
  <path id="矢量 115" d="M41.491 14.5566C41.2626 8.96924 36.7383 4.5 31.1765 4.5L18.8235 4.5L18.2399 4.51654C16.8839 4.59357 15.5722 4.9386 14.3645 5.52759C13.6199 5.89075 13.3107 6.78876 13.6738 7.53333C14.037 8.27795 14.9349 8.58716 15.6795 8.224C16.6527 7.74939 17.7194 7.5 18.8235 7.5L31.1765 7.5L31.5648 7.51038C35.423 7.71704 38.5 10.9851 38.5 14.9999L38.5 33.0001L38.4832 33.5133C38.4272 34.3636 38.2324 35.1868 37.9088 35.9579C37.5883 36.7219 37.9477 37.601 38.7116 37.9215C39.4755 38.2421 40.3546 37.8826 40.6751 37.1187C41.2171 35.8272 41.5 34.4324 41.5 33.0001L41.5 14.9999L41.491 14.5566ZM19.75 43.5C19.3584 43.5 18.9822 43.3468 18.702 43.0732L6.95203 31.5994C6.8696 31.5189 6.79742 31.4299 6.73636 31.3345L6.57764 31.0029C6.53149 30.8607 6.50089 30.6881 6.50003 30.5435L6.5 16.7368C6.5 13.2825 9.36368 10.5 12.875 10.5L29.125 10.5C32.6363 10.5 35.5 13.2825 35.5 16.7368L35.5 37.2632C35.5 40.7175 32.6363 43.5 29.125 43.5L19.75 43.5ZM12.875 13.5L29.125 13.5C30.9985 13.5 32.5 14.959 32.5 16.7368L32.5 37.2632C32.5 39.041 30.9985 40.5 29.125 40.5L21.39 40.498L21.3908 35.1899L21.3803 34.8276C21.1927 31.5905 18.5082 29.0233 15.2241 29.0233L9.5 29.022L9.5 16.7368C9.5 15.0526 10.8477 13.6545 12.5825 13.512L12.875 13.5ZM15.2241 32.0233L11.7188 32.0253L18.3908 38.4653L18.3908 35.1899C18.3908 33.5381 17.1262 32.1818 15.5123 32.0362L15.2241 32.0233Z" fill="var(--tiny-first-color, #191919)" fill-rule="evenodd"/>
  <path id="矢量 115" d="M41.491 14.5566C41.2626 8.96924 36.7383 4.5 31.1765 4.5L18.8235 4.5L18.2399 4.51654C16.8839 4.59357 15.5722 4.9386 14.3645 5.52759C13.6199 5.89075 13.3107 6.78876 13.6738 7.53333C14.0369 8.27795 14.9349 8.58716 15.6795 8.224C16.6527 7.74939 17.7194 7.5 18.8235 7.5L31.1765 7.5L31.5648 7.51038C35.423 7.71704 38.5 10.9851 38.5 14.9999L38.5 33.0001L38.4832 33.5133C38.4272 34.3636 38.2323 35.1868 37.9088 35.9579C37.5882 36.7219 37.9476 37.601 38.7116 37.9215C39.4754 38.2421 40.3546 37.8826 40.6751 37.1187C41.2171 35.8272 41.5 34.4324 41.5 33.0001L41.5 14.9999L41.491 14.5566Z" fill="var(--tiny-second-color, #aeaeAE)" fill-rule="evenodd"/>
</svg>
