<svg viewBox="0 0 48 48" xmlns="http://www.w3.org/2000/svg" xmlns:xlink="http://www.w3.org/1999/xlink" width="48.000000" height="48.000000" fill="none">
  <path id="形状结合" d="M37.9819 7.23193C41.2919 7.23193 43.9819 9.92393 43.9819 13.2319L43.9819 28.8759C43.9819 32.1839 41.2919 34.8759 37.9819 34.8759L28.9999 34.8759C28.1719 34.8759 27.4999 34.2039 27.4999 33.3759C27.4999 32.5479 28.1719 31.8759 28.9999 31.8759L37.9819 31.8759C39.6359 31.8759 40.9819 30.5299 40.9819 28.8759L40.9819 13.2319C40.9819 11.5779 39.6359 10.2319 37.9819 10.2319L10.0179 10.2319C8.36395 10.2319 7.01794 11.5779 7.01794 13.2319L7.01794 28.8759C7.01794 30.5299 8.36395 31.8759 10.0179 31.8759L21.9999 31.8759C23.9299 31.8759 25.4999 33.4459 25.4999 35.3759L25.4979 37.7679L35.9999 37.7679C36.8279 37.7679 37.4999 38.4399 37.4999 39.2679C37.4999 40.0959 36.8279 40.7679 35.9999 40.7679L11.9999 40.7679C11.1719 40.7679 10.4999 40.0959 10.4999 39.2679C10.4999 38.4399 11.1719 37.7679 11.9999 37.7679L22.4979 37.7679L22.4999 35.3759C22.4999 35.0999 22.2759 34.8759 21.9999 34.8759L10.0179 34.8759C6.70794 34.8759 4.01794 32.1839 4.01794 28.8759L4.01794 13.2319C4.01794 9.92393 6.70794 7.23193 10.0179 7.23193L37.9819 7.23193ZM22.7753 14.5721L30.1493 18.8301C30.9353 19.2821 31.4033 20.0941 31.4033 21.0001C31.4033 21.9061 30.9353 22.7201 30.1493 23.1701L22.7753 27.4281C22.3833 27.6541 21.9533 27.7681 21.5233 27.7681C21.0933 27.7681 20.6613 27.6541 20.2693 27.4281C19.4853 26.9741 19.0173 26.1641 19.0173 25.2581L19.0173 16.7421C19.0173 15.8361 19.4853 15.0261 20.2693 14.5721C21.0553 14.1201 21.9913 14.1201 22.7753 14.5721ZM22.0173 17.5981L22.0173 24.4021L27.9093 21.0001L22.0173 17.5981Z" fill="var(--tiny-first-color, #191919)" fill-rule="evenodd"/>
  <path id="形状结合" d="M22.7753 14.5721L30.1493 18.8301C30.9353 19.2821 31.4033 20.0941 31.4033 21.0001C31.4033 21.9061 30.9353 22.7201 30.1493 23.1701L22.7753 27.4281C22.3833 27.6541 21.9533 27.7681 21.5233 27.7681C21.0933 27.7681 20.6613 27.6541 20.2693 27.4281C19.4853 26.9741 19.0173 26.1641 19.0173 25.2581L19.0173 16.7421C19.0173 15.8361 19.4853 15.0261 20.2693 14.5721C21.0553 14.1201 21.9913 14.1201 22.7753 14.5721ZM22.0173 17.5981L22.0173 24.4021L27.9093 21.0001L22.0173 17.5981Z" fill="var(--tiny-second-color, #aeaeAE)" fill-rule="evenodd"/>
</svg>
