<svg viewBox="0 0 48 48" xmlns="http://www.w3.org/2000/svg" xmlns:xlink="http://www.w3.org/1999/xlink" width="48.000000" height="48.000000" fill="none">
  <path id="Fill-1" d="M29.775 22.5219L22.399 26.7799C22.125 26.9379 21.823 27.0159 21.523 27.0159C21.221 27.0159 20.919 26.9379 20.645 26.7779C20.095 26.4619 19.767 25.8939 19.767 25.2579L19.767 16.7419C19.767 16.1079 20.095 15.5399 20.645 15.2239C21.193 14.9039 21.851 14.9019 22.399 15.2219L29.775 19.4799C30.325 19.7979 30.653 20.3659 30.653 20.9999C30.653 21.6359 30.325 22.2039 29.775 22.5219ZM37.983 7.23193L10.017 7.23193C6.70697 7.23193 4.01697 9.92393 4.01697 13.2319L4.01697 28.8759C4.01697 32.1839 6.70697 34.8759 10.017 34.8759L22.499 34.8759L22.499 37.7679L11.999 37.7679C11.171 37.7679 10.499 38.4399 10.499 39.2679C10.499 40.0959 11.171 40.7679 11.999 40.7679L35.999 40.7679C36.827 40.7679 37.499 40.0959 37.499 39.2679C37.499 38.4399 36.827 37.7679 35.999 37.7679L25.499 37.7679L25.499 34.8759L37.983 34.8759C41.291 34.8759 43.983 32.1839 43.983 28.8759L43.983 13.2319C43.983 9.92393 41.291 7.23193 37.983 7.23193Z" fill="var(--tiny-first-color)" fill-rule="evenodd"/>
  <path id="Fill-1" d="M29.775 22.5219L22.399 26.7799C22.125 26.9379 21.823 27.0159 21.523 27.0159C21.221 27.0159 20.919 26.9379 20.645 26.7779C20.095 26.4619 19.767 25.8939 19.767 25.2579L19.767 16.7419C19.767 16.1079 20.095 15.5399 20.645 15.2239C21.193 14.9039 21.851 14.9019 22.399 15.2219L29.775 19.4799C30.325 19.7979 30.653 20.3659 30.653 20.9999C30.653 21.6359 30.325 22.2039 29.775 22.5219Z" fill="var(--tiny-second-color)" fill-rule="evenodd"/>
</svg>