<svg viewBox="0 0 48 48" xmlns="http://www.w3.org/2000/svg" xmlns:xlink="http://www.w3.org/1999/xlink" width="48.000000" height="48.000000">
  <path id="形状结合" d="M30.214 11C33.958 11 37 14.042 37 17.786L36.998 33L42.5 33C43.606 33 44.5 33.894 44.5 35C44.5 36.106 43.606 37 42.5 37L36.998 37L37 42.5C37 43.606 36.106 44.5 35 44.5C33.894 44.5 33 43.606 33 42.5L33 17.786C33 16.25 31.75 15 30.214 15L19.002 15C17.896 15 17.002 14.106 17.002 13C17.002 11.894 17.896 11 19.002 11L30.214 11ZM13 3.5C14.106 3.5 15 4.394 15 5.5L14.9997 12.9656L15 30.216C15 31.752 16.248 33 17.784 33L29.002 33C30.108 33 31.002 33.894 31.002 35C31.002 36.106 30.108 37 29.002 37L17.784 37C14.044 37 11 33.958 11 30.216L10.998 15L5.5 15C4.394 15 3.5 14.106 3.5 13C3.5 11.894 4.394 11 5.5 11L10.998 11L11 5.5C11 4.394 11.894 3.5 13 3.5Z" fill="var(--tiny-first-color)" fill-rule="evenodd"/>
  <path id="形状结合" d="M30.214 11C33.958 11 37 14.042 37 17.786L36.998 33L42.5 33C43.6059 33 44.5 33.894 44.5 35C44.5 36.106 43.6059 37 42.5 37L36.998 37L37 42.5C37 43.606 36.1059 44.5 35 44.5C33.894 44.5 33 43.606 33 42.5L33 17.786C33 16.25 31.75 15 30.214 15L19.002 15C17.896 15 17.002 14.106 17.002 13C17.002 11.894 17.896 11 19.002 11L30.214 11Z" fill="var(--tiny-second-color)" fill-rule="evenodd"/>
</svg>