<svg viewBox="0 0 48 48" xmlns="http://www.w3.org/2000/svg" xmlns:xlink="http://www.w3.org/1999/xlink" width="48.000000" height="48.000000" fill="none">
  <path id="形状结合" d="M30.2138 11.5C33.5665 11.5 36.305 14.1229 36.4899 17.4292L36.4998 17.786L36.498 33.5L42.5 33.5C43.3284 33.5 44 34.1716 44 35C44 35.7594 43.4357 36.387 42.7035 36.4863L42.5 36.5L36.498 36.5L36.4998 42.5C36.4998 43.3284 35.8282 44 34.9998 44C34.2404 44 33.6128 43.4357 33.5135 42.7035L33.4998 42.5L33.4998 17.786C33.4998 16.066 32.1801 14.6557 30.4974 14.5121L30.2138 14.5L18.0018 14.5C17.1734 14.5 16.5018 13.8284 16.5018 13C16.5018 12.2406 17.0661 11.613 17.7983 11.5137L18.0018 11.5L30.2138 11.5ZM12.9998 4C13.7592 4 14.3868 4.56431 14.4861 5.29646L14.4998 5.5L14.4997 12.9696L14.4998 30.216C14.4998 31.936 15.8177 33.3445 17.5002 33.488L17.7838 33.5L30.0018 33.5C30.8302 33.5 31.5018 34.1716 31.5018 35C31.5018 35.7594 30.9375 36.387 30.2053 36.4863L30.0018 36.5L17.7838 36.5C14.4311 36.5 11.6945 33.879 11.5097 30.5728L11.4998 30.216L11.498 14.5L5.5 14.5C4.67157 14.5 4 13.8284 4 13C4 12.2406 4.56431 11.613 5.29646 11.5137L5.5 11.5L11.498 11.5L11.4998 5.5C11.4998 4.67157 12.1714 4 12.9998 4Z" fill="var(--tiny-first-color)" fill-rule="evenodd"/>
  <path id="形状结合" d="M30.214 11.5C33.5666 11.5 36.3051 14.1229 36.49 17.4292L36.5 17.786L36.4982 33.5L42.5002 33.5C43.3286 33.5 44.0002 34.1716 44.0002 35C44.0002 35.7594 43.4358 36.387 42.7037 36.4863L42.5002 36.5L36.4982 36.5L36.5 42.5C36.5 43.3284 35.8284 44 35 44C34.2406 44 33.613 43.4357 33.5136 42.7035L33.5 42.5L33.5 17.786C33.5 16.066 32.1802 14.6557 30.4976 14.5121L30.214 14.5L18.002 14.5C17.1735 14.5 16.502 13.8284 16.502 13C16.502 12.2406 17.0663 11.613 17.7984 11.5137L18.002 11.5L30.214 11.5Z" fill="var(--tiny-second-color)" fill-rule="evenodd"/>
</svg>