<svg viewBox="0 0 48 48" xmlns="http://www.w3.org/2000/svg" xmlns:xlink="http://www.w3.org/1999/xlink" width="48.000000" height="48.000000">
  <path id="减去顶层" d="M32.5 19.0094C34.8878 19.0997 37.1107 19.834 39 21.0436L39 12L38.9898 11.6475C38.8073 8.49784 36.1954 6 33 6L12 6L11.6475 6.01019C8.49784 6.19268 6 8.80464 6 12L6 36L6.01019 36.3525C6.19268 39.5022 8.80464 42 12 42L23.6911 41.9985C20.8247 39.6139 19 36.0201 19 32C19 30.5864 19.2256 29.2254 19.6429 27.9512L19.6429 26.286C19.6429 25.497 20.2824 24.8574 21.0714 24.8574L21.1362 24.8574C21.844 23.7831 22.7068 22.82 23.6928 22L21.0714 22C20.2824 22 19.6429 21.3604 19.6429 20.5714L19.6429 13.4286C19.6429 12.6396 20.2824 12 21.0714 12L31.0714 12C31.8604 12 32.5 12.6396 32.5 13.4286L32.5 19.0094ZM15.3571 29.0718L17.5 29.0718L17.5 32.0718L15.3571 32.0718C15.0412 32.0718 14.7324 32.0391 14.4307 31.9736C14.1687 31.9167 13.912 31.8351 13.6607 31.7288C13.4105 31.623 13.1742 31.4964 12.9516 31.3489L12.9516 31.3489C12.7102 31.189 12.4851 31.0046 12.2762 30.7957C12.0673 30.5868 11.8829 30.3617 11.723 30.1203C11.5755 29.8977 11.4488 29.6613 11.343 29.4112C11.2367 29.1598 11.1551 28.9032 11.0982 28.6411C11.0327 28.3394 11 28.0306 11 27.7147L11 19.1433C11 18.8274 11.0328 18.5186 11.0982 18.2169L11.0983 18.2168L11.0983 18.2168C11.1551 17.9548 11.2367 17.6981 11.343 17.4468C11.4488 17.1966 11.5755 16.9603 11.723 16.7377C11.8829 16.4963 12.0673 16.2712 12.2762 16.0623C12.4851 15.8534 12.7102 15.669 12.9516 15.5091L12.9516 15.5091L12.9516 15.5091C13.1741 15.3616 13.4105 15.235 13.6607 15.1292C13.912 15.0229 14.1687 14.9413 14.4307 14.8844C14.7324 14.8189 15.0412 14.7861 15.3571 14.7861L17.5 14.7861L17.5 17.7861L15.3571 17.7861C15.2439 17.7861 15.134 17.7994 15.0274 17.826C14.9601 17.8427 14.894 17.8648 14.8293 17.8922C14.7588 17.922 14.6916 17.9573 14.628 17.9979C14.5453 18.0507 14.4685 18.1126 14.3975 18.1836C14.3265 18.2546 14.2646 18.3315 14.2118 18.4141C14.1712 18.4778 14.1359 18.5449 14.106 18.6155C14.0787 18.6802 14.0566 18.7462 14.0398 18.8135C14.0133 18.9201 14 19.0301 14 19.1433L14 27.7147C14 27.8279 14.0133 27.9378 14.0398 28.0444C14.0566 28.1118 14.0787 28.1778 14.106 28.2425C14.1359 28.3131 14.1711 28.3802 14.2118 28.4439C14.2646 28.5265 14.3265 28.6033 14.3975 28.6744C14.4685 28.7454 14.5453 28.8073 14.628 28.86L14.628 28.8601C14.6917 28.9007 14.7588 28.936 14.8293 28.9658C14.894 28.9932 14.9601 29.0152 15.0274 29.032C15.134 29.0586 15.2439 29.0718 15.3571 29.0718ZM29.5 15L22.6429 15L22.6429 19L29.5 19L29.5 15Z" fill="var(--tiny-first-color, #191919)" fill-rule="evenodd"/>
  <path id="矢量 1976" d="M32 21C38.0751 21 43 25.9248 43 32C43 38.0752 38.0751 43 32 43C25.9249 43 21 38.0752 21 32C21 25.9248 25.9249 21 32 21ZM31.7385 30.502L32.7054 29.6074C33.3218 29.0361 33.3579 28.1035 32.7873 27.4873C32.2167 26.8711 31.2841 26.835 30.6676 27.4053L26.8907 30.9014C26.8766 30.9141 26.8627 30.9277 26.849 30.9414C26.8353 30.9551 26.8219 30.9688 26.8088 30.9834C26.5274 31.2871 26.3947 31.6455 26.4107 32.0596C26.4267 32.4736 26.5867 32.8213 26.8907 33.1025L30.6676 36.5986C31.2841 37.1699 32.2167 37.1328 32.7873 36.5166C33.3579 35.9004 33.3218 34.9678 32.7054 34.3965L31.7385 33.502L36.4077 33.502C37.2477 33.502 37.9077 32.8418 37.9077 32.002C37.9077 31.1621 37.2477 30.502 36.4077 30.502L31.7385 30.502Z" fill="var(--tiny-second-color, #aeaeAE)" fill-rule="evenodd"/>
</svg>