<svg viewBox="0 0 48 48" xmlns="http://www.w3.org/2000/svg" xmlns:xlink="http://www.w3.org/1999/xlink" width="48.000000" height="48.000000" fill="none">
  <path id="形状结合" d="M24 4C28.4341 4 32.6516 5.44838 36.1066 8.07848C36.7657 8.58028 36.8933 9.52142 36.3915 10.1806C35.8897 10.8397 34.9486 10.9673 34.2894 10.4655C31.3523 8.22962 27.7718 7 24 7C14.6117 7 7 14.6111 7 24C7 33.3876 14.6124 41 24 41C33.3889 41 41 33.3883 41 24C41 20.2292 39.7717 16.6507 37.5362 13.7122C37.0346 13.0529 37.1625 12.1118 37.8218 11.6102C38.4811 11.1086 39.4222 11.2365 39.9238 11.8958C42.5532 15.352 44 19.5672 44 24C44 35.0451 35.0458 44 24 44C12.9556 44 4 35.0444 4 24C4 12.9542 12.9549 4 24 4ZM23.6541 30.68C24.7581 30.68 25.6541 31.574 25.6541 32.68C25.6541 33.786 24.7581 34.68 23.6541 34.68C22.5501 34.68 21.6541 33.786 21.6541 32.68C21.6541 31.574 22.5501 30.68 23.6541 30.68ZM23.6541 13.18C24.4135 13.18 25.041 13.7443 25.1404 14.4765L25.1541 14.68L25.1541 26.68C25.1541 27.5084 24.4825 28.18 23.6541 28.18C22.8947 28.18 22.2671 27.6157 22.1678 26.8835L22.1541 26.68L22.1541 14.68C22.1541 13.8516 22.8256 13.18 23.6541 13.18Z" fill="var(--tiny-first-color)" fill-rule="evenodd"/>
  <path id="形状结合" d="M23.6541 30.68C24.7581 30.68 25.6541 31.574 25.6541 32.68C25.6541 33.786 24.7581 34.68 23.6541 34.68C22.5501 34.68 21.6541 33.786 21.6541 32.68C21.6541 31.574 22.5501 30.68 23.6541 30.68ZM23.6541 13.18C24.4135 13.18 25.041 13.7443 25.1404 14.4765L25.1541 14.68L25.1541 26.68C25.1541 27.5084 24.4825 28.18 23.6541 28.18C22.8947 28.18 22.2671 27.6157 22.1678 26.8835L22.1541 26.68L22.1541 14.68C22.1541 13.8516 22.8256 13.18 23.6541 13.18Z" fill="var(--tiny-second-color)" fill-rule="evenodd"/>
</svg>