<svg viewBox="0 0 48 48" xmlns="http://www.w3.org/2000/svg" xmlns:xlink="http://www.w3.org/1999/xlink" width="48.000000" height="48.000000" fill="none">
  <path id="Fill-1" d="M24 13.5C24.828 13.5 25.5 14.172 25.5 15L25.5 26.748C25.5 27.576 24.828 28.248 24 28.248C23.172 28.248 22.5 27.576 22.5 26.748L22.5 15C22.5 14.172 23.172 13.5 24 13.5ZM24 35C22.896 35 22 34.106 22 33C22 31.894 22.896 31 24 31C25.104 31 26 31.894 26 33C26 34.106 25.104 35 24 35ZM24 4C12.972 4 4 12.972 4 24C4 35.028 12.972 44 24 44C35.028 44 44 35.028 44 24C44 12.972 35.028 4 24 4Z" fill="var(--tiny-first-color, #191919)" fill-rule="evenodd"/>
  <path id="Fill-1" d="M24 13.5C24.828 13.5 25.5 14.172 25.5 15L25.5 26.748C25.5 27.576 24.828 28.248 24 28.248C23.172 28.248 22.5 27.576 22.5 26.748L22.5 15C22.5 14.172 23.172 13.5 24 13.5ZM24 35C22.896 35 22 34.106 22 33C22 31.894 22.896 31 24 31C25.104 31 26 31.894 26 33C26 34.106 25.104 35 24 35Z" fill="var(--tiny-second-color, #aeaeAE)" fill-rule="evenodd"/>
</svg>
