<svg viewBox="0 0 48 48" xmlns="http://www.w3.org/2000/svg" xmlns:xlink="http://www.w3.org/1999/xlink" width="48.000000" height="48.000000">
  <path id="形状结合" d="M24 4C35.028 4 44 12.972 44 24C44 35.028 35.028 44 24 44C12.972 44 4 35.028 4 24C4 12.972 12.972 4 24 4ZM30.036 11.722C29.33 11.286 28.408 11.506 27.972 12.21L24 18.644L20.028 12.21C19.594 11.506 18.668 11.286 17.964 11.722C17.26 12.156 17.042 13.082 17.476 13.786L21.622 20.498L17 20.498C16.172 20.498 15.5 21.17 15.5 21.998C15.5 22.826 16.172 23.498 17 23.498L22.5 23.498L22.5 25.498L17 25.498C16.172 25.498 15.5 26.17 15.5 26.998C15.5 27.826 16.172 28.498 17 28.498L22.5 28.498L22.5 34.998C22.5 35.826 23.172 36.498 24 36.498C24.828 36.498 25.5 35.826 25.5 34.998L25.5 28.498L31 28.498C31.828 28.498 32.5 27.826 32.5 26.998C32.5 26.17 31.828 25.498 31 25.498L25.5 25.498L25.5 23.498L31 23.498C31.828 23.498 32.5 22.826 32.5 21.998C32.5 21.17 31.828 20.498 31 20.498L26.378 20.498L30.524 13.786C30.958 13.082 30.74 12.156 30.036 11.722Z" fill="var(--tiny-first-color)" fill-rule="evenodd"/>
  <path id="形状结合" d="M30.036 11.7237C30.6822 12.1226 30.9197 12.9325 30.6196 13.6076L26.38 20.5L31 20.5C31.8284 20.5 32.5 21.1716 32.5 22C32.5 22.7594 31.9357 23.387 31.2035 23.4863L31 23.5L25.5 23.5L25.5 25.5L31 25.5C31.8284 25.5 32.5 26.1716 32.5 27C32.5 27.7594 31.9357 28.387 31.2035 28.4863L31 28.5L25.5 28.5L25.5 34.999C25.5 35.8274 24.8284 36.499 24 36.499C23.2406 36.499 22.613 35.9347 22.5137 35.2025L22.5 34.999L22.5 28.5L17 28.5C16.1716 28.5 15.5 27.8284 15.5 27C15.5 26.2406 16.0643 25.613 16.7965 25.5137L17 25.5L22.5 25.5L22.5 23.5L17 23.5C16.1716 23.5 15.5 22.8284 15.5 22C15.5 21.2406 16.0643 20.613 16.7965 20.5137L17 20.5L21.618 20.5L17.4757 13.788C17.0405 13.0831 17.2591 12.1589 17.964 11.7237C18.6101 11.3247 19.4406 11.4752 19.9097 12.046L24 18.642L27.9717 12.212C28.4069 11.5071 29.3311 11.2885 30.036 11.7237Z" fill="var(--tiny-second-color)" fill-rule="evenodd"/>
</svg>