<svg viewBox="0 0 48 48" xmlns="http://www.w3.org/2000/svg" xmlns:xlink="http://www.w3.org/1999/xlink" width="48.000000" height="48.000000" fill="none">
  <path id="形状结合" d="M24 4C28.4341 4 32.6516 5.44838 36.1066 8.07848C36.7657 8.58028 36.8933 9.52142 36.3915 10.1806C35.8897 10.8397 34.9486 10.9673 34.2894 10.4655C31.3523 8.22962 27.7718 7 24 7C14.6117 7 7 14.6111 7 24C7 33.3876 14.6124 41 24 41C33.3889 41 41 33.3883 41 24C41 20.2292 39.7717 16.6507 37.5362 13.7122C37.0346 13.0529 37.1625 12.1118 37.8218 11.6102C38.4811 11.1086 39.4222 11.2365 39.9238 11.8958C42.5532 15.352 44 19.5672 44 24C44 35.0451 35.0458 44 24 44C12.9556 44 4 35.0444 4 24C4 12.9542 12.9549 4 24 4ZM30.036 11.7237C30.6822 12.1226 30.9197 12.9325 30.6196 13.6076L26.38 20.5L31 20.5C31.8284 20.5 32.5 21.1716 32.5 22C32.5 22.7594 31.9357 23.387 31.2035 23.4863L31 23.5L25.5 23.5L25.5 25.5L31 25.5C31.8284 25.5 32.5 26.1716 32.5 27C32.5 27.7594 31.9357 28.387 31.2035 28.4863L31 28.5L25.5 28.5L25.5 34.999C25.5 35.8274 24.8284 36.499 24 36.499C23.2406 36.499 22.613 35.9347 22.5137 35.2025L22.5 34.999L22.5 28.5L17 28.5C16.1716 28.5 15.5 27.8284 15.5 27C15.5 26.2406 16.0643 25.613 16.7965 25.5137L17 25.5L22.5 25.5L22.5 23.5L17 23.5C16.1716 23.5 15.5 22.8284 15.5 22C15.5 21.2406 16.0643 20.613 16.7965 20.5137L17 20.5L21.618 20.5L17.4757 13.788C17.0405 13.0831 17.2591 12.1589 17.964 11.7237C18.6101 11.3247 19.4406 11.4752 19.9097 12.046L24 18.642L27.9717 12.212C28.4069 11.5071 29.3311 11.2885 30.036 11.7237Z" fill="var(--tiny-first-color, #191919)" fill-rule="evenodd"/>
  <path id="形状结合" d="M30.036 11.7237C30.6822 12.1226 30.9197 12.9325 30.6196 13.6076L26.38 20.5L31 20.5C31.8284 20.5 32.5 21.1716 32.5 22C32.5 22.7594 31.9357 23.387 31.2035 23.4863L31 23.5L25.5 23.5L25.5 25.5L31 25.5C31.8284 25.5 32.5 26.1716 32.5 27C32.5 27.7594 31.9357 28.387 31.2035 28.4863L31 28.5L25.5 28.5L25.5 34.999C25.5 35.8274 24.8284 36.499 24 36.499C23.2406 36.499 22.613 35.9347 22.5137 35.2025L22.5 34.999L22.5 28.5L17 28.5C16.1716 28.5 15.5 27.8284 15.5 27C15.5 26.2406 16.0643 25.613 16.7965 25.5137L17 25.5L22.5 25.5L22.5 23.5L17 23.5C16.1716 23.5 15.5 22.8284 15.5 22C15.5 21.2406 16.0643 20.613 16.7965 20.5137L17 20.5L21.618 20.5L17.4757 13.788C17.0405 13.0831 17.2591 12.1589 17.964 11.7237C18.6101 11.3247 19.4406 11.4752 19.9097 12.046L24 18.642L27.9717 12.212C28.4069 11.5071 29.3311 11.2885 30.036 11.7237Z" fill="var(--tiny-second-color, #aeaeAE)" fill-rule="evenodd"/>
</svg>
