<svg viewBox="0 0 48 48" xmlns="http://www.w3.org/2000/svg" xmlns:xlink="http://www.w3.org/1999/xlink" width="48.000000" height="48.000000" fill="none">
  <path id="形状结合" d="M24 4.03906C31.3106 4.03906 37.9246 8.00161 41.4309 14.2664C42.779 16.6748 43.6122 19.3376 43.8722 22.116C43.9288 22.4337 43.96 22.7606 43.96 23.0949L43.96 25.1769C43.96 27.1033 43.352 28.8878 42.3173 30.349C40.6941 32.6411 38.0221 34.1371 35 34.1371C34.2406 34.1371 33.6131 33.5728 33.5137 32.8406L33.5 32.6371L33.5 22.1611C33.5 20.7158 34.2127 19.4375 35.306 18.6584L35.546 18.499C36.2008 18.0956 36.9721 17.8629 37.798 17.8629L38.73 17.8629C39.1195 17.8629 39.4989 17.9054 39.864 17.986C39.571 17.2115 39.2197 16.458 38.8131 15.7317C35.832 10.4052 30.2134 7.03906 24 7.03906C16.7505 7.03906 10.5637 11.5877 8.13693 17.9869C8.50117 17.9054 8.88061 17.8629 9.27004 17.8629L10.202 17.8629C12.5765 17.8629 14.5 19.7864 14.5 22.1609L14.5 32.6369C14.5 33.4653 13.8285 34.1369 13 34.1369C11.9621 34.1369 10.9654 33.9604 10.0383 33.6358C12.2947 36.896 15.6631 39.3289 19.5956 40.3835C19.5326 40.0847 19.5 39.7766 19.5 39.4611C19.5 36.9766 21.5156 34.9611 24 34.9611C26.4845 34.9611 28.5 36.9766 28.5 39.4611C28.5 41.9455 26.4845 43.9611 24 43.9611C14.1739 43.9611 6.00635 36.8605 4.34767 27.5111C4.14681 26.7665 4.04004 25.9841 4.04004 25.1769L4.04004 23.0949C4.04004 22.7683 4.0699 22.4487 4.12706 22.1387C5.06541 11.9866 13.6042 4.03906 24 4.03906ZM24 37.9611C23.1725 37.9611 22.5 38.6335 22.5 39.4611C22.5 40.2886 23.1725 40.9611 24 40.9611C24.8276 40.9611 25.5 40.2886 25.5 39.4611C25.5 38.6335 24.8276 37.9611 24 37.9611ZM10.202 20.8629L9.27004 20.8629C8.2123 20.8629 7.32818 21.5972 7.09826 22.5852C7.05967 23.0529 7.04004 23.5247 7.04004 24.0011C7.04004 24.9705 7.12138 25.9209 7.27762 26.8459C7.84278 28.7882 9.36935 30.3202 11.3078 30.8932L11.5 22.1609C11.5 21.5085 10.8284 20.9555 10.202 20.8629ZM38.73 20.8629L37.826 20.8611L37.592 20.8791C37.4905 20.9117 37.1998 21.0036 37.1112 21.0589C37.0572 21.0984 36.9275 21.1954 36.8803 21.2426L37.1112 21.0589C37.054 21.1068 36.9285 21.1856 36.8803 21.2426C36.8002 21.3523 36.6058 21.6279 36.563 21.76C36.5414 21.8268 36.525 21.896 36.5144 21.967L36.563 21.76C36.5324 21.8707 36.5144 21.8465 36.5144 21.967L36.501 30.9425C36.7274 30.8756 37.1394 30.7465 37.3536 30.6543C37.465 30.6064 37.5746 30.5552 37.6823 30.5008L37.3536 30.6543C37.4442 30.6113 37.5943 30.5481 37.6823 30.5008C37.7888 30.447 37.8933 30.3902 37.996 30.3304L37.6823 30.5008C37.796 30.4396 37.8869 30.3986 37.996 30.3304C38.0964 30.2719 38.1949 30.2105 38.2915 30.1464L37.996 30.3304C38.0966 30.2675 38.195 30.2151 38.2915 30.1464C38.3883 30.0822 38.4832 30.0151 38.5759 29.9455L38.2915 30.1464C38.3743 30.0876 38.4963 30.0084 38.5759 29.9455C38.6828 29.8651 38.787 29.7813 38.8881 29.6941L38.5759 29.9455C38.657 29.8813 38.8106 29.7623 38.8881 29.6941C38.9726 29.6213 39.055 29.5462 39.1352 29.4689L38.8881 29.6941C38.9841 29.6097 39.0448 29.5592 39.1352 29.4689C39.2218 29.3854 39.3059 29.2993 39.3874 29.2107L39.1352 29.4689C39.2202 29.3839 39.3076 29.3006 39.3874 29.2107C39.4608 29.1309 39.5321 29.049 39.6012 28.9652L39.3874 29.2107C39.4682 29.1197 39.526 29.0611 39.6012 28.9652C39.6815 28.8678 39.7587 28.7677 39.8328 28.6653L39.6012 28.9652C39.67 28.8774 39.7689 28.757 39.8328 28.6653C39.8985 28.5744 39.9617 28.4816 40.0223 28.387L39.8328 28.6653C39.9074 28.5583 39.9547 28.4989 40.0223 28.387C40.08 28.2968 40.1354 28.2049 40.1884 28.1115L40.0223 28.387C40.0803 28.2909 40.1357 28.211 40.1884 28.1115C40.2511 28.0009 40.3104 27.888 40.3661 27.773L40.1884 28.1115C40.2468 28.001 40.3145 27.8876 40.3661 27.773C40.4116 27.6791 40.4548 27.5837 40.4955 27.4871L40.3661 27.773C40.4145 27.6655 40.4533 27.5979 40.4955 27.4871C40.7517 26.8781 40.9098 26.2176 40.9499 25.5254L40.96 25.1751L40.96 24.0011C40.96 23.5256 40.9405 23.0531 40.9019 22.5846C40.6707 21.5962 39.7871 20.8629 38.73 20.8629Z" fill="var(--tiny-first-color, #191919)" fill-rule="evenodd"/>
</svg>
