<svg viewBox="0 0 48 48" xmlns="http://www.w3.org/2000/svg" xmlns:xlink="http://www.w3.org/1999/xlink" width="48.000000" height="48.000000">
  <path id="形状结合" d="M32 4C35.1955 4 37.8073 6.49849 37.9898 9.64752L38 10L38 18C38 18.8284 37.3284 19.5 36.5 19.5C35.7406 19.5 35.113 18.9358 35.0137 18.2036L35 18L35 10C35 8.44107 33.8102 7.15916 32.2889 7.01374L32 7L11 7C9.44068 7 8.15911 8.19023 8.01373 9.71118L8 10L8 38.002C8 39.5603 9.18932 40.8411 10.711 40.9863L11 41L21 41C21.8284 41 22.5 41.6716 22.5 42.5C22.5 43.2594 21.9357 43.887 21.2035 43.9863L21 44L11 44C7.80434 44 5.19266 41.5033 5.01019 38.3545L5 38.002L5 10C5 6.80531 7.49772 4.19279 10.6474 4.01025L11 4L32 4ZM18 18.5C18.8284 18.5 19.5 19.1716 19.5 20C19.5 20.7594 18.9357 21.387 18.2035 21.4863L18 21.5L12 21.5C11.1716 21.5 10.5 20.8284 10.5 20C10.5 19.2406 11.0643 18.613 11.7965 18.5137L12 18.5L18 18.5ZM28 11.5C28.8284 11.5 29.5 12.1716 29.5 13C29.5 13.7594 28.9357 14.387 28.2035 14.4863L28 14.5L12 14.5C11.1716 14.5 10.5 13.8284 10.5 13C10.5 12.2406 11.0643 11.613 11.7965 11.5137L12 11.5L28 11.5Z" fill="var(--tiny-first-color)" fill-rule="evenodd"/>
  <path id="合并" d="M42.7395 34.4481C42.5893 35.1373 42.3741 35.813 42.0941 36.4739C41.8213 37.1176 41.4962 37.727 41.1186 38.3018C40.6895 38.9551 40.1928 39.564 39.6284 40.1284C39.064 40.6928 38.4552 41.1895 37.8018 41.6186C37.227 41.9961 36.6176 42.3213 35.9739 42.5941C35.313 42.8741 34.638 43.0892 33.9488 43.2393C33.1515 43.4131 32.3352 43.5 31.5 43.5C30.665 43.5 29.849 43.4132 29.0519 43.2395C28.3627 43.0893 27.687 42.8741 27.0261 42.5941C26.3824 42.3213 25.7731 41.9962 25.1982 41.6186C24.5449 41.1896 23.936 40.6928 23.3716 40.1284C22.8072 39.564 22.3105 38.9552 21.8815 38.302C21.504 37.7272 21.1786 37.1175 20.9059 36.4739C20.6259 35.813 20.4108 35.138 20.2607 34.4489C20.0869 33.6516 20 32.8351 20 32C20 31.1648 20.0869 30.3486 20.2606 29.5513C20.4108 28.8621 20.6259 28.187 20.9059 27.5261C21.1787 26.8823 21.5039 26.273 21.8815 25.6981C22.3105 25.0448 22.8072 24.436 23.3716 23.8716C23.936 23.3072 24.5448 22.8105 25.1981 22.3814C25.773 22.0039 26.3824 21.6787 27.0261 21.4059C27.6869 21.126 28.3618 20.9109 29.0509 20.7607C29.848 20.587 30.665 20.5 31.5 20.5C32.3352 20.5 33.1514 20.5869 33.9487 20.7606C34.6379 20.9108 35.313 21.1259 35.9739 21.4059C36.6177 21.6787 37.2271 22.0039 37.802 22.3815C38.4553 22.8105 39.064 23.3072 39.6284 23.8716C40.1928 24.436 40.6895 25.0448 41.1186 25.6981C41.4961 26.273 41.8213 26.8824 42.0941 27.5261C42.3741 28.187 42.5892 28.8621 42.7394 29.5513C42.9131 30.3486 43 31.1648 43 32C43 32.835 42.9132 33.651 42.7395 34.4481ZM40 32C40 31.3679 39.9328 30.7508 39.7984 30.1487C39.6881 29.6545 39.5326 29.1704 39.3318 28.6965C39.1349 28.2319 38.9011 27.7915 38.6301 27.3752C38.3081 26.8804 37.9338 26.4196 37.5071 25.9929C37.0804 25.5662 36.6196 25.1919 36.1248 24.8698C35.7085 24.5989 35.2681 24.3651 34.8035 24.1682C34.3296 23.9674 33.8456 23.8119 33.3514 23.7016C32.7493 23.5672 32.1321 23.5 31.5 23.5C30.8679 23.5 30.2508 23.5672 29.6486 23.7016C29.1545 23.8119 28.6704 23.9674 28.1965 24.1682C27.732 24.365 27.2916 24.5989 26.8753 24.8698C26.3805 25.1918 25.9196 25.5662 25.4929 25.9929C25.0662 26.4196 24.6918 26.8804 24.3698 27.3752C24.0989 27.7915 23.8651 28.2319 23.6682 28.6965C23.4675 29.1702 23.3121 29.6539 23.2018 30.1478C23.0674 30.7499 23 31.3679 23 32C23 32.6321 23.0672 33.2492 23.2016 33.8513C23.3119 34.3454 23.4674 34.8296 23.6682 35.3035C23.865 35.7681 24.0989 36.2085 24.3698 36.6248C24.6918 37.1196 25.0662 37.5804 25.4929 38.0071C25.9196 38.4338 26.3804 38.8082 26.8753 39.1302C27.2915 39.4011 27.732 39.635 28.1965 39.8318C28.6704 40.0326 29.1545 40.1881 29.6487 40.2984C30.2508 40.4328 30.8679 40.5 31.5 40.5C32.1318 40.5 32.7487 40.4329 33.3506 40.2986C33.8442 40.1883 34.3301 40.0324 34.8035 39.8318C35.268 39.635 35.7084 39.4011 36.1246 39.1303C36.6195 38.8083 37.0803 38.4338 37.5071 38.0071C37.9338 37.5804 38.3082 37.1196 38.6302 36.6248C38.9011 36.2085 39.135 35.768 39.3318 35.3035C39.5324 34.8299 39.6879 34.3462 39.7982 33.8524C39.9326 33.2503 40 32.6321 40 32Z" fill="var(--tiny-second-color)" fill-rule="evenodd"/>
  <path id="合并" d="M32.2981 24.8347C32.0382 24.7782 31.7721 24.75 31.4999 24.75C31.2277 24.75 30.9616 24.7782 30.7017 24.8347C30.4765 24.8837 30.2559 24.9538 30.0398 25.0452C29.8247 25.1362 29.6214 25.2451 29.4299 25.3719C29.222 25.5096 29.0282 25.6684 28.8482 25.8484C28.6683 26.0283 28.5095 26.2222 28.3718 26.43C28.245 26.6215 28.1361 26.8248 28.0451 27.0399C27.9537 27.256 27.8836 27.4766 27.8346 27.7018C27.7781 27.9617 27.7499 28.2278 27.7499 28.5C27.7499 28.7722 27.7781 29.0383 27.8346 29.2982C27.8836 29.5234 27.9537 29.744 28.0451 29.9601C28.1361 30.1752 28.245 30.3785 28.3718 30.57C28.5095 30.7779 28.6683 30.9717 28.8482 31.1516C29.0282 31.3316 29.2221 31.4904 29.4299 31.6281C29.6214 31.7549 29.8247 31.8638 30.0398 31.9548C30.1094 31.9842 30.1794 32.0114 30.2499 32.0364L30.2499 32.75L28.9999 32.75C28.2999 32.75 27.7499 33.3 27.7499 34C27.7499 34.7 28.2999 35.25 28.9999 35.25L30.2499 35.25L30.2499 36.5636C30.0661 36.507 29.8848 36.4376 29.7062 36.3554C29.5843 36.2992 29.4653 36.2379 29.3492 36.1715L29.3492 36.1715C28.9322 35.9328 28.5532 35.6278 28.2122 35.2565C28.0822 35.115 27.9608 34.9672 27.848 34.8131L27.848 34.8131C27.569 34.4321 27.3423 34.0128 27.1681 33.5552C26.919 32.901 26.2093 32.5827 25.5551 32.8318C24.9009 33.0809 24.5826 33.7906 24.8317 34.4448C25.0628 35.0517 25.3581 35.6139 25.7175 36.1316L25.7175 36.1316L25.7175 36.1316C25.9158 36.4172 26.1336 36.6891 26.3709 36.9475C26.8251 37.442 27.3266 37.8605 27.8755 38.203L27.8756 38.203C28.1272 38.36 28.3889 38.5011 28.6604 38.6261C29.1337 38.8441 29.6189 39.0049 30.116 39.1087C30.5674 39.2029 31.0288 39.25 31.4999 39.25C31.971 39.25 32.4323 39.2029 32.8838 39.1087L32.8838 39.1087C33.3809 39.0049 33.8661 38.8441 34.3394 38.6261C34.611 38.5011 34.8726 38.36 35.1243 38.203L35.1243 38.2029C35.6732 37.8605 36.1747 37.442 36.6288 36.9475C36.8661 36.6892 37.0839 36.4173 37.2821 36.1318C37.6417 35.614 37.937 35.0517 38.1681 34.4448C38.4172 33.7906 38.0989 33.0809 37.4447 32.8318C36.7905 32.5827 36.0808 32.901 35.8317 33.5552C35.6574 34.0129 35.4308 34.4322 35.1517 34.8132C35.0389 34.9673 34.9175 35.115 34.7876 35.2565C34.4466 35.6278 34.0676 35.9328 33.6506 36.1715L33.6504 36.1716C33.5344 36.238 33.4155 36.2993 33.2936 36.3554C33.115 36.4376 32.9337 36.507 32.7499 36.5636L32.7499 35.25L33.9999 35.25C34.6999 35.25 35.2499 34.7 35.2499 34C35.2499 33.3 34.6999 32.75 33.9999 32.75L32.7499 32.75L32.7499 32.0364C32.8204 32.0114 32.8904 31.9842 32.96 31.9548C33.1751 31.8638 33.3784 31.7549 33.5699 31.6281C33.7778 31.4904 33.9716 31.3316 34.1516 31.1516C34.3315 30.9717 34.4903 30.7778 34.628 30.57C34.7548 30.3785 34.8637 30.1752 34.9547 29.9601C35.0461 29.744 35.1162 29.5234 35.1652 29.2982C35.2217 29.0383 35.2499 28.7722 35.2499 28.5C35.2499 28.2278 35.2217 27.9617 35.1652 27.7018C35.1162 27.4766 35.0461 27.256 34.9547 27.0399C34.8637 26.8248 34.7548 26.6215 34.628 26.43C34.4903 26.2221 34.3315 26.0283 34.1516 25.8484C33.9716 25.6684 33.7777 25.5096 33.5699 25.3719C33.3784 25.2451 33.1751 25.1362 32.96 25.0452C32.7439 24.9538 32.5233 24.8837 32.2981 24.8347ZM31.1989 27.286C31.2963 27.262 31.3966 27.25 31.4999 27.25C31.6032 27.25 31.7035 27.262 31.8009 27.286C31.8638 27.3016 31.9256 27.3221 31.9861 27.3477C32.0516 27.3754 32.1138 27.4082 32.1729 27.446C32.2485 27.4944 32.3188 27.5511 32.3838 27.6161C32.4488 27.6811 32.5055 27.7514 32.5539 27.827C32.5917 27.8861 32.6245 27.9483 32.6522 28.0138C32.6778 28.0743 32.6983 28.1361 32.7139 28.199C32.7379 28.2964 32.7499 28.3967 32.7499 28.5C32.7499 28.6033 32.7379 28.7036 32.7139 28.801C32.6983 28.864 32.6778 28.9257 32.6522 28.9862C32.6245 29.0517 32.5917 29.1139 32.5539 29.173C32.5055 29.2486 32.4488 29.3189 32.3838 29.3839C32.3188 29.4489 32.2485 29.5056 32.1729 29.554C32.1138 29.5918 32.0516 29.6246 31.9861 29.6523C31.9256 29.6779 31.8638 29.6984 31.8009 29.714C31.7035 29.738 31.6032 29.75 31.4999 29.75C31.3966 29.75 31.2963 29.738 31.1989 29.714C31.1359 29.6984 31.0742 29.6779 31.0137 29.6523C30.9482 29.6246 30.886 29.5918 30.827 29.554C30.7513 29.5056 30.681 29.4489 30.616 29.3839C30.551 29.3189 30.4943 29.2486 30.4459 29.173C30.4081 29.1139 30.3753 29.0517 30.3476 28.9862C30.322 28.9257 30.3015 28.864 30.2859 28.801C30.2619 28.7036 30.2499 28.6033 30.2499 28.5C30.2499 28.3967 30.2619 28.2964 30.2859 28.199C30.3015 28.1361 30.322 28.0743 30.3476 28.0138C30.3753 27.9483 30.4081 27.8861 30.4459 27.827C30.4943 27.7514 30.551 27.6811 30.616 27.6161C30.681 27.5511 30.7513 27.4944 30.8269 27.446C30.886 27.4082 30.9482 27.3754 31.0137 27.3477C31.0742 27.3221 31.136 27.3016 31.1989 27.286Z" fill="var(--tiny-second-color)" fill-rule="evenodd"/>
</svg>