<svg viewBox="0 0 48 48" xmlns="http://www.w3.org/2000/svg" xmlns:xlink="http://www.w3.org/1999/xlink" width="48.000000" height="48.000000">
  <path id="Combined Shape" d="M44 33.3333C44 31.4924 42.5076 30 40.6667 30L33 30C33 32.6924 30.8174 34.875 28.125 34.875L21.2083 34.875C18.5159 34.875 16.3333 32.6924 16.3333 30L7.33333 30C5.49238 30 4 31.4924 4 33.3333L4 39.6667C4 41.5076 5.49238 43 7.33333 43L40.6667 43C42.5076 43 44 41.5076 44 39.6667L44 33.3333Z" fill="var(--tiny-first-color, #191919)" fill-rule="evenodd"/>
  <path id="减去顶层" d="M10.3333 5L37.3333 5C39.1743 5 40.6667 6.49238 40.6667 8.33333L40.6667 27L31.1667 27C31.1667 29.2785 29.2639 31.1251 26.9167 31.1251L22.25 31.1251C19.9028 31.1251 18 29.2785 18 27L7 27L7 8.33333C7 6.49238 8.49238 5 10.3333 5ZM27.2918 11C27.2918 8.79102 25.501 7 23.2918 7C21.0827 7 19.2918 8.79102 19.2918 11C19.2918 12.7725 20.4449 14.2764 22.0418 14.8008L22.0418 16.75L20.2918 16.75C19.5918 16.75 19.0418 17.2998 19.0418 18C19.0418 18.7002 19.5918 19.25 20.2918 19.25L22.0418 19.25L22.0418 22.6807C21.7451 22.6416 21.4515 22.5898 21.161 22.5234C20.6184 22.4004 20.0868 22.2285 19.5663 22.0078C19.0337 21.7832 18.5293 21.5146 18.0533 21.2031C17.6998 20.9717 17.3618 20.7158 17.0395 20.4365L17.977 20.7275C18.5384 20.9014 19.1162 20.5967 19.2902 20.0352C19.4641 19.4736 19.1597 18.8965 18.5982 18.7227L15.1584 17.6562C15.1455 17.6523 15.1325 17.6484 15.1195 17.6455C15.1064 17.6416 15.0933 17.6387 15.0801 17.6357C14.7974 17.5713 14.5335 17.6162 14.2882 17.7715C14.043 17.9258 13.8883 18.1445 13.8242 18.4268L13.0272 21.9385C12.8971 22.5117 13.2453 23.0645 13.8185 23.1943C14.3917 23.3242 14.9443 22.9766 15.0744 22.4033L15.144 22.0967C15.6199 22.5322 16.124 22.9258 16.6563 23.2764C17.2647 23.6777 17.9101 24.0225 18.5924 24.3105C19.2685 24.5967 19.959 24.8184 20.6639 24.9746C21.1172 25.0752 21.5766 25.1494 22.0418 25.1973L22.0418 26C22.0418 26.7002 22.5918 27.25 23.2918 27.25C23.9918 27.25 24.5418 26.7002 24.5418 26L24.5418 25.1973C25.0071 25.1494 25.4665 25.0752 25.9199 24.9746L25.9199 24.9746C26.6247 24.8184 27.3152 24.5967 27.9913 24.3105C28.6533 24.031 29.2805 23.6982 29.873 23.312C29.8911 23.3002 29.9092 23.2883 29.9273 23.2764C30.5952 22.8369 31.2186 22.3301 31.7975 21.7549L31.9447 22.4033C32.0747 22.9766 32.6273 23.3242 33.2005 23.1943C33.7738 23.0645 34.1219 22.5117 33.9918 21.9385L33.1949 18.4268C33.1307 18.1445 32.976 17.9258 32.7308 17.7715C32.4856 17.6162 32.2216 17.5713 31.939 17.6357C31.9258 17.6387 31.9126 17.6416 31.8996 17.6455C31.8865 17.6484 31.8735 17.6523 31.8606 17.6562L28.4208 18.7227C27.8594 18.8965 27.5549 19.4736 27.7289 20.0352C27.9028 20.5967 28.4806 20.9014 29.0421 20.7275L29.2878 20.6514C29.0438 20.8477 28.7914 21.0322 28.5304 21.2031L28.5303 21.2031C28.0543 21.5146 27.55 21.7832 27.0174 22.0078C26.4969 22.2285 25.9653 22.4004 25.4228 22.5234L25.4227 22.5234C25.1322 22.5898 24.8386 22.6416 24.5418 22.6807L24.5418 19.25L26.2918 19.25C26.9918 19.25 27.5418 18.7002 27.5418 18C27.5418 17.2998 26.9918 16.75 26.2918 16.75L24.5418 16.75L24.5418 14.8008C26.1388 14.2764 27.2918 12.7725 27.2918 11Z" fill="var(--tiny-second-color, #aeaeAE)" fill-rule="evenodd"/>
</svg>