<svg viewBox="0 0 48 48" xmlns="http://www.w3.org/2000/svg" xmlns:xlink="http://www.w3.org/1999/xlink" width="48.000000" height="48.000000">
  <path id="减去顶层" d="M4 24C4 12.9543 12.9543 4 24 4C35.0457 4 44 12.9543 44 24C44 30.9051 40.3895 30.5536 36.7985 30.204C34.6452 29.9944 32.4989 29.7854 31.1421 31.1421C29.7854 32.4989 29.9944 34.6452 30.204 36.7985C30.5536 40.3895 30.9051 44 24 44C12.9543 44 4 35.0457 4 24ZM23 15.5C23 14.1193 21.8807 13 20.5 13C19.1193 13 18 14.1193 18 15.5C18 16.8807 19.1193 18 20.5 18C21.8807 18 23 16.8807 23 15.5ZM33 15.5C33 14.1193 31.8807 13 30.5 13C29.1193 13 28 14.1193 28 15.5C28 16.8807 29.1193 18 30.5 18C31.8807 18 33 16.8807 33 15.5ZM13 23.5C13 22.1193 14.1193 21 15.5 21C16.8807 21 18 22.1193 18 23.5C18 24.8807 16.8807 26 15.5 26C14.1193 26 13 24.8807 13 23.5ZM15 32.5C15 31.1193 16.1193 30 17.5 30C18.8807 30 20 31.1193 20 32.5C20 33.8807 18.8807 35 17.5 35C16.1193 35 15 33.8807 15 32.5Z" fill="var(--tiny-first-color)" fill-rule="evenodd"/>
  <path id="合并" d="M20.5 13C21.8807 13 23 14.1193 23 15.5C23 16.8807 21.8807 18 20.5 18C19.1193 18 18 16.8807 18 15.5C18 14.1193 19.1193 13 20.5 13ZM30.5 13C31.8807 13 33 14.1193 33 15.5C33 16.8807 31.8807 18 30.5 18C29.1193 18 28 16.8807 28 15.5C28 14.1193 29.1193 13 30.5 13ZM15.5 21C14.1193 21 13 22.1193 13 23.5C13 24.8807 14.1193 26 15.5 26C16.8807 26 18 24.8807 18 23.5C18 22.1193 16.8807 21 15.5 21ZM17.5 30C16.1193 30 15 31.1193 15 32.5C15 33.8807 16.1193 35 17.5 35C18.8807 35 20 33.8807 20 32.5C20 31.1193 18.8807 30 17.5 30Z" fill="var(--tiny-second-color)" fill-rule="evenodd"/>
</svg>