<svg viewBox="0 0 48 48" xmlns="http://www.w3.org/2000/svg" xmlns:xlink="http://www.w3.org/1999/xlink" width="48.000000" height="48.000000" fill="none">
  <path id="形状结合" d="M24 4.03906C31.3094 4.03906 37.9238 8.00246 41.4312 14.2668C42.7277 16.585 43.548 19.1372 43.84 21.8001L43.8693 22.1092C43.9289 22.4253 43.96 22.7515 43.96 23.0851L43.96 25.1671C43.96 30.1161 39.9498 34.1271 35 34.1271C34.1716 34.1271 33.5 33.4555 33.5 32.6271L33.5 22.1531C33.5 19.7786 35.4237 17.8531 37.798 17.8531L38.73 17.8531C39.1173 17.8531 39.4948 17.8951 39.858 17.9749C39.5676 17.205 39.2177 16.4551 38.8132 15.7319C35.8314 10.4061 30.2122 7.03906 24 7.03906C16.7505 7.03906 10.5637 11.5877 8.13693 17.9869C8.5013 17.9054 8.88068 17.8629 9.27004 17.8629L10.202 17.8629C12.5764 17.8629 14.5 19.7884 14.5 22.1629L14.5 32.6369C14.5 33.4653 13.8285 34.1369 13 34.1369C11.9629 34.1369 10.9671 33.9608 10.0407 33.6369C12.2944 36.8965 15.6628 39.3291 19.5953 40.3836C19.5325 40.0849 19.5 39.7768 19.5 39.4611C19.5 36.9766 21.5156 34.9611 24 34.9611C26.4845 34.9611 28.5 36.9766 28.5 39.4611C28.5 41.947 26.485 43.9611 24 43.9611C14.173 43.9611 6.00574 36.8611 4.34751 27.5106C4.14674 26.7665 4.04004 25.9841 4.04004 25.1769L4.04004 23.0949C4.04004 22.7699 4.06965 22.4518 4.12632 22.1432C5.06203 11.9897 13.6022 4.03906 24 4.03906Z" fill="var(--tiny-first-color, #191919)" fill-rule="evenodd"/>
</svg>
