<svg viewBox="0 0 48 48" xmlns="http://www.w3.org/2000/svg" xmlns:xlink="http://www.w3.org/1999/xlink" width="48.000000" height="48.000000" fill="none">
  <path id="椭圆 391(边框)" d="M4 24C4 12.9543 12.9543 4 24 4C35.0457 4 44 12.9543 44 24C44 30.9051 40.3895 30.5536 36.7985 30.204C34.6452 29.9944 32.4989 29.7854 31.1421 31.1421C29.7854 32.4989 29.9944 34.6452 30.204 36.7985C30.5536 40.3895 30.9051 44 24 44C12.9543 44 4 35.0457 4 24ZM24 7C23.12 7 22.2503 7.06617 21.3907 7.1985C21.1163 7.24073 20.843 7.28971 20.5707 7.34543C20.0181 7.45851 19.4738 7.59849 18.938 7.76537C18.4118 7.92922 17.8938 8.119 17.3838 8.33471C16.9665 8.51118 16.5577 8.70372 16.1573 8.91234L16.157 8.9125C15.5867 9.20958 15.0335 9.53927 14.4972 9.90156C14.0868 10.1788 13.69 10.4727 13.3066 10.7833L13.3064 10.7835L13.3062 10.7836C12.8443 11.1579 12.4019 11.5565 11.9792 11.9792C11.5562 12.4022 11.1575 12.8448 10.783 13.307C10.4725 13.6903 10.1787 14.087 9.90156 14.4972C9.53922 15.0336 9.20949 15.5869 8.91238 16.1572C8.70374 16.5577 8.51119 16.9665 8.33471 17.3838C8.11906 17.8936 7.92932 18.4115 7.7655 18.9375L7.76544 18.9378C7.59853 19.4737 7.45852 20.018 7.34543 20.5707C7.28968 20.8431 7.24069 21.1166 7.19844 21.3911C7.06615 22.2505 7 23.1202 7 24C7 24.8798 7.06614 25.7494 7.19843 26.6089L7.19847 26.6091C7.24071 26.8836 7.2897 27.1569 7.34543 27.4293C7.45851 27.9819 7.59848 28.5261 7.76536 29.062C7.92921 29.5882 8.119 30.1062 8.33471 30.6162C8.51112 31.0333 8.7036 31.442 8.91214 31.8424C9.20932 32.4128 9.53912 32.9663 9.90156 33.5028C10.1789 33.9133 10.4729 34.3103 10.7836 34.6938L10.7838 34.694C11.1581 35.1559 11.5565 35.5981 11.9792 36.0208C12.4017 36.4433 12.8438 36.8417 13.3055 37.2158C13.6892 37.5267 14.0865 37.8209 14.4972 38.0984C15.0343 38.4613 15.5884 38.7914 16.1596 39.0889L16.16 39.0891C16.5596 39.2972 16.9675 39.4892 17.3838 39.6653C17.8933 39.8808 18.4108 40.0704 18.9365 40.2342C19.4728 40.4012 20.0176 40.5414 20.5707 40.6546C20.8431 40.7103 21.1165 40.7593 21.391 40.8015C22.2505 40.9338 23.1201 41 24 41C24.6824 41 25.2765 40.9589 25.7822 40.8767C26.1788 40.8122 26.5056 40.7256 26.7627 40.6169C26.9137 40.553 27.0267 40.4879 27.1016 40.4215C27.1225 40.4031 27.141 40.3828 27.157 40.3609C27.167 40.3472 27.1761 40.3328 27.1843 40.3178C27.2836 40.1342 27.3404 39.8106 27.3546 39.3471C27.363 39.0696 27.3541 38.7336 27.3277 38.3391C27.31 38.0744 27.2735 37.6578 27.2181 37.0892C27.144 36.3279 27.0965 35.7502 27.0756 35.356C27.0369 34.6263 27.0446 33.9718 27.0987 33.3925C27.2319 31.9674 27.6607 30.7578 28.385 29.7635C28.5764 29.5009 28.7883 29.2534 29.0208 29.0208C29.2534 28.7883 29.5009 28.5763 29.7635 28.385C30.7578 27.6606 31.9675 27.2319 33.3925 27.0987C33.9718 27.0446 34.6263 27.0369 35.356 27.0756C35.7502 27.0965 36.3279 27.144 37.0892 27.2181C37.6578 27.2735 38.0744 27.31 38.3391 27.3277C38.7336 27.3541 39.0696 27.363 39.3471 27.3546C39.8106 27.3404 40.1342 27.2836 40.3178 27.1843C40.3329 27.1761 40.3472 27.167 40.3609 27.157C40.3829 27.1409 40.4031 27.1225 40.4215 27.1016C40.4879 27.0267 40.553 26.9137 40.6169 26.7627C40.7256 26.5056 40.8122 26.1788 40.8767 25.7822C40.9589 25.2765 41 24.6824 41 24C41 23.1195 40.9338 22.2493 40.8013 21.3892C40.7591 21.1153 40.7102 20.8425 40.6546 20.5707C40.5417 20.0189 40.4019 19.4755 40.2354 18.9404C40.0714 18.4134 39.8813 17.8945 39.6653 17.3838C39.489 16.967 39.2967 16.5585 39.0883 16.1585C38.791 15.5877 38.4611 15.034 38.0984 14.4972C37.821 14.0866 37.5269 13.6895 37.2161 13.3059C36.8419 12.844 36.4434 12.4018 36.0208 11.9792C35.598 11.5564 35.1556 11.1578 34.6935 10.7834L34.6933 10.7833C34.31 10.4727 33.9131 10.1788 33.5028 9.90156C32.9663 9.53916 32.4129 9.20938 31.8425 8.91223L31.8422 8.91206C31.4419 8.70354 31.0333 8.5111 30.6162 8.33471C30.1064 8.11905 29.5884 7.92931 29.0624 7.76548C28.5264 7.59855 27.982 7.45853 27.4293 7.34543C27.1569 7.28969 26.8835 7.24071 26.6091 7.19847C25.7496 7.06616 24.8799 7 24 7Z" fill="var(--tiny-first-color, #191919)" fill-rule="evenodd"/>
  <path id="矢量 1922" d="M20.5 13C21.8807 13 23 14.1191 23 15.5C23 16.8809 21.8807 18 20.5 18C19.1193 18 18 16.8809 18 15.5C18 14.1191 19.1193 13 20.5 13ZM30.5 13C31.8807 13 33 14.1191 33 15.5C33 16.8809 31.8807 18 30.5 18C29.1193 18 28 16.8809 28 15.5C28 14.1191 29.1193 13 30.5 13ZM15.5 21C14.1193 21 13 22.1191 13 23.5C13 24.8809 14.1193 26 15.5 26C16.8807 26 18 24.8809 18 23.5C18 22.1191 16.8807 21 15.5 21ZM17.5 30C16.1193 30 15 31.1191 15 32.5C15 33.8809 16.1193 35 17.5 35C18.8807 35 20 33.8809 20 32.5C20 31.1191 18.8807 30 17.5 30Z" fill="var(--tiny-second-color, #aeaeAE)" fill-rule="evenodd"/>
</svg>
