<svg viewBox="0 0 48 48" xmlns="http://www.w3.org/2000/svg" xmlns:xlink="http://www.w3.org/1999/xlink" width="48.000000" height="48.000000">
  <path id="矢量 29" d="M32 4L12 4C8.68628 4 6 6.68628 6 10L6 38C6 41.3137 8.68628 44 12 44L23.7849 44C19.7192 41.5503 17 37.0928 17 32C17 24.2681 23.2681 18 31 18C33.55 18 35.9407 18.6816 38 19.873L38 10C38 6.68628 35.3137 4 32 4ZM12 10.5L27 10.5C27.8401 10.5 28.5 11.1599 28.5 12C28.5 12.8401 27.8401 13.5 27 13.5L12 13.5C11.1599 13.5 10.5 12.8401 10.5 12C10.5 11.1599 11.1599 10.5 12 10.5ZM12 17.5L16 17.5C16.8401 17.5 17.5 18.1599 17.5 19C17.5 19.8401 16.8401 20.5 16 20.5L12 20.5C11.1599 20.5 10.5 19.8401 10.5 19C10.5 18.1599 11.1599 17.5 12 17.5ZM20 32C20 25.9248 24.9248 21 31 21C37.0752 21 42 25.9248 42 32C42 38.0752 37.0752 43 31 43C24.9248 43 20 38.0752 20 32ZM26.9329 27C26.9329 24.7908 28.7236 23 30.9329 23C33.1421 23 34.9329 24.7908 34.9329 27C34.9329 28.6584 33.9236 30.0811 32.4858 30.6873L32.4858 32L33.9998 32C34.8398 32 35.4998 32.6599 35.4998 33.5C35.4998 34.3401 34.8398 35 33.9998 35L32.4858 35L32.4858 37.333C32.5947 37.3078 32.7027 37.2796 32.8098 37.2485C33.3367 37.0962 33.8435 36.8744 34.3303 36.5833C34.8296 36.2847 35.2749 35.9338 35.6665 35.5305C36.0547 35.1309 36.3899 34.6797 36.6721 34.1772C37.0835 33.4448 37.9822 33.1926 38.7144 33.604C39.4468 34.0154 39.699 34.9141 39.2876 35.6465C39.0981 35.9836 38.8899 36.3071 38.6626 36.6169C38.4023 36.9714 38.1174 37.3079 37.8074 37.6262C37.501 37.9409 37.1763 38.2319 36.8328 38.4993C36.5266 38.7378 36.2056 38.9573 35.8699 39.158C35.4846 39.3884 35.0869 39.5898 34.677 39.762C34.3164 39.9133 33.9465 40.0422 33.5669 40.1487C33.2397 40.2402 32.9094 40.314 32.5762 40.3696C32.0608 40.4561 31.5383 40.4993 31.0088 40.4998C30.4907 40.4976 29.928 40.4541 29.4238 40.3696C29.0906 40.314 28.7603 40.2402 28.4331 40.1487C28.056 40.043 27.6882 39.9151 27.3298 39.7649C26.92 39.5927 26.5153 39.3884 26.1299 39.158C25.7944 38.9573 25.4734 38.7378 25.1672 38.4995C24.8238 38.2321 24.4989 37.941 24.1924 37.6262C23.8827 37.308 23.5977 36.9717 23.3374 36.6172C23.1101 36.3074 22.9016 35.9836 22.7122 35.6465C22.3008 34.9141 22.5532 34.0154 23.2854 33.604C24.0178 33.1926 24.9165 33.4448 25.3279 34.1772C25.6101 34.6797 25.9453 35.1309 26.3335 35.5305C26.7249 35.9338 27.1704 36.2847 27.6697 36.5833C28.1565 36.8745 28.6633 37.0962 29.1902 37.2485C29.2856 37.2759 29.3893 37.3035 29.4858 37.3264L29.4858 35L27.9998 35C27.1597 35 26.4998 34.3401 26.4998 33.5C26.4998 32.6599 27.1597 32 27.9998 32L29.4858 32L29.4858 30.7302C27.9919 30.1504 26.9329 28.6987 26.9329 27ZM29.9329 27C29.9329 26.4478 30.3806 26 30.9329 26C31.4851 26 31.9329 26.4478 31.9329 27C31.9329 27.5522 31.4851 28 30.9329 28C30.3806 28 29.9329 27.5522 29.9329 27Z" fill="var(--tiny-first-color)" fill-rule="evenodd"/>
  <path id="矢量 29" d="M20 32C20 25.9248 24.9248 21 31 21C37.0752 21 42 25.9248 42 32C42 38.0752 37.0752 43 31 43C24.9248 43 20 38.0752 20 32ZM26.9329 27C26.9329 24.7908 28.7236 23 30.9329 23C33.1421 23 34.9329 24.7908 34.9329 27C34.9329 28.6584 33.9236 30.0811 32.4858 30.6873L32.4858 32L33.9998 32C34.8398 32 35.4998 32.6599 35.4998 33.5C35.4998 34.3401 34.8398 35 33.9998 35L32.4858 35L32.4858 37.333C32.5947 37.3078 32.7027 37.2796 32.8098 37.2485C33.3367 37.0962 33.8435 36.8744 34.3303 36.5833C34.8296 36.2847 35.2749 35.9338 35.6665 35.5305C36.0547 35.1309 36.3899 34.6797 36.6721 34.1772C37.0835 33.4448 37.9822 33.1926 38.7144 33.604C39.4468 34.0154 39.699 34.9141 39.2876 35.6465C39.0981 35.9836 38.8899 36.3071 38.6626 36.6169C38.4023 36.9714 38.1174 37.3079 37.8074 37.6262C37.501 37.9409 37.1763 38.2319 36.8328 38.4993C36.5266 38.7378 36.2056 38.9573 35.8699 39.158C35.4846 39.3884 35.0869 39.5898 34.677 39.762C34.3164 39.9133 33.9465 40.0422 33.5669 40.1487C33.2397 40.2402 32.9094 40.314 32.5762 40.3696C32.0608 40.4561 31.5383 40.4993 31.0088 40.4998C30.4907 40.4976 29.928 40.4541 29.4238 40.3696C29.0906 40.314 28.7603 40.2402 28.4331 40.1487C28.056 40.043 27.6882 39.9151 27.3298 39.7649C26.92 39.5927 26.5153 39.3884 26.1299 39.158C25.7944 38.9573 25.4734 38.7378 25.1672 38.4995C24.8238 38.2321 24.4989 37.941 24.1924 37.6262C23.8827 37.308 23.5977 36.9717 23.3374 36.6172C23.1101 36.3074 22.9016 35.9836 22.7122 35.6465C22.3008 34.9141 22.5532 34.0154 23.2854 33.604C24.0178 33.1926 24.9165 33.4448 25.3279 34.1772C25.6101 34.6797 25.9453 35.1309 26.3335 35.5305C26.7249 35.9338 27.1704 36.2847 27.6697 36.5833C28.1565 36.8745 28.6633 37.0962 29.1902 37.2485C29.2856 37.2759 29.3893 37.3035 29.4858 37.3264L29.4858 35L27.9998 35C27.1597 35 26.4998 34.3401 26.4998 33.5C26.4998 32.6599 27.1597 32 27.9998 32L29.4858 32L29.4858 30.7302C27.9919 30.1504 26.9329 28.6987 26.9329 27ZM29.9329 27C29.9329 26.4478 30.3806 26 30.9329 26C31.4851 26 31.9329 26.4478 31.9329 27C31.9329 27.5522 31.4851 28 30.9329 28C30.3806 28 29.9329 27.5522 29.9329 27Z" fill="var(--tiny-second-color)" fill-rule="evenodd"/>
</svg>