<svg viewBox="0 0 48 48" xmlns="http://www.w3.org/2000/svg" xmlns:xlink="http://www.w3.org/1999/xlink" width="48.000000" height="48.000000" fill="none">
  <path id="矢量 1889" d="M29 4L19 4C16.2386 4 14 6.23853 14 9L14 10L12 10L11.6475 10.0093C8.49783 10.1775 6 12.5833 6 15.5264L6 17L42 17L42 15.5264L41.9898 15.2017C41.8073 12.3005 39.1954 10 36 10L34 10L34 9C34 6.23853 31.7614 4 29 4ZM25.5 7.5C25.5 6.67163 24.8284 6 24 6C23.1716 6 22.5 6.67163 22.5 7.5C22.5 8.32837 23.1716 9 24 9C24.8284 9 25.5 8.32837 25.5 7.5ZM42 20L6 20L6 38.4736L6.01019 38.7983C6.19269 41.6995 8.80463 44 12 44L36 44L36.3525 43.9907C39.5022 43.8225 42 41.4167 42 38.4736L42 20Z" fill="var(--tiny-first-color)" fill-rule="evenodd"/>
  <path id="矢量 1890" d="M31.3493 34.4998L28.5962 37.253C28.0022 37.847 28.0022 38.7803 28.5962 39.3743C29.1902 39.9681 30.1235 39.9681 30.7175 39.3743L36.0208 34.0708C36.1191 33.9727 36.2054 33.8667 36.28 33.753C36.3506 33.6451 36.4107 33.5303 36.46 33.4085C36.5081 33.2898 36.5444 33.169 36.5688 33.0457C36.594 32.9185 36.6066 32.7888 36.6066 32.6568C36.6066 32.5244 36.594 32.3948 36.5688 32.2676C36.5444 32.1443 36.5081 32.0235 36.46 31.9048C36.4107 31.783 36.3507 31.6682 36.28 31.5606C36.2055 31.4468 36.1191 31.3406 36.0208 31.2425L30.7175 25.9392C30.1235 25.3452 29.1902 25.3452 28.5962 25.9392C28.0022 26.5332 28.0022 27.4666 28.5962 28.0606L32.0359 31.5003C32.024 31.5 32.012 31.4998 32 31.4998L30.5 31.4998L30.5 34.4998L31.3493 34.4998ZM15.5 31.4998L14 31.4998C13.16 31.4998 12.5 32.1597 12.5 32.9998C12.5 33.8399 13.16 34.4998 14 34.4998L15.5 34.4998L15.5 31.4998ZM18.5 31.4998L21.5 31.4998L21.5 34.4998L18.5 34.4998L18.5 31.4998ZM24.5 31.4998L27.5 31.4998L27.5 34.4998L24.5 34.4998L24.5 31.4998Z" fill="var(--tiny-second-color)" fill-rule="evenodd"/>
</svg>