<svg viewBox="0 0 48 48" xmlns="http://www.w3.org/2000/svg" xmlns:xlink="http://www.w3.org/1999/xlink" width="48.000000" height="48.000000" fill="none">
  <path id="减去顶层" d="M32 6L16 6C13.7909 6 12 7.79077 12 10L12 12L8 12C5.79086 12 4 13.7908 4 16L4 22L14 22L14 21.5C14 20.3799 14.88 19.5 16 19.5C17.12 19.5 18 20.3799 18 21.5L18 22L30 22L30 21.5C30 20.3799 30.88 19.5 32 19.5C33.12 19.5 34 20.3799 34 21.5L34 22L44 22L44 16C44 13.7908 42.2091 12 40 12L36 12L36 10C36 7.79077 34.2091 6 32 6ZM44 26L34 26L34 27.5C34 28.6201 33.12 29.5 32 29.5C30.88 29.5 30 28.6201 30 27.5L30 26L18 26L18 27.5C18 28.6201 17.12 29.5 16 29.5C14.88 29.5 14 28.6201 14 27.5L14 26L4 26L4 39C4 41.2092 5.79086 43 8 43L40 43C42.2091 43 44 41.2092 44 39L44 26Z" fill="var(--tiny-first-color, #191919)" fill-rule="evenodd"/>
  <path id="矢量 1906" d="M18 21.5L18 22L30 22L30 21.5C30 20.3799 30.88 19.5 32 19.5C33.12 19.5 34 20.3799 34 21.5L34 22L44 22L44 26L34 26L34 27.5C34 28.6201 33.12 29.5 32 29.5C30.88 29.5 30 28.6201 30 27.5L30 26L18 26L18 27.5C18 28.6201 17.12 29.5 16 29.5C14.88 29.5 14 28.6201 14 27.5L14 26L4 26L4 22L14 22L14 21.5C14 20.3799 14.88 19.5 16 19.5C17.12 19.5 18 20.3799 18 21.5Z" fill="var(--tiny-second-color, #aeaeAE)" fill-rule="evenodd"/>
</svg>
