<svg viewBox="0 0 48 48" xmlns="http://www.w3.org/2000/svg" xmlns:xlink="http://www.w3.org/1999/xlink" width="48.000000" height="48.000000" fill="none">
  <path id="合并" d="M12.5 12.5L12.5 11C12.5 10.5983 12.5419 10.2057 12.6258 9.82229C12.6975 9.49439 12.7998 9.17319 12.9328 8.85869C13.0658 8.54437 13.2248 8.24729 13.4099 7.96745C13.6124 7.6613 13.846 7.37579 14.1109 7.11091C14.3758 6.84604 14.6613 6.61236 14.9674 6.40989C15.2473 6.2248 15.5444 6.06578 15.8587 5.93283C16.1732 5.79981 16.4944 5.69745 16.8223 5.62575C17.2057 5.54192 17.5983 5.5 18 5.5L30 5.5C30.4017 5.5 30.7943 5.54192 31.1777 5.62576C31.5056 5.69746 31.8268 5.79982 32.1413 5.93283C32.4556 6.06578 32.7527 6.2248 33.0326 6.40988C33.3387 6.61236 33.6242 6.84604 33.8891 7.11091C34.154 7.37583 34.3877 7.66138 34.5902 7.96757C34.7753 8.24738 34.9342 8.54442 35.0672 8.85869C35.2002 9.17318 35.3025 9.49438 35.3742 9.82228C35.4581 10.2057 35.5 10.5983 35.5 11L35.5 12.5L38 12.5C38.4016 12.5 38.7941 12.5419 39.1773 12.6257L39.1777 12.6257C39.5056 12.6974 39.8268 12.7998 40.1413 12.9328C40.4556 13.0658 40.7527 13.2248 41.0325 13.4099C41.3387 13.6124 41.6242 13.846 41.8891 14.1109C42.154 14.3758 42.3877 14.6613 42.5902 14.9675C42.7752 15.2473 42.9342 15.5444 43.0672 15.8587C43.2002 16.1731 43.3025 16.4943 43.3742 16.8222L43.3742 16.8222C43.4581 17.2057 43.5 17.5982 43.5 18L43.5 37C43.5 37.4018 43.4581 37.7944 43.3742 38.1778C43.3025 38.5057 43.2002 38.8269 43.0672 39.1413C42.9342 39.4556 42.7752 39.7527 42.5901 40.0325C42.3877 40.3387 42.154 40.6242 41.8891 40.8891C41.6242 41.154 41.3386 41.3877 41.0324 41.5902C40.7526 41.7753 40.4556 41.9342 40.1413 42.0672C39.8268 42.2002 39.5056 42.3026 39.1777 42.3743C38.7943 42.4581 38.4017 42.5 38 42.5L10 42.5C9.5983 42.5 9.20576 42.4581 8.82239 42.3743C8.49445 42.3026 8.17322 42.2002 7.85869 42.0672C7.54438 41.9342 7.24732 41.7752 6.96749 41.5901C6.66133 41.3877 6.3758 41.154 6.11091 40.8891C5.84605 40.6242 5.61238 40.3387 5.40991 40.0326C5.22481 39.7527 5.06579 39.4557 4.93283 39.1413C4.79982 38.8268 4.69746 38.5056 4.62576 38.1777C4.54192 37.7943 4.5 37.4017 4.5 37L4.5 18C4.5 17.5983 4.54192 17.2057 4.62575 16.8223C4.69745 16.4944 4.79981 16.1732 4.93283 15.8587C5.06578 15.5444 5.22479 15.2473 5.40988 14.9674C5.61236 14.6613 5.84604 14.3758 6.11091 14.1109C6.37579 13.846 6.66129 13.6124 6.96743 13.4099L6.96744 13.4099C7.24728 13.2248 7.54437 13.0658 7.85869 12.9328C8.17319 12.7998 8.49439 12.6975 8.8223 12.6258L8.82234 12.6257C9.20573 12.5419 9.59828 12.5 10 12.5L12.5 12.5ZM15.5 12.5L32.5 12.5L32.5 11C32.5 10.8009 32.4776 10.6072 32.4328 10.4188C32.4011 10.2856 32.3582 10.1552 32.3042 10.0273C32.2472 9.89267 32.1796 9.76487 32.1014 9.64395C32.006 9.49648 31.8948 9.35925 31.7678 9.23223C31.6408 9.10525 31.5036 8.99407 31.3562 8.8987C31.2352 8.82044 31.1074 8.75283 30.9727 8.69585C30.8448 8.64177 30.7143 8.59889 30.5811 8.56721C30.3927 8.5224 30.199 8.5 30 8.5L18 8.5C17.801 8.5 17.6073 8.5224 17.4189 8.56721C17.2857 8.59889 17.1552 8.64177 17.0273 8.69585C16.8926 8.75283 16.7648 8.82045 16.6438 8.89871C16.4964 8.99409 16.3592 9.10526 16.2322 9.23223C16.1053 9.35921 15.9941 9.49641 15.8987 9.64383C15.8204 9.76479 15.7528 9.89263 15.6958 10.0273C15.6418 10.1552 15.5989 10.2857 15.5672 10.4189C15.5224 10.6073 15.5 10.801 15.5 11L15.5 12.5ZM38 15.5L10 15.5C9.80097 15.5 9.60728 15.5224 9.41891 15.5672C9.28572 15.5989 9.1552 15.6418 9.02735 15.6958C8.89262 15.7528 8.76478 15.8205 8.64382 15.8987C8.4964 15.9941 8.35921 16.1053 8.23223 16.2322C8.10526 16.3592 7.99408 16.4964 7.8987 16.6438C7.82045 16.7648 7.75283 16.8926 7.69585 17.0273C7.64177 17.1552 7.59889 17.2857 7.56721 17.4189C7.5224 17.6073 7.5 17.801 7.5 18L7.5 37C7.5 37.199 7.5224 37.3927 7.56721 37.5811C7.59889 37.7143 7.64177 37.8448 7.69585 37.9727C7.75283 38.1074 7.82046 38.2352 7.89872 38.3562C7.9941 38.5036 8.10527 38.6408 8.23223 38.7678C8.35921 38.8947 8.49642 39.0059 8.64384 39.1013C8.7648 39.1796 8.89263 39.2472 9.02735 39.3042C9.1552 39.3582 9.28572 39.4011 9.4189 39.4328C9.60727 39.4776 9.80097 39.5 10 39.5L38 39.5C38.199 39.5 38.3928 39.4776 38.5812 39.4328C38.7143 39.4011 38.8448 39.3582 38.9727 39.3042C39.1073 39.2472 39.2351 39.1796 39.356 39.1014C39.5035 39.006 39.6407 38.8948 39.7678 38.7678C39.8948 38.6408 40.006 38.5035 40.1014 38.3561C40.1796 38.2351 40.2472 38.1073 40.3042 37.9727C40.3582 37.8448 40.4011 37.7143 40.4328 37.5811C40.4776 37.3927 40.5 37.199 40.5 37L40.5 18C40.5 17.801 40.4776 17.6073 40.4328 17.4189C40.4011 17.2857 40.3582 17.1552 40.3042 17.0273C40.2472 16.8927 40.1796 16.7649 40.1014 16.6439C40.006 16.4965 39.8948 16.3592 39.7678 16.2322C39.6407 16.1052 39.5035 15.994 39.356 15.8986C39.2351 15.8204 39.1073 15.7528 38.9727 15.6958C38.8448 15.6418 38.7144 15.5989 38.5812 15.5672L38.5811 15.5672C38.3928 15.5224 38.199 15.5 38 15.5Z" fill="var(--tiny-first-color, #191919)" fill-rule="evenodd"/>
  <path id="合并" d="M17.5 21.5L17.5 23L30.5 23L30.5 21.5C30.5 20.66 31.16 20 32 20C32.84 20 33.5 20.66 33.5 21.5L33.5 23L40.5 23L40.5 26L33.5 26L33.5 27.5C33.5 28.34 32.84 29 32 29C31.16 29 30.5 28.34 30.5 27.5L30.5 26L17.5 26L17.5 27.5C17.5 28.34 16.84 29 16 29C15.16 29 14.5 28.34 14.5 27.5L14.5 26L7.5 26L7.5 23L14.5 23L14.5 21.5C14.5 20.66 15.16 20 16 20C16.84 20 17.5 20.66 17.5 21.5Z" fill="var(--tiny-second-color, #aeaeAE)" fill-rule="evenodd"/>
</svg>
