<svg viewBox="0 0 48 48" xmlns="http://www.w3.org/2000/svg" xmlns:xlink="http://www.w3.org/1999/xlink" width="48.000000" height="48.000000" fill="none">
  <path id="形状结合" d="M11.5 4C12.3284 4 13 4.67157 13 5.5L13 42.5C13 43.3284 12.3284 44 11.5 44C10.6716 44 10 43.3284 10 42.5L10 5.5C10 4.67157 10.6716 4 11.5 4ZM37.5405 4.42849C38.0785 4.95552 38.1355 5.7883 37.7058 6.37997L22.0274 22.4074C21.1323 23.3211 21.0795 24.7485 21.8642 25.7228L22.0451 25.9243L37.5532 41.4396C38.1388 42.0255 38.1386 42.9753 37.5527 43.5609C37.02 44.0933 36.1867 44.1415 35.5995 43.7057L19.9233 28.0451C17.8807 26.0015 17.7796 22.7471 19.6318 20.5838L19.8844 20.308L35.4193 4.4503C35.999 3.85852 36.9487 3.84876 37.5405 4.42849Z" fill="var(--tiny-first-color, #191919)" fill-rule="evenodd"/>
  <path id="形状结合" d="M11.5 4C12.3284 4 13 4.67157 13 5.5L13 42.5C13 43.3284 12.3284 44 11.5 44C10.6716 44 10 43.3284 10 42.5L10 5.5C10 4.67157 10.6716 4 11.5 4Z" fill="var(--tiny-second-color, #aeaeAE)" fill-rule="evenodd"/>
</svg>
