<svg viewBox="0 0 48 48" xmlns="http://www.w3.org/2000/svg" xmlns:xlink="http://www.w3.org/1999/xlink" width="48.000000" height="48.000000" fill="none">
  <path id="路径" d="M38.0972 5.99561C40.2511 5.99561 41.9972 7.74169 41.9972 9.89561C41.9972 10.8515 41.6463 11.7697 41.0183 12.4796L40.77 12.7357L30.7111 22.2021C30.1078 22.7699 29.1585 22.7411 28.5908 22.1378C28.0746 21.5893 28.0515 20.7549 28.5049 20.1812L38.714 10.551C38.8947 10.3809 38.9972 10.1438 38.9972 9.89561C38.9972 9.45378 38.6788 9.08631 38.259 9.01011L9.90197 8.99561C9.65343 8.99561 9.41596 9.09838 9.24584 9.27957C8.94814 9.59665 8.92467 10.0724 9.16622 10.4143L20.1587 20.76C20.4103 20.9963 20.5712 21.3105 20.6179 21.6484L20.6319 21.8536L20.6319 38.5041C20.6319 38.5991 20.659 38.6922 20.7101 38.7725C20.8336 38.9666 21.0688 39.0467 21.2786 38.9822L27.0953 35.3031C27.2035 35.2343 27.2797 35.1276 27.311 35.0064L27.3269 25.9424C27.3269 25.114 27.9985 24.4424 28.8269 24.4424C29.5863 24.4424 30.2139 25.0067 30.3133 25.7389L30.3269 25.9424L30.3269 34.8813C30.3269 35.9693 29.8215 36.9888 28.9709 37.6478L28.7055 37.8344L23.0105 41.4572C21.3796 42.4947 19.2164 42.0136 18.1788 40.3827C17.8812 39.9148 17.6998 39.3843 17.6477 38.8353L17.6319 38.5041L17.6304 22.5007L7.23249 12.7388C5.74487 11.3421 5.59676 9.05345 6.83885 7.48126L7.05874 7.22613C7.71401 6.52821 8.5999 6.09877 9.54508 6.01196L9.90197 5.99561L38.0972 5.99561Z" fill="var(--tiny-first-color)" fill-rule="evenodd"/>
  <path id="合并" d="M41.3436 26.2991C40.9294 25.5816 40.012 25.3358 39.2946 25.75L33.4338 29.1338C32.7164 29.548 32.4706 30.4654 32.8848 31.1828C33.299 31.9002 34.2164 32.146 34.9338 31.7318L40.7946 28.3481C41.512 27.9339 41.7578 27.0165 41.3436 26.2991ZM41.9979 35.374C41.9979 34.5456 41.3263 33.874 40.4979 33.874L33.7305 33.874C32.902 33.874 32.2305 34.5456 32.2305 35.374C32.2305 36.2024 32.902 36.874 33.7305 36.874L40.4979 36.874C41.3263 36.874 41.9979 36.2024 41.9979 35.374Z" fill="var(--tiny-second-color)" fill-rule="evenodd"/>
</svg>