<svg viewBox="0 0 48 48" xmlns="http://www.w3.org/2000/svg" xmlns:xlink="http://www.w3.org/1999/xlink" width="48.000000" height="48.000000">
  <path id="合并" d="M41.9972 9.89512C41.9972 7.74121 40.2511 5.99512 38.0972 5.99512L9.90196 5.99512L9.54508 6.01147C8.5999 6.09828 7.71401 6.52772 7.05874 7.22564L6.83885 7.48077L6.6447 7.74916C5.61735 9.3045 5.82752 11.4192 7.23249 12.7383L17.6304 22.4987L17.6319 38.5036L17.6476 38.8348C17.6998 39.3838 17.8812 39.9143 18.1788 40.3822C19.2163 42.0131 21.3796 42.4942 23.0105 41.4567L28.7055 37.8339L28.9709 37.6473L29.2156 37.4391C29.9175 36.7837 30.3269 35.86 30.3269 34.8808L30.3264 22.5627L40.77 12.7352L41.0183 12.4791C41.6463 11.7692 41.9972 10.851 41.9972 9.89512ZM39.2947 25.7501C40.0121 25.3359 40.9295 25.5817 41.3437 26.2992C41.758 27.0166 41.5121 27.934 40.7947 28.3482L34.9339 31.7319C34.2165 32.1461 33.2991 31.9003 32.8849 31.1829C32.4707 30.4654 32.7165 29.548 33.4339 29.1338L39.2947 25.7501ZM40.498 33.8741C41.3265 33.8741 41.998 34.5456 41.998 35.3741C41.998 36.2025 41.3265 36.8741 40.498 36.8741L33.7306 36.8741C32.9022 36.8741 32.2306 36.2025 32.2306 35.3741C32.2306 34.5456 32.9022 33.8741 33.7306 33.8741L40.498 33.8741Z" fill="var(--tiny-first-color)" fill-rule="evenodd"/>
  <path id="合并" d="M41.3436 26.2991C40.9294 25.5816 40.012 25.3358 39.2946 25.75L33.4338 29.1338C32.7164 29.548 32.4706 30.4654 32.8848 31.1828C33.299 31.9002 34.2164 32.146 34.9338 31.7318L40.7946 28.3481C41.512 27.9339 41.7578 27.0165 41.3436 26.2991ZM41.9979 35.374C41.9979 34.5456 41.3263 33.874 40.4979 33.874L33.7305 33.874C32.902 33.874 32.2305 34.5456 32.2305 35.374C32.2305 36.2024 32.902 36.874 33.7305 36.874L40.4979 36.874C41.3263 36.874 41.9979 36.2024 41.9979 35.374Z" fill="var(--tiny-second-color)" fill-rule="evenodd"/>
</svg>