<svg viewBox="0 0 48 48" xmlns="http://www.w3.org/2000/svg" xmlns:xlink="http://www.w3.org/1999/xlink" width="48.000000" height="48.000000" fill="none">
  <path id="形状结合" d="M34 4C37.1955 4 39.8073 6.49849 39.9898 9.64752L40 10L40 21C40 21.8284 39.3284 22.5 38.5 22.5C37.7406 22.5 37.113 21.9357 37.0137 21.2035L37 21L37 10C37 8.44107 35.8102 7.15916 34.2889 7.01374L34 7L14 7C12.4407 7 11.1591 8.19021 11.0137 9.71116L11 10L11 38.002C11 39.5604 12.1893 40.841 13.711 40.9863L14 41L23 41C23.8284 41 24.5 41.6716 24.5 42.5C24.5 43.2594 23.9357 43.887 23.2035 43.9863L23 44L14 44C10.8043 44 8.19266 41.5032 8.01018 38.3545L8 38.002L8 10C8 6.80531 10.4977 4.19273 13.6474 4.01019L14 4L34 4ZM34 24C39.5238 24 44 28.4769 44 34C44 39.5244 39.5244 44 34 44C28.4756 44 24 39.5244 24 34C24 28.4769 28.4762 24 34 24ZM34 27C30.1332 27 27 30.1337 27 34C27 37.8676 30.1324 41 34 41C37.8676 41 41 37.8676 41 34C41 30.1337 37.8668 27 34 27ZM37.904 29.9551C38.441 30.4921 38.4857 31.3349 38.0382 31.9228L36.1968 33.7818L37.904 35.4897C38.4898 36.0755 38.4898 37.0252 37.904 37.611C37.367 38.148 36.5242 38.1927 35.9363 37.7453L34.0747 35.9038L32.3694 37.611C31.7836 38.1968 30.8339 38.1968 30.2481 37.611C29.7111 37.0741 29.6664 36.2313 30.1138 35.6433L31.9527 33.7818L30.2481 32.0764C29.6623 31.4907 29.6623 30.5409 30.2481 29.9551C30.7851 29.4181 31.6279 29.3734 32.2158 29.8209L34.0747 31.6598L35.7827 29.9551C36.3685 29.3693 37.3182 29.3693 37.904 29.9551ZM26 19.5C26.8284 19.5 27.5 20.1716 27.5 21C27.5 21.7594 26.9357 22.387 26.2035 22.4863L26 22.5L17 22.5C16.1716 22.5 15.5 21.8284 15.5 21C15.5 20.2406 16.0643 19.613 16.7965 19.5137L17 19.5L26 19.5ZM31 11.5C31.8284 11.5 32.5 12.1716 32.5 13C32.5 13.7594 31.9357 14.387 31.2035 14.4863L31 14.5L17 14.5C16.1716 14.5 15.5 13.8284 15.5 13C15.5 12.2406 16.0643 11.613 16.7965 11.5137L17 11.5L31 11.5Z" fill="var(--tiny-first-color, #191919)" fill-rule="evenodd"/>
  <path id="形状结合" d="M33.9995 24C39.5233 24 43.9995 28.4769 43.9995 34C43.9995 39.5244 39.5239 44 33.9995 44C28.4751 44 23.9995 39.5244 23.9995 34C23.9995 28.4769 28.4757 24 33.9995 24ZM33.9995 27C30.1327 27 26.9995 30.1337 26.9995 34C26.9995 37.8676 30.1319 41 33.9995 41C37.8671 41 40.9995 37.8676 40.9995 34C40.9995 30.1337 37.8663 27 33.9995 27ZM37.9035 29.9551C38.4405 30.4921 38.4852 31.3349 38.0377 31.9228L36.1963 33.7818L37.9035 35.4897C38.4893 36.0755 38.4893 37.0252 37.9035 37.611C37.3665 38.148 36.5237 38.1927 35.9358 37.7453L34.0743 35.9038L32.3689 37.611C31.7831 38.1968 30.8334 38.1968 30.2476 37.611C29.7106 37.0741 29.6659 36.2313 30.1134 35.6433L31.9523 33.7818L30.2476 32.0764C29.6618 31.4907 29.6618 30.5409 30.2476 29.9551C30.7846 29.4181 31.6274 29.3734 32.2153 29.8209L34.0743 31.6598L35.7822 29.9551C36.368 29.3693 37.3177 29.3693 37.9035 29.9551Z" fill="var(--tiny-second-color, #aeaeAE)" fill-rule="evenodd"/>
</svg>
