<svg viewBox="0 0 48 48" xmlns="http://www.w3.org/2000/svg" xmlns:xlink="http://www.w3.org/1999/xlink" width="48.000000" height="48.000000" fill="none">
  <path id="路径 (边框)" d="M14.6533 11.5L7.5 11.5C6.66 11.5 6 12.16 6 13C6 13.84 6.66 14.5 7.5 14.5L15.7502 14.5C16.0768 14.5 16.3719 14.4036 16.6356 14.2108C16.8992 14.018 17.0805 13.766 17.1796 13.4548L18.2643 10.0452C18.3138 9.88961 18.3839 9.7488 18.4746 9.62279C18.5653 9.49678 18.6765 9.38558 18.8083 9.28918C18.9401 9.19279 19.0798 9.12049 19.2274 9.0723C19.375 9.0241 19.5304 9 19.6937 9L28.3063 9C28.4696 9 28.6251 9.0241 28.7726 9.07229C28.9202 9.12049 29.0599 9.19278 29.1917 9.28917C29.3235 9.38557 29.4348 9.49677 29.5255 9.62277C29.6161 9.74878 29.6862 9.88958 29.7357 10.0452L30.8206 13.4548C30.9196 13.766 31.101 14.018 31.3646 14.2108C31.6282 14.4036 31.9234 14.5 32.25 14.5L40.5 14.5C41.34 14.5 42 13.84 42 13C42 12.16 41.34 11.5 40.5 11.5L33.3468 11.5L32.5945 9.1356C32.5177 8.89407 32.4221 8.6622 32.3077 8.43999C32.2037 8.23792 32.0842 8.04383 31.9492 7.85773C31.8143 7.67186 31.6671 7.49821 31.5076 7.33677C31.3396 7.16681 31.1579 7.0104 30.9625 6.86752C30.767 6.72461 30.5628 6.59886 30.3499 6.49029C30.1477 6.38722 29.9377 6.29962 29.7197 6.2275C29.5014 6.15527 29.2802 6.10023 29.0561 6.0624C28.8097 6.0208 28.5598 6 28.3063 6L19.6937 6C19.4403 6 19.1904 6.0208 18.9439 6.0624C18.7198 6.10023 18.4986 6.15527 18.2803 6.22751C18.0623 6.29964 17.8523 6.38725 17.6501 6.49033C17.4372 6.5989 17.233 6.72464 17.0375 6.86755C16.8421 7.01049 16.6603 7.16697 16.4923 7.33701C16.3328 7.4984 16.1856 7.67199 16.0508 7.8578C15.9158 8.04391 15.7963 8.238 15.6923 8.44008C15.578 8.6623 15.4824 8.89417 15.4055 9.1357L14.6533 11.5Z" fill="var(--tiny-first-color)" fill-rule="evenodd"/>
  <path id="路径备份 (边框)" d="M11.4912 12.8369C11.4001 12.0018 10.6724 11.4173 9.83734 11.5084C9.00229 11.5995 8.41776 12.3271 8.50886 13.1622L11.0226 36.2044C11.1125 37.0288 11.3343 37.7855 11.6879 38.4745C12.0416 39.1635 12.527 39.7849 13.1444 40.3385C13.7618 40.8922 14.4321 41.3074 15.1554 41.5843C15.8787 41.8611 16.655 41.9995 17.4842 41.9995L30.5158 41.9995C31.3451 41.9995 32.1213 41.8611 32.8446 41.5843C33.5679 41.3074 34.2383 40.8922 34.8556 40.3385C35.473 39.7849 35.9585 39.1635 36.3121 38.4745C36.6657 37.7855 36.8875 37.0288 36.9775 36.2044L39.4912 13.1622C39.5823 12.3271 38.9977 11.5995 38.1627 11.5084C37.3276 11.4173 36.6 12.0018 36.5089 12.8369L36.127 16.337L33.9952 35.8791C33.8817 36.9192 33.535 37.6993 32.9551 38.2194C32.3752 38.7395 31.5621 38.9995 30.5158 38.9995L17.4842 38.9995C16.4379 38.9995 15.6248 38.7395 15.0449 38.2194C14.465 37.6993 14.1183 36.9192 14.0049 35.8791L11.4912 12.8369Z" fill="var(--tiny-first-color)" fill-rule="evenodd"/>
  <path id="路径-2 (边框)" d="M1.5 0L15.5 0C16.34 0 17 0.66 17 1.5C17 2.34 16.34 3 15.5 3L1.5 3C0.66 3 0 2.34 0 1.5C0 0.66 0.66 0 1.5 0Z" fill="var(--tiny-second-color)" fill-rule="evenodd" transform="matrix(0,1,-1,0,21.5,17.5)"/>
  <path id="路径-2备份 (边框)" d="M1.5 0L15.5 0C16.34 0 17 0.66 17 1.5C17 2.34 16.34 3 15.5 3L1.5 3C0.66 3 0 2.34 0 1.5C0 0.66 0.66 0 1.5 0Z" fill="var(--tiny-second-color)" fill-rule="evenodd" transform="matrix(0,1,-1,0,29.5,17.5)"/>
</svg>