<svg viewBox="0 0 48 48" xmlns="http://www.w3.org/2000/svg" xmlns:xlink="http://www.w3.org/1999/xlink" width="48.000000" height="48.000000">
  <path id="矢量 239" d="M14.7459 27.2769L26.1431 39.9154C27.0526 40.9241 28.3432 41.5 29.6976 41.5C32.3528 41.5 34.499 39.3319 34.499 36.6649L34.499 11.3352C34.499 9.97449 33.9296 8.67603 32.9293 7.75928C30.9635 5.95764 27.9188 6.1073 26.1364 8.09204L14.7393 20.7832C13.0831 22.6274 13.0859 25.436 14.7459 27.2769ZM28.3685 10.0966L16.9713 22.7876C16.3406 23.49 16.3417 24.5668 16.9738 25.2678L28.371 37.9064C28.7126 38.2852 29.194 38.5 29.6976 38.5C30.6891 38.5 31.499 37.6818 31.499 36.6649L31.499 11.3352C31.499 10.8142 31.2817 10.3185 30.9024 9.97095C30.1673 9.29724 29.0363 9.35278 28.3685 10.0966Z" fill="var(--tiny-first-color)" fill-rule="evenodd"/>
</svg>