<svg viewBox="0 0 48 48" xmlns="http://www.w3.org/2000/svg" xmlns:xlink="http://www.w3.org/1999/xlink" width="48.000000" height="48.000000">
  <path id="矢量 12" d="M27.2769 34.2531L39.9154 22.856C40.9241 21.9464 41.5 20.6558 41.5 19.3014C41.5 16.6462 39.3318 14.5 36.6649 14.5L11.3352 14.5C9.97449 14.5 8.67596 15.0695 7.75922 16.0697C5.95764 18.0355 6.1073 21.0802 8.09204 22.8627L20.7831 34.2598C22.6274 35.916 25.436 35.9131 27.2769 34.2531ZM10.0965 20.6306L22.7876 32.0277C23.4899 32.6584 24.5668 32.6573 25.2678 32.0251L37.9063 20.6281C38.2852 20.2864 38.5 19.8051 38.5 19.3014C38.5 18.3099 37.6818 17.5 36.6649 17.5L11.3352 17.5C10.8142 17.5 10.3185 17.7174 9.97092 18.0967C9.29724 18.8317 9.35281 19.9628 10.0965 20.6306Z" fill="var(--tiny-first-color)" fill-rule="evenodd"/>
</svg>