<svg viewBox="0 0 48 48" xmlns="http://www.w3.org/2000/svg" xmlns:xlink="http://www.w3.org/1999/xlink" width="48.000000" height="48.000000">
  <path id="减去顶层" d="M17 4L31 4C32.1 4 33 4.88 33 6L33 8C33 9.1 32.1 10 31 10L17 10C15.88 10 15 9.1 15 8L15 6C15 4.88 15.88 4 17 4ZM11.9769 7.63846C11.955 7.41212 11.9342 7.1974 12 7C8.68 7 6 9.68 6 13L6 38C6 41.3 8.68 44 12 44L21 44L21 42.1431C21 38.874 23.3054 35.1182 26.4521 34.2695C26.0361 33.7261 25.6774 33.1365 25.3852 32.5096L22.4957 32.5096L22.2922 32.4959C21.56 32.3966 20.9957 31.769 20.9957 31.0096C20.9957 30.2502 21.56 29.6227 22.2922 29.5233L22.4957 29.5096L24.553 29.5096C24.518 29.1779 24.5 28.841 24.5 28.5C24.5 27.071 24.8155 25.7157 25.3807 24.5L22.4957 24.5L22.2922 24.4863C21.56 24.387 20.9957 23.7594 20.9957 23C20.9957 22.2406 21.56 21.613 22.2922 21.5137L22.4957 21.5L27.5774 21.5C29.2684 19.9476 31.5235 19 34 19C37.3589 19 40.3107 20.7433 42 23.3744L42 13C42 9.68 39.18 7 35.86 7C35.94 7.3 36 7.64 36 8L36 9C36 11.2 34.2 13 32 13L16 13C13.78 13 12 11.2 12 9L12 8C12 7.87688 11.9883 7.7561 11.9769 7.63846ZM18 23C18 21.8954 17.1046 21 16 21C14.8954 21 14 21.8954 14 23C14 24.1046 14.8954 25 16 25C17.1046 25 18 24.1046 18 23ZM18 31.0096C18 29.9051 17.1046 29.0096 16 29.0096C14.8954 29.0096 14 29.9051 14 31.0096C14 32.1142 14.8954 33.0096 16 33.0096C17.1046 33.0096 18 32.1142 18 31.0096Z" fill="var(--tiny-first-color, #191919)" fill-rule="evenodd"/>
  <path id="合并" d="M27.3333 28.6667C27.3333 32.3486 30.3181 35.3333 34 35.3333L30.25 35.3333C26.7982 35.3333 24 37.9983 24 41.2857L24 42.8333C24 43.2936 24.3731 43.6667 24.8333 43.6667L43.1667 43.6667C43.6269 43.6667 44 43.2936 44 42.8333L44 41.2857C44 37.9983 41.2018 35.3333 37.75 35.3333L34 35.3333C37.6819 35.3333 40.6667 32.3486 40.6667 28.6667C40.6667 24.9848 37.6819 22 34 22C30.3181 22 27.3333 24.9848 27.3333 28.6667Z" fill="var(--tiny-second-color, #aeaeAE)" fill-rule="evenodd"/>
</svg>