<svg viewBox="0 0 48 48" xmlns="http://www.w3.org/2000/svg" xmlns:xlink="http://www.w3.org/1999/xlink" width="48.000000" height="48.000000">
  <path id="路径" d="M0 14.0612C0 16.1985 1.57006 17.9369 3.49975 17.9369C5.42994 17.9369 7 16.1985 7 14.0612L7 0.977947C7 0.434339 6.60749 0 6.11684 0L1 0C0.447715 0 6.56697e-14 0.447715 6.56697e-14 1L6.56697e-14 1.99993L0 14.0612Z" fill="var(--tiny-second-color, #aeaeAE)" fill-rule="evenodd" transform="matrix(1,0,0,-1,5,23)"/>
  <path id="减去顶层" d="M8 5.00541L8.25702 5.00541C8.54047 5.02704 9.02025 5.12547 9.50001 5.50524C9.50968 5.51289 9.51934 5.52065 9.529 5.52852C10.7345 6.51083 11 8.19971 11 9.75474L11 36C11 39.3137 13.6863 42 17 42L44 42L42.7998 41.1C41.6668 40.2504 41 38.9168 41 37.5006L41 11.0054C41 7.69171 38.3137 5.00541 35 5.00541L8.25702 5.00541C8.09737 4.99323 8 5.00541 8 5.00541ZM35.5 13.5L18 13.5C17.16 13.5 16.5 14.16 16.5 15C16.5 15.84 17.16 16.5 18 16.5L35.5 16.5C36.34 16.5 37 15.84 37 15C37 14.16 36.34 13.5 35.5 13.5ZM18 20.5L35.5 20.5C36.34 20.5 37 21.16 37 22C37 22.84 36.34 23.5 35.5 23.5L18 23.5C17.16 23.5 16.5 22.84 16.5 22C16.5 21.16 17.16 20.5 18 20.5ZM26.75 27.5L18 27.5C17.16 27.5 16.5 28.16 16.5 29C16.5 29.84 17.16 30.5 18 30.5L26.75 30.5C27.59 30.5 28.25 29.84 28.25 29C28.25 28.16 27.59 27.5 26.75 27.5Z" fill="var(--tiny-first-color, #191919)" fill-rule="evenodd"/>
</svg>