<svg viewBox="0 0 48 48" xmlns="http://www.w3.org/2000/svg" xmlns:xlink="http://www.w3.org/1999/xlink" width="48.000000" height="48.000000">
  <path id="矩形 1980(边框)" d="M37.6175 3.67391C37.0911 3.55797 36.5519 3.5 36 3.5L12 3.5C11.4481 3.5 10.9089 3.55797 10.3825 3.67391C9.93937 3.77152 9.50526 3.91022 9.0802 4.09C8.65363 4.27043 8.25033 4.48608 7.87028 4.73698C7.45074 5.01395 7.05955 5.33385 6.6967 5.6967C6.33386 6.05954 6.01395 6.45073 5.73699 6.87027C5.48609 7.25032 5.27043 7.65363 5.09 8.0802C4.91021 8.50527 4.77152 8.93938 4.67391 9.38255C4.55797 9.90893 4.5 10.4481 4.5 11L4.5 37C4.5 37.5519 4.55797 38.0911 4.67391 38.6175C4.77152 39.0606 4.91022 39.4947 5.09 39.9198C5.27041 40.3463 5.48604 40.7496 5.73691 41.1296C6.01389 41.5492 6.33382 41.9404 6.6967 42.3033C7.05955 42.6662 7.45075 42.9861 7.87029 43.263C8.25033 43.5139 8.65364 43.7296 9.0802 43.91C9.50522 44.0898 9.93928 44.2285 10.3824 44.3261C10.9088 44.442 11.448 44.5 12 44.5L36 44.5C36.552 44.5 37.0912 44.442 37.6176 44.3261C38.0607 44.2284 38.4948 44.0898 38.9198 43.91C39.3464 43.7296 39.7497 43.5139 40.1298 43.263C40.5493 42.986 40.9405 42.6661 41.3033 42.3033C41.6662 41.9404 41.9861 41.5492 42.2631 41.1297C42.5139 40.7496 42.7296 40.3464 42.91 39.9198C43.0898 39.4948 43.2285 39.0607 43.3261 38.6176C43.442 38.0911 43.5 37.552 43.5 37L43.5 11C43.5 10.4481 43.442 9.90898 43.3261 9.38262C43.2285 8.93943 43.0898 8.50529 42.91 8.0802C42.7295 7.65356 42.5138 7.25019 42.2629 6.87009C41.986 6.45062 41.6661 6.05949 41.3033 5.6967C40.9405 5.33388 40.5493 5.01399 40.1298 4.73704C39.7497 4.48612 39.3464 4.27044 38.9198 4.09C38.4947 3.91022 38.0606 3.77152 37.6175 3.67391ZM12 6.5L36 6.5C36.3492 6.5 36.6895 6.53844 37.0209 6.61532C37.2693 6.67295 37.5127 6.75218 37.7511 6.85302C37.9981 6.95749 38.2322 7.08177 38.4534 7.22585C38.7142 7.39571 38.9571 7.5931 39.182 7.81802C39.4069 8.04289 39.6042 8.28569 39.7741 8.54641C39.9182 8.76766 40.0425 9.0018 40.147 9.24886C40.2478 9.48734 40.3271 9.73083 40.3847 9.97934C40.4616 10.3106 40.5 10.6509 40.5 11L40.5 37C40.5 37.3492 40.4616 37.6895 40.3847 38.0209C40.3271 38.2693 40.2478 38.5127 40.147 38.7511C40.0425 38.9981 39.9183 39.2321 39.7743 39.4533C39.6044 39.7141 39.407 39.957 39.182 40.182C38.9571 40.4069 38.7142 40.6043 38.4534 40.7741C38.2322 40.9182 37.9981 41.0425 37.7511 41.147C37.5127 41.2478 37.2693 41.3271 37.0209 41.3847C36.6895 41.4616 36.3492 41.5 36 41.5L12 41.5C11.6508 41.5 11.3105 41.4616 10.9791 41.3847C10.7307 41.3271 10.4873 41.2478 10.2489 41.147C10.0019 41.0425 9.76783 40.9183 9.54667 40.7742C9.28585 40.6043 9.04297 40.4069 8.81802 40.182C8.59303 39.957 8.39559 39.7141 8.22569 39.4532C8.08168 39.2321 7.95745 38.9981 7.85302 38.7511C7.75218 38.5127 7.67294 38.2693 7.61531 38.0209C7.53844 37.6895 7.5 37.3492 7.5 37L7.5 11C7.5 10.6508 7.53844 10.3105 7.61531 9.97912C7.67294 9.73069 7.75218 9.48727 7.85302 9.24886C7.95748 9.00189 8.08174 8.76781 8.2258 8.54664C8.39567 8.28583 8.59308 8.04296 8.81802 7.81802C9.04296 7.59308 9.28584 7.39567 9.54665 7.22579C9.76782 7.08173 10.0019 6.95747 10.2489 6.85302C10.4873 6.75218 10.7307 6.67295 10.9791 6.61532C11.3105 6.53844 11.6508 6.5 12 6.5Z" fill="var(--tiny-first-color, #191919)" fill-rule="evenodd"/>
  <path id="合并" d="M17.4351 8.55378C17.2656 8.51793 17.0924 8.5 16.9153 8.5L13.0078 8.5C12.8307 8.5 12.6574 8.51793 12.488 8.55377C12.3325 8.58666 12.1802 8.63463 12.0312 8.69769C11.8848 8.75959 11.7467 8.83385 11.6168 8.92045L11.6167 8.92049L11.6167 8.92051C11.4802 9.01153 11.3528 9.1162 11.2345 9.2345C11.1162 9.35282 11.0115 9.48024 10.9205 9.61675L10.9205 9.61675C10.8339 9.74665 10.7596 9.88479 10.6977 10.0312C10.6346 10.1802 10.5867 10.3325 10.5538 10.488L10.5538 10.488L10.5538 10.488C10.5179 10.6574 10.5 10.8307 10.5 11.0078L10.5 14.9153C10.5 15.0924 10.5179 15.2656 10.5538 15.4351C10.5867 15.5906 10.6346 15.7428 10.6977 15.8919C10.7596 16.0383 10.8339 16.1764 10.9205 16.3063C11.0115 16.4429 11.1162 16.5703 11.2345 16.6886C11.3528 16.8069 11.4802 16.9115 11.6167 17.0026C11.7466 17.0892 11.8848 17.1635 12.0312 17.2254C12.1803 17.2884 12.3325 17.3364 12.488 17.3693L12.488 17.3693C12.6575 17.4052 12.8307 17.4231 13.0078 17.4231L16.9153 17.4231C17.0923 17.4231 17.2656 17.4052 17.435 17.3693L17.4351 17.3693C17.5906 17.3364 17.7428 17.2884 17.8919 17.2254C18.0383 17.1635 18.1764 17.0892 18.3063 17.0026C18.4428 16.9116 18.5702 16.8069 18.6886 16.6886C18.8069 16.5703 18.9116 16.4428 19.0026 16.3063C19.0892 16.1764 19.1635 16.0383 19.2254 15.8919C19.2884 15.7428 19.3364 15.5906 19.3693 15.4351C19.4052 15.2656 19.4231 15.0924 19.4231 14.9153L19.4231 11.0078C19.4231 10.8307 19.4052 10.6574 19.3693 10.488L19.3693 10.4879C19.3364 10.3325 19.2884 10.1802 19.2254 10.0312C19.1635 9.8848 19.0892 9.74667 19.0026 9.61678C18.9116 9.48026 18.8069 9.35283 18.6886 9.2345C18.5703 9.11619 18.4428 9.01152 18.3063 8.92049C18.1764 8.83387 18.0383 8.7596 17.8919 8.69769C17.7428 8.63463 17.5906 8.58666 17.4351 8.55378ZM35.512 8.55377C35.3426 8.51793 35.1693 8.5 34.9922 8.5L24.0078 8.5C23.8307 8.5 23.6574 8.51792 23.488 8.55377L23.488 8.55377C23.3325 8.58666 23.1802 8.63463 23.0312 8.69769C22.8848 8.7596 22.7466 8.83387 22.6167 8.92049C22.4802 9.01151 22.3528 9.11619 22.2345 9.2345C22.1162 9.35282 22.0115 9.48024 21.9205 9.61675C21.8339 9.74665 21.7596 9.88479 21.6977 10.0312C21.6347 10.1801 21.5868 10.3322 21.5539 10.4874L21.5538 10.488C21.5179 10.6574 21.5 10.8307 21.5 11.0078L21.5 14.9922C21.5 15.1693 21.5179 15.3426 21.5538 15.512C21.5867 15.6675 21.6346 15.8198 21.6977 15.9688C21.7596 16.1152 21.8339 16.2534 21.9205 16.3833L21.9205 16.3833C22.0115 16.5198 22.1162 16.6472 22.2345 16.7655C22.3528 16.8838 22.4802 16.9885 22.6167 17.0795C22.7466 17.1661 22.8848 17.2404 23.0312 17.3023C23.1803 17.3654 23.3325 17.4133 23.488 17.4462C23.6575 17.4821 23.8307 17.5 24.0078 17.5L34.9922 17.5C35.1693 17.5 35.3426 17.4821 35.5121 17.4462C35.6675 17.4133 35.8198 17.3654 35.9688 17.3023C36.1152 17.2404 36.2533 17.1661 36.3832 17.0795C36.5197 16.9885 36.6472 16.8838 36.7655 16.7655C36.8838 16.6472 36.9885 16.5197 37.0795 16.3832C37.1661 16.2533 37.2404 16.1152 37.3023 15.9688C37.3654 15.8198 37.4133 15.6675 37.4462 15.512C37.4821 15.3426 37.5 15.1693 37.5 14.9922L37.5 11.0078C37.5 10.8307 37.4821 10.6574 37.4462 10.4879C37.4133 10.3325 37.3654 10.1802 37.3023 10.0312C37.2404 9.88479 37.1661 9.74666 37.0795 9.61676C36.9885 9.48024 36.8838 9.35283 36.7655 9.2345C36.6472 9.11618 36.5198 9.01151 36.3832 8.92048C36.2533 8.83386 36.1152 8.7596 35.9688 8.69769C35.8198 8.63463 35.6675 8.58666 35.512 8.55377ZM16.4231 11.5L13.5 11.5L13.5 14.4231L16.4231 14.4231L16.4231 11.5ZM34.5 11.5L24.5 11.5L24.5 14.5L34.5 14.5L34.5 11.5ZM24.512 19.0157C24.3426 18.9798 24.1693 18.9619 23.9922 18.9619L13.0078 18.9619C12.8307 18.9619 12.6574 18.9798 12.488 19.0157C12.3325 19.0486 12.1802 19.0965 12.0312 19.1596C11.8848 19.2215 11.7466 19.2958 11.6167 19.3824C11.4802 19.4734 11.3528 19.5781 11.2345 19.6964C11.1162 19.8147 11.0115 19.9422 10.9205 20.0787L10.9205 20.0787L10.9205 20.0787C10.8338 20.2086 10.7596 20.3467 10.6977 20.4931C10.6346 20.6422 10.5867 20.7944 10.5538 20.9499L10.5538 20.9499L10.5538 20.95C10.5179 21.1194 10.5 21.2926 10.5 21.4697L10.5 24.5311C10.5 24.7081 10.5179 24.8814 10.5538 25.0509C10.5867 25.2063 10.6346 25.3586 10.6977 25.5077C10.7596 25.6541 10.8339 25.7922 10.9205 25.9221L10.9205 25.9222L10.9206 25.9222C11.0116 26.0587 11.1162 26.1861 11.2345 26.3043C11.3528 26.4226 11.4802 26.5273 11.6167 26.6183C11.7466 26.705 11.8848 26.7792 12.0312 26.8411C12.1803 26.9042 12.3325 26.9522 12.488 26.9851L12.4884 26.9852C12.6578 27.0209 12.8309 27.0388 13.0078 27.0388L23.9922 27.0388C24.1693 27.0388 24.3426 27.0209 24.5121 26.9851C24.6675 26.9522 24.8198 26.9042 24.9688 26.8412C25.1152 26.7792 25.2533 26.705 25.3832 26.6184C25.5198 26.5273 25.6472 26.4227 25.7655 26.3043C25.8838 26.186 25.9885 26.0586 26.0795 25.9221C26.1661 25.7922 26.2404 25.654 26.3023 25.5077C26.3654 25.3586 26.4133 25.2064 26.4462 25.0509C26.4821 24.8814 26.5 24.7082 26.5 24.5311L26.5 21.4697C26.5 21.2926 26.4821 21.1193 26.4462 20.9499C26.4133 20.7944 26.3654 20.6421 26.3023 20.4931C26.2404 20.3467 26.1661 20.2086 26.0795 20.0787C25.9885 19.9422 25.8838 19.8147 25.7655 19.6964C25.6472 19.5781 25.5198 19.4734 25.3833 19.3824C25.2534 19.2958 25.1152 19.2215 24.9688 19.1596C24.8198 19.0965 24.6675 19.0486 24.512 19.0157ZM23.5 21.9619L13.5 21.9619L13.5 24.0388L23.5 24.0388L23.5 21.9619ZM35.4401 28.556C35.264 28.5187 35.084 28.5 34.9 28.5L13.1 28.5C12.916 28.5 12.736 28.5187 12.5599 28.556C12.3992 28.5901 12.2417 28.6397 12.0875 28.7049C11.9359 28.769 11.7929 28.8459 11.6584 28.9356C11.5166 29.03 11.3844 29.1387 11.2615 29.2615C11.1387 29.3844 11.03 29.5167 10.9356 29.6584C10.8459 29.7929 10.769 29.936 10.7049 30.0875C10.6397 30.2417 10.5901 30.3992 10.556 30.5599C10.5187 30.736 10.5 30.916 10.5 31.1L10.5 36.9C10.5 37.084 10.5187 37.264 10.556 37.4401C10.5901 37.6008 10.6397 37.7583 10.7049 37.9125C10.769 38.0641 10.8459 38.2071 10.9356 38.3416C11.0301 38.4834 11.1387 38.6157 11.2615 38.7385C11.3843 38.8613 11.5166 38.9699 11.6583 39.0644C11.7929 39.1541 11.9359 39.231 12.0875 39.2951C12.2417 39.3603 12.3992 39.4099 12.5599 39.444C12.736 39.4813 12.916 39.5 13.1 39.5L34.9 39.5C35.0839 39.5 35.2639 39.4813 35.44 39.444L35.44 39.444C35.6008 39.4099 35.7583 39.3603 35.9125 39.2951C36.0641 39.2309 36.2072 39.154 36.3417 39.0644C36.4834 38.9699 36.6157 38.8613 36.7385 38.7385C36.8613 38.6156 36.97 38.4833 37.0644 38.3416C37.1541 38.2071 37.231 38.064 37.2951 37.9125C37.3603 37.7583 37.4099 37.6008 37.444 37.4401C37.4813 37.264 37.5 37.084 37.5 36.9L37.5 31.1C37.5 30.916 37.4813 30.736 37.444 30.56C37.4099 30.3992 37.3603 30.2417 37.2951 30.0875C37.231 29.936 37.1541 29.7929 37.0644 29.6584C36.97 29.5166 36.8613 29.3844 36.7385 29.2615C36.6157 29.1387 36.4834 29.0301 36.3417 28.9356C36.2071 28.8459 36.0641 28.769 35.9125 28.7049C35.7583 28.6397 35.6009 28.5901 35.4401 28.556ZM34.5 31.5L13.5 31.5L13.5 36.5L34.5 36.5L34.5 31.5Z" fill="var(--tiny-second-color, #aeaeAE)" fill-rule="evenodd"/>
</svg>