<svg viewBox="0 0 48 48" xmlns="http://www.w3.org/2000/svg" xmlns:xlink="http://www.w3.org/1999/xlink" width="48.000000" height="48.000000">
  <path id="减去顶层" d="M36 5L12 5C8.68629 5 6 7.68629 6 11L6 37C6 40.3137 8.68629 43 12 43L36 43C39.3137 43 42 40.3137 42 37L42 11C42 7.68629 39.3137 5 36 5ZM17 11C17 9.89551 16.1046 9 15 9L12 9C10.8954 9 10 9.89551 10 11L10 14C10 15.1045 10.8954 16 12 16L15 16C16.1046 16 17 15.1045 17 14L17 11ZM38 11C38 9.89551 37.1046 9 36 9L21 9C19.8954 9 19 9.89551 19 11L19 14C19 15.1045 19.8954 16 21 16L36 16C37.1046 16 38 15.1045 38 14L38 11ZM24 21C24 19.8955 23.1046 19 22 19L12 19C10.8954 19 10 19.8955 10 21L10 23C10 24.1045 10.8954 25 12 25L22 25C23.1046 25 24 24.1045 24 23L24 21ZM38 29C38 27.8955 37.1046 27 36 27L12 27C10.8954 27 10 27.8955 10 29L10 37C10 38.1045 10.8954 39 12 39L36 39C37.1046 39 38 38.1045 38 37L38 29Z" fill="var(--tiny-first-color, #191919)" fill-rule="evenodd"/>
  <path id="矢量 1996" d="M15 9C16.1046 9 17 9.89551 17 11L17 14C17 15.1045 16.1046 16 15 16L12 16C10.8954 16 10 15.1045 10 14L10 11C10 9.89551 10.8954 9 12 9L15 9ZM36 9C37.1046 9 38 9.89551 38 11L38 14C38 15.1045 37.1046 16 36 16L21 16C19.8954 16 19 15.1045 19 14L19 11C19 9.89551 19.8954 9 21 9L36 9ZM22 19C23.1046 19 24 19.8955 24 21L24 23C24 24.1045 23.1046 25 22 25L12 25C10.8954 25 10 24.1045 10 23L10 21C10 19.8955 10.8954 19 12 19L22 19ZM36 27C37.1046 27 38 27.8955 38 29L38 37C38 38.1045 37.1046 39 36 39L12 39C10.8954 39 10 38.1045 10 37L10 29C10 27.8955 10.8954 27 12 27L36 27Z" fill="var(--tiny-second-color, #aeaeAE)" fill-rule="evenodd"/>
</svg>