<svg viewBox="0 0 48 48" xmlns="http://www.w3.org/2000/svg" xmlns:xlink="http://www.w3.org/1999/xlink" width="48.000000" height="48.000000" fill="none">
  <path id="形状结合" d="M37.0423 4.49951C40.2308 4.49951 42.8361 6.98941 43.0181 10.1318L43.0283 10.4835L43.0283 25.1635C43.0283 26.5133 42.577 27.8006 41.7621 28.8432C41.252 29.4959 40.3093 29.6115 39.6566 29.1014C39.0632 28.6376 38.9137 27.8163 39.2747 27.1805C39.6131 26.7475 39.9486 26.0474 40.0098 25.4973L40.0283 25.1635L40.0283 10.4835C40.0283 8.93153 38.845 7.65766 37.33 7.51316L37.0423 7.49951L16.9717 7.49951C15.6863 7.49951 14.5916 8.31169 14.1724 9.45189L32.5615 9.45151C35.0455 9.45151 37.0615 11.4655 37.0615 13.9515L37.0615 33.9515C37.0615 36.4355 35.0455 38.4515 32.5615 38.4515L20.5675 38.4515L14.0775 43.2995C13.4175 43.7935 12.4795 43.3215 12.4795 42.4975L12.4795 38.4515L10.5615 38.4515C8.07352 38.4515 6.06152 36.4355 6.06152 33.9515L6.06152 13.9515C6.06152 11.4655 8.07352 9.45151 10.5615 9.45151L11.078 9.45295C11.5464 6.75088 13.8253 4.67154 16.6201 4.50967L16.9717 4.49951L37.0423 4.49951ZM21.9795 26.0075L13.9795 26.0075C13.1515 26.0075 12.4795 26.6795 12.4795 27.5075C12.4795 28.3355 13.1515 29.0075 13.9795 29.0075L21.9795 29.0075C22.8095 29.0075 23.4795 28.3355 23.4795 27.5075C23.4795 26.6795 22.8095 26.0075 21.9795 26.0075ZM26.4375 18.0075L13.9795 18.0075C13.1515 18.0075 12.4795 18.6795 12.4795 19.5075C12.4795 20.3355 13.1515 21.0075 13.9795 21.0075L26.4375 21.0075C27.2655 21.0075 27.9375 20.3355 27.9375 19.5075C27.9375 18.6795 27.2655 18.0075 26.4375 18.0075Z" fill="var(--tiny-first-color)" fill-rule="evenodd"/>
  <path id="矢量 1724" d="M43.0183 10.1318C42.8362 6.98926 40.231 4.49951 37.0425 4.49951L16.9718 4.49951L16.6202 4.50977C13.8254 4.67139 11.5466 6.75098 11.0781 9.45312L14.1725 9.45166C14.5918 8.31152 15.6864 7.49951 16.9718 7.49951L37.0425 7.49951L37.3302 7.51318C38.8451 7.65771 40.0284 8.93164 40.0284 10.4834L40.0284 25.1636L40.01 25.4976C39.9487 26.0474 39.6133 26.7476 39.2749 27.1807C38.9138 27.8164 39.0634 28.6377 39.6567 29.1016C40.3094 29.6113 41.2521 29.4961 41.7623 28.8433C42.5771 27.8008 43.0284 26.5132 43.0284 25.1636L43.0284 10.4834L43.0183 10.1318Z" fill="var(--tiny-second-color)" fill-rule="evenodd"/>
</svg>