<svg viewBox="0 0 48 48" xmlns="http://www.w3.org/2000/svg" xmlns:xlink="http://www.w3.org/1999/xlink" width="48.000000" height="48.000000">
  <path id="形状结合" d="M24 6C26.2091 6 28 7.79086 28 10C28 11.6779 26.9668 13.1146 25.502 13.7084L25.5 18L34 18C37.3137 18 40 20.6863 40 24L41 24C42.6569 24 44 25.3431 44 27L44 33C44 34.6569 42.6569 36 41 36L40 36C40 39.3137 37.3137 42 34 42L14 42C10.6863 42 8 39.3137 8 36L7 36C5.34315 36 4 34.6569 4 33L4 27C4 25.3431 5.34315 24 7 24L8 24C8 20.6863 10.6863 18 14 18L22.5 18L22.5 13.7093C21.1218 13.1514 20.1253 11.8476 20.011 10.2985L20 10C20 7.79086 21.7909 6 24 6ZM17 27C15.3431 27 14 28.3431 14 30C14 31.6569 15.3431 33 17 33C18.6569 33 20 31.6569 20 30C20 28.3431 18.6569 27 17 27ZM31 27C29.3431 27 28 28.3431 28 30C28 31.6569 29.3431 33 31 33C32.6569 33 34 31.6569 34 30C34 28.3431 32.6569 27 31 27Z" fill="var(--tiny-first-color, #191919)" fill-rule="evenodd"/>
  <path id="形状结合" d="M28 10C28 7.79086 26.2091 6 24 6C21.7909 6 20 7.79086 20 10L20.011 10.2985C20.1253 11.8476 21.1218 13.1514 22.5 13.7093L22.5 18L25.5 18L25.502 13.7084C26.9668 13.1146 28 11.6779 28 10Z" fill="var(--tiny-second-color, #aeaeAE)" fill-rule="evenodd"/>
</svg>