<svg viewBox="0 0 48 48" xmlns="http://www.w3.org/2000/svg" xmlns:xlink="http://www.w3.org/1999/xlink" width="48.000000" height="48.000000">
  <path id="形状结合" d="M24.0003 6C26.7617 6 29.0003 8.23858 29.0003 11C29.0003 13.2384 27.5294 15.1333 25.5014 15.7707L25.5 18L34.0003 18C37.314 18 40.0003 20.6863 40.0003 24L41.0005 24C42.5572 24 43.8411 25.1923 43.9868 26.7115L44.0005 27L44.0005 32.996C44.0005 34.5527 42.8082 35.8366 41.289 35.9822L41.0005 35.996L40 35.996C40 39.3097 37.314 42 34.0003 42L14.0003 42C10.6866 42 8.00026 39.3137 8.00026 36L7 35.996C5.346 35.996 4 34.65 4 32.996L4 27C4 25.346 5.346 24 7 24L8.00026 24C8.00026 20.6863 10.6866 18 14.0003 18L22.5 18L22.5011 15.7714C20.4721 15.1345 19.0003 13.2391 19.0003 11C19.0003 8.23858 21.2388 6 24.0003 6ZM34.0003 21L14.0003 21C12.4409 21 11.1594 22.1898 11.014 23.7111L11.0003 24L11.0003 36C11.0003 37.5594 12.19 38.8409 13.7113 38.9863L14.0003 39L34.0003 39C35.5597 39 36.8412 37.8102 36.9865 36.2889L37.0003 36L37.0003 24C37.0003 22.4406 35.8105 21.1591 34.2892 21.0137L34.0003 21ZM17.0003 27C18.6571 27 20.0003 28.3431 20.0003 30C20.0003 31.6569 18.6571 33 17.0003 33C15.3434 33 14.0003 31.6569 14.0003 30C14.0003 28.3431 15.3434 27 17.0003 27ZM31.0003 27C32.6571 27 34.0003 28.3431 34.0003 30C34.0003 31.6569 32.6571 33 31.0003 33C29.3434 33 28.0003 31.6569 28.0003 30C28.0003 28.3431 29.3434 27 31.0003 27ZM41.0005 27L40 27L40 32.996L41.0005 32.996L41.0005 27ZM8 27L7 27L7 32.996L8 32.996L8 27ZM24.0003 9C22.8957 9 22.0003 9.89543 22.0003 11C22.0003 12.1046 22.8957 13 24.0003 13C25.1048 13 26.0003 12.1046 26.0003 11C26.0003 9.89543 25.1048 9 24.0003 9Z" fill="var(--tiny-first-color, #191919)" fill-rule="evenodd"/>
  <path id="形状结合" d="M17.0003 27C18.6571 27 20.0003 28.3431 20.0003 30C20.0003 31.6569 18.6571 33 17.0003 33C15.3434 33 14.0003 31.6569 14.0003 30C14.0003 28.3431 15.3434 27 17.0003 27ZM31.0003 27C32.6571 27 34.0003 28.3431 34.0003 30C34.0003 31.6569 32.6571 33 31.0003 33C29.3434 33 28.0003 31.6569 28.0003 30C28.0003 28.3431 29.3434 27 31.0003 27ZM8 27L7 27L7 32.996L8 32.996L8 27Z" fill="var(--tiny-second-color, #aeaeAE)" fill-rule="evenodd"/>
</svg>