<svg viewBox="0 0 48 48" xmlns="http://www.w3.org/2000/svg" xmlns:xlink="http://www.w3.org/1999/xlink" width="48.000000" height="48.000000" fill="none">
  <path id="形状结合" d="M34 4C37.1955 4 39.8073 6.49849 39.9898 9.64752L40 10L40 21C40 21.8284 39.3284 22.5 38.5 22.5C37.7406 22.5 37.113 21.9357 37.0137 21.2035L37 21L37 10C37 8.44107 35.8102 7.15916 34.2889 7.01374L34 7L14 7C12.4407 7 11.1591 8.19021 11.0137 9.71116L11 10L11 38.002C11 39.5604 12.1893 40.841 13.711 40.9863L14 41L23 41C23.8284 41 24.5 41.6716 24.5 42.5C24.5 43.2594 23.9357 43.887 23.2035 43.9863L23 44L14 44C10.8043 44 8.19266 41.5032 8.01018 38.3545L8 38.002L8 10C8 6.80531 10.4977 4.19273 13.6474 4.01019L14 4L34 4ZM26 19.5C26.8284 19.5 27.5 20.1716 27.5 21C27.5 21.7594 26.9357 22.387 26.2035 22.4863L26 22.5L17 22.5C16.1716 22.5 15.5 21.8284 15.5 21C15.5 20.2406 16.0643 19.613 16.7965 19.5137L17 19.5L26 19.5ZM31 11.5C31.8284 11.5 32.5 12.1716 32.5 13C32.5 13.7594 31.9357 14.387 31.2035 14.4863L31 14.5L17 14.5C16.1716 14.5 15.5 13.8284 15.5 13C15.5 12.2406 16.0643 11.613 16.7965 11.5137L17 11.5L31 11.5Z" fill="var(--tiny-first-color, #191919)" fill-rule="evenodd"/>
  <path id="合并" d="M33.9995 24C39.5233 24 43.9995 28.4769 43.9995 34C43.9995 39.5244 39.5239 44 33.9995 44C28.4751 44 23.9995 39.5244 23.9995 34C23.9995 28.4769 28.4757 24 33.9995 24ZM33.9995 27C30.1327 27 26.9995 30.1337 26.9995 34C26.9995 37.8676 30.1319 41 33.9995 41C37.8671 41 40.9995 37.8676 40.9995 34C40.9995 30.1337 37.8663 27 33.9995 27ZM38 32.5L30 32.5C29.16 32.5 28.5 33.16 28.5 34C28.5 34.84 29.16 35.5 30 35.5L38 35.5C38.84 35.5 39.5 34.84 39.5 34C39.5 33.16 38.84 32.5 38 32.5Z" fill="var(--tiny-second-color, #aeaeAE)" fill-rule="evenodd"/>
</svg>
