<svg viewBox="0 0 48 48" xmlns="http://www.w3.org/2000/svg" xmlns:xlink="http://www.w3.org/1999/xlink" width="48.000000" height="48.000000">
  <path id="矢量 56" d="M7.4863 5.79645C7.38699 5.0643 6.7594 4.5 6 4.5C5.17157 4.5 4.5 5.17157 4.5 6L4.5 36.6L4.51022 36.9786C4.70676 40.6133 7.71625 43.5 11.4 43.5L42 43.5L42.2036 43.4863C42.9357 43.387 43.5 42.7594 43.5 42C43.5 41.1715 42.8284 40.5 42 40.5L11.4 40.5L11.1089 40.4893C9.09097 40.3404 7.5 38.656 7.5 36.6L7.5 6L7.4863 5.79645Z" fill="var(--tiny-first-color)" fill-rule="evenodd"/>
  <path id="合并" d="M39.5 9C41.9853 9 44 11.0147 44 13.5C44 15.9853 41.9853 18 39.5 18C37.0147 18 35 15.9853 35 13.5C35 11.0147 37.0147 9 39.5 9ZM39.5 12C38.6716 12 38 12.6716 38 13.5C38 14.3284 38.6716 15 39.5 15C40.3284 15 41 14.3284 41 13.5C41 12.6716 40.3284 12 39.5 12ZM27 18.5C27 16.0147 24.9853 14 22.5 14C20.0147 14 18 16.0147 18 18.5C18 20.9853 20.0147 23 22.5 23C24.9853 23 27 20.9853 27 18.5ZM21 18.5C21 17.6716 21.6716 17 22.5 17C23.3284 17 24 17.6716 24 18.5C24 19.3284 23.3284 20 22.5 20C21.6716 20 21 19.3284 21 18.5ZM42 25.5C42 23.0147 39.9853 21 37.5 21C35.0147 21 33 23.0147 33 25.5C33 27.9853 35.0147 30 37.5 30C39.9853 30 42 27.9853 42 25.5ZM36 25.5C36 24.6716 36.6716 24 37.5 24C38.3284 24 39 24.6716 39 25.5C39 26.3284 38.3284 27 37.5 27C36.6716 27 36 26.3284 36 25.5ZM19 31.8C19 29.3147 16.9853 27.3 14.5 27.3C12.0147 27.3 10 29.3147 10 31.8C10 34.2853 12.0147 36.3 14.5 36.3C16.9853 36.3 19 34.2853 19 31.8ZM26.5 28C28.9853 28 31 30.0147 31 32.5C31 34.9853 28.9853 37 26.5 37C24.0147 37 22 34.9853 22 32.5C22 30.0147 24.0147 28 26.5 28ZM13 31.8C13 30.9716 13.6716 30.3 14.5 30.3C15.3284 30.3 16 30.9716 16 31.8C16 32.6284 15.3284 33.3 14.5 33.3C13.6716 33.3 13 32.6284 13 31.8ZM26.5 31C25.6716 31 25 31.6716 25 32.5C25 33.3284 25.6716 34 26.5 34C27.3284 34 28 33.3284 28 32.5C28 31.6716 27.3284 31 26.5 31Z" fill="var(--tiny-second-color)" fill-rule="evenodd"/>
</svg>