<svg viewBox="0 0 48 48" xmlns="http://www.w3.org/2000/svg" xmlns:xlink="http://www.w3.org/1999/xlink" width="48.000000" height="48.000000" fill="none">
  <path id="合并" d="M8 36.5L8 7C8 5.88 7.12 5 6 5C4.88 5 4 5.88 4 7L4 37.5C4 40.8137 6.68629 43.5 10 43.5L41 43.5C42.12 43.5 43 42.62 43 41.5C43 40.38 42.12 39.5 41 39.5L11 39.5C9.34315 39.5 8 38.1569 8 36.5Z" fill="var(--tiny-first-color, #191919)" fill-rule="evenodd"/>
  <path id="合并" d="M39.5 9C41.9853 9 44 11.0147 44 13.5C44 15.9853 41.9853 18 39.5 18C37.0147 18 35 15.9853 35 13.5C35 11.0147 37.0147 9 39.5 9ZM27 18.5C27 16.0147 24.9853 14 22.5 14C20.0147 14 18 16.0147 18 18.5C18 20.9853 20.0147 23 22.5 23C24.9853 23 27 20.9853 27 18.5ZM37.5 30C39.9853 30 42 27.9853 42 25.5C42 23.0147 39.9853 21 37.5 21C35.0147 21 33 23.0147 33 25.5C33 27.9853 35.0147 30 37.5 30ZM14.5 27.3C16.9853 27.3 19 29.3147 19 31.8C19 34.2853 16.9853 36.3 14.5 36.3C12.0147 36.3 10 34.2853 10 31.8C10 29.3147 12.0147 27.3 14.5 27.3ZM26.5 28C28.9853 28 31 30.0147 31 32.5C31 34.9853 28.9853 37 26.5 37C24.0147 37 22 34.9853 22 32.5C22 30.0147 24.0147 28 26.5 28Z" fill="var(--tiny-first-color, #191919)" fill-rule="evenodd"/>
  <path id="合并" d="M39.5 9C41.9853 9 44 11.0147 44 13.5C44 15.9853 41.9853 18 39.5 18C37.0147 18 35 15.9853 35 13.5C35 11.0147 37.0147 9 39.5 9ZM27 18.5C27 16.0147 24.9853 14 22.5 14C20.0147 14 18 16.0147 18 18.5C18 20.9853 20.0147 23 22.5 23C24.9853 23 27 20.9853 27 18.5ZM37.5 30C39.9853 30 42 27.9853 42 25.5C42 23.0147 39.9853 21 37.5 21C35.0147 21 33 23.0147 33 25.5C33 27.9853 35.0147 30 37.5 30ZM14.5 27.3C16.9853 27.3 19 29.3147 19 31.8C19 34.2853 16.9853 36.3 14.5 36.3C12.0147 36.3 10 34.2853 10 31.8C10 29.3147 12.0147 27.3 14.5 27.3ZM26.5 28C28.9853 28 31 30.0147 31 32.5C31 34.9853 28.9853 37 26.5 37C24.0147 37 22 34.9853 22 32.5C22 30.0147 24.0147 28 26.5 28Z" fill="var(--tiny-second-color, #aeaeAE)" fill-rule="evenodd"/>
</svg>
