<svg viewBox="0 0 48 48" xmlns="http://www.w3.org/2000/svg" xmlns:xlink="http://www.w3.org/1999/xlink" width="48.000000" height="48.000000">
  <path id="椭圆 388(边框)" d="M25.3976 17.6498C24.9427 17.5499 24.4768 17.5 24 17.5C23.5232 17.5 23.0573 17.5499 22.6024 17.6498C22.2169 17.7345 21.8392 17.855 21.4694 18.0114C21.099 18.1681 20.7488 18.3555 20.4188 18.5735C20.056 18.8132 19.7177 19.09 19.4038 19.4038C19.0899 19.7177 18.8132 20.056 18.5734 20.4188C18.3554 20.7488 18.1681 21.099 18.0114 21.4694C17.855 21.8392 17.7345 22.2169 17.6498 22.6024C17.5499 23.0573 17.5 23.5232 17.5 24C17.5 24.4768 17.5499 24.9427 17.6498 25.3976C17.7345 25.7831 17.855 26.1608 18.0114 26.5306C18.1681 26.901 18.3554 27.2512 18.5734 27.5811C18.8132 27.944 19.0899 28.2823 19.4038 28.5962C19.7177 28.9101 20.056 29.1869 20.4189 29.4266C20.7488 29.6446 21.099 29.8319 21.4694 29.9886C21.8392 30.145 22.2169 30.2655 22.6024 30.3502C23.0573 30.4501 23.5232 30.5 24 30.5C24.4768 30.5 24.9427 30.4501 25.3975 30.3502C25.7831 30.2655 26.1608 30.145 26.5306 29.9886C27.3084 29.6596 27.9969 29.1955 28.5962 28.5962C28.9101 28.2823 29.1869 27.944 29.4266 27.5811C29.6446 27.2512 29.8319 26.901 29.9886 26.5306C30.145 26.1608 30.2655 25.7831 30.3502 25.3976C30.4501 24.9427 30.5 24.4768 30.5 24C30.5 23.5232 30.4501 23.0573 30.3502 22.6025C30.2655 22.2169 30.145 21.8392 29.9886 21.4694C29.6596 20.6916 29.1955 20.0031 28.5962 19.4038C27.9969 18.8045 27.3084 18.3404 26.5306 18.0114C26.1608 17.855 25.7831 17.7345 25.3976 17.6498ZM23.199 20.5912C23.4589 20.5304 23.7259 20.5 24 20.5C24.2741 20.5 24.5411 20.5304 24.801 20.5912C24.9918 20.6359 25.1788 20.697 25.3619 20.7744C25.5527 20.8552 25.7337 20.9511 25.9048 21.0622C26.1089 21.1949 26.2989 21.3492 26.4749 21.5251C26.7983 21.8486 27.0485 22.2195 27.2256 22.6381C27.303 22.8213 27.3641 23.0082 27.4088 23.1991C27.4696 23.4589 27.5 23.7259 27.5 24C27.5 24.2741 27.4696 24.5411 27.4087 24.801C27.3641 24.9918 27.303 25.1788 27.2256 25.3619C27.0485 25.7805 26.7983 26.1514 26.4749 26.4749C26.1514 26.7983 25.7805 27.0485 25.3619 27.2256C25.1787 27.303 24.9918 27.3641 24.8009 27.4088C24.5411 27.4696 24.2741 27.5 24 27.5C23.7259 27.5 23.4589 27.4696 23.199 27.4087C23.0082 27.3641 22.8212 27.303 22.6381 27.2256C22.4473 27.1449 22.2663 27.0489 22.0952 26.9378C21.8911 26.8051 21.7011 26.6508 21.5251 26.4749C21.3492 26.2989 21.1949 26.1089 21.0623 25.9048C20.9511 25.7337 20.8552 25.5527 20.7744 25.3619C20.697 25.1788 20.6359 24.9918 20.5912 24.801C20.5304 24.5411 20.5 24.2741 20.5 24C20.5 23.7259 20.5304 23.4589 20.5912 23.199C20.6359 23.0082 20.697 22.8212 20.7744 22.6381C20.8552 22.4473 20.9511 22.2663 21.0623 22.0952C21.1949 21.8911 21.3492 21.7011 21.5251 21.5251C21.7011 21.3492 21.8911 21.1949 22.0952 21.0623C22.2663 20.9511 22.4472 20.8552 22.6381 20.7744C22.8212 20.697 23.0082 20.6359 23.199 20.5912Z" fill="var(--tiny-first-color)" fill-rule="evenodd"/>
</svg>