<svg viewBox="0 0 48 48" xmlns="http://www.w3.org/2000/svg" xmlns:xlink="http://www.w3.org/1999/xlink" width="48.000000" height="48.000000" fill="none">
  <path id="形状结合" d="M20.2401 0.439167C20.7727 0.971489 20.8211 1.80449 20.3854 2.39148L3.14645 19.6466C2.98373 19.8092 2.95661 20.0561 3.06509 20.2468L20.2401 37.4403C20.8259 38.0259 20.8259 38.9753 20.2401 39.5608C19.7076 40.0932 18.8743 40.1415 18.2871 39.706L1.02513 22.4739C-0.261307 21.188 -0.336979 19.1501 0.798109 17.7757L1.02513 17.5261L18.1188 0.439167C18.7046 -0.146389 19.6543 -0.146389 20.2401 0.439167ZM31.5577 0.439167C32.0902 0.971489 32.1386 1.80449 31.7029 2.39148L14.464 19.6466C14.3013 19.8092 14.2742 20.0561 14.3826 20.2468L31.5577 37.4403C32.1435 38.0259 32.1435 38.9753 31.5577 39.5608C31.0251 40.0932 30.1918 40.1415 29.6046 39.706L12.3427 22.4739C11.0562 21.188 10.9806 19.1501 12.1157 17.7757L12.3427 17.5261L29.4364 0.439167C30.0221 -0.146389 30.9719 -0.146389 31.5577 0.439167Z" fill="var(--tiny-first-color)" fill-rule="evenodd" transform="matrix(-1,0,0,1,39.999,3.99219)"/>
  <path id="形状结合" d="M20.2401 0.439166C20.7727 0.971489 20.8211 1.80449 20.3854 2.39148L3.14645 19.6466C2.98373 19.8092 2.95661 20.0561 3.06509 20.2468L20.2401 37.4403C20.8259 38.0259 20.8259 38.9753 20.2401 39.5608C19.7076 40.0932 18.8743 40.1415 18.2871 39.706L1.02513 22.4739C-0.261307 21.188 -0.336979 19.1501 0.798109 17.7757L1.02513 17.5261L18.1188 0.439166C18.7046 -0.146389 19.6543 -0.146389 20.2401 0.439166Z" fill="var(--tiny-second-color)" fill-rule="evenodd" transform="matrix(-1,0,0,1,39.999,3.99219)"/>
</svg>