<svg viewBox="0 0 48 48" xmlns="http://www.w3.org/2000/svg" xmlns:xlink="http://www.w3.org/1999/xlink" width="48.000000" height="48.000000" fill="none">
  <path id="形状结合" d="M28.2431 4.43135C28.7756 4.96368 28.824 5.79668 28.3883 6.38367L11.1494 23.6388C10.9867 23.8014 10.9595 24.0483 11.068 24.239L28.2431 41.4325C28.8289 42.0181 28.8289 42.9675 28.2431 43.553C27.7105 44.0853 26.8772 44.1337 26.29 43.6982L9.02806 26.4661C7.74162 25.1802 7.66595 23.1423 8.80104 21.7679L9.02806 21.5183L26.1217 4.43135C26.7075 3.8458 27.6573 3.8458 28.2431 4.43135ZM39.5606 4.43135C40.0931 4.96368 40.1416 5.79668 39.7058 6.38367L22.4669 23.6388C22.3042 23.8014 22.2771 24.0483 22.3856 24.239L39.5606 41.4325C40.1464 42.0181 40.1464 42.9675 39.5606 43.553C39.0281 44.0853 38.1947 44.1337 37.6075 43.6982L20.3456 26.4661C19.0592 25.1802 18.9835 23.1423 20.1186 21.7679L20.3456 21.5183L37.4393 4.43135C38.0251 3.8458 38.9748 3.8458 39.5606 4.43135Z" fill="var(--tiny-first-color)" fill-rule="evenodd"/>
  <path id="形状结合" d="M28.2431 4.43135C28.7756 4.96368 28.824 5.79668 28.3883 6.38367L11.1494 23.6388C10.9867 23.8014 10.9595 24.0483 11.068 24.239L28.2431 41.4325C28.8289 42.0181 28.8289 42.9675 28.2431 43.553C27.7105 44.0853 26.8772 44.1337 26.29 43.6982L9.02806 26.4661C7.74162 25.1802 7.66595 23.1423 8.80104 21.7679L9.02806 21.5183L26.1217 4.43135C26.7075 3.8458 27.6573 3.8458 28.2431 4.43135Z" fill="var(--tiny-second-color)" fill-rule="evenodd"/>
</svg>