<svg viewBox="0 0 48 48" xmlns="http://www.w3.org/2000/svg" xmlns:xlink="http://www.w3.org/1999/xlink" width="48.000000" height="48.000000">
  <path id="形状结合" d="M39.4149 4.58512C40.1358 5.30528 40.1913 6.43846 39.5813 7.22215L22.78 24.0264L39.3619 40.5896C40.143 41.3698 40.143 42.6347 39.3619 43.4149C38.641 44.135 37.5065 44.1904 36.7219 43.5811L19.9516 26.8517C18.4717 25.3735 18.3938 23.0252 19.7179 21.4554L19.9516 21.2012L36.5865 4.58512C37.3675 3.80496 38.6338 3.80496 39.4149 4.58512ZM28.6349 4.58512C29.3558 5.30528 29.4113 6.43846 28.8013 7.22215L12 24.0264L28.5819 40.5896C29.363 41.3698 29.363 42.6347 28.5819 43.4149C27.861 44.135 26.7265 44.1904 25.9419 43.5811L9.17157 26.8517C7.69169 25.3735 7.6138 23.0252 8.93791 21.4554L9.17157 21.2012L25.8065 4.58512C26.5875 3.80496 27.8538 3.80496 28.6349 4.58512Z" fill="var(--tiny-first-color)" fill-rule="evenodd"/>
  <path id="形状结合" d="M28.6344 4.58512C29.3554 5.30528 29.4108 6.43846 28.8008 7.22215L11.9995 24.0264L28.5814 40.5896C29.3625 41.3698 29.3625 42.6347 28.5814 43.4149C27.8605 44.135 26.726 44.1904 25.9414 43.5811L9.17108 26.8517C7.6912 25.3735 7.61331 23.0252 8.93742 21.4554L9.17108 21.2012L25.806 4.58512C26.587 3.80496 27.8533 3.80496 28.6344 4.58512Z" fill="var(--tiny-second-color)" fill-rule="evenodd"/>
</svg>