<svg viewBox="0 0 48 48" xmlns="http://www.w3.org/2000/svg" xmlns:xlink="http://www.w3.org/1999/xlink" width="48.000000" height="48.000000">
  <path id="形状结合" d="M31.4149 0.585124C32.1358 1.30528 32.1913 2.43846 31.5813 3.22215L14.78 20.0264L31.3619 36.5896C32.143 37.3698 32.143 38.6347 31.3619 39.4149C30.641 40.135 29.5065 40.1904 28.7219 39.5811L11.9516 22.8517C10.4717 21.3735 10.3938 19.0252 11.7179 17.4554L11.9516 17.2012L28.5865 0.585124C29.3675 -0.195042 30.6338 -0.195042 31.4149 0.585124ZM20.6349 0.585124C21.3558 1.30528 21.4113 2.43846 20.8013 3.22215L4 20.0264L20.5819 36.5896C21.363 37.3698 21.363 38.6347 20.5819 39.4149C19.861 40.135 18.7265 40.1904 17.9419 39.5811L1.17157 22.8517C-0.308309 21.3735 -0.386197 19.0252 0.937907 17.4554L1.17157 17.2012L17.8065 0.585124C18.5875 -0.195042 19.8538 -0.195042 20.6349 0.585124Z" fill="var(--tiny-first-color)" fill-rule="evenodd" transform="matrix(-1,0,0,1,40,4)"/>
  <path id="形状结合" d="M20.6349 0.585125C21.3558 1.30528 21.4113 2.43846 20.8013 3.22215L4 20.0264L20.5819 36.5896C21.363 37.3698 21.363 38.6347 20.5819 39.4149C19.861 40.135 18.7265 40.1904 17.9419 39.5811L1.17157 22.8517C-0.308309 21.3735 -0.386197 19.0252 0.937907 17.4554L1.17157 17.2012L17.8065 0.585125C18.5875 -0.195042 19.8538 -0.195042 20.6349 0.585125Z" fill="var(--tiny-second-color)" fill-rule="evenodd" transform="matrix(-1,0,0,1,40,4)"/>
</svg>