<svg viewBox="0 0 48 48" xmlns="http://www.w3.org/2000/svg" xmlns:xlink="http://www.w3.org/1999/xlink" width="48.000000" height="48.000000" fill="none">
  <path id="形状结合" d="M40 32.5C40.7594 32.5 41.387 33.0643 41.4863 33.7965L41.5 34L41.5 37.5C41.5 40.6947 39.0023 43.3073 35.8526 43.4898L35.5 43.5L12.5 43.5C9.30451 43.5 6.69267 41.0015 6.51018 37.8525L6.5 37.5L6.5 34C6.5 33.1716 7.17157 32.5 8 32.5C8.75939 32.5 9.38698 33.0643 9.48631 33.7965L9.5 34L9.5 37.5C9.5 39.0589 10.6898 40.3408 12.2111 40.4863L12.5 40.5L35.5 40.5C37.0593 40.5 38.3409 39.3098 38.4863 37.7888L38.5 37.5L38.5 34C38.5 33.1716 39.1716 32.5 40 32.5ZM23.999 4.5C24.7584 4.5 25.386 5.06431 25.4853 5.79646L25.499 6L25.498 31.77L34.9393 22.3319C35.5251 21.7462 36.4749 21.7462 37.0607 22.3319C37.5932 22.8645 37.6416 23.6978 37.2059 24.285L27.1827 34.3313C26.3067 35.2073 25.1595 35.6467 24.0114 35.6496C22.9656 35.6518 21.9187 35.2925 21.0756 34.5704L20.8173 34.3313L10.9393 24.4533C10.3536 23.8675 10.3536 22.9177 10.9393 22.3319C11.4719 21.7994 12.3052 21.751 12.8924 22.1867L22.498 31.768L22.499 6C22.499 5.17157 23.1706 4.5 23.999 4.5Z" fill="var(--tiny-first-color)" fill-rule="evenodd"/>
  <path id="形状结合" d="M23.999 4.5C24.7584 4.5 25.386 5.06431 25.4853 5.79646L25.499 6L25.498 31.77L34.9393 22.3319C35.5251 21.7462 36.4749 21.7462 37.0607 22.3319C37.5932 22.8645 37.6416 23.6978 37.2059 24.285L27.1827 34.3313C26.3067 35.2073 25.1595 35.6467 24.0114 35.6496C22.9656 35.6518 21.9187 35.2925 21.0756 34.5704L20.8173 34.3313L10.9393 24.4533C10.3536 23.8675 10.3536 22.9177 10.9393 22.3319C11.4719 21.7994 12.3052 21.751 12.8924 22.1867L22.498 31.768L22.499 6C22.499 5.17157 23.1706 4.5 23.999 4.5Z" fill="var(--tiny-second-color)" fill-rule="evenodd"/>
</svg>