<svg viewBox="0 0 48 48" xmlns="http://www.w3.org/2000/svg" xmlns:xlink="http://www.w3.org/1999/xlink" width="48.000000" height="48.000000" fill="none">
  <path id="矢量 1788" d="M23.208 9C28.3044 9 32.8218 11.97 34.8596 16.4128L34.9961 16.7292L35.2812 16.7488C40.845 17.2058 45.2559 21.6953 45.4902 27.2573L45.5 27.7234C45.5 33.811 40.4998 38.7363 34.3364 38.7363L11.8792 38.7354L11.5222 38.7234C6.48071 38.4636 2.5 34.3445 2.5 29.3296C2.5 24.7234 5.84985 20.8975 10.2673 20.083L10.5225 20.041L10.5754 19.6609C11.5046 13.7656 16.5664 9.23169 22.7314 9.00854L23.208 9ZM23.2415 33.7437L17.4402 27.9194C17.0044 27.3323 17.2209 26.3538 17.7537 25.821C18.3408 25.3855 19.1741 25.4338 19.7068 25.9663L22.8 29.061L22.802 17.9189L22.8157 17.7156C22.915 16.9834 23.5427 16.4189 24.302 16.4189C25.1304 16.4189 25.802 17.0906 25.802 17.9189L25.8 29.061L29.0715 25.8152C29.6589 25.3794 30.4922 25.4277 31.0247 25.9604C31.6104 26.5461 31.6104 27.4958 31.0247 28.0818L25.3628 33.7437L25.1584 33.9146L24.949 34.0366C24.906 34.0574 24.7905 34.0999 24.7439 34.1169L24.5278 34.166C24.4543 34.1772 24.3789 34.1831 24.302 34.1831C24.1497 34.1831 23.9644 34.1482 23.8274 34.1064C23.769 34.0869 23.5332 33.9634 23.4797 33.9377L23.2415 33.7437Z" fill="var(--tiny-first-color, #191919)" fill-rule="evenodd"/>
  <path id="形状结合" d="M11.5004 0.232759L17.3247 6.034L17.5189 6.27232C17.5443 6.32589 17.6679 6.56161 17.6874 6.62013C17.7292 6.75709 17.764 6.94233 17.764 7.09466C17.764 7.17144 17.7582 7.24688 17.7471 7.32056L17.6978 7.53662C17.6809 7.58322 17.6382 7.6987 17.6177 7.7417L17.4956 7.95118L17.3247 8.15532L11.6627 13.8173C11.0769 14.4031 10.1271 14.4031 9.54134 13.8173C9.00881 13.2848 8.96039 12.4515 9.3961 11.8642L12.642 8.59266L1.5 8.59466C0.671574 8.59466 0 7.92308 0 7.09466C0 6.33526 0.564308 5.70767 1.29646 5.60835L1.5 5.59465L12.642 5.59266L9.54734 2.49932C9.01481 1.96678 8.9664 1.13345 9.4021 0.546231C9.93464 0.0136977 10.9132 -0.20295 11.5004 0.232759Z" fill="var(--tiny-second-color, #aeaeAE)" fill-rule="evenodd" transform="matrix(0,1,1,0,17.207,16.4189)"/>
</svg>
