<svg viewBox="0 0 48 48" xmlns="http://www.w3.org/2000/svg" xmlns:xlink="http://www.w3.org/1999/xlink" width="48.000000" height="48.000000">
  <path id="形状结合" d="M40 31.9996C41.104 31.9996 42 32.8936 42 33.9996L42 37.4996C42 41.0836 39.084 43.9996 35.5 43.9996L12.5 43.9996C8.916 43.9996 6 41.0836 6 37.4996L6 33.9996C6 32.8936 6.896 31.9996 8 31.9996C9.104 31.9996 10 32.8936 10 33.9996L10 37.4996C10 38.8776 11.122 39.9996 12.5 39.9996L35.5 39.9996C36.878 39.9996 38 38.8776 38 37.4996L38 33.9996C38 32.8936 38.896 31.9996 40 31.9996ZM23.999 4C25.103 4 25.999 4.894 25.999 6L25.998 30.562L34.585 21.978C35.367 21.196 36.633 21.196 37.415 21.978C38.195 22.76 38.195 24.024 37.415 24.806L27.535 34.686C26.6046 35.6164 25.3951 36.1033 24.1712 36.1451L23.826 36.14L23.6153 36.1334C22.466 36.0455 21.3414 35.5626 20.463 34.686L10.585 24.806C9.805 24.024 9.805 22.76 10.585 21.978C11.367 21.196 12.633 21.196 13.415 21.978L21.998 30.562L21.999 6C21.999 4.894 22.895 4 23.999 4Z" fill="var(--tiny-first-color)" fill-rule="evenodd"/>
  <path id="形状结合" d="M23.999 4C25.103 4 25.999 4.894 25.999 6L25.998 30.562L34.585 21.978C35.367 21.196 36.633 21.196 37.415 21.978C38.195 22.76 38.195 24.024 37.415 24.806L27.535 34.686C26.6046 35.6164 25.3951 36.1033 24.1712 36.1451L23.826 36.14L23.6153 36.1334C22.466 36.0455 21.3414 35.5626 20.463 34.686L10.585 24.806C9.805 24.024 9.805 22.76 10.585 21.978C11.367 21.196 12.633 21.196 13.415 21.978L21.998 30.562L21.999 6C21.999 4.894 22.895 4 23.999 4Z" fill="var(--tiny-second-color)" fill-rule="evenodd"/>
</svg>