<svg viewBox="0 0 48 48" xmlns="http://www.w3.org/2000/svg" xmlns:xlink="http://www.w3.org/1999/xlink" width="48.000000" height="48.000000">
  <path id="合并" d="M11.438 6C13.7348 6 15.6996 7.42357 16.4974 9.43601L33.7 9.4376C38.2844 9.4376 42 13.1548 42 17.7396C42 22.1852 38.5063 25.8136 34.1143 26.0294L33.7 26.0396L29.0418 26.0399C28.2343 28.0325 26.2803 29.438 23.998 29.438C21.7169 29.438 19.7634 28.0323 18.9561 26.0397L14.302 26.0396C11.9248 26.0396 10 27.964 10 30.3396C10 32.612 11.761 34.4714 13.9946 34.6288L14.302 34.6396L30.1273 34.6385L36.2026 28.5638L42.5095 34.8721L34.7511 42.6285C34.6683 42.7113 34.5677 42.7869 34.4697 42.8387L34.3181 42.9056L26.6085 45.8947C26.4556 45.9643 26.2952 45.9991 26.1362 45.9991C25.838 45.9991 25.5473 45.8813 25.3278 45.6617C25.035 45.365 24.9312 44.9359 25.0457 44.5443L25.1082 44.3793L27.4104 38.6401L14.302 38.6398C9.71584 38.6398 6 34.9246 6 30.3396C6 25.8936 9.49405 22.2656 13.8876 22.0498L14.302 22.0396L18.9241 22.0383C19.7108 20.0037 21.6864 18.56 23.998 18.56C26.3108 18.56 28.2869 20.0035 29.0739 22.0382L33.7 22.0396C36.0754 22.0396 38 20.115 38 17.7396C38 15.4669 36.2386 13.6059 34.0071 13.4484L33.7 13.4376L16.4987 13.4376C15.7019 15.4526 13.7364 16.878 11.438 16.878C8.43515 16.878 6 14.442 6 11.438C6 8.43557 8.43557 6 11.438 6ZM44.7253 26.2498C42.9888 24.5633 40.1805 24.5874 38.4683 26.2982L37.8082 26.9583L44.1152 33.2667L44.7753 32.6065C45.6261 31.7557 46.0909 30.6234 46.0818 29.4168C46.0712 28.2117 45.5913 27.087 44.7253 26.2498Z" fill="var(--tiny-first-color)" fill-rule="evenodd"/>
  <path id="形状结合" d="M36.2024 28.5639L42.5094 34.8722L34.7509 42.6287C34.6682 42.7114 34.5676 42.7871 34.4696 42.8389L34.318 42.9058L26.6084 45.8948C26.4555 45.9644 26.295 45.9993 26.1361 45.9993C25.8378 45.9993 25.5472 45.8814 25.3277 45.6619C25.0349 45.3651 24.9311 44.9361 25.0456 44.5444L25.1081 44.3794L28.1987 36.6746C28.229 36.6064 28.2653 36.5413 28.3093 36.4792L28.4546 36.311L36.2024 28.5639ZM38.4682 26.2983C40.1804 24.5876 42.9887 24.5634 44.7252 26.2499C45.5911 27.0871 46.0711 28.2118 46.0817 29.4169C46.0907 30.6235 45.626 31.7558 44.7751 32.6066L44.1151 33.2668L37.8081 26.9584L38.4682 26.2983Z" fill="var(--tiny-second-color)" fill-rule="evenodd"/>
</svg>