<svg viewBox="0 0 48 48" xmlns="http://www.w3.org/2000/svg" xmlns:xlink="http://www.w3.org/1999/xlink" width="48.000000" height="48.000000">
  <path id="形状" d="M15.3097 9.02338C14.6574 6.75108 12.5627 5.08789 10.0801 5.08789C7.07766 5.08789 4.64209 7.52346 4.64209 10.5259C4.64209 13.5299 7.07724 15.9659 10.0801 15.9659C12.5643 15.9659 14.6595 14.3008 15.3107 12.0258L32.8421 12.0255L33.1707 12.0366C35.6685 12.2055 37.6421 14.2859 37.6421 16.8275C37.6421 19.4791 35.4937 21.6275 32.8421 21.6275L27.8816 21.6254C27.2431 19.3316 25.138 17.6479 22.6401 17.6479C20.1442 17.6479 18.0401 19.3309 17.4011 21.6235L12.4441 21.6275L12.0425 21.6376C7.91921 21.8465 4.64209 25.2533 4.64209 29.4275C4.64209 33.7363 8.13405 37.2275 12.4441 37.2275L27.3526 37.2285L27.5679 34.2256L12.4441 34.2275L12.1152 34.2164C9.61543 34.0476 7.64209 31.9688 7.64209 29.4275C7.64209 26.7757 9.79075 24.6275 12.4441 24.6275L17.4235 24.6272C18.0881 26.8808 20.1724 28.5259 22.6401 28.5259C25.1091 28.5259 27.1939 26.8811 27.8586 24.6274L32.8421 24.6275L33.2435 24.6173C37.3653 24.4085 40.6421 21.0013 40.6421 16.8275C40.6421 12.5188 37.1503 9.02549 32.8421 9.02549L15.3097 9.02338ZM7.64209 10.5259C7.64209 9.18032 8.73452 8.08789 10.0801 8.08789C11.4275 8.08789 12.5201 9.18013 12.5201 10.5259C12.5201 11.8735 11.4277 12.9659 10.0801 12.9659C8.73433 12.9659 7.64209 11.8733 7.64209 10.5259Z" fill="var(--tiny-first-color)" fill-rule="evenodd"/>
  <path id="合并" d="M42.4608 26.9046C42.2989 26.6419 42.1123 26.3944 41.9011 26.1621L41.4876 25.7724C41.2558 25.5792 41.01 25.4113 40.7503 25.2689C40.5064 25.1352 40.2502 25.0239 39.9817 24.935C39.7257 24.8503 39.4662 24.7884 39.2035 24.7495C38.9131 24.7064 38.6186 24.6913 38.32 24.7041C38.0154 24.7172 37.7178 24.7589 37.427 24.8291C37.1725 24.8906 36.9232 24.974 36.6792 25.0794C36.4407 25.1823 36.214 25.3034 35.999 25.4427C35.7262 25.6194 35.4722 25.8254 35.2372 26.0607L26.1416 35.174L25.8804 35.5481L22.8289 43.2831L22.7545 43.4857C22.7135 43.6309 22.6955 43.7752 22.7005 43.9187C22.7051 44.0481 22.7285 44.1768 22.7706 44.3048C22.8074 44.4168 22.8561 44.5213 22.9168 44.6184C22.9928 44.7401 23.0874 44.8502 23.2008 44.9485C23.3193 45.0513 23.4472 45.1317 23.5845 45.1898C23.6866 45.233 23.7938 45.2638 23.9063 45.2824C24.0174 45.3007 24.1276 45.3058 24.2368 45.2977C24.4012 45.2855 24.5633 45.2433 24.7233 45.1712L29.6576 43.5963L29.8854 43.4631C29.9526 43.4156 30.0148 43.3631 30.0721 43.3057C30.1318 43.2458 30.1861 43.1806 30.235 43.1099C30.2803 43.0443 30.3198 42.9759 30.3533 42.9047C30.3889 42.8291 30.4178 42.7504 30.44 42.6685C30.4631 42.5834 30.4783 42.4976 30.4854 42.4111C30.4917 42.3348 30.4918 42.2579 30.4856 42.1805C30.4796 42.1049 30.4678 42.0306 30.4502 41.9578C30.428 41.8661 30.3966 41.7768 30.356 41.6896C30.3116 41.5942 30.2582 41.5056 30.1958 41.4239C30.1431 41.3549 30.084 41.2909 30.0186 41.2317C29.9529 41.1723 29.883 41.1198 29.8088 41.0742C29.7271 41.024 29.6403 40.9821 29.5484 40.9486C29.4564 40.915 29.3629 40.8912 29.268 40.877C29.182 40.8642 29.0947 40.8594 29.0063 40.8625C28.9181 40.8656 28.8316 40.8767 28.7469 40.8955C28.6624 40.9143 28.5797 40.941 28.4987 40.9754L26.9094 41.1731L28.3756 36.9896L34.7698 30.702L37.4216 33.3436L31.3735 39.2954C31.2987 39.3695 31.2335 39.4498 31.1777 39.5363C31.1307 39.6092 31.0904 39.6864 31.057 39.768C31.0234 39.8498 30.9977 39.9334 30.9799 40.0186C30.9603 40.1125 30.9502 40.2084 30.9498 40.3063C30.9494 40.4042 30.9586 40.5002 30.9775 40.5942C30.9946 40.6796 31.0196 40.7633 31.0525 40.8455C31.0853 40.9274 31.1249 41.005 31.1714 41.0782C31.2264 41.1651 31.291 41.2459 31.3651 41.3207C31.4392 41.3954 31.5195 41.4607 31.6059 41.5164C31.6788 41.5635 31.7561 41.6038 31.8377 41.6373C31.9197 41.6709 32.0033 41.6966 32.0886 41.7144C32.1824 41.734 32.2782 41.744 32.376 41.7445C32.474 41.7449 32.5702 41.7357 32.6643 41.7168C32.7495 41.6997 32.8332 41.6748 32.9152 41.6419C33.0005 41.6077 33.0812 41.5662 33.157 41.5173C33.2403 41.4637 33.318 41.4012 33.3899 41.3299L41.7766 33.0603C42.0021 32.8367 42.2021 32.5958 42.3765 32.3377C42.5596 32.0668 42.7146 31.7769 42.8415 31.4679C42.9358 31.2383 43.0121 31.0044 43.0705 30.766C43.1597 30.402 43.207 30.0278 43.2125 29.6433C43.2172 29.32 43.1921 29.0019 43.1372 28.689C43.0846 28.3891 43.0046 28.0937 42.8974 27.8034C42.7803 27.4863 42.6347 27.1867 42.4608 26.9046ZM32.387 41.4445C32.6732 41.443 32.959 41.3337 33.1783 41.1163L41.5644 32.8473C43.3313 31.095 43.352 28.2052 41.6781 26.3639L41.2946 26.0028C40.4952 25.3365 39.5126 25.0022 38.5295 24.9998C39.513 25.0019 40.4949 25.3363 41.2946 26.0028L41.6781 26.3639C43.352 28.2052 43.3313 31.095 41.5644 32.8473L33.1783 41.1163C32.9587 41.334 32.6735 41.4433 32.387 41.4445ZM34.7707 30.2804L28.1146 36.8245L26.4653 41.5306L26.5771 41.2145L28.1146 36.8245L34.7707 30.2804ZM29.0543 41.1616C29.4815 41.161 29.8909 41.4034 30.0831 41.8162C30.3176 42.3201 30.1496 42.9083 29.7113 43.2181L29.5345 43.3204L24.6138 44.8909C24.4519 44.9663 24.289 45.0006 24.1322 45.0008C24.2893 45.0007 24.4516 44.9665 24.6138 44.8909L29.5345 43.3204L29.7113 43.2181C30.1496 42.9083 30.3176 42.3201 30.0831 41.8162C29.8908 41.4031 29.4819 41.1606 29.0543 41.1616ZM37.264 27.6872L37.0515 27.873L36.516 28.4078L36.3038 28.6198L36.5162 28.8316L39.3594 31.6658L36.3038 28.6198L37.0515 27.873L37.264 27.6872C37.6224 27.4141 38.0551 27.2802 38.4917 27.2793C38.0554 27.2804 37.6221 27.4143 37.264 27.6872ZM37.4536 27.9199L37.2565 28.0923L36.7285 28.6196L39.3938 31.2765L39.7773 31.0087C39.8729 30.9117 39.9577 30.8073 40.0314 30.6959C40.09 30.6074 40.1417 30.5143 40.1865 30.4167C40.2331 30.315 40.2712 30.2109 40.3007 30.1044C40.3352 29.9798 40.3579 29.8518 40.3688 29.7207C40.3794 29.5934 40.3786 29.4672 40.3663 29.3421C40.3552 29.2296 40.3347 29.1172 40.3051 29.0065C40.2734 28.8881 40.2319 28.7741 40.1808 28.6648C40.13 28.5561 40.0696 28.452 39.9996 28.3523L39.8001 28.1094C39.7342 28.0446 39.6644 27.9855 39.5904 27.9319C39.4905 27.8596 39.3832 27.7975 39.2684 27.7457C39.1718 27.7021 39.073 27.667 38.972 27.6405C38.8656 27.6126 38.7567 27.5942 38.6453 27.5853C38.4954 27.5733 38.3484 27.5791 38.2044 27.6027C38.1404 27.6131 38.0768 27.6272 38.014 27.6447C37.8807 27.6818 37.755 27.7335 37.6378 27.7994C37.574 27.8353 37.5126 27.8755 37.4536 27.9199Z" fill="var(--tiny-second-color)" fill-rule="evenodd"/>
</svg>