<svg viewBox="0 0 48 48" xmlns="http://www.w3.org/2000/svg" xmlns:xlink="http://www.w3.org/1999/xlink" width="48.000000" height="48.000000">
  <path id="Fill-1" d="M25.72 40.912L25.72 39.114C25.72 37.156 27.312 35.564 29.268 35.564L29.658 35.564C32.166 35.564 34.204 33.526 34.204 31.018C34.204 29.06 35.796 27.468 37.754 27.468L40.64 27.468C39.148 34.636 33.13 40.164 25.72 40.912ZM9.076 32.13L13.318 32.13C15.274 32.13 16.866 33.722 16.866 35.678L16.866 39.41C13.56 37.872 10.818 35.316 9.076 32.13ZM24 7C27.036 7 29.882 7.81 32.352 9.21L32.352 11.18C32.352 13.134 30.762 14.724 28.806 14.724L26.634 14.724C24.19 14.724 22.192 16.66 22.09 19.078C22.09 21.446 20.16 23.436 17.792 23.436C15.426 23.436 13.5 21.51 13.5 19.142C13.5 16.928 11.886 15.09 9.772 14.72C12.812 10.078 18.05 7 24 7ZM24 4C12.972 4 4 12.972 4 24C4 35.028 12.972 44 24 44C35.026 44 44 35.028 44 24C44 12.972 35.026 4 24 4Z" fill="var(--tiny-first-color)" fill-rule="evenodd"/>
</svg>