<svg viewBox="0 0 48 48" xmlns="http://www.w3.org/2000/svg" xmlns:xlink="http://www.w3.org/1999/xlink" width="48.000000" height="48.000000">
  <path id="形状结合" d="M24 4L24.2927 4.00224C24.5407 4.00591 24.7881 4.0141 25.0348 4.02679C26.7088 4.11168 28.3573 4.40404 29.948 4.9C32.2198 5.62568 34.004 7.63695 34.2977 9.94433L34.3342 10.332L34.3462 10.706L34.3462 11.216C34.3462 14.048 32.221 16.3842 29.4799 16.7205L29.1342 16.752L28.7962 16.764L26.6242 16.764C25.3922 16.764 24.3658 17.6369 24.1287 18.7972L24.0902 19.05L24.0782 19.31L24.0662 19.536C23.895 22.6052 21.5271 25.0864 18.5058 25.431L18.1402 25.462L17.7822 25.472C14.3082 25.472 11.4922 22.654 11.4922 19.178C11.4922 17.9703 10.6333 16.9629 9.49434 16.7299L9.2462 16.692L8.9922 16.678L8.65941 16.6768C7.59594 18.8957 7 21.3795 7 24C7 26.1742 7.41025 28.2544 8.1574 30.1671L13.3169 30.1665C16.268 30.1665 18.682 32.4697 18.8568 35.3765L18.8669 35.7145L18.8663 40.208C20.4013 40.6953 22.03 40.9701 23.7178 40.9977L23.7197 39.1507C23.7197 36.1998 26.0227 33.7875 28.9297 33.6128L29.2677 33.6027L29.6577 33.6027C31.0627 33.6027 32.2037 32.4609 32.2037 31.0547C32.2037 28.1032 34.5073 25.6896 37.4155 25.5148L37.7537 25.5047L40.9339 25.5054C40.9777 25.0094 41 24.5072 41 24C41 19.848 39.486 15.85 36.74 12.746C36.192 12.124 36.248 11.178 36.87 10.628C37.488 10.08 38.436 10.138 38.986 10.758C42.218 14.41 44 19.114 44 24C44 25.0728 43.9151 26.1262 43.7516 27.1538C42.1766 36.6204 33.9065 44 24 44C21.4884 44 19.0834 43.5346 16.8668 42.6856C12.0097 40.7913 7.9561 37.0071 5.79855 32.287C4.66065 29.776 4 26.9317 4 24C4 20.9747 4.67522 18.104 5.88287 15.5309C8.6002 9.7 14.0942 5.352 20.5982 4.282C20.949 4.22394 21.2995 4.17485 21.6494 4.13472C21.8102 4.1184 21.972 4.10136 22.1345 4.08627C22.2203 4.07698 22.3057 4.06975 22.3909 4.06304C22.5966 4.04764 22.8036 4.03429 23.0113 4.02413L23.334 4.01L24 4ZM40.394 28.5058L37.7537 28.5047C36.433 28.5047 35.3474 29.5081 35.2169 30.794L35.2037 31.0547C35.2037 34.0039 32.9006 36.4178 29.9955 36.5926L29.6577 36.6027L29.2677 36.6027C27.9481 36.6027 26.8633 37.605 26.7329 38.8901L26.7197 39.1507L26.7198 40.7826C33.3132 39.718 38.649 34.848 40.394 28.5058ZM15.8656 38.9246L15.8669 35.7145C15.8669 34.3955 14.8634 33.3102 13.5776 33.1797L13.3169 33.1665L9.6887 33.1669C11.2299 35.5646 13.3567 37.5517 15.8656 38.9246ZM23.9902 7C23.0302 7 22.0502 7.082 21.0862 7.24C16.8422 7.94 12.9562 10.378 10.3562 13.85C12.7622 14.458 14.4922 16.624 14.4922 19.178C14.4922 20.8984 15.8169 22.3155 17.4988 22.4599L17.7822 22.472L18.0562 22.462C19.5527 22.3792 20.8206 21.1944 21.043 19.6613L21.0722 19.37L21.08 19.116L21.0942 18.898C21.3707 16.1697 23.5816 13.9365 26.2839 13.7742L26.6242 13.764L28.7962 13.764L29.0442 13.754C30.2109 13.6831 31.2051 12.7044 31.3324 11.4815L31.3462 11.216L31.3462 10.706L31.3362 10.422C31.2642 9.266 30.4202 8.206 29.1942 7.81C27.5182 7.274 25.7682 7 23.9902 7Z" fill="var(--tiny-first-color)" fill-rule="evenodd"/>
</svg>