<svg viewBox="0 0 48 48" xmlns="http://www.w3.org/2000/svg" xmlns:xlink="http://www.w3.org/1999/xlink" width="48.000000" height="48.000000">
  <path id="合并" d="M10.5 8L10.5 23L26.5 23L26.5 8C26.5 6.88 27.38 6 28.5 6C29.62 6 30.5 6.88 30.5 8L30.5 40C30.5 41.12 29.62 42 28.5 42C27.38 42 26.5 41.12 26.5 40L26.5 27L10.5 27L10.5 40C10.5 41.12 9.62 42 8.5 42C7.38 42 6.5 41.12 6.5 40L6.5 8C6.5 6.88 7.38 6 8.5 6C9.62 6 10.5 6.88 10.5 8ZM35.3318 25.873L32.4815 29.1984C31.7526 30.0488 31.8481 31.2896 32.6984 32.0185C33.5488 32.7474 34.7896 32.652 35.5185 31.8016L37.5 29.4898L37.5 40C37.5 41.12 38.38 42 39.5 42C40.62 42 41.5 41.12 41.5 40L41.5 27.5C41.5 27.3273 41.4829 27.1581 41.4486 26.9925C41.4157 26.8338 41.3671 26.6784 41.3027 26.5263C41.2402 26.3785 41.1651 26.2391 41.0774 26.1082C40.9874 25.974 40.8842 25.8487 40.7678 25.7322C40.6514 25.6158 40.526 25.5126 40.3918 25.4227C40.2609 25.3349 40.1216 25.2598 39.9738 25.1973C39.8216 25.1329 39.6662 25.0843 39.5076 25.0515C39.3419 25.0172 39.1728 25 39 25L37.23 25C37.0475 25 36.8693 25.0191 36.6952 25.0572C36.5211 25.0953 36.3511 25.1525 36.1853 25.2287C36.0196 25.305 35.8656 25.3968 35.7233 25.5042C35.5811 25.6115 35.4506 25.7345 35.3318 25.873Z" fill="var(--tiny-first-color)" fill-rule="evenodd"/>
  <path id="矢量 1830(边框)" d="M35.3318 25.873L32.4815 29.1984C31.7526 30.0488 31.848 31.2896 32.6984 32.0185C33.5488 32.7474 34.7896 32.652 35.5185 31.8016L37.5 29.4898L37.5 40C37.5 41.12 38.38 42 39.5 42C40.62 42 41.5 41.12 41.5 40L41.5 27.5C41.5 27.3273 41.4828 27.1581 41.4485 26.9925C41.4157 26.8338 41.3671 26.6784 41.3027 26.5263C41.2402 26.3785 41.1651 26.2391 41.0773 26.1082C40.9874 25.974 40.8842 25.8487 40.7678 25.7322C40.6513 25.6158 40.526 25.5126 40.3918 25.4227C40.2609 25.3349 40.1215 25.2598 39.9737 25.1973C39.6628 25.0658 39.3382 25 39 25L37.23 25C37.0475 25 36.8692 25.0191 36.6951 25.0572C36.521 25.0953 36.3511 25.1525 36.1853 25.2287C36.0196 25.305 35.8655 25.3968 35.7233 25.5042C35.5811 25.6115 35.4506 25.7345 35.3318 25.873Z" fill="var(--tiny-second-color)" fill-rule="evenodd"/>
</svg>