<svg viewBox="0 0 48 48" xmlns="http://www.w3.org/2000/svg" xmlns:xlink="http://www.w3.org/1999/xlink" width="48.000000" height="48.000000">
  <path id="形状结合" d="M25.7646 5.97122C28.1084 3.62743 31.9121 3.62743 34.2559 5.97122L42.0279 13.7432C44.3738 16.0891 44.3738 19.8913 42.028 22.2345L22.2353 42.0291C19.8896 44.3722 16.0883 44.3722 13.7447 42.0287L5.96999 34.2559C3.62701 31.9103 3.62701 28.1095 5.97109 25.7627L25.7646 5.97122ZM39.8718 39.4997C40.7003 39.4997 41.3718 40.1712 41.3718 40.9997C41.3718 41.7591 40.8075 42.3867 40.0754 42.486L39.8718 42.4997L29.9999 42.4997C29.1714 42.4997 28.4999 41.8281 28.4999 40.9997C28.4999 40.2403 29.0642 39.6127 29.7963 39.5134L29.9999 39.4997L39.8718 39.4997ZM11.2709 24.7054L8.09252 27.8839C6.9195 29.0583 6.9195 30.9615 8.09178 32.1351L15.8659 39.9072C17.0382 41.0795 18.9409 41.0795 20.1145 39.9073L23.2929 36.7274L11.2709 24.7054ZM32.1346 8.09254C30.9624 6.92033 29.0581 6.92033 27.886 8.09247L13.3929 22.5854L25.4129 34.6054L39.9072 20.1126C41.0074 19.0137 41.0761 17.2735 40.113 16.0929L39.9066 15.8645L32.1346 8.09254Z" fill="var(--tiny-first-color)" fill-rule="evenodd"/>
  <path id="形状结合" d="M39.8717 39.471C40.6997 39.471 41.3717 40.143 41.3717 40.971C41.3717 41.799 40.6997 42.471 39.8717 42.471L29.9997 42.471C29.1717 42.471 28.4997 41.799 28.4997 40.971C28.4997 40.143 29.1717 39.471 29.9997 39.471L39.8717 39.471Z" fill="var(--tiny-second-color)" fill-rule="evenodd"/>
</svg>