<svg viewBox="0 0 48 48" xmlns="http://www.w3.org/2000/svg" xmlns:xlink="http://www.w3.org/1999/xlink" width="48.000000" height="48.000000" fill="none">
  <path id="矢量 233" d="M10.4863 7.29651C10.387 6.56433 9.7594 6 9 6C8.17157 6 7.5 6.67163 7.5 7.5L7.5 39.5L7.51367 39.7035C7.61304 40.4356 8.2406 41 9 41C9.82843 41 10.5 40.3283 10.5 39.5L10.5 26L27.5 26L27.5 39.5L27.5137 39.7035C27.613 40.4356 28.2406 41 29 41C29.8284 41 30.5 40.3283 30.5 39.5L30.5 7.5L30.4863 7.29651C30.387 6.56433 29.7594 6 29 6C28.1716 6 27.5 6.67163 27.5 7.5L27.5 23L10.5 23L10.5 7.5L10.4863 7.29651ZM40.4863 27.2965C40.387 26.5643 39.7594 26 39 26L36.4728 26L36.2495 26.0167C35.8824 26.072 35.5458 26.2622 35.3084 26.5544L32.8355 29.5998L32.7084 29.7821C32.3356 30.4112 32.4698 31.2351 33.0544 31.7098L33.2368 31.8369C33.8658 32.2097 34.6897 32.0755 35.1644 31.4909L37.184 29L37.498 29L37.5 40.5L37.5137 40.7035C37.613 41.4356 38.2406 42 39 42C39.8284 42 40.5 41.3283 40.5 40.5L40.5 27.5L40.4863 27.2965Z" fill="var(--tiny-first-color, #191919)" fill-rule="evenodd"/>
  <path id="矢量 234" d="M39.0001 26C39.7595 26 40.387 26.5643 40.4863 27.2965L40.5001 27.5L40.5001 40.5C40.5001 41.3284 39.8285 42 39.0001 42C38.2407 42 37.613 41.4357 37.5137 40.7035L37.5001 40.5L37.4981 29L37.184 29L35.1645 31.491C34.6898 32.0756 33.8659 32.2097 33.2368 31.8369L33.0545 31.7098C32.4699 31.2351 32.3357 30.4112 32.7085 29.7821L32.8356 29.5998L35.3085 26.5544C35.5458 26.2622 35.8825 26.072 36.2496 26.0167L36.4729 26L39.0001 26Z" fill="var(--tiny-second-color, #aeaeAE)" fill-rule="evenodd"/>
</svg>
