<svg viewBox="0 0 48 48" xmlns="http://www.w3.org/2000/svg" xmlns:xlink="http://www.w3.org/1999/xlink" width="48.000000" height="48.000000" fill="none">
  <path id="形状结合" d="M37 36.7495C37.8284 36.7495 38.5 37.4211 38.5 38.2495L38.5 42.7515C38.5 43.58 37.8284 44.2515 37 44.2515L11 44.2515C10.1716 44.2515 9.5 43.58 9.5 42.7515L9.5 38.2495C9.5 37.4211 10.1716 36.7495 11 36.7495L37 36.7495ZM27.566 6.04685L27.7023 6.3636L37.8643 32.5256C38.2642 33.5552 37.7538 34.7141 36.7241 35.114C35.7681 35.4854 34.7005 35.0718 34.2327 34.1864L34.1357 33.9739L30.44 24.46L17.558 24.46L13.8643 33.9739C13.4929 34.93 12.4672 35.4384 11.4981 35.186L11.2759 35.114C10.3198 34.7427 9.81134 33.7169 10.0638 32.7479L10.1357 32.5256L20.2971 6.36517C21.6068 2.98497 26.0604 2.87934 27.566 6.04685ZM24 7.87954L19.112 20.46L28.886 20.46L24 7.87954Z" fill="var(--tiny-first-color, #191919)" fill-rule="evenodd"/>
  <path id="形状结合" d="M37 36.6196C37.7594 36.6196 38.387 37.1839 38.4863 37.9161L38.5 38.1196L38.5 42.6216C38.5 43.381 37.9357 44.0086 37.2035 44.1079L37 44.1216L11 44.1216C10.2406 44.1216 9.61302 43.5573 9.51369 42.8252L9.5 42.6216L9.5 38.1196C9.5 37.3602 10.0643 36.7326 10.7965 36.6333L11 36.6196L37 36.6196Z" fill="var(--tiny-second-color, #aeaeAE)" fill-rule="evenodd"/>
</svg>
