<svg viewBox="0 0 48 48" xmlns="http://www.w3.org/2000/svg" xmlns:xlink="http://www.w3.org/1999/xlink" width="48.000000" height="48.000000" fill="none">
  <path id="形状结合" d="M37 36.6196C37.7594 36.6196 38.387 37.1839 38.4863 37.916L38.5 38.1196L38.5 42.6216C38.5 43.381 37.9357 44.0085 37.2035 44.1079L37 44.1216L11 44.1216C10.2406 44.1216 9.61302 43.5573 9.51369 42.8251L9.5 42.6216L9.5 38.1196C9.5 37.3602 10.0643 36.7326 10.7965 36.6333L11 36.6196L37 36.6196ZM27.108 5.8771L27.2362 6.1729L37.3982 32.3349C37.6982 33.1071 37.3153 33.9763 36.5431 34.2762C35.8352 34.5512 35.0459 34.2524 34.6882 33.6059L30.782 23.5899L17.216 23.5899L13.3982 33.4211C13.0983 34.1933 12.2291 34.5762 11.4569 34.2762C10.749 34.0013 10.3683 33.248 10.5408 32.5296L20.7635 6.17355C21.9112 3.21485 25.7792 3.11623 27.108 5.8771ZM23.6274 7.12198L18.382 20.5899L29.616 20.5899L24.4395 7.25847C24.2624 6.80192 23.8515 6.75626 23.6274 7.12198Z" fill="var(--tiny-first-color)" fill-rule="evenodd"/>
  <path id="形状结合" d="M37 36.6196C37.7594 36.6196 38.387 37.1839 38.4863 37.9161L38.5 38.1196L38.5 42.6216C38.5 43.381 37.9357 44.0086 37.2035 44.1079L37 44.1216L11 44.1216C10.2406 44.1216 9.61302 43.5573 9.51369 42.8252L9.5 42.6216L9.5 38.1196C9.5 37.3602 10.0643 36.7326 10.7965 36.6333L11 36.6196L37 36.6196Z" fill="var(--tiny-second-color)" fill-rule="evenodd"/>
</svg>