<svg viewBox="0 0 48 48" xmlns="http://www.w3.org/2000/svg" xmlns:xlink="http://www.w3.org/1999/xlink" width="48.000000" height="48.000000" fill="none">
  <path id="形状结合" d="M29.2719 8.5C32.466 8.5 35.0791 10.999 35.2617 14.1476L35.2719 14.5L35.2701 16.091L40.1344 13.5201C42.4933 12.2721 45.3138 13.8795 45.5055 16.4797L45.5159 16.762L45.5159 31.238C45.5159 33.9085 42.7772 35.6489 40.3857 34.602L40.131 34.4791L38.0835 33.3883C37.3517 33.0001 37.0731 32.0921 37.4613 31.3603C37.8172 30.6894 38.6098 30.3994 39.3031 30.6548L41.5346 31.8277C41.9377 32.0407 42.4101 31.8019 42.5005 31.3837L42.5159 16.762C42.5159 16.3084 42.0836 16.0026 41.6727 16.1177L34.4732 19.908C33.5366 20.4033 32.4214 19.7977 32.2856 18.7889L32.2719 18.582L32.2719 14.5C32.2719 12.9418 31.081 11.6592 29.5606 11.5137L29.2719 11.5L8.48389 11.5C6.92457 11.5 5.643 12.6902 5.49762 14.2112L5.48389 14.5L5.48389 33.5C5.48389 35.0601 6.67303 36.341 8.19485 36.4863L8.48389 36.5L29.2719 36.5C30.8308 36.5 32.1127 35.3102 32.2581 33.7889L32.2719 33.5L32.2719 25.084C32.2719 24.2556 32.9435 23.584 33.7719 23.584C34.5313 23.584 35.1589 24.1483 35.2582 24.8805L35.2719 25.084L35.2719 33.5C35.2719 36.6955 32.7734 39.3073 29.6244 39.4898L29.2719 39.5L8.48389 39.5C5.28783 39.5 2.67652 37.0028 2.49407 33.8526L2.48389 33.5L2.48389 14.5C2.48389 11.3053 4.9816 8.69273 8.13133 8.51019L8.48389 8.5L29.2719 8.5ZM19.0157 16.902C22.9361 16.902 26.1137 20.0796 26.1137 24C26.1137 27.9188 22.9357 31.096 19.0157 31.096C15.0973 31.096 11.9197 27.9184 11.9197 24C11.9197 20.08 15.0969 16.902 19.0157 16.902ZM19.0157 19.902C16.7539 19.902 14.9197 21.7367 14.9197 24C14.9197 26.2616 16.7541 28.096 19.0157 28.096C21.279 28.096 23.1137 26.2618 23.1137 24C23.1137 21.7364 21.2793 19.902 19.0157 19.902Z" fill="var(--tiny-first-color, #191919)" fill-rule="evenodd"/>
  <path id="形状结合" d="M19.0157 16.902C22.9361 16.902 26.1137 20.0796 26.1137 24C26.1137 27.9188 22.9357 31.096 19.0157 31.096C15.0973 31.096 11.9197 27.9184 11.9197 24C11.9197 20.08 15.0969 16.902 19.0157 16.902ZM19.0157 19.902C16.7539 19.902 14.9197 21.7367 14.9197 24C14.9197 26.2616 16.7541 28.096 19.0157 28.096C21.279 28.096 23.1137 26.2618 23.1137 24C23.1137 21.7364 21.2793 19.902 19.0157 19.902Z" fill="var(--tiny-second-color, #aeaeAE)" fill-rule="evenodd"/>
</svg>
