<svg viewBox="0 0 48 48" xmlns="http://www.w3.org/2000/svg" xmlns:xlink="http://www.w3.org/1999/xlink" width="48.000000" height="48.000000" fill="none">
  <path id="形状结合" d="M40.5 38.5C41.3284 38.5 42 39.1716 42 40C42 40.7594 41.4357 41.387 40.7035 41.4863L40.5 41.5L7.5 41.5C6.67157 41.5 6 40.8284 6 40C6 39.2406 6.56431 38.613 7.29646 38.5137L7.5 38.5L40.5 38.5ZM13.792 16.086C14.422 15.458 15.5 15.904 15.5 16.794L15.5 31.208C15.5 32.098 14.422 32.544 13.792 31.916L7.01 25.132C6.384 24.508 6.384 23.494 7.01 22.87L13.792 16.086ZM40.5 27.834C41.3284 27.834 42 28.5056 42 29.334C42 30.0934 41.4357 30.721 40.7035 30.8203L40.5 30.834L20.5 30.834C19.6716 30.834 19 30.1624 19 29.334C19 28.5746 19.5643 27.947 20.2965 27.8477L20.5 27.834L40.5 27.834ZM40.5 17.167C41.3284 17.167 42 17.8386 42 18.667C42 19.4264 41.4357 20.054 40.7035 20.1533L40.5 20.167L20.5 20.167C19.6716 20.167 19 19.4954 19 18.667C19 17.9076 19.5643 17.28 20.2965 17.1807L20.5 17.167L40.5 17.167ZM40.5 6.5C41.3284 6.5 42 7.17157 42 8C42 8.75939 41.4357 9.38698 40.7035 9.48631L40.5 9.5L7.5 9.5C6.67157 9.5 6 8.82843 6 8C6 7.24061 6.56431 6.61302 7.29646 6.51369L7.5 6.5L40.5 6.5Z" fill="var(--tiny-first-color)" fill-rule="evenodd"/>
  <path id="形状结合" d="M13.792 16.086C14.422 15.458 15.5 15.904 15.5 16.794L15.5 31.208C15.5 32.098 14.422 32.544 13.792 31.916L7.01 25.132C6.384 24.508 6.384 23.494 7.01 22.87L13.792 16.086Z" fill="var(--tiny-second-color)" fill-rule="evenodd"/>
</svg>