<svg viewBox="0 0 48 48" xmlns="http://www.w3.org/2000/svg" xmlns:xlink="http://www.w3.org/1999/xlink" width="48.000000" height="48.000000">
  <path id="形状结合" d="M9.15187 22.557L25.4139 38.819L22.2359 41.999C21.1019 43.133 19.5939 43.759 17.9899 43.759C16.3859 43.759 14.8779 43.133 13.7439 41.999L5.97187 34.227C4.83787 33.093 4.21387 31.585 4.21387 29.981C4.21387 28.377 4.83787 26.869 5.97187 25.737L9.15187 22.557ZM39.8717 39.471C40.6997 39.471 41.3717 40.143 41.3717 40.971C41.3717 41.799 40.6997 42.471 39.8717 42.471L29.9997 42.471C29.1717 42.471 28.4997 41.799 28.4997 40.971C28.4997 40.143 29.1717 39.471 29.9997 39.471L39.8717 39.471ZM25.7649 5.94322C28.0309 3.67322 31.9869 3.67322 34.2569 5.94322L42.0289 13.7152C43.1629 14.8492 43.7869 16.3572 43.7869 17.9612C43.7869 19.5652 43.1629 21.0732 42.0289 22.2052L27.5349 36.6972L11.2729 20.4352L25.7649 5.94322Z" fill="var(--tiny-first-color)" fill-rule="evenodd"/>
  <path id="形状结合" d="M39.8717 39.471C40.6997 39.471 41.3717 40.143 41.3717 40.971C41.3717 41.799 40.6997 42.471 39.8717 42.471L29.9997 42.471C29.1717 42.471 28.4997 41.799 28.4997 40.971C28.4997 40.143 29.1717 39.471 29.9997 39.471L39.8717 39.471Z" fill="var(--tiny-second-color)" fill-rule="evenodd"/>
</svg>