<svg viewBox="0 0 48 48" xmlns="http://www.w3.org/2000/svg" xmlns:xlink="http://www.w3.org/1999/xlink" width="48.000000" height="48.000000" fill="none">
  <path id="形状结合" d="M19.4061 9.93603C20.0661 10.21 20.4941 10.85 20.4941 11.566L20.4941 17.486C40.214 17.95 42.6654 36.6843 42.7442 37.3532C42.7781 37.686 42.6081 37.99 42.3221 38.126C42.2201 38.176 42.1081 38.198 42.0001 38.198C41.8061 38.198 41.6121 38.122 41.4701 37.98L40.7121 37.214C37.0381 33.482 32.8821 29.262 20.4941 29.1L20.4941 35.008C20.4941 35.722 20.0661 36.36 19.4061 36.634C18.7441 36.906 17.9921 36.758 17.4861 36.254L5.76612 24.532C5.43212 24.198 5.25012 23.758 5.25012 23.286C5.25012 22.816 5.43212 22.374 5.76612 22.04L17.4861 10.32C17.9901 9.81403 18.7421 9.66403 19.4061 9.93603Z" fill="var(--tiny-first-color)" fill-rule="evenodd"/>
</svg>