<svg viewBox="0 0 48 48" xmlns="http://www.w3.org/2000/svg" xmlns:xlink="http://www.w3.org/1999/xlink" width="48.000000" height="48.000000" fill="none">
  <path id="矢量 218" d="M21.0042 8.65137C21.0042 7.73938 20.2651 7 19.3532 7L9.9306 7C9.01874 7 8.27957 7.73938 8.27957 8.65137L8.27957 18.9486C8.27957 19.8606 9.01874 20.6 9.9306 20.6L17.9976 20.6L17.9976 24.2834L17.9904 24.8788C17.7867 33.3122 13.2402 37.5 7.4997 37.5C6.67143 37.5 6 38.1716 6 39C6 39.8283 6.67143 40.5 7.4997 40.5C14.9955 40.5 20.997 34.8089 20.997 24.2834L20.997 19.05L21.0042 8.65137ZM40.349 7C41.2608 7 42 7.73938 42 8.65137L42 18.9486L41.9927 24.2834C41.9927 34.8089 35.9913 40.5 28.4955 40.5C27.6672 40.5 26.9958 39.8283 26.9958 39C26.9958 38.1716 27.6672 37.5 28.4955 37.5C34.2359 37.5 38.7825 33.3122 38.9862 24.8788L38.9933 24.2834L38.9933 20.6L30.9264 20.6C30.0145 20.6 29.2753 19.8606 29.2753 18.9486L29.2753 8.65137C29.2753 7.73938 30.0145 7 30.9264 7L40.349 7Z" fill="var(--tiny-first-color, #191919)" fill-rule="evenodd"/>
  <path id="矢量 219" d="M40.3494 7C41.261 7 42 7.73938 42 8.65137L42 18.9486L41.9927 24.2834C41.9927 34.8089 35.993 40.5 28.4993 40.5C27.6712 40.5 27 39.8283 27 39C27 38.1716 27.6712 37.5 28.4993 37.5C34.2381 37.5 38.7834 33.3122 38.9871 24.8788L38.9942 24.2834L38.9942 20.6L30.9295 20.6C30.0179 20.6 29.2789 19.8606 29.2789 18.9486L29.2789 8.65137C29.2789 7.73938 30.0179 7 30.9295 7L40.3494 7Z" fill="var(--tiny-second-color, #aeaeAE)" fill-rule="evenodd"/>
</svg>
