<svg viewBox="0 0 48 48" xmlns="http://www.w3.org/2000/svg" xmlns:xlink="http://www.w3.org/1999/xlink" width="48.000000" height="48.000000">
  <path id="形状结合" d="M16.4869 21.9338L16.4869 32.55C16.4869 34.3551 15.1006 35.8364 13.3346 35.9873L13.0369 36L5.44695 36C3.64185 36 2.16054 34.6137 2.00961 32.8477L1.99695 32.55L1.99695 21.9338L16.4869 21.9338ZM33.99 21.9338L33.99 26.4638C33.99 28.2689 32.6037 29.7503 30.8377 29.9012L30.54 29.9138L22.95 29.9138C21.1449 29.9138 19.6636 28.5275 19.5127 26.7615L19.5 26.4638L19.5 21.9338L33.99 21.9338ZM34.5 15.9138C35.3284 15.9138 36 16.5854 36 17.4138C36 18.1502 35.4797 18.7627 34.78 18.8897L34.5 18.9138L1.5 18.9138C0.671573 18.9138 0 18.2423 0 17.4138C0 16.6775 0.530625 16.065 1.23037 15.938L1.5 15.9138L34.5 15.9138ZM13.0369 0C14.842 0 16.3234 1.3863 16.4743 3.15232L16.4869 3.45L16.4869 12.9038L1.99695 12.9038L1.99695 3.45C1.99695 1.6449 3.38325 0.163591 5.14927 0.0126634L5.44695 0L13.0369 0ZM30.54 5.91385C32.3451 5.91385 33.8264 7.30015 33.9773 9.06617L33.99 9.36385L33.99 12.9038L19.5 12.9038L19.5 9.36385C19.5 7.55875 20.8863 6.07744 22.6523 5.92651L22.95 5.91385L30.54 5.91385Z" fill="var(--tiny-first-color)" fill-rule="evenodd" transform="matrix(0,-1,1,0,6,42.0859)"/>
  <path id="形状结合" d="M34.5 3.01C35.3284 3.01 36 3.68157 36 4.51C36 5.24638 35.4797 5.85883 34.78 5.98583L34.5 6.01L1.5 6.01C0.671573 6.01 0 5.33843 0 4.51C0 3.77362 0.530625 3.16117 1.23037 3.03417L1.5 3.01L34.5 3.01Z" fill="var(--tiny-second-color)" fill-rule="evenodd" transform="matrix(0,-1,1,0,18.9038,42.0859)"/>
</svg>