<svg viewBox="0 0 48 48" xmlns="http://www.w3.org/2000/svg" xmlns:xlink="http://www.w3.org/1999/xlink" width="48.000000" height="48.000000" fill="none">
  <path id="path-1" d="M9.90002 34.4001C11.0046 34.4001 11.9 35.2955 11.9 36.4001C11.9 37.5047 11.0046 38.4001 9.90002 38.4001C8.79545 38.4001 7.90002 37.5047 7.90002 36.4001C7.90002 35.2955 8.79545 34.4001 9.90002 34.4001ZM38.1 34.4001C39.2046 34.4001 40.1 35.2955 40.1 36.4001C40.1 37.5047 39.2046 38.4001 38.1 38.4001L15.7 38.4001C14.5955 38.4001 13.7 37.5047 13.7 36.4001C13.7 35.2955 14.5955 34.4001 15.7 34.4001L38.1 34.4001ZM9.90002 22.0001C11.0046 22.0001 11.9 22.8955 11.9 24.0001C11.9 25.1047 11.0046 26.0001 9.90002 26.0001C8.79545 26.0001 7.90002 25.1047 7.90002 24.0001C7.90002 22.8955 8.79545 22.0001 9.90002 22.0001ZM37.9 22.0001C39.0046 22.0001 39.9 22.8955 39.9 24.0001C39.9 25.1047 39.0046 26.0001 37.9 26.0001L15.7 26.0001C14.5955 26.0001 13.7 25.1047 13.7 24.0001C13.7 22.8955 14.5955 22.0001 15.7 22.0001L37.9 22.0001ZM9.90002 9.6001C11.0046 9.6001 11.9 10.4955 11.9 11.6001C11.9 12.7047 11.0046 13.6001 9.90002 13.6001C8.79545 13.6001 7.90002 12.7047 7.90002 11.6001C7.90002 10.4955 8.79545 9.6001 9.90002 9.6001ZM37.9452 9.6001C39.0498 9.6001 39.9452 10.4955 39.9452 11.6001C39.9452 12.7047 39.0498 13.6001 37.9452 13.6001L15.7 13.6001C14.5955 13.6001 13.7 12.7047 13.7 11.6001C13.7 10.4955 14.5955 9.6001 15.7 9.6001L37.9452 9.6001Z" fill="var(--tiny-first-color, #191919)" fill-rule="nonzero"/>
  <path id="path-1" d="M9.90002 34.4001C11.0046 34.4001 11.9 35.2955 11.9 36.4001C11.9 37.5047 11.0046 38.4001 9.90002 38.4001C8.79545 38.4001 7.90002 37.5047 7.90002 36.4001C7.90002 35.2955 8.79545 34.4001 9.90002 34.4001ZM9.90002 22.0001C11.0046 22.0001 11.9 22.8955 11.9 24.0001C11.9 25.1047 11.0046 26.0001 9.90002 26.0001C8.79545 26.0001 7.90002 25.1047 7.90002 24.0001C7.90002 22.8955 8.79545 22.0001 9.90002 22.0001ZM9.90002 9.6001C11.0046 9.6001 11.9 10.4955 11.9 11.6001C11.9 12.7047 11.0046 13.6001 9.90002 13.6001C8.79545 13.6001 7.90002 12.7047 7.90002 11.6001C7.90002 10.4955 8.79545 9.6001 9.90002 9.6001Z" fill="var(--tiny-second-color, #aeaeAE)" fill-rule="nonzero"/>
</svg>
