<svg viewBox="0 0 48 48" xmlns="http://www.w3.org/2000/svg" xmlns:xlink="http://www.w3.org/1999/xlink" width="48.000000" height="48.000000">
  <path id="形状结合" d="M11 5.97C12.8363 5.97 14.3424 7.38422 14.4884 9.18295L14.5 9.47L14.5 36.48C14.5 38.3163 13.0858 39.8314 11.2871 39.9783L11 39.99L3.5 39.99C1.66365 39.99 0.157616 38.5668 0.0116024 36.7671L0 36.48L0 9.47C0 7.63365 1.41422 6.12761 3.21295 5.9816L3.5 5.97L11 5.97ZM28.49 5.97C30.3263 5.97 31.8324 7.38422 31.9784 9.18295L31.99 9.47L31.99 26.46C31.99 28.2963 30.5758 29.8114 28.7771 29.9583L28.49 29.97L20.99 29.97C19.1537 29.97 17.6476 28.5468 17.5016 26.7471L17.49 26.46L17.49 9.47C17.49 7.63365 18.9042 6.12761 20.7029 5.9816L20.99 5.97L28.49 5.97ZM30.48 0C31.3084 0 31.98 0.671573 31.98 1.5C31.98 2.23638 31.4497 2.84882 30.75 2.97583L30.48 3L1.51002 3C0.681592 3 0.0100193 2.32843 0.0100193 1.5C0.0100193 0.76362 0.540645 0.151175 1.24039 0.0241671L1.51002 0L30.48 0Z" fill="var(--tiny-first-color)" fill-rule="evenodd" transform="matrix(0,1,-1,0,43.9951,8.00488)"/>
  <path id="形状结合" d="M30.47 0C31.2984 0 31.97 0.671573 31.97 1.5C31.97 2.23638 31.4397 2.84882 30.74 2.97583L30.47 3L1.5 3C0.671573 3 0 2.32843 0 1.5C0 0.76362 0.530625 0.151175 1.23037 0.0241671L1.5 0L30.47 0Z" fill="var(--tiny-second-color)" fill-rule="evenodd" transform="matrix(0,1,-1,0,43.9951,8.01514)"/>
</svg>