<svg viewBox="0 0 48 48" xmlns="http://www.w3.org/2000/svg" xmlns:xlink="http://www.w3.org/1999/xlink" width="48.000000" height="48.000000" fill="none">
  <path id="形状结合" d="M30.5 17.49C32.433 17.49 34 19.057 34 20.99L34 28.49C34 30.423 32.433 31.99 30.5 31.99L13.51 31.99C11.577 31.99 10 30.423 10 28.49L10 20.99C10 19.057 11.577 17.49 13.51 17.49L30.5 17.49ZM38.49 0.0100193C39.2264 0.0100193 39.8388 0.540645 39.9658 1.24039L39.99 1.51002L39.99 30.48C39.99 31.3084 39.3184 31.98 38.49 31.98C37.7536 31.98 37.1412 31.4497 37.0142 30.75L36.99 30.48L36.99 1.51002C36.99 0.681592 37.6616 0.0100193 38.49 0.0100193ZM30.5 20.49L13.51 20.49C13.2339 20.49 13 20.7139 13 20.99L13 28.49C13 28.7661 13.2339 28.99 13.51 28.99L30.5 28.99C30.7761 28.99 31 28.7661 31 28.49L31 20.99C31 20.7139 30.7761 20.49 30.5 20.49ZM30.5 0C32.433 0 34 1.567 34 3.5L34 11C34 12.933 32.433 14.5 30.5 14.5L3.51 14.5C1.577 14.5 0 12.933 0 11L0 3.5C0 1.567 1.577 0 3.51 0L30.5 0ZM30.52 3L3.51 3C3.23386 3 3 3.22386 3 3.5L3 11C3 11.2761 3.23386 11.5 3.51 11.5L30.52 11.5C30.7961 11.5 31.02 11.2761 31.02 11L31.02 3.5C31.02 3.22386 30.7961 3 30.52 3Z" fill="var(--tiny-first-color, #191919)" fill-rule="evenodd" transform="matrix(-1,0,0,1,43.9951,8.00488)"/>
  <path id="形状结合" d="M1.5 0C2.23638 0 2.84883 0.530625 2.97583 1.23037L3 1.5L3 30.47C3 31.2984 2.32843 31.97 1.5 31.97C0.763622 31.97 0.151176 31.4397 0.0241699 30.74L0 30.47L0 1.5C0 0.671573 0.671574 0 1.5 0Z" fill="var(--tiny-second-color, #aeaeAE)" fill-rule="evenodd" transform="matrix(-1,0,0,1,7.00513,8.01514)"/>
</svg>
