<svg viewBox="0 0 48 48" xmlns="http://www.w3.org/2000/svg" xmlns:xlink="http://www.w3.org/1999/xlink" width="48.000000" height="48.000000" fill="none">
  <path id="合并" d="M10.5 8L10.5 23L26.5 23L26.5 8C26.5 6.88 27.38 6 28.5 6C29.62 6 30.5 6.88 30.5 8L30.5 40C30.5 41.12 29.62 42 28.5 42C27.38 42 26.5 41.12 26.5 40L26.5 27L10.5 27L10.5 40C10.5 41.12 9.62 42 8.5 42C7.38 42 6.5 41.12 6.5 40L6.5 8C6.5 6.88 7.38 6 8.5 6C9.62 6 10.5 6.88 10.5 8ZM40.5957 27.6362C39.8341 27.2083 38.9603 27 37.9977 27C36.7822 27 35.6757 27.3401 34.7224 28.0164C34.0621 28.4849 33.649 28.9509 33.2161 29.668C32.788 30.377 33.0157 31.2991 33.7249 31.7273C34.4341 32.1555 35.3561 31.9277 35.7843 31.2185C36.015 30.8364 36.1555 30.678 36.4583 30.4631C36.8951 30.1531 37.3936 30 37.9977 30C38.4662 30 38.8345 30.0879 39.1258 30.2515C39.4069 30.4094 39.6076 30.6118 39.7531 30.8806C39.9115 31.1731 39.9937 31.5193 39.9937 31.9417C39.9937 32.3433 39.9015 32.7041 39.7123 33.0476C39.4635 33.499 38.9688 34.1543 38.2379 34.9824L33.6824 39.427L33.5439 39.5808C32.7923 40.5342 33.4565 42 34.7306 42L42.5003 42L42.7038 41.9863C43.4359 41.887 44.0003 41.2593 44.0003 40.5L43.9865 40.2964C43.8872 39.5642 43.2597 39 42.5003 39L38.4122 39L40.4106 37.0481L40.748 36.6624C41.5006 35.7878 42.0119 35.0906 42.3399 34.4954C42.7742 33.707 42.9937 32.8479 42.9937 31.9417C42.9937 31.0352 42.7949 30.1978 42.3911 29.4519C41.9743 28.6826 41.3674 28.0698 40.5957 27.6362Z" fill="var(--tiny-first-color)" fill-rule="evenodd"/>
  <path d="M42.0674 28.1527Q41.5415 27.5941 40.8406 27.2003L40.8406 27.2003Q40.7312 27.1389 40.6192 27.0828Q39.4542 26.5 37.9977 26.5Q36.7602 26.5 35.6904 26.9237Q35.0297 27.1853 34.433 27.6086Q33.8998 27.9869 33.5135 28.4132Q33.1424 28.8226 32.7881 29.4095Q32.6747 29.5972 32.6058 29.8001Q32.5469 29.9732 32.5204 30.1573Q32.4939 30.3411 32.5013 30.5235Q32.5095 30.724 32.5586 30.9228Q32.6077 31.1215 32.6937 31.3025Q32.7721 31.4676 32.8813 31.6181Q32.9904 31.7686 33.123 31.8943Q33.2785 32.0418 33.4665 32.1553Q33.6545 32.2688 33.8576 32.3379Q34.0305 32.3966 34.2144 32.4231Q34.3984 32.4496 34.581 32.4421Q34.7813 32.4339 34.9799 32.3848Q35.1786 32.3358 35.3597 32.2497Q35.5247 32.1713 35.6752 32.0622Q35.8258 31.953 35.9516 31.8202Q36.099 31.6647 36.2123 31.477Q36.3618 31.2294 36.4675 31.1108Q36.5672 30.9989 36.7476 30.8709Q36.8364 30.8079 36.9311 30.7556Q37.3938 30.5 37.9977 30.5Q38.5472 30.5 38.8809 30.6874Q39.0822 30.8005 39.2144 30.9681Q39.27 31.0386 39.3134 31.1188Q39.4937 31.4516 39.4937 31.9417Q39.4937 32.223 39.4139 32.4794Q39.3614 32.6482 39.2744 32.8063Q38.9153 33.4578 37.8753 34.6376L33.3216 39.0804L33.1614 39.2584L33.1512 39.2713Q32.9566 39.5182 32.8512 39.7987Q32.7585 40.0453 32.7349 40.3179Q32.7138 40.5621 32.7501 40.7975Q32.7947 41.087 32.9262 41.363Q33.0622 41.6483 33.2673 41.8694Q33.4258 42.0403 33.6257 42.1728Q33.8248 42.3048 34.0432 42.3836Q34.3659 42.5 34.7306 42.5L42.517 42.5L42.7542 42.4841L42.771 42.4818Q42.9521 42.4572 43.1229 42.4013Q43.2935 42.3454 43.4539 42.2583Q43.6047 42.1764 43.7375 42.0717Q43.88 41.9594 44.0019 41.821Q44.1271 41.6787 44.222 41.5185Q44.3067 41.3755 44.3673 41.2182Q44.4272 41.0626 44.4601 40.9015Q44.5003 40.7049 44.5003 40.5L44.5003 40.4832L44.4843 40.2459L44.482 40.2292Q44.4574 40.0478 44.4013 39.8767Q44.3455 39.7064 44.2586 39.5463Q44.1767 39.3955 44.072 39.2626Q43.9597 39.1202 43.8213 38.9983Q43.6792 38.8733 43.5193 38.7785Q43.3761 38.6936 43.2185 38.633Q43.0633 38.5732 42.9025 38.5403Q42.7055 38.5 42.5003 38.5L39.6397 38.5L40.774 37.3921L41.127 36.9885Q42.267 35.6638 42.7778 34.7366Q43.1128 34.1286 43.291 33.4777Q43.4937 32.7374 43.4937 31.9417Q43.4937 30.7243 43.0589 29.6896Q42.9568 29.4466 42.8307 29.2137Q42.5115 28.6245 42.0674 28.1527Z" fill="var(--tiny-second-color)" fill-rule="evenodd" stroke="var(--tiny-second-color, #aeaeAE)"/>
</svg>