<svg viewBox="0 0 48 48" xmlns="http://www.w3.org/2000/svg" xmlns:xlink="http://www.w3.org/1999/xlink" width="48.000000" height="48.000000" fill="none">
  <path id="形状结合" d="M21.4869 7.79476L21.5 8.00008L21.5015 15.5345C29.9857 15.9287 35.9726 19.6894 39.7682 25.6991C41.1642 27.9094 42.1573 30.2679 42.8192 32.6259L42.9451 33.0889L43.1553 33.9429L43.3136 34.6929L43.4243 35.3295C43.4538 35.5218 43.476 35.6935 43.4918 35.843C43.5785 36.6669 42.9809 37.4051 42.157 37.4918C41.3332 37.5786 40.595 36.981 40.5082 36.1571L40.4614 35.8186L40.3988 35.45C40.2898 34.846 40.1363 34.1686 39.9308 33.4367C39.3427 31.3417 38.4608 29.247 37.2318 27.3011C33.7475 21.7843 28.2162 18.5001 20 18.5001C19.1716 18.5001 18.5 17.8285 18.5 17.0001L18.499 11.6189L8.119 21.9989L18.499 32.3789L18.5 27.0001C18.5 26.2407 19.0643 25.6131 19.7965 25.5138L20 25.5001C26.4083 25.5003 31.586 26.5996 35.653 28.5589C36.3994 28.9185 36.7129 29.815 36.3534 30.5613C35.9938 31.3076 35.0973 31.6212 34.351 31.2616C31.0167 29.6553 26.7731 28.6775 21.5042 28.5221L21.5 36.0001C21.5 37.2661 20.0499 37.9334 19.0938 37.1967L4.93934 23.0607C4.40681 22.5282 4.35839 21.6949 4.7941 21.1077L18.9393 6.93942C19.8346 6.0442 21.3318 6.59774 21.4869 7.79476Z" fill="var(--tiny-first-color)" fill-rule="evenodd"/>
</svg>