<svg viewBox="0 0 48 48" xmlns="http://www.w3.org/2000/svg" xmlns:xlink="http://www.w3.org/1999/xlink" width="48.000000" height="48.000000">
  <path id="矢量 110" d="M36.7044 11.7061C37.0686 12.4501 36.7606 13.3486 36.0166 13.7128C35.2725 14.077 34.374 13.7691 34.0098 13.025C32.7274 10.4051 28.9956 8.5 24.6635 8.5C19.1568 8.5 14.8557 11.5276 14.8557 14.9598C14.8557 18.5486 17.9631 21.2494 24.2894 22.4436L24.9117 22.5544C33.7657 24.04 37.9998 27.2623 37.4563 33.3971C36.9365 39.2654 31.5776 42.5 24.7026 42.5C17.9113 42.5 11.9116 39.2385 10.5426 33.6199C10.3465 32.815 10.84 32.0035 11.6449 31.8074C12.4498 31.6113 13.2612 32.1048 13.4573 32.9096C14.44 36.9425 19.1444 39.5 24.7026 39.5C30.2067 39.5 34.1128 37.1423 34.468 33.1324C34.8248 29.1045 32.0814 26.8973 25.0302 25.6203L24.4152 25.513C16.3847 24.1656 11.8557 20.3929 11.8557 14.9598C11.8557 9.59979 17.6798 5.5 24.6635 5.5C30.0573 5.5 34.8688 7.95636 36.7044 11.7061Z" fill="var(--tiny-first-color)" fill-rule="evenodd" stroke="var(--tiny-first-color, #191919)" stroke-width="1"/>
  <path id="矢量 1835(边框)" d="M7.5 21L40 21C41.12 21 42 21.88 42 23C42 24.12 41.12 25 40 25L7.5 25C6.38 25 5.5 24.12 5.5 23C5.5 21.88 6.38 21 7.5 21Z" fill="var(--tiny-second-color)" fill-rule="evenodd"/>
</svg>