<svg viewBox="0 0 48 48" xmlns="http://www.w3.org/2000/svg" xmlns:xlink="http://www.w3.org/1999/xlink" width="48.000000" height="48.000000" fill="none">
  <path id="矢量 224" d="M32.0057 9.61695C32.3885 8.99403 32.2676 8.1681 31.6907 7.68397C31.0562 7.1515 30.11 7.23427 29.5775 7.86891L17.9994 21.665L6.42254 7.86891C5.87555 7.38368 4.88623 7.19984 4.30926 7.68397C3.67468 8.21644 3.59192 9.16261 4.12439 9.79725L16.0414 23.999L4.12439 38.2026C3.74151 38.8256 3.73236 39.8318 4.30926 40.3159C4.94391 40.8484 5.89001 40.7656 6.42254 40.131L17.9994 26.333L29.5775 40.131C30.1245 40.6162 31.1138 40.8 31.6907 40.3159C32.3254 39.7834 32.4081 38.8373 31.8756 38.2026L19.9575 23.999L32.0057 9.61695ZM38.4975 5.5C39.4601 5.5 40.3338 5.70813 41.0955 6.13623C41.8672 6.56995 42.4741 7.1825 42.8909 7.95202C43.2946 8.69763 43.4935 9.53503 43.4935 10.4416C43.4935 11.348 43.274 12.2071 42.8396 12.9954C42.5117 13.5906 42.0003 14.288 41.2478 15.1622L40.9104 15.5481L38.912 17.5L43 17.5C43.7594 17.5 44.387 18.0643 44.4863 18.7964L44.5 19C44.5 19.7594 43.9357 20.387 43.2035 20.4863L43 20.5L35.2303 20.5C33.9564 20.5 33.2921 19.0342 34.0436 18.0808L38.7376 13.4824C39.4685 12.6544 39.9633 11.9991 40.2121 11.5476C40.4013 11.2042 40.4935 10.8434 40.4935 10.4416C40.4935 10.0194 40.4113 9.67322 40.2529 9.38061C40.1074 9.11194 39.9067 8.90942 39.6255 8.75146C39.3343 8.58777 38.966 8.5 38.4975 8.5C37.8934 8.5 37.3949 8.6532 36.958 8.96313C36.6553 9.17785 36.5148 9.33642 36.2841 9.7185C35.8559 10.4276 34.9339 10.6554 34.2247 10.2273C33.5155 9.79907 33.2877 8.87707 33.7159 8.16784C34.1488 7.45093 34.5619 6.98474 35.2222 6.51636C36.1755 5.83997 37.282 5.5 38.4975 5.5Z" fill="var(--tiny-first-color, #191919)" fill-rule="evenodd"/>
  <path id="矢量 225" d="M38.4976 5.5C39.4602 5.5 40.3339 5.70813 41.0955 6.13623C41.8673 6.56995 42.4742 7.1825 42.891 7.95202C43.2947 8.69763 43.4936 9.53503 43.4936 10.4416C43.4936 11.348 43.2741 12.2071 42.8397 12.9954C42.5117 13.5906 42.0004 14.288 41.2479 15.1622L40.9105 15.5481L38.9121 17.5L43.0001 17.5C43.7595 17.5 44.3871 18.0643 44.4864 18.7964L44.5001 19C44.5001 19.7594 43.9358 20.387 43.2036 20.4863L43.0001 20.5L35.2304 20.5C33.9564 20.5 33.2922 19.0342 34.0437 18.0808L38.7377 13.4824C39.4686 12.6544 39.9634 11.9991 40.2122 11.5476C40.4014 11.2042 40.4936 10.8434 40.4936 10.4416C40.4936 10.0194 40.4114 9.67322 40.253 9.38061C40.1074 9.11194 39.9068 8.90942 39.6256 8.75146C39.3344 8.58777 38.9661 8.5 38.4976 8.5C37.8935 8.5 37.395 8.6532 36.9581 8.96313C36.6554 9.17785 36.5149 9.33642 36.2842 9.7185C35.856 10.4276 34.934 10.6554 34.2248 10.2273C33.5156 9.79907 33.2878 8.87707 33.716 8.16784C34.1489 7.45093 34.562 6.98474 35.2223 6.51636C36.1756 5.83997 37.2821 5.5 38.4976 5.5Z" fill="var(--tiny-second-color, #aeaeAE)" fill-rule="evenodd"/>
</svg>
