<svg viewBox="0 0 48 48" xmlns="http://www.w3.org/2000/svg" xmlns:xlink="http://www.w3.org/1999/xlink" width="48.000000" height="48.000000">
  <path id="路径" d="M42 7.5C42 6.67157 41.3284 6 40.5 6C39.7406 6 39.113 6.56431 39.0137 7.29646L39 7.5L39 40.5C39 41.3284 39.6716 42 40.5 42C41.2594 42 41.887 41.4357 41.9863 40.7035L42 40.5L42 7.5Z" fill="var(--tiny-first-color)" fill-rule="evenodd"/>
  <path id="路径" d="M6 12C6 8.80464 8.49784 6.19268 11.6475 6.01019L12 6L35.5 6C36.3284 6 37 6.67157 37 7.5C37 8.25939 36.4357 8.88698 35.7035 8.98631L35.5 9L12 9C10.4406 9 9.1591 10.1898 9.01373 11.7111L9 12L9 36C9 37.5594 10.1898 38.8409 11.7111 38.9863L12 39L35.5 39C36.3284 39 37 39.6716 37 40.5C37 41.2594 36.4357 41.887 35.7035 41.9863L35.5 42L12 42C8.80464 42 6.19268 39.5022 6.01019 36.3525L6 36L6 12Z" fill="var(--tiny-second-color)" fill-rule="evenodd"/>
</svg>