<svg viewBox="0 0 48 48" xmlns="http://www.w3.org/2000/svg" xmlns:xlink="http://www.w3.org/1999/xlink" width="48.000000" height="48.000000" fill="none">
  <path id="形状结合" d="M14.9869 21.9338C15.7233 21.9338 16.3358 22.4645 16.4628 23.1642L16.4869 23.4338L16.4869 32.55C16.4869 34.3284 15.1414 35.7924 13.4129 35.9798L13.0369 36L5.44695 36C3.66859 36 2.2045 34.6545 2.01719 32.9259L1.99695 32.55L1.99695 23.4338C1.99695 22.6054 2.66852 21.9338 3.49695 21.9338C4.23333 21.9338 4.84577 22.4645 4.97278 23.1642L4.99695 23.4338L4.99695 32.55C4.99695 32.7488 5.12589 32.9175 5.30471 32.9771L13.0369 33C13.2358 33 13.4045 32.8711 13.464 32.6922L13.4869 23.4338C13.4869 22.6054 14.1585 21.9338 14.9869 21.9338ZM32.49 21.9338C33.2264 21.9338 33.8388 22.4645 33.9658 23.1642L33.99 23.4338L33.99 26.4638C33.99 28.2422 32.6445 29.7063 30.9159 29.8936L30.54 29.9138L22.95 29.9138C21.1716 29.9138 19.7076 28.5683 19.5202 26.8398L19.5 26.4638L19.5 23.4338C19.5 22.6054 20.1716 21.9338 21 21.9338C21.7364 21.9338 22.3488 22.4645 22.4758 23.1642L22.5 23.4338L22.5 26.4638C22.5 26.6627 22.6289 26.8314 22.8078 26.8909L30.54 26.9138C30.7388 26.9138 30.9075 26.7849 30.9671 26.6061L30.99 23.4338C30.99 22.6054 31.6616 21.9338 32.49 21.9338ZM34.5 15.9138C35.3284 15.9138 36 16.5854 36 17.4138C36 18.1502 35.4797 18.7627 34.78 18.8897L34.5 18.9138L1.5 18.9138C0.671573 18.9138 0 18.2423 0 17.4138C0 16.6775 0.530625 16.065 1.23037 15.938L1.5 15.9138L34.5 15.9138ZM13.0369 0C14.8153 0 16.2794 1.34553 16.4667 3.07408L16.4869 3.45L16.4869 11.4038C16.4869 12.2323 15.8154 12.9038 14.9869 12.9038C14.2506 12.9038 13.6381 12.3732 13.5111 11.6735L13.4869 11.4038L13.4869 3.45C13.4869 3.25118 13.358 3.08247 13.1792 3.02294L5.44695 3C5.24813 3 5.07942 3.12894 5.01989 3.30777L4.99695 11.4038C4.99695 12.2323 4.32538 12.9038 3.49695 12.9038C2.76057 12.9038 2.14812 12.3732 2.02112 11.6735L1.99695 11.4038L1.99695 3.45C1.99695 1.67164 3.34248 0.207552 5.07103 0.0202441L5.44695 0L13.0369 0ZM30.54 5.91385C32.3184 5.91385 33.7824 7.25938 33.9698 8.98793L33.99 9.36385L33.99 11.4038C33.99 12.2323 33.3184 12.9038 32.49 12.9038C31.7536 12.9038 31.1412 12.3732 31.0142 11.6735L30.99 11.4038L30.99 9.36385C30.99 9.16503 30.8611 8.99632 30.6822 8.93679L22.95 8.91385C22.7512 8.91385 22.5825 9.04279 22.5229 9.22161L22.5 11.4038C22.5 12.2323 21.8284 12.9038 21 12.9038C20.2636 12.9038 19.6512 12.3732 19.5242 11.6735L19.5 11.4038L19.5 9.36385C19.5 7.58549 20.8455 6.1214 22.5741 5.93409L22.95 5.91385L30.54 5.91385Z" fill="var(--tiny-first-color, #191919)" fill-rule="evenodd" transform="matrix(0,-1,1,0,6,42.0859)"/>
  <path id="形状结合" d="M34.5 6.92592C35.3284 6.92592 36 7.59749 36 8.42592C36 9.1623 35.4797 9.77474 34.78 9.90175L34.5 9.92592L1.5 9.92592C0.671573 9.92592 0 9.25434 0 8.42592C0 7.68954 0.530625 7.07709 1.23037 6.95008L1.5 6.92592L34.5 6.92592Z" fill="var(--tiny-second-color, #aeaeAE)" fill-rule="evenodd" transform="matrix(0,-1,1,0,15,42)"/>
</svg>
