<svg viewBox="0 0 48 48" xmlns="http://www.w3.org/2000/svg" xmlns:xlink="http://www.w3.org/1999/xlink" width="48.000000" height="48.000000">
  <path id="矢量 224" d="M32.0057 9.61694C32.3885 8.99402 32.2676 8.16809 31.6907 7.68396C31.0562 7.15149 30.11 7.23425 29.5775 7.8689L17.9995 21.665L6.42255 7.8689C5.87555 7.38367 4.88623 7.19983 4.30927 7.68396C3.67468 8.21643 3.59192 9.1626 4.12439 9.79724L16.0414 23.999L4.12439 38.2026C3.74152 38.8255 3.73236 39.8318 4.30927 40.3159C4.94391 40.8484 5.89001 40.7656 6.42255 40.131L17.9995 26.333L29.5775 40.131C30.1245 40.6162 31.1138 40.8 31.6907 40.3159C32.3254 39.7834 32.4081 38.8373 31.8756 38.2026L19.9575 23.999L32.0057 9.61694ZM38.4975 25.5C39.4601 25.5 40.3338 25.7081 41.0955 26.1362C41.8672 26.5699 42.4741 27.1825 42.8909 27.952C43.2946 28.6976 43.4935 29.535 43.4935 30.4416C43.4935 31.348 43.274 32.2071 42.8396 32.9953C42.5117 33.5906 42.0003 34.2879 41.2478 35.1622L40.9104 35.5481L38.912 37.5L43 37.5C43.7594 37.5 44.387 38.0643 44.4863 38.7964L44.5 39C44.5 39.7594 43.9357 40.3869 43.2036 40.4863L43 40.5L35.2303 40.5C33.9564 40.5 33.2921 39.0342 34.0436 38.0808L38.7376 33.4824C39.4685 32.6544 39.9633 31.9991 40.2121 31.5476C40.4013 31.2042 40.4935 30.8434 40.4935 30.4416C40.4935 30.0194 40.4113 29.6732 40.2529 29.3806C40.1074 29.1119 39.9067 28.9094 39.6255 28.7514C39.3343 28.5878 38.966 28.5 38.4975 28.5C37.8934 28.5 37.3949 28.6532 36.958 28.9631C36.6553 29.1778 36.5148 29.3364 36.2841 29.7185C35.8559 30.4276 34.9339 30.6554 34.2247 30.2273C33.5155 29.7991 33.2877 28.8771 33.7159 28.1678C34.1488 27.4509 34.5619 26.9847 35.2222 26.5163C36.1755 25.84 37.282 25.5 38.4975 25.5Z" fill="var(--tiny-first-color)" fill-rule="evenodd"/>
  <path id="矢量 225" d="M38.4976 25.5C39.4602 25.5 40.3339 25.7081 41.0955 26.1362C41.8673 26.5699 42.4742 27.1825 42.891 27.952C43.2947 28.6976 43.4936 29.535 43.4936 30.4416C43.4936 31.348 43.2741 32.2071 42.8397 32.9954C42.5117 33.5906 42.0004 34.288 41.2479 35.1622L40.9105 35.5481L38.9121 37.5L43.0001 37.5C43.7595 37.5 44.3871 38.0643 44.4864 38.7964L44.5001 39C44.5001 39.7594 43.9358 40.387 43.2036 40.4863L43.0001 40.5L35.2304 40.5C33.9564 40.5 33.2922 39.0342 34.0437 38.0808L38.7377 33.4824C39.4686 32.6544 39.9634 31.9991 40.2122 31.5476C40.4014 31.2042 40.4936 30.8434 40.4936 30.4416C40.4936 30.0194 40.4114 29.6732 40.253 29.3806C40.1074 29.1119 39.9068 28.9094 39.6256 28.7515C39.3344 28.5878 38.9661 28.5 38.4976 28.5C37.8935 28.5 37.395 28.6532 36.9581 28.9631C36.6554 29.1779 36.5149 29.3364 36.2842 29.7185C35.856 30.4276 34.934 30.6554 34.2248 30.2273C33.5156 29.7991 33.2878 28.8771 33.716 28.1678C34.1489 27.4509 34.562 26.9847 35.2223 26.5164C36.1756 25.84 37.2821 25.5 38.4976 25.5Z" fill="var(--tiny-second-color)" fill-rule="evenodd"/>
</svg>