<svg viewBox="0 0 48 48" xmlns="http://www.w3.org/2000/svg" xmlns:xlink="http://www.w3.org/1999/xlink" width="48.000000" height="48.000000" fill="none">
  <path id="形状结合" d="M6 12C6 8.80464 8.49784 6.19268 11.6475 6.01019L12 6L36 6C39.1954 6 41.8073 8.49784 41.9898 11.6475L42 12L42 36C42 39.1954 39.5022 41.8073 36.3525 41.9898L36 42L12 42C8.80464 42 6.19268 39.5022 6.01019 36.3525L6 36L6 19.4927L16.924 19.492L16.9253 42L19.9253 42L19.924 19.492L27.924 19.492L27.9253 42L30.9253 42L30.924 19.492L42 19.4927L42 16.4927L6 16.4927L6 12Z" fill="var(--tiny-first-color, #191919)" fill-rule="evenodd"/>
  <path id="矢量 1746" d="M6 12C6 8.80469 8.49786 6.19287 11.6475 6.01025L12 6L36 6C39.1954 6 41.8073 8.49805 41.9898 11.6475L42 12L42 16.4927L6 16.4927L6 12Z" fill="var(--tiny-second-color, #aeaeAE)" fill-rule="evenodd"/>
</svg>
