<svg viewBox="0 0 48 48" xmlns="http://www.w3.org/2000/svg" xmlns:xlink="http://www.w3.org/1999/xlink" width="48.000000" height="48.000000">
  <path id="形状结合" d="M37 41.002C37.8284 41.002 38.5 41.6736 38.5 42.502C38.5 43.2614 37.9357 43.889 37.2035 43.9884L37 44.002L11 44.002C10.1716 44.002 9.5 43.3305 9.5 42.502C9.5 41.7427 10.0643 41.1151 10.7965 41.0157L11 41.002L37 41.002ZM35.8096 3.99805C36.569 3.99805 37.1966 4.56236 37.2959 5.29451L37.3096 5.49805L37.3096 24.69C37.3096 32.0388 31.3497 37.998 23.9996 37.998C16.8059 37.998 10.9438 32.2897 10.6976 25.1572L10.6896 24.69L10.6896 5.49805C10.6896 4.66962 11.3612 3.99805 12.1896 3.99805C12.949 3.99805 13.5766 4.56236 13.6759 5.29451L13.6896 5.49805L13.6896 24.69C13.6896 30.3819 18.3063 34.998 23.9996 34.998C29.5469 34.998 34.0721 30.6156 34.3006 25.1257L34.3096 24.69L34.3096 5.49805C34.3096 4.66962 34.9812 3.99805 35.8096 3.99805Z" fill="var(--tiny-first-color)" fill-rule="evenodd"/>
  <path id="形状结合" d="M37 41.002C37.8284 41.002 38.5 41.6735 38.5 42.502C38.5 43.2613 37.9357 43.8889 37.2035 43.9883L37 44.002L11 44.002C10.1716 44.002 9.5 43.3304 9.5 42.502C9.5 41.7426 10.0643 41.115 10.7965 41.0156L11 41.002L37 41.002Z" fill="var(--tiny-second-color)" fill-rule="evenodd"/>
</svg>