<svg viewBox="0 0 48 48" xmlns="http://www.w3.org/2000/svg" xmlns:xlink="http://www.w3.org/1999/xlink" width="48.000000" height="48.000000" fill="none">
  <path id="形状结合" d="M37 40.501C38.1046 40.501 39 41.3965 39 42.501C39 43.5267 38.2279 44.372 37.2332 44.4876L37 44.501L11 44.501C9.89543 44.501 9 43.6056 9 42.501C9 41.4753 9.77208 40.63 10.7668 40.5145L11 40.501L37 40.501ZM35.8096 3.49902C36.8353 3.49902 37.6806 4.2711 37.7961 5.26578L37.8096 5.49902L37.8096 24.691C37.8096 32.316 31.6258 38.499 23.9996 38.499C16.5323 38.499 10.4479 32.5709 10.1976 25.1657L10.1896 24.691L10.1896 5.49902C10.1896 4.39445 11.085 3.49902 12.1896 3.49902C13.2153 3.49902 14.0606 4.2711 14.1761 5.26578L14.1896 5.49902L14.1896 24.691C14.1896 30.1067 18.5824 34.499 23.9996 34.499C29.2704 34.499 33.5714 30.3409 33.8 25.1278L33.8096 24.691L33.8096 5.49902C33.8096 4.39445 34.705 3.49902 35.8096 3.49902Z" fill="var(--tiny-first-color)" fill-rule="evenodd"/>
  <path id="形状结合" d="M37 40.5019C38.1046 40.5019 39 41.3973 39 42.5019C39 43.5276 38.2279 44.3729 37.2332 44.4884L37 44.5019L11 44.5019C9.89543 44.5019 9 43.6065 9 42.5019C9 41.4762 9.77208 40.6309 10.7668 40.5154L11 40.5019L37 40.5019Z" fill="var(--tiny-second-color)" fill-rule="evenodd"/>
</svg>