<svg viewBox="0 0 48 48" xmlns="http://www.w3.org/2000/svg" xmlns:xlink="http://www.w3.org/1999/xlink" width="48.000000" height="48.000000" fill="none">
  <path id="路径" d="M5.5 7.5C5.5 6.39543 6.39543 5.5 7.5 5.5C8.52567 5.5 9.37101 6.27208 9.48654 7.26676L9.5 7.5L9.5 40.5C9.5 41.6046 8.60457 42.5 7.5 42.5C6.47433 42.5 5.62899 41.7279 5.51346 40.7332L5.5 40.5L5.5 7.5Z" fill="var(--tiny-first-color, #191919)" fill-rule="evenodd"/>
  <path id="路径" d="M42.5 36C42.5 39.4661 39.7871 42.2985 36.3688 42.4897L36 42.5L13.5 42.5C12.3954 42.5 11.5 41.6046 11.5 40.5C11.5 39.4743 12.2721 38.629 13.2668 38.5135L13.5 38.5L36 38.5C37.2944 38.5 38.3591 37.5163 38.4871 36.2556L38.5 36L38.5 12C38.5 10.7056 37.5163 9.64093 36.2556 9.51291L36 9.5L13.5 9.5C12.3954 9.5 11.5 8.60457 11.5 7.5C11.5 6.47433 12.2721 5.62899 13.2668 5.51346L13.5 5.5L36 5.5C39.4661 5.5 42.2985 8.21291 42.4897 11.6312L42.5 12L42.5 36Z" fill="var(--tiny-second-color, #aeaeAE)" fill-rule="evenodd"/>
</svg>
