<svg viewBox="0 0 48 48" xmlns="http://www.w3.org/2000/svg" xmlns:xlink="http://www.w3.org/1999/xlink" width="48.000000" height="48.000000">
  <path id="矢量 110" d="M24.6635 5.5C30.0573 5.5 34.8688 7.95636 36.7043 11.7061C37.0685 12.4501 36.7606 13.3486 36.0165 13.7128C35.2725 14.077 34.374 13.7691 34.0098 13.025C32.7274 10.4051 28.9956 8.5 24.6635 8.5C19.1568 8.5 14.8557 11.5276 14.8557 14.9598C14.8557 17.7965 16.7972 20.0784 20.7351 21.5L40 21.5C40.8284 21.5 41.5 22.1716 41.5 23C41.5 23.7594 40.9357 24.3869 40.2036 24.4863L40 24.5L31.872 24.5C35.951 26.3467 37.8294 29.1856 37.4563 33.3971C36.9365 39.2654 31.5776 42.5 24.7026 42.5C17.9113 42.5 11.9116 39.2385 10.5426 33.6199C10.3465 32.815 10.84 32.0035 11.6449 31.8074C12.4498 31.6113 13.2612 32.1048 13.4573 32.9096C14.44 36.9425 19.1444 39.5 24.7026 39.5C30.2067 39.5 34.1128 37.1423 34.468 33.1324C34.8248 29.1045 32.0814 26.8973 25.0302 25.6203L24.4152 25.513C22.9043 25.2595 21.5173 24.9201 20.261 24.5L8 24.5C7.17157 24.5 6.5 23.8284 6.5 23C6.5 22.2406 7.06433 21.613 7.79645 21.5137L8 21.5L14.8154 21.5C12.879 19.7499 11.8557 17.5424 11.8557 14.9598C11.8557 9.59979 17.6798 5.5 24.6635 5.5Z" fill="var(--tiny-first-color)" fill-rule="evenodd"/>
  <path id="矢量 111" d="M40 21.5C40.8284 21.5 41.5 22.1716 41.5 23C41.5 23.7594 40.9357 24.387 40.2036 24.4863L40 24.5L8 24.5C7.17157 24.5 6.5 23.8284 6.5 23C6.5 22.2406 7.06433 21.613 7.79645 21.5137L8 21.5L40 21.5Z" fill="var(--tiny-second-color)" fill-rule="evenodd"/>
</svg>