<svg viewBox="0 0 48 48" xmlns="http://www.w3.org/2000/svg" xmlns:xlink="http://www.w3.org/1999/xlink" width="48.000000" height="48.000000">
  <path id="形状结合" d="M40.5 38C41.606 38 42.5 38.894 42.5 40C42.5 41.106 41.606 42 40.5 42L7.5 42C6.394 42 5.5 41.106 5.5 40C5.5 38.894 6.394 38 7.5 38L40.5 38ZM15.266 14.945C16.016 15.255 16.5 15.983 16.5 16.793L16.5 31.207C16.5 32.019 16.014 32.747 15.264 33.057C15.016 33.159 14.754 33.209 14.498 33.209C13.976 33.209 13.468 33.003 13.084 32.619L6.302 25.837C5.29 24.825 5.29 23.175 6.302 22.163L13.086 15.379C13.658 14.807 14.512 14.633 15.266 14.945ZM40.5 27.332C41.606 27.332 42.5 28.226 42.5 29.332C42.5 30.438 41.606 31.332 40.5 31.332L20.5 31.332C19.394 31.332 18.5 30.438 18.5 29.332C18.5 28.226 19.394 27.332 20.5 27.332L40.5 27.332ZM40.5 16.666C41.606 16.666 42.5 17.56 42.5 18.666C42.5 19.772 41.606 20.666 40.5 20.666L20.5 20.666C19.394 20.666 18.5 19.772 18.5 18.666C18.5 17.56 19.394 16.666 20.5 16.666L40.5 16.666ZM40.5 6C41.606 6 42.5 6.894 42.5 8C42.5 9.106 41.606 10 40.5 10L7.5 10C6.394 10 5.5 9.106 5.5 8C5.5 6.894 6.394 6 7.5 6L40.5 6Z" fill="var(--tiny-first-color)" fill-rule="evenodd"/>
  <path id="形状结合" d="M15.266 14.945C16.016 15.255 16.5 15.983 16.5 16.793L16.5 31.207C16.5 32.019 16.014 32.747 15.264 33.057C15.016 33.159 14.754 33.209 14.498 33.209C13.976 33.209 13.468 33.003 13.084 32.619L6.302 25.837C5.29 24.825 5.29 23.175 6.302 22.163L13.086 15.379C13.658 14.807 14.512 14.633 15.266 14.945Z" fill="var(--tiny-second-color)" fill-rule="evenodd"/>
</svg>