<svg viewBox="0 0 48 48" xmlns="http://www.w3.org/2000/svg" xmlns:xlink="http://www.w3.org/1999/xlink" width="48.000000" height="48.000000">
  <path id="形状结合" d="M11.2217 36.0275C12.3277 36.0275 13.2217 36.9215 13.2217 38.0275C13.2217 39.1315 12.3277 40.0275 11.2217 40.0275C10.1177 40.0275 9.22168 39.1315 9.22168 38.0275C9.22168 36.9215 10.1177 36.0275 11.2217 36.0275ZM37.2783 36.4689C38.1067 36.4689 38.7783 37.1404 38.7783 37.9689C38.7783 38.7282 38.214 39.3558 37.4818 39.4552L37.2783 39.4689L17.2783 39.4689C16.4499 39.4689 15.7783 38.7973 15.7783 37.9689C15.7783 37.2095 16.3426 36.5819 17.0747 36.4826L17.2783 36.4689L37.2783 36.4689ZM11.2217 21.9727C12.3277 21.9727 13.2217 22.8667 13.2217 23.9727C13.2217 25.0767 12.3277 25.9727 11.2217 25.9727C10.1177 25.9727 9.22168 25.0767 9.22168 23.9727C9.22168 22.8667 10.1177 21.9727 11.2217 21.9727ZM37.2783 22.4709C38.1067 22.4709 38.7783 23.1424 38.7783 23.9709C38.7783 24.7302 38.214 25.3578 37.4818 25.4572L37.2783 25.4709L17.2783 25.4709C16.4499 25.4709 15.7783 24.7993 15.7783 23.9709C15.7783 23.2115 16.3426 22.5839 17.0747 22.4846L17.2783 22.4709L37.2783 22.4709ZM11.2217 7.97266C12.3277 7.97266 13.2217 8.86666 13.2217 9.97266C13.2217 11.0767 12.3277 11.9707 11.2217 11.9707C10.1177 11.9707 9.22368 11.0767 9.22368 9.97266C9.22368 8.86666 10.1177 7.97266 11.2217 7.97266ZM37.2783 8.47266C38.1067 8.47266 38.7783 9.14423 38.7783 9.97266C38.7783 10.732 38.214 11.3596 37.4818 11.459L37.2783 11.4727L17.2783 11.4727C16.4499 11.4727 15.7783 10.8011 15.7783 9.97266C15.7783 9.21326 16.3426 8.58567 17.0747 8.48635L17.2783 8.47266L37.2783 8.47266Z" fill="var(--tiny-first-color)" fill-rule="evenodd"/>
  <path id="形状结合" d="M11.2217 36.0275C12.3277 36.0275 13.2217 36.9215 13.2217 38.0275C13.2217 39.1315 12.3277 40.0275 11.2217 40.0275C10.1177 40.0275 9.22168 39.1315 9.22168 38.0275C9.22168 36.9215 10.1177 36.0275 11.2217 36.0275ZM11.2217 21.9727C12.3277 21.9727 13.2217 22.8667 13.2217 23.9727C13.2217 25.0767 12.3277 25.9727 11.2217 25.9727C10.1177 25.9727 9.22168 25.0767 9.22168 23.9727C9.22168 22.8667 10.1177 21.9727 11.2217 21.9727ZM11.2217 7.97266C12.3277 7.97266 13.2217 8.86666 13.2217 9.97266C13.2217 11.0767 12.3277 11.9707 11.2217 11.9707C10.1177 11.9707 9.22368 11.0767 9.22368 9.97266C9.22368 8.86666 10.1177 7.97266 11.2217 7.97266Z" fill="var(--tiny-second-color)" fill-rule="evenodd"/>
</svg>