<svg viewBox="0 0 48 48" xmlns="http://www.w3.org/2000/svg" xmlns:xlink="http://www.w3.org/1999/xlink" width="48.000000" height="48.000000">
  <path id="形状结合" d="M30.5129 10.3185L42.2349 22.0385C42.5669 22.3725 42.7509 22.8145 42.7509 23.2845C42.7509 23.7565 42.5669 24.1965 42.2349 24.5305L30.5129 36.2525C30.0069 36.7565 29.2549 36.9045 28.5929 36.6325C27.9329 36.3605 27.5049 35.7205 27.5049 35.0065L27.5049 29.1005C15.6555 29.2554 11.3378 33.1213 7.77121 36.7233L7.28887 37.2125L6.53087 37.9785C6.38687 38.1205 6.19487 38.1985 6.00087 38.1985C5.89087 38.1985 5.78087 38.1745 5.67687 38.1245C5.39087 37.9885 5.22087 37.6865 5.25287 37.3685C5.27487 37.1725 7.53087 17.9545 27.5049 17.4845L27.5049 11.5645C27.5049 10.8505 27.9329 10.2085 28.5929 9.93646C29.2569 9.66246 30.0089 9.81246 30.5129 10.3185Z" fill="var(--tiny-first-color)" fill-rule="evenodd"/>
</svg>