<svg viewBox="0 0 48 48" xmlns="http://www.w3.org/2000/svg" xmlns:xlink="http://www.w3.org/1999/xlink" width="48.000000" height="48.000000" fill="none">
  <path id="路径" d="M5.5 36C5.5 39.4661 8.21291 42.2985 11.6312 42.4897L12 42.5L34.5 42.5C35.6046 42.5 36.5 41.6046 36.5 40.5C36.5 39.4743 35.7279 38.629 34.7332 38.5135L34.5 38.5L12 38.5C10.7056 38.5 9.64093 37.5163 9.51291 36.2556L9.5 36L9.5 12C9.5 10.7056 10.4837 9.64093 11.7444 9.51291L12 9.5L34.5 9.5C35.6046 9.5 36.5 8.60457 36.5 7.5C36.5 6.47433 35.7279 5.62899 34.7332 5.51346L34.5 5.5L12 5.5C8.53394 5.5 5.70151 8.21291 5.51029 11.6312L5.5 12L5.5 36Z" fill="var(--tiny-second-color)" fill-rule="evenodd"/>
  <path id="路径" d="M42.5 7.5C42.5 6.39543 41.6046 5.5 40.5 5.5C39.4743 5.5 38.629 6.27208 38.5135 7.26676L38.5 7.5L38.5 40.5C38.5 41.6046 39.3954 42.5 40.5 42.5C41.5257 42.5 42.371 41.7279 42.4865 40.7332L42.5 40.5L42.5 7.5Z" fill="var(--tiny-first-color)" fill-rule="evenodd"/>
</svg>