<svg viewBox="0 0 48 48" xmlns="http://www.w3.org/2000/svg" xmlns:xlink="http://www.w3.org/1999/xlink" width="48.000000" height="48.000000" fill="none">
  <path id="形状结合" d="M29.1879 11.0252C29.8929 11.3072 30.266 12.0642 30.0863 12.7809L20.7575 36.139C20.4498 36.9082 19.5768 37.2823 18.8076 36.9746C18.1026 36.6925 17.7295 35.9355 17.9092 35.2188L27.238 11.8608C27.5457 11.0916 28.4187 10.7175 29.1879 11.0252ZM15.2044 11.3622C15.7384 11.8934 15.789 12.7266 15.3548 13.3149L6.07556 22.666C5.36724 23.3775 5.31276 24.4903 5.91247 25.2639L15.096 34.5178C15.6803 35.1052 15.6777 36.0549 15.0904 36.6392C14.5564 37.1703 13.723 37.2165 13.1369 36.7792L3.94954 27.566C2.10092 25.7091 2.02054 22.7609 3.70805 20.8095L3.94912 20.5498L13.0831 11.3678C13.6674 10.7805 14.6171 10.778 15.2044 11.3622ZM34.7491 11.2221L44.0506 20.5494C45.8992 22.4062 45.9796 25.3545 44.2921 27.3058L44.051 27.5655L35.039 36.6255C34.4548 37.2129 33.5051 37.2154 32.9177 36.6312C32.3838 36.1 32.3331 35.2668 32.7673 34.6785L41.9245 25.4494C42.6329 24.7379 42.6874 23.625 42.0877 22.8514L32.7901 13.4836C32.2059 12.8962 32.2084 11.9465 32.7957 11.3622C33.3296 10.8311 34.1631 10.7849 34.7491 11.2221Z" fill="var(--tiny-first-color, #191919)" fill-rule="evenodd"/>
  <path id="形状结合" d="M29.1878 11.0252C29.8928 11.3072 30.2659 12.0642 30.0862 12.7809L20.7574 36.139C20.4497 36.9082 19.5767 37.2823 18.8075 36.9746C18.1025 36.6925 17.7294 35.9355 17.9091 35.2188L27.2379 11.8608C27.5456 11.0916 28.4186 10.7175 29.1878 11.0252Z" fill="var(--tiny-second-color, #aeaeAE)" fill-rule="evenodd"/>
</svg>
