<svg viewBox="0 0 48 48" xmlns="http://www.w3.org/2000/svg" xmlns:xlink="http://www.w3.org/1999/xlink" width="48.000000" height="48.000000">
  <path id="矢量 203" d="M11.4864 5.79645C11.3871 5.06433 10.7595 4.5 10.0001 4.5L7.97839 4.5L7.76923 4.51465C7.42487 4.56311 7.10559 4.73029 6.86865 4.99078L4.89038 7.16607C4.48297 7.77325 4.43372 8.77826 4.99084 9.28497C5.59808 9.69232 6.60309 9.74163 7.1098 9.18451L8.50006 7.65399L8.50006 14L8.51379 14.2035C8.6131 14.9357 9.24072 15.5 10.0001 15.5C10.8285 15.5 11.5001 14.8284 11.5001 14L11.5001 6L11.4864 5.79645ZM43.5001 10.0909C43.5001 9.26245 42.8285 8.59088 42.0001 8.59088L18.0001 8.59088L17.7966 8.60461C17.0644 8.70392 16.5001 9.33154 16.5001 10.0909C16.5001 10.9193 17.1716 11.5909 18.0001 11.5909L42.0001 11.5909L42.2036 11.5772C42.9358 11.4779 43.5001 10.8503 43.5001 10.0909ZM8.18597 18.5C8.89484 18.5 9.54956 18.6664 10.1216 19.0094C10.6936 19.3522 11.1418 19.8348 11.445 20.4318C11.7314 20.996 11.871 21.623 11.871 22.2944C11.871 22.9684 11.717 23.6112 11.4114 24.2027C11.1944 24.6229 10.8674 25.101 10.3791 25.7076L10.1212 26.022L9.66211 26.5L11.0001 26.5C11.7595 26.5 12.3871 27.0643 12.4864 27.7964L12.5001 28C12.5001 28.7594 11.9358 29.3869 11.2036 29.4863L11.0001 29.5L6.14404 29.5C4.89594 29.5 4.22382 28.0861 4.92383 27.1258L7.88336 24.027L8.27032 23.5403C8.49561 23.2432 8.65503 23.0021 8.74603 22.8259C8.8302 22.663 8.87103 22.4925 8.87103 22.2944C8.87103 22.0799 8.83496 21.9179 8.76996 21.7899C8.72168 21.6948 8.66522 21.634 8.5791 21.5824C8.49316 21.5309 8.37164 21.5 8.18597 21.5C7.94043 21.5 7.75732 21.56 7.58655 21.6893C7.46045 21.7847 7.4176 21.8363 7.30548 22.0344C6.8974 22.7553 5.98212 23.0089 5.26117 22.6008C4.54022 22.1927 4.28662 21.2775 4.6947 20.5566C4.99731 20.022 5.30035 19.6571 5.77625 19.297C6.4743 18.7687 7.29431 18.5 8.18597 18.5ZM42.0001 22.5C42.8285 22.5 43.5001 23.1716 43.5001 24C43.5001 24.7594 42.9358 25.3869 42.2036 25.4863L42.0001 25.5L18.0001 25.5C17.1716 25.5 16.5001 24.8284 16.5001 24C16.5001 23.2406 17.0644 22.613 17.7966 22.5137L18.0001 22.5L42.0001 22.5ZM8.40875 36.5152C6.72821 36.7348 6.72821 39.2652 8.40875 39.4848L8.64832 39.5L8.94611 39.4927L9.34186 39.4738L9.50006 39.7203C9.50006 39.9085 9.46741 40.0238 9.41168 40.1057C9.33582 40.2171 9.23761 40.2987 9.09045 40.3658C8.89691 40.4539 8.67285 40.5 8.40399 40.5C8.07837 40.5 7.83435 40.4308 7.63397 40.2975C7.51147 40.2159 7.41925 40.1101 7.34326 39.9573C6.92841 39.3459 6.01233 38.9438 5.33234 39.2818C4.59052 39.6506 4.28815 40.5509 4.65692 41.2928C4.96417 41.9108 5.4071 42.419 5.97174 42.7948C6.68054 43.2666 7.50391 43.5 8.40399 43.5C9.09137 43.5 9.73938 43.3667 10.3338 43.0959C10.9746 42.8041 11.5026 42.3651 11.8915 41.794C12.3004 41.1934 12.5001 40.4889 12.5001 39.7203L12.4842 39.3493C12.431 38.7412 12.2439 38.1852 11.9101 37.698C12.111 37.2499 12.2576 36.6654 12.2576 36.1424C12.2576 35.4546 12.0897 34.8135 11.749 34.2488C11.4067 33.6814 10.9213 33.2365 10.3202 32.9315C9.74701 32.6406 9.10571 32.5 8.41406 32.5C7.51025 32.5 6.68579 32.7489 5.98578 33.2496C5.42505 33.6507 4.99512 34.1888 4.70703 34.8378C4.37091 35.595 4.71228 36.4813 5.46948 36.8174C6.22668 37.1535 7.11292 36.8121 7.44904 36.0549C7.50665 35.9653 7.65314 35.7454 7.73108 35.6897C7.90656 35.5642 8.11914 35.5 8.41406 35.5C8.65173 35.5 8.82874 35.5388 8.96259 35.6067C9.06873 35.6606 9.13214 35.7187 9.18042 35.7987C9.23022 35.8813 9.25763 35.9859 9.25763 36.1424L9.21704 36.3759L8.94995 36.4663L8.40875 36.5152ZM43.5001 37.909C43.5001 37.0807 42.8285 36.4091 42.0001 36.4091L18.0001 36.4091L17.7966 36.4228C17.0644 36.5221 16.5001 37.1497 16.5001 37.909C16.5001 38.7375 17.1716 39.409 18.0001 39.409L42.0001 39.409L42.2036 39.3954C42.9358 39.2961 43.5001 38.6684 43.5001 37.909Z" fill="var(--tiny-first-color)" fill-rule="evenodd"/>
  <path id="矢量 204" d="M11.4864 5.79645C11.3871 5.06433 10.7595 4.5 10.0001 4.5L7.97838 4.5L7.76922 4.51465C7.42486 4.56311 7.10558 4.73029 6.86864 4.99078L4.89037 7.16607C4.48296 7.77325 4.43371 8.77826 4.99084 9.28497C5.59807 9.69232 6.60308 9.74163 7.10979 9.18451L8.50005 7.65399L8.50005 14L8.51378 14.2035C8.61309 14.9357 9.24071 15.5 10.0001 15.5C10.8285 15.5 11.5001 14.8284 11.5001 14L11.5001 6L11.4864 5.79645ZM8.18596 18.5C8.89483 18.5 9.54955 18.6664 10.1216 19.0094C10.6936 19.3522 11.1418 19.8348 11.445 20.4318C11.7314 20.996 11.871 21.623 11.871 22.2944C11.871 22.9684 11.717 23.6112 11.4114 24.2027C11.1944 24.6229 10.8674 25.101 10.3791 25.7076L10.1212 26.022L9.6621 26.5L11.0001 26.5C11.7595 26.5 12.3871 27.0643 12.4864 27.7964L12.5001 28C12.5001 28.7594 11.9358 29.3869 11.2036 29.4863L11.0001 29.5L6.14403 29.5C4.89593 29.5 4.22381 28.0861 4.92382 27.1258L7.88335 24.027L8.27032 23.5403C8.4956 23.2432 8.65502 23.0021 8.74602 22.8259C8.83019 22.663 8.87102 22.4925 8.87102 22.2944C8.87102 22.0799 8.83495 21.9179 8.76995 21.7899C8.72167 21.6948 8.66521 21.634 8.57909 21.5824C8.49315 21.5309 8.37163 21.5 8.18596 21.5C7.94042 21.5 7.75731 21.56 7.58654 21.6893C7.46044 21.7847 7.41759 21.8363 7.30547 22.0344C6.89739 22.7553 5.98211 23.0089 5.26116 22.6008C4.54021 22.1927 4.28661 21.2775 4.69469 20.5566C4.99731 20.022 5.30034 19.6571 5.77624 19.297C6.4743 18.7687 7.2943 18.5 8.18596 18.5ZM8.40874 36.5152C6.7282 36.7348 6.7282 39.2652 8.40874 39.4848L8.64831 39.5L8.9461 39.4927L9.34185 39.4738L9.50005 39.7203C9.50005 39.9085 9.4674 40.0238 9.41167 40.1057C9.33581 40.2171 9.2376 40.2987 9.09044 40.3658C8.8969 40.4539 8.67284 40.5 8.40398 40.5C8.07836 40.5 7.83434 40.4308 7.63396 40.2975C7.51147 40.2159 7.41924 40.1101 7.34325 39.9573C6.9284 39.3459 6.01232 38.9438 5.33233 39.2818C4.59051 39.6506 4.28814 40.5509 4.65691 41.2928C4.96416 41.9108 5.4071 42.419 5.97173 42.7948C6.68053 43.2666 7.5039 43.5 8.40398 43.5C9.09136 43.5 9.73937 43.3667 10.3338 43.0959C10.9746 42.8041 11.5026 42.3651 11.8915 41.794C12.3004 41.1934 12.5001 40.4889 12.5001 39.7203L12.4842 39.3493C12.431 38.7412 12.2439 38.1852 11.9101 37.698C12.111 37.2499 12.2576 36.6654 12.2576 36.1424C12.2576 35.4546 12.0897 34.8135 11.749 34.2488C11.4067 33.6814 10.9213 33.2365 10.3202 32.9315C9.747 32.6406 9.1057 32.5 8.41405 32.5C7.51024 32.5 6.68578 32.7489 5.98577 33.2496C5.42504 33.6507 4.99511 34.1888 4.70702 34.8378C4.3709 35.595 4.71227 36.4813 5.46947 36.8174C6.22668 37.1535 7.11291 36.8121 7.44903 36.0549C7.50664 35.9653 7.65313 35.7454 7.73107 35.6897C7.90655 35.5642 8.11913 35.5 8.41405 35.5C8.65172 35.5 8.82873 35.5388 8.96258 35.6067C9.06872 35.6606 9.13213 35.7187 9.18041 35.7987C9.23022 35.8813 9.25762 35.9859 9.25762 36.1424L9.21703 36.3759L8.94994 36.4663L8.40874 36.5152Z" fill="var(--tiny-second-color)" fill-rule="evenodd"/>
</svg>