<svg viewBox="0 0 48 48" xmlns="http://www.w3.org/2000/svg" xmlns:xlink="http://www.w3.org/1999/xlink" width="48.000000" height="48.000000" fill="none">
  <path id="形状结合" d="M40.3322 6.73752L40.8403 7.21578C43.0581 9.65529 43.0306 13.4839 40.6897 15.8054L20.3049 36.0339C19.7166 36.6172 18.7669 36.6133 18.1836 36.0251C17.6002 35.4369 17.6041 34.4871 18.1924 33.9038L35.7646 16.4647L31.6882 12.4041L13.5961 30.3479L10.0861 37.9079L14.2112 36.2345C14.9622 35.8848 15.8545 36.2103 16.2041 36.9613C16.5149 37.6289 16.2923 38.4081 15.7115 38.8185L15.4773 38.9542L7.63312 42.3598C6.44443 42.9132 5.21481 41.7937 5.55091 40.6063L5.63948 40.3684L10.9874 28.846L11.2868 28.4174L32.5869 7.09503C34.7067 4.97305 38.072 4.85348 40.3322 6.73752ZM39.0026 39.4976C39.8311 39.4976 40.5026 40.1692 40.5026 40.9976C40.5026 41.757 39.9383 42.3846 39.2062 42.4839L39.0026 42.4976L25.0026 42.4976C24.1742 42.4976 23.5026 41.8261 23.5026 40.9976C23.5026 40.2382 24.0669 39.6107 24.7991 39.5113L25.0026 39.4976L39.0026 39.4976ZM34.9909 8.96896L34.7094 9.21524L33.7186 10.2047L37.7675 14.2408L38.5772 13.6753C39.6853 12.5764 39.813 10.8517 38.9316 9.60895L38.6451 9.26053C37.66 8.27649 36.0685 8.14794 34.9909 8.96896Z" fill="var(--tiny-first-color)" fill-rule="evenodd"/>
  <path id="形状结合" d="M39.0024 39.4976C39.8309 39.4976 40.5024 40.1691 40.5024 40.9976C40.5024 41.757 39.9381 42.3845 39.206 42.4839L39.0024 42.4976L25.0024 42.4976C24.174 42.4976 23.5024 41.826 23.5024 40.9976C23.5024 40.2382 24.0667 39.6106 24.7989 39.5112L25.0024 39.4976L39.0024 39.4976Z" fill="var(--tiny-second-color)" fill-rule="evenodd"/>
</svg>