<svg viewBox="0 0 48 48" xmlns="http://www.w3.org/2000/svg" xmlns:xlink="http://www.w3.org/1999/xlink" width="48.000000" height="48.000000">
  <path id="形状结合" d="M29.2713 10.8123C30.3473 11.2443 30.8713 12.4643 30.4413 13.5423L21.4513 36.0203C21.1213 36.8403 20.3353 37.3383 19.5013 37.3383C19.2413 37.3383 18.9793 37.2923 18.7213 37.1903C17.6473 36.7583 17.1233 35.5383 17.5533 34.4623L26.5433 11.9823C26.9753 10.9063 28.1913 10.3803 29.2713 10.8123ZM15.9175 11.2845C16.7395 12.1005 16.7435 13.4285 15.9255 14.2505L7.0615 23.1585C6.5695 23.6545 6.5695 24.4585 7.0615 24.9565L15.8155 33.7525C16.6315 34.5745 16.6275 35.9025 15.8075 36.7185C15.3975 37.1265 14.8635 37.3305 14.3275 37.3305C13.7875 37.3305 13.2495 37.1225 12.8395 36.7105L4.0855 27.9145C1.9715 25.7885 1.9715 22.3265 4.0855 20.2005L12.9515 11.2905C13.7675 10.4705 15.0975 10.4645 15.9175 11.2845ZM35.0501 11.2905L43.9121 20.1985C46.0281 22.3265 46.0281 25.7865 43.9121 27.9145L35.1661 36.7045C34.7561 37.1165 34.2181 37.3245 33.6781 37.3245C33.1441 37.3245 32.6081 37.1205 32.1981 36.7125C31.3781 35.8965 31.3741 34.5685 32.1901 33.7465L40.9381 24.9545C41.4301 24.4585 41.4301 23.6545 40.9381 23.1585L32.0741 14.2505C31.2561 13.4285 31.2601 12.1005 32.0821 11.2825C32.9021 10.4625 34.2321 10.4685 35.0501 11.2905Z" fill="var(--tiny-first-color)" fill-rule="evenodd"/>
  <path id="形状结合" d="M29.2697 10.8123C30.3457 11.2443 30.8697 12.4643 30.4397 13.5423L21.4497 36.0203C21.1197 36.8403 20.3337 37.3383 19.4997 37.3383C19.2397 37.3383 18.9777 37.2923 18.7197 37.1903C17.6457 36.7583 17.1217 35.5383 17.5517 34.4623L26.5417 11.9823C26.9737 10.9063 28.1897 10.3803 29.2697 10.8123Z" fill="var(--tiny-second-color)" fill-rule="evenodd"/>
</svg>