<svg viewBox="0 0 48 48" xmlns="http://www.w3.org/2000/svg" xmlns:xlink="http://www.w3.org/1999/xlink" width="48.000000" height="48.000000" fill="none">
  <path id="路径" d="M6 8C6 7.17157 6.67157 6.5 7.5 6.5C8.25939 6.5 8.88698 7.06431 8.98631 7.79646L9 8L9 41C9 41.8284 8.32843 42.5 7.5 42.5C6.74061 42.5 6.11302 41.9357 6.01369 41.2035L6 41L6 8Z" fill="var(--tiny-first-color)" fill-rule="evenodd"/>
  <path id="路径" d="M42 12C42 8.80464 39.5022 6.19268 36.3525 6.01019L36 6L12.5 6C11.6716 6 11 6.67157 11 7.5C11 8.25939 11.5643 8.88698 12.2965 8.98631L12.5 9L36 9C37.5594 9 38.8409 10.1898 38.9863 11.7111L39 12L39 36C39 37.5594 37.8102 38.8409 36.2889 38.9863L36 39L12.5 39C11.6716 39 11 39.6716 11 40.5C11 41.2594 11.5643 41.887 12.2965 41.9863L12.5 42L36 42C39.1954 42 41.8073 39.5022 41.9898 36.3525L42 36L42 12Z" fill="var(--tiny-second-color)" fill-rule="evenodd"/>
</svg>