<svg viewBox="0 0 48 48" xmlns="http://www.w3.org/2000/svg" xmlns:xlink="http://www.w3.org/1999/xlink" width="48.000000" height="48.000000" fill="none">
  <path id="合并" d="M8.98633 7.29651C8.88696 6.56433 8.2594 6 7.5 6C6.67157 6 6 6.67163 6 7.5L6 39.5L6.01367 39.7035C6.11304 40.4356 6.7406 41 7.5 41C8.32843 41 9 40.3283 9 39.5L9 26L26 26L26 39.5L26.0137 39.7035C26.113 40.4356 26.7406 41 27.5 41C28.3284 41 29 40.3283 29 39.5L29 7.5L28.9863 7.29651C28.887 6.56433 28.2594 6 27.5 6C26.6716 6 26 6.67163 26 7.5L26 23L9 23L9 7.5L8.98633 7.29651ZM38.5956 27.6362C37.834 27.2081 36.9603 27 35.9977 27C34.7822 27 33.6757 27.34 32.7223 28.0164C32.0621 28.4847 31.649 28.9509 31.2161 29.6679C30.788 30.3771 31.0157 31.2991 31.7249 31.7273C32.4341 32.1555 33.3561 31.9277 33.7843 31.2185C34.015 30.8364 34.1554 30.678 34.4582 30.4631C34.8951 30.1532 35.3936 30 35.9977 30C36.4662 30 36.8345 30.0878 37.1258 30.2515C37.4069 30.4094 37.6075 30.6119 37.753 30.8806C37.9115 31.1732 37.9937 31.5194 37.9937 31.9417C37.9937 32.3434 37.9015 32.7042 37.7123 33.0476C37.4635 33.4991 36.9687 34.1544 36.2378 34.9824L31.6824 39.427L31.5439 39.5808C30.7923 40.5342 31.4565 42 32.7306 42L40.5002 42L40.7037 41.9863C41.4359 41.887 42.0002 41.2594 42.0002 40.5L41.9865 40.2965C41.8872 39.5643 41.2596 39 40.5002 39L36.4122 39L38.4106 37.0481L38.748 36.6624C39.5005 35.788 40.0119 35.0906 40.3398 34.4954C40.7742 33.7072 40.9937 32.848 40.9937 31.9417C40.9937 31.035 40.7949 30.1976 40.391 29.452C39.9743 28.6825 39.3674 28.07 38.5956 27.6362Z" fill="var(--tiny-first-color)" fill-rule="evenodd"/>
  <path id="矢量 1817" d="M35.9977 27C36.9603 27 37.834 27.2081 38.5956 27.6362C39.3674 28.0699 39.9743 28.6825 40.391 29.452C40.7948 30.1976 40.9937 31.035 40.9937 31.9416C40.9937 32.848 40.7742 33.7071 40.3398 34.4954C40.0119 35.0906 39.5005 35.788 38.748 36.6623L38.4106 37.0481L36.4122 39L40.5002 39C41.2596 39 41.8872 39.5643 41.9865 40.2965L42.0002 40.5C42.0002 41.2594 41.4359 41.887 40.7037 41.9863L40.5002 42L32.7306 42C31.4565 42 30.7923 40.5342 31.5439 39.5808L31.6824 39.427L36.2378 34.9824C36.9687 34.1544 37.4635 33.4991 37.7123 33.0476C37.9015 32.7042 37.9937 32.3434 37.9937 31.9416C37.9937 31.5194 37.9115 31.1732 37.753 30.8806C37.6075 30.6119 37.4069 30.4094 37.1258 30.2515C36.8345 30.0878 36.4662 30 35.9977 30C35.3936 30 34.8951 30.1532 34.4582 30.4631C34.1554 30.678 34.015 30.8364 33.7843 31.2185C33.3561 31.9277 32.4341 32.1555 31.7249 31.7273C31.0157 31.2991 30.7879 30.3771 31.2161 29.6678C31.649 28.9509 32.0621 28.4847 32.7223 28.0164C33.6757 27.34 34.7822 27 35.9977 27Z" fill="var(--tiny-second-color)" fill-rule="evenodd"/>
</svg>