<svg viewBox="0 0 48 48" xmlns="http://www.w3.org/2000/svg" xmlns:xlink="http://www.w3.org/1999/xlink" width="48.000000" height="48.000000" fill="none">
  <path id="合并" d="M18.25 20.4121L7.02386 7.20493C6.2985 6.35156 5.05806 6.25098 4.20469 6.97635C3.35131 7.70171 3.25074 8.94215 3.9761 9.79552L15.6251 23.5002L3.9761 37.2049C3.25074 38.0583 3.35131 39.2987 4.20468 40.0241C5.05806 40.7495 6.29849 40.6489 7.02386 39.7955L18.25 26.5883L29.4761 39.7955C30.2015 40.6489 31.4419 40.7495 32.2953 40.0241C33.1487 39.2987 33.2492 38.0583 32.5239 37.2049L20.8749 23.5002L32.5239 9.79552C33.2492 8.94215 33.1487 7.70171 32.2953 6.97635C31.4419 6.25098 30.2015 6.35156 29.4761 7.20493L18.25 20.4121ZM41.5957 26.6365C40.8341 26.2085 39.9603 26.0002 38.9977 26.0002C37.7822 26.0002 36.6757 26.3403 35.7224 27.0166C35.0621 27.4851 34.649 27.9512 34.2161 28.6682C33.788 29.3772 34.0157 30.2993 34.7249 30.7275C35.4341 31.1558 36.3561 30.928 36.7843 30.2188C37.015 29.8367 37.1555 29.6782 37.4583 29.4634C37.8951 29.1533 38.3936 29.0002 38.9977 29.0002C39.4662 29.0002 39.8345 29.0881 40.1258 29.2517C40.4069 29.4097 40.6076 29.6121 40.7531 29.8809C40.9115 30.1733 40.9937 30.5195 40.9937 30.9419C40.9937 31.3435 40.9015 31.7043 40.7123 32.0479C40.4635 32.4993 39.9688 33.1545 39.2379 33.9827L34.6824 38.4272L34.5439 38.5811C33.7923 39.5344 34.4565 41.0002 35.7306 41.0002L43.5003 41.0002L43.7038 40.9866C44.4359 40.8872 45.0003 40.2595 45.0003 39.5002L44.9865 39.2966C44.8872 38.5645 44.2597 38.0002 43.5003 38.0002L39.4122 38.0002L41.4106 36.0483L41.748 35.6626C42.5006 34.7881 43.0119 34.0908 43.3399 33.4956C43.7742 32.7073 43.9937 31.8481 43.9937 30.9419C43.9937 30.0354 43.7949 29.198 43.3911 28.4521C42.9743 27.6829 42.3674 27.0701 41.5957 26.6365Z" fill="var(--tiny-first-color, #191919)" fill-rule="evenodd"/>
  <path d="M43.0674 27.1527Q42.5415 26.5941 41.8406 26.2003L41.8406 26.2003Q41.7312 26.1389 41.6192 26.0828Q40.4542 25.5 38.9977 25.5Q37.7602 25.5 36.6904 25.9237Q36.0297 26.1853 35.433 26.6086Q34.8998 26.9869 34.5135 27.4132Q34.1424 27.8226 33.7881 28.4095Q33.6747 28.5972 33.6058 28.8001Q33.5469 28.9732 33.5204 29.1573Q33.4939 29.3411 33.5013 29.5235Q33.5095 29.724 33.5586 29.9228Q33.6077 30.1215 33.6937 30.3025Q33.7721 30.4676 33.8813 30.6181Q33.9904 30.7686 34.123 30.8943Q34.2785 31.0418 34.4665 31.1553Q34.6545 31.2688 34.8576 31.3379Q35.0305 31.3966 35.2144 31.4231Q35.3984 31.4496 35.581 31.4421Q35.7813 31.4339 35.9799 31.3848Q36.1786 31.3358 36.3597 31.2497Q36.5247 31.1713 36.6752 31.0622Q36.8258 30.953 36.9516 30.8202Q37.099 30.6647 37.2123 30.477Q37.3618 30.2294 37.4675 30.1108Q37.5672 29.9989 37.7476 29.8709Q37.8364 29.8079 37.9311 29.7556Q38.3938 29.5 38.9977 29.5Q39.5472 29.5 39.8809 29.6874Q40.0822 29.8005 40.2144 29.9681Q40.27 30.0386 40.3134 30.1188Q40.4937 30.4516 40.4937 30.9417Q40.4937 31.223 40.4139 31.4794Q40.3614 31.6482 40.2744 31.8063Q39.9153 32.4578 38.8753 33.6376L34.3216 38.0804L34.1614 38.2584L34.1512 38.2713Q33.9566 38.5182 33.8512 38.7987Q33.7585 39.0453 33.7349 39.3179Q33.7138 39.5621 33.7501 39.7975Q33.7947 40.087 33.9262 40.363Q34.0622 40.6483 34.2673 40.8694Q34.4258 41.0403 34.6257 41.1728Q34.8248 41.3048 35.0432 41.3836Q35.3659 41.5 35.7306 41.5L43.517 41.5L43.7542 41.4841L43.771 41.4818Q43.9521 41.4572 44.1229 41.4013Q44.2935 41.3454 44.4539 41.2583Q44.6047 41.1764 44.7375 41.0717Q44.88 40.9594 45.0019 40.821Q45.1271 40.6787 45.222 40.5185Q45.3067 40.3755 45.3673 40.2182Q45.4272 40.0626 45.4601 39.9015Q45.5003 39.7049 45.5003 39.5L45.5003 39.4832L45.4843 39.2459L45.482 39.2292Q45.4574 39.0478 45.4013 38.8767Q45.3455 38.7064 45.2586 38.5463Q45.1767 38.3955 45.072 38.2626Q44.9597 38.1202 44.8213 37.9983Q44.6792 37.8733 44.5193 37.7785Q44.3761 37.6936 44.2185 37.633Q44.0633 37.5732 43.9025 37.5403Q43.7055 37.5 43.5003 37.5L40.6397 37.5L41.774 36.3921L42.127 35.9885Q43.267 34.6638 43.7778 33.7366Q44.1128 33.1286 44.291 32.4777Q44.4937 31.7374 44.4937 30.9417Q44.4937 29.7243 44.0589 28.6896Q43.9568 28.4466 43.8307 28.2137Q43.5115 27.6245 43.0674 27.1527Z" fill="var(--tiny-second-color, #aeaeAE)" fill-rule="evenodd" stroke="var(--tiny-second-color, #aeaeAE)"/>
</svg>
