<svg viewBox="0 0 48 48" xmlns="http://www.w3.org/2000/svg" xmlns:xlink="http://www.w3.org/1999/xlink" width="48.000000" height="48.000000" fill="none">
  <path id="形状结合" d="M28.7912 19.6763C28.7234 19.6949 28.4695 19.7731 28.3982 19.7821C20.6522 19.7821 14.6655 22.7542 10.9755 28.5942C8.1955 33.0002 7.7035 37.4082 7.6995 37.4502C7.6195 38.2222 6.9675 38.7942 6.2095 38.7942C5.3875 38.7062 4.6295 37.9602 4.7155 37.1382C4.71842 37.1109 4.76247 36.7335 4.88583 36.0993L4.96122 35.7284C5.90979 31.2502 10.1537 17.6081 26.7081 16.829L26.7085 11.708C26.7085 10.692 27.3145 9.78599 28.2525 9.39799C29.1885 9.00799 30.2585 9.22399 30.9765 9.93999L42.5605 21.526C43.5365 22.502 43.5365 24.088 42.5605 25.062L30.9745 36.648C30.4965 37.128 29.8605 37.382 29.2105 37.382C28.8885 37.382 28.5625 37.32 28.2525 37.19C27.3145 36.802 26.7085 35.896 26.7085 34.88L26.7063 29.8164C21.6424 29.9666 17.3256 30.887 13.8575 32.5564C13.6475 32.6584 13.4255 32.7044 13.2075 32.7044C12.6495 32.7044 12.1135 32.3924 11.8555 31.8544C11.4955 31.1084 11.8095 30.2124 12.5555 29.8524C16.7622 27.8279 22.0172 26.798 28.1753 26.7944C29.0033 26.7944 29.7085 27.466 29.7085 28.294L29.7085 33.674L40.0865 23.294L29.7085 12.916L29.7085 18.294C29.7085 18.846 29.2356 19.4158 28.7912 19.6763Z" fill="var(--tiny-first-color, #191919)" fill-rule="evenodd"/>
</svg>
