<svg viewBox="0 0 48 48" xmlns="http://www.w3.org/2000/svg" xmlns:xlink="http://www.w3.org/1999/xlink" width="48.000000" height="48.000000">
  <path id="形状结合" d="M34 4C34.8284 4 35.5 4.67157 35.5 5.5C35.5 6.25939 34.9357 6.88698 34.2035 6.98631L34 7L29.21 7L21.858 41L26 41C26.8284 41 27.5 41.6716 27.5 42.5C27.5 43.2594 26.9357 43.887 26.2035 43.9863L26 44L14 44C13.1716 44 12.5 43.3284 12.5 42.5C12.5 41.7406 13.0643 41.113 13.7965 41.0137L14 41L18.788 41L26.138 7L22 7C21.1716 7 20.5 6.32843 20.5 5.5C20.5 4.74061 21.0643 4.11302 21.7965 4.01369L22 4L34 4Z" fill="var(--tiny-first-color)" fill-rule="evenodd"/>
</svg>