<svg viewBox="0 0 48 48" xmlns="http://www.w3.org/2000/svg" xmlns:xlink="http://www.w3.org/1999/xlink" width="48.000000" height="48.000000" fill="none">
  <path id="形状结合" d="M25.6469 3.5C31.3075 3.5 35.8969 8.08943 35.8969 13.75C35.8969 16.8426 34.5271 19.6155 32.361 21.4949C32.8348 21.7499 33.2919 22.0402 33.7298 22.3609C36.8586 24.654 38.7475 28.2964 38.7475 32.25C38.7475 39.0143 33.2624 44.498 26.4975 44.498C26.3531 44.498 26.2123 44.4827 26.0766 44.4536L25.6469 44.5L14.2529 44.5C11.6028 44.5 9.43292 42.4361 9.26357 39.8287L9.25293 39.5L9.25293 8.5C9.25293 5.84985 11.3168 3.67999 13.9243 3.51064L14.2529 3.5L25.6469 3.5ZM13.2529 24L13.2529 39.5C13.2529 39.9902 13.6074 40.399 14.0734 40.4839L25.6469 40.5C25.7915 40.5 25.9324 40.5153 26.0682 40.5445C26.2054 40.5141 26.3496 40.498 26.4975 40.498C31.0535 40.498 34.7475 36.8049 34.7475 32.25C34.7475 29.585 33.4769 27.1348 31.3659 25.5876C29.9641 24.5611 28.2759 24 26.4975 24L13.2529 24ZM25.6469 7.5L14.2529 7.5C13.7628 7.5 13.3539 7.85443 13.2691 8.32047L13.2529 20L25.6469 20C29.0984 20 31.8969 17.2014 31.8969 13.75C31.8969 10.2986 29.0984 7.5 25.6469 7.5Z" fill="var(--tiny-first-color)" fill-rule="evenodd"/>
</svg>