<svg viewBox="0 0 48 48" xmlns="http://www.w3.org/2000/svg" xmlns:xlink="http://www.w3.org/1999/xlink" width="48.000000" height="48.000000">
  <path id="形状结合" d="M3 30.0076C4.658 30.0076 6 31.3479 6 33.0038C6 34.6597 4.658 36 3 36C1.342 36 0 34.6597 0 33.0038C0 31.3479 1.342 30.0076 3 30.0076ZM3 15.0257C4.658 15.0257 6 16.366 6 18.0219C6 19.6758 4.658 21.0181 3 21.0181C1.342 21.0181 0 19.6758 0 18.0219C0 16.366 1.342 15.0257 3 15.0257ZM3 0C4.658 0 6 1.34229 6 2.99619C6 4.65208 4.658 5.99238 3 5.99238C1.342 5.99238 0 4.65208 0 2.99619C0 1.34229 1.342 0 3 0Z" fill="var(--tiny-first-color)" fill-rule="evenodd" transform="matrix(0,1,-1,0,42,20.9771)"/>
  <path id="形状结合" d="M3 0C4.658 0 6 1.34029 6 2.99619C6 4.65008 4.658 5.99238 3 5.99238C1.342 5.99238 0 4.65008 0 2.99619C0 1.34029 1.342 0 3 0Z" fill="var(--tiny-second-color)" fill-rule="evenodd" transform="matrix(0,1,-1,0,26.9746,20.9771)"/>
</svg>