<svg viewBox="0 0 48 48" xmlns="http://www.w3.org/2000/svg" xmlns:xlink="http://www.w3.org/1999/xlink" width="48.000000" height="48.000000" fill="none">
  <path id="形状结合" d="M24 4C28.4341 4 32.6516 5.44838 36.1066 8.07848C36.7657 8.58028 36.8933 9.52142 36.3915 10.1806C35.8897 10.8397 34.9486 10.9673 34.2894 10.4655C31.3523 8.22962 27.7718 7 24 7C14.6117 7 7 14.6111 7 24C7 33.3876 14.6124 41 24 41C33.3889 41 41 33.3883 41 24C41 20.2292 39.7717 16.6507 37.5362 13.7122C37.0346 13.0529 37.1625 12.1118 37.8218 11.6102C38.4811 11.1086 39.4222 11.2365 39.9238 11.8958C42.5532 15.352 44 19.5672 44 24C44 35.0451 35.0458 44 24 44C12.9556 44 4 35.0444 4 24C4 12.9542 12.9549 4 24 4Z" fill="var(--tiny-first-color)" fill-rule="nonzero"/>
  <path id="矢量 1823" d="M31 14C33.2092 14 35 15.7908 35 18L35 30C35 32.2092 33.2092 34 31 34L17 34C14.7908 34 13 32.2092 13 30L13 18C13 15.7908 14.7908 14 17 14L31 14ZM31 17L17 17C16.8619 17 16.7339 17.0244 16.6161 17.0732C16.4983 17.1221 16.3905 17.1953 16.2929 17.293C16.1953 17.3906 16.1221 17.4983 16.0732 17.6162C16.0244 17.7339 16 17.8618 16 18L16 30C16 30.1382 16.0244 30.2661 16.0732 30.3838C16.122 30.5017 16.1953 30.6094 16.2929 30.707C16.3905 30.8047 16.4983 30.8779 16.6161 30.9268C16.7339 30.9756 16.8619 31 17 31L31 31C31.1381 31 31.266 30.9756 31.3839 30.9268C31.5017 30.8779 31.6095 30.8047 31.7071 30.707C31.8047 30.6094 31.878 30.5017 31.9268 30.3838C31.9756 30.2661 32 30.1382 32 30L32 18C32 17.8618 31.9756 17.7339 31.9268 17.6162C31.878 17.4983 31.8047 17.3906 31.7071 17.293C31.6095 17.1953 31.5017 17.1221 31.3839 17.0732C31.266 17.0244 31.1381 17 31 17ZM30.0603 22.0603L26.4747 25.646C26.2968 25.824 26.1046 25.9795 25.898 26.113C25.7153 26.231 25.5213 26.3315 25.3161 26.4148C25.1128 26.4973 24.9055 26.5598 24.6941 26.6025C24.4673 26.6482 24.2358 26.6711 23.9998 26.6711C23.7637 26.6711 23.5323 26.6482 23.3055 26.6025C23.0942 26.5598 22.8868 26.4973 22.6835 26.4148C22.4783 26.3315 22.2844 26.231 22.1016 26.113C21.895 25.9795 21.7028 25.824 21.525 25.646L17.9393 22.0603C17.3454 21.4666 17.3454 20.533 17.9393 19.9392C18.5333 19.3452 19.4667 19.3452 20.0607 19.9392L23.6462 23.5247C23.6951 23.5735 23.749 23.6101 23.8079 23.6345C23.8668 23.6589 23.9308 23.6711 23.9998 23.6711C24.0688 23.6711 24.1328 23.6589 24.1918 23.6345C24.2507 23.6101 24.3046 23.5735 24.3534 23.5247L27.939 19.9392C28.533 19.3452 29.4663 19.3452 30.0603 19.9392C30.6542 20.533 30.6542 21.4666 30.0603 22.0603Z" fill="var(--tiny-second-color)" fill-rule="evenodd"/>
</svg>