<svg viewBox="0 0 48 48" xmlns="http://www.w3.org/2000/svg" xmlns:xlink="http://www.w3.org/1999/xlink" width="48.000000" height="48.000000" fill="none">
  <path id="矢量 1825" d="M44 24C44 12.9719 35.026 4 24 4C12.972 4 4 12.9719 4 24C4 35.0259 12.972 44 24 44C35.026 44 44 35.0259 44 24ZM35 18C35 15.7908 33.2092 14 31 14L17 14C14.7908 14 13 15.7908 13 18L13 30C13 32.2092 14.7908 34 17 34L31 34C33.2092 34 35 32.2092 35 30L35 18ZM16.6161 17.0732C16.7339 17.0244 16.8619 17 17 17L31 17C31.1381 17 31.266 17.0244 31.3839 17.0732C31.5017 17.1221 31.6095 17.1953 31.7071 17.293C31.8047 17.3906 31.878 17.4983 31.9268 17.6162C31.9756 17.7339 32 17.8618 32 18L32 30C32 30.1382 31.9756 30.2661 31.9268 30.3838C31.878 30.5017 31.8047 30.6094 31.7071 30.707C31.6095 30.8047 31.5017 30.8779 31.3839 30.9268C31.266 30.9756 31.1381 31 31 31L17 31C16.8619 31 16.7339 30.9756 16.6161 30.9268C16.4983 30.8779 16.3905 30.8047 16.2929 30.707C16.1953 30.6094 16.122 30.5017 16.0732 30.3838C16.0244 30.2661 16 30.1382 16 30L16 18C16 17.8618 16.0244 17.7339 16.0732 17.6162C16.1221 17.4983 16.1953 17.3906 16.2929 17.293C16.3905 17.1953 16.4983 17.1221 16.6161 17.0732ZM23.6464 23.5251L20.0607 19.9395C19.4667 19.3455 18.5333 19.3455 17.9393 19.9395C17.3454 20.5332 17.3454 21.4668 17.9393 22.0605L21.5251 25.6465C21.703 25.8242 21.8953 25.98 22.1018 26.1133C22.2845 26.2314 22.4785 26.332 22.6837 26.4153C22.887 26.4976 23.0944 26.5603 23.3057 26.6028L23.3065 26.603C23.533 26.6487 23.7642 26.6716 24 26.6716C24.2358 26.6716 24.467 26.6487 24.6935 26.603L24.6943 26.6028C24.9057 26.5603 25.113 26.4976 25.3163 26.4153C25.5215 26.332 25.7155 26.2314 25.8981 26.1133C26.1047 25.98 26.297 25.8242 26.4749 25.6465L30.0607 22.0605C30.6546 21.4668 30.6546 20.5332 30.0607 19.9395C29.4667 19.3455 28.5333 19.3455 27.9393 19.9395L24.3536 23.5251C24.3047 23.574 24.2509 23.6106 24.192 23.635C24.133 23.6594 24.069 23.6716 24 23.6716C23.931 23.6716 23.867 23.6594 23.808 23.635C23.7491 23.6106 23.6953 23.574 23.6464 23.5251Z" fill="var(--tiny-first-color, #191919)" fill-rule="evenodd"/>
  <path id="减去顶层" d="M31 14C33.2092 14 35 15.7908 35 18L35 30C35 32.2092 33.2092 34 31 34L17 34C14.7908 34 13 32.2092 13 30L13 18C13 15.7908 14.7908 14 17 14L31 14ZM20.0607 19.9395L23.6464 23.5251C23.6953 23.574 23.7491 23.6106 23.808 23.635C23.867 23.6594 23.931 23.6716 24 23.6716C24.069 23.6716 24.133 23.6594 24.192 23.635C24.2509 23.6106 24.3047 23.574 24.3536 23.5251L27.9393 19.9395C28.5333 19.3455 29.4667 19.3455 30.0607 19.9395C30.3263 20.205 30.4732 20.5386 30.5012 20.8794C30.5358 21.3005 30.389 21.7325 30.0607 22.0607L26.4749 25.6467C26.297 25.8244 26.1048 25.9802 25.8981 26.1135C25.7155 26.2316 25.5215 26.3322 25.3163 26.4155C25.113 26.4977 24.9057 26.5605 24.6944 26.603L24.6936 26.6031C24.467 26.6489 24.2358 26.6718 24 26.6718C23.7642 26.6718 23.533 26.6489 23.3065 26.6031L23.3057 26.603C23.0944 26.5605 22.887 26.4977 22.6837 26.4155C22.4785 26.3322 22.2846 26.2316 22.1018 26.1135C21.8953 25.9802 21.703 25.8244 21.5252 25.6467L17.9393 22.0607C17.6737 21.7951 17.5268 21.4616 17.4988 21.1208C17.4642 20.6997 17.611 20.2677 17.9393 19.9395C18.5333 19.3455 19.4667 19.3455 20.0607 19.9395Z" fill="var(--tiny-second-color, #aeaeAE)" fill-rule="evenodd"/>
</svg>
