<svg viewBox="0 0 48 48" xmlns="http://www.w3.org/2000/svg" xmlns:xlink="http://www.w3.org/1999/xlink" width="48.000000" height="48.000000">
  <path id="形状结合" d="M13.4145 5.5865L28.2925 20.4645C29.2385 21.4065 29.7585 22.6625 29.7585 24.0005C29.7585 25.3365 29.2385 26.5905 28.2925 27.5365L13.4145 42.4145C13.0245 42.8045 12.5125 43.0005 12.0005 43.0005C11.4885 43.0005 10.9765 42.8045 10.5865 42.4145C9.8045 41.6325 9.8045 40.3685 10.5865 39.5865L25.4645 24.7085C25.7205 24.4525 25.7585 24.1545 25.7585 24.0005C25.7585 23.8465 25.7205 23.5485 25.4665 23.2945L10.5865 8.4145C9.8045 7.6325 9.8045 6.3685 10.5865 5.5865C11.3685 4.8045 12.6325 4.8045 13.4145 5.5865ZM36 5.00025C37.1046 5.00025 38 5.89568 38 7.00025L38 41.0003C38 42.1048 37.1046 43.0003 36 43.0003C34.8954 43.0003 34 42.1048 34 41.0003L34 7.00025C34 5.89568 34.8954 5.00025 36 5.00025Z" fill="var(--tiny-first-color)" fill-rule="evenodd"/>
  <path id="形状结合" d="M36 5C37.1046 5 38 5.89543 38 7L38 41C38 42.1046 37.1046 43 36 43C34.8954 43 34 42.1046 34 41L34 7C34 5.89543 34.8954 5 36 5Z" fill="var(--tiny-second-color)" fill-rule="evenodd"/>
</svg>