<svg viewBox="0 0 48 48" xmlns="http://www.w3.org/2000/svg" xmlns:xlink="http://www.w3.org/1999/xlink" width="48.000000" height="48.000000" fill="none">
  <path id="形状结合备份" d="M1.5 0C2.32843 0 3 0.671573 3 1.5L3 38.5C3 39.3284 2.32843 40 1.5 40C0.671573 40 0 39.3284 0 38.5L0 1.5C0 0.671573 0.671573 0 1.5 0ZM27.5405 0.428488C28.0785 0.955517 28.1355 1.7883 27.7058 2.37997L12.0274 18.4074C11.1323 19.3211 11.0795 20.7485 11.8642 21.7228L12.0451 21.9243L27.5532 37.4396C28.1388 38.0255 28.1386 38.9753 27.5527 39.5609C27.02 40.0933 26.1867 40.1415 25.5995 39.7057L9.9233 24.0451C7.88068 22.0015 7.77965 18.7471 9.63176 16.5838L9.88442 16.308L25.4193 0.450305C25.999 -0.141475 26.9487 -0.151243 27.5405 0.428488Z" fill="var(--tiny-first-color, #191919)" fill-rule="evenodd" transform="matrix(-1,0,0,1,37.9961,4)"/>
  <path id="形状结合备份" d="M1.5 0C2.32843 0 3 0.671573 3 1.5L3 38.5C3 39.3284 2.32843 40 1.5 40C0.671573 40 0 39.3284 0 38.5L0 1.5C0 0.671573 0.671573 0 1.5 0Z" fill="var(--tiny-second-color, #aeaeAE)" fill-rule="evenodd" transform="matrix(-1,0,0,1,37.9961,4)"/>
</svg>
