<svg viewBox="0 0 48 48" xmlns="http://www.w3.org/2000/svg" xmlns:xlink="http://www.w3.org/1999/xlink" width="48.000000" height="48.000000">
  <path id="矢量 1920" d="M26 4L42 4C43.1046 4 44 4.89551 44 6L44 12C44 13.1045 43.1046 14 42 14L26 14C24.8954 14 24 13.1045 24 12L24 10.5L10.1611 10.5C9.96216 10.5 9.76831 10.5225 9.57996 10.5674C9.4469 10.5986 9.31628 10.6416 9.18848 10.6958C9.05383 10.7529 8.9259 10.8203 8.80493 10.8984C8.65759 10.9941 8.52039 11.1055 8.39331 11.2324C8.26636 11.3594 8.15515 11.4961 8.05981 11.6436C7.98157 11.7646 7.91394 11.8926 7.85693 12.0273C7.80286 12.1553 7.76001 12.2856 7.72839 12.4189C7.68359 12.6074 7.66113 12.8008 7.66113 13L7.66113 21.1001C7.66113 21.2988 7.68359 21.4932 7.72839 21.6816C7.76013 21.8145 7.80298 21.9453 7.85693 22.0728C7.89893 22.1719 7.94653 22.2676 8 22.3589L8 20.502C8 20.3818 8.01367 20.2646 8.04114 20.1504C8.06848 20.0371 8.10962 19.9263 8.16443 19.8193C8.21924 19.7119 8.28479 19.6138 8.36096 19.5249C8.43726 19.436 8.52417 19.3564 8.6217 19.2861C8.78967 19.165 8.96667 19.082 9.15283 19.0381C9.33911 18.9937 9.53442 18.9883 9.73889 19.0215C9.94336 19.0542 10.127 19.1211 10.2898 19.2212C10.4528 19.3218 10.5947 19.4561 10.7161 19.624L13.5 23.4785L16.2839 19.624C16.3545 19.5264 16.4342 19.4395 16.5231 19.3633C16.6118 19.2871 16.71 19.2212 16.8171 19.1665C16.9243 19.1113 17.0348 19.0703 17.1487 19.043C17.2625 19.0156 17.3796 19.002 17.5 19.002C17.7072 19.002 17.899 19.0386 18.0758 19.1118C18.2526 19.1851 18.4142 19.2949 18.5607 19.4414C18.7072 19.5879 18.8169 19.749 18.8901 19.9263L18.8906 19.9272C18.9635 20.104 19 20.2954 19 20.502L19 28.502C19 29.3418 18.34 30.002 17.5 30.002C16.66 30.002 16 29.3418 16 28.502L16 25.1406L14.7161 26.9189C14.5947 27.0869 14.4526 27.2207 14.2898 27.3213C14.127 27.4219 13.9434 27.4883 13.7389 27.5215C13.5344 27.5542 13.3391 27.5488 13.1528 27.5049C12.9667 27.4604 12.6953 27.3037 12.5273 27.1826C12.4969 27.1562 12.3123 26.9473 12.2839 26.9189L11 25.1406L11 28.502C11 29.3418 10.34 30.002 9.5 30.002C8.66003 30.002 8 29.3418 8 28.502L8 26.1592C7.69299 26.0273 7.40259 25.8711 7.12866 25.6904C6.82251 25.4878 6.53699 25.2539 6.27209 24.9893C6.0072 24.7246 5.77356 24.4385 5.57104 24.1328C5.38599 23.8525 5.22693 23.5557 5.09399 23.2412C4.96094 22.9268 4.85852 22.6055 4.78687 22.2773C4.703 21.8945 4.66113 21.502 4.66113 21.1001L4.66113 13C4.66113 12.5981 4.70312 12.2056 4.78699 11.8223C4.85864 11.4941 4.96106 11.1729 5.09399 10.8584C5.22693 10.5444 5.38599 10.2471 5.57117 9.96729C5.77356 9.66113 6.0072 9.37598 6.27209 9.11084C6.53687 8.8457 6.82251 8.6123 7.12866 8.41016C7.40857 8.22461 7.70557 8.06543 8.01978 7.93262C8.33435 7.7998 8.65552 7.69727 8.9834 7.62598C9.36682 7.54199 9.7594 7.5 10.1611 7.5L24 7.5L24 6C24 4.89551 24.8954 4 26 4ZM41 8C41 7.44775 40.5523 7 40 7L28 7C27.4477 7 27 7.44775 27 8L27 10C27 10.5522 27.4477 11 28 11L40 11C40.5523 11 41 10.5522 41 10L41 8ZM31 28.502L31 20.502C31 20.2954 31.0365 20.104 31.1094 19.9272L31.1099 19.9263C31.1831 19.749 31.2928 19.5879 31.4393 19.4414C31.5858 19.2949 31.7474 19.1851 31.9242 19.1118C32.101 19.0386 32.2928 19.002 32.5 19.002L36 19.002C36.3126 19.002 36.6178 19.0352 36.9155 19.1016C37.12 19.1475 37.321 19.209 37.5186 19.2861C37.8049 19.3975 38.0721 19.5381 38.3201 19.7061C38.4834 19.8169 38.6384 19.9404 38.7852 20.0752C39.0232 20.2949 39.228 20.5371 39.3995 20.7998C39.5002 20.9546 39.5895 21.1167 39.6671 21.2861C39.7814 21.5356 39.8662 21.791 39.9216 22.0527C39.9739 22.2998 40 22.5518 40 22.8096C40 23.0674 39.9739 23.3193 39.9216 23.5659C39.9006 23.665 39.8755 23.7632 39.8461 23.8604C40.0024 23.9106 40.1571 23.9683 40.3103 24.0332C40.6245 24.166 40.9219 24.3252 41.2018 24.5103C41.5078 24.7129 41.7932 24.9463 42.058 25.2109C42.3223 25.4756 42.5575 25.7632 42.7596 26.0684C42.9445 26.3477 43.1033 26.6445 43.2361 26.959C43.3691 27.2734 43.4714 27.5947 43.5432 27.9224C43.6271 28.3057 43.6689 28.6982 43.6689 29.1001L43.6689 35C43.6689 35.4019 43.6271 35.7944 43.5432 36.1777C43.4716 36.5059 43.3691 36.8271 43.2361 37.1416C43.1031 37.4561 42.944 37.7529 42.7589 38.0332C42.5564 38.3389 42.3229 38.6245 42.058 38.8892C41.7932 39.1543 41.5074 39.3877 41.2014 39.5903C40.9216 39.7754 40.6245 39.9346 40.3102 40.0674C39.9957 40.2002 39.6743 40.3027 39.3464 40.374C38.9631 40.458 38.5706 40.5 38.1689 40.5L24 40.5L24 42C24 43.1045 23.1046 44 22 44L6 44C4.89539 44 4 43.1045 4 42L4 36C4 34.8955 4.89539 34 6 34L22 34C23.1046 34 24 34.8955 24 36L24 37.5L38.1689 37.5C38.3679 37.5 38.5648 37.4771 38.7532 37.4321C38.8853 37.4004 39.0148 37.3579 39.1416 37.3042C39.2759 37.2476 39.4055 37.1787 39.5261 37.1006C39.6732 37.0054 39.8101 36.8945 39.9368 36.7676C40.0636 36.6406 40.1749 36.5034 40.2703 36.3564C40.3485 36.2354 40.4161 36.1074 40.4731 35.9727C40.5271 35.8447 40.5701 35.7144 40.6017 35.5811C40.6465 35.3926 40.6689 35.1992 40.6689 35L40.6689 29.1001C40.6689 28.9014 40.6465 28.7075 40.6017 28.519C40.5701 28.3857 40.5272 28.2554 40.4731 28.1274C40.4161 27.9927 40.3477 27.8638 40.2695 27.7432C40.1743 27.5957 40.0634 27.459 39.9368 27.332C39.8097 27.2051 39.6724 27.0942 39.5249 26.999C39.4041 26.9204 39.2762 26.8525 39.1416 26.7959C39.0146 26.7422 38.8817 26.6992 38.7496 26.667C38.5614 26.6226 38.3678 26.6001 38.1689 26.6001L36.3997 26.5981C36.2678 26.6104 36.1346 26.6167 36 26.6167L34 26.6167L34 28.502C34 29.3418 33.34 30.002 32.5 30.002C31.66 30.002 31 29.3418 31 28.502ZM21 28.502L21 20.502C21 20.2954 21.0365 20.104 21.1094 19.9272L21.1099 19.9263C21.1831 19.749 21.2928 19.5879 21.4393 19.4414C21.5858 19.2949 21.7474 19.1851 21.9242 19.1118C22.101 19.0386 22.2928 19.002 22.5 19.002L25.4166 19.002C25.6566 19.002 25.8915 19.0264 26.1211 19.0752C26.375 19.1289 26.6226 19.2119 26.8639 19.3252C27.0138 19.3955 27.1575 19.4751 27.2948 19.5645C27.5532 19.7334 27.7893 19.9355 28.0032 20.1729C28.1195 20.3013 28.226 20.4365 28.3228 20.5791C28.4902 20.8247 28.6285 21.0908 28.7375 21.376C28.8062 21.5557 28.8613 21.7383 28.9031 21.9238C28.9677 22.2119 29 22.5068 29 22.8096C29 23.1113 28.9677 23.4072 28.9031 23.6943C28.8613 23.8804 28.8062 24.063 28.7375 24.2427C28.6285 24.5283 28.4902 24.7939 28.3228 25.04C28.226 25.1816 28.1194 25.3174 28.0032 25.4463C27.7894 25.6826 27.4862 25.9277 27.228 26.0967L28.5612 27.4287C29.1553 28.0225 29.1555 28.9561 28.5616 29.5498C27.9679 30.1445 27.0344 30.1445 26.4403 29.5508L24 27.1113L24 28.502C24 29.3418 23.34 30.002 22.5 30.002C21.66 30.002 21 29.3418 21 28.502ZM25.4166 23.6167L24 23.6167L24 22.002L25.4904 22.0088C25.5929 22.0273 25.7896 22.2231 25.8778 22.3208C25.9592 22.46 26 22.6226 26 22.8096C26 22.9961 25.858 23.2969 25.7765 23.4355C25.6882 23.5332 25.5192 23.5981 25.4166 23.6167ZM36 23.6167L34 23.6167L34 22.002L36 22.002C36.2004 22.002 36.3789 22.0439 36.5352 22.127C36.6123 22.168 36.6841 22.2188 36.7504 22.2803C36.8658 22.3867 36.9414 22.5044 36.9767 22.6328C36.988 22.6743 36.9827 22.812 36.979 22.9062C36.9777 22.9409 36.9766 22.9697 36.9766 22.9858C36.9413 23.1143 36.8658 23.2324 36.7504 23.3389C36.684 23.3999 36.6121 23.4512 36.5349 23.4922C36.3787 23.5752 36.2003 23.6167 36 23.6167ZM20 37C20.5523 37 21 37.4478 21 38L21 40C21 40.5522 20.5523 41 20 41L8 41C7.44771 41 7 40.5522 7 40L7 38C7 37.4478 7.44771 37 8 37L20 37Z" fill="var(--tiny-first-color)" fill-rule="evenodd"/>
  <path id="矢量 1921" d="M24 37.5L24 36C24 34.8955 23.1046 34 22 34L6 34C4.89539 34 4 34.8955 4 36L4 42C4 43.1045 4.89539 44 6 44L22 44C23.1046 44 24 43.1045 24 42L24 37.5ZM24 12C24 13.1045 24.8954 14 26 14L42 14C43.1046 14 44 13.1045 44 12L44 6C44 4.89551 43.1046 4 42 4L26 4C24.8954 4 24 4.89551 24 6L24 12ZM41 8C41 7.44775 40.5523 7 40 7L28 7C27.4477 7 27 7.44775 27 8L27 10C27 10.5522 27.4477 11 28 11L40 11C40.5523 11 41 10.5522 41 10L41 8ZM20 37C20.5523 37 21 37.4478 21 38L21 40C21 40.5522 20.5523 41 20 41L8 41C7.44771 41 7 40.5522 7 40L7 38C7 37.4478 7.44771 37 8 37L20 37Z" fill="var(--tiny-second-color)" fill-rule="evenodd"/>
</svg>