<svg viewBox="0 0 48 48" xmlns="http://www.w3.org/2000/svg" xmlns:xlink="http://www.w3.org/1999/xlink" width="48.000000" height="48.000000" fill="none">
  <path id="矢量 165" d="M42 4L26 4C24.8954 4 24 4.89551 24 6L24 7.5L10.1611 7.5C9.7594 7.5 9.36682 7.54199 8.9834 7.62573C8.65552 7.69751 8.33435 7.7998 8.01978 7.93286C7.70557 8.06567 7.40857 8.22485 7.12866 8.40991C6.82251 8.6123 6.53687 8.84595 6.27209 9.11084C6.0072 9.37573 5.77356 9.66113 5.57117 9.96729C5.38599 10.2471 5.22693 10.5444 5.09399 10.8586C4.96106 11.1731 4.85864 11.4941 4.78699 11.822C4.70312 12.2056 4.66113 12.5981 4.66113 13L4.66113 21.1001C4.66113 21.5017 4.703 21.8943 4.78687 22.2776C4.85852 22.6055 4.96094 22.927 5.09399 23.2415C5.22693 23.5557 5.38599 23.8528 5.57104 24.1326C5.77356 24.4387 6.0072 24.7244 6.27209 24.9893C6.53699 25.2542 6.82251 25.4878 7.12866 25.6902C7.40259 25.8713 7.69299 26.0276 8 26.1589L8 28.502C8 29.342 8.66003 30.002 9.5 30.002C10.34 30.002 11 29.342 11 28.502L11 25.1409L12.2839 26.9187C12.3123 26.947 12.4969 27.1565 12.5273 27.1824C12.6953 27.3037 12.9667 27.4604 13.1528 27.5046C13.3391 27.5488 13.5344 27.5542 13.7389 27.5212C13.9434 27.4883 14.127 27.4216 14.2898 27.3213C14.4526 27.2207 14.5947 27.0867 14.7161 26.9187L16 25.1409L16 28.502C16 29.342 16.66 30.002 17.5 30.002C18.34 30.002 19 29.342 19 28.502L19 20.502C19 20.2949 18.9634 20.103 18.8901 19.9263C18.8169 19.7493 18.7072 19.5879 18.5607 19.4414C18.4142 19.2949 18.2526 19.1851 18.0758 19.1118C17.899 19.0386 17.7072 19.002 17.5 19.002C17.3796 19.002 17.2625 19.0156 17.1487 19.0432C17.0348 19.0706 16.9243 19.1116 16.8171 19.1665C16.71 19.2212 16.6118 19.2869 16.5231 19.363C16.4342 19.4392 16.3545 19.5261 16.2839 19.6238L13.5 23.4785L10.7161 19.6238C10.5947 19.4558 10.4528 19.3218 10.2898 19.2212C10.127 19.1208 9.94336 19.0542 9.73889 19.0212C9.53442 18.988 9.33911 18.9937 9.15283 19.0378C8.96667 19.082 8.78967 19.1648 8.6217 19.2859C8.52417 19.3564 8.43726 19.436 8.36096 19.5249C8.28479 19.6138 8.21924 19.7119 8.16443 19.8191C8.10962 19.9263 8.06848 20.0369 8.04114 20.1506C8.01367 20.2644 8 20.3816 8 20.502L8 22.3589C7.94653 22.2673 7.89893 22.1719 7.85693 22.0728C7.80298 21.9451 7.76013 21.8145 7.72839 21.6814C7.68359 21.4932 7.66113 21.2991 7.66113 21.1001L7.66113 13C7.66113 12.801 7.68359 12.6072 7.72839 12.4189C7.76001 12.2856 7.80286 12.1553 7.85693 12.0273C7.91394 11.8926 7.98157 11.7649 8.05981 11.6438C8.15515 11.4963 8.26636 11.3591 8.39331 11.2322C8.52039 11.1052 8.65759 10.9941 8.80493 10.8987C8.9259 10.8206 9.05383 10.7529 9.18848 10.6958C9.31628 10.6418 9.4469 10.5989 9.57996 10.5671C9.76831 10.5225 9.96216 10.5 10.1611 10.5L24 10.5L24 12C24 13.1045 24.8954 14 26 14L42 14C43.1046 14 44 13.1045 44 12L44 6C44 4.89551 43.1046 4 42 4ZM21 20.502L21 28.502C21 29.342 21.66 30.002 22.5 30.002C23.34 30.002 24 29.342 24 28.502L24 27.1116L26.4403 29.5508C27.0344 30.1445 27.9679 30.1443 28.5616 29.55C29.1555 28.9561 29.1553 28.0227 28.5612 27.429L27.228 26.0964C27.4862 25.928 27.7894 25.6829 28.0032 25.446C28.1194 25.3174 28.226 25.1819 28.3228 25.0398C28.4902 24.7939 28.6285 24.5283 28.7375 24.2427C28.8062 24.063 28.8613 23.8804 28.9031 23.6946C28.9677 23.4072 29 23.1113 29 22.8093C29 22.5071 28.9677 22.2119 28.9031 21.9241C28.8613 21.7383 28.8062 21.5557 28.7375 21.376C28.6285 21.0906 28.4902 20.8247 28.3228 20.5789C28.226 20.4368 28.1195 20.3013 28.0032 20.1726C27.7893 19.9358 27.5532 19.7332 27.2948 19.5647C27.1575 19.4751 27.0138 19.3953 26.8639 19.325C26.6226 19.2119 26.375 19.1287 26.1211 19.075C25.8915 19.0264 25.6566 19.002 25.4166 19.002L22.5 19.002C22.2928 19.002 22.101 19.0386 21.9242 19.1118C21.7474 19.1851 21.5858 19.2949 21.4393 19.4414C21.2928 19.5879 21.1831 19.7493 21.1099 19.9263C21.0366 20.103 21 20.2949 21 20.502ZM31 20.502L31 28.502C31 29.342 31.66 30.002 32.5 30.002C33.34 30.002 34 29.342 34 28.502L34 26.6167L36 26.6167C36.1346 26.6167 36.2678 26.6106 36.3997 26.5981L38.1689 26.6001C38.3678 26.6001 38.5614 26.6226 38.7496 26.6672C38.8817 26.699 39.0146 26.7422 39.1416 26.7959C39.2762 26.8528 39.4041 26.9204 39.5249 26.9988C39.6724 27.0942 39.8097 27.2053 39.9368 27.3323C40.0634 27.459 40.1743 27.5959 40.2695 27.7429C40.3477 27.8638 40.4161 27.9927 40.4731 28.1274C40.5272 28.2554 40.5701 28.3857 40.6017 28.519C40.6465 28.7075 40.6689 28.9011 40.6689 29.1001L40.6689 35C40.6689 35.1992 40.6465 35.3928 40.6017 35.5813C40.5701 35.7144 40.5271 35.845 40.4731 35.9727C40.4161 36.1074 40.3485 36.2354 40.2703 36.3562C40.1749 36.5034 40.0636 36.6409 39.9368 36.7678C39.8101 36.8945 39.6732 37.0054 39.5261 37.1006C39.4055 37.1785 39.2759 37.2476 39.1416 37.3042C39.0148 37.3579 38.8853 37.4006 38.7532 37.4321C38.5648 37.4771 38.3679 37.5 38.1689 37.5L24 37.5L24 36C24 34.8955 23.1046 34 22 34L6 34C4.89539 34 4 34.8955 4 36L4 42C4 43.1045 4.89539 44 6 44L22 44C23.1046 44 24 43.1045 24 42L24 40.5L38.1689 40.5C38.5706 40.5 38.9631 40.4583 39.3464 40.3743C39.6743 40.3027 39.9957 40.2002 40.3102 40.0674C40.6245 39.9343 40.9216 39.7754 41.2014 39.5903C41.5074 39.3879 41.7932 39.1541 42.058 38.8892C42.3229 38.6245 42.5564 38.3389 42.7589 38.033C42.944 37.7532 43.1031 37.4558 43.2361 37.1414C43.3691 36.8269 43.4716 36.5056 43.5432 36.1777C43.6271 35.7944 43.6689 35.4019 43.6689 35L43.6689 29.1001C43.6689 28.6982 43.6271 28.3057 43.5432 27.9224C43.4714 27.5945 43.3691 27.2732 43.2361 26.9587C43.1033 26.6448 42.9445 26.3479 42.7596 26.0684C42.5575 25.7632 42.3223 25.4753 42.058 25.2109C41.7932 24.9463 41.5078 24.7126 41.2018 24.5103C40.9219 24.3252 40.6245 24.1658 40.3103 24.033C40.1571 23.9683 40.0024 23.9106 39.8461 23.8604C39.8755 23.7632 39.9006 23.665 39.9216 23.5659C39.9739 23.3193 40 23.0671 40 22.8093C40 22.5518 39.9739 22.2996 39.9216 22.053C39.8662 21.7913 39.7814 21.5356 39.6671 21.2864C39.5895 21.1167 39.5002 20.9546 39.3995 20.8C39.228 20.5369 39.0232 20.2952 38.7852 20.0754C38.6384 19.9402 38.4834 19.8169 38.3201 19.7061C38.0721 19.5378 37.8049 19.3977 37.5186 19.2859C37.321 19.209 37.12 19.1475 36.9155 19.1018C36.6178 19.0352 36.3126 19.002 36 19.002L32.5 19.002C32.2928 19.002 32.101 19.0386 31.9242 19.1118C31.7474 19.1851 31.5858 19.2949 31.4393 19.4414C31.2928 19.5879 31.1831 19.7493 31.1099 19.9263C31.0366 20.103 31 20.2949 31 20.502ZM24 23.6167L25.4166 23.6167C25.5192 23.5981 25.6882 23.5334 25.7765 23.4358C25.858 23.2969 26 22.9961 26 22.8093C26 22.6226 25.9592 22.4597 25.8778 22.3208C25.7896 22.2231 25.5929 22.0271 25.4904 22.0085L24 22.002L24 23.6167ZM34 23.6167L36 23.6167C36.2003 23.6167 36.3787 23.5752 36.5349 23.4922C36.6121 23.4512 36.684 23.3999 36.7504 23.3386C36.8658 23.2322 36.9413 23.1145 36.9766 22.9858C36.9766 22.925 36.9922 22.6897 36.9767 22.6331C36.9414 22.5044 36.8658 22.3867 36.7504 22.28C36.6841 22.2188 36.6123 22.1677 36.5352 22.1267C36.3789 22.0437 36.2004 22.002 36 22.002L34 22.002L34 23.6167Z" fill="var(--tiny-first-color, #191919)" fill-rule="evenodd"/>
  <path id="减去顶层" d="M42 4L26 4C24.8954 4 24 4.89551 24 6L24 12C24 13.1045 24.8954 14 26 14L42 14C43.1046 14 44 13.1045 44 12L44 6C44 4.89551 43.1046 4 42 4ZM24 42L24 36C24 34.8955 23.1046 34 22 34L6 34C4.89539 34 4 34.8955 4 36L4 42C4 43.1045 4.89539 44 6 44L22 44C23.1046 44 24 43.1045 24 42Z" fill="var(--tiny-second-color, #aeaeAE)" fill-rule="evenodd"/>
</svg>
