<svg viewBox="0 0 48 48" xmlns="http://www.w3.org/2000/svg" xmlns:xlink="http://www.w3.org/1999/xlink" width="48.000000" height="48.000000">
  <path id="形状结合" d="M33.573 4C36.7684 4 39.3803 6.49784 39.5628 9.64745L39.573 10L39.573 26.656C39.573 28.4924 38.1588 29.9984 36.3601 30.1444L36.073 30.156L14.5461 30.156C13.7177 30.156 13.0461 29.4845 13.0461 28.656C13.0461 27.8966 13.6104 27.2691 14.3426 27.1697L14.5461 27.156L14.846 27.156L14.8461 24.1739C14.029 23.7006 13.4559 22.8527 13.3615 21.8651L13.3478 21.5762C13.3478 20.4665 13.9503 19.4975 14.8461 18.9785L14.8478 11.8548C14.8478 11.0264 15.5193 10.3548 16.3478 10.3548C17.1762 10.3548 17.8478 11.0264 17.8478 11.8548L17.8486 18.9781C18.7448 19.4969 19.3478 20.4662 19.3478 21.5762C19.3478 22.6863 18.7448 23.6556 17.8486 24.1744L17.846 27.156L22.5 27.156L22.4992 18.639C21.6816 18.1657 21.1081 17.3176 21.0137 16.3297L21 16.0408C21 14.9307 21.6029 13.9615 22.4992 13.4427L22.5 11.8548C22.5 11.0264 23.1716 10.3548 24 10.3548C24.8284 10.3548 25.5 11.0264 25.5 11.8548L25.5028 13.4438C26.398 13.9629 27 14.9316 27 16.0408C27 17.1501 26.398 18.1187 25.5028 18.6378L25.5 27.156L30.152 27.156L30.1514 24.1744C29.3338 23.7011 28.7604 22.853 28.666 21.8651L28.6522 21.5762C28.6522 20.4662 29.2552 19.4969 30.1514 18.9781L30.1522 11.8548C30.1522 11.0264 30.8238 10.3548 31.6522 10.3548C32.4807 10.3548 33.1522 11.0264 33.1522 11.8548L33.1539 18.9785C34.0497 19.4975 34.6522 20.4665 34.6522 21.5762C34.6522 22.686 34.0497 23.655 33.1539 24.1739L33.152 27.156L36.073 27.156C36.3097 27.156 36.508 26.9916 36.5598 26.7707L36.573 10C36.573 8.44061 35.3832 7.1591 33.8619 7.01373L33.573 7L14 7C12.4406 7 11.1591 8.18978 11.0137 9.71108L11 10L11 38C11 39.5594 12.1898 40.8409 13.7111 40.9863L14 41L34 41C35.5594 41 36.8409 39.8102 36.9863 38.2889L37 38L37 33.674C37 32.8456 37.6716 32.174 38.5 32.174C39.2594 32.174 39.887 32.7384 39.9863 33.4705L40 33.674L40 38C40 41.1954 37.5022 43.8073 34.3525 43.9898L34 44L14 44C10.8046 44 8.19268 41.5022 8.01019 38.3525L8 38L8 10C8 6.80464 10.4978 4.19268 13.6475 4.01019L14 4L33.573 4ZM22.8488 33.0759C23.5703 33.3487 24.2374 33.7894 24.8372 34.3968L25.1314 34.7144C25.4863 35.1221 25.845 35.3776 26.2124 35.5165C26.9482 35.7948 27.8341 35.6232 28.7575 35.112C28.9893 34.9837 29.1849 34.8567 29.3327 34.7508L29.5607 34.5728C30.1828 34.0257 31.1306 34.0866 31.6777 34.7087C32.2248 35.3308 32.1639 36.2786 31.5418 36.8256C31.2605 37.073 30.8066 37.4067 30.2105 37.7367C28.591 38.6332 26.8594 38.9685 25.1512 38.3226C24.4297 38.0497 23.7626 37.609 23.1628 37.0016L22.8686 36.6841C22.5137 36.2764 22.155 36.0208 21.7876 35.8819C21.0518 35.6036 20.1659 35.7752 19.2425 36.2864C18.8562 36.5002 18.5703 36.7104 18.4393 36.8256C17.8172 37.3727 16.8694 37.3119 16.3223 36.6898C15.7752 36.0676 15.8361 35.1199 16.4582 34.5728C16.7395 34.3254 17.1934 33.9917 17.7895 33.6617C19.409 32.7652 21.1406 32.4299 22.8488 33.0759Z" fill="var(--tiny-first-color, #191919)" fill-rule="evenodd"/>
  <path id="形状结合" d="M22.8488 33.0761C23.5703 33.349 24.2374 33.7897 24.8372 34.3971L25.1314 34.7146C25.4863 35.1223 25.845 35.3778 26.2124 35.5167C26.9482 35.795 27.8341 35.6235 28.7575 35.1123C28.9893 34.984 29.1849 34.857 29.3327 34.751L29.5607 34.573C30.1828 34.026 31.1306 34.0868 31.6777 34.7089C32.2248 35.331 32.1639 36.2788 31.5418 36.8259C31.2605 37.0732 30.8066 37.4069 30.2105 37.7369C28.591 38.6335 26.8594 38.9688 25.1512 38.3228C24.4297 38.05 23.7626 37.6092 23.1628 37.0019L22.8686 36.6843C22.5137 36.2766 22.155 36.0211 21.7876 35.8822C21.0518 35.6039 20.1659 35.7754 19.2425 36.2866C18.8562 36.5005 18.5703 36.7107 18.4393 36.8259C17.8172 37.3729 16.8694 37.3121 16.3223 36.69C15.7752 36.0679 15.8361 35.1201 16.4582 34.573C16.7395 34.3257 17.1934 33.992 17.7895 33.662C19.409 32.7655 21.1406 32.4302 22.8488 33.0761Z" fill="var(--tiny-second-color, #aeaeAE)" fill-rule="evenodd"/>
</svg>