<svg viewBox="0 0 48 48" xmlns="http://www.w3.org/2000/svg" xmlns:xlink="http://www.w3.org/1999/xlink" width="48.000000" height="48.000000">
  <path id="形状结合" d="M39.9996 30.158L40 38C40 41.3137 37.3137 44 34 44L14 44C10.6863 44 8 41.3137 8 38L7.99957 30.158L39.9996 30.158ZM22.8488 34.5098C21.1406 33.8638 19.409 34.1991 17.7895 35.0956C17.1934 35.4256 16.7395 35.7593 16.4582 36.0067C15.8361 36.5537 15.7752 37.5015 16.3223 38.1236C16.8694 38.7457 17.8172 38.8066 18.4393 38.2595C18.5703 38.1443 18.8562 37.9341 19.2425 37.7203C20.1659 37.209 21.0518 37.0375 21.7876 37.3158C22.155 37.4547 22.5137 37.7103 22.8686 38.1179L23.1628 38.4355C23.7626 39.0429 24.4297 39.4836 25.1512 39.7564C26.8594 40.4024 28.591 40.0671 30.2105 39.1706C30.8066 38.8406 31.2605 38.5069 31.5418 38.2595C32.1639 37.7125 32.2248 36.7647 31.6777 36.1425C31.1306 35.5204 30.1828 35.4596 29.5607 36.0067L29.3327 36.1847C29.1849 36.2906 28.9893 36.4176 28.7575 36.5459C27.8341 37.0571 26.9482 37.2287 26.2124 36.9504C25.845 36.8115 25.4863 36.5559 25.1314 36.1483L24.8372 35.8307C24.2374 35.2233 23.5703 34.7826 22.8488 34.5098ZM34 4C37.3137 4 40 6.68629 40 10L39.9996 27.158L33.1516 27.158L33.1539 24.1739C34.0497 23.655 34.6522 22.686 34.6522 21.5762C34.6522 20.4665 34.0497 19.4975 33.1539 18.9785L33.1522 11.8548C33.1522 11.0264 32.4807 10.3548 31.6522 10.3548C30.8238 10.3548 30.1522 11.0264 30.1522 11.8548L30.1506 18.9785C29.2548 19.4975 28.6522 20.4665 28.6522 21.5762C28.6522 22.686 29.2548 23.655 30.1506 24.1739L30.1516 27.158L25.4996 27.158L25.5016 18.6385C26.3974 18.1196 27 17.1506 27 16.0408C27 14.9311 26.3974 13.9621 25.5016 13.4431L25.5 11.8548C25.5 11.0264 24.8284 10.3548 24 10.3548C23.1716 10.3548 22.5 11.0264 22.5 11.8548L22.4984 13.4431C21.6026 13.9621 21 14.9311 21 16.0408C21 17.1506 21.6026 18.1196 22.4984 18.6385L22.4996 27.158L17.8476 27.158L17.8494 24.1739C18.7452 23.655 19.3478 22.686 19.3478 21.5762C19.3478 20.4665 18.7452 19.4975 17.8494 18.9785L17.8478 11.8548C17.8478 11.0264 17.1762 10.3548 16.3478 10.3548C15.5193 10.3548 14.8478 11.0264 14.8478 11.8548L14.8469 18.9781C13.9507 19.4969 13.3478 20.4662 13.3478 21.5762C13.3478 22.6863 13.9507 23.6556 14.8469 24.1744L14.8476 27.158L7.99957 27.158L8 10C8 6.68629 10.6863 4 14 4L34 4Z" fill="var(--tiny-first-color, #191919)" fill-rule="evenodd"/>
  <path id="形状结合" d="M39.9995 30.1582L39.9999 38.0002C39.9999 41.3139 37.3136 44.0002 33.9999 44.0002L13.9999 44.0002C10.6862 44.0002 7.99994 41.3139 7.99994 38.0002L7.99951 30.1582L39.9995 30.1582ZM22.8487 34.51C21.1406 33.864 19.4089 34.1993 17.7894 35.0958C17.1933 35.4258 16.7394 35.7595 16.4581 36.0069C15.836 36.5539 15.7752 37.5017 16.3222 38.1238C16.8693 38.7459 17.8171 38.8068 18.4392 38.2597C18.5702 38.1445 18.8561 37.9343 19.2424 37.7205C20.1659 37.2093 21.0517 37.0377 21.7876 37.316C22.1549 37.4549 22.5137 37.7105 22.8685 38.1181L23.1628 38.4357C23.7625 39.0431 24.4296 39.4838 25.1511 39.7566C26.8593 40.4026 28.591 40.0673 30.2104 39.1708C30.8066 38.8408 31.2605 38.5071 31.5418 38.2597C32.1639 37.7127 32.2247 36.7649 31.6776 36.1427C31.1306 35.5206 30.1828 35.4598 29.5607 36.0069L29.3326 36.1849C29.1849 36.2908 28.9892 36.4178 28.7575 36.5461C27.834 37.0573 26.9482 37.2289 26.2123 36.9506C25.845 36.8117 25.4862 36.5561 25.1313 36.1485L24.8371 35.8309C24.2373 35.2235 23.5702 34.7828 22.8487 34.51Z" fill="var(--tiny-second-color, #aeaeAE)" fill-rule="evenodd"/>
</svg>