<svg viewBox="0 0 48 48" xmlns="http://www.w3.org/2000/svg" xmlns:xlink="http://www.w3.org/1999/xlink" width="48.000000" height="48.000000">
  <path id="path4" d="M31.8475 34.2547C35.101 37.5127 36.5974 39.6607 38.514 38.193C40.0286 37.0331 39.6066 35.7371 39.5039 30.3807C40.5087 30.1004 41.483 29.4434 42.4269 28.4098C43.8428 26.8593 45.112 23.2377 42.4269 21.4069C40.886 20.1012 38.3788 20.4292 34.7443 20.3499C38.6398 18.0624 40.1253 15.6354 39.2009 13.0689C37.8142 9.2192 33.9351 10.3079 32.4455 10.2602C32.2993 7.44208 31.3678 5.5711 29.6511 4.64725C27.076 3.26147 24.2837 3.93387 23.0357 8.30321C22.2128 11.184 22.2406 13.8769 21.8322 15.865C17.7901 11.7316 14.6345 7.65636 11.2242 9.05165C7.81388 10.4469 8.80932 13.0689 8.80932 15.865C6.81444 16.2316 5.67122 17.1566 4.91201 18.1979C2.57226 21.4069 5.1252 25.0903 8.16252 26.2473C10.6216 27.184 12.8406 27.7819 14.8194 28.0411C12.8499 28.5375 11.1938 29.7009 9.85106 31.5312C8.75684 33.0228 8.12198 36.0807 10.1604 37.6938C12.1989 39.3069 13.761 38.2975 15.6513 39.0555C17.5416 39.8135 17.3637 42.0084 19.7956 42.5128C22.2275 43.0171 23.0486 42.0084 24.0207 39.8827C24.7008 38.3955 25.9092 36.365 27.1156 33.8839C27.7631 35.3804 27.7631 36.6833 27.7631 37.6938C27.7631 38.3863 27.662 41.2501 27.7631 42.5128C27.8106 43.1062 28.1365 44.1114 29.6511 43.99C31.1657 43.8686 31.8475 40.6975 31.8475 38.193C31.8475 37.2048 31.8475 35.8172 31.8475 34.2547Z" fill="var(--tiny-first-color)" fill-rule="evenodd"/>
</svg>