<svg viewBox="0 0 48 48" xmlns="http://www.w3.org/2000/svg" xmlns:xlink="http://www.w3.org/1999/xlink" width="48.000000" height="48.000000">
  <path id="矢量 148" d="M21.7503 9.02263L21.6662 9.3234L21.4921 10.0049C21.4398 10.2272 21.3925 10.4478 21.3484 10.6763L21.224 11.3954L21.1077 12.2202L20.968 13.3747L20.2126 12.5897L19.6332 12.0055L19.1064 11.4936C19.0212 11.4127 18.9369 11.3335 18.8528 11.2555C17.2622 9.77943 15.9278 8.90388 14.5239 8.57848C13.528 8.34769 12.5398 8.41857 11.5812 8.81076L11.2582 8.9492C8.75645 10.0734 8.22142 11.6143 8.38565 14.7199L8.42538 15.3681C7.06766 15.8499 5.90738 16.695 5.11352 17.7838C2.51863 21.3427 4.75561 25.8652 8.76621 27.3929L9.55229 27.6833C10.071 27.869 10.5791 28.0386 11.0767 28.1923L11.4416 28.2994C10.8344 28.8216 10.2206 29.4789 9.70812 30.1774C8.03733 32.4549 7.91316 35.9728 10.2548 37.8259C11.3789 38.7153 12.272 38.9842 13.7276 39.0577L14.701 39.0953C15.1595 39.1232 15.4135 39.1753 15.7065 39.2927C15.9478 39.3895 16.1115 39.5201 16.3657 39.8516L16.7037 40.3251C17.6085 41.638 18.3398 42.2764 19.7955 42.5783C22.4732 43.1336 23.8774 42.2247 25.1149 39.6875L25.4123 39.0667L26.0725 37.783L26.0524 39.1701L26.0508 39.9198L26.0599 40.5616L26.081 41.0965C26.0856 41.1768 26.0907 41.2526 26.0965 41.324C26.2226 42.8995 27.3278 44.1387 29.3536 43.9763L29.6086 43.9438C31.6844 43.5769 32.6043 40.8384 32.6745 37.6032L32.6776 36.9351L33.1309 37.378L33.3526 37.5849C34.5109 38.6186 35.476 39.1183 36.6052 39.0165C37.2182 38.9613 37.7919 38.716 38.3305 38.3036L38.6412 38.0571C39.3655 37.4564 39.7047 36.9428 39.8371 35.8515L39.8795 35.3825C39.8902 35.2149 39.8976 35.0354 39.9023 34.8425L39.9082 34.2219L39.8996 33.5114L39.8652 32.2561L39.82 30.8674C40.5877 30.4587 41.4555 29.8018 42.1506 29.0406C44.4117 26.5646 44.8999 22.4779 41.9064 20.4368L41.7044 20.2735C40.8856 19.65 39.9231 19.3779 38.3512 19.2768L37.9884 19.2564C39.5811 17.4803 40.1777 15.4305 39.4334 13.364C38.6643 11.2288 37.1415 10.1073 35.1412 9.81345L34.8232 9.77307C34.404 9.72841 33.9961 9.71984 33.512 9.73837L33.0848 9.75974C32.6921 7.45321 31.637 5.71148 29.903 4.77837C26.42 2.90398 23.0559 4.45178 21.7503 9.02263ZM30.4475 11.2975C30.3346 9.12197 29.6928 7.83281 28.5812 7.23459C26.7054 6.22514 25.2603 6.89004 24.4323 9.78874C24.4069 9.8776 24.3827 9.96429 24.3594 10.0494L24.2313 10.5473L24.1217 11.0395L24.025 11.5571L23.9354 12.1309L23.8018 13.1649L23.6112 14.8677L23.499 15.7729L23.4233 16.2646L23.3385 16.717C23.1136 17.8118 21.7567 18.2106 20.9752 17.4115L18.3202 14.6983L17.1601 13.5261L16.4529 12.8296L15.7878 12.2103L15.4794 11.9498L15.1433 11.7054L14.7948 11.5222L14.5308 11.4362L13.6338 11.2502C13.2924 11.2106 12.9703 11.2562 12.6374 11.3924C11.3336 11.9258 11.072 12.3868 11.1536 14.2514L11.2523 16.0056L11.2587 16.4364C11.2587 17.1094 10.7781 17.6864 10.1161 17.808C8.80599 18.0488 7.98569 18.5791 7.36735 19.4271C6.01634 21.2801 7.28427 23.8435 9.75914 24.7863C11.9498 25.6207 13.9095 26.1488 15.6332 26.3745C17.1584 26.5743 17.2845 28.7337 15.7929 29.1097C14.2864 29.4895 13.0191 30.3797 11.9571 31.8273C11.0785 33.025 11.0134 34.8691 11.9857 35.6385C12.6344 36.1518 13.0544 36.2541 14.2131 36.2849L14.643 36.2993C15.5299 36.3376 16.0545 36.4271 16.7446 36.7038C17.7231 37.0962 18.2177 37.6056 18.9536 38.6742L19.1688 38.9808C19.5926 39.564 19.8367 39.7382 20.362 39.8471C21.5187 40.087 21.8668 39.9623 22.4779 38.7376L22.9199 37.8161L25.0294 33.7624L25.6175 32.6067L25.7396 32.3919C26.3401 31.5161 27.7208 31.6101 28.1647 32.6361C28.7527 33.9951 28.8814 35.0111 28.8814 36.7322L28.8445 38.9074L28.8426 40.1807L28.8549 40.7008L28.8819 41.2036L29.1306 41.196C29.164 41.1933 29.2199 41.0975 29.2868 40.9271L29.394 40.618L29.5088 40.211L29.6224 39.7201L29.7261 39.1592C29.8219 38.568 29.8896 37.8928 29.8896 37.1963L29.8896 33.5346C29.8896 32.2916 31.3928 31.6696 32.2711 32.5491L35.012 35.2865L35.7044 35.9453L35.9092 36.1175L36.1514 36.251L36.4012 36.2283C36.4542 36.211 36.5286 36.1703 36.6346 36.0891L36.8864 35.8548L37.0411 35.5148L37.0792 35.3138L37.1052 35.0605L37.12 34.745L37.1203 33.8864L37.0305 30.8926L37.0086 29.9594C36.9964 29.3237 37.4157 28.7602 38.0282 28.5893C38.6886 28.4051 39.3782 27.9401 40.0909 27.1597C41.3575 25.7727 41.6153 23.6143 40.2191 22.6531C39.8127 22.3641 39.1138 22.1218 38.0611 22.0562L37.3707 22.0267C37.1201 22.0201 36.8484 22.0165 36.553 22.0154L34.6712 22.0116L33.9472 22.0006C32.542 21.97 32.0594 20.1153 33.2714 19.4037C36.3828 17.5766 37.3921 15.9277 36.8091 14.3093C36.4084 13.1969 35.7672 12.7247 34.7358 12.5731C34.2404 12.5004 33.752 12.5054 32.9248 12.567L32.3651 12.6071L32.0499 12.622L31.7956 12.6192C31.0711 12.5959 30.4851 12.0215 30.4475 11.2975Z" fill="var(--tiny-first-color)" fill-rule="evenodd"/>
</svg>