<svg viewBox="0 0 48 48" xmlns="http://www.w3.org/2000/svg" xmlns:xlink="http://www.w3.org/1999/xlink" width="48.000000" height="48.000000">
  <path id="形状结合" d="M11.998 42C8.692 42 6 39.308 6 36.002L6 11.998C6 8.692 8.692 6 11.998 6L36.002 6C39.308 6 42 8.692 42 11.998C42 12.826 41.328 13.498 40.5 13.498C39.672 13.498 39 12.826 39 11.998C39 10.346 37.654 9 36.002 9L11.998 9C10.346 9 9 10.346 9 11.998L9 36.002C9 37.654 10.346 39 11.998 39L36.002 39C37.654 39 39 37.654 39 36.002L39 17.0126C39 16.1846 39.672 15.5126 40.5 15.5126C41.328 15.5126 42 16.1846 42 17.0126L42 36.002C42 39.308 39.308 42 36.002 42L11.998 42Z" fill="var(--tiny-first-color)" fill-rule="evenodd"/>
  <path id="path" d="M29.3843 17.5298L20.2306 17.5298L20.2306 22.3767L29.3842 22.3767C30.2887 22.3767 31 23.0867 31 23.9924C31 24.8967 30.2887 25.6067 29.3842 25.6067L20.2306 25.6067L20.2306 30.4536L29.3843 30.4536C30.2887 30.4536 31 31.1636 31 32.0693C31 32.9736 30.2887 33.6836 29.3843 33.6836L18.615 33.6836C18.0767 33.6836 17.6731 33.5495 17.4036 33.28C17.1341 33.0105 17 32.607 17 32.0693L17 15.9155C17 15.3765 17.1341 14.9729 17.4036 14.7034C17.6731 14.4339 18.0767 14.2998 18.615 14.2998L29.3843 14.2998C30.2887 14.2998 31 15.0097 31 15.9155C31 16.8199 30.2887 17.5298 29.3843 17.5298Z" fill="var(--tiny-second-color)" fill-rule="evenodd"/>
</svg>