<svg viewBox="0 0 48 48" xmlns="http://www.w3.org/2000/svg" xmlns:xlink="http://www.w3.org/1999/xlink" width="48.000000" height="48.000000">
  <path id="形状结合" d="M34 3.99951C37.308 3.99951 40 6.69151 40 9.99951L40 23.6235C38.232 22.5975 36.188 21.9995 34 21.9995C27.382 21.9995 22 27.3815 22 33.9995C22 38.1715 24.142 41.8495 27.38 43.9995L14 43.9995C10.692 43.9995 8 41.3075 8 37.9995L8 9.99951C8 6.69151 10.692 3.99951 14 3.99951L34 3.99951ZM24 18.4995L16 18.4995C15.172 18.4995 14.5 19.1715 14.5 19.9995C14.5 20.8275 15.172 21.4995 16 21.4995L24 21.4995C24.828 21.4995 25.5 20.8275 25.5 19.9995C25.5 19.1715 24.828 18.4995 24 18.4995ZM32 10.4995L16 10.4995C15.172 10.4995 14.5 11.1715 14.5 11.9995C14.5 12.8275 15.172 13.4995 16 13.4995L32 13.4995C32.828 13.4995 33.5 12.8275 33.5 11.9995C33.5 11.1715 32.828 10.4995 32 10.4995Z" fill="var(--tiny-first-color)" fill-rule="evenodd"/>
  <path id="减去顶层" d="M44 34C44 28.486 39.514 24 34 24C28.486 24 24 28.486 24 34C24 39.514 28.486 44 34 44C39.514 44 44 39.514 44 34ZM35.4863 28.2964C35.387 27.5642 34.7594 27 34 27C33.1716 27 32.5 27.6716 32.5 28.5L32.5 34.248L32.5137 34.4517C32.613 35.1838 33.2406 35.748 34 35.748C34.8284 35.748 35.5 35.0765 35.5 34.248L35.5 28.5L35.4863 28.2964ZM36 39.5C36 38.394 35.106 37.5 34 37.5C32.894 37.5 32 38.394 32 39.5C32 40.604 32.894 41.5 34 41.5C35.106 41.5 36 40.604 36 39.5Z" fill="var(--tiny-first-color)" fill-rule="evenodd"/>
  <path id="减去顶层" d="M44 34C44 28.486 39.514 24 34 24C28.486 24 24 28.486 24 34C24 39.514 28.486 44 34 44C39.514 44 44 39.514 44 34ZM35.4863 28.2964C35.387 27.5642 34.7594 27 34 27C33.1716 27 32.5 27.6716 32.5 28.5L32.5 34.248L32.5137 34.4517C32.613 35.1838 33.2406 35.748 34 35.748C34.8284 35.748 35.5 35.0765 35.5 34.248L35.5 28.5L35.4863 28.2964ZM36 39.5C36 38.394 35.106 37.5 34 37.5C32.894 37.5 32 38.394 32 39.5C32 40.604 32.894 41.5 34 41.5C35.106 41.5 36 40.604 36 39.5Z" fill="var(--tiny-second-color)" fill-rule="evenodd"/>
</svg>