<svg viewBox="0 0 48 48" xmlns="http://www.w3.org/2000/svg" xmlns:xlink="http://www.w3.org/1999/xlink" width="48.000000" height="48.000000">
  <path id="矢量 1998" d="M4.97856 18.2954C4.92819 18.4743 4.88031 18.6532 4.83492 18.8331L4.83004 18.8527L4.74452 19.1802L8.31033 21.334L8.32919 21.2587L8.44325 20.805L8.6869 19.8342L8.69177 19.8147C8.72801 19.671 8.76622 19.5282 8.80641 19.3855C8.83463 19.2858 8.86384 19.1861 8.89403 19.0863C8.95966 18.8703 9.0298 18.6552 9.10446 18.4421C9.19937 18.1713 9.30157 17.9034 9.41108 17.6375C9.57936 17.2288 9.76381 16.8299 9.96443 16.4379C10.2419 15.8963 10.5503 15.3713 10.8896 14.8619Q11.2582 14.3094 11.6694 13.7905L11.6694 13.7904Q11.6958 13.7571 11.7224 13.724C12.0791 13.2781 12.4595 12.8529 12.8635 12.4462C13.2578 12.0492 13.6704 11.6748 14.1012 11.3229L14.1014 11.3229C14.4615 11.0286 14.8343 10.7509 15.2199 10.4889Q15.9681 9.98005 16.7635 9.56211C17.1417 9.36365 17.5279 9.17985 17.922 9.01267C18.788 8.6441 19.6723 8.35569 20.5749 8.14941C21.7252 7.88642 22.9054 7.75444 24.1152 7.75444C25.3251 7.75444 26.5052 7.88642 27.6556 8.14941L27.6557 8.14941C28.5583 8.35569 29.4425 8.6441 30.3085 9.01267C30.7026 9.17985 31.0888 9.36365 31.467 9.56211C31.9973 9.84074 32.5118 10.1497 33.0106 10.4889C33.3964 10.7509 33.7693 11.0296 34.1296 11.3229C34.5603 11.6748 34.9728 12.0492 35.367 12.4462C35.7709 12.8529 36.1511 13.2781 36.5077 13.723C36.8015 14.0896 37.0792 14.4699 37.3409 14.8619C37.6802 15.3713 37.9886 15.8963 38.2661 16.4379C38.4667 16.8299 38.6511 17.2298 38.8194 17.6375C38.9347 17.9171 39.0418 18.1996 39.1407 18.4841L36.8738 17.4449C35.8601 16.9805 34.7009 17.4175 34.2393 18.4372C33.7777 19.4579 34.2116 20.6252 35.2253 21.0895L44.25 25.226L43.9066 21.7622C43.8562 21.2538 43.7866 20.7483 43.698 20.2458C43.672 20.0992 43.6445 19.9535 43.6153 19.8069C43.4863 19.1606 43.3264 18.5252 43.1356 17.8975C42.9507 17.2904 42.7367 16.6921 42.4937 16.1026C42.2751 15.5727 42.0347 15.0536 41.7725 14.5462C41.4331 13.8882 41.0571 13.2508 40.6446 12.6319C40.311 12.1314 39.9566 11.6474 39.5813 11.1811L39.5807 11.1801L39.5805 11.1801C39.1421 10.6346 38.6753 10.1125 38.1799 9.61393C37.6956 9.12706 37.1891 8.66659 36.6605 8.23349C36.2028 7.85905 35.7285 7.50416 35.2376 7.17079C34.6319 6.7592 34.0075 6.3828 33.3644 6.0416C32.8732 5.78155 32.3711 5.543 31.8581 5.32401C31.259 5.06885 30.6504 4.84496 30.0324 4.65139C29.4053 4.45488 28.7684 4.28966 28.1218 4.1567C27.724 4.07458 27.3244 4.00517 26.9232 3.94846C25.9965 3.81648 25.0605 3.75 24.1152 3.75C23.17 3.75 22.2341 3.81648 21.3075 3.94846L21.3074 3.94846C20.9061 4.00517 20.5066 4.07458 20.1087 4.1567C19.4619 4.28966 18.8249 4.45488 18.1977 4.65139L18.1974 4.65139C17.5796 4.84496 16.9712 5.06885 16.3724 5.32401C15.8595 5.543 15.3575 5.78155 14.8665 6.0416L14.8662 6.0416C14.2231 6.3828 13.5986 6.7592 12.9929 7.17079C12.5019 7.50416 12.0275 7.85905 11.5697 8.23349L11.5695 8.23447C11.0411 8.66659 10.5348 9.12706 10.0505 9.61393Q9.3073 10.3633 8.64952 11.1801L8.64942 11.1801C8.27403 11.6474 7.91952 12.1304 7.58588 12.6319C7.17337 13.2508 6.79736 13.8892 6.45787 14.5462L6.45776 14.5462C6.19567 15.0536 5.95534 15.5727 5.73677 16.1026Q5.53553 16.5909 5.36055 17.088L5.36035 17.089C5.26406 17.3628 5.17374 17.6385 5.08938 17.9171C5.0512 18.0422 5.01425 18.1693 4.97856 18.2954ZM43.1651 29.1669C43.1197 29.3468 43.0718 29.5257 43.0214 29.7046C42.9858 29.8307 42.9488 29.9578 42.9106 30.0829C42.8263 30.3615 42.7359 30.6372 42.6396 30.911L42.6395 30.912Q42.4645 31.4091 42.2632 31.8974C42.0447 32.4273 41.8043 32.9464 41.5422 33.4538L41.5421 33.4538C41.2026 34.1108 40.8266 34.7492 40.4141 35.3681C40.0805 35.8696 39.726 36.3526 39.3506 36.8199L39.3505 36.8199C38.912 37.3644 38.445 37.8865 37.9495 38.3861C37.4652 38.8729 36.9589 39.3334 36.4305 39.7655L36.4303 39.7665C35.9725 40.141 35.4981 40.4958 35.0071 40.8292C34.4014 41.2408 33.7769 41.6172 33.1338 41.9584L33.1335 41.9584C32.6425 42.2185 32.1405 42.457 31.6276 42.676C31.0288 42.9312 30.4204 43.155 29.8026 43.3486L29.8023 43.3486C29.1751 43.5451 28.5381 43.7103 27.8913 43.8433C27.4934 43.9254 27.0939 43.9948 26.6926 44.0515C25.7659 44.1835 24.83 44.25 23.8848 44.25C22.9395 44.25 22.0035 44.1835 21.0768 44.0515C20.6756 43.9948 20.276 43.9254 19.8782 43.8433C19.2316 43.7103 18.5947 43.5451 17.9676 43.3486C17.3496 43.155 16.741 42.9312 16.1419 42.676C15.6289 42.457 15.1268 42.2185 14.6356 41.9584C13.9925 41.6172 13.3681 41.2408 12.7624 40.8292C12.2715 40.4958 11.7972 40.141 11.3395 39.7665C10.8109 39.3334 10.3044 38.8729 9.82005 38.3861C9.32475 37.8875 8.85791 37.3654 8.41951 36.8199L8.41927 36.8199L8.41871 36.8189C8.04341 36.3526 7.68898 35.8686 7.3554 35.3681C6.9429 34.7492 6.56692 34.1118 6.22745 33.4538C5.9653 32.9464 5.72491 32.4273 5.50629 31.8974C5.26329 31.3079 5.04934 30.7096 4.86441 30.1025C4.6736 29.4748 4.51369 28.8394 4.38472 28.1931C4.35552 28.0465 4.32798 27.9008 4.30204 27.7542C4.21339 27.2517 4.14383 26.7462 4.09339 26.2378L3.75 22.774L12.7747 26.9105C13.7884 27.3748 14.2223 28.5421 13.7607 29.5628C13.2991 30.5825 12.1399 31.0195 11.1262 30.5551L8.85932 29.5159C8.95823 29.8004 9.06533 30.0829 9.1806 30.3625C9.34888 30.7702 9.53332 31.1701 9.73392 31.5621C10.0114 32.1037 10.3198 32.6287 10.6591 33.1381C10.9208 33.5301 11.1985 33.9104 11.4923 34.277C11.8489 34.7219 12.2291 35.1471 12.633 35.5538C13.0272 35.9508 13.4397 36.3252 13.8704 36.6771C14.2307 36.9704 14.6036 37.2491 14.9894 37.5111C15.4882 37.8503 16.0027 38.1593 16.533 38.4379C16.9112 38.6364 17.2974 38.8201 17.6915 38.9873C18.5575 39.3559 19.4417 39.6443 20.3443 39.8506L20.3444 39.8506C21.4947 40.1136 22.6749 40.2456 23.8848 40.2456C25.0946 40.2456 26.2748 40.1136 27.4251 39.8506C28.3277 39.6443 29.212 39.3559 30.078 38.9873C30.4721 38.8201 30.8583 38.6364 31.2365 38.4379C31.7667 38.1593 32.2813 37.8503 32.7801 37.5111C33.1657 37.2491 33.5385 36.9714 33.8986 36.6771L33.8988 36.6771C34.3296 36.3252 34.7422 35.9508 35.1365 35.5538C35.5405 35.1471 35.9209 34.7219 36.2776 34.276C36.5712 33.9094 36.8488 33.5301 37.1104 33.1381C37.4497 32.6287 37.7581 32.1037 38.0356 31.5621C38.2362 31.1701 38.4206 30.7712 38.5889 30.3625C38.6984 30.0966 38.8006 29.8287 38.8955 29.5579C38.9702 29.3448 39.0403 29.1297 39.106 28.9137C39.1362 28.8139 39.1654 28.7142 39.1936 28.6145C39.2338 28.4718 39.272 28.329 39.3082 28.1853L39.3131 28.1658L39.5568 27.195L39.6708 26.7413L39.6897 26.666L43.2555 28.8198L43.17 29.1473L43.1651 29.1669Z" fill="var(--tiny-first-color, #191919)" fill-rule="evenodd"/>
  <path id="形状结合" d="M27.8752 16.2081C28.4111 16.539 28.6499 17.1797 28.4771 17.7868L28.4042 17.9874L26.8 20.6L28.2587 20.6C29.0414 20.6 29.6531 21.2882 29.6531 22.1125C29.6531 22.785 29.2447 23.3743 28.6322 23.5655L28.4208 23.614L25.468 23.624L25.468 25.118L28.2093 25.12C28.992 25.12 29.6037 25.8082 29.6037 26.6325C29.6037 27.305 29.1952 27.8943 28.5828 28.0855L28.3714 28.134L25.468 28.144L25.4689 31.2459C25.4689 32.0286 24.7807 32.6403 23.9564 32.6403C23.2839 32.6403 22.6946 32.2318 22.5034 31.6194L22.4549 31.408L22.442 28.144L19.3944 28.145C18.6117 28.145 18 27.4568 18 26.6325C18 25.96 18.4085 25.3707 19.0209 25.1795L19.2323 25.131L22.442 25.118L22.442 23.624L19.4439 23.625C18.6612 23.625 18.0494 22.9368 18.0494 22.1125C18.0494 21.44 18.4579 20.8507 19.0703 20.6595L19.2818 20.611L20.874 20.6L19.3475 18.1272C18.943 17.4719 19.1462 16.6127 19.8015 16.2081C20.3308 15.8813 21.0004 15.9491 21.4522 16.3446L21.7206 16.6621L23.838 20.09L25.9561 16.6621C26.3607 16.0068 27.2199 15.8035 27.8752 16.2081Z" fill="var(--tiny-second-color, #aeaeAE)" fill-rule="evenodd"/>
</svg>