<svg viewBox="0 0 48 48" xmlns="http://www.w3.org/2000/svg" xmlns:xlink="http://www.w3.org/1999/xlink" width="48.000000" height="48.000000" fill="none">
  <path id="减去顶层" d="M36.002 6L11.996 6C8.69 6 6 8.692 6 11.998L6 36.002C6 39.308 8.69 42 11.996 42L36.002 42C39.308 42 42 39.308 42 36.002L42 11.998C42 8.692 39.308 6 36.002 6ZM35 15L13 15C11.3431 15 10 16.3431 10 18L10 30C10 31.6569 11.3431 33 13 33L35 33C36.6569 33 38 31.6569 38 30L38 18C38 16.3431 36.6569 15 35 15Z" fill="var(--tiny-first-color, #191919)" fill-rule="evenodd"/>
  <path id="矩形 252" d="M16 18L32 18C33.6569 18 35 19.3431 35 21L35 27C35 28.6569 33.6569 30 32 30L16 30C14.3431 30 13 28.6569 13 27L13 21C13 19.3431 14.3431 18 16 18Z" fill="var(--tiny-second-color, #aeaeAE)" fill-rule="evenodd"/>
</svg>
