<svg viewBox="0 0 48 48" xmlns="http://www.w3.org/2000/svg" xmlns:xlink="http://www.w3.org/1999/xlink" width="48.000000" height="48.000000" fill="none">
  <path id="形状结合" d="M11.998 42C8.692 42 6 39.308 6 36.002L6 11.998C6 8.692 8.692 6 11.998 6L36.002 6C39.308 6 42 8.692 42 11.998C42 12.826 41.328 13.498 40.5 13.498C39.672 13.498 39 12.826 39 11.998C39 10.346 37.654 9 36.002 9L11.998 9C10.346 9 9 10.346 9 11.998L9 36.002C9 37.654 10.346 39 11.998 39L36.002 39C37.654 39 39 37.654 39 36.002L39 17.0126C39 16.1846 39.672 15.5126 40.5 15.5126C41.328 15.5126 42 16.1846 42 17.0126L42 36.002C42 39.308 39.308 42 36.002 42L11.998 42Z" fill="var(--tiny-first-color, #191919)" fill-rule="evenodd"/>
  <path id="矩形 251(边框)" d="M33.7521 16.8542C33.1937 16.6181 32.6097 16.5 32 16.5L16 16.5C15.6734 16.5 15.3541 16.5339 15.0422 16.6017C14.7719 16.6604 14.5071 16.7446 14.2479 16.8542C13.9897 16.9635 13.7458 17.0941 13.5161 17.2463C13.2666 17.4115 13.0339 17.6021 12.818 17.818C12.6021 18.0339 12.4116 18.2666 12.2463 18.516C12.0941 18.7458 11.9635 18.9897 11.8542 19.2479C11.7446 19.5071 11.6604 19.7719 11.6017 20.0422C11.5339 20.3541 11.5 20.6734 11.5 21L11.5 27C11.5 27.3266 11.5339 27.6459 11.6017 27.9578C11.6604 28.2281 11.7446 28.4928 11.8542 28.7521C11.9635 29.0103 12.0941 29.2542 12.2463 29.4839C12.4116 29.7334 12.6021 29.9661 12.818 30.182C13.0339 30.3979 13.2666 30.5884 13.5161 30.7537C13.7458 30.9059 13.9897 31.0365 14.2479 31.1458C14.8063 31.3819 15.3903 31.5 16 31.5L32 31.5C32.6097 31.5 33.1937 31.3819 33.7521 31.1458C34.2906 30.918 34.7673 30.5967 35.182 30.182C35.5967 29.7673 35.918 29.2906 36.1458 28.7521C36.3819 28.1937 36.5 27.6097 36.5 27L36.5 21C36.5 20.6734 36.4661 20.3541 36.3983 20.0422C36.3396 19.7719 36.2554 19.5072 36.1458 19.2479C35.918 18.7094 35.5967 18.2327 35.182 17.818C34.9661 17.6021 34.7334 17.4115 34.4839 17.2463C34.2542 17.0941 34.0103 16.9635 33.7521 16.8542ZM16 19.5L32 19.5C32.124 19.5 32.2444 19.5144 32.3612 19.5432C32.4368 19.5619 32.5108 19.5866 32.5834 19.6173C32.662 19.6505 32.7367 19.6898 32.8076 19.7352C32.8983 19.7933 32.9827 19.8613 33.0607 19.9393C33.1996 20.0782 33.3069 20.2373 33.3827 20.4166C33.4609 20.6014 33.5 20.7959 33.5 21L33.5 27C33.5 27.124 33.4856 27.2444 33.4567 27.3613C33.4381 27.4368 33.4134 27.5108 33.3827 27.5834C33.3069 27.7627 33.1996 27.9218 33.0607 28.0607C32.9218 28.1996 32.7627 28.3069 32.5834 28.3827C32.5108 28.4134 32.4367 28.4381 32.3612 28.4568C32.2443 28.4856 32.1239 28.5 32 28.5L16 28.5C15.8761 28.5 15.7557 28.4856 15.6388 28.4568C15.5633 28.4381 15.4892 28.4134 15.4166 28.3827C15.2373 28.3069 15.0782 28.1996 14.9393 28.0607C14.8004 27.9218 14.6931 27.7627 14.6173 27.5834C14.5391 27.3986 14.5 27.2041 14.5 27L14.5 21C14.5 20.8761 14.5144 20.7557 14.5432 20.6388C14.5619 20.5633 14.5866 20.4892 14.6173 20.4166C14.6505 20.338 14.6898 20.2633 14.7352 20.1924C14.7933 20.1017 14.8613 20.0173 14.9393 19.9393C15.0782 19.8004 15.2373 19.6931 15.4166 19.6173C15.4892 19.5866 15.5633 19.5619 15.6388 19.5432C15.7557 19.5144 15.876 19.5 16 19.5Z" fill="#000000" fill-rule="evenodd"/>
</svg>
