<svg viewBox="0 0 48 48" xmlns="http://www.w3.org/2000/svg" xmlns:xlink="http://www.w3.org/1999/xlink" width="48.000000" height="48.000000" fill="none">
  <path id="合并" d="M19.04 16.7554C19.04 18.1471 17.9118 19.2754 16.52 19.2754C15.1282 19.2754 14 18.1471 14 16.7554C14 15.3636 15.1282 14.2354 16.52 14.2354C17.9118 14.2354 19.04 15.3636 19.04 16.7554ZM15.5 29.9998L19.5635 29.9998C19.6266 29.0931 19.729 28.2021 19.8706 27.3266C20.1087 25.8543 20.4417 24.5439 20.8697 23.3957C21.4436 21.8562 22.1788 20.6408 23.0753 19.7496C23.6302 19.198 24.2416 18.7752 24.9093 18.4813C25.0967 18.3989 25.2874 18.327 25.4814 18.2657C26.0429 18.0884 26.6325 17.9998 27.25 17.9998C27.8675 17.9998 28.4571 18.0884 29.0186 18.2658C29.2126 18.327 29.4033 18.3989 29.5907 18.4813C30.2584 18.7752 30.8698 19.198 31.4247 19.7496C32.3212 20.6408 33.0564 21.8562 33.6303 23.3957C34.0583 24.5439 34.3913 25.8543 34.6294 27.3266C34.771 28.2021 34.8734 29.0931 34.9365 29.9998L39.5 29.9998C40.34 29.9998 41 30.6598 41 31.4998C41 32.3398 40.34 32.9998 39.5 32.9998L34.5 32.9998C34.3306 32.9998 34.1645 32.9833 34.0018 32.9503C33.8409 32.9177 33.6832 32.869 33.5288 32.8042C33.3951 32.748 33.2681 32.6815 33.1476 32.6047C33.0024 32.5121 32.8668 32.4044 32.7407 32.2817C32.6288 32.1727 32.5282 32.0556 32.4391 31.9303C32.3477 31.8019 32.2683 31.6649 32.2009 31.5194C32.1325 31.3714 32.0788 31.2198 32.0399 31.0644C32.0008 30.9082 31.9766 30.7483 31.9674 30.5846C31.9143 29.6381 31.8144 28.7117 31.6679 27.8055C31.4613 26.5277 31.1784 25.4071 30.8192 24.4436C30.3985 23.3148 29.8953 22.4594 29.3097 21.8772C29.0186 21.5879 28.7095 21.3712 28.3823 21.2272C28.378 21.2253 28.3738 21.2235 28.3696 21.2216C28.0285 21.0737 27.6553 20.9998 27.25 20.9998C26.8447 20.9998 26.4715 21.0737 26.1304 21.2217C26.1262 21.2235 26.122 21.2253 26.1177 21.2272C25.7905 21.3712 25.4814 21.5879 25.1903 21.8772C24.6047 22.4594 24.1015 23.3148 23.6808 24.4436C23.3216 25.4071 23.0387 26.5277 22.8321 27.8055C22.6856 28.7117 22.5857 29.6381 22.5326 30.5846C22.5234 30.7482 22.4992 30.9081 22.4601 31.0643C22.4212 31.2197 22.3676 31.3714 22.2991 31.5194C22.2317 31.6649 22.1523 31.8019 22.0609 31.9304C21.9718 32.0556 21.8712 32.1727 21.7593 32.2817C21.6332 32.4044 21.4976 32.5121 21.3524 32.6047C21.2319 32.6815 21.1049 32.748 20.9712 32.8042C20.8168 32.869 20.6591 32.9177 20.4982 32.9503C20.3355 32.9833 20.1694 32.9998 20 32.9998L15.5 32.9998C14.66 32.9998 14 32.3398 14 31.4998C14 30.6598 14.66 29.9998 15.5 29.9998Z" fill="var(--tiny-second-color, #aeaeAE)" fill-rule="evenodd"/>
  <path id="形状结合" d="M11.998 42C8.692 42 6 39.308 6 36.002L6 11.998C6 8.692 8.692 6 11.998 6L36.002 6C39.308 6 42 8.692 42 11.998C42 12.826 41.328 13.498 40.5 13.498C39.672 13.498 39 12.826 39 11.998C39 10.346 37.654 9 36.002 9L11.998 9C10.346 9 9 10.346 9 11.998L9 36.002C9 37.654 10.346 39 11.998 39L36.002 39C37.654 39 39 37.654 39 36.002L39 17.0126C39 16.1846 39.672 15.5126 40.5 15.5126C41.328 15.5126 42 16.1846 42 17.0126L42 36.002C42 39.308 39.308 42 36.002 42L11.998 42Z" fill="var(--tiny-first-color, #191919)" fill-rule="evenodd"/>
</svg>
