<svg viewBox="0 0 48 48" xmlns="http://www.w3.org/2000/svg" xmlns:xlink="http://www.w3.org/1999/xlink" width="48.000000" height="48.000000" fill="none">
  <path id="减去顶层" d="M11.996 6L36.002 6C39.308 6 42 8.692 42 11.998L42 36.002C42 39.308 39.308 42 36.002 42L11.996 42C8.69 42 6 39.308 6 36.002L6 11.998C6 8.692 8.69 6 11.996 6ZM16.52 19.04C17.9117 19.04 19.04 17.9119 19.04 16.52C19.04 15.1282 17.9117 14 16.52 14C15.1282 14 14 15.1282 14 16.52C14 17.9119 15.1282 19.04 16.52 19.04ZM19.0635 29.5L15 29.5C14.16 29.5 13.5 30.1602 13.5 31C13.5 31.8401 14.16 32.5 15 32.5L19.5 32.5C19.6694 32.5 19.8355 32.4836 19.9982 32.4507C20.1591 32.418 20.3168 32.3691 20.4712 32.3044C20.6049 32.2483 20.7319 32.1819 20.8524 32.105C20.9976 32.0122 21.1332 31.9048 21.2593 31.782C21.3712 31.6731 21.4718 31.5559 21.5609 31.4307C21.6523 31.3022 21.7317 31.165 21.7991 31.0195C21.8676 30.8716 21.9212 30.72 21.9601 30.5645C21.9992 30.4084 22.0234 30.2485 22.0325 30.085C22.0857 29.1384 22.1856 28.2119 22.3321 27.3057C22.5387 26.0281 22.8216 24.9072 23.1808 23.9438C23.6015 22.8149 24.1047 21.9597 24.6903 21.3774C24.9814 21.0881 25.2905 20.8713 25.6177 20.7275C25.622 20.7256 25.6262 20.7236 25.6304 20.7219C25.9715 20.574 26.3447 20.5 26.75 20.5C27.1551 20.5 27.5282 20.5739 27.8693 20.7218L27.8696 20.7219C27.8738 20.7236 27.878 20.7256 27.8823 20.7275C28.2095 20.8713 28.5186 21.0881 28.8097 21.3774C29.3953 21.9597 29.8985 22.8149 30.3192 23.9438C30.6784 24.9072 30.9613 26.0281 31.1679 27.3057C31.3144 28.2119 31.4143 29.1384 31.4675 30.085C31.4766 30.2485 31.5008 30.4084 31.5399 30.5647C31.5788 30.72 31.6325 30.8716 31.7009 31.0195C31.7683 31.165 31.8477 31.302 31.9391 31.4307C32.0282 31.5559 32.1288 31.6729 32.2407 31.782C32.3668 31.9048 32.5024 32.0122 32.6476 32.105C32.7681 32.1819 32.8951 32.2483 33.0288 32.3044C33.1832 32.3694 33.3409 32.418 33.5018 32.4507C33.6645 32.4836 33.8306 32.5 34 32.5L39 32.5C39.84 32.5 40.5 31.8401 40.5 31C40.5 30.1602 39.84 29.5 39 29.5L34.4365 29.5C34.3734 28.5933 34.271 27.7024 34.1294 26.8269C33.8913 25.3545 33.5583 24.0442 33.1303 22.896C32.5564 21.3564 31.8212 20.1411 30.9247 19.25C30.3698 18.6982 29.7585 18.2754 29.0907 17.9817C28.9033 17.8992 28.7126 17.8271 28.5186 17.7661C27.9571 17.5886 27.3675 17.5 26.75 17.5C26.1325 17.5 25.5429 17.5886 24.9814 17.7661C24.7874 17.8271 24.5967 17.8992 24.4093 17.9817C23.7415 18.2754 23.1302 18.6982 22.5753 19.25C21.6788 20.1411 20.9436 21.3564 20.3697 22.896C19.9417 24.0442 19.6087 25.3545 19.3706 26.8269C19.229 27.7024 19.1266 28.5933 19.0635 29.5Z" fill="var(--tiny-first-color, #191919)" fill-rule="evenodd"/>
  <path id="矢量 1911" d="M19.04 16.52C19.04 17.9119 17.9117 19.04 16.52 19.04C15.1282 19.04 14 17.9119 14 16.52C14 15.1282 15.1282 14 16.52 14C17.9117 14 19.04 15.1282 19.04 16.52ZM15 29.5L19.0635 29.5C19.1266 28.5933 19.229 27.7024 19.3706 26.8269C19.6087 25.3545 19.9417 24.0442 20.3697 22.896C20.9436 21.3564 21.6788 20.1411 22.5753 19.25C23.1302 18.6982 23.7415 18.2754 24.4093 17.9817C24.5967 17.8992 24.7874 17.8271 24.9814 17.7661C25.5429 17.5886 26.1325 17.5 26.75 17.5C27.3675 17.5 27.9571 17.5886 28.5186 17.7661C28.7126 17.8271 28.9033 17.8992 29.0907 17.9817C29.7585 18.2754 30.3698 18.6982 30.9247 19.25C31.8212 20.1411 32.5564 21.3564 33.1303 22.896C33.5583 24.0442 33.8913 25.3545 34.1294 26.8269C34.271 27.7024 34.3734 28.5933 34.4365 29.5L39 29.5C39.84 29.5 40.5 30.1602 40.5 31C40.5 31.8401 39.84 32.5 39 32.5L34 32.5C33.8306 32.5 33.6645 32.4836 33.5018 32.4507C33.3409 32.418 33.1832 32.3694 33.0288 32.3044C32.8951 32.2483 32.7681 32.1819 32.6476 32.105C32.5024 32.0122 32.3668 31.9048 32.2407 31.782C32.1288 31.6729 32.0282 31.5559 31.9391 31.4307C31.8477 31.302 31.7683 31.165 31.7009 31.0195C31.6325 30.8716 31.5788 30.72 31.5399 30.5647C31.5008 30.4084 31.4766 30.2485 31.4675 30.085C31.4143 29.1384 31.3144 28.2119 31.1679 27.3057C30.9613 26.0281 30.6784 24.9072 30.3192 23.9438C29.8985 22.8149 29.3953 21.9597 28.8097 21.3774C28.5186 21.0881 28.2095 20.8713 27.8823 20.7275C27.878 20.7256 27.8738 20.7236 27.8696 20.7219C27.5284 20.574 27.1553 20.5 26.75 20.5C26.3447 20.5 25.9715 20.574 25.6304 20.7219C25.6262 20.7236 25.622 20.7256 25.6177 20.7275C25.2905 20.8713 24.9814 21.0881 24.6903 21.3774C24.1047 21.9597 23.6015 22.8149 23.1808 23.9438C22.8216 24.9072 22.5387 26.0281 22.3321 27.3057C22.1856 28.2119 22.0857 29.1384 22.0325 30.085C22.0234 30.2485 21.9992 30.4084 21.9601 30.5645C21.9212 30.72 21.8676 30.8716 21.7991 31.0195C21.7317 31.165 21.6523 31.3022 21.5609 31.4307C21.4718 31.5559 21.3712 31.6731 21.2593 31.782C21.1332 31.9048 20.9976 32.0122 20.8524 32.105C20.7319 32.1819 20.6049 32.2483 20.4712 32.3044C20.3168 32.3691 20.1591 32.418 19.9982 32.4507C19.8355 32.4836 19.6694 32.5 19.5 32.5L15 32.5C14.16 32.5 13.5 31.8401 13.5 31C13.5 30.1602 14.16 29.5 15 29.5Z" fill="var(--tiny-second-color, #aeaeAE)" fill-rule="evenodd"/>
</svg>
