<svg viewBox="0 0 48 48" xmlns="http://www.w3.org/2000/svg" xmlns:xlink="http://www.w3.org/1999/xlink" width="48.000000" height="48.000000">
  <path id="形状结合" d="M30.4134 6C33.9328 6 36.8088 8.75541 37.0029 12.2272L37.0134 12.6018C37.0134 13.7067 36.118 14.7419 35.0134 14.7419C33.9877 14.7419 33.1424 13.9696 33.0268 12.9747L33.0134 12.7414C33.0134 11.3948 31.9903 10.1477 30.6792 10.0145L30.4134 10.0011L12.6029 10.0011C11.2567 10.0011 10.1495 11.0245 10.0164 12.3359L10.0029 12.6018L10.0029 35.3982C10.0029 36.7447 11.026 37.8523 12.3371 37.9855L12.6029 37.9989L30.4134 37.9989C31.7596 37.9989 32.8668 36.9755 33 35.6641L33.0134 35.3397C33.0134 34.2348 33.9088 33.3391 35.0134 33.3391C36.039 33.3391 36.8844 34.1114 36.9999 35.1064L37.0134 35.3397C37.0134 38.8601 34.2587 41.7953 30.7879 41.9895L30.4134 42L12.6029 42C9.08354 42 6.20754 39.2446 6.01338 35.7728L6.00293 35.3982L6.00293 12.6018C6.00293 9.08147 8.75758 6.20467 12.2284 6.01045L12.6029 6L30.4134 6ZM33.5919 16.723C34.2592 16.3799 35.0766 16.4386 35.691 16.8946L41.4163 22.5909L41.6238 22.8371L41.7605 23.0634C42.1236 23.7573 42.065 24.5749 41.6093 25.1894L35.9146 30.9183L35.6743 31.1219L35.4637 31.2513C34.6752 31.6754 33.721 31.5466 33.0932 30.9189C32.3916 30.2172 32.3144 29.1099 32.9 28.3201L35.1967 25.9926L23.0085 25.9976L22.6946 25.9714L22.4542 25.9139C21.5969 25.656 21.0134 24.8899 21.0134 24.002C21.0134 23.0006 21.7548 22.1581 22.7383 22.0246L22.9752 22.0076L35.1907 22.0014L33.0932 19.9097L32.8855 19.6633L32.7488 19.437C32.3857 18.743 32.4444 17.9253 32.9002 17.3108L33.3755 16.8523L33.5919 16.723Z" fill="var(--tiny-first-color)" fill-rule="evenodd"/>
  <path id="形状结合" d="M33.5919 16.723C34.2593 16.3799 35.0767 16.4386 35.6911 16.8946L41.4164 22.5909L41.6239 22.8371L41.7605 23.0634C42.1237 23.7573 42.0651 24.5749 41.6093 25.1894L35.9146 30.9183L35.6743 31.1219L35.4637 31.2513C34.6753 31.6754 33.721 31.5466 33.0933 30.9189C32.3916 30.2172 32.3145 29.1099 32.9001 28.3201L35.1967 25.9926L23.0085 25.9976L22.6946 25.9714L22.4542 25.9139C21.5969 25.656 21.0134 24.8899 21.0134 24.002C21.0134 23.0006 21.7548 22.1581 22.7383 22.0246L22.9752 22.0076L35.1907 22.0014L33.0932 19.9097L32.8855 19.6633L32.7488 19.437C32.3857 18.743 32.4444 17.9253 32.9003 17.3108L33.3755 16.8523L33.5919 16.723Z" fill="var(--tiny-second-color)" fill-rule="evenodd"/>
</svg>