<svg viewBox="0 0 48 48" xmlns="http://www.w3.org/2000/svg" xmlns:xlink="http://www.w3.org/1999/xlink" width="48.000000" height="48.000000" fill="none">
  <path id="矩形 248(边框)" d="M18.5 40L21.5 40C22.34 40 23 39.34 23 38.5C23 37.66 22.34 37 21.5 37L12.5 37C12.1508 37 11.8104 36.9616 11.479 36.8847C11.2306 36.827 10.9872 36.7478 10.7489 36.647C10.5019 36.5425 10.2679 36.4183 10.0467 36.2742C9.78587 36.1044 9.54298 35.9069 9.31802 35.682C9.09307 35.457 8.89566 35.2141 8.72578 34.9533C8.58173 34.7322 8.45747 34.4981 8.35302 34.2511C8.25218 34.0127 8.17295 33.7693 8.11532 33.5209C8.03844 33.1895 8 32.8492 8 32.5L8 12.5C8 12.1508 8.03844 11.8105 8.11531 11.4791C8.17294 11.2307 8.25218 10.9873 8.35302 10.7489C8.45748 10.5019 8.58174 10.2678 8.7258 10.0466C8.89567 9.78583 9.09308 9.54296 9.31802 9.31802C9.54296 9.09308 9.78584 8.89567 10.0467 8.72579C10.2678 8.58173 10.5019 8.45747 10.7489 8.35302C10.9873 8.25218 11.2307 8.17295 11.4791 8.11532C11.8105 8.03844 12.1508 8 12.5 8L32.5 8C32.8492 8 33.1895 8.03844 33.5209 8.11532C33.7693 8.17295 34.0127 8.25218 34.2511 8.35302C34.4982 8.45749 34.7323 8.58178 34.9535 8.72587C35.2142 8.89573 35.4571 9.09311 35.682 9.31802C35.9069 9.54294 36.1043 9.7858 36.2742 10.0466C36.4182 10.2678 36.5425 10.5019 36.647 10.7489C36.7478 10.9873 36.8271 11.2307 36.8847 11.4791C36.9616 11.8105 37 12.1508 37 12.5L37 21.5C37 22.34 37.66 23 38.5 23C39.34 23 40 22.34 40 21.5L40 12.5C40 11.9481 39.942 11.409 39.8261 10.8826C39.7285 10.4394 39.5898 10.0053 39.41 9.5802C39.2296 9.15363 39.0139 8.75033 38.763 8.37028C38.4861 7.95074 38.1661 7.55955 37.8033 7.1967C37.4405 6.83389 37.0493 6.514 36.6298 6.23705C36.2498 5.98613 35.8464 5.77044 35.4198 5.59C34.9947 5.41021 34.5606 5.27151 34.1174 5.1739C33.5911 5.05797 33.0519 5 32.5 5L12.5 5C11.9481 5 11.4089 5.05797 10.8825 5.17391C10.4394 5.27152 10.0053 5.41022 9.5802 5.59C9.15363 5.77043 8.75033 5.98608 8.37028 6.23698C7.95074 6.51395 7.55955 6.83385 7.1967 7.1967C6.83386 7.55954 6.51395 7.95073 6.23699 8.37027C5.98609 8.75032 5.77043 9.15363 5.59 9.5802C5.41021 10.0053 5.27152 10.4394 5.17391 10.8826C5.05797 11.4089 5 11.9481 5 12.5L5 32.5C5 33.0519 5.05797 33.5911 5.17392 34.1175C5.27153 34.5607 5.41023 34.9948 5.59 35.4198C5.77042 35.8464 5.98607 36.2496 6.23696 36.6297C6.51393 37.0492 6.83384 37.4404 7.1967 37.8033C7.55956 38.1662 7.95078 38.4861 8.37035 38.7631C8.75037 39.0139 9.15366 39.2296 9.5802 39.41C10.0053 39.5898 10.4394 39.7285 10.8826 39.8261C11.409 39.942 11.9481 40 12.5 40L18.5 40Z" fill="var(--tiny-first-color, #191919)" fill-rule="evenodd"/>
  <path id="矢量 161" d="M41.4 32.7347C41.4 27.9107 37.5049 24 32.7 24C27.8951 24 24 27.9107 24 32.7347C24 37.5587 27.8951 41.4693 32.7 41.4693C34.5603 41.4693 36.2842 40.8831 37.6985 39.8847L40.4393 42.6346C41.0266 43.072 42.0281 43.1692 42.5607 42.6346C43.1465 42.0464 43.1465 41.0929 42.5607 40.5048L39.8217 37.753C40.8162 36.3331 41.4 34.6023 41.4 32.7347ZM27 32.7347C27 29.5741 29.552 27.0119 32.7 27.0119C35.848 27.0119 38.4 29.5741 38.4 32.7347C38.4 35.8952 35.848 38.4574 32.7 38.4574C29.552 38.4574 27 35.8952 27 32.7347Z" fill="var(--tiny-second-color, #aeaeAE)" fill-rule="evenodd"/>
</svg>
