<svg viewBox="0 0 48 48" xmlns="http://www.w3.org/2000/svg" xmlns:xlink="http://www.w3.org/1999/xlink" width="48.000000" height="48.000000" fill="none">
  <path id="矢量 161" d="M41.4 32.7347C41.4 27.9107 37.5049 24 32.7 24C27.8951 24 24 27.9107 24 32.7347C24 37.5587 27.8951 41.4693 32.7 41.4693C34.5603 41.4693 36.2842 40.8831 37.6985 39.8847L40.4393 42.6346C41.0266 43.072 42.0281 43.1692 42.5607 42.6346C43.1465 42.0464 43.1465 41.0929 42.5607 40.5048L39.8217 37.753C40.8162 36.3331 41.4 34.6023 41.4 32.7347ZM27 32.7347C27 29.5741 29.552 27.0119 32.7 27.0119C35.848 27.0119 38.4 29.5741 38.4 32.7347C38.4 35.8952 35.848 38.4574 32.7 38.4574C29.552 38.4574 27 35.8952 27 32.7347Z" fill="var(--tiny-second-color, #aeaeAE)" fill-rule="evenodd"/>
  <path id="减去顶层" d="M36 6C39.1954 6 41.8073 8.49784 41.9898 11.6475L42 12L42 26.0173C39.9289 22.988 36.4466 21 32.5 21C26.1487 21 21 26.1487 21 32.5C21 36.4466 22.988 39.9289 26.0173 42L12 42C8.80464 42 6.19268 39.5022 6.01019 36.3525L6 36L6 12C6 8.80464 8.49784 6.19268 11.6475 6.01019L12 6L36 6Z" fill="var(--tiny-first-color, #191919)" fill-rule="evenodd"/>
</svg>
