<svg viewBox="0 0 48 48" xmlns="http://www.w3.org/2000/svg" xmlns:xlink="http://www.w3.org/1999/xlink" width="48.000000" height="48.000000">
  <path id="合并" d="M37.5491 20.6233C36.7782 21.4359 36.811 22.6799 37.6235 23.4508L41.8445 27.4554C42.657 28.2262 43.9011 28.1935 44.672 27.381C45.4428 26.5685 45.4101 25.3244 44.5976 24.5535L40.3765 20.5489C39.564 19.7781 38.3199 19.8108 37.5491 20.6233ZM3.40243 24.5542L7.62348 20.5497C8.436 19.7788 9.68007 19.8115 10.4509 20.6241C11.2218 21.4366 11.189 22.6807 10.3765 23.4515L6.15547 27.4561C5.34295 28.227 4.09888 28.1942 3.32802 27.3817C2.55717 26.5692 2.58991 25.3251 3.40243 24.5542ZM13.624 25.3445C14.0322 24.3015 15.1723 23.8027 16.2153 24.2108C17.2583 24.6189 17.7571 25.7591 17.349 26.8021L15.174 32.3601C14.7659 33.4031 13.6257 33.9019 12.5828 33.4938C11.5398 33.0856 11.041 31.9455 11.4491 30.9025L13.624 25.3445ZM36.5509 30.9234L34.376 25.3654C33.9678 24.3224 32.8277 23.8236 31.7847 24.2317C30.7417 24.6398 30.2429 25.78 30.651 26.823L32.826 32.381C33.2341 33.424 34.3743 33.9228 35.4172 33.5147C36.4602 33.1066 36.959 31.9664 36.5509 30.9234ZM26 27.4999L26 33.7321C26 34.8521 25.12 35.7321 24 35.7321C22.88 35.7321 22 34.8521 22 33.7321L22 27.4999C22 26.3799 22.88 25.4999 24 25.4999C25.12 25.4999 26 26.3799 26 27.4999Z" fill="var(--tiny-first-color)" fill-rule="evenodd"/>
  <path id="矢量 1930" d="M40.3765 20.5488C39.564 19.7783 38.3199 19.811 37.5491 20.6235C36.7782 21.4361 36.811 22.6802 37.6235 23.4507L41.8445 27.4556C42.657 28.2262 43.9011 28.1934 44.672 27.3809C45.4428 26.5684 45.4101 25.3243 44.5976 24.5538L40.3765 20.5488ZM7.62348 20.5493C8.436 19.7788 9.68008 19.8115 10.4509 20.624C11.2218 21.4365 11.189 22.6807 10.3765 23.4512L6.15548 27.4561C5.34296 28.2267 4.09888 28.1939 3.32803 27.3814C2.55717 26.5689 2.58991 25.3248 3.40243 24.5542L7.62348 20.5493ZM11.4491 30.9025L13.624 25.3443C14.0322 24.3013 15.1723 23.8028 16.2153 24.211C17.2583 24.6187 17.7571 25.7593 17.349 26.8023L15.174 32.36C14.7659 33.403 13.6257 33.902 12.5828 33.4938C11.5398 33.0856 11.041 31.9454 11.4491 30.9025ZM34.376 25.3653L36.5509 30.9235C36.959 31.9664 36.4602 33.1066 35.4172 33.5148C34.3743 33.923 33.2341 33.424 32.826 32.381L30.651 26.8233C30.2429 25.7803 30.7417 24.6397 31.7847 24.232C32.8277 23.8238 33.9678 24.3223 34.376 25.3653ZM26 33.7326L26 27.5001C26 26.3804 25.12 25.5001 24 25.5001C22.88 25.5001 22 26.3804 22 27.5001L22 33.7326C22 34.8527 22.88 35.7326 24 35.7326C25.12 35.7326 26 34.8527 26 33.7326Z" fill="var(--tiny-second-color)" fill-rule="evenodd"/>
  <path id="椭圆 385(边框)" d="M6.4351 13.2584C6.00691 12.2235 4.85733 11.7468 3.82241 12.175C2.78749 12.6032 2.31078 13.7527 2.73897 14.7877C2.99044 15.3954 3.26696 15.9903 3.56853 16.5721C3.96279 17.3327 4.39986 18.0712 4.87974 18.7874C5.26997 19.3699 5.68491 19.9323 6.12455 20.4746C6.62932 21.0974 7.16665 21.6937 7.73656 22.2636C8.29711 22.8241 8.88325 23.3532 9.495 23.8508C10.0239 24.281 10.5719 24.6877 11.1391 25.0709C11.8407 25.5449 12.564 25.9777 13.3089 26.3694C13.8757 26.6674 14.455 26.9415 15.0468 27.1918C15.7393 27.4848 16.4429 27.7424 17.1574 27.9648C17.8826 28.1905 18.6191 28.3799 19.3668 28.5329C19.8224 28.6261 20.2799 28.7053 20.7393 28.7707C21.8154 28.9236 22.9023 29.0001 24 29.0001C25.0977 29.0001 26.1846 28.9236 27.2605 28.7707C27.7201 28.7054 28.1776 28.6261 28.6332 28.5329C29.3809 28.3799 30.1173 28.1905 30.8424 27.9649C31.557 27.7425 32.2606 27.4848 32.9533 27.1918C33.5452 26.9415 34.1245 26.6673 34.6914 26.3693C35.4362 25.9776 36.1594 25.5448 36.8609 25.0709C37.4279 24.6878 37.9758 24.2813 38.5045 23.8512C39.1165 23.3535 39.7028 22.8243 40.2635 22.2636C41.3298 21.1973 42.282 20.0386 43.1203 18.7874C43.9672 17.5233 44.6808 16.19 45.2611 14.7877C45.6893 13.7527 45.2125 12.6032 44.1776 12.175C43.1427 11.7468 41.9931 12.2235 41.5649 13.2584C41.086 14.416 40.4967 15.5169 39.7972 16.561C39.4797 17.0349 39.1424 17.4927 38.7853 17.9346C38.3629 18.4572 37.9128 18.9574 37.435 19.4351C36.965 19.9052 36.4732 20.3485 35.9596 20.765C35.5289 21.1143 35.083 21.4448 34.6217 21.7564C34.0277 22.1577 33.415 22.5233 32.7836 22.853C32.3304 23.0897 31.8675 23.308 31.3951 23.5078C30.8246 23.7491 30.2452 23.9613 29.6567 24.1446C29.0576 24.3312 28.4491 24.4876 27.8313 24.6141C26.5736 24.8714 25.2965 25.0001 24 25.0001C23.0373 25.0001 22.0853 24.9292 21.1439 24.7873C20.8176 24.7381 20.4925 24.6803 20.1687 24.6141C18.944 24.3635 17.7561 23.9947 16.605 23.5078C16.1327 23.3081 15.6701 23.0899 15.2171 22.8533C14.5855 22.5235 13.9725 22.1578 13.3783 21.7564C12.9172 21.4448 12.4713 21.1144 12.0406 20.7652C11.527 20.3486 11.0351 19.9053 10.565 19.4351C10.0874 18.9576 9.63749 18.4576 9.21528 17.9352C8.85797 17.4932 8.52049 17.0351 8.20284 16.561C7.79661 15.9546 7.42756 15.3292 7.09571 14.6846C6.85612 14.2192 6.63592 13.7438 6.4351 13.2584Z" fill="var(--tiny-first-color)" fill-rule="evenodd"/>
</svg>