<svg viewBox="0 0 48 48" xmlns="http://www.w3.org/2000/svg" xmlns:xlink="http://www.w3.org/1999/xlink" width="48.000000" height="48.000000" fill="none">
  <path id="矢量 91" d="M40.2246 21.3751C39.6268 20.9408 38.7852 21.0043 38.2603 21.553C37.6877 22.1517 37.7088 23.1012 38.3074 23.6738L42.1644 27.3631L42.3209 27.4938C42.9187 27.9282 43.7603 27.8647 44.2852 27.3159C44.8578 26.7173 44.8367 25.7678 44.238 25.1951L40.3812 21.5059L40.2246 21.3751ZM3.62439 25.3457C3.16394 25.9236 3.19 26.7672 3.71491 27.316C4.28754 27.9146 5.23706 27.9357 5.83569 27.3631L9.69263 23.6738L9.83026 23.5233C10.2907 22.9454 10.2647 22.1018 9.73981 21.5531C9.16711 20.9544 8.21765 20.9332 7.61896 21.5059L3.76202 25.1951L3.62439 25.3457ZM12.5339 33.5052C11.8241 33.2351 11.4382 32.4845 11.6058 31.7649L11.6654 31.5698L13.5309 26.6671C13.8255 25.8928 14.692 25.504 15.4663 25.7986C16.176 26.0686 16.5619 26.8192 16.3944 27.5389L16.3348 27.734L14.4692 32.6367C14.1746 33.411 13.3081 33.7998 12.5339 33.5052ZM32.5338 25.7986C33.2436 25.5286 34.0308 25.8327 34.384 26.4817L34.4692 26.6671L36.3348 31.5698C36.6294 32.3441 36.2406 33.2106 35.4663 33.5052C34.7566 33.7753 33.9693 33.4711 33.6161 32.8221L33.5309 32.6367L31.6653 27.734C31.3707 26.9597 31.7595 26.0932 32.5338 25.7986ZM24.0001 27.2823C24.7595 27.2823 25.387 27.8466 25.4864 28.5787L25.5001 28.7823L25.5001 33.9997C25.5001 34.8281 24.8285 35.4997 24.0001 35.4997C23.2407 35.4997 22.6131 34.9354 22.5137 34.2033L22.5001 33.9997L22.5001 28.7823C22.5001 27.9539 23.1716 27.2823 24.0001 27.2823Z" fill="var(--tiny-first-color)" fill-rule="evenodd"/>
  <path id="矢量 90" d="M40.2246 21.3751C39.6268 20.9408 38.7852 21.0043 38.2603 21.553C37.6877 22.1517 37.7088 23.1012 38.3074 23.6738L42.1644 27.3631L42.3209 27.4938C42.9187 27.9282 43.7603 27.8647 44.2852 27.3159C44.8578 26.7173 44.8367 25.7678 44.238 25.1951L40.3812 21.5059L40.2246 21.3751ZM3.62439 25.3457C3.16394 25.9236 3.19 26.7672 3.71491 27.316C4.28754 27.9146 5.23706 27.9357 5.83569 27.3631L9.69263 23.6738L9.83026 23.5233C10.2907 22.9454 10.2647 22.1018 9.73981 21.5531C9.16711 20.9544 8.21765 20.9332 7.61896 21.5059L3.76202 25.1951L3.62439 25.3457ZM12.5339 33.5052C11.8241 33.2351 11.4382 32.4845 11.6058 31.7649L11.6654 31.5698L13.5309 26.6671C13.8255 25.8928 14.692 25.504 15.4663 25.7986C16.176 26.0686 16.5619 26.8192 16.3944 27.5389L16.3348 27.734L14.4692 32.6367C14.1746 33.411 13.3081 33.7998 12.5339 33.5052ZM32.5338 25.7986C33.2436 25.5286 34.0308 25.8327 34.384 26.4817L34.4692 26.6671L36.3348 31.5698C36.6294 32.3441 36.2406 33.2106 35.4663 33.5052C34.7566 33.7753 33.9693 33.4711 33.6161 32.8221L33.5309 32.6367L31.6653 27.734C31.3707 26.9597 31.7595 26.0932 32.5338 25.7986ZM24.0001 27.2823C24.7595 27.2823 25.387 27.8466 25.4864 28.5787L25.5001 28.7823L25.5001 33.9997C25.5001 34.8281 24.8285 35.4997 24.0001 35.4997C23.2407 35.4997 22.6131 34.9354 22.5137 34.2033L22.5001 33.9997L22.5001 28.7823C22.5001 27.9539 23.1716 27.2823 24.0001 27.2823Z" fill="var(--tiny-second-color)" fill-rule="evenodd"/>
  <path id="矢量 89" d="M3.55829 12.5664C4.34998 12.3225 5.18951 12.7665 5.43353 13.5582C7.75348 21.0865 15.2938 26.413 24.0039 26.413C32.7045 26.413 40.2386 21.0982 42.5672 13.5813C42.8123 12.7899 43.6526 12.3472 44.4439 12.5923C45.2352 12.8374 45.678 13.6776 45.4329 14.469C42.7075 23.2668 33.9948 29.413 24.0039 29.413C14.0019 29.413 5.28192 23.2532 2.56653 14.4417C2.32257 13.65 2.7666 12.8104 3.55829 12.5664Z" fill="var(--tiny-first-color)" fill-rule="evenodd"/>
</svg>