<svg viewBox="0 0 48 48" xmlns="http://www.w3.org/2000/svg" xmlns:xlink="http://www.w3.org/1999/xlink" width="48.000000" height="48.000000">
  <path id="形状结合" d="M24 9.40283C33.266 9.40283 41.656 14.8968 45.374 23.3988C45.542 23.7828 45.542 24.2188 45.374 24.6028C41.656 33.1028 33.266 38.5968 24 38.5968C14.734 38.5968 6.344 33.1028 2.626 24.6028C2.458 24.2188 2.458 23.7828 2.626 23.3988C6.344 14.8968 14.732 9.40283 24 9.40283ZM23.9996 16.0028C19.5816 16.0028 15.9996 19.5848 15.9996 24.0028C15.9996 28.4208 19.5816 32.0028 23.9996 32.0028C28.4176 32.0028 31.9996 28.4208 31.9996 24.0028C31.9996 19.5848 28.4176 16.0028 23.9996 16.0028ZM23.9996 19.0028C26.7616 19.0028 28.9996 21.2408 28.9996 24.0028C28.9996 26.7648 26.7616 29.0028 23.9996 29.0028C21.2376 29.0028 18.9996 26.7648 18.9996 24.0028C18.9996 21.2408 21.2376 19.0028 23.9996 19.0028Z" fill="var(--tiny-first-color)" fill-rule="evenodd"/>
  <path id="形状结合" d="M23.9996 19.0028C26.7616 19.0028 28.9996 21.2408 28.9996 24.0028C28.9996 26.7648 26.7616 29.0028 23.9996 29.0028C21.2376 29.0028 18.9996 26.7648 18.9996 24.0028C18.9996 21.2408 21.2376 19.0028 23.9996 19.0028Z" fill="var(--tiny-second-color)" fill-rule="evenodd"/>
</svg>