<svg viewBox="0 0 48 48" xmlns="http://www.w3.org/2000/svg" xmlns:xlink="http://www.w3.org/1999/xlink" width="48.000000" height="48.000000" fill="none">
  <path id="形状结合" d="M23.9998 9.40283C33.3561 9.40283 41.6869 14.9665 45.3741 23.3978C45.706 24.1568 45.3598 25.0412 44.6008 25.3732C43.8418 25.7051 42.9574 25.3589 42.6254 24.5999C39.4114 17.2506 32.1527 12.4028 23.9998 12.4028C16.2545 12.4028 9.31619 16.7779 5.88612 23.5165L5.64796 23.998L5.88617 24.4813C9.22626 31.0432 15.8924 35.3649 23.3901 35.5878L23.9998 35.5968C30.4666 35.5968 36.4218 32.5549 40.2412 27.4789C40.7393 26.817 41.6797 26.6842 42.3416 27.1822C43.0036 27.6803 43.1364 28.6208 42.6383 29.2827C38.2583 35.1036 31.4199 38.5968 23.9998 38.5968C14.6439 38.5968 6.31288 33.0318 2.62543 24.5999C2.45786 24.2167 2.45786 23.781 2.62543 23.3978C6.31262 14.9665 14.6434 9.40283 23.9998 9.40283ZM23.9998 16.0016C26.0954 16.0016 28.0647 16.8113 29.5422 18.2332C29.9687 18.6423 30.3482 19.097 30.6666 19.5807C31.5312 20.8802 31.9998 22.4074 31.9998 24.0016C31.9998 28.4201 28.4182 32.0016 23.9998 32.0016C19.5813 32.0016 15.9998 28.4201 15.9998 24.0016C15.9998 19.5832 19.5813 16.0016 23.9998 16.0016ZM23.9998 19.0016C21.2382 19.0016 18.9998 21.2401 18.9998 24.0016C18.9998 26.7632 21.2382 29.0016 23.9998 29.0016C26.7613 29.0016 28.9998 26.7632 28.9998 24.0016C28.9998 23.0031 28.7083 22.0532 28.1649 21.2364C27.9664 20.935 27.731 20.653 27.4636 20.3965C26.5381 19.5058 25.312 19.0016 23.9998 19.0016Z" fill="var(--tiny-first-color)" fill-rule="evenodd"/>
  <path id="形状结合" d="M23.9998 16.0016C26.0954 16.0016 28.0647 16.8113 29.5422 18.2332C29.9687 18.6423 30.3482 19.097 30.6666 19.5807C31.5312 20.8802 31.9998 22.4074 31.9998 24.0016C31.9998 28.4201 28.4182 32.0016 23.9998 32.0016C19.5813 32.0016 15.9998 28.4201 15.9998 24.0016C15.9998 19.5832 19.5813 16.0016 23.9998 16.0016ZM23.9998 19.0016C21.2382 19.0016 18.9998 21.2401 18.9998 24.0016C18.9998 26.7632 21.2382 29.0016 23.9998 29.0016C26.7613 29.0016 28.9998 26.7632 28.9998 24.0016C28.9998 23.0031 28.7083 22.0532 28.1649 21.2364C27.9664 20.935 27.731 20.653 27.4636 20.3965C26.5381 19.5058 25.312 19.0016 23.9998 19.0016Z" fill="var(--tiny-second-color)" fill-rule="evenodd"/>
</svg>