<svg viewBox="0 0 48 48" xmlns="http://www.w3.org/2000/svg" xmlns:xlink="http://www.w3.org/1999/xlink" width="48.000000" height="48.000000">
  <path id="合并" d="M11.6964 34.6771C11.5055 34.9079 11.293 35.1093 11.0589 35.2813C10.9879 35.3336 10.9149 35.3831 10.8399 35.4299C10.6806 35.5293 10.5154 35.6147 10.3443 35.686C10.1811 35.754 10.0126 35.8092 9.83867 35.8516C9.70541 35.884 9.57117 35.9085 9.43596 35.9248C9.22764 35.9501 9.01701 35.9562 8.80407 35.9432C8.65681 35.9342 8.51122 35.9162 8.36731 35.8893L8.36717 35.8893C8.17999 35.8543 7.99565 35.8041 7.81415 35.7387C7.6327 35.6734 7.45872 35.5945 7.29223 35.5022C7.16411 35.4312 7.04041 35.3521 6.92115 35.2651C6.7488 35.1393 6.59043 35.0003 6.44601 34.8481C6.35229 34.7493 6.26445 34.6449 6.1825 34.5349C6.07549 34.3913 5.98078 34.2412 5.89837 34.0847C5.81209 33.9208 5.7393 33.7498 5.67999 33.5717C5.65206 33.4879 5.62738 33.4032 5.60596 33.3177C5.53532 33.0359 5.5 32.7452 5.5 32.4457L5.5 14.5529C5.5 14.2534 5.53531 13.9628 5.60594 13.681C5.62737 13.5955 5.65205 13.5108 5.67998 13.4269C5.73932 13.2487 5.81215 13.0777 5.89848 12.9137C5.98086 12.7573 6.07552 12.6073 6.18247 12.4637C6.26438 12.3538 6.35216 12.2495 6.44583 12.1507L6.44597 12.1506C6.59038 11.9983 6.74876 11.8593 6.9211 11.7336C7.0404 11.6465 7.16412 11.5675 7.29228 11.4964C7.45874 11.4041 7.63267 11.3253 7.81407 11.2599C7.99548 11.1946 8.17972 11.1444 8.3668 11.1094C8.51084 11.0824 8.65657 11.0645 8.80397 11.0555C9.01693 11.0425 9.22758 11.0486 9.43592 11.0738C9.5711 11.0902 9.70531 11.1146 9.83855 11.147C10.0125 11.1894 10.181 11.2446 10.3442 11.3126C10.5153 11.3839 10.6805 11.4692 10.8398 11.5687C10.9148 11.6155 10.9878 11.665 11.0588 11.7172C11.2929 11.8893 11.5054 12.0906 11.6963 12.3214L18.5726 20.6298C18.7518 20.8463 18.9085 21.0755 19.0425 21.3171C19.1622 21.533 19.2639 21.759 19.3475 21.9949C19.4309 22.2303 19.4941 22.4692 19.5372 22.7118C19.583 22.9701 19.6059 23.2324 19.6059 23.4988C19.6059 23.7652 19.583 24.0275 19.5372 24.2858C19.4942 24.5283 19.431 24.7673 19.3476 25.0027C19.264 25.2387 19.1623 25.4646 19.0426 25.6805L19.0425 25.6806C18.9086 25.9222 18.752 26.1513 18.5727 26.3679L11.6964 34.6771ZM28.6964 34.6771C28.5055 34.9079 28.293 35.1093 28.0589 35.2813C27.9879 35.3336 27.9149 35.3831 27.8399 35.4299C27.6806 35.5293 27.5154 35.6147 27.3443 35.686C27.1811 35.754 27.0126 35.8092 26.8387 35.8516C26.7054 35.884 26.5712 35.9085 26.436 35.9248C26.2276 35.9501 26.017 35.9562 25.8041 35.9432C25.6568 35.9342 25.5111 35.9162 25.3672 35.8893C25.18 35.8543 24.9957 35.8041 24.8141 35.7387C24.6327 35.6734 24.4587 35.5945 24.2922 35.5022C24.1641 35.4312 24.0404 35.3521 23.9212 35.2651C23.7488 35.1393 23.5904 35.0003 23.446 34.8481C23.3523 34.7493 23.2645 34.6449 23.1825 34.5349C23.0755 34.3913 22.9808 34.2412 22.8984 34.0847C22.8121 33.9208 22.7393 33.7498 22.68 33.5717C22.6521 33.4879 22.6274 33.4032 22.606 33.3177C22.5353 33.0359 22.5 32.7452 22.5 32.4457L22.5 14.5529C22.5 14.2534 22.5353 13.9628 22.6059 13.681C22.6274 13.5955 22.6521 13.5108 22.68 13.4269C22.7393 13.2487 22.8122 13.0777 22.8985 12.9137C22.9809 12.7572 23.0755 12.6073 23.1825 12.4637C23.2644 12.3538 23.3523 12.2494 23.446 12.1506C23.5904 11.9983 23.7488 11.8593 23.9211 11.7336C24.0404 11.6465 24.1641 11.5675 24.2923 11.4964C24.4587 11.4041 24.6327 11.3253 24.8141 11.2599C24.9955 11.1946 25.1797 11.1444 25.3668 11.1094C25.5108 11.0824 25.6566 11.0645 25.804 11.0555C26.0169 11.0425 26.2276 11.0486 26.4359 11.0738C26.5711 11.0902 26.7053 11.1146 26.8386 11.147C27.0125 11.1894 27.181 11.2446 27.3442 11.3126C27.5153 11.3839 27.6805 11.4692 27.8398 11.5687C27.9148 11.6155 27.9878 11.665 28.0588 11.7172C28.2929 11.8893 28.5054 12.0906 28.6963 12.3214L35.5726 20.6298C35.7518 20.8463 35.9085 21.0755 36.0425 21.3171L36.0425 21.3171C36.1622 21.5331 36.2639 21.759 36.3475 21.9949C36.4309 22.2303 36.4941 22.4692 36.5372 22.7118C36.583 22.9701 36.6059 23.2324 36.6059 23.4988C36.6059 23.7652 36.583 24.0275 36.5372 24.2858C36.4942 24.5283 36.431 24.7673 36.3476 25.0027C36.264 25.2387 36.1623 25.4646 36.0426 25.6805C35.9086 25.9222 35.752 26.1513 35.5727 26.3679L28.6964 34.6771ZM9.38521 32.7645L16.2615 24.4552C16.3763 24.3165 16.4624 24.1674 16.5198 24.0081C16.5772 23.8487 16.6059 23.6789 16.6059 23.4989C16.6059 23.3188 16.5772 23.1491 16.5198 22.9897C16.4624 22.8303 16.3763 22.6812 16.2615 22.5425L9.38519 14.2341C9.31339 14.1473 9.23284 14.0912 9.14356 14.0658C9.13852 14.0644 9.13346 14.063 9.12836 14.0618C9.1104 14.0574 9.0923 14.0541 9.07407 14.0518C8.99535 14.0422 8.91419 14.0524 8.83058 14.0825C8.74697 14.1126 8.67793 14.1565 8.62346 14.2141C8.61085 14.2275 8.59902 14.2416 8.58798 14.2564C8.58485 14.2606 8.5818 14.2648 8.57883 14.2692C8.52628 14.3457 8.5 14.4403 8.5 14.5529L8.5 32.4457C8.5 32.5584 8.52628 32.6529 8.57884 32.7295C8.5818 32.7338 8.58485 32.738 8.58798 32.7422C8.59903 32.7571 8.61086 32.7712 8.62347 32.7845C8.67793 32.8422 8.74698 32.886 8.83059 32.9161C8.91421 32.9463 8.99538 32.9565 9.0741 32.9468C9.09233 32.9445 9.11042 32.9412 9.12838 32.9369C9.13347 32.9356 9.13853 32.9343 9.14357 32.9328C9.23285 32.9074 9.3134 32.8513 9.38521 32.7645ZM26.3852 32.7645L33.2615 24.4552C33.3763 24.3165 33.4624 24.1674 33.5198 24.0081C33.5772 23.8487 33.6059 23.6789 33.6059 23.4989C33.6059 23.3188 33.5772 23.1491 33.5198 22.9897C33.4624 22.8303 33.3763 22.6812 33.2615 22.5425L26.3852 14.2341C26.3134 14.1473 26.2328 14.0912 26.1436 14.0658C26.1385 14.0644 26.1335 14.063 26.1284 14.0618C26.1104 14.0574 26.0923 14.0541 26.0741 14.0518C25.9954 14.0422 25.9142 14.0524 25.8306 14.0825C25.747 14.1126 25.6779 14.1565 25.6235 14.2141C25.6109 14.2275 25.599 14.2416 25.588 14.2564C25.5848 14.2606 25.5818 14.2648 25.5788 14.2692C25.5263 14.3457 25.5 14.4403 25.5 14.5529L25.5 32.4457C25.5 32.5584 25.5263 32.6529 25.5788 32.7295C25.5818 32.7338 25.5848 32.738 25.588 32.7422C25.599 32.7571 25.6109 32.7712 25.6235 32.7845C25.6779 32.8422 25.747 32.886 25.8306 32.9161C25.9142 32.9463 25.9954 32.9565 26.0741 32.9468C26.0923 32.9445 26.1104 32.9412 26.1284 32.9369C26.1335 32.9356 26.1385 32.9343 26.1436 32.9328C26.2329 32.9074 26.3134 32.8513 26.3852 32.7645Z" fill="var(--tiny-first-color, #191919)" fill-rule="evenodd"/>
  <path id="矢量 1986(边框)" d="M42.5 12L42.5 34.5C42.5 35.34 41.84 36 41 36C40.16 36 39.5 35.34 39.5 34.5L39.5 12C39.5 11.16 40.16 10.5 41 10.5C41.84 10.5 42.5 11.16 42.5 12Z" fill="var(--tiny-second-color, #aeaeAE)" fill-rule="evenodd"/>
</svg>