<svg viewBox="0 0 48 48" xmlns="http://www.w3.org/2000/svg" xmlns:xlink="http://www.w3.org/1999/xlink" width="48.000000" height="48.000000">
  <path id="合并" d="M9.04389 36.6963L17.9295 25.9062C18.8417 24.7984 18.8417 23.1997 17.9294 22.0919L9.04383 11.3028C7.85098 9.85445 5.5 10.6979 5.5 12.5743L5.5 35.4249C5.5 37.3013 7.85108 38.1448 9.04389 36.6963ZM26.0439 36.6963L34.9295 25.9062C35.8417 24.7984 35.8417 23.1997 34.9294 22.0919L26.0438 11.3028C24.851 9.85445 22.5 10.6979 22.5 12.5743L22.5 35.4249C22.5 37.3013 24.8511 38.1448 26.0439 36.6963Z" fill="var(--tiny-first-color, #191919)" fill-rule="evenodd"/>
  <path id="矢量 1986(边框)" d="M42.5 12L42.5 34.5C42.5 35.34 41.84 36 41 36C40.16 36 39.5 35.34 39.5 34.5L39.5 12C39.5 11.16 40.16 10.5 41 10.5C41.84 10.5 42.5 11.16 42.5 12Z" fill="var(--tiny-second-color, #aeaeAE)" fill-rule="evenodd"/>
</svg>