<svg viewBox="0 0 48 48" xmlns="http://www.w3.org/2000/svg" xmlns:xlink="http://www.w3.org/1999/xlink" width="48.000000" height="48.000000" fill="none">
  <path id="合并" d="M26 36L26 32C26 30.88 25.12 30 24 30C22.88 30 22 30.88 22 32L22 36L16 36C14.88 36 14 36.88 14 38C14 39.12 14.88 40 16 40L22 40L22 44C22 45.12 22.88 46 24 46C25.12 46 26 45.12 26 44L26 40L32 40C33.12 40 34 39.12 34 38C34 36.88 33.12 36 32 36L26 36Z" fill="var(--tiny-second-color, #aeaeAE)" fill-rule="evenodd"/>
  <path id="椭圆 389(边框)" d="M24 4C32.0081 4 38.5 10.4919 38.5 18.5C38.5 26.5081 32.0081 33 24 33C15.9919 33 9.5 26.5081 9.5 18.5C9.5 10.4919 15.9919 4 24 4Z" fill="var(--tiny-first-color, #191919)" fill-rule="evenodd"/>
</svg>
