<svg viewBox="0 0 48 48" xmlns="http://www.w3.org/2000/svg" xmlns:xlink="http://www.w3.org/1999/xlink" width="48.000000" height="48.000000" fill="none">
  <path id="合并" d="M25.5 36.5L25.5 32C25.5 31.16 24.84 30.5 24 30.5C23.16 30.5 22.5 31.16 22.5 32L22.5 36.5L16 36.5C15.16 36.5 14.5 37.16 14.5 38C14.5 38.84 15.16 39.5 16 39.5L22.5 39.5L22.5 44C22.5 44.84 23.16 45.5 24 45.5C24.84 45.5 25.5 44.84 25.5 44L25.5 39.5L32 39.5C32.84 39.5 33.5 38.84 33.5 38C33.5 37.16 32.84 36.5 32 36.5L25.5 36.5Z" fill="var(--tiny-second-color, #aeaeAE)" fill-rule="evenodd"/>
  <path id="椭圆 389(边框)" d="M24 4C32.0081 4 38.5 10.4919 38.5 18.5C38.5 26.5081 32.0081 33 24 33C15.9919 33 9.5 26.5081 9.5 18.5C9.5 10.4919 15.9919 4 24 4ZM21.4086 7.29078L21.4086 7.29079L21.4086 7.2908C20.7676 7.43846 20.1396 7.64236 19.5246 7.9025C18.8903 8.17077 18.2894 8.49012 17.7217 8.86053C17.0584 9.29338 16.4406 9.79596 15.8683 10.3683C15.2959 10.9406 14.7934 11.5584 14.3605 12.2218C13.9901 12.7894 13.6708 13.3903 13.4025 14.0246C13.1424 14.6396 12.9385 15.2676 12.7908 15.9086L12.7908 15.9086C12.5969 16.7501 12.5 17.6139 12.5 18.5C12.5 19.3861 12.5969 20.2499 12.7908 21.0914L12.7908 21.0915C12.9385 21.7324 13.1424 22.3604 13.4025 22.9754C13.6708 23.6096 13.9901 24.2105 14.3605 24.7782L14.3605 24.7782C14.7933 25.4416 15.2959 26.0594 15.8683 26.6317C16.4406 27.204 17.0584 27.7066 17.7218 28.1395C18.2894 28.5099 18.8903 28.8292 19.5246 29.0975C20.1397 29.3577 20.7677 29.5616 21.4087 29.7092C22.2501 29.9031 23.1139 30 24 30C24.8861 30 25.7499 29.9031 26.5913 29.7092C27.2323 29.5616 27.8603 29.3577 28.4754 29.0975C29.1096 28.8292 29.7106 28.5099 30.2782 28.1395C30.9415 27.7067 31.5594 27.2041 32.1317 26.6317C32.7041 26.0594 33.2067 25.4415 33.6395 24.7782C34.0099 24.2106 34.3292 23.6096 34.5975 22.9754C34.8577 22.3603 35.0616 21.7323 35.2092 21.0913C35.4031 20.2499 35.5 19.3861 35.5 18.5C35.5 17.6139 35.4031 16.7501 35.2092 15.9087C35.0616 15.2677 34.8577 14.6397 34.5975 14.0246C34.3292 13.3903 34.0099 12.7894 33.6395 12.2217C33.2066 11.5584 32.704 10.9406 32.1317 10.3683C31.5594 9.79591 30.9415 9.2933 30.2781 8.86043L30.2781 8.86041C29.7105 8.49005 29.1096 8.17074 28.4754 7.9025C27.8604 7.64237 27.2324 7.43848 26.5915 7.29082L26.5914 7.29079C25.75 7.09693 24.8861 7 24 7C23.1139 7 22.2501 7.09693 21.4086 7.29078Z" fill="var(--tiny-first-color, #191919)" fill-rule="evenodd"/>
</svg>
