<svg viewBox="0 0 48 48" xmlns="http://www.w3.org/2000/svg" xmlns:xlink="http://www.w3.org/1999/xlink" width="48.000000" height="48.000000" fill="none">
  <path id="形状结合" d="M23.2079 9C28.3045 9 32.8218 11.9699 34.8596 16.4129L34.996 16.7293L35.2812 16.7487C40.845 17.2059 45.2558 21.6953 45.4902 27.2574L45.5 27.7233C45.5 33.8111 40.4998 38.7363 34.3365 38.7363L11.8793 38.7354L11.5222 38.7234C6.48069 38.4635 2.5 34.3446 2.5 29.3297C2.5 24.7234 5.84981 20.8974 10.2672 20.083L10.5224 20.0409L10.5753 19.6609C11.5045 13.7656 16.5664 9.23162 22.7315 9.0086L23.2079 9Z" fill="var(--tiny-first-color, #191919)" fill-rule="evenodd"/>
  <path id="形状结合" d="M11.5004 0.232759L17.3247 6.034L17.5189 6.27232C17.5443 6.32589 17.6679 6.56161 17.6874 6.62013C17.7292 6.75709 17.764 6.94233 17.764 7.09466C17.764 7.17144 17.7582 7.24688 17.7471 7.32056L17.6978 7.53662C17.6809 7.58322 17.6382 7.6987 17.6177 7.7417L17.4956 7.95118L17.3247 8.15532L11.6627 13.8173C11.0769 14.4031 10.1271 14.4031 9.54134 13.8173C9.00881 13.2848 8.96039 12.4515 9.3961 11.8642L12.642 8.59266L1.5 8.59466C0.671574 8.59466 0 7.92308 0 7.09466C0 6.33526 0.564308 5.70767 1.29646 5.60835L1.5 5.59465L12.642 5.59266L9.54734 2.49932C9.01481 1.96678 8.9664 1.13345 9.4021 0.546231C9.93464 0.0136977 10.9132 -0.20295 11.5004 0.232759Z" fill="var(--tiny-second-color, #aeaeAE)" fill-rule="evenodd" transform="matrix(0,-1,1,0,17.2073,34.1826)"/>
</svg>
