<svg viewBox="0 0 48 48" xmlns="http://www.w3.org/2000/svg" xmlns:xlink="http://www.w3.org/1999/xlink" width="48.000000" height="48.000000" fill="none">
  <path id="减去顶层" d="M27.1681 4.03613C28.0921 4.03613 28.9961 4.41213 29.6501 5.06813L38.9041 14.3581C39.5601 15.0161 39.9221 15.8921 39.9221 16.8241L39.9221 37.9641C39.9221 41.2721 37.2301 43.9641 33.9221 43.9641L14.0781 43.9641C10.7701 43.9641 8.07812 41.2721 8.07812 37.9641L8.07812 10.0361C8.07812 6.72813 10.7701 4.03613 14.0781 4.03613L27.1681 4.03613ZM27.5241 7.18413L27.5195 13.5127C27.5195 15.0657 28.7154 16.3529 30.2317 16.4989L30.5195 16.5127L36.8119 16.5118L27.5241 7.18413ZM26.0001 23.4999C26.0001 22.6715 25.3286 21.9999 24.5001 21.9999L15.5001 21.9999L15.2966 22.0136C14.5644 22.1129 14.0001 22.7405 14.0001 23.4999C14.0001 24.3283 14.6717 24.9999 15.5001 24.9999L24.5001 24.9999L24.7037 24.9862C25.4358 24.8869 26.0001 24.2593 26.0001 23.4999ZM31.0001 31.4999C31.0001 30.6715 30.3286 29.9999 29.5001 29.9999L15.5001 29.9999L15.2966 30.0136C14.5644 30.1129 14.0001 30.7405 14.0001 31.4999C14.0001 32.3283 14.6717 32.9999 15.5001 32.9999L29.5001 32.9999L29.7037 32.9862C30.4358 32.8869 31.0001 32.2593 31.0001 31.4999Z" fill="var(--tiny-first-color)" fill-rule="evenodd"/>
  <path id="形状结合" d="M29.5 30C30.3284 30 31 30.6716 31 31.5C31 32.2594 30.4357 32.887 29.7035 32.9863L29.5 33L15.5 33C14.6716 33 14 32.3284 14 31.5C14 30.7406 14.5643 30.113 15.2965 30.0137L15.5 30L29.5 30ZM24.5 22C25.3284 22 26 22.6716 26 23.5C26 24.2594 25.4357 24.887 24.7035 24.9863L24.5 25L15.5 25C14.6716 25 14 24.3284 14 23.5C14 22.7406 14.5643 22.113 15.2965 22.0137L15.5 22L24.5 22Z" fill="var(--tiny-second-color)" fill-rule="evenodd"/>
</svg>