<svg viewBox="0 0 48 48" xmlns="http://www.w3.org/2000/svg" xmlns:xlink="http://www.w3.org/1999/xlink" width="48.000000" height="48.000000" fill="none">
  <path id="减去顶层" d="M27.248 4C28.172 4 29.076 4.376 29.73 5.032L38.984 14.322C39.64 14.98 40.002 15.856 40.002 16.788L40.002 38.004C40.002 41.312 37.31 44.004 34.002 44.004L14 44.004C10.692 44.004 8.00005 41.312 8.00005 38.004L8.00005 10C8.00005 6.692 10.692 4 14 4L27.248 4ZM27.598 7.144L27.5994 13.4766C27.5994 15.0295 28.7953 16.3167 30.3116 16.4628L30.5994 16.4766L36.8918 16.4756L27.598 7.144ZM17.4184 20.4172C17.9256 19.9115 18.8795 20.0035 19.4387 20.4172L24 25.985L28.5613 20.4172C29.1192 19.861 30.0237 19.861 30.5816 20.4172C31.0888 20.9229 30.9965 21.8739 30.5816 22.4315L26.021 28L30.5816 33.5685C31.1395 34.1248 31.1395 35.0266 30.5816 35.5829C30.0744 36.0886 29.1205 35.9966 28.5613 35.5829L24 30.0149L19.4387 35.5829C18.8808 36.1391 17.9763 36.1391 17.4184 35.5829C16.9113 35.0772 17.0035 34.1261 17.4184 33.5685L21.979 28L17.4184 22.4315C16.8605 21.8752 16.8605 20.9735 17.4184 20.4172Z" fill="var(--tiny-first-color)" fill-rule="evenodd"/>
  <path id="矢量 177" d="M19.4387 20.4172C18.8795 20.0034 17.9256 19.9115 17.4184 20.4172C16.8605 20.9734 16.8605 21.8751 17.4184 22.4314L21.979 27.9999L17.4184 33.5685C17.0035 34.1261 16.9112 35.0772 17.4184 35.5828C17.9763 36.1391 18.8808 36.1391 19.4387 35.5828L24 30.0149L28.5613 35.5828C29.1205 35.9966 30.0744 36.0885 30.5816 35.5828C31.1395 35.0266 31.1395 34.1247 30.5816 33.5685L26.0209 27.9999L30.5816 22.4314C30.9965 21.8738 31.0888 20.9228 30.5816 20.4172C30.0237 19.8609 29.1192 19.8609 28.5613 20.4172L24 25.9849L19.4387 20.4172Z" fill="var(--tiny-second-color)" fill-rule="evenodd"/>
</svg>