<svg viewBox="0 0 48 48" xmlns="http://www.w3.org/2000/svg" xmlns:xlink="http://www.w3.org/1999/xlink" width="48.000000" height="48.000000">
  <defs>
    <clipPath id="clipPath_3">
      <rect width="28.000000" height="28.000000" x="10.000000" y="10.000000" fill="#FFFFFF"/>
    </clipPath>
  </defs>
  <path id="形状结合" d="M36 6C39.3137 6 42 8.68629 42 12C42 12.8284 41.3284 13.5 40.5 13.5C39.6716 13.5 39 12.8284 39 12C39 10.4615 37.8419 9.19348 36.3499 9.02018L36 9L12 9C10.4615 9 9.19348 10.1581 9.02018 11.6501L9 12L9 36C9 37.5385 10.1581 38.8065 11.6501 38.9798L12 39L36 39C37.5385 39 38.8065 37.8419 38.9798 36.3499L39 36L39 17C39 16.1716 39.6716 15.5 40.5 15.5C41.2364 15.5 41.8488 16.0306 41.9758 16.7304L42 17L42 36C42 39.1631 39.5524 41.7545 36.4478 41.9835L36 42L12 42C8.83692 42 6.2455 39.5524 6.01646 36.4478L6 36L6 12C6 8.83692 8.44763 6.2455 11.5522 6.01646L12 6L36 6Z" fill="var(--tiny-first-color)" fill-rule="evenodd"/>
  <g id="IconFolderClosed" clip-path="url(#clipPath_3)">
    <path id="合并" d="M35.3983 30.9578C35.4661 30.6459 35.5 30.3266 35.5 30L35.5 23.0263C35.5 22.6996 35.4661 22.3803 35.3983 22.0684C35.3396 21.7981 35.2554 21.5334 35.1457 21.2742C35.0365 21.016 34.9058 20.772 34.7537 20.5423C34.5884 20.2929 34.3979 20.0602 34.182 19.8443C33.966 19.6284 33.7334 19.4378 33.4839 19.2726C33.2542 19.1204 33.0102 18.9897 32.752 18.8805C32.6669 18.8445 32.5812 18.8112 32.4949 18.7807C32.483 18.5301 32.4509 18.2839 32.3983 18.0421C32.3396 17.7719 32.2554 17.5071 32.1458 17.2479C32.0365 16.9897 31.9059 16.7458 31.7537 16.5161C31.5884 16.2666 31.3979 16.0339 31.182 15.818C30.9661 15.6021 30.7334 15.4115 30.4839 15.2463C30.2542 15.0941 30.0103 14.9635 29.7521 14.8542C29.4928 14.7446 29.2281 14.6604 28.9578 14.6017C28.6459 14.5339 28.3266 14.5 28 14.5L17 14.5C16.6733 14.5 16.3541 14.5339 16.0421 14.6017C15.7719 14.6604 15.5071 14.7446 15.2479 14.8542C14.9897 14.9635 14.7458 15.0941 14.5161 15.2463C14.2666 15.4115 14.0339 15.6021 13.818 15.818C13.6021 16.0339 13.4116 16.2666 13.2463 16.5161C13.0941 16.7458 12.9635 16.9897 12.8542 17.2479C12.7446 17.5071 12.6604 17.7719 12.6017 18.0422C12.5339 18.3541 12.5 18.6734 12.5 19L12.5 30C12.5 30.3267 12.5339 30.6459 12.6017 30.9579C12.6604 31.2281 12.7446 31.4929 12.8542 31.7521C12.9634 32.0102 13.0941 32.2542 13.2463 32.4839C13.4115 32.7334 13.6021 32.9661 13.818 33.182C14.0339 33.3979 14.2666 33.5884 14.516 33.7536C14.7457 33.9058 14.9897 34.0365 15.2479 34.1458C15.5072 34.2554 15.7719 34.3396 16.0422 34.3983C16.3541 34.4661 16.6734 34.5 17 34.5L31 34.5C31.3266 34.5 31.6458 34.4661 31.9577 34.3983C32.228 34.3396 32.4928 34.2554 32.7521 34.1458C33.0103 34.0365 33.2543 33.9058 33.4841 33.7536C33.7335 33.5884 33.9661 33.3978 34.182 33.182C34.3979 32.9661 34.5884 32.7335 34.7536 32.484C34.9058 32.2543 35.0365 32.0103 35.1458 31.7521C35.2554 31.4928 35.3396 31.2281 35.3983 30.9578ZM18 17.5L17 17.5C16.876 17.5 16.7556 17.5144 16.6388 17.5432C16.5632 17.5619 16.4892 17.5866 16.4166 17.6173C16.338 17.6505 16.2633 17.6898 16.1925 17.7352C16.1017 17.7933 16.0173 17.8613 15.9393 17.9393C15.8613 18.0173 15.7933 18.1017 15.7352 18.1924C15.6898 18.2633 15.6505 18.338 15.6173 18.4166C15.5866 18.4892 15.5619 18.5633 15.5432 18.6388C15.5144 18.7557 15.5 18.8761 15.5 19L15.5 30C15.5 30.124 15.5144 30.2444 15.5432 30.3612C15.5619 30.4368 15.5866 30.5108 15.6173 30.5834C15.6505 30.662 15.6898 30.7367 15.7352 30.8075C15.7933 30.8983 15.8613 30.9827 15.9393 31.0607C16.0173 31.1387 16.1017 31.2067 16.1925 31.2648C16.2633 31.3102 16.338 31.3495 16.4166 31.3827C16.4892 31.4134 16.5633 31.4381 16.6388 31.4568C16.7557 31.4856 16.8761 31.5 17 31.5L31 31.5C31.1239 31.5 31.2443 31.4856 31.3612 31.4568C31.4367 31.4381 31.5108 31.4134 31.5834 31.3827C31.662 31.3495 31.7367 31.3102 31.8075 31.2648C31.8983 31.2067 31.9827 31.1387 32.0607 31.0607C32.1387 30.9826 32.2067 30.8983 32.2649 30.8075C32.3102 30.7367 32.3495 30.662 32.3827 30.5834C32.4134 30.5108 32.4381 30.4367 32.4568 30.3611C32.4856 30.2443 32.5 30.1239 32.5 30L32.5 23.0263C32.5 22.9023 32.4856 22.7819 32.4567 22.665C32.4381 22.5895 32.4134 22.5154 32.3827 22.4429C32.3495 22.3643 32.3102 22.2895 32.2648 22.2187C32.2067 22.128 32.1386 22.0436 32.0606 21.9656C31.9827 21.8876 31.8983 21.8196 31.8076 21.7615C31.7368 21.7161 31.662 21.6768 31.5834 21.6435C31.5107 21.6128 31.4365 21.5881 31.3609 21.5694C31.2441 21.5406 31.1238 21.5263 31 21.5263L25.411 21.5263C25.0759 21.5263 24.7487 21.4907 24.4295 21.4193C24.1103 21.348 23.799 21.241 23.4958 21.0984C23.1925 20.9557 22.9116 20.7842 22.6531 20.5838C22.3946 20.3834 22.1585 20.1541 21.9448 19.896L20.4111 18.0434C20.3398 17.9574 20.2611 17.881 20.1749 17.8142C20.0888 17.7474 19.9951 17.6902 19.8941 17.6426C19.793 17.5951 19.6892 17.5594 19.5828 17.5357C19.4764 17.5119 19.3674 17.5 19.2556 17.5L18 17.5ZM23.8558 17.5L24.2556 17.9829C24.3268 18.0689 24.4055 18.1453 24.4917 18.2121C24.5779 18.2789 24.6715 18.3361 24.7726 18.3837C24.8737 18.4312 24.9775 18.4669 25.0839 18.4907C25.1903 18.5144 25.2993 18.5263 25.411 18.5263L29.4242 18.5263C29.4119 18.4893 29.398 18.4528 29.3827 18.4166C29.3495 18.338 29.3102 18.2633 29.2648 18.1925C29.2067 18.1017 29.1387 18.0173 29.0607 17.9393C28.9826 17.8613 28.8983 17.7933 28.8075 17.7351C28.7367 17.6898 28.662 17.6505 28.5834 17.6173C28.5108 17.5866 28.4368 17.5619 28.3612 17.5432C28.2444 17.5144 28.124 17.5 28 17.5L23.8558 17.5Z" fill="var(--tiny-second-color)" fill-rule="evenodd"/>
  </g>
</svg>