<svg viewBox="0 0 48 48" xmlns="http://www.w3.org/2000/svg" xmlns:xlink="http://www.w3.org/1999/xlink" width="48.000000" height="48.000000">
  <path id="形状结合" d="M28.0001 4.03613C28.091 4.03613 28.1799 4.04422 28.2663 4.05971C28.314 4.06968 28.4226 4.09571 28.4684 4.11077C28.4956 4.12373 28.7062 4.21199 28.7338 4.22745C28.7938 4.27325 29.0221 4.43582 29.0756 4.49082L39.4841 14.9431C39.9121 15.3731 40.0401 16.0171 39.8061 16.5771C39.5741 17.1351 39.0281 17.5011 38.4221 17.5011L31.0001 17.5011C28.5181 17.5011 26.5001 15.4811 26.5001 13.0011L26.4981 7.03413L14.0781 7.03613C12.4241 7.03613 11.0781 8.38213 11.0781 10.0361L11.0781 37.9641C11.0781 39.6181 12.4241 40.9641 14.0781 40.9641L33.9221 40.9641C35.5761 40.9641 36.9221 39.6181 36.9221 37.9641L36.9221 20.9901C36.9221 20.1621 37.5941 19.4901 38.4221 19.4901C39.2501 19.4901 39.9221 20.1621 39.9221 20.9901L39.9221 37.9641C39.9221 41.2721 37.2301 43.9641 33.9221 43.9641L14.0781 43.9641C10.7701 43.9641 8.07812 41.2721 8.07812 37.9641L8.07812 10.0361C8.07812 6.72813 10.7701 4.03613 14.0781 4.03613L28.0001 4.03613ZM29.5001 9.16913L29.5001 13.0011C29.5001 13.8271 30.1721 14.5011 31.0001 14.5011L34.8101 14.5011L29.5001 9.16913Z" fill="var(--tiny-first-color)" fill-rule="evenodd"/>
  <path id="形状结合" d="M29.5 30C30.3284 30 31 30.6716 31 31.5C31 32.2594 30.4357 32.887 29.7035 32.9863L29.5 33L15.5 33C14.6716 33 14 32.3284 14 31.5C14 30.7406 14.5643 30.113 15.2965 30.0137L15.5 30L29.5 30ZM24.5 22C25.3284 22 26 22.6716 26 23.5C26 24.2594 25.4357 24.887 24.7035 24.9863L24.5 25L15.5 25C14.6716 25 14 24.3284 14 23.5C14 22.7406 14.5643 22.113 15.2965 22.0137L15.5 22L24.5 22Z" fill="var(--tiny-second-color)" fill-rule="evenodd"/>
</svg>