<svg viewBox="0 0 48 48" xmlns="http://www.w3.org/2000/svg" xmlns:xlink="http://www.w3.org/1999/xlink" width="48.000000" height="48.000000">
  <path id="形状结合" d="M27.168 4.03613C28.092 4.03613 28.996 4.41213 29.65 5.06813L38.904 14.3581C39.56 15.0161 39.922 15.8921 39.922 16.8241L39.922 37.9641C39.922 41.2721 37.23 43.9641 33.922 43.9641L14.078 43.9641C10.77 43.9641 8.078 41.2721 8.078 37.9641L8.078 10.0361C8.078 6.72813 10.77 4.03613 14.078 4.03613L27.168 4.03613ZM27.524 7.18413L27.5194 13.5127C27.5194 15.0657 28.7153 16.3529 30.2316 16.4989L30.5194 16.5127L36.8117 16.5118L27.524 7.18413Z" fill="var(--tiny-first-color)" fill-rule="evenodd"/>
</svg>