<svg viewBox="0 0 48 48" xmlns="http://www.w3.org/2000/svg" xmlns:xlink="http://www.w3.org/1999/xlink" width="48.000000" height="48.000000">
  <path id="形状结合" d="M28.1253 4.00138C28.1697 4.00534 28.303 4.01583 28.3462 4.02358C28.3939 4.03354 28.5025 4.05957 28.5483 4.07464C28.5755 4.0876 28.7861 4.17586 28.8137 4.19131C28.8673 4.23241 29.0919 4.39086 29.1405 4.4395L39.564 14.907C39.992 15.337 40.12 15.981 39.886 16.541C39.654 17.099 39.108 17.465 38.502 17.465L31.08 17.465C28.598 17.465 26.58 15.445 26.58 12.965L26.58 7L14 7C12.346 7 11 8.346 11 10L11 38.004C11 39.658 12.346 41.004 14 41.004L34.002 41.004C35.656 41.004 37.002 39.658 37.002 38.004L37.002 20.954C37.002 20.126 37.674 19.454 38.502 19.454C39.33 19.454 40.002 20.126 40.002 20.954L40.002 38.004C40.002 41.312 37.31 44.004 34.002 44.004L14 44.004C10.692 44.004 8.00003 41.312 8.00003 38.004L8.00003 10C8.00003 6.692 10.692 4 14 4L28.1253 4.00138ZM29.58 9.133L29.58 12.965C29.58 13.791 30.252 14.465 31.08 14.465L34.89 14.465L29.58 9.133Z" fill="var(--tiny-first-color)" fill-rule="evenodd"/>
  <path id="矢量 177" d="M19.4387 20.4172C18.8795 20.0034 17.9256 19.9115 17.4184 20.4172C16.8605 20.9734 16.8605 21.8751 17.4184 22.4314L21.979 27.9999L17.4184 33.5685C17.0035 34.1261 16.9112 35.0772 17.4184 35.5828C17.9763 36.1391 18.8808 36.1391 19.4387 35.5828L24 30.0149L28.5613 35.5828C29.1205 35.9966 30.0744 36.0885 30.5816 35.5828C31.1395 35.0266 31.1395 34.1247 30.5816 33.5685L26.0209 27.9999L30.5816 22.4314C30.9965 21.8738 31.0888 20.9228 30.5816 20.4172C30.0237 19.8609 29.1192 19.8609 28.5613 20.4172L24 25.9849L19.4387 20.4172Z" fill="var(--tiny-second-color)" fill-rule="evenodd"/>
</svg>