<svg viewBox="0 0 48 48" xmlns="http://www.w3.org/2000/svg" xmlns:xlink="http://www.w3.org/1999/xlink" width="48.000000" height="48.000000" fill="none">
  <path id="矢量 1937" d="M24 4C35.0259 4 44 12.9717 44 24C44 35.0259 35.0259 44 24 44C12.9719 44 4 35.0259 4 24C4 12.9717 12.9719 4 24 4ZM31 14C33.2092 14 35 15.791 35 18L35 30C35 32.209 33.2092 34 31 34L17 34C14.7908 34 13 32.209 13 30L13 18C13 15.791 14.7908 14 17 14L31 14ZM31.3838 17.0732C31.2661 17.0244 31.1382 17 31 17L17 17C16.8618 17 16.7339 17.0244 16.6162 17.0732C16.4983 17.1221 16.3906 17.1953 16.293 17.293C16.1953 17.3906 16.1221 17.498 16.0732 17.6162C16.0244 17.7339 16 17.8618 16 18L16 30C16 30.1382 16.0244 30.2661 16.0732 30.3838C16.1221 30.502 16.1953 30.6094 16.293 30.707C16.3906 30.8047 16.4983 30.8779 16.6162 30.9268C16.7339 30.9756 16.8618 31 17 31L31 31C31.1382 31 31.2661 30.9756 31.3838 30.9268C31.5017 30.8779 31.6094 30.8047 31.707 30.707C31.8047 30.6094 31.8779 30.502 31.9268 30.3838C31.9756 30.2661 32 30.1382 32 30L32 18C32 17.8618 31.9756 17.7339 31.9268 17.6162C31.8779 17.498 31.8047 17.3906 31.707 17.293C31.6094 17.1953 31.5017 17.1221 31.3838 17.0732ZM25 19.5L20 19.5C19.1599 19.5 18.5 20.1602 18.5 21C18.5 21.8398 19.1599 22.5 20 22.5L25 22.5C25.8401 22.5 26.5 21.8398 26.5 21C26.5 20.1602 25.8401 19.5 25 19.5ZM29.5 27C29.5 26.1602 28.8401 25.5 28 25.5L20 25.5C19.1599 25.5 18.5 26.1602 18.5 27C18.5 27.8398 19.1599 28.5 20 28.5L28 28.5C28.8401 28.5 29.5 27.8398 29.5 27Z" fill="var(--tiny-first-color, #191919)" fill-rule="evenodd"/>
  <path id="矢量 1936" d="M31 14C33.2092 14 35 15.791 35 18L35 30C35 32.209 33.2092 34 31 34L17 34C14.7908 34 13 32.209 13 30L13 18C13 15.791 14.7908 14 17 14L31 14ZM20 19.5L25 19.5C25.8401 19.5 26.5 20.1602 26.5 21C26.5 21.8398 25.8401 22.5 25 22.5L20 22.5C19.1599 22.5 18.5 21.8398 18.5 21C18.5 20.1602 19.1599 19.5 20 19.5ZM28 25.5L20 25.5C19.1599 25.5 18.5 26.1602 18.5 27C18.5 27.8398 19.1599 28.5 20 28.5L28 28.5C28.8401 28.5 29.5 27.8398 29.5 27C29.5 26.1602 28.8401 25.5 28 25.5Z" fill="var(--tiny-second-color, #aeaeAE)" fill-rule="evenodd"/>
</svg>
