<svg viewBox="0 0 48 48" xmlns="http://www.w3.org/2000/svg" xmlns:xlink="http://www.w3.org/1999/xlink" width="48.000000" height="48.000000" fill="none">
  <path id="形状结合" d="M28 4.03613C28.0908 4.03613 28.1798 4.04422 28.2662 4.05971C28.3138 4.06968 28.4225 4.09571 28.4683 4.11077C28.4955 4.12373 28.7061 4.21199 28.7337 4.22745C28.7937 4.27325 29.022 4.43582 29.0755 4.49082L39.484 14.9431C39.912 15.3731 40.04 16.0171 39.806 16.5771C39.574 17.1351 39.028 17.5011 38.422 17.5011L31 17.5011C28.518 17.5011 26.5 15.4811 26.5 13.0011L26.498 7.03413L14.078 7.03613C12.424 7.03613 11.078 8.38213 11.078 10.0361L11.078 37.9641C11.078 39.6181 12.424 40.9641 14.078 40.9641L33.922 40.9641C35.576 40.9641 36.922 39.6181 36.922 37.9641L36.922 20.9901C36.922 20.1621 37.594 19.4901 38.422 19.4901C39.25 19.4901 39.922 20.1621 39.922 20.9901L39.922 37.9641C39.922 41.2721 37.23 43.9641 33.922 43.9641L14.078 43.9641C10.77 43.9641 8.078 41.2721 8.078 37.9641L8.078 10.0361C8.078 6.72813 10.77 4.03613 14.078 4.03613L28 4.03613ZM29.5 9.16913L29.5 13.0011C29.5 13.8271 30.172 14.5011 31 14.5011L34.81 14.5011L29.5 9.16913Z" fill="var(--tiny-first-color, #191919)" fill-rule="evenodd"/>
</svg>
