<svg viewBox="0 0 48 48" xmlns="http://www.w3.org/2000/svg" xmlns:xlink="http://www.w3.org/1999/xlink" width="48.000000" height="48.000000">
  <path id="形状结合" d="M24 4C28.4341 4 32.6516 5.44838 36.1066 8.07848C36.7657 8.58028 36.8933 9.52142 36.3915 10.1806C35.8897 10.8397 34.9486 10.9673 34.2894 10.4655C31.3523 8.22962 27.7718 7 24 7C14.6117 7 7 14.6111 7 24C7 33.3876 14.6124 41 24 41C33.3889 41 41 33.3883 41 24C41 20.2292 39.7717 16.6507 37.5362 13.7122C37.0346 13.0529 37.1625 12.1118 37.8218 11.6102C38.4811 11.1086 39.4222 11.2365 39.9238 11.8958C42.5532 15.352 44 19.5672 44 24C44 35.0451 35.0458 44 24 44C12.9556 44 4 35.0444 4 24C4 12.9542 12.9549 4 24 4Z" fill="var(--tiny-first-color)" fill-rule="nonzero"/>
  <path id="合并" d="M35 18C35 15.7908 33.2092 14 31 14L17 14C14.7908 14 13 15.7908 13 18L13 30C13 32.2092 14.7908 34 17 34L31 34C33.2092 34 35 32.2092 35 30L35 18ZM17 17L31 17C31.1381 17 31.266 17.0244 31.3839 17.0732C31.5017 17.1221 31.6095 17.1953 31.7071 17.293C31.8047 17.3906 31.878 17.4983 31.9268 17.6162C31.9756 17.7339 32 17.8618 32 18L32 30C32 30.1382 31.9756 30.2661 31.9268 30.3838C31.878 30.5017 31.8047 30.6094 31.7071 30.707C31.6095 30.8047 31.5017 30.8779 31.3839 30.9268C31.266 30.9756 31.1381 31 31 31L17 31C16.8619 31 16.7339 30.9756 16.6161 30.9268C16.4983 30.8779 16.3905 30.8047 16.2929 30.707C16.1953 30.6094 16.122 30.5017 16.0732 30.3838C16.0244 30.2661 16 30.1382 16 30L16 18C16 17.8618 16.0244 17.7339 16.0732 17.6162C16.1221 17.4983 16.1953 17.3906 16.2929 17.293C16.3905 17.1953 16.4983 17.1221 16.6161 17.0732C16.7339 17.0244 16.8619 17 17 17ZM20 19.5L25 19.5C25.84 19.5 26.5 20.16 26.5 21C26.5 21.84 25.84 22.5 25 22.5L20 22.5C19.16 22.5 18.5 21.84 18.5 21C18.5 20.16 19.16 19.5 20 19.5ZM20 25.5L28 25.5C28.84 25.5 29.5 26.16 29.5 27C29.5 27.84 28.84 28.5 28 28.5L20 28.5C19.16 28.5 18.5 27.84 18.5 27C18.5 26.16 19.16 25.5 20 25.5Z" fill="var(--tiny-second-color)" fill-rule="evenodd"/>
</svg>