<svg viewBox="0 0 48 48" xmlns="http://www.w3.org/2000/svg" xmlns:xlink="http://www.w3.org/1999/xlink" width="48.000000" height="48.000000" fill="none">
  <path id="合并" d="M35.9903 11.9503C37.7157 9.47974 35.9635 6 32.8684 6L9.76437 6L9.46574 6.01102C6.42715 6.23703 4.87501 9.89001 6.94399 12.2426L16.2365 22.4512C16.3442 22.6249 16.4024 22.8255 16.4024 23.03L16.4024 38.4023L16.4129 38.6859C16.6153 41.3889 19.6895 42.9329 21.9981 41.3839L25.2909 39.164L25.5833 38.9498C26.7149 38.0531 27.3824 36.6871 27.3824 35.2323L27.3824 25.4954L27.3687 25.2919C27.2694 24.5597 26.6418 23.9954 25.8824 23.9954C25.0539 23.9954 24.3824 24.667 24.3824 25.4954L24.3824 35.2323L24.365 35.4774C24.2962 35.9611 24.0257 36.3982 23.6126 36.6773L20.2025 38.9577C19.8301 39.1003 19.4024 38.8298 19.4024 38.4023L19.4024 23.03L19.3883 22.6909C19.3133 21.7914 18.9418 20.9372 18.3284 20.2649L9.09051 10.1175C8.82506 9.64738 9.16724 9 9.76437 9L33.0171 9.0133C33.5888 9.1178 33.8734 9.81549 33.4845 10.2937L25.6972 19.9002C25.3241 20.529 25.4578 21.353 26.0423 21.828C26.6851 22.3505 27.6298 22.253 28.1524 21.6101L35.8124 12.1861L35.9903 11.9503ZM41.5607 38.5315C41.04 39.0522 40.2317 39.11 39.6471 38.705L39.4393 38.5315L35.9984 35.091L32.5607 38.5315C32.04 39.0522 31.2317 39.11 30.6471 38.705L30.4393 38.5315C29.9186 38.0108 29.8608 37.2025 30.2658 36.6179L30.4393 36.4101L34.9393 31.9101C35.46 31.3894 36.2683 31.3316 36.8529 31.7366L37.0607 31.9101L41.5607 36.4101C42.1464 36.9959 42.1464 37.9457 41.5607 38.5315Z" fill="var(--tiny-first-color)" fill-rule="evenodd"/>
  <path id="形状结合" d="M11.5607 0.439341C12.0932 0.971874 12.1416 1.8052 11.7059 2.39242L7.06066 7.06066L6.85292 7.23423C6.33327 7.59422 5.63689 7.5885 5.12286 7.21708L0.43934 2.56066L0.265773 2.35292C-0.0942159 1.83327 -0.0885015 1.13689 0.282915 0.622856L0.647083 0.265774C1.16673 -0.0942154 1.86311 -0.0885029 2.37714 0.282917L5.99836 3.8798L9.43934 0.439341L9.64708 0.265774C10.2317 -0.139214 11.04 -0.0813599 11.5607 0.439341Z" fill="var(--tiny-second-color)" fill-rule="evenodd" transform="matrix(1,0,0,-1,30,38.9707)"/>
</svg>