<svg viewBox="0 0 48 48" xmlns="http://www.w3.org/2000/svg" xmlns:xlink="http://www.w3.org/1999/xlink" width="48.000000" height="48.000000">
  <path id="合并" d="M36.2926 8.164C35.6586 6.828 34.3466 6 32.8686 6L9.76463 6C8.26863 6 6.95463 6.846 6.34063 8.21C5.72263 9.574 5.95463 11.118 6.96263 12.262L16.1126 22.286C16.2986 22.49 16.4006 22.756 16.4006 23.03L16.4006 38.4083C16.4006 39.7383 17.1306 40.9543 18.3046 41.5783C18.8366 41.8623 19.4146 42.0003 19.9926 42.0003C20.6946 42.0003 21.3926 41.7943 21.9986 41.3863L25.2926 39.1683C26.6006 38.2863 27.3806 36.8143 27.3806 35.2383L27.3806 22.786C27.3806 22.638 27.4346 22.492 27.5306 22.372L35.8106 12.186C36.7426 11.04 36.9286 9.498 36.2926 8.164ZM41.7059 36.5784C42.1416 37.1656 42.0932 37.9989 41.5607 38.5315C41.04 39.0522 40.2317 39.11 39.6471 38.705L39.4393 38.5315L35.9984 35.091L32.3771 38.6879C31.8631 39.0593 31.1667 39.065 30.6471 38.705L30.2829 38.3479C29.9115 37.8339 29.9058 37.1375 30.2658 36.6179L30.4393 36.4101L35.1229 31.7537C35.6369 31.3823 36.3333 31.3766 36.8529 31.7366L37.0607 31.9101L41.7059 36.5784Z" fill="var(--tiny-first-color)" fill-rule="evenodd"/>
  <path id="形状结合" d="M11.5607 0.439341C12.0932 0.971874 12.1416 1.8052 11.7059 2.39242L7.06066 7.06066L6.85292 7.23423C6.33327 7.59422 5.63689 7.5885 5.12286 7.21708L0.43934 2.56066L0.265773 2.35292C-0.0942159 1.83327 -0.0885015 1.13689 0.282915 0.622856L0.647083 0.265774C1.16673 -0.0942154 1.86311 -0.0885029 2.37714 0.282917L5.99836 3.8798L9.43934 0.439341L9.64708 0.265774C10.2317 -0.139214 11.04 -0.0813599 11.5607 0.439341Z" fill="var(--tiny-second-color)" fill-rule="evenodd" transform="matrix(1,0,0,-1,30,38.9707)"/>
</svg>