<svg viewBox="0 0 48 48" xmlns="http://www.w3.org/2000/svg" xmlns:xlink="http://www.w3.org/1999/xlink" width="48.000000" height="48.000000" fill="none">
  <path id="形状" d="M11 2.5C11.7594 2.5 12.387 3.06431 12.4863 3.79646L12.5 4L12.4979 5.94683C14.3279 4.97858 16.5471 4.5 19.1278 4.5C21.7083 4.5 23.7318 5.02522 26.2087 6.09776L26.8596 6.38638L28.2446 6.98714C28.8652 7.23648 29.3355 7.37478 29.7514 7.4261L29.9639 7.44488C31.541 7.52644 33.7072 7.01807 36.4232 5.88862C37.4111 5.4778 38.4991 6.20372 38.4991 7.27364L38.4991 22.2967C38.4991 22.6746 38.3565 23.0385 38.0999 23.3157C36.5247 25.0174 33.7526 25.6679 29.809 25.464C27.674 25.3536 26.2938 24.9683 24.4897 24.1182L23.0531 23.4169C21.6412 22.7546 20.7016 22.5231 19.1278 22.5231C16.4404 22.5231 14.2507 23.2328 12.498 24.6507L12.5 44C12.5 44.8284 11.8284 45.5 11 45.5C10.2406 45.5 9.61302 44.9357 9.51369 44.2035L9.5 44L9.5 4C9.5 3.17157 10.1716 2.5 11 2.5ZM12.7047 9.39609C14.2227 8.14092 16.3414 7.49995 19.1278 7.49995C21.0267 7.49995 22.5502 7.8461 24.3905 8.58849L25.2327 8.94695L26.6475 9.56857L27.1262 9.77082C27.9671 10.1087 28.6699 10.3154 29.384 10.4035C29.5262 10.421 29.6678 10.4335 29.809 10.4408L30.2658 10.4532C31.6582 10.4575 33.2493 10.1682 35.0497 9.59341L35.498 9.44195L35.498 21.612L35.3548 21.708C34.3425 22.3118 32.5502 22.6017 29.9639 22.4679C28.2745 22.3806 27.2446 22.0995 25.7771 21.4085L24.3711 20.7216C22.5603 19.8682 21.2198 19.5231 19.1278 19.5231L18.4867 19.5346L17.7888 19.5746C15.9483 19.7192 14.2724 20.1684 12.7725 20.9224L12.4991 21.066L12.4991 9.57595L12.7047 9.39609Z" fill="var(--tiny-first-color)" fill-rule="evenodd"/>
</svg>