<svg viewBox="0 0 48 48" xmlns="http://www.w3.org/2000/svg" xmlns:xlink="http://www.w3.org/1999/xlink" width="48.000000" height="48.000000" fill="none">
  <path id="形状结合" d="M14.342 8C15.404 8 16.422 8.422 17.172 9.172L23.414 15.414C23.788 15.79 24.298 16 24.828 16L37.498 16L37.4992 15C37.4992 13.7067 36.5145 12.6411 35.2546 12.5129L34.9992 12.5L23.9586 12.5C23.1302 12.5 22.4586 11.8284 22.4586 11C22.4586 10.2406 23.0229 9.61302 23.755 9.51369L23.9586 9.5L34.9992 9.5C37.9232 9.5 40.3159 11.7845 40.4892 14.6651L40.4992 15L40.4998 16.0313C42.4662 16.2792 44 17.9692 44 20L44 34C44 37.3 41.3 40 38 40L10 40C6.7 40 4 37.3 4 34L4 14C4 10.7 6.7 8 10 8L14.342 8ZM14.342 11L10 11C8.344 11 7 12.346 7 14L7 34C7 35.654 8.344 37 10 37L38 37C39.654 37 41 35.654 41 34L41 20C41 19.458 40.542 19 40 19L24.828 19C23.492 19 22.236 18.48 21.292 17.536L15.05 11.292C14.86 11.104 14.61 11 14.342 11Z" fill="var(--tiny-first-color, #191919)" fill-rule="evenodd"/>
</svg>
