<svg viewBox="0 0 48 48" xmlns="http://www.w3.org/2000/svg" xmlns:xlink="http://www.w3.org/1999/xlink" width="48.000000" height="48.000000">
  <path id="Fill-1" d="M35 12.502C36.378 12.502 37.5 13.624 37.5 15.002L37.5 16L24.83 16C24.564 16 24.304 15.948 24.064 15.85C23.824 15.75 23.602 15.604 23.416 15.416L20.5 12.502L35 12.502ZM40.5 16.05L40.5 15.002C40.5 11.968 38.034 9.502 35 9.502L17.5 9.502L16.586 8.586C16.4 8.398 16.178 8.252 15.938 8.152C15.698 8.052 15.438 8 15.172 8L8 8C6.776 8 5.69 8.57 4.954 9.444C4.368 10.14 4 11.026 4 12L4 34C4 37.3 6.702 40 10 40L38 40C39.838 40 41.468 39.146 42.57 37.836C43.45 36.794 44 35.464 44 34L44 20C44 17.972 42.464 16.3 40.5 16.05Z" fill="var(--tiny-first-color)" fill-rule="evenodd"/>
</svg>