<svg viewBox="0 0 48 48" xmlns="http://www.w3.org/2000/svg" xmlns:xlink="http://www.w3.org/1999/xlink" width="48.000000" height="48.000000">
  <path id="合并" d="M24 6.5L34.5 6.5C35.0519 6.5 35.5911 6.55797 36.1175 6.67391L36.1175 6.67391C36.5606 6.77152 36.9947 6.91022 37.4198 7.09C37.8464 7.27044 38.2497 7.48612 38.6298 7.73703C39.0493 8.014 39.4405 8.33389 39.8033 8.6967C40.1661 9.05948 40.486 9.45061 40.7629 9.87009C41.0138 10.2502 41.2295 10.6536 41.41 11.0802C41.5898 11.5053 41.7285 11.9394 41.8261 12.3826C41.942 12.909 42 13.4481 42 14L42 34C42 34.552 41.942 35.0912 41.826 35.6177C41.7284 36.0608 41.5898 36.4948 41.41 36.9198C41.2296 37.3463 41.014 37.7496 40.7631 38.1296L40.7631 38.1297C40.4861 38.5492 40.1662 38.9404 39.8033 39.3033C39.4405 39.6661 39.0494 39.986 38.6299 40.2629L38.6298 40.263C38.2497 40.5139 37.8464 40.7296 37.4198 40.91C36.9947 41.0898 36.5606 41.2285 36.1175 41.3261L36.1174 41.3261C35.591 41.442 35.0519 41.5 34.5 41.5L13.5 41.5C12.9481 41.5 12.409 41.442 11.8826 41.3261C11.4394 41.2285 11.0053 41.0898 10.5802 40.91C10.1537 40.7296 9.75037 40.5139 9.37034 40.2631C8.95078 39.9861 8.55956 39.6662 8.1967 39.3033C7.83384 38.9404 7.51392 38.5492 7.23695 38.1297C6.98607 37.7496 6.77042 37.3463 6.59 36.9198C6.41023 36.4948 6.27153 36.0607 6.17392 35.6175L6.1739 35.6174C6.05797 35.0911 6 34.5519 6 34L6 30C6 29.16 6.66 28.5 7.5 28.5C8.34 28.5 9 29.16 9 30L9 34C9 34.3492 9.03843 34.6895 9.1153 35.0209L9.11532 35.0209C9.17295 35.2693 9.25218 35.5127 9.35302 35.7511C9.45747 35.9981 9.58173 36.2322 9.72578 36.4533C9.89566 36.7141 10.0931 36.957 10.318 37.182C10.543 37.4069 10.7859 37.6044 11.0467 37.7742L11.0467 37.7743C11.2679 37.9183 11.5019 38.0425 11.7489 38.147C11.9872 38.2478 12.2306 38.327 12.479 38.3847C12.8104 38.4616 13.1508 38.5 13.5 38.5L34.5 38.5C34.8492 38.5 35.1895 38.4616 35.5209 38.3847C35.7693 38.3271 36.0127 38.2478 36.2511 38.147C36.4981 38.0425 36.7322 37.9183 36.9534 37.7742L36.9535 37.7741C37.2142 37.6043 37.4571 37.4069 37.682 37.182C37.9069 36.9571 38.1043 36.7142 38.2742 36.4534L38.2742 36.4533L38.2743 36.4531C38.4184 36.232 38.5426 35.998 38.647 35.7511C38.7478 35.5129 38.827 35.2696 38.8846 35.0212L38.8846 35.0211C38.9615 34.6896 39 34.3493 39 34L39 19.5L29 19.5C28.16 19.5 27.5 18.84 27.5 18C27.5 17.16 28.16 16.5 29 16.5L39 16.5L39 14C39 13.6508 38.9616 13.3106 38.8847 12.9792C38.8271 12.7308 38.7478 12.4873 38.647 12.2489C38.5425 12.0018 38.4182 11.7677 38.2741 11.5465C38.1043 11.2857 37.9069 11.0429 37.682 10.818C37.4571 10.5931 37.2142 10.3957 36.9534 10.2259C36.7322 10.0818 36.4981 9.95749 36.2511 9.85302C36.0128 9.75219 35.7694 9.67297 35.521 9.61534L35.5209 9.61532C35.1895 9.53844 34.8492 9.5 34.5 9.5L24 9.5C23.16 9.5 22.5 8.84 22.5 8C22.5 7.16 23.16 6.5 24 6.5ZM15.5 6.5C18.8176 6.5 21.595 8.84608 21.7892 11.8938L21.7999 12.2353L21.8016 12.5828C23.6179 12.9512 25 14.5073 25 16.4L25 22.8C25 24.9716 23.1807 26.7 20.9736 26.7L10.0262 26.7C7.81934 26.7 6 24.9716 6 22.8L6 16.4C6 14.5066 7.38306 12.9501 9.2002 12.5824L9.19995 12.2353C9.19995 9.02308 12.0594 6.5 15.5 6.5ZM15.5 9.5C17.3615 9.5 18.7999 10.7693 18.7999 12.2353L18.7999 12.5L12.2 12.5L12.2 12.2353L12.2131 11.993C12.3611 10.6322 13.7419 9.5 15.5 9.5ZM20.9736 15.5C21.5573 15.5 22 15.9206 22 16.4L22 22.8C22 23.2793 21.5573 23.7 20.9736 23.7L10.0262 23.7C9.44275 23.7 9 23.2793 9 22.8L9 16.4C9 15.9206 9.44275 15.5 10.0262 15.5L20.9736 15.5ZM17.1 18.1C17.9283 18.1 18.6 18.7716 18.6 19.6C18.6 20.3594 18.0356 20.987 17.3035 21.0863L17.1 21.1L13.9 21.1C13.0715 21.1 12.4 20.4284 12.4 19.6C12.4 18.8406 12.9642 18.213 13.6964 18.1137L13.9 18.1L17.1 18.1ZM34.0298 23.9141C34.0298 23.3621 33.5818 22.9141 33.0298 22.9141L31.0298 22.9141C30.4778 22.9141 30.0298 23.3621 30.0298 23.9141L30.0298 25.9141C30.0298 26.4641 30.4778 26.9141 31.0298 26.9141L33.0298 26.9141C33.5818 26.9141 34.0298 26.4641 34.0298 25.9141L34.0298 23.9141ZM17.9872 31.91C17.9872 31.358 17.5392 30.91 16.9872 30.91L14.9872 30.91C14.4352 30.91 13.9872 31.358 13.9872 31.91L13.9872 33.91C13.9872 34.46 14.4352 34.91 14.9872 34.91L16.9872 34.91C17.5392 34.91 17.9872 34.46 17.9872 33.91L17.9872 31.91ZM33.9872 31.9506C33.9872 31.3986 33.5392 30.9506 32.9872 30.9506L30.9872 30.9506C30.4352 30.9506 29.9872 31.3986 29.9872 31.9506L29.9872 33.9506C29.9872 34.5006 30.4352 34.9506 30.9872 34.9506L32.9872 34.9506C33.5392 34.9506 33.9872 34.5006 33.9872 33.9506L33.9872 31.9506ZM24.9872 30.9547C25.5392 30.9547 25.9872 31.4027 25.9872 31.9547L25.9872 33.9547C25.9872 34.5047 25.5392 34.9547 24.9872 34.9547L22.9872 34.9547C22.4352 34.9547 21.9872 34.5047 21.9872 33.9547L21.9872 31.9547C21.9872 31.4027 22.4352 30.9547 22.9872 30.9547L24.9872 30.9547Z" fill="var(--tiny-first-color)" fill-rule="evenodd"/>
  <path id="矢量 49" d="M15.5 6.5C18.8176 6.5 21.595 8.84608 21.7892 11.8938L21.7999 12.2353L21.8016 12.5828C23.6179 12.9512 25 14.5073 25 16.4L25 22.8C25 24.9716 23.1807 26.7 20.9736 26.7L10.0262 26.7C7.81934 26.7 6 24.9716 6 22.8L6 16.4C6 14.5066 7.38306 12.9501 9.2002 12.5824L9.19995 12.2353C9.19995 9.02308 12.0594 6.5 15.5 6.5ZM20.9736 15.5C21.5573 15.5 22 15.9206 22 16.4L22 22.8C22 23.2793 21.5573 23.7 20.9736 23.7L10.0262 23.7C9.44275 23.7 9 23.2793 9 22.8L9 16.4C9 15.9206 9.44275 15.5 10.0262 15.5L20.9736 15.5ZM17.1 18.1C17.9283 18.1 18.6 18.7716 18.6 19.6C18.6 20.3594 18.0356 20.987 17.3035 21.0863L17.1 21.1L13.9 21.1C13.0715 21.1 12.4 20.4284 12.4 19.6C12.4 18.8406 12.9642 18.213 13.6964 18.1137L13.9 18.1L17.1 18.1ZM15.5 9.5C17.3615 9.5 18.7999 10.7693 18.7999 12.2353L18.7999 12.5L12.2 12.5L12.2 12.2353L12.2131 11.993C12.3611 10.6322 13.7419 9.5 15.5 9.5Z" fill="var(--tiny-second-color)" fill-rule="evenodd"/>
</svg>