<svg viewBox="0 0 48 48" xmlns="http://www.w3.org/2000/svg" xmlns:xlink="http://www.w3.org/1999/xlink" width="48.000000" height="48.000000">
  <path id="减去顶层" d="M6 27.1091L6 36.792C6 40.1 8.692 42.792 12 42.792L36 42.792C39.308 42.792 42 40.1 42 36.792L42 19.208L27 19.208L27 23.3663C27 25.9465 24.7976 28 22.126 28L8.87388 28C7.80342 28 6.8083 27.6703 6 27.1091ZM27 16.208L42 16.208L42 14.624C42 12.916 41.08 11.218 39.928 10.124L39.6021 9.85798C38.5978 9.0922 37.3572 8.62402 36 8.62402L22.727 8.62402C22.9398 9.18757 23.0728 9.78572 23.1132 10.4085L23.1262 10.8142L23.1283 11.2271C25.327 11.6648 27 13.5136 27 15.7624L27 16.208ZM34.0298 24.0042C34.0298 23.4522 33.5818 23.0042 33.0298 23.0042L31.0298 23.0042C30.4778 23.0042 30.0298 23.4522 30.0298 24.0042L30.0298 26.0042C30.0298 26.5542 30.4778 27.0042 31.0298 27.0042L33.0298 27.0042C33.5818 27.0042 34.0298 26.5542 34.0298 26.0042L34.0298 24.0042ZM16.9872 31.0001C17.5392 31.0001 17.9872 31.4481 17.9872 32.0001L17.9872 34.0001C17.9872 34.5501 17.5392 35.0001 16.9872 35.0001L14.9872 35.0001C14.4352 35.0001 13.9872 34.5501 13.9872 34.0001L13.9872 32.0001C13.9872 31.4481 14.4352 31.0001 14.9872 31.0001L16.9872 31.0001ZM32.9872 31.0407C33.5392 31.0407 33.9872 31.4887 33.9872 32.0407L33.9872 34.0407C33.9872 34.5907 33.5392 35.0407 32.9872 35.0407L30.9872 35.0407C30.4352 35.0407 29.9872 34.5907 29.9872 34.0407L29.9872 32.0407C29.9872 31.4887 30.4352 31.0407 30.9872 31.0407L32.9872 31.0407ZM25.9872 32.0448C25.9872 31.4928 25.5392 31.0448 24.9872 31.0448L22.9872 31.0448C22.4352 31.0448 21.9872 31.4928 21.9872 32.0448L21.9872 34.0448C21.9872 34.5948 22.4352 35.0448 22.9872 35.0448L24.9872 35.0448C25.5392 35.0448 25.9872 34.5948 25.9872 34.0448L25.9872 32.0448Z" fill="var(--tiny-first-color)" fill-rule="evenodd"/>
  <path id="减去顶层" d="M27.0001 16.208L42 16.208L42 14.624C42 12.916 41.08 11.218 39.928 10.124L39.6021 9.85798C38.5978 9.0922 37.3572 8.62402 36 8.62402L22.7271 8.62402C22.9399 9.18757 23.0728 9.78572 23.1133 10.4085L23.1263 10.8142L23.1284 11.2271C25.327 11.6648 27.0001 13.5136 27.0001 15.7624L27.0001 16.208Z" fill="var(--tiny-first-color)" fill-rule="evenodd"/>
  <path id="矢量 49" d="M15.5 6C18.8176 6 21.595 8.34608 21.7892 11.3938L21.7999 11.7353L21.8016 12.0828C23.6179 12.4512 25 14.0073 25 15.9L25 22.3C25 24.4716 23.1807 26.2 20.9736 26.2L10.0262 26.2C7.81934 26.2 6 24.4716 6 22.3L6 15.9C6 14.0066 7.38306 12.4501 9.2002 12.0824L9.19995 11.7353C9.19995 8.52308 12.0594 6 15.5 6ZM20.9736 15C21.5573 15 22 15.4206 22 15.9L22 22.3C22 22.7793 21.5573 23.2 20.9736 23.2L10.0262 23.2C9.44275 23.2 9 22.7793 9 22.3L9 15.9C9 15.4206 9.44275 15 10.0262 15L20.9736 15ZM17.1 17.6C17.9283 17.6 18.6 18.2716 18.6 19.1C18.6 19.8594 18.0356 20.487 17.3035 20.5863L17.1 20.6L13.9 20.6C13.0715 20.6 12.4 19.9284 12.4 19.1C12.4 18.3406 12.9642 17.713 13.6964 17.6137L13.9 17.6L17.1 17.6ZM15.5 9C17.3615 9 18.7999 10.2693 18.7999 11.7353L18.7999 12L12.2 12L12.2 11.7353L12.2131 11.493C12.3611 10.1322 13.7419 9 15.5 9Z" fill="var(--tiny-second-color)" fill-rule="evenodd"/>
</svg>