<svg viewBox="0 0 48 48" xmlns="http://www.w3.org/2000/svg" xmlns:xlink="http://www.w3.org/1999/xlink" width="48.000000" height="48.000000" fill="none">
  <path id="合并" d="M24 6.5L13.5 6.5C12.9481 6.5 12.4089 6.55797 11.8825 6.67391L11.8825 6.67392C11.4393 6.77153 11.0052 6.91022 10.5802 7.09C10.1536 7.27044 9.75025 7.48612 9.37018 7.73704L9.37017 7.73705C8.95067 8.014 8.55951 8.33388 8.1967 8.6967C7.83391 9.05949 7.51404 9.45062 7.2371 9.87009C6.98616 10.2502 6.77046 10.6536 6.59 11.0802C6.41021 11.5053 6.2715 11.9394 6.17389 12.3826C6.05796 12.909 6 13.4481 6 14L6 34C6 34.552 6.05798 35.0912 6.17395 35.6177C6.27156 36.0608 6.41024 36.4948 6.59 36.9198C6.77042 37.3464 6.98606 37.7496 7.23694 38.1297L7.23698 38.1297C7.51394 38.5493 7.83385 38.9405 8.1967 39.3033C8.55949 39.6661 8.95063 39.986 9.37011 40.2629C9.75021 40.5139 10.1536 40.7295 10.5802 40.91C11.0053 41.0898 11.4394 41.2285 11.8826 41.3261C12.409 41.442 12.9481 41.5 13.5 41.5L34.5 41.5C35.0519 41.5 35.591 41.442 36.1174 41.3261C36.5606 41.2285 36.9947 41.0898 37.4198 40.91C37.8464 40.7296 38.2496 40.5139 38.6297 40.2631C39.0492 39.9861 39.4404 39.6662 39.8033 39.3033C40.1662 38.9404 40.4861 38.5492 40.763 38.1297L40.7631 38.1296C41.014 37.7496 41.2296 37.3463 41.41 36.9198C41.5898 36.4948 41.7285 36.0607 41.8261 35.6175L41.8261 35.6174C41.942 35.0911 42 34.5519 42 34L42 30C42 29.16 41.34 28.5 40.5 28.5C39.66 28.5 39 29.16 39 30L39 34C39 34.3492 38.9616 34.6895 38.8847 35.0209L38.8847 35.021C38.827 35.2694 38.7478 35.5128 38.647 35.7511C38.5425 35.9981 38.4183 36.2321 38.2743 36.4533L38.2742 36.4533C38.1043 36.7141 37.9069 36.957 37.682 37.182C37.457 37.4069 37.2141 37.6044 36.9533 37.7742C36.7321 37.9183 36.4981 38.0425 36.2511 38.147C36.0128 38.2478 35.7694 38.327 35.521 38.3847L35.5209 38.3847C35.1895 38.4616 34.8492 38.5 34.5 38.5L13.5 38.5C13.1508 38.5 12.8105 38.4616 12.4791 38.3847C12.2307 38.3271 11.9873 38.2478 11.7489 38.147C11.5019 38.0425 11.2678 37.9183 11.0466 37.7742L11.0465 37.7741C10.7858 37.6043 10.5429 37.4069 10.318 37.182C10.0931 36.957 9.89563 36.7141 9.72575 36.4533L9.72571 36.4532C9.58169 36.2321 9.45745 35.9981 9.35301 35.7511C9.2522 35.5128 9.17298 35.2694 9.11535 35.0211L9.11534 35.021C9.03845 34.6896 9 34.3493 9 34L9 19.5L20 19.5C20.84 19.5 21.5 18.84 21.5 18C21.5 17.16 20.84 16.5 20 16.5L9 16.5L9 14C9 13.6508 9.03843 13.3106 9.11529 12.9792L9.11529 12.9792C9.17293 12.7307 9.25217 12.4873 9.35302 12.2489C9.4575 12.0018 9.58178 11.7677 9.72588 11.5465C9.89573 11.2858 10.0931 11.0429 10.318 10.818C10.5429 10.5931 10.7858 10.3957 11.0466 10.2259C11.2678 10.0818 11.5019 9.95749 11.7489 9.85302C11.9873 9.75218 12.2307 9.67295 12.4791 9.61532C12.8105 9.53844 13.1508 9.5 13.5 9.5L24 9.5C24.84 9.5 25.5 8.84 25.5 8C25.5 7.16 24.84 6.5 24 6.5ZM32.5 6.5C35.8176 6.5 38.595 8.84608 38.7892 11.8938L38.7999 12.2353L38.8016 12.5828C40.6179 12.9512 42 14.5073 42 16.4L42 22.8C42 24.9716 40.1807 26.7 37.9736 26.7L27.0262 26.7C24.8193 26.7 23 24.9716 23 22.8L23 16.4C23 14.5066 24.3831 12.9501 26.2002 12.5824L26.2 12.2353C26.2 9.02308 29.0594 6.5 32.5 6.5ZM32.5 9.5C34.3615 9.5 35.7999 10.7693 35.7999 12.2353L35.7999 12.5L29.2 12.5L29.2 12.2353L29.2131 11.993C29.3611 10.6322 30.7419 9.5 32.5 9.5ZM37.9736 15.5C38.5573 15.5 39 15.9206 39 16.4L39 22.8C39 23.2793 38.5573 23.7 37.9736 23.7L27.0262 23.7C26.4427 23.7 26 23.2793 26 22.8L26 16.4C26 15.9206 26.4427 15.5 27.0262 15.5L37.9736 15.5ZM34.1 18.1C34.9283 18.1 35.6 18.7716 35.6 19.6C35.6 20.3594 35.0356 20.987 34.3035 21.0863L34.1 21.1L30.9 21.1C30.0715 21.1 29.4 20.4284 29.4 19.6C29.4 18.8406 29.9642 18.213 30.6964 18.1137L30.9 18.1L34.1 18.1ZM13.9872 23.9141C13.9872 23.3621 14.4352 22.9141 14.9872 22.9141L16.9872 22.9141C17.5392 22.9141 17.9872 23.3621 17.9872 23.9141L17.9872 25.9141C17.9872 26.4641 17.5392 26.9141 16.9872 26.9141L14.9872 26.9141C14.4352 26.9141 13.9872 26.4641 13.9872 25.9141L13.9872 23.9141ZM30.0298 31.91C30.0298 31.358 30.4778 30.91 31.0298 30.91L33.0298 30.91C33.5818 30.91 34.0298 31.358 34.0298 31.91L34.0298 33.91C34.0298 34.46 33.5818 34.91 33.0298 34.91L31.0298 34.91C30.4778 34.91 30.0298 34.46 30.0298 33.91L30.0298 31.91ZM14.0298 31.9506C14.0298 31.3986 14.4778 30.9506 15.0298 30.9506L17.0298 30.9506C17.5818 30.9506 18.0298 31.3986 18.0298 31.9506L18.0298 33.9506C18.0298 34.5006 17.5818 34.9506 17.0298 34.9506L15.0298 34.9506C14.4778 34.9506 14.0298 34.5006 14.0298 33.9506L14.0298 31.9506ZM23.0298 30.9547C22.4778 30.9547 22.0298 31.4027 22.0298 31.9547L22.0298 33.9547C22.0298 34.5047 22.4778 34.9547 23.0298 34.9547L25.0298 34.9547C25.5818 34.9547 26.0298 34.5047 26.0298 33.9547L26.0298 31.9547C26.0298 31.4027 25.5818 30.9547 25.0298 30.9547L23.0298 30.9547Z" fill="var(--tiny-first-color, #191919)" fill-rule="evenodd"/>
  <path id="矢量 49" d="M32.5 6.5C35.8176 6.5 38.595 8.84608 38.7892 11.8938L38.7999 12.2353L38.8016 12.5828C40.6179 12.9512 42 14.5073 42 16.4L42 22.8C42 24.9716 40.1807 26.7 37.9736 26.7L27.0262 26.7C24.8193 26.7 23 24.9716 23 22.8L23 16.4C23 14.5066 24.3831 12.9501 26.2002 12.5824L26.2 12.2353C26.2 9.02308 29.0594 6.5 32.5 6.5ZM37.9736 15.5C38.5573 15.5 39 15.9206 39 16.4L39 22.8C39 23.2793 38.5573 23.7 37.9736 23.7L27.0262 23.7C26.4427 23.7 26 23.2793 26 22.8L26 16.4C26 15.9206 26.4427 15.5 27.0262 15.5L37.9736 15.5ZM34.1 18.1C34.9283 18.1 35.6 18.7716 35.6 19.6C35.6 20.3594 35.0356 20.987 34.3035 21.0863L34.1 21.1L30.9 21.1C30.0715 21.1 29.4 20.4284 29.4 19.6C29.4 18.8406 29.9642 18.213 30.6964 18.1137L30.9 18.1L34.1 18.1ZM32.5 9.5C34.3615 9.5 35.7999 10.7693 35.7999 12.2353L35.7999 12.5L29.2 12.5L29.2 12.2353L29.2131 11.993C29.3611 10.6322 30.7419 9.5 32.5 9.5Z" fill="var(--tiny-second-color, #aeaeAE)" fill-rule="evenodd"/>
</svg>
