<svg viewBox="0 0 48 48" xmlns="http://www.w3.org/2000/svg" xmlns:xlink="http://www.w3.org/1999/xlink" width="48.000000" height="48.000000">
  <path id="矢量 127" d="M44 24C44 12.9543 35.0457 4 24 4C12.9543 4 4 12.9543 4 24C4 35.0457 12.9543 44 24 44C35.0457 44 44 35.0457 44 24ZM16.093 15.1628C14.5518 15.1628 13.3023 16.4122 13.3023 17.9535C13.3023 19.4948 14.5518 20.7442 16.093 20.7442C17.6343 20.7442 18.8837 19.4948 18.8837 17.9535C18.8837 16.4122 17.6343 15.1628 16.093 15.1628ZM29.1163 17.9535C29.1163 16.4122 30.3657 15.1628 31.907 15.1628C33.4482 15.1628 34.6977 16.4122 34.6977 17.9535C34.6977 19.4948 33.4482 20.7442 31.907 20.7442C30.3657 20.7442 29.1163 19.4948 29.1163 17.9535ZM14.3413 31.832C15.965 27.9645 19.7465 25.3954 24.001 25.3954C28.2533 25.3954 32.0332 27.9618 33.6583 31.8263C33.9571 32.5367 33.6233 33.3547 32.9129 33.6535C32.2026 33.9522 31.3845 33.6185 31.0859 32.9081C29.892 30.069 27.1188 28.1861 24.001 28.1861C20.8817 28.1861 18.1074 30.0709 16.9145 32.9122C16.6162 33.6228 15.7984 33.957 15.0877 33.6587C14.3772 33.3604 14.043 32.5425 14.3413 31.832Z" fill="var(--tiny-first-color)" fill-rule="evenodd"/>
  <path id="矢量 128" d="M16.093 15.1626C14.5517 15.1626 13.3023 16.412 13.3023 17.9533C13.3023 19.4946 14.5517 20.744 16.093 20.744C17.6343 20.744 18.8837 19.4946 18.8837 17.9533C18.8837 16.412 17.6343 15.1626 16.093 15.1626ZM29.1163 17.9533C29.1163 16.412 30.3657 15.1626 31.907 15.1626C33.4482 15.1626 34.6977 16.412 34.6977 17.9533C34.6977 19.4946 33.4482 20.744 31.907 20.744C30.3657 20.744 29.1163 19.4946 29.1163 17.9533ZM14.3413 31.8318C15.965 27.9643 19.7465 25.3952 24.001 25.3952C28.2533 25.3952 32.0332 27.9616 33.6583 31.8261C33.9571 32.5365 33.6233 33.3545 32.9129 33.6533C32.2025 33.952 31.3845 33.6182 31.0858 32.9079C29.8919 30.0688 27.1187 28.1859 24.001 28.1859C20.8817 28.1859 18.1073 30.0707 16.9145 32.912C16.6161 33.6226 15.7983 33.9568 15.0877 33.6585C14.3772 33.3602 14.043 32.5423 14.3413 31.8318Z" fill="var(--tiny-second-color)" fill-rule="evenodd"/>
</svg>