<svg viewBox="0 0 48 48" xmlns="http://www.w3.org/2000/svg" xmlns:xlink="http://www.w3.org/1999/xlink" width="48.000000" height="48.000000" fill="none">
  <path id="形状结合" d="M29.0001 42.5001C27.8941 42.5001 27.0001 41.6061 27.0001 40.5001C27.0001 39.3941 27.8941 38.5001 29.0001 38.5001L35.672 38.5L27.5861 30.4141C26.8041 29.6321 26.8041 28.3681 27.5861 27.5861C28.3681 26.8041 29.6321 26.8041 30.4141 27.5861L38.5 35.672L38.5001 29.0001C38.5001 27.8941 39.3941 27.0001 40.5001 27.0001C41.6061 27.0001 42.5001 27.8941 42.5001 29.0001L42.5001 40.5001C42.5001 40.6015 42.4926 40.7011 42.4781 40.7984C42.469 40.8431 42.4406 40.9895 42.4288 41.0323C42.4152 41.0744 42.3723 41.2075 42.356 41.2482C42.3338 41.2971 42.27 41.4352 42.2434 41.4823C42.2119 41.5351 42.1441 41.6423 42.1079 41.6911C42.0062 41.8222 41.854 41.9825 41.7226 42.0841C41.667 42.1258 41.5666 42.1946 41.5062 42.2297C41.449 42.2621 41.3504 42.3126 41.2902 42.3385C41.2399 42.3587 41.1213 42.4029 41.0685 42.4185C40.9856 42.4397 40.8202 42.4767 40.7336 42.4867L40.5001 42.5001L29.0001 42.5001ZM19.0001 5.50014C20.1061 5.50014 21.0001 6.39414 21.0001 7.50014C21.0001 8.60614 20.1061 9.50014 19.0001 9.50014L12.328 9.5L20.4161 17.5861C21.1981 18.3681 21.1981 19.6321 20.4161 20.4141C20.0261 20.8041 19.5141 21.0001 19.0021 21.0001C18.4901 21.0001 17.9781 20.8041 17.5881 20.4141L9.5 12.328L9.50014 19.0001C9.50014 20.1061 8.60614 21.0001 7.50014 21.0001C6.39414 21.0001 5.50014 20.1061 5.50014 19.0001L5.50014 7.50014C5.50014 7.39877 5.50765 7.29918 5.52215 7.20189C5.53133 7.15715 5.55972 7.0108 5.57148 6.96796C5.58509 6.92587 5.62793 6.79276 5.64432 6.75205C5.66645 6.70321 5.73028 6.56509 5.75684 6.51799C5.78833 6.46519 5.8562 6.35797 5.89235 6.30921C5.991 6.18203 6.13921 6.02473 6.26603 5.92527C6.28581 5.91385 6.49941 5.76788 6.51872 5.75698C6.54781 5.7439 6.72178 5.65682 6.75192 5.64466C6.78259 5.63477 6.93756 5.57993 6.96848 5.57142C7.00381 5.56412 7.16814 5.52699 7.20293 5.52177C7.24989 5.51722 7.41545 5.50088 7.46213 5.5L19.0001 5.50014Z" fill="var(--tiny-first-color, #191919)" fill-rule="evenodd"/>
  <path id="形状结合" d="M28.999 42.5C27.893 42.5 26.999 41.606 26.999 40.5C26.999 39.394 27.893 38.5 28.999 38.5L35.6709 38.4999L27.585 30.414C26.803 29.632 26.803 28.368 27.585 27.586C28.367 26.804 29.631 26.804 30.413 27.586L38.4989 35.6719L38.499 29C38.499 27.894 39.393 27 40.499 27C41.605 27 42.499 27.894 42.499 29L42.499 40.5C42.499 40.6014 42.4915 40.701 42.477 40.7983C42.4678 40.843 42.4394 40.9894 42.4277 41.0322C42.4141 41.0743 42.3712 41.2074 42.3549 41.2481C42.3327 41.2969 42.2689 41.4351 42.2423 41.4822C42.2108 41.535 42.143 41.6422 42.1068 41.6909C42.0051 41.8221 41.8529 41.9824 41.7215 42.084C41.6659 42.1257 41.5655 42.1944 41.5051 42.2296C41.4479 42.262 41.3493 42.3125 41.2891 42.3384C41.2388 42.3585 41.1202 42.4028 41.0674 42.4184C40.9845 42.4396 40.8191 42.4766 40.7325 42.4866L40.499 42.5L28.999 42.5Z" fill="var(--tiny-second-color, #aeaeAE)" fill-rule="evenodd"/>
</svg>
