<svg viewBox="0 0 48 48" xmlns="http://www.w3.org/2000/svg" xmlns:xlink="http://www.w3.org/1999/xlink" width="48.000000" height="48.000000" fill="none">
  <path id="形状结合" d="M24 4C28.4341 4 32.6516 5.44838 36.1066 8.07848C36.7657 8.58028 36.8933 9.52142 36.3915 10.1806C35.8897 10.8397 34.9486 10.9673 34.2894 10.4655C31.3523 8.22962 27.7718 7 24 7C14.6117 7 7 14.6111 7 24C7 33.3876 14.6124 41 24 41C33.3889 41 41 33.3883 41 24C41 20.2292 39.7717 16.6507 37.5362 13.7122C37.0346 13.0529 37.1625 12.1118 37.8218 11.6102C38.4811 11.1086 39.4222 11.2365 39.9238 11.8958C42.5532 15.352 44 19.5672 44 24C44 35.0451 35.0458 44 24 44C12.9556 44 4 35.0444 4 24C4 12.9542 12.9549 4 24 4Z" fill="var(--tiny-first-color)" fill-rule="nonzero"/>
  <path id="矢量 1729" d="M33.2938 25.7596C33.2457 25.9888 33.1893 26.2163 33.1244 26.442C32.9063 26.3195 32.6526 26.25 32.3801 26.25C31.5402 26.25 30.8801 26.91 30.8801 27.75L30.8801 30.9673C30.8801 31.3815 31.0266 31.7351 31.3195 32.028C31.6124 32.3209 31.966 32.4673 32.3801 32.4673C32.6022 32.4673 32.8137 32.4204 33.0148 32.3264C33.216 32.2325 33.3878 32.1004 33.5303 31.9302C34.0352 31.3271 34.4779 30.6888 34.8583 30.0153C35.1893 29.4292 35.4733 28.8164 35.71 28.1771C35.9393 27.5579 36.1187 26.9286 36.2481 26.2893C36.416 25.4598 36.5 24.6134 36.5 23.75C36.5 22.8038 36.3999 21.8799 36.1997 20.9782C36.0341 20.2325 35.7999 19.502 35.4975 18.7867C35.1924 18.0654 34.828 17.3832 34.4043 16.7401C33.9319 16.023 33.3856 15.3544 32.7656 14.7344C32.1456 14.1144 31.4771 13.5681 30.7599 13.0957C30.1167 12.672 29.4346 12.3076 28.7134 12.0026C27.9981 11.7 27.2675 11.466 26.5219 11.3004C25.6202 11.1001 24.6961 11 23.75 11C22.9142 11 22.0937 11.0789 21.2887 11.2366C20.6862 11.3547 20.0923 11.517 19.5071 11.7234C18.7148 12.0029 18.312 12.8449 18.5916 13.6371C18.871 14.4292 19.713 14.832 20.5051 14.5526C20.929 14.403 21.3591 14.2838 21.7954 14.1949C22.4337 14.065 23.0853 14 23.75 14C24.4935 14 25.2186 14.0806 25.9252 14.2417C26.4762 14.3674 27.016 14.542 27.5447 14.7656C28.0863 14.9947 28.5993 15.2676 29.0835 15.5845C29.642 15.9499 30.1622 16.3736 30.6443 16.8557C31.1264 17.3378 31.5501 17.858 31.9155 18.4165C32.2323 18.9007 32.5054 19.4137 32.7344 19.9553C32.958 20.484 33.1327 21.0239 33.2583 21.5749C33.4194 22.2816 33.5 23.0066 33.5 23.75C33.5 24.4343 33.4313 25.1041 33.2938 25.7596ZM14.3745 21.0624C14.3099 21.2875 14.2537 21.5144 14.2058 21.743C14.0686 22.3979 14 23.0673 14 23.7509C14 24.4943 14.0806 25.2194 14.2417 25.9261C14.3673 26.4771 14.542 27.0169 14.7656 27.5456C14.9946 28.0872 15.2677 28.6001 15.5845 29.0844C15.9499 29.6428 16.3736 30.1631 16.8557 30.6452C17.3378 31.1273 17.858 31.551 18.4165 31.9164C18.9008 32.2333 19.4137 32.5062 19.9553 32.7353C20.484 32.9589 21.0238 33.1335 21.5748 33.2592C22.2815 33.4203 23.0066 33.5009 23.75 33.5009C24.4143 33.5009 25.0654 33.436 25.7033 33.3062C26.1388 33.2176 26.5681 33.0987 26.9913 32.9496C27.7836 32.6704 28.6255 33.0735 28.9047 33.8658C29.1838 34.658 28.7807 35.4999 27.9884 35.779C27.4041 35.985 26.811 36.1468 26.2094 36.2646C25.405 36.4221 24.5852 36.5009 23.75 36.5009C22.8039 36.5009 21.88 36.4008 20.9784 36.2005C20.2327 36.035 19.502 35.8009 18.7866 35.4983C18.0654 35.1933 17.3833 34.8289 16.7402 34.4053C16.0231 33.9328 15.3544 33.3865 14.7344 32.7665C14.1144 32.1465 13.5682 31.478 13.0957 30.7608C12.672 30.1177 12.3076 29.4355 12.0026 28.7142C11.7 27.9989 11.4659 27.2684 11.3003 26.5227C11.1001 25.621 11 24.697 11 23.7509C11 22.8884 11.0838 22.0428 11.2513 21.2142C11.3805 20.5761 11.5592 19.948 11.7877 19.33C12.0237 18.6915 12.3068 18.0796 12.6368 17.4941C13.0162 16.8212 13.4578 16.1834 13.9614 15.5806C14.0327 15.4953 14.1113 15.4196 14.1973 15.3534C14.2832 15.2872 14.3765 15.2306 14.4772 15.1835C14.5778 15.1364 14.6811 15.1011 14.787 15.0776C14.8929 15.0541 15.0015 15.0423 15.1126 15.0423C15.3197 15.0423 15.5116 15.0789 15.6884 15.1521C15.8652 15.2254 16.0268 15.3352 16.1732 15.4816C16.3197 15.6281 16.4295 15.7897 16.5027 15.9665C16.5759 16.1433 16.6126 16.3352 16.6126 16.5423L16.6126 19.7509C16.6126 20.5909 15.9525 21.2509 15.1126 21.2509C14.8427 21.2509 14.5913 21.1827 14.3745 21.0624Z" fill="var(--tiny-second-color)" fill-rule="evenodd"/>
</svg>