<svg viewBox="0 0 48 48" xmlns="http://www.w3.org/2000/svg" xmlns:xlink="http://www.w3.org/1999/xlink" width="48.000000" height="48.000000">
  <path id="减去顶层" d="M44 24C44 12.972 35.026 4 24 4C12.972 4 4 12.972 4 24C4 35.026 12.972 44 24 44C35.026 44 44 35.026 44 24ZM33.1244 26.4421C33.1893 26.2164 33.2457 25.9889 33.2938 25.7596L33.294 25.7586C33.4314 25.1035 33.5 24.434 33.5 23.7501C33.5 23.0067 33.4194 22.2816 33.2583 21.5749C33.1327 21.0239 32.958 20.4841 32.7344 19.9554C32.5054 19.4137 32.2323 18.9008 31.9155 18.4165C31.5501 17.8581 31.1263 17.3378 30.6443 16.8558C30.1622 16.3737 29.642 15.9499 29.0835 15.5845C28.5992 15.2677 28.0863 14.9947 27.5447 14.7656C27.016 14.542 26.4762 14.3674 25.9252 14.2418C25.2185 14.0806 24.4935 14.0001 23.75 14.0001C23.0853 14.0001 22.4337 14.065 21.7954 14.195C21.3591 14.2838 20.929 14.4031 20.5051 14.5526C19.713 14.8321 18.871 14.4293 18.5915 13.6371C18.312 12.845 18.7148 12.003 19.5071 11.7235C20.0923 11.517 20.6862 11.3548 21.2887 11.2367C22.0937 11.0789 22.9141 11.0001 23.75 11.0001C24.6961 11.0001 25.6202 11.1002 26.5219 11.3004C27.2675 11.466 27.9981 11.7001 28.7134 12.0026C29.4346 12.3077 30.1167 12.6721 30.7599 13.0957C31.4771 13.5682 32.1456 14.1144 32.7656 14.7344C33.3856 15.3544 33.9319 16.023 34.4043 16.7402C34.828 17.3833 35.1924 18.0655 35.4974 18.7867C35.7999 19.502 36.0341 20.2325 36.1997 20.9783C36.3999 21.88 36.5 22.8039 36.5 23.7501C36.5 24.6135 36.416 25.4599 36.2481 26.2893C36.1187 26.9287 35.9393 27.558 35.71 28.1771C35.4733 28.8165 35.1893 29.4293 34.8583 30.0154C34.4779 30.6888 34.0352 31.3271 33.5303 31.9303C33.3878 32.1005 33.216 32.2325 33.0148 32.3265C32.8137 32.4204 32.6022 32.4674 32.3801 32.4674C31.9659 32.4674 31.6124 32.3209 31.3195 32.028C31.0266 31.7351 30.8801 31.3816 30.8801 30.9674L30.8801 27.7501C30.8801 26.9101 31.5402 26.2501 32.3801 26.2501C32.6526 26.2501 32.9063 26.3195 33.1244 26.4421ZM14.2058 21.7431C14.2537 21.5145 14.3099 21.2876 14.3745 21.0624C14.5913 21.1828 14.8426 21.2509 15.1125 21.2509C15.9525 21.2509 16.6125 20.5909 16.6125 19.7509L16.6125 16.5424C16.6125 16.3352 16.5759 16.1433 16.5027 15.9665C16.4295 15.7898 16.3197 15.6281 16.1732 15.4817C16.0268 15.3352 15.8652 15.2254 15.6883 15.1522C15.5116 15.079 15.3197 15.0424 15.1125 15.0424C15.0035 15.0424 14.897 15.0537 14.7929 15.0764C14.7909 15.0768 14.789 15.0772 14.787 15.0777C14.6811 15.1012 14.5778 15.1365 14.4772 15.1836C14.3765 15.2306 14.2832 15.2873 14.1973 15.3534C14.1113 15.4196 14.0327 15.4953 13.9614 15.5806C13.4578 16.1834 13.0162 16.8213 12.6368 17.4942C12.3068 18.0796 12.0237 18.6916 11.7877 19.33C11.5592 19.9481 11.3805 20.5762 11.2513 21.2143C11.0838 22.0429 11 22.8884 11 23.7509C11 24.6971 11.1001 25.621 11.3003 26.5227C11.4659 27.2684 11.7 27.999 12.0026 28.7143C12.3076 29.4355 12.672 30.1177 13.0957 30.7609C13.5682 31.478 14.1144 32.1466 14.7344 32.7665C15.3544 33.3865 16.0231 33.9329 16.7402 34.4053C17.3833 34.829 18.0654 35.1933 18.7866 35.4984C19.502 35.8009 20.2327 36.035 20.9784 36.2006C21.88 36.4008 22.8039 36.5009 23.75 36.5009C24.5852 36.5009 25.405 36.4222 26.2094 36.2647C26.811 36.1469 27.4041 35.985 27.9884 35.7791C28.7806 35.4999 29.1838 34.6581 28.9047 33.8659C28.6255 33.0736 27.7836 32.6704 26.9913 32.9496C26.5681 33.0988 26.1388 33.2176 25.7032 33.3063C25.0654 33.436 24.4143 33.5009 23.75 33.5009C23.0076 33.5009 22.2835 33.4206 21.5777 33.2599L21.5748 33.2592C21.0238 33.1336 20.484 32.959 19.9553 32.7354C19.4137 32.5063 18.9008 32.2333 18.4165 31.9165C17.858 31.5511 17.3378 31.1273 16.8557 30.6452C16.3736 30.1631 15.9499 29.6429 15.5845 29.0844C15.2677 28.6002 14.9946 28.0873 14.7656 27.5456C14.542 27.017 14.3673 26.4771 14.2417 25.9261L14.2415 25.9252C14.0805 25.2188 14 24.494 14 23.7509C14 23.0673 14.0686 22.398 14.2058 21.7431Z" fill="var(--tiny-first-color)" fill-rule="evenodd"/>
  <path id="矢量 1729" d="M33.2938 25.7596C33.2457 25.9888 33.1893 26.2163 33.1244 26.442C32.9063 26.3195 32.6526 26.25 32.3801 26.25C31.5402 26.25 30.8801 26.91 30.8801 27.75L30.8801 30.9673C30.8801 31.3815 31.0266 31.7351 31.3195 32.028C31.6124 32.3209 31.966 32.4673 32.3801 32.4673C32.6022 32.4673 32.8137 32.4204 33.0148 32.3264C33.216 32.2325 33.3878 32.1004 33.5303 31.9302C34.0352 31.3271 34.4779 30.6888 34.8583 30.0153C35.1893 29.4292 35.4733 28.8164 35.71 28.1771C35.9393 27.5579 36.1187 26.9286 36.2481 26.2893C36.416 25.4598 36.5 24.6134 36.5 23.75C36.5 22.8038 36.3999 21.8799 36.1997 20.9782C36.0341 20.2325 35.7999 19.502 35.4975 18.7867C35.1924 18.0654 34.828 17.3832 34.4043 16.7401C33.9319 16.023 33.3856 15.3544 32.7656 14.7344C32.1456 14.1144 31.4771 13.5681 30.7599 13.0957C30.1167 12.672 29.4346 12.3076 28.7134 12.0026C27.9981 11.7 27.2675 11.466 26.5219 11.3004C25.6202 11.1001 24.6961 11 23.75 11C22.9142 11 22.0937 11.0789 21.2887 11.2366C20.6862 11.3547 20.0923 11.517 19.5071 11.7234C18.7148 12.0029 18.312 12.8449 18.5916 13.6371C18.871 14.4292 19.713 14.832 20.5051 14.5526C20.929 14.403 21.3591 14.2838 21.7954 14.1949C22.4337 14.065 23.0853 14 23.75 14C24.4935 14 25.2186 14.0806 25.9252 14.2417C26.4762 14.3674 27.016 14.542 27.5447 14.7656C28.0863 14.9947 28.5993 15.2676 29.0835 15.5845C29.642 15.9499 30.1622 16.3736 30.6443 16.8557C31.1264 17.3378 31.5501 17.858 31.9155 18.4165C32.2323 18.9007 32.5054 19.4137 32.7344 19.9553C32.958 20.484 33.1327 21.0239 33.2583 21.5749C33.4194 22.2816 33.5 23.0066 33.5 23.75C33.5 24.4343 33.4313 25.1041 33.2938 25.7596ZM14.3745 21.0624C14.3099 21.2875 14.2537 21.5144 14.2058 21.743C14.0686 22.3979 14 23.0673 14 23.7509C14 24.4943 14.0806 25.2194 14.2417 25.9261C14.3673 26.4771 14.542 27.0169 14.7656 27.5456C14.9946 28.0872 15.2677 28.6001 15.5845 29.0844C15.9499 29.6428 16.3736 30.1631 16.8557 30.6452C17.3378 31.1273 17.858 31.551 18.4165 31.9164C18.9008 32.2333 19.4137 32.5062 19.9553 32.7353C20.484 32.9589 21.0238 33.1335 21.5748 33.2592C22.2815 33.4203 23.0066 33.5009 23.75 33.5009C24.4143 33.5009 25.0654 33.436 25.7033 33.3062C26.1388 33.2176 26.5681 33.0987 26.9913 32.9496C27.7836 32.6704 28.6255 33.0735 28.9047 33.8658C29.1838 34.658 28.7807 35.4999 27.9884 35.779C27.4041 35.985 26.811 36.1468 26.2094 36.2646C25.405 36.4221 24.5852 36.5009 23.75 36.5009C22.8039 36.5009 21.88 36.4008 20.9784 36.2005C20.2327 36.035 19.502 35.8009 18.7866 35.4983C18.0654 35.1933 17.3833 34.8289 16.7402 34.4053C16.0231 33.9328 15.3544 33.3865 14.7344 32.7665C14.1144 32.1465 13.5682 31.478 13.0957 30.7608C12.672 30.1177 12.3076 29.4355 12.0026 28.7142C11.7 27.9989 11.4659 27.2684 11.3003 26.5227C11.1001 25.621 11 24.697 11 23.7509C11 22.8884 11.0838 22.0428 11.2513 21.2142C11.3805 20.5761 11.5592 19.948 11.7877 19.33C12.0237 18.6915 12.3068 18.0796 12.6368 17.4941C13.0162 16.8212 13.4578 16.1834 13.9614 15.5806C14.0327 15.4953 14.1113 15.4196 14.1973 15.3534C14.2832 15.2872 14.3765 15.2306 14.4772 15.1835C14.5778 15.1364 14.6811 15.1011 14.787 15.0776C14.8929 15.0541 15.0015 15.0423 15.1126 15.0423C15.3197 15.0423 15.5116 15.0789 15.6884 15.1521C15.8652 15.2254 16.0268 15.3352 16.1732 15.4816C16.3197 15.6281 16.4295 15.7897 16.5027 15.9665C16.5759 16.1433 16.6126 16.3352 16.6126 16.5423L16.6126 19.7509C16.6126 20.5909 15.9525 21.2509 15.1126 21.2509C14.8427 21.2509 14.5913 21.1827 14.3745 21.0624Z" fill="var(--tiny-second-color)" fill-rule="evenodd"/>
</svg>