<svg viewBox="0 0 48 48" xmlns="http://www.w3.org/2000/svg" xmlns:xlink="http://www.w3.org/1999/xlink" width="48.000000" height="48.000000">
  <path id="矢量 1986(边框)" d="M36.8847 12.9792C36.9616 13.3105 37 13.6508 37 14C37 14.84 37.66 15.5 38.5 15.5C39.34 15.5 40 14.84 40 14C40 13.4481 39.9421 12.909 39.8261 12.3826C39.7285 11.9394 39.5898 11.5053 39.41 11.0802C39.2296 10.6536 39.0139 10.2503 38.763 9.87026C38.4861 9.45072 38.1662 9.05954 37.8033 8.6967C37.4405 8.33386 37.0493 8.01397 36.6298 7.73701C36.2497 7.4861 35.8464 7.27043 35.4198 7.09C34.9948 6.91022 34.5606 6.77152 34.1175 6.67391C33.5911 6.55797 33.0519 6.5 32.5 6.5L11.5 6.5C10.9481 6.5 10.4089 6.55797 9.88256 6.67391C9.43939 6.77152 9.00528 6.91022 8.58021 7.09C8.15364 7.27043 7.75033 7.48609 7.37028 7.73699C6.95075 8.01395 6.55956 8.33386 6.19671 8.6967C5.83387 9.05954 5.51397 9.45073 5.23701 9.87026C4.98611 10.2503 4.77044 10.6536 4.59002 11.0802C4.41023 11.5053 4.27153 11.9394 4.17392 12.3826C4.05798 12.9089 4.00001 13.4481 4.00001 14L4.00001 19.4933L4 19.5L4.00001 19.5067L4.00001 34C4.00001 34.5519 4.05798 35.0911 4.17393 35.6175C4.27154 36.0606 4.41023 36.4947 4.59002 36.9198C4.77046 37.3464 4.98614 37.7498 5.23707 38.1298C5.51402 38.5493 5.8339 38.9405 6.19671 39.3033C6.55956 39.6661 6.95075 39.986 7.37029 40.263C7.75033 40.5139 8.15364 40.7296 8.58021 40.91C9.0053 41.0898 9.43944 41.2285 9.88263 41.3261C10.409 41.442 10.9481 41.5 11.5 41.5L32.5 41.5C33.0519 41.5 33.5911 41.442 34.1174 41.3261C34.5606 41.2285 34.9947 41.0898 35.4198 40.91C35.8464 40.7296 36.2497 40.5139 36.6297 40.263C37.0493 39.9861 37.4405 39.6661 37.8033 39.3033C38.1662 38.9405 38.4861 38.5493 38.763 38.1297C39.0139 37.7497 39.2296 37.3464 39.41 36.9198C39.5898 36.4948 39.7285 36.0607 39.8261 35.6176C39.942 35.0912 40 34.552 40 34L40 21.5C40 21.2484 39.9741 21.0024 39.9224 20.7619C39.8766 20.5493 39.8106 20.3411 39.7244 20.1372C39.6389 19.9351 39.5365 19.7443 39.4172 19.5646C39.2893 19.3719 39.1418 19.192 38.9749 19.0251C38.808 18.8582 38.6281 18.7107 38.4353 18.5827C38.2557 18.4635 38.0649 18.3611 37.8628 18.2757C37.6589 18.1894 37.4507 18.1234 37.2381 18.0776C36.9976 18.0259 36.7516 18 36.5 18L7.00001 18L7.00001 14C7.00001 13.6508 7.03845 13.3105 7.11533 12.9791C7.17296 12.7307 7.25219 12.4873 7.35303 12.2489C7.45749 12.0019 7.58175 11.7678 7.72581 11.5466C7.89569 11.2858 8.09309 11.043 8.31803 10.818C8.54297 10.5931 8.78585 10.3957 9.04666 10.2258C9.26783 10.0817 9.5019 9.95748 9.74887 9.85302C9.98728 9.75218 10.2307 9.67294 10.4791 9.61531C10.8105 9.53844 11.1508 9.5 11.5 9.5L32.5 9.5C32.8492 9.5 33.1895 9.53844 33.5209 9.61532C33.7693 9.67295 34.0128 9.75218 34.2512 9.85302C34.4981 9.95747 34.7322 10.0817 34.9534 10.2258C35.2142 10.3957 35.457 10.5931 35.682 10.818C35.9069 11.0429 36.1043 11.2858 36.2742 11.5466C36.4182 11.7678 36.5425 12.0019 36.647 12.2489C36.7478 12.4873 36.8271 12.7307 36.8847 12.9792ZM7.00001 21L36.5 21C36.5691 21 36.633 21.0122 36.692 21.0366C36.7509 21.061 36.8048 21.0976 36.8536 21.1464C36.9024 21.1953 36.939 21.2491 36.9634 21.308C36.9878 21.367 37 21.431 37 21.5L37 34C37 34.3493 36.9616 34.6896 36.8847 35.021C36.827 35.2694 36.7478 35.5128 36.647 35.7511C36.5425 35.9981 36.4183 36.2322 36.2742 36.4534C36.1043 36.7142 35.9069 36.9571 35.682 37.182C35.4571 37.4069 35.2142 37.6043 34.9534 37.7742C34.7322 37.9183 34.4981 38.0425 34.2512 38.147C34.0128 38.2478 33.7694 38.327 33.5209 38.3847C33.1896 38.4616 32.8492 38.5 32.5 38.5L11.5 38.5C11.1508 38.5 10.8105 38.4616 10.4791 38.3847C10.2307 38.3271 9.98727 38.2478 9.74887 38.147C9.5019 38.0425 9.26782 37.9183 9.04664 37.7742C8.78584 37.6043 8.54297 37.4069 8.31803 37.182C8.09311 36.9571 7.89571 36.7142 7.72584 36.4534C7.58177 36.2322 7.4575 35.9981 7.35303 35.7511C7.25219 35.5127 7.17295 35.2693 7.11532 35.0209C7.03845 34.6895 7.00001 34.3492 7.00001 34L7.00001 21Z" fill="var(--tiny-first-color, #191919)" fill-rule="evenodd"/>
</svg>