<svg viewBox="0 0 48 48" xmlns="http://www.w3.org/2000/svg" xmlns:xlink="http://www.w3.org/1999/xlink" width="48.000000" height="48.000000">
  <path id="矢量 1987(边框)" d="M40.3976 9.64983C39.9427 9.54994 39.4768 9.5 39 9.5C38.16 9.5 37.5 10.16 37.5 11C37.5 11.84 38.16 12.5 39 12.5C39.2741 12.5 39.5411 12.5304 39.801 12.5913C39.9918 12.6359 40.1788 12.697 40.3619 12.7744C40.5527 12.8552 40.7337 12.9511 40.9048 13.0623C41.1089 13.1949 41.2989 13.3492 41.4749 13.5251C41.6508 13.7011 41.8051 13.8911 41.9377 14.0952C42.0489 14.2663 42.1448 14.4472 42.2256 14.6381C42.303 14.8212 42.3641 15.0082 42.4087 15.1989C42.4696 15.4588 42.5 15.7259 42.5 16L42.5 38C42.5 38.3493 42.4615 38.6896 42.3846 39.0211C42.327 39.2694 42.2478 39.5128 42.147 39.7511C42.0425 39.9981 41.9183 40.2322 41.7742 40.4533C41.6043 40.7141 41.4069 40.957 41.182 41.182C40.9571 41.4069 40.7142 41.6043 40.4534 41.7742C40.2322 41.9183 39.9981 42.0425 39.7511 42.147C39.5128 42.2478 39.2694 42.327 39.021 42.3847C38.6896 42.4616 38.3493 42.5 38 42.5L14 42.5C13.8385 42.5 13.6815 42.4816 13.5289 42.4448C13.4245 42.4196 13.3222 42.3858 13.222 42.3434C13.1153 42.2983 13.014 42.2448 12.918 42.183C12.799 42.1063 12.6882 42.0167 12.5858 41.9142C12.4833 41.8117 12.3937 41.7009 12.3169 41.5819C12.2551 41.486 12.2017 41.3847 12.1566 41.278C12.1142 41.1778 12.0804 41.0755 12.0552 40.9712C12.0184 40.8186 12 40.6615 12 40.5C12 39.66 11.34 39 10.5 39C9.66 39 9 39.66 9 40.5C9 40.8642 9.03791 41.2201 9.11372 41.5678C9.17894 41.8669 9.27221 42.1598 9.39354 42.4467C9.51462 42.733 9.65949 43.0035 9.82812 43.2583C10.012 43.5361 10.2241 43.7952 10.4645 44.0355C10.7048 44.2759 10.9639 44.488 11.2417 44.6719C11.4965 44.8405 11.767 44.9854 12.0533 45.1065C12.3402 45.2278 12.6331 45.3211 12.9322 45.3863C13.2798 45.4621 13.6358 45.5 14 45.5L38 45.5C38.552 45.5 39.0912 45.442 39.6176 45.3261C40.0607 45.2284 40.4948 45.0898 40.9198 44.91C41.3464 44.7296 41.7498 44.5139 42.1299 44.2629C42.5493 43.986 42.9405 43.6661 43.3033 43.3033C43.6662 42.9404 43.9861 42.5492 44.2631 42.1296C44.514 41.7496 44.7296 41.3463 44.91 40.9198C45.0898 40.4948 45.2284 40.0608 45.326 39.6177C45.442 39.0912 45.5 38.552 45.5 38L45.5 16C45.5 15.5232 45.4501 15.0573 45.3502 14.6024C45.2655 14.2169 45.145 13.8392 44.9886 13.4694C44.8319 13.099 44.6445 12.7488 44.4265 12.4188C44.1868 12.056 43.91 11.7176 43.5962 11.4038C43.2823 11.0899 42.944 10.8131 42.5811 10.5734C42.2512 10.3554 41.901 10.1681 41.5306 10.0114C41.1608 9.85502 40.7831 9.73449 40.3976 9.64983Z" fill="var(--tiny-second-color, #aeaeAE)" fill-rule="evenodd"/>
  <path id="减去顶层" d="M19 12.1213L12.0607 5.18198L11.8787 5L9.996 5C6.69 5 4 7.692 4 10.998L4 35.002C4 38.308 6.69 41 9.996 41L24.8787 41L20.7573 36.8787L13.379 36.8787C12.9229 37.486 12.1967 37.8789 11.3787 37.8789C9.99796 37.8789 8.87868 36.7596 8.87868 35.3789C8.87868 33.9982 9.99796 32.8789 11.3787 32.8789C12.1965 32.8789 12.9226 33.2716 13.3787 33.8787L22 33.8787L29.1213 41L34.002 41C37.308 41 40 38.308 40 35.002L40 10.998C40 7.692 37.308 5 34.002 5L16.1213 5L20.2427 9.12132L27.621 9.12132C28.0771 8.51397 28.8033 8.12109 29.6213 8.12109C31.002 8.12109 32.1213 9.24038 32.1213 10.6211C32.1213 12.0018 31.002 13.1211 29.6213 13.1211C28.8035 13.1211 28.0774 12.7284 27.6213 12.1213L19 12.1213ZM24.9259 28.8854L22.3153 28.8854L21.2776 26.1856L16.5267 26.1856L15.5457 28.8854L13 28.8854L17.6293 17L20.1669 17L24.9259 28.8854ZM26.6002 17L26.6002 28.8854L29 28.8854L29 17L26.6002 17ZM18.8697 19.7727L20.5074 24.1831L17.2645 24.1831L18.8697 19.7727Z" fill="var(--tiny-first-color, #191919)" fill-rule="evenodd"/>
</svg>