<svg viewBox="0 0 48 48" xmlns="http://www.w3.org/2000/svg" xmlns:xlink="http://www.w3.org/1999/xlink" width="48.000000" height="48.000000" fill="none">
  <path id="形状结合" d="M42 28.5C42.8284 28.5 43.5 29.1716 43.5 30C43.5 30.7594 42.9356 31.387 42.2035 31.4863L42 31.5L9.61996 31.4988L13.0606 34.9393C13.5931 35.4719 13.6416 36.3052 13.2059 36.8924C12.6733 37.425 11.6948 37.6416 11.1075 37.2059L4.9393 31.0607C4.04408 30.1654 4.59762 28.6682 5.79463 28.5131L5.99996 28.5L42 28.5ZM36.8924 10.7941L43.0606 16.9393C43.9558 17.8346 43.4023 19.3318 42.2053 19.4869L42 19.5L5.99996 19.5C5.17153 19.5 4.49996 18.8284 4.49996 18C4.49996 17.2406 5.06426 16.613 5.79641 16.5137L5.99996 16.5L38.378 16.4988L34.9393 13.0607C34.4068 12.5281 34.3584 11.6948 34.7941 11.1076C35.3266 10.575 36.3052 10.3584 36.8924 10.7941Z" fill="var(--tiny-first-color)" fill-rule="evenodd"/>
  <path id="形状结合" d="M36.8924 10.7948L43.0606 16.94C43.9558 17.8352 43.4023 19.3325 42.2053 19.4876L42 19.5007L5.99996 19.5007C5.17153 19.5007 4.49996 18.8291 4.49996 18.0007C4.49996 17.2413 5.06426 16.6137 5.79641 16.5144L5.99996 16.5007L38.378 16.4995L34.9393 13.0613C34.4068 12.5288 34.3584 11.6955 34.7941 11.1082C35.3266 10.5757 36.3052 10.3591 36.8924 10.7948Z" fill="var(--tiny-second-color)" fill-rule="evenodd"/>
</svg>