<svg viewBox="0 0 48 48" xmlns="http://www.w3.org/2000/svg" xmlns:xlink="http://www.w3.org/1999/xlink" width="48.000000" height="48.000000" fill="none">
  <path id="形状结合" d="M40.3985 38.0003C41.1332 38.0003 41.6835 37.3537 41.5998 36.6515L40.5658 32.8107C40.2387 31.617 39.5231 30.5723 38.5387 29.8379L38.2008 29.6048L31.4308 25.3088C30.7313 24.865 30.5241 23.9381 30.968 23.2386C31.0233 23.1529 31.1217 23.02 31.1955 22.9456C32.5578 21.925 33.8075 17.7976 33.5495 15.5054C33.3445 13.6841 32.6718 12.5061 31.6741 11.7874C31.0757 11.3562 30.3721 11.1147 29.8105 11.0545L29.5427 11.0394C28.7143 11.0394 28.0427 10.3679 28.0427 9.53943C28.0427 8.711 28.7143 8.03943 29.5427 8.03943C32.7761 8.03943 35.9886 10.3539 36.5306 15.1699C36.8193 17.7348 36.0268 21.4082 34.5087 23.7103L39.8098 27.0728C41.4608 28.1235 42.6959 29.7056 43.3172 31.5525L43.4596 32.0196L44.4599 35.6865C45.1617 38.2658 43.3128 40.8118 40.6927 40.9903L40.3985 41.0003L7.69172 41.0001C4.95824 41.0001 2.94581 38.4929 3.47528 35.8636L3.54466 35.5711L4.57834 31.7843C5.10976 29.8313 6.30126 28.1281 7.94121 26.9615L8.32753 26.7019L14.0218 23.0853C13.8419 22.8351 13.6705 22.5711 13.5044 22.285C12.5644 20.6661 11.9399 18.5724 11.7054 15.8144C11.2903 10.9303 14.9263 7.02441 19.3644 7.02441C24.6362 7.02441 27.9796 11.0238 27.2497 17.2157C26.9441 19.8083 26.2484 21.7505 25.2364 23.1893L30.7282 26.6999C32.4344 27.7837 33.708 29.4229 34.3438 31.3371L34.4791 31.7836L34.9551 33.5296C35.173 34.3288 34.7017 35.1534 33.9025 35.3713C33.1698 35.571 32.4159 35.1917 32.1275 34.5114L31.5854 32.575C31.2434 31.3287 30.4977 30.2393 29.4688 29.4729L29.1155 29.2296L23.0057 25.3203C22.59 25.5833 22.1496 25.8087 21.6866 26.0005C20.9212 26.3175 20.0438 25.954 19.7268 25.1886C19.4098 24.4232 19.7733 23.5458 20.5386 23.2288C21.0472 23.0182 21.5121 22.75 21.9297 22.4007C23.0749 21.3983 23.94 19.6669 24.2704 16.8645C24.7948 12.4153 22.7961 10.0244 19.3644 10.0244C16.6742 10.0244 14.4291 12.4362 14.6947 15.5603C14.8928 17.8916 15.3898 19.5575 16.0988 20.7787C16.3107 21.1437 16.5322 21.4532 16.7836 21.7521L17.4035 22.4451C17.8073 23.0808 17.8094 24.0875 17.2563 24.5658L9.93477 29.2351C8.84789 29.924 8.02779 30.9572 7.60049 32.1645L7.47277 32.5731L6.43864 36.3616C6.23074 37.1222 6.7448 37.8748 7.49856 37.986L40.3985 38.0003Z" fill="var(--tiny-first-color, #191919)" fill-rule="evenodd"/>
</svg>
