<svg viewBox="0 0 48 48" xmlns="http://www.w3.org/2000/svg" xmlns:xlink="http://www.w3.org/1999/xlink" width="48.000000" height="48.000000" fill="none">
  <path id="形状结合" d="M29.227 8.66637C32.799 8.66637 35.691 11.5624 35.691 15.1324C35.691 19.2079 34.6134 22.121 32.9727 23.7893L32.709 24.0424L39.865 28.5864C41.295 29.4939 42.3671 30.8618 42.9101 32.4561L43.045 32.8964L44.101 36.7724C44.5764 38.5097 43.3479 40.2251 41.5931 40.3774L41.339 40.3884L37.1561 40.3909C37.855 39.1307 38.0858 37.6729 37.801 36.2429L37.7 35.815L36.608 31.813L36.4536 31.2957C35.7308 29.0772 34.3173 27.1629 32.4123 25.8157L31.964 25.515L27.408 22.621L27.6289 22.1569C28.4866 20.2616 29.0331 17.8957 29.1121 15.0189L29.122 14.289L29.1129 13.8624C29.0346 12.0355 28.456 10.3354 27.5108 8.89624C28.0565 8.74672 28.6324 8.66637 29.227 8.66637ZM19.27 7.60938C22.96 7.60938 25.95 10.6014 25.95 14.2894C25.95 18.7234 24.718 21.8254 22.868 23.4974L30.264 28.1934C31.874 29.2154 33.046 30.8034 33.548 32.6454L34.642 36.6514C35.154 38.5314 33.738 40.3874 31.786 40.3874L6.75602 40.3874C4.80602 40.3874 3.38802 38.5314 3.90202 36.6514L4.99602 32.6454C5.49802 30.8034 6.66802 29.2154 8.28002 28.1934L15.832 23.3994C13.84 21.5514 12.594 18.2114 12.594 14.2894C12.594 10.6014 15.584 7.60938 19.27 7.60938Z" fill="var(--tiny-first-color, #191919)" fill-rule="evenodd"/>
  <path id="形状结合" d="M29.2271 8.66637C32.7991 8.66637 35.6911 11.5624 35.6911 15.1324C35.6911 19.2079 34.6136 22.121 32.9728 23.7893L32.7091 24.0424L39.8651 28.5864C41.2951 29.4939 42.3672 30.8618 42.9103 32.4561L43.0451 32.8964L44.1011 36.7724C44.5765 38.5097 43.348 40.2251 41.5933 40.3774L41.3391 40.3884L37.1562 40.3909C37.8552 39.1307 38.0859 37.6729 37.8011 36.2429L37.7001 35.815L36.6081 31.813L36.4537 31.2957C35.7309 29.0772 34.3174 27.1629 32.4124 25.8157L31.9641 25.515L27.4081 22.621L27.629 22.1569C28.4868 20.2616 29.0332 17.8957 29.1122 15.0189L29.1221 14.289L29.113 13.8624C29.0347 12.0355 28.4561 10.3354 27.511 8.89624C28.0567 8.74672 28.6325 8.66637 29.2271 8.66637Z" fill="var(--tiny-second-color, #aeaeAE)" fill-rule="evenodd"/>
</svg>
