<svg viewBox="0 0 48 48" xmlns="http://www.w3.org/2000/svg" xmlns:xlink="http://www.w3.org/1999/xlink" width="48.000000" height="48.000000" fill="none">
  <path id="形状结合" d="M42 28.0005C43.106 28.0005 44 28.8945 44 30.0005C44 31.1065 43.106 32.0005 42 32.0005L10.828 32.0005L13.414 34.5865C14.196 35.3685 14.196 36.6325 13.414 37.4145C13.024 37.8045 12.512 38.0005 12 38.0005C11.488 38.0005 10.976 37.8045 10.586 37.4145L4.58601 31.4145C4.01401 30.8425 3.84201 29.9825 4.15201 29.2345C4.46001 28.4865 5.19201 28.0005 6.00001 28.0005L42 28.0005ZM37.414 10.5865L43.414 16.5865C43.986 17.1585 44.158 18.0185 43.848 18.7665C43.54 19.5145 42.808 20.0005 42 20.0005L6.00001 20.0005C4.89401 20.0005 4.00001 19.1065 4.00001 18.0005C4.00001 16.8945 4.89401 16.0005 6.00001 16.0005L37.172 16.0005L34.586 13.4145C33.804 12.6325 33.804 11.3685 34.586 10.5865C35.368 9.8045 36.632 9.8045 37.414 10.5865Z" fill="var(--tiny-first-color, #191919)" fill-rule="evenodd"/>
  <path id="形状结合" d="M37.414 10.586L43.414 16.586C43.986 17.158 44.158 18.018 43.848 18.766C43.54 19.514 42.808 20 42 20L6.00001 20C4.89401 20 4.00001 19.106 4.00001 18C4.00001 16.894 4.89401 16 6.00001 16L37.172 16L34.586 13.414C33.804 12.632 33.804 11.368 34.586 10.586C35.368 9.80401 36.632 9.80401 37.414 10.586Z" fill="var(--tiny-second-color, #aeaeAE)" fill-rule="evenodd"/>
</svg>
