<svg viewBox="0 0 48 48" xmlns="http://www.w3.org/2000/svg" xmlns:xlink="http://www.w3.org/1999/xlink" width="48.000000" height="48.000000" fill="none">
  <path id="形状结合" d="M23.9764 41.9234C23.9253 41.9211 23.8271 41.9146 23.7762 41.9069C23.7476 41.8978 23.5259 41.8463 23.4967 41.8358C23.4693 41.8226 23.2662 41.7319 23.2393 41.7162L22.8541 41.4776L22.3661 41.155L21.7877 40.7561L20.7783 40.0313L20.029 39.4751L18.8218 38.5505L17.9796 37.8853L16.6918 36.8332L15.835 36.1069L15.4118 35.7392C10.2233 31.1908 6.39673 26.5215 4.71443 21.8966C2.48699 15.7803 5.64206 9.01505 11.7588 6.78972C16.6598 5.00592 22.1043 6.66235 25.1975 10.7641C25.6963 11.4255 25.5645 12.3661 24.903 12.8649C24.2416 13.3637 23.3011 13.2319 22.8023 12.5704C20.4975 9.5142 16.4381 8.27916 12.7847 9.60887C8.22501 11.2677 5.87301 16.311 7.53352 20.8705C9.00511 24.9162 12.5475 29.2388 17.3894 33.4833L18.2012 34.1827L19.4321 35.203L20.2433 35.8526L21.0325 36.4689L22.1474 37.314L23.1424 38.0407L23.9752 38.6231L24.5635 38.2306L25.421 37.6187C27.1284 36.3806 28.8912 34.9904 30.6107 33.4828C35.4526 29.2377 38.9949 24.9154 40.4666 20.8702C42.1273 16.3103 39.7761 11.2677 35.2149 9.60896C33.0845 8.83335 30.5705 9.0094 28.5301 9.8854C27.7688 10.2122 26.8868 9.86003 26.56 9.09879C26.2332 8.33755 26.5853 7.45551 27.3466 7.1287C30.0822 5.95428 33.386 5.7505 36.2407 6.78979C42.3591 9.01485 45.5133 15.7797 43.2857 21.8963C41.6032 26.5207 37.7769 31.1897 32.5884 35.7386L31.5028 36.6717L30.4291 37.5604C30.252 37.7043 30.0761 37.8461 29.9016 37.9855L28.8746 38.7923C28.7072 38.9216 28.5419 39.0482 28.379 39.1719L27.433 39.8787L26.56 40.5088C26.4214 40.607 26.2865 40.7016 26.1556 40.7925L25.4208 41.2924C25.1935 41.4434 24.9848 41.5782 24.7971 41.6955C24.7232 41.7416 24.6468 41.7806 24.5689 41.8125C24.4197 41.8675 24.13 41.9184 23.9764 41.9234Z" fill="var(--tiny-first-color, #191919)" fill-rule="evenodd"/>
</svg>
