<svg viewBox="0 0 48 47.9985" xmlns="http://www.w3.org/2000/svg" xmlns:xlink="http://www.w3.org/1999/xlink" width="48.000000" height="47.998535" fill="none">
  <path id="椭圆 395(边框)" d="M26.2771 12.7462C25.5362 12.5821 24.7772 12.5 24 12.5C23.2228 12.5 22.4638 12.5821 21.7229 12.7462C21.1069 12.8826 20.5034 13.0758 19.9125 13.3258C19.3175 13.5774 18.7548 13.8781 18.2244 14.2277C17.6348 14.6164 17.0851 15.0656 16.5754 15.5754C16.0656 16.0852 15.6164 16.6348 15.2277 17.2244C14.8781 17.7548 14.5774 18.3175 14.3258 18.9125C14.0758 19.5034 13.8826 20.1069 13.7461 20.723C13.582 21.4638 13.5 22.2228 13.5 23C13.5 23.7772 13.582 24.5362 13.7461 25.277C13.8826 25.8931 14.0758 26.4966 14.3258 27.0875C14.5774 27.6825 14.878 28.2452 15.2277 28.7755C15.6164 29.3651 16.0656 29.9148 16.5754 30.4246C17.0852 30.9344 17.6349 31.3837 18.2245 31.7724C18.7549 32.122 19.3175 32.4226 19.9125 32.6742C21.214 33.2247 22.5765 33.5 24 33.5C24.7772 33.5 25.5362 33.418 26.277 33.2539C26.8931 33.1174 27.4966 32.9242 28.0875 32.6742C29.3439 32.1428 30.4563 31.393 31.4246 30.4246C31.9344 29.9148 32.3837 29.3651 32.7723 28.7755C33.122 28.2451 33.4226 27.6825 33.6742 27.0875C34.2247 25.786 34.5 24.4235 34.5 23C34.5 22.2228 34.4179 21.4638 34.2538 20.723C34.1174 20.1069 33.9242 19.5034 33.6742 18.9125C33.1428 17.6561 32.393 16.5437 31.4246 15.5754C30.9149 15.0656 30.3652 14.6164 29.7756 14.2277C29.2452 13.8781 28.6825 13.5774 28.0875 13.3258C27.4966 13.0758 26.8931 12.8826 26.2771 12.7462ZM22.3195 15.6875C22.8654 15.5625 23.4255 15.5 24 15.5C24.5745 15.5 25.1347 15.5625 25.6805 15.6875C26.1018 15.784 26.5146 15.9178 26.9189 16.0888C27.3342 16.2645 27.7277 16.4737 28.0991 16.7165C28.53 16.9981 28.9314 17.3248 29.3033 17.6967C29.6752 18.0686 30.0019 18.47 30.2835 18.9008C30.5263 19.2723 30.7355 19.6658 30.9112 20.0811C31.0822 20.4854 31.2159 20.8981 31.3124 21.3194C31.4375 21.8653 31.5 22.4255 31.5 23C31.5 23.5745 31.4375 24.1347 31.3125 24.6805C31.216 25.1019 31.0822 25.5146 30.9112 25.9189C30.7356 26.3342 30.5263 26.7276 30.2836 27.0991C30.002 27.53 29.6752 27.9314 29.3033 28.3033C28.9314 28.6752 28.5301 29.0019 28.0992 29.2835C27.7277 29.5263 27.3342 29.7355 26.9189 29.9112C26.5147 30.0822 26.1019 30.2159 25.6806 30.3124C25.1347 30.4375 24.5745 30.5 24 30.5C23.4255 30.5 22.8653 30.4375 22.3195 30.3125C21.8982 30.216 21.4854 30.0822 21.0811 29.9112C20.6658 29.7355 20.2724 29.5263 19.9009 29.2835C19.47 29.0019 19.0686 28.6752 18.6967 28.3033C18.3248 27.9314 17.9981 27.53 17.7165 27.0992C17.4737 26.7277 17.2645 26.3342 17.0888 25.9189C16.9178 25.5146 16.784 25.1018 16.6875 24.6805C16.5625 24.1346 16.5 23.5745 16.5 23C16.5 22.4255 16.5625 21.8654 16.6875 21.3195C16.784 20.8982 16.9178 20.4854 17.0888 20.0811C17.2645 19.6657 17.4737 19.2723 17.7165 18.9008C17.9981 18.4699 18.3248 18.0686 18.6967 17.6967C19.0686 17.3248 19.4699 16.9981 19.9008 16.7165C20.2723 16.4737 20.6657 16.2645 21.0811 16.0888C21.4854 15.9178 21.8982 15.784 22.3195 15.6875Z" fill="var(--tiny-second-color, #aeaeAE)" fill-rule="evenodd"/>
  <path id="合并" d="M21.0822 40.2577C20.8792 40.2235 20.6767 40.1858 20.4747 40.1445C19.3452 39.9133 18.2495 39.5732 17.1878 39.1242C16.1456 38.6834 15.1545 38.1454 14.2145 37.5104C13.7833 37.2191 13.3667 36.9099 12.9646 36.5829C12.4988 36.204 12.0524 35.8012 11.6256 35.3744C10.8304 34.5791 10.1184 33.7161 9.48961 32.7855C9.12892 32.2516 8.79956 31.7012 8.50154 31.1343C8.27485 30.7032 8.06628 30.2625 7.87585 29.8123C7.65298 29.2853 7.45694 28.75 7.28775 28.2064C7.26567 28.1355 7.24405 28.0644 7.22288 27.9931C4.31407 27.8488 2 25.4446 2 22.5C2 19.4624 4.46243 17 7.5 17C7.51884 17 7.53746 17.0001 7.55587 17.0003C7.65556 16.7273 7.76222 16.4564 7.87585 16.1878C8.06632 15.7374 8.27492 15.2967 8.50166 14.8654C8.79965 14.2987 9.12897 13.7484 9.48962 13.2145C9.78101 12.7832 10.0903 12.3664 10.4174 11.9642L10.4176 11.964C10.7963 11.4984 11.199 11.0523 11.6256 10.6256C12.0522 10.1991 12.4983 9.79643 12.9638 9.41776C13.3662 9.09048 13.7831 8.7811 14.2145 8.48961C14.7486 8.12883 15.2991 7.79939 15.8661 7.50131C16.2971 7.27471 16.7377 7.06622 17.1878 6.87585C17.7147 6.65295 18.2501 6.4569 18.7938 6.28769C19.3455 6.11599 19.9058 5.97193 20.4747 5.85552C20.8211 5.78463 21.169 5.72435 21.5184 5.67467C22.3373 5.55822 23.1645 5.5 24 5.5C25.1919 5.5 26.367 5.61851 27.5253 5.85552C28.0944 5.97197 28.6549 6.11609 29.2068 6.28787C29.7503 6.45704 30.2854 6.65303 30.8123 6.87585C31.2625 7.06628 31.7031 7.27483 32.1343 7.50151L32.1347 7.5017C32.7014 7.79969 33.2517 8.12899 33.7855 8.48962C34.217 8.78115 34.634 9.09058 35.0364 9.41791C35.5019 9.79654 35.9479 10.1991 36.3744 10.6256C37.1696 11.4209 37.8816 12.2839 38.5104 13.2145C39.1454 14.1545 39.6834 15.1456 40.1242 16.1878C40.2499 16.485 40.3671 16.7849 40.4757 17.0875C43.0445 17.5508 44.9932 19.7978 44.9932 22.5C44.9932 25.5376 42.5307 28 39.4932 28C37.8284 28 37.8382 27.2604 38.1871 26.0919C38.1914 26.0202 38.2007 25.9477 38.2153 25.8748C38.2636 25.6346 38.3058 25.3934 38.3418 25.1513C38.4473 24.442 38.5 23.7249 38.5 23C38.5 21.8998 38.3813 20.8266 38.1439 19.7804C37.9567 18.9556 37.6958 18.1477 37.3611 17.3564C37.2087 16.996 37.0422 16.643 36.8617 16.2973C36.61 15.8153 36.3309 15.3475 36.0245 14.894C35.5032 14.1222 34.9127 13.4066 34.2531 12.747C33.8946 12.3885 33.5195 12.0504 33.1279 11.7327C32.7989 11.4659 32.4583 11.2135 32.106 10.9755C31.3273 10.4494 30.5065 10.0038 29.6436 9.63887C28.8523 9.30419 28.0443 9.04328 27.2196 8.85613C26.1733 8.61871 25.1001 8.5 24 8.5C22.8999 8.5 21.8267 8.61871 20.7804 8.85613C19.9557 9.04328 19.1477 9.30419 18.3564 9.63887C17.9959 9.79134 17.6428 9.95788 17.297 10.1385C16.815 10.3902 16.3474 10.6692 15.894 10.9755C15.5419 11.2133 15.2015 11.4656 14.8728 11.7322C14.4809 12.05 14.1056 12.3883 13.747 12.747C13.3882 13.1057 13.0499 13.4811 12.732 13.873C12.4654 14.2017 12.2133 14.542 11.9755 14.894C11.6693 15.3472 11.3903 15.8148 11.1387 16.2966C10.958 16.6425 10.7914 16.9958 10.6389 17.3564C10.3042 18.1477 10.0433 18.9557 9.85612 19.7805C9.61871 20.8267 9.5 21.8999 9.5 23C9.5 24.1001 9.6187 25.1733 9.85612 26.2195L9.85613 26.2196C10.0433 27.0443 10.3042 27.8523 10.6389 28.6436C10.7914 29.0042 10.958 29.3575 11.1386 29.7034C11.3903 30.1852 11.6692 30.6527 11.9755 31.106C12.2135 31.4583 12.4659 31.799 12.7327 32.1279C13.0504 32.5195 13.3885 32.8946 13.747 33.2531C14.4066 33.9127 15.1222 34.5032 15.894 35.0245C16.3474 35.3309 16.8151 35.6099 17.2971 35.8616C17.6429 36.0422 17.996 36.2087 18.3564 36.3611C19.1477 36.6958 19.9556 36.9567 20.7804 37.1439C21.1024 37.2169 21.427 37.2788 21.7542 37.3294C22.3953 36.5196 23.387 36 24.5 36C26.433 36 28 37.567 28 39.5C28 41.433 26.433 43 24.5 43C22.8272 43 21.4284 41.8264 21.0822 40.2577Z" fill="var(--tiny-first-color, #191919)" fill-rule="evenodd"/>
</svg>
