<svg viewBox="0 0 48 47.9985" xmlns="http://www.w3.org/2000/svg" xmlns:xlink="http://www.w3.org/1999/xlink" width="48.000000" height="47.998535" fill="none">
  <path id="椭圆 395(边框)" d="M26.3765 12.256C25.6032 12.0853 24.811 12 24 12C23.189 12 22.3969 12.0853 21.6236 12.2559C20.975 12.399 20.3397 12.6021 19.7177 12.8653C19.0928 13.1296 18.5019 13.4454 17.9451 13.8129C17.329 14.2194 16.7546 14.6891 16.2218 15.2218C15.6891 15.7546 15.2194 16.329 14.8129 16.9451C14.4454 17.5019 14.1296 18.0928 13.8653 18.7177C13.6021 19.3397 13.399 19.975 13.2559 20.6236C13.0853 21.3969 13 22.189 13 23C13 23.811 13.0853 24.6031 13.256 25.3765C13.3991 26.025 13.6022 26.6603 13.8653 27.2823C14.1296 27.9072 14.4454 28.4981 14.8129 29.0549C15.2194 29.671 15.6891 30.2454 16.2218 30.7782C16.7546 31.3109 17.329 31.7806 17.9451 32.1871C18.5019 32.5546 19.0928 32.8704 19.7177 33.1347C21.0815 33.7116 22.5089 34 24 34C24.811 34 25.6031 33.9147 26.3765 33.744C27.025 33.6009 27.6603 33.3978 28.2823 33.1347C29.5986 32.578 30.7639 31.7925 31.7782 30.7782C32.3109 30.2454 32.7806 29.671 33.1871 29.055C33.5545 28.4981 33.8704 27.9072 34.1347 27.2823C34.7116 25.9185 35 24.4911 35 23C35 22.189 34.9147 21.3968 34.744 20.6235C34.6009 19.975 34.3978 19.3397 34.1347 18.7177C33.578 17.4014 32.7925 16.2361 31.7782 15.2218C31.2454 14.6891 30.671 14.2194 30.055 13.8129C29.4981 13.4455 28.9072 13.1296 28.2823 12.8653C27.6603 12.6022 27.025 12.3991 26.3765 12.256ZM22.419 16.1778C22.9323 16.0593 23.4593 16 24 16C24.5407 16 25.0677 16.0593 25.5811 16.1778C25.9699 16.2676 26.3509 16.3914 26.7241 16.5493C27.1095 16.7123 27.4748 16.9063 27.8198 17.1313C28.2242 17.3951 28.6009 17.7014 28.9497 18.0503C29.5963 18.6968 30.0966 19.4387 30.4507 20.2759C30.6086 20.649 30.7324 21.03 30.8222 21.4189C30.9407 21.9322 31 22.4593 31 23C31 23.5407 30.9407 24.0678 30.8222 24.5811C30.7324 24.97 30.6086 25.351 30.4507 25.7241C30.2877 26.1095 30.0937 26.4747 29.8687 26.8197C29.605 27.2242 29.2987 27.6008 28.9497 27.9497C28.3032 28.5963 27.5613 29.0966 26.7241 29.4507C26.351 29.6086 25.97 29.7324 25.5811 29.8222C25.0678 29.9407 24.5407 30 24 30C23.4593 30 22.9323 29.9407 22.4189 29.8222C22.0301 29.7324 21.6491 29.6086 21.2759 29.4507C20.8905 29.2877 20.5253 29.0937 20.1803 28.8687C19.7758 28.605 19.3992 28.2987 19.0503 27.9497C18.7014 27.6008 18.395 27.2242 18.1313 26.8197C17.9063 26.4747 17.7123 26.1095 17.5493 25.7241C17.3914 25.3509 17.2676 24.9699 17.1778 24.581C17.0593 24.0677 17 23.5407 17 23C17 22.4593 17.0593 21.9323 17.1778 21.419C17.2676 21.0301 17.3914 20.6491 17.5493 20.2759C17.7123 19.8905 17.9063 19.5252 18.1313 19.1802C18.395 18.7758 18.7014 18.3991 19.0503 18.0503C19.3991 17.7014 19.7758 17.3951 20.1802 17.1313C20.5252 16.9063 20.8905 16.7123 21.2759 16.5493C21.6491 16.3914 22.0301 16.2676 22.419 16.1778Z" fill="var(--tiny-second-color, #aeaeAE)" fill-rule="evenodd"/>
  <path id="合并" d="M21.2456 40.7904C20.9542 40.7456 20.6638 40.6935 20.3745 40.6343C19.2124 40.3965 18.0853 40.0466 16.993 39.5847C15.921 39.1312 14.9015 38.5779 13.9346 37.9247C12.9775 37.278 12.0899 36.5458 11.2721 35.7279C10.8344 35.2902 10.4212 34.8325 10.0325 34.3549C9.69492 33.9401 9.37587 33.5103 9.0753 33.0654C8.70562 32.5182 8.36793 31.9541 8.06224 31.3732L8.06214 31.373C7.82773 30.9276 7.61213 30.4723 7.41535 30.007C7.12961 29.3315 6.88675 28.6425 6.68678 27.9403C4.03483 27.5473 2 25.2613 2 22.5C2 19.6251 4.20579 17.2654 7.0173 17.0209C7.13917 16.6749 7.27185 16.3322 7.41535 15.993C7.61206 15.5279 7.82756 15.0727 8.06186 14.6275L8.06201 14.6272C8.36776 14.0462 8.70553 13.482 9.0753 12.9346C9.37572 12.49 9.69461 12.0603 10.032 11.6457L10.032 11.6456C10.4208 11.1678 10.8342 10.71 11.2721 10.2721C11.71 9.8342 12.1678 9.42086 12.6456 9.03205C13.0603 8.69466 13.4899 8.37574 13.9346 8.0753C14.4821 7.70543 15.0465 7.36759 15.6276 7.06177L15.6283 7.06144C16.0733 6.8273 16.5282 6.61193 16.993 6.41535C17.535 6.1861 18.0856 5.98445 18.6448 5.81041L18.6452 5.81029C19.2127 5.63364 19.7892 5.48544 20.3745 5.36567C20.7374 5.29141 21.1018 5.22847 21.4679 5.17683L21.468 5.17682C22.3037 5.05894 23.1477 5 24 5C25.2257 5 26.4342 5.12189 27.6255 5.36567C28.2106 5.4854 28.7869 5.63355 29.3543 5.81012C29.9138 5.98423 30.4647 6.18597 31.007 6.41535C31.4722 6.61208 31.9274 6.82762 32.3727 7.06196C32.9538 7.36772 33.518 7.70551 34.0654 8.0753C34.5103 8.37586 34.9401 8.69492 35.3549 9.03246C35.8325 9.42115 36.2902 9.83435 36.7279 10.2721C37.5458 11.0899 38.278 11.9775 38.9247 12.9346C39.2948 13.4825 39.6329 14.0473 39.9389 14.6289C40.1729 15.0738 40.3882 15.5284 40.5847 15.993C40.7562 16.3986 40.9123 16.8091 41.053 17.2243C43.3308 17.8967 44.9932 20.0042 44.9932 22.5C44.9932 25.0894 43.2037 27.2609 40.7939 27.8453C40.3707 28.1252 39.8389 28.2412 39.2917 28.1312C38.1937 27.9105 37.5044 26.8743 37.7251 25.7763C37.7702 25.552 37.8097 25.3268 37.8437 25.1008L37.8438 25.1007C37.9479 24.4083 38 23.7081 38 23C38 21.9336 37.8845 20.8936 37.6536 19.8798C37.4731 19.0875 37.2221 18.3113 36.9006 17.5512C36.5483 16.7182 36.1182 15.9257 35.6102 15.1739C35.3814 14.8352 35.1388 14.5076 34.8823 14.1913C34.5746 13.8116 34.247 13.448 33.8995 13.1005C33.2625 12.4635 32.5714 11.8933 31.8261 11.3898C31.0743 10.8819 30.2818 10.4517 29.4488 10.0994C28.6887 9.77786 27.9125 9.52687 27.1202 9.34639C26.1064 9.11547 25.0664 9 24 9C22.9336 9 21.8936 9.11546 20.8798 9.34638C20.0876 9.52686 19.3113 9.77785 18.5512 10.0994C18.2057 10.2455 17.8672 10.405 17.5356 10.5779C17.0678 10.8219 16.6139 11.0925 16.1739 11.3898C15.8352 11.6186 15.5076 11.8612 15.1913 12.1176L15.1912 12.1177C14.8115 12.4255 14.448 12.7531 14.1005 13.1005C13.753 13.448 13.4254 13.8116 13.1176 14.1914C12.8612 14.5077 12.6186 14.8352 12.3898 15.1739C12.0927 15.6136 11.8222 16.0672 11.5784 16.5347C11.4053 16.8665 11.2456 17.2054 11.0994 17.5512C10.7779 18.3113 10.5269 19.0875 10.3464 19.8798C10.1155 20.8936 10 21.9336 10 23C10 24.0664 10.1155 25.1064 10.3464 26.1202C10.5269 26.9125 10.7779 27.6887 11.0994 28.4488C11.2456 28.7945 11.4052 29.1333 11.5783 29.465C11.8221 29.9326 12.0927 30.3863 12.3898 30.8261C12.8933 31.5714 13.4635 32.2625 14.1005 32.8995C14.7375 33.5365 15.4286 34.1067 16.1739 34.6102C16.9257 35.1182 17.7182 35.5483 18.5512 35.9006C19.721 36.3954 20.9289 36.7232 22.1748 36.884C22.793 36.3341 23.6075 36 24.5 36C26.433 36 28 37.567 28 39.5C28 41.433 26.433 43 24.5 43C23.0227 43 21.7592 42.0848 21.2456 40.7904Z" fill="var(--tiny-first-color, #191919)" fill-rule="evenodd"/>
</svg>
