<svg viewBox="0 0 48 48" xmlns="http://www.w3.org/2000/svg" xmlns:xlink="http://www.w3.org/1999/xlink" width="48.000000" height="48.000000" fill="none">
  <path id="减去顶层" d="M11.996 6L36.002 6C39.308 6 42 8.692 42 11.998L42 36.002C42 39.308 39.308 42 36.002 42L11.996 42C8.69 42 6 39.308 6 36.002L6 11.998C6 8.692 8.69 6 11.996 6ZM26.8438 16.0439C26.8182 15.4048 26.8054 14.8975 26.8054 14.522C26.8054 13.6696 26.1451 13 25.3046 13C24.4642 13 23.8039 13.6696 23.8039 14.522C23.8039 14.9116 23.8159 15.4189 23.8399 16.0439L23.3037 16.0439C22.4632 16.0439 21.8029 16.7135 21.8029 17.5659C21.8029 16.7135 21.1426 16.0439 20.3022 16.0439L19.0516 16.0439L19.0516 14.7756C19.0516 13.9232 18.3912 13.2537 17.5508 13.2537C16.7104 13.2537 16.0501 13.9232 16.0501 14.7756L16.0501 16.0439L14.7995 16.0439C13.9591 16.0439 13.2987 16.7135 13.2987 17.5659C13.2987 18.4183 13.9591 19.0879 14.7995 19.0879L16.0501 19.0879L16.0501 20.457L14.5048 20.8769C13.6931 21.0973 13.2262 21.9175 13.4437 22.7409C13.6612 23.5641 14.4699 24.0377 15.2817 23.817L16.0501 23.6082L16.0501 24.1611L14.7995 24.1611C13.9591 24.1611 13.2987 24.8306 13.2987 25.683C13.2987 26.5354 13.9591 27.205 14.7995 27.205L17.3007 27.205C17.3429 27.205 17.3846 27.2033 17.4258 27.2C17.467 27.2033 17.5087 27.205 17.5508 27.205C18.3912 27.205 19.0516 26.5354 19.0516 25.683L19.0516 22.7927L20.5969 22.3726C21.4087 22.1521 21.8756 21.3319 21.6581 20.5087C21.4406 19.6853 20.6318 19.212 19.8201 19.4324L19.0516 19.6412L19.0516 19.0879L20.3022 19.0879C21.1426 19.0879 21.8029 18.4183 21.8029 17.5659C21.8029 18.4183 22.4632 19.0879 23.3037 19.0879L23.9107 19.0879C23.8782 19.8033 23.7741 20.4329 23.5985 20.9767C23.3933 21.6123 23.0629 22.2284 22.6072 22.8251C22.0694 23.5296 21.3296 24.2492 20.3877 24.984C19.7215 25.5037 19.6007 26.4428 20.1132 27.1183C20.6256 27.7938 21.5516 27.9164 22.2177 27.3967C23.3639 26.5025 24.2848 25.5998 24.9805 24.6887C25.6479 23.8145 26.138 22.893 26.4509 21.9242C26.7138 21.1102 26.8669 20.2018 26.9103 19.1988C26.9118 19.1624 26.9133 19.1253 26.9146 19.0879L27.3056 19.0879L27.3056 25.5914C27.3056 25.7492 27.3228 25.903 27.3572 26.0526C27.3895 26.1931 27.4368 26.3298 27.4993 26.4628C27.5597 26.5919 27.6318 26.7118 27.7153 26.8228C27.8022 26.9382 27.9015 27.0437 28.0132 27.1398C28.125 27.236 28.2441 27.3179 28.3706 27.3858C28.4923 27.451 28.6208 27.5035 28.7561 27.5426C28.8959 27.5832 29.0367 27.6083 29.1785 27.6174C29.3297 27.6271 29.4821 27.6192 29.6356 27.5932L32.0546 27.1842C32.8836 27.0442 33.4263 26.2736 33.2882 25.4328C33.15 24.5921 32.3901 24.0417 31.5611 24.1819L30.3071 24.3937L30.3071 18.0732C30.3071 17.9323 30.2932 17.7943 30.2655 17.659C30.2392 17.531 30.2005 17.4056 30.1493 17.2827C30.0994 17.1634 30.0394 17.0504 29.9695 16.9444C29.8974 16.8351 29.8145 16.7331 29.721 16.6382C29.6275 16.5436 29.5269 16.4596 29.4191 16.3863C29.3146 16.3154 29.2034 16.2547 29.0855 16.2039C28.9644 16.1522 28.8407 16.1128 28.7145 16.086C28.5812 16.058 28.4451 16.0439 28.3061 16.0439L26.8438 16.0439ZM17.1455 28.8102C17.6909 29.5335 17.7136 30.5955 17.197 31.2234L15.3211 33.5039C14.8045 34.1321 13.97 34.057 13.4245 33.3337C12.8791 32.6101 12.8564 31.5484 13.373 30.9205L15.2489 28.6398C15.7655 28.0118 16.6 28.0869 17.1455 28.8102ZM18.9283 30.2952L19.8393 32.9715C20.1135 33.7771 20.9531 34.1918 21.7475 33.9136C22.542 33.6357 22.9507 32.784 22.6765 31.9785L21.7656 29.3019C21.4913 28.4963 20.6517 28.0819 19.8573 28.3598C19.0629 28.638 18.6541 29.4894 18.9283 30.2952ZM24.3863 30.2952L25.2972 32.9715C25.5714 33.7771 26.4111 34.1918 27.2055 33.9136C27.9999 33.6357 28.4086 32.784 28.1344 31.9785L27.2235 29.3019C26.9493 28.4963 26.1097 28.0819 25.3152 28.3598C24.5208 28.638 24.1121 29.4894 24.3863 30.2952ZM29.6112 30.7917L31.2973 33.0486C31.8048 33.7278 32.7299 33.8571 33.3998 33.3424C34.0696 32.8276 34.1971 31.8895 33.6896 31.2103L32.0035 28.9534C31.496 28.2741 30.5709 28.1448 29.901 28.6596C29.2312 29.1743 29.1037 30.1124 29.6112 30.7917Z" fill="var(--tiny-first-color, #191919)" fill-rule="evenodd"/>
  <path id="矢量 1884" d="M26.8054 14.522C26.8054 14.8975 26.8182 15.4048 26.8438 16.0439L28.3061 16.0439C28.4451 16.0439 28.5812 16.058 28.7145 16.086C28.8407 16.1128 28.9644 16.1522 29.0855 16.2039C29.2034 16.2547 29.3146 16.3154 29.4191 16.3863C29.5269 16.4596 29.6275 16.5436 29.721 16.6382C29.8145 16.7331 29.8974 16.8351 29.9695 16.9444C30.0394 17.0504 30.0994 17.1634 30.1493 17.2827C30.2005 17.4056 30.2392 17.531 30.2655 17.659C30.2932 17.7943 30.3071 17.9323 30.3071 18.0732L30.3071 24.3937L31.5611 24.1819C32.3901 24.0417 33.15 24.5921 33.2882 25.4328C33.4263 26.2736 32.8836 27.0442 32.0546 27.1842L29.6356 27.5932C29.4821 27.6192 29.3297 27.6271 29.1785 27.6174C29.0367 27.6083 28.8959 27.5832 28.7561 27.5426C28.6208 27.5035 28.4923 27.451 28.3706 27.3858C28.2441 27.3179 28.125 27.236 28.0132 27.1398C27.9015 27.0437 27.8022 26.9382 27.7153 26.8228C27.6318 26.7118 27.5597 26.5919 27.4993 26.4628C27.4368 26.3298 27.3895 26.1931 27.3572 26.0526C27.3228 25.903 27.3056 25.7492 27.3056 25.5914L27.3056 19.0879L26.9146 19.0879C26.9133 19.1253 26.9118 19.1624 26.9103 19.1988C26.8669 20.2018 26.7138 21.1102 26.4509 21.9242C26.138 22.893 25.6479 23.8145 24.9805 24.6887C24.2848 25.5998 23.3639 26.5025 22.2177 27.3967C21.5516 27.9164 20.6256 27.7938 20.1132 27.1183C19.6007 26.4428 19.7215 25.5037 20.3877 24.984C21.3296 24.2492 22.0694 23.5296 22.6072 22.8251C23.0629 22.2284 23.3933 21.6123 23.5985 20.9767C23.7741 20.4329 23.8782 19.8033 23.9107 19.0879L23.3037 19.0879C22.4632 19.0879 21.8029 18.4183 21.8029 17.5659C21.8029 16.7135 22.4632 16.0439 23.3037 16.0439L23.8399 16.0439C23.8159 15.4189 23.8039 14.9116 23.8039 14.522C23.8039 13.6696 24.4642 13 25.3046 13C26.1451 13 26.8054 13.6696 26.8054 14.522ZM19.0516 22.7927L19.0516 25.683C19.0516 26.5354 18.3912 27.205 17.5508 27.205C17.5087 27.205 17.467 27.2033 17.4258 27.2C17.3846 27.2033 17.3429 27.205 17.3007 27.205L14.7995 27.205C13.9591 27.205 13.2987 26.5354 13.2987 25.683C13.2987 24.8306 13.9591 24.1611 14.7995 24.1611L16.0501 24.1611L16.0501 23.6082L15.2817 23.817C14.4699 24.0377 13.6612 23.5641 13.4437 22.7409C13.2262 21.9175 13.6931 21.0973 14.5048 20.8769L16.0501 20.457L16.0501 19.0879L14.7995 19.0879C13.9591 19.0879 13.2987 18.4183 13.2987 17.5659C13.2987 16.7135 13.9591 16.0439 14.7995 16.0439L16.0501 16.0439L16.0501 14.7756C16.0501 13.9232 16.7104 13.2537 17.5508 13.2537C18.3912 13.2537 19.0516 13.9232 19.0516 14.7756L19.0516 16.0439L20.3022 16.0439C21.1426 16.0439 21.8029 16.7135 21.8029 17.5659C21.8029 18.4183 21.1426 19.0879 20.3022 19.0879L19.0516 19.0879L19.0516 19.6412L19.8201 19.4324C20.6318 19.212 21.4406 19.6853 21.6581 20.5087C21.8756 21.3319 21.4087 22.1521 20.5969 22.3726L19.0516 22.7927ZM17.197 31.2234C17.7136 30.5955 17.6909 29.5335 17.1455 28.8102C16.6 28.0869 15.7655 28.0118 15.2489 28.6398L13.373 30.9205C12.8564 31.5484 12.8791 32.6101 13.4245 33.3337C13.97 34.057 14.8045 34.1321 15.3211 33.5039L17.197 31.2234ZM19.8393 32.9715L18.9283 30.2952C18.6541 29.4894 19.0629 28.638 19.8573 28.3598C20.6517 28.0819 21.4913 28.4963 21.7656 29.3019L22.6765 31.9785C22.9507 32.784 22.542 33.6357 21.7475 33.9136C20.9531 34.1918 20.1135 33.7771 19.8393 32.9715ZM25.2972 32.9715L24.3863 30.2952C24.1121 29.4894 24.5208 28.638 25.3152 28.3598C26.1097 28.0819 26.9493 28.4963 27.2235 29.3019L28.1344 31.9785C28.4086 32.784 27.9999 33.6357 27.2055 33.9136C26.4111 34.1918 25.5714 33.7771 25.2972 32.9715ZM31.2973 33.0486L29.6112 30.7917C29.1037 30.1124 29.2312 29.1743 29.901 28.6596C30.5709 28.1448 31.496 28.2741 32.0035 28.9534L33.6896 31.2103C34.1971 31.8895 34.0696 32.8276 33.3998 33.3424C32.7299 33.8571 31.8048 33.7278 31.2973 33.0486Z" fill="var(--tiny-second-color, #aeaeAE)" fill-rule="evenodd"/>
</svg>
