<svg viewBox="0 0 48 48" xmlns="http://www.w3.org/2000/svg" xmlns:xlink="http://www.w3.org/1999/xlink" width="48.000000" height="48.000000" fill="none">
  <path id="形状结合" d="M11.998 42C8.692 42 6 39.308 6 36.002L6 11.998C6 8.692 8.692 6 11.998 6L36.002 6C39.308 6 42 8.692 42 11.998C42 12.826 41.328 13.498 40.5 13.498C39.672 13.498 39 12.826 39 11.998C39 10.346 37.654 9 36.002 9L11.998 9C10.346 9 9 10.346 9 11.998L9 36.002C9 37.654 10.346 39 11.998 39L36.002 39C37.654 39 39 37.654 39 36.002L39 17.0126C39 16.1846 39.672 15.5126 40.5 15.5126C41.328 15.5126 42 16.1846 42 17.0126L42 36.002C42 39.308 39.308 42 36.002 42L11.998 42Z" fill="var(--tiny-first-color, #191919)" fill-rule="evenodd"/>
  <path id="合并" d="M13.25 19.75L13.25 22.2495L15.75 22.2495L15.75 19.75C15.75 18.91 16.41 18.25 17.25 18.25C18.09 18.25 18.75 18.91 18.75 19.75L18.75 27.75C18.75 28.59 18.09 29.25 17.25 29.25C16.41 29.25 15.75 28.59 15.75 27.75L15.75 25.2495L13.25 25.2495L13.25 27.75C13.25 28.59 12.59 29.25 11.75 29.25C10.91 29.25 10.25 28.59 10.25 27.75L10.25 19.75C10.25 18.91 10.91 18.25 11.75 18.25C12.59 18.25 13.25 18.91 13.25 19.75ZM24.732 18.5361C27.4642 18.5361 29.6237 20.892 29.6237 23.7361C29.6237 26.5803 27.4642 28.9361 24.732 28.9361C21.9999 28.9361 19.8404 26.5803 19.8404 23.7361C19.8404 20.892 21.9999 18.5361 24.732 18.5361ZM31.25 18.75L36.25 18.75C37.09 18.75 37.75 19.41 37.75 20.25C37.75 21.09 37.09 21.75 36.25 21.75L35.25 21.75L35.25 28.25C35.25 29.09 34.59 29.75 33.75 29.75C32.91 29.75 32.25 29.09 32.25 28.25L32.25 21.75L31.25 21.75C30.41 21.75 29.75 21.09 29.75 20.25C29.75 19.41 30.41 18.75 31.25 18.75ZM24.732 21.5361C23.7178 21.5361 22.8404 22.4934 22.8404 23.7361C22.8404 24.9789 23.7178 25.9361 24.732 25.9361C25.7462 25.9361 26.6237 24.9789 26.6237 23.7361C26.6237 22.4934 25.7462 21.5361 24.732 21.5361Z" fill="var(--tiny-second-color, #aeaeAE)" fill-rule="evenodd"/>
</svg>
