<svg viewBox="0 0 48 48" xmlns="http://www.w3.org/2000/svg" xmlns:xlink="http://www.w3.org/1999/xlink" width="48.000000" height="48.000000" fill="none">
  <path id="形状结合" d="M33.9029 6.00293C37.1515 6.00293 39.807 8.5424 39.9926 11.7445L40.0029 12.1029L40.0029 35.9054C40.0029 39.154 37.4634 41.8095 34.2613 41.995L33.9029 42.0054L15.1364 42.0054C11.8877 42.0054 9.23225 39.4659 9.04671 36.2638L9.03636 35.9054L9.03636 33.0981C9.03636 32.2697 9.70793 31.5981 10.5364 31.5981C11.2957 31.5981 11.9233 32.1625 12.0227 32.8946L12.0364 33.0981L12.0364 35.9054C12.0364 37.5223 13.2743 38.8502 14.8542 38.9927L15.1364 39.0054L33.9029 39.0054C35.5199 39.0054 36.8477 37.7674 36.9902 36.1875L37.0029 35.9054L37.0029 12.1029C37.0029 10.486 35.7649 9.15814 34.1851 9.0156L33.9029 9.00293L15.1364 9.00293C13.5194 9.00293 12.1916 10.2409 12.049 11.8208L12.0364 12.1029L12.0364 15.0825C12.0364 15.9109 11.3648 16.5825 10.5364 16.5825C9.77697 16.5825 9.14938 16.0182 9.05005 15.2861L9.03636 15.0825L9.03636 12.1029C9.03636 8.85431 11.5758 6.19882 14.7779 6.01328L15.1364 6.00293L33.9029 6.00293ZM16.1298 17.2798C16.6566 16.902 17.373 16.9068 17.895 17.2941L23.5652 22.9413C23.9429 23.468 24.0978 24.3722 23.7106 24.8942L18.0634 30.5665C17.4763 31.0023 16.4747 31.0993 15.9421 30.5669C15.4095 30.0344 15.3609 29.2011 15.7965 28.6138L18.8846 25.5L5.49756 25.502L5.29402 25.4883C4.56187 25.389 3.99756 24.7614 3.99756 24.002C3.99756 23.2426 4.56187 22.615 5.29402 22.5157L5.49756 22.502L18.8846 22.5L15.9419 19.5607C15.5642 19.0339 15.4094 18.1296 15.7967 17.6076L16.1298 17.2798Z" fill="var(--tiny-first-color, #191919)" fill-rule="evenodd"/>
  <path id="形状结合" d="M16.1298 17.2798C16.6566 16.902 17.373 16.9068 17.895 17.2941L23.5652 22.9413C23.9429 23.468 24.0978 24.3722 23.7106 24.8942L18.0634 30.5665C17.4763 31.0023 16.4747 31.0993 15.9421 30.5669C15.4095 30.0344 15.3609 29.2011 15.7965 28.6138L18.8846 25.5L5.49756 25.502L5.29402 25.4883C4.56187 25.389 3.99756 24.7614 3.99756 24.002C3.99756 23.2426 4.56187 22.615 5.29402 22.5157L5.49756 22.502L18.8846 22.5L15.9419 19.5607C15.5642 19.0339 15.4094 18.1296 15.7967 17.6076L16.1298 17.2798Z" fill="var(--tiny-second-color, #aeaeAE)" fill-rule="evenodd"/>
</svg>
