<svg viewBox="0 0 48 48" xmlns="http://www.w3.org/2000/svg" xmlns:xlink="http://www.w3.org/1999/xlink" width="48.000000" height="48.000000">
  <path id="形状结合" d="M33.4029 5.99902C36.9223 5.99902 39.7983 8.75367 39.9925 12.2245L40.0029 12.599L40.0029 35.4015C40.0029 38.9209 37.2483 41.7969 33.7774 41.991L33.4029 42.0015L15.6364 42.0015C12.117 42.0015 9.24097 39.2468 9.04681 35.776L9.03636 35.4015L9.03636 33.5228C9.03636 32.4183 9.93179 31.5228 11.0364 31.5228C12.062 31.5228 12.9074 32.2949 13.0229 33.2896L13.0364 33.5228L13.0364 35.4015C13.0364 36.7477 14.0595 37.8549 15.3705 37.988L15.6364 38.0015L33.4029 38.0015C34.7491 38.0015 35.8563 36.9784 35.9895 35.6673L36.0029 35.4015L36.0029 12.599C36.0029 11.2528 34.9798 10.1456 33.6687 10.0124L33.4029 9.99902L15.6364 9.99902C14.2902 9.99902 13.1829 11.0221 13.0498 12.3332L13.0364 12.599L13.0364 15.5786C13.0364 16.6832 12.1409 17.5786 11.0364 17.5786C10.0107 17.5786 9.16534 16.8065 9.04981 15.8119L9.03636 15.5786L9.03636 12.599C9.03636 9.07964 11.791 6.20363 15.2618 6.00947L15.6364 5.99902L33.4029 5.99902ZM15.964 17.089C16.564 16.9078 17.2167 17.0146 17.7262 17.3927L23.6188 23.2737L23.7655 23.4939L23.8805 23.7242L23.966 23.975L24.0344 24.4099L24.0258 24.6972L23.9576 25.05L23.7685 25.4961L23.5088 25.8495L17.9498 31.4125L17.7101 31.6154L17.3985 31.7984L17.1613 31.8915C16.4418 32.125 15.663 31.9474 15.1284 31.413C14.4287 30.7136 14.3479 29.6068 14.9352 28.815L17.2317 26.4851L6.00765 26.4931L5.68748 26.4671L5.37222 26.3884L5.13262 26.2892C4.44065 25.9516 3.99756 25.2657 3.99756 24.4981C3.99756 23.5019 4.74682 22.6554 5.7353 22.5213L5.95997 22.5043L17.2287 22.4981L15.1285 20.4071L14.9212 20.1613L14.7367 19.8434L14.6382 19.5837C14.4506 18.9709 14.5574 18.3183 14.9354 17.8087L15.3723 17.3796L15.7106 17.1843L15.964 17.089Z" fill="var(--tiny-first-color)" fill-rule="evenodd"/>
  <path id="形状结合" d="M15.964 17.089C16.564 16.9078 17.2167 17.0146 17.7262 17.3927L23.6188 23.2737L23.7655 23.4939L23.8805 23.7242L23.966 23.975L24.0344 24.4099L24.0258 24.6972L23.9576 25.05L23.7685 25.4961L23.5088 25.8495L17.9498 31.4125L17.7101 31.6154L17.3985 31.7984L17.1613 31.8915C16.4418 32.125 15.663 31.9474 15.1284 31.413C14.4287 30.7136 14.3479 29.6068 14.9352 28.815L17.2317 26.4851L6.00765 26.4931L5.68748 26.4671L5.37222 26.3884L5.13262 26.2892C4.44065 25.9516 3.99756 25.2657 3.99756 24.4981C3.99756 23.5019 4.74682 22.6554 5.7353 22.5213L5.95997 22.5043L17.2287 22.4981L15.1285 20.4071L14.9212 20.1613L14.7367 19.8434L14.6382 19.5837C14.4506 18.9709 14.5574 18.3183 14.9354 17.8087L15.3723 17.3796L15.7106 17.1843L15.964 17.089Z" fill="var(--tiny-second-color)" fill-rule="evenodd"/>
</svg>