<svg viewBox="0 0 48 48" xmlns="http://www.w3.org/2000/svg" xmlns:xlink="http://www.w3.org/1999/xlink" width="48.000000" height="48.000000">
  <path id="减去顶层" d="M24.242 6C26.038 6 27.5 7.46 27.5 9.258L27.5 21.2123L25.7236 22.2429C24.0444 23.2197 23 25.0394 23 26.9906L23 34.0112C23 35.7288 23.8092 37.3444 25.15 38.3713C24.8617 38.4551 24.557 38.5 24.242 38.5L21.256 38.5C19.46 38.5 18 37.04 18 35.242L18 9.258C18 7.46 19.46 6 21.256 6L24.242 6ZM41.5 21.2133L41.5 15.758C41.5 13.96 40.038 12.5 38.242 12.5L35.256 12.5C33.46 12.5 32 13.96 32 15.758L32 18.6083C33.6381 17.7577 35.619 17.7992 37.226 18.7326L41.5 21.2133ZM10.242 20.5C12.038 20.5 13.5 21.96 13.5 23.758L13.5 35.242C13.5 37.04 12.038 38.5 10.242 38.5L7.256 38.5C5.46 38.5 4 37.04 4 35.242L4 23.758C4 21.96 5.46 20.5 7.256 20.5L10.242 20.5Z" fill="var(--tiny-first-color, #191919)" fill-rule="evenodd"/>
  <path id="减去顶层" d="M36.7519 20.6008L41.7481 23.4792C43.1373 24.2802 44 25.7723 44 27.3723L44 33.1292C44 34.7292 43.1373 36.2213 41.7501 37.0203L36.7519 39.8987C36.0573 40.3002 35.2787 40.5 34.5 40.5C33.7213 40.5 32.9427 40.3002 32.2481 39.8987L27.2519 37.0203C25.8627 36.2213 25 34.7292 25 33.1292L25 27.3723C25 25.7723 25.8627 24.2802 27.2499 23.4792L32.2481 20.6008C33.6353 19.7997 35.3627 19.7997 36.7519 20.6008ZM30.103 27.646L30.302 32.7821C30.3345 33.6205 31.0201 34.2537 31.8601 34.2213C32.7002 34.1889 33.3348 33.5047 33.3023 32.6664L33.2514 31.3516L36.5557 34.6491C37.1502 35.2423 38.0844 35.2423 38.6788 34.6491C39.2733 34.0558 39.2733 33.1236 38.6788 32.5304L35.3745 29.2329L36.692 29.2837C37.5321 29.3161 38.2177 28.6829 38.2501 27.8446C38.2826 27.0063 37.6481 26.3221 36.808 26.2897L31.6612 26.0912C31.6419 26.0904 31.6226 26.09 31.6032 26.09C31.5839 26.09 31.5645 26.0904 31.5452 26.0912C31.1309 26.1071 30.783 26.2669 30.5014 26.5705C30.3606 26.7223 30.257 26.8879 30.1906 27.0671L30.19 27.0689C30.124 27.2476 30.0951 27.44 30.103 27.646Z" fill="var(--tiny-second-color, #aeaeAE)" fill-rule="evenodd"/>
</svg>