<svg viewBox="0 0 48 48" xmlns="http://www.w3.org/2000/svg" xmlns:xlink="http://www.w3.org/1999/xlink" width="48.000000" height="48.000000" fill="none">
  <path id="形状结合" d="M24.03 5.5C35.2971 5.5 44.556 13.3198 44.556 23.068C44.556 32.8179 35.2975 40.638 24.03 40.638C22.9856 40.638 21.9326 40.5551 20.9017 40.4289C20.0794 40.3282 19.4944 39.58 19.5951 38.7577C19.6958 37.9354 20.444 37.3504 21.2663 37.4511C22.1866 37.5638 23.1291 37.638 24.03 37.638C33.7423 37.638 41.556 31.0382 41.556 23.068C41.556 15.0995 33.742 8.5 24.03 8.5C14.3159 8.5 6.5 15.0996 6.5 23.068C6.5 26.283 8.02567 29.6238 10.683 32.3338C10.9895 32.6463 11.1441 33.0772 11.1064 33.5132C10.9684 35.1095 10.5614 36.7139 9.96096 38.2858L9.656 39.034L10.1177 38.9175C10.6353 38.7741 11.1461 38.6099 11.6439 38.4236L12.38 38.1275C13.4927 37.6471 14.46 37.0701 15.243 36.3956C15.8706 35.8549 16.8177 35.9253 17.3584 36.553C17.8991 37.1806 17.8287 38.1277 17.201 38.6684C16.1692 39.5574 14.9444 40.288 13.5692 40.8818C12.1457 41.4964 10.6358 41.9347 9.12808 42.2302L8.4001 42.3622C7.83631 42.4557 7.38413 42.5094 7.07681 42.5334C5.84105 42.63 5.02813 41.271 5.69759 40.2279L5.96656 39.7707C6.25916 39.2339 6.65079 38.4528 6.92496 37.7982C7.37944 36.7133 7.72781 35.6155 7.93645 34.5372L8.042 33.906L7.66876 33.4857C5.16259 30.5768 3.66346 27.1168 3.5126 23.6464L3.5 23.068C3.5 13.3197 12.7609 5.5 24.03 5.5ZM14.9996 20.5C16.3796 20.5 17.4996 21.62 17.4996 23C17.4996 24.38 16.3796 25.5 14.9996 25.5C13.6196 25.5 12.4996 24.38 12.4996 23C12.4996 21.62 13.6196 20.5 14.9996 20.5ZM32.9996 20.5C34.3796 20.5 35.4996 21.62 35.4996 23C35.4996 24.38 34.3796 25.5 32.9996 25.5C31.6196 25.5 30.4996 24.38 30.4996 23C30.4996 21.62 31.6196 20.5 32.9996 20.5ZM23.9996 20.5C25.3796 20.5 26.4996 21.62 26.4996 23C26.4996 24.38 25.3796 25.5 23.9996 25.5C22.6196 25.5 21.4996 24.38 21.4996 23C21.4996 21.62 22.6196 20.5 23.9996 20.5Z" fill="var(--tiny-first-color)" fill-rule="evenodd"/>
  <path id="形状结合" d="M14.9998 20.5C16.3798 20.5 17.4998 21.62 17.4998 23C17.4998 24.38 16.3798 25.5 14.9998 25.5C13.6198 25.5 12.4998 24.38 12.4998 23C12.4998 21.62 13.6198 20.5 14.9998 20.5ZM32.9998 20.5C34.3798 20.5 35.4998 21.62 35.4998 23C35.4998 24.38 34.3798 25.5 32.9998 25.5C31.6198 25.5 30.4998 24.38 30.4998 23C30.4998 21.62 31.6198 20.5 32.9998 20.5ZM23.9998 20.5C25.3798 20.5 26.4998 21.62 26.4998 23C26.4998 24.38 25.3798 25.5 23.9998 25.5C22.6198 25.5 21.4998 24.38 21.4998 23C21.4998 21.62 22.6198 20.5 23.9998 20.5Z" fill="var(--tiny-second-color)" fill-rule="evenodd"/>
</svg>