<svg viewBox="0 0 48 48" xmlns="http://www.w3.org/2000/svg" xmlns:xlink="http://www.w3.org/1999/xlink" width="48.000000" height="48.000000">
  <path id="减去顶层" d="M45.5 24C45.5 12.1259 35.8741 2.5 24 2.5C12.1259 2.5 2.5 12.1259 2.5 24C2.5 35.8741 12.1259 45.5 24 45.5C35.8741 45.5 45.5 35.8741 45.5 24ZM24 11.5C22.6193 11.5 21.5 12.6193 21.5 14C21.5 15.3807 22.6193 16.5 24 16.5C25.3807 16.5 26.5 15.3807 26.5 14C26.5 12.6193 25.3807 11.5 24 11.5ZM24 19.5C23.1716 19.5 22.5 20.1716 22.5 21L22.5 35L22.5137 35.2035C22.613 35.9357 23.2406 36.5 24 36.5C24.8284 36.5 25.5 35.8284 25.5 35L25.5 21L25.4863 20.7965C25.387 20.0643 24.7594 19.5 24 19.5Z" fill="var(--tiny-first-color)" fill-rule="evenodd"/>
  <path id="合并" d="M21.5 14C21.5 12.6193 22.6193 11.5 24 11.5C25.3807 11.5 26.5 12.6193 26.5 14C26.5 15.3807 25.3807 16.5 24 16.5C22.6193 16.5 21.5 15.3807 21.5 14ZM22.5 21C22.5 20.1716 23.1716 19.5 24 19.5C24.7594 19.5 25.387 20.0643 25.4863 20.7965L25.5 21L25.5 35C25.5 35.8284 24.8284 36.5 24 36.5C23.2406 36.5 22.613 35.9357 22.5137 35.2035L22.5 35L22.5 21Z" fill="var(--tiny-second-color)" fill-rule="evenodd"/>
</svg>