<svg viewBox="0 0 48 48" xmlns="http://www.w3.org/2000/svg" xmlns:xlink="http://www.w3.org/1999/xlink" width="48.000000" height="48.000000">
  <path id="path" d="M33.84 6.3999C33.5867 5.6999 33.1533 5.1266 32.54 4.67993C31.9333 4.2266 31.2466 4 30.48 4L17.52 4C16.7534 4 16.0667 4.2266 15.46 4.67993C14.8467 5.1266 14.4133 5.6999 14.16 6.3999L12.48 6.3999C11.3266 6.3999 10.2533 6.69671 9.26001 7.29004C8.27334 7.88337 7.48335 8.68327 6.89001 9.68994C6.29668 10.6966 6 11.7766 6 12.9299L6 37.96C6 39.1066 6.29668 40.1766 6.89001 41.1699C7.48335 42.1633 8.27334 42.9567 9.26001 43.55C10.2533 44.1434 11.3266 44.4399 12.48 44.4399L35.52 44.4399C36.6734 44.4399 37.7467 44.1434 38.74 43.55C39.7267 42.9567 40.5167 42.1633 41.11 41.1699C41.7033 40.1766 42 39.1066 42 37.96L42 12.9299C42 11.7766 41.7033 10.6966 41.11 9.68994C40.5167 8.68327 39.7267 7.88337 38.74 7.29004C37.7467 6.69671 36.6734 6.3999 35.52 6.3999L33.84 6.3999ZM16.99 7.51001C16.99 7.35001 17.04 7.22012 17.14 7.12012C17.2333 7.02678 17.36 6.97998 17.52 6.97998L30.48 6.97998C30.64 6.97998 30.7667 7.02678 30.86 7.12012C30.96 7.22012 31.01 7.35001 31.01 7.51001L31.01 10.9199C31.01 11.0466 30.96 11.1567 30.86 11.25C30.7667 11.35 30.64 11.3999 30.48 11.3999L17.52 11.3999C17.1667 11.3999 16.99 11.2399 16.99 10.9199L16.99 7.51001ZM39.02 37.96C39.02 38.92 38.67 39.7433 37.97 40.4299C37.2633 41.1166 36.4467 41.46 35.52 41.46L12.48 41.46C11.52 41.46 10.7034 41.1166 10.03 40.4299C9.3567 39.7433 9.02002 38.92 9.02002 37.96L9.02002 12.9299C9.02002 11.9699 9.3567 11.1466 10.03 10.46C10.7034 9.77329 11.52 9.42993 12.48 9.42993L14.02 9.42993L14.02 10.9199C14.02 11.8466 14.3633 12.6601 15.05 13.3601C15.7367 14.0668 16.56 14.4199 17.52 14.4199L30.48 14.4199C31.44 14.4199 32.2633 14.0668 32.95 13.3601C33.6367 12.6601 33.98 11.8466 33.98 10.9199L33.98 9.42993L35.52 9.42993C36.4467 9.42993 37.2633 9.77329 37.97 10.46C38.67 11.1466 39.02 11.9699 39.02 12.9299L39.02 37.96Z" fill="var(--tiny-first-color, #191919)" fill-rule="nonzero"/>
  <path id="合并" d="M32.5 18C33.3284 18 34 18.6716 34 19.5C34 20.2594 33.4357 20.887 32.7035 20.9863L32.5 21L15.5 21C14.6716 21 14 20.3284 14 19.5C14 18.7406 14.5643 18.113 15.2964 18.0137L15.5 18L32.5 18ZM30.1697 24.1399C30.2963 24.093 30.425 24.0579 30.5558 24.0346C30.6852 24.0115 30.8166 24 30.9501 24C31.0835 24 31.2149 24.0115 31.3443 24.0346C31.4751 24.0579 31.6038 24.093 31.7304 24.1399L36.018 25.7276C36.1614 25.7808 36.299 25.8444 36.4306 25.9185C36.5558 25.989 36.6757 26.069 36.7903 26.1586C36.8997 26.2441 37.002 26.3366 37.0972 26.4359C37.2014 26.5448 37.2971 26.6619 37.3841 26.7874C37.4677 26.9079 37.5414 27.0333 37.6053 27.1636C37.6683 27.2922 37.7216 27.4256 37.7653 27.5637C37.808 27.6985 37.8405 27.8349 37.8629 27.973C37.8877 28.1259 37.9001 28.2807 37.9001 28.4376L37.9001 32.5551C37.9001 32.8747 37.8775 33.191 37.8322 33.5041C37.7916 33.785 37.7327 34.0633 37.6556 34.339C37.5755 34.6251 37.4773 34.9035 37.3608 35.1739C37.2441 35.4448 37.1092 35.7078 36.9559 35.9629C36.7942 36.2321 36.6153 36.4873 36.4192 36.7285C36.2437 36.9443 36.0545 37.1489 35.8515 37.3422C35.6359 37.5476 35.4086 37.7366 35.1695 37.9095C34.9231 38.0876 34.6641 38.2485 34.3927 38.3921L31.7094 39.8116C31.5902 39.8747 31.467 39.9219 31.34 39.9534C31.2139 39.9845 31.0839 40.0001 30.9501 40.0001C30.8162 40.0001 30.6863 39.9846 30.5602 39.9534C30.4331 39.9219 30.31 39.8747 30.1907 39.8116L27.5074 38.3921C27.236 38.2485 26.977 38.0876 26.7305 37.9094C26.4915 37.7366 26.2642 37.5475 26.0486 37.3422C25.8456 37.1489 25.6564 36.9443 25.481 36.7286C25.2848 36.4873 25.1059 36.2321 24.9442 35.9629C24.7909 35.7077 24.6559 35.4446 24.5392 35.1737C24.4228 34.9033 24.3245 34.625 24.2445 34.339C24.1674 34.0634 24.1086 33.7851 24.068 33.5043C24.0227 33.1912 24 32.8748 24 32.5551L24 28.4376C24 28.2808 24.0124 28.1259 24.0372 27.9731C24.0596 27.835 24.0921 27.6985 24.1348 27.5637C24.1785 27.4255 24.2319 27.2922 24.2949 27.1635C24.3587 27.0333 24.4324 26.9079 24.516 26.7874C24.603 26.662 24.6987 26.5448 24.8029 26.436C24.898 26.3366 25.0004 26.2441 25.1099 26.1586C25.2244 26.069 25.3443 25.989 25.4695 25.9185C25.6012 25.8444 25.7387 25.7808 25.8821 25.7276L30.1697 24.1399ZM24 25.5C24 24.6716 23.3284 24 22.5 24L15.5 24L15.2964 24.0137C14.5643 24.113 14 24.7406 14 25.5C14 26.3284 14.6716 27 15.5 27L22.5 27L22.7035 26.9863C23.4357 26.887 24 26.2594 24 25.5ZM30.8643 26.0154L26.5767 27.6032C26.4933 27.6341 26.4177 27.6752 26.3499 27.7267C26.2774 27.7818 26.2139 27.8487 26.1593 27.9273C26.1073 28.0024 26.068 28.0815 26.0414 28.1647C26.0138 28.2513 26 28.3422 26 28.4376L26 32.5551C26 32.7833 26.0165 33.009 26.0495 33.2324C26.0778 33.4234 26.1182 33.6127 26.1706 33.8002C26.2264 33.9997 26.2949 34.1937 26.3761 34.3823C26.4575 34.5714 26.5517 34.755 26.6587 34.9331C26.774 35.125 26.9018 35.3067 27.0421 35.4782C27.1617 35.6242 27.2903 35.7629 27.4281 35.8941C27.5769 36.0359 27.7339 36.1665 27.8989 36.286C28.0713 36.4109 28.2526 36.5237 28.4426 36.6242L30.9501 37.9507L33.4575 36.6242C33.6475 36.5237 33.8288 36.411 34.0012 36.2861C34.1662 36.1665 34.3232 36.0359 34.4721 35.8941C34.6098 35.7629 34.7385 35.6242 34.858 35.4781C34.9984 35.3067 35.1262 35.125 35.2414 34.9331C35.3484 34.755 35.4426 34.5715 35.524 34.3824C35.6052 34.1938 35.6737 33.9998 35.7295 33.8002C35.782 33.6127 35.8223 33.4234 35.8506 33.2323C35.8836 33.009 35.9001 32.7833 35.9001 32.5551L35.9001 28.4376C35.9001 28.3422 35.8863 28.2512 35.8587 28.1647C35.8321 28.0815 35.7928 28.0024 35.7408 27.9273C35.6862 27.8487 35.6227 27.7818 35.5502 27.7267C35.4825 27.6753 35.4069 27.6341 35.3234 27.6032L31.0358 26.0154C31.0072 26.0048 30.9786 25.9995 30.9501 25.9995C30.9215 25.9995 30.8929 26.0048 30.8643 26.0154ZM34.5055 30.9794L31.2503 34.3512C31.2385 34.3635 31.2264 34.3754 31.214 34.387C31.1386 34.4579 31.0578 34.52 30.9715 34.5733C30.8873 34.6252 30.7981 34.6688 30.7036 34.704C30.6146 34.7372 30.524 34.7618 30.4319 34.7778C30.3345 34.7948 30.2355 34.8021 30.1347 34.7997C29.9387 34.7952 29.7507 34.7546 29.5707 34.6778C29.3828 34.5976 29.2177 34.484 29.0753 34.3371L27.3958 32.6032C26.9867 32.1808 26.9971 31.5275 27.4195 31.1184C27.8419 30.7093 28.4951 30.7197 28.9042 31.1421L30.169 32.4478L32.9947 29.5208C33.4031 29.0978 34.0563 29.0863 34.4794 29.4947C34.9024 29.9031 34.9139 30.5564 34.5055 30.9794ZM18.5 30C19.3284 30 20 30.6716 20 31.5C20 32.2594 19.4357 32.887 18.7035 32.9863L18.5 33L15.5 33C14.6716 33 14 32.3284 14 31.5C14 30.7406 14.5643 30.113 15.2964 30.0137L15.5 30L18.5 30Z" fill="var(--tiny-second-color, #aeaeAE)" fill-rule="evenodd"/>
</svg>