<svg viewBox="0 0 48 48" xmlns="http://www.w3.org/2000/svg" xmlns:xlink="http://www.w3.org/1999/xlink" width="48.000000" height="48.000000">
  <path id="减去顶层" d="M17 4L31 4C32.1 4 33 4.88 33 6L33 8C33 9.1 32.1 10 31 10L17 10C15.88 10 15 9.1 15 8L15 6C15 4.88 15.88 4 17 4ZM11.9769 7.63846C11.955 7.41212 11.9342 7.1974 12 7C8.68 7 6 9.68 6 13L6 38C6 41.3 8.68 44 12 44L36 44C39.3 44 42 41.3 42 38L42 13C42 9.68 39.18 7 35.86 7C35.94 7.3 36 7.64 36 8L36 9C36 11.2 34.2 13 32 13L16 13C13.78 13 12 11.2 12 9L12 8C12 7.87688 11.9883 7.7561 11.9769 7.63846ZM32.5 18C33.3284 18 34 18.6714 34 19.5C34 20.2593 33.4357 20.8872 32.7035 20.9863L32.5 21L15.5 21C14.6716 21 14 20.3286 14 19.5C14 18.7407 14.5643 18.1128 15.2964 18.0137L15.5 18L32.5 18ZM24 25.5C24 24.6714 23.3284 24 22.5 24L15.5 24L15.2964 24.0137C14.5643 24.1128 14 24.7407 14 25.5C14 26.3286 14.6716 27 15.5 27L22.5 27L22.7035 26.9863C23.4357 26.8872 24 26.2593 24 25.5ZM32.1003 34.1012L35.3555 30.7294C35.7639 30.3064 35.7524 29.6531 35.3293 29.2447C34.9063 28.8363 34.253 28.8478 33.8446 29.2708L31.0189 32.1978L29.7542 30.8921C29.3451 30.4697 28.6918 30.4593 28.2695 30.8684C27.8471 31.2775 27.8367 31.9308 28.2458 32.3532L29.9253 34.0871C29.9973 34.1615 30.0752 34.2272 30.1588 34.2845C30.2406 34.3404 30.3278 34.3882 30.4207 34.4278C30.508 34.465 30.5971 34.4938 30.6882 34.514C30.7849 34.5355 30.8837 34.5474 30.9847 34.5497C31.0854 34.5521 31.1845 34.5448 31.2819 34.5278C31.374 34.5118 31.4645 34.4872 31.5536 34.454C31.648 34.4188 31.7373 34.3752 31.8214 34.3233C31.9077 34.27 31.9886 34.2079 32.064 34.137C32.0702 34.1312 32.0763 34.1253 32.0824 34.1194C32.0884 34.1134 32.0944 34.1074 32.1003 34.1012ZM18.5 30C19.3284 30 20 30.6714 20 31.5C20 32.2593 19.4357 32.8872 18.7035 32.9863L18.5 33L15.5 33C14.6716 33 14 32.3286 14 31.5C14 30.7407 14.5643 30.1128 15.2964 30.0137L15.5 30L18.5 30Z" fill="var(--tiny-first-color, #191919)" fill-rule="evenodd"/>
  <path id="减去顶层" d="M27.2294 26.6654L31.517 25.0776C31.7965 24.9741 32.1036 24.9741 32.3831 25.0776L36.6707 26.6654C37.4094 26.9389 37.9001 27.6463 37.9001 28.4376L37.9001 32.5551C37.9001 34.6332 36.7547 36.5403 34.9251 37.5082L32.2418 38.9277C32.0592 39.0243 31.841 39.0243 31.6583 38.9277L28.975 37.5082C27.1455 36.5403 26 34.6332 26 32.5551L26 28.4376C26 27.6463 26.4907 26.9389 27.2294 26.6654ZM32.1003 34.1012L35.3555 30.7294C35.7639 30.3064 35.7524 29.6531 35.3293 29.2447C34.9063 28.8363 34.253 28.8478 33.8446 29.2708L31.0189 32.1978L29.7542 30.8921C29.3451 30.4697 28.6918 30.4593 28.2695 30.8684C27.8471 31.2775 27.8367 31.9308 28.2458 32.3532L29.9253 34.0871C29.9973 34.1615 30.0752 34.2272 30.1588 34.2845L30.1589 34.2845C30.2406 34.3404 30.3279 34.3882 30.4207 34.4278C30.508 34.465 30.5971 34.4938 30.6882 34.514C30.7849 34.5355 30.8837 34.5474 30.9847 34.5497C31.0854 34.5521 31.1845 34.5448 31.2819 34.5278C31.374 34.5118 31.4645 34.4872 31.5536 34.454C31.648 34.4188 31.7373 34.3752 31.8214 34.3233C31.9077 34.27 31.9886 34.2079 32.064 34.137C32.0702 34.1312 32.0763 34.1253 32.0824 34.1194C32.0851 34.1167 32.0878 34.1139 32.0905 34.1112C32.0938 34.1079 32.0971 34.1046 32.1003 34.1012Z" fill="var(--tiny-second-color, #aeaeAE)" fill-rule="evenodd"/>
</svg>