<svg viewBox="0 0 48 48" xmlns="http://www.w3.org/2000/svg" xmlns:xlink="http://www.w3.org/1999/xlink" width="48.000000" height="48.000000">
  <path id="减去顶层" d="M25.0051 4.00797C18.8379 4.22178 15.7474 8.4749 15.7474 15.0056L15.7518 15.3315L15.6442 15.4845C14.9239 16.6036 14.7984 18.1497 15.2974 19.5957L15.4259 19.9326C15.8416 20.9254 16.5249 21.751 17.3563 22.2616L17.6058 22.4015L17.9175 22.9162C18.0202 23.0766 18.1263 23.2335 18.2357 23.3867L18.4472 23.6696C19.5719 25.1912 19.6216 25.7452 18.9343 26.1557L18.6754 26.2913L18.417 26.4105L17.986 26.5931L17.6342 26.7339L15.5582 27.5193L14.3605 27.9847L13.1041 28.5108L12.6108 28.7327C12.4266 28.8174 12.2583 28.897 12.0932 28.9772L11.6062 29.2203C8.05839 31.0449 6.01168 33.2512 6.02055 36.2671L5.99998 38.0264L6.00169 38.5483L6.0189 39.0883L6.04057 39.4071C6.22786 41.5707 7.2469 42.911 9.37418 42.9974L24.5419 42.9984C24.1899 41.8951 24 40.7195 24 39.4995L24 30.4995C24 24.1482 29.1487 18.9995 35.5 18.9995C35.6227 18.9995 35.7449 19.0014 35.8666 19.0052C36.1524 17.7406 35.9749 16.4543 35.3533 15.4861L35.2438 15.3315L35.2494 15.0056C35.2494 8.30303 31.994 3.99951 25.4984 3.99951L25.0051 4.00797Z" fill="var(--tiny-first-color, #191919)" fill-rule="evenodd"/>
  <path id="合并" d="M40.5 33.5C40.5 37.0899 37.5899 40 34 40C30.4101 40 27.5 37.0899 27.5 33.5L27.5 28.5C27.5 24.9101 30.4102 22 34 22C37.5899 22 40.5 24.9101 40.5 28.5L40.5 33.5ZM33.9285 28.7139C35.1119 28.7139 36.0713 29.6732 36.0713 30.8567C36.0713 32.0401 35.1119 32.9995 33.9285 32.9995C32.745 32.9995 31.7856 32.0401 31.7856 30.8567C31.7856 29.6732 32.745 28.7139 33.9285 28.7139ZM40.5 41.5L27.5 41.5C26.66 41.5 26 42.16 26 43C26 43.84 26.66 44.5 27.5 44.5L40.5 44.5C41.34 44.5 42 43.84 42 43C42 42.16 41.34 41.5 40.5 41.5Z" fill="var(--tiny-second-color, #aeaeAE)" fill-rule="evenodd"/>
</svg>