<svg viewBox="0 0 48 48" xmlns="http://www.w3.org/2000/svg" xmlns:xlink="http://www.w3.org/1999/xlink" width="48.000000" height="48.000000">
  <path id="合并" d="M3.55762 18.8158L20.0883 5.24567C20.347 5.03327 20.6202 4.84721 20.9078 4.68748C21.1638 4.5453 21.4313 4.42399 21.7102 4.32353C21.9892 4.22304 22.2726 4.14596 22.5602 4.09229C22.5641 4.09155 22.5681 4.09082 22.572 4.0901C22.875 4.03426 23.1828 4.00438 23.4953 4.00044C23.8119 3.99646 24.1243 4.01923 24.4324 4.06874C24.7213 4.11516 25.0065 4.1851 25.2879 4.27854C25.5692 4.37195 25.8396 4.4865 26.0991 4.62219C26.3906 4.77464 26.6683 4.95377 26.9322 5.1596L44.4131 18.792C45.0769 19.3096 45.1943 20.2411 44.6798 20.9091C44.1654 21.577 43.2397 21.6951 42.576 21.1774L41.5 20.3384L41.5 37.9993C41.5 41.313 38.8137 43.9993 35.5 43.9993L12.5 43.9993C9.18629 43.9993 6.5 41.313 6.5 37.9993L6.5 20.2952L5.45347 21.1543C4.80276 21.6884 3.87441 21.5937 3.34357 20.9389C2.81274 20.2841 2.90692 19.3499 3.55762 18.8158ZM30.9124 17.8856L30.6736 17.6757C29.4401 16.6981 27.6447 16.7831 26.5084 17.9188L26.1884 18.2372L30.6284 22.6777L30.9484 22.3593L31.1542 22.1327C32.182 20.8847 32.0964 19.0331 30.9124 17.8856ZM28.508 24.7988L24.068 20.3593L17.488 26.9384L16.016 29.9492L14.0817 34.0625C13.8834 34.4834 14.3189 34.9238 14.7425 34.7295L18.5 33.0068L21.82 31.4853L28.508 24.7988ZM32.5 36L14.5 36C13.66 36 13 36.6601 13 37.5C13 38.3398 13.66 39 14.5 39L32.5 39C33.34 39 34 38.3398 34 37.5C34 36.6601 33.34 36 32.5 36Z" fill="var(--tiny-first-color, #191919)" fill-rule="evenodd"/>
  <path id="合并" d="M30.9124 17.8853L30.6736 17.6756C29.4401 16.698 27.6447 16.7831 26.5084 17.9193L26.1884 18.2373L30.6284 22.6773L30.9484 22.3593L31.1542 22.1328C32.182 20.8852 32.0964 19.0336 30.9124 17.8853ZM28.508 24.7989L24.068 20.3589L17.488 26.9389L16.016 29.9489L14.0817 34.0621C13.8834 34.4838 14.3189 34.9236 14.7425 34.7294L18.5 33.0069L21.82 31.4849L28.508 24.7989ZM32.5 36L14.5 36C13.66 36 13 36.66 13 37.5C13 38.34 13.66 39 14.5 39L32.5 39C33.34 39 34 38.34 34 37.5C34 36.66 33.34 36 32.5 36Z" fill="var(--tiny-second-color, #aeaeAE)" fill-rule="evenodd"/>
</svg>