<svg viewBox="0 0 48 48" xmlns="http://www.w3.org/2000/svg" xmlns:xlink="http://www.w3.org/1999/xlink" width="48.000000" height="48.000000">
  <path id="合并" d="M3.55762 18.8158L20.0883 5.24567C20.347 5.03327 20.6202 4.84721 20.9078 4.68748C21.1638 4.5453 21.4313 4.42399 21.7102 4.32353C21.9892 4.22304 22.2726 4.14596 22.5602 4.09229C22.5641 4.09155 22.5681 4.09082 22.572 4.0901C22.875 4.03426 23.1828 4.00438 23.4953 4.00044C23.8119 3.99646 24.1243 4.01923 24.4324 4.06874C24.7213 4.11516 25.0065 4.1851 25.2879 4.27854C25.5692 4.37195 25.8396 4.4865 26.0991 4.62219C26.3906 4.77464 26.6683 4.95377 26.9322 5.1596L44.4131 18.792C45.0769 19.3096 45.1943 20.2411 44.6798 20.9091C44.1654 21.577 43.2397 21.6951 42.576 21.1774L41.5 20.3384L41.5 37.9993C41.5 41.313 38.8137 43.9993 35.5 43.9993L12.5 43.9993C9.18629 43.9993 6.5 41.313 6.5 37.9993L6.5 20.2952L5.45347 21.1543C4.80276 21.6884 3.87441 21.5937 3.34357 20.9389C2.81274 20.2841 2.90692 19.3499 3.55762 18.8158ZM31.5 18.6201L31.5 21.3799C31.5 22.2744 30.8946 23 30.1478 23L25.5 23L25.5 25.5L31.9615 25.5C32.1784 25.5 32.3906 25.5225 32.598 25.5664L32.6031 25.5675C32.7874 25.6075 32.9679 25.6647 33.1447 25.7393C33.3208 25.8135 33.4872 25.9033 33.6436 26.0068C33.8103 26.1182 33.9657 26.2461 34.1101 26.3896C34.2544 26.5342 34.3819 26.6895 34.4927 26.8564L34.4928 26.8564C34.5969 27.0127 34.6861 27.1787 34.7606 27.3555C34.8361 27.5342 34.8937 27.7158 34.9335 27.9023C34.9778 28.1094 35 28.3213 35 28.5381L35 32L35.42 32C36.0165 32 36.5 32.4834 36.5 33.0801L36.5 36.9199C36.5 37.5166 36.0165 38 35.42 38L31.58 38C30.9835 38 30.5 37.5166 30.5 36.9199L30.5 33.0801C30.5 32.4834 30.9835 32 31.58 32L32 32L32 28.5381C32 28.5254 31.9968 28.5156 31.9904 28.5098C31.984 28.5029 31.9744 28.5 31.9615 28.5L25.5 28.5L25.5 32L25.92 32C26.5165 32 27 32.4834 27 33.0801L27 36.9199C27 37.5166 26.5165 38 25.92 38L22.08 38C21.4835 38 21 37.5166 21 36.9199L21 33.0801C21 32.4834 21.4835 32 22.08 32L22.5 32L22.5 28.5L16.0385 28.5C16.0256 28.5 16.016 28.5029 16.0096 28.5098C16.0032 28.5156 16 28.5254 16 28.5381L16 32L16.42 32C17.0165 32 17.5 32.4834 17.5 33.0801L17.5 36.9199C17.5 37.5166 17.0165 38 16.42 38L12.58 38C11.9835 38 11.5 37.5166 11.5 36.9199L11.5 33.0801C11.5 32.4834 11.9835 32 12.58 32L13 32L13 28.5381C13 28.3213 13.0222 28.1094 13.0665 27.9023C13.1063 27.7158 13.1639 27.5342 13.2394 27.3555C13.3139 27.1787 13.4032 27.0127 13.5073 26.8564C13.6181 26.6895 13.7456 26.5342 13.8899 26.3896C14.0343 26.2461 14.1897 26.1182 14.3563 26.0068C14.5128 25.9033 14.6791 25.8135 14.8553 25.7393C15.0337 25.6641 15.2159 25.6064 15.402 25.5664C15.6094 25.5225 15.8216 25.5 16.0385 25.5L22.5 25.5L22.5 23L17.8522 23C17.1054 23 16.5 22.2744 16.5 21.3799L16.5 18.6201C16.5 17.7256 17.1054 17 17.8522 17L30.1478 17C30.8946 17 31.5 17.7256 31.5 18.6201Z" fill="var(--tiny-first-color, #191919)" fill-rule="evenodd"/>
  <path id="合并" d="M31.5 18.62L31.5 21.38C31.5 22.2747 30.8946 23 30.1477 23L25.5 23L25.5 25.5L31.9615 25.5C32.1784 25.5 32.3906 25.5222 32.598 25.5665C32.7841 25.6063 32.9663 25.6639 33.1447 25.7394C33.3209 25.8139 33.4872 25.9032 33.6437 26.0073C33.8103 26.1181 33.9657 26.2456 34.1101 26.3899C34.2544 26.5343 34.3819 26.6897 34.4927 26.8563L34.4928 26.8565C34.5969 27.0129 34.6861 27.1792 34.7606 27.3553C34.8361 27.5337 34.8937 27.7159 34.9335 27.902C34.9778 28.1094 35 28.3216 35 28.5385L35 32L35.42 32C36.0165 32 36.5 32.4835 36.5 33.08L36.5 36.92C36.5 37.5165 36.0165 38 35.42 38L31.58 38C30.9835 38 30.5 37.5165 30.5 36.92L30.5 33.08C30.5 32.4835 30.9835 32 31.58 32L32 32L32 28.5385C32 28.5256 31.9968 28.516 31.9904 28.5096C31.984 28.5032 31.9744 28.5 31.9615 28.5L25.5 28.5L25.5 32L25.92 32C26.5165 32 27 32.4835 27 33.08L27 36.92C27 37.5165 26.5165 38 25.92 38L22.08 38C21.4835 38 21 37.5165 21 36.92L21 33.08C21 32.4835 21.4835 32 22.08 32L22.5 32L22.5 28.5L16.0385 28.5C16.0256 28.5 16.016 28.5032 16.0096 28.5096C16.0032 28.516 16 28.5256 16 28.5385L16 32L16.42 32C17.0165 32 17.5 32.4835 17.5 33.08L17.5 36.92C17.5 37.5165 17.0165 38 16.42 38L12.58 38C11.9835 38 11.5 37.5165 11.5 36.92L11.5 33.08C11.5 32.4835 11.9835 32 12.58 32L13 32L13 28.5385C13 28.3216 13.0222 28.1094 13.0665 27.902C13.1063 27.7159 13.1639 27.5337 13.2394 27.3553C13.3139 27.1791 13.4032 27.0128 13.5073 26.8563C13.6181 26.6897 13.7456 26.5343 13.8899 26.3899C14.0343 26.2456 14.1897 26.1181 14.3563 26.0073C14.5128 25.9032 14.6791 25.8139 14.8553 25.7394C15.0337 25.6639 15.2159 25.6063 15.402 25.5665C15.6094 25.5222 15.8216 25.5 16.0385 25.5L22.5 25.5L22.5 23L17.8523 23C17.1054 23 16.5 22.2747 16.5 21.38L16.5 18.62C16.5 17.7253 17.1054 17 17.8523 17L30.1477 17C30.8946 17 31.5 17.7253 31.5 18.62Z" fill="var(--tiny-second-color, #aeaeAE)" fill-rule="evenodd"/>
</svg>