<svg viewBox="0 0 48 48" xmlns="http://www.w3.org/2000/svg" xmlns:xlink="http://www.w3.org/1999/xlink" width="48.000000" height="48.000000">
  <path id="合并" d="M3.55762 18.8158L20.0883 5.24567C20.347 5.03327 20.6202 4.84721 20.9078 4.68748C21.1638 4.5453 21.4313 4.42399 21.7102 4.32353C21.9892 4.22304 22.2726 4.14596 22.5602 4.09229C22.5641 4.09155 22.5681 4.09082 22.572 4.0901C22.875 4.03426 23.1828 4.00438 23.4953 4.00044C23.8119 3.99646 24.1243 4.01923 24.4324 4.06874C24.7213 4.11516 25.0065 4.1851 25.2879 4.27854C25.5692 4.37195 25.8396 4.4865 26.0991 4.62219C26.3906 4.77464 26.6683 4.95377 26.9322 5.1596L44.4131 18.792C45.0769 19.3096 45.1943 20.2411 44.6798 20.9091C44.1654 21.577 43.2397 21.6951 42.576 21.1774L41.5 20.3384L41.5 37.9993C41.5 41.313 38.8137 43.9993 35.5 43.9993L12.5 43.9993C9.18629 43.9993 6.5 41.313 6.5 37.9993L6.5 20.2952L5.45347 21.1543C4.80276 21.6884 3.87441 21.5937 3.34357 20.9389C2.81274 20.2841 2.90692 19.3499 3.55762 18.8158ZM23.5 17C24.4122 17 25.2102 17.4883 25.6468 18.2178C25.6903 18.2275 25.7337 18.2363 25.777 18.2461L25.777 18.2461C26.3931 18.3828 26.9966 18.5762 27.5875 18.8262C28.1825 19.0771 28.7452 19.3779 29.2755 19.7275L29.2756 19.7275C29.8652 20.1162 30.4149 20.5654 30.9246 21.0752C31.4344 21.585 31.8837 22.1348 32.2723 22.7246C32.622 23.2549 32.9226 23.8174 33.1743 24.4121C33.4242 25.0029 33.6174 25.6064 33.7538 26.2227C33.9179 26.9639 34 27.7227 34 28.5C34 29.2773 33.918 30.0361 33.7539 30.7764L33.7538 30.7773C33.6513 31.2402 33.5167 31.6963 33.3499 32.1445C33.4471 32.4121 33.5 32.6992 33.5 33C33.5 34.2627 32.5643 35.3066 31.3485 35.4756C31.2122 35.6289 31.0709 35.7783 30.9246 35.9248C30.415 36.4344 29.8655 36.8835 29.2761 37.2721L29.2755 37.2725C28.7451 37.6221 28.1825 37.9229 27.5875 38.1738C26.9966 38.4238 26.3931 38.6172 25.777 38.7539C25.0362 38.918 24.2772 39 23.5 39C22.7232 39 21.9646 38.918 21.2241 38.7541L21.2231 38.7539L21.2222 38.7539C20.6064 38.6172 20.0031 38.4238 19.4125 38.1738C18.8179 37.9229 18.2556 37.6221 17.7256 37.2734L17.7245 37.2725L17.7243 37.2725C17.1347 36.8838 16.5851 36.4346 16.0754 35.9248C15.9291 35.7783 15.7878 35.6289 15.6515 35.4756C14.4358 35.3066 13.5 34.2627 13.5 33C13.5 32.6992 13.5529 32.4121 13.6501 32.1445C13.4834 31.6963 13.3488 31.2402 13.2462 30.7773L13.2462 30.7773C13.0821 30.0361 13 29.2773 13 28.5C13 27.7227 13.082 26.9639 13.246 26.2236L13.2462 26.2227C13.3826 25.6064 13.5758 25.0029 13.8257 24.4121C14.0774 23.8174 14.3781 23.2549 14.7277 22.7246C15.1164 22.1348 15.5656 21.585 16.0754 21.0752C16.5851 20.5654 17.1348 20.1162 17.7244 19.7275L17.7244 19.7275C18.2548 19.3779 18.8175 19.0771 19.4125 18.8262C20.0032 18.5762 20.6065 18.3829 21.2224 18.2462L21.2229 18.2461C21.2663 18.2363 21.3097 18.2275 21.3532 18.2178C21.7898 17.4883 22.5878 17 23.5 17ZM23.5 22C22.7855 22 22.1409 21.7002 21.6853 21.2197C21.3105 21.3125 20.9424 21.4355 20.5811 21.5889C20.1657 21.7646 19.7723 21.9736 19.4008 22.2168C18.9699 22.498 18.5686 22.8252 18.1967 23.1963C17.8248 23.5684 17.4981 23.9697 17.2165 24.4004L17.2165 24.4004C16.9737 24.7725 16.7644 25.166 16.5888 25.5811C16.4178 25.9854 16.284 26.3984 16.1875 26.8193C16.0625 27.3652 16 27.9258 16 28.5C16 29.0742 16.0625 29.6348 16.1875 30.1807L16.1877 30.1807C16.2133 30.293 16.2415 30.4043 16.2724 30.5146C17.525 30.6504 18.5 31.7109 18.5 33C18.5 33.3271 18.4371 33.6396 18.3227 33.9268C18.6588 34.248 19.0182 34.5332 19.4008 34.7832C19.7723 35.0264 20.1658 35.2354 20.5811 35.4111C20.9854 35.582 21.3982 35.7158 21.8195 35.8125C22.3654 35.9375 22.9255 36 23.5 36C24.0745 36 24.6347 35.9375 25.1806 35.8125C25.6019 35.7158 26.0146 35.582 26.4189 35.4111C26.8342 35.2354 27.2277 35.0264 27.5992 34.7832C27.9818 34.5332 28.3412 34.248 28.6773 33.9268C28.5629 33.6396 28.5 33.3271 28.5 33C28.5 31.7109 29.475 30.6504 30.7276 30.5146C30.7585 30.4043 30.7868 30.293 30.8124 30.1807C30.9375 29.6348 31 29.0742 31 28.5C31 27.9258 30.9375 27.3652 30.8124 26.8193C30.7159 26.3984 30.5822 25.9854 30.4112 25.5811C30.2355 25.166 30.0263 24.7725 29.7835 24.4004C29.5019 23.9697 29.1752 23.5684 28.8033 23.1963C28.4315 22.8252 28.0301 22.498 27.5993 22.2168L27.5992 22.2168C27.2277 21.9736 26.8342 21.7646 26.4189 21.5889C26.0576 21.4355 25.6895 21.3125 25.3147 21.2197C24.8591 21.7002 24.2145 22 23.5 22ZM22.0141 24.2695L23.5 26.3311L24.9859 24.2695C25.3951 23.7012 26.1629 23.5762 26.7308 23.9863C27.2987 24.3955 27.4234 25.1631 27.0141 25.7305L25.9415 27.2197L26 27.2197C26.7 27.2197 27.25 27.7695 27.25 28.4697C27.25 29.1689 26.7 29.7197 26 29.7197L24.75 29.7197L24.75 30.1787L26 30.1787C26.7 30.1787 27.25 30.7285 27.25 31.4287C27.25 32.1289 26.7 32.6787 26 32.6787L24.75 32.6787L24.75 33.5713C24.75 34.2715 24.2 34.8213 23.5 34.8213C22.8 34.8213 22.25 34.2715 22.25 33.5713L22.25 32.6787L21 32.6787C20.3 32.6787 19.75 32.1289 19.75 31.4287C19.75 30.7285 20.3 30.1787 21 30.1787L22.25 30.1787L22.25 29.7197L21 29.7197C20.3 29.7197 19.75 29.1689 19.75 28.4697C19.75 27.7695 20.3 27.2197 21 27.2197L21.0585 27.2197L19.9859 25.7305C19.5766 25.1631 19.7013 24.3955 20.2692 23.9863C20.8371 23.5762 21.6049 23.7012 22.0141 24.2695Z" fill="var(--tiny-first-color, #191919)" fill-rule="evenodd"/>
  <path id="合并" d="M23.5 17C24.4122 17 25.2102 17.4885 25.6468 18.2182C25.6903 18.2272 25.7337 18.2365 25.777 18.2461L25.777 18.2462C26.3931 18.3826 26.9966 18.5758 27.5875 18.8258C28.1825 19.0774 28.7452 19.378 29.2755 19.7277L29.2756 19.7277C29.8652 20.1164 30.4149 20.5656 30.9246 21.0754C31.4344 21.5852 31.8837 22.1349 32.2723 22.7245C32.622 23.2549 32.9226 23.8175 33.1742 24.4125C33.4242 25.0034 33.6174 25.6069 33.7538 26.223C33.9179 26.9638 34 27.7228 34 28.5C34 29.2771 33.918 30.036 33.7539 30.7767L33.7539 30.777C33.6513 31.2401 33.5166 31.6961 33.35 32.145C33.447 32.4117 33.5 32.6997 33.5 33C33.5 34.2624 32.5643 35.3063 31.3485 35.4759C31.2122 35.6288 31.0709 35.7783 30.9246 35.9246C30.4148 36.4344 29.8651 36.8837 29.2755 37.2724C28.7451 37.622 28.1825 37.9226 27.5875 38.1742C26.9966 38.4242 26.3931 38.6174 25.777 38.7539C25.0362 38.918 24.2772 39 23.5 39C22.7229 39 21.9639 38.918 21.2231 38.7539L21.223 38.7539L21.2222 38.7537C20.6064 38.6172 20.0032 38.4241 19.4125 38.1742C18.8179 37.9228 18.2556 37.6224 17.7256 37.2731L17.7245 37.2724L17.7243 37.2722C17.1347 36.8835 16.5851 36.4343 16.0754 35.9246C15.9291 35.7783 15.7878 35.6288 15.6515 35.4759C14.4357 35.3063 13.5 34.2624 13.5 33C13.5 32.6997 13.553 32.4117 13.65 32.145C13.4834 31.6962 13.3488 31.2402 13.2462 30.7772L13.2462 30.777L13.2461 30.777C13.082 30.0362 13 29.2772 13 28.5C13 27.723 13.082 26.9642 13.246 26.2236L13.2461 26.223L13.2462 26.223L13.2462 26.2229C13.3826 25.6069 13.5758 25.0034 13.8258 24.4125C14.0774 23.8175 14.3781 23.2548 14.7277 22.7244C15.1164 22.1348 15.5656 21.5852 16.0754 21.0754C16.5851 20.5656 17.1348 20.1164 17.7244 19.7277L17.7244 19.7277L17.7244 19.7277C18.2548 19.3781 18.8175 19.0774 19.4125 18.8258C20.0034 18.5758 20.6069 18.3826 21.2229 18.2462C21.2663 18.2366 21.3097 18.2272 21.3532 18.2182C21.7898 17.4885 22.5878 17 23.5 17ZM23.5 22C22.7855 22 22.1409 21.7002 21.6853 21.2196C21.3105 21.3129 20.9424 21.436 20.5811 21.5888C20.1657 21.7645 19.7723 21.9737 19.4008 22.2165C18.9699 22.4981 18.5686 22.8248 18.1967 23.1967C17.8248 23.5686 17.4981 23.9699 17.2165 24.4008L17.2165 24.4008L17.2165 24.4009C16.9737 24.7724 16.7645 25.1658 16.5888 25.5811C16.4178 25.9854 16.284 26.3982 16.1875 26.8195C16.0625 27.3654 16 27.9255 16 28.5C16 29.0745 16.0625 29.6346 16.1875 30.1804L16.1875 30.1805L16.1875 30.1805L16.1876 30.1809C16.2133 30.2928 16.2415 30.404 16.2724 30.5147C17.525 30.6504 18.5 31.7113 18.5 33C18.5 33.3273 18.4371 33.64 18.3227 33.9265C18.6588 34.2478 19.0182 34.5335 19.4009 34.7835C19.7724 35.0263 20.1658 35.2355 20.5811 35.4112C20.9854 35.5822 21.3982 35.716 21.8195 35.8125C22.3653 35.9375 22.9255 36 23.5 36C24.0745 36 24.6347 35.9375 25.1806 35.8124C25.6019 35.7159 26.0146 35.5822 26.4189 35.4112C26.8342 35.2355 27.2277 35.0263 27.5992 34.7835C27.9818 34.5334 28.3412 34.2478 28.6773 33.9265C28.5629 33.64 28.5 33.3273 28.5 33C28.5 31.7113 29.475 30.6504 30.7276 30.5147C30.7585 30.4039 30.7868 30.2925 30.8125 30.1805C30.9375 29.6347 31 29.0745 31 28.5C31 27.9255 30.9375 27.3653 30.8125 26.8194C30.716 26.3981 30.5822 25.9854 30.4112 25.5811C30.2355 25.1658 30.0263 24.7723 29.7835 24.4008C29.5019 23.9699 29.1752 23.5686 28.8033 23.1967C28.4315 22.8249 28.0301 22.4981 27.5993 22.2166L27.5991 22.2165C27.2277 21.9737 26.8342 21.7645 26.4189 21.5888C26.0576 21.436 25.6896 21.3129 25.3147 21.2196C24.8591 21.7002 24.2145 22 23.5 22ZM22.0141 24.2692L23.5 26.3312L24.9859 24.2692C25.3951 23.7013 26.1629 23.5766 26.7308 23.9859C27.2987 24.3951 27.4234 25.1629 27.0141 25.7308L25.9415 27.2194L26 27.2194C26.7 27.2194 27.25 27.7694 27.25 28.4694C27.25 29.1694 26.7 29.7194 26 29.7194L24.75 29.7194L24.75 30.1786L26 30.1786C26.7 30.1786 27.25 30.7286 27.25 31.4286C27.25 32.1286 26.7 32.6786 26 32.6786L24.75 32.6786L24.75 33.5714C24.75 34.2714 24.2 34.8214 23.5 34.8214C22.8 34.8214 22.25 34.2714 22.25 33.5714L22.25 32.6786L21 32.6786C20.3 32.6786 19.75 32.1286 19.75 31.4286C19.75 30.7286 20.3 30.1786 21 30.1786L22.25 30.1786L22.25 29.7194L21 29.7194C20.3 29.7194 19.75 29.1694 19.75 28.4694C19.75 27.7694 20.3 27.2194 21 27.2194L21.0585 27.2194L19.9859 25.7308C19.5766 25.1629 19.7013 24.3951 20.2692 23.9859C20.8371 23.5766 21.6049 23.7013 22.0141 24.2692Z" fill="var(--tiny-second-color, #aeaeAE)" fill-rule="evenodd"/>
</svg>