<svg viewBox="0 0 48 48" xmlns="http://www.w3.org/2000/svg" xmlns:xlink="http://www.w3.org/1999/xlink" width="48.000000" height="48.000000">
  <path id="减去顶层" d="M19.0883 4.2465L2.55762 17.8157C1.90692 18.3499 1.81273 19.2844 2.34357 19.9387C2.87441 20.594 3.80277 20.6887 4.45346 20.1545L5.5 19.2952L5.5 37.0001C5.5 40.3135 8.1863 43 11.5 43L18.307 43C18.1964 42.7228 18.1918 42.3975 18.3455 42.0787L20.6615 37.2759L22.8037 32.8954L40.3187 15.379L25.9322 4.15959C25.6683 3.95451 25.3906 3.77483 25.0991 3.62248C24.8396 3.48674 24.5692 3.37249 24.2879 3.27874C24.0065 3.18596 23.7213 3.11565 23.4324 3.06878C23.1243 3.01995 22.8119 2.99651 22.4953 3.00042C22.1828 3.00433 21.875 3.0346 21.572 3.09026C21.5681 3.09124 21.5641 3.09222 21.5602 3.09319C21.2726 3.14593 20.9892 3.22307 20.7102 3.32366C20.4313 3.42424 20.1639 3.54534 19.9078 3.68791C19.6202 3.84807 19.347 4.03361 19.0883 4.2465ZM40.5 28.12L29.1081 39.5112L24.2765 41.7262L21.3272 43L34.5 43C37.8137 43 40.5 40.3135 40.5 37.0001L40.5 28.12ZM13.5 20C12.6716 20 12 20.6716 12 21.5C12 22.3284 12.6716 23 13.5 23L28.5 23C29.3284 23 30 22.3284 30 21.5C30 20.6716 29.3284 20 28.5 20L13.5 20ZM22.5 29C23.3284 29 24 28.3284 24 27.5C24 26.6716 23.3284 26 22.5 26L13.5 26C12.6716 26 12 26.6716 12 27.5C12 28.3284 12.6716 29 13.5 29L22.5 29ZM16.5 35C17.3284 35 18 34.3284 18 33.5C18 32.6716 17.3284 32 16.5 32L13.5 32C12.6716 32 12 32.6716 12 33.5C12 34.3284 12.6716 35 13.5 35L16.5 35Z" fill="var(--tiny-first-color, #191919)" fill-rule="evenodd"/>
  <path id="形状结合" d="M37.568 20.3589L42.008 24.7989L29.32 37.4849L26 39.0069L21 41.2989L23.516 35.9489L24.988 32.9389L37.568 20.3589ZM44.1736 17.6756L44.4124 17.8853C45.5964 19.0336 45.682 20.8852 44.6542 22.1328L44.4484 22.3593L44.1284 22.6773L39.6884 18.2373L40.0084 17.9193C41.1447 16.7831 42.9401 16.698 44.1736 17.6756Z" fill="var(--tiny-second-color, #aeaeAE)" fill-rule="evenodd"/>
</svg>