<svg viewBox="0 0 48 48" xmlns="http://www.w3.org/2000/svg" xmlns:xlink="http://www.w3.org/1999/xlink" width="48.000000" height="48.000000">
  <path id="合并" d="M3.55762 18.8158L20.0883 5.24567C20.347 5.03327 20.6202 4.84721 20.9078 4.68748C21.1638 4.5453 21.4313 4.42399 21.7102 4.32353C21.9892 4.22304 22.2726 4.14596 22.5602 4.09229C22.5641 4.09155 22.5681 4.09082 22.572 4.0901C22.875 4.03426 23.1828 4.00438 23.4953 4.00044C23.8119 3.99646 24.1243 4.01923 24.4324 4.06874C24.7213 4.11516 25.0065 4.1851 25.2879 4.27854C25.5692 4.37195 25.8396 4.4865 26.0991 4.62219C26.3906 4.77464 26.6683 4.95377 26.9322 5.1596L44.4131 18.792C45.0769 19.3096 45.1943 20.2411 44.6798 20.9091C44.1654 21.577 43.2397 21.6951 42.576 21.1774L42.5 21.1182L42.5 38C42.5 38.552 42.442 39.0912 42.326 39.6177C42.2284 40.0608 42.0898 40.4948 41.91 40.9198C41.7296 41.3464 41.5139 41.7497 41.263 42.1297C40.986 42.5493 40.6661 42.9405 40.3033 43.3033C39.9405 43.6661 39.5493 43.986 39.1298 44.2629C38.7498 44.5139 38.3464 44.7296 37.9198 44.91C37.4947 45.0898 37.0606 45.2285 36.6174 45.3261C36.091 45.442 35.5519 45.5 35 45.5L13 45.5C12.4481 45.5 11.909 45.442 11.3826 45.3261C10.9394 45.2285 10.5053 45.0898 10.0802 44.91C9.65366 44.7296 9.25038 44.5139 8.87035 44.2631C8.45079 43.9861 8.05957 43.6662 7.6967 43.3033C7.33386 42.9405 7.01396 42.5493 6.737 42.1298C6.4861 41.7497 6.27043 41.3464 6.09 40.9198C5.91022 40.4947 5.77152 40.0606 5.67391 39.6175C5.55797 39.0911 5.5 38.5519 5.5 38L5.5 21.1161L5.45347 21.1543C4.80276 21.6884 3.87441 21.5937 3.34357 20.9389C2.81274 20.2841 2.90692 19.3499 3.55762 18.8158ZM8.5 18.6534L8.5 38C8.5 38.3492 8.53844 38.6895 8.61532 39.0209C8.67295 39.2693 8.75218 39.5127 8.85302 39.7511C8.95747 39.9981 9.08172 40.2322 9.22577 40.4533C9.39565 40.7141 9.59307 40.957 9.81802 41.182C10.043 41.4069 10.2859 41.6044 10.5467 41.7742C10.7679 41.9183 11.0019 42.0425 11.2489 42.147C11.4873 42.2478 11.7307 42.3271 11.9791 42.3847C12.3105 42.4616 12.6508 42.5 13 42.5L35 42.5C35.3492 42.5 35.6895 42.4616 36.0209 42.3847C36.2693 42.3271 36.5127 42.2478 36.7511 42.147C36.9981 42.0425 37.2323 41.9182 37.4535 41.7741C37.7142 41.6043 37.9571 41.4069 38.182 41.182C38.4069 40.9571 38.6043 40.7142 38.7742 40.4534C38.9183 40.2322 39.0425 39.9981 39.147 39.7511C39.2478 39.5127 39.327 39.2693 39.3847 39.0209C39.4616 38.6895 39.5 38.3492 39.5 38L39.5 19C39.5 18.9285 39.5048 18.8583 39.5141 18.7896L25.095 7.54505C24.9669 7.44517 24.8319 7.35915 24.6899 7.28699C24.5801 7.23121 24.4662 7.18371 24.3481 7.1445C24.2253 7.10374 24.101 7.07282 23.9749 7.05176C23.8297 7.02748 23.6823 7.01628 23.5328 7.01816C23.3833 7.02004 23.2362 7.03495 23.0916 7.06287C22.9662 7.0871 22.8426 7.12113 22.7209 7.16496C22.6038 7.20713 22.4911 7.25749 22.3827 7.31602C22.2426 7.39172 22.1097 7.4811 21.9842 7.58417L8.5 18.6534Z" fill="var(--tiny-first-color, #191919)" fill-rule="evenodd"/>
  <path id="合并" d="M24 16.5C24.9122 16.5 25.7102 16.9885 26.1468 17.7182C26.1903 17.7272 26.2337 17.7365 26.277 17.7461L26.277 17.7462C26.8931 17.8826 27.4966 18.0758 28.0875 18.3258C28.6825 18.5774 29.2452 18.878 29.7755 19.2277L29.7756 19.2277C30.3652 19.6164 30.9149 20.0656 31.4246 20.5754C31.9344 21.0852 32.3837 21.6349 32.7723 22.2245C33.122 22.7549 33.4226 23.3175 33.6742 23.9125C33.9242 24.5034 34.1174 25.1069 34.2538 25.723C34.4179 26.4638 34.5 27.2228 34.5 28C34.5 28.7771 34.418 29.536 34.2539 30.2767L34.2539 30.277C34.1513 30.7401 34.0166 31.1961 33.85 31.645C33.947 31.9117 34 32.1997 34 32.5C34 33.7624 33.0643 34.8063 31.8485 34.9759C31.7122 35.1288 31.5709 35.2783 31.4246 35.4246C30.9148 35.9344 30.3651 36.3837 29.7755 36.7724C29.2451 37.122 28.6825 37.4226 28.0875 37.6742C27.4966 37.9242 26.8931 38.1174 26.277 38.2539C25.5362 38.418 24.7772 38.5 24 38.5C23.2229 38.5 22.4639 38.418 21.7231 38.2539L21.723 38.2539L21.7222 38.2537C21.1064 38.1172 20.5032 37.9241 19.9125 37.6742C19.3179 37.4228 18.7556 37.1224 18.2256 36.7731L18.2245 36.7724L18.2243 36.7722C17.6347 36.3835 17.0851 35.9343 16.5754 35.4246C16.4291 35.2783 16.2878 35.1288 16.1515 34.9759C14.9357 34.8063 14 33.7624 14 32.5C14 32.1997 14.053 31.9117 14.15 31.645C13.9834 31.1962 13.8488 30.7402 13.7462 30.2772L13.7462 30.277L13.7461 30.277C13.582 29.5362 13.5 28.7772 13.5 28C13.5 27.223 13.582 26.4642 13.746 25.7236L13.7461 25.723L13.7462 25.723L13.7462 25.7229C13.8826 25.1069 14.0758 24.5034 14.3258 23.9125C14.5774 23.3175 14.8781 22.7548 15.2277 22.2244C15.6164 21.6348 16.0656 21.0852 16.5754 20.5754C17.0851 20.0656 17.6348 19.6164 18.2244 19.2277L18.2244 19.2277L18.2244 19.2277C18.7548 18.8781 19.3175 18.5774 19.9125 18.3258C20.5034 18.0758 21.1069 17.8826 21.7229 17.7462C21.7663 17.7366 21.8097 17.7272 21.8532 17.7182C22.2898 16.9885 23.0878 16.5 24 16.5ZM24 21.5C23.2855 21.5 22.6409 21.2002 22.1853 20.7196C21.8105 20.8129 21.4424 20.936 21.0811 21.0888C20.6657 21.2645 20.2723 21.4737 19.9008 21.7165C19.4699 21.9981 19.0686 22.3248 18.6967 22.6967C18.3248 23.0686 17.9981 23.4699 17.7165 23.9008L17.7165 23.9008L17.7165 23.9009C17.4737 24.2724 17.2645 24.6658 17.0888 25.0811C16.9178 25.4854 16.784 25.8982 16.6875 26.3195C16.5625 26.8654 16.5 27.4255 16.5 28C16.5 28.5745 16.5625 29.1346 16.6875 29.6804L16.6875 29.6805L16.6875 29.6805L16.6876 29.6809C16.7133 29.7928 16.7415 29.904 16.7724 30.0147C18.025 30.1504 19 31.2113 19 32.5C19 32.8273 18.9371 33.14 18.8227 33.4265C19.1588 33.7478 19.5182 34.0335 19.9009 34.2835C20.2724 34.5263 20.6658 34.7355 21.0811 34.9112C21.4854 35.0822 21.8982 35.216 22.3195 35.3125C22.8653 35.4375 23.4255 35.5 24 35.5C24.5745 35.5 25.1347 35.4375 25.6806 35.3124C26.1019 35.2159 26.5146 35.0822 26.9189 34.9112C27.3342 34.7355 27.7277 34.5263 28.0992 34.2835C28.4818 34.0334 28.8412 33.7478 29.1773 33.4265C29.0629 33.14 29 32.8273 29 32.5C29 31.2113 29.975 30.1504 31.2276 30.0147C31.2585 29.9039 31.2868 29.7925 31.3125 29.6805C31.4375 29.1347 31.5 28.5745 31.5 28C31.5 27.4255 31.4375 26.8653 31.3125 26.3194C31.216 25.8981 31.0822 25.4854 30.9112 25.0811C30.7355 24.6658 30.5263 24.2723 30.2835 23.9008C30.0019 23.4699 29.6752 23.0686 29.3033 22.6967C28.9315 22.3249 28.5301 21.9981 28.0993 21.7166L28.0991 21.7165C27.7277 21.4737 27.3342 21.2645 26.9189 21.0888C26.5576 20.936 26.1896 20.8129 25.8147 20.7196C25.3591 21.2002 24.7145 21.5 24 21.5ZM22.5141 23.7692L24 25.8312L25.4859 23.7692C25.8951 23.2013 26.6629 23.0766 27.2308 23.4859C27.7987 23.8951 27.9234 24.6629 27.5141 25.2308L26.4415 26.7194L26.5 26.7194C27.2 26.7194 27.75 27.2694 27.75 27.9694C27.75 28.6694 27.2 29.2194 26.5 29.2194L25.25 29.2194L25.25 29.6786L26.5 29.6786C27.2 29.6786 27.75 30.2286 27.75 30.9286C27.75 31.6286 27.2 32.1786 26.5 32.1786L25.25 32.1786L25.25 33.0714C25.25 33.7714 24.7 34.3214 24 34.3214C23.3 34.3214 22.75 33.7714 22.75 33.0714L22.75 32.1786L21.5 32.1786C20.8 32.1786 20.25 31.6286 20.25 30.9286C20.25 30.2286 20.8 29.6786 21.5 29.6786L22.75 29.6786L22.75 29.2194L21.5 29.2194C20.8 29.2194 20.25 28.6694 20.25 27.9694C20.25 27.2694 20.8 26.7194 21.5 26.7194L21.5585 26.7194L20.4859 25.2308C20.0766 24.6629 20.2013 23.8951 20.7692 23.4859C21.3371 23.0766 22.1049 23.2013 22.5141 23.7692Z" fill="var(--tiny-second-color, #aeaeAE)" fill-rule="evenodd"/>
</svg>