<svg viewBox="0 0 48 48" xmlns="http://www.w3.org/2000/svg" xmlns:xlink="http://www.w3.org/1999/xlink" width="48.000000" height="48.000000">
  <path id="减去顶层" d="M16 3.5L30 3.5C31.1 3.5 32 4.38 32 5.5L32 7.5C32 8.6 31.1 9.5 30 9.5L16 9.5C14.88 9.5 14 8.6 14 7.5L14 5.5C14 4.38 14.88 3.5 16 3.5ZM10.9769 7.13846C10.955 6.91212 10.9342 6.6974 11 6.5C7.68 6.5 5 9.18 5 12.5L5 37.5C5 40.8 7.68 43.5 11 43.5L25.3336 43.5C22.1002 41.1351 20 37.3128 20 33C20 31.9346 20.1282 30.8992 20.3699 29.9082L16.5 29.9082C15.66 29.9082 15 29.2483 15 28.4082C15 27.5684 15.66 26.9082 16.5 26.9082L20.6312 26.9082L20.6312 24.6458L16.6229 24.6458C15.7829 24.6458 15.1229 23.9859 15.1229 23.1458C15.1229 22.3059 15.7829 21.6458 16.6229 21.6458L20.4137 21.6458L17.4516 17.9432C16.9269 17.2874 17.0299 16.3597 17.6859 15.835C18.3418 15.3101 19.2695 15.4131 19.7942 16.0691L22.1654 19.0332L24.7085 16.0362C25.252 15.3956 26.1822 15.3194 26.8227 15.8628C27.4632 16.4063 27.5395 17.3367 26.996 17.9771L23.8829 21.6458L26.6642 21.6458C28.5387 20.5975 30.6996 20 33 20C36.0171 20 38.7941 21.0278 41 22.7523L41 12.5C41 9.18 38.18 6.5 34.86 6.5C34.94 6.8 35 7.14 35 7.5L35 8.5C35 10.7 33.2 12.5 31 12.5L15 12.5C12.78 12.5 11 10.7 11 8.5L11 7.5C11 7.37688 10.9883 7.2561 10.9769 7.13846Z" fill="var(--tiny-first-color, #191919)" fill-rule="evenodd"/>
  <path id="减去顶层" d="M22 33C22 26.92 26.94 22 33 22C39.08 22 44 26.92 44 33C44 39.06 39.08 44 33 44C26.94 44 22 39.06 22 33ZM32.9578 27.6017C32.6459 27.5339 32.3266 27.5 32 27.5C31.6734 27.5 31.3541 27.5339 31.0422 27.6017C30.7719 27.6604 30.5071 27.7446 30.2479 27.8542C29.9897 27.9635 29.7458 28.0941 29.5161 28.2463L29.5158 28.2465C29.2664 28.4117 29.0338 28.6022 28.818 28.818C28.6021 29.0339 28.4116 29.2666 28.2463 29.516L28.2463 29.516C28.0941 29.7458 27.9635 29.9897 27.8542 30.2479C27.7446 30.5071 27.6604 30.7719 27.6017 31.0422L27.6016 31.0425C27.5339 31.3543 27.5 31.6735 27.5 32C27.5 32.3266 27.5339 32.6459 27.6017 32.9578C27.6604 33.2281 27.7446 33.4929 27.8542 33.7521C27.9635 34.0103 28.0941 34.2542 28.2463 34.4839L28.2463 34.484C28.4116 34.7334 28.6021 34.9661 28.818 35.182C29.0339 35.3979 29.2666 35.5884 29.516 35.7537C29.7458 35.9058 29.9897 36.0365 30.2479 36.1458C30.5071 36.2554 30.7719 36.3396 31.0422 36.3983C31.3541 36.4661 31.6734 36.5 32 36.5C32.3266 36.5 32.6459 36.4661 32.9578 36.3983C33.2281 36.3396 33.4929 36.2554 33.7521 36.1458C33.8156 36.1189 33.8782 36.0907 33.94 36.0613L35.9393 38.0607C36.5333 38.6547 37.4667 38.6547 38.0606 38.0607C38.6546 37.4667 38.6546 36.5334 38.0607 35.9394L36.0613 33.94C36.0907 33.8782 36.1189 33.8156 36.1458 33.7521C36.2554 33.4929 36.3396 33.2281 36.3983 32.9578C36.4661 32.6459 36.5 32.3266 36.5 32C36.5 31.6734 36.4661 31.3541 36.3983 31.0422C36.3396 30.7719 36.2554 30.5071 36.1458 30.2479C36.0365 29.9897 35.9058 29.7458 35.7537 29.516C35.5884 29.2666 35.3979 29.0339 35.182 28.818C34.9661 28.6021 34.7334 28.4116 34.484 28.2464L34.484 28.2463L34.484 28.2463C34.2542 28.0941 34.0103 27.9635 33.7521 27.8542C33.4929 27.7446 33.2281 27.6604 32.9578 27.6017L32.9578 27.6017ZM31.6388 30.5432C31.7557 30.5144 31.876 30.5 32 30.5C32.124 30.5 32.2443 30.5144 32.3612 30.5432C32.4367 30.5619 32.5108 30.5866 32.5834 30.6173C32.662 30.6505 32.7367 30.6898 32.8075 30.7352C32.8983 30.7933 32.9827 30.8613 33.0607 30.9393C33.1386 31.0173 33.2067 31.1017 33.2648 31.1924C33.3102 31.2633 33.3495 31.338 33.3827 31.4166C33.4134 31.4892 33.4381 31.5633 33.4568 31.6388C33.4856 31.7557 33.5 31.8761 33.5 32C33.5 32.1239 33.4856 32.2443 33.4568 32.3612C33.4381 32.4367 33.4134 32.5108 33.3827 32.5834C33.3495 32.662 33.3102 32.7367 33.2648 32.8076C33.2067 32.8983 33.1387 32.9827 33.0607 33.0607C32.9827 33.1387 32.8983 33.2067 32.8076 33.2648C32.7367 33.3102 32.662 33.3495 32.5834 33.3827C32.5108 33.4134 32.4367 33.4381 32.3612 33.4568C32.2443 33.4856 32.1239 33.5 32 33.5C31.8761 33.5 31.7557 33.4856 31.6388 33.4568C31.5633 33.4381 31.4892 33.4134 31.4166 33.3827C31.338 33.3495 31.2633 33.3102 31.1924 33.2648C31.1017 33.2067 31.0173 33.1387 30.9393 33.0607C30.8613 32.9827 30.7933 32.8983 30.7352 32.8075C30.6898 32.7367 30.6505 32.662 30.6173 32.5834C30.5866 32.5108 30.5619 32.4368 30.5432 32.3612C30.5144 32.2444 30.5 32.124 30.5 32C30.5 31.8761 30.5144 31.7557 30.5432 31.6389L30.5432 31.6388C30.5619 31.5633 30.5866 31.4892 30.6173 31.4166C30.6505 31.338 30.6898 31.2633 30.7352 31.1924C30.7933 31.1017 30.8613 31.0173 30.9393 30.9393C31.0173 30.8613 31.1017 30.7933 31.1924 30.7352C31.2633 30.6898 31.338 30.6505 31.4166 30.6173C31.4892 30.5866 31.5633 30.5619 31.6388 30.5432Z" fill="var(--tiny-second-color, #aeaeAE)" fill-rule="evenodd"/>
</svg>