<svg viewBox="0 0 48 48" xmlns="http://www.w3.org/2000/svg" xmlns:xlink="http://www.w3.org/1999/xlink" width="48.000000" height="48.000000">
  <path id="合并" d="M41.9998 10C41.9998 7.79086 40.2089 6 37.9998 6L9.99976 6C7.79062 6 5.99976 7.79086 5.99976 10L5.99976 16C5.99976 16.947 6.32887 17.8172 6.87736 18.4996C6.32823 19.1845 5.99976 20.0539 5.99976 21L5.99976 27C5.99976 27.947 6.32887 28.8172 6.87736 29.4996C6.32823 30.1845 5.99976 31.0539 5.99976 32L5.99976 38C5.99976 40.2091 7.79062 42 9.99976 42L24.9075 41.9994C21.928 39.7731 19.9998 36.2179 19.9998 32.2112C19.9998 25.4667 25.4662 20 32.2109 20C36.219 20 39.7756 21.9304 42.002 24.9123L41.9998 21C41.9998 20.0539 41.6713 19.1845 41.1205 18.5024C41.6706 17.8172 41.9998 16.947 41.9998 16L41.9998 10ZM12.4998 11.5L16.5848 11.5C17.4133 11.5 18.0848 12.1716 18.0848 13C18.0848 13.7594 17.5205 14.387 16.7884 14.4863L16.5848 14.5L12.4998 14.5L12.2962 14.4863C11.5641 14.387 10.9998 13.7594 10.9998 13C10.9998 12.2406 11.5641 11.613 12.2962 11.5137L12.4998 11.5ZM31.9999 22C37.5139 22 41.9999 26.486 41.9999 32C41.9999 37.514 37.5139 42 31.9999 42C26.4859 42 21.9999 37.514 21.9999 32C21.9999 26.486 26.4859 22 31.9999 22ZM12.4998 22.5L16.5848 22.5C17.4133 22.5 18.0848 23.1716 18.0848 24C18.0848 24.7594 17.5205 25.387 16.7884 25.4863L16.5848 25.5L12.4998 25.5L12.2962 25.4863C11.5641 25.387 10.9998 24.7594 10.9998 24C10.9998 23.2406 11.5641 22.613 12.2962 22.5137L12.4998 22.5ZM31.9999 25C32.7593 25 33.3868 25.5642 33.4862 26.2964L33.4999 26.5L33.4999 32.248C33.4999 33.0765 32.8283 33.748 31.9999 33.748C31.2405 33.748 30.6129 33.1838 30.5136 32.4517L30.4999 32.248L30.4999 26.5C30.4999 25.6716 31.1714 25 31.9999 25ZM12.4998 33.5L16.5848 33.5C17.4133 33.5 18.0848 34.1716 18.0848 35C18.0848 35.7594 17.5205 36.387 16.7884 36.4863L16.5848 36.5L12.4998 36.5L12.2962 36.4863C11.5641 36.387 10.9998 35.7594 10.9998 35C10.9998 34.2406 11.5641 33.613 12.2962 33.5137L12.4998 33.5ZM31.9999 35.5C33.1059 35.5 33.9999 36.394 33.9999 37.5C33.9999 38.604 33.1059 39.5 31.9999 39.5C30.8939 39.5 29.9999 38.604 29.9999 37.5C29.9999 36.394 30.8939 35.5 31.9999 35.5Z" fill="var(--tiny-first-color)" fill-rule="evenodd"/>
  <path id="减去顶层" d="M42 32C42 26.486 37.514 22 32 22C26.486 22 22 26.486 22 32C22 37.514 26.486 42 32 42C37.514 42 42 37.514 42 32ZM33.4863 26.2964C33.387 25.5642 32.7594 25 32 25C31.1716 25 30.5 25.6716 30.5 26.5L30.5 32.248L30.5137 32.4517C30.613 33.1838 31.2406 33.748 32 33.748C32.8284 33.748 33.5 33.0765 33.5 32.248L33.5 26.5L33.4863 26.2964ZM34 37.5C34 36.394 33.106 35.5 32 35.5C30.894 35.5 30 36.394 30 37.5C30 38.604 30.894 39.5 32 39.5C33.106 39.5 34 38.604 34 37.5Z" fill="var(--tiny-second-color)" fill-rule="evenodd"/>
</svg>