<svg viewBox="0 0 48 48" xmlns="http://www.w3.org/2000/svg" xmlns:xlink="http://www.w3.org/1999/xlink" width="48.000000" height="48.000000" fill="none">
  <path id="形状结合" d="M38 6C40.2091 6 42 7.79086 42 10L42 16C42 16.947 41.6709 17.8172 41.1208 18.5024C41.6715 19.1845 42 20.0539 42 21L42 21.7014C42 22.5298 41.3284 23.2014 40.5 23.2014C39.6716 23.2014 39 22.5298 39 21.7014L39 21C39 20.5091 38.6462 20.1008 38.1798 20.0161L10 20C9.50908 20 9.10078 20.3538 9.01611 20.8202L9 27C9 27.4909 9.35375 27.8992 9.82025 27.9839L18.836 28C19.5682 28.0993 20.2879 28.742 20.2879 29.5013C20.2879 30.3128 19.6435 30.9738 18.8384 31.0005L10 31C9.50908 31 9.10078 31.3538 9.01611 31.8202L9 38C9 38.4909 9.35375 38.8992 9.82025 38.9839L21.4897 38.9962C22.3181 38.9962 23.0483 39.6667 23.0483 40.4951C23.0483 41.3235 22.3767 41.9951 21.5483 41.9951L10 42C7.79086 42 6 40.2091 6 38L6 32C6 31.0539 6.32848 30.1845 6.87761 29.4996C6.32912 28.8172 6 27.947 6 27L6 21C6 20.0539 6.32848 19.1845 6.87761 18.4996C6.32912 17.8172 6 16.947 6 16L6 10C6 7.79086 7.79086 6 10 6L38 6ZM16.5851 33.5C17.4135 33.5 18.0851 34.1716 18.0851 35C18.0851 35.7594 17.5208 36.387 16.7886 36.4863L16.5851 36.5L12.5 36.5C11.6716 36.5 11 35.8284 11 35C11 34.2406 11.5643 33.613 12.2965 33.5137L12.5 33.5L16.5851 33.5ZM16.5851 22.5C17.4135 22.5 18.0851 23.1716 18.0851 24C18.0851 24.7594 17.5208 25.387 16.7886 25.4863L16.5851 25.5L12.5 25.5C11.6716 25.5 11 24.8284 11 24C11 23.2406 11.5643 22.613 12.2965 22.5137L12.5 22.5L16.5851 22.5ZM38 9L10 9C9.50908 9 9.10078 9.35375 9.01611 9.82025L9 16C9 16.4909 9.35375 16.8992 9.82025 16.9839L38 17C38.4909 17 38.8992 16.6462 38.9839 16.1798L39 10C39 9.50908 38.4665 9.08467 38 9ZM16.5851 11.5C17.4135 11.5 18.0851 12.1716 18.0851 13C18.0851 13.7594 17.5208 14.387 16.7886 14.4863L16.5851 14.5L12.5 14.5C11.6716 14.5 11 13.8284 11 13C11 12.2406 11.5643 11.613 12.2965 11.5137L12.5 11.5L16.5851 11.5Z" fill="var(--tiny-first-color, #191919)" fill-rule="evenodd"/>
  <path id="合并" d="M42 32C42 32.7262 41.9245 33.436 41.7734 34.1293C41.6428 34.7286 41.4557 35.3156 41.2122 35.8903C40.9751 36.4501 40.6923 36.98 40.364 37.4799C39.9909 38.048 39.559 38.5774 39.0682 39.0682C38.5774 39.559 38.048 39.9909 37.4799 40.364C36.98 40.6923 36.4501 40.9751 35.8903 41.2122C35.3157 41.4557 34.7287 41.6427 34.1294 41.7733C33.4361 41.9244 32.7262 42 32 42C31.2738 42 30.564 41.9245 29.8707 41.7734C29.2714 41.6428 28.6844 41.4557 28.1097 41.2122C27.5499 40.9751 27.0201 40.6923 26.5202 40.364C25.9521 39.9909 25.4226 39.559 24.9318 39.0682C24.4411 38.5774 24.0091 38.048 23.6361 37.48C23.3077 36.98 23.025 36.4501 22.7878 35.8903C22.5443 35.3157 22.3572 34.7287 22.2266 34.1294C22.0755 33.436 22 32.7262 22 32C22 31.2738 22.0755 30.564 22.2266 29.8707C22.3572 29.2714 22.5443 28.6843 22.7878 28.1097C23.025 27.5499 23.3077 27.02 23.6361 26.5201C24.0091 25.952 24.4411 25.4226 24.9318 24.9318C25.4226 24.441 25.952 24.0091 26.5201 23.636C27.02 23.3077 27.5499 23.025 28.1097 22.7878C28.6843 22.5443 29.2713 22.3572 29.8706 22.2266C30.564 22.0755 31.2738 22 32 22C32.7262 22 33.436 22.0755 34.1293 22.2266C34.7286 22.3572 35.3156 22.5443 35.8903 22.7878C36.4502 23.025 36.98 23.3077 37.48 23.6361C38.048 24.0092 38.5774 24.4411 39.0682 24.9318C39.559 25.4226 39.9909 25.952 40.364 26.5201C40.6923 27.02 40.975 27.5499 41.2122 28.1097C41.4557 28.6844 41.6428 29.2714 41.7734 29.8707C41.9245 30.564 42 31.2738 42 32ZM39.3913 32C39.3913 31.4503 39.3329 30.9137 39.216 30.3901C39.1201 29.9604 38.9848 29.5395 38.8102 29.1274C38.6391 28.7234 38.4357 28.3404 38.2001 27.9784C37.9201 27.5481 37.5946 27.1475 37.2236 26.7764C36.8525 26.4054 36.4519 26.0799 36.0216 25.7999C35.6596 25.5643 35.2766 25.3609 34.8726 25.1898C34.4605 25.0152 34.0396 24.8799 33.6099 24.784C33.0863 24.6671 32.5497 24.6087 32 24.6087C31.4503 24.6087 30.9137 24.6671 30.3901 24.784C29.9604 24.8799 29.5395 25.0152 29.1274 25.1898C28.7235 25.3609 28.3405 25.5642 27.9785 25.7998C27.5482 26.0798 27.1475 26.4054 26.7764 26.7764C26.4054 27.1475 26.0799 27.5482 25.7999 27.9785C25.5643 28.3405 25.3609 28.7234 25.1898 29.1274C25.0152 29.5395 24.8799 29.9604 24.784 30.3901C24.6671 30.9137 24.6087 31.4503 24.6087 32C24.6087 32.5497 24.6671 33.0863 24.784 33.6099C24.8799 34.0396 25.0152 34.4605 25.1898 34.8726C25.3609 35.2766 25.5643 35.6595 25.7998 36.0215C26.0798 36.4518 26.4054 36.8525 26.7764 37.2236C27.1475 37.5946 27.5482 37.9202 27.9785 38.2002C28.3405 38.4357 28.7234 38.6391 29.1274 38.8102C29.5395 38.9848 29.9604 39.1201 30.3901 39.216C30.9137 39.3329 31.4503 39.3913 32 39.3913C32.5497 39.3913 33.0863 39.3329 33.6099 39.216C34.0396 39.1201 34.4605 38.9848 34.8726 38.8102C35.2765 38.6391 35.6594 38.4358 36.0214 38.2002C36.4517 37.9202 36.8525 37.5946 37.2236 37.2236C37.5946 36.8525 37.9201 36.4518 38.2001 36.0216C38.4357 35.6596 38.6391 35.2766 38.8102 34.8726C38.9848 34.4605 39.1201 34.0396 39.216 33.6099C39.3329 33.0863 39.3913 32.5497 39.3913 32ZM33.2924 27.0403C33.2061 26.4037 32.6603 25.913 32 25.913C31.2796 25.913 30.6957 26.497 30.6957 27.2174L30.6957 32.2157L30.7076 32.3927C30.7939 33.0294 31.3397 33.52 32 33.52C32.7204 33.52 33.3043 32.9361 33.3043 32.2157L33.3043 27.2174L33.2924 27.0403ZM33.7391 36.7826C33.7391 35.8209 32.9617 35.0435 32 35.0435C31.0383 35.0435 30.2609 35.8209 30.2609 36.7826C30.2609 37.7426 31.0383 38.5217 32 38.5217C32.9617 38.5217 33.7391 37.7426 33.7391 36.7826Z" fill="var(--tiny-second-color, #aeaeAE)" fill-rule="evenodd"/>
</svg>
