<svg viewBox="0 0 48 48" xmlns="http://www.w3.org/2000/svg" xmlns:xlink="http://www.w3.org/1999/xlink" width="48.000000" height="48.000000" fill="none">
  <path id="椭圆 388(边框)" d="M26.9367 10.8184C25.9814 10.6061 25.0025 10.5 24 10.5C22.9975 10.5 22.0186 10.6061 21.0633 10.8184C20.2743 10.9937 19.5015 11.2414 18.7447 11.5615C17.9814 11.8844 17.2594 12.27 16.5787 12.7184C15.819 13.2188 15.1108 13.7973 14.4541 14.4541C13.7973 15.1108 13.2188 15.819 12.7183 16.5787C12.27 17.2594 11.8844 17.9814 11.5615 18.7447C11.2414 19.5015 10.9937 20.2744 10.8184 21.0633C10.6061 22.0186 10.5 22.9975 10.5 24C10.5 25.0025 10.6061 25.9814 10.8184 26.9367C10.9937 27.7256 11.2414 28.4985 11.5615 29.2553C11.8844 30.0186 12.27 30.7407 12.7184 31.4214C13.2188 32.181 13.7973 32.8892 14.4541 33.5459C15.1108 34.2027 15.819 34.7812 16.5787 35.2816C17.2594 35.73 17.9814 36.1156 18.7447 36.4385C19.5015 36.7586 20.2744 37.0063 21.0634 37.1816C22.0187 37.3939 22.9976 37.5 24 37.5C25.0024 37.5 25.9813 37.3939 26.9365 37.1816C27.7255 37.0063 28.4984 36.7586 29.2553 36.4385C30.0187 36.1156 30.7407 35.73 31.4214 35.2816C32.1811 34.7812 32.8893 34.2026 33.5459 33.5459C34.7911 32.3008 35.7553 30.8706 36.4385 29.2553C36.7586 28.4985 37.0063 27.7256 37.1816 26.9366C37.3939 25.9813 37.5 25.0024 37.5 24C37.5 22.9976 37.3939 22.0187 37.1816 21.0634C37.0063 20.2745 36.7586 19.5015 36.4385 18.7447C36.1156 17.9814 35.73 17.2594 35.2817 16.5787C34.7812 15.819 34.2027 15.1108 33.5459 14.4541C32.8892 13.7974 32.1811 13.2188 31.4214 12.7184C30.7407 12.27 30.0186 11.8844 29.2553 11.5615C28.4985 11.2414 27.7256 10.9937 26.9367 10.8184ZM21.6598 13.7598C22.4201 13.5866 23.2002 13.5 24 13.5C24.7998 13.5 25.5798 13.5866 26.3401 13.7598C26.9343 13.8951 27.5165 14.0834 28.0866 14.3245C29.3426 14.8558 30.4553 15.6061 31.4246 16.5754C31.9434 17.0942 32.3995 17.6541 32.7928 18.2551C33.1344 18.7769 33.4286 19.3296 33.6755 19.9134C34.2252 21.213 34.5 22.5752 34.5 24C34.5 25.4248 34.2252 26.787 33.6755 28.0866C33.1442 29.3426 32.3939 30.4553 31.4246 31.4246C30.4553 32.3939 29.3426 33.1442 28.0866 33.6755C26.787 34.2252 25.4248 34.5 24 34.5C23.2002 34.5 22.4202 34.4134 21.6599 34.2402C21.0657 34.1049 20.4835 33.9166 19.9134 33.6755C18.6574 33.1442 17.5447 32.3939 16.5754 31.4246C15.6061 30.4553 14.8558 29.3426 14.3245 28.0866C14.0834 27.5165 13.8951 26.9343 13.7598 26.3401C13.5866 25.5798 13.5 24.7998 13.5 24C13.5 22.5752 13.7748 21.213 14.3245 19.9134C14.5714 19.3296 14.8656 18.7768 15.2072 18.255C15.6005 17.6541 16.0566 17.0942 16.5754 16.5754C17.0942 16.0565 17.6541 15.6005 18.2551 15.2071C18.7769 14.8656 19.3297 14.5714 19.9134 14.3245C20.4835 14.0834 21.0656 13.8952 21.6598 13.7598Z" fill="var(--tiny-first-color, #191919)" fill-rule="evenodd"/>
</svg>
