<svg viewBox="0 0 48 48" xmlns="http://www.w3.org/2000/svg" xmlns:xlink="http://www.w3.org/1999/xlink" width="48.000000" height="48.000000" fill="none">
  <path id="合并" d="M7.5 42.481L7.5 5.51899C7.5 4.66835 6.84 4 6 4C5.16 4 4.5 4.66835 4.5 5.51899L4.5 42.481C4.5 43.3316 5.16 44 6 44C6.84 44 7.5 43.3316 7.5 42.481ZM27.4994 4C32.8614 4 37.2234 8.362 37.2234 13.722L37.222 18.5L37.5 18.5C40.808 18.5 43.5 21.192 43.5 24.5L43.5 38C43.5 41.308 40.808 44 37.5 44L17.5 44C14.192 44 11.5 41.308 11.5 38L11.5 24.5C11.5 21.192 14.192 18.5 17.5 18.5L17.776 18.5L17.7774 13.722C17.7774 8.362 22.1394 4 27.4994 4ZM27.4994 7C23.7934 7 20.7774 10.016 20.7774 13.722L20.7774 18.5L34.2234 18.5L34.2234 13.722C34.2234 10.016 31.2074 7 27.4994 7ZM27.5 26.01C26.672 26.01 26 26.682 26 27.51L26 31.55C25.406 32.008 25 32.694 25 33.5C25 34.88 26.12 36 27.5 36C28.88 36 30 34.88 30 33.5C30 32.694 29.594 32.008 29 31.55L29 27.51C29 26.682 28.328 26.01 27.5 26.01Z" fill="var(--tiny-first-color, #191919)" fill-rule="evenodd"/>
  <path id="合并" d="M7.5 42.481L7.5 5.51899C7.5 4.66835 6.84 4 6 4C5.16 4 4.5 4.66835 4.5 5.51899L4.5 42.481C4.5 43.3316 5.16 44 6 44C6.84 44 7.5 43.3316 7.5 42.481Z" fill="var(--tiny-second-color, #aeaeAE)" fill-rule="evenodd"/>
</svg>
