<svg viewBox="0 0 48 48" xmlns="http://www.w3.org/2000/svg" xmlns:xlink="http://www.w3.org/1999/xlink" width="48.000000" height="48.000000">
  <path id="合并" d="M27.0006 4C32.3697 4 36.7226 8.35221 36.7226 13.722L36.722 18.498L37 18.4994C40.1941 18.4994 42.8072 20.9984 42.9898 24.147L43 24.4994L43 37.9994C43 41.3132 40.313 43.9994 37 43.9994L17 43.9994C13.687 43.9994 11 41.3132 11 37.9994L11 24.4994C11 21.187 13.6876 18.4994 17 18.4994L17.276 18.498L17.2766 13.722C17.2766 8.49698 21.3978 4.23598 26.5674 4.00947L27.0006 4ZM7 43L7 6.5C7 5.66 6.34 5 5.5 5C4.66 5 4 5.66 4 6.5L4 43C4 43.84 4.66 44.5 5.5 44.5C6.34 44.5 7 43.84 7 43ZM27.0006 7C23.2865 7 20.2766 10.0089 20.2766 13.722L20.276 18.4982L33.722 18.4982L33.7226 13.722C33.7226 10.1329 30.9102 7.20139 27.3694 7.00995L27.0006 7ZM18.7462 21.4997L17 21.4994C15.3444 21.4994 14 22.8438 14 24.4994L14 37.9994C14 39.6562 15.3436 40.9994 17 40.9994L37 40.9994C38.6564 40.9994 40 39.6562 40 37.9994L40 24.4994C40 22.8438 38.6556 21.4994 37 21.4994L35.252 21.498L18.7462 21.4997ZM27 26.0092C27.7594 26.0092 28.387 26.5735 28.4863 27.3057L28.5 27.5092L28.5035 31.5023C29.1086 31.9587 29.5 32.6836 29.5 33.4994C29.5 34.8794 28.38 35.9994 27 35.9994C25.62 35.9994 24.5 34.8794 24.5 33.4994C24.5 32.6827 24.8923 31.9571 25.4985 31.5008L25.5 27.5092C25.5 26.6808 26.1716 26.0092 27 26.0092Z" fill="var(--tiny-first-color)" fill-rule="evenodd"/>
  <path id="合并" d="M7 43L7 6.5C7 5.66 6.34 5 5.5 5C4.66 5 4 5.66 4 6.5L4 43C4 43.84 4.66 44.5 5.5 44.5C6.34 44.5 7 43.84 7 43Z" fill="var(--tiny-second-color)" fill-rule="evenodd"/>
</svg>