<svg viewBox="0 0 48 48" xmlns="http://www.w3.org/2000/svg" xmlns:xlink="http://www.w3.org/1999/xlink" width="48.000000" height="48.000000" fill="none">
  <path id="矩形 1841" d="M6 27L21.9693 34.0976C23.2621 34.6722 24.7379 34.6722 26.0307 34.0976L42 27L42 37C42 39.7614 39.7614 42 37 42L11 42C8.23858 42 6 39.7614 6 37L6 27Z" fill="var(--tiny-second-color, #aeaeAE)" fill-rule="evenodd"/>
  <path id="减去顶层" d="M37 6L11 6C8.23858 6 6 8.23858 6 11L6 24L21.9693 31.0975C23.2621 31.6721 24.7379 31.6721 26.0307 31.0975L42 24L42 11C42 8.23858 39.7614 6 37 6ZM22.5 11L13.5 11L13.2965 11.0137C12.5643 11.113 12 11.7407 12 12.5C12 13.3284 12.6716 14 13.5 14L22.5 14L22.7035 13.9863C23.4357 13.887 24 13.2593 24 12.5C24 11.6716 23.3284 11 22.5 11ZM36 18.5C36 17.6716 35.3284 17 34.5 17L13.5 17L13.2965 17.0137C12.5643 17.113 12 17.7407 12 18.5C12 19.3284 12.6716 20 13.5 20L34.5 20L34.7035 19.9863C35.4357 19.887 36 19.2593 36 18.5ZM27.5 23L18.5 23L18.2965 23.0137C17.5643 23.113 17 23.7407 17 24.5C17 25.3284 17.6716 26 18.5 26L27.5 26L27.7035 25.9863C28.4357 25.887 29 25.2593 29 24.5C29 23.6716 28.3284 23 27.5 23Z" fill="var(--tiny-first-color, #191919)" fill-rule="evenodd"/>
</svg>
