<svg viewBox="0 0 48 48" xmlns="http://www.w3.org/2000/svg" xmlns:xlink="http://www.w3.org/1999/xlink" width="48.000000" height="48.000000" fill="none">
  <path id="形状结合" d="M7.5 5.5C8.604 5.5 9.5 6.394 9.5 7.5L9.5 36C9.5 37.378 10.622 38.5 12 38.5L40.5 38.5C41.604 38.5 42.5 39.394 42.5 40.5C42.5 41.606 41.604 42.5 40.5 42.5L12 42.5C8.416 42.5 5.5 39.584 5.5 36L5.5 7.5C5.5 6.394 6.396 5.5 7.5 5.5ZM40.138 12.356C41.046 12.984 41.274 14.23 40.644 15.138L31.644 28.138C31.25 28.708 30.614 29.052 29.894 28.998C29.202 28.96 28.576 28.566 28.244 27.958L23.772 19.76L15.628 31.162C15.238 31.708 14.622 32 13.998 32C13.596 32 13.19 31.878 12.838 31.626C11.938 30.986 11.73 29.736 12.372 28.838L22.372 14.838C22.772 14.28 23.422 13.99 24.122 14.004C24.808 14.044 25.426 14.438 25.756 15.042L30.202 23.194L37.356 12.862C37.984 11.956 39.228 11.724 40.138 12.356Z" fill="var(--tiny-first-color, #191919)" fill-rule="evenodd"/>
  <path id="形状结合" d="M40.1379 12.3561C41.0459 12.9841 41.2739 14.2301 40.6439 15.1381L31.6439 28.1381C31.2499 28.7081 30.6139 29.0521 29.8939 28.9981C29.2019 28.9601 28.5759 28.5661 28.2439 27.9581L23.7719 19.7601L15.6279 31.1621C15.2379 31.7081 14.6219 32.0001 13.9979 32.0001C13.5959 32.0001 13.1899 31.8781 12.8379 31.6261C11.9379 30.9861 11.7299 29.7361 12.3719 28.8381L22.3719 14.8381C22.7719 14.2801 23.4219 13.9901 24.1219 14.0041C24.8079 14.0441 25.4259 14.4381 25.7559 15.0421L30.2019 23.1941L37.3559 12.8621C37.9839 11.9561 39.2279 11.7241 40.1379 12.3561Z" fill="var(--tiny-second-color, #aeaeAE)" fill-rule="evenodd"/>
</svg>
