<svg viewBox="0 0 48 48" xmlns="http://www.w3.org/2000/svg" xmlns:xlink="http://www.w3.org/1999/xlink" width="48.000000" height="48.000000">
  <path id="形状结合" d="M7.5 6C8.25939 6 8.88698 6.56431 8.98631 7.29646L9 7.5L9 36C9 37.5601 10.1891 38.841 11.711 38.9863L12 39L40.5 39C41.3284 39 42 39.6716 42 40.5C42 41.2594 41.4357 41.887 40.7035 41.9863L40.5 42L12 42C8.80395 42 6.19263 39.5028 6.01018 36.3526L6 36L6 7.5C6 6.67157 6.67157 6 7.5 6ZM39.8538 12.7667C40.473 13.1954 40.6697 14.0066 40.3461 14.6623L31.2333 27.8538C30.6401 28.7106 29.3985 28.7039 28.8009 27.9022L23.828 18.8188L15.2206 30.8719C14.7829 31.4847 13.9688 31.6694 13.318 31.3362C12.7051 30.8985 12.3306 29.9688 12.6638 29.318L22.7794 15.1281C23.3799 14.2874 24.6081 14.3033 25.2002 15.0993L30.15 24.1448L37.7667 13.1462C38.2383 12.4651 39.1727 12.2952 39.8538 12.7667Z" fill="var(--tiny-first-color)" fill-rule="evenodd"/>
  <path id="形状结合" d="M39.8538 12.7666C40.473 13.1953 40.6697 14.0065 40.3461 14.6622L31.2333 27.8537C30.6401 28.7105 29.3985 28.7038 28.8009 27.9021L23.828 18.8187L15.2206 30.8717C14.7829 31.4846 13.9688 31.6693 13.318 31.3361C12.7051 30.8984 12.3306 29.9687 12.6638 29.3179L22.7794 15.128C23.3799 14.2873 24.6081 14.3032 25.2002 15.0991L30.15 24.1447L37.7667 13.1461C38.2383 12.4649 39.1727 12.2951 39.8538 12.7666Z" fill="var(--tiny-second-color)" fill-rule="evenodd"/>
</svg>