<svg viewBox="0 0 48 48" xmlns="http://www.w3.org/2000/svg" xmlns:xlink="http://www.w3.org/1999/xlink" width="48.000000" height="48.000000" fill="none">
  <path id="形状结合" d="M16.9319 19.7589C17.7139 20.5389 17.7139 21.8049 16.9319 22.5869L9.85988 29.6589C7.51988 31.9989 7.51988 35.8029 9.85988 38.1429C12.1999 40.4809 16.0059 40.4849 18.3459 38.1429L25.4159 31.0729C26.1979 30.2909 27.4639 30.2909 28.2439 31.0729C29.0259 31.8529 29.0259 33.1189 28.2439 33.9009L21.1739 40.9709C19.2259 42.9209 16.6639 43.8949 14.1039 43.8949C11.5419 43.8949 8.97988 42.9209 7.03188 40.9709C5.14388 39.0829 4.10388 36.5729 4.10388 33.9009C4.10388 31.2289 5.14388 28.7189 7.03188 26.8309L14.1039 19.7589C14.8859 18.9769 16.1499 18.9769 16.9319 19.7589ZM32.4959 15.5245C33.2779 16.3045 33.2779 17.5705 32.4959 18.3525L18.3539 32.4945C17.9639 32.8845 17.4519 33.0805 16.9399 33.0805C16.4279 33.0805 15.9159 32.8845 15.5259 32.4945C14.7439 31.7125 14.7439 30.4485 15.5259 29.6665L29.6679 15.5245C30.4499 14.7425 31.7159 14.7425 32.4959 15.5245ZM40.9727 7.03047C44.8707 10.9305 44.8707 17.2745 40.9727 21.1725L33.9007 28.2445C33.5107 28.6345 32.9987 28.8305 32.4867 28.8305C31.9747 28.8305 31.4627 28.6345 31.0727 28.2445C30.2907 27.4625 30.2907 26.1985 31.0727 25.4165L38.1447 18.3445C40.4827 16.0045 40.4827 12.1985 38.1447 9.85847C35.8027 7.52047 31.9967 7.52447 29.6587 9.85847L22.5887 16.9305C21.8067 17.7105 20.5407 17.7105 19.7607 16.9305C18.9787 16.1485 18.9787 14.8825 19.7607 14.1025L26.8307 7.03047C30.7267 3.13247 37.0727 3.12847 40.9727 7.03047Z" fill="var(--tiny-first-color, #191919)" fill-rule="evenodd"/>
  <path id="形状结合" d="M32.4959 15.5245C33.2779 16.3045 33.2779 17.5705 32.4959 18.3525L18.3539 32.4945C17.9639 32.8845 17.4519 33.0805 16.9399 33.0805C16.4279 33.0805 15.9159 32.8845 15.5259 32.4945C14.7439 31.7125 14.7439 30.4485 15.5259 29.6665L29.6679 15.5245C30.4499 14.7425 31.7159 14.7425 32.4959 15.5245Z" fill="var(--tiny-second-color, #aeaeAE)" fill-rule="evenodd"/>
</svg>
