<svg viewBox="0 0 48 48" xmlns="http://www.w3.org/2000/svg" xmlns:xlink="http://www.w3.org/1999/xlink" width="48.000000" height="48.000000">
  <path id="形状" d="M36.0014 6C37.5485 6 39.008 6.59324 40.1132 7.63541C41.2076 8.66735 41.8844 10.0728 41.9898 11.6926L42 36.002C42 37.5485 41.4068 39.008 40.3646 40.1132C39.3326 41.2076 37.9272 41.8844 36.3074 41.9898L11.996 42C10.4497 42 8.99071 41.4069 7.88597 40.3648C6.79196 39.3329 6.11551 37.9273 6.01018 36.3074L6 11.998C6 10.4513 6.5929 8.99174 7.63472 7.88651C8.66618 6.79227 10.0711 6.11559 11.6906 6.01019L36.0014 6ZM36.002 9L11.7917 9.00682C11.0357 9.05758 10.3358 9.39467 9.81774 9.94428C9.29495 10.4989 9 11.225 9 11.9974L9.00682 36.2064C9.05759 36.9633 9.39481 37.664 9.94449 38.1825C10.4986 38.7052 11.2238 39 11.9954 39L36.2063 38.9932C36.9628 38.9424 37.6633 38.605 38.1819 38.0551C38.705 37.5004 39 36.7745 39 36.0026L38.9932 11.7937C38.9424 11.0372 38.605 10.3367 38.0551 9.81807C37.5004 9.29504 36.7745 9 36.002 9ZM15.6357 31.0096C16.7403 31.0096 17.6357 31.9051 17.6357 33.0096C17.6357 34.1142 16.7403 35.0096 15.6357 35.0096C14.5311 35.0096 13.6357 34.1142 13.6357 33.0096C13.6357 31.9051 14.5311 31.0096 15.6357 31.0096ZM32.8643 31.5096C33.6927 31.5096 34.3643 32.1812 34.3643 33.0096C34.3643 33.769 33.8 34.3966 33.0678 34.4959L32.8643 34.5096L22.1314 34.5096L21.9279 34.4959C21.1957 34.3966 20.6314 33.769 20.6314 33.0096C20.6314 32.2502 21.1957 31.6227 21.9279 31.5233L22.1314 31.5096L32.8643 31.5096ZM15.6357 22C16.7403 22 17.6357 22.8954 17.6357 24C17.6357 25.1046 16.7403 26 15.6357 26C14.5311 26 13.6357 25.1046 13.6357 24C13.6357 22.8954 14.5311 22 15.6357 22ZM32.8643 22.5C33.6927 22.5 34.3643 23.1716 34.3643 24C34.3643 24.7594 33.8 25.387 33.0678 25.4863L32.8643 25.5L22.1314 25.5L21.9279 25.4863C21.1957 25.387 20.6314 24.7594 20.6314 24C20.6314 23.2406 21.1957 22.613 21.9279 22.5137L22.1314 22.5L32.8643 22.5ZM15.6357 12.9904C16.7403 12.9904 17.6357 13.8858 17.6357 14.9904C17.6357 16.0949 16.7403 16.9904 15.6357 16.9904C14.5311 16.9904 13.6357 16.0949 13.6357 14.9904C13.6357 13.8858 14.5311 12.9904 15.6357 12.9904ZM32.8643 13.4904C33.6927 13.4904 34.3643 14.1619 34.3643 14.9904C34.3643 15.7498 33.8 16.3773 33.0678 16.4767L32.8643 16.4904L22.1314 16.4904L21.9279 16.4767C21.1957 16.3773 20.6314 15.7498 20.6314 14.9904C20.6314 14.231 21.1957 13.6034 21.9279 13.5041L22.1314 13.4904L32.8643 13.4904Z" fill="var(--tiny-first-color, #191919)" fill-rule="nonzero"/>
  <path id="形状" d="M15.6357 31.0096C16.7403 31.0096 17.6357 31.9051 17.6357 33.0096C17.6357 34.1142 16.7403 35.0096 15.6357 35.0096C14.5311 35.0096 13.6357 34.1142 13.6357 33.0096C13.6357 31.9051 14.5311 31.0096 15.6357 31.0096ZM32.8643 31.5096C33.6927 31.5096 34.3643 32.1812 34.3643 33.0096C34.3643 33.769 33.8 34.3966 33.0678 34.4959L32.8643 34.5096L22.1314 34.5096L21.9279 34.4959C21.1957 34.3966 20.6314 33.769 20.6314 33.0096C20.6314 32.2502 21.1957 31.6227 21.9279 31.5233L22.1314 31.5096L32.8643 31.5096ZM15.6357 22C16.7403 22 17.6357 22.8954 17.6357 24C17.6357 25.1046 16.7403 26 15.6357 26C14.5311 26 13.6357 25.1046 13.6357 24C13.6357 22.8954 14.5311 22 15.6357 22ZM32.8643 22.5C33.6927 22.5 34.3643 23.1716 34.3643 24C34.3643 24.7594 33.8 25.387 33.0678 25.4863L32.8643 25.5L22.1314 25.5L21.9279 25.4863C21.1957 25.387 20.6314 24.7594 20.6314 24C20.6314 23.2406 21.1957 22.613 21.9279 22.5137L22.1314 22.5L32.8643 22.5ZM15.6357 12.9904C16.7403 12.9904 17.6357 13.8858 17.6357 14.9904C17.6357 16.0949 16.7403 16.9904 15.6357 16.9904C14.5311 16.9904 13.6357 16.0949 13.6357 14.9904C13.6357 13.8858 14.5311 12.9904 15.6357 12.9904ZM32.8643 13.4904C33.6927 13.4904 34.3643 14.1619 34.3643 14.9904C34.3643 15.7498 33.8 16.3773 33.0678 16.4767L32.8643 16.4904L22.1314 16.4904L21.9279 16.4767C21.1957 16.3773 20.6314 15.7498 20.6314 14.9904C20.6314 14.231 21.1957 13.6034 21.9279 13.5041L22.1314 13.4904L32.8643 13.4904Z" fill="var(--tiny-second-color, #aeaeAE)" fill-rule="nonzero"/>
</svg>