<svg viewBox="0 0 48 48" xmlns="http://www.w3.org/2000/svg" xmlns:xlink="http://www.w3.org/1999/xlink" width="48.000000" height="48.000000">
  <path id="减去顶层" d="M5.61372 9.43223L5.61371 9.43227C5.56478 9.65667 5.53164 9.88451 5.51429 10.1158C3.99214 11.2041 3 12.9862 3 15L3 36L3.01019 36.3525C3.19268 39.5022 5.80464 42 9 42L21.8 42L22.0035 41.9863C22.3958 41.9331 22.7398 41.7283 22.9748 41.4328C22.1451 40.7094 21.3986 39.893 20.7514 39L9 39L8.71108 38.9863C7.18978 38.8409 6 37.5594 6 36L6 15L6.01373 14.7111C6.1591 13.1898 7.44061 12 9 12L30 12L30.2889 12.0137C31.8102 12.1591 33 14.4406 33 16L33 16.0085C34.0302 16.0434 35.0331 16.1857 35.9978 16.4247C35.9993 16.3979 36 16.3709 36 16.3438L36 16L35.9898 15.6475C35.8819 13.7853 34.9248 11.8015 33.5 10.4907C33.4994 10.1298 33.4615 9.77697 33.3863 9.43228C33.3211 9.13317 33.2278 8.84019 33.1065 8.55331C32.9854 8.26705 32.8405 7.99652 32.6719 7.74173L32.6719 7.74168L32.6716 7.74125C32.4878 7.46363 32.2758 7.20471 32.0355 6.96447C31.7952 6.7241 31.5361 6.51199 31.2583 6.32814C31.0035 6.1595 30.733 6.01463 30.4467 5.89354C30.1598 5.77221 29.8669 5.67893 29.5678 5.61371C29.2201 5.5379 28.8642 5.5 28.5 5.5L10.5 5.5C10.1358 5.5 9.77988 5.53791 9.43222 5.61372C9.13313 5.67894 8.84017 5.77221 8.55331 5.89354C8.26706 6.01462 7.99654 6.15946 7.74176 6.32809C7.46396 6.51195 7.20486 6.72408 6.96447 6.96447C6.72408 7.20486 6.51195 7.46395 6.32809 7.74176C6.15946 7.99654 6.01462 8.26706 5.89354 8.55331C5.77221 8.84017 5.67894 9.13314 5.61372 9.43223ZM24.1731 18.6278C23.4072 16.5119 21.3802 15 19 15C15.9624 15 13.5 17.4624 13.5 20.5C13.5 22.1502 14.2267 23.6306 15.3776 24.6388C15.3509 24.6443 15.3242 24.65 15.2975 24.6558C14.8975 24.7437 14.5057 24.8688 14.1221 25.0311C13.7377 25.1937 13.3742 25.3881 13.0317 25.6143C12.6547 25.8634 12.3031 26.1509 11.977 26.477C11.6509 26.8031 11.3634 27.1547 11.1143 27.5317L11.1143 27.5317C10.8881 27.8742 10.6937 28.2377 10.5311 28.6221C10.3688 29.0057 10.2437 29.3975 10.1558 29.7975C10.0519 30.2702 10 30.7544 10 31.25C10 31.4828 10.0239 31.7105 10.0716 31.933C10.1141 32.1312 10.1756 32.3254 10.256 32.5155C10.3355 32.7035 10.4308 32.881 10.5418 33.048L10.5419 33.0482L10.5419 33.0483C10.6606 33.2268 10.7973 33.3934 10.9519 33.5481C11.1066 33.7028 11.2732 33.8395 11.4518 33.9581C11.6189 34.0692 11.7965 34.1645 11.9845 34.244C12.1743 34.3243 12.3682 34.3857 12.5661 34.4282L12.567 34.4284L12.567 34.4284C12.7896 34.4761 13.0172 34.5 13.25 34.5L18.5587 34.5C18.283 33.5372 18.1043 32.5335 18.0339 31.5L13.25 31.5C13.2155 31.5 13.1835 31.4939 13.154 31.4817C13.1246 31.4695 13.0976 31.4512 13.0732 31.4268C13.0488 31.4024 13.0305 31.3754 13.0183 31.346C13.0061 31.3165 13 31.2845 13 31.25C13 30.9571 13.0324 30.6718 13.0973 30.394C13.1452 30.1888 13.2108 29.9877 13.2941 29.7908C13.3807 29.5859 13.4837 29.3917 13.6031 29.2082L13.6031 29.2081C13.7451 28.9898 13.9101 28.7866 14.0983 28.5984C14.2865 28.4102 14.4898 28.2451 14.7081 28.1031C14.8917 27.9838 15.0859 27.8807 15.2908 27.7941C15.4877 27.7108 15.6888 27.6452 15.894 27.5973C16.1718 27.5324 16.4571 27.5 16.75 27.5L18.3107 27.5C18.6822 25.7341 19.3751 24.0865 20.3252 22.6212C20.2133 22.6914 20.0956 22.7526 19.9722 22.8048C19.8546 22.8545 19.7347 22.8947 19.6124 22.9254C19.4145 22.9751 19.2104 23 19 23C18.7896 23 18.5855 22.9752 18.3877 22.9254C18.2653 22.8947 18.1454 22.8545 18.0278 22.8048C17.8987 22.7501 17.7758 22.6857 17.6591 22.6114C17.506 22.5138 17.3637 22.3993 17.2322 22.2678C17.1007 22.1363 16.9862 21.9939 16.8886 21.8408C16.8143 21.7242 16.7499 21.6013 16.6952 21.4722C16.6455 21.3546 16.6053 21.2347 16.5746 21.1124L16.5746 21.1124C16.5249 20.9145 16.5 20.7104 16.5 20.5C16.5 20.2896 16.5249 20.0855 16.5746 19.8876L16.5746 19.8876C16.6053 19.7653 16.6455 19.6454 16.6952 19.5278C16.7499 19.3987 16.8143 19.2758 16.8886 19.1592C16.9862 19.0061 17.1007 18.8637 17.2322 18.7322C17.3637 18.6007 17.5061 18.4862 17.6592 18.3886L17.6592 18.3886C17.7758 18.3143 17.8987 18.2498 18.0278 18.1952C18.1454 18.1455 18.2653 18.1053 18.3876 18.0746L18.3876 18.0746C18.5855 18.0249 18.7896 18 19 18C19.2104 18 19.4145 18.0249 19.6124 18.0746C19.7347 18.1053 19.8546 18.1455 19.9722 18.1952C20.1013 18.2499 20.2242 18.3143 20.3408 18.3886L20.3409 18.3886C20.494 18.4862 20.6363 18.6007 20.7678 18.7322C20.8993 18.8637 21.0138 19.0061 21.1114 19.1592C21.1857 19.2758 21.2502 19.3987 21.3048 19.5278C21.3545 19.6454 21.3947 19.7653 21.4254 19.8876C21.4751 20.0855 21.5 20.2896 21.5 20.5C21.5 20.7103 21.4752 20.9144 21.4255 21.1123C21.4221 21.1256 21.4187 21.1388 21.4151 21.152C22.2212 20.1971 23.1485 19.3478 24.1731 18.6278ZM29.8231 9L9.1769 9C9.25313 8.93248 9.33355 8.87145 9.41816 8.81692C9.51405 8.75512 9.61532 8.70166 9.72197 8.65655C9.82218 8.61417 9.92447 8.58039 10.0288 8.55522C10.1814 8.51841 10.3385 8.5 10.5 8.5L28.5 8.5C28.6615 8.5 28.8186 8.51841 28.9712 8.55522C29.0755 8.58039 29.1778 8.61417 29.278 8.65655C29.3847 8.70168 29.486 8.75515 29.5819 8.81697C29.6665 8.87149 29.7469 8.9325 29.8231 9Z" fill="var(--tiny-first-color, #191919)" fill-rule="evenodd"/>
  <path id="合并" d="M35.2167 18.2943L35.2168 18.2943L35.217 18.2944C35.9482 18.4567 36.6646 18.6862 37.366 18.9829C38.0733 19.2821 38.7422 19.6394 39.3728 20.0549L39.3728 20.0549C40.0758 20.518 40.7311 21.0535 41.3388 21.6612C41.9466 22.2689 42.4821 22.9243 42.9453 23.6274C43.3607 24.2579 43.718 24.9268 44.0171 25.634C44.3138 26.3354 44.5433 27.0518 44.7056 27.7831L44.7057 27.7832C44.9019 28.667 45 29.5726 45 30.5C45 31.4273 44.9019 32.3329 44.7057 33.2167C44.5433 33.9481 44.3138 34.6645 44.0171 35.366C43.7179 36.0733 43.3606 36.7422 42.9452 37.3728C42.482 38.0758 41.9466 38.7311 41.3388 39.3388C40.7311 39.9466 40.0757 40.482 39.3727 40.9452C38.7421 41.3607 38.0732 41.7179 37.366 42.0171C36.6646 42.3138 35.9482 42.5433 35.2169 42.7057L35.2168 42.7057C34.333 42.9019 33.4274 43 32.5 43C31.5727 43 30.6671 42.9019 29.7833 42.7057C29.052 42.5433 28.3355 42.3138 27.634 42.0171C26.9268 41.7179 26.2579 41.3607 25.6273 40.9452C24.9243 40.482 24.2689 39.9466 23.6612 39.3388C23.0534 38.7311 22.518 38.0757 22.0548 37.3727C21.6393 36.7421 21.2821 36.0732 20.9829 35.366C20.6862 34.6645 20.4567 33.9481 20.2943 33.2168C20.0981 32.333 20 31.4274 20 30.5C20 29.5726 20.0981 28.667 20.2943 27.7832L20.2944 27.7831C20.4567 27.0518 20.6862 26.3354 20.9829 25.634C21.2821 24.9268 21.6394 24.2578 22.0548 23.6273C22.518 22.9243 23.0534 22.2689 23.6612 21.6612C24.2689 21.0534 24.9243 20.518 25.6273 20.0548L25.6273 20.0548C26.2579 19.6393 26.9268 19.2821 27.634 18.9829C28.3355 18.6862 29.0519 18.4567 29.7832 18.2943C30.667 18.0981 31.5726 18 32.5 18C33.4274 18 34.3329 18.0981 35.2167 18.2943ZM30.3798 21.2357L30.3798 21.2357C29.8432 21.3581 29.3175 21.5282 28.8026 21.7459C28.275 21.9691 27.7754 22.235 27.3037 22.5436C26.7594 22.8997 26.2523 23.3126 25.7825 23.7825C25.3126 24.2523 24.8997 24.7594 24.5436 25.3036L24.5436 25.3036C24.235 25.7754 23.9691 26.275 23.7459 26.8026C23.5282 27.3175 23.3581 27.8432 23.2357 28.3798C23.0786 29.0686 23 29.7753 23 30.5C23 31.2247 23.0786 31.9314 23.2357 32.6202L23.2357 32.6203C23.3581 33.1569 23.5282 33.6826 23.7459 34.1974C23.9691 34.725 24.235 35.2247 24.5436 35.6964C24.8997 36.2406 25.3127 36.7477 25.7825 37.2175C26.2523 37.6873 26.7594 38.1003 27.3036 38.4564C27.7753 38.765 28.275 39.0309 28.8026 39.2541C29.3175 39.4718 29.8432 39.6419 30.3798 39.7643C31.0686 39.9214 31.7753 40 32.5 40C33.2247 40 33.9315 39.9214 34.6203 39.7643C35.1569 39.6419 35.6826 39.4718 36.1974 39.2541C36.725 39.0309 37.2247 38.765 37.6964 38.4564C38.2406 38.1003 38.7477 37.6874 39.2175 37.2175C39.6873 36.7477 40.1003 36.2407 40.4563 35.6965C40.765 35.2247 41.0309 34.725 41.2541 34.1974C41.4718 33.6825 41.6419 33.1568 41.7643 32.6202C41.9214 31.9314 42 31.2247 42 30.5C42 29.7753 41.9214 29.0685 41.7643 28.3797C41.6419 27.8431 41.4718 27.3174 41.2541 26.8026C41.0309 26.275 40.765 25.7754 40.4564 25.3037C40.1003 24.7594 39.6874 24.2523 39.2175 23.7825C38.7477 23.3127 38.2407 22.8997 37.6965 22.5437C37.2247 22.235 36.725 21.9691 36.1974 21.7459C35.6826 21.5282 35.1569 21.3581 34.6203 21.2357L34.6203 21.2357L34.6203 21.2357C33.9314 21.0786 33.2247 21 32.5 21C31.7753 21 31.0686 21.0786 30.3798 21.2357ZM30.5 27.5C30.5 26.3954 29.6046 25.5 28.5 25.5C27.3954 25.5 26.5 26.3954 26.5 27.5C26.5 28.6046 27.3954 29.5 28.5 29.5C29.6046 29.5 30.5 28.6046 30.5 27.5ZM39.2286 27.5C39.2286 26.6716 38.557 26 37.7286 26L32.9957 26L32.7922 26.0137C32.06 26.113 31.4957 26.7406 31.4957 27.5C31.4957 28.2594 32.06 28.887 32.7922 28.9863L32.9957 29L37.7286 29L37.9322 28.9863C38.6643 28.887 39.2286 28.2594 39.2286 27.5ZM30.5 33.5096C30.5 32.4051 29.6046 31.5096 28.5 31.5096C27.3954 31.5096 26.5 32.4051 26.5 33.5096C26.5 34.6142 27.3954 35.5096 28.5 35.5096C29.6046 35.5096 30.5 34.6142 30.5 33.5096ZM39.2286 33.5096C39.2286 32.6812 38.557 32.0096 37.7286 32.0096L32.9957 32.0096L32.7922 32.0233C32.06 32.1227 31.4957 32.7502 31.4957 33.5096C31.4957 34.269 32.06 34.8966 32.7922 34.9959L32.9957 35.0096L37.7286 35.0096L37.9322 34.9959C38.6643 34.8966 39.2286 34.269 39.2286 33.5096Z" fill="var(--tiny-second-color, #aeaeAE)" fill-rule="evenodd"/>
</svg>