<svg viewBox="0 0 48 48" xmlns="http://www.w3.org/2000/svg" xmlns:xlink="http://www.w3.org/1999/xlink" width="48.000000" height="48.000000">
  <path id="形状结合" d="M36.002 6C39.308 6 42 8.692 42 11.998L42 36.002C42 39.308 39.308 42 36.002 42L11.996 42C8.69 42 6 39.308 6 36.002L6 11.998C6 8.692 8.69 6 11.996 6L36.002 6ZM15.6357 31.0096C14.5311 31.0096 13.6357 31.9051 13.6357 33.0096C13.6357 34.1142 14.5311 35.0096 15.6357 35.0096C16.7403 35.0096 17.6357 34.1142 17.6357 33.0096C17.6357 31.9051 16.7403 31.0096 15.6357 31.0096ZM32.8643 31.5096L22.1314 31.5096L21.9279 31.5233C21.1957 31.6227 20.6314 32.2502 20.6314 33.0096C20.6314 33.8381 21.303 34.5096 22.1314 34.5096L32.8643 34.5096L33.0678 34.4959C33.8 34.3966 34.3643 33.769 34.3643 33.0096C34.3643 32.1812 33.6927 31.5096 32.8643 31.5096ZM15.6357 22C14.5311 22 13.6357 22.8954 13.6357 24C13.6357 25.1046 14.5311 26 15.6357 26C16.7403 26 17.6357 25.1046 17.6357 24C17.6357 22.8954 16.7403 22 15.6357 22ZM32.8643 22.5L22.1314 22.5L21.9279 22.5137C21.1957 22.613 20.6314 23.2406 20.6314 24C20.6314 24.8284 21.303 25.5 22.1314 25.5L32.8643 25.5L33.0678 25.4863C33.8 25.387 34.3643 24.7594 34.3643 24C34.3643 23.1716 33.6927 22.5 32.8643 22.5ZM15.6357 12.9904C14.5311 12.9904 13.6357 13.8858 13.6357 14.9904C13.6357 16.0949 14.5311 16.9904 15.6357 16.9904C16.7403 16.9904 17.6357 16.0949 17.6357 14.9904C17.6357 13.8858 16.7403 12.9904 15.6357 12.9904ZM32.8643 13.4904L22.1314 13.4904L21.9279 13.5041C21.1957 13.6034 20.6314 14.231 20.6314 14.9904C20.6314 15.8188 21.303 16.4904 22.1314 16.4904L32.8643 16.4904L33.0678 16.4767C33.8 16.3773 34.3643 15.7498 34.3643 14.9904C34.3643 14.1619 33.6927 13.4904 32.8643 13.4904Z" fill="var(--tiny-first-color, #191919)" fill-rule="nonzero"/>
  <path id="形状" d="M15.6357 31.0096C16.7403 31.0096 17.6357 31.9051 17.6357 33.0096C17.6357 34.1142 16.7403 35.0096 15.6357 35.0096C14.5311 35.0096 13.6357 34.1142 13.6357 33.0096C13.6357 31.9051 14.5311 31.0096 15.6357 31.0096ZM32.8643 31.5096C33.6927 31.5096 34.3643 32.1812 34.3643 33.0096C34.3643 33.769 33.8 34.3966 33.0678 34.4959L32.8643 34.5096L22.1314 34.5096L21.9279 34.4959C21.1957 34.3966 20.6314 33.769 20.6314 33.0096C20.6314 32.2502 21.1957 31.6227 21.9279 31.5233L22.1314 31.5096L32.8643 31.5096ZM15.6357 22C16.7403 22 17.6357 22.8954 17.6357 24C17.6357 25.1046 16.7403 26 15.6357 26C14.5311 26 13.6357 25.1046 13.6357 24C13.6357 22.8954 14.5311 22 15.6357 22ZM32.8643 22.5C33.6927 22.5 34.3643 23.1716 34.3643 24C34.3643 24.7594 33.8 25.387 33.0678 25.4863L32.8643 25.5L22.1314 25.5L21.9279 25.4863C21.1957 25.387 20.6314 24.7594 20.6314 24C20.6314 23.2406 21.1957 22.613 21.9279 22.5137L22.1314 22.5L32.8643 22.5ZM15.6357 12.9904C16.7403 12.9904 17.6357 13.8858 17.6357 14.9904C17.6357 16.0949 16.7403 16.9904 15.6357 16.9904C14.5311 16.9904 13.6357 16.0949 13.6357 14.9904C13.6357 13.8858 14.5311 12.9904 15.6357 12.9904ZM32.8643 13.4904C33.6927 13.4904 34.3643 14.1619 34.3643 14.9904C34.3643 15.7498 33.8 16.3773 33.0678 16.4767L32.8643 16.4904L22.1314 16.4904L21.9279 16.4767C21.1957 16.3773 20.6314 15.7498 20.6314 14.9904C20.6314 14.231 21.1957 13.6034 21.9279 13.5041L22.1314 13.4904L32.8643 13.4904Z" fill="var(--tiny-second-color, #aeaeAE)" fill-rule="nonzero"/>
</svg>