<svg viewBox="0 0 48 48" xmlns="http://www.w3.org/2000/svg" xmlns:xlink="http://www.w3.org/1999/xlink" width="48.000000" height="48.000000" fill="none">
  <path id="矢量 121" d="M39 5L9 5C7.34314 5 6 6.37759 6 8.07693L6 11.9231C6 13.6224 7.34314 15 9 15L39 15C40.6569 15 42 13.6224 42 11.9231L42 8.07693C42 6.37759 40.6569 5 39 5ZM9 19L39 19C40.6569 19 42 20.3776 42 22.0769L42 25.9231C42 27.6224 40.6569 29 39 29L9 29C7.34314 29 6 27.6224 6 25.9231L6 22.0769C6 20.3776 7.34314 19 9 19ZM39 33L9 33C7.34314 33 6 34.3776 6 36.0769L6 39.9231C6 41.6224 7.34314 43 9 43L39 43C40.6569 43 42 41.6224 42 39.9231L42 36.0769C42 34.3776 40.6569 33 39 33Z" fill="var(--tiny-first-color, #191919)" fill-rule="evenodd"/>
  <path id="矢量 121" d="M39 5L9 5C7.34314 5 6 6.37759 6 8.07693L6 11.9231C6 13.6224 7.34314 15 9 15L39 15C40.6569 15 42 13.6224 42 11.9231L42 8.07693C42 6.37759 40.6569 5 39 5Z" fill="var(--tiny-second-color, #aeaeAE)" fill-rule="evenodd"/>
</svg>
