<svg viewBox="0 0 48 48" xmlns="http://www.w3.org/2000/svg" xmlns:xlink="http://www.w3.org/1999/xlink" width="48.000000" height="48.000000" fill="none">
  <path id="矩形 183(边框)" d="M39 5C40.6569 5 42 6.34315 42 8L42 12C42 13.6569 40.6569 15 39 15L9 15C7.34315 15 6 13.6569 6 12L6 8C6 6.34315 7.34315 5 9 5L39 5ZM39 8L9 8L9 12L39 12L39 8Z" fill="var(--tiny-second-color, #aeaeAE)" fill-rule="evenodd"/>
  <path id="矩形 184(边框)" d="M39 19C40.6569 19 42 20.3431 42 22L42 26C42 27.6569 40.6569 29 39 29L9 29C7.34315 29 6 27.6569 6 26L6 22C6 20.3431 7.34315 19 9 19L39 19ZM39 22L9 22L9 26L39 26L39 22Z" fill="var(--tiny-first-color, #191919)" fill-rule="evenodd"/>
  <path id="矩形 185(边框)" d="M39 33C40.6569 33 42 34.3431 42 36L42 40C42 41.6569 40.6569 43 39 43L9 43C7.34315 43 6 41.6569 6 40L6 36C6 34.3431 7.34315 33 9 33L39 33ZM39 36L9 36L9 40L39 40L39 36Z" fill="var(--tiny-first-color, #191919)" fill-rule="evenodd"/>
</svg>
