<svg viewBox="0 0 48 48" xmlns="http://www.w3.org/2000/svg" xmlns:xlink="http://www.w3.org/1999/xlink" width="48.000000" height="48.000000" fill="none">
  <path id="矢量 1810(边框)" d="M25.4995 5L25.4995 14C25.4995 14.84 24.8395 15.5 23.9995 15.5C23.1595 15.5 22.4995 14.84 22.4995 14L22.4995 5C22.4995 4.16 23.1595 3.5 23.9995 3.5C24.8395 3.5 25.4995 4.16 25.4995 5Z" fill="var(--tiny-first-color)" fill-rule="evenodd"/>
  <path id="矢量 1811(边框)" d="M25.4995 34L25.4995 43C25.4995 43.84 24.8395 44.5 23.9995 44.5C23.1595 44.5 22.4995 43.84 22.4995 43L22.4995 34C22.4995 33.16 23.1595 32.5 23.9995 32.5C24.8395 32.5 25.4995 33.16 25.4995 34Z" fill="var(--tiny-first-color)" fill-rule="evenodd"/>
  <path id="矢量 1812(边框)" d="M3 1.5L3 10.5C3 11.34 2.34 12 1.5 12C0.66 12 0 11.34 0 10.5L0 1.5C0 0.66 0.66 0 1.5 0C2.34 0 3 0.66 3 1.5Z" fill="var(--tiny-first-color)" fill-rule="evenodd" transform="matrix(0,-1,1,0,3.5,25.5005)"/>
  <path id="矢量 1813(边框)" d="M3 1.5L3 10.5C3 11.34 2.34 12 1.5 12C0.66 12 0 11.34 0 10.5L0 1.5C0 0.66 0.66 0 1.5 0C2.34 0 3 0.66 3 1.5Z" fill="var(--tiny-first-color)" fill-rule="evenodd" transform="matrix(0,-1,1,0,32.5,25.5005)"/>
  <path id="矢量 1814(边框)" d="M3 1.5L3 10.5C3 11.34 2.34 12 1.5 12C0.66 12 0 11.34 0 10.5L0 1.5C0 0.66 0.66 0 1.5 0C2.34 0 3 0.66 3 1.5Z" fill="var(--tiny-first-color)" fill-rule="evenodd" transform="matrix(0.707107,0.707107,-0.707107,0.707107,37.4347,8.44336)"/>
  <path id="矢量 1815(边框)" d="M3 1.5L3 10.5C3 11.34 2.34 12 1.5 12C0.66 12 0 11.34 0 10.5L0 1.5C0 0.66 0.66 0 1.5 0C2.34 0 3 0.66 3 1.5Z" fill="var(--tiny-first-color)" fill-rule="evenodd" transform="matrix(0.707107,0.707107,-0.707107,0.707107,16.9286,28.9492)"/>
  <path id="矢量 1816(边框)" d="M3 1.5L3 10.5C3 11.34 2.34 12 1.5 12C0.66 12 0 11.34 0 10.5L0 1.5C0 0.66 0.66 0 1.5 0C2.34 0 3 0.66 3 1.5Z" fill="var(--tiny-first-color)" fill-rule="evenodd" transform="matrix(0.707107,-0.707107,0.707107,0.707107,8.44339,10.5654)"/>
  <path id="矢量 1817(边框)" d="M3 1.5L3 10.5C3 11.34 2.34 12 1.5 12C0.66 12 0 11.34 0 10.5L0 1.5C0 0.66 0.66 0 1.5 0C2.34 0 3 0.66 3 1.5Z" fill="var(--tiny-first-color)" fill-rule="evenodd" transform="matrix(0.707107,-0.707107,0.707107,0.707107,28.9495,31.0713)"/>
</svg>