<svg viewBox="0 0 48 48" xmlns="http://www.w3.org/2000/svg" xmlns:xlink="http://www.w3.org/1999/xlink" width="48.000000" height="48.000000" fill="none">
  <path id="合并" d="M24.0002 4.31201C24.0002 4.31201 29.1449 4.31201 32.7857 7.90189C32.7857 7.90189 36.4354 11.5005 36.4354 16.5941C36.4354 16.5941 36.4354 22.4519 28.053 32.3214C30.9863 32.8161 33 33.8306 33 35.0001C33 36.6555 28.9661 38.0001 24 38.0001C19.0339 38.0001 15 36.6555 15 35.0001C15 33.8251 17.0326 32.8066 19.9884 32.3145C16.6879 28.3494 11.5649 21.4178 11.5649 16.5941C11.5649 16.5941 11.5649 11.5005 15.2146 7.90189C15.2146 7.90189 18.8555 4.31201 24.0002 4.31201ZM24.168 16.1368C24.7878 16.1368 25.3497 16.2577 25.8536 16.4994C25.9297 16.5359 26.0046 16.5752 26.0781 16.6173C26.3711 16.7842 26.6295 16.9842 26.8533 17.2175C27.0591 17.4321 27.2356 17.6747 27.3828 17.9454C27.4147 18.0036 27.445 18.0626 27.4736 18.1223C27.723 18.6429 27.8477 19.2233 27.8477 19.8634C27.8477 20.3966 27.7543 20.8916 27.5675 21.3485C27.4962 21.5231 27.4111 21.6922 27.3125 21.8556C27.156 22.115 26.9741 22.3492 26.767 22.5585C26.5019 22.8261 26.1955 23.0528 25.8477 23.2384C25.6708 23.3332 25.4891 23.4143 25.3025 23.4819C24.8376 23.6503 24.3422 23.7345 23.8164 23.7345C23.1677 23.7345 22.5735 23.6133 22.0335 23.371C21.9427 23.3302 21.8534 23.286 21.7656 23.2384C21.466 23.0751 21.1975 22.8794 20.9601 22.6513C20.7167 22.4175 20.5061 22.1497 20.3281 21.8478C20.2949 21.7914 20.2632 21.7342 20.2331 21.6761C19.9451 21.1207 19.8008 20.49 19.8008 19.7853C19.8008 19.2933 19.8746 18.8259 20.0222 18.3831C20.0543 18.2868 20.0898 18.1917 20.1289 18.0978C20.3477 17.5691 20.7292 16.8777 21.2734 16.0236L23.8789 11.8165L26.0898 11.8165L23.7695 15.4806C23.6628 15.6499 23.4805 15.9116 23.2227 16.2657C23.543 16.1798 23.8581 16.1368 24.168 16.1368ZM23.8164 21.9103C24.1951 21.9103 24.5236 21.8266 24.8017 21.6594C24.9386 21.5771 25.0633 21.4745 25.1758 21.3517C25.2409 21.2806 25.2998 21.2054 25.3525 21.1261C25.5758 20.7898 25.6875 20.3793 25.6875 19.8947C25.6875 19.4164 25.5778 19.0102 25.3584 18.6759C25.3042 18.5934 25.2433 18.5153 25.1758 18.4415C25.0609 18.3153 24.9334 18.2103 24.7932 18.1266C24.5169 17.9615 24.1913 17.879 23.8164 17.879C23.4333 17.879 23.1004 17.9633 22.8177 18.1317C22.6757 18.2163 22.5464 18.3222 22.4297 18.4493C22.3526 18.5334 22.2841 18.6229 22.2241 18.7178C22.0148 19.0492 21.9102 19.4467 21.9102 19.9103C21.9102 20.3792 22.0179 20.7771 22.2334 21.104C22.2931 21.1946 22.3612 21.2798 22.4375 21.3595C22.5562 21.4826 22.6868 21.5851 22.8293 21.6669C23.1117 21.8292 23.4408 21.9103 23.8164 21.9103ZM41.1486 35.8162C41.1486 35.8162 41.1486 32.168 35.6309 29.9212C34.8637 29.6088 33.9884 29.9775 33.676 30.7448C33.3636 31.512 33.7323 32.3873 34.4995 32.6997C34.4995 32.6997 38.1486 34.1856 38.1486 35.8162C38.1486 35.8162 38.1486 37.4468 34.4995 38.9327C34.4995 38.9327 30.1882 40.6882 24.0001 40.6882C24.0001 40.6882 17.8119 40.6882 13.5006 38.9327C13.5006 38.9327 9.85156 37.4468 9.85156 35.8162C9.85156 35.8162 9.85156 34.1857 13.5 32.7C13.869 32.5497 14.1628 32.2594 14.3172 31.8928C14.3949 31.7085 14.4349 31.5105 14.4349 31.3105C14.4314 31.1261 14.3937 30.9156 14.3241 30.7448C14.0941 30.1799 13.5449 29.8105 12.9349 29.8105C12.7459 29.8123 12.5443 29.85 12.3692 29.9212C12.3692 29.9212 6.85156 32.1687 6.85156 35.8162C6.85156 35.8162 6.85156 39.4644 12.3692 41.7111C12.3692 41.7111 17.2245 43.6882 24.0001 43.6882C24.0001 43.6882 30.7756 43.6882 35.6309 41.7111C35.6309 41.7111 41.1486 39.4644 41.1486 35.8162Z" fill="var(--tiny-first-color, #191919)" fill-rule="evenodd"/>
  <path id="合并" d="M24.168 16.1367C24.7878 16.1367 25.3497 16.2576 25.8536 16.4993C25.9297 16.5358 26.0046 16.5751 26.0781 16.6172C26.3711 16.784 26.6295 16.9841 26.8533 17.2174C27.0591 17.432 27.2356 17.6746 27.3828 17.9453C27.4147 18.0035 27.445 18.0624 27.4736 18.1222C27.723 18.6428 27.8477 19.2232 27.8477 19.8633C27.8477 20.3965 27.7543 20.8915 27.5675 21.3484C27.4962 21.5229 27.4111 21.692 27.3125 21.8555C27.156 22.1148 26.9741 22.3491 26.767 22.5584C26.5019 22.826 26.1955 23.0527 25.8477 23.2383C25.6708 23.333 25.4891 23.4142 25.3025 23.4818C24.8376 23.6502 24.3422 23.7344 23.8164 23.7344C23.1677 23.7344 22.5735 23.6132 22.0335 23.3709C21.9427 23.3301 21.8534 23.2859 21.7656 23.2383C21.466 23.075 21.1975 22.8793 20.9601 22.6512C20.7167 22.4174 20.5061 22.1495 20.3281 21.8477C20.2949 21.7913 20.2632 21.734 20.2331 21.676C19.9451 21.1206 19.8008 20.4899 19.8008 19.7852C19.8008 19.2932 19.8746 18.8258 20.0222 18.383C20.0543 18.2867 20.0898 18.1916 20.1289 18.0977C20.3477 17.569 20.7292 16.8776 21.2734 16.0234L23.8789 11.8164L26.0898 11.8164L23.7695 15.4805C23.6628 15.6497 23.4805 15.9115 23.2227 16.2656C23.543 16.1797 23.8581 16.1367 24.168 16.1367ZM23.8164 21.9102C24.1951 21.9102 24.5236 21.8265 24.8017 21.6592C24.9386 21.5769 25.0633 21.4744 25.1758 21.3516C25.2409 21.2805 25.2998 21.2053 25.3525 21.126C25.5758 20.7896 25.6875 20.3792 25.6875 19.8945C25.6875 19.4163 25.5778 19.01 25.3584 18.6758C25.3042 18.5933 25.2433 18.5152 25.1758 18.4414C25.0609 18.3152 24.9334 18.2102 24.7932 18.1264C24.5169 17.9614 24.1913 17.8789 23.8164 17.8789C23.4333 17.8789 23.1004 17.9631 22.8177 18.1316C22.6757 18.2162 22.5464 18.3221 22.4297 18.4492C22.3526 18.5333 22.2841 18.6228 22.2241 18.7177C22.0148 19.0491 21.9102 19.4466 21.9102 19.9102C21.9102 20.3791 22.0179 20.777 22.2334 21.1039C22.2931 21.1945 22.3612 21.2797 22.4375 21.3594C22.5562 21.4825 22.6868 21.5849 22.8293 21.6668C23.1117 21.829 23.4408 21.9102 23.8164 21.9102Z" fill="var(--tiny-second-color, #aeaeAE)" fill-rule="evenodd"/>
  <path id="Path" d="M35.6309 29.9212C41.1486 32.168 41.1486 35.8162 41.1486 35.8162C41.1486 39.4643 35.6309 41.7111 35.6309 41.7111C30.7756 43.6882 24.0001 43.6882 24.0001 43.6882C17.2245 43.6882 12.3692 41.7111 12.3692 41.7111C6.85156 39.4643 6.85156 35.8162 6.85156 35.8162C6.85156 32.1687 12.3671 29.9221 12.3671 29.9221L12.3692 29.9212C12.5443 29.8499 12.7313 29.8124 12.9203 29.8105L12.9349 29.8105C13.5449 29.8105 14.0941 30.1798 14.3241 30.7448C14.3937 30.9156 14.4312 31.0978 14.4346 31.2822L14.4349 31.3105C14.4349 31.5105 14.3949 31.7085 14.3172 31.8928C14.1628 32.2594 13.869 32.5497 13.5 32.6999C9.85156 34.1857 9.85156 35.8162 9.85156 35.8162C9.85156 37.4468 13.5006 38.9326 13.5006 38.9326C17.8119 40.6882 24.0001 40.6882 24.0001 40.6882C30.1882 40.6882 34.4995 38.9326 34.4995 38.9326C38.1486 37.4468 38.1486 35.8162 38.1486 35.8162C38.1486 34.1856 34.4995 32.6997 34.4995 32.6997C33.7323 32.3873 33.3636 31.512 33.676 30.7448C33.9884 29.9775 34.8637 29.6088 35.6309 29.9212Z" fill="var(--tiny-second-color, #aeaeAE)" fill-rule="evenodd"/>
</svg>
