<svg viewBox="0 0 48 48" xmlns="http://www.w3.org/2000/svg" xmlns:xlink="http://www.w3.org/1999/xlink" width="48.000000" height="48.000000" fill="none">
  <path id="合并" d="M32.7857 7.90189C32.7857 7.90189 29.1449 4.31201 24.0002 4.31201C24.0002 4.31201 18.8555 4.31201 15.2146 7.90189C15.2146 7.90189 11.5649 11.5005 11.5649 16.5941C11.5649 16.5941 11.5649 22.47 19.9303 32.3242C17.006 32.82 15 33.8328 15 35.0001C15 36.6555 19.0339 38.0001 24 38.0001C28.9661 38.0001 33 36.6555 33 35.0001C33 33.825 30.9671 32.8064 28.0109 32.3144C31.0104 28.6957 36.4354 21.4761 36.4354 16.5941C36.4354 16.5941 36.4354 11.5005 32.7857 7.90189ZM24.3423 32.0023C33.4354 21.9935 33.4354 16.5941 33.4354 16.5941C33.4354 12.7555 30.6794 10.0381 30.6794 10.0381C27.9146 7.31201 24.0002 7.31201 24.0002 7.31201C20.0858 7.31201 17.321 10.0381 17.321 10.0381C14.5649 12.7555 14.5649 16.5941 14.5649 16.5941C14.5649 21.5905 21.9273 30.0954 23.6365 32.0025C23.7571 32.0009 23.8783 32.0001 24 32.0001C24.1146 32.0001 24.2287 32.0008 24.3423 32.0023ZM24.168 16.1368C24.7878 16.1368 25.3497 16.2577 25.8536 16.4994C25.9297 16.5359 26.0046 16.5752 26.0781 16.6173C26.6406 16.9376 27.0755 17.3803 27.3828 17.9454C27.6927 18.5105 27.8477 19.1499 27.8477 19.8634C27.8477 20.6004 27.6693 21.2644 27.3125 21.8556C27.156 22.1149 26.9741 22.3492 26.767 22.5585C26.502 22.8261 26.1955 23.0528 25.8477 23.2384C25.2305 23.5691 24.5534 23.7345 23.8164 23.7345C23.0586 23.7345 22.375 23.5691 21.7656 23.2384C21.1589 22.9077 20.6797 22.4441 20.3281 21.8478C19.9766 21.2514 19.8008 20.5639 19.8008 19.7853C19.8008 19.2933 19.8746 18.8259 20.0222 18.3831C20.0543 18.2868 20.0899 18.1917 20.1289 18.0978C20.3477 17.5691 20.7292 16.8777 21.2734 16.0236L23.8789 11.8165L26.0898 11.8165L23.7695 15.4806C23.6628 15.6499 23.4805 15.9116 23.2227 16.2657C23.543 16.1798 23.8581 16.1368 24.168 16.1368ZM23.8164 21.9103C24.3815 21.9103 24.8346 21.7241 25.1758 21.3517C25.5169 20.9793 25.6875 20.4936 25.6875 19.8947C25.6875 19.2983 25.5169 18.8139 25.1758 18.4415C25.0609 18.3153 24.9334 18.2103 24.7932 18.1266C24.5169 17.9615 24.1913 17.879 23.8164 17.879C23.4333 17.879 23.1004 17.9633 22.8177 18.1317C22.6757 18.2163 22.5464 18.3222 22.4297 18.4493C22.3526 18.5334 22.2841 18.6229 22.2241 18.7178C22.0148 19.0492 21.9102 19.4467 21.9102 19.9103C21.9102 20.5092 22.0859 20.9923 22.4375 21.3595C22.5562 21.4826 22.6868 21.5851 22.8293 21.6669C23.1117 21.8292 23.4408 21.9103 23.8164 21.9103ZM35.6309 29.9212C35.6309 29.9212 41.1486 32.168 41.1486 35.8162C41.1486 35.8162 41.1486 39.4644 35.6309 41.7111C35.6309 41.7111 30.7756 43.6882 24.0001 43.6882C24.0001 43.6882 17.2245 43.6882 12.3692 41.7111C12.3692 41.7111 6.85156 39.4644 6.85156 35.8162C6.85156 35.8162 6.85156 32.1687 12.3671 29.9221C12.5422 29.8508 12.7313 29.8124 12.9203 29.8106C13.5303 29.8106 14.0941 30.1799 14.3241 30.7448C14.3937 30.9156 14.4312 31.0978 14.4346 31.2822C14.4346 31.4822 14.3949 31.7085 14.3172 31.8928C14.1628 32.2594 13.869 32.5497 13.5 32.7C13.5 32.7 9.85156 34.1857 9.85156 35.8162C9.85156 35.8162 9.85156 37.4468 13.5006 38.9327C13.5006 38.9327 17.8119 40.6882 24.0001 40.6882C24.0001 40.6882 30.1882 40.6882 34.4995 38.9327C34.4995 38.9327 38.1486 37.4468 38.1486 35.8162C38.1486 35.8162 38.1486 34.1856 34.4995 32.6997C33.7323 32.3873 33.3636 31.512 33.676 30.7448C33.9884 29.9775 34.8637 29.6088 35.6309 29.9212Z" fill="var(--tiny-first-color)" fill-rule="evenodd"/>
  <path id="合并" d="M24.168 16.1367C24.7878 16.1367 25.3497 16.2576 25.8536 16.4993C25.9297 16.5358 26.0046 16.5751 26.0781 16.6172C26.6406 16.9375 27.0755 17.3802 27.3828 17.9453C27.6927 18.5104 27.8477 19.1497 27.8477 19.8633C27.8477 20.6003 27.6693 21.2643 27.3125 21.8555C27.156 22.1148 26.9741 22.3491 26.767 22.5583C26.502 22.826 26.1955 23.0527 25.8477 23.2383C25.2305 23.569 24.5534 23.7344 23.8164 23.7344C23.0586 23.7344 22.375 23.569 21.7656 23.2383C21.1589 22.9076 20.6797 22.444 20.3281 21.8477C19.9766 21.2513 19.8008 20.5638 19.8008 19.7852C19.8008 19.2931 19.8746 18.8257 20.0222 18.3829C20.0543 18.2867 20.0899 18.1916 20.1289 18.0977C20.3477 17.569 20.7292 16.8776 21.2734 16.0234L23.8789 11.8164L26.0898 11.8164L23.7695 15.4805C23.6628 15.6497 23.4805 15.9115 23.2227 16.2656C23.543 16.1797 23.8581 16.1367 24.168 16.1367ZM23.8164 21.9102C24.3815 21.9102 24.8346 21.724 25.1758 21.3516C25.5169 20.9792 25.6875 20.4935 25.6875 19.8945C25.6875 19.2982 25.5169 18.8138 25.1758 18.4414C25.0609 18.3152 24.9334 18.2102 24.7932 18.1264C24.5169 17.9614 24.1913 17.8789 23.8164 17.8789C23.4333 17.8789 23.1004 17.9631 22.8177 18.1316C22.6757 18.2162 22.5464 18.3221 22.4297 18.4492C22.3526 18.5333 22.2841 18.6228 22.2241 18.7177C22.0148 19.0491 21.9102 19.4466 21.9102 19.9102C21.9102 20.5091 22.0859 20.9922 22.4375 21.3594C22.5562 21.4825 22.6868 21.5849 22.8293 21.6668C23.1117 21.829 23.4408 21.9102 23.8164 21.9102Z" fill="var(--tiny-second-color)" fill-rule="evenodd"/>
  <path id="Path" d="M35.6309 29.9212C41.1486 32.168 41.1486 35.8162 41.1486 35.8162C41.1486 39.4643 35.6309 41.7111 35.6309 41.7111C30.7756 43.6882 24.0001 43.6882 24.0001 43.6882C17.2245 43.6882 12.3692 41.7111 12.3692 41.7111C6.85156 39.4643 6.85156 35.8162 6.85156 35.8162C6.85156 32.1687 12.3671 29.9221 12.3671 29.9221L12.3692 29.9212C12.5443 29.8499 12.7313 29.8124 12.9203 29.8105L12.9349 29.8105C13.5449 29.8105 14.0941 30.1798 14.3241 30.7448C14.3937 30.9156 14.4312 31.0978 14.4346 31.2822L14.4349 31.3105C14.4349 31.5105 14.3949 31.7085 14.3172 31.8928C14.1628 32.2594 13.869 32.5497 13.5 32.6999C9.85156 34.1857 9.85156 35.8162 9.85156 35.8162C9.85156 37.4468 13.5006 38.9326 13.5006 38.9326C17.8119 40.6882 24.0001 40.6882 24.0001 40.6882C30.1882 40.6882 34.4995 38.9326 34.4995 38.9326C38.1486 37.4468 38.1486 35.8162 38.1486 35.8162C38.1486 34.1856 34.4995 32.6997 34.4995 32.6997C33.7323 32.3873 33.3636 31.512 33.676 30.7448C33.9884 29.9775 34.8637 29.6088 35.6309 29.9212Z" fill="var(--tiny-second-color)" fill-rule="evenodd"/>
</svg>