<svg viewBox="0 0 48 48" xmlns="http://www.w3.org/2000/svg" xmlns:xlink="http://www.w3.org/1999/xlink" width="48.000000" height="48.000000" fill="none">
  <path id="形状结合" d="M24.0006 4C29.3697 4 33.7226 8.35221 33.7226 13.722L33.722 18.498L34 18.4994C37.1941 18.4994 39.8072 20.9984 39.9898 24.147L40 24.4994L40 37.9994C40 41.3132 37.313 43.9994 34 43.9994L14 43.9994C10.687 43.9994 8 41.3132 8 37.9994L8 24.4994C8 21.187 10.6876 18.4994 14 18.4994L14.276 18.498L14.2766 13.722C14.2766 8.49698 18.3978 4.23598 23.5674 4.00947L24.0006 4ZM15.7462 21.4997L14 21.4994C12.3444 21.4994 11 22.8438 11 24.4994L11 37.9994C11 39.6562 12.3436 40.9994 14 40.9994L34 40.9994C35.6564 40.9994 37 39.6562 37 37.9994L37 24.4994C37 22.8438 35.6556 21.4994 34 21.4994L32.252 21.498L15.7462 21.4997ZM24 26.0092C24.7594 26.0092 25.387 26.5735 25.4863 27.3057L25.5 27.5092L25.5035 31.5023C26.1086 31.9587 26.5 32.6836 26.5 33.4994C26.5 34.8794 25.38 35.9994 24 35.9994C22.62 35.9994 21.5 34.8794 21.5 33.4994C21.5 32.6827 21.8923 31.9571 22.4985 31.5008L22.5 27.5092C22.5 26.6808 23.1716 26.0092 24 26.0092ZM24.0006 7C20.2865 7 17.2766 10.0089 17.2766 13.722L17.276 18.4982L30.722 18.4982L30.7226 13.722C30.7226 10.1329 27.9102 7.20139 24.3694 7.00995L24.0006 7Z" fill="var(--tiny-first-color, #191919)" fill-rule="evenodd"/>
  <path id="矢量 1932" d="M24.0006 4C29.3697 4 33.7226 8.35205 33.7226 13.7222L33.722 18.498L34 18.4995C34.0286 18.4995 34.0572 18.4995 34.0857 18.5L13.9143 18.5C13.9428 18.4995 13.9714 18.4995 14 18.4995L14.276 18.498L14.2766 13.7222C14.2766 8.49707 18.3978 4.23584 23.5674 4.00928L24.0006 4ZM24.0006 7C20.2865 7 17.2766 10.0088 17.2766 13.7222L17.276 18.498L30.722 18.498L30.7226 13.7222C30.7226 10.1328 27.9102 7.20117 24.3694 7.00977L24.0006 7Z" fill="var(--tiny-second-color, #aeaeAE)" fill-rule="evenodd"/>
</svg>
