<svg viewBox="0 0 48 48" xmlns="http://www.w3.org/2000/svg" xmlns:xlink="http://www.w3.org/1999/xlink" width="48.000000" height="48.000000">
  <path id="形状结合" d="M23.9994 4C29.3614 4 33.7234 8.362 33.7234 13.722L33.722 18.5L34 18.5C37.308 18.5 40 21.192 40 24.5L40 38C40 41.308 37.308 44 34 44L14 44C10.692 44 8 41.308 8 38L8 24.5C8 21.192 10.692 18.5 14 18.5L14.276 18.5L14.2774 13.722C14.2774 8.362 18.6394 4 23.9994 4ZM24 26.01C23.172 26.01 22.5 26.682 22.5 27.51L22.5 31.55C21.906 32.008 21.5 32.694 21.5 33.5C21.5 34.88 22.62 36 24 36C25.38 36 26.5 34.88 26.5 33.5C26.5 32.694 26.094 32.008 25.5 31.55L25.5 27.51C25.5 26.682 24.828 26.01 24 26.01ZM23.9994 7C20.2934 7 17.2774 10.016 17.2774 13.722L17.2774 18.5L30.7234 18.5L30.7234 13.722C30.7234 10.016 27.7074 7 23.9994 7Z" fill="var(--tiny-first-color)" fill-rule="evenodd"/>
  <path id="矢量 1933" d="M23.9994 4C29.3614 4 33.7234 8.36182 33.7234 13.7222L33.722 18.5L30.7234 18.5L30.7234 13.7222C30.7234 10.0161 27.7074 7 23.9994 7C20.2934 7 17.2774 10.0161 17.2774 13.7222L17.2774 18.5L14.276 18.5L14.2774 13.7222C14.2774 8.36182 18.6394 4 23.9994 4Z" fill="var(--tiny-second-color)" fill-rule="evenodd"/>
</svg>