<svg viewBox="0 0 48 48" xmlns="http://www.w3.org/2000/svg" xmlns:xlink="http://www.w3.org/1999/xlink" width="48.000000" height="48.000000" fill="none">
  <path id="形状结合" d="M31.0552 4.21013C31.3165 4.29675 31.5387 4.4484 31.7096 4.64122C32.1213 4.95518 32.3508 5.47074 32.2924 6.00163L32.2519 6.22057L27.7998 23.1995C27.2036 25.4732 24.9739 26.8767 22.6977 26.4764L22.3562 26.4027L10.5024 23.3673C9.69885 23.1615 9.21032 22.3421 9.41128 21.5372C9.59398 20.8054 10.2836 20.3374 11.0112 20.413L11.2302 20.4522L23.0839 23.4877C23.8084 23.6732 24.5428 23.2967 24.8271 22.6288L24.8984 22.4199L28.8559 7.32199L8.14148 19.2788C7.10263 19.8786 6.70524 21.1655 7.18403 22.2475L7.30013 22.4758L16.024 37.5861C16.6292 38.6343 17.9134 39.0434 18.9869 38.5708L19.2134 38.456L39.8396 26.5474C40.8785 25.9476 41.2759 24.6608 40.792 23.57L40.6748 23.3395L33.5036 10.6791C33.0935 9.95507 33.3428 9.03872 34.0604 8.63237C34.7183 8.25988 35.5413 8.44523 35.9898 9.03638L43.2674 21.8571C44.6909 24.3228 43.9505 27.4393 41.632 28.9798L41.3463 29.157L20.8187 41.0057L42.4933 41.0068C43.3218 41.0068 43.9933 41.6784 43.9933 42.5068C43.9933 43.3352 43.3218 44.0077 42.4933 44.0077L5.512 44.0077C4.68358 44.0077 4.012 43.3361 4.012 42.5077C4.012 41.6792 4.68358 41.0068 5.512 41.0068L15.3299 41.0078C14.6619 40.607 14.0719 40.0552 13.6162 39.3678L13.4376 39.0793L4.71373 23.9691C3.29019 21.5035 4.03065 18.3869 6.34908 16.8464L6.63483 16.6692L27.2611 4.76068C28.5433 4.0204 29.8431 3.8083 31.0552 4.21013Z" fill="var(--tiny-first-color, #191919)" fill-rule="evenodd"/>
  <path id="形状结合" d="M42.5 41.0001L21.074 40.9989L15.5203 41.0016L5.5 41.0001C4.67157 41.0001 4 41.6717 4 42.5001C4 43.3285 4.67157 44.0001 5.5 44.0001L42.5 44.0001C43.3284 44.0001 44 43.3285 44 42.5001C44 41.6717 43.3284 41.0001 42.5 41.0001Z" fill="var(--tiny-second-color, #aeaeAE)" fill-rule="evenodd"/>
</svg>
