<svg viewBox="0 0 48 48" xmlns="http://www.w3.org/2000/svg" xmlns:xlink="http://www.w3.org/1999/xlink" width="48.000000" height="48.000000" fill="none">
  <path id="形状结合" d="M33.159 5.25407C33.8469 5.69506 34.4535 6.28281 34.9272 7.00352L35.1123 7.30374L43.1973 21.3073C44.795 24.0746 43.9377 27.5856 41.3013 29.3184L41.0011 29.5035L21.2986 40.8788L21.074 40.9987L42.5 41C43.3284 41 44 41.6715 44 42.5C44 43.3284 43.3284 44 42.5 44L5.5 44C4.67157 44 4 43.3284 4 42.5C4 41.6715 4.67157 41 5.5 41L15.5203 41.0015C14.6407 40.5431 13.8653 39.8619 13.2875 38.9828L13.1024 38.6826L5.01745 24.679C4.40584 23.6197 4.15398 22.4514 4.22396 21.3155L22.3574 26.3732L22.6969 26.4541C24.8583 26.8821 27.0217 25.672 27.7863 23.6023L27.8858 23.3008L33.159 5.25407ZM30.306 4.31579L25.0062 22.4594L24.9292 22.6659C24.657 23.2592 24.027 23.6093 23.3795 23.5272L23.1634 23.4835L5.14936 18.459C5.59193 17.7617 6.1847 17.1469 6.91338 16.6679L7.2136 16.4828L26.9161 5.10758C27.9837 4.49123 29.1619 4.24023 30.306 4.31579Z" fill="var(--tiny-first-color)" fill-rule="evenodd"/>
  <path id="形状结合" d="M42.5 41.0001L21.074 40.9989L15.5203 41.0016L5.5 41.0001C4.67157 41.0001 4 41.6717 4 42.5001C4 43.3285 4.67157 44.0001 5.5 44.0001L42.5 44.0001C43.3284 44.0001 44 43.3285 44 42.5001C44 41.6717 43.3284 41.0001 42.5 41.0001Z" fill="var(--tiny-second-color)" fill-rule="evenodd"/>
</svg>