<svg viewBox="0 0 48 48" xmlns="http://www.w3.org/2000/svg" xmlns:xlink="http://www.w3.org/1999/xlink" width="48.000000" height="48.000000">
  <path id="矢量 176" d="M30 3.49951L10 3.49951C6.68628 3.49951 4 6.18579 4 9.49951L4 40.1592C4 41.6704 5.61206 42.6357 6.94434 41.9224L13.3101 38.5117C14.1099 38.0835 15.0977 38.2471 15.7168 38.9102L18.5378 41.9331C19.3286 42.7803 20.6714 42.7803 21.4622 41.9331L21.6641 41.7168C19.9883 39.4087 19 36.5693 19 33.4995C19 32.5791 19.0889 31.6797 19.2583 30.8088C18.8022 30.5542 18.5 30.0681 18.5 29.4995L18.5 25.8091L14 25.8091C13.1599 25.8091 12.5 25.1492 12.5 24.3091C12.5 23.469 13.1599 22.8091 14 22.8091L18.5 22.8091L18.5 19.0947L14 19.0947C13.1599 19.0947 12.5 18.4348 12.5 17.5947C12.5 16.7546 13.1599 16.0947 14 16.0947L17.0212 16.0947L12.7949 10.3926C12.2947 9.71777 12.4319 8.79468 13.1069 8.29443C13.7817 7.79419 14.7048 7.9314 15.2051 8.60645L20 15.0757L24.7949 8.60645C25.2952 7.9314 26.2183 7.79419 26.8931 8.29443C27.5681 8.79468 27.7053 9.71777 27.2051 10.3926L22.9788 16.0947L26 16.0947C26.8401 16.0947 27.5 16.7546 27.5 17.5947C27.5 18.4348 26.8401 19.0947 26 19.0947L21.5 19.0947L21.5 22.8091L23.9597 22.8091C26.3987 20.7444 29.554 19.4993 33 19.4993C34.0298 19.4993 35.0334 19.6104 36 19.8215L36 9.49951C36 6.18579 33.3137 3.49951 30 3.49951Z" fill="var(--tiny-first-color)" fill-rule="evenodd"/>
  <path id="矢量 1737" d="M22 33C22 26.9248 26.9248 22 33 22C39.0752 22 44 26.9248 44 33C44 39.0752 39.0752 44 33 44C26.9248 44 22 39.0752 22 33ZM33.502 29L33.502 32.8677L36.9807 35.8633C37.6172 36.4111 37.6865 37.3423 37.1384 37.9785C36.5903 38.6152 35.6597 38.6846 35.0232 38.1367L31.0232 34.6924C30.8577 34.5498 30.7295 34.3794 30.6384 34.1807C30.593 34.0817 30.5589 33.9801 30.5361 33.876C30.5133 33.7718 30.502 33.6647 30.502 33.5557L30.502 29C30.502 28.1602 31.1619 27.5 32.002 27.5C32.842 27.5 33.502 28.1602 33.502 29Z" fill="var(--tiny-first-color)" fill-rule="evenodd"/>
  <path id="矢量 1737" d="M22 33C22 26.9248 26.9248 22 33 22C39.0752 22 44 26.9248 44 33C44 39.0752 39.0752 44 33 44C26.9248 44 22 39.0752 22 33ZM33.502 29L33.502 32.8677L36.9807 35.8633C37.6172 36.4111 37.6865 37.3423 37.1384 37.9785C36.5903 38.6152 35.6597 38.6846 35.0232 38.1367L31.0232 34.6924C30.8577 34.5498 30.7295 34.3794 30.6384 34.1807C30.593 34.0817 30.5589 33.9801 30.5361 33.876C30.5133 33.7718 30.502 33.6647 30.502 33.5557L30.502 29C30.502 28.1602 31.1619 27.5 32.002 27.5C32.842 27.5 33.502 28.1602 33.502 29Z" fill="var(--tiny-second-color)" fill-rule="evenodd"/>
</svg>