<svg viewBox="0 0 48 48" xmlns="http://www.w3.org/2000/svg" xmlns:xlink="http://www.w3.org/1999/xlink" width="48.000000" height="48.000000">
  <path id="减去顶层" d="M30.54 4.17253C31.1533 4.61434 31.5867 5.18141 31.84 5.87379L33.52 5.87379C34.6734 5.87379 35.7467 6.16737 36.74 6.75425C37.7267 7.34113 38.5167 8.13233 39.11 9.12804C39.7033 10.1238 40 11.192 40 12.3328L40 24.4245L37.02 22.6951L37.02 12.3328C37.02 11.3832 36.67 10.5689 35.97 9.88968C35.2633 9.21049 34.4467 8.87086 33.52 8.87086L31.98 8.87086L31.98 10.3446C31.98 11.2612 31.6367 12.0659 30.95 12.7583C30.2633 13.4573 29.44 13.8066 28.48 13.8066L15.52 13.8066C14.56 13.8066 13.7367 13.4573 13.05 12.7583C12.3633 12.0659 12.02 11.2612 12.02 10.3446L12.02 8.87086L10.48 8.87086C9.51998 8.87086 8.70336 9.21049 8.03003 9.88968C7.3567 10.5689 7.02002 11.3832 7.02002 12.3328L7.02002 37.0905C7.02002 38.0401 7.3567 38.8544 8.03003 39.5336C8.70336 40.2128 9.51998 40.5524 10.48 40.5524L22.9175 40.5524C23.3747 41.2408 23.9883 41.8275 24.7257 42.2557L26.8699 43.5L10.48 43.5C9.32665 43.5 8.25334 43.2067 7.26001 42.6198C6.27334 42.0329 5.48335 41.2481 4.89001 40.2656C4.29668 39.283 4 38.2247 4 37.0905L4 12.3328C4 11.192 4.29668 10.1238 4.89001 9.12804C5.48335 8.13233 6.27334 7.34113 7.26001 6.75425C8.25334 6.16737 9.32665 5.87379 10.48 5.87379L12.16 5.87379C12.4133 5.18141 12.8467 4.61434 13.46 4.17253C14.0667 3.72413 14.7534 3.5 15.52 3.5L28.48 3.5C29.2466 3.5 29.9333 3.72413 30.54 4.17253ZM23.6312 26.5808C22.6012 27.598 22 29.0009 22 30.4902L22 34.288C21.2235 34.2234 20.6312 33.5893 20.6312 32.7935L20.6312 29.908L16.5 29.908C15.66 29.908 15 29.2481 15 28.408C15 27.5681 15.66 26.908 16.5 26.908L20.6312 26.908L20.6312 24.6455L16.6229 24.6455C15.7829 24.6455 15.1229 23.9856 15.1229 23.1455C15.1229 22.3057 15.7829 21.6455 16.6229 21.6455L20.4137 21.6455L17.4516 17.9429C16.9269 17.2872 17.0299 16.3594 17.6859 15.8348C18.3418 15.3099 19.2695 15.4129 19.7942 16.0689L22.1654 19.033L24.7085 16.0359C25.252 15.3953 26.1822 15.3191 26.8227 15.8626C27.4632 16.4061 27.5395 17.3365 26.996 17.9769L23.8829 21.6455L27.6395 21.6455C28.4795 21.6455 29.1395 22.3057 29.1395 23.1455C29.1395 23.1581 29.1394 23.1706 29.1391 23.1831L26.6191 24.6455L23.6312 24.6455L23.6312 26.5808ZM15.14 6.58617C15.04 6.68509 14.99 6.81357 14.99 6.97182L14.99 10.3446C14.99 10.6612 15.1667 10.8194 15.52 10.8194L28.48 10.8194C28.64 10.8194 28.7667 10.77 28.86 10.6711C28.96 10.5788 29.01 10.4699 29.01 10.3446L29.01 6.97182C29.01 6.81357 28.96 6.68509 28.86 6.58617C28.7667 6.49386 28.64 6.44756 28.48 6.44756L15.52 6.44756C15.36 6.44756 15.2333 6.49386 15.14 6.58617Z" fill="var(--tiny-first-color, #191919)" fill-rule="evenodd"/>
  <path id="形状结合" d="M35.9153 24.4019L36.242 24.5732L41.2342 27.4553C42.5269 28.202 43.3587 29.5359 43.471 31.0098L43.484 31.3522L43.484 37.1162C43.484 38.6091 42.7445 39.9963 41.524 40.8307L41.234 41.0133L36.2422 43.8951C34.9571 44.6374 33.3961 44.6945 32.0687 44.0665L31.742 43.8953L26.7498 41.0131C25.4571 40.2665 24.6253 38.9326 24.513 37.4586L24.5 37.1162L24.5 31.3522C24.5 29.8594 25.2395 28.4722 26.4598 27.6378L26.7498 27.4553L31.7418 24.5733C33.0269 23.8311 34.5879 23.774 35.9153 24.4019ZM33.4468 27.0728L33.242 27.1713L28.2502 30.0531C27.8522 30.283 27.5853 30.6796 27.5172 31.1256L27.5 31.3522L27.5 37.1162C27.5 37.5755 27.71 38.0049 28.0623 38.2869L33.2422 41.2973C33.6398 41.5269 34.1168 41.5597 34.5372 41.3956L34.742 41.2972L39.7338 38.4153C40.1318 38.1854 40.3987 37.7889 40.4668 37.3428L40.484 37.1162L40.484 31.3522C40.484 30.8929 40.274 30.4636 39.9217 30.1815L34.7418 27.1711C34.3442 26.9415 33.8672 26.9087 33.4468 27.0728ZM33.9918 29.7384C36.4777 29.7384 38.4918 31.7535 38.4918 34.2384C38.4918 36.7249 36.4782 38.7384 33.9918 38.7384C31.5054 38.7384 29.4918 36.7249 29.4918 34.2384C29.4918 31.7535 31.5059 29.7384 33.9918 29.7384ZM33.9918 32.7384C33.1631 32.7384 32.4918 33.41 32.4918 34.2384C32.4918 35.068 33.1622 35.7384 33.9918 35.7384C34.8214 35.7384 35.4918 35.068 35.4918 34.2384C35.4918 33.41 34.8205 32.7384 33.9918 32.7384Z" fill="var(--tiny-second-color, #aeaeAE)" fill-rule="evenodd"/>
</svg>