<svg viewBox="0 0 48 48" xmlns="http://www.w3.org/2000/svg" xmlns:xlink="http://www.w3.org/1999/xlink" width="48.000000" height="48.000000" fill="none">
  <path id="减去顶层" d="M31.8791 4.05845C30.9952 3.69234 30.0355 3.50928 29 3.50928L11 3.50928C9.96447 3.50928 9.00476 3.69234 8.12088 4.05845C7.23702 4.42457 6.42892 4.97376 5.6967 5.70598C4.96447 6.43821 4.41529 7.24627 4.04918 8.13015C3.68306 9.01403 3.5 9.97374 3.5 11.0093L3.5 40.3313C3.5 40.8048 3.60168 41.2205 3.80503 41.5784C4.00839 41.9363 4.31343 42.2365 4.72015 42.4789C5.12685 42.7212 5.53599 42.8467 5.94756 42.8553C6.35913 42.8638 6.77314 42.7554 7.18958 42.5302L13.7486 38.9817C13.8451 38.9295 13.9391 38.9073 14.0304 38.9153C14.1217 38.9232 14.2105 38.9612 14.2966 39.0293L18.313 42.2051C19.0367 42.7772 19.7603 43.0633 20.4839 43.0633C21.1662 43.0633 21.8485 42.8089 22.5308 42.3002C21.8667 41.553 21.2815 40.7341 20.7881 39.8564C20.6867 39.935 20.5854 39.9744 20.484 39.9744C20.3806 39.9744 20.2771 39.9336 20.1738 39.8518L16.1573 36.676C15.5545 36.1994 14.9334 35.9333 14.294 35.8778C13.6546 35.8223 12.997 35.9774 12.3211 36.3431L6.5 39.4923L6.5 11.0093C6.5 10.388 6.60983 9.81213 6.8295 9.28181C7.04918 8.75149 7.3787 8.26662 7.81802 7.8273C8.25736 7.38796 8.7422 7.05845 9.27253 6.83878C9.80285 6.61912 10.3787 6.50928 11 6.50928L29 6.50928C29.6213 6.50928 30.1972 6.61911 30.7275 6.83879C31.2578 7.05846 31.7426 7.38796 32.182 7.8273C32.6213 8.26659 32.9508 8.75138 33.1704 9.28166C33.3901 9.81199 33.5 10.388 33.5 11.0093L33.5 19.009C34.5318 19.0455 35.5358 19.1945 36.5 19.4441L36.5 11.0093C36.5 9.97375 36.3169 9.01404 35.9508 8.13016C35.5847 7.24627 35.0355 6.43821 34.3033 5.70598C33.5712 4.97384 32.7629 4.42458 31.8791 4.05845ZM27.9355 19.9457C27.9774 19.8075 28 19.6609 28 19.5091C28 18.6806 27.3284 18.0091 26.5 18.0091L21.88 18.0091L27.1196 11.1168C27.4197 10.4416 27.1822 9.63169 26.536 9.23274C25.8311 8.79753 24.9069 9.01613 24.4717 9.72102L19.5 16.1511L14.4098 9.555C13.9406 8.9842 13.1101 8.83379 12.464 9.23273C11.7591 9.66795 11.5405 10.5923 11.9757 11.2972L17.118 18.0091L12.5 18.0091L12.2965 18.0228C11.5643 18.1221 11 18.7497 11 19.5091C11 20.3375 11.6716 21.0091 12.5 21.0091L18 21.0091L18 23.0091L12.5 23.0091L12.2965 23.0228C11.5643 23.1221 11 23.7497 11 24.5091C11 25.3375 11.6716 26.0091 12.5 26.0091L18 26.0091L18 32.5081L18.0137 32.7116C18.0916 33.2857 18.4942 33.7566 19.0305 33.9331C19.0103 33.6248 19 33.3137 19 33.0002C19 29.0935 20.6066 25.5525 23.1979 23.0091L21 23.0091L21 21.0091L25.7747 21.0091C26.4588 20.5955 27.1813 20.2388 27.9355 19.9457Z" fill="var(--tiny-first-color)" fill-rule="evenodd"/>
  <path id="合并" d="M44 33C44 26.9249 39.0751 22 33 22C26.9249 22 22 26.9249 22 33C22 39.0751 26.9249 44 33 44C39.0751 44 44 39.0751 44 33ZM33 24.64C28.3829 24.64 24.64 28.3829 24.64 33C24.64 37.6171 28.3829 41.36 33 41.36C37.6171 41.36 41.36 37.6171 41.36 33C41.36 28.3829 37.6171 24.64 33 24.64ZM33.5 29.5L33.5 32.75L36.9 35.3C37.572 35.804 37.704 36.728 37.2 37.4C36.696 38.072 35.772 38.204 35.1 37.7L31.5 35C31.3426 34.882 31.2026 34.7495 31.0799 34.6025C30.9572 34.4555 30.8519 34.294 30.7639 34.1181C30.676 33.9421 30.61 33.7609 30.566 33.5746C30.522 33.3883 30.5 33.1968 30.5 33L30.5 29.5C30.5 28.66 31.16 28 32 28C32.84 28 33.5 28.66 33.5 29.5Z" fill="var(--tiny-second-color)" fill-rule="evenodd"/>
</svg>