<svg viewBox="0 0 48 48" xmlns="http://www.w3.org/2000/svg" xmlns:xlink="http://www.w3.org/1999/xlink" width="48.000000" height="48.000000">
  <path id="形状结合" d="M13.5 0.00014019C14.606 0.00014019 15.5 0.89414 15.5 2.00014C15.5 3.10614 14.606 4.00014 13.5 4.00014L6.82786 4L14.916 12.0861C15.698 12.8681 15.698 14.1321 14.916 14.9141C14.526 15.3041 14.014 15.5001 13.502 15.5001C12.99 15.5001 12.478 15.3041 12.088 14.9141L3.99986 6.828L4 13.5001C4 14.6061 3.106 15.5001 2 15.5001C0.894 15.5001 0 14.6061 0 13.5001L0 2.00014C0 1.89877 0.00751019 1.79918 0.022006 1.70189C0.0311856 1.65715 0.0595827 1.5108 0.0713425 1.46796C0.0849452 1.42587 0.12779 1.29276 0.14418 1.25205C0.166306 1.20321 0.230144 1.06509 0.256701 1.01799C0.288194 0.965193 0.356061 0.857966 0.39221 0.809206C0.49086 0.68203 0.639065 0.524733 0.765894 0.425271C0.785669 0.413854 0.999271 0.267879 1.01858 0.256976C1.04767 0.243903 1.22164 0.156825 1.25178 0.144658C1.28245 0.134765 1.43742 0.0799332 1.46834 0.0714178C1.50367 0.0641227 1.668 0.0269852 1.70279 0.0217738C1.74975 0.0172215 1.91531 0.000884056 1.96199 0L13.5 0.00014019Z" fill="var(--tiny-second-color)" fill-rule="evenodd" transform="matrix(-1,0,0,1,43,5)"/>
  <circle id="椭圆 389" cx="19.5" cy="28.5" r="14.5" fill="var(--tiny-first-color)"/>
</svg>