<svg viewBox="0 0 48 48" xmlns="http://www.w3.org/2000/svg" xmlns:xlink="http://www.w3.org/1999/xlink" width="48.000000" height="48.000000" fill="none">
  <path id="形状结合" d="M13 0C13.8284 0 14.5 0.671573 14.5 1.5C14.5 2.25939 13.9357 2.88698 13.2035 2.98631L13 3L5.122 3L15.0627 12.9413C15.6484 13.5271 15.6484 14.4769 15.0627 15.0627C14.5301 15.5952 13.6968 15.6436 13.1096 15.2079L2.998 5.12L3 13.002C3 13.7614 2.43569 14.389 1.70354 14.4883L1.5 14.502C0.740609 14.502 0.113018 13.9377 0.0136933 13.2055L0 13.002L0 1.5C0 1.40631 0.00858974 1.31462 0.0250249 1.22569C0.0358973 1.17877 0.0631585 1.06543 0.0779605 1.02143C0.0917978 0.992517 0.177404 0.790751 0.193722 0.761909C0.281039 0.646477 0.492378 0.37953 0.608312 0.293691C0.626556 0.284024 0.838869 0.152962 0.856459 0.14461C0.867057 0.141273 1.05494 0.0671997 1.06369 0.0645494C1.13787 0.0418372 1.21615 0.0245876 1.29646 0.0136933L1.5 0L13 0Z" fill="var(--tiny-second-color)" fill-rule="evenodd" transform="matrix(-1,0,0,1,43,5)"/>
  <path id="椭圆 389(边框)" d="M19.5 14C27.5081 14 34 20.4919 34 28.5C34 36.5081 27.5081 43 19.5 43C11.4919 43 4.99998 36.5081 4.99998 28.5C4.99998 20.4919 11.4919 14 19.5 14ZM16.9086 17.2908L16.9086 17.2908L16.9085 17.2908C16.2676 17.4385 15.6396 17.6424 15.0246 17.9025C14.3903 18.1708 13.7893 18.4901 13.2217 18.8605C12.5584 19.2934 11.9406 19.796 11.3683 20.3683C10.7959 20.9406 10.2933 21.5584 9.86048 22.2218C9.49008 22.7894 9.17075 23.3903 8.90248 24.0246C8.64234 24.6396 8.43844 25.2676 8.29078 25.9086L8.29077 25.9086C8.09691 26.7501 7.99998 27.6139 7.99998 28.5C7.99998 29.3861 8.09692 30.2499 8.29078 31.0914L8.2908 31.0915C8.43846 31.7324 8.64236 32.3604 8.90248 32.9754C9.17074 33.6096 9.49006 34.2105 9.86044 34.7782L9.86047 34.7782C10.2933 35.4416 10.7959 36.0594 11.3683 36.6317C11.9406 37.204 12.5584 37.7066 13.2217 38.1395C13.7894 38.5099 14.3903 38.8292 15.0246 39.0975C15.6396 39.3577 16.2677 39.5616 16.9086 39.7092C17.7501 39.9031 18.6139 40 19.5 40C20.3861 40 21.2499 39.9031 22.0913 39.7092C22.7323 39.5616 23.3603 39.3577 23.9754 39.0975C24.6096 38.8292 25.2105 38.5099 25.7781 38.1395C26.4415 37.7067 27.0594 37.2041 27.6317 36.6317C28.2041 36.0594 28.7067 35.4415 29.1395 34.7782C29.5099 34.2106 29.8292 33.6096 30.0975 32.9754C30.3576 32.3603 30.5615 31.7323 30.7092 31.0913C30.9031 30.2499 31 29.3861 31 28.5C31 27.6139 30.9031 26.7501 30.7092 25.9087C30.5615 25.2677 30.3576 24.6397 30.0975 24.0246C29.8292 23.3903 29.5099 22.7894 29.1395 22.2217C28.7066 21.5584 28.204 20.9406 27.6317 20.3683C27.0594 19.7959 26.4415 19.2933 25.7781 18.8604L25.7781 18.8604C25.2105 18.49 24.6096 18.1707 23.9754 17.9025C23.3604 17.6424 22.7324 17.4385 22.0915 17.2908L22.0914 17.2908C21.2499 17.0969 20.3861 17 19.5 17C18.6139 17 17.7501 17.0969 16.9086 17.2908Z" fill="var(--tiny-first-color)" fill-rule="evenodd"/>
</svg>