<svg viewBox="0 0 48 48" xmlns="http://www.w3.org/2000/svg" xmlns:xlink="http://www.w3.org/1999/xlink" width="48.000000" height="48.000000" fill="none">
  <path id="形状结合" d="M24.1416 4.00261L24.577 4.01244C32.9897 4.32897 39.7427 11.2842 39.7427 19.7515C39.7427 26.7746 35.2385 33.797 28.6834 40.1358C28.0879 40.7117 27.1382 40.6958 26.5624 40.1002C25.9865 39.5047 26.0024 38.5551 26.5979 37.9792C32.6125 32.1631 36.7427 25.7238 36.7427 19.7515C36.7427 12.768 31.0542 7.04619 24.0611 7.00148C17.0922 7.06409 11.3241 12.7822 11.3223 19.7512C11.3215 23.8728 13.5296 28.5627 17.3222 33.4135C19.863 36.6632 22.8124 39.5973 24.9756 41.4035C25.6115 41.9344 25.6966 42.8804 25.1657 43.5163C24.6347 44.1522 23.6888 44.2373 23.0529 43.7063C20.7385 41.7739 17.6433 38.6948 14.9588 35.2613C10.7918 29.9316 8.3213 24.6845 8.32227 19.7505C8.32448 11.1354 15.3179 4.08037 23.797 4.01036L24.1416 4.00261ZM24.0001 13.1779C27.5905 13.1779 30.5001 16.0875 30.5001 19.6779C30.5001 23.2683 27.5905 26.1779 24.0001 26.1779C20.4096 26.1779 17.5001 23.2683 17.5001 19.6779C17.5001 16.0875 20.4096 13.1779 24.0001 13.1779ZM24.0001 16.1779C22.0665 16.1779 20.5001 17.7443 20.5001 19.6779C20.5001 21.6115 22.0665 23.1779 24.0001 23.1779C25.9336 23.1779 27.5001 21.6115 27.5001 19.6779C27.5001 17.7443 25.9336 16.1779 24.0001 16.1779Z" fill="var(--tiny-first-color)" fill-rule="evenodd"/>
  <path id="形状结合" d="M24.0001 13.1773C27.5905 13.1773 30.5001 16.0868 30.5001 19.6773C30.5001 23.2677 27.5905 26.1773 24.0001 26.1773C20.4096 26.1773 17.5001 23.2677 17.5001 19.6773C17.5001 16.0868 20.4096 13.1773 24.0001 13.1773ZM24.0001 16.1773C22.0665 16.1773 20.5001 17.7437 20.5001 19.6773C20.5001 21.6108 22.0665 23.1773 24.0001 23.1773C25.9336 23.1773 27.5001 21.6108 27.5001 19.6773C27.5001 17.7437 25.9336 16.1773 24.0001 16.1773Z" fill="var(--tiny-second-color)" fill-rule="evenodd"/>
</svg>