<svg viewBox="0 0 48 48" xmlns="http://www.w3.org/2000/svg" xmlns:xlink="http://www.w3.org/1999/xlink" width="48.000000" height="48.000000" fill="none">
  <path id="矢量 1934" d="M24.0413 4.01367C32.6472 4.06982 39.6333 11.1035 39.6333 19.6895C39.6333 30.9438 27.3013 41.6836 25.1692 43.4575C24.9331 43.6455 24.4692 43.9878 23.9631 43.9878C23.4592 43.9878 22.9731 43.5879 22.7793 43.4116C20.4993 41.5078 8.36719 30.8477 8.36719 19.6895C8.36719 11.1157 15.4692 4.0918 24.0413 4.01367ZM16 20C16 15.5806 19.584 12 24 12C28.4192 12 32 15.5806 32 20C32 24.416 28.4192 28 24 28C19.584 28 16 24.416 16 20Z" fill="var(--tiny-first-color, #191919)" fill-rule="evenodd"/>
  <path id="Fill-2" d="M24 15C21.24 15 19 17.238 19 20C19 22.76 21.24 25 24 25C26.762 25 29 22.76 29 20C29 17.238 26.762 15 24 15Z" fill="var(--tiny-second-color, #aeaeAE)" fill-rule="evenodd"/>
</svg>
