<svg viewBox="0 0 48 48" xmlns="http://www.w3.org/2000/svg" xmlns:xlink="http://www.w3.org/1999/xlink" width="48.000000" height="48.000000" fill="none">
  <path id="形状结合" d="M20.9992 5.01645C22.857 3.94495 25.1422 3.94495 27.001 5.01699L38.9408 11.9149C40.7966 12.9868 41.9406 14.9678 41.9406 17.1098L41.9406 30.8938C41.9406 33.0362 40.7961 35.0176 38.9404 36.091L26.9988 42.9827C26.088 43.5088 25.0738 43.7767 24.0574 43.7865C23.041 43.7768 21.9106 43.5089 20.9987 42.9829L9.05836 36.0907C7.20227 35.0187 6.05859 33.0375 6.05859 30.8938L6.05859 17.1058C6.05859 14.9629 7.20348 12.9796 9.05976 11.9101L20.9992 5.01645ZM9.05859 17.1058L9.05859 30.8938C9.05859 31.9658 9.63065 32.9568 10.5585 33.4927L22.498 40.3845L22.4986 24.8669L9.05859 17.1058ZM38.9406 17.1058L29.2563 22.6982C28.539 23.1125 27.6215 22.8668 27.2072 22.1494C26.8275 21.4918 27.0023 20.6661 27.5866 20.2139L37.4346 14.5089L25.5012 7.61519C24.664 7.13235 23.6546 7.08406 22.7835 7.47008L22.4986 7.61484L10.5586 14.5089L24.7231 22.6849C25.1293 22.9092 25.4205 23.3164 25.4855 23.7955L25.4992 23.999L25.4988 40.3847L37.4396 33.4934C38.3676 32.9566 38.9406 31.9646 38.9406 30.8938L38.9406 17.1058Z" fill="var(--tiny-first-color)" fill-rule="evenodd"/>
</svg>