<svg viewBox="0 0 48 48" xmlns="http://www.w3.org/2000/svg" xmlns:xlink="http://www.w3.org/1999/xlink" width="48.000000" height="48.000000" fill="none">
  <path id="形状结合" d="M6.28557 15.602L22.4996 24.964L22.4996 43.688C21.9796 43.554 21.4736 43.356 20.9996 43.08L9.05957 36.188C7.20757 35.118 6.05957 33.128 6.05957 30.992L6.05957 17.204C6.05957 16.654 6.13957 16.118 6.28557 15.602ZM21.0004 5.115C22.8484 4.045 25.1504 4.045 27.0004 5.115L38.9404 12.013C39.4144 12.287 39.8384 12.623 40.2124 13.005L27.7564 20.197C27.0384 20.611 26.7944 21.529 27.2084 22.247C27.4844 22.727 27.9904 22.997 28.5064 22.997C28.7624 22.997 29.0204 22.931 29.2564 22.795L41.7144 15.603C41.8584 16.121 41.9404 16.659 41.9404 17.209L41.9404 30.993C41.9404 33.127 40.7904 35.117 38.9404 36.187L27.0004 43.081C26.5244 43.355 26.0184 43.553 25.5004 43.687L25.5004 24.097C25.4884 23.993 25.4364 23.713 25.4024 23.615C25.3704 23.523 25.3264 23.443 25.2784 23.361C25.2304 23.277 25.1824 23.199 25.1184 23.125C25.0504 23.045 24.9724 22.985 24.8884 22.921L7.78437 13.003C8.15837 12.621 8.58437 12.283 9.05837 12.007L21.0004 5.115Z" fill="var(--tiny-first-color)" fill-rule="evenodd"/>
  <path id="形状结合" d="M6.28557 15.6016L22.4996 24.9636L22.4996 43.6876C21.9796 43.5536 21.4736 43.3556 20.9996 43.0796L9.05957 36.1876C7.20757 35.1176 6.05957 33.1276 6.05957 30.9916L6.05957 17.2036C6.05957 16.6536 6.13957 16.1176 6.28557 15.6016Z" fill="var(--tiny-second-color)" fill-rule="evenodd"/>
</svg>