<svg viewBox="0 0 48 48" xmlns="http://www.w3.org/2000/svg" xmlns:xlink="http://www.w3.org/1999/xlink" width="48.000000" height="48.000000" fill="none">
  <path id="减去顶层" d="M44 24C44 12.972 35.026 4 24 4C12.972 4 4 12.972 4 24C4 35.026 12.972 44 24 44C35.026 44 44 35.026 44 24ZM18 20C18 18.3431 16.6569 17 15 17C13.3431 17 12 18.3431 12 20C12 21.6569 13.3431 23 15 23C16.6569 23 18 21.6569 18 20ZM36 20C36 18.3431 34.6569 17 33 17C31.3431 17 30 18.3431 30 20C30 21.6569 31.3431 23 33 23C34.6569 23 36 21.6569 36 20ZM18.5 31.5L30.5524 31.5C31.3924 31.5 32.0524 32.16 32.0524 33C32.0524 33.84 31.3924 34.5 30.5524 34.5L18.5 34.5C17.66 34.5 17 33.84 17 33C17 32.16 17.66 31.5 18.5 31.5Z" fill="var(--tiny-first-color, #191919)" fill-rule="evenodd"/>
  <path id="合并" d="M15 17C16.6569 17 18 18.3431 18 20C18 21.6569 16.6569 23 15 23C13.3431 23 12 21.6569 12 20C12 18.3431 13.3431 17 15 17ZM33 17C34.6569 17 36 18.3431 36 20C36 21.6569 34.6569 23 33 23C31.3431 23 30 21.6569 30 20C30 18.3431 31.3431 17 33 17ZM30.5524 31.5L18.5 31.5C17.66 31.5 17 32.16 17 33C17 33.84 17.66 34.5 18.5 34.5L30.5524 34.5C31.3924 34.5 32.0524 33.84 32.0524 33C32.0524 32.16 31.3924 31.5 30.5524 31.5Z" fill="var(--tiny-second-color, #aeaeAE)" fill-rule="evenodd"/>
</svg>
