<svg viewBox="0 0 48 48" xmlns="http://www.w3.org/2000/svg" xmlns:xlink="http://www.w3.org/1999/xlink" width="48.000000" height="48.000000">
  <path id="形状结合" d="M24 4C28.4341 4 32.6516 5.44838 36.1066 8.07848C36.7657 8.58028 36.8933 9.52142 36.3915 10.1806C35.8897 10.8397 34.9486 10.9673 34.2894 10.4655C31.3523 8.22962 27.7718 7 24 7C14.6117 7 7 14.6111 7 24C7 33.3876 14.6124 41 24 41C33.3889 41 41 33.3883 41 24C41 20.2292 39.7717 16.6507 37.5362 13.7122C37.0346 13.0529 37.1625 12.1118 37.8218 11.6102C38.4811 11.1086 39.4222 11.2365 39.9238 11.8958C42.5532 15.352 44 19.5672 44 24C44 35.0451 35.0458 44 24 44C12.9556 44 4 35.0444 4 24C4 12.9542 12.9549 4 24 4Z" fill="var(--tiny-first-color)" fill-rule="nonzero"/>
  <path id="合并" d="M15 17C16.6569 17 18 18.3431 18 20C18 21.6569 16.6569 23 15 23C13.3431 23 12 21.6569 12 20C12 18.3431 13.3431 17 15 17ZM33 17C34.6569 17 36 18.3431 36 20C36 21.6569 34.6569 23 33 23C31.3431 23 30 21.6569 30 20C30 18.3431 31.3431 17 33 17ZM30.5524 31.5L18.5 31.5C17.66 31.5 17 32.16 17 33C17 33.84 17.66 34.5 18.5 34.5L30.5524 34.5C31.3924 34.5 32.0524 33.84 32.0524 33C32.0524 32.16 31.3924 31.5 30.5524 31.5Z" fill="var(--tiny-second-color)" fill-rule="evenodd"/>
</svg>