<svg viewBox="0 0 48 48" xmlns="http://www.w3.org/2000/svg" xmlns:xlink="http://www.w3.org/1999/xlink" width="48.000000" height="48.000000">
  <path id="减去顶层" d="M44 24C44 12.972 35.026 4 24 4C12.972 4 4 12.972 4 24C4 35.026 12.972 44 24 44C35.026 44 44 35.026 44 24ZM35 17.8544C35 15.7309 33.3 14 31.1908 14L16.8092 14C14.7 14 13 15.7309 13 17.8544L13 28.8492L13.0094 29.1198C13.1091 30.5504 13.9928 31.7661 15.2323 32.3227L15.4341 32.4043L15.4342 34.68L15.4459 34.8608C15.5766 35.8576 16.776 36.3676 17.59 35.7016L21.3213 32.6472L31.1908 32.6476C33.3 32.6476 35 30.9166 35 28.7932L35 17.8544ZM16.8092 16.64C16.1688 16.64 15.64 17.1784 15.64 17.8544L15.64 28.8492C15.64 29.4356 16.0567 29.9132 16.5908 29.9952L16.9333 30.0196C17.5776 30.1071 18.0742 30.6593 18.0742 31.3276L18.0741 31.8939L20.0163 30.3059C20.2049 30.1516 20.4317 30.0533 20.6708 30.0201L20.8521 30.0076L31.1908 30.0076C31.8312 30.0076 32.36 29.4692 32.36 28.7932L32.36 17.8544C32.36 17.1784 31.8312 16.64 31.1908 16.64L16.8092 16.64ZM28.4 20.16C29.129 20.16 29.72 20.751 29.72 21.48C29.72 22.1483 29.2234 22.7005 28.5791 22.7879L28.4 22.8L19.6 22.8C18.871 22.8 18.28 22.209 18.28 21.48C18.28 20.8117 18.7766 20.2594 19.4209 20.1721L19.6 20.16L28.4 20.16ZM24.44 25.88C24.44 25.151 23.849 24.56 23.12 24.56L19.6 24.56L19.4209 24.572C18.7766 24.6594 18.28 25.2117 18.28 25.88C18.28 26.609 18.871 27.2 19.6 27.2L23.12 27.2L23.2991 27.1879C23.9434 27.1005 24.44 26.5483 24.44 25.88Z" fill="var(--tiny-first-color)" fill-rule="evenodd"/>
  <path id="减去顶层" d="M31.1908 14C33.3 14 35 15.7309 35 17.8544L35 28.7932C35 30.9166 33.3 32.6476 31.1908 32.6476L21.3213 32.6472L17.59 35.7016C16.776 36.3676 15.5766 35.8576 15.4459 34.8608L15.4342 34.68L15.4341 32.4043L15.2323 32.3227C13.9928 31.7661 13.1091 30.5504 13.0094 29.1198L13 28.8492L13 17.8544C13 15.7309 14.7 14 16.8092 14L31.1908 14ZM29.72 21.48C29.72 20.751 29.129 20.16 28.4 20.16L19.6 20.16L19.4209 20.1721C18.7778 20.2593 18.2819 20.8096 18.28 21.4762L18.28 21.48L18.28 21.4802C18.28 22.2092 18.871 22.8002 19.6 22.8002L28.4 22.8002L28.5791 22.7881C29.2234 22.7007 29.72 22.1484 29.72 21.4802L29.72 21.48ZM23.12 24.56C23.849 24.56 24.44 25.151 24.44 25.88C24.44 26.5484 23.9434 27.1007 23.2991 27.1881L23.12 27.2001L19.6 27.2001C18.8823 27.2001 18.2984 26.6274 18.2804 25.9141L18.2804 25.9141C18.2801 25.9028 18.28 25.8915 18.28 25.8802L18.28 25.88C18.28 25.2117 18.7766 24.6594 19.4209 24.572L19.6 24.56L23.12 24.56Z" fill="var(--tiny-second-color)" fill-rule="evenodd"/>
</svg>