<svg viewBox="0 0 48 48" xmlns="http://www.w3.org/2000/svg" xmlns:xlink="http://www.w3.org/1999/xlink" width="48.000000" height="48.000000">
  <path id="形状结合" d="M37.5482 3.99951C40.7367 3.99951 43.342 6.48941 43.524 9.63177L43.5342 9.98351L43.5342 24.6635C43.5342 26.0133 43.0829 27.3006 42.268 28.3432C41.7579 28.9959 40.8152 29.1115 40.1625 28.6014C39.5691 28.1376 39.4197 27.3163 39.7807 26.6805C40.119 26.2475 40.4545 25.5474 40.5157 24.9973L40.5342 24.6635L40.5342 9.98351C40.5342 8.43153 39.3509 7.15766 37.8359 7.01316L37.5482 6.99951L19.4776 6.99951C17.9268 6.99951 16.6537 8.18175 16.5092 9.69592L16.4956 9.98351L31.5262 10.0395C34.741 10.0395 37.3219 12.7106 37.5021 16.0265L37.5122 16.3975L37.5122 32.7155C37.5122 36.0822 35.0402 38.8766 31.8686 39.0654L31.5262 39.0755L17.708 39.0745L13.2008 43.5322C12.3033 44.4196 10.8136 43.8639 10.6592 42.6702L10.6462 42.4655L10.646 39.0745C7.43232 39.0745 4.69045 36.4036 4.51025 33.0866L4.5002 32.7155L4.5002 16.3975C4.5002 13.1681 6.7845 10.4321 9.8287 10.0776C10.6516 9.98176 11.3963 10.5711 11.4921 11.394C11.58 12.1483 11.092 12.837 10.3763 13.0203L10.1757 13.0574C8.77376 13.2207 7.64077 14.4886 7.51233 16.0929L7.5002 16.3975L7.5002 32.7155C7.5002 34.4922 8.71727 35.91 10.2168 36.062L10.4842 36.0755L12.1462 36.0755C12.9056 36.0755 13.5332 36.6398 13.6325 37.372L13.6462 37.5755L13.646 38.8705L16.0376 36.5088C16.2622 36.2867 16.5497 36.1427 16.8578 36.0939L17.0922 36.0755L31.5262 36.0755C33.0575 36.0755 34.3598 34.7567 34.4998 33.0252L34.5122 32.7155L34.5122 16.3975C34.5122 14.6223 33.2948 13.205 31.7938 13.053L31.5262 13.0395L14.9982 13.0395L14.7921 13.0258C14.1265 12.9355 13.5996 12.4086 13.5093 11.7431L13.4956 11.5395L13.4956 9.98351C13.4956 6.79557 15.985 4.1916 19.126 4.00967L19.4776 3.99951L37.5482 3.99951ZM19.101 25.9993C19.9294 25.9993 20.601 26.6709 20.601 27.4993C20.601 28.2587 20.0367 28.8863 19.3045 28.9856L19.101 28.9993L12.117 28.9993C11.2886 28.9993 10.617 28.3277 10.617 27.4993C10.617 26.7399 11.1813 26.1123 11.9135 26.013L12.117 25.9993L19.101 25.9993ZM26.087 18.9993C26.9154 18.9993 27.587 19.6709 27.587 20.4993C27.587 21.2587 27.0227 21.8863 26.2905 21.9856L26.087 21.9993L12.117 21.9993C11.2886 21.9993 10.617 21.3277 10.617 20.4993C10.617 19.7399 11.1813 19.1123 11.9135 19.013L12.117 18.9993L26.087 18.9993Z" fill="var(--tiny-first-color, #191919)" fill-rule="evenodd"/>
  <path id="矢量 1723" d="M43.524 9.63184C43.342 6.48926 40.7367 3.99951 37.5482 3.99951L19.4777 3.99951L19.126 4.00977C15.985 4.19141 13.4956 6.79541 13.4956 9.9834L16.4956 9.9834L16.5093 9.6958C16.6537 8.18164 17.9268 6.99951 19.4777 6.99951L37.5482 6.99951L37.8359 7.01318C39.351 7.15771 40.5342 8.43164 40.5342 9.9834L40.5342 24.6636L40.5157 24.9976C40.4546 25.5474 40.119 26.2476 39.7806 26.6807C39.4197 27.3164 39.5691 28.1377 40.1625 28.6016C40.8152 29.1113 41.7579 28.9961 42.2681 28.3433C43.0829 27.3008 43.5342 26.0132 43.5342 24.6636L43.5342 9.9834L43.524 9.63184Z" fill="var(--tiny-second-color, #aeaeAE)" fill-rule="evenodd"/>
</svg>