<svg viewBox="0 0 48 48" xmlns="http://www.w3.org/2000/svg" xmlns:xlink="http://www.w3.org/1999/xlink" width="48.000000" height="48.000000">
  <path id="形状结合" d="M24 4C28.4341 4 32.6516 5.44838 36.1066 8.07848C36.7657 8.58028 36.8933 9.52142 36.3915 10.1806C35.8897 10.8397 34.9486 10.9673 34.2894 10.4655C31.3523 8.22962 27.7718 7 24 7C14.6117 7 7 14.6111 7 24C7 33.3876 14.6124 41 24 41C33.3889 41 41 33.3883 41 24C41 20.2292 39.7717 16.6507 37.5362 13.7122C37.0346 13.0529 37.1625 12.1118 37.8218 11.6102C38.4811 11.1086 39.4222 11.2365 39.9238 11.8958C42.5532 15.352 44 19.5672 44 24C44 35.0451 35.0458 44 24 44C12.9556 44 4 35.0444 4 24C4 12.9542 12.9549 4 24 4Z" fill="var(--tiny-first-color)" fill-rule="nonzero"/>
  <path id="矢量 147" d="M31.1908 14C33.3 14 35 15.7309 35 17.8544L35 28.7932C35 30.9166 33.3 32.6476 31.1908 32.6476L21.3213 32.6472L17.59 35.7016C16.776 36.3676 15.5766 35.8576 15.4459 34.8608L15.4342 34.68L15.4341 32.4043L15.2323 32.3227C13.9928 31.7661 13.1091 30.5504 13.0094 29.1198L13 28.8492L13 17.8544C13 15.7309 14.7 14 16.8092 14L31.1908 14ZM15.64 17.8544C15.64 17.1784 16.1688 16.64 16.8092 16.64L31.1908 16.64C31.8312 16.64 32.36 17.1784 32.36 17.8544L32.36 28.7932C32.36 29.4692 31.8312 30.0076 31.1908 30.0076L20.8521 30.0076L20.6708 30.0201C20.4317 30.0533 20.2049 30.1516 20.0163 30.3059L18.0741 31.8939L18.0742 31.3276C18.0742 30.6593 17.5776 30.1071 16.9333 30.0196L16.5908 29.9952C16.0567 29.9132 15.64 29.4356 15.64 28.8492L15.64 17.8544ZM29.72 21.48C29.72 20.751 29.129 20.16 28.4 20.16L19.6 20.16L19.4209 20.1721C18.7766 20.2594 18.28 20.8117 18.28 21.48C18.28 22.209 18.871 22.8 19.6 22.8L28.4 22.8L28.5791 22.7879C29.2234 22.7005 29.72 22.1483 29.72 21.48ZM23.12 24.56C23.849 24.56 24.44 25.151 24.44 25.88C24.44 26.5483 23.9434 27.1005 23.2991 27.1879L23.12 27.2L19.6 27.2C18.871 27.2 18.28 26.609 18.28 25.88C18.28 25.2117 18.7766 24.6594 19.4209 24.572L19.6 24.56L23.12 24.56Z" fill="var(--tiny-second-color)" fill-rule="evenodd"/>
</svg>