<svg viewBox="0 0 48 48" xmlns="http://www.w3.org/2000/svg" xmlns:xlink="http://www.w3.org/1999/xlink" width="48.000000" height="48.000000">
  <path id="减去顶层" d="M41.9898 11.6475C41.8073 8.49805 39.1954 6 36 6L12 6L11.6475 6.01025C8.49783 6.19287 6 8.80469 6 12L6 36L6.01019 36.3525C6.19267 39.502 8.80464 42 12 42L28.87 41.998L25.2415 39.9038L24.9144 39.6992C23.4285 38.6943 22.5203 37 22.5203 35.1919L22.5203 28.2207L22.5341 27.835C22.6621 26.0459 23.6746 24.4116 25.2391 23.5063L31.2788 20.021L31.6193 19.8398C33.2316 19.0552 35.1544 19.1157 36.7212 20.021L42 23.0679L42 12L41.9898 11.6475ZM15 11C16.1046 11 17 11.8955 17 13C17 14.1045 16.1046 15 15 15C13.8954 15 13 14.1045 13 13C13 11.8955 13.8954 11 15 11ZM32.2286 11.5C33.057 11.5 33.7286 12.1714 33.7286 13C33.7286 13.7593 33.1643 14.3872 32.4322 14.4863L32.2286 14.5L21.4957 14.5L21.2922 14.4863C20.56 14.3872 19.9957 13.7593 19.9957 13C19.9957 12.2407 20.56 11.6128 21.2922 11.5137L21.4957 11.5L32.2286 11.5ZM15 18.0098C16.1046 18.0098 17 18.9053 17 20.0098C17 21.1143 16.1046 22.0098 15 22.0098C13.8954 22.0098 13 21.1143 13 20.0098C13 18.9053 13.8954 18.0098 15 18.0098ZM25.2286 18.5098C26.057 18.5098 26.7286 19.1812 26.7286 20.0098C26.7286 20.769 26.1643 21.3965 25.4322 21.4961L25.2286 21.5098L21.4957 21.5098L21.2922 21.4961C20.56 21.3965 19.9957 20.769 19.9957 20.0098C19.9957 19.2505 20.56 18.6226 21.2922 18.5234L21.4957 18.5098L25.2286 18.5098ZM41.242 24.9263L36.25 22.0439C34.862 21.2422 33.136 21.2422 31.75 22.0439L26.756 24.9263C25.37 25.728 24.508 27.2222 24.508 28.8242L24.508 34.5879L24.508 34.5889L24.508 34.6069C24.5081 34.627 24.5083 34.647 24.5087 34.6665C24.536 36.2393 25.3925 37.6978 26.758 38.4849L31.75 41.3672C32.444 41.769 33.222 41.9692 34 41.9692C34.778 41.9692 35.556 41.769 36.25 41.3672L41.244 38.4849C42.5978 37.7036 43.4516 36.2603 43.4906 34.7007C43.4915 34.6636 43.492 34.6265 43.492 34.5889L43.492 28.8242C43.492 28.7715 43.4911 28.7188 43.4892 28.666C43.4346 27.1245 42.5843 25.7017 41.242 24.9263ZM31.7345 27.1103C31.5375 27.1963 31.3683 27.3311 31.2417 27.5005L29.8153 29.0854C29.347 29.6059 29.3879 30.3828 29.9082 30.851C30.2189 31.1303 30.6211 31.2285 30.9944 31.1513L30.9944 34.2548C30.9944 34.955 31.5444 35.5048 32.2444 35.5048C32.9444 35.5048 33.4944 34.955 33.4944 34.2548L33.4944 28.3652C33.5136 28.1543 33.4783 27.9409 33.3893 27.7451C33.2563 27.4404 33.0064 27.2026 32.6933 27.0854C32.382 26.9634 32.0371 26.9727 31.7345 27.1103ZM38.5811 31.6591C38.2704 31.3793 37.8682 31.2812 37.4949 31.3583L37.4949 28.2549C37.4949 27.5547 36.9449 27.0049 36.2449 27.0049C35.5449 27.0049 34.9949 27.5547 34.9949 28.2549L34.9949 34.1449C34.9757 34.3554 35.0111 34.5687 35.1 34.7645C35.233 35.0692 35.483 35.307 35.7961 35.4242C36.1073 35.5468 36.4522 35.537 36.7548 35.3998C36.9519 35.3139 37.121 35.1786 37.2477 35.0092L38.674 33.4242C39.1423 32.9042 39.1014 32.1274 38.5811 31.6591Z" fill="var(--tiny-first-color, #191919)" fill-rule="evenodd"/>
  <path id="减去顶层" d="M36.25 22.0449L41.242 24.9269C42.63 25.7289 43.492 27.2229 43.492 28.8249L43.492 34.5889C43.492 36.1909 42.63 37.6849 41.244 38.4849L36.25 41.3669C35.556 41.7689 34.778 41.9689 34 41.9689C33.222 41.9689 32.444 41.7689 31.75 41.3669L26.758 38.4849C25.37 37.6849 24.508 36.1909 24.508 34.5889L24.508 28.8249C24.508 27.2229 25.37 25.7289 26.756 24.9269L31.75 22.0449C33.136 21.2429 34.862 21.2429 36.25 22.0449ZM31.7345 27.1102C31.5375 27.1961 31.3683 27.3309 31.2417 27.5003L29.8153 29.0853C29.347 29.6058 29.3879 30.3826 29.9082 30.8509C30.2189 31.1302 30.6211 31.2283 30.9944 31.1512L30.9944 34.2546C30.9944 34.9548 31.5444 35.5046 32.2444 35.5046C32.9444 35.5046 33.4944 34.9548 33.4944 34.2546L33.4944 28.3651C33.5136 28.1541 33.4782 27.9408 33.3893 27.745C33.2563 27.4403 33.0064 27.2025 32.6933 27.0853C32.382 26.9632 32.0371 26.9725 31.7345 27.1102ZM38.5811 31.659C38.2704 31.3792 37.8682 31.281 37.4949 31.3582L37.4949 28.2547C37.4949 27.5545 36.9449 27.0047 36.2449 27.0047C35.5449 27.0047 34.9949 27.5545 34.9949 28.2547L34.9949 34.1448C34.9757 34.3552 35.0111 34.5686 35.1 34.7644C35.233 35.0691 35.4829 35.3069 35.7961 35.4241C36.1073 35.5466 36.4522 35.5368 36.7548 35.3996C36.9519 35.3137 37.121 35.1785 37.2477 35.009L38.674 33.4241C39.1423 32.9041 39.1014 32.1272 38.5811 31.659Z" fill="var(--tiny-second-color, #aeaeAE)" fill-rule="evenodd"/>
</svg>