<svg viewBox="0 0 48 48" xmlns="http://www.w3.org/2000/svg" xmlns:xlink="http://www.w3.org/1999/xlink" width="48.000000" height="48.000000">
  <path id="减去顶层" d="M27.65 5.06813C26.996 4.41213 26.092 4.03613 25.168 4.03613L12.078 4.03613C8.77 4.03613 6.078 6.72813 6.078 10.0361L6.078 37.9641C6.078 41.2721 8.77 43.9641 12.078 43.9641L20 43.9641L20 41.8112C20 38.4298 22.2281 35.5402 25.3727 34.3814C24.1986 32.8731 23.5 30.9818 23.5 28.9286C23.5 23.9975 27.5294 20.0001 32.5 20.0001C34.536 20.0001 36.4141 20.6708 37.922 21.8016L37.922 16.8241C37.922 15.8921 37.56 15.0161 36.904 14.3581L27.65 5.06813ZM25.5194 13.5127L25.524 7.18413L34.8117 16.5118L28.5194 16.5127L28.2316 16.4989C26.7153 16.3529 25.5194 15.0657 25.5194 13.5127ZM15.75 15.2502L21.6509 15.2502C22.4909 15.2502 23.1509 15.9102 23.1509 16.7502C23.1509 17.5902 22.4909 18.2502 21.6509 18.2502L20.2012 18.2502L20.2012 24.4299C20.2012 25.2699 19.5412 25.9299 18.7012 25.9299C17.8612 25.9299 17.2012 25.2699 17.2012 24.4299L17.2012 18.2502L15.75 18.2502C14.91 18.2502 14.25 17.5902 14.25 16.7502C14.25 15.9102 14.91 15.2502 15.75 15.2502ZM10.5 16.7727C10.5 15.9327 11.16 15.2727 12 15.2727C12.84 15.2727 13.5 15.9327 13.5 16.7727L13.5 24.5C13.5 25.34 12.84 26 12 26C11.16 26 10.5 25.34 10.5 24.5L10.5 16.7727Z" fill="var(--tiny-first-color, #191919)" fill-rule="evenodd"/>
  <path id="合并" d="M25.3333 28.6667C25.3333 32.3486 28.3181 35.3333 32 35.3333L28.25 35.3333C24.7982 35.3333 22 37.9983 22 41.2857L22 42.8333C22 43.2936 22.3731 43.6667 22.8333 43.6667L41.1667 43.6667C41.6269 43.6667 42 43.2936 42 42.8333L42 41.2857C42 37.9983 39.2018 35.3333 35.75 35.3333L32 35.3333C35.6819 35.3333 38.6667 32.3486 38.6667 28.6667C38.6667 24.9848 35.6819 22 32 22C28.3181 22 25.3333 24.9848 25.3333 28.6667Z" fill="var(--tiny-second-color, #aeaeAE)" fill-rule="evenodd"/>
</svg>