<svg viewBox="0 0 48 48" xmlns="http://www.w3.org/2000/svg" xmlns:xlink="http://www.w3.org/1999/xlink" width="48.000000" height="48.000000">
  <path id="减去顶层" d="M27.65 5.06813C26.996 4.41213 26.092 4.03613 25.168 4.03613L12.078 4.03613C8.77 4.03613 6.078 6.72813 6.078 10.0361L6.078 37.9641C6.078 41.2721 8.77 43.9641 12.078 43.9641L20 43.9641L20 41.8112C20 38.4298 22.2281 35.5402 25.3727 34.3814C24.1986 32.8731 23.5 30.9818 23.5 28.9286C23.5 28.376 23.5506 27.8351 23.6475 27.3103C23.1402 27.0721 22.7962 26.5595 22.7962 25.9531L22.7962 19C22.7962 18.5858 22.9427 18.2322 23.2356 17.9393C23.5285 17.6464 23.882 17.5 24.2962 17.5L27.0401 17.5C27.2848 17.5 27.5241 17.5251 27.7581 17.5752C27.9763 17.622 28.1898 17.6905 28.3986 17.7809C28.5865 17.8622 28.7644 17.9584 28.9325 18.0696C29.1357 18.2041 29.3245 18.3606 29.4987 18.5389C29.6522 18.6959 29.7889 18.8642 29.9086 19.0438C30.0354 19.2339 30.1433 19.4366 30.2323 19.652C30.3117 19.8442 30.3735 20.0403 30.4176 20.2403C31.086 20.0832 31.7832 20.0001 32.5 20.0001C34.536 20.0001 36.4141 20.6708 37.922 21.8016L37.922 16.8241C37.922 15.8921 37.56 15.0161 36.904 14.3581L27.65 5.06813ZM25.7962 21.5107L27.0401 21.5107C27.0903 21.5107 27.1377 21.5029 27.1824 21.4871C27.2448 21.4651 27.3018 21.4278 27.3534 21.375C27.3948 21.3327 27.4274 21.2862 27.4513 21.2356C27.4838 21.1667 27.5 21.0901 27.5 21.0059C27.5 20.9207 27.4835 20.8434 27.4505 20.774C27.4267 20.7238 27.3942 20.6777 27.3532 20.6357C27.3017 20.583 27.2448 20.5456 27.1824 20.5236C27.1378 20.5079 27.0903 20.5 27.0401 20.5L25.7962 20.5L25.7962 21.5107ZM25.5194 13.5127L25.524 7.18413L34.8117 16.5118L28.5194 16.5127L28.2316 16.4989C26.7153 16.3529 25.5194 15.0657 25.5194 13.5127ZM10.5 20.5L12.918 20.5C13.758 20.5 14.418 19.84 14.418 19C14.418 18.16 13.758 17.5 12.918 17.5L9 17.5C8.58579 17.5 8.23223 17.6464 7.93934 17.9393C7.64645 18.2322 7.5 18.5858 7.5 19L7.5 25.9521C7.5 26.3664 7.64645 26.7199 7.93934 27.0128C8.23223 27.3057 8.58579 27.4521 9 27.4521L12.918 27.4521C13.758 27.4521 14.418 26.7921 14.418 25.9521C14.418 25.1121 13.758 24.4521 12.918 24.4521L10.5 24.4521L10.5 23.9756L12.6565 23.9756C13.4965 23.9756 14.1565 23.3156 14.1565 22.4756C14.1565 21.6356 13.4965 20.9756 12.6565 20.9756L10.5 20.9756L10.5 20.5ZM14.6256 23.0107L14.6256 25.9531C14.6256 26.7931 15.2856 27.4531 16.1256 27.4531C16.9656 27.4531 17.6256 26.7931 17.6256 25.9531L17.6256 24.5107L17.993 24.5107L19.5986 26.8107C20.0794 27.4995 20.9983 27.6629 21.6871 27.1821C22.3759 26.7013 22.5393 25.7823 22.0585 25.0936L21.0848 23.6987C21.1688 23.6276 21.2498 23.5521 21.3279 23.4722C21.4817 23.3148 21.6186 23.1462 21.7385 22.9663C21.865 22.7766 21.9727 22.5743 22.0615 22.3594C22.1427 22.1631 22.2054 21.9628 22.2497 21.7585C22.3028 21.5134 22.3293 21.2625 22.3293 21.0059C22.3293 20.7485 22.3026 20.4968 22.2493 20.251C22.205 20.0474 22.1425 19.8477 22.0616 19.652C21.9726 19.4366 21.8647 19.2339 21.7379 19.0438C21.6182 18.8642 21.4816 18.6959 21.3281 18.5389C21.1538 18.3605 20.965 18.2041 20.7618 18.0696C20.5937 17.9584 20.4158 17.8622 20.228 17.7809C20.0191 17.6905 19.8056 17.622 19.5874 17.5752C19.3535 17.5251 19.1141 17.5 18.8694 17.5L16.1256 17.5C15.7114 17.5 15.3578 17.6464 15.0649 17.9393C14.772 18.2322 14.6256 18.5858 14.6256 19L14.6256 23.0107ZM17.6256 21.5107L18.8694 21.5107C18.9196 21.5107 18.9671 21.5029 19.0117 21.4871C19.0741 21.4651 19.1311 21.4278 19.1827 21.375C19.2241 21.3327 19.2567 21.2862 19.2806 21.2356C19.3131 21.1667 19.3293 21.0901 19.3293 21.0059C19.3293 20.9207 19.3128 20.8434 19.2798 20.774C19.256 20.7238 19.2236 20.6777 19.1825 20.6357C19.131 20.583 19.0741 20.5456 19.0117 20.5236C18.9671 20.5079 18.9197 20.5 18.8694 20.5L17.6256 20.5L17.6256 21.5107Z" fill="var(--tiny-first-color, #191919)" fill-rule="evenodd"/>
  <path id="合并" d="M25.3333 28.6667C25.3333 32.3486 28.3181 35.3333 32 35.3333L28.25 35.3333C24.7982 35.3333 22 37.9983 22 41.2857L22 42.8333C22 43.2936 22.3731 43.6667 22.8333 43.6667L41.1667 43.6667C41.6269 43.6667 42 43.2936 42 42.8333L42 41.2857C42 37.9983 39.2018 35.3333 35.75 35.3333L32 35.3333C35.6819 35.3333 38.6667 32.3486 38.6667 28.6667C38.6667 24.9848 35.6819 22 32 22C28.3181 22 25.3333 24.9848 25.3333 28.6667Z" fill="var(--tiny-second-color, #aeaeAE)" fill-rule="evenodd"/>
</svg>