<svg viewBox="0 0 48 48" xmlns="http://www.w3.org/2000/svg" xmlns:xlink="http://www.w3.org/1999/xlink" width="48.000000" height="48.000000">
  <path id="形状结合" d="M20.0033 43.9995C19.1748 43.9995 18.5033 43.3279 18.5033 42.4995C18.5033 41.7401 19.0676 41.1125 19.7997 41.0132L20.0033 40.9995L22.5011 40.9985L22.5019 37.7507C15.7445 37.0048 10.4871 31.2763 10.4871 24.3209C10.4871 23.4925 11.1586 22.8209 11.9871 22.8209C12.8155 22.8209 13.4871 23.4925 13.4871 24.3209C13.4871 30.126 18.195 34.8329 24.0011 34.8329C29.8066 34.8329 34.5131 30.1265 34.5131 24.3209C34.5131 23.4925 35.1846 22.8209 36.0131 22.8209C36.8415 22.8209 37.5131 23.4925 37.5131 24.3209C37.5131 31.2759 32.2582 37.0037 25.5022 37.7504L25.5011 40.9985L27.9973 40.9995C28.8257 40.9995 29.4973 41.6711 29.4973 42.4995C29.4973 43.2589 28.933 43.8865 28.2008 43.9858L27.9973 43.9995L20.0033 43.9995ZM24.0013 4.00049C28.2343 4.00049 31.6673 7.43268 31.6673 11.6665L31.6673 24.0005C31.6673 28.2343 28.2343 31.6665 24.0013 31.6665C19.7666 31.6665 16.3333 28.2347 16.3333 24.0005L16.3333 11.6665C16.3333 7.43229 19.7666 4.00049 24.0013 4.00049ZM24.0013 7.00049C21.4232 7.00049 19.3333 9.08945 19.3333 11.6665L19.3333 24.0005C19.3333 26.5775 21.4232 28.6665 24.0013 28.6665C26.5776 28.6665 28.6673 26.5773 28.6673 24.0005L28.6673 11.6665C28.6673 9.08968 26.5776 7.00049 24.0013 7.00049Z" fill="var(--tiny-first-color)" fill-rule="evenodd"/>
  <path id="形状结合" d="M20.0033 43.9994C19.1748 43.9994 18.5033 43.3278 18.5033 42.4994C18.5033 41.74 19.0676 41.1124 19.7997 41.0131L20.0033 40.9994L22.5011 40.9984L22.5019 37.7506C15.7445 37.0047 10.4871 31.2762 10.4871 24.3208C10.4871 23.4924 11.1586 22.8208 11.9871 22.8208C12.8155 22.8208 13.4871 23.4924 13.4871 24.3208C13.4871 30.1259 18.195 34.8328 24.0011 34.8328C29.8066 34.8328 34.5131 30.1264 34.5131 24.3208C34.5131 23.4924 35.1846 22.8208 36.0131 22.8208C36.8415 22.8208 37.5131 23.4924 37.5131 24.3208C37.5131 31.2758 32.2582 37.0036 25.5022 37.7504L25.5011 40.9984L27.9973 40.9994C28.8257 40.9994 29.4973 41.671 29.4973 42.4994C29.4973 43.2588 28.933 43.8864 28.2008 43.9857L27.9973 43.9994L20.0033 43.9994Z" fill="var(--tiny-second-color)" fill-rule="evenodd"/>
</svg>