<svg viewBox="0 0 48 48" xmlns="http://www.w3.org/2000/svg" xmlns:xlink="http://www.w3.org/1999/xlink" width="48.000000" height="48.000000" fill="none">
  <path id="减去顶层" d="M36 6C39.1954 6 41.8073 8.49784 41.9898 11.6475L42 12L42 36C42 39.1954 39.5022 41.8073 36.3525 41.9898L36 42L12 42C8.80464 42 6.19268 39.5022 6.01019 36.3525L6 36L6 12C6 8.80464 8.49784 6.19268 11.6475 6.01019L12 6L36 6ZM26.3489 11.357C24.9605 10.1206 22.8313 10.1682 21.4999 11.4996L11.4996 21.4999L11.3569 21.6511C10.1206 23.0395 10.1681 25.1686 11.4996 26.5001L21.4999 36.5004L21.651 36.643C23.0395 37.8794 25.1686 37.8318 26.5001 36.5004L36.5004 26.5001L36.643 26.3489C37.8794 24.9605 37.8318 22.8314 36.5004 21.4999L26.5001 11.4996L26.3489 11.357Z" fill="var(--tiny-first-color)" fill-rule="evenodd"/>
  <path id="形状结合" d="M13.3333 0C14.7535 0 15.9144 1.11015 15.9955 2.50998L16 2.66667L16 13.3333C16 14.7535 14.8898 15.9144 13.49 15.9955L13.3333 16L2.66667 16C1.24651 16 0.0856349 14.8898 0.00452677 13.49L0 13.3333L0 2.66667C0 1.24651 1.11015 0.0856349 2.50998 0.00452677L2.66667 0L13.3333 0Z" fill="var(--tiny-second-color)" fill-rule="evenodd" transform="matrix(0.707107,-0.707107,0.707107,0.707107,12.6865,24)"/>
</svg>