<svg viewBox="0 0 48 48" xmlns="http://www.w3.org/2000/svg" xmlns:xlink="http://www.w3.org/1999/xlink" width="48.000000" height="48.000000">
  <path id="形状结合" d="M36 6C39.3137 6 42 8.68629 42 12C42 12.8284 41.3284 13.5 40.5 13.5C39.6716 13.5 39 12.8284 39 12C39 10.4615 37.8419 9.19348 36.3499 9.02018L36 9L12 9C10.4615 9 9.19348 10.1581 9.02018 11.6501L9 12L9 36C9 37.5385 10.1581 38.8065 11.6501 38.9798L12 39L36 39C37.5385 39 38.8065 37.8419 38.9798 36.3499L39 36L39 17C39 16.1716 39.6716 15.5 40.5 15.5C41.2364 15.5 41.8488 16.0306 41.9758 16.7304L42 17L42 36C42 39.1631 39.5524 41.7545 36.4478 41.9835L36 42L12 42C8.83692 42 6.2455 39.5524 6.01646 36.4478L6 36L6 12C6 8.83692 8.44763 6.2455 11.5522 6.01646L12 6L36 6Z" fill="var(--tiny-first-color)" fill-rule="evenodd"/>
  <path id="形状结合 (边框)" d="M2.83333 17L14.1667 17L14.3331 16.9952C15.8205 16.909 17 15.6756 17 14.1667L17 2.83333L16.9952 2.66685C16.909 1.17954 15.6756 0 14.1667 0L2.83333 0L2.66685 0.0048097C1.17954 0.090987 0 1.32441 0 2.83333L0 14.1667L0.0048097 14.3331C0.090987 15.8205 1.32441 17 2.83333 17ZM3 3L14 3L14 14L3 14L3 3Z" fill="var(--tiny-second-color)" fill-rule="evenodd" transform="matrix(0.707107,-0.707107,0.707107,0.707107,11.979,24)"/>
</svg>