<svg viewBox="0 0 48 48" xmlns="http://www.w3.org/2000/svg" xmlns:xlink="http://www.w3.org/1999/xlink" width="48.000000" height="48.000000">
  <path id="形状结合" d="M40.0001 26.5001C41.1061 26.5001 42.0001 27.3941 42.0001 28.5001C42.0001 29.6061 41.1061 30.5001 40.0001 30.5001L33.328 30.5L41.4141 38.5861C42.1961 39.3681 42.1961 40.6321 41.4141 41.4141C41.0241 41.8041 40.5121 42.0001 40.0001 42.0001C39.4881 42.0001 38.9761 41.8041 38.5861 41.4141L30.5 33.328L30.5001 39.9981C30.5001 41.1041 29.6061 41.9981 28.5001 41.9981C27.3941 41.9981 26.5001 41.1041 26.5001 39.9981L26.5001 28.5001L26.5221 28.2019C26.5313 28.1572 26.5597 28.0108 26.5715 27.968C26.5851 27.9259 26.6279 27.7928 26.6443 27.752C26.6664 27.7032 26.7303 27.5651 26.7568 27.518C26.7883 27.4652 26.8562 27.358 26.8923 27.3092L27.0855 27.0854L27.3099 26.8928C27.3297 26.8814 27.4994 26.7679 27.5187 26.757C27.5478 26.7439 27.7218 26.6568 27.7519 26.6447L27.9685 26.5714L28.2029 26.5218C28.2499 26.5172 28.4155 26.5009 28.4621 26.5L40.0001 26.5001ZM21.5005 28.5L21.5005 39.998C21.5005 41.104 20.6065 41.998 19.5005 41.998C18.4735 41.998 17.6293 41.2272 17.5139 40.2315L17.5005 39.998L17.5 33.326L9.4145 41.414C9.0895 41.739 8.67978 41.9293 8.25593 41.9837L8.0005 42C7.4885 42 6.9765 41.804 6.5865 41.414C5.86465 40.6922 5.80913 39.5596 6.41992 38.7746L14.67 30.5L8.0005 30.5C6.9735 30.5 6.1293 29.7292 6.01394 28.7335L6.0005 28.5C6.0005 27.394 6.8945 26.5 8.0005 26.5L19.5389 26.5004C19.58 26.5044 19.7609 26.5163 19.8014 26.5224C19.8458 26.5315 19.9897 26.5595 20.0327 26.5713C20.0748 26.5849 20.2079 26.6278 20.2486 26.6442C20.2974 26.6663 20.4355 26.7301 20.4827 26.7567C20.5354 26.7882 20.6427 26.8561 20.6914 26.8922C20.8183 26.9917 20.9759 27.1391 21.0754 27.2659C21.0868 27.2857 21.2328 27.4993 21.2437 27.5186C21.254 27.5419 21.3404 27.7138 21.3503 27.7379C21.3619 27.7738 21.4239 27.948 21.4335 27.9843L21.4789 28.2028L21.5005 28.5ZM19.5025 6.0005C20.6085 6.0005 21.5025 6.8945 21.5025 8.0005L21.5025 19.5005L21.4801 19.8014L21.4355 20.0165C21.4203 20.0634 21.3712 20.2174 21.3526 20.2626C21.3299 20.313 21.2731 20.4343 21.2458 20.4827C21.2143 20.5354 21.1464 20.6427 21.1103 20.6914L20.9165 20.9145L20.6806 21.1166L20.4572 21.2582L20.2415 21.3593C20.2218 21.3643 20.0096 21.4354 19.9902 21.4403C19.9595 21.4452 19.7755 21.4821 19.7439 21.4859L19.5025 21.5005L8.0025 21.5005C6.8965 21.5005 6.0025 20.6065 6.0025 19.5005C6.0025 18.3945 6.8965 17.5005 8.0025 17.5005L14.674 17.5L6.5865 9.4145C5.8045 8.6325 5.8045 7.3685 6.5865 6.5865C7.3685 5.8045 8.6325 5.8045 9.4145 6.5865L17.502 14.672L17.5025 8.0005C17.5025 6.8945 18.3965 6.0005 19.5025 6.0005ZM28.5001 6.0005C29.5271 6.0005 30.3713 6.77135 30.4867 7.76699L30.5001 8.0005L30.5 14.672L38.5881 6.5865C39.3099 5.86465 40.4425 5.80913 41.2275 6.41992C41.9494 7.14177 42.1935 8.44089 41.5827 9.22592L33.328 17.5L40.0001 17.5005C41.0271 17.5005 41.8713 18.2713 41.9867 19.267L42.0001 19.5005C42.0001 20.5275 41.2293 21.3717 40.2336 21.4871L40.0001 21.5005L28.5001 21.5005C28.419 21.5005 28.339 21.4957 28.2605 21.4863C28.2118 21.4783 28.0596 21.4526 28.0125 21.4408C27.9461 21.4226 27.8231 21.3846 27.7601 21.3595C27.6941 21.3325 27.5954 21.2866 27.534 21.2528C27.4739 21.2186 27.3752 21.1567 27.3191 21.1156L27.0906 20.9205L26.8927 20.6907C26.8813 20.6709 26.7678 20.5012 26.7569 20.4819C26.7439 20.4528 26.6568 20.2789 26.6446 20.2487L26.5714 20.0322C26.5644 19.9985 26.5274 19.8348 26.5223 19.8012L26.502 19.54L26.5223 19.8012L26.502 19.54L26.5001 8.0005C26.5001 6.8945 27.3941 6.0005 28.5001 6.0005Z" fill="var(--tiny-first-color)" fill-rule="evenodd"/>
  <path id="形状结合" d="M40.0001 26.5001C41.1061 26.5001 42.0001 27.3941 42.0001 28.5001C42.0001 29.6061 41.1061 30.5001 40.0001 30.5001L33.328 30.5L41.4141 38.5861C42.1961 39.3681 42.1961 40.6321 41.4141 41.4141C41.0241 41.8041 40.5121 42.0001 40.0001 42.0001C39.4881 42.0001 38.9761 41.8041 38.5861 41.4141L30.5 33.328L30.5001 39.9981C30.5001 41.1041 29.6061 41.9981 28.5001 41.9981C27.3941 41.9981 26.5001 41.1041 26.5001 39.9981L26.5001 28.5001L26.5221 28.2019C26.5313 28.1572 26.5597 28.0108 26.5715 27.968C26.5851 27.9259 26.6279 27.7928 26.6443 27.752C26.6664 27.7032 26.7303 27.5651 26.7568 27.518C26.7883 27.4652 26.8562 27.358 26.8923 27.3092L27.0855 27.0854L27.3099 26.8928C27.3297 26.8814 27.4994 26.7679 27.5187 26.757C27.5478 26.7439 27.7218 26.6568 27.7519 26.6447L27.9685 26.5714L28.2029 26.5218C28.2499 26.5172 28.4155 26.5009 28.4621 26.5L40.0001 26.5001ZM19.5025 6.0005C20.6085 6.0005 21.5025 6.8945 21.5025 8.0005L21.5025 19.5005L21.4801 19.8014L21.4355 20.0165C21.4203 20.0634 21.3712 20.2174 21.3526 20.2626C21.3299 20.313 21.2731 20.4343 21.2458 20.4827C21.2143 20.5354 21.1464 20.6427 21.1103 20.6914L20.9165 20.9145L20.6806 21.1166L20.4572 21.2582L20.2415 21.3593C20.2218 21.3643 20.0096 21.4354 19.9902 21.4403C19.9595 21.4452 19.7755 21.4821 19.7439 21.4859L19.5025 21.5005L8.0025 21.5005C6.8965 21.5005 6.0025 20.6065 6.0025 19.5005C6.0025 18.3945 6.8965 17.5005 8.0025 17.5005L14.674 17.5L6.5865 9.4145C5.8045 8.6325 5.8045 7.3685 6.5865 6.5865C7.3685 5.8045 8.6325 5.8045 9.4145 6.5865L17.502 14.672L17.5025 8.0005C17.5025 6.8945 18.3965 6.0005 19.5025 6.0005Z" fill="var(--tiny-second-color)" fill-rule="evenodd"/>
</svg>