<svg viewBox="0 0 48 48" xmlns="http://www.w3.org/2000/svg" xmlns:xlink="http://www.w3.org/1999/xlink" width="48.000000" height="48.000000" fill="none">
  <path id="形状结合" d="M34.5002 21.5002C35.3286 21.5002 36.0002 22.1718 36.0002 23.0002C36.0002 23.7596 35.4359 24.3872 34.7037 24.4865L34.5002 24.5002L26.622 24.5L35.5609 33.4393C36.1466 34.0251 36.1466 34.9749 35.5609 35.5607C35.0283 36.0932 34.195 36.1416 33.6078 35.7059L24.498 26.62L24.5002 34.4982C24.5002 35.2576 23.9359 35.8852 23.2037 35.9845L23.0002 35.9982C22.2408 35.9982 21.6132 35.4339 21.5139 34.7017L21.5002 34.4982L21.5002 23.0002C21.5002 22.9065 21.5088 22.8148 21.5252 22.7259C21.5347 22.697 21.5942 22.4754 21.6058 22.4462C21.6306 22.4019 21.7386 22.187 21.7673 22.1456C21.8546 22.0304 21.9926 21.8797 22.1085 21.7939C22.1335 21.7803 22.3452 21.6498 22.3701 21.6383C22.4462 21.6152 22.7164 21.5248 22.7967 21.5139L23.0002 21.5002L34.5002 21.5002ZM13.002 0C13.7614 0 14.389 0.564308 14.4883 1.29646L14.502 1.5L14.502 13.002C14.502 13.0957 14.4934 13.1874 14.477 13.2763C14.4661 13.3232 14.4388 13.4366 14.424 13.4806C14.4102 13.5095 14.3246 13.7112 14.3083 13.7401C14.2224 13.8536 14.0131 14.1191 13.8995 14.204C13.8592 14.2303 13.7421 14.3079 13.6988 14.3307C13.6453 14.3562 13.535 14.4059 13.4765 14.4254C13.4023 14.4481 13.2858 14.4774 13.2055 14.4883L13.002 14.502L1.502 14.502C0.673573 14.502 0.00199986 13.8304 0.00199986 13.002C0.00199986 12.2426 0.566308 11.615 1.29846 11.5157L1.502 11.502L9.38 11.502L0.43934 2.56066C-0.146447 1.97487 -0.146447 1.02513 0.43934 0.43934C0.971873 -0.0931935 1.8052 -0.141605 2.39242 0.294104L11.5 9.378L11.502 1.5C11.502 0.740609 12.0663 0.113018 12.7985 0.0136933L13.002 0Z" fill="var(--tiny-first-color)" fill-rule="evenodd" transform="matrix(-1,0,0,1,42.0002,6)"/>
  <path id="形状结合" d="M34.5002 21.5002C35.3286 21.5002 36.0002 22.1718 36.0002 23.0002C36.0002 23.7596 35.4359 24.3872 34.7037 24.4865L34.5002 24.5002L26.622 24.5L35.5609 33.4393C36.1466 34.0251 36.1466 34.9749 35.5609 35.5607C35.0283 36.0932 34.195 36.1416 33.6078 35.7059L24.498 26.62L24.5002 34.4982C24.5002 35.2576 23.9359 35.8852 23.2037 35.9845L23.0002 35.9982C22.2408 35.9982 21.6132 35.4339 21.5139 34.7017L21.5002 34.4982L21.5002 23.0002C21.5002 22.9065 21.5088 22.8148 21.5252 22.7259C21.5347 22.697 21.5942 22.4754 21.6058 22.4462C21.6306 22.4019 21.7386 22.187 21.7673 22.1456C21.8546 22.0304 21.9926 21.8797 22.1085 21.7939C22.1335 21.7803 22.3452 21.6498 22.3701 21.6383C22.4462 21.6152 22.7164 21.5248 22.7967 21.5139L23.0002 21.5002L34.5002 21.5002Z" fill="var(--tiny-second-color)" fill-rule="evenodd" transform="matrix(-1,0,0,1,42.0002,6)"/>
</svg>