<svg viewBox="0 0 48 48" xmlns="http://www.w3.org/2000/svg" xmlns:xlink="http://www.w3.org/1999/xlink" width="48.000000" height="48.000000">
  <path id="形状结合" d="M35.0005 21.5005C36.1065 21.5005 37.0005 22.3945 37.0005 23.5005C37.0005 24.6065 36.1065 25.5005 35.0005 25.5005L28.328 25.5L36.4145 33.5865C37.1965 34.3685 37.1965 35.6325 36.4145 36.4145C36.0245 36.8045 35.5125 37.0005 35.0005 37.0005C34.4885 37.0005 33.9765 36.8045 33.5865 36.4145L25.5 28.328L25.5005 34.9985C25.5005 36.1045 24.6065 36.9985 23.5005 36.9985C22.3945 36.9985 21.5005 36.1045 21.5005 34.9985L21.5005 23.5005C21.5005 23.3991 21.508 23.2995 21.5225 23.2023C21.5317 23.1575 21.5601 23.0112 21.5718 22.9683C21.5888 22.9154 21.6337 22.7781 21.6549 22.7274C21.6818 22.6674 21.7347 22.5572 21.7668 22.5016C21.7768 22.4895 21.9167 22.2791 21.9264 22.2667C22.0251 22.1396 22.1396 22.0251 22.2664 21.9256L21.9264 22.2667C21.9954 22.1977 22.1905 21.9825 22.2664 21.9256C22.3194 21.885 22.4127 21.8198 22.4702 21.7852C22.5257 21.7526 22.6146 21.7052 22.6735 21.6785C22.723 21.6574 22.8298 21.6146 22.8824 21.5975C22.9247 21.5858 23.0546 21.5497 23.0985 21.5408C23.1371 21.5352 23.2819 21.5119 23.3222 21.5083L35.0005 21.5005ZM13.5025 0.000500202C14.6085 0.000500202 15.5025 0.8945 15.5025 2.0005L15.5025 13.5005C15.5025 13.6028 15.4949 13.7032 15.4801 13.8014C15.4724 13.8381 15.445 13.9807 15.4355 14.0165C15.4203 14.0634 15.3712 14.2174 15.3526 14.2626C15.3299 14.313 15.2731 14.4343 15.2458 14.4827C15.2143 14.5354 15.1464 14.6427 15.1103 14.6914C15.0085 14.8226 14.8564 14.9829 14.7249 15.0845C14.674 15.1227 14.5759 15.1903 14.5205 15.2231C14.4641 15.2546 14.3415 15.3183 14.2806 15.344C14.2185 15.3693 14.1148 15.4066 14.0488 15.4252C13.9986 15.4383 13.8892 15.464 13.8378 15.4726L13.5025 15.5005L2.0025 15.5005C0.8965 15.5005 0.00250006 14.6065 0.00250006 13.5005C0.00250006 12.3945 0.8965 11.5005 2.0025 11.5005L8.674 11.5L0.5865 3.4145C-0.1955 2.6325 -0.1955 1.3685 0.5865 0.5865C1.3685 -0.1955 2.6325 -0.1955 3.4145 0.5865L11.502 8.672L11.5025 2.0005C11.5025 0.8945 12.3965 0.000500202 13.5025 0.000500202Z" fill="var(--tiny-first-color)" fill-rule="evenodd" transform="matrix(-1,0,0,1,42.5005,5.5)"/>
  <path id="形状结合" d="M19.7547 19.5C20.8607 19.5 21.7547 20.394 21.7547 21.5C21.7547 22.606 20.8607 23.5 19.7547 23.5L13.0822 23.4995L21.1687 31.586C21.9507 32.368 21.9507 33.632 21.1687 34.414C20.7787 34.804 20.2667 35 19.7547 35C19.2427 35 18.7307 34.804 18.3407 34.414L10.2542 26.3275L10.2547 32.998C10.2547 34.104 9.3607 34.998 8.2547 34.998C7.1487 34.998 6.2547 34.104 6.2547 32.998L6.2547 21.5C6.2547 21.3986 6.26221 21.299 6.27671 21.2018C6.28589 21.157 6.31429 21.0107 6.32604 20.9678C6.343 20.9149 6.38794 20.7776 6.40913 20.7269C6.436 20.667 6.48887 20.5567 6.52097 20.5011C6.53099 20.489 6.67092 20.2786 6.68064 20.2662C6.77929 20.1391 6.89377 20.0246 7.0206 19.9251L6.68064 20.2662C6.74965 20.1972 6.94475 19.982 7.0206 19.9251C7.07364 19.8845 7.16693 19.8193 7.22441 19.7847C7.27995 19.7521 7.36878 19.7047 7.42766 19.678C7.47723 19.6569 7.58396 19.6141 7.63662 19.597C7.67893 19.5853 7.80877 19.5492 7.85271 19.5403C7.89129 19.5347 8.03606 19.5114 8.0764 19.5078L19.7547 19.5Z" fill="var(--tiny-second-color)" fill-rule="evenodd" transform="matrix(-1,0,0,1,27.25,7.5)"/>
</svg>