<svg viewBox="0 0 48 48" xmlns="http://www.w3.org/2000/svg" xmlns:xlink="http://www.w3.org/1999/xlink" width="48.000000" height="48.000000">
  <path id="形状-path" d="M11.5 0C12.3284 0 13 0.671573 13 1.5C13 2.25939 12.4357 2.88698 11.7035 2.98631L11.5 3L5.122 3L12.5607 10.4393C12.8536 10.7322 13 11.1161 13 11.5C13 11.8839 12.8536 12.2678 12.5607 12.5607C12.0281 13.0932 11.1948 13.1416 10.6076 12.7059L3 5.122L3 11.5C3 12.2594 2.43569 12.887 1.70354 12.9863L1.5 13C0.740609 13 0.113018 12.4357 0.0136933 11.7035L0 11.5L0 1.5L0.0394692 1.15727L0.123203 0.903723L0.301936 0.597117C0.376042 0.523011 0.593378 0.300502 0.67766 0.245145L1.06369 0.0645494C1.13787 0.0418372 1.21615 0.0245876 1.29646 0.0136933L1.5 0L11.5 0Z" fill="var(--tiny-first-color)" fill-rule="nonzero" transform="matrix(-1,0,0,-1,19,19)"/>
  <path id="形状-path" d="M10.6076 0.294104C11.1948 -0.141605 12.0281 -0.0931931 12.5607 0.439341C13.0932 0.971872 13.1416 1.8052 12.7059 2.39242L5.12 10L11.5 10L11.7035 10.0137C12.4357 10.113 13 10.7406 13 11.5C13 12.2594 12.4357 12.887 11.7035 12.9863L11.5 13L1.5 13L1.29646 12.9863L1.02727 12.9239L0.677369 12.7545L0.441888 12.5632L0.256993 12.3401L0.0776258 11.9773L0.0248361 11.7726L0 11.5L0 1.5L0.0136933 1.29646C0.103989 0.630867 0.630867 0.103989 1.29646 0.0136929L1.5 0L1.70354 0.0136929C2.36913 0.103989 2.89601 0.630867 2.98631 1.29646L3 1.5L3 7.876L10.6076 0.294104Z" fill="var(--tiny-first-color)" fill-rule="nonzero" transform="matrix(-1,0,0,-1,19,42)"/>
  <path id="形状-path" d="M11.5 0L11.7035 0.0136933L11.9625 0.0727453L12.17 0.157506L12.4454 0.335255L12.743 0.6599L12.9224 1.02267L12.9752 1.2274L13 1.5L13 11.5L12.9863 11.7035C12.896 12.3691 12.3691 12.896 11.7035 12.9863L11.5 13L11.2965 12.9863C10.6309 12.896 10.104 12.3691 10.0137 11.7035L10 11.5L10 5.12L2.56066 12.5607C1.97344 12.9964 0.971872 13.0932 0.439341 12.5607C-0.0931931 12.0281 -0.141605 11.1948 0.294104 10.6076L7.876 3L1.5 3L1.29646 2.98631C0.564308 2.88698 0 2.25939 0 1.5C0 0.740609 0.564308 0.113018 1.29646 0.0136933L1.5 0L11.5 0Z" fill="var(--tiny-first-color)" fill-rule="nonzero" transform="matrix(-1,0,0,-1,42,19)"/>
  <path id="形状-path" d="M11.5 0C12.2594 0 12.887 0.564308 12.9863 1.29646L13 1.5L12.9965 11.6028L12.9605 11.8427L12.8768 12.0963L12.6981 12.4029C12.6265 12.4745 12.4066 12.6995 12.3223 12.7549L11.9363 12.9355C11.8621 12.9582 11.7838 12.9754 11.7035 12.9863L11.5 13L1.5 13C0.671574 13 0 12.3284 0 11.5C0 10.7406 0.564308 10.113 1.29646 10.0137L1.5 10L7.878 10L0.439341 2.56066C-0.146446 1.97487 -0.146446 1.02513 0.439341 0.439341C0.971872 -0.0931931 1.8052 -0.141605 2.39242 0.294104L10 7.878L10 1.5C10 0.740608 10.5643 0.113018 11.2965 0.0136929L11.5 0Z" fill="var(--tiny-first-color)" fill-rule="nonzero" transform="matrix(-1,0,0,-1,42,42)"/>
  <path id="形状-path" d="M11.5 0C12.3284 0 13 0.671573 13 1.5C13 2.25939 12.4357 2.88698 11.7035 2.98631L11.5 3L5.122 3L12.5607 10.4393C12.8536 10.7322 13 11.1161 13 11.5C13 11.8839 12.8536 12.2678 12.5607 12.5607C12.0281 13.0932 11.1948 13.1416 10.6076 12.7059L3 5.122L3 11.5C3 12.2594 2.43569 12.887 1.70354 12.9863L1.5 13C0.740609 13 0.113018 12.4357 0.0136933 11.7035L0 11.5L0 1.5L0.0394692 1.15727L0.123203 0.903723L0.301936 0.597117C0.376042 0.523011 0.593378 0.300502 0.67766 0.245145L1.06369 0.0645494C1.13787 0.0418372 1.21615 0.0245876 1.29646 0.0136933L1.5 0L11.5 0Z" fill="var(--tiny-second-color)" fill-rule="nonzero" transform="matrix(-1,0,0,-1,19,19)"/>
  <path id="形状-path" d="M11.5 0C12.2594 0 12.887 0.564308 12.9863 1.29646L13 1.5L12.9965 11.6028L12.9605 11.8427L12.8768 12.0963L12.6981 12.4029C12.6265 12.4745 12.4066 12.6995 12.3223 12.7549L11.9363 12.9355C11.8621 12.9582 11.7838 12.9754 11.7035 12.9863L11.5 13L1.5 13C0.671574 13 0 12.3284 0 11.5C0 10.7406 0.564308 10.113 1.29646 10.0137L1.5 10L7.878 10L0.439341 2.56066C-0.146446 1.97487 -0.146446 1.02513 0.439341 0.439341C0.971872 -0.0931931 1.8052 -0.141605 2.39242 0.294104L10 7.878L10 1.5C10 0.740608 10.5643 0.113018 11.2965 0.0136929L11.5 0Z" fill="var(--tiny-second-color)" fill-rule="nonzero" transform="matrix(-1,0,0,-1,42,42)"/>
</svg>