<svg viewBox="0 0 48 48" xmlns="http://www.w3.org/2000/svg" xmlns:xlink="http://www.w3.org/1999/xlink" width="48.000000" height="48.000000" fill="none">
  <path id="形状结合" d="M24 4C35.028 4 44 12.972 44 24C44 35.028 35.028 44 24 44C12.972 44 4 35.028 4 24C4 12.972 12.972 4 24 4ZM34 22.502L14 22.502C13.172 22.502 12.5 23.174 12.5 24.002C12.5 24.83 13.172 25.502 14 25.502L34 25.502C34.828 25.502 35.5 24.83 35.5 24.002C35.5 23.174 34.828 22.502 34 22.502Z" fill="var(--tiny-first-color, #191919)" fill-rule="evenodd"/>
  <path id="形状结合" d="M33.999 22.5C34.8274 22.5 35.499 23.1716 35.499 24C35.499 24.7594 34.9347 25.387 34.2025 25.4863L33.999 25.5L13.999 25.5C13.1706 25.5 12.499 24.8284 12.499 24C12.499 23.2406 13.0633 22.613 13.7955 22.5137L13.999 22.5L33.999 22.5Z" fill="var(--tiny-second-color, #aeaeAE)" fill-rule="evenodd"/>
</svg>
