<svg viewBox="0 0 48 48" xmlns="http://www.w3.org/2000/svg" xmlns:xlink="http://www.w3.org/1999/xlink" width="48.000000" height="48.000000">
  <path id="Combined Shape" d="M44 33.3333C44 31.4924 42.5076 30 40.6667 30L32 30C32 32.6924 29.8174 34.875 27.125 34.875L20.2083 34.875C17.5159 34.875 15.3333 32.6924 15.3333 30L7.33333 30C5.49238 30 4 31.4924 4 33.3333L4 39.6667C4 41.5076 5.49238 43 7.33333 43L40.6667 43C42.5076 43 44 41.5076 44 39.6667L44 33.3333Z" fill="var(--tiny-first-color, #191919)" fill-rule="evenodd"/>
  <path id="减去顶层" d="M30.3333 5C32.1743 5 33.6667 6.49238 33.6667 8.33333L33.6667 11.667L37 11.667C38.8409 11.667 40.3333 13.1594 40.3333 15.0003L40.3333 27L31.1667 27C31.1667 29.2785 29.2639 31.1251 26.9167 31.1251L22.25 31.1251C19.9028 31.1251 18 29.2785 18 27L7 27L7 8.33333C7 6.49238 8.49238 5 10.3333 5L30.3333 5ZM27 12.1553C27 12.4024 26.9924 12.7012 26.9773 13.0528C26.9621 13.4043 26.9445 13.708 26.9243 13.9649C26.8814 14.5362 26.7363 14.9414 26.4889 15.1807C26.2416 15.42 25.7974 15.5606 25.1563 15.6026C24.9897 15.6133 24.7361 15.6182 24.3953 15.6182C24.0546 15.6182 23.7959 15.6133 23.6193 15.6026C23.0716 15.5606 22.6791 15.3994 22.4419 15.1201C22.2046 14.8389 22.086 14.3662 22.086 13.7031L22.086 11.9424L18.9059 11.9424C18.762 12.6778 18.5059 13.2959 18.1374 13.7969C17.7714 14.2959 17.249 14.7295 16.57 15.0977C15.8936 15.4649 14.9876 15.8164 13.8518 16.1524L13.1855 14.8516C14.1471 14.5772 14.9017 14.3155 15.4494 14.0664C15.9971 13.8145 16.4236 13.5225 16.729 13.1914C17.0344 12.8594 17.249 12.4434 17.3726 11.9424L13.8064 11.9424L13.8064 10.5781L17.5733 10.5781C17.6238 9.7627 17.649 9.23633 17.649 9L19.1255 9C19.1255 9.39844 19.104 9.92481 19.0611 10.5781L23.5587 10.5781L23.5587 13.4717C23.5587 13.7588 23.5965 13.9629 23.6723 14.085C23.7505 14.2071 23.888 14.2793 24.0849 14.3018C24.1783 14.3115 24.3133 14.3164 24.49 14.3164C24.8004 14.3164 25.0251 14.2989 25.1639 14.2647C25.3027 14.2266 25.4024 14.1494 25.463 14.0322C25.526 13.9151 25.569 13.7285 25.5917 13.4717L25.6371 12.3721L25.6522 11.8643L27 12.1553ZM26.5684 17.8985L20.8594 17.8985L20.8594 21.0987C20.8594 21.7745 20.7143 22.2569 20.424 22.546C20.1363 22.838 19.6618 22.9883 19.0005 22.9981C18.4428 23.0089 17.8269 22.9737 17.1531 22.8936L16.8615 21.5137C17.4395 21.6065 17.9039 21.6524 18.2547 21.6524C18.6888 21.6524 18.9778 21.5811 19.1217 21.4395C19.2681 21.295 19.3413 21.0391 19.3413 20.6729L19.3413 17.8985L13.4164 17.8985L13.4164 16.5821L19.3413 16.5821L19.3413 14.6231L20.8594 14.6231L20.8594 16.5821L26.5684 16.5821L26.5684 17.8985ZM17.6831 19.3526C17.196 19.8741 16.5953 20.4288 15.881 21.0167C15.1693 21.6026 14.4727 22.1212 13.7912 22.5723L13 21.376C13.6512 20.9874 14.3099 20.5215 14.9762 19.9815C15.6425 19.4405 16.2293 18.8995 16.7366 18.3584L17.6831 19.3526ZM22.9681 18.4034C23.5284 18.792 24.1745 19.2471 24.9064 19.7676C25.6409 20.2891 26.3085 20.7735 26.9091 21.2227L26.1028 22.4639C25.3784 21.9034 24.0698 20.9219 22.1768 19.5215L22.9681 18.4034Z" fill="var(--tiny-second-color, #aeaeAE)" fill-rule="evenodd"/>
</svg>