<svg viewBox="0 0 48 48" xmlns="http://www.w3.org/2000/svg" xmlns:xlink="http://www.w3.org/1999/xlink" width="48.000000" height="48.000000" fill="none">
  <path id="减去顶层" d="M36 6C39.1954 6 41.8073 8.49784 41.9898 11.6475L42 12L42 36C42 39.1954 39.5022 41.8073 36.3525 41.9898L36 42L12 42C8.80464 42 6.19268 39.5022 6.01019 36.3525L6 36L6 12C6 8.80464 8.49784 6.19268 11.6475 6.01019L12 6L36 6ZM34.9938 16.4512C34.8823 14.5265 33.2861 13 31.3333 13L16.6667 13L16.4512 13.0062C14.5265 13.1177 13 14.7139 13 16.6667L13 31.3333L13.0062 31.5488C13.1177 33.4735 14.7139 35 16.6667 35L31.3333 35L31.5488 34.9938C33.4735 34.8823 35 33.2861 35 31.3333L35 16.6667L34.9938 16.4512Z" fill="var(--tiny-first-color)" fill-rule="evenodd"/>
  <path id="形状结合" d="M29.3333 16C30.7535 16 31.9144 17.1102 31.9955 18.51L32 18.6667L32 29.3333C32 30.7535 30.8898 31.9144 29.49 31.9955L29.3333 32L18.6667 32C17.2465 32 16.0856 30.8898 16.0045 29.49L16 29.3333L16 18.6667C16 17.2465 17.1102 16.0856 18.51 16.0045L18.6667 16L29.3333 16Z" fill="var(--tiny-second-color)" fill-rule="evenodd"/>
</svg>