<svg viewBox="0 0 48 48" xmlns="http://www.w3.org/2000/svg" xmlns:xlink="http://www.w3.org/1999/xlink" width="48.000000" height="48.000000">
  <path id="减去顶层" d="M38 8C38 5.79086 36.2091 4 34 4L14 4C11.7909 4 10 5.79086 10 8L10 40C10 42.2091 11.7909 44 14 44L34 44C36.2091 44 38 42.2091 38 40L38 8ZM26 11C26 9.89543 25.1046 9 24 9C22.8954 9 22 9.89543 22 11C22 12.1046 22.8954 13 24 13C25.1046 13 26 12.1046 26 11Z" fill="var(--tiny-first-color)" fill-rule="evenodd"/>
  <circle id="椭圆 387" cx="24" cy="11" r="2" fill="var(--tiny-second-color)"/>
</svg>