<svg viewBox="0 0 48 48" xmlns="http://www.w3.org/2000/svg" xmlns:xlink="http://www.w3.org/1999/xlink" width="48.000000" height="48.000000" fill="none">
  <path id="矩形 242(边框)" d="M35.1413 3.93283C34.4591 3.64428 33.7453 3.5 33 3.5L15 3.5C14.5983 3.5 14.2057 3.54192 13.8223 3.62575C13.4944 3.69745 13.1732 3.79981 12.8587 3.93283C12.5444 4.06578 12.2473 4.2248 11.9674 4.40988C11.6613 4.61236 11.3758 4.84604 11.1109 5.11091C10.846 5.37579 10.6124 5.6613 10.4099 5.96745C10.2248 6.24729 10.0658 6.54437 9.93283 6.85869C9.79981 7.17319 9.69745 7.49439 9.62575 7.82229C9.54192 8.2057 9.5 8.59826 9.5 9L9.5 39C9.5 39.7453 9.64428 40.4591 9.93283 41.1413C10.2112 41.7995 10.6039 42.3821 11.1109 42.8891C11.6179 43.3961 12.2005 43.7888 12.8587 44.0672C13.5409 44.3557 14.2547 44.5 15 44.5L33 44.5C33.7453 44.5 34.4591 44.3557 35.1413 44.0672C35.7995 43.7888 36.3821 43.3961 36.8891 42.8891C37.3961 42.3821 37.7888 41.7995 38.0672 41.1413C38.3557 40.4591 38.5 39.7453 38.5 39L38.5 9C38.5 8.59826 38.4581 8.20569 38.3742 7.82228C38.3025 7.49438 38.2002 7.17318 38.0672 6.85869C37.7888 6.2005 37.3961 5.61791 36.8891 5.11091C36.3821 4.60392 35.7995 4.21122 35.1413 3.93283ZM15 6.5L33 6.5C33.3397 6.5 33.664 6.56528 33.9727 6.69585C34.2716 6.82228 34.5366 7.00107 34.7678 7.23223C34.9989 7.4634 35.1777 7.72843 35.3042 8.02735C35.4347 8.33603 35.5 8.66025 35.5 9L35.5 39C35.5 39.3397 35.4347 39.664 35.3042 39.9727C35.1777 40.2716 34.9989 40.5366 34.7678 40.7678C34.5366 40.9989 34.2716 41.1777 33.9727 41.3042C33.664 41.4347 33.3397 41.5 33 41.5L15 41.5C14.6603 41.5 14.336 41.4347 14.0273 41.3042C13.7284 41.1777 13.4634 40.9989 13.2322 40.7678C13.1053 40.6408 12.9941 40.5036 12.8987 40.3562C12.8205 40.2352 12.7528 40.1074 12.6958 39.9727C12.5653 39.664 12.5 39.3397 12.5 39L12.5 9C12.5 8.80097 12.5224 8.60726 12.5672 8.41889C12.5989 8.28571 12.6418 8.1552 12.6958 8.02735C12.7528 7.89263 12.8204 7.76479 12.8987 7.64383C12.9941 7.49641 13.1053 7.35921 13.2322 7.23223C13.3592 7.10526 13.4964 6.99409 13.6438 6.89871C13.7648 6.82045 13.8926 6.75283 14.0273 6.69585C14.1552 6.64177 14.2857 6.59889 14.4189 6.56721C14.6073 6.5224 14.801 6.5 15 6.5Z" fill="var(--tiny-first-color)" fill-rule="evenodd"/>
  <circle id="椭圆 386" cx="24" cy="11" r="2" fill="var(--tiny-second-color)"/>
</svg>