<svg viewBox="0 0 48 48" xmlns="http://www.w3.org/2000/svg" xmlns:xlink="http://www.w3.org/1999/xlink" width="48.000000" height="48.000000">
  <path id="减去顶层" d="M36 6C39.3137 6 42 8.68629 42 12L42 22.5L32 22.5L32 6L36 6ZM29 6L19 6L19 22.5L29 22.5L29 6ZM16 6L12 6C8.68629 6 6 8.68629 6 12L6 22.5L16 22.5L16 6ZM6 25.5L6 36C6 39.3137 8.68629 42 12 42L16 42L16 25.5L6 25.5ZM19 42L29 42L29 25.5L19 25.5L19 42L19 42ZM32 42L36 42C39.3137 42 42 39.3137 42 36L42 25.5L32 25.5L32 42L32 42Z" fill="var(--tiny-first-color)" fill-rule="evenodd"/>
</svg>