<svg viewBox="0 0 48 48" xmlns="http://www.w3.org/2000/svg" xmlns:xlink="http://www.w3.org/1999/xlink" width="48.000000" height="48.000000" fill="none">
  <path id="形状结合" d="M28.1253 4.00138C28.1697 4.00534 28.303 4.01583 28.3462 4.02358C28.3938 4.03354 28.5025 4.05957 28.5483 4.07464C28.5755 4.0876 28.7861 4.17586 28.8137 4.19131C28.8673 4.23241 29.0919 4.39086 29.1405 4.4395L39.564 14.907C39.992 15.337 40.12 15.981 39.886 16.541C39.654 17.099 39.108 17.465 38.502 17.465L31.08 17.465C28.598 17.465 26.58 15.445 26.58 12.965L26.58 7L14 7C12.346 7 11 8.346 11 10L11 38.004C11 39.658 12.346 41.004 14 41.004L34.002 41.004C35.656 41.004 37.002 39.658 37.002 38.004L37.002 20.954C37.002 20.126 37.674 19.454 38.502 19.454C39.33 19.454 40.002 20.126 40.002 20.954L40.002 38.004C40.002 41.312 37.31 44.004 34.002 44.004L14 44.004C10.692 44.004 8 41.312 8 38.004L8 10C8 6.692 10.692 4 14 4L28.1253 4.00138ZM29.58 9.133L29.58 12.965C29.58 13.791 30.252 14.465 31.08 14.465L34.89 14.465L29.58 9.133Z" fill="var(--tiny-first-color, #191919)" fill-rule="evenodd"/>
  <path id="合并" d="M34.441 30.5005C34.3149 30.6635 34.1848 30.8135 34.0482 30.9515C33.3804 31.6262 32.5729 31.9935 31.6087 31.9935C29.4217 31.9935 27.6549 30.2008 27.6549 27.9968C27.6549 25.7927 29.4217 24 31.6087 24C32.5263 24 33.398 24.3182 34.0961 24.8899C34.534 25.2485 34.5983 25.8942 34.2397 26.3321C33.921 26.7213 33.3754 26.8154 32.9505 26.5796L32.7976 26.4757C32.4619 26.2008 32.0477 26.0496 31.6087 26.0496C30.5604 26.0496 29.7045 26.9181 29.7045 27.9968C29.7045 29.0755 30.5604 29.9439 31.6087 29.9439C32.0006 29.9439 32.2936 29.8107 32.5915 29.5097L32.7058 29.3859L32.763 29.2765L31.9313 29.2774C31.4282 29.2774 31.0098 28.9149 30.923 28.4368L30.9065 28.2526C30.9065 27.7495 31.269 27.3311 31.7471 27.2443L31.9313 27.2278L33.7785 27.2278C33.9009 27.2278 34.0162 27.2483 34.122 27.2855C34.5291 27.3753 34.819 27.736 34.819 28.1529L34.819 29.7734C34.819 30.0629 34.6779 30.3342 34.441 30.5005ZM24.5545 27.0028L25.6102 27.381L26.0897 27.5595L26.2605 27.627L26.4707 27.7438C27.3834 28.3998 27.675 29.7978 27.0399 30.811C26.3169 31.9646 24.758 32.2806 22.6544 31.7308C22.1005 31.586 21.7701 31.0245 21.9165 30.4767C22.0628 29.9288 22.6306 29.6021 23.1845 29.7468C24.5038 30.0916 25.1291 29.9649 25.2764 29.7299C25.3053 29.6838 25.309 29.6095 25.3005 29.5432L25.28 29.4485L24.0616 29.0114C22.6373 28.493 21.9126 27.8282 21.9352 26.5423L21.9515 26.257L21.993 26.0501C22.6831 23.834 24.5802 23.4358 26.8893 24.7525C27.3857 25.0355 27.5561 25.6629 27.2699 26.1538C26.9838 26.6448 26.3494 26.8133 25.853 26.5303C24.748 25.9002 24.3298 25.873 24.0808 26.3816L24.0122 26.5489C24.0348 26.698 24.1555 26.8511 24.5545 27.0028ZM16.1356 29.3534L15.4659 28.1936L15.0384 31.2354C15.0057 31.4687 14.8815 31.6794 14.6934 31.8212C14.5053 31.9629 14.2686 32.0241 14.0353 31.9914L13.7647 31.9533C13.2789 31.8851 12.9405 31.4359 13.0088 30.9502L13.8075 25.2668C13.72 24.9578 13.8062 24.6256 14.0328 24.3981C14.085 24.3257 14.1477 24.2615 14.219 24.2078C14.3458 24.1122 14.4959 24.0524 14.6536 24.0346C14.8991 23.9641 15.1631 24.0027 15.3781 24.1405C15.6704 24.2675 15.8723 24.5415 15.9071 24.8583L17.2021 27.1014L18.4974 24.8579C18.5322 24.5415 18.7337 24.2679 19.0256 24.1408C19.1027 24.0913 19.187 24.054 19.2755 24.0303C19.4313 23.9886 19.5954 23.99 19.7504 24.0345C19.9998 24.0627 20.2257 24.195 20.3721 24.3989C20.5981 24.6263 20.6839 24.9578 20.5968 25.2663L21.3956 30.9502C21.4639 31.4359 21.1254 31.8851 20.6397 31.9533L20.3691 31.9914C20.1358 32.0241 19.8991 31.9629 19.7109 31.8212C19.5228 31.6794 19.3987 31.4687 19.3659 31.2354L18.9384 28.1933L18.2686 29.3534C18.2174 29.5445 18.0856 29.797 17.9277 29.9162C17.7485 30.129 17.4799 30.2456 17.2021 30.2311C16.9242 30.2456 16.6557 30.129 16.4764 29.9162C16.3185 29.797 16.1868 29.5445 16.1356 29.3534Z" fill="var(--tiny-second-color, #aeaeAE)" fill-rule="evenodd"/>
</svg>
