<svg viewBox="0 0 48 48" xmlns="http://www.w3.org/2000/svg" xmlns:xlink="http://www.w3.org/1999/xlink" width="48.000000" height="48.000000">
  <path id="减去顶层" d="M32 4L12 4C8.68628 4 6 6.68628 6 10L6 38C6 41.3137 8.68628 44 12 44L23.7849 44C19.7192 41.5503 17 37.0928 17 32C17 24.2681 23.2681 18 31 18C33.55 18 35.9407 18.6816 38 19.873L38 10C38 6.68628 35.3137 4 32 4ZM12 10.5L27 10.5C27.8401 10.5 28.5 11.1599 28.5 12C28.5 12.8401 27.8401 13.5 27 13.5L12 13.5C11.1599 13.5 10.5 12.8401 10.5 12C10.5 11.1599 11.1599 10.5 12 10.5ZM12 17.5L16 17.5C16.8401 17.5 17.5 18.1599 17.5 19C17.5 19.8401 16.8401 20.5 16 20.5L12 20.5C11.1599 20.5 10.5 19.8401 10.5 19C10.5 18.1599 11.1599 17.5 12 17.5ZM20 32C20 25.9248 24.9248 21 31 21C37.0752 21 42 25.9248 42 32C42 38.0752 37.0752 43 31 43C24.9248 43 20 38.0752 20 32ZM31.366 24C31.4749 24 31.5831 24.0062 31.6906 24.0185C31.9537 24.0487 32.2125 24.116 32.4671 24.2201C32.7959 24.3547 33.1092 24.5479 33.407 24.7998C33.8885 25.2072 34.3124 25.7502 34.6787 26.4288C35.4502 26.4066 36.1329 26.5022 36.7268 26.7157C37.0939 26.8476 37.4179 27.0223 37.6988 27.2398C37.9163 27.4081 38.1039 27.5987 38.2616 27.8114C38.3261 27.8983 38.3855 27.9889 38.44 28.0833C38.4944 28.1776 38.5432 28.2744 38.5862 28.3737C38.6916 28.6166 38.7628 28.8744 38.7999 29.1469C38.8477 29.4989 38.837 29.8668 38.7678 30.2507C38.6557 30.8718 38.3972 31.5108 37.9922 32.1677C38.3972 32.8247 38.6557 33.4637 38.7678 34.0848C38.837 34.4686 38.8477 34.8366 38.7999 35.1886C38.7628 35.4611 38.6916 35.7189 38.5863 35.9618C38.5432 36.0611 38.4944 36.1579 38.44 36.2522C38.3855 36.3465 38.3261 36.4371 38.2616 36.5241L38.2612 36.5247C38.1035 36.7372 37.9161 36.9275 37.6988 37.0957C37.4179 37.3132 37.0939 37.4879 36.7268 37.6198C36.133 37.8332 35.4505 37.9289 34.6793 37.9067C34.3129 38.5858 33.8888 39.1292 33.407 39.5367C33.1092 39.7887 32.7959 39.9819 32.4671 40.1164C32.2126 40.2206 31.9539 40.2878 31.6909 40.318L31.6906 40.3181C31.5831 40.3304 31.4749 40.3366 31.366 40.3366C31.2571 40.3366 31.1489 40.3304 31.0414 40.3181C30.7783 40.2878 30.5195 40.2206 30.2649 40.1164C29.9361 39.9819 29.6229 39.7887 29.3251 39.5367C28.8431 39.129 28.4189 38.5855 28.0524 37.906C27.2813 37.9282 26.5989 37.8326 26.0052 37.6192C25.6382 37.4872 25.3142 37.3125 25.0333 37.0951C24.8158 36.9267 24.6281 36.7362 24.4704 36.5234C24.406 36.4365 24.3465 36.3459 24.2921 36.2516C24.2376 36.1572 24.1889 36.0605 24.1458 35.9612C24.0405 35.7183 23.9692 35.4605 23.9322 35.1879C23.8843 34.8359 23.895 34.468 23.9643 34.0841C24.0763 33.4632 24.3347 32.8244 24.7395 32.1677C24.3347 31.511 24.0763 30.8722 23.9643 30.2514C23.895 29.8675 23.8843 29.4996 23.9322 29.1476C23.9692 28.875 24.0404 28.6173 24.1458 28.3744L24.1458 28.3743C24.1889 28.275 24.2376 28.1782 24.2921 28.0839C24.3465 27.9896 24.406 27.899 24.4704 27.8121C24.6281 27.5994 24.8157 27.4088 25.0333 27.2404C25.3142 27.023 25.6382 26.8483 26.0052 26.7163C26.5991 26.5029 27.2817 26.4072 28.053 26.4295C28.4193 25.7505 28.8433 25.2073 29.3251 24.7999C29.6229 24.5479 29.9361 24.3547 30.2649 24.2201C30.5195 24.116 30.7783 24.0488 31.0414 24.0185L31.0459 24.018C31.1519 24.006 31.2586 24 31.366 24ZM31.8212 26.9615C31.6688 27.0112 31.5168 27.0638 31.3651 27.1194C31.2141 27.0641 31.0626 27.0117 30.9109 26.9622C30.6749 26.8852 30.4419 26.8166 30.212 26.7562C30.3418 26.5884 30.4767 26.4452 30.6167 26.3268C30.8743 26.1089 31.124 26 31.366 26C31.608 26 31.8577 26.1089 32.1153 26.3268C32.2552 26.4451 32.3899 26.5881 32.5196 26.7556C32.2898 26.816 32.057 26.8846 31.8212 26.9615ZM36.7995 29.8956C36.7669 30.0763 36.7104 30.2649 36.6298 30.4615C36.4626 30.2926 36.2866 30.1252 36.102 29.9593C35.983 29.8524 35.8617 29.7472 35.738 29.6438C35.7103 29.4851 35.6799 29.3276 35.6469 29.1712C35.5954 28.9279 35.5383 28.6915 35.4755 28.4619C35.686 28.4904 35.8775 28.5357 36.0503 28.5978C36.3677 28.7119 36.5869 28.8737 36.7079 29.0833C36.8289 29.2928 36.8595 29.5636 36.7995 29.8956ZM26.6818 28.5984C26.8545 28.5364 27.046 28.4911 27.2563 28.4625C27.1936 28.692 27.1365 28.9282 27.0852 29.1712C27.0521 29.3273 27.0218 29.4846 26.9942 29.6431C26.8704 29.7465 26.749 29.8517 26.63 29.9587C26.4453 30.1247 26.2692 30.2922 26.1019 30.4612C26.0215 30.265 25.9651 30.0766 25.9325 29.8962C25.8726 29.5642 25.9031 29.2935 26.0241 29.0839C26.1451 28.8744 26.3643 28.7125 26.6818 28.5984ZM32.6581 29.9301C32.2294 29.6826 31.7985 29.4639 31.3653 29.274C30.9326 29.4638 30.5022 29.6823 30.074 29.9295C29.6455 30.1768 29.2409 30.4405 28.8601 30.7205C28.8079 31.1906 28.7819 31.6732 28.7819 32.1683C28.7819 32.6629 28.8079 33.1451 28.86 33.6149C29.2408 33.8949 29.6455 34.1586 30.074 34.406C30.5022 34.6532 30.9326 34.8717 31.3653 35.0614C31.7985 34.8716 32.2294 34.6529 32.6581 34.4054C33.0866 34.158 33.4913 33.8943 33.8721 33.6142C33.9241 33.1447 33.9502 32.6627 33.9502 32.1683C33.9502 31.6735 33.9241 31.1911 33.872 30.7212C33.4912 30.4412 33.0865 30.1775 32.6581 29.9301ZM35.6469 35.1654C35.5955 35.4082 35.5385 35.6443 35.4758 35.8736C35.6861 35.8451 35.8776 35.7998 36.0503 35.7377C36.3677 35.6236 36.5869 35.4618 36.7079 35.2522C36.8289 35.0427 36.8595 34.7719 36.7996 34.4399C36.7669 34.2592 36.7104 34.0706 36.6298 33.874C36.4626 34.0429 36.2866 34.2103 36.102 34.3762C35.9831 34.483 35.8618 34.5881 35.7382 34.6915C35.7105 34.8506 35.68 35.0086 35.6469 35.1654ZM26.63 34.3768C26.4453 34.2108 26.2692 34.0433 26.1019 33.8743C26.0215 34.0705 25.9651 34.2589 25.9325 34.4393C25.8726 34.7712 25.9031 35.042 26.0241 35.2516C26.1451 35.4611 26.3643 35.6229 26.6818 35.7371C26.8544 35.7991 27.0458 35.8444 27.256 35.8729C27.1934 35.6438 27.1365 35.408 27.0852 35.1654C27.052 35.0088 27.0216 34.8511 26.9939 34.6922C26.8703 34.5888 26.749 34.4837 26.63 34.3768ZM31.8212 37.374C31.6688 37.3243 31.5168 37.2717 31.3651 37.2161C31.2141 37.2714 31.0626 37.3238 30.9109 37.3733C30.6746 37.4503 30.4414 37.5191 30.2113 37.5795C30.3413 37.7477 30.4764 37.8911 30.6167 38.0098C30.8743 38.2277 31.124 38.3366 31.366 38.3366C31.608 38.3366 31.8577 38.2277 32.1153 38.0098C32.2554 37.8913 32.3904 37.748 32.5203 37.58C32.2903 37.5196 32.0573 37.4509 31.8212 37.374Z" fill="var(--tiny-first-color, #191919)" fill-rule="evenodd"/>
  <path id="减去顶层" d="M31 21C24.9248 21 20 25.9248 20 32C20 38.0752 24.9248 43 31 43C37.0752 43 42 38.0752 42 32C42 25.9248 37.0752 21 31 21ZM31.366 24C31.4749 24 31.5831 24.0062 31.6906 24.0185C31.9537 24.0487 32.2125 24.116 32.4671 24.2201C32.7959 24.3547 33.1092 24.5479 33.407 24.7998C33.8885 25.2072 34.3124 25.7502 34.6787 26.4288C35.4502 26.4066 36.1329 26.5022 36.7268 26.7157C37.0939 26.8476 37.4179 27.0223 37.6988 27.2398C37.9163 27.4081 38.1039 27.5987 38.2616 27.8114C38.3261 27.8983 38.3855 27.9889 38.44 28.0833C38.4944 28.1776 38.5432 28.2744 38.5862 28.3737C38.6916 28.6166 38.7628 28.8744 38.7999 29.1469C38.8477 29.4989 38.837 29.8668 38.7678 30.2507C38.6557 30.8718 38.3972 31.5108 37.9922 32.1677C38.3972 32.8247 38.6557 33.4637 38.7678 34.0848C38.837 34.4686 38.8477 34.8366 38.7999 35.1886C38.7628 35.4611 38.6916 35.7189 38.5863 35.9618C38.5432 36.0611 38.4944 36.1579 38.44 36.2522C38.3855 36.3465 38.3261 36.4371 38.2616 36.5241L38.2616 36.5241C38.1039 36.7368 37.9163 36.9273 37.6988 37.0957C37.4179 37.3132 37.0939 37.4879 36.7268 37.6198C36.133 37.8332 35.4505 37.9289 34.6793 37.9067C34.3129 38.5858 33.8888 39.1292 33.407 39.5367C33.1092 39.7887 32.7959 39.9819 32.4671 40.1164C32.2126 40.2206 31.9538 40.2878 31.6908 40.318L31.6907 40.3181L31.6906 40.3181C31.5831 40.3304 31.4749 40.3366 31.366 40.3366C31.2571 40.3366 31.1489 40.3304 31.0414 40.3181C30.7783 40.2878 30.5195 40.2206 30.2649 40.1164C29.9361 39.9819 29.6229 39.7887 29.3251 39.5367C28.8431 39.129 28.4189 38.5855 28.0524 37.906C27.2813 37.9282 26.5989 37.8326 26.0052 37.6192C25.6382 37.4872 25.3142 37.3125 25.0333 37.0951C24.8158 36.9267 24.6281 36.7362 24.4704 36.5234C24.406 36.4365 24.3465 36.3459 24.2921 36.2516C24.2376 36.1572 24.1889 36.0605 24.1458 35.9612C24.0405 35.7183 23.9692 35.4605 23.9322 35.1879C23.8843 34.8359 23.895 34.468 23.9643 34.0841C24.0763 33.4632 24.3347 32.8244 24.7395 32.1677C24.3347 31.511 24.0763 30.8722 23.9643 30.2514C23.895 29.8675 23.8843 29.4996 23.9322 29.1476C23.9692 28.875 24.0404 28.6173 24.1458 28.3744L24.1458 28.3744L24.1458 28.3743C24.1889 28.275 24.2376 28.1782 24.2921 28.0839C24.3465 27.9896 24.406 27.899 24.4704 27.8121C24.6281 27.5994 24.8157 27.4088 25.0333 27.2404C25.3142 27.023 25.6382 26.8483 26.0052 26.7163C26.5991 26.5029 27.2817 26.4072 28.053 26.4295C28.4193 25.7506 28.8433 25.2073 29.3251 24.7999C29.6229 24.5479 29.9361 24.3547 30.2649 24.2201C30.5195 24.116 30.7783 24.0488 31.0414 24.0185L31.0414 24.0185L31.0415 24.0185C31.1489 24.0062 31.2571 24 31.366 24ZM31.8212 26.9615C31.6688 27.0112 31.5168 27.0638 31.3651 27.1194C31.2141 27.0641 31.0626 27.0117 30.9109 26.9622C30.6749 26.8852 30.4419 26.8166 30.212 26.7562C30.3418 26.5884 30.4767 26.4452 30.6167 26.3268C30.8743 26.1089 31.124 26 31.366 26C31.608 26 31.8577 26.1089 32.1153 26.3268C32.2552 26.4451 32.3899 26.5881 32.5196 26.7556C32.2898 26.816 32.057 26.8846 31.8212 26.9615ZM36.7995 29.8956C36.7669 30.0763 36.7104 30.2649 36.6298 30.4615C36.4626 30.2926 36.2866 30.1252 36.102 29.9593C35.983 29.8524 35.8617 29.7472 35.738 29.6438C35.7103 29.4851 35.6799 29.3276 35.6469 29.1712C35.5954 28.9279 35.5383 28.6915 35.4755 28.4619C35.686 28.4904 35.8775 28.5357 36.0503 28.5978C36.3677 28.7119 36.5869 28.8737 36.7079 29.0833C36.8289 29.2928 36.8595 29.5636 36.7995 29.8956ZM26.6818 28.5984C26.8545 28.5364 27.046 28.4911 27.2563 28.4625C27.1936 28.692 27.1365 28.9282 27.0852 29.1712C27.0521 29.3273 27.0218 29.4846 26.9942 29.6431C26.8704 29.7465 26.749 29.8517 26.63 29.9587C26.4453 30.1247 26.2692 30.2922 26.1019 30.4612C26.0215 30.265 25.9651 30.0766 25.9325 29.8962C25.8726 29.5642 25.9031 29.2935 26.0241 29.0839C26.1451 28.8744 26.3643 28.7125 26.6818 28.5984ZM32.6581 29.9301C32.2294 29.6826 31.7985 29.4639 31.3653 29.274C30.9326 29.4638 30.5022 29.6823 30.074 29.9295C29.6455 30.1768 29.2409 30.4405 28.8601 30.7205C28.8079 31.1906 28.7819 31.6732 28.7819 32.1683C28.7819 32.6629 28.8079 33.1451 28.86 33.6149C29.2408 33.8949 29.6455 34.1586 30.074 34.406C30.5022 34.6532 30.9326 34.8717 31.3653 35.0614C31.7985 34.8716 32.2294 34.6529 32.6581 34.4054C33.0866 34.158 33.4913 33.8943 33.8721 33.6142C33.9241 33.1447 33.9502 32.6627 33.9502 32.1683C33.9502 31.6735 33.9241 31.1911 33.872 30.7212C33.4912 30.4412 33.0865 30.1775 32.6581 29.9301ZM35.6469 35.1654C35.5955 35.4082 35.5385 35.6443 35.4758 35.8736C35.6861 35.8451 35.8776 35.7998 36.0503 35.7377C36.3677 35.6236 36.5869 35.4618 36.7079 35.2522C36.8289 35.0427 36.8595 34.7719 36.7996 34.4399C36.7669 34.2592 36.7104 34.0706 36.6298 33.874C36.4626 34.0429 36.2866 34.2103 36.102 34.3762C35.9831 34.483 35.8618 34.5881 35.7382 34.6915C35.7105 34.8506 35.68 35.0086 35.6469 35.1654ZM26.63 34.3768C26.4453 34.2108 26.2692 34.0433 26.1019 33.8743C26.0215 34.0705 25.9651 34.2589 25.9325 34.4393C25.8726 34.7712 25.9031 35.042 26.0241 35.2516C26.1451 35.4611 26.3643 35.6229 26.6818 35.7371C26.8544 35.7991 27.0458 35.8444 27.256 35.8729C27.1934 35.6438 27.1365 35.408 27.0852 35.1654C27.052 35.0088 27.0216 34.8511 26.9939 34.6922C26.8703 34.5888 26.749 34.4837 26.63 34.3768ZM31.8212 37.374C31.6688 37.3243 31.5168 37.2717 31.3651 37.2161C31.2141 37.2714 31.0626 37.3238 30.9109 37.3733C30.6746 37.4503 30.4414 37.5191 30.2113 37.5795C30.3413 37.7477 30.4765 37.8911 30.6167 38.0098C30.8743 38.2277 31.124 38.3366 31.366 38.3366C31.608 38.3366 31.8577 38.2277 32.1153 38.0098C32.2554 37.8913 32.3904 37.748 32.5203 37.58C32.2903 37.5196 32.0573 37.4509 31.8212 37.374Z" fill="var(--tiny-second-color, #aeaeAE)" fill-rule="evenodd"/>
</svg>