<svg viewBox="0 0 48 48" xmlns="http://www.w3.org/2000/svg" xmlns:xlink="http://www.w3.org/1999/xlink" width="48.000000" height="48.000000">
  <path id="减去顶层" d="M24.0412 4.01367C32.6472 4.06967 39.6332 11.1037 39.6332 19.6897C39.6332 30.9437 27.3012 41.6837 25.1692 43.4577C24.9332 43.6457 24.4692 43.9877 23.9632 43.9877C23.4592 43.9877 22.9732 43.5877 22.7792 43.4117C20.4992 41.5077 8.36719 30.8477 8.36719 19.6897C8.36719 11.1157 15.4692 4.09167 24.0412 4.01367ZM23 22L23 14.5C23 13.66 22.34 13 21.5 13C20.66 13 20 13.66 20 14.5L20 22.5C20 22.6765 20.0179 22.8492 20.0536 23.0181C20.0864 23.1731 20.1342 23.3249 20.1971 23.4736C20.2588 23.6195 20.3329 23.7573 20.4192 23.8868C20.51 24.0228 20.6143 24.1498 20.7322 24.2678C20.8502 24.3857 20.9772 24.4901 21.1133 24.5808C21.2428 24.6672 21.3805 24.7412 21.5264 24.8029C21.6751 24.8658 21.8269 24.9136 21.9819 24.9464C22.1508 24.9821 22.3235 25 22.5 25L29.5 25C30.34 25 31 24.34 31 23.5C31 22.66 30.34 22 29.5 22L23 22Z" fill="var(--tiny-first-color, #191919)" fill-rule="evenodd"/>
  <path id="矢量 1941(边框)" d="M23 14.5L23 22L29.5 22C30.34 22 31 22.66 31 23.5C31 24.34 30.34 25 29.5 25L22.5 25C22.3235 25 22.1508 24.9821 21.9819 24.9464C21.8269 24.9136 21.6751 24.8658 21.5264 24.8029C21.3805 24.7412 21.2428 24.6672 21.1133 24.5808C20.9772 24.4901 20.8502 24.3857 20.7322 24.2678C20.6143 24.1498 20.51 24.0228 20.4192 23.8868C20.3329 23.7573 20.2588 23.6195 20.1971 23.4736C20.1342 23.3249 20.0864 23.1731 20.0536 23.0181C20.0179 22.8492 20 22.6765 20 22.5L20 14.5C20 13.66 20.66 13 21.5 13C22.34 13 23 13.66 23 14.5Z" fill="var(--tiny-second-color, #aeaeAE)" fill-rule="evenodd"/>
</svg>