<svg viewBox="0 0 48 48" xmlns="http://www.w3.org/2000/svg" xmlns:xlink="http://www.w3.org/1999/xlink" width="48.000000" height="48.000000">
  <path id="合并" d="M24.577 4.01227L24.1416 4.00244L23.797 4.01019C15.3179 4.0802 8.32448 11.1352 8.32227 19.7504C8.3213 24.6843 10.7918 29.9314 14.9588 35.2612C17.6433 38.6946 20.7385 41.7738 23.0529 43.7062C23.6888 44.2371 24.6347 44.152 25.1657 43.5161C25.6966 42.8802 25.6115 41.9343 24.9756 41.4033C22.8124 39.5972 19.863 36.663 17.3222 33.4133C13.5296 28.5625 11.3215 23.8726 11.3223 19.751C11.3241 12.782 17.0922 7.06392 24.0611 7.00131C31.0542 7.04603 36.7427 12.7678 36.7427 19.7513C36.7427 25.7236 32.6125 32.163 26.5979 37.979C26.0024 38.5549 25.9865 39.5045 26.5624 40.1001C27.1382 40.6956 28.0879 40.7115 28.6834 40.1356C35.2385 33.7969 39.7427 26.7744 39.7427 19.7513C39.7427 11.2841 32.9897 4.3288 24.577 4.01227ZM23.5 22.5L23.5 15C23.5 14.16 22.84 13.5 22 13.5C21.16 13.5 20.5 14.16 20.5 15L20.5 23C20.5 23.1765 20.5179 23.3492 20.5536 23.5181C20.5864 23.6731 20.6342 23.8249 20.6971 23.9736C20.7588 24.1195 20.8329 24.2573 20.9192 24.3868C21.01 24.5228 21.1143 24.6498 21.2322 24.7678C21.3502 24.8857 21.4772 24.9901 21.6133 25.0808C21.7428 25.1672 21.8805 25.2412 22.0264 25.3029C22.1751 25.3658 22.3269 25.4136 22.4819 25.4464C22.6508 25.4821 22.8235 25.5 23 25.5L30 25.5C30.84 25.5 31.5 24.84 31.5 24C31.5 23.16 30.84 22.5 30 22.5L23.5 22.5Z" fill="var(--tiny-first-color, #191919)" fill-rule="evenodd"/>
  <path id="矢量 1941(边框)" d="M23.5 15L23.5 22.5L30 22.5C30.84 22.5 31.5 23.16 31.5 24C31.5 24.84 30.84 25.5 30 25.5L23 25.5C22.8235 25.5 22.6508 25.4821 22.4819 25.4464C22.3269 25.4136 22.1751 25.3658 22.0264 25.3029C21.8805 25.2412 21.7428 25.1672 21.6133 25.0808C21.4772 24.9901 21.3502 24.8857 21.2322 24.7678C21.1143 24.6498 21.01 24.5228 20.9192 24.3868C20.8329 24.2573 20.7588 24.1195 20.6971 23.9736C20.6342 23.8249 20.5864 23.6731 20.5536 23.5181C20.5179 23.3492 20.5 23.1765 20.5 23L20.5 15C20.5 14.16 21.16 13.5 22 13.5C22.84 13.5 23.5 14.16 23.5 15Z" fill="var(--tiny-second-color, #aeaeAE)" fill-rule="evenodd"/>
</svg>