<svg viewBox="0 0 48 48" xmlns="http://www.w3.org/2000/svg" xmlns:xlink="http://www.w3.org/1999/xlink" width="48.000000" height="48.000000">
  <path id="减去顶层" d="M11.996 18.5L36.002 18.5C39.308 18.5 42 21.192 42 24.498L42 35.502C42 38.808 39.308 41.5 36.002 41.5L11.996 41.5C8.69 41.5 6 38.808 6 35.502L6 24.498C6 21.192 8.69 18.5 11.996 18.5ZM31.3658 24.8958C31.8343 25.3727 31.874 26.116 31.4869 26.6381L23.001 35.1787C22.5314 35.6488 21.652 35.5633 21.1349 35.1787L16.6421 30.6727C16.1224 30.1525 16.1189 29.3055 16.6342 28.7809C17.1027 28.304 17.9878 28.3866 18.5082 28.773L22.0668 32.3436L29.4918 24.8878C30.0115 24.3676 30.8505 24.3712 31.3658 24.8958Z" fill="var(--tiny-first-color, #191919)" fill-rule="evenodd"/>
  <path id="合并" d="M32 6.5L16 6.5C15.16 6.5 14.5 7.16 14.5 8C14.5 8.84 15.16 9.5 16 9.5L32 9.5C32.84 9.5 33.5 8.84 33.5 8C33.5 7.16 32.84 6.5 32 6.5ZM36.5 12.5L11.5 12.5C10.66 12.5 10 13.16 10 14C10 14.84 10.66 15.5 11.5 15.5L36.5 15.5C37.34 15.5 38 14.84 38 14C38 13.16 37.34 12.5 36.5 12.5Z" fill="var(--tiny-second-color, #aeaeAE)" fill-rule="evenodd"/>
</svg>