<svg viewBox="0 0 48 48" xmlns="http://www.w3.org/2000/svg" xmlns:xlink="http://www.w3.org/1999/xlink" width="48.000000" height="48.000000" fill="none">
  <path id="形状结合" d="M11.998 42C8.692 42 6 39.308 6 36.002L6 11.998C6 8.692 8.692 6 11.998 6L36.002 6C39.308 6 42 8.692 42 11.998C42 12.826 41.328 13.498 40.5 13.498C39.672 13.498 39 12.826 39 11.998C39 10.346 37.654 9 36.002 9L11.998 9C10.346 9 9 10.346 9 11.998L9 36.002C9 37.654 10.346 39 11.998 39L36.002 39C37.654 39 39 37.654 39 36.002L39 17.0126C39 16.1846 39.672 15.5126 40.5 15.5126C41.328 15.5126 42 16.1846 42 17.0126L42 36.002C42 39.308 39.308 42 36.002 42L11.998 42Z" fill="var(--tiny-first-color, #191919)" fill-rule="evenodd"/>
  <path id="合并" d="M21.3144 19L25.2052 19.0037C25.832 19.0969 26.5048 19.6512 26.5043 20.3032C26.5039 20.8896 26.1121 21.3922 25.5671 21.5498L25.19 21.6013L22.7995 21.5977L22.5993 21.7973L22.5985 22.4929L22.7983 22.6929L25.2755 22.6946C25.9025 22.7873 26.5757 23.3412 26.5757 23.9931C26.5757 24.5795 26.1842 25.0824 25.6393 25.2403L25.2622 25.2922L22.7986 25.2901L22.5985 25.4901L22.5993 26.1929L25.1891 26.3929C25.6916 26.4675 26.2972 26.8444 26.4377 27.3282L26.4896 27.7049C26.4146 28.198 26.0372 28.7984 25.5528 28.9387L25.1757 28.9905L21.3004 28.99C20.798 28.9154 20.1924 28.5385 20.0519 28.0547L20 27.678L20.0005 20.2996C20.0752 19.7975 20.4529 19.1923 20.9375 19.0522L21.3144 19ZM30.2685 28.3442L30.0456 28.6554C29.4278 29.288 28.3253 29.0011 28.0594 28.1801L28.0005 27.7966L28 20.2184L28.0535 19.8511C28.1862 19.42 28.7466 19.0803 29.187 19.0059L29.5547 19.0593C29.9863 19.192 30.3262 19.7568 30.4005 20.2049L30.3994 22.1418L30.7763 22.2351L31.6086 20.6575L31.8455 20.3364C32.3515 19.845 33.3078 20.0733 33.7399 20.6454L34.5742 22.2347L34.9514 22.1422L34.9545 20.2171L35.0084 19.8499C35.1608 19.3573 35.6211 19.0057 36.1563 19.0063C36.7527 19.0069 37.2626 19.6366 37.355 20.2063L37.3473 27.7851L37.3341 27.9869L37.2282 28.3365C36.8604 29.0981 35.6253 29.0819 35.0846 28.3543L32.8524 24.1146L32.4984 24.1145L30.2685 28.3442ZM12.9195 19.2439L13.1863 19.5249L16.0455 23.5385L16.4085 23.4227L16.4095 20.2093C16.4838 19.7611 16.8237 19.1963 17.2553 19.0635L17.623 19.0101C18.0634 19.0845 18.6238 19.4242 18.7565 19.8554L18.81 20.2226L18.8095 27.8009C18.6775 28.6958 17.5898 29.3035 16.8905 28.7661L16.6236 28.4852L13.7634 24.4715L13.4005 24.5874L13.4005 27.8009C13.3262 28.249 12.9863 28.8138 12.5547 28.9466L12.187 29C11.7466 28.9256 11.1862 28.5859 11.0535 28.1547L11 27.7875L11.0005 20.2092L11.0562 19.8388C11.2975 19.0729 12.2701 18.7449 12.9195 19.2439Z" fill="var(--tiny-second-color, #aeaeAE)" fill-rule="evenodd"/>
</svg>
