<svg viewBox="0 0 48 48" xmlns="http://www.w3.org/2000/svg" xmlns:xlink="http://www.w3.org/1999/xlink" width="48.000000" height="48.000000">
  <path id="形状结合" d="M11.998 42C8.692 42 6 39.308 6 36.002L6 11.998C6 8.692 8.692 6 11.998 6L36.002 6C39.308 6 42 8.692 42 11.998C42 12.826 41.328 13.498 40.5 13.498C39.672 13.498 39 12.826 39 11.998C39 10.346 37.654 9 36.002 9L11.998 9C10.346 9 9 10.346 9 11.998L9 36.002C9 37.654 10.346 39 11.998 39L36.002 39C37.654 39 39 37.654 39 36.002L39 17.0126C39 16.1846 39.672 15.5126 40.5 15.5126C41.328 15.5126 42 16.1846 42 17.0126L42 36.002C42 39.308 39.308 42 36.002 42L11.998 42Z" fill="var(--tiny-first-color)" fill-rule="evenodd"/>
  <path id="矢量 1885" d="M17.9127 15.5029L17.9034 15.4751C17.6391 14.6778 18.0577 13.8435 18.8547 13.5791C19.6518 13.3147 20.4858 13.7334 20.7501 14.5308L21.0724 15.5029L23.503 15.5029C24.3428 15.5029 25.0026 16.1629 25.0026 17.0029C25.0026 17.8428 24.3428 18.5029 23.503 18.5029L23.0961 18.5029C23.2011 18.8042 23.2095 19.1428 23.0994 19.4751L22.7586 20.5029L23.503 20.5029C24.3428 20.5029 25.0026 21.1629 25.0026 22.0029C25.0026 22.8428 24.3428 23.5029 23.503 23.5029L21.2536 23.5029L21.2536 24.5029L23.503 24.5029C24.3428 24.5029 25.0026 25.1628 25.0026 26.0029C25.0026 26.8428 24.3428 27.5029 23.503 27.5029L23.4083 27.5029L24.3514 28.7481C24.7648 28.0142 25.0742 27.1917 25.2796 26.2805C25.4723 25.4255 25.5834 24.4373 25.6131 23.3159C25.6252 22.8584 25.6249 22.3435 25.6122 21.7715C25.6044 21.4238 25.5872 20.9063 25.5606 20.219C25.5218 19.22 25.5024 18.4812 25.5024 18.0029C25.5024 17.9031 25.5117 17.8059 25.5296 17.7119C25.3763 16.9361 25.8371 16.1858 26.6139 15.9778L31.925 14.5542C32.7361 14.3367 33.5442 14.8035 33.7615 15.6148C33.9789 16.4263 33.5123 17.2346 32.7012 17.4519L28.5087 18.5757C28.5173 18.9776 28.5336 19.4863 28.5575 20.1026C28.5629 20.2427 28.568 20.3762 28.5726 20.5029L33.0004 20.5029C33.8402 20.5029 34.5 21.1629 34.5 22.0029C34.5 22.8428 33.8402 23.5029 33.0004 23.5029L32.2505 23.5029L32.2505 33.0029C32.2505 33.8428 31.5907 34.5029 30.7509 34.5029C29.9112 34.5029 29.2514 33.8428 29.2514 33.0029L29.2514 23.5029L28.6081 23.5029C28.5689 24.7771 28.4346 25.9229 28.2053 26.9402C27.9095 28.2524 27.4414 29.4392 26.801 30.501C26.7644 30.5615 26.7272 30.6218 26.6894 30.6819C25.9743 31.8167 25.0503 32.8201 23.9174 33.6917C23.2518 34.2039 22.3266 34.0833 21.8145 33.4175C21.3025 32.7515 21.4232 31.8259 22.0888 31.314C22.1829 31.2415 22.275 31.168 22.3652 31.0933L21.2536 29.626L21.2536 33.0029C21.2536 33.8428 20.5938 34.5029 19.7541 34.5029C19.7119 34.5029 19.6703 34.5012 19.6291 34.498C19.5879 34.5012 19.5463 34.5029 19.5041 34.5029L18.0046 34.5029C17.1648 34.5029 16.505 33.8428 16.505 33.0029C16.505 32.1628 17.1648 31.5029 18.0046 31.5029L18.2545 31.5029L18.2545 30.2561C18.1054 30.4695 17.9491 30.677 17.7856 30.8787C17.2432 31.5476 16.6213 32.1521 15.9197 32.6919C15.2541 33.2039 14.3288 33.0833 13.8168 32.4175C13.3048 31.7517 13.4255 30.8262 14.0911 30.314C14.6167 29.9094 15.081 29.4561 15.484 28.9531C15.8153 28.54 16.1052 28.0935 16.3536 27.6138C16.3727 27.5772 16.3915 27.54 16.41 27.5029L16.0051 27.5029C15.1654 27.5029 14.5056 26.8428 14.5056 26.0029C14.5056 25.1628 15.1654 24.5029 16.0051 24.5029L18.2545 24.5029L18.2545 23.5029L16.0051 23.5029C15.1654 23.5029 14.5056 22.8428 14.5056 22.0029C14.5056 21.1629 15.1654 20.5029 16.0051 20.5029L16.2448 20.5029L15.904 19.4751C15.7935 19.1416 15.8023 18.8018 15.9083 18.5C15.1152 18.4514 14.5056 17.8103 14.5056 17.0029C14.5056 16.1629 15.1654 15.5029 16.0051 15.5029L17.9127 15.5029ZM18.7412 18.5029C18.7444 18.5122 18.7476 18.5215 18.7507 18.5308L19.1005 19.5859C19.204 19.898 19.2028 20.2158 19.1152 20.5029L19.8882 20.5029C19.8006 20.2158 19.7994 19.898 19.9029 19.5859L20.2527 18.5308C20.2558 18.5215 20.2589 18.5122 20.2622 18.5029L18.7412 18.5029Z" fill="var(--tiny-second-color)" fill-rule="evenodd"/>
</svg>