<svg viewBox="0 0 48 48" xmlns="http://www.w3.org/2000/svg" xmlns:xlink="http://www.w3.org/1999/xlink" width="48.000000" height="48.000000">
  <path id="合并" d="M36.1066 8.07848C32.6516 5.44838 28.4341 4 24 4C12.9549 4 4 12.9542 4 24C4 35.0444 12.9556 44 24 44C35.0458 44 44 35.0451 44 24C44 19.5672 42.5532 15.352 39.9238 11.8958C39.4222 11.2365 38.4811 11.1086 37.8218 11.6102C37.1625 12.1118 37.0346 13.0529 37.5362 13.7122C39.7717 16.6507 41 20.2292 41 24C41 33.3883 33.3889 41 24 41C14.6124 41 7 33.3876 7 24C7 14.6111 14.6117 7 24 7C27.7718 7 31.3523 8.22962 34.2894 10.4655C34.9486 10.9673 35.8897 10.8397 36.3915 10.1806C36.8933 9.52142 36.7657 8.58028 36.1066 8.07848ZM35.5 24C35.5 23.16 34.84 22.5 34 22.5L14 22.5C13.16 22.5 12.5 23.16 12.5 24C12.5 24.84 13.16 25.5 14 25.5L34 25.5C34.84 25.5 35.5 24.84 35.5 24Z" fill="var(--tiny-first-color)" fill-rule="evenodd"/>
  <path id="矢量 1821(边框)" d="M14 22.5L34 22.5C34.84 22.5 35.5 23.16 35.5 24C35.5 24.84 34.84 25.5 34 25.5L14 25.5C13.16 25.5 12.5 24.84 12.5 24C12.5 23.16 13.16 22.5 14 22.5Z" fill="var(--tiny-second-color)" fill-rule="evenodd"/>
</svg>