<svg viewBox="0 0 48 48" xmlns="http://www.w3.org/2000/svg" xmlns:xlink="http://www.w3.org/1999/xlink" width="48.000000" height="48.000000">
  <path id="减去顶层" d="M44 24C44 12.972 35.028 4 24 4C12.972 4 4 12.972 4 24C4 35.028 12.972 44 24 44C35.028 44 44 35.028 44 24ZM33.5 22L13.5 22C12.66 22 12 22.66 12 23.5C12 24.34 12.66 25 13.5 25L33.5 25C34.34 25 35 24.34 35 23.5C35 22.66 34.34 22 33.5 22Z" fill="var(--tiny-first-color)" fill-rule="evenodd"/>
  <path id="矢量 1821(边框)" d="M13.5 22L33.5 22C34.34 22 35 22.66 35 23.5C35 24.34 34.34 25 33.5 25L13.5 25C12.66 25 12 24.34 12 23.5C12 22.66 12.66 22 13.5 22Z" fill="var(--tiny-second-color)" fill-rule="evenodd"/>
</svg>