<svg viewBox="0 0 48 48" xmlns="http://www.w3.org/2000/svg" xmlns:xlink="http://www.w3.org/1999/xlink" width="48.000000" height="48.000000">
  <path id="减去顶层" d="M37 5C40.1954 5 42.8073 7.49785 42.9898 10.6475L43 11L43 37C43 40.1954 40.5022 42.8073 37.3525 42.9897L37 43L11 43C7.80464 43 5.19269 40.5022 5.01019 37.3525L5 37L5 11C5 7.80464 7.49785 5.19275 10.6475 5.01025L11 5L37 5ZM28.2222 13.0334C27.6435 12.4246 27.6672 11.4915 28.2761 10.9128C28.885 10.3341 29.8181 10.3579 30.3968 10.9668L34.2743 15.0469C34.3803 15.1575 34.4762 15.275 34.5621 15.3995C34.6887 15.583 34.7935 15.7815 34.8764 15.9951C34.9375 16.1524 34.9844 16.3125 35.0173 16.4754C35.0558 16.666 35.0751 16.8606 35.0751 17.059C35.0751 17.2574 35.0558 17.4519 35.0173 17.6425C34.9844 17.8055 34.9374 17.9655 34.8764 18.1228C34.8034 18.3108 34.7132 18.4875 34.6056 18.653C34.5079 18.8031 34.3961 18.944 34.27 19.0756L30.3977 23.1575C29.8196 23.7669 28.8865 23.7915 28.2771 23.2134C27.6677 22.6352 27.6431 21.7022 28.2212 21.0928L32.0479 17.059L28.2222 13.0334ZM19.6743 13.0334L15.8486 17.059L19.6752 21.0928C20.2533 21.7022 20.2288 22.6352 19.6193 23.2134C19.0099 23.7915 18.0769 23.7669 17.4988 23.1575L13.6265 19.0756C13.5004 18.944 13.3885 18.8031 13.2909 18.653C13.1833 18.4875 13.093 18.3108 13.0201 18.1228C12.959 17.9655 12.912 17.8054 12.8791 17.6425C12.8406 17.4519 12.8214 17.2574 12.8214 17.059C12.8214 16.8606 12.8406 16.666 12.8791 16.4754C12.912 16.3125 12.959 16.1524 13.0201 15.9951C13.103 15.7815 13.2077 15.583 13.3343 15.3995C13.4202 15.275 13.5162 15.1575 13.6222 15.0469L17.4997 10.9668C18.0783 10.3579 19.0114 10.3341 19.6203 10.9128C20.2292 11.4915 20.253 12.4246 19.6743 13.0334ZM27.1012 12.7916L23.6137 22.3541C23.3259 23.1432 22.4797 23.5371 21.6905 23.2493C20.9014 22.9615 20.5075 22.1153 20.7953 21.3262L24.2828 11.7637C24.5706 10.9745 25.4168 10.5806 26.2059 10.8684C26.9951 11.1562 27.389 12.0024 27.1012 12.7916ZM21.0002 35.8386L21.0002 29.2501C21.0002 28.6288 21.5038 28.1251 22.1252 28.1251L26.674 28.1251C27.2954 28.1251 27.799 28.6451 27.799 29.2664C27.799 29.8877 27.2954 30.3914 26.674 30.3914L23.2665 30.3914L23.2665 31.5243L26.674 31.5243C27.2954 31.5243 27.799 32.0442 27.799 32.6655C27.799 33.2869 27.2954 33.7905 26.674 33.7905L23.2665 33.7905L23.2665 35.8386C23.2665 36.4599 22.7465 36.9636 22.1252 36.9636C21.5038 36.9636 21.0002 36.4599 21.0002 35.8386ZM16.004 28.1252C18.2152 28.1252 20.0078 30.1399 20.0078 32.6252C20.0078 35.1104 18.2152 37.1251 16.004 37.1251C13.7927 37.1251 12.0001 35.1104 12.0001 32.6252C12.0001 30.1399 13.7927 28.1252 16.004 28.1252ZM30.0191 28.1865C33.7182 27.7857 35.8964 29.3569 35.8964 32.6504C35.8964 35.952 33.7065 37.501 30.0034 37.0479C29.9602 37.0426 29.9179 37.035 29.8765 37.0252C29.3091 36.9726 28.8751 36.4966 28.8751 35.9268L28.8751 29.32C28.8751 28.7782 29.2686 28.3166 29.8036 28.2309C29.8727 28.2096 29.9447 28.1946 30.0191 28.1865ZM33.5977 32.6504C33.5977 34.1322 32.9963 34.814 31.4107 34.837L31.4107 30.4177C32.9916 30.4684 33.5977 31.1659 33.5977 32.6504ZM16.0039 30.4947C15.167 30.4947 14.3697 31.3909 14.3697 32.6251C14.3697 33.8593 15.167 34.7554 16.0039 34.7554C16.8408 34.7554 17.6381 33.8593 17.6381 32.6251C17.6381 31.3909 16.8408 30.4947 16.0039 30.4947Z" fill="var(--tiny-first-color)" fill-rule="evenodd"/>
  <path id="合并" d="M28.276 10.913C27.6671 11.4916 27.6434 12.4247 28.222 13.0336L32.0477 17.0592L28.2211 21.0929C27.643 21.7023 27.6676 22.6354 28.277 23.2135C28.8864 23.7916 29.8195 23.767 30.3976 23.1576L34.2698 19.0757C34.396 18.9441 34.5078 18.8033 34.6054 18.6531C34.713 18.4876 34.8033 18.3109 34.8763 18.1229C34.9373 17.9657 34.9843 17.8056 35.0172 17.6427C35.0557 17.452 35.075 17.2575 35.075 17.0591C35.075 16.8607 35.0557 16.6662 35.0172 16.4756C34.9843 16.3126 34.9373 16.1525 34.8763 15.9953C34.7934 15.7817 34.6886 15.5831 34.562 15.3996C34.4761 15.2752 34.3802 15.1576 34.2742 15.047L30.3967 10.9669C29.818 10.3581 28.8849 10.3343 28.276 10.913ZM15.8485 17.0592L19.6742 13.0336C20.2528 12.4247 20.2291 11.4916 19.6202 10.913C19.0113 10.3343 18.0782 10.3581 17.4996 10.9669L13.6221 15.047C13.5161 15.1576 13.4201 15.2752 13.3342 15.3997C13.2076 15.5831 13.1029 15.7817 13.0199 15.9953C12.9589 16.1525 12.9119 16.3126 12.879 16.4756C12.8405 16.6662 12.8213 16.8607 12.8213 17.0591C12.8213 17.2575 12.8405 17.452 12.879 17.6426C12.9119 17.8056 12.9589 17.9657 13.0199 18.1229C13.0929 18.3109 13.1832 18.4877 13.2908 18.6531C13.3884 18.8033 13.5003 18.9441 13.6264 19.0757L17.4986 23.1576C18.0768 23.767 19.0098 23.7916 19.6192 23.2135C20.2286 22.6354 20.2532 21.7023 19.6751 21.0929L15.8485 17.0592ZM23.6136 22.3542L27.1011 12.7917C27.3889 12.0026 26.995 11.1564 26.2058 10.8686C25.4167 10.5808 24.5705 10.9747 24.2827 11.7638L20.7952 21.3263C20.5074 22.1155 20.9013 22.9617 21.6904 23.2495C22.4796 23.5373 23.3258 23.1434 23.6136 22.3542ZM21.0001 29.2502L21.0001 35.8388C21.0001 36.4601 21.5037 36.9638 22.125 36.9638C22.7464 36.9638 23.2663 36.4601 23.2663 35.8388L23.2663 33.7907L26.6739 33.7907C27.2952 33.7907 27.7989 33.287 27.7989 32.6657C27.7989 32.0444 27.2952 31.5244 26.6739 31.5244L23.2663 31.5244L23.2663 30.3915L26.6739 30.3915C27.2952 30.3915 27.7989 29.8878 27.7989 29.2665C27.7989 28.6452 27.2952 28.1252 26.6739 28.1252L22.125 28.1252C21.5037 28.1252 21.0001 28.6289 21.0001 29.2502ZM20.0077 32.6253C20.0077 30.14 18.2151 28.1253 16.0039 28.1253C13.7926 28.1253 12 30.14 12 32.6253C12 35.1106 13.7926 37.1253 16.0039 37.1253C18.2151 37.1253 20.0077 35.1106 20.0077 32.6253ZM35.8963 32.6505C35.8963 29.3571 33.7181 27.7858 30.019 28.1867C29.9446 28.1948 29.8725 28.2098 29.8035 28.231C29.2685 28.3168 28.875 28.7784 28.875 29.3202L28.875 35.9269C28.875 36.4968 29.309 36.9728 29.8764 37.0253C29.9178 37.0351 29.9601 37.0427 30.0032 37.048C33.7064 37.5012 35.8963 35.9521 35.8963 32.6505ZM31.4106 34.8372C32.9962 34.8141 33.5976 34.1323 33.5976 32.6505C33.5976 31.1661 32.9914 30.4685 31.4106 30.4179L31.4106 34.8372ZM14.3696 32.6252C14.3696 31.391 15.1669 30.4949 16.0038 30.4949C16.8407 30.4949 17.638 31.391 17.638 32.6252C17.638 33.8594 16.8407 34.7556 16.0038 34.7556C15.1669 34.7556 14.3696 33.8594 14.3696 32.6252Z" fill="var(--tiny-second-color)" fill-rule="evenodd"/>
</svg>