<svg viewBox="0 0 48 48" xmlns="http://www.w3.org/2000/svg" xmlns:xlink="http://www.w3.org/1999/xlink" width="48.000000" height="48.000000" fill="none">
  <path id="形状结合" d="M37 5C40.3137 5 43 7.68629 43 11C43 11.8284 42.3284 12.5 41.5 12.5C40.6716 12.5 40 11.8284 40 11C40 9.46149 38.8419 8.19356 37.3499 8.02026L37 8L11 8C9.46149 8 8.1935 9.15813 8.0202 10.6501L8 11L8 37C8 38.5385 9.15813 39.8064 10.6501 39.9797L11 40L37 40C38.5385 40 39.8065 38.8419 39.9798 37.3499L40 37L40 16C40 15.1716 40.6716 14.5 41.5 14.5C42.2364 14.5 42.8488 15.0307 42.9758 15.7305L43 16L43 37C43 40.1631 40.5524 42.7546 37.4478 42.9836L37 43L11 43C7.83692 43 5.24553 40.5523 5.01648 37.4478L5 37L5 11C5 7.83692 7.44761 5.24541 10.5522 5.01636L11 5L37 5Z" fill="var(--tiny-first-color, #191919)" fill-rule="evenodd"/>
  <path id="合并" d="M28.276 10.9125C27.6671 11.4911 27.6434 12.4242 28.2221 13.0331L32.0478 17.0587L28.2211 21.0924C27.643 21.7018 27.6676 22.6349 28.277 23.213C28.8864 23.7911 29.8195 23.7665 30.3976 23.1571L34.2699 19.0752C34.396 18.9436 34.5078 18.8028 34.6055 18.6526C34.7131 18.4872 34.8033 18.3104 34.8763 18.1224C34.9373 17.9652 34.9843 17.8051 35.0172 17.6422C35.0557 17.4515 35.075 17.257 35.075 17.0586C35.075 16.8602 35.0557 16.6657 35.0172 16.4751C34.9843 16.3121 34.9374 16.152 34.8763 15.9948C34.7934 15.7812 34.6886 15.5826 34.562 15.3991C34.4761 15.2747 34.3802 15.1571 34.2742 15.0465L30.3967 10.9665C29.818 10.3576 28.8849 10.3338 28.276 10.9125ZM15.8485 17.0587L19.6742 13.0331C20.2529 12.4242 20.2291 11.4911 19.6202 10.9125C19.0113 10.3338 18.0782 10.3576 17.4996 10.9665L13.6221 15.0465C13.5161 15.1571 13.4201 15.2747 13.3342 15.3992C13.2076 15.5826 13.1029 15.7812 13.02 15.9948C12.9589 16.152 12.9119 16.3121 12.879 16.4751C12.8405 16.6657 12.8213 16.8602 12.8213 17.0586C12.8213 17.257 12.8405 17.4515 12.879 17.6422C12.9119 17.8051 12.9589 17.9652 13.02 18.1224C13.0929 18.3104 13.1832 18.4872 13.2908 18.6526C13.3884 18.8028 13.5003 18.9436 13.6264 19.0752L17.4987 23.1571C18.0768 23.7665 19.0098 23.7911 19.6192 23.213C20.2287 22.6349 20.2532 21.7018 19.6751 21.0924L15.8485 17.0587ZM23.6136 22.3537L27.1011 12.7912C27.3889 12.0021 26.995 11.1559 26.2058 10.8681C25.4167 10.5803 24.5705 10.9742 24.2827 11.7633L20.7952 21.3258C20.5074 22.115 20.9013 22.9612 21.6905 23.249C22.4796 23.5368 23.3258 23.1429 23.6136 22.3537ZM21.0001 29.2497L21.0001 35.8383C21.0001 36.4596 21.5037 36.9633 22.125 36.9633C22.7464 36.9633 23.2663 36.4596 23.2663 35.8383L23.2663 33.7902L26.6739 33.7902C27.2952 33.7902 27.7989 33.2865 27.7989 32.6652C27.7989 32.0439 27.2952 31.5239 26.6739 31.5239L23.2663 31.5239L23.2663 30.391L26.6739 30.391C27.2952 30.391 27.7989 29.8874 27.7989 29.266C27.7989 28.6447 27.2952 28.1247 26.6739 28.1247L22.125 28.1247C21.5037 28.1247 21.0001 28.6284 21.0001 29.2497ZM20.0077 32.6248C20.0077 30.1395 18.2151 28.1248 16.0039 28.1248C13.7926 28.1248 12 30.1395 12 32.6248C12 35.1101 13.7926 37.1248 16.0039 37.1248C18.2151 37.1248 20.0077 35.1101 20.0077 32.6248ZM35.8963 32.65C35.8963 29.3566 33.7181 27.7854 30.019 28.1862C29.9446 28.1943 29.8725 28.2093 29.8035 28.2305C29.2685 28.3163 28.875 28.7779 28.875 29.3197L28.875 35.9264C28.875 36.4963 29.309 36.9723 29.8764 37.0248C29.9178 37.0346 29.9601 37.0422 30.0032 37.0475C33.7064 37.5007 35.8963 35.9517 35.8963 32.65ZM31.4106 34.8367C32.9962 34.8137 33.5976 34.1318 33.5976 32.65C33.5976 31.1656 32.9914 30.4681 31.4106 30.4174L31.4106 34.8367ZM14.3696 32.6247C14.3696 31.3905 15.1669 30.4944 16.0038 30.4944C16.8407 30.4944 17.638 31.3905 17.638 32.6247C17.638 33.859 16.8407 34.7551 16.0038 34.7551C15.1669 34.7551 14.3696 33.859 14.3696 32.6247Z" fill="var(--tiny-second-color, #aeaeAE)" fill-rule="evenodd"/>
</svg>
