<svg viewBox="0 0 48 48" xmlns="http://www.w3.org/2000/svg" xmlns:xlink="http://www.w3.org/1999/xlink" width="48.000000" height="48.000000" fill="none">
  <path id="形状结合" d="M24 4C28.4341 4 32.6516 5.44838 36.1066 8.07848C36.7657 8.58028 36.8933 9.52142 36.3915 10.1806C35.8897 10.8397 34.9486 10.9673 34.2894 10.4655C31.3523 8.22962 27.7718 7 24 7C14.6117 7 7 14.6111 7 24C7 33.3876 14.6124 41 24 41C33.3889 41 41 33.3883 41 24C41 20.2292 39.7717 16.6507 37.5362 13.7122C37.0346 13.0529 37.1625 12.1118 37.8218 11.6102C38.4811 11.1086 39.4222 11.2365 39.9238 11.8958C42.5532 15.352 44 19.5672 44 24C44 35.0451 35.0458 44 24 44C12.9556 44 4 35.0444 4 24C4 12.9542 12.9549 4 24 4ZM24 12.5C17.6487 12.5 12.5 17.6487 12.5 24C12.5 30.3513 17.6487 35.5 24 35.5C30.3513 35.5 35.5 30.3513 35.5 24C35.5 17.6487 30.3513 12.5 24 12.5ZM24 15.5C28.6944 15.5 32.5 19.3056 32.5 24C32.5 28.6944 28.6944 32.5 24 32.5C19.3056 32.5 15.5 28.6944 15.5 24C15.5 19.3056 19.3056 15.5 24 15.5Z" fill="var(--tiny-first-color, #191919)" fill-rule="nonzero"/>
  <path id="形状结合" d="M24 12.5C17.6487 12.5 12.5 17.6487 12.5 24C12.5 30.3513 17.6487 35.5 24 35.5C30.3513 35.5 35.5 30.3513 35.5 24C35.5 17.6487 30.3513 12.5 24 12.5ZM24 15.5C28.6944 15.5 32.5 19.3056 32.5 24C32.5 28.6944 28.6944 32.5 24 32.5C19.3056 32.5 15.5 28.6944 15.5 24C15.5 19.3056 19.3056 15.5 24 15.5Z" fill="var(--tiny-second-color, #aeaeAE)" fill-rule="nonzero"/>
</svg>
