<svg viewBox="0 0 48 48" xmlns="http://www.w3.org/2000/svg" xmlns:xlink="http://www.w3.org/1999/xlink" width="48.000000" height="48.000000">
  <path id="Fill-1" d="M24 4C35.026 4 44 12.972 44 24C44 35.026 35.026 44 24 44C12.972 44 4 35.026 4 24C4 12.972 12.972 4 24 4ZM24 12.5C17.6487 12.5 12.5 17.6487 12.5 24C12.5 30.3513 17.6487 35.5 24 35.5C30.3513 35.5 35.5 30.3513 35.5 24C35.5 17.6487 30.3513 12.5 24 12.5ZM24 15.5C28.6944 15.5 32.5 19.3056 32.5 24C32.5 28.6944 28.6944 32.5 24 32.5C19.3056 32.5 15.5 28.6944 15.5 24C15.5 19.3056 19.3056 15.5 24 15.5Z" fill="var(--tiny-first-color)" fill-rule="evenodd"/>
  <circle id="椭圆 410" cx="24" cy="24" r="8.5" fill="var(--tiny-second-color)"/>
</svg>