<svg viewBox="0 0 48 48" xmlns="http://www.w3.org/2000/svg" xmlns:xlink="http://www.w3.org/1999/xlink" width="48.000000" height="48.000000">
  <path id="Combined Shape" d="M44 33.3333C44 31.4924 42.5076 30 40.6667 30L33 30C33 32.6924 30.8174 34.875 28.125 34.875L21.2084 34.875C18.516 34.875 16.3334 32.6924 16.3334 30L7.33333 30C5.49238 30 4 31.4924 4 33.3333L4 39.6667C4 41.5076 5.49238 43 7.33333 43L40.6667 43C42.5076 43 44 41.5076 44 39.6667L44 33.3333Z" fill="var(--tiny-first-color, #191919)" fill-rule="evenodd"/>
  <path id="减去顶层" d="M33.6667 8.33333C33.6667 6.49238 32.1743 5 30.3333 5L10.3333 5C8.49238 5 7 6.49238 7 8.33333L7 27L18 27C18 29.2785 19.9028 31.1251 22.25 31.1251L26.9167 31.1251C29.2639 31.1251 31.1667 29.2785 31.1667 27L40.3333 27L40.3333 15.0003C40.3333 13.1594 38.8409 11.667 37 11.667L33.6667 11.667L33.6667 8.33333ZM27 12.334C27 11.4135 26.2538 10.6673 25.3333 10.6673L15.3333 10.6673C14.4129 10.6673 13.6667 11.4135 13.6667 12.334C13.6667 13.2545 14.4129 14.0007 15.3333 14.0007L25.3333 14.0007C26.2538 14.0007 27 13.2545 27 12.334ZM25.3333 19.0003C26.2538 19.0003 27 19.7465 27 20.667C27 21.5875 26.2538 22.3337 25.3333 22.3337L15.3333 22.3337C14.4129 22.3337 13.6667 21.5875 13.6667 20.667C13.6667 19.7465 14.4129 19.0003 15.3333 19.0003L25.3333 19.0003Z" fill="var(--tiny-second-color, #aeaeAE)" fill-rule="evenodd"/>
</svg>