<svg viewBox="0 0 48 48" xmlns="http://www.w3.org/2000/svg" xmlns:xlink="http://www.w3.org/1999/xlink" width="48.000000" height="48.000000" fill="none">
  <path id="形状结合" d="M36 6C39.3137 6 42 8.68629 42 12C42 12.8284 41.3284 13.5 40.5 13.5C39.6716 13.5 39 12.8284 39 12C39 10.4615 37.8419 9.19348 36.3499 9.02018L36 9L12 9C10.4615 9 9.19348 10.1581 9.02018 11.6501L9 12L9 36C9 37.5385 10.1581 38.8065 11.6501 38.9798L12 39L36 39C37.5385 39 38.8065 37.8419 38.9798 36.3499L39 36L39 17C39 16.1716 39.6716 15.5 40.5 15.5C41.2364 15.5 41.8488 16.0306 41.9758 16.7304L42 17L42 36C42 39.1631 39.5524 41.7545 36.4478 41.9835L36 42L12 42C8.83692 42 6.2455 39.5524 6.01646 36.4478L6 36L6 12C6 8.83692 8.44763 6.2455 11.5522 6.01646L12 6L36 6ZM21 25.5C21.8284 25.5 22.5 26.1716 22.5 27L22.5 34.5C22.5 35.3284 21.8284 36 21 36L13.5 36C12.6716 36 12 35.3284 12 34.5L12 27C12 26.1716 12.6716 25.5 13.5 25.5L21 25.5ZM34.5 25.5C35.3284 25.5 36 26.1716 36 27L36 34.5C36 35.3284 35.3284 36 34.5 36L27 36C26.1716 36 25.5 35.3284 25.5 34.5L25.5 27C25.5 26.1716 26.1716 25.5 27 25.5L34.5 25.5ZM19.5 28.5L15 28.5L15 33L19.5 33L19.5 28.5ZM33 28.5L28.5 28.5L28.5 33L33 33L33 28.5ZM21 12C21.8284 12 22.5 12.6716 22.5 13.5L22.5 21C22.5 21.8284 21.8284 22.5 21 22.5L13.5 22.5C12.6716 22.5 12 21.8284 12 21L12 13.5C12 12.6716 12.6716 12 13.5 12L21 12ZM34.5 12C35.3284 12 36 12.6716 36 13.5L36 21C36 21.8284 35.3284 22.5 34.5 22.5L27 22.5C26.1716 22.5 25.5 21.8284 25.5 21L25.5 13.5C25.5 12.6716 26.1716 12 27 12L34.5 12ZM19.5 15L15 15L15 19.5L19.5 19.5L19.5 15ZM33 15L28.5 15L28.5 19.5L33 19.5L33 15Z" fill="var(--tiny-first-color, #191919)" fill-rule="evenodd"/>
  <path id="形状结合" d="M21 25.5C21.8284 25.5 22.5 26.1716 22.5 27L22.5 34.5C22.5 35.3284 21.8284 36 21 36L13.5 36C12.6716 36 12 35.3284 12 34.5L12 27C12 26.1716 12.6716 25.5 13.5 25.5L21 25.5ZM34.5 25.5C35.3284 25.5 36 26.1716 36 27L36 34.5C36 35.3284 35.3284 36 34.5 36L27 36C26.1716 36 25.5 35.3284 25.5 34.5L25.5 27C25.5 26.1716 26.1716 25.5 27 25.5L34.5 25.5ZM19.5 28.5L15 28.5L15 33L19.5 33L19.5 28.5ZM33 28.5L28.5 28.5L28.5 33L33 33L33 28.5ZM21 12C21.8284 12 22.5 12.6716 22.5 13.5L22.5 21C22.5 21.8284 21.8284 22.5 21 22.5L13.5 22.5C12.6716 22.5 12 21.8284 12 21L12 13.5C12 12.6716 12.6716 12 13.5 12L21 12ZM34.5 12C35.3284 12 36 12.6716 36 13.5L36 21C36 21.8284 35.3284 22.5 34.5 22.5L27 22.5C26.1716 22.5 25.5 21.8284 25.5 21L25.5 13.5C25.5 12.6716 26.1716 12 27 12L34.5 12ZM19.5 15L15 15L15 19.5L19.5 19.5L19.5 15ZM33 15L28.5 15L28.5 19.5L33 19.5L33 15Z" fill="var(--tiny-second-color, #aeaeAE)" fill-rule="evenodd"/>
</svg>
