<svg viewBox="0 0 48 48" xmlns="http://www.w3.org/2000/svg" xmlns:xlink="http://www.w3.org/1999/xlink" width="48.000000" height="48.000000" fill="none">
  <path id="形状结合" d="M36 6C39.1954 6 41.8073 8.49784 41.9898 11.6475L42 12L42 36C42 39.1954 39.5022 41.8073 36.3525 41.9898L36 42L12 42C8.80464 42 6.19268 39.5022 6.01019 36.3525L6 36L6 12C6 8.80464 8.49784 6.19268 11.6475 6.01019L12 6L36 6ZM21 25.5L13.5 25.5L13.2965 25.5137C12.5643 25.613 12 26.2406 12 27L12 34.5L12.0137 34.7035C12.113 35.4357 12.7406 36 13.5 36L21 36L21.2035 35.9863C21.9357 35.887 22.5 35.2594 22.5 34.5L22.5 27L22.4863 26.7965C22.387 26.0643 21.7594 25.5 21 25.5ZM34.5 25.5L27 25.5L26.7965 25.5137C26.0643 25.613 25.5 26.2406 25.5 27L25.5 34.5L25.5137 34.7035C25.613 35.4357 26.2406 36 27 36L34.5 36L34.7035 35.9863C35.4357 35.887 36 35.2594 36 34.5L36 27L35.9863 26.7965C35.887 26.0643 35.2594 25.5 34.5 25.5ZM21 12L13.5 12L13.2965 12.0137C12.6309 12.104 12.104 12.6309 12.0137 13.2965L12 13.5L12 21L12.0137 21.2035C12.104 21.8691 12.6309 22.396 13.2965 22.4863L13.5 22.5L21 22.5L21.2035 22.4863C21.8691 22.396 22.396 21.8691 22.4863 21.2035L22.5 21L22.5 13.5L22.4863 13.2965C22.387 12.5643 21.7594 12 21 12Z" fill="var(--tiny-first-color, #191919)" fill-rule="evenodd"/>
  <path id="形状结合" d="M20.999 25.5L13.499 25.5L13.2955 25.5137C12.5633 25.613 11.999 26.2406 11.999 27L11.999 34.5L12.0127 34.7035C12.112 35.4357 12.7396 36 13.499 36L20.999 36L21.2026 35.9863C21.9347 35.887 22.499 35.2594 22.499 34.5L22.499 27L22.4853 26.7965C22.386 26.0643 21.7584 25.5 20.999 25.5ZM34.499 25.5L26.999 25.5L26.7955 25.5137C26.0633 25.613 25.499 26.2406 25.499 27L25.499 34.5L25.5127 34.7035C25.612 35.4357 26.2396 36 26.999 36L34.499 36L34.7026 35.9863C35.4347 35.887 35.999 35.2594 35.999 34.5L35.999 27L35.9853 26.7965C35.886 26.0643 35.2584 25.5 34.499 25.5ZM20.999 12L13.499 12L13.2955 12.0137C12.6299 12.104 12.103 12.6309 12.0127 13.2965L11.999 13.5L11.999 21L12.0127 21.2035C12.103 21.8691 12.6299 22.396 13.2955 22.4863L13.499 22.5L20.999 22.5L21.2026 22.4863C21.8682 22.396 22.395 21.8691 22.4853 21.2035L22.499 21L22.499 13.5L22.4853 13.2965C22.386 12.5643 21.7584 12 20.999 12Z" fill="var(--tiny-second-color, #aeaeAE)" fill-rule="evenodd"/>
  <path id="形状结合" d="M34.5 12C35.3284 12 36 12.6716 36 13.5L36 21C36 21.8284 35.3284 22.5 34.5 22.5L27 22.5C26.1716 22.5 25.5 21.8284 25.5 21L25.5 13.5C25.5 12.6716 26.1716 12 27 12L34.5 12ZM33 15L28.5 15L28.5 19.5L33 19.5L33 15Z" fill="var(--tiny-second-color, #aeaeAE)" fill-rule="evenodd"/>
</svg>
