<svg viewBox="0 0 48 48" xmlns="http://www.w3.org/2000/svg" xmlns:xlink="http://www.w3.org/1999/xlink" width="48.000000" height="48.000000" fill="none">
  <path id="矢量 244" d="M18 4.5C18.315 4.5 18.6231 4.53223 18.9243 4.5968C19.2126 4.65857 19.4946 4.74988 19.7703 4.87085C19.9987 4.97107 20.2159 5.0885 20.4218 5.22314C20.7025 5.40674 20.9623 5.62231 21.2011 5.87C21.3903 6.06628 21.5598 6.27576 21.7095 6.49866C21.8837 6.7583 22.0326 7.03809 22.1532 7.33362C22.2541 7.58105 22.333 7.83337 22.3899 8.09058C22.4633 8.42261 22.5 8.76282 22.5 9.11108L22.5 17.8889C22.5 18.2372 22.4633 18.5774 22.3899 18.9094C22.333 19.1665 22.2541 19.4189 22.1532 19.6664C22.0325 19.9623 21.8849 20.2402 21.7104 20.5001C21.5605 20.7234 21.3907 20.9333 21.2011 21.13C20.9623 21.3777 20.7025 21.5933 20.4218 21.7769C20.2159 21.9115 19.9987 22.0289 19.7703 22.1292C19.495 22.25 19.2133 22.3412 18.9253 22.403C18.6241 22.4675 18.315 22.5 18 22.5L9 22.5C8.68518 22.5 8.37726 22.4678 8.07626 22.4033C7.78796 22.3416 7.5054 22.2501 7.22974 22.1292C7.00128 22.0289 6.78409 21.9115 6.57819 21.7769C6.29773 21.5934 6.03751 21.3774 5.79892 21.13C5.60928 20.9333 5.43948 20.7233 5.28955 20.5C5.11511 20.2401 4.96753 19.9623 4.84683 19.6664C4.74594 19.4189 4.66705 19.1667 4.61017 18.9095C4.53677 18.5775 4.5 18.2372 4.5 17.8889L4.5 9.11108C4.5 8.76282 4.53671 8.42261 4.61017 8.09045C4.66705 7.83337 4.74594 7.58105 4.84683 7.33362C4.96753 7.03772 5.11511 6.75989 5.28955 6.5C5.43948 6.27661 5.60928 6.06665 5.79892 5.87C6.03769 5.62244 6.29742 5.40674 6.57809 5.22327C6.784 5.08862 7.00128 4.97107 7.22974 4.87085C7.5054 4.74988 7.78738 4.65857 8.07568 4.5968C8.37689 4.53223 8.685 4.5 9 4.5L18 4.5ZM18 7.5L9 7.5C8.82303 7.5 8.65689 7.52905 8.50159 7.58704C8.3028 7.66125 8.12173 7.78308 7.95844 7.95239C7.82413 8.09167 7.7193 8.24438 7.64401 8.41052C7.548 8.62231 7.5 8.85583 7.5 9.11108L7.5 17.8889C7.5 18.1442 7.548 18.3777 7.64401 18.5895C7.7193 18.7556 7.82413 18.9083 7.95844 19.0476C8.1217 19.2169 8.3027 19.3386 8.50146 19.413C8.65674 19.4709 8.82306 19.5 9 19.5L18 19.5C18.177 19.5 18.3431 19.4709 18.4984 19.413C18.6972 19.3387 18.8783 19.2169 19.0416 19.0476C19.1759 18.9083 19.2807 18.7556 19.356 18.5895C19.452 18.3777 19.5 18.1442 19.5 17.8889L19.5 9.11108C19.5 8.85583 19.452 8.62231 19.356 8.41052C19.2807 8.24438 19.1759 8.0918 19.0416 7.95239C18.8783 7.78308 18.6973 7.66138 18.4985 7.58704C18.3432 7.52905 18.177 7.5 18 7.5ZM18.8824 25.5909C18.5947 25.5303 18.3005 25.5 18 25.5L9 25.5C8.69946 25.5 8.4053 25.5303 8.11755 25.5909C7.80545 25.6567 7.50089 25.7581 7.2038 25.8951C7.0159 25.9819 6.83575 26.0807 6.66336 26.1915C6.33911 26.4 6.0423 26.6511 5.77295 26.9449C5.62125 27.1105 5.48254 27.2848 5.35681 27.4681C5.14771 27.7729 4.97449 28.1024 4.83719 28.4565C4.74893 28.6842 4.67801 28.9158 4.62442 29.1512C4.54147 29.5156 4.5 29.8895 4.5 30.2727L4.5 38.7273C4.5 39.1106 4.54147 39.4844 4.62442 39.8489C4.67804 40.0844 4.74896 40.3158 4.83719 40.5435C4.97452 40.8976 5.14774 41.2271 5.35687 41.532C5.48257 41.7152 5.62128 41.8895 5.77295 42.0551C6.0423 42.3489 6.33911 42.6 6.66336 42.8085C6.83575 42.9193 7.0159 43.0181 7.20383 43.1049C7.50089 43.2419 7.80545 43.3433 8.11752 43.4091C8.4053 43.4697 8.69946 43.5 9 43.5L18 43.5C18.3005 43.5 18.5947 43.4697 18.8824 43.4091C19.1945 43.3433 19.4991 43.2419 19.7962 43.1049C19.9841 43.0181 20.1642 42.9193 20.3366 42.8085C20.6609 42.6001 20.9577 42.3489 21.2271 42.0551C21.3788 41.8895 21.5175 41.7151 21.6432 41.5317C21.8523 41.2269 22.0255 40.8975 22.1628 40.5435C22.251 40.3158 22.322 40.0844 22.3756 39.8489C22.4585 39.4844 22.5 39.1106 22.5 38.7273L22.5 30.2727C22.5 29.8895 22.4585 29.5157 22.3756 29.1514C22.322 28.9158 22.2511 28.6842 22.1628 28.4565C22.0255 28.1024 21.8523 27.7729 21.6431 27.468C21.5174 27.2848 21.3787 27.1105 21.2271 26.9449C20.9577 26.6511 20.6609 26.4 20.3367 26.1915C20.1642 26.0807 19.9841 25.9819 19.7962 25.8951C19.4991 25.7581 19.1945 25.6567 18.8824 25.5909ZM9 28.5L18 28.5C18.1384 28.5 18.2704 28.52 18.3961 28.5599C18.6233 28.6321 18.8298 28.7695 19.0156 28.9722C19.1299 29.1147 19.2964 29.3623 19.3657 29.5411C19.4181 29.7224 19.5 30.0763 19.5 30.2727L19.5 38.7273C19.5 38.9237 19.4738 39.1124 19.4214 39.2937C19.3521 39.4725 19.2045 39.7983 19.0901 39.941C18.9044 40.1437 18.6234 40.3679 18.3961 40.4401C18.2704 40.48 18.1384 40.5 18 40.5L9 40.5C8.8616 40.5 8.72958 40.48 8.60388 40.4401C8.37668 40.3679 8.17017 40.2305 7.98441 40.0278C7.87003 39.8853 7.70361 39.6377 7.63431 39.4589C7.58194 39.2776 7.5 38.9237 7.5 38.7273L7.5 30.2727C7.5 30.0764 7.52618 29.8876 7.57852 29.7063C7.64783 29.5275 7.79547 29.2017 7.90982 29.0591C8.09558 28.8564 8.37668 28.6321 8.60388 28.5599C8.72958 28.52 8.86163 28.5 9 28.5ZM38.7273 25.5C39.0677 25.5 39.4005 25.5352 39.7257 25.6053C40.0217 25.6693 40.3113 25.7623 40.5946 25.8844C40.8517 25.9951 41.0953 26.1261 41.3257 26.2776C41.6078 26.463 41.8698 26.679 42.1118 26.9254C42.3268 27.1444 42.5179 27.3794 42.6852 27.6301C42.8585 27.8899 43.0061 28.1667 43.1281 28.4606C43.2395 28.7288 43.3258 29.0023 43.3871 29.2815C43.4624 29.6239 43.5 29.9745 43.5 30.3334L43.5 38.6666C43.5 39.0255 43.4624 39.3761 43.3872 39.7184C43.3258 39.9976 43.2395 40.2712 43.1281 40.5394C43.0061 40.8333 42.8585 41.1101 42.6852 41.3698C42.518 41.6206 42.3268 41.8556 42.1118 42.0746C41.8698 42.321 41.6077 42.537 41.3256 42.7225C41.0953 42.8739 40.8517 43.0049 40.5946 43.1156C40.3113 43.2377 40.0218 43.3307 39.726 43.3945C39.4007 43.4647 39.0677 43.5 38.7273 43.5L30.2727 43.5C29.9323 43.5 29.5995 43.4648 29.2742 43.3947C28.9783 43.3307 28.6887 43.2377 28.4054 43.1156C28.1484 43.0049 27.9047 42.8739 27.6744 42.7225C27.3923 42.5371 27.1302 42.321 26.8882 42.0746C26.6732 41.8556 26.482 41.6206 26.3148 41.3698C26.1415 41.1101 25.9939 40.8333 25.8719 40.5394C25.7605 40.2712 25.6742 39.9976 25.6128 39.7184C25.5376 39.3761 25.5 39.0255 25.5 38.6666L25.5 30.3334C25.5 29.9745 25.5376 29.6239 25.6128 29.2816C25.6742 29.0024 25.7605 28.7288 25.8719 28.4606C25.9939 28.1667 26.1415 27.8899 26.3148 27.6301C26.4821 27.3794 26.6732 27.1444 26.8882 26.9254C27.1302 26.679 27.3923 26.463 27.6744 26.2775C27.9047 26.1261 28.1483 25.9951 28.4054 25.8844C28.6887 25.7623 28.9783 25.6693 29.2743 25.6053C29.5995 25.5352 29.9323 25.5 30.2727 25.5L38.7273 25.5ZM38.7273 28.5L30.2727 28.5C30.0446 28.5 29.8318 28.5391 29.6346 28.6171C29.4132 28.7047 29.2114 28.8413 29.0289 29.0272C28.9496 29.108 28.8788 29.1946 28.8165 29.2869C28.7483 29.3881 28.6902 29.4961 28.6425 29.6111C28.6075 29.6954 28.5789 29.7814 28.5568 29.8689C28.519 30.0189 28.5 30.1737 28.5 30.3334L28.5 38.6666C28.5 38.8263 28.519 38.9811 28.5568 39.1311C28.5789 39.2186 28.6075 39.3046 28.6425 39.3889C28.6902 39.5039 28.7482 39.6119 28.8165 39.7131C28.8787 39.8053 28.9496 39.8921 29.0289 39.9728C29.2114 40.1587 29.4132 40.2953 29.6346 40.3829C29.8318 40.4609 30.0446 40.5 30.2727 40.5L38.7273 40.5C38.9554 40.5 39.1682 40.4609 39.3654 40.3829C39.5868 40.2953 39.7886 40.1587 39.9711 39.9728C40.0504 39.8921 40.1212 39.8055 40.1835 39.7131C40.2517 39.6119 40.3098 39.5039 40.3575 39.3889C40.3925 39.3046 40.4211 39.2188 40.4431 39.1312C40.481 38.9812 40.5 38.8263 40.5 38.6666L40.5 30.3334C40.5 30.1737 40.481 30.0189 40.4432 29.8689C40.4211 29.7814 40.3925 29.6954 40.3575 29.6111C40.3098 29.4961 40.2517 29.3881 40.1835 29.2869C40.1212 29.1946 40.0504 29.108 39.9711 29.0272C39.7886 28.8413 39.5868 28.7047 39.3654 28.6171C39.1682 28.5391 38.9554 28.5 38.7273 28.5Z" fill="var(--tiny-first-color, #191919)" fill-rule="evenodd"/>
  <path id="椭圆 407(边框)" d="M36.4472 4.71002C35.8136 4.57001 35.1645 4.5 34.5 4.5C33.8354 4.5 33.1863 4.57001 32.5527 4.71003C32.0231 4.82707 31.5043 4.99302 30.9963 5.20788C30.4856 5.42392 30.0026 5.68207 29.5474 5.98234C29.0428 6.31516 28.5723 6.69973 28.136 7.13604C27.6997 7.57235 27.3152 8.04279 26.9823 8.54736C26.6821 9.00257 26.4239 9.48556 26.2079 9.99633C25.993 10.5043 25.8271 11.0231 25.71 11.5527C25.57 12.1864 25.5 12.8354 25.5 13.5C25.5 14.1646 25.57 14.8137 25.71 15.4473C25.8271 15.9769 25.993 16.4957 26.2079 17.0037C26.4239 17.5144 26.6821 17.9974 26.9823 18.4526C27.3152 18.9572 27.6997 19.4276 28.136 19.864C28.5724 20.3003 29.0428 20.6848 29.5474 21.0177C30.0026 21.3179 30.4856 21.5761 30.9963 21.7921C31.5043 22.007 32.0231 22.1729 32.5527 22.29C33.1864 22.43 33.8354 22.5 34.5 22.5C35.1645 22.5 35.8136 22.43 36.4472 22.29C36.9769 22.1729 37.4957 22.007 38.0037 21.7921C38.5144 21.5761 38.9974 21.3179 39.4526 21.0177C39.9572 20.6848 40.4276 20.3003 40.864 19.864C41.3003 19.4276 41.6848 18.9572 42.0177 18.4526C42.3179 17.9974 42.5761 17.5144 42.7921 17.0037C43.007 16.4957 43.1729 15.9769 43.29 15.4473C43.43 14.8136 43.5 14.1646 43.5 13.5C43.5 12.8354 43.43 12.1864 43.29 11.5527C43.1729 11.0231 43.007 10.5043 42.7921 9.99633C42.5761 9.48557 42.3179 9.00258 42.0177 8.54738C41.6848 8.0428 41.3003 7.57235 40.864 7.13604C40.4277 6.69973 39.9572 6.31517 39.4527 5.98234C38.9974 5.68207 38.5144 5.42392 38.0037 5.20788C37.4957 4.99301 36.9768 4.82706 36.4472 4.71002ZM33.1493 7.65142C33.5879 7.55047 34.0381 7.5 34.5 7.5C34.9619 7.5 35.4121 7.55047 35.8507 7.65142C36.1856 7.72849 36.5137 7.83498 36.835 7.97089C37.1662 8.11096 37.4799 8.27771 37.7763 8.47113C38.1221 8.69687 38.4442 8.95895 38.7426 9.25736C39.041 9.55577 39.3031 9.87789 39.5289 10.2237C39.7223 10.5201 39.889 10.8338 40.0291 11.165C40.165 11.4863 40.2715 11.8144 40.3486 12.1493C40.4495 12.5879 40.5 13.0382 40.5 13.5C40.5 13.9618 40.4495 14.4121 40.3486 14.8507C40.2715 15.1855 40.165 15.5137 40.0291 15.835C39.889 16.1662 39.7223 16.4799 39.5289 16.7762C39.3031 17.1221 39.0411 17.4442 38.7426 17.7426C38.4442 18.0411 38.1221 18.3031 37.7762 18.5289C37.4799 18.7223 37.1662 18.889 36.835 19.0291C36.5137 19.165 36.1856 19.2715 35.8507 19.3486C35.4121 19.4495 34.9618 19.5 34.5 19.5C34.0382 19.5 33.5879 19.4495 33.1493 19.3486C32.8144 19.2715 32.4863 19.165 32.165 19.0291C31.8338 18.889 31.5201 18.7223 31.2237 18.5289C30.8779 18.3031 30.5558 18.041 30.2574 17.7426C29.9589 17.4442 29.6969 17.1221 29.4711 16.7762C29.2777 16.4799 29.111 16.1662 28.9709 15.835C28.835 15.5137 28.7285 15.1856 28.6514 14.8507C28.5505 14.4121 28.5 13.9619 28.5 13.5C28.5 13.0382 28.5505 12.5879 28.6514 12.1493C28.7285 11.8144 28.835 11.4863 28.9709 11.165C29.111 10.8338 29.2777 10.5201 29.4712 10.2237C29.6969 9.87788 29.959 9.55576 30.2574 9.25736C30.5558 8.95895 30.8779 8.69688 31.2237 8.47114C31.5201 8.27772 31.8338 8.11097 32.165 7.97089C32.4863 7.83498 32.8144 7.72849 33.1493 7.65142Z" fill="var(--tiny-second-color, #aeaeAE)" fill-rule="evenodd"/>
</svg>
