<svg viewBox="0 0 48 48" xmlns="http://www.w3.org/2000/svg" xmlns:xlink="http://www.w3.org/1999/xlink" width="48.000000" height="48.000000">
  <path id="路径" d="M41.9766 10.1492L41.9901 10.501L41.9901 32.5C41.9901 33.3284 41.3185 34 40.4901 34C39.737 34 39.1135 33.4433 39.0064 32.72L38.9901 32.5L38.9903 11.1211L8.56006 41.56C7.97427 42.1458 7.02585 42.1458 6.44006 41.56C5.90309 41.023 5.85258 40.1679 6.30006 39.58L36.8704 8.99836L15.5001 9C14.6716 9 14.0001 8.32843 14.0001 7.5C14.0001 6.74688 14.5567 6.1234 15.2801 6.01626L15.5001 6L37.4892 6C38.6054 6 39.6268 6.40632 40.4133 7.07913L40.6654 7.31326C41.4065 8.05054 41.8911 9.04391 41.9766 10.1492Z" fill="var(--tiny-first-color)" fill-rule="evenodd"/>
</svg>