<svg viewBox="0 0 48 48" xmlns="http://www.w3.org/2000/svg" xmlns:xlink="http://www.w3.org/1999/xlink" width="48.000000" height="48.000000">
  <path id="路径" d="M40.5323 7.46376C40.6619 7.59335 40.77 7.73631 40.8567 7.88821C41.5631 8.75555 41.9973 9.8462 41.9961 11.0007L41.9961 32.0414C41.9961 33.1473 41.1022 34.0411 39.9963 34.0411C39.4448 34.0411 38.9442 33.8176 38.5821 33.4556C38.2201 33.0936 37.9966 32.5929 37.9966 32.0414L37.9977 12.8261L9.42003 41.42C8.63797 42.2021 7.36068 42.2007 6.58003 41.42C5.79939 40.6394 5.79797 39.3821 6.58003 38.6L35.1679 9.99909L15.9547 9.99945C14.8488 9.99945 13.955 9.10567 13.955 7.99975C13.955 6.89383 14.8488 6 15.9547 6L36.9954 6C38.1499 5.99883 39.2405 6.43296 40.1069 7.14197C40.2598 7.22605 40.4027 7.33417 40.5323 7.46376Z" fill="var(--tiny-first-color)" fill-rule="evenodd"/>
</svg>