<svg viewBox="0 0 48 48" xmlns="http://www.w3.org/2000/svg" xmlns:xlink="http://www.w3.org/1999/xlink" width="48.000000" height="48.000000">
  <path id="矢量 12" d="M17.8087 16.9312L28.6418 7.16225C29.5063 6.38264 30 5.27637 30 4.11548C30 1.83963 28.1416 0 25.8556 0L4.14444 0C2.97813 0 1.86511 0.488107 1.07933 1.34546C-0.464879 3.03045 -0.3366 5.64017 1.36461 7.168L12.2427 16.9369C13.8235 18.3566 16.2309 18.3541 17.8087 16.9312ZM3.08271 5.25481L13.9608 15.0238C14.5628 15.5644 15.4858 15.5634 16.0867 15.0216L26.9197 5.25262C27.2444 4.95975 27.4286 4.54719 27.4286 4.11548C27.4286 3.26566 26.7273 2.57143 25.8556 2.57143L4.14446 2.57143C3.69787 2.57143 3.27301 2.75778 2.97507 3.08287C2.39764 3.71286 2.44527 4.68237 3.08271 5.25481Z" fill="var(--tiny-first-color)" fill-rule="evenodd" transform="matrix(0,1,-1,0,22.0005,9)"/>
  <path id="矢量 12" d="M17.8087 16.9312L28.6418 7.16225C29.5063 6.38264 30 5.27637 30 4.11548C30 1.83963 28.1416 0 25.8556 0L4.14444 0C2.97813 0 1.86511 0.488107 1.07933 1.34546C-0.464879 3.03045 -0.3366 5.64017 1.36461 7.168L12.2427 16.9369C13.8235 18.3566 16.2309 18.3541 17.8087 16.9312ZM3.08271 5.25481L13.9608 15.0238C14.5628 15.5644 15.4858 15.5634 16.0867 15.0216L26.9197 5.25262C27.2444 4.95975 27.4286 4.54719 27.4286 4.11548C27.4286 3.26566 26.7273 2.57143 25.8556 2.57143L4.14446 2.57143C3.69787 2.57143 3.27301 2.75778 2.97507 3.08287C2.39764 3.71286 2.44527 4.68237 3.08271 5.25481Z" fill="var(--tiny-second-color)" fill-rule="evenodd" transform="matrix(0,1,-1,0,44.0005,9)"/>
</svg>