<svg viewBox="0 0 48 48" xmlns="http://www.w3.org/2000/svg" xmlns:xlink="http://www.w3.org/1999/xlink" width="48.000000" height="48.000000">
  <path id="减去顶层" d="M14 4L34 4C37.3137 4 40 6.68629 40 10L40 21.999C37.161 20.7935 33.7525 21.3481 31.4376 23.663L22.5626 32.538C19.5183 35.5823 19.5183 40.5181 22.5626 43.5625C22.7162 43.7161 22.8746 43.8619 23.0374 44L14 44C10.6863 44 8 41.3137 8 38L8 10C8 6.68629 10.6863 4 14 4ZM31.5 13C31.5 12.1716 30.8284 11.5 30 11.5L16 11.5L15.7965 11.5137C15.0643 11.613 14.5 12.2406 14.5 13C14.5 13.8284 15.1716 14.5 16 14.5L30 14.5L30.2035 14.4863C30.9357 14.387 31.5 13.7594 31.5 13ZM26.5 21C26.5 20.1716 25.8284 19.5 25 19.5L16 19.5L15.7965 19.5137C15.0643 19.613 14.5 20.2406 14.5 21C14.5 21.8284 15.1716 22.5 16 22.5L25 22.5L25.2035 22.4863C25.9357 22.387 26.5 21.7594 26.5 21Z" fill="var(--tiny-first-color)" fill-rule="evenodd"/>
  <path id="合并" d="M0 8.75L0 6C0 5.56072 0.0459294 5.13151 0.137788 4.71237L0.13779 4.71236L0.137793 4.71234C0.215971 4.35563 0.327415 4.0062 0.472126 3.66407C0.616943 3.32168 0.790119 2.99804 0.991656 2.69315L0.991659 2.69315C1.21276 2.35866 1.46799 2.04673 1.75736 1.75736C2.04673 1.46799 2.35866 1.21276 2.69315 0.991653L2.69316 0.99165C2.99805 0.790116 3.32169 0.616942 3.66407 0.472126C4.00621 0.327414 4.35564 0.215969 4.71236 0.13779C5.13151 0.0459298 5.56072 0 6 0C6.43928 0 6.86849 0.0459293 7.28763 0.137788C7.64436 0.215966 7.99379 0.327413 8.33593 0.472127C8.67829 0.616933 9.00191 0.790094 9.30678 0.991611L9.30683 0.991642C9.64133 1.21275 9.95327 1.46799 10.2426 1.75736C10.532 2.04674 10.7873 2.35869 11.0084 2.6932C11.2099 2.99808 11.3831 3.3217 11.5279 3.66407C11.6726 4.0062 11.784 4.35562 11.8622 4.71233C11.9541 5.13149 12 5.56071 12 6L12 8.75C12 9.59 11.34 10.25 10.5 10.25C9.66 10.25 9 9.59 9 8.75L9 6C9 5.76342 8.97359 5.53307 8.92077 5.30894C8.8826 5.14695 8.83063 4.98821 8.76486 4.83273C8.69602 4.66996 8.61425 4.51558 8.51956 4.36958L8.51954 4.36956C8.40554 4.19378 8.27279 4.03016 8.12132 3.87868C7.96985 3.72721 7.80622 3.59447 7.63045 3.48046C7.48444 3.38576 7.33005 3.30399 7.16727 3.23514C7.01179 3.16937 6.85304 3.1174 6.69105 3.07923L6.69104 3.07922C6.46691 3.02641 6.23657 3 6 3C5.76343 3 5.53308 3.02641 5.30895 3.07923L5.30894 3.07923C5.14695 3.1174 4.98821 3.16937 4.83273 3.23514C4.66995 3.30399 4.51556 3.38576 4.36955 3.48046L4.36953 3.48047C4.19376 3.59448 4.03015 3.72721 3.87868 3.87868C3.72721 4.03015 3.59448 4.19376 3.48048 4.36953L3.48047 4.36954C3.38577 4.51555 3.30399 4.66995 3.23514 4.83273C3.16937 4.98821 3.1174 5.14695 3.07923 5.30894C3.02641 5.53307 3 5.76342 3 6L3 8.75C3 9.59 2.34 10.25 1.5 10.25C0.66 10.25 0 9.59 0 8.75ZM7.39338 15.3933L7.39338 8.39331C7.39338 7.55331 6.73338 6.89331 5.89338 6.89331C5.05338 6.89331 4.39338 7.55331 4.39338 8.39331L4.39338 15.3933C4.39338 16.2333 5.05338 16.8933 5.89338 16.8933C6.73338 16.8933 7.39338 16.2333 7.39338 15.3933ZM3.8147e-06 15.1433L3.8147e-06 17.8933C3.8147e-06 18.3326 0.0459318 18.7618 0.137788 19.1809C0.215966 19.5377 0.327413 19.8871 0.472129 20.2292C0.616942 20.5716 0.790112 20.8952 0.991641 21.2001C1.21275 21.5346 1.46799 21.8466 1.75736 22.136C2.04673 22.4253 2.35867 22.6806 2.69316 22.9017C2.99805 23.1032 3.32169 23.2764 3.66407 23.4212C4.00621 23.5659 4.35564 23.6773 4.71236 23.7555C5.13151 23.8474 5.56072 23.8933 6 23.8933C6.43928 23.8933 6.86849 23.8474 7.28764 23.7555C7.64436 23.6773 7.99379 23.5659 8.33594 23.4212C8.67831 23.2764 9.00195 23.1032 9.30683 22.9017C9.64133 22.6806 9.95327 22.4253 10.2426 22.136C10.532 21.8466 10.7873 21.5346 11.0084 21.2001C11.2099 20.8952 11.3831 20.5716 11.5279 20.2292C11.6726 19.8871 11.784 19.5377 11.8622 19.181C11.9541 18.7618 12 18.3326 12 17.8933L12 15.1433C12 14.3033 11.34 13.6433 10.5 13.6433C9.66 13.6433 9 14.3033 9 15.1433L9 17.8933C9 18.1299 8.9736 18.3602 8.92078 18.5844C8.8826 18.7464 8.83063 18.9051 8.76486 19.0606C8.69602 19.2234 8.61424 19.3778 8.51954 19.5238C8.40553 19.6995 8.2728 19.8632 8.12132 20.0146C7.96985 20.1661 7.80623 20.2988 7.63047 20.4128C7.48445 20.5075 7.33006 20.5893 7.16728 20.6582C7.01179 20.7239 6.85304 20.7759 6.69105 20.8141C6.46693 20.8669 6.23658 20.8933 6 20.8933C5.76342 20.8933 5.53307 20.8669 5.30893 20.8141C5.14695 20.7759 4.98821 20.7239 4.83273 20.6582C4.66994 20.5893 4.51554 20.5075 4.36952 20.4128C4.19376 20.2988 4.03015 20.1661 3.87868 20.0146C3.72721 19.8632 3.59448 19.6995 3.48047 19.5238C3.38577 19.3778 3.30399 19.2234 3.23514 19.0606C3.16938 18.9051 3.1174 18.7464 3.07923 18.5844C3.02641 18.3602 3 18.1299 3 17.8933L3 15.1433C3 14.3033 2.34 13.6433 1.5 13.6433C0.660004 13.6433 3.8147e-06 14.3033 3.8147e-06 15.1433Z" fill="var(--tiny-second-color)" fill-rule="evenodd" transform="matrix(0.707107,0.707107,-0.707107,0.707107,37,21)"/>
</svg>