<svg viewBox="0 0 48 48" xmlns="http://www.w3.org/2000/svg" xmlns:xlink="http://www.w3.org/1999/xlink" width="48.000000" height="48.000000">
  <path id="形状结合" d="M37.5 21.4998L37.5 37.4998C37.5 40.8078 34.808 43.4998 31.5 43.4998L10.5 43.4998C7.192 43.4998 4.5 40.8078 4.5 37.4998L4.5 21.4998L37.5 21.4998ZM37.5535 4.5C40.738 4.5 43.3414 6.98973 43.5233 10.1287L43.5335 10.48L43.5335 28.342C43.5335 29.7728 43.0278 31.1311 42.1226 32.2009C41.5875 32.8333 40.641 32.9122 40.0086 32.3771C39.3762 31.842 39.2973 30.8955 39.8324 30.2631C40.2185 29.8068 40.4578 29.247 40.5183 28.6458L40.5335 28.342L40.5335 10.48C40.5335 8.93123 39.3514 7.65807 37.8405 7.51364L37.5535 7.5L17.4295 7.5C15.8807 7.5 14.6076 8.68205 14.4631 10.193L14.4495 10.48L31.5 10.4998C34.808 10.4998 37.5 13.1918 37.5 16.4998L37.5 18.4998L4.5 18.4998L4.5 16.4998C4.5 13.1918 7.192 10.4998 10.5 10.4998L11.448 10.498C11.448 7.31352 13.9392 4.69205 17.0782 4.51015L17.4295 4.5L37.5535 4.5ZM11.5 12.9999C10.6716 12.9999 10 13.6715 10 14.4999C10 15.3283 10.6716 15.9999 11.5 15.9999C12.3284 15.9999 13 15.3283 13 14.4999C13 14.0617 12.8121 13.6674 12.5125 13.3932C12.2943 13.3306 12.0993 13.2173 11.937 13.0687C11.8008 13.0228 11.6531 12.9999 11.5 12.9999ZM15.7 12.9999C14.8716 12.9999 14.2 13.6715 14.2 14.4999C14.2 15.3283 14.8716 15.9999 15.7 15.9999C16.5284 15.9999 17.2 15.3283 17.2 14.4999C17.2 13.6715 16.5284 12.9999 15.7 12.9999ZM19.9 12.9999C19.0716 12.9999 18.4 13.6715 18.4 14.4999C18.4 15.3283 19.0716 15.9999 19.9 15.9999C20.7284 15.9999 21.4 15.3283 21.4 14.4999C21.4 13.6715 20.7284 12.9999 19.9 12.9999Z" fill="var(--tiny-first-color)" fill-rule="evenodd"/>
  <path id="矢量 1713" d="M37.5535 4.5C40.738 4.5 43.3416 6.98975 43.5234 10.1287L43.5334 10.48L43.5334 28.342C43.5334 29.7728 43.0278 31.1311 42.1226 32.2009C41.5874 32.8333 40.6411 32.9122 40.0085 32.3771C39.3762 31.842 39.2974 30.8955 39.8325 30.2631C40.2185 29.8068 40.4578 29.247 40.5183 28.6458L40.5334 28.342L40.5334 10.48C40.5334 8.93121 39.3516 7.65808 37.8406 7.51364L37.5535 7.5L17.4294 7.5C15.8809 7.5 14.6077 8.68207 14.4631 10.1931L14.4485 10.46L11.4495 10.48C11.4495 7.2955 13.9392 4.69205 17.0781 4.51016L17.4294 4.5L37.5535 4.5Z" fill="var(--tiny-second-color)" fill-rule="evenodd"/>
</svg>