<svg viewBox="0 0 48 48" xmlns="http://www.w3.org/2000/svg" xmlns:xlink="http://www.w3.org/1999/xlink" width="48.000000" height="48.000000" fill="none">
  <path id="形状结合" d="M35.9994 6.90869C39.1955 6.90869 41.8068 9.40586 41.9892 12.5561L41.9994 12.9087L42 16.5887C42 17.3481 41.4357 17.9894 40.7035 18.0887L12.5225 18.0887C11.694 18.0887 11.0225 17.4171 11.0225 16.5887C11.0225 15.8293 11.5868 15.208 12.3189 15.1087L12.5225 15.0887L38.998 15.0867L38.9994 12.9087C38.9994 11.3486 37.8103 10.0677 36.2884 9.92242L35.9994 9.90869L12 9.90869C10.4399 9.90869 9.15902 11.0978 9.01373 12.6197L9 12.9087L9 35.0911C9 36.6512 10.1891 37.9321 11.711 38.0774L12 38.0911L35.9994 38.0911C37.5595 38.0911 38.8404 36.902 38.9857 35.3802L38.9994 35.0911L38.9994 21.5887C38.9994 20.7603 39.671 20.0887 40.4994 20.0887C41.2588 20.0887 41.8864 20.6565 41.9857 21.3887L41.9994 35.0911C41.9994 38.2872 39.5022 40.8985 36.352 41.081L35.9994 41.0911L12 41.0911C8.80395 41.0911 6.19263 38.594 6.01018 35.4438L6 35.0911L6 12.9087C6 9.71264 8.49717 7.10132 11.6474 6.91887L12 6.90869L35.9994 6.90869Z" fill="var(--tiny-first-color, #191919)" fill-rule="evenodd"/>
  <path id="矢量 1746" d="M27.5 22L12.5 22C11.66 22 11 22.6599 11 23.5C11 24.3398 11.66 25 12.5 25L27.5 25C28.34 25 29 24.3398 29 23.5C29 22.6599 28.34 22 27.5 22ZM21.5 29.3999L12.5 29.3999C11.66 29.3999 11 30.0598 11 30.8999C11 31.74 11.66 32.3999 12.5 32.3999L21.5 32.3999C22.34 32.3999 23 31.74 23 30.8999C23 30.0598 22.34 29.3999 21.5 29.3999Z" fill="var(--tiny-second-color, #aeaeAE)" fill-rule="evenodd"/>
</svg>
