<svg viewBox="0 0 48 48" xmlns="http://www.w3.org/2000/svg" xmlns:xlink="http://www.w3.org/1999/xlink" width="48.000000" height="48.000000" fill="none">
  <path id="形状结合" d="M37.5536 4.5C40.738 4.5 43.3415 6.98973 43.5234 10.1287L43.5336 10.48L43.5336 28.342C43.5336 29.7728 43.0278 31.1311 42.1226 32.2009C41.5875 32.8333 40.641 32.9122 40.0086 32.3771C39.3762 31.842 39.2974 30.8955 39.8325 30.2631C40.2186 29.8068 40.4579 29.247 40.5184 28.6458L40.5336 28.342L40.5336 10.48C40.5336 8.93123 39.3515 7.65807 37.8405 7.51364L37.5536 7.5L19.4296 7.5C17.8808 7.5 16.6076 8.68205 16.4632 10.193L16.4486 10.46L31.5226 10.4618C34.7074 10.4618 37.3105 12.9519 37.4924 16.0923L37.5026 16.4438L37.5026 37.5198C37.5026 40.7043 35.0128 43.3077 31.8739 43.4896L31.5226 43.4998L10.4466 43.4998C7.26207 43.4998 4.65861 41.0101 4.47671 37.8711L4.46655 37.5198L4.46655 16.4438C4.46655 13.3955 6.75626 10.8463 9.76163 10.5016C10.5847 10.4072 11.3284 10.9978 11.4228 11.8209C11.5172 12.6439 10.9265 13.3876 10.1035 13.482C8.70172 13.6428 7.61065 14.77 7.47974 16.1621L7.46655 16.4438L7.46655 19.998L34.5026 19.998L34.5026 16.4438C34.5026 14.8933 33.3207 13.6199 31.8095 13.4754L31.5226 13.4618L14.9486 13.4618C14.7925 13.4618 14.642 13.438 14.5005 13.3937C14.3544 13.3478 14.2185 13.2806 14.0958 13.1955C13.7048 12.9254 13.4486 12.4735 13.4486 11.9618L13.4496 10.48C13.4496 7.29552 15.9393 4.69205 19.0782 4.51015L19.4296 4.5L37.5536 4.5ZM34.5026 22.998L7.46655 22.998L7.46655 37.5198C7.46655 39.0686 8.64861 40.3417 10.1596 40.4862L10.4466 40.4998L31.5226 40.4998C33.0713 40.4998 34.3445 39.3177 34.4889 37.8068L34.5026 37.5198L34.5026 22.998ZM11.5001 15.2999C12.3285 15.2999 13.0001 15.9715 13.0001 16.7999C13.0001 17.6283 12.3285 18.2999 11.5001 18.2999C10.6716 18.2999 10.0001 17.6283 10.0001 16.7999C10.0001 15.9715 10.6716 15.2999 11.5001 15.2999ZM15.7001 15.2999C16.5285 15.2999 17.2001 15.9715 17.2001 16.7999C17.2001 17.6283 16.5285 18.2999 15.7001 18.2999C14.8716 18.2999 14.2001 17.6283 14.2001 16.7999C14.2001 15.9715 14.8716 15.2999 15.7001 15.2999ZM19.9001 15.2999C20.7285 15.2999 21.4001 15.9715 21.4001 16.7999C21.4001 17.6283 20.7285 18.2999 19.9001 18.2999C19.0716 18.2999 18.4001 17.6283 18.4001 16.7999C18.4001 15.9715 19.0716 15.2999 19.9001 15.2999Z" fill="var(--tiny-first-color)" fill-rule="evenodd"/>
  <path id="矢量 1713" d="M37.5535 4.5C40.738 4.5 43.3416 6.98975 43.5234 10.1287L43.5334 10.48L43.5334 28.342C43.5334 29.7728 43.0278 31.1311 42.1226 32.2009C41.5874 32.8333 40.6411 32.9122 40.0085 32.3771C39.3762 31.842 39.2974 30.8955 39.8325 30.2631C40.2185 29.8068 40.4578 29.247 40.5183 28.6458L40.5334 28.342L40.5334 10.48C40.5334 8.93121 39.3516 7.65808 37.8406 7.51364L37.5535 7.5L19.4294 7.5C17.8809 7.5 16.6077 8.68207 16.4631 10.1931L16.4485 10.46L13.4495 10.48C13.4495 7.2955 15.9392 4.69205 19.0781 4.51016L19.4294 4.5L37.5535 4.5Z" fill="var(--tiny-second-color)" fill-rule="evenodd"/>
</svg>