<svg viewBox="0 0 48 48" xmlns="http://www.w3.org/2000/svg" xmlns:xlink="http://www.w3.org/1999/xlink" width="48.000000" height="48.000000">
  <path id="形状结合" d="M26.5 27C28.4675 27 30.1401 28.2627 30.7516 30.0219L34.5 30C35.3284 30 36 30.6716 36 31.5C36 32.3284 35.3284 33 34.5 33L30.7438 33.0005L30.6464 33.2516C29.9632 34.8667 28.364 36 26.5 36C24.636 36 23.0368 34.8667 22.3536 33.2516L22.2562 33.0005L1.5 33C0.671573 33 0 32.3284 0 31.5C0 30.6716 0.671573 30 1.5 30L22.2555 30.0015C22.867 28.2423 24.5325 27 26.5 27ZM26.5 30C25.6716 30 25 30.6716 25 31.5C25 32.3284 25.6716 33 26.5 33C27.3284 33 28 32.3284 28 31.5C28 30.6716 27.3284 30 26.5 30ZM10.5 13.5C12.4675 13.5 14.1401 14.7627 14.7516 16.5219L34.5 16.5C35.3284 16.5 36 17.1716 36 18C36 18.8284 35.3284 19.5 34.5 19.5L14.7438 19.5005L14.6464 19.7516C13.9632 21.3667 12.364 22.5 10.5 22.5C8.63604 22.5 7.03677 21.3667 6.35363 19.7516L6.25624 19.5005L1.5 19.5C0.671573 19.5 0 18.8284 0 18C0 17.1716 0.671573 16.5 1.5 16.5L6.25552 16.5015C6.86704 14.7423 8.53249 13.5 10.5 13.5ZM10.5 16.5C9.67157 16.5 9 17.1716 9 18C9 18.8284 9.67157 19.5 10.5 19.5C11.3284 19.5 12 18.8284 12 18C12 17.1716 11.3284 16.5 10.5 16.5ZM24.5 0C26.4675 0 28.1401 1.2627 28.7516 3.02193L34.5 3C35.3284 3 36 3.67157 36 4.5C36 5.32843 35.3284 6 34.5 6L28.7438 6.00051L28.6464 6.2516C27.9632 7.86672 26.364 9 24.5 9C22.636 9 21.0368 7.86672 20.3536 6.2516L20.2562 6.00051L1.5 6C0.671573 6 0 5.32843 0 4.5C0 3.67157 0.671573 3 1.5 3L20.2556 3.00138C20.8671 1.24214 22.5325 0 24.5 0ZM24.5 3C23.6716 3 23 3.67157 23 4.5C23 5.32843 23.6716 6 24.5 6C25.3284 6 26 5.32843 26 4.5C26 3.67157 25.3284 3 24.5 3Z" fill="var(--tiny-first-color, #191919)" fill-rule="evenodd" transform="matrix(0,-1,1,0,6,42)"/>
  <path id="矢量 1706" d="M14.2556 3.0014C14.09 3.47015 14 3.97449 14 4.49988C14 5.02655 14.0905 5.5321 14.2567 6.00177L14.353 6.25012C15.0359 7.86597 16.6355 8.99988 18.5 8.99988C20.3644 8.99988 21.9641 7.86597 22.6469 6.25018L22.7433 6.00177C22.9095 5.5321 23 5.02655 23 4.49988C23 3.98218 22.9126 3.48486 22.7516 3.02191C22.1401 1.2627 20.4675 0 18.5 0C18.4102 0 18.321 0.00256348 18.2325 0.00769043C16.3923 0.115601 14.8466 1.33685 14.2556 3.0014ZM18.5 3C17.6716 3 17 3.67157 17 4.5C17 5.32843 17.6716 6 18.5 6C19.3284 6 20 5.32843 20 4.5C20 3.67157 19.3284 3 18.5 3ZM8.74377 19.5005C8.90973 19.0312 9 18.5262 9 18.0001C9 15.5148 6.98529 13.5001 4.5 13.5001C2.01471 13.5001 0 15.5148 0 18.0001C0 18.5262 0.0903015 19.0312 0.256226 19.5005L0.353638 19.7516C1.03677 21.3667 2.63605 22.5 4.5 22.5C6.36395 22.5 7.96326 21.3667 8.64636 19.7516L8.74377 19.5005ZM4.5 16.5C3.67157 16.5 3 17.1716 3 18C3 18.8284 3.67157 19.5 4.5 19.5C5.32843 19.5 6 18.8284 6 18C6 17.1716 5.32843 16.5 4.5 16.5ZM24.7516 30.0219C24.1401 28.2627 22.4675 27 20.5 27C20.4097 27 20.32 27.0026 20.2311 27.0078C18.3916 27.1162 16.8492 28.3296 16.2583 29.9937C16.0928 30.4623 16 30.9745 16 31.4999C16 32.0261 16.0903 32.5311 16.2563 33.0005L16.3531 33.2502C17.0363 34.8652 18.6361 35.9999 20.5 35.9999C22.3639 35.9999 23.9631 34.8666 24.6463 33.2516L24.7433 33.0018C24.9092 32.5324 25 32.0261 25 31.4999C25 30.9822 24.9126 30.4849 24.7516 30.0219ZM20.5 30C19.6716 30 19 30.6716 19 31.5C19 32.3284 19.6716 33 20.5 33C21.3284 33 22 32.3284 22 31.5C22 30.6716 21.3284 30 20.5 30Z" fill="var(--tiny-second-color, #aeaeAE)" fill-rule="evenodd" transform="matrix(0,-1,1,0,6,36)"/>
</svg>