<svg viewBox="0 0 48 48" xmlns="http://www.w3.org/2000/svg" xmlns:xlink="http://www.w3.org/1999/xlink" width="48.000000" height="48.000000">
  <path id="形状结合" d="M2 0L34 0C35.1046 0 36 0.895431 36 2C36 3.10457 35.1046 4 34 4L2 4C0.895431 4 0 3.10457 0 2C0 0.895431 0.895431 0 2 0ZM2 13.5L34 13.5C35.1046 13.5 36 14.3954 36 15.5C36 16.6046 35.1046 17.5 34 17.5L2 17.5C0.895431 17.5 0 16.6046 0 15.5C0 14.3954 0.895431 13.5 2 13.5ZM2 27L34 27C35.1046 27 36 27.8954 36 29C36 30.1046 35.1046 31 34 31L2 31C0.895431 31 0 30.1046 0 29C0 27.8954 0.895431 27 2 27Z" fill="var(--tiny-first-color, #191919)" fill-rule="evenodd" transform="matrix(0,-1,1,0,8.5,42)"/>
  <path id="合并" d="M18.5 0C20.9853 0 23 2.01472 23 4.5C23 6.98528 20.9853 9 18.5 9C16.0147 9 14 6.98528 14 4.5C14 2.01472 16.0147 0 18.5 0ZM4.5 13.5C6.98528 13.5 9 15.5147 9 18C9 20.4853 6.98528 22.5 4.5 22.5C2.01472 22.5 0 20.4853 0 18C0 15.5147 2.01472 13.5 4.5 13.5ZM25 31.5C25 29.0147 22.9853 27 20.5 27C18.0147 27 16 29.0147 16 31.5C16 33.9853 18.0147 36 20.5 36C22.9853 36 25 33.9853 25 31.5Z" fill="var(--tiny-first-color, #191919)" fill-rule="evenodd" transform="matrix(0,-1,1,0,6,36)"/>
  <path id="矢量 1706" d="M14.2556 3.0014C14.09 3.47015 14 3.97449 14 4.49988C14 5.02655 14.0905 5.5321 14.2567 6.00177L14.353 6.25012C15.0359 7.86597 16.6355 8.99988 18.5 8.99988C20.3644 8.99988 21.9641 7.86597 22.6469 6.25018L22.7433 6.00177C22.9095 5.5321 23 5.02655 23 4.49988C23 3.98218 22.9126 3.48486 22.7516 3.02191C22.1401 1.2627 20.4675 0 18.5 0C18.4102 0 18.321 0.00256348 18.2325 0.00769043C16.3923 0.115601 14.8466 1.33685 14.2556 3.0014ZM8.74377 19.5005C8.90973 19.0312 9 18.5262 9 18.0001C9 15.5148 6.98529 13.5001 4.5 13.5001C2.01471 13.5001 0 15.5148 0 18.0001C0 18.5262 0.0903015 19.0312 0.256226 19.5005L0.353638 19.7516C1.03677 21.3667 2.63605 22.5 4.5 22.5C6.36395 22.5 7.96326 21.3667 8.64636 19.7516L8.74377 19.5005ZM24.7516 30.0219C24.1401 28.2627 22.4675 27 20.5 27C20.4097 27 20.32 27.0026 20.2311 27.0078C18.3916 27.1162 16.8492 28.3296 16.2583 29.9937C16.0928 30.4623 16 30.9745 16 31.4999C16 32.0261 16.0903 32.5311 16.2563 33.0005L16.3531 33.2502C17.0363 34.8652 18.6361 35.9999 20.5 35.9999C22.3639 35.9999 23.9631 34.8666 24.6463 33.2516L24.7433 33.0018C24.9092 32.5324 25 32.0261 25 31.4999C25 30.9822 24.9126 30.4849 24.7516 30.0219Z" fill="var(--tiny-second-color, #aeaeAE)" fill-rule="evenodd" transform="matrix(0,-1,1,0,6,36)"/>
</svg>