<svg viewBox="0 0 48 48" xmlns="http://www.w3.org/2000/svg" xmlns:xlink="http://www.w3.org/1999/xlink" width="48.000000" height="48.000000" fill="none">
  <path id="合并" d="M20 36.069L20 11.931C20 10.8497 19.12 10 18 10C16.88 10 16 10.8497 16 11.931L16 36.069C16 37.1503 16.88 38 18 38C19.12 38 20 37.1503 20 36.069ZM32 36.069L32 11.931C32 10.8497 31.12 10 30 10C28.88 10 28 10.8497 28 11.931L28 36.069C28 37.1503 28.88 38 30 38C31.12 38 32 37.1503 32 36.069Z" fill="var(--tiny-first-color, #191919)" fill-rule="evenodd"/>
</svg>
