<svg viewBox="0 0 48 48" xmlns="http://www.w3.org/2000/svg" xmlns:xlink="http://www.w3.org/1999/xlink" width="48.000000" height="48.000000" fill="none">
  <path id="减去顶层" d="M44 24C44 12.972 35.026 4 24 4C12.972 4 4 12.972 4 24C4 35.026 12.972 44 24 44C35.026 44 44 35.026 44 24ZM19 14.5C19.7594 14.5 20.387 15.0643 20.4863 15.7965L20.5 16L20.5 32C20.5 32.8284 19.8284 33.5 19 33.5C18.2406 33.5 17.613 32.9357 17.5137 32.2035L17.5 32L17.5 16C17.5 15.1716 18.1716 14.5 19 14.5ZM29 14.5C29.7594 14.5 30.387 15.0643 30.4863 15.7965L30.5 16L30.5 32C30.5 32.8284 29.8284 33.5 29 33.5C28.2406 33.5 27.613 32.9357 27.5137 32.2035L27.5 32L27.5 16C27.5 15.1716 28.1716 14.5 29 14.5Z" fill="var(--tiny-first-color, #191919)" fill-rule="evenodd"/>
  <path id="矢量 1747" d="M20.4863 15.7965C20.387 15.0643 19.7594 14.5 19 14.5C18.1716 14.5 17.5 15.1716 17.5 16L17.5 32L17.5137 32.2035C17.613 32.9357 18.2406 33.5 19 33.5C19.8284 33.5 20.5 32.8284 20.5 32L20.5 16L20.4863 15.7965ZM30.4863 15.7965C30.387 15.0643 29.7594 14.5 29 14.5C28.1716 14.5 27.5 15.1716 27.5 16L27.5 32L27.5137 32.2035C27.613 32.9357 28.2406 33.5 29 33.5C29.8284 33.5 30.5 32.8284 30.5 32L30.5 16L30.4863 15.7965Z" fill="var(--tiny-second-color, #aeaeAE)" fill-rule="evenodd"/>
</svg>
