<svg viewBox="0 0 48 48" xmlns="http://www.w3.org/2000/svg" xmlns:xlink="http://www.w3.org/1999/xlink" width="48.000000" height="48.000000">
  <path id="形状结合" d="M38.25 6C40.2224 6 41.8392 7.52284 41.9887 9.45694L42 9.75L42 27.25C42 29.2224 40.4772 30.8392 38.5431 30.9887L38.25 31L36.08 31L26.8421 40.2399C25.8082 41.2737 24.436 41.8913 22.9855 41.9849L22.5882 41.9973L9.7689 41.9717C7.79651 41.9816 6.1721 40.4669 6.01277 38.5271L6 38.233L6 33.5006L6.05751 33.0893C6.26969 32.3452 6.86139 31.498 7.85799 30.4858C6.82547 29.8835 6.10845 28.8001 6.01128 27.5431L6 27.25L6 9.75C6 7.77755 7.52284 6.16079 9.45694 6.01128L9.75 6L38.25 6ZM19.8801 23.0026C19.5094 23.3138 19.1117 23.7074 18.6237 24.2409L16.4978 26.6655C15.3606 27.9442 14.4143 28.88 13.3816 29.6841L12.5052 30.3794C10.6966 31.8428 9.54467 32.966 9.11723 33.5843L9 38.2264C9.07167 38.5678 9.39137 38.9735 9.75382 38.9717L22.5938 38.9973C23.3915 38.9987 24.1568 38.6825 24.7208 38.1185L31.836 31L22.1427 31.0011C21.1051 32.1395 19.8755 33.3448 18.4634 34.6156C17.8477 35.1698 16.8992 35.1199 16.3451 34.5041C15.7909 33.8883 15.8408 32.9399 16.4566 32.3857L17.3915 31.5291L18.2744 30.6881C22.7703 26.3124 23.8814 23.6917 22.56 22.7006C21.6154 21.9922 20.9844 22.0756 19.8801 23.0026ZM39 16L9 16L9 27.25C9 27.6124 9.25709 27.9148 9.59885 27.9848L10.672 28.0021C10.9481 27.7802 11.2369 27.552 11.5384 27.3171C12.2777 26.7415 12.9921 26.0572 13.8275 25.1466L14.256 24.6719C14.5727 24.3158 15.7847 22.9137 16.0788 22.5833C16.7991 21.7742 17.3731 21.1902 17.9512 20.7049C20.04 18.9514 22.1834 18.6682 24.36 20.3006C26.7788 22.1147 26.7238 24.6964 24.5301 28.0017L38.25 28C38.6124 28 38.9148 27.7429 38.9848 27.4012L39 16ZM38.25 9L9.75 9C9.38756 9 9.08517 9.25709 9.01524 9.59885L9 13L39 13L39 9.75C39 9.38756 38.5918 9.06993 38.25 9Z" fill="var(--tiny-first-color, #191919)" fill-rule="evenodd"/>
</svg>