<svg viewBox="0 0 48 48" xmlns="http://www.w3.org/2000/svg" xmlns:xlink="http://www.w3.org/1999/xlink" width="48.000000" height="48.000000">
  <path id="减去顶层" d="M36 5C39.1954 5 41.8073 7.49784 41.9898 10.6475L42 11L42 37C42 40.1954 39.5022 42.8073 36.3525 42.9898L36 43L12 43C8.80464 43 6.19268 40.5022 6.01019 37.3525L6 37L6 11C6 7.80464 8.49784 5.19268 11.6475 5.01019L12 5L36 5ZM17.1654 14.533L14.7942 11.5688C14.2695 10.9128 13.3418 10.8098 12.6859 11.3347C12.0299 11.8594 11.9269 12.7871 12.4516 13.4429L15.4137 17.1455L13.6229 17.1455C12.7829 17.1455 12.1229 17.8056 12.1229 18.6455C12.1229 19.4856 12.7829 20.1455 13.6229 20.1455L15.6312 20.1455L15.6312 22.4079L13.5 22.4079C12.66 22.4079 12 23.0681 12 23.9079C12 24.748 12.66 25.4079 13.5 25.4079L15.6312 25.4079L15.6312 28.2934C15.6312 29.1335 16.2912 29.7934 17.1312 29.7934C17.9712 29.7934 18.6312 29.1335 18.6312 28.2934L18.6312 25.4079L20.7625 25.4079C21.6025 25.4079 22.2625 24.748 22.2625 23.9079C22.2625 23.0681 21.6025 22.4079 20.7625 22.4079L18.6312 22.4079L18.6312 20.1455L20.6395 20.1455C21.4795 20.1455 22.1395 19.4856 22.1395 18.6455C22.1395 17.8056 21.4795 17.1455 20.6395 17.1455L18.8829 17.1455L21.996 13.4768C22.5395 12.8364 22.4632 11.906 21.8227 11.3625C21.1822 10.8191 20.252 10.8953 19.7085 11.5359L17.1654 14.533ZM34.1844 16.5C34.1844 15.6716 33.5128 15 32.6844 15L26.6844 15L26.4808 15.0137C25.7487 15.113 25.1844 15.7407 25.1844 16.5C25.1844 17.3284 25.856 18 26.6844 18L32.6844 18L32.8879 17.9863C33.6201 17.8869 34.1844 17.2595 34.1844 16.5ZM34.1844 25.5C34.1844 24.6716 33.5128 24 32.6844 24L26.6844 24L26.4808 24.0136C25.7487 24.113 25.1844 24.7407 25.1844 25.5C25.1844 26.3283 25.856 27 26.6844 27L32.6844 27L32.8879 26.9863C33.6201 26.8869 34.1844 26.2595 34.1844 25.5ZM32.6844 33C33.5128 33 34.1844 33.6716 34.1844 34.4999C34.1844 35.2592 33.6201 35.8869 32.8879 35.9863L32.6844 35.9999L13.6844 35.9999C12.8559 35.9999 12.1844 35.3283 12.1844 34.4999C12.1844 33.7407 12.7487 33.113 13.4808 33.0136L13.6844 33L32.6844 33Z" fill="var(--tiny-first-color)" fill-rule="evenodd"/>
  <path id="矢量 1851" d="M14.7942 11.5688L17.1654 14.533L19.7085 11.5359C20.252 10.8953 21.1822 10.8191 21.8227 11.3625C22.4632 11.906 22.5395 12.8364 21.996 13.4768L18.8829 17.1455L20.6395 17.1455C21.4795 17.1455 22.1395 17.8056 22.1395 18.6455C22.1395 19.4856 21.4795 20.1455 20.6395 20.1455L18.6312 20.1455L18.6312 22.4079L20.7625 22.4079C21.6025 22.4079 22.2625 23.0681 22.2625 23.9079C22.2625 24.748 21.6025 25.4079 20.7625 25.4079L18.6312 25.4079L18.6312 28.2934C18.6312 29.1335 17.9712 29.7934 17.1312 29.7934C16.2912 29.7934 15.6312 29.1335 15.6312 28.2934L15.6312 25.4079L13.5 25.4079C12.66 25.4079 12 24.748 12 23.9079C12 23.0681 12.66 22.4079 13.5 22.4079L15.6312 22.4079L15.6312 20.1455L13.6229 20.1455C12.7829 20.1455 12.1229 19.4856 12.1229 18.6455C12.1229 17.8056 12.7829 17.1455 13.6229 17.1455L15.4137 17.1455L12.4516 13.4429C11.9269 12.7871 12.0299 11.8594 12.6859 11.3347C13.3418 10.8098 14.2695 10.9128 14.7942 11.5688ZM32.6844 15C33.5128 15 34.1844 15.6716 34.1844 16.5C34.1844 17.2595 33.6201 17.8869 32.8879 17.9863L32.6844 18L26.6844 18C25.856 18 25.1844 17.3284 25.1844 16.5C25.1844 15.7407 25.7487 15.113 26.4808 15.0137L26.6844 15L32.6844 15ZM32.6844 24C33.5128 24 34.1844 24.6716 34.1844 25.5C34.1844 26.2595 33.6201 26.8869 32.8879 26.9863L32.6844 27L26.6844 27C25.856 27 25.1844 26.3283 25.1844 25.5C25.1844 24.7407 25.7487 24.113 26.4808 24.0136L26.6844 24L32.6844 24ZM34.1844 34.4999C34.1844 33.6716 33.5128 33 32.6844 33L13.6844 33L13.4808 33.0136C12.7487 33.113 12.1844 33.7407 12.1844 34.4999C12.1844 35.3283 12.8559 35.9999 13.6844 35.9999L32.6844 35.9999L32.8879 35.9863C33.6201 35.8869 34.1844 35.2592 34.1844 34.4999Z" fill="var(--tiny-second-color)" fill-rule="evenodd"/>
</svg>