<svg viewBox="0 0 48 48" xmlns="http://www.w3.org/2000/svg" xmlns:xlink="http://www.w3.org/1999/xlink" width="48.000000" height="48.000000">
  <path id="形状结合" d="M36 5C39.3137 5 42 7.68629 42 11C42 11.8284 41.3284 12.5 40.5 12.5C39.6716 12.5 39 11.8284 39 11C39 9.46149 37.8419 8.19348 36.3499 8.02018L36 8L12 8C10.4615 8 9.19348 9.15812 9.02018 10.6501L9 11L9 37C9 38.5385 10.1581 39.8065 11.6501 39.9798L12 40L36 40C37.5385 40 38.8065 38.8419 38.9798 37.3499L39 37L39 16C39 15.1716 39.6716 14.5 40.5 14.5C41.2364 14.5 41.8488 15.0306 41.9758 15.7304L42 16L42 37C42 40.1631 39.5524 42.7545 36.4478 42.9835L36 43L12 43C8.83692 43 6.2455 40.5524 6.01646 37.4478L6 37L6 11C6 7.83692 8.44763 5.2455 11.5522 5.01646L12 5L36 5Z" fill="var(--tiny-first-color)" fill-rule="evenodd"/>
  <path id="矢量 1850" d="M15.6098 11.5688L17.981 14.533L20.5241 11.5359C21.0676 10.8953 21.9979 10.8191 22.6384 11.3625C23.2788 11.906 23.3551 12.8364 22.8116 13.4768L19.6985 17.1455L21.4551 17.1455C22.2951 17.1455 22.9551 17.8056 22.9551 18.6455C22.9551 19.4856 22.2951 20.1455 21.4551 20.1455L19.4468 20.1455L19.4468 22.4079L21.5781 22.4079C22.4181 22.4079 23.0781 23.0681 23.0781 23.9079C23.0781 24.748 22.4181 25.4079 21.5781 25.4079L19.4468 25.4079L19.4468 28.2934C19.4468 29.1335 18.7868 29.7934 17.9468 29.7934C17.1068 29.7934 16.4468 29.1335 16.4468 28.2934L16.4468 25.4079L14.3156 25.4079C13.4756 25.4079 12.8156 24.748 12.8156 23.9079C12.8156 23.0681 13.4756 22.4079 14.3156 22.4079L16.4468 22.4079L16.4468 20.1455L14.4385 20.1455C13.5985 20.1455 12.9385 19.4856 12.9385 18.6455C12.9385 17.8056 13.5985 17.1455 14.4385 17.1455L16.2293 17.1455L13.2672 13.4429C12.7425 12.7871 12.8456 11.8594 13.5015 11.3347C14.1574 10.8098 15.0851 10.9128 15.6098 11.5688ZM33.5 15C34.3284 15 35 15.6716 35 16.5C35 17.2595 34.4357 17.8869 33.7035 17.9863L33.5 18L27.5 18C26.6716 18 26 17.3284 26 16.5C26 15.7407 26.5643 15.113 27.2965 15.0137L27.5 15L33.5 15ZM33.5 24C34.3284 24 35 24.6716 35 25.5C35 26.2595 34.4357 26.8869 33.7035 26.9863L33.5 27L27.5 27C26.6716 27 26 26.3283 26 25.5C26 24.7407 26.5643 24.113 27.2965 24.0136L27.5 24L33.5 24ZM35 34.4999C35 33.6716 34.3284 33 33.5 33L14.5 33L14.2965 33.0136C13.5643 33.113 13 33.7407 13 34.4999C13 35.3283 13.6716 35.9999 14.5 35.9999L33.5 35.9999L33.7035 35.9863C34.4357 35.8869 35 35.2592 35 34.4999Z" fill="var(--tiny-second-color)" fill-rule="evenodd"/>
</svg>