<svg viewBox="0 0 48 48" xmlns="http://www.w3.org/2000/svg" xmlns:xlink="http://www.w3.org/1999/xlink" width="48.000000" height="48.000000">
  <path id="合并" d="M25.2662 4.05971C25.1798 4.04422 25.0908 4.03613 25 4.03613L11.078 4.03613C7.77 4.03613 5.078 6.72813 5.078 10.0361L5.078 37.9641C5.078 41.2721 7.77 43.9641 11.078 43.9641L30.922 43.9641C34.23 43.9641 36.922 41.2721 36.922 37.9641L36.922 30.9901C36.922 30.1621 36.25 29.4901 35.422 29.4901C34.594 29.4901 33.922 30.1621 33.922 30.9901L33.922 37.9641C33.922 39.6181 32.576 40.9641 30.922 40.9641L11.078 40.9641C9.424 40.9641 8.078 39.6181 8.078 37.9641L8.078 10.0361C8.078 8.38213 9.424 7.03613 11.078 7.03613L23.498 7.03413L23.5 13.0011C23.5 15.4811 25.518 17.5011 28 17.5011L35.422 17.5011C36.028 17.5011 36.574 17.1351 36.806 16.5771C37.04 16.0171 36.912 15.3731 36.484 14.9431L26.0755 4.49082C26.022 4.43582 25.7937 4.27325 25.7337 4.22745C25.7061 4.21199 25.4955 4.12373 25.4683 4.11077C25.4225 4.09571 25.3138 4.06968 25.2662 4.05971ZM26.5 13.0011L26.5 9.16913L31.81 14.5011L28 14.5011C27.172 14.5011 26.5 13.8271 26.5 13.0011ZM15.1654 16.533L12.7942 13.5689C12.2695 12.9129 11.3418 12.8099 10.6859 13.3348C10.0299 13.8594 9.92687 14.7872 10.4516 15.4429L13.4137 19.1455L11.6229 19.1455C10.7829 19.1455 10.1229 19.8057 10.1229 20.6455C10.1229 21.4856 10.7829 22.1455 11.6229 22.1455L13.6312 22.1455L13.6312 24.408L11.5 24.408C10.66 24.408 10 25.0681 10 25.908C10 26.7481 10.66 27.408 11.5 27.408L13.6312 27.408L13.6312 30.2935C13.6312 31.1336 14.2912 31.7935 15.1312 31.7935C15.9712 31.7935 16.6312 31.1336 16.6312 30.2935L16.6312 27.408L18.7625 27.408C19.6025 27.408 20.2625 26.7481 20.2625 25.908C20.2625 25.0681 19.6025 24.408 18.7625 24.408L16.6312 24.408L16.6312 22.1455L18.6395 22.1455C19.4795 22.1455 20.1395 21.4856 20.1395 20.6455C20.1395 19.8057 19.4795 19.1455 18.6395 19.1455L16.8829 19.1455L19.996 15.4769C20.5395 14.8365 20.4632 13.9061 19.8227 13.3626C19.1822 12.8191 18.252 12.8953 17.7085 13.5359L15.1654 16.533Z" fill="var(--tiny-first-color, #191919)" fill-rule="evenodd"/>
  <path id="矢量 1706" d="M42.0064 19.892L27.0144 34.884C26.9063 34.9933 26.7859 35.0894 26.656 35.1702L26.4543 35.28L18.1624 39.1899C17.9443 39.292 17.7224 39.338 17.5103 39.338C16.5447 39.338 15.7532 38.3729 16.0715 37.3756L20.0584 28.884C20.1238 28.7467 20.2051 28.6156 20.3005 28.4954L35.4463 13.332C36.3342 12.444 37.5002 12 38.6704 12C39.8604 12 41.0544 12.458 41.9663 13.3719C43.696 15.1017 43.791 17.8408 42.2393 19.6414L42.0064 19.892ZM38.6704 15C38.4551 15.0159 38.0305 15.0862 37.7388 15.3042L37.1868 15.8337L39.5049 18.1517L39.8862 17.772C40.2258 17.4326 40.3154 17.0374 40.334 16.7764C40.332 16.3384 40.1604 15.806 39.8464 15.4919C39.5283 15.176 39.1104 15 38.6704 15ZM35.0647 17.9537L22.6982 30.322L20.6284 34.708L25.0164 32.64L37.3848 20.2717L35.0647 17.9537Z" fill="var(--tiny-second-color, #aeaeAE)" fill-rule="evenodd"/>
</svg>