<svg viewBox="0 0 48 48" xmlns="http://www.w3.org/2000/svg" xmlns:xlink="http://www.w3.org/1999/xlink" width="48.000000" height="48.000000">
  <path id="减去顶层" d="M33 6C36.1954 6 38.8073 8.49784 38.9898 11.6475L39 12L39 22.068L35.7212 20.021C34.1544 19.1157 32.2316 19.0553 30.6193 19.8399L30.2788 20.021L24.2391 23.5065C22.6746 24.4118 21.6621 26.0461 21.5341 27.8352L21.5203 28.2207L21.5203 35.1918C21.5203 37.0001 22.4285 38.6946 23.9144 39.6991L24.2415 39.9036L27.87 41.998L12 42C8.80464 42 6.19268 39.5022 6.01019 36.3525L6 36L6 12C6 8.80464 8.49784 6.19268 11.6475 6.01019L12 6L33 6ZM22.1654 15.533L19.7942 12.5689C19.2695 11.9129 18.3418 11.8099 17.6859 12.3348C17.0299 12.8594 16.9269 13.7872 17.4516 14.4429L20.4137 18.1455L16.6229 18.1455C15.7829 18.1455 15.1229 18.8057 15.1229 19.6455C15.1229 20.4856 15.7829 21.1455 16.6229 21.1455L20.6312 21.1455L20.6312 23.408L16.5 23.408C15.66 23.408 15 24.0681 15 24.908C15 25.7481 15.66 26.408 16.5 26.408L20.6312 26.408L20.6312 29.2935C20.6312 29.9069 20.9831 30.4242 21.5 30.6588L21.5 28.2499C21.5 26.4319 22.396 24.7425 23.8743 23.7264L24.2257 23.5041L24.3913 23.408L23.6312 23.408L23.6312 21.1455L27.6395 21.1455C28.4795 21.1455 29.1395 20.4856 29.1395 19.6455C29.1395 18.8057 28.4795 18.1455 27.6395 18.1455L23.8829 18.1455L26.996 14.4769C27.5395 13.8365 27.4632 12.9061 26.8227 12.3626C26.1822 11.8191 25.252 11.8953 24.7085 12.5359L22.1654 15.533ZM35.25 22.0441L40.242 24.9261C41.63 25.7281 42.492 27.2221 42.492 28.8241L42.492 34.5881C42.492 36.1901 41.63 37.6841 40.244 38.4841L35.25 41.3661C34.556 41.7681 33.778 41.9681 33 41.9681C32.222 41.9681 31.444 41.7681 30.75 41.3661L25.758 38.4841C24.37 37.6841 23.508 36.1901 23.508 34.5881L23.508 28.8241C23.508 27.2221 24.37 25.7281 25.756 24.9261L30.75 22.0441C32.136 21.2421 33.862 21.2421 35.25 22.0441ZM33 27.7097C30.794 27.7097 29 29.5037 29 31.7097C29 33.9157 30.794 35.7097 33 35.7097C35.206 35.7097 37 33.9157 37 31.7097C37 29.5037 35.206 27.7097 33 27.7097Z" fill="var(--tiny-first-color, #191919)" fill-rule="evenodd"/>
  <path id="形状结合" d="M35.25 22.0449L40.242 24.9269C41.63 25.7289 42.492 27.2229 42.492 28.8249L42.492 34.5889C42.492 36.1909 41.63 37.6849 40.244 38.4849L35.25 41.3669C34.556 41.7689 33.778 41.9689 33 41.9689C32.222 41.9689 31.444 41.7689 30.75 41.3669L25.758 38.4849C24.37 37.6849 23.508 36.1909 23.508 34.5889L23.508 28.8249C23.508 27.2229 24.37 25.7289 25.756 24.9269L30.75 22.0449C32.136 21.2429 33.862 21.2429 35.25 22.0449ZM33 27.7105C30.794 27.7105 29 29.5045 29 31.7105C29 33.9165 30.794 35.7105 33 35.7105C35.206 35.7105 37 33.9165 37 31.7105C37 29.5045 35.206 27.7105 33 27.7105Z" fill="var(--tiny-second-color, #aeaeAE)" fill-rule="evenodd"/>
</svg>