<svg viewBox="0 0 48 48" xmlns="http://www.w3.org/2000/svg" xmlns:xlink="http://www.w3.org/1999/xlink" width="48.000031" height="48.000000" fill="none">
  <path id="矢量 10" d="M36.5 5.5L11.5 5.5C8.18628 5.5 5.5 8.18628 5.5 11.5L5.5 36.5C5.5 39.8137 8.18628 42.5 11.5 42.5L36.5 42.5C39.8137 42.5 42.5 39.8137 42.5 36.5L42.5 11.5C42.5 8.18628 39.8137 5.5 36.5 5.5ZM22.6357 11.5001L22.3239 11.516C21.1906 11.6222 20.1772 12.2546 19.6249 13.27L19.4618 13.5708C18.5643 15.41 19.1096 17.8691 20.3747 20.6431L20.546 21.01L20.4055 21.4353C19.7264 23.389 18.9584 25.2001 18.0673 26.9276L17.846 27.342L17.2925 27.5942C13.0101 29.5822 11.5 31.2443 11.5 33.1008L11.5127 33.3943C11.6054 34.4628 12.201 35.4402 13.1493 35.9829C13.6506 36.3177 14.3455 36.5 14.9551 36.5L15.2493 36.4884C17.1945 36.3341 19.0295 34.6514 20.8709 31.6478L21.188 31.114L21.759 30.8868C23.4768 30.2216 25.1208 29.6914 26.7587 29.2828L27.064 29.21C28.4163 30.1361 30.1609 30.7971 31.8287 30.9209C32.4681 30.9209 32.9401 30.9094 33.4079 30.8329C35.1208 30.5527 36.3438 29.5265 36.4817 27.6949L36.4947 27.3422C36.6542 25.3207 34.9876 23.7052 31.7886 23.637L31.233 23.6462C30.4907 23.6711 29.7376 23.7458 28.9163 23.8698L28.394 23.952L27.9117 23.4471C27.1054 22.5677 26.3949 21.608 25.7924 20.5829L25.8824 19.9375C26.7106 16.7437 26.6886 14.3793 25.6422 12.9264L25.4312 12.6703C24.8391 12.0171 24.0204 11.6057 23.1605 11.5223L22.6357 11.5001ZM22.8365 14.5066C22.9744 14.5066 23.1403 14.5898 23.2238 14.7014C23.5157 15.287 23.5552 16.8016 23.0645 18.8364L22.992 19.124L23.0645 18.8364C22.2827 16.9623 21.8177 15.4456 22.2297 14.757C22.3132 14.6055 22.4333 14.5222 22.5935 14.5038L22.8365 14.5066ZM23.296 22.25L23.6464 22.8174C24.4061 23.9929 25.2894 25.0872 26.2819 26.0826L26.0377 26.3707C24.6271 26.7224 23.2178 27.156 21.7739 27.678L20.876 28.014L21.1998 27.3704C21.8091 26.1129 22.3612 24.8141 22.8666 23.4561L23.296 22.25ZM32.0452 26.6459L31.7566 26.6367C31.0098 26.6367 30.23 26.7043 29.3308 26.8412L28.99 26.896C29.7317 27.3665 30.6788 27.7513 31.5193 27.8772L31.9399 27.925L32.42 27.9187L32.9236 27.8722C33.428 27.7897 33.4947 27.7297 33.4991 27.2274C33.4882 26.9983 33.2993 26.759 32.5268 26.6796L32.0452 26.6459ZM17.8365 30.821L17.988 30.588L17.8365 30.821C16.4679 31.5155 15.3757 32.0641 14.854 32.5925L14.5767 32.8975C14.5083 32.9893 14.5 33.0376 14.5 33.1008C14.5 33.2363 14.567 33.3473 14.6608 33.39L14.9402 33.5562C15.5779 33.5562 16.6245 32.6238 17.8365 30.821Z" fill="var(--tiny-first-color)" fill-rule="evenodd"/>
  <path id="矢量 1772" d="M22.6357 11.5L22.3239 11.5159C21.1906 11.6221 20.1772 12.2545 19.6249 13.2699L19.4618 13.5707C18.5643 15.4099 19.1096 17.869 20.3747 20.6429L20.546 21.0099L20.4055 21.4352C19.7264 23.3889 18.9584 25.2 18.0673 26.9275L17.846 27.3419L17.2925 27.5941C13.0101 29.582 11.5 31.2441 11.5 33.1007L11.5127 33.3942C11.6054 34.4626 12.201 35.4401 13.1493 35.9828C13.6506 36.3176 14.3455 36.4999 14.9551 36.4999L15.2493 36.4883C17.1945 36.334 19.0295 34.6512 20.8709 31.6477L21.188 31.1139L21.759 30.8867C23.4768 30.2214 25.1208 29.6913 26.7587 29.2827L27.064 29.2098C28.4163 30.136 30.1609 30.797 31.8287 30.9208C32.4681 30.9208 32.9401 30.9093 33.4079 30.8328C35.1208 30.5526 36.3438 29.5264 36.4817 27.6948L36.4947 27.342C36.6542 25.3206 34.9876 23.7051 31.7886 23.6368L31.233 23.6461C30.4907 23.671 29.7376 23.7457 28.9163 23.8696L28.394 23.9519L27.9117 23.447C27.1054 22.5676 26.3949 21.6079 25.7924 20.5828L25.8824 19.9374C26.7106 16.7435 26.6886 14.3792 25.6422 12.9263L25.4312 12.6702C24.8391 12.017 24.0204 11.6056 23.1605 11.5222L22.6357 11.5ZM22.8365 14.5065C22.9744 14.5065 23.1403 14.5897 23.2238 14.7013C23.5157 15.2869 23.5552 16.8015 23.0645 18.8363L22.992 19.1239L23.0645 18.8363C22.2827 16.9622 21.8177 15.4454 22.2297 14.7568C22.3132 14.6053 22.4333 14.5221 22.5935 14.5037L22.8365 14.5065ZM23.296 22.2499L23.6464 22.8173C24.4061 23.9928 25.2894 25.087 26.2819 26.0825L26.0377 26.3706C24.6271 26.7223 23.2178 27.1559 21.7739 27.6779L20.876 28.0139L21.1998 27.3702C21.8091 26.1128 22.3612 24.814 22.8666 23.4559L23.296 22.2499ZM32.0452 26.6458L31.7566 26.6366C31.0098 26.6366 30.23 26.7042 29.3308 26.8411L28.99 26.8959C29.7317 27.3663 30.6788 27.7512 31.5193 27.8771L31.9399 27.9249L32.42 27.9186L32.9236 27.8721C33.428 27.7896 33.4947 27.7296 33.4991 27.2273C33.4882 26.9982 33.2993 26.7589 32.5268 26.6794L32.0452 26.6458ZM17.8365 30.8209L17.988 30.5879L17.8365 30.8209C16.4679 31.5154 15.3757 32.064 14.854 32.5924L14.5767 32.8973C14.5083 32.9891 14.5 33.0375 14.5 33.1007C14.5 33.2362 14.567 33.3472 14.6608 33.3899L14.9402 33.556C15.5779 33.556 16.6245 32.6237 17.8365 30.8209Z" fill="var(--tiny-second-color)" fill-rule="evenodd"/>
</svg>