<svg viewBox="0 0 48 48" xmlns="http://www.w3.org/2000/svg" xmlns:xlink="http://www.w3.org/1999/xlink" width="48.000000" height="48.000000" fill="none">
  <path id="形状结合" d="M11.998 42C8.692 42 6 39.308 6 36.002L6 11.998C6 8.692 8.692 6 11.998 6L36.002 6C39.308 6 42 8.692 42 11.998C42 12.826 41.328 13.498 40.5 13.498C39.672 13.498 39 12.826 39 11.998C39 10.346 37.654 9 36.002 9L11.998 9C10.346 9 9 10.346 9 11.998L9 36.002C9 37.654 10.346 39 11.998 39L36.002 39C37.654 39 39 37.654 39 36.002L39 17.0126C39 16.1846 39.672 15.5126 40.5 15.5126C41.328 15.5126 42 16.1846 42 17.0126L42 36.002C42 39.308 39.308 42 36.002 42L11.998 42Z" fill="var(--tiny-first-color, #191919)" fill-rule="evenodd"/>
  <path id="矢量 1771" d="M23.1357 11L22.8239 11.0159C21.6906 11.1221 20.6772 11.7545 20.1249 12.7699L19.9618 13.0707C19.0643 14.9099 19.6096 17.369 20.8747 20.1429L21.046 20.5099L20.9055 20.9352C20.2264 22.8889 19.4584 24.7 18.5673 26.4275L18.346 26.8419L17.7925 27.0941C13.5101 29.082 12 30.7441 12 32.6007L12.0127 32.8942C12.1054 33.9626 12.701 34.9401 13.6493 35.4828C14.1506 35.8176 14.8455 35.9999 15.4551 35.9999L15.7493 35.9883C17.6945 35.834 19.5295 34.1512 21.3709 31.1477L21.688 30.6139L22.259 30.3867C23.9768 29.7214 25.6208 29.1913 27.2587 28.7827L27.564 28.7098C28.9163 29.636 30.6609 30.297 32.3287 30.4208C32.9681 30.4208 33.4401 30.4093 33.9079 30.3328C35.6208 30.0526 36.8438 29.0264 36.9817 27.1948L36.9947 26.842C37.1542 24.8206 35.4876 23.2051 32.2886 23.1368L31.733 23.1461C30.9907 23.171 30.2376 23.2457 29.4163 23.3696L28.894 23.4519L28.4117 22.947C27.6054 22.0676 26.8949 21.1079 26.2924 20.0828L26.3824 19.4374C27.2106 16.2435 27.1886 13.8792 26.1422 12.4263L25.9312 12.1702C25.3391 11.517 24.5204 11.1056 23.6605 11.0222L23.1357 11ZM23.3365 14.0065C23.4744 14.0065 23.6403 14.0897 23.7238 14.2013C24.0157 14.7869 24.0552 16.3015 23.5645 18.3363L23.492 18.6239L23.5645 18.3363C22.7827 16.4622 22.3177 14.9454 22.7297 14.2568C22.8132 14.1053 22.9333 14.0221 23.0935 14.0037L23.3365 14.0065ZM23.796 21.7499L24.1464 22.3173C24.9061 23.4928 25.7894 24.587 26.7819 25.5825L26.5377 25.8706C25.1271 26.2223 23.7178 26.6559 22.2739 27.1779L21.376 27.5139L21.6998 26.8702C22.3091 25.6128 22.8612 24.314 23.3666 22.9559L23.796 21.7499ZM32.5452 26.1458L32.2566 26.1366C31.5098 26.1366 30.73 26.2042 29.8308 26.3411L29.49 26.3959C30.2317 26.8663 31.1788 27.2512 32.0193 27.3771L32.4399 27.4249L32.92 27.4186L33.4236 27.3721C33.928 27.2896 33.9947 27.2296 33.9991 26.7273C33.9882 26.4982 33.7993 26.2589 33.0268 26.1794L32.5452 26.1458ZM18.3365 30.3209L18.488 30.0879L18.3365 30.3209C16.9679 31.0154 15.8757 31.564 15.354 32.0924L15.0767 32.3973C15.0083 32.4891 15 32.5375 15 32.6007C15 32.7362 15.067 32.8472 15.1608 32.8899L15.4402 33.056C16.0779 33.056 17.1245 32.1237 18.3365 30.3209Z" fill="var(--tiny-second-color, #aeaeAE)" fill-rule="evenodd"/>
</svg>
