<svg viewBox="0 0 48 48" xmlns="http://www.w3.org/2000/svg" xmlns:xlink="http://www.w3.org/1999/xlink" width="48.000000" height="48.000000" fill="none">
  <path id="减去顶层" d="M24 4C29.799 4 34.5 8.70101 34.5 14.5C34.5 15.7259 34.2881 16.9158 33.8917 18.0279C33.5968 18.0094 33.2995 18 33 18C32.1362 18 31.2906 18.0782 30.4701 18.228C31.1241 17.1074 31.5 15.8247 31.5 14.5C31.5 10.3579 28.1421 7 24 7C19.8579 7 16.5 10.3579 16.5 14.5C16.5 17.0618 17.7927 19.4012 19.8971 20.7795L20.3059 21.0129C21.1552 21.5672 21.739 22.4394 21.9341 23.4229C20.7016 25.0108 19.8033 26.8711 19.3448 28.8982C19.0753 28.9647 18.7935 29 18.5035 29L11.75 29C11.3358 29 11 29.3358 11 29.75L11 34.75C11 35.1642 11.3358 35.5 11.75 35.5L19.441 35.5C19.7121 36.5531 20.1026 37.5582 20.5972 38.5L11.75 38.5C9.67893 38.5 8 36.8211 8 34.75L8 29.75C8 27.6789 9.67893 26 11.75 26L18.5035 26C18.7793 26 19.003 25.7767 19.0035 25.5009L19.0058 24.1542C19.0063 23.8778 18.8547 23.6235 18.6113 23.4925C18.4202 23.3896 18.332 23.3406 18.2534 23.2891L17.8593 23.018C15.1504 21.0635 13.5 17.9213 13.5 14.5C13.5 8.70101 18.201 4 24 4ZM22.2757 41L9.5 41L9.29646 41.0137C8.56431 41.113 8 41.7406 8 42.5C8 43.3284 8.67157 44 9.5 44L25.7848 44C24.455 43.1988 23.2693 42.1828 22.2757 41Z" fill="var(--tiny-first-color)" fill-rule="evenodd"/>
  <path id="合并" d="M44 32C44 25.9249 39.0751 21 33 21C26.9249 21 22 25.9249 22 32C22 38.0751 26.9249 43 33 43C39.0751 43 44 38.0751 44 32ZM33 23.64C28.3829 23.64 24.64 27.3829 24.64 32C24.64 36.6171 28.3829 40.36 33 40.36C37.6171 40.36 41.36 36.6171 41.36 32C41.36 27.3829 37.6171 23.64 33 23.64ZM33.5 28.5L33.5 31.75L36.9 34.3C37.572 34.804 37.704 35.728 37.2 36.4C36.696 37.072 35.772 37.204 35.1 36.7L31.5 34C31.3426 33.882 31.2026 33.7495 31.0799 33.6025C30.9572 33.4555 30.8519 33.294 30.7639 33.1181C30.676 32.9421 30.61 32.7609 30.566 32.5746C30.522 32.3883 30.5 32.1968 30.5 32L30.5 28.5C30.5 27.66 31.16 27 32 27C32.84 27 33.5 27.66 33.5 28.5Z" fill="var(--tiny-second-color)" fill-rule="evenodd"/>
</svg>