<svg viewBox="0 0 48 48" xmlns="http://www.w3.org/2000/svg" xmlns:xlink="http://www.w3.org/1999/xlink" width="48.000000" height="48.000000" fill="none">
  <path id="形状结合" d="M36 5C39.3137 5 42 7.68629 42 11C42 11.8284 41.3284 12.5 40.5 12.5C39.6716 12.5 39 11.8284 39 11C39 9.46149 37.8419 8.19348 36.3499 8.02018L36 8L12 8C10.4615 8 9.19348 9.15812 9.02018 10.6501L9 11L9 37C9 38.5385 10.1581 39.8065 11.6501 39.9798L12 40L36 40C37.5385 40 38.8065 38.8419 38.9798 37.3499L39 37L39 16C39 15.1716 39.6716 14.5 40.5 14.5C41.2364 14.5 41.8488 15.0306 41.9758 15.7304L42 16L42 37C42 40.1631 39.5524 42.7545 36.4478 42.9835L36 43L12 43C8.83692 43 6.2455 40.5524 6.01646 37.4478L6 37L6 11C6 7.83692 8.44763 5.2455 11.5522 5.01646L12 5L36 5Z" fill="var(--tiny-first-color)" fill-rule="evenodd"/>
  <path id="矢量 1847" d="M33.5 12L25 12C24.16 12 23.5 12.6599 23.5 13.5C23.5 14.3401 24.16 15 25 15L30.471 15L22.7786 24.4019L19.3329 21.6453C19.2233 21.5576 19.1073 21.4829 18.9847 21.4211C18.8687 21.3625 18.7468 21.3154 18.6191 21.28C18.4948 21.2454 18.3694 21.2231 18.2432 21.2131C18.1128 21.2026 17.9814 21.2053 17.849 21.2209C17.7166 21.2366 17.5882 21.2646 17.4639 21.3049C17.3434 21.3442 17.2268 21.3953 17.1139 21.4578C16.9979 21.522 16.8904 21.5959 16.7912 21.6799C16.6864 21.7688 16.5909 21.8684 16.5048 21.9792L13.316 26.0791C12.8003 26.7422 12.9161 27.6682 13.5791 28.1841C14.2422 28.6997 15.1683 28.584 15.6841 27.9209L18.2504 24.6213L21.6768 27.3623C21.7845 27.4485 21.8984 27.5222 22.0188 27.5835C22.1328 27.6416 22.2526 27.6885 22.3781 27.7241C22.5003 27.759 22.6237 27.782 22.7481 27.793C22.8763 27.8044 23.0057 27.8035 23.1361 27.7896C23.2666 27.7759 23.3934 27.75 23.5165 27.7119C23.6358 27.675 23.7516 27.627 23.8639 27.5674C23.9791 27.5061 24.0864 27.4353 24.1859 27.3547C24.2907 27.2698 24.3868 27.1738 24.4741 27.0671L32.5 17.2576L32.5 22.5C32.5 23.3401 33.16 24 34 24C34.84 24 35.5 23.3401 35.5 22.5L35.5 14C35.5 13.8611 35.4862 13.7251 35.4584 13.5918C35.4321 13.4656 35.3934 13.342 35.3422 13.2209C35.2924 13.1033 35.2325 12.9919 35.1626 12.8875C35.0905 12.7798 35.0077 12.6792 34.9142 12.5857C34.8208 12.4924 34.7202 12.4097 34.6125 12.3374L34.6125 12.3374C34.508 12.2676 34.3969 12.2078 34.279 12.1577C34.1579 12.1067 34.0343 12.0679 33.9081 12.0415C33.775 12.0139 33.6389 12 33.5 12ZM35 34.5C35 33.6716 34.3284 33 33.5 33L14.5 33L14.2965 33.0137C13.5643 33.113 13 33.7407 13 34.5C13 35.3284 13.6716 36 14.5 36L33.5 36L33.7036 35.9863C34.4357 35.887 35 35.2593 35 34.5Z" fill="var(--tiny-second-color)" fill-rule="evenodd"/>
</svg>