<svg viewBox="0 0 48 48" xmlns="http://www.w3.org/2000/svg" xmlns:xlink="http://www.w3.org/1999/xlink" width="48.000000" height="48.000000" fill="none">
  <path id="减去顶层" d="M36 5C39.1954 5 41.8073 7.49784 41.9898 10.6475L42 11L42 37C42 40.1954 39.5022 42.8073 36.3525 42.9898L36 43L12 43C8.80464 43 6.19268 40.5022 6.01019 37.3525L6 37L6 11C6 7.80464 8.49784 5.19268 11.6475 5.01019L12 5L36 5ZM24.0059 12L32.5059 12C32.6448 12 32.7808 12.0139 32.914 12.0415C33.0402 12.0679 33.1638 12.1067 33.2848 12.1577C33.4027 12.2078 33.5139 12.2676 33.6184 12.3374L33.6184 12.3374C33.7261 12.4097 33.8267 12.4924 33.9201 12.5857C34.0135 12.6792 34.0963 12.7798 34.1684 12.8875C34.2383 12.9919 34.2982 13.1033 34.3481 13.2209C34.3993 13.342 34.438 13.4656 34.4643 13.5918C34.492 13.7251 34.5059 13.8611 34.5059 14L34.5059 22.5C34.5059 23.3401 33.8459 24 33.0059 24C32.1659 24 31.5059 23.3401 31.5059 22.5L31.5059 17.2576L23.48 27.0671C23.3927 27.1738 23.2966 27.2698 23.1917 27.3547C23.0923 27.4353 22.985 27.5061 22.8697 27.5674C22.7574 27.627 22.6416 27.675 22.5223 27.7119C22.3993 27.75 22.2725 27.7759 22.142 27.7896C22.0115 27.8035 21.8822 27.8044 21.7539 27.793C21.6295 27.782 21.5062 27.759 21.3839 27.7241C21.2585 27.6885 21.1387 27.6416 21.0246 27.5835C20.9043 27.5222 20.7903 27.4485 20.6827 27.3623L17.2563 24.6213L14.6899 27.9209C14.1742 28.584 13.248 28.6997 12.585 28.1841C11.9219 27.6682 11.8061 26.7422 12.3219 26.0791L15.5107 21.9792C15.5968 21.8684 15.6922 21.7688 15.797 21.6799C15.8962 21.5959 16.0038 21.522 16.1197 21.4578C16.2326 21.3953 16.3493 21.3442 16.4698 21.3049C16.5941 21.2646 16.7225 21.2366 16.8549 21.2209C16.9873 21.2053 17.1187 21.2026 17.249 21.2131C17.3753 21.2231 17.5006 21.2454 17.625 21.28C17.7527 21.3154 17.8746 21.3625 17.9906 21.4211C18.1132 21.4829 18.2292 21.5576 18.3387 21.6453L21.7844 24.4019L29.4769 15L24.0059 15C23.1659 15 22.5059 14.3401 22.5059 13.5C22.5059 12.6599 23.1659 12 24.0059 12ZM32.5059 33C33.3343 33 34.0059 33.6716 34.0059 34.5C34.0059 35.2593 33.4416 35.887 32.7094 35.9863L32.5059 36L13.5059 36C12.6774 36 12.0059 35.3284 12.0059 34.5C12.0059 33.7407 12.5702 33.113 13.3023 33.0137L13.5059 33L32.5059 33Z" fill="var(--tiny-first-color, #191919)" fill-rule="evenodd"/>
  <path id="矢量 1848" d="M32.5059 12L24.0059 12C23.1659 12 22.5059 12.6599 22.5059 13.5C22.5059 14.3401 23.1659 15 24.0059 15L29.4769 15L21.7844 24.4019L18.3387 21.6453C18.2292 21.5576 18.1132 21.4829 17.9906 21.4211C17.8746 21.3625 17.7527 21.3154 17.625 21.28C17.5006 21.2454 17.3753 21.2231 17.249 21.2131C17.1187 21.2026 16.9873 21.2053 16.8549 21.2209C16.7225 21.2366 16.5941 21.2646 16.4698 21.3049C16.3493 21.3442 16.2326 21.3953 16.1197 21.4578C16.0038 21.522 15.8962 21.5959 15.797 21.6799C15.6922 21.7688 15.5968 21.8684 15.5107 21.9792L12.3219 26.0791C11.8061 26.7422 11.9219 27.6682 12.585 28.1841C13.248 28.6997 14.1742 28.584 14.6899 27.9209L17.2563 24.6213L20.6827 27.3623C20.7903 27.4485 20.9043 27.5222 21.0246 27.5835C21.1387 27.6416 21.2585 27.6885 21.3839 27.7241C21.5062 27.759 21.6295 27.782 21.7539 27.793C21.8822 27.8044 22.0115 27.8035 22.142 27.7896C22.2725 27.7759 22.3993 27.75 22.5223 27.7119C22.6416 27.675 22.7574 27.627 22.8697 27.5674C22.985 27.5061 23.0923 27.4353 23.1917 27.3547C23.2966 27.2698 23.3927 27.1738 23.48 27.0671L31.5059 17.2576L31.5059 22.5C31.5059 23.3401 32.1659 24 33.0059 24C33.8459 24 34.5059 23.3401 34.5059 22.5L34.5059 14C34.5059 13.8611 34.492 13.7251 34.4643 13.5918C34.438 13.4656 34.3993 13.342 34.3481 13.2209C34.2982 13.1033 34.2383 12.9919 34.1684 12.8875C34.0963 12.7798 34.0135 12.6792 33.9201 12.5857C33.8267 12.4924 33.7261 12.4097 33.6184 12.3374L33.6184 12.3374C33.5139 12.2676 33.4027 12.2078 33.2848 12.1577C33.1638 12.1067 33.0402 12.0679 32.914 12.0415C32.7808 12.0139 32.6448 12 32.5059 12ZM34.0059 34.5C34.0059 33.6716 33.3343 33 32.5059 33L13.5059 33L13.3023 33.0137C12.5702 33.113 12.0059 33.7407 12.0059 34.5C12.0059 35.3284 12.6774 36 13.5059 36L32.5059 36L32.7094 35.9863C33.4416 35.887 34.0059 35.2593 34.0059 34.5Z" fill="var(--tiny-second-color, #aeaeAE)" fill-rule="evenodd"/>
</svg>
