<svg viewBox="0 0 48 48" xmlns="http://www.w3.org/2000/svg" xmlns:xlink="http://www.w3.org/1999/xlink" width="48.000000" height="48.000000">
  <path id="矩形 1980(边框)" d="M36.6175 3.67391C36.0911 3.55797 35.5519 3.5 35 3.5L13 3.5C12.4481 3.5 11.9089 3.55797 11.3825 3.67391C10.9394 3.77152 10.5053 3.91022 10.0802 4.09C9.65363 4.27043 9.25033 4.48608 8.87028 4.73698C8.45074 5.01395 8.05955 5.33385 7.6967 5.6967C7.33386 6.05954 7.01395 6.45073 6.73699 6.87027C6.48609 7.25032 6.27043 7.65363 6.09 8.0802C5.91021 8.50527 5.77152 8.93938 5.67391 9.38255C5.55797 9.90893 5.5 10.4481 5.5 11L5.5 37C5.5 37.5519 5.55797 38.0911 5.67391 38.6175C5.77152 39.0606 5.91022 39.4947 6.09 39.9198C6.27041 40.3463 6.48604 40.7496 6.73691 41.1296C7.01389 41.5492 7.33382 41.9404 7.6967 42.3033C8.05955 42.6662 8.45075 42.9861 8.87029 43.263C9.25033 43.5139 9.65364 43.7296 10.0802 43.91C10.5052 44.0898 10.9393 44.2285 11.3824 44.3261C11.9088 44.442 12.448 44.5 13 44.5L35 44.5C35.552 44.5 36.0912 44.442 36.6176 44.3261C37.0607 44.2284 37.4948 44.0898 37.9198 43.91C38.3464 43.7296 38.7497 43.5139 39.1298 43.263C39.5493 42.986 39.9405 42.6661 40.3033 42.3033C40.6662 41.9404 40.9861 41.5492 41.2631 41.1297C41.5139 40.7496 41.7296 40.3464 41.91 39.9198C42.0898 39.4948 42.2285 39.0607 42.3261 38.6176C42.442 38.0911 42.5 37.552 42.5 37L42.5 11C42.5 10.4481 42.442 9.90898 42.3261 9.38262C42.2285 8.93943 42.0898 8.50529 41.91 8.0802C41.7295 7.65356 41.5138 7.25019 41.2629 6.87009C40.986 6.45062 40.6661 6.05949 40.3033 5.6967C39.9405 5.33388 39.5493 5.01399 39.1298 4.73704C38.7497 4.48612 38.3464 4.27044 37.9198 4.09C37.4947 3.91022 37.0606 3.77152 36.6175 3.67391ZM13 6.5L35 6.5C35.3492 6.5 35.6895 6.53844 36.0209 6.61532C36.2693 6.67295 36.5127 6.75218 36.7511 6.85302C36.9981 6.95749 37.2322 7.08177 37.4534 7.22585C37.7142 7.39571 37.9571 7.5931 38.182 7.81802C38.4069 8.04289 38.6042 8.28569 38.7741 8.54641C38.9182 8.76766 39.0425 9.0018 39.147 9.24886C39.2478 9.48734 39.3271 9.73083 39.3847 9.97934C39.4616 10.3106 39.5 10.6509 39.5 11L39.5 37C39.5 37.3492 39.4616 37.6895 39.3847 38.0209C39.3271 38.2693 39.2478 38.5127 39.147 38.7511C39.0425 38.9981 38.9183 39.2321 38.7743 39.4533C38.6044 39.7141 38.407 39.957 38.182 40.182C37.9571 40.4069 37.7142 40.6043 37.4534 40.7741C37.2322 40.9182 36.9981 41.0425 36.7511 41.147C36.5127 41.2478 36.2693 41.3271 36.0209 41.3847C35.6895 41.4616 35.3492 41.5 35 41.5L13 41.5C12.6508 41.5 12.3105 41.4616 11.9791 41.3847C11.7307 41.3271 11.4873 41.2478 11.2489 41.147C11.0019 41.0425 10.7678 40.9183 10.5467 40.7742C10.2859 40.6043 10.043 40.4069 9.81802 40.182C9.59303 39.957 9.39559 39.7141 9.22569 39.4532C9.08168 39.2321 8.95745 38.9981 8.85302 38.7511C8.75218 38.5127 8.67294 38.2693 8.61531 38.0209C8.53844 37.6895 8.5 37.3492 8.5 37L8.5 11C8.5 10.6508 8.53844 10.3105 8.61531 9.97912C8.67294 9.73069 8.75218 9.48727 8.85302 9.24886C8.95748 9.00189 9.08174 8.76781 9.2258 8.54664C9.39567 8.28583 9.59308 8.04296 9.81802 7.81802C10.043 7.59308 10.2858 7.39567 10.5467 7.22579C10.7678 7.08173 11.0019 6.95747 11.2489 6.85302C11.4873 6.75218 11.7307 6.67295 11.9791 6.61532C12.3105 6.53844 12.6508 6.5 13 6.5Z" fill="var(--tiny-first-color, #191919)" fill-rule="evenodd"/>
  <path id="合并" d="M24 12C27.0376 12 29.5 14.4624 29.5 17.5C29.5 19.1502 28.7733 20.6306 27.6224 21.6387C27.6491 21.6443 27.6759 21.65 27.7025 21.6558C28.1025 21.7437 28.4943 21.8688 28.8779 22.0311C29.2624 22.1937 29.6258 22.3881 29.9683 22.6143C30.3453 22.8634 30.6969 23.1509 31.023 23.477C31.3491 23.8031 31.6366 24.1547 31.8856 24.5317C32.1119 24.8741 32.3063 25.2376 32.4689 25.6221C32.6312 26.0057 32.7562 26.3975 32.8441 26.7974C32.948 27.2702 33 27.7544 33 28.25C33 28.4828 32.9761 28.7104 32.9284 28.9329C32.8859 29.1312 32.8244 29.3254 32.744 29.5155C32.6644 29.7036 32.5691 29.8811 32.4581 30.0483C32.3394 30.2268 32.2028 30.3934 32.0481 30.5481C31.8934 30.7028 31.7268 30.8395 31.5482 30.9581C31.3811 31.0692 31.2035 31.1645 31.0155 31.244C30.8254 31.3244 30.6312 31.3859 30.433 31.4284C30.2105 31.4761 29.9828 31.5 29.75 31.5L18.25 31.5C18.0172 31.5 17.7896 31.4761 17.567 31.4284L17.567 31.4284L17.5662 31.4282C17.3682 31.3857 17.1743 31.3243 16.9845 31.244C16.7965 31.1645 16.6189 31.0692 16.4518 30.9581C16.2732 30.8395 16.1066 30.7028 15.9519 30.5481C15.7973 30.3935 15.6606 30.2269 15.5419 30.0483L15.5419 30.0483L15.5419 30.0482L15.5418 30.048C15.4308 29.881 15.3355 29.7035 15.256 29.5155C15.1756 29.3254 15.1141 29.1312 15.0716 28.933C15.0239 28.7105 15 28.4828 15 28.25C15 27.7544 15.0519 27.2702 15.1558 26.7975C15.2437 26.3975 15.3688 26.0057 15.5311 25.6221C15.6937 25.2377 15.8881 24.8742 16.1143 24.5318L16.1143 24.5317L16.1143 24.5317C16.3634 24.1547 16.6509 23.8031 16.977 23.477C17.3031 23.151 17.6546 22.8634 18.0316 22.6144L18.0317 22.6143C18.3742 22.3881 18.7377 22.1937 19.1221 22.0311C19.5057 21.8688 19.8975 21.7437 20.2975 21.6558C20.3242 21.65 20.3509 21.6443 20.3776 21.6388C19.2267 20.6306 18.5 19.1502 18.5 17.5C18.5 14.4624 20.9624 12 24 12ZM24 15C23.7896 15 23.5855 15.0249 23.3876 15.0746L23.3876 15.0746C23.2653 15.1053 23.1454 15.1455 23.0278 15.1952C22.8987 15.2498 22.7758 15.3143 22.6592 15.3886L22.6592 15.3886C22.5061 15.4862 22.3637 15.6007 22.2322 15.7322C22.1007 15.8637 21.9862 16.0061 21.8886 16.1592C21.8143 16.2758 21.7499 16.3987 21.6952 16.5278C21.6455 16.6454 21.6053 16.7653 21.5746 16.8876L21.5746 16.8876C21.5249 17.0855 21.5 17.2896 21.5 17.5C21.5 17.7104 21.5249 17.9145 21.5746 18.1124L21.5746 18.1124C21.6053 18.2347 21.6455 18.3546 21.6952 18.4722C21.7499 18.6013 21.8143 18.7242 21.8886 18.8408C21.9862 18.9939 22.1007 19.1363 22.2322 19.2678C22.3637 19.3993 22.506 19.5138 22.6591 19.6114C22.7758 19.6857 22.8987 19.7501 23.0278 19.8048C23.1454 19.8545 23.2653 19.8947 23.3877 19.9254C23.5855 19.9752 23.7896 20 24 20C24.2104 20 24.4145 19.9751 24.6124 19.9254C24.7347 19.8947 24.8546 19.8545 24.9722 19.8048C25.1013 19.7501 25.2242 19.6857 25.3408 19.6114C25.4939 19.5138 25.6363 19.3993 25.7678 19.2678C25.8993 19.1363 26.0138 18.994 26.1114 18.8409C26.1857 18.7242 26.2501 18.6014 26.3048 18.4722C26.3545 18.3546 26.3947 18.2347 26.4255 18.1123L26.4255 18.1123L26.4256 18.1119C26.4752 17.9142 26.5 17.7102 26.5 17.5C26.5 17.2896 26.4751 17.0855 26.4254 16.8876C26.3947 16.7653 26.3545 16.6454 26.3048 16.5278C26.2502 16.3987 26.1857 16.2758 26.1114 16.1592L26.1114 16.1592C26.0138 16.0061 25.8993 15.8637 25.7678 15.7322C25.6363 15.6007 25.494 15.4862 25.3409 15.3886L25.3408 15.3886C25.2242 15.3143 25.1013 15.2499 24.9722 15.1952C24.8546 15.1455 24.7347 15.1053 24.6124 15.0746L24.6124 15.0746C24.4145 15.0249 24.2104 15 24 15ZM26.25 24.5C26.5429 24.5 26.8282 24.5324 27.106 24.5973C27.3112 24.6452 27.5123 24.7108 27.7092 24.7941C27.9141 24.8807 28.1083 24.9837 28.2919 25.1031C28.5102 25.2451 28.7134 25.4101 28.9016 25.5984C29.0898 25.7865 29.2549 25.9898 29.3968 26.2081C29.5162 26.3917 29.6193 26.5859 29.7059 26.7908C29.7892 26.9877 29.8548 27.1888 29.9027 27.394L29.9027 27.3941C29.9676 27.6718 30 27.9571 30 28.25C30 28.2845 29.9939 28.3165 29.9817 28.346C29.9695 28.3754 29.9512 28.4024 29.9268 28.4268C29.9024 28.4512 29.8754 28.4695 29.846 28.4817C29.8165 28.4939 29.7845 28.5 29.75 28.5L18.25 28.5C18.2155 28.5 18.1835 28.4939 18.154 28.4817C18.1246 28.4695 18.0976 28.4512 18.0732 28.4268C18.0488 28.4024 18.0305 28.3754 18.0183 28.346C18.0061 28.3165 18 28.2845 18 28.25C18 27.9571 18.0324 27.6718 18.0973 27.394C18.1452 27.1888 18.2108 26.9877 18.2941 26.7908C18.3807 26.5859 18.4837 26.3917 18.6031 26.2081C18.7451 25.9898 18.9101 25.7866 19.0984 25.5984C19.2865 25.4102 19.4898 25.2451 19.7081 25.1031C19.8917 24.9838 20.0859 24.8807 20.2908 24.7941C20.4877 24.7108 20.6888 24.6452 20.894 24.5973L20.8944 24.5972C21.1721 24.5324 21.4573 24.5 21.75 24.5L26.25 24.5ZM32.5 33L16.5 33C15.66 33 15 33.66 15 34.5C15 35.34 15.66 36 16.5 36L32.5 36C33.34 36 34 35.34 34 34.5C34 33.66 33.34 33 32.5 33Z" fill="var(--tiny-second-color, #aeaeAE)" fill-rule="evenodd"/>
</svg>