<svg viewBox="0 0 48 48" xmlns="http://www.w3.org/2000/svg" xmlns:xlink="http://www.w3.org/1999/xlink" width="48.000000" height="48.000000">
  <path id="合并" d="M3.55762 18.8158L20.0883 5.24567C20.347 5.03327 20.6202 4.84721 20.9078 4.68748C21.1638 4.5453 21.4313 4.42399 21.7102 4.32353C21.9892 4.22304 22.2726 4.14596 22.5602 4.09229C22.5641 4.09155 22.5681 4.09082 22.572 4.0901C22.875 4.03426 23.1828 4.00438 23.4953 4.00044C23.8119 3.99646 24.1243 4.01923 24.4324 4.06874C24.7213 4.11516 25.0065 4.1851 25.2879 4.27854C25.5692 4.37195 25.8396 4.4865 26.0991 4.62219C26.3906 4.77464 26.6683 4.95377 26.9322 5.1596L44.4131 18.792C45.0769 19.3096 45.1943 20.2411 44.6798 20.9091C44.1654 21.577 43.2397 21.6951 42.576 21.1774L42.5 21.1182L42.5 38C42.5 38.552 42.442 39.0912 42.326 39.6177C42.2284 40.0608 42.0898 40.4948 41.91 40.9198C41.7296 41.3464 41.5139 41.7497 41.263 42.1297C40.986 42.5493 40.6661 42.9405 40.3033 43.3033C39.9405 43.6661 39.5493 43.986 39.1298 44.2629C38.7498 44.5139 38.3464 44.7296 37.9198 44.91C37.4947 45.0898 37.0606 45.2285 36.6174 45.3261C36.091 45.442 35.5519 45.5 35 45.5L13 45.5C12.4481 45.5 11.909 45.442 11.3826 45.3261C10.9394 45.2285 10.5053 45.0898 10.0802 44.91C9.65366 44.7296 9.25038 44.5139 8.87035 44.2631C8.45079 43.9861 8.05957 43.6662 7.6967 43.3033C7.33386 42.9405 7.01396 42.5493 6.737 42.1298C6.4861 41.7497 6.27043 41.3464 6.09 40.9198C5.91022 40.4947 5.77152 40.0606 5.67391 39.6175C5.55797 39.0911 5.5 38.5519 5.5 38L5.5 21.1161L5.45347 21.1543C4.80276 21.6884 3.87441 21.5937 3.34357 20.9389C2.81274 20.2841 2.90692 19.3499 3.55762 18.8158ZM8.5 18.6534L8.5 38C8.5 38.3492 8.53844 38.6895 8.61532 39.0209C8.67295 39.2693 8.75218 39.5127 8.85302 39.7511C8.95747 39.9981 9.08172 40.2322 9.22577 40.4533C9.39565 40.7141 9.59307 40.957 9.81802 41.182C10.043 41.4069 10.2859 41.6044 10.5467 41.7742C10.7679 41.9183 11.0019 42.0425 11.2489 42.147C11.4873 42.2478 11.7307 42.3271 11.9791 42.3847C12.3105 42.4616 12.6508 42.5 13 42.5L35 42.5C35.3492 42.5 35.6895 42.4616 36.0209 42.3847C36.2693 42.3271 36.5127 42.2478 36.7511 42.147C36.9981 42.0425 37.2323 41.9182 37.4535 41.7741C37.7142 41.6043 37.9571 41.4069 38.182 41.182C38.4069 40.9571 38.6043 40.7142 38.7742 40.4534C38.9183 40.2322 39.0425 39.9981 39.147 39.7511C39.2478 39.5127 39.327 39.2693 39.3847 39.0209C39.4616 38.6895 39.5 38.3492 39.5 38L39.5 19C39.5 18.9285 39.5048 18.8583 39.5141 18.7896L25.095 7.54505C24.9669 7.44517 24.8319 7.35915 24.6899 7.28699C24.5801 7.23121 24.4662 7.18371 24.3481 7.1445C24.2253 7.10374 24.101 7.07282 23.9749 7.05176C23.8297 7.02748 23.6823 7.01628 23.5328 7.01816C23.3833 7.02004 23.2362 7.03495 23.0916 7.06287C22.9662 7.0871 22.8426 7.12113 22.7209 7.16496C22.6038 7.20713 22.4911 7.25749 22.3827 7.31602C22.2426 7.39172 22.1097 7.4811 21.9842 7.58417L8.5 18.6534Z" fill="var(--tiny-first-color, #191919)" fill-rule="evenodd"/>
  <path id="形状" d="M16 33.0193C17.1046 33.0193 18 33.9147 18 35.0193C18 36.1238 17.1046 37.0193 16 37.0193C14.8954 37.0193 14 36.1238 14 35.0193C14 33.9147 14.8954 33.0193 16 33.0193ZM32.2286 33.5193C33.057 33.5193 33.7286 34.1908 33.7286 35.0193C33.7286 35.7787 33.1643 36.4063 32.4322 36.5056L32.2286 36.5193L21.4957 36.5193L21.2922 36.5056C20.56 36.4063 19.9957 35.7787 19.9957 35.0193C19.9957 34.2599 20.56 33.6323 21.2922 33.533L21.4957 33.5193L32.2286 33.5193ZM16 27.0096C17.1046 27.0096 18 27.9051 18 29.0096C18 30.1142 17.1046 31.0096 16 31.0096C14.8954 31.0096 14 30.1142 14 29.0096C14 27.9051 14.8954 27.0096 16 27.0096ZM32.2286 27.5096C33.057 27.5096 33.7286 28.1812 33.7286 29.0096C33.7286 29.769 33.1643 30.3966 32.4322 30.4959L32.2286 30.5096L21.4957 30.5096L21.2922 30.4959C20.56 30.3966 19.9957 29.769 19.9957 29.0096C19.9957 28.2502 20.56 27.6227 21.2922 27.5233L21.4957 27.5096L32.2286 27.5096ZM16 21C17.1046 21 18 21.8954 18 23C18 24.1046 17.1046 25 16 25C14.8954 25 14 24.1046 14 23C14 21.8954 14.8954 21 16 21ZM32.2286 21.5C33.057 21.5 33.7286 22.1716 33.7286 23C33.7286 23.7594 33.1643 24.387 32.4322 24.4863L32.2286 24.5L21.4957 24.5L21.2922 24.4863C20.56 24.387 19.9957 23.7594 19.9957 23C19.9957 22.2406 20.56 21.613 21.2922 21.5137L21.4957 21.5L32.2286 21.5Z" fill="var(--tiny-second-color, #aeaeAE)" fill-rule="nonzero"/>
</svg>