<svg viewBox="0 0 48 48" xmlns="http://www.w3.org/2000/svg" xmlns:xlink="http://www.w3.org/1999/xlink" width="48.000000" height="48.000000" fill="none">
  <path id="减去顶层" d="M36.002 6L11.996 6C8.69 6 6 8.692 6 11.998L6 36.002C6 39.308 8.69 42 11.996 42L36.002 42C39.308 42 42 39.308 42 36.002L42 11.998C42 8.692 39.308 6 36.002 6ZM12 16.0096C12 13.7961 13.795 11.9998 16.0096 11.9998L31.9904 11.9998C34.205 11.9998 36 13.7961 36 16.0096L36 31.99C36 34.2047 34.205 35.9998 31.9904 35.9998L16.0096 35.9998C13.795 35.9998 12 34.2047 12 31.99L12 16.0096ZM19.9898 21.6607C20.912 21.6607 21.6604 20.9122 21.6604 19.99C21.6604 19.069 20.912 18.3192 19.9898 18.3192C19.0689 18.3192 18.3191 19.069 18.3191 19.99C18.3191 20.9122 19.0689 21.6607 19.9898 21.6607ZM27.497 24.9152L18.5735 33.9949L31.9904 33.9949C33.0931 33.9949 33.9952 33.0927 33.9952 31.99L33.9952 29.0506L29.8587 24.9152C29.2064 24.2642 28.1492 24.2642 27.497 24.9152Z" fill="var(--tiny-first-color)" fill-rule="evenodd"/>
  <path id="Fill-1" d="M18.5735 33.9951L27.497 24.9154C28.1492 24.2645 29.2064 24.2645 29.8587 24.9154L33.9952 29.0508L33.9952 31.9902C33.9952 33.0929 33.0931 33.9951 31.9904 33.9951L18.5735 33.9951ZM21.6604 19.9902C21.6604 20.9125 20.912 21.6609 19.9898 21.6609C19.0689 21.6609 18.3191 20.9125 18.3191 19.9902C18.3191 19.0693 19.0689 18.3194 19.9898 18.3194C20.912 18.3194 21.6604 19.0693 21.6604 19.9902ZM16.0096 12C13.795 12 12 13.7964 12 16.0098L12 31.9902C12 34.2049 13.795 36 16.0096 36L31.9904 36C34.205 36 36 34.2049 36 31.9902L36 16.0098C36 13.7964 34.205 12 31.9904 12L16.0096 12Z" fill="var(--tiny-second-color)" fill-rule="evenodd"/>
</svg>