<svg viewBox="0 0 48 48" xmlns="http://www.w3.org/2000/svg" xmlns:xlink="http://www.w3.org/1999/xlink" width="48.000000" height="48.000000" fill="none">
  <path id="Path" d="M10.9501 42.1501L37.0501 42.1501C39.1626 42.1501 40.6563 40.6563 40.6563 40.6563C42.1501 39.1626 42.1501 37.0501 42.1501 37.0501L42.1501 10.9501C42.1501 8.83761 40.6563 7.34385 40.6563 7.34385C39.1626 5.8501 37.0501 5.8501 37.0501 5.8501L10.9501 5.8501C8.83761 5.8501 7.34385 7.34385 7.34385 7.34385C5.8501 8.83761 5.8501 10.9501 5.8501 10.9501L5.8501 37.0501C5.8501 39.1626 7.34385 40.6563 7.34385 40.6563C8.83761 42.1501 10.9501 42.1501 10.9501 42.1501ZM12.0506 39.1501L27.523 23.1931C28.9818 21.6886 31.0769 21.6444 31.0769 21.6444C33.172 21.6003 34.6929 23.0419 34.6929 23.0419L39.1501 27.2668L39.1501 10.9501C39.1501 10.0803 38.535 9.46517 38.535 9.46517C37.9199 8.8501 37.0501 8.8501 37.0501 8.8501L10.9501 8.8501C10.0802 8.8501 9.46517 9.46517 9.46517 9.46517C8.8501 10.0802 8.8501 10.9501 8.8501 10.9501L8.8501 37.0501C8.8501 37.9199 9.46517 38.535 9.46517 38.535C10.0802 39.1501 10.9501 39.1501 10.9501 39.1501L12.0506 39.1501ZM39.1501 31.4004L32.6291 25.2192C32.0029 24.6256 31.1402 24.6438 31.1402 24.6438C30.2775 24.662 29.6768 25.2814 29.6768 25.2814L16.2293 39.1501L37.0501 39.1501C37.9199 39.1501 38.535 38.535 38.535 38.535C39.1501 37.9199 39.1501 37.0501 39.1501 37.0501L39.1501 31.4004ZM17.1305 19.2757C18.5223 19.2757 19.6505 18.1475 19.6505 16.7557C19.6505 15.364 18.5223 14.2357 17.1305 14.2357C15.7388 14.2357 14.6105 15.364 14.6105 16.7557C14.6105 18.1475 15.7388 19.2757 17.1305 19.2757Z" fill="var(--tiny-first-color)" fill-rule="evenodd"/>
  <path id="Path" d="M17.1301 19.2754C18.5219 19.2754 19.6501 18.1471 19.6501 16.7554C19.6501 15.3636 18.5219 14.2354 17.1301 14.2354C15.7383 14.2354 14.6101 15.3636 14.6101 16.7554C14.6101 18.1471 15.7383 19.2754 17.1301 19.2754Z" fill="var(--tiny-second-color)" fill-rule="evenodd"/>
</svg>