<svg viewBox="0 0 48 48" xmlns="http://www.w3.org/2000/svg" xmlns:xlink="http://www.w3.org/1999/xlink" width="48.000000" height="48.000000" fill="none">
  <path id="Path" d="M10.9501 42.1501L37.0501 42.1501C39.1626 42.1501 40.6563 40.6563 40.6563 40.6563C42.1501 39.1626 42.1501 37.0501 42.1501 37.0501L42.1501 10.9501C42.1501 8.83761 40.6563 7.34385 40.6563 7.34385C39.1626 5.8501 37.0501 5.8501 37.0501 5.8501L10.9501 5.8501C8.83761 5.8501 7.34385 7.34385 7.34385 7.34385C5.8501 8.83761 5.8501 10.9501 5.8501 10.9501L5.8501 37.0501C5.8501 39.1626 7.34385 40.6563 7.34385 40.6563C8.83761 42.1501 10.9501 42.1501 10.9501 42.1501ZM39.1501 31.4004L32.6291 25.2192C32.0029 24.6256 31.1402 24.6438 31.1402 24.6438C30.2775 24.662 29.6768 25.2814 29.6768 25.2814L16.2293 39.1501L37.0501 39.1501C37.9199 39.1501 38.535 38.535 38.535 38.535C39.1501 37.9199 39.1501 37.0501 39.1501 37.0501L39.1501 31.4004ZM17.1305 19.2757C18.5223 19.2757 19.6505 18.1475 19.6505 16.7557C19.6505 15.364 18.5223 14.2357 17.1305 14.2357C15.7388 14.2357 14.6105 15.364 14.6105 16.7557C14.6105 18.1475 15.7388 19.2757 17.1305 19.2757Z" fill="var(--tiny-first-color, #191919)" fill-rule="evenodd"/>
  <path id="Path" d="M17.1299 19.2758C18.5216 19.2758 19.6499 18.1476 19.6499 16.7558C19.6499 15.3641 18.5216 14.2358 17.1299 14.2358C15.7381 14.2358 14.6099 15.3641 14.6099 16.7558C14.6099 18.1476 15.7381 19.2758 17.1299 19.2758Z" fill="var(--tiny-second-color, #aeaeAE)" fill-rule="evenodd"/>
  <path id="Path" d="M39.1496 31.4002L32.6286 25.219C32.0023 24.6254 31.1396 24.6436 31.1396 24.6436C30.2769 24.6618 29.6762 25.2813 29.6762 25.2813L16.2288 39.15L37.0496 39.15C37.9194 39.15 38.5345 38.5349 38.5345 38.5349C39.1496 37.9198 39.1496 37.05 39.1496 37.05L39.1496 31.4002Z" fill="var(--tiny-second-color, #aeaeAE)" fill-rule="evenodd"/>
</svg>
