<svg viewBox="0 0 48 48" xmlns="http://www.w3.org/2000/svg" xmlns:xlink="http://www.w3.org/1999/xlink" width="48.000000" height="48.000000">
  <path id="形状结合" d="M21.959 8.31354C22.787 8.31354 23.459 8.98554 23.459 9.81354L23.459 22.4375C23.459 23.5975 24.401 24.5375 25.557 24.5375L38.183 24.5375C39.011 24.5375 39.683 25.2095 39.683 26.0375C39.683 31.3475 37.331 36.3355 33.229 39.7175C30.029 42.3535 26.043 43.7555 21.925 43.7555C20.761 43.7555 19.587 43.6435 18.417 43.4175C11.487 42.0715 5.92497 36.5095 4.57898 29.5775C3.54698 24.2675 4.89498 18.8715 8.27698 14.7695C11.659 10.6675 16.647 8.31354 21.959 8.31354ZM27.1124 4.24414C36.2924 4.24414 43.7604 11.7141 43.7604 20.8941C43.7604 21.4461 43.3144 21.8941 42.7604 21.8941L28.1124 21.8941C27.0104 21.8941 26.1124 20.9961 26.1124 19.8941L26.1124 5.24414C26.1124 4.69214 26.5604 4.24414 27.1124 4.24414Z" fill="var(--tiny-first-color)" fill-rule="evenodd"/>
  <path id="形状结合" d="M27.1113 4.24414C36.2913 4.24414 43.7593 11.7141 43.7593 20.8941C43.7593 21.4461 43.3133 21.8941 42.7593 21.8941L28.1113 21.8941C27.0093 21.8941 26.1113 20.9961 26.1113 19.8941L26.1113 5.24414C26.1113 4.69214 26.5593 4.24414 27.1113 4.24414Z" fill="var(--tiny-second-color)" fill-rule="evenodd"/>
</svg>