<svg viewBox="0 0 48 48" xmlns="http://www.w3.org/2000/svg" xmlns:xlink="http://www.w3.org/1999/xlink" width="48.000000" height="48.000000" fill="none">
  <path id="形状结合" d="M21.5837 7.83235C22.4121 7.83235 23.0837 8.50393 23.0837 9.33235L23.0837 22.6264C23.0837 23.8919 24.1081 24.9164 25.3737 24.9164L38.6677 24.9164C39.4961 24.9164 40.1677 25.5879 40.1677 26.4164C40.1677 38.0826 29.571 46.9132 17.8717 44.6388C10.6093 43.2282 4.77181 37.3908 3.36119 30.1283C1.0888 18.4284 9.9181 7.83235 21.5837 7.83235ZM20.0823 10.9006L19.6282 10.9524C10.8361 12.0413 4.52444 20.3827 6.30615 29.5563C7.48353 35.618 12.3821 40.5165 18.4439 41.6939C27.6168 43.4772 35.9587 37.1647 37.0476 28.372L37.0963 27.9146L25.3737 27.9164C22.5636 27.9164 20.2666 25.7274 20.0941 22.961L20.0837 22.6264L20.0823 10.9006ZM26.9815 3.00195C27.2271 3.00195 27.4717 3.00687 27.7149 3.01661C28.1188 3.03204 28.5205 3.06147 28.9187 3.10397C28.9882 3.11228 29.0575 3.12009 29.1267 3.1283C29.5912 3.1824 30.0517 3.25537 30.5066 3.34555C30.6297 3.3701 30.9106 3.43004 31.0329 3.45813C31.1574 3.48658 31.3993 3.54586 31.5228 3.57792C31.6558 3.61255 31.9343 3.68939 32.0652 3.72778C32.213 3.77046 32.4131 3.83295 32.5589 3.8803C38.0162 5.66585 42.436 10.0159 44.1878 15.6506C44.7031 17.3266 44.9975 19.1709 44.9975 21.016C44.9975 21.8444 44.3259 22.516 43.4975 22.516L26.9815 22.516C26.153 22.516 25.4815 21.8444 25.4815 21.016L25.4815 4.50195C25.4815 3.67353 26.153 3.00195 26.9815 3.00195ZM28.4949 6.07795L28.4963 19.5006L41.9189 19.502L41.8759 19.0961C41.1731 13.5884 37.4867 9.01393 32.488 7.0433C32.311 6.97351 32.1323 6.90698 31.952 6.84379L32.488 7.0433C32.3462 6.98941 32.0958 6.89344 31.952 6.84379C31.6366 6.73322 31.3163 6.63288 30.9917 6.54316C30.8285 6.49808 30.6643 6.45569 30.499 6.41602L30.9917 6.54316C30.8229 6.49803 30.6698 6.45535 30.499 6.41602C30.3457 6.37925 30.1915 6.34483 30.0365 6.3128L30.499 6.41602C30.3149 6.37365 29.9978 6.30237 29.8114 6.26687L30.0365 6.3128C29.8584 6.27601 29.6792 6.24237 29.4988 6.21194L29.8114 6.26687C29.4792 6.20358 29.1434 6.15131 28.8045 6.1104L28.4949 6.07795Z" fill="var(--tiny-first-color)" fill-rule="evenodd"/>
  <path id="形状结合" d="M26.9824 3.00244C27.2281 3.00244 27.4726 3.00736 27.7159 3.01709C28.1197 3.03253 28.5214 3.06196 28.9197 3.10446C28.9892 3.11277 29.0585 3.12058 29.1277 3.12879C29.5922 3.18289 30.0527 3.25586 30.5076 3.34604C30.6306 3.37059 30.9116 3.43053 31.0339 3.45862C31.1584 3.48706 31.4002 3.54634 31.5238 3.57841C31.6568 3.61304 31.9353 3.68988 32.0662 3.72827C32.214 3.77095 32.414 3.83344 32.5598 3.88079C38.0171 5.66634 42.437 10.0164 44.1888 15.6511C44.704 17.3271 44.9984 19.1714 44.9984 21.0164C44.9984 21.8449 44.3269 22.5164 43.4984 22.5164L26.9824 22.5164C26.154 22.5164 25.4824 21.8449 25.4824 21.0164L25.4824 4.50244C25.4824 3.67401 26.154 3.00244 26.9824 3.00244ZM28.4959 6.07844L28.4972 19.501L41.9199 19.5024L41.8769 19.0966C41.174 13.5889 37.4877 9.01441 32.489 7.04379C32.3119 6.97399 32.1332 6.90746 31.953 6.84428L32.489 7.04379C32.3471 6.9899 32.0967 6.89393 31.953 6.84428C31.6375 6.73371 31.3173 6.63337 30.9926 6.54365C30.8295 6.49857 30.6652 6.45617 30.4999 6.41651L30.9926 6.54365C30.8239 6.49852 30.6708 6.45583 30.4999 6.41651C30.3467 6.37974 30.1925 6.34532 30.0375 6.31329L30.4999 6.41651C30.3158 6.37414 29.9988 6.30286 29.8124 6.26736L30.0375 6.31329C29.8594 6.2765 29.6801 6.24286 29.4998 6.21243L29.8124 6.26736C29.4801 6.20407 29.1443 6.1518 28.8055 6.11089L28.4959 6.07844Z" fill="var(--tiny-second-color)" fill-rule="evenodd"/>
</svg>