<svg viewBox="0 0 48 48" xmlns="http://www.w3.org/2000/svg" xmlns:xlink="http://www.w3.org/1999/xlink" width="48.000000" height="48.000000">
  <path id="减去顶层" d="M31 4L17 4C15.88 4 15 4.88 15 6L15 8C15 9.1 15.88 10 17 10L31 10C32.1 10 33 9.1 33 8L33 6C33 4.88 32.1 4 31 4ZM12 7C11.9342 7.1974 11.955 7.41212 11.9769 7.63846C11.9883 7.7561 12 7.87688 12 8L12 9C12 11.2 13.78 13 16 13L32 13C34.2 13 36 11.2 36 9L36 8C36 7.64 35.94 7.3 35.86 7C39.18 7 42 9.68 42 13L42 38C42 41.3 39.3 44 36 44L12 44C8.68 44 6 41.3 6 38L6 13C6 9.68 8.68 7 12 7ZM33 16L16.3333 16C14.4924 16 13 17.4924 13 19.3333L13 39.9419C13 40.2267 13.334 40.3803 13.5503 40.195L16.3466 37.7982C16.6586 37.5307 17.1191 37.5307 17.4312 37.7982L20.2355 40.2018C20.5475 40.4693 21.008 40.4693 21.3201 40.2018L24.1243 37.7982C24.4364 37.5307 24.8969 37.5307 25.209 37.7982L28.0144 40.2028C28.3259 40.4699 28.7856 40.4703 29.0977 40.2039L31.9175 37.7971C32.2302 37.5302 32.6907 37.5312 33.0022 37.7993L35.7825 40.1926C35.9986 40.3786 36.3333 40.225 36.3333 39.9399L36.3333 19.3333C36.3333 17.4924 34.841 16 33 16Z" fill="var(--tiny-first-color, #191919)" fill-rule="evenodd"/>
  <path id="减去顶层" d="M16.3333 16L33 16C34.841 16 36.3333 17.4924 36.3333 19.3333L36.3333 39.9399C36.3333 40.225 35.9986 40.3786 35.7825 40.1926L33.0022 37.7993C32.6907 37.5312 32.2302 37.5302 31.9175 37.7971L29.0977 40.2039C28.7856 40.4703 28.3259 40.4699 28.0144 40.2028L25.209 37.7982C24.8969 37.5307 24.4364 37.5307 24.1243 37.7982L21.3201 40.2018C21.008 40.4693 20.5475 40.4693 20.2355 40.2018L17.4312 37.7982C17.1191 37.5307 16.6586 37.5307 16.3466 37.7982L13.5503 40.195C13.334 40.3803 13 40.2267 13 39.9419L13 19.3333C13 17.4924 14.4924 16 16.3333 16ZM31.3333 20.1665L18 20.1665C17.16 20.1665 16.5 20.8265 16.5 21.6665C16.5 22.5065 17.16 23.1665 18 23.1665L31.3333 23.1665C32.1733 23.1665 32.8333 22.5065 32.8333 21.6665C32.8333 20.8265 32.1733 20.1665 31.3333 20.1665ZM18 25.1665L31.3333 25.1665C32.1733 25.1665 32.8333 25.8265 32.8333 26.6665C32.8333 27.5065 32.1733 28.1665 31.3333 28.1665L18 28.1665C17.16 28.1665 16.5 27.5065 16.5 26.6665C16.5 25.8265 17.16 25.1665 18 25.1665ZM31.3333 30.1665L18 30.1665C17.16 30.1665 16.5 30.8265 16.5 31.6665C16.5 32.5065 17.16 33.1665 18 33.1665L31.3333 33.1665C32.1733 33.1665 32.8333 32.5065 32.8333 31.6665C32.8333 30.8265 32.1733 30.1665 31.3333 30.1665Z" fill="var(--tiny-second-color, #aeaeAE)" fill-rule="evenodd"/>
</svg>