<svg viewBox="0 0 48 48" xmlns="http://www.w3.org/2000/svg" xmlns:xlink="http://www.w3.org/1999/xlink" width="48.000000" height="48.000000">
  <path id="path" d="M33.84 6.3999C33.5867 5.6999 33.1533 5.1266 32.54 4.67993C31.9333 4.2266 31.2466 4 30.48 4L17.52 4C16.7534 4 16.0667 4.2266 15.46 4.67993C14.8467 5.1266 14.4133 5.6999 14.16 6.3999L12.48 6.3999C11.3266 6.3999 10.2533 6.69671 9.26001 7.29004C8.27334 7.88337 7.48335 8.68327 6.89001 9.68994C6.29668 10.6966 6 11.7766 6 12.9299L6 37.96C6 39.1066 6.29668 40.1766 6.89001 41.1699C7.48335 42.1633 8.27334 42.9567 9.26001 43.55C10.2533 44.1434 11.3266 44.4399 12.48 44.4399L35.52 44.4399C36.6734 44.4399 37.7467 44.1434 38.74 43.55C39.7267 42.9567 40.5167 42.1633 41.11 41.1699C41.7033 40.1766 42 39.1066 42 37.96L42 12.9299C42 11.7766 41.7033 10.6966 41.11 9.68994C40.5167 8.68327 39.7267 7.88337 38.74 7.29004C37.7467 6.69671 36.6734 6.3999 35.52 6.3999L33.84 6.3999ZM16.99 7.51001C16.99 7.35001 17.04 7.22012 17.14 7.12012C17.2333 7.02678 17.36 6.97998 17.52 6.97998L30.48 6.97998C30.64 6.97998 30.7667 7.02678 30.86 7.12012C30.96 7.22012 31.01 7.35001 31.01 7.51001L31.01 10.9199C31.01 11.0466 30.96 11.1567 30.86 11.25C30.7667 11.35 30.64 11.3999 30.48 11.3999L17.52 11.3999C17.1667 11.3999 16.99 11.2399 16.99 10.9199L16.99 7.51001ZM39.02 37.96C39.02 38.92 38.67 39.7433 37.97 40.4299C37.2633 41.1166 36.4467 41.46 35.52 41.46L12.48 41.46C11.52 41.46 10.7034 41.1166 10.03 40.4299C9.3567 39.7433 9.02002 38.92 9.02002 37.96L9.02002 12.9299C9.02002 11.9699 9.3567 11.1466 10.03 10.46C10.7034 9.77329 11.52 9.42993 12.48 9.42993L14.02 9.42993L14.02 10.9199C14.02 11.8466 14.3633 12.6601 15.05 13.3601C15.7367 14.0668 16.56 14.4199 17.52 14.4199L30.48 14.4199C31.44 14.4199 32.2633 14.0668 32.95 13.3601C33.6367 12.6601 33.98 11.8466 33.98 10.9199L33.98 9.42993L35.52 9.42993C36.4467 9.42993 37.2633 9.77329 37.97 10.46C38.67 11.1466 39.02 11.9699 39.02 12.9299L39.02 37.96Z" fill="var(--tiny-first-color, #191919)" fill-rule="nonzero"/>
  <path id="合并" d="M16 15.5C16.1765 15.5 16.3492 15.5179 16.5181 15.5536L16.5181 15.5536C16.6731 15.5864 16.8249 15.6342 16.9736 15.6971C17.1195 15.7588 17.2572 15.8329 17.3867 15.9192C17.5228 16.01 17.6498 16.1143 17.7678 16.2322C17.8857 16.3502 17.99 16.4772 18.0808 16.6132C18.1671 16.7428 18.2412 16.8805 18.3029 17.0264C18.3658 17.175 18.4136 17.3268 18.4464 17.4818L18.4464 17.4819C18.4821 17.6508 18.5 17.8235 18.5 18L18.5 20C18.5 20.1765 18.4821 20.3492 18.4464 20.5181C18.4136 20.6731 18.3658 20.8249 18.3029 20.9736C18.2412 21.1195 18.1671 21.2572 18.0808 21.3867C17.99 21.5228 17.8857 21.6498 17.7678 21.7678C17.6498 21.8857 17.5228 21.99 17.3868 22.0808L17.3867 22.0808C17.2572 22.1672 17.1195 22.2412 16.9736 22.3029C16.8249 22.3658 16.6731 22.4136 16.5181 22.4464C16.3492 22.4821 16.1765 22.5 16 22.5L14 22.5C13.8235 22.5 13.6508 22.4821 13.4819 22.4464C13.3269 22.4136 13.1751 22.3658 13.0264 22.3029C12.8805 22.2412 12.7428 22.1671 12.6133 22.0808C12.4772 21.99 12.3502 21.8857 12.2322 21.7678C12.1143 21.6498 12.01 21.5228 11.9192 21.3868C11.8329 21.2572 11.7588 21.1195 11.6971 20.9736C11.6342 20.8249 11.5864 20.6731 11.5536 20.5181C11.5179 20.3492 11.5 20.1765 11.5 20L11.5 18C11.5 17.8235 11.5179 17.6509 11.5536 17.4819L11.5536 17.4819L11.5536 17.4819C11.5864 17.3269 11.6342 17.1751 11.6971 17.0264C11.7588 16.8805 11.8328 16.7428 11.9192 16.6133L11.9192 16.6132L11.9192 16.6132L11.9192 16.6132C12.01 16.4772 12.1143 16.3502 12.2322 16.2322C12.3502 16.1143 12.4771 16.01 12.6132 15.9192L12.6132 15.9192C12.7428 15.8329 12.8805 15.7588 13.0264 15.6971C13.1751 15.6342 13.3269 15.5864 13.4819 15.5536L13.4819 15.5536C13.6508 15.5179 13.8235 15.5 14 15.5L16 15.5ZM25 15.5C25.1765 15.5 25.3492 15.5179 25.5181 15.5536C25.6731 15.5864 25.8249 15.6342 25.9736 15.6971C26.1195 15.7588 26.2572 15.8329 26.3867 15.9192C26.5228 16.01 26.6498 16.1143 26.7678 16.2322C26.8857 16.3502 26.99 16.4772 27.0808 16.6132C27.1671 16.7428 27.2412 16.8805 27.3029 17.0264C27.3658 17.1751 27.4136 17.3269 27.4464 17.4819C27.4821 17.6508 27.5 17.8235 27.5 18L27.5 20C27.5 20.1765 27.4821 20.3492 27.4464 20.5181C27.4136 20.6731 27.3658 20.8249 27.3029 20.9736C27.2412 21.1195 27.1671 21.2572 27.0808 21.3867L27.0806 21.387C26.9899 21.523 26.8856 21.6499 26.7678 21.7678C26.6498 21.8857 26.5228 21.99 26.3868 22.0808C26.2572 22.1671 26.1195 22.2412 25.9736 22.3029C25.8249 22.3658 25.6731 22.4136 25.5181 22.4464C25.3492 22.4821 25.1765 22.5 25 22.5L23 22.5C22.8235 22.5 22.6508 22.4821 22.4819 22.4464C22.3269 22.4136 22.1751 22.3658 22.0264 22.3029C21.8805 22.2412 21.7428 22.1671 21.6133 22.0808C21.4772 21.99 21.3502 21.8857 21.2322 21.7678C21.1143 21.6498 21.01 21.5228 20.9192 21.3868C20.8329 21.2572 20.7588 21.1195 20.6971 20.9736C20.6342 20.8249 20.5864 20.6731 20.5536 20.5181C20.5179 20.3492 20.5 20.1765 20.5 20L20.5 18C20.5 17.8235 20.5179 17.6509 20.5536 17.4819L20.5536 17.4819C20.5864 17.3269 20.6342 17.1751 20.6971 17.0264C20.7588 16.8805 20.8329 16.7428 20.9192 16.6132C21.01 16.4772 21.1143 16.3502 21.2322 16.2322C21.3502 16.1143 21.4772 16.01 21.6132 15.9192C21.7428 15.8329 21.8805 15.7588 22.0264 15.6971C22.1751 15.6342 22.3269 15.5864 22.4819 15.5536C22.6508 15.5179 22.8235 15.5 23 15.5L25 15.5ZM34 15.5C34.1765 15.5 34.3492 15.5179 34.5181 15.5536C34.6731 15.5864 34.8249 15.6342 34.9736 15.6971C35.1195 15.7588 35.2572 15.8329 35.3867 15.9192C35.5228 16.01 35.6498 16.1143 35.7678 16.2322C35.8855 16.3499 35.9896 16.4766 36.0802 16.6124L36.0808 16.6132C36.1671 16.7428 36.2412 16.8805 36.3029 17.0264C36.3658 17.1751 36.4136 17.3269 36.4464 17.4819C36.4821 17.6508 36.5 17.8235 36.5 18L36.5 20C36.5 20.1765 36.4821 20.3492 36.4464 20.5181C36.4136 20.6731 36.3658 20.8249 36.3029 20.9736C36.2412 21.1195 36.1671 21.2572 36.0808 21.3867L36.0807 21.3868C35.99 21.5229 35.8857 21.6499 35.7678 21.7678C35.6498 21.8857 35.5228 21.99 35.3868 22.0808L35.3858 22.0814C35.2566 22.1675 35.1192 22.2413 34.9736 22.3029C34.8249 22.3658 34.6731 22.4136 34.5181 22.4464C34.3492 22.4821 34.1765 22.5 34 22.5L32 22.5C31.8235 22.5 31.6508 22.4821 31.4819 22.4464C31.3269 22.4136 31.1751 22.3658 31.0264 22.3029C30.8805 22.2412 30.7428 22.1671 30.6133 22.0808C30.4772 21.99 30.3502 21.8857 30.2322 21.7678C30.1143 21.6498 30.01 21.5228 29.9192 21.3868C29.8329 21.2572 29.7588 21.1195 29.6971 20.9736C29.6342 20.8249 29.5864 20.6731 29.5536 20.5181C29.5179 20.3492 29.5 20.1765 29.5 20L29.5 18C29.5 17.8239 29.5178 17.6515 29.5534 17.4829L29.5536 17.4819C29.5864 17.3269 29.6342 17.1751 29.6971 17.0264C29.7588 16.8805 29.8329 16.7428 29.9192 16.6132C30.01 16.4772 30.1143 16.3502 30.2322 16.2322C30.3502 16.1143 30.4772 16.01 30.6132 15.9192C30.7428 15.8329 30.8805 15.7588 31.0264 15.6971C31.1751 15.6342 31.3269 15.5864 31.4819 15.5536C31.6508 15.5179 31.8235 15.5 32 15.5L34 15.5ZM14.5 18.5L15.5 18.5L15.5 19.5L14.5 19.5L14.5 18.5ZM23.5 18.5L24.5 18.5L24.5 19.5L23.5 19.5L23.5 18.5ZM32.5 18.5L33.5 18.5L33.5 19.5L32.5 19.5L32.5 18.5ZM16 24.5C16.1765 24.5 16.3492 24.5179 16.5181 24.5536C16.6731 24.5864 16.8249 24.6342 16.9736 24.6971C17.1195 24.7588 17.2572 24.8329 17.3867 24.9192C17.5228 25.01 17.6498 25.1143 17.7678 25.2322C17.8857 25.3502 17.99 25.4772 18.0808 25.6132C18.1671 25.7428 18.2412 25.8805 18.3029 26.0264C18.3658 26.1751 18.4136 26.3269 18.4464 26.4819C18.4821 26.6508 18.5 26.8235 18.5 27L18.5 29C18.5 29.1765 18.4821 29.3492 18.4464 29.5181C18.4136 29.6731 18.3658 29.8249 18.3029 29.9736C18.2412 30.1195 18.1671 30.2572 18.0808 30.3867C17.99 30.5228 17.8857 30.6498 17.7678 30.7678C17.6498 30.8857 17.5228 30.99 17.3868 31.0808C17.2572 31.1671 17.1195 31.2412 16.9736 31.3029C16.8249 31.3658 16.6731 31.4136 16.5181 31.4464C16.3492 31.4821 16.1765 31.5 16 31.5L14 31.5C13.8235 31.5 13.6508 31.4821 13.4819 31.4464C13.3269 31.4136 13.1751 31.3658 13.0264 31.3029C12.8805 31.2412 12.7428 31.1671 12.6133 31.0808C12.4772 30.99 12.3502 30.8857 12.2322 30.7678C12.1143 30.6498 12.01 30.5228 11.9192 30.3868C11.8329 30.2572 11.7588 30.1195 11.6971 29.9736C11.6342 29.8249 11.5864 29.6731 11.5536 29.5181C11.5179 29.3492 11.5 29.1765 11.5 29L11.5 27C11.5 26.8235 11.5179 26.6508 11.5536 26.4819C11.5864 26.3269 11.6342 26.1751 11.6971 26.0264C11.7588 25.8805 11.8329 25.7428 11.9192 25.6133L11.9192 25.6132C12.01 25.4771 12.1143 25.3502 12.2322 25.2322C12.3502 25.1143 12.4772 25.01 12.6132 24.9192L12.6137 24.9189L12.6137 24.9189C12.7431 24.8327 12.8807 24.7587 13.0264 24.6971C13.1751 24.6342 13.3269 24.5864 13.4819 24.5536L13.4822 24.5535C13.651 24.5178 13.8236 24.5 14 24.5L16 24.5ZM25.5181 24.5536C25.3492 24.5179 25.1765 24.5 25 24.5L23 24.5C22.8235 24.5 22.6508 24.5179 22.4819 24.5536C22.3269 24.5864 22.1751 24.6342 22.0264 24.6971C21.8805 24.7588 21.7428 24.8329 21.6132 24.9192C21.4772 25.01 21.3502 25.1143 21.2322 25.2322C21.1143 25.3502 21.01 25.4772 20.9192 25.6133C20.8329 25.7428 20.7588 25.8805 20.6971 26.0264C20.6342 26.1751 20.5864 26.3269 20.5536 26.4819C20.5179 26.6508 20.5 26.8235 20.5 27L20.5 29C20.5 29.1765 20.5179 29.3492 20.5536 29.5181C20.5864 29.6731 20.6342 29.8249 20.6971 29.9736C20.7588 30.1195 20.8329 30.2572 20.9192 30.3868C21.01 30.5228 21.1143 30.6498 21.2322 30.7678C21.3502 30.8857 21.4772 30.99 21.6133 31.0808C21.7428 31.1671 21.8805 31.2412 22.0264 31.3029C22.1751 31.3658 22.3269 31.4136 22.4819 31.4464C22.6508 31.4821 22.8235 31.5 23 31.5L25 31.5C25.1765 31.5 25.3492 31.4821 25.5181 31.4464C25.6731 31.4136 25.8249 31.3658 25.9736 31.3029C26.1195 31.2412 26.2572 31.1671 26.3868 31.0808C26.5228 30.99 26.6498 30.8857 26.7678 30.7678C26.8857 30.6498 26.99 30.5228 27.0808 30.3867C27.1671 30.2572 27.2412 30.1195 27.3029 29.9736C27.3658 29.8249 27.4136 29.6731 27.4464 29.5181C27.4821 29.3492 27.5 29.1765 27.5 29L27.5 27C27.5 26.8235 27.4821 26.6508 27.4464 26.4819C27.4136 26.3269 27.3658 26.1751 27.3029 26.0264C27.2412 25.8805 27.1671 25.7428 27.0808 25.6132C26.99 25.4772 26.8857 25.3502 26.7678 25.2322C26.6498 25.1143 26.5228 25.01 26.3867 24.9192C26.2572 24.8329 26.1195 24.7588 25.9736 24.6971C25.8249 24.6342 25.6731 24.5864 25.5181 24.5536ZM34 24.5C34.1765 24.5 34.3492 24.5179 34.5181 24.5536C34.6731 24.5864 34.8249 24.6342 34.9736 24.6971C35.1195 24.7588 35.2572 24.8329 35.3867 24.9192C35.5228 25.01 35.6498 25.1143 35.7678 25.2322C35.8857 25.3502 35.99 25.4772 36.0808 25.6132C36.1671 25.7428 36.2412 25.8805 36.3029 26.0264C36.3658 26.1751 36.4136 26.3269 36.4464 26.4819C36.4821 26.6508 36.5 26.8235 36.5 27L36.5 29C36.5 29.1765 36.4821 29.3492 36.4464 29.5181C36.4136 29.6731 36.3658 29.8249 36.3029 29.9736C36.2412 30.1195 36.1671 30.2572 36.0808 30.3867C35.99 30.5228 35.8857 30.6498 35.7678 30.7678C35.6498 30.8857 35.5228 30.99 35.3868 31.0808C35.2572 31.1671 35.1195 31.2412 34.9736 31.3029C34.8249 31.3658 34.6731 31.4136 34.5181 31.4464C34.3492 31.4821 34.1765 31.5 34 31.5L32 31.5C31.8235 31.5 31.6508 31.4821 31.4819 31.4464C31.3269 31.4136 31.1751 31.3658 31.0264 31.3029C30.8805 31.2412 30.7428 31.1671 30.6133 31.0808C30.4772 30.99 30.3502 30.8857 30.2322 30.7678C30.1143 30.6498 30.01 30.5228 29.9192 30.3868C29.8329 30.2572 29.7588 30.1195 29.6971 29.9736C29.6342 29.8249 29.5864 29.6731 29.5536 29.5181C29.5179 29.3492 29.5 29.1765 29.5 29L29.5 27C29.5 26.8235 29.5179 26.6508 29.5536 26.4819C29.5864 26.3269 29.6342 26.1751 29.6971 26.0264C29.7588 25.8805 29.8329 25.7428 29.9192 25.6133C30.01 25.4772 30.1143 25.3502 30.2322 25.2322C30.3502 25.1143 30.4772 25.01 30.6132 24.9192C30.7428 24.8329 30.8805 24.7588 31.0264 24.6971C31.1751 24.6342 31.3269 24.5864 31.4819 24.5536C31.6508 24.5179 31.8235 24.5 32 24.5L34 24.5ZM14.5 27.5L15.5 27.5L15.5 28.5L14.5 28.5L14.5 27.5ZM24.5 27.5L23.5 27.5L23.5 28.5L24.5 28.5L24.5 27.5ZM32.5 27.5L33.5 27.5L33.5 28.5L32.5 28.5L32.5 27.5ZM16 33.5C16.1765 33.5 16.3492 33.5179 16.5181 33.5536C16.6731 33.5864 16.8249 33.6342 16.9736 33.6971C17.1195 33.7588 17.2572 33.8329 17.3867 33.9192C17.5228 34.01 17.6498 34.1143 17.7678 34.2322C17.8857 34.3502 17.99 34.4772 18.0808 34.6132C18.1671 34.7428 18.2412 34.8805 18.3029 35.0264C18.3658 35.1751 18.4136 35.3269 18.4464 35.4819C18.4821 35.6508 18.5 35.8235 18.5 36L18.5 38C18.5 38.1765 18.4821 38.3492 18.4464 38.5181C18.4136 38.6731 18.3658 38.8249 18.3029 38.9736C18.2412 39.1195 18.1671 39.2572 18.0808 39.3867C17.99 39.5228 17.8857 39.6498 17.7678 39.7678C17.6498 39.8857 17.5228 39.99 17.3868 40.0808C17.2572 40.1671 17.1195 40.2412 16.9736 40.3029C16.8249 40.3658 16.6731 40.4136 16.5181 40.4464C16.3492 40.4821 16.1765 40.5 16 40.5L14 40.5C13.8235 40.5 13.6508 40.4821 13.4819 40.4464C13.3269 40.4136 13.1751 40.3658 13.0264 40.3029C12.8805 40.2412 12.7428 40.1671 12.6133 40.0808C12.4772 39.99 12.3502 39.8857 12.2322 39.7678C12.1143 39.6498 12.01 39.5228 11.9192 39.3867C11.8329 39.2572 11.7588 39.1195 11.6971 38.9736C11.6342 38.8249 11.5864 38.6731 11.5536 38.5181C11.5179 38.3492 11.5 38.1765 11.5 38L11.5 36C11.5 35.8235 11.5179 35.6508 11.5536 35.4819C11.5864 35.3269 11.6342 35.1751 11.6971 35.0264C11.7588 34.8805 11.8329 34.7428 11.9192 34.6133C12.01 34.4772 12.1143 34.3502 12.2322 34.2322C12.3502 34.1143 12.4772 34.01 12.6132 33.9192C12.7428 33.8329 12.8805 33.7588 13.0264 33.6971C13.1751 33.6342 13.3269 33.5864 13.4819 33.5536C13.6508 33.5179 13.8235 33.5 14 33.5L16 33.5ZM25.5181 33.5536C25.3492 33.5179 25.1765 33.5 25 33.5L23 33.5C22.8235 33.5 22.6508 33.5179 22.4819 33.5536C22.3269 33.5864 22.1751 33.6342 22.0264 33.6971C21.8805 33.7588 21.7428 33.8329 21.6132 33.9192C21.4772 34.01 21.3502 34.1143 21.2322 34.2322C21.1143 34.3502 21.01 34.4772 20.9192 34.6133C20.8329 34.7428 20.7588 34.8805 20.6971 35.0264C20.6342 35.1751 20.5864 35.3269 20.5536 35.4819C20.5179 35.6508 20.5 35.8235 20.5 36L20.5 38C20.5 38.1765 20.5179 38.3492 20.5536 38.5181C20.5864 38.6731 20.6342 38.8249 20.6971 38.9736C20.7588 39.1195 20.8329 39.2572 20.9192 39.3867C21.01 39.5228 21.1143 39.6498 21.2322 39.7678C21.3502 39.8857 21.4772 39.99 21.6133 40.0808C21.7428 40.1671 21.8805 40.2412 22.0264 40.3029C22.1751 40.3658 22.3269 40.4136 22.4819 40.4464C22.6508 40.4821 22.8235 40.5 23 40.5L25 40.5C25.1765 40.5 25.3492 40.4821 25.5181 40.4464C25.6731 40.4136 25.8249 40.3658 25.9736 40.3029C26.1195 40.2412 26.2572 40.1671 26.3868 40.0808C26.5228 39.99 26.6498 39.8857 26.7678 39.7678C26.8857 39.6498 26.99 39.5228 27.0808 39.3867C27.1671 39.2572 27.2412 39.1195 27.3029 38.9736C27.3658 38.8249 27.4136 38.6731 27.4464 38.5181C27.4821 38.3492 27.5 38.1765 27.5 38L27.5 36C27.5 35.8235 27.4821 35.6508 27.4464 35.4819C27.4136 35.3269 27.3658 35.1751 27.3029 35.0264C27.2412 34.8805 27.1671 34.7428 27.0808 34.6132C26.99 34.4772 26.8857 34.3502 26.7678 34.2322C26.6498 34.1143 26.5228 34.01 26.3867 33.9192C26.2572 33.8329 26.1195 33.7588 25.9736 33.6971C25.8249 33.6342 25.6731 33.5864 25.5181 33.5536ZM34 33.5C34.1765 33.5 34.3492 33.5179 34.5181 33.5536C34.6731 33.5864 34.8249 33.6342 34.9736 33.6971C35.1195 33.7588 35.2572 33.8329 35.3867 33.9192C35.5228 34.01 35.6498 34.1143 35.7678 34.2322C35.8857 34.3502 35.99 34.4772 36.0808 34.6132C36.1671 34.7428 36.2412 34.8805 36.3029 35.0264C36.3658 35.1751 36.4136 35.3269 36.4464 35.4819C36.4821 35.6508 36.5 35.8235 36.5 36L36.5 38C36.5 38.1765 36.4821 38.3492 36.4464 38.5181C36.4136 38.6731 36.3658 38.8249 36.3029 38.9736C36.2412 39.1195 36.1671 39.2572 36.0808 39.3867C35.99 39.5228 35.8857 39.6498 35.7678 39.7678C35.6498 39.8857 35.5228 39.99 35.3868 40.0808C35.2572 40.1671 35.1195 40.2412 34.9736 40.3029C34.8249 40.3658 34.6731 40.4136 34.5181 40.4464C34.3492 40.4821 34.1765 40.5 34 40.5L32 40.5C31.8235 40.5 31.6508 40.4821 31.4819 40.4464C31.3269 40.4136 31.1751 40.3658 31.0264 40.3029C30.8805 40.2412 30.7428 40.1671 30.6133 40.0808C30.4772 39.99 30.3502 39.8857 30.2322 39.7678C30.1143 39.6498 30.01 39.5228 29.9192 39.3867C29.8329 39.2572 29.7588 39.1195 29.6971 38.9736C29.6342 38.8249 29.5864 38.6731 29.5536 38.5181C29.5179 38.3492 29.5 38.1765 29.5 38L29.5 36C29.5 35.8235 29.5179 35.6508 29.5536 35.4819C29.5864 35.3269 29.6342 35.1751 29.6971 35.0264C29.7588 34.8805 29.8329 34.7428 29.9192 34.6133C30.01 34.4772 30.1143 34.3502 30.2322 34.2322C30.3502 34.1143 30.4772 34.01 30.6132 33.9192C30.7428 33.8329 30.8805 33.7588 31.0264 33.6971C31.1751 33.6342 31.3269 33.5864 31.4819 33.5536C31.6508 33.5179 31.8235 33.5 32 33.5L34 33.5ZM14.5 36.5L15.5 36.5L15.5 37.5L14.5 37.5L14.5 36.5ZM24.5 36.5L23.5 36.5L23.5 37.5L24.5 37.5L24.5 36.5ZM32.5 36.5L33.5 36.5L33.5 37.5L32.5 37.5L32.5 36.5Z" fill="var(--tiny-second-color, #aeaeAE)" fill-rule="evenodd"/>
</svg>