<svg viewBox="0 0 48 48" xmlns="http://www.w3.org/2000/svg" xmlns:xlink="http://www.w3.org/1999/xlink" width="48.000000" height="48.000000">
  <path id="减去顶层" d="M31 4L17 4C15.88 4 15 4.88 15 6L15 8C15 9.1 15.88 10 17 10L31 10C32.1 10 33 9.1 33 8L33 6C33 4.88 32.1 4 31 4ZM12 7C11.9342 7.1974 11.955 7.41212 11.9769 7.63846C11.9883 7.7561 12 7.87688 12 8L12 9C12 11.2 13.78 13 16 13L32 13C34.2 13 36 11.2 36 9L36 8C36 7.64 35.94 7.3 35.86 7C39.18 7 42 9.68 42 13L42 38C42 41.3 39.3 44 36 44L12 44C8.68 44 6 41.3 6 38L6 13C6 9.68 8.68 7 12 7ZM18 17C18 16.4477 17.5523 16 17 16L13 16C12.4477 16 12 16.4477 12 17L12 21C12 21.5523 12.4477 22 13 22L17 22C17.5523 22 18 21.5523 18 21L18 17ZM26 16C26.5523 16 27 16.4477 27 17L27 21C27 21.5523 26.5523 22 26 22L22 22C21.4477 22 21 21.5523 21 21L21 17C21 16.4477 21.4477 16 22 16L26 16ZM35 16C35.5523 16 36 16.4477 36 17L36 21C36 21.5523 35.5523 22 35 22L31 22C30.4477 22 30 21.5523 30 21L30 17C30 16.4477 30.4477 16 31 16L35 16ZM18 26C18 25.4477 17.5523 25 17 25L13 25C12.4477 25 12 25.4477 12 26L12 30C12 30.5523 12.4477 31 13 31L17 31C17.5523 31 18 30.5523 18 30L18 26ZM26 25C26.5523 25 27 25.4477 27 26L27 30C27 30.5523 26.5523 31 26 31L22 31C21.4477 31 21 30.5523 21 30L21 26C21 25.4477 21.4477 25 22 25L26 25ZM35 25C35.5523 25 36 25.4477 36 26L36 30C36 30.5523 35.5523 31 35 31L31 31C30.4477 31 30 30.5523 30 30L30 26C30 25.4477 30.4477 25 31 25L35 25ZM17 34C17.5523 34 18 34.4477 18 35L18 39C18 39.5523 17.5523 40 17 40L13 40C12.4477 40 12 39.5523 12 39L12 35C12 34.4477 12.4477 34 13 34L17 34ZM26 34C26.5523 34 27 34.4477 27 35L27 39C27 39.5523 26.5523 40 26 40L22 40C21.4477 40 21 39.5523 21 39L21 35C21 34.4477 21.4477 34 22 34L26 34ZM35 34C35.5523 34 36 34.4477 36 35L36 39C36 39.5523 35.5523 40 35 40L31 40C30.4477 40 30 39.5523 30 39L30 35C30 34.4477 30.4477 34 31 34L35 34Z" fill="var(--tiny-first-color, #191919)" fill-rule="evenodd"/>
  <path id="合并" d="M17 16C17.5523 16 18 16.4477 18 17L18 21C18 21.5523 17.5523 22 17 22L13 22C12.4477 22 12 21.5523 12 21L12 17C12 16.4477 12.4477 16 13 16L17 16ZM27 17C27 16.4477 26.5523 16 26 16L22 16C21.4477 16 21 16.4477 21 17L21 21C21 21.5523 21.4477 22 22 22L26 22C26.5523 22 27 21.5523 27 21L27 17ZM36 17C36 16.4477 35.5523 16 35 16L31 16C30.4477 16 30 16.4477 30 17L30 21C30 21.5523 30.4477 22 31 22L35 22C35.5523 22 36 21.5523 36 21L36 17ZM17 25C17.5523 25 18 25.4477 18 26L18 30C18 30.5523 17.5523 31 17 31L13 31C12.4477 31 12 30.5523 12 30L12 26C12 25.4477 12.4477 25 13 25L17 25ZM27 26C27 25.4477 26.5523 25 26 25L22 25C21.4477 25 21 25.4477 21 26L21 30C21 30.5523 21.4477 31 22 31L26 31C26.5523 31 27 30.5523 27 30L27 26ZM36 26C36 25.4477 35.5523 25 35 25L31 25C30.4477 25 30 25.4477 30 26L30 30C30 30.5523 30.4477 31 31 31L35 31C35.5523 31 36 30.5523 36 30L36 26ZM18 35C18 34.4477 17.5523 34 17 34L13 34C12.4477 34 12 34.4477 12 35L12 39C12 39.5523 12.4477 40 13 40L17 40C17.5523 40 18 39.5523 18 39L18 35ZM27 35C27 34.4477 26.5523 34 26 34L22 34C21.4477 34 21 34.4477 21 35L21 39C21 39.5523 21.4477 40 22 40L26 40C26.5523 40 27 39.5523 27 39L27 35ZM36 35C36 34.4477 35.5523 34 35 34L31 34C30.4477 34 30 34.4477 30 35L30 39C30 39.5523 30.4477 40 31 40L35 40C35.5523 40 36 39.5523 36 39L36 35Z" fill="var(--tiny-second-color, #aeaeAE)" fill-rule="evenodd"/>
</svg>