<svg viewBox="0 0 48 48" xmlns="http://www.w3.org/2000/svg" xmlns:xlink="http://www.w3.org/1999/xlink" width="48.000000" height="48.000000">
  <path id="path" d="M33.84 6.3999C33.5867 5.6999 33.1533 5.1266 32.54 4.67993C31.9333 4.2266 31.2466 4 30.48 4L17.52 4C16.7534 4 16.0667 4.2266 15.46 4.67993C14.8467 5.1266 14.4133 5.6999 14.16 6.3999L12.48 6.3999C11.3266 6.3999 10.2533 6.69671 9.26001 7.29004C8.27334 7.88337 7.48335 8.68327 6.89001 9.68994C6.29668 10.6966 6 11.7766 6 12.9299L6 37.96C6 39.1066 6.29668 40.1766 6.89001 41.1699C7.48335 42.1633 8.27334 42.9567 9.26001 43.55C10.2533 44.1434 11.3266 44.4399 12.48 44.4399L35.52 44.4399C36.6734 44.4399 37.7467 44.1434 38.74 43.55C39.7267 42.9567 40.5167 42.1633 41.11 41.1699C41.7033 40.1766 42 39.1066 42 37.96L42 12.9299C42 11.7766 41.7033 10.6966 41.11 9.68994C40.5167 8.68327 39.7267 7.88337 38.74 7.29004C37.7467 6.69671 36.6734 6.3999 35.52 6.3999L33.84 6.3999ZM16.99 7.51001C16.99 7.35001 17.04 7.22012 17.14 7.12012C17.2333 7.02678 17.36 6.97998 17.52 6.97998L30.48 6.97998C30.64 6.97998 30.7667 7.02678 30.86 7.12012C30.96 7.22012 31.01 7.35001 31.01 7.51001L31.01 10.9199C31.01 11.0466 30.96 11.1567 30.86 11.25C30.7667 11.35 30.64 11.3999 30.48 11.3999L17.52 11.3999C17.1667 11.3999 16.99 11.2399 16.99 10.9199L16.99 7.51001ZM39.02 37.96C39.02 38.92 38.67 39.7433 37.97 40.4299C37.2633 41.1166 36.4467 41.46 35.52 41.46L12.48 41.46C11.52 41.46 10.7034 41.1166 10.03 40.4299C9.3567 39.7433 9.02002 38.92 9.02002 37.96L9.02002 12.9299C9.02002 11.9699 9.3567 11.1466 10.03 10.46C10.7034 9.77329 11.52 9.42993 12.48 9.42993L14.02 9.42993L14.02 10.9199C14.02 11.8466 14.3633 12.6601 15.05 13.3601C15.7367 14.0668 16.56 14.4199 17.52 14.4199L30.48 14.4199C31.44 14.4199 32.2633 14.0668 32.95 13.3601C33.6367 12.6601 33.98 11.8466 33.98 10.9199L33.98 9.42993L35.52 9.42993C36.4467 9.42993 37.2633 9.77329 37.97 10.46C38.67 11.1466 39.02 11.9699 39.02 12.9299L39.02 37.96Z" fill="var(--tiny-first-color, #191919)" fill-rule="nonzero"/>
  <path id="合并" d="M31.6977 15.6097L31.6978 15.6097C31.9873 15.6728 32.2708 15.763 32.5485 15.8804C32.8254 15.9976 33.0871 16.1377 33.3335 16.3008C33.6018 16.4785 33.8521 16.6834 34.0844 16.9157C34.3166 17.1479 34.5215 17.3982 34.6992 17.6665L34.6992 17.6666C34.8623 17.913 35.0024 18.1746 35.1196 18.4515C35.237 18.7292 35.3272 19.0128 35.3903 19.3022C35.4634 19.638 35.5 19.9817 35.5 20.3333L35.5 38.1848C35.5 38.3879 35.4697 38.5809 35.409 38.7639L35.409 38.7639C35.3531 38.9326 35.2715 39.0927 35.1641 39.2443C35.0642 39.3852 34.9496 39.5078 34.8203 39.6122C34.6835 39.7225 34.5303 39.8123 34.3605 39.8817C34.1908 39.9512 34.0185 39.9944 33.8436 40.0115C33.6782 40.0277 33.5105 40.0205 33.3406 39.9899C33.1577 39.957 32.9873 39.9 32.8292 39.8188C32.6577 39.7307 32.5008 39.6142 32.3586 39.4693L30.6762 37.756L28.9925 39.4562C28.8762 39.5738 28.7504 39.6769 28.6152 39.7657C28.4901 39.8478 28.3569 39.9177 28.2157 39.9753C28.0773 40.0316 27.9362 40.0742 27.7923 40.1029C27.6419 40.133 27.4885 40.1479 27.3321 40.1478C27.1757 40.1476 27.0223 40.1323 26.872 40.102C26.7282 40.0729 26.5872 40.0301 26.449 39.9734C26.3078 39.9155 26.1748 39.8454 26.0498 39.763C25.9148 39.6739 25.7893 39.5705 25.6732 39.4528L24 37.756L22.3281 39.4515C22.2118 39.5694 22.086 39.673 21.9507 39.7622C21.8256 39.8446 21.6924 39.9148 21.5511 39.9726C21.4127 40.0293 21.2715 40.0721 21.1275 40.1011C20.977 40.1313 20.8233 40.1465 20.6667 40.1465C20.51 40.1465 20.3564 40.1313 20.2058 40.1011C20.0618 40.0721 19.9206 40.0293 19.7822 39.9726C19.6409 39.9148 19.5077 39.8446 19.3826 39.7622C19.2473 39.673 19.1216 39.5694 19.0053 39.4515L17.3333 37.756L15.6387 39.4745C15.4963 39.6189 15.3394 39.735 15.1679 39.8227C15.0098 39.9035 14.8394 39.9603 14.6567 39.9929C14.4868 40.0232 14.3192 40.0301 14.154 40.0137C13.9793 39.9964 13.8072 39.953 13.6377 39.8835C13.4682 39.8139 13.3151 39.724 13.1786 39.6137C13.0494 39.5093 12.935 39.3867 12.8353 39.2459C12.7281 39.0943 12.6466 38.9343 12.5908 38.7658C12.5303 38.5829 12.5 38.3901 12.5 38.1872L12.5 20.3333C12.5 19.9817 12.5366 19.6379 12.6097 19.3022C12.6728 19.0127 12.763 18.7292 12.8804 18.4515C12.9976 18.1746 13.1377 17.913 13.3008 17.6665C13.4785 17.3982 13.6834 17.1479 13.9157 16.9157C14.1479 16.6834 14.3982 16.4785 14.6665 16.3008C14.9129 16.1377 15.1746 15.9976 15.4515 15.8804C15.7292 15.763 16.0127 15.6728 16.3022 15.6097C16.6379 15.5366 16.9817 15.5 17.3333 15.5L30.6667 15.5C31.0183 15.5 31.362 15.5366 31.6977 15.6097ZM30.6667 18.5L17.3333 18.5C17.1844 18.5 17.0395 18.5171 16.8988 18.5512C16.8041 18.5742 16.7112 18.605 16.6202 18.6435C16.5229 18.6846 16.4304 18.7334 16.3429 18.7897C16.2333 18.8602 16.1313 18.9426 16.037 19.037C15.9426 19.1313 15.8602 19.2333 15.7897 19.3429C15.7334 19.4304 15.6846 19.5229 15.6435 19.6202C15.605 19.7112 15.5742 19.8041 15.5512 19.8988C15.5171 20.0395 15.5 20.1844 15.5 20.3333L15.5 35.3426L15.6719 35.1682C15.7882 35.0503 15.914 34.9467 16.0492 34.8576C16.1743 34.7751 16.3076 34.7049 16.4489 34.6471C16.5873 34.5904 16.7285 34.5476 16.8725 34.5187C17.023 34.4884 17.1767 34.4732 17.3333 34.4732C17.49 34.4732 17.6436 34.4884 17.7942 34.5187C17.9382 34.5476 18.0794 34.5904 18.2178 34.6471C18.3591 34.7049 18.4923 34.7751 18.6174 34.8576C18.7527 34.9467 18.8785 35.0503 18.9947 35.1682L20.6667 36.8637L22.3386 35.1682C22.4549 35.0503 22.5806 34.9468 22.7159 34.8576C22.841 34.7751 22.9742 34.7049 23.1156 34.6471C23.254 34.5904 23.3952 34.5476 23.5391 34.5187C23.6897 34.4884 23.8433 34.4732 24 34.4732C24.1567 34.4732 24.3103 34.4884 24.4608 34.5187C24.6048 34.5476 24.746 34.5904 24.8844 34.6471C25.0257 34.7049 25.159 34.7751 25.2841 34.8576C25.4193 34.9467 25.5451 35.0503 25.6614 35.1682L27.3356 36.866L29.0202 35.1647C29.1368 35.047 29.2628 34.9438 29.3982 34.8549C29.5235 34.7727 29.6569 34.7028 29.7983 34.6452C29.9368 34.5889 30.078 34.5464 30.222 34.5177C30.3727 34.4877 30.5264 34.4729 30.6831 34.4732C30.8398 34.4736 30.9934 34.489 31.144 34.5197C31.2879 34.5489 31.4289 34.592 31.5672 34.649C31.7084 34.7071 31.8415 34.7776 31.9664 34.8603C32.1015 34.9498 32.227 35.0536 32.3431 35.1717L32.5 35.3315L32.5 20.3333C32.5 20.1843 32.4829 20.0395 32.4488 19.8988C32.4258 19.804 32.395 19.7112 32.3565 19.6202C32.3154 19.5229 32.2667 19.4305 32.2103 19.3429L32.2103 19.3429C32.1398 19.2333 32.0573 19.1313 31.963 19.037C31.8687 18.9427 31.7667 18.8602 31.6571 18.7897C31.5696 18.7334 31.4771 18.6846 31.3798 18.6435C31.2888 18.605 31.1959 18.5742 31.1012 18.5512C30.9605 18.5171 30.8157 18.5 30.6667 18.5ZM30 20.5L18 20.5C17.16 20.5 16.5 21.16 16.5 22C16.5 22.84 17.16 23.5 18 23.5L30 23.5C30.84 23.5 31.5 22.84 31.5 22C31.5 21.16 30.84 20.5 30 20.5ZM30 25.5L18 25.5C17.16 25.5 16.5 26.16 16.5 27C16.5 27.84 17.16 28.5 18 28.5L30 28.5C30.84 28.5 31.5 27.84 31.5 27C31.5 26.16 30.84 25.5 30 25.5ZM18 30.5L30 30.5C30.84 30.5 31.5 31.16 31.5 32C31.5 32.84 30.84 33.5 30 33.5L18 33.5C17.16 33.5 16.5 32.84 16.5 32C16.5 31.16 17.16 30.5 18 30.5Z" fill="var(--tiny-second-color, #aeaeAE)" fill-rule="evenodd"/>
</svg>