<svg viewBox="0 0 48 48" xmlns="http://www.w3.org/2000/svg" xmlns:xlink="http://www.w3.org/1999/xlink" width="48.000000" height="48.000000" fill="none">
  <path id="形状结合" d="M24 4C28.4341 4 32.6516 5.44838 36.1066 8.07848C36.7657 8.58028 36.8933 9.52142 36.3915 10.1806C35.8897 10.8397 34.9486 10.9673 34.2894 10.4655C31.3523 8.22962 27.7718 7 24 7C14.6117 7 7 14.6111 7 24C7 33.3876 14.6124 41 24 41C33.3889 41 41 33.3883 41 24C41 20.2292 39.7717 16.6507 37.5362 13.7122C37.0346 13.0529 37.1625 12.1118 37.8218 11.6102C38.4811 11.1086 39.4222 11.2365 39.9238 11.8958C42.5532 15.352 44 19.5672 44 24C44 35.0451 35.0458 44 24 44C12.9556 44 4 35.0444 4 24C4 12.9542 12.9549 4 24 4ZM24 12.5C24.7594 12.5 25.387 13.0643 25.4863 13.7965L25.5 14L25.5 22.5L34 22.5C34.8284 22.5 35.5 23.1716 35.5 24C35.5 24.7594 34.9357 25.387 34.2035 25.4863L34 25.5L25.5 25.5L25.5 34C25.5 34.8284 24.8284 35.5 24 35.5C23.2406 35.5 22.613 34.9357 22.5137 34.2035L22.5 34L22.5 25.5L14 25.5C13.1716 25.5 12.5 24.8284 12.5 24C12.5 23.2406 13.0643 22.613 13.7965 22.5137L14 22.5L22.5 22.5L22.5 14C22.5 13.1716 23.1716 12.5 24 12.5Z" fill="var(--tiny-first-color)" fill-rule="evenodd"/>
  <path id="形状结合" d="M24 12.5C24.7594 12.5 25.387 13.0643 25.4863 13.7965L25.5 14L25.5 22.5L34 22.5C34.8284 22.5 35.5 23.1716 35.5 24C35.5 24.7594 34.9357 25.387 34.2035 25.4863L34 25.5L25.5 25.5L25.5 34C25.5 34.8284 24.8284 35.5 24 35.5C23.2406 35.5 22.613 34.9357 22.5137 34.2035L22.5 34L22.5 25.5L14 25.5C13.1716 25.5 12.5 24.8284 12.5 24C12.5 23.2406 13.0643 22.613 13.7965 22.5137L14 22.5L22.5 22.5L22.5 14C22.5 13.1716 23.1716 12.5 24 12.5Z" fill="var(--tiny-second-color)" fill-rule="evenodd"/>
</svg>