<svg viewBox="0 0 48 48" xmlns="http://www.w3.org/2000/svg" xmlns:xlink="http://www.w3.org/1999/xlink" width="48.000000" height="48.000000" fill="none">
  <path id="形状结合" d="M24 6.5C24.7594 6.5 25.387 7.06431 25.4863 7.79646L25.5 8L25.5 22.5L40 22.5C40.8284 22.5 41.5 23.1716 41.5 24C41.5 24.7594 40.9357 25.387 40.2035 25.4863L40 25.5L25.5 25.5L25.5 40C25.5 40.8284 24.8284 41.5 24 41.5C23.2406 41.5 22.613 40.9357 22.5137 40.2035L22.5 40L22.5 25.5L8 25.5C7.17157 25.5 6.5 24.8284 6.5 24C6.5 23.2406 7.06431 22.613 7.79646 22.5137L8 22.5L22.5 22.5L22.5 8C22.5 7.17157 23.1716 6.5 24 6.5Z" fill="var(--tiny-first-color)" fill-rule="evenodd"/>
</svg>