<svg viewBox="0 0 48 48" xmlns="http://www.w3.org/2000/svg" xmlns:xlink="http://www.w3.org/1999/xlink" width="48.000000" height="48.000000">
  <path id="形状结合" d="M24 4C35.028 4 44 12.972 44 24C44 35.028 35.028 44 24 44C12.972 44 4 35.028 4 24C4 12.972 12.972 4 24 4ZM24.04 12.5078C23.212 12.5078 22.54 13.1798 22.54 14.0078L22.54 22.5078L14.04 22.5078C13.212 22.5078 12.54 23.1798 12.54 24.0078C12.54 24.8358 13.212 25.5078 14.04 25.5078L22.54 25.5078L22.54 34.0078C22.54 34.8358 23.212 35.5078 24.04 35.5078C24.868 35.5078 25.54 34.8358 25.54 34.0078L25.54 25.5078L34.04 25.5078C34.868 25.5078 35.54 24.8358 35.54 24.0078C35.54 23.1798 34.868 22.5078 34.04 22.5078L25.54 22.5078L25.54 14.0078C25.54 13.1798 24.868 12.5078 24.04 12.5078Z" fill="var(--tiny-first-color)" fill-rule="evenodd"/>
  <path id="形状结合" d="M24.04 12.5078C23.212 12.5078 22.54 13.1798 22.54 14.0078L22.54 22.5078L14.04 22.5078C13.212 22.5078 12.54 23.1798 12.54 24.0078C12.54 24.8358 13.212 25.5078 14.04 25.5078L22.54 25.5078L22.54 34.0078C22.54 34.8358 23.212 35.5078 24.04 35.5078C24.868 35.5078 25.54 34.8358 25.54 34.0078L25.54 25.5078L34.04 25.5078C34.868 25.5078 35.54 24.8358 35.54 24.0078C35.54 23.1798 34.868 22.5078 34.04 22.5078L25.54 22.5078L25.54 14.0078C25.54 13.1798 24.868 12.5078 24.04 12.5078Z" fill="var(--tiny-second-color)" fill-rule="evenodd"/>
</svg>