<svg viewBox="0 0 48 48" xmlns="http://www.w3.org/2000/svg" xmlns:xlink="http://www.w3.org/1999/xlink" width="48.000000" height="48.000000">
  <path id="减去顶层" d="M30 3.5L16 3.5C14.88 3.5 14 4.38 14 5.5L14 7.5C14 8.6 14.88 9.5 16 9.5L30 9.5C31.1 9.5 32 8.6 32 7.5L32 5.5C32 4.38 31.1 3.5 30 3.5ZM11 6.5C10.9342 6.6974 10.955 6.91212 10.9769 7.13846C10.9883 7.2561 11 7.37688 11 7.5L11 8.5C11 10.7 12.78 12.5 15 12.5L31 12.5C33.2 12.5 35 10.7 35 8.5L35 7.5C35 7.14 34.94 6.8 34.86 6.5C38.18 6.5 41 9.18 41 12.5L41 23.7523C38.7941 22.0278 36.0171 21 33 21C32.4001 21 31.8096 21.0406 31.2313 21.1193C31.3459 21.0606 31.4523 20.9821 31.5506 20.8839C31.6726 20.7618 31.7642 20.6272 31.8252 20.4799C31.8862 20.3325 31.9167 20.1726 31.9167 20C31.9167 19.8246 31.8814 19.6567 31.8107 19.4962C31.7754 19.416 31.7327 19.341 31.6827 19.2713C31.6327 19.2016 31.5753 19.1371 31.5107 19.0779L27.8687 15.7446C27.3523 15.272 26.5752 15.3063 26.1026 15.8227C25.63 16.3391 25.6644 17.1161 26.1808 17.5888L27.4495 18.75L14 18.75C13.3 18.75 12.75 19.3 12.75 20C12.75 20.7 13.3 21.25 14 21.25L30.45 21.25C27.9107 21.755 25.6379 22.9997 23.8656 24.75L14.3333 24.75C14.1607 24.75 14.0008 24.7805 13.8534 24.8415L13.8533 24.8416C13.706 24.9026 13.5714 24.9941 13.4494 25.1161C13.3274 25.2381 13.2359 25.3728 13.1748 25.5201C13.1138 25.6675 13.0833 25.8274 13.0833 26C13.0833 26.1754 13.1186 26.3433 13.1893 26.5038C13.26 26.6643 13.36 26.8037 13.4893 26.9221L17.1313 30.2554C17.6477 30.728 18.4248 30.6937 18.8974 30.1773C19.37 29.6609 19.3356 28.8839 18.8192 28.4112L17.5505 27.25L21.8875 27.25C20.6899 29.2175 20 31.5282 20 34C20 37.749 21.587 41.1274 24.1258 43.5L11 43.5C7.68 43.5 5 40.8 5 37.5L5 12.5C5 9.18 7.68 6.5 11 6.5Z" fill="var(--tiny-first-color, #191919)" fill-rule="evenodd"/>
  <path id="减去顶层" d="M22 34C22 27.92 26.94 23 33 23C39.08 23 44 27.92 44 34C44 40.06 39.08 45 33 45C26.94 45 22 40.06 22 34ZM32.9578 28.6017C32.6459 28.5339 32.3266 28.5 32 28.5C31.6734 28.5 31.3541 28.5339 31.0422 28.6017C30.7719 28.6604 30.5071 28.7446 30.2479 28.8542C29.9897 28.9635 29.7458 29.0941 29.5161 29.2463L29.5158 29.2465C29.2664 29.4117 29.0338 29.6022 28.818 29.818C28.6021 30.0339 28.4116 30.2666 28.2463 30.516L28.2463 30.516C28.0941 30.7458 27.9635 30.9897 27.8542 31.2479C27.7446 31.5071 27.6604 31.7719 27.6017 32.0422L27.6016 32.0425C27.5339 32.3543 27.5 32.6735 27.5 33C27.5 33.3266 27.5339 33.6459 27.6017 33.9578C27.6604 34.2281 27.7446 34.4929 27.8542 34.7521C27.9635 35.0103 28.0941 35.2542 28.2463 35.4839L28.2463 35.484C28.4116 35.7334 28.6021 35.9661 28.818 36.182C29.0339 36.3979 29.2666 36.5884 29.516 36.7537C29.7458 36.9058 29.9897 37.0365 30.2479 37.1458C30.5071 37.2554 30.7719 37.3396 31.0422 37.3983C31.3541 37.4661 31.6734 37.5 32 37.5C32.3266 37.5 32.6459 37.4661 32.9578 37.3983C33.2281 37.3396 33.4929 37.2554 33.7521 37.1458C33.8156 37.1189 33.8782 37.0907 33.94 37.0613L35.9393 39.0607C36.5333 39.6547 37.4667 39.6547 38.0606 39.0607C38.6546 38.4667 38.6546 37.5334 38.0607 36.9394L36.0613 34.94C36.0907 34.8782 36.1189 34.8156 36.1458 34.7521C36.2554 34.4929 36.3396 34.2281 36.3983 33.9578C36.4661 33.6459 36.5 33.3266 36.5 33C36.5 32.6734 36.4661 32.3541 36.3983 32.0422C36.3396 31.7719 36.2554 31.5071 36.1458 31.2479C36.0365 30.9897 35.9058 30.7458 35.7537 30.516C35.5884 30.2666 35.3979 30.0339 35.182 29.818C34.9661 29.6021 34.7334 29.4116 34.484 29.2464L34.484 29.2463L34.484 29.2463C34.2542 29.0941 34.0103 28.9635 33.7521 28.8542C33.4929 28.7446 33.2281 28.6604 32.9578 28.6017L32.9578 28.6017ZM31.6388 31.5432C31.7557 31.5144 31.876 31.5 32 31.5C32.124 31.5 32.2443 31.5144 32.3612 31.5432C32.4367 31.5619 32.5108 31.5866 32.5834 31.6173C32.662 31.6505 32.7367 31.6898 32.8075 31.7352C32.8983 31.7933 32.9827 31.8613 33.0607 31.9393C33.1386 32.0173 33.2067 32.1017 33.2648 32.1924C33.3102 32.2633 33.3495 32.338 33.3827 32.4166C33.4134 32.4892 33.4381 32.5633 33.4568 32.6388C33.4856 32.7557 33.5 32.8761 33.5 33C33.5 33.1239 33.4856 33.2443 33.4568 33.3612C33.4381 33.4367 33.4134 33.5108 33.3827 33.5834C33.3495 33.662 33.3102 33.7367 33.2648 33.8076C33.2067 33.8983 33.1387 33.9827 33.0607 34.0607C32.9827 34.1387 32.8983 34.2067 32.8076 34.2648C32.7367 34.3102 32.662 34.3495 32.5834 34.3827C32.5108 34.4134 32.4367 34.4381 32.3612 34.4568C32.2443 34.4856 32.1239 34.5 32 34.5C31.8761 34.5 31.7557 34.4856 31.6388 34.4568C31.5633 34.4381 31.4892 34.4134 31.4166 34.3827C31.338 34.3495 31.2633 34.3102 31.1924 34.2648C31.1017 34.2067 31.0173 34.1387 30.9393 34.0607C30.8613 33.9827 30.7933 33.8983 30.7352 33.8075C30.6898 33.7367 30.6505 33.662 30.6173 33.5834C30.5866 33.5108 30.5619 33.4368 30.5432 33.3612C30.5144 33.2444 30.5 33.124 30.5 33C30.5 32.8761 30.5144 32.7557 30.5432 32.6389L30.5432 32.6388C30.5619 32.5633 30.5866 32.4892 30.6173 32.4166C30.6505 32.338 30.6898 32.2633 30.7352 32.1924C30.7933 32.1017 30.8613 32.0173 30.9393 31.9393C31.0173 31.8613 31.1017 31.7933 31.1924 31.7352C31.2633 31.6898 31.338 31.6505 31.4166 31.6173C31.4892 31.5866 31.5633 31.5619 31.6388 31.5432Z" fill="var(--tiny-second-color, #aeaeAE)" fill-rule="evenodd"/>
</svg>