<svg viewBox="0 0 48 48" xmlns="http://www.w3.org/2000/svg" xmlns:xlink="http://www.w3.org/1999/xlink" width="48.000000" height="48.000000">
  <path id="减去顶层" d="M30.54 4.17253C31.1533 4.61434 31.5867 5.18141 31.84 5.87379L33.52 5.87379C34.6734 5.87379 35.7467 6.16737 36.74 6.75425C37.7267 7.34113 38.5167 8.13233 39.11 9.12804C39.7033 10.1238 40 11.192 40 12.3328L40 23.0436C39.0794 22.4542 38.0795 21.9777 37.02 21.6335L37.02 12.3328C37.02 11.3832 36.67 10.5689 35.97 9.88968C35.2633 9.21049 34.4467 8.87086 33.52 8.87086L31.98 8.87086L31.98 10.3446C31.98 11.2612 31.6367 12.0659 30.95 12.7583C30.2633 13.4573 29.44 13.8066 28.48 13.8066L15.52 13.8066C14.56 13.8066 13.7367 13.4573 13.05 12.7583C12.3633 12.0659 12.02 11.2612 12.02 10.3446L12.02 8.87086L10.48 8.87086C9.51998 8.87086 8.70336 9.21049 8.03003 9.88968C7.3567 10.5689 7.02002 11.3832 7.02002 12.3328L7.02002 37.0905C7.02002 38.0401 7.3567 38.8544 8.03003 39.5336C8.70336 40.2128 9.51998 40.5524 10.48 40.5524L21.7697 40.5524C22.4097 41.647 23.2052 42.6396 24.1258 43.5L10.48 43.5C9.32665 43.5 8.25334 43.2067 7.26001 42.6198C6.27334 42.0329 5.48335 41.2481 4.89001 40.2656C4.29668 39.283 4 38.2247 4 37.0905L4 12.3328C4 11.192 4.29668 10.1238 4.89001 9.12804C5.48335 8.13233 6.27334 7.34113 7.26001 6.75425C8.25334 6.16737 9.32665 5.87379 10.48 5.87379L12.16 5.87379C12.4133 5.18141 12.8467 4.61434 13.46 4.17253C14.0667 3.72413 14.7534 3.5 15.52 3.5L28.48 3.5C29.2466 3.5 29.9333 3.72413 30.54 4.17253ZM22.2078 26.75C21.6842 27.5278 21.2426 28.3652 20.8951 29.25L16.5505 29.25L17.8192 30.4112C18.3356 30.8839 18.37 31.6609 17.8974 32.1773C17.4248 32.6937 16.6477 32.728 16.1313 32.2554L12.4893 28.9221C12.36 28.8037 12.26 28.6643 12.1893 28.5038C12.1186 28.3433 12.0833 28.1754 12.0833 28C12.0833 27.8274 12.1138 27.6675 12.1748 27.5201L12.175 27.5198C12.236 27.3726 12.3275 27.2381 12.4494 27.1161C12.5714 26.9941 12.706 26.9026 12.8533 26.8416L12.8534 26.8415C13.0008 26.7805 13.1607 26.75 13.3333 26.75L22.2078 26.75ZM30.9066 21.1677C29.6822 21.3659 28.5152 21.7351 27.4307 22.25L13 22.25C12.3 22.25 11.75 21.7 11.75 21C11.75 20.3 12.3 19.75 13 19.75L26.4495 19.75L25.1808 18.5888C24.6644 18.1161 24.63 17.3391 25.1026 16.8227C25.5752 16.3063 26.3523 16.272 26.8687 16.7446L30.5107 20.0779C30.5753 20.1371 30.6327 20.2016 30.6827 20.2713L30.6836 20.2726C30.7332 20.342 30.7756 20.4165 30.8107 20.4962C30.8814 20.6567 30.9167 20.8246 30.9167 21C30.9167 21.0573 30.9133 21.1132 30.9066 21.1677ZM15.14 6.58617C15.04 6.68509 14.99 6.81357 14.99 6.97182L14.99 10.3446C14.99 10.6612 15.1667 10.8194 15.52 10.8194L28.48 10.8194C28.64 10.8194 28.7667 10.77 28.86 10.6711C28.96 10.5788 29.01 10.4699 29.01 10.3446L29.01 6.97182C29.01 6.81357 28.96 6.68509 28.86 6.58617C28.7667 6.49386 28.64 6.44756 28.48 6.44756L15.52 6.44756C15.36 6.44756 15.2333 6.49386 15.14 6.58617Z" fill="var(--tiny-first-color, #191919)" fill-rule="evenodd"/>
  <path id="合并" d="M33 23C39.0751 23 44 27.9249 44 34C44 40.0751 39.0751 45 33 45C26.9249 45 22 40.0751 22 34C22 27.9249 26.9249 23 33 23ZM24.64 34C24.64 29.3829 28.3829 25.64 33 25.64C37.6171 25.64 41.36 29.3829 41.36 34C41.36 38.6171 37.6171 42.36 33 42.36C28.3829 42.36 24.64 38.6171 24.64 34ZM32.9578 28.6017C32.6459 28.5339 32.3266 28.5 32 28.5C31.6734 28.5 31.3541 28.5339 31.0422 28.6017C30.7719 28.6604 30.5071 28.7446 30.2479 28.8542C29.9897 28.9635 29.7458 29.0941 29.5161 29.2463L29.5158 29.2465C29.2664 29.4117 29.0338 29.6022 28.818 29.818C28.6021 30.0339 28.4116 30.2666 28.2463 30.516L28.2463 30.516C28.0941 30.7458 27.9635 30.9897 27.8542 31.2479C27.7446 31.5071 27.6604 31.7719 27.6017 32.0422L27.6016 32.0425C27.5339 32.3543 27.5 32.6735 27.5 33C27.5 33.3266 27.5339 33.6459 27.6017 33.9578C27.6604 34.2281 27.7446 34.4929 27.8542 34.7521C27.9635 35.0103 28.0941 35.2542 28.2463 35.4839L28.2463 35.484C28.4116 35.7334 28.6021 35.9661 28.818 36.182C29.0339 36.3979 29.2666 36.5884 29.516 36.7537C29.7458 36.9058 29.9897 37.0365 30.2479 37.1458C30.5071 37.2554 30.7719 37.3396 31.0422 37.3983C31.3541 37.4661 31.6734 37.5 32 37.5C32.3266 37.5 32.6459 37.4661 32.9578 37.3983C33.2281 37.3396 33.4929 37.2554 33.7521 37.1458C33.8156 37.1189 33.8782 37.0907 33.94 37.0613L35.9393 39.0607C36.5333 39.6547 37.4667 39.6547 38.0606 39.0607C38.6546 38.4667 38.6546 37.5334 38.0607 36.9394L36.0613 34.94C36.0907 34.8782 36.1189 34.8156 36.1458 34.7521C36.2554 34.4929 36.3396 34.2281 36.3983 33.9578C36.4661 33.6459 36.5 33.3266 36.5 33C36.5 32.6734 36.4661 32.3541 36.3983 32.0422C36.3396 31.7719 36.2554 31.5071 36.1458 31.2479C36.0365 30.9897 35.9058 30.7458 35.7537 30.516C35.5884 30.2666 35.3979 30.0339 35.182 29.818C34.9661 29.6021 34.7334 29.4116 34.484 29.2464L34.484 29.2463L34.484 29.2463C34.2542 29.0941 34.0103 28.9635 33.7521 28.8542C33.4929 28.7446 33.2281 28.6604 32.9578 28.6017L32.9578 28.6017ZM31.6388 31.5432C31.7557 31.5144 31.876 31.5 32 31.5C32.124 31.5 32.2443 31.5144 32.3612 31.5432C32.4367 31.5619 32.5108 31.5866 32.5834 31.6173C32.662 31.6505 32.7367 31.6898 32.8075 31.7352C32.8983 31.7933 32.9827 31.8613 33.0607 31.9393C33.1386 32.0173 33.2067 32.1017 33.2648 32.1924C33.3102 32.2633 33.3495 32.338 33.3827 32.4166C33.4134 32.4892 33.4381 32.5633 33.4568 32.6388C33.4856 32.7557 33.5 32.8761 33.5 33C33.5 33.1239 33.4856 33.2443 33.4568 33.3612C33.4381 33.4367 33.4134 33.5108 33.3827 33.5834C33.3495 33.662 33.3102 33.7367 33.2648 33.8076C33.2067 33.8983 33.1387 33.9827 33.0607 34.0607C32.9827 34.1387 32.8983 34.2067 32.8076 34.2648C32.7367 34.3102 32.662 34.3495 32.5834 34.3827C32.5108 34.4134 32.4367 34.4381 32.3612 34.4568C32.2443 34.4856 32.1239 34.5 32 34.5C31.8761 34.5 31.7557 34.4856 31.6388 34.4568C31.5633 34.4381 31.4892 34.4134 31.4166 34.3827C31.338 34.3495 31.2633 34.3102 31.1924 34.2648C31.1017 34.2067 31.0173 34.1387 30.9393 34.0607C30.8613 33.9827 30.7933 33.8983 30.7352 33.8075C30.6898 33.7367 30.6505 33.662 30.6173 33.5834C30.5866 33.5108 30.5619 33.4368 30.5432 33.3612C30.5144 33.2444 30.5 33.124 30.5 33C30.5 32.8761 30.5144 32.7557 30.5432 32.6389L30.5432 32.6388C30.5619 32.5633 30.5866 32.4892 30.6173 32.4166C30.6505 32.338 30.6898 32.2633 30.7352 32.1924C30.7933 32.1017 30.8613 32.0173 30.9393 31.9393C31.0173 31.8613 31.1017 31.7933 31.1924 31.7352C31.2633 31.6898 31.338 31.6505 31.4166 31.6173C31.4892 31.5866 31.5633 31.5619 31.6388 31.5432Z" fill="var(--tiny-second-color, #aeaeAE)" fill-rule="evenodd"/>
</svg>