<svg viewBox="0 0 48 48" xmlns="http://www.w3.org/2000/svg" xmlns:xlink="http://www.w3.org/1999/xlink" width="48.000000" height="48.000000">
  <path id="形状结合" d="M11.998 42C8.692 42 6 39.308 6 36.002L6 11.998C6 8.692 8.692 6 11.998 6L36.002 6C39.308 6 42 8.692 42 11.998C42 12.826 41.328 13.498 40.5 13.498C39.672 13.498 39 12.826 39 11.998C39 10.346 37.654 9 36.002 9L11.998 9C10.346 9 9 10.346 9 11.998L9 36.002C9 37.654 10.346 39 11.998 39L36.002 39C37.654 39 39 37.654 39 36.002L39 17.0126C39 16.1846 39.672 15.5126 40.5 15.5126C41.328 15.5126 42 16.1846 42 17.0126L42 36.002C42 39.308 39.308 42 36.002 42L11.998 42Z" fill="var(--tiny-first-color, #191919)" fill-rule="evenodd"/>
  <path id="形状结合(边框)" d="M18.3633 13.7858L18.3929 13.8521L19.706 16.7968C19.7177 16.8279 19.73 16.8588 19.7429 16.8894C19.768 16.9485 19.7953 17.0067 19.825 17.0638C19.8529 17.1176 19.8828 17.1701 19.9145 17.2215C19.9496 17.2783 19.987 17.3337 20.0267 17.3876C20.0665 17.4414 20.1083 17.4935 20.1522 17.5438C20.1919 17.5893 20.2333 17.6334 20.2764 17.6759C20.321 17.72 20.3672 17.7623 20.415 17.8027C20.4643 17.8444 20.5152 17.8841 20.5678 17.9219C20.6147 17.9556 20.6626 17.9876 20.7117 18.0178C20.7708 18.0543 20.8315 18.0882 20.8937 18.1196C20.9441 18.145 20.9953 18.1687 21.0473 18.1905C21.1124 18.2179 21.1787 18.2424 21.2461 18.2641C21.3063 18.2835 21.3671 18.3005 21.4284 18.3151C21.4905 18.3299 21.5532 18.3423 21.6164 18.3522C21.6867 18.3633 21.7573 18.3712 21.828 18.3761C21.884 18.3799 21.9401 18.3819 21.9963 18.3819L26.0037 18.3819C26.0675 18.3819 26.1311 18.3794 26.1945 18.3744C26.2577 18.3695 26.3206 18.3621 26.3833 18.3523C26.4469 18.3423 26.5099 18.3299 26.5723 18.315C26.6335 18.3004 26.6941 18.2834 26.7541 18.264C26.8087 18.2465 26.8625 18.2271 26.9155 18.2058C26.9803 18.1798 27.044 18.151 27.1065 18.1195C27.1578 18.0936 27.2081 18.066 27.2573 18.0367C27.3172 18.001 27.3755 17.9627 27.4324 17.9219C27.4839 17.8848 27.5338 17.8459 27.5822 17.8052C27.6309 17.764 27.6781 17.7209 27.7237 17.6759C27.7694 17.6307 27.8133 17.5839 27.8552 17.5354C27.8963 17.4878 27.9357 17.4386 27.9731 17.3878C28.0173 17.3279 28.0586 17.2662 28.0969 17.2029C28.1245 17.1574 28.1505 17.111 28.1751 17.0637C28.2031 17.0097 28.2291 16.9547 28.253 16.8989C28.2675 16.8652 28.2811 16.8312 28.294 16.7968L29.6367 13.7858L29.6598 13.7169C29.7018 13.591 29.7334 13.4634 29.7544 13.3341C29.7753 13.2054 29.7857 13.075 29.7857 12.9429C29.7857 12.8871 29.7838 12.8314 29.78 12.7758C29.7784 12.752 29.7764 12.7282 29.7741 12.7044C29.7716 12.6794 29.7688 12.6544 29.7655 12.6295C29.7584 12.5746 29.7494 12.5199 29.7386 12.4654C29.728 12.4125 29.7157 12.3601 29.7018 12.3082C29.6953 12.2842 29.6885 12.2603 29.6813 12.2365C29.6734 12.2103 29.665 12.1842 29.6562 12.1583C29.6388 12.1071 29.6197 12.0564 29.5989 12.0064C29.5778 11.9556 29.555 11.9056 29.5306 11.8565C29.5203 11.8358 29.5098 11.8152 29.4989 11.7948C29.4879 11.7742 29.4766 11.7537 29.465 11.7334C29.4359 11.6825 29.405 11.6326 29.3723 11.5837C29.328 11.5176 29.2807 11.4539 29.2304 11.3927C29.1793 11.3305 29.125 11.2708 29.0677 11.2136C29.0309 11.1769 28.9929 11.1414 28.9539 11.1072C28.9351 11.0906 28.916 11.0744 28.8966 11.0584C28.8766 11.0419 28.8563 11.0258 28.8358 11.0099C28.7907 10.9751 28.7443 10.9418 28.6968 10.9101C28.6652 10.8891 28.6332 10.8688 28.6007 10.8493C28.567 10.829 28.5329 10.8096 28.4983 10.791C28.4756 10.7788 28.4527 10.767 28.4297 10.7555C28.3787 10.7302 28.3269 10.7067 28.2742 10.6849C28.2002 10.6544 28.1251 10.6276 28.0489 10.6045C27.9724 10.5813 27.8948 10.5619 27.816 10.5463C27.7368 10.5306 27.6573 10.5189 27.5774 10.5111C27.4985 10.5034 27.4192 10.4995 27.3395 10.4995L20.6605 10.4995C20.5686 10.4995 20.4772 10.5046 20.3864 10.5148C20.3466 10.5193 20.3068 10.5248 20.2671 10.5312C20.2279 10.5376 20.1889 10.5449 20.1501 10.5532C20.0617 10.5721 19.9745 10.5958 19.8882 10.6245C19.835 10.6422 19.7824 10.6617 19.7306 10.6829C19.7069 10.6927 19.6832 10.7028 19.6598 10.7133C19.6381 10.723 19.6165 10.7331 19.595 10.7434C19.5461 10.7671 19.498 10.7923 19.4507 10.8192C19.401 10.8475 19.3524 10.8774 19.3048 10.909C19.2839 10.923 19.2632 10.9372 19.2427 10.9517C19.2233 10.9655 19.2041 10.9796 19.1851 10.994C19.1421 11.0264 19.1002 11.0603 19.0594 11.0956C19.0175 11.1318 18.977 11.1694 18.9377 11.2082C18.9185 11.2273 18.8995 11.2467 18.8809 11.2664C18.8646 11.2837 18.8485 11.3013 18.8327 11.319C18.7969 11.3592 18.7625 11.4006 18.7293 11.4431C18.6936 11.489 18.6597 11.536 18.6274 11.5841C18.614 11.6042 18.6008 11.6245 18.5879 11.645C18.5753 11.6652 18.5629 11.6856 18.5508 11.7061C18.5235 11.7527 18.4976 11.8002 18.4734 11.8486C18.4479 11.8993 18.4243 11.9508 18.4025 12.0031C18.3929 12.0262 18.3836 12.0494 18.3747 12.0728C18.366 12.0954 18.3577 12.1182 18.3498 12.141C18.332 12.1922 18.3159 12.244 18.3015 12.2964C18.2865 12.3508 18.2735 12.4056 18.2624 12.4608C18.2575 12.485 18.253 12.5092 18.2489 12.5335C18.2448 12.5575 18.2411 12.5815 18.2377 12.6056C18.2301 12.6599 18.2244 12.7145 18.2205 12.7694C18.2166 12.8235 18.2146 12.8776 18.2143 12.9317C18.2142 12.9575 18.2145 12.9833 18.2152 13.0091C18.2159 13.0336 18.2169 13.0581 18.2183 13.0826C18.2215 13.1382 18.2266 13.1937 18.2336 13.2491C18.2436 13.3284 18.2575 13.4068 18.2751 13.4844C18.2929 13.5628 18.3147 13.6403 18.3403 13.7169L18.3633 13.7858ZM21.5204 13.4995L22.3598 15.3819L25.6402 15.3819L26.4796 13.4995L21.5204 13.4995ZM19.7517 20.8737L19.746 20.9199L18.5324 30.7219C18.5195 30.8009 18.5104 30.8802 18.5052 30.9597C18.4985 31.0618 18.4983 31.1643 18.5044 31.2673C18.5107 31.3733 18.5236 31.4781 18.5433 31.5817C18.5611 31.6757 18.5845 31.7687 18.6134 31.8607C18.6474 31.9689 18.6884 32.0737 18.7365 32.1753C18.7749 32.2564 18.8178 32.3355 18.8652 32.4124C18.9274 32.5131 18.9961 32.6084 19.0714 32.6982C19.0997 32.7319 19.1288 32.7648 19.1589 32.7969L22.2815 36.7618L22.3561 36.8336C22.4201 36.8951 22.4872 36.9528 22.5572 37.0066C22.6064 37.0444 22.657 37.0803 22.7092 37.1142C22.7803 37.1605 22.8534 37.2028 22.9286 37.2411C22.9879 37.2712 23.0484 37.2989 23.1102 37.3241C23.1875 37.3555 23.2659 37.3827 23.3456 37.4057C23.411 37.4247 23.4773 37.4408 23.5444 37.454C23.6599 37.4767 23.7759 37.4906 23.8922 37.496C23.9281 37.4976 23.964 37.4985 24 37.4985C24.0747 37.4985 24.149 37.4949 24.223 37.4879C24.3002 37.4806 24.377 37.4694 24.4535 37.4544C24.5596 37.4335 24.6633 37.4057 24.7646 37.3709C24.8067 37.3565 24.8485 37.3409 24.8898 37.324C24.9502 37.2995 25.0094 37.2725 25.0673 37.2431C25.144 37.2043 25.2185 37.1614 25.2909 37.1142C25.342 37.081 25.3916 37.0459 25.4399 37.0089C25.5109 36.9545 25.5789 36.8961 25.6438 36.8337L25.7185 36.7618L28.8411 32.797C28.8729 32.763 28.9037 32.7282 28.9334 32.6925C29.0068 32.6044 29.0739 32.5111 29.1347 32.4125C29.1838 32.3328 29.2281 32.2509 29.2676 32.1666C29.3139 32.0678 29.3536 31.9658 29.3866 31.8608C29.416 31.767 29.4398 31.6722 29.4578 31.5762C29.4768 31.4745 29.4895 31.3715 29.4957 31.2673C29.5019 31.1627 29.5015 31.0586 29.4945 30.9548C29.4892 30.8769 29.4803 30.7993 29.4676 30.7219L28.2484 20.8737L28.2398 20.8279C28.2258 20.7536 28.2086 20.6802 28.188 20.6077C28.1713 20.5492 28.1525 20.4914 28.1316 20.4341C28.1041 20.3592 28.0731 20.2859 28.0387 20.2143C28.0138 20.1627 27.9872 20.112 27.9588 20.0622C27.9182 19.9912 27.8744 19.9226 27.8272 19.8564C27.7946 19.8107 27.7605 19.7662 27.7248 19.7228C27.6836 19.6728 27.6406 19.6246 27.5957 19.5782C27.5691 19.5506 27.5418 19.5237 27.5138 19.4974C27.488 19.4731 27.4616 19.4494 27.4347 19.4263C27.3719 19.3724 27.3068 19.322 27.2392 19.275C27.1925 19.2426 27.1447 19.2119 27.0957 19.1829C27.0251 19.141 26.9527 19.103 26.8786 19.0688C26.8256 19.0443 26.7718 19.0219 26.717 19.0014C26.6471 18.9752 26.5763 18.9524 26.5046 18.933C26.4406 18.9158 26.376 18.9012 26.3106 18.8893C26.2379 18.8761 26.165 18.8664 26.0917 18.8601C26.0246 18.8543 25.9573 18.8514 25.8897 18.8514L22.1103 18.8514C22.0661 18.8514 22.022 18.8526 21.9779 18.8551C21.9571 18.8563 21.9364 18.8577 21.9157 18.8595C21.8954 18.8611 21.8751 18.8631 21.8548 18.8653C21.7995 18.8713 21.7444 18.8793 21.6894 18.8893C21.6252 18.901 21.5617 18.9152 21.4989 18.9321C21.426 18.9517 21.354 18.9748 21.2829 19.0014C21.2266 19.0225 21.1711 19.0457 21.1167 19.071C21.0442 19.1046 20.9735 19.1419 20.9044 19.1828C20.8554 19.2119 20.8076 19.2426 20.761 19.2749C20.6934 19.3219 20.6282 19.3723 20.5654 19.4263C20.5392 19.4488 20.5136 19.4717 20.4886 19.4952C20.4646 19.5177 20.4411 19.5407 20.418 19.5641C20.3682 19.6148 20.3206 19.6677 20.2753 19.7227C20.2391 19.7667 20.2046 19.8117 20.1717 19.858C20.1249 19.9238 20.0814 19.9919 20.0412 20.0624C20.0148 20.1085 19.99 20.1555 19.9667 20.2031C19.9301 20.2783 19.8974 20.3552 19.8685 20.4341C19.8475 20.4913 19.8287 20.5491 19.8121 20.6075C19.7915 20.68 19.7742 20.7535 19.7603 20.8279L19.7517 20.8737ZM22.6535 21.8514L21.5265 30.9544L24 34.0952L26.4735 30.9544L25.3465 21.8514L22.6535 21.8514Z" fill="var(--tiny-second-color, #aeaeAE)" fill-rule="evenodd"/>
</svg>