<svg viewBox="0 0 48 48" xmlns="http://www.w3.org/2000/svg" xmlns:xlink="http://www.w3.org/1999/xlink" width="48.000000" height="48.000000">
  <path id="减去顶层" d="M36.002 6L11.996 6C8.69 6 6 8.692 6 11.998L6 36.002C6 39.308 8.69 42 11.996 42L36.002 42C39.308 42 42 39.308 42 36.002L42 11.998C42 8.692 39.308 6 36.002 6ZM17.5 14L17.5 35C17.5 35.84 18.16 36.5 19 36.5C19.84 36.5 20.5 35.84 20.5 35L20.5 27.5L25 27.5C25.9305 27.5 26.8049 27.3487 27.6235 27.046C27.7087 27.0144 27.7933 26.9813 27.8773 26.9465C27.9613 26.9117 28.0446 26.8753 28.1272 26.8373C28.92 26.4726 29.6454 25.9612 30.3033 25.3033C30.9612 24.6454 31.4726 23.92 31.8373 23.1272C31.8753 23.0446 31.9117 22.9613 31.9465 22.8773C31.9813 22.7933 32.0145 22.7087 32.046 22.6234C32.3486 21.8049 32.5 20.9304 32.5 20C32.5 19.0695 32.3487 18.1951 32.046 17.3765C32.0144 17.2913 31.9813 17.2067 31.9465 17.1227C31.9117 17.0386 31.8753 16.9554 31.8373 16.8728C31.4726 16.08 30.9612 15.3546 30.3033 14.6967C29.6454 14.0388 28.92 13.5274 28.1272 13.1627C28.0446 13.1247 27.9613 13.0883 27.8773 13.0535C27.7933 13.0187 27.7087 12.9855 27.6234 12.954C26.8049 12.6513 25.9304 12.5 25 12.5L19 12.5C18.7929 12.5 18.601 12.5366 18.4242 12.6098C18.2474 12.6831 18.0858 12.7929 17.9393 12.9393C17.6464 13.2322 17.5 13.5858 17.5 14ZM25 24.5L20.5 24.5L20.5 15.5L25 15.5C25.6295 15.5 26.2059 15.6084 26.7293 15.8252C27.2526 16.0419 27.7368 16.3729 28.182 16.818C28.6271 17.2632 28.9581 17.7474 29.1748 18.2707C29.3916 18.7941 29.5 19.3705 29.5 20C29.5 20.6295 29.3916 21.2059 29.1748 21.7293C28.9581 22.2526 28.6271 22.7368 28.182 23.182C27.7368 23.6271 27.2526 23.9581 26.7293 24.1748C26.2059 24.3916 25.6295 24.5 25 24.5Z" fill="var(--tiny-first-color)" fill-rule="evenodd"/>
  <path id="path (边框)" d="M17.5 26L17.5 14C17.5 13.5858 17.6464 13.2322 17.9393 12.9393C18.2322 12.6464 18.5858 12.5 19 12.5L25 12.5C25.9304 12.5 26.8049 12.6513 27.6234 12.954C27.7087 12.9856 27.7933 13.0187 27.8773 13.0535C27.9613 13.0883 28.0446 13.1247 28.1272 13.1627C28.92 13.5274 29.6454 14.0388 30.3033 14.6967C30.9612 15.3546 31.4726 16.08 31.8373 16.8728C31.8753 16.9554 31.9117 17.0386 31.9465 17.1227C31.9813 17.2067 32.0144 17.2913 32.046 17.3765C32.3487 18.1951 32.5 19.0695 32.5 20C32.5 20.9304 32.3487 21.8049 32.046 22.6234C32.0145 22.7087 31.9813 22.7933 31.9465 22.8773C31.9117 22.9613 31.8753 23.0446 31.8373 23.1272C31.4726 23.92 30.9612 24.6454 30.3033 25.3033C29.6454 25.9612 28.92 26.4726 28.1272 26.8373C28.0446 26.8753 27.9613 26.9117 27.8773 26.9465C27.7933 26.9813 27.7087 27.0144 27.6235 27.046C26.8049 27.3487 25.9305 27.5 25 27.5L20.5 27.5L20.5 35C20.5 35.84 19.84 36.5 19 36.5C18.16 36.5 17.5 35.84 17.5 35L17.5 26ZM20.5 24.5L25 24.5C25.6295 24.5 26.2059 24.3916 26.7293 24.1748C27.2526 23.9581 27.7368 23.6271 28.182 23.182C28.6271 22.7368 28.9581 22.2526 29.1748 21.7293C29.3916 21.2059 29.5 20.6295 29.5 20C29.5 19.3705 29.3916 18.7941 29.1748 18.2707C28.9581 17.7474 28.6271 17.2632 28.182 16.818C27.7368 16.3729 27.2526 16.0419 26.7293 15.8252C26.2059 15.6084 25.6295 15.5 25 15.5L20.5 15.5L20.5 24.5Z" fill="var(--tiny-second-color)" fill-rule="evenodd"/>
</svg>