<svg viewBox="0 0 48 48" xmlns="http://www.w3.org/2000/svg" xmlns:xlink="http://www.w3.org/1999/xlink" width="48.000000" height="48.000000" fill="none">
  <path id="形状结合" d="M11.998 42C8.692 42 6 39.308 6 36.002L6 11.998C6 8.692 8.692 6 11.998 6L36.002 6C39.308 6 42 8.692 42 11.998C42 12.826 41.328 13.498 40.5 13.498C39.672 13.498 39 12.826 39 11.998C39 10.346 37.654 9 36.002 9L11.998 9C10.346 9 9 10.346 9 11.998L9 36.002C9 37.654 10.346 39 11.998 39L36.002 39C37.654 39 39 37.654 39 36.002L39 17.0126C39 16.1846 39.672 15.5126 40.5 15.5126C41.328 15.5126 42 16.1846 42 17.0126L42 36.002C42 39.308 39.308 42 36.002 42L11.998 42Z" fill="var(--tiny-first-color)" fill-rule="evenodd"/>
  <path id="path(边框)" d="M17.5 26L17.5 14C17.5 13.5 17.625 13.125 17.875 12.875C18.125 12.625 18.5 12.5 19 12.5L25 12.5C25.9304 12.5 26.8049 12.6513 27.6234 12.954C27.7087 12.9856 27.7933 13.0187 27.8773 13.0535C27.9614 13.0883 28.0447 13.1247 28.1272 13.1627C28.92 13.5274 29.6454 14.0388 30.3033 14.6967C30.9612 15.3546 31.4726 16.08 31.8373 16.8728C31.8753 16.9553 31.9117 17.0386 31.9465 17.1227C32.3155 18.0136 32.5 18.9727 32.5 20C32.5 21.0273 32.3155 21.9864 31.9465 22.8773C31.9117 22.9613 31.8753 23.0446 31.8373 23.1272C31.4726 23.92 30.9612 24.6454 30.3033 25.3033C29.6454 25.9612 28.92 26.4726 28.1272 26.8373C28.0446 26.8753 27.9613 26.9117 27.8773 26.9465C27.7933 26.9813 27.7087 27.0144 27.6235 27.046C26.8049 27.3487 25.9305 27.5 25 27.5L20.5 27.5L20.5 35C20.5 35.84 19.84 36.5 19 36.5C18.16 36.5 17.5 35.84 17.5 35L17.5 26ZM20.5 24.5L25 24.5C25.6295 24.5 26.2059 24.3916 26.7293 24.1748C27.2526 23.9581 27.7368 23.6271 28.182 23.182C28.6271 22.7368 28.9581 22.2526 29.1748 21.7293C29.3916 21.2059 29.5 20.6295 29.5 20C29.5 19.3705 29.3916 18.7941 29.1748 18.2707C28.9581 17.7474 28.6271 17.2632 28.182 16.818C27.7368 16.3729 27.2526 16.0419 26.7293 15.8252C26.2059 15.6084 25.6295 15.5 25 15.5L20.5 15.5L20.5 24.5Z" fill="var(--tiny-second-color)" fill-rule="evenodd"/>
</svg>