<svg viewBox="0 0 48 48" xmlns="http://www.w3.org/2000/svg" xmlns:xlink="http://www.w3.org/1999/xlink" width="48.000000" height="48.000000" fill="none">
  <path id="形状结合" d="M38.25 11.5C40.3211 11.5 42 13.1789 42 15.25C42 16.0784 41.3284 16.75 40.5 16.75C39.6716 16.75 39 16.0784 39 15.25C39 14.8876 38.7429 14.5852 38.4011 14.5152L9.75 14.5C9.38756 14.5 9.08517 14.7571 9.01524 15.0988L9 38.75C9 39.1124 9.25709 39.4148 9.59885 39.4848L38.25 39.5C38.6124 39.5 38.9148 39.2429 38.9848 38.9011L39 20.2C39 19.3716 39.6716 18.7 40.5 18.7C41.2594 18.7 41.887 19.2643 41.9863 19.9965L42 20.2L42 38.75C42 40.7224 40.4772 42.3392 38.5431 42.4887L38.25 42.5L9.75 42.5C7.77755 42.5 6.16079 40.9772 6.01128 39.0431L6 38.75L6 15.25C6 13.2776 7.52284 11.6608 9.45694 11.5113L9.75 11.5L38.25 11.5ZM23.99 33.24C24.956 33.24 25.74 34.0217 25.74 34.99C25.74 35.956 24.956 36.74 23.99 36.74C23.0217 36.74 22.24 35.956 22.24 34.99C22.24 34.0217 23.0217 33.24 23.99 33.24ZM25.0103 17.3287C27.3109 17.734 29.1736 19.5959 29.5795 21.8971C30.0099 24.3542 28.8375 26.7245 26.7275 27.887C26.0347 28.2671 25.5989 28.8595 25.5106 29.5055L25.494 29.7499L25.494 30.7399C25.494 31.5683 24.8224 32.2399 23.994 32.2399C23.2346 32.2399 22.607 31.6756 22.5077 30.9435L22.494 30.7399L22.494 29.7499C22.494 27.988 23.4446 26.4132 24.951 25.4541L25.2822 25.2581C26.2798 24.7085 26.8311 23.594 26.6248 22.4165C26.4383 21.3592 25.5484 20.4697 24.4912 20.2834C22.8991 20.0046 21.4774 21.1247 21.3322 22.6552L21.32 22.9139C21.32 23.7423 20.6484 24.4139 19.82 24.4139C18.9916 24.4139 18.32 23.7423 18.32 22.9139C18.32 19.3965 21.4855 16.7114 25.0103 17.3287Z" fill="var(--tiny-first-color)" fill-rule="evenodd"/>
  <path id="矢量 1750 (边框)" d="M8 5.5L40 5.5C40.84 5.5 41.5 6.16 41.5 7C41.5 7.84 40.84 8.5 40 8.5L8 8.5C7.16 8.5 6.5 7.84 6.5 7C6.5 6.16 7.16 5.5 8 5.5Z" fill="var(--tiny-second-color)" fill-rule="evenodd"/>
</svg>