<svg viewBox="0 0 48 48" xmlns="http://www.w3.org/2000/svg" xmlns:xlink="http://www.w3.org/1999/xlink" width="48.000000" height="48.000000">
  <path id="形状结合" d="M38.25 12C40.2224 12 41.8392 13.5228 41.9887 15.4569L42 15.75L42 39.25C42 41.2224 40.4772 42.8392 38.5431 42.9887L38.25 43L9.75 43C7.77755 43 6.16079 41.4772 6.01128 39.5431L6 39.25L6 15.75C6 13.7776 7.52284 12.1608 9.45694 12.0113L9.75 12L38.25 12ZM23.99 33.74C23.0217 33.74 22.24 34.5217 22.24 35.49C22.24 36.456 23.0217 37.24 23.99 37.24C24.956 37.24 25.74 36.456 25.74 35.49C25.74 34.5217 24.956 33.74 23.99 33.74ZM18.32 23.4139C18.32 24.2423 18.9916 24.9139 19.82 24.9139C20.5794 24.9139 21.207 24.3496 21.3063 23.6175L21.32 23.4139L21.3322 23.1552C21.4774 21.6247 22.8991 20.5046 24.4912 20.7834C25.5484 20.9697 26.4383 21.8592 26.6248 22.9165C26.8152 24.0034 26.3601 25.0366 25.5043 25.6215L25.2822 25.7581L24.951 25.9541C23.5522 26.8447 22.6326 28.2662 22.5084 29.8754L22.494 30.2499L22.494 31.2399L22.5077 31.4435C22.607 32.1756 23.2346 32.7399 23.994 32.7399C24.7534 32.7399 25.381 32.1756 25.4803 31.4435L25.494 31.2399L25.494 30.2499L25.5106 30.0055C25.5989 29.3595 26.0347 28.7671 26.7275 28.387C28.8375 27.2245 30.0099 24.8542 29.5795 22.3971C29.1736 20.0959 27.3109 18.234 25.0103 17.8287C21.4855 17.2114 18.32 19.8965 18.32 23.4139Z" fill="var(--tiny-first-color)" fill-rule="evenodd"/>
  <path id="矢量 1751 (边框)" d="M8 5L40 5C41.12 5 42 5.88 42 7C42 8.12 41.12 9 40 9L8 9C6.88 9 6 8.12 6 7C6 5.88 6.88 5 8 5Z" fill="var(--tiny-first-color)" fill-rule="evenodd"/>
  <path id="矢量 1751 (边框)" d="M8 5L40 5C41.12 5 42 5.88 42 7C42 8.12 41.12 9 40 9L8 9C6.88 9 6 8.12 6 7C6 5.88 6.88 5 8 5Z" fill="var(--tiny-second-color)" fill-rule="evenodd"/>
</svg>