<svg viewBox="0 0 48 48" xmlns="http://www.w3.org/2000/svg" xmlns:xlink="http://www.w3.org/1999/xlink" width="48.000000" height="48.000000">
  <path id="形状结合" d="M29.52 4.49902C31.9942 4.49902 34 6.50479 34 8.97902L34 11.253L37.02 11.253C40.2045 11.253 42.8079 13.7428 42.9898 16.8817L43 17.233L43 30.773C43 33.9589 40.5108 36.5611 37.3714 36.7429L37.02 36.753L34 36.753L34 38.9972C34 41.3781 32.1489 43.3284 29.808 43.4868L29.5 43.4972L17.5 43.4972C15.0156 43.4972 13 41.4816 13 38.9972L13 31.0032C13 28.5188 15.0156 26.5032 17.5 26.5032L29.5 26.5032C31.9844 26.5032 34 28.5188 34 31.0032L34 33.753L37.02 33.753C38.5695 33.753 39.842 32.572 39.9864 31.0602L40 30.773L40 17.233C40 15.6842 38.8179 14.4111 37.307 14.2667L37.02 14.253L34 14.253L13 14.259L9.98 14.253C8.43123 14.253 7.15807 15.4351 7.01364 16.9461L7 17.233L7 30.773C7 32.2093 8.02235 33.4239 9.395 33.6969L9.674 33.7387C10.4982 33.8227 11.0982 34.5589 11.0143 35.383C10.9303 36.2072 10.1942 36.8073 9.37 36.7233C6.44876 36.4257 4.18042 34.0422 4.01026 31.1255L4 30.773L4 17.233C4 14.0485 6.48973 11.4451 9.62865 11.2632L9.98 11.253L13 11.253L13 8.97902C13 6.50479 15.0058 4.49902 17.48 4.49902L29.52 4.49902ZM29.5 29.5032L17.5 29.5032C16.6724 29.5032 16 30.1757 16 31.0032L16 38.9972C16 39.8248 16.6724 40.4972 17.5 40.4972L29.5 40.4972C30.3276 40.4972 31 39.8248 31 38.9972L31 31.0032C31 30.1757 30.3276 29.5032 29.5 29.5032ZM35.5098 16.9932C36.6158 16.9932 37.5098 17.8892 37.5098 18.9932C37.5098 20.0992 36.6158 20.9932 35.5098 20.9932C34.4058 20.9932 33.5098 20.0992 33.5098 18.9932C33.5098 17.8892 34.4058 16.9932 35.5098 16.9932ZM29.52 7.49902L17.48 7.49902C16.7307 7.49902 16.1115 8.05581 16.0135 8.7782L16 8.97902L16 11.253L31 11.253L31 8.97902C31 8.22976 30.4432 7.61053 29.7208 7.51253L29.52 7.49902Z" fill="var(--tiny-first-color)" fill-rule="evenodd"/>
  <path id="形状结合" d="M34 38.9969L34 36.7527L34 33.7527L34 31.0029C34 28.5185 31.9844 26.5029 29.5 26.5029L17.5 26.5029C15.0156 26.5029 13 28.5185 13 31.0029L13 38.9969C13 41.4814 15.0156 43.4969 17.5 43.4969L29.5 43.4969L29.808 43.4865C32.1489 43.3282 34 41.3778 34 38.9969ZM17.5 29.5029L29.5 29.5029C30.3276 29.5029 31 30.1754 31 31.0029L31 38.9969C31 39.8245 30.3276 40.4969 29.5 40.4969L17.5 40.4969C16.6724 40.4969 16 39.8245 16 38.9969L16 31.0029C16 30.1754 16.6724 29.5029 17.5 29.5029Z" fill="var(--tiny-second-color)" fill-rule="evenodd"/>
</svg>