<svg viewBox="0 0 48 48" xmlns="http://www.w3.org/2000/svg" xmlns:xlink="http://www.w3.org/1999/xlink" width="48.000000" height="48.000000" fill="none">
  <path id="形状结合" d="M30 28.7541C31.656 28.7541 33 30.0981 33 31.7541L33 39.7461C33 41.4041 31.656 42.7461 30 42.7461L18 42.7461C16.344 42.7461 15 41.4041 15 39.7461L15 31.7541C15 30.0981 16.344 28.7541 18 28.7541L30 28.7541ZM37.504 12.0059C40.6919 12.0059 43.3071 14.5072 43.4898 17.6501L43.5 18.0019L43.5 31.5059C43.5 34.6938 40.9987 37.309 37.8558 37.4917L37.504 37.5019L36 37.5019L35.9998 31.7541C35.9998 28.5642 33.4967 25.9472 30.3518 25.7643L29.9998 25.7541L17.9998 25.7541C14.8099 25.7541 12.1929 28.2573 12.01 31.4021L11.9998 31.7541L12 37.5019L10.496 37.5019C7.30807 37.5019 4.69293 35.0006 4.5102 31.8577L4.5 31.5059L4.5 18.0019C4.5 14.814 7.00129 12.1988 10.1442 12.0161L10.496 12.0059L37.504 12.0059ZM36.0098 17.7441C34.9058 17.7441 34.0098 18.6381 34.0098 19.7441C34.0098 20.8481 34.9058 21.7441 36.0098 21.7441C37.1158 21.7441 38.0098 20.8481 38.0098 19.7441C38.0098 18.6381 37.1158 17.7441 36.0098 17.7441ZM13.5 9.75391C13.5 7.27391 15.52 5.25391 18 5.25391L30 5.25391C32.48 5.25391 34.5 7.27391 34.5 9.75391L13.5 9.75391Z" fill="var(--tiny-first-color, #191919)" fill-rule="evenodd"/>
  <path id="形状结合" d="M30 28.7539C31.656 28.7539 33 30.0979 33 31.7539L33 39.7459C33 41.4039 31.656 42.7459 30 42.7459L18 42.7459C16.344 42.7459 15 41.4039 15 39.7459L15 31.7539C15 30.0979 16.344 28.7539 18 28.7539L30 28.7539Z" fill="var(--tiny-second-color, #aeaeAE)" fill-rule="evenodd"/>
</svg>
