<svg viewBox="0 0 48 48" xmlns="http://www.w3.org/2000/svg" xmlns:xlink="http://www.w3.org/1999/xlink" width="48.000000" height="48.000000">
  <path id="减去顶层" d="M27.65 5.06813C26.996 4.41213 26.092 4.03613 25.168 4.03613L12.078 4.03613C8.77 4.03613 6.078 6.72813 6.078 10.0361L6.078 37.9641C6.078 41.2721 8.77 43.9641 12.078 43.9641L22.6499 43.9641C19.8073 41.5794 18 38.0008 18 34C18 26.8203 23.8203 21 31 21C33.5442 21 35.9177 21.7309 37.922 22.9941L37.922 16.8241C37.922 15.8921 37.56 15.0161 36.904 14.3581L27.65 5.06813ZM25.5194 13.5127L25.524 7.18413L34.8117 16.5118L28.5194 16.5127L28.2316 16.4989C26.7153 16.3529 25.5194 15.0657 25.5194 13.5127ZM12 14.0946C12.0458 12.93 13.0047 12 14.181 12C15.3864 12 16.3636 12.9768 16.3636 14.1818C16.3636 15.3868 15.3864 16.3636 14.181 16.3636C13.0048 16.3636 12.0459 15.2591 12 14.0946ZM12.7273 19.8182C12.7273 19.0036 13.3673 18.3636 14.1818 18.3636C14.9964 18.3636 15.6364 19.0036 15.6364 19.8182L15.6364 28.5455C15.6364 29.36 14.9964 30 14.1818 30C13.3673 30 12.7273 29.36 12.7273 28.5455L12.7273 19.8182Z" fill="var(--tiny-first-color, #191919)" fill-rule="evenodd"/>
  <path id="减去顶层" d="M20 34C20 27.92 24.94 23 31 23C37.08 23 42 27.92 42 34C42 40.06 37.08 45 31 45C24.94 45 20 40.06 20 34ZM33.9265 28.5L27.75 28.5C27.05 28.5 26.5 29.05 26.5 29.75C26.5 30.45 27.05 31 27.75 31L33.9265 31C34.6265 31 35.1765 30.45 35.1765 29.75C35.1765 29.05 34.6265 28.5 33.9265 28.5ZM33.9265 32.5L27.75 32.5C27.05 32.5 26.5 33.05 26.5 33.75C26.5 34.45 27.05 35 27.75 35L33.9265 35C34.6265 35 35.1765 34.45 35.1765 33.75C35.1765 33.05 34.6265 32.5 33.9265 32.5ZM27.75 36.5L33.9265 36.5C34.6265 36.5 35.1765 37.05 35.1765 37.75C35.1765 38.45 34.6265 39 33.9265 39L27.75 39C27.05 39 26.5 38.45 26.5 37.75C26.5 37.05 27.05 36.5 27.75 36.5Z" fill="var(--tiny-second-color, #aeaeAE)" fill-rule="evenodd"/>
</svg>