<svg viewBox="0 0 48 48" xmlns="http://www.w3.org/2000/svg" xmlns:xlink="http://www.w3.org/1999/xlink" width="48.000000" height="48.000000">
  <path id="减去顶层" d="M26.2662 4.05971C26.1798 4.04422 26.0908 4.03613 26 4.03613L12.078 4.03613C8.77 4.03613 6.078 6.72813 6.078 10.0361L6.078 37.9641C6.078 41.2721 8.77 43.9641 12.078 43.9641L22.6499 43.9641C21.6277 43.1066 20.7393 42.0946 20.0208 40.9641L12.078 40.9641C10.424 40.9641 9.078 39.6181 9.078 37.9641L9.078 10.0361C9.078 8.38213 10.424 7.03613 12.078 7.03613L24.498 7.03413L24.5 13.0011C24.5 15.4811 26.518 17.5011 29 17.5011L35 17.5011L35 21.627C36.0669 21.9717 37.0736 22.4505 38 23.0436L38 16C38 15.423 37.6886 14.9309 37.2214 14.6794L27.0755 4.49082C27.022 4.43582 26.7937 4.27325 26.7337 4.22745C26.7061 4.21199 26.4955 4.12373 26.4683 4.11077C26.4225 4.09571 26.3138 4.06968 26.2662 4.05971ZM27.5 13.0011L27.5 9.16913L32.81 14.5011L29 14.5011C28.172 14.5011 27.5 13.8271 27.5 13.0011ZM16.181 12C15.0047 12 14.0458 12.93 14 14.0946C14.0459 15.2591 15.0048 16.3636 16.181 16.3636C17.3864 16.3636 18.3636 15.3868 18.3636 14.1818C18.3636 12.9768 17.3864 12 16.181 12ZM16.1818 18.3636C15.3673 18.3636 14.7273 19.0036 14.7273 19.8182L14.7273 28.5455C14.7273 29.36 15.3673 30 16.1818 30C16.9964 30 17.6364 29.36 17.6364 28.5455L17.6364 19.8182C17.6364 19.0036 16.9964 18.3636 16.1818 18.3636Z" fill="var(--tiny-first-color, #191919)" fill-rule="evenodd"/>
  <path id="合并" d="M31 23C37.0751 23 42 27.9249 42 34C42 40.0751 37.0751 45 31 45C24.9249 45 20 40.0751 20 34C20 27.9249 24.9249 23 31 23ZM22.64 34C22.64 29.3829 26.3829 25.64 31 25.64C35.6171 25.64 39.36 29.3829 39.36 34C39.36 38.6171 35.6171 42.36 31 42.36C26.3829 42.36 22.64 38.6171 22.64 34ZM34.1765 28.75L28 28.75C27.3 28.75 26.75 29.2998 26.75 30C26.75 30.7002 27.3 31.25 28 31.25L34.1765 31.25C34.8765 31.25 35.4265 30.7002 35.4265 30C35.4265 29.2998 34.8765 28.75 34.1765 28.75ZM34.1765 32.75L28 32.75C27.3 32.75 26.75 33.2998 26.75 34C26.75 34.7002 27.3 35.25 28 35.25L34.1765 35.25C34.8765 35.25 35.4265 34.7002 35.4265 34C35.4265 33.2998 34.8765 32.75 34.1765 32.75ZM28 36.75L34.1765 36.75C34.8765 36.75 35.4265 37.2998 35.4265 38C35.4265 38.7002 34.8765 39.25 34.1765 39.25L28 39.25C27.3 39.25 26.75 38.7002 26.75 38C26.75 37.2998 27.3 36.75 28 36.75Z" fill="var(--tiny-second-color, #aeaeAE)" fill-rule="evenodd"/>
</svg>