<svg viewBox="0 0 48 48" xmlns="http://www.w3.org/2000/svg" xmlns:xlink="http://www.w3.org/1999/xlink" width="48.000000" height="48.000000">
  <path id="合并(边框)" d="M16.325 11.6627C16.2036 12.2141 16.1429 12.7789 16.1429 13.3571C16.1429 13.9353 16.2036 14.5001 16.325 15.0516C16.4273 15.5159 16.5726 15.9707 16.761 16.416C16.95 16.8629 17.1759 17.2854 17.4387 17.6835C17.7289 18.123 18.064 18.5329 18.4442 18.913C18.8243 19.2931 19.2341 19.6282 19.6736 19.9184C19.8096 20.0082 19.9485 20.0937 20.0902 20.1749C19.5729 20.1977 19.0669 20.2682 18.5723 20.3863C18.2492 20.4635 17.9309 20.561 17.6175 20.6788C16.9919 20.914 16.4155 21.2187 15.8883 21.5927C15.6681 21.7489 15.4564 21.9173 15.2534 22.0978C14.7421 22.5522 14.3138 23.0581 13.9683 23.6154C13.8391 23.8237 13.7215 24.0393 13.6155 24.2621C13.3925 24.7309 13.23 25.2122 13.1282 25.706C13.0427 26.1206 13 26.544 13 26.9762L13 28.1984C13 28.3702 13.0173 28.5383 13.052 28.7028C13.084 28.8551 13.131 29.0043 13.1927 29.1504C13.2533 29.2935 13.3259 29.4285 13.4106 29.5554C13.4992 29.6881 13.601 29.8119 13.716 29.9269C13.831 30.0419 13.9548 30.1437 14.0874 30.2322C14.2144 30.317 14.3494 30.3896 14.4925 30.4501C14.6386 30.5119 14.7878 30.5588 14.9401 30.5909C15.1046 30.6255 15.2727 30.6429 15.4444 30.6429L32.5556 30.6429C32.7273 30.6429 32.8954 30.6255 33.0599 30.5909C33.2122 30.5588 33.3614 30.5119 33.5075 30.4501C33.6506 30.3896 33.7856 30.317 33.9125 30.2323C34.0452 30.1437 34.169 30.0419 34.284 29.9269C34.399 29.8119 34.5008 29.6881 34.5894 29.5554C34.6741 29.4285 34.7467 29.2935 34.8073 29.1504C34.869 29.0043 34.916 28.8551 34.9481 28.7027C34.9827 28.5383 35 28.3702 35 28.1984L35 26.9762C35 26.544 34.9573 26.1205 34.8718 25.7059C34.77 25.2122 34.6075 24.7309 34.3845 24.2621C34.2785 24.0393 34.1609 23.8237 34.0317 23.6154C33.6862 23.0581 33.2579 22.5522 32.7466 22.0978C32.5436 21.9173 32.332 21.749 32.1118 21.5928C31.5846 21.2187 31.0082 20.9141 30.3825 20.6788C30.0692 20.561 29.7509 20.4635 29.4279 20.3864C28.9332 20.2682 28.4272 20.1977 27.9098 20.1749C28.0515 20.0937 28.1904 20.0082 28.3264 19.9184C28.7659 19.6282 29.1757 19.2931 29.5558 18.913C29.9359 18.5329 30.2711 18.1231 30.5612 17.6836C30.8241 17.2854 31.05 16.8629 31.239 16.416C31.4274 15.9707 31.5727 15.5159 31.6749 15.0517C31.7964 14.5002 31.8571 13.9354 31.8571 13.3571C31.8571 12.7789 31.7964 12.2141 31.6749 11.6626C31.5727 11.1984 31.4274 10.7436 31.239 10.2983C31.05 9.8514 30.8241 9.42887 30.5612 9.03071C30.2711 8.59121 29.9359 8.18141 29.5558 7.8013C29.1757 7.42119 28.7659 7.08605 28.3264 6.7959C27.9282 6.53305 27.5057 6.30712 27.0588 6.1181C26.6135 5.92975 26.1587 5.78445 25.6945 5.68219C25.143 5.56073 24.5782 5.5 24 5.5C23.4218 5.5 22.857 5.56073 22.3055 5.68218C21.8413 5.78444 21.3865 5.92975 20.9412 6.1181C20.4943 6.30711 20.0718 6.53304 19.6736 6.79588C19.2341 7.08604 18.8243 7.42118 18.4442 7.8013C18.064 8.18142 17.7289 8.59124 17.4388 9.03075C17.1759 9.4289 16.95 9.85142 16.761 10.2983C16.5726 10.7436 16.4273 11.1984 16.325 11.6627ZM19.4065 14.4266C19.326 14.0795 19.2857 13.723 19.2857 13.3571C19.2857 12.9913 19.326 12.6348 19.4065 12.2876C19.4669 12.0274 19.5499 11.7724 19.6555 11.5226C19.765 11.2639 19.8951 11.0187 20.0461 10.787C20.224 10.5137 20.4308 10.2593 20.6665 10.0236C20.9022 9.78798 21.1566 9.58117 21.4298 9.4032C21.6615 9.25229 21.9067 9.12211 22.1655 9.01268C22.4152 8.90704 22.6703 8.82403 22.9305 8.76365C23.2777 8.68312 23.6342 8.64286 24 8.64286C24.3658 8.64286 24.7223 8.68312 25.0695 8.76366C25.3298 8.82404 25.5848 8.90704 25.8345 9.01268C26.0932 9.12211 26.3385 9.25228 26.5701 9.40319C26.8434 9.58116 27.0978 9.78798 27.3335 10.0236C27.5691 10.2593 27.7759 10.5137 27.9539 10.7869C28.1048 11.0186 28.235 11.2639 28.3445 11.5226C28.4501 11.7724 28.5331 12.0274 28.5935 12.2877C28.674 12.6348 28.7143 12.9913 28.7143 13.3571C28.7143 13.723 28.674 14.0795 28.5935 14.4266C28.5331 14.6869 28.4501 14.9419 28.3445 15.1917C28.235 15.4504 28.1048 15.6957 27.9539 15.9274C27.7759 16.2006 27.5691 16.455 27.3335 16.6906C27.0979 16.9263 26.8435 17.1331 26.5703 17.311C26.3385 17.462 26.0933 17.5922 25.8345 17.7016C25.5848 17.8072 25.3297 17.8903 25.0695 17.9506C24.7223 18.0312 24.3658 18.0714 24 18.0714C23.6342 18.0714 23.2777 18.0312 22.9305 17.9506C22.6703 17.8903 22.4152 17.8072 22.1655 17.7016C21.9067 17.5922 21.6615 17.462 21.4298 17.311C21.1566 17.1331 20.9021 16.9263 20.6665 16.6906C20.4308 16.455 20.224 16.2006 20.0461 15.9273C19.8952 15.6956 19.765 15.4504 19.6555 15.1917C19.5499 14.9419 19.4669 14.6869 19.4065 14.4266ZM16.1429 27.5L31.8571 27.5L31.8571 26.9762C31.8571 26.7803 31.8395 26.5877 31.8041 26.3985C31.7539 26.1298 31.668 25.8678 31.5465 25.6125C31.5287 25.575 31.5102 25.538 31.4911 25.5012C31.288 25.111 31.0105 24.7595 30.6586 24.4468C30.598 24.3929 30.536 24.3409 30.4726 24.2907C30.1187 24.0107 29.72 23.7874 29.2765 23.6206C29.1398 23.5692 29.0014 23.5242 28.8611 23.4856C28.4355 23.3682 27.9937 23.3095 27.5357 23.3095L20.4643 23.3095C20.0064 23.3095 19.5646 23.3682 19.1391 23.4855C18.9988 23.5242 18.8603 23.5692 18.7235 23.6206C18.28 23.7874 17.8814 24.0107 17.5275 24.2907C17.464 24.3409 17.402 24.3929 17.3414 24.4468C16.9895 24.7596 16.7119 25.1112 16.5088 25.5014C16.4897 25.5381 16.4713 25.5751 16.4535 25.6125C16.332 25.8678 16.2461 26.1298 16.1959 26.3985C16.1605 26.5877 16.1429 26.7803 16.1429 26.9762L16.1429 27.5Z" fill="var(--tiny-first-color, #191919)" fill-rule="evenodd"/>
  <path id="合并" d="M9.88332 28.6335C10.1628 28.1238 10.5842 27.6276 11.1473 27.1451C11.7852 26.5986 11.857 25.6679 11.3104 25.0301C10.7639 24.3922 9.83327 24.3204 9.19539 24.867C8.35527 25.5868 7.70776 26.3615 7.25287 27.191C6.87336 27.8831 6.63733 28.5933 6.54478 29.3218L6.54478 29.3219C6.51493 29.5568 6.5 29.7937 6.5 30.0325C6.5 30.2282 6.51013 30.4229 6.5304 30.6165C6.58696 31.1569 6.72243 31.689 6.93683 32.2129C7.20792 32.8753 7.5997 33.5094 8.11215 34.1152C9.05441 35.229 10.3555 36.201 12.0155 37.031C13.6066 37.8265 15.422 38.4399 17.4617 38.8713C18.7634 39.1466 20.1022 39.3359 21.4782 39.4393L21.4393 39.4781C20.8454 40.0721 20.8454 41.0055 21.4393 41.5994C22.0333 42.1934 22.9667 42.1934 23.5607 41.5994L25.668 39.4921C27.3454 39.4102 28.9689 39.2032 30.5383 38.8713C32.578 38.4399 34.3935 37.8265 35.9845 37.031C37.6445 36.201 38.9456 35.229 39.8878 34.1152C40.4003 33.5094 40.7921 32.8753 41.0632 32.2129C41.2776 31.689 41.413 31.1569 41.4696 30.6165C41.4899 30.4229 41.5 30.2282 41.5 30.0325C41.5 29.7937 41.4851 29.5569 41.4552 29.3219C41.3627 28.5934 41.1267 27.8831 40.7471 27.191C40.2922 26.3615 39.6447 25.5868 38.8046 24.867C38.1667 24.3204 37.2361 24.3922 36.6896 25.0301C36.143 25.6679 36.2148 26.5986 36.8527 27.1451C37.4158 27.6276 37.8372 28.1238 38.1167 28.6335C38.371 29.0973 38.4988 29.5615 38.5 30.0259L38.5 30.0325C38.5 30.0432 38.4999 30.0539 38.4998 30.0647C38.4909 30.7727 38.1902 31.477 37.5974 32.1777C36.9204 32.978 35.9356 33.7013 34.6429 34.3477C33.2813 35.0284 31.7062 35.558 29.9176 35.9362C28.8148 36.1695 27.68 36.3343 26.5132 36.4306L23.5607 33.4781C22.9667 32.8842 22.0333 32.8842 21.4393 33.4781C20.8454 34.0721 20.8454 35.0055 21.4393 35.5994L22.3278 36.488C20.8636 36.409 19.4484 36.2251 18.0824 35.9362C16.2938 35.558 14.7187 35.0284 13.3571 34.3477C12.0645 33.7013 11.0796 32.978 10.4026 32.1777C9.80985 31.477 9.50906 30.7727 9.5002 30.0647C9.50007 30.0539 9.5 30.0432 9.5 30.0325L9.50001 30.026C9.50118 29.5615 9.62895 29.0973 9.88332 28.6335Z" fill="var(--tiny-second-color, #aeaeAE)" fill-rule="evenodd"/>
</svg>