<svg viewBox="0 0 48 48" xmlns="http://www.w3.org/2000/svg" xmlns:xlink="http://www.w3.org/1999/xlink" width="48.000000" height="48.000000" fill="none">
  <path id="减去顶层" d="M31 4L17 4C15.88 4 15 4.88 15 6L15 8C15 9.1 15.88 10 17 10L31 10C32.1 10 33 9.1 33 8L33 6C33 4.88 32.1 4 31 4ZM12 7C11.9342 7.1974 11.955 7.41212 11.9769 7.63846C11.9883 7.7561 12 7.87688 12 8L12 9C12 11.2 13.78 13 16 13L32 13C34.2 13 36 11.2 36 9L36 8C36 7.64 35.94 7.3 35.86 7C39.18 7 42 9.68 42 13L42 38C42 41.3 39.3 44 36 44L12 44C8.68 44 6 41.3 6 38L6 13C6 9.68 8.68 7 12 7ZM26.3278 24.9996C25.2234 23.8952 25.2232 22.1047 26.3272 21.0001L27.0377 20.2892C27.2045 20.1224 27.2958 20.0301 27.3491 19.9618C27.9158 19.2358 27.6465 18.1824 26.768 18.0241C26.6828 18.0088 26.5673 18.0009 26.3542 18.0001C22.4882 18.0001 19.3283 21.1341 19.3283 25.0001C19.3283 25.8919 19.4951 26.7448 19.7991 27.5292L15.3283 32.0001C14.2237 33.1047 14.2237 34.8955 15.3283 36.0001C16.4328 37.1047 18.2237 37.1047 19.3283 36.0001L23.7991 31.5292C24.5836 31.8333 25.4364 32.0001 26.3283 32.0001C30.1943 32.0001 33.3283 28.8661 33.3283 25.0001C33.3274 24.7522 33.3182 24.6195 33.3026 24.5343C33.1416 23.6582 32.0913 23.4072 31.366 23.9764C31.2979 24.0298 31.2055 24.1214 31.0388 24.2882L30.3283 24.999C29.2238 26.1041 27.4325 26.1043 26.3278 24.9996Z" fill="var(--tiny-first-color, #191919)" fill-rule="evenodd"/>
  <path id="Path" d="M26.3274 21C25.2233 22.1047 25.2235 23.8951 26.3279 24.9995C27.4327 26.1042 29.2239 26.104 30.3284 24.999L31.0389 24.2881C31.2057 24.1213 31.298 24.0298 31.3661 23.9763C32.0914 23.4071 33.1417 23.6581 33.3027 24.5343C33.3184 24.6194 33.3275 24.7521 33.3284 25C33.3284 28.866 30.1944 32 26.3284 32C25.4366 32 24.5837 31.8332 23.7993 31.5291L19.3284 36C18.2239 37.1046 16.433 37.1046 15.3284 36C14.2239 34.8954 14.2239 33.1046 15.3284 32L19.7993 27.5291C19.4952 26.7447 19.3284 25.8918 19.3284 25C19.3284 21.134 22.4624 18 26.3284 18L26.3543 18C26.5674 18.0008 26.683 18.0087 26.7682 18.024C27.6467 18.1823 27.9159 19.2357 27.3493 19.9617C27.296 20.03 27.2046 20.1223 27.0379 20.2891L26.3274 21Z" fill="var(--tiny-second-color, #aeaeAE)" fill-rule="evenodd"/>
</svg>
