<svg viewBox="0 0 48 48" xmlns="http://www.w3.org/2000/svg" xmlns:xlink="http://www.w3.org/1999/xlink" width="48.000000" height="48.000000">
  <path id="减去顶层" d="M16 3.5L30 3.5C31.1 3.5 32 4.38 32 5.5L32 7.5C32 8.6 31.1 9.5 30 9.5L16 9.5C14.88 9.5 14 8.6 14 7.5L14 5.5C14 4.38 14.88 3.5 16 3.5ZM10.9769 7.13846C10.955 6.91212 10.9342 6.6974 11 6.5C7.68 6.5 5 9.18 5 12.5L5 37.5C5 40.8 7.68 43.5 11 43.5L26.4246 43.5L24.8442 42.5859C23.21 41.6402 22.1583 39.9507 22.0164 38.0839L22 37.6502L22 30.3498C22 28.459 22.9349 26.702 24.4776 25.6453L24.8442 25.4141L31.1552 21.7639C32.7799 20.8237 34.7534 20.7514 36.4315 21.5468L36.8445 21.7637L41 24.1672L41 12.5C41 9.18 38.18 6.5 34.86 6.5C34.94 6.8 35 7.14 35 7.5L35 8.5C35 10.7 33.2 12.5 31 12.5L15 12.5C12.78 12.5 11 10.7 11 8.5L11 7.5C11 7.37688 10.9883 7.2561 10.9769 7.13846ZM13 18.0001C14.1046 18.0001 15 18.8956 15 20.0001C15 21.1047 14.1046 22.0001 13 22.0001C11.8954 22.0001 11 21.1047 11 20.0001C11 18.8956 11.8954 18.0001 13 18.0001ZM13 26.0098C14.1046 26.0098 15 26.9052 15 28.0098C15 29.1143 14.1046 30.0098 13 30.0098C11.8954 30.0098 11 29.1143 11 28.0098C11 26.9052 11.8954 26.0098 13 26.0098ZM13 34.0194C14.1046 34.0194 15 34.9148 15 36.0194C15 37.124 14.1046 38.0194 13 38.0194C11.8954 38.0194 11 37.124 11 36.0194C11 34.9148 11.8954 34.0194 13 34.0194Z" fill="var(--tiny-first-color, #191919)" fill-rule="evenodd"/>
  <path id="减去顶层" d="M36.2519 24.5717L41.2481 27.4537C42.6373 28.2557 43.5 29.7497 43.5 31.3517L43.5 37.1157C43.5 38.7177 42.6373 40.2117 41.2501 41.0117L36.2519 43.8937C35.5573 44.2957 34.7787 44.4957 34 44.4957C33.2213 44.4957 32.4427 44.2957 31.7481 43.8937L26.7519 41.0117C25.3627 40.2117 24.5 38.7177 24.5 37.1157L24.5 31.3517C24.5 29.7497 25.3627 28.2557 26.7499 27.4537L31.7481 24.5717C33.1353 23.7697 34.8627 23.7697 36.2519 24.5717ZM39.3573 30.3906C39.824 30.8612 39.8635 31.5947 39.4779 32.1098L34.0249 37.5373C33.5571 38.0012 32.6811 37.9169 32.166 37.5373L28.6906 34.091C28.1729 33.5776 28.1694 32.7419 28.6827 32.2242C29.1494 31.7536 30.0311 31.8351 30.5494 32.2164L33.0942 34.7398L37.4906 30.3827C38.0082 29.8694 38.844 29.8729 39.3573 30.3906Z" fill="var(--tiny-second-color, #aeaeAE)" fill-rule="evenodd"/>
</svg>