<svg viewBox="0 0 48 48" xmlns="http://www.w3.org/2000/svg" xmlns:xlink="http://www.w3.org/1999/xlink" width="48.000000" height="48.000000">
  <path id="减去顶层" d="M32 4L12 4C8.68628 4 6 6.68628 6 10L6 38C6 41.3137 8.68628 44 12 44L23.7849 44C19.7192 41.5503 17 37.0928 17 32C17 24.2681 23.2681 18 31 18C33.55 18 35.9407 18.6816 38 19.873L38 10C38 6.68628 35.3137 4 32 4ZM12 10.5L27 10.5C27.8401 10.5 28.5 11.1599 28.5 12C28.5 12.8401 27.8401 13.5 27 13.5L12 13.5C11.1599 13.5 10.5 12.8401 10.5 12C10.5 11.1599 11.1599 10.5 12 10.5ZM12 17.5L16 17.5C16.8401 17.5 17.5 18.1599 17.5 19C17.5 19.8401 16.8401 20.5 16 20.5L12 20.5C11.1599 20.5 10.5 19.8401 10.5 19C10.5 18.1599 11.1599 17.5 12 17.5ZM20 32C20 25.9248 24.9248 21 31 21C37.0752 21 42 25.9248 42 32C42 38.0752 37.0752 43 31 43C24.9248 43 20 38.0752 20 32ZM31.1654 26.533L28.7942 24.5689C28.2695 23.9129 27.3418 23.8099 26.6859 24.3348C26.0299 24.8594 25.9269 25.7872 26.4516 26.4429L29.4137 29.1455L27.6229 29.1455C26.7829 29.1455 26.1229 29.8057 26.1229 30.6455C26.1229 31.4856 26.7829 32.1455 27.6229 32.1455L29.6312 32.1455L29.6312 33.408L27.5 33.408C26.66 33.408 26 34.0681 26 34.908C26 35.7481 26.66 36.408 27.5 36.408L29.6312 36.408L29.6312 38.2935C29.6312 39.1336 30.2912 39.7935 31.1312 39.7935C31.9712 39.7935 32.6312 39.1336 32.6312 38.2935L32.6312 36.408L34.7625 36.408C35.6025 36.408 36.2625 35.7481 36.2625 34.908C36.2625 34.0681 35.6025 33.408 34.7625 33.408L32.6312 33.408L32.6312 32.1455L34.6395 32.1455C35.4795 32.1455 36.1395 31.4856 36.1395 30.6455C36.1395 29.8057 35.4795 29.1455 34.6395 29.1455L32.8829 29.1455L35.996 26.4769C36.5395 25.8365 36.4632 24.9061 35.8227 24.3626C35.1822 23.8191 34.252 23.8953 33.7085 24.5359L31.1654 26.533Z" fill="var(--tiny-first-color, #191919)" fill-rule="evenodd"/>
  <path id="减去顶层" d="M31 21C24.9248 21 20 25.9248 20 32C20 38.0752 24.9248 43 31 43C37.0752 43 42 38.0752 42 32C42 25.9248 37.0752 21 31 21ZM31.1654 26.533L28.7942 24.5689C28.2695 23.9129 27.3418 23.8099 26.6859 24.3348C26.0299 24.8594 25.9269 25.7872 26.4516 26.4429L29.4137 29.1455L27.6229 29.1455C26.7829 29.1455 26.1229 29.8057 26.1229 30.6455C26.1229 31.4856 26.7829 32.1455 27.6229 32.1455L29.6312 32.1455L29.6312 33.408L27.5 33.408C26.66 33.408 26 34.0681 26 34.908C26 35.7481 26.66 36.408 27.5 36.408L29.6312 36.408L29.6312 38.2935C29.6312 39.1336 30.2912 39.7935 31.1312 39.7935C31.9712 39.7935 32.6312 39.1336 32.6312 38.2935L32.6312 36.408L34.7625 36.408C35.6025 36.408 36.2625 35.7481 36.2625 34.908C36.2625 34.0681 35.6025 33.408 34.7625 33.408L32.6312 33.408L32.6312 32.1455L34.6395 32.1455C35.4795 32.1455 36.1395 31.4856 36.1395 30.6455C36.1395 29.8057 35.4795 29.1455 34.6395 29.1455L32.8829 29.1455L35.996 26.4769C36.5395 25.8365 36.4632 24.9061 35.8227 24.3626C35.1822 23.8191 34.252 23.8953 33.7085 24.5359L31.1654 26.533Z" fill="var(--tiny-second-color, #aeaeAE)" fill-rule="evenodd"/>
</svg>