<svg viewBox="0 0 48 48" xmlns="http://www.w3.org/2000/svg" xmlns:xlink="http://www.w3.org/1999/xlink" width="48.000000" height="48.000000">
  <path id="合并" d="M27 37.0398L15.8571 37.0398C15.7439 37.0398 15.634 37.0265 15.5274 37C15.4601 36.9833 15.394 36.9612 15.3293 36.9339C15.2588 36.904 15.1916 36.8688 15.128 36.8282C15.0453 36.7755 14.9685 36.7136 14.8975 36.6427C14.8265 36.5718 14.7646 36.495 14.7118 36.4124C14.6711 36.3488 14.6359 36.2818 14.606 36.2113C14.5787 36.1467 14.5566 36.0807 14.5398 36.0134C14.5133 35.9069 14.5 35.7971 14.5 35.684L14.5 26.0371L27 26.0371L27 23.0371L14.5 23.0371L14.5 13.1359C14.5 13.023 14.5132 12.9134 14.5397 12.8071L14.5398 12.8064C14.5566 12.7392 14.5787 12.6732 14.606 12.6086C14.6359 12.5381 14.6711 12.471 14.7118 12.4074C14.7646 12.3249 14.8265 12.2481 14.8975 12.1772C14.9685 12.1063 15.0453 12.0444 15.128 11.9917C15.1916 11.9511 15.2588 11.9159 15.3293 11.886C15.394 11.8587 15.4601 11.8367 15.5274 11.8199C15.634 11.7934 15.7439 11.7801 15.8571 11.7801L27 11.7801L27 8.7832L15.8571 8.7832C15.5412 8.7832 15.2324 8.81592 14.9307 8.88134L14.929 8.88173C14.6675 8.93854 14.4114 9.01992 14.1607 9.12587C13.9105 9.23158 13.6741 9.35809 13.4516 9.50541C13.2102 9.66516 12.9851 9.84938 12.7762 10.0581C12.5673 10.2668 12.3829 10.4916 12.223 10.7328C12.0755 10.9551 11.9488 11.1912 11.843 11.4411C11.7367 11.6922 11.6551 11.9486 11.5982 12.2104C11.5327 12.5118 11.5 12.8203 11.5 13.1359L11.5 35.684C11.5 35.9996 11.5327 36.3081 11.5982 36.6095C11.6551 36.8713 11.7367 37.1277 11.843 37.3788C11.9488 37.6287 12.0755 37.8648 12.223 38.0872C12.3829 38.3283 12.5673 38.5532 12.7762 38.7618C12.9851 38.9705 13.2102 39.1547 13.4516 39.3145C13.6741 39.4618 13.9105 39.5883 14.1607 39.694C14.412 39.8002 14.6687 39.8817 14.9307 39.9386C15.2324 40.004 15.5412 40.0367 15.8571 40.0367L27 40.0367L27 37.0398Z" fill="var(--tiny-first-color, #191919)" fill-rule="evenodd"/>
  <path id="合并" d="M18.4286 6C19.2176 6 19.8571 6.63893 19.8571 7.4271L19.8571 14.5626C19.8571 15.3508 19.2176 15.9897 18.4286 15.9897L8.42857 15.9897C7.63959 15.9897 7 15.3508 7 14.5626L7 7.4271C7 6.63893 7.63959 6 8.42857 6L18.4286 6ZM40.5714 6C41.3604 6 42 6.63893 42 7.4271L42 14.5626C42 15.3508 41.3604 15.9897 40.5714 15.9897L30.5714 15.9897C29.7824 15.9897 29.1429 15.3508 29.1429 14.5626L29.1429 7.4271C29.1429 6.63893 29.7824 6 30.5714 6L40.5714 6ZM40.5714 18.9863C41.3604 18.9863 42 19.6253 42 20.4134L42 27.5489C42 28.3371 41.3604 28.976 40.5714 28.976L30.5714 28.976C29.7824 28.976 29.1429 28.3371 29.1429 27.5489L29.1429 20.4134C29.1429 19.6253 29.7824 18.9863 30.5714 18.9863L40.5714 18.9863ZM40.5714 32.0107C41.3604 32.0107 42 32.6497 42 33.4378L42 40.5733C42 41.3615 41.3604 42.0004 40.5714 42.0004L30.5714 42.0004C29.7824 42.0004 29.1429 41.3615 29.1429 40.5733L29.1429 33.4378C29.1429 32.6497 29.7824 32.0107 30.5714 32.0107L40.5714 32.0107Z" fill="var(--tiny-second-color, #aeaeAE)" fill-rule="evenodd"/>
</svg>