<svg viewBox="0 0 48 48" xmlns="http://www.w3.org/2000/svg" xmlns:xlink="http://www.w3.org/1999/xlink" width="48.000000" height="48.000000">
  <path id="形状结合" d="M36.5002 8C40.6423 8 44.0002 11.3579 44.0002 15.5003L43.9993 19.663C43.9991 20.1999 43.712 20.6959 43.2464 20.9633C42.1654 21.5842 41.486 22.7328 41.486 24.0014C41.486 25.27 42.1654 26.4185 43.2464 27.0394C43.712 27.3069 43.9991 27.8028 43.9993 28.3398L44.0002 32.5072C44.0002 36.6494 40.6423 40.0072 36.5002 40.0072L11.5 40.0072C7.35788 40.0072 4 36.6494 4 32.5073L4 28.3326C4 27.7971 4.28545 27.3022 4.74897 27.0341C5.82488 26.4118 6.50019 25.2662 6.50019 24.0014C6.50019 22.7365 5.82488 21.5909 4.74897 20.9686C4.28545 20.7005 4 20.2056 4 19.6702L4 15.5C4 11.3579 7.35788 8 11.5 8L36.5002 8Z" fill="var(--tiny-first-color, #191919)" fill-rule="nonzero"/>
  <path id="矢量 1851" d="M24.7942 14.5689L27.1654 17.533L29.7085 14.5359C30.252 13.8953 31.1822 13.8191 31.8227 14.3626C32.4632 14.9061 32.5395 15.8365 31.996 16.4769L28.8829 20.1455L30.6395 20.1455C31.4795 20.1455 32.1395 20.8057 32.1395 21.6455C32.1395 22.4856 31.4795 23.1455 30.6395 23.1455L28.6312 23.1455L28.6312 25.408L30.7625 25.408C31.6025 25.408 32.2625 26.0681 32.2625 26.908C32.2625 27.7481 31.6025 28.408 30.7625 28.408L28.6312 28.408L28.6312 31.2935C28.6312 32.1336 27.9712 32.7935 27.1312 32.7935C26.2912 32.7935 25.6312 32.1336 25.6312 31.2935L25.6312 28.408L23.5 28.408C22.66 28.408 22 27.7481 22 26.908C22 26.0681 22.66 25.408 23.5 25.408L25.6312 25.408L25.6312 23.1455L23.6229 23.1455C22.7829 23.1455 22.1229 22.4856 22.1229 21.6455C22.1229 20.8057 22.7829 20.1455 23.6229 20.1455L25.4137 20.1455L22.4516 16.4429C21.9269 15.7872 22.0299 14.8594 22.6859 14.3348C23.3418 13.8099 24.2695 13.9129 24.7942 14.5689Z" fill="var(--tiny-second-color, #aeaeAE)" fill-rule="evenodd"/>
  <path id="矢量 1938(边框)" d="M15.5 10L15.5 12.3333C15.5 12.8333 15.375 13.2083 15.125 13.4583C14.875 13.7083 14.5 13.8333 14 13.8333C13.5 13.8333 13.125 13.7083 12.875 13.4583C12.625 13.2083 12.5 12.8333 12.5 12.3333L12.5 10C12.5 9.16 13.16 8.5 14 8.5C14.84 8.5 15.5 9.16 15.5 10ZM15.5 21.6667L15.5 17C15.5 16.5 15.375 16.125 15.125 15.875C14.875 15.625 14.5 15.5 14 15.5C13.5 15.5 13.125 15.625 12.875 15.875C12.625 16.125 12.5 16.5 12.5 17L12.5 21.6667C12.5 22.1667 12.625 22.5417 12.875 22.7917C13.125 23.0417 13.5 23.1667 14 23.1667C14.5 23.1667 14.875 23.0417 15.125 22.7917C15.375 22.5417 15.5 22.1667 15.5 21.6667ZM15.5 31L15.5 26.3333C15.5 25.8333 15.375 25.4583 15.125 25.2083C14.875 24.9583 14.5 24.8333 14 24.8333C13.5 24.8333 13.125 24.9583 12.875 25.2083C12.625 25.4583 12.5 25.8333 12.5 26.3333L12.5 31C12.5 31.5 12.625 31.875 12.875 32.125C13.125 32.375 13.5 32.5 14 32.5C14.5 32.5 14.875 32.375 15.125 32.125C15.375 31.875 15.5 31.5 15.5 31ZM15.5 38L15.5 35.6667C15.5 35.1667 15.375 34.7917 15.125 34.5417C14.875 34.2917 14.5 34.1667 14 34.1667C13.5 34.1667 13.125 34.2917 12.875 34.5417C12.625 34.7917 12.5 35.1667 12.5 35.6667L12.5 38C12.5 38.84 13.16 39.5 14 39.5C14.84 39.5 15.5 38.84 15.5 38Z" fill="var(--tiny-second-color, #aeaeAE)" fill-rule="evenodd"/>
</svg>