<svg viewBox="0 0 48 48" xmlns="http://www.w3.org/2000/svg" xmlns:xlink="http://www.w3.org/1999/xlink" width="48.000000" height="48.000000">
  <path id="矢量 1945" d="M38.5 20.3457L33.6365 18.1045C33.2239 17.9648 32.7733 17.9658 32.3692 18.1035L28.4318 19.917C28.5641 19.6929 28.6395 19.4297 28.6395 19.1455C28.6395 18.3057 27.9795 17.6455 27.1395 17.6455L23.3829 17.6455L26.496 13.9771C27.0395 13.3364 26.9632 12.4062 26.3227 11.8628C25.6823 11.3193 24.752 11.3955 24.2085 12.0361L21.6654 15.0332L19.2942 12.0688C18.7695 11.4131 17.8418 11.3101 17.1859 11.835C16.5299 12.3594 16.4269 13.2871 16.9516 13.9429L19.9137 17.6455L16.1229 17.6455C15.2829 17.6455 14.6229 18.3057 14.6229 19.1455C14.6229 19.9858 15.2829 20.6455 16.1229 20.6455L20.1312 20.6455L20.1312 22.9082L16 22.9082C15.16 22.9082 14.5 23.5684 14.5 24.4082C14.5 25.248 15.16 25.9082 16 25.9082L20.1312 25.9082L20.1312 28.7935C20.1312 29.5894 20.7235 30.2236 21.5 30.2881L21.5 33.811C21.5 36.8281 22.9944 39.6074 25.5257 41.498L11.5 41.5C8.30464 41.5 5.69267 39.002 5.51019 35.8525L5.5 35.5L5.5 11.5C5.5 8.30469 7.99783 5.69287 11.1475 5.51025L11.5 5.5L32.5 5.5C35.6954 5.5 38.3073 7.99805 38.4898 11.1475L38.5 11.5L38.5 20.3457ZM32.4114 20.584C32.7428 20.4722 33.1122 20.4712 33.4505 20.585L40.9523 24.021C41.7916 24.2974 42.3573 25.0093 42.3573 25.7925L42.3573 33.3828C42.3573 36.5229 40.3589 39.3462 37.1436 40.7495L33.3246 42.4185C33.1999 42.4731 33.0637 42.5 32.9286 42.5C32.7936 42.5 32.6573 42.4731 32.5327 42.4185L28.7136 40.7495C25.4984 39.3462 23.5 36.5229 23.5 33.3828L23.5 25.7925C23.5 25.0093 24.0657 24.2974 24.905 24.021L32.4114 20.584ZM23.1312 20.6455L26.8508 20.6455L23.2137 22.3213C23.1859 22.3301 23.1585 22.3398 23.1312 22.3496L23.1312 20.6455ZM32.9286 25C34.7797 25 36.2802 26.499 36.2802 28.3477C36.2802 29.5039 35.6887 30.5591 34.732 31.1704C34.7081 31.1855 34.6806 31.2017 34.6483 31.2197C34.588 31.2534 34.5461 31.3115 34.5317 31.3774L34.5261 31.4277L34.5253 31.8428L34.5266 31.8745C34.5328 31.9272 34.5651 31.9717 34.61 31.9956L34.6459 32.0098L34.6851 32.0146L36.8388 32.0146C37.4684 32.0146 37.9845 32.5 38.0322 33.1167L38.0358 33.21L38.0358 34.8042C38.0358 35.4331 37.5497 35.9487 36.9324 35.9966L36.8388 36L29.0185 36C28.3889 36 27.8728 35.5146 27.8251 34.8979L27.8215 34.8042L27.8215 33.21C27.8215 32.5811 28.3076 32.0659 28.9249 32.0181L29.0185 32.0146L31.1742 32.0146C31.2496 32.0146 31.3129 31.9624 31.3295 31.8921L31.3338 31.8555L31.3345 31.4258C31.3347 31.3379 31.2863 31.2568 31.2086 31.2148C31.1628 31.1904 31.1355 31.1753 31.1142 31.1626L31.0943 31.1504L30.9685 31.064C30.1039 30.4404 29.5771 29.4385 29.5771 28.3477C29.5771 26.499 31.0776 25 32.9286 25Z" fill="var(--tiny-first-color, #191919)" fill-rule="evenodd"/>
  <path id="减去顶层" d="M33.4505 20.5852C33.1122 20.4713 32.7428 20.4723 32.4114 20.5842L24.905 24.0209C24.0657 24.2972 23.5 25.0091 23.5 25.7925L23.5 33.383C23.5 36.5229 25.4984 39.3461 28.7136 40.7497L32.5326 42.4185C32.6573 42.4729 32.7936 42.5001 32.9286 42.5001C33.0637 42.5001 33.1999 42.4729 33.3246 42.4185L37.1436 40.7497C40.3589 39.3461 42.3573 36.5229 42.3573 33.383L42.3573 25.7925C42.3573 25.0091 41.7916 24.2972 40.9523 24.0209L33.4505 20.5852ZM36.2802 28.3478C36.2802 26.4989 34.7797 25 32.9286 25C31.0776 25 29.5771 26.4989 29.5771 28.3478C29.5771 29.4387 30.1039 30.4406 30.9685 31.0638L31.0943 31.1502L31.1142 31.1626C31.1355 31.1755 31.1628 31.1904 31.2086 31.215C31.2863 31.2568 31.3347 31.3379 31.3345 31.426L31.3338 31.8554L31.3295 31.8919C31.3129 31.9622 31.2496 32.0145 31.1742 32.0145L29.0185 32.0145L28.9249 32.0181C28.3076 32.0658 27.8215 32.5813 27.8215 33.2102L27.8215 34.8044L27.8251 34.8979C27.8728 35.5145 28.3889 36.0001 29.0185 36.0001L36.8388 36.0001L36.9324 35.9965C37.5497 35.9488 38.0358 35.4333 38.0358 34.8044L38.0358 33.2102L38.0322 33.1168C37.9845 32.5001 37.4684 32.0145 36.8388 32.0145L34.6851 32.0145L34.6459 32.0097L34.61 31.9958C34.5651 31.9718 34.5328 31.9271 34.5266 31.8743L34.5253 31.843L34.5261 31.428L34.5317 31.3772C34.5461 31.3113 34.588 31.2536 34.6483 31.2198C34.6806 31.2017 34.7081 31.1855 34.732 31.1702C35.6887 30.5592 36.2802 29.5037 36.2802 28.3478Z" fill="var(--tiny-second-color, #aeaeAE)" fill-rule="evenodd"/>
</svg>