<svg viewBox="0 0 48 48" xmlns="http://www.w3.org/2000/svg" xmlns:xlink="http://www.w3.org/1999/xlink" width="48.000000" height="48.000000">
  <path id="合并" d="M38.9005 10.4612C38.9005 6.89279 36.0798 4 32.6004 4L12.2 4C8.72058 4 5.89999 6.89279 5.89999 10.4612L5.89999 37.5369C5.89999 41.1053 8.72058 43.9981 12.2 43.9981L22.7906 44C21.7345 43.1015 20.7929 42.0663 19.9916 40.921L12.2 40.9213C10.3774 40.9213 8.89999 39.4061 8.89999 37.5369L8.89999 10.4612C8.89999 8.59204 10.3774 7.07678 12.2 7.07678L32.6004 7.07678C34.423 7.07678 35.9005 8.59204 35.9005 10.4612L35.9001 15.2242C36.939 15.4192 37.9428 15.7172 38.9012 16.1074L38.9005 10.4612ZM29 11.5C29.8284 11.5 30.5 12.1716 30.5 13C30.5 13.7594 29.9357 14.387 29.2035 14.4863L29 14.5L15 14.5C14.1716 14.5 13.5 13.8284 13.5 13C13.5 12.2406 14.0643 11.613 14.7964 11.5137L15 11.5L29 11.5ZM23.5 19C23.5 18.1716 22.8284 17.5 22 17.5L15 17.5L14.7964 17.5137C14.0643 17.613 13.5 18.2406 13.5 19C13.5 19.8284 14.1716 20.5 15 20.5L22 20.5L22.2035 20.4863C22.9357 20.387 23.5 19.7594 23.5 19ZM33 18.5C39.9035 18.5 45.5 24.0964 45.5 31C45.5 37.9036 39.9035 43.5 33 43.5C26.0964 43.5 20.5 37.9036 20.5 31C20.5 24.0964 26.0964 18.5 33 18.5ZM23.5 31C23.5 25.7533 27.7533 21.5 33 21.5C38.2467 21.5 42.5 25.7533 42.5 31C42.5 36.2467 38.2467 40.5 33 40.5C27.7533 40.5 23.5 36.2467 23.5 31ZM30.7715 37.0838C30.5847 37.182 30.3922 37.2487 30.1941 37.2838C30.0234 37.314 29.8484 37.3208 29.6694 37.304C29.4985 37.2881 29.3349 37.2518 29.1788 37.1951C29.0066 37.1326 28.8434 37.0453 28.6892 36.9333C28.535 36.8213 28.4016 36.693 28.2889 36.5486C28.1868 36.4176 28.1017 36.2733 28.0337 36.1157C27.9625 35.9505 27.9149 35.7821 27.8908 35.6103C27.863 35.4111 27.8669 35.2075 27.9026 34.9994L28.3282 32.5179L26.5253 30.7606C26.3742 30.6132 26.2513 30.4508 26.1567 30.2732C26.0752 30.1202 26.0147 29.9559 25.9753 29.7804C25.9376 29.6129 25.9216 29.4462 25.9273 29.2802C25.9335 29.0971 25.9661 28.9149 26.025 28.7337C26.0839 28.5524 26.1646 28.3859 26.2672 28.2341C26.3602 28.0965 26.4711 27.971 26.6 27.8576C26.7351 27.7388 26.8806 27.6415 27.0365 27.5655C27.2173 27.4775 27.4122 27.4183 27.6212 27.3879L30.1127 27.0259L31.2269 24.7682C31.3204 24.5789 31.4369 24.4118 31.5765 24.267C31.6969 24.1422 31.8344 24.0339 31.9891 23.9422C32.1368 23.8546 32.2904 23.7879 32.4501 23.742C32.6261 23.6913 32.8094 23.666 33 23.666C33.1906 23.666 33.3739 23.6913 33.5499 23.742C33.7096 23.7879 33.8632 23.8546 34.0109 23.9422C34.1656 24.0339 34.3031 24.1422 34.4235 24.267C34.5631 24.4118 34.6797 24.5789 34.7731 24.7682L35.8873 27.0259L38.3789 27.3879C38.5878 27.4183 38.7827 27.4775 38.9635 27.5655C39.1194 27.6415 39.2649 27.7388 39.4 27.8576C39.5289 27.971 39.6398 28.0965 39.7328 28.2341C39.8354 28.3859 39.9161 28.5524 39.975 28.7337C40.0339 28.9149 40.0665 29.0971 40.0727 29.2801C40.0784 29.4461 40.0624 29.6129 40.0247 29.7804C39.9853 29.9559 39.9248 30.1202 39.8433 30.2732C39.7487 30.4507 39.6259 30.6132 39.4747 30.7606L37.6718 32.5179L38.0974 34.9994C38.1331 35.2075 38.137 35.4111 38.1092 35.6103C38.0852 35.7821 38.0375 35.9505 37.9663 36.1157C37.8983 36.2733 37.8132 36.4176 37.7111 36.5486C37.5984 36.693 37.465 36.8213 37.3108 36.9333C37.1566 37.0453 36.9934 37.1326 36.8212 37.1951C36.6651 37.2518 36.5016 37.2881 36.3306 37.304C36.1516 37.3208 35.9766 37.314 35.8059 37.2838C35.6078 37.2487 35.4154 37.182 35.2285 37.0838L33 35.9122L30.7715 37.0838ZM30.8387 32.6697L30.5457 34.3781L32.0799 33.5715C32.2239 33.4958 32.3726 33.439 32.5259 33.4011C32.6793 33.3633 32.8373 33.3444 33 33.3444C33.1627 33.3444 33.3207 33.3633 33.4741 33.4011C33.6274 33.439 33.7761 33.4958 33.9201 33.5715L35.4543 34.3781L35.1613 32.6697C35.1338 32.5093 35.1258 32.3504 35.1372 32.1928C35.1485 32.0353 35.1794 31.8792 35.2296 31.7244C35.2799 31.5697 35.3468 31.4253 35.4301 31.2911C35.5135 31.157 35.6135 31.0331 35.73 30.9195L36.9712 29.7097L35.2559 29.4604C35.0949 29.437 34.9412 29.3956 34.7949 29.336C34.6486 29.2765 34.5096 29.199 34.378 29.1033C34.2464 29.0077 34.1297 28.8995 34.0278 28.7787C33.926 28.658 33.8391 28.5247 33.7671 28.3788L33 26.8244L32.2329 28.3788C32.1609 28.5247 32.074 28.658 31.9722 28.7787C31.8704 28.8995 31.7536 29.0077 31.622 29.1033C31.4904 29.199 31.3514 29.2765 31.2051 29.3361C31.0588 29.3956 30.9051 29.437 30.7441 29.4604L29.0288 29.7097L30.27 30.9195C30.3865 31.0331 30.4865 31.157 30.5699 31.2911C30.6533 31.4253 30.7201 31.5697 30.7704 31.7244C30.8206 31.8792 30.8515 32.0353 30.8629 32.1928C30.8742 32.3504 30.8662 32.5093 30.8387 32.6697Z" fill="var(--tiny-first-color, #191919)" fill-rule="evenodd"/>
  <path id="合并" d="M33 18.5C39.9036 18.5 45.5 24.0964 45.5 31C45.5 37.9036 39.9036 43.5 33 43.5C26.0965 43.5 20.5 37.9036 20.5 31C20.5 24.0964 26.0965 18.5 33 18.5ZM23.5 31C23.5 25.7533 27.7533 21.5 33 21.5C38.2467 21.5 42.5 25.7533 42.5 31C42.5 36.2467 38.2467 40.5 33 40.5C27.7533 40.5 23.5 36.2467 23.5 31ZM30.7715 37.0838C30.5847 37.182 30.3922 37.2487 30.1941 37.2838C30.0234 37.314 29.8484 37.3208 29.6694 37.304C29.4985 37.2881 29.3349 37.2518 29.1788 37.1951C29.0066 37.1326 28.8434 37.0453 28.6892 36.9333C28.535 36.8213 28.4016 36.693 28.2889 36.5486C28.1868 36.4176 28.1017 36.2733 28.0337 36.1157C27.9625 35.9505 27.9149 35.7821 27.8908 35.6103C27.863 35.4111 27.8669 35.2075 27.9026 34.9994L28.3282 32.5179L26.5253 30.7606C26.3742 30.6132 26.2513 30.4508 26.1567 30.2732C26.0752 30.1202 26.0147 29.9559 25.9753 29.7804C25.9376 29.6129 25.9216 29.4462 25.9273 29.2802C25.9335 29.0971 25.9661 28.9149 26.025 28.7337C26.0839 28.5524 26.1646 28.3859 26.2672 28.2341C26.3602 28.0965 26.4711 27.971 26.6 27.8576C26.7351 27.7388 26.8806 27.6415 27.0365 27.5655C27.2173 27.4775 27.4122 27.4183 27.6212 27.3879L30.1127 27.0259L31.2269 24.7682C31.3204 24.5789 31.4369 24.4118 31.5765 24.267C31.6969 24.1422 31.8344 24.0339 31.9891 23.9422C32.1368 23.8546 32.2904 23.7879 32.4501 23.742C32.6261 23.6913 32.8094 23.666 33 23.666C33.1906 23.666 33.3739 23.6913 33.5499 23.742C33.7096 23.7879 33.8632 23.8546 34.0109 23.9422C34.1656 24.0339 34.3031 24.1422 34.4235 24.267C34.5631 24.4118 34.6797 24.5789 34.7731 24.7682L35.8873 27.0259L38.3789 27.3879C38.5878 27.4183 38.7827 27.4775 38.9635 27.5655C39.1194 27.6415 39.2649 27.7388 39.4 27.8576C39.5289 27.971 39.6398 28.0965 39.7328 28.2341C39.8354 28.3859 39.9161 28.5524 39.975 28.7337C40.0339 28.9149 40.0665 29.0971 40.0727 29.2801C40.0784 29.4461 40.0624 29.6129 40.0247 29.7804C39.9853 29.9559 39.9248 30.1202 39.8433 30.2732C39.7487 30.4507 39.6259 30.6132 39.4747 30.7606L37.6718 32.5179L38.0974 34.9994C38.1331 35.2075 38.137 35.4111 38.1092 35.6103C38.0852 35.7821 38.0375 35.9505 37.9663 36.1157C37.8983 36.2733 37.8132 36.4176 37.7111 36.5486C37.5984 36.693 37.465 36.8213 37.3108 36.9333C37.1566 37.0453 36.9934 37.1326 36.8212 37.1951C36.6651 37.2518 36.5016 37.2881 36.3306 37.304C36.1516 37.3208 35.9766 37.314 35.8059 37.2838C35.6078 37.2487 35.4154 37.182 35.2285 37.0838L33 35.9122L30.7715 37.0838ZM30.8387 32.6697L30.5457 34.3781L32.0799 33.5715C32.2239 33.4958 32.3726 33.439 32.5259 33.4011C32.6793 33.3633 32.8373 33.3444 33 33.3444C33.1627 33.3444 33.3207 33.3633 33.4741 33.4011C33.6274 33.439 33.7761 33.4958 33.9201 33.5715L35.4543 34.3781L35.1613 32.6697C35.1338 32.5093 35.1258 32.3504 35.1372 32.1928C35.1485 32.0353 35.1794 31.8792 35.2296 31.7244C35.2799 31.5697 35.3468 31.4253 35.4301 31.2911C35.5135 31.157 35.6135 31.0331 35.73 30.9195L36.9712 29.7097L35.2559 29.4604C35.0949 29.437 34.9412 29.3956 34.7949 29.336C34.6486 29.2765 34.5096 29.199 34.378 29.1033C34.2464 29.0077 34.1297 28.8995 34.0278 28.7787C33.926 28.658 33.8391 28.5247 33.7671 28.3788L33 26.8244L32.2329 28.3788C32.1609 28.5247 32.074 28.658 31.9722 28.7787C31.8704 28.8995 31.7536 29.0077 31.622 29.1033C31.4904 29.199 31.3514 29.2765 31.2051 29.3361C31.0588 29.3956 30.9051 29.437 30.7441 29.4604L29.0288 29.7097L30.27 30.9195C30.3865 31.0331 30.4865 31.157 30.5699 31.2911C30.6533 31.4253 30.7201 31.5697 30.7704 31.7244C30.8206 31.8792 30.8515 32.0353 30.8629 32.1928C30.8742 32.3504 30.8662 32.5093 30.8387 32.6697Z" fill="var(--tiny-second-color, #aeaeAE)" fill-rule="evenodd"/>
</svg>