<svg viewBox="0 0 48 48" xmlns="http://www.w3.org/2000/svg" xmlns:xlink="http://www.w3.org/1999/xlink" width="48.000000" height="48.000000">
  <path id="减去顶层" d="M32 4L12 4C8.68628 4 6 6.68628 6 10L6 38C6 41.3137 8.68628 44 12 44L23.7849 44C19.7192 41.5503 17 37.0928 17 32C17 24.2681 23.2681 18 31 18C33.55 18 35.9407 18.6816 38 19.873L38 10C38 6.68628 35.3137 4 32 4ZM12 10.5L27 10.5C27.8401 10.5 28.5 11.1599 28.5 12C28.5 12.8401 27.8401 13.5 27 13.5L12 13.5C11.1599 13.5 10.5 12.8401 10.5 12C10.5 11.1599 11.1599 10.5 12 10.5ZM12 17.5L16 17.5C16.8401 17.5 17.5 18.1599 17.5 19C17.5 19.8401 16.8401 20.5 16 20.5L12 20.5C11.1599 20.5 10.5 19.8401 10.5 19C10.5 18.1599 11.1599 17.5 12 17.5ZM20 32C20 25.9248 24.9248 21 31 21C37.0752 21 42 25.9248 42 32C42 38.0752 37.0752 43 31 43C24.9248 43 20 38.0752 20 32ZM27.6021 37.7864L30.6616 36.1779C30.8734 36.0665 31.1266 36.0665 31.3384 36.1779L34.3979 37.7864C34.9315 38.0669 35.5551 37.6138 35.4532 37.0197L34.8689 33.6129C34.8284 33.377 34.9066 33.1363 35.078 32.9692L37.5532 30.5565C37.9849 30.1357 37.7467 29.4026 37.1502 29.316L33.7295 28.8189C33.4926 28.7845 33.2879 28.6357 33.1819 28.4211L31.6522 25.3214C31.3854 24.7809 30.6146 24.7809 30.3478 25.3214L28.8181 28.4211C28.7121 28.6357 28.5074 28.7845 28.2705 28.8189L24.8498 29.316C24.2533 29.4026 24.0151 30.1357 24.4468 30.5565L26.922 32.9692C27.0934 33.1363 27.1716 33.377 27.1311 33.6129L26.5468 37.0197C26.4449 37.6138 27.0685 38.0669 27.6021 37.7864Z" fill="var(--tiny-first-color, #191919)" fill-rule="evenodd"/>
  <path id="减去顶层" d="M31 21C24.9248 21 20 25.9248 20 32C20 38.0752 24.9248 43 31 43C37.0752 43 42 38.0752 42 32C42 25.9248 37.0752 21 31 21ZM27.6021 37.7864L30.6616 36.1779C30.8734 36.0665 31.1266 36.0665 31.3384 36.1779L34.3979 37.7864C34.9315 38.0669 35.5551 37.6138 35.4532 37.0197L34.8689 33.6129C34.8284 33.377 34.9066 33.1363 35.078 32.9692L37.5532 30.5565C37.9849 30.1357 37.7467 29.4026 37.1502 29.316L33.7295 28.8189C33.4926 28.7845 33.2879 28.6357 33.1819 28.4211L31.6522 25.3214C31.3854 24.7809 30.6146 24.7809 30.3478 25.3214L28.8181 28.4211C28.7121 28.6357 28.5074 28.7845 28.2705 28.8189L24.8498 29.316C24.2533 29.4026 24.0151 30.1357 24.4468 30.5565L26.922 32.9692C27.0934 33.1363 27.1716 33.377 27.1311 33.6129L26.5468 37.0197C26.4449 37.6138 27.0685 38.0669 27.6021 37.7864Z" fill="var(--tiny-second-color, #aeaeAE)" fill-rule="evenodd"/>
</svg>