<svg viewBox="0 0 48 48" xmlns="http://www.w3.org/2000/svg" xmlns:xlink="http://www.w3.org/1999/xlink" width="48.000000" height="48.000000">
  <path id="减去顶层" d="M36.0003 6C39.314 6 42.0003 8.68629 42.0003 12L42.0003 18.5L6 18.5L6 12C6 8.68629 8.68663 6 12.0003 6L36.0003 6ZM6 21.5L18.5 21.5007L18.5 42L12.0003 42C8.68663 42 6.00034 39.3137 6.00034 36L6 21.5ZM42 21.5L42.0003 36C42.0003 39.3137 39.314 42 36.0003 42L21.5 42L21.5 21.5007L42 21.5ZM36.5 26C37.3284 26 38 26.6716 38 27.5C38 28.2594 37.4357 28.887 36.7035 28.9863L36.5 29L28.5 29C27.6716 29 27 28.3284 27 27.5C27 26.7406 27.5643 26.113 28.2964 26.0137L28.5 26L36.5 26ZM34 33.5C34 32.6716 33.3284 32 32.5 32L28.5 32L28.2964 32.0137C27.5643 32.113 27 32.7406 27 33.5C27 34.3284 27.6716 35 28.5 35L32.5 35L32.7035 34.9863C33.4357 34.887 34 34.2594 34 33.5Z" fill="var(--tiny-first-color, #191919)" fill-rule="evenodd"/>
  <path id="矢量 1939" d="M6 21.5L18.5 21.501L18.5 42L12.0003 42C8.68663 42 6.00034 39.3135 6.00034 36L6 21.5Z" fill="var(--tiny-second-color, #aeaeAE)" fill-rule="evenodd"/>
</svg>