<svg viewBox="0 0 48 48" xmlns="http://www.w3.org/2000/svg" xmlns:xlink="http://www.w3.org/1999/xlink" width="48.000000" height="48.000000">
  <path id="合并" d="M32 4C35.1954 4 37.8073 6.49784 37.9898 9.64745L38 10L38 18.3438C38 19.1722 37.3284 19.8438 36.5 19.8438C35.7406 19.8438 35.113 19.2794 35.0137 18.5473L35 18.3438L35 10C35 8.44061 33.8102 7.1591 32.2889 7.01373L32 7L11 7C9.44061 7 8.1591 8.18978 8.01373 9.71108L8 10L8 37C8 38.5594 9.18978 39.8409 10.7111 39.9863L11 40L19.8 40C20.6284 40 21.3 40.6716 21.3 41.5C21.3 42.2594 20.7357 42.887 20.0035 42.9863L19.8 43L11 43C7.80464 43 5.19268 40.5022 5.01019 37.3525L5 37L5 10C5 6.80464 7.49784 4.19268 10.6475 4.01019L11 4L32 4ZM17.7942 12.5699L20.1654 15.534L22.7085 12.5369C23.252 11.8963 24.1823 11.8201 24.8228 12.3636C25.4632 12.907 25.5395 13.8375 24.996 14.4778L21.8829 18.1465L25.6395 18.1465C26.4795 18.1465 27.1395 18.8067 27.1395 19.6465C27.1395 20.4866 26.4795 21.1465 25.6395 21.1465L21.6312 21.1465L21.6312 23.409L21.9458 23.409L21.7882 23.4811C20.72 23.8328 20 24.7388 20 25.7359L20 30.789C19.2235 30.7244 18.6312 30.0903 18.6312 29.2945L18.6312 26.409L14.5 26.409C13.66 26.409 13 25.749 13 24.909C13 24.0691 13.66 23.409 14.5 23.409L18.6312 23.409L18.6312 21.1465L14.6229 21.1465C13.7829 21.1465 13.1229 20.4866 13.1229 19.6465C13.1229 18.8067 13.7829 18.1465 14.6229 18.1465L18.4137 18.1465L15.4516 14.4439C14.9269 13.7881 15.03 12.8604 15.6859 12.3357C16.3418 11.8108 17.2695 11.9139 17.7942 12.5699ZM31.4526 20.1841L31.3819 20.2164L24.2832 23.4665C24.0809 23.5387 23.8879 23.6271 23.7041 23.7318C23.6148 23.7826 23.5276 23.8373 23.4427 23.8958C23.2342 24.0395 23.0454 24.2016 22.8764 24.3821L22.8764 24.3822C22.8132 24.4497 22.7528 24.5197 22.6951 24.5924C22.5401 24.7878 22.4102 24.9953 22.3054 25.2148L22.3054 25.2149C22.2618 25.3061 22.2227 25.3995 22.1878 25.4949C22.115 25.6944 22.0634 25.8971 22.0329 26.1028C22.011 26.2509 22 26.4006 22 26.5519L22 33.7973C22 34.2403 22.0338 34.678 22.1013 35.1104L22.1013 35.1104C22.1713 35.5584 22.2775 36.0007 22.42 36.4373C22.4875 36.6441 22.5625 36.8479 22.645 37.0485C22.8973 37.6617 23.22 38.246 23.6131 38.8013C23.656 38.862 23.6997 38.9222 23.744 38.9818L23.7444 38.9823C24.2328 39.6384 24.8072 40.2305 25.4678 40.7584C26.1918 41.3372 26.9947 41.819 27.8765 42.2039L31.5215 43.7966C31.6609 43.8575 31.8036 43.9048 31.9494 43.9383L31.95 43.9385C32.1287 43.9795 32.312 44.0001 32.5001 44.0001C32.6897 44.0001 32.8745 43.9792 33.0544 43.9375C33.1988 43.904 33.3402 43.8571 33.4784 43.7967L37.1241 42.2037C38.0055 41.8189 38.8083 41.3372 39.5324 40.7584C40.1929 40.2305 40.7673 39.6385 41.2556 38.9825C41.3001 38.9226 41.344 38.8622 41.3871 38.8013C41.7801 38.246 42.1028 37.6617 42.3551 37.0484C42.4376 36.8478 42.5126 36.6441 42.5801 36.4373C42.7226 36.0007 42.8288 35.5584 42.8988 35.1104C42.9663 34.678 43.0001 34.2403 43.0001 33.7973L43.0001 26.5519C43.0001 26.4006 42.9892 26.2509 42.9672 26.1029C42.9368 25.8971 42.8851 25.6944 42.8123 25.4949C42.7775 25.3995 42.7383 25.3061 42.6947 25.2148C42.59 24.9953 42.4601 24.7878 42.305 24.5924C42.2473 24.5197 42.1869 24.4497 42.1237 24.3822C41.9547 24.2016 41.7659 24.0395 41.5574 23.8958C41.4724 23.8373 41.3853 23.7826 41.2959 23.7317C41.1122 23.6271 40.9192 23.5387 40.717 23.4665L33.5514 20.1848L33.477 20.1597C33.3318 20.1108 33.1846 20.0732 33.0354 20.0467C32.8597 20.0155 32.6811 19.9999 32.4998 19.9999C32.3046 19.9999 32.1129 20.018 31.9246 20.0541C31.7901 20.0799 31.6573 20.1149 31.5263 20.1592L31.4526 20.1841ZM32.5012 23.0035L25.3896 26.2595L25.3101 26.2856C25.1939 26.3239 25.1056 26.3811 25.0451 26.4572C25.0151 26.4951 25 26.5267 25 26.5519L25 33.7973C25 34.0813 25.0215 34.3619 25.0643 34.6392L25.0644 34.6393C25.1097 34.9321 25.1789 35.2213 25.272 35.5068C25.2934 35.5724 25.316 35.6376 25.3398 35.7023C25.5157 36.1814 25.7564 36.6367 26.0618 37.0682C26.4143 37.5663 26.8407 38.0153 27.3408 38.415C27.8585 38.8288 28.4371 39.1752 29.0768 39.4545L32.5001 40.9503L35.9229 39.4547C36.5628 39.1753 37.1417 38.8288 37.6593 38.415C38.1594 38.0153 38.5858 37.5664 38.9383 37.0682C39.2437 36.6368 39.4843 36.1816 39.6602 35.7027C39.684 35.6378 39.7066 35.5725 39.7281 35.5068C39.8213 35.2212 39.8905 34.932 39.9358 34.639C39.9787 34.3618 40.0001 34.0812 40.0001 33.7973L40.0001 26.5519C40.0001 26.5267 39.9851 26.4951 39.955 26.4572C39.8946 26.3811 39.8062 26.3239 39.69 26.2856L39.6105 26.2594L32.5012 23.0035ZM36.5634 30.0598C36.654 29.7155 36.6993 29.3592 36.6993 28.991C36.6993 28.6839 36.6672 28.3839 36.603 28.0909C36.5482 27.8412 36.4702 27.5966 36.3688 27.3572C36.2679 27.1189 36.1473 26.8936 36.0071 26.6813C35.8519 26.4462 35.6725 26.2271 35.469 26.0238C35.2671 25.8222 35.0495 25.6442 34.8163 25.49C34.6022 25.3484 34.375 25.2269 34.1346 25.1253C33.896 25.0245 33.6524 24.9468 33.4038 24.8922L33.4036 24.8922C33.1095 24.8276 32.8083 24.7953 32.5001 24.7953C32.1918 24.7953 31.8907 24.8276 31.5966 24.8922C31.3479 24.9468 31.1042 25.0245 30.8656 25.1253C30.6252 25.2269 30.398 25.3484 30.1839 25.49C29.9507 25.6442 29.7331 25.8222 29.5312 26.0238C29.3277 26.2271 29.1484 26.4462 28.9931 26.6813L28.9931 26.6814C28.8528 26.8937 28.7323 27.1189 28.6314 27.3572C28.53 27.5966 28.452 27.8412 28.3972 28.0908L28.3972 28.0909C28.333 28.3839 28.3009 28.6839 28.3009 28.991C28.3009 29.3399 28.3418 29.6786 28.4237 30.007C28.5013 30.3182 28.6157 30.6203 28.7668 30.9132C28.8723 31.1178 28.9919 31.3104 29.1256 31.491L28.7484 31.491L28.6206 31.496L28.6014 31.4974C28.4618 31.5082 28.3258 31.532 28.1935 31.5687C28.0675 31.6037 27.9447 31.6505 27.8252 31.709C27.7097 31.7656 27.6009 31.8314 27.4989 31.9064C27.3914 31.9854 27.2913 32.0746 27.1988 32.174C27.1046 32.2752 27.0215 32.3834 26.9496 32.4985C26.8831 32.6047 26.8262 32.7169 26.7788 32.8351C26.7308 32.9545 26.6941 33.0762 26.6686 33.2002L26.6685 33.2004C26.6396 33.3414 26.6251 33.4854 26.6251 33.6323L26.6251 35.1734L26.63 35.3011L26.6315 35.3204C26.6423 35.4596 26.666 35.5952 26.7026 35.7272C26.7377 35.8537 26.7847 35.9769 26.8436 36.0968C26.8999 36.2115 26.9653 36.3195 27.0398 36.4209C27.1193 36.5291 27.2091 36.6298 27.3092 36.7228C27.41 36.8164 27.5176 36.8989 27.6321 36.9705C27.7389 37.0372 27.8518 37.0944 27.9706 37.1421C28.0897 37.1898 28.2111 37.2264 28.3348 37.2518C28.4761 37.2809 28.6204 37.2954 28.7677 37.2954L36.2518 37.2954L36.3796 37.2905L36.3988 37.289C36.5384 37.2782 36.6744 37.2545 36.8067 37.2177C36.9327 37.1827 37.0555 37.136 37.175 37.0774C37.2904 37.0209 37.3992 36.9551 37.5012 36.8802L37.5013 36.8801C37.6088 36.8011 37.7089 36.7119 37.8014 36.6124C37.8956 36.5113 37.9787 36.4031 38.0506 36.288C38.117 36.1817 38.174 36.0695 38.2214 35.9514C38.2694 35.8319 38.3061 35.7101 38.3316 35.586C38.3606 35.445 38.3751 35.301 38.3751 35.1541L38.3751 33.6131L38.3702 33.4853L38.3687 33.466C38.3579 33.3268 38.3342 33.1912 38.2976 33.0592C38.2625 32.9327 38.2155 32.8096 38.1566 32.6897C38.1003 32.575 38.0349 32.4669 37.9604 32.3655C37.8809 32.2573 37.7911 32.1567 37.6909 32.0637C37.5902 31.9701 37.4826 31.8876 37.3682 31.816C37.2613 31.7492 37.1484 31.692 37.0296 31.6444C36.9105 31.5967 36.7891 31.5601 36.6654 31.5346C36.5241 31.5056 36.3798 31.491 36.2325 31.491L35.8745 31.491C35.9851 31.3413 36.0864 31.183 36.1784 31.0162C36.3483 30.7083 36.4766 30.3895 36.5634 30.0598ZM31.2054 30.7662C31.0597 30.6602 30.9304 30.5403 30.8175 30.4066C30.7121 30.2819 30.621 30.145 30.5441 29.9961C30.4672 29.847 30.4085 29.6933 30.3681 29.5349L30.3681 29.5349C30.3233 29.3593 30.3009 29.178 30.3009 28.991C30.3009 28.8192 30.3199 28.6518 30.3581 28.4889C30.3861 28.3692 30.4245 28.2519 30.4731 28.137C30.5233 28.0185 30.5828 27.9061 30.6517 27.7998C30.7355 27.6705 30.8331 27.5502 30.9446 27.4388C31.0546 27.329 31.1733 27.2326 31.3007 27.1497C31.4088 27.0793 31.5233 27.0186 31.644 26.9676C31.7583 26.9194 31.8749 26.8812 31.9939 26.8532C32.1581 26.8146 32.3268 26.7953 32.5001 26.7953C32.6734 26.7953 32.8421 26.8146 33.0063 26.8532C33.1253 26.8812 33.2419 26.9194 33.3562 26.9676C33.4769 27.0186 33.5913 27.0793 33.6995 27.1497C33.8269 27.2326 33.9456 27.329 34.0556 27.4388C34.167 27.5501 34.2646 27.6704 34.3484 27.7997L34.3484 27.7998C34.4174 27.9061 34.4769 28.0185 34.5271 28.137C34.5757 28.2519 34.6141 28.3692 34.6421 28.4889C34.6803 28.6518 34.6993 28.8192 34.6993 28.991C34.6993 29.1875 34.6748 29.3773 34.6256 29.5606C34.5803 29.7293 34.5142 29.8924 34.4273 30.0499C34.3412 30.206 34.2396 30.3478 34.1224 30.4754C33.9945 30.6147 33.8481 30.737 33.6832 30.8423C33.6774 30.846 33.6671 30.852 33.6523 30.8603C33.5752 30.9036 33.5042 30.9539 33.4395 31.0111C33.3751 31.068 33.3168 31.1319 33.2646 31.2027C33.2127 31.2731 33.1691 31.3473 33.1338 31.4253C33.0988 31.5028 33.072 31.584 33.0534 31.6689L33.0419 31.7213L33.0251 31.8759L33.0241 32.3479L33.028 32.4367L33.0321 32.4727C33.0432 32.5677 33.0651 32.6587 33.0978 32.7455C33.131 32.8335 33.1753 32.9174 33.2308 32.997C33.2835 33.0727 33.3434 33.1404 33.4105 33.2C33.4779 33.26 33.5526 33.3118 33.6345 33.3555L33.6877 33.3839L33.8933 33.4635L34.1147 33.491L36.2325 33.491C36.252 33.491 36.27 33.4944 36.2867 33.5012C36.3023 33.5075 36.3167 33.5168 36.3299 33.5291C36.3452 33.5433 36.3566 33.5592 36.3642 33.5768C36.3687 33.5873 36.3718 33.5984 36.3735 33.6101L36.3751 33.6516L36.3751 35.1541C36.3751 35.1726 36.372 35.1898 36.3657 35.2057C36.3594 35.2216 36.35 35.2363 36.3375 35.2497C36.3236 35.2647 36.3081 35.2759 36.2909 35.2836C36.2797 35.2885 36.2678 35.292 36.2551 35.2938L36.2133 35.2954L28.7677 35.2954C28.7482 35.2954 28.7302 35.292 28.7135 35.2853C28.6979 35.2789 28.6835 35.2696 28.6703 35.2574C28.655 35.2432 28.6436 35.2272 28.636 35.2097C28.6315 35.1992 28.6284 35.188 28.6267 35.1763L28.6251 35.1348L28.6251 33.6323C28.6251 33.6139 28.6282 33.5967 28.6345 33.5807C28.6408 33.5648 28.6502 33.5501 28.6627 33.5367C28.6766 33.5218 28.6921 33.5105 28.7093 33.5029C28.7205 33.4979 28.7324 33.4945 28.7451 33.4926L28.7869 33.491L30.8254 33.491C30.9604 33.491 31.088 33.4699 31.2082 33.4277C31.328 33.3856 31.4404 33.3225 31.5455 33.2384C31.6492 33.1553 31.7346 33.0607 31.8016 32.9544C31.8681 32.849 31.9165 32.7322 31.9468 32.604L31.9601 32.5477L31.9776 32.3983L31.9784 31.931C31.9786 31.8178 31.9643 31.7086 31.9353 31.6034C31.9064 31.4981 31.8629 31.3968 31.8049 31.2995C31.7469 31.2024 31.6785 31.1162 31.5998 31.0408C31.5209 30.9654 31.4316 30.9008 31.3318 30.8472C31.313 30.837 31.2997 30.8298 31.2919 30.8256L31.2054 30.7662Z" fill="var(--tiny-first-color, #191919)" fill-rule="evenodd"/>
  <path id="合并" d="M31.3819 20.2165L31.4526 20.1841L31.5263 20.1593C31.6573 20.115 31.7901 20.08 31.9246 20.0542C32.1129 20.0181 32.3046 20 32.4998 20C32.6811 20 32.8596 20.0156 33.0354 20.0468C33.1846 20.0732 33.3318 20.1109 33.477 20.1598L33.5514 20.1849L40.717 23.4666C40.9192 23.5388 41.1122 23.6272 41.2959 23.7318C41.3853 23.7827 41.4724 23.8374 41.5574 23.8959C41.7659 24.0395 41.9547 24.2016 42.1237 24.3822C42.1869 24.4497 42.2473 24.5198 42.305 24.5925C42.4601 24.7879 42.59 24.9954 42.6947 25.2148C42.7382 25.3061 42.7775 25.3995 42.8123 25.495C42.8851 25.6945 42.9368 25.8972 42.9672 26.1029C42.9892 26.251 43.0001 26.4007 43.0001 26.552L43.0001 33.7974C43.0001 34.2403 42.9663 34.678 42.8988 35.1105C42.8288 35.5584 42.7226 36.0008 42.5801 36.4374C42.5126 36.6442 42.4376 36.8479 42.3551 37.0485C42.1028 37.6617 41.7801 38.246 41.3871 38.8014C41.344 38.8623 41.3001 38.9227 41.2556 38.9825C40.7673 39.6386 40.1929 40.2306 39.5324 40.7585C38.8083 41.3372 38.0055 41.819 37.1241 42.2038L33.4784 43.7968C33.3402 43.8572 33.1988 43.9041 33.0544 43.9376C32.8745 43.9793 32.6897 44.0001 32.5001 44.0001C32.3118 44.0001 32.1282 43.9796 31.9494 43.9384C31.8036 43.9048 31.6609 43.8576 31.5215 43.7967L27.8765 42.204C26.9947 41.819 26.1918 41.3372 25.4678 40.7585C24.8072 40.2306 24.2328 39.6385 23.7444 38.9824L23.744 38.9819C23.6997 38.9222 23.656 38.8621 23.613 38.8014C23.22 38.2461 22.8973 37.6618 22.645 37.0485C22.5625 36.8479 22.4875 36.6442 22.42 36.4374C22.2775 36.0008 22.1713 35.5584 22.1013 35.1105L22.1013 35.1104C22.0338 34.678 22 34.2403 22 33.7974L22 26.552C22 26.4007 22.011 26.251 22.0329 26.1029C22.0634 25.8971 22.115 25.6945 22.1878 25.495C22.2227 25.3996 22.2618 25.3062 22.3054 25.2149L22.3054 25.2148C22.4102 24.9954 22.54 24.7879 22.6951 24.5925C22.7528 24.5198 22.8132 24.4497 22.8764 24.3822L22.8764 24.3822C23.0454 24.2016 23.2342 24.0395 23.4427 23.8959C23.5276 23.8374 23.6148 23.7827 23.7041 23.7318C23.8879 23.6272 24.0809 23.5388 24.2832 23.4666L31.3819 20.2165ZM25.3896 26.2595L32.5012 23.0036L39.6105 26.2595L39.69 26.2857C39.8062 26.3239 39.8946 26.3811 39.955 26.4573C39.9851 26.4952 40.0001 26.5268 40.0001 26.552L40.0001 33.7974C40.0001 34.0813 39.9787 34.3618 39.9358 34.6391C39.8905 34.9321 39.8213 35.2213 39.7281 35.5068C39.7066 35.5726 39.684 35.6379 39.6602 35.7028C39.4843 36.1817 39.2437 36.6369 38.9383 37.0683C38.5858 37.5664 38.1594 38.0153 37.6593 38.4151C37.1416 38.8288 36.5628 39.1754 35.9229 39.4548L32.5001 40.9504L29.0768 39.4545C28.4371 39.1753 27.8585 38.8288 27.3408 38.4151C26.8407 38.0153 26.4143 37.5664 26.0618 37.0683C25.7564 36.6368 25.5157 36.1815 25.3398 35.7024C25.316 35.6377 25.2934 35.5725 25.272 35.5068C25.1789 35.2214 25.1097 34.9322 25.0644 34.6393L25.0643 34.6393C25.0214 34.3619 25 34.0813 25 33.7974L25 26.552C25 26.5268 25.015 26.4952 25.0451 26.4573C25.1055 26.3811 25.1939 26.3239 25.3101 26.2857L25.3896 26.2595ZM36.6993 28.9911C36.6993 29.3593 36.654 29.7155 36.5634 30.0599C36.4766 30.3896 36.3483 30.7084 36.1784 31.0163C36.0864 31.1831 35.9851 31.3414 35.8745 31.4911L36.2325 31.4911C36.3798 31.4911 36.5241 31.5056 36.6654 31.5347C36.7891 31.5602 36.9105 31.5967 37.0296 31.6445C37.1484 31.6921 37.2613 31.7493 37.3682 31.8161C37.4826 31.8876 37.5902 31.9702 37.6909 32.0637C37.7911 32.1567 37.8809 32.2574 37.9604 32.3656C38.0349 32.467 38.1003 32.575 38.1566 32.6898C38.2155 32.8096 38.2625 32.9328 38.2976 33.0593C38.3342 33.1913 38.3579 33.3269 38.3687 33.4661L38.3702 33.4854L38.3751 33.6131L38.3751 35.1542C38.3751 35.3011 38.3606 35.4451 38.3316 35.5861C38.3061 35.7102 38.2694 35.832 38.2214 35.9514C38.174 36.0696 38.117 36.1818 38.0506 36.2881C37.9787 36.4032 37.8956 36.5113 37.8014 36.6125C37.7089 36.7119 37.6088 36.8011 37.5013 36.8802C37.3993 36.9551 37.2905 37.0209 37.175 37.0775C37.0555 37.136 36.9327 37.1828 36.8067 37.2178C36.6744 37.2545 36.5384 37.2783 36.3988 37.2891L36.3796 37.2906L36.2518 37.2955L28.7676 37.2955C28.6204 37.2955 28.4761 37.2809 28.3348 37.2519C28.2111 37.2264 28.0897 37.1898 27.9706 37.1421C27.8518 37.0945 27.7389 37.0373 27.6321 36.9705C27.5176 36.899 27.41 36.8164 27.3092 36.7229C27.2091 36.6298 27.1192 36.5292 27.0398 36.421C26.9653 36.3196 26.8999 36.2115 26.8436 36.0968C26.7847 35.9769 26.7377 35.8538 26.7026 35.7273C26.666 35.5953 26.6423 35.4597 26.6315 35.3205L26.63 35.3012L26.6251 35.1734L26.6251 33.6324C26.6251 33.4855 26.6396 33.3415 26.6685 33.2005C26.6941 33.0764 26.7308 32.9546 26.7788 32.8351C26.8262 32.717 26.8831 32.6048 26.9496 32.4985C27.0215 32.3834 27.1046 32.2753 27.1988 32.1741C27.2913 32.0746 27.3914 31.9854 27.4989 31.9064C27.6009 31.8315 27.7097 31.7657 27.8252 31.7091C27.9447 31.6506 28.0674 31.6038 28.1935 31.5688C28.3258 31.532 28.4618 31.5083 28.6014 31.4975L28.6206 31.496L28.7484 31.4911L29.1256 31.4911C28.9919 31.3105 28.8723 31.1178 28.7668 30.9133C28.6157 30.6204 28.5013 30.3183 28.4237 30.0071C28.3418 29.6786 28.3009 29.34 28.3009 28.9911C28.3009 28.684 28.333 28.3839 28.3972 28.0909L28.3972 28.0909C28.452 27.8412 28.53 27.5967 28.6314 27.3573C28.7323 27.119 28.8528 26.8937 28.993 26.6815L28.993 26.6814C29.1483 26.4463 29.3277 26.2272 29.5312 26.0239C29.7331 25.8222 29.9507 25.6443 30.1839 25.49C30.3979 25.3485 30.6252 25.227 30.8656 25.1254C31.1042 25.0246 31.3479 24.9469 31.5966 24.8923C31.8907 24.8277 32.1918 24.7954 32.5001 24.7954C32.8083 24.7954 33.1095 24.8277 33.4036 24.8923L33.4037 24.8923C33.6524 24.9469 33.896 25.0246 34.1346 25.1254C34.375 25.227 34.6022 25.3485 34.8163 25.49C35.0495 25.6443 35.2671 25.8222 35.469 26.0239C35.6725 26.2271 35.8519 26.4463 36.0071 26.6814C36.1473 26.8937 36.2679 27.119 36.3688 27.3573C36.4702 27.5967 36.5482 27.8413 36.603 28.0909C36.6672 28.3839 36.6993 28.684 36.6993 28.9911ZM30.8175 30.4067C30.9304 30.5404 31.0597 30.6603 31.2054 30.7663L31.2919 30.8256C31.2997 30.8299 31.313 30.8371 31.3318 30.8472C31.4316 30.9009 31.5209 30.9654 31.5998 31.0409C31.6785 31.1162 31.7469 31.2024 31.8049 31.2995C31.8629 31.3968 31.9064 31.4981 31.9353 31.6034C31.9642 31.7086 31.9786 31.8179 31.9784 31.9311L31.9776 32.3983L31.9601 32.5477L31.9468 32.6041C31.9165 32.7323 31.8681 32.8491 31.8016 32.9545C31.7346 33.0607 31.6492 33.1554 31.5455 33.2384C31.4404 33.3225 31.328 33.3856 31.2081 33.4277C31.088 33.47 30.9604 33.4911 30.8254 33.4911L28.7869 33.4911L28.7451 33.4927C28.7324 33.4946 28.7205 33.498 28.7093 33.503C28.6921 33.5106 28.6766 33.5218 28.6627 33.5368C28.6502 33.5502 28.6408 33.5649 28.6345 33.5808C28.6282 33.5967 28.6251 33.614 28.6251 33.6324L28.6251 35.1349L28.6267 35.1764C28.6284 35.1881 28.6315 35.1992 28.636 35.2097C28.6436 35.2273 28.655 35.2432 28.6703 35.2575C28.6835 35.2697 28.6979 35.279 28.7135 35.2853C28.7302 35.2921 28.7482 35.2955 28.7676 35.2955L36.2133 35.2955L36.2551 35.2939C36.2677 35.292 36.2797 35.2886 36.2909 35.2836C36.3081 35.276 36.3236 35.2647 36.3375 35.2498C36.35 35.2364 36.3594 35.2217 36.3657 35.2058C36.372 35.1898 36.3751 35.1726 36.3751 35.1542L36.3751 33.6517L36.3735 33.6102C36.3718 33.5985 36.3687 33.5873 36.3642 33.5768C36.3566 33.5593 36.3452 33.5434 36.3299 33.5291C36.3167 33.5169 36.3023 33.5076 36.2867 33.5013C36.27 33.4945 36.252 33.4911 36.2325 33.4911L34.1147 33.4911L33.8933 33.4635L33.6877 33.384L33.6345 33.3556C33.5526 33.3119 33.4779 33.2601 33.4105 33.2001C33.3434 33.1405 33.2835 33.0728 33.2308 32.997C33.1753 32.9174 33.131 32.8336 33.0978 32.7456C33.0651 32.6587 33.0432 32.5678 33.0321 32.4727L33.028 32.4368L33.0241 32.348L33.0251 31.8759L33.0419 31.7214L33.0534 31.669C33.0719 31.584 33.0988 31.5028 33.1338 31.4253C33.1691 31.3474 33.2127 31.2732 33.2646 31.2028C33.3168 31.132 33.3751 31.0681 33.4395 31.0112C33.5042 30.9539 33.5752 30.9037 33.6523 30.8604C33.6671 30.8521 33.6774 30.8461 33.6832 30.8423C33.8481 30.737 33.9945 30.6147 34.1224 30.4755C34.2396 30.3479 34.3412 30.2061 34.4273 30.05C34.5142 29.8925 34.5803 29.7294 34.6256 29.5607C34.6747 29.3774 34.6993 29.1875 34.6993 28.9911C34.6993 28.8193 34.6803 28.6519 34.6421 28.489C34.6141 28.3693 34.5757 28.252 34.5271 28.1371C34.4769 28.0186 34.4174 27.9062 34.3484 27.7998C34.2647 27.6706 34.167 27.5502 34.0556 27.4389C33.9456 27.3291 33.8269 27.2327 33.6995 27.1497C33.5913 27.0794 33.4769 27.0187 33.3562 26.9677C33.2419 26.9194 33.1253 26.8813 33.0063 26.8533C32.8421 26.8147 32.6734 26.7954 32.5001 26.7954C32.3268 26.7954 32.1581 26.8147 31.9939 26.8533C31.8749 26.8813 31.7583 26.9194 31.644 26.9677C31.5233 27.0187 31.4088 27.0794 31.3007 27.1498C31.1733 27.2327 31.0546 27.3291 30.9446 27.4389C30.8331 27.5502 30.7355 27.6706 30.6517 27.7999C30.5828 27.9062 30.5233 28.0186 30.4731 28.1371C30.4245 28.252 30.3861 28.3693 30.3581 28.489C30.3199 28.6519 30.3009 28.8193 30.3009 28.9911C30.3009 29.1781 30.3233 29.3594 30.3681 29.535L30.3681 29.535C30.4085 29.6934 30.4672 29.8471 30.5441 29.9962C30.621 30.1451 30.7121 30.2819 30.8175 30.4067Z" fill="var(--tiny-second-color, #aeaeAE)" fill-rule="evenodd"/>
</svg>