<svg viewBox="0 0 48 48" xmlns="http://www.w3.org/2000/svg" xmlns:xlink="http://www.w3.org/1999/xlink" width="48.000000" height="48.000000">
  <path id="矢量 1944" d="M38.5 20.5435C36.4794 19.25 34.0773 18.5 31.5 18.5C30.5053 18.5 29.5367 18.6118 28.6061 18.8232C28.462 18.1431 27.8686 17.6455 27.1395 17.6455L23.3829 17.6455L26.496 13.9771C27.0395 13.3364 26.9632 12.4062 26.3228 11.8628C25.6823 11.3193 24.752 11.3955 24.2085 12.0361L21.6654 15.0332L19.2942 12.0688C18.7695 11.4131 17.8418 11.3101 17.1859 11.835C16.5299 12.3594 16.4269 13.2871 16.9516 13.9429L19.9137 17.6455L16.1229 17.6455C15.2829 17.6455 14.6229 18.3057 14.6229 19.1455C14.6229 19.9858 15.2829 20.6455 16.1229 20.6455L20.1312 20.6455L20.1312 22.9082L16 22.9082C15.16 22.9082 14.5 23.5684 14.5 24.4082C14.5 25.248 15.16 25.9082 16 25.9082L19.7608 25.9082C18.9525 27.6021 18.5 29.498 18.5 31.5C18.5 35.52 20.3247 39.1138 23.1911 41.4985L11.5 41.5C8.30463 41.5 5.69269 39.002 5.51019 35.8525L5.5 35.5L5.5 11.5C5.5 8.30469 7.99783 5.69287 11.1475 5.51025L11.5 5.5L32.5 5.5C35.6954 5.5 38.3073 7.99805 38.4898 11.1475L38.5 11.5L38.5 20.5435ZM31.5 20.5C25.44 20.5 20.5 25.4199 20.5 31.5C20.5 37.5601 25.44 42.5 31.5 42.5C37.58 42.5 42.5 37.5601 42.5 31.5C42.5 25.4199 37.58 20.5 31.5 20.5ZM23.1312 20.6455L24.3433 20.6455C23.9214 20.9243 23.5168 21.2271 23.1312 21.5518L23.1312 20.6455ZM33 30L33 27C33 26.1602 32.34 25.5 31.5 25.5C30.66 25.5 30 26.1602 30 27L30 30L27 30C26.16 30 25.5 30.6602 25.5 31.5C25.5 32.3398 26.16 33 27 33L30 33L30 36C30 36.8398 30.66 37.5 31.5 37.5C32.34 37.5 33 36.8398 33 36L33 33L36 33C36.84 33 37.5 32.3398 37.5 31.5C37.5 30.6602 36.84 30 36 30L33 30Z" fill="var(--tiny-first-color, #191919)" fill-rule="evenodd"/>
  <path id="减去顶层" d="M20.5 31.5C20.5 25.42 25.44 20.5 31.5 20.5C37.58 20.5 42.5 25.42 42.5 31.5C42.5 37.56 37.58 42.5 31.5 42.5C25.44 42.5 20.5 37.56 20.5 31.5ZM33 27L33 30L36 30C36.84 30 37.5 30.66 37.5 31.5C37.5 32.34 36.84 33 36 33L33 33L33 36C33 36.84 32.34 37.5 31.5 37.5C30.66 37.5 30 36.84 30 36L30 33L27 33C26.16 33 25.5 32.34 25.5 31.5C25.5 30.66 26.16 30 27 30L30 30L30 27C30 26.16 30.66 25.5 31.5 25.5C32.34 25.5 33 26.16 33 27Z" fill="var(--tiny-second-color, #aeaeAE)" fill-rule="evenodd"/>
</svg>