<svg viewBox="0 0 48 48" xmlns="http://www.w3.org/2000/svg" xmlns:xlink="http://www.w3.org/1999/xlink" width="48.000000" height="48.000000">
  <path id="合并" d="M37.4898 10.1475C37.3073 6.99784 34.6954 4.5 31.5 4.5L10.5 4.5L10.1475 4.51019C6.99784 4.69268 4.5 7.30464 4.5 10.5L4.5 37.5L4.51019 37.8525C4.69268 41.0022 7.30464 43.5 10.5 43.5L21.3 43.5L21.5035 43.4863C22.2357 43.387 22.8 42.7594 22.8 42C22.8 41.1716 22.1284 40.5 21.3 40.5L10.5 40.5L10.2111 40.4863C8.68978 40.3409 7.5 39.0594 7.5 37.5L7.5 10.5L7.51373 10.2111C7.6591 8.68978 8.94061 7.5 10.5 7.5L31.5 7.5L31.7889 7.51373C33.3102 7.6591 34.5 8.94061 34.5 10.5L34.5 18.8438L34.5137 19.0473C34.613 19.7794 35.2406 20.3438 36 20.3438C36.8284 20.3438 37.5 19.6722 37.5 18.8438L37.5 10.5L37.4898 10.1475ZM20.6654 16.033L18.2942 13.0689C17.7695 12.4129 16.8418 12.3099 16.1859 12.8348C15.5299 13.3594 15.4269 14.2872 15.9516 14.9429L18.9137 18.6455L15.1229 18.6455C14.2829 18.6455 13.6229 19.3057 13.6229 20.1455C13.6229 20.9856 14.2829 21.6455 15.1229 21.6455L19.1312 21.6455L19.1312 23.908L15 23.908C14.16 23.908 13.5 24.5681 13.5 25.408C13.5 26.2481 14.16 26.908 15 26.908L19.1312 26.908L19.1312 29.7935C19.1312 29.9431 19.1522 30.087 19.1913 30.2224C19.5986 27.8255 20.6377 25.6436 22.1312 23.8543L22.1312 21.6455L24.4717 21.6455C25.4319 20.9342 26.4898 20.3472 27.6216 19.9084C27.5107 19.1847 26.8986 18.6455 26.1395 18.6455L22.3829 18.6455L25.496 14.9769C26.0395 14.3365 25.9632 13.4061 25.3227 12.8626C24.6822 12.3191 23.752 12.3953 23.2085 13.0359L20.6654 16.033Z" fill="var(--tiny-first-color, #191919)" fill-rule="evenodd"/>
  <path id="合并" d="M32.5 21.5C38.5751 21.5 43.5 26.4249 43.5 32.5C43.5 38.5751 38.5751 43.5 32.5 43.5C26.4249 43.5 21.5 38.5751 21.5 32.5C21.5 26.4249 26.4249 21.5 32.5 21.5ZM24.14 32.5C24.14 27.8829 27.8829 24.14 32.5 24.14C37.1171 24.14 40.86 27.8829 40.86 32.5C40.86 37.1171 37.1171 40.86 32.5 40.86C27.8829 40.86 24.14 37.1171 24.14 32.5ZM34 31L34 28.5C34 27.66 33.34 27 32.5 27C31.66 27 31 27.66 31 28.5L31 31L28.5 31C27.66 31 27 31.66 27 32.5C27 33.34 27.66 34 28.5 34L31 34L31 36.5C31 37.34 31.66 38 32.5 38C33.34 38 34 37.34 34 36.5L34 34L36.5 34C37.34 34 38 33.34 38 32.5C38 31.66 37.34 31 36.5 31L34 31Z" fill="var(--tiny-second-color, #aeaeAE)" fill-rule="evenodd"/>
</svg>