<svg viewBox="0 0 48 48" xmlns="http://www.w3.org/2000/svg" xmlns:xlink="http://www.w3.org/1999/xlink" width="48.000000" height="48.000000">
  <path id="合并" d="M38.9898 9.64745C38.8073 6.49784 36.1954 4 33 4L12 4L11.6475 4.01019C8.49784 4.19268 6 6.80464 6 10L6 37L6.01019 37.3525C6.19268 40.5022 8.80464 43 12 43L22.8 43L23.0035 42.9863C23.7357 42.887 24.3 42.2594 24.3 41.5C24.3 40.6716 23.6284 40 22.8 40L12 40L11.7111 39.9863C10.1898 39.8409 9 38.5594 9 37L9 10L9.01373 9.71108C9.1591 8.18978 10.4406 7 12 7L33 7L33.2889 7.01373C34.8102 7.1591 36 8.44061 36 10L36 18.3438L36.0137 18.5473C36.113 19.2794 36.7406 19.8438 37.5 19.8438C38.3284 19.8438 39 19.1722 39 18.3438L39 10L38.9898 9.64745ZM22.1654 15.533L19.7942 12.5689C19.2695 11.9129 18.3418 11.8099 17.6859 12.3348C17.0299 12.8594 16.9269 13.7872 17.4516 14.4429L20.4137 18.1455L16.6229 18.1455C15.7829 18.1455 15.1229 18.8057 15.1229 19.6455C15.1229 20.4856 15.7829 21.1455 16.6229 21.1455L20.6312 21.1455L20.6312 23.408L16.5 23.408C15.66 23.408 15 24.0681 15 24.908C15 25.7481 15.66 26.408 16.5 26.408L20.6312 26.408L20.6312 29.2935C20.6312 29.7301 20.8095 30.1181 21.0987 30.39C21.4272 27.7304 22.559 25.3196 24.2439 23.408L23.6312 23.408L23.6312 21.1455L26.8433 21.1455C27.5531 20.6766 28.3116 20.2755 29.1095 19.9512C29.1292 19.8528 29.1395 19.7506 29.1395 19.6455C29.1395 18.8057 28.4795 18.1455 27.6395 18.1455L23.8829 18.1455L26.996 14.4769C27.5395 13.8365 27.4632 12.9061 26.8227 12.3626C26.1822 11.8191 25.252 11.8953 24.7085 12.5359L22.1654 15.533Z" fill="var(--tiny-first-color, #191919)" fill-rule="evenodd"/>
  <path id="矢量 1736" d="M45 32C45 25.9249 40.0751 21 34 21C27.9249 21 23 25.9249 23 32C23 38.0751 27.9249 43 34 43C40.0751 43 45 38.0751 45 32ZM34 23.64C29.3829 23.64 25.64 27.3829 25.64 32C25.64 36.6171 29.3829 40.36 34 40.36C38.6171 40.36 42.36 36.6171 42.36 32C42.36 27.3829 38.6171 23.64 34 23.64ZM39.4579 30.5898C39.8435 30.0746 39.804 29.3411 39.3373 28.8706C38.824 28.3529 37.9882 28.3494 37.4705 28.8627L33.0742 33.2198L30.5294 30.6964C30.0111 30.3151 29.1294 30.2336 28.6627 30.7042C28.1494 31.2219 28.1529 32.0576 28.6705 32.571L32.146 36.0173C32.6611 36.3969 33.5371 36.4812 34.0049 36.0173L39.4579 30.5898Z" fill="var(--tiny-second-color, #aeaeAE)" fill-rule="evenodd"/>
</svg>