<svg viewBox="0 0 48 48" xmlns="http://www.w3.org/2000/svg" xmlns:xlink="http://www.w3.org/1999/xlink" width="48.000000" height="48.000000">
  <path id="减去顶层" d="M22.0051 4.00846C15.8379 4.22227 12.7474 8.47538 12.7474 15.0061L12.7519 15.332L12.6442 15.485C11.9239 16.6041 11.7984 18.1502 12.2974 19.5962L12.4259 19.9331C12.8416 20.9259 13.5249 21.7515 14.3564 22.2621L14.6059 22.402L14.9175 22.9167C15.0202 23.0771 15.1263 23.234 15.2357 23.3872L15.4473 23.6701C16.5719 25.1917 16.6216 25.7457 15.9343 26.1562L15.6754 26.2918L15.4171 26.4109L14.986 26.5936L14.6342 26.7343L12.5582 27.5198L11.3605 27.9852L10.1041 28.5112L9.61078 28.7332C9.42667 28.8179 9.25832 28.8975 9.09324 28.9776L8.6062 29.2208C5.05841 31.0454 3.0117 33.2517 3.02058 36.2676L3 38.0269L3.00171 38.5488L3.01892 39.0888L3.04059 39.4075C3.22788 41.5712 4.24692 42.9115 6.37421 42.9979L24.2011 42.9991C21.6085 40.4581 20 36.9169 20 33C20 25.6527 25.6598 19.6273 32.8574 19.046C33.1562 17.7684 32.9815 16.4651 32.3533 15.4866L32.2439 15.332L32.2494 15.0061C32.2494 8.30352 28.994 4 22.4984 4L22.0051 4.00846Z" fill="var(--tiny-first-color, #191919)" fill-rule="evenodd"/>
  <path id="合并" d="M34 22C40.0751 22 45 26.9249 45 33C45 39.0751 40.0751 44 34 44C27.9249 44 23 39.0751 23 33C23 26.9249 27.9249 22 34 22ZM33.0908 34.439L34.6754 31.6944L33.417 32.0843C32.6146 32.3329 31.7888 31.8977 31.5402 31.0954C31.2917 30.293 31.7268 29.4672 32.5291 29.2187L37.445 27.6957C37.4634 27.6899 37.4819 27.6846 37.5006 27.6796C37.5193 27.6746 37.538 27.6699 37.5569 27.6657C37.9608 27.574 38.338 27.6386 38.6885 27.8594C38.8637 27.9698 39.0066 28.1031 39.1171 28.2593C39.2276 28.4154 39.3058 28.5945 39.3517 28.7965L40.4906 33.8152C40.6765 34.6344 40.179 35.4241 39.3598 35.61C38.5406 35.7959 37.7509 35.2983 37.565 34.4792L37.2734 33.1944L35.1889 36.805C35.1194 36.9253 35.0394 37.0362 34.9488 37.1376L34.9487 37.1377L34.9487 37.1378C34.8629 37.2339 34.7675 37.3215 34.6628 37.4007C34.5606 37.4778 34.4532 37.5442 34.3404 37.5997C34.2241 37.6569 34.1021 37.7026 33.9745 37.7368C33.8468 37.771 33.7183 37.7924 33.5889 37.801C33.4635 37.8093 33.3373 37.8056 33.2103 37.7899C33.0799 37.7737 32.9535 37.7454 32.8311 37.7051C32.7019 37.6625 32.5772 37.6065 32.4568 37.537L30.7231 36.5361L30.3481 37.1856C29.9281 37.913 29.0265 38.1546 28.299 37.7346C27.5716 37.3146 27.33 36.413 27.75 35.6856L28.875 33.737C28.9786 33.5577 29.1062 33.4097 29.258 33.2933L29.258 33.2932C29.4099 33.1768 29.5858 33.0917 29.7858 33.0381C29.9859 32.9845 30.1807 32.9702 30.3705 32.9952C30.5602 33.0202 30.7447 33.0844 30.924 33.188L33.0908 34.439Z" fill="var(--tiny-second-color, #aeaeAE)" fill-rule="evenodd"/>
</svg>