<svg viewBox="0 0 48 48" xmlns="http://www.w3.org/2000/svg" xmlns:xlink="http://www.w3.org/1999/xlink" width="48.000000" height="48.000000">
  <path id="减去顶层" d="M22.0051 4.00846C15.8379 4.22227 12.7474 8.47538 12.7474 15.0061L12.7519 15.332C12.0316 16.4511 11.7984 18.1502 12.2974 19.5962L12.4259 19.9331C12.8416 20.9259 13.5249 21.7515 14.3564 22.2621L14.6059 22.402L14.9175 22.9167C15.0202 23.0771 15.1263 23.234 15.2357 23.3872L15.4473 23.6701C16.5719 25.1917 16.6216 25.7457 15.9343 26.1562L15.6754 26.2918L15.4171 26.4109L14.986 26.5936L14.6342 26.7343L12.5582 27.5198L11.3605 27.9852L10.1041 28.5112L9.61078 28.7332C9.42667 28.8179 9.25832 28.8975 9.09325 28.9776L8.6062 29.2208C5.05841 31.0454 3.0117 33.2517 3.02057 36.2676L3 38.0269L3.00171 38.5488L3.01892 39.0888L3.04059 39.4075C3.22787 41.5712 4.24692 42.9115 6.37421 42.9979L25.6918 42.9992C24.6606 42.1414 23.7642 41.1271 23.0391 39.9928L6.27699 39.9837C6.14963 39.9554 6.10597 39.8698 6.06903 39.5626L6.03146 39.1754L6.00891 38.8007L6.00117 38.5037L5.99985 38.042L6.01439 37.0034L6.02052 36.2758C6.01588 34.6661 7.32812 33.2516 9.96255 31.8966L10.4187 31.6689L10.8541 31.4634L11.5423 31.1571L12.015 30.9576L12.9385 30.5873L15.7263 29.5284L16.3045 29.2947L16.642 29.1492L17.1432 28.9125C19.8327 27.5446 20.0171 25.0089 18.0779 22.1927L17.6567 21.6159C17.4356 21.3055 17.2131 20.9379 17.0115 20.5449C16.8642 20.2576 16.6292 20.0275 16.3437 19.8858L16.1208 19.7966C15.7642 19.6861 15.3496 19.2443 15.1333 18.6176C14.8821 17.8897 15.0015 17.2233 15.2503 17.0096C15.6055 16.7045 15.7978 16.2511 15.7703 15.7837C15.755 15.5243 15.7474 15.2648 15.7474 15.0061C15.7474 9.80698 17.8707 7 22.4984 7C27.1261 7 29.2494 9.80698 29.2494 15.0061C29.2494 15.2647 29.2417 15.5242 29.2265 15.7827C29.199 16.2492 29.3905 16.7018 29.7444 17.007C29.9944 17.2226 30.1138 17.8896 29.8626 18.6176C29.6464 19.244 29.2319 19.6859 28.8759 19.7964C28.4907 19.9159 28.1698 20.1855 27.9857 20.5444C27.8228 20.8621 27.6459 21.1636 27.4556 21.4478L27.0499 22.0119C28.6621 20.99 30.5146 20.3131 32.5036 20.0852C32.5756 19.9266 32.6408 19.7634 32.6985 19.5962L32.8102 19.2331C33.1722 17.8966 33.0122 16.5129 32.3533 15.4866L32.2494 15.0061C32.2494 8.30352 28.994 4 22.4984 4L22.0051 4.00846Z" fill="var(--tiny-first-color, #191919)" fill-rule="evenodd"/>
  <path id="合并" d="M34 22C40.0751 22 45 26.9249 45 33C45 39.0751 40.0751 44 34 44C27.9249 44 23 39.0751 23 33C23 26.9249 27.9249 22 34 22ZM25.64 33C25.64 28.3829 29.3829 24.64 34 24.64C38.6171 24.64 42.36 28.3829 42.36 33C42.36 37.6171 38.6171 41.36 34 41.36C29.3829 41.36 25.64 37.6171 25.64 33ZM33.0908 34.439L34.6754 31.6944L33.417 32.0843C32.6146 32.3329 31.7888 31.8977 31.5402 31.0954C31.2917 30.293 31.7268 29.4672 32.5291 29.2187L37.445 27.6957C37.4634 27.6899 37.4819 27.6846 37.5006 27.6796C37.5193 27.6746 37.538 27.6699 37.5569 27.6657C37.9608 27.574 38.338 27.6386 38.6885 27.8594C38.8637 27.9698 39.0066 28.1031 39.1171 28.2593C39.2276 28.4155 39.3058 28.5945 39.3517 28.7965L40.4906 33.8152C40.6765 34.6344 40.179 35.4241 39.3598 35.61C38.5406 35.7959 37.7509 35.2983 37.565 34.4792L37.2734 33.1944L35.1889 36.805C35.1194 36.9253 35.0394 37.0362 34.9488 37.1376L34.9488 37.1377L34.9487 37.1377C34.8629 37.2338 34.7676 37.3215 34.6628 37.4007C34.5606 37.4778 34.4532 37.5442 34.3404 37.5997C34.2241 37.6569 34.1021 37.7026 33.9745 37.7368C33.8468 37.771 33.7183 37.7924 33.5889 37.801C33.4635 37.8093 33.3373 37.8056 33.2103 37.7899C33.0799 37.7737 32.9535 37.7454 32.8311 37.7051L32.8311 37.7051C32.7019 37.6625 32.5771 37.6065 32.4568 37.537L30.7231 36.5361L30.3481 37.1856C29.9281 37.913 29.0265 38.1546 28.299 37.7346C27.5716 37.3146 27.33 36.413 27.75 35.6856L28.875 33.737C29.0821 33.3783 29.3857 33.1453 29.7858 33.0381C29.9859 32.9845 30.1807 32.9702 30.3705 32.9952C30.5602 33.0202 30.7447 33.0844 30.924 33.188L33.0908 34.439Z" fill="var(--tiny-second-color, #aeaeAE)" fill-rule="evenodd"/>
</svg>