<svg viewBox="0 0 48 48" xmlns="http://www.w3.org/2000/svg" xmlns:xlink="http://www.w3.org/1999/xlink" width="48.000000" height="48.000000" fill="none">
  <path id="Fill-1" d="M40.888 20.3501L26.476 5.94006C25.112 4.57006 22.886 4.57406 21.526 5.94006L7.108 20.3561C6.074 21.3961 5.5 22.7781 5.5 24.2441L5.5 37.0861C5.5 40.4001 8.186 43.0861 11.5 43.0861L19.002 43.0861L19.002 40.0801L19.002 37.2521L19.002 30.9001C19.002 28.1501 21.252 25.9001 24.002 25.9001C26.752 25.9001 29.002 28.1501 29.002 30.9001L29.002 37.2521L29.002 40.0821L29.002 43.0861L36.5 43.0861C39.814 43.0861 42.5 40.4001 42.5 37.0861L42.5 24.2441C42.5 22.7841 41.92 21.3821 40.888 20.3501Z" fill="var(--tiny-first-color)" fill-rule="evenodd"/>
</svg>