<svg viewBox="0 0 48 48" xmlns="http://www.w3.org/2000/svg" xmlns:xlink="http://www.w3.org/1999/xlink" width="48.000000" height="48.000000" fill="none">
  <path id="形状结合" d="M29.7338 40.4942C28.6478 42.5662 26.4978 44.0002 23.9998 44.0002C21.6405 44.0002 19.5917 42.7211 18.4565 40.8335L18.2658 40.4942L29.7338 40.4942ZM24.0002 4C24.8282 4 25.5002 4.672 25.5002 5.5L25.5012 6.08959C31.6884 6.83329 36.5006 12.1158 36.5006 18.5L36.5006 22.5C36.5026 25.292 36.9906 28.024 37.9466 30.624C38.6366 32.496 39.4606 33.482 40.3346 34.526C40.6326 34.882 40.9246 35.232 41.2006 35.6C41.5406 36.054 41.5966 36.664 41.3426 37.172C41.0886 37.68 40.5686 38 40.0006 38L8.00056 38C7.43656 38 6.91857 37.682 6.66257 37.178C6.40657 36.674 6.45457 36.07 6.78857 35.614C7.05657 35.248 7.33856 34.898 7.62856 34.542C8.52657 33.43 9.37856 32.376 10.0866 30.394C10.9926 27.848 11.4686 25.186 11.5006 22.482L11.5006 18.5C11.5006 12.1158 16.311 6.83329 22.4995 6.08959L22.5002 5.5C22.5002 4.672 23.1722 4 24.0002 4Z" fill="var(--tiny-first-color, #191919)" fill-rule="evenodd"/>
  <path id="形状结合" d="M29.7338 40.4943C28.6478 42.5663 26.4978 44.0003 23.9998 44.0003C21.6405 44.0003 19.5917 42.7212 18.4565 40.8336L18.2658 40.4943L29.7338 40.4943Z" fill="var(--tiny-second-color, #aeaeAE)" fill-rule="evenodd"/>
</svg>
