<svg viewBox="0 0 48 48" xmlns="http://www.w3.org/2000/svg" xmlns:xlink="http://www.w3.org/1999/xlink" width="48.000000" height="48.000000" fill="none">
  <path id="形状结合" d="M17.3389 31.6528L25.8868 35.3628L21.8328 39.8308C21.3288 40.3828 20.6369 40.6808 19.9268 40.6808C19.6129 40.6808 19.2969 40.6228 18.9888 40.5048C17.9868 40.1148 17.3389 39.1728 17.3389 38.0968L17.3389 31.6528ZM42.0238 7.39423C42.5258 7.23223 43.0699 7.33423 43.4659 7.67223C43.8658 8.01023 44.0619 8.53023 43.9818 9.04623L40.0839 34.3822C39.9099 35.5162 39.2338 36.4822 38.2299 37.0362C37.6758 37.3382 37.0738 37.4922 36.4678 37.4922C35.9678 37.4922 35.4678 37.3882 34.9958 37.1802L28.8319 34.4842L18.1278 29.8362L17.5019 29.5282L32.6739 16.3682L13.3378 27.7062L11.6198 26.9562L5.54585 24.2982C4.55985 23.8662 3.95385 22.8902 4.00385 21.8142C4.04985 20.7382 4.74385 19.8222 5.76585 19.4822L42.0238 7.39423Z" fill="var(--tiny-first-color, #191919)" fill-rule="evenodd"/>
</svg>
