<svg viewBox="0 0 48 48" xmlns="http://www.w3.org/2000/svg" xmlns:xlink="http://www.w3.org/1999/xlink" width="48.000000" height="48.000000">
  <path id="形状结合" d="M29.7346 40.4942C28.6466 42.5662 26.4986 44.0002 24.0006 44.0002C21.5006 44.0002 19.3526 42.5662 18.2646 40.4942L29.7346 40.4942ZM24.001 4C24.7604 4 25.388 4.56431 25.4873 5.29646L25.501 5.5L25.501 6.08976C31.6975 6.83106 36.5 12.1042 36.5 18.5006L36.5 22.5006C36.5 25.1039 36.9143 27.8179 37.9474 30.6238C38.3972 31.8441 38.9139 32.7396 39.6435 33.6787L40.8128 35.1046C40.9552 35.2807 41.0795 35.4397 41.2006 35.6014C41.9413 36.5904 41.2356 38.0006 40 38.0006L8 38.0006C6.77234 38.0006 6.06455 36.6063 6.78912 35.6153C6.95626 35.3867 7.13148 35.1601 7.35227 34.884L8.34661 33.6306C9.09537 32.6333 9.62684 31.6814 10.0852 30.3945C11.059 27.6653 11.47 25.0268 11.5 22.5006L11.5 18.5006C11.5 12.1039 16.3028 6.8307 22.4996 6.08969L22.501 5.5C22.501 4.67157 23.1726 4 24.001 4ZM24 9.0006C18.7524 9.0006 14.5 13.253 14.5 18.5006L14.4999 22.5184C14.4661 25.3745 14.0047 28.3368 12.911 31.4019C12.4868 32.5928 11.9994 33.5736 11.3933 34.5075L11.0584 34.999L36.8864 34.999L36.6352 34.6372C36.1365 33.8939 35.7185 33.1178 35.3487 32.217L35.1324 31.6609C33.967 28.4959 33.5 25.4364 33.5 22.5006L33.5 18.5006C33.5 13.253 29.2476 9.0006 24 9.0006Z" fill="var(--tiny-first-color)" fill-rule="evenodd"/>
  <path id="形状结合" d="M29.7346 40.4942C28.6466 42.5662 26.4986 44.0002 24.0006 44.0002C21.5006 44.0002 19.3526 42.5662 18.2646 40.4942L29.7346 40.4942Z" fill="var(--tiny-second-color)" fill-rule="evenodd"/>
</svg>