<svg viewBox="0 0 48 48" xmlns="http://www.w3.org/2000/svg" xmlns:xlink="http://www.w3.org/1999/xlink" width="48.000000" height="48.000000" fill="none">
  <path id="形状结合" d="M11.5 43.0861C8.30531 43.0861 5.69273 40.5884 5.51019 37.4386L5.5 37.0861L5.5 24.2421C5.5 22.9168 5.97937 21.6397 6.84136 20.6436L7.11134 20.3534L21.5253 5.93941C22.8127 4.65209 24.8494 4.57636 26.2248 5.71224L26.4747 5.93941L40.8887 20.3534C41.8262 21.291 42.3908 22.5328 42.4857 23.8462L42.5 24.2421L42.5 37.0861C42.5 40.2816 40.0015 42.8934 36.8525 43.0759L36.5 43.0861L29 43.0861C28.1716 43.0861 27.5 42.4145 27.5 41.5861C27.5 40.8267 28.0643 40.1991 28.7965 40.0998L29 40.0861L36.5 40.0861C38.0589 40.0861 39.3408 38.8962 39.4863 37.375L39.5 37.0861L39.5 24.2421C39.5 23.6747 39.3062 23.126 38.9556 22.6855L38.7673 22.4747L24.3533 8.06073C24.1898 7.89722 23.9443 7.86997 23.7535 7.97898L9.23266 22.4747C8.83079 22.8766 8.57956 23.4017 8.51598 23.9603L8.5 24.2421L8.5 37.0861C8.5 38.6454 9.69021 39.927 11.2112 40.0723L11.5 40.0861L17.5 40.0856L17.5 30.8981C17.5 27.3196 20.4216 24.3981 24 24.3981C27.455 24.3981 30.2977 27.1216 30.4897 30.5303L30.5 30.8981L30.5 37.0001C30.5 37.8285 29.8284 38.5001 29 38.5001C28.2406 38.5001 27.613 37.9358 27.5137 37.2036L27.5 37.0001L27.5 30.8981C27.5 28.9765 25.9216 27.3981 24 27.3981C22.1745 27.3981 20.6587 28.8226 20.5117 30.6126L20.5 30.8981L20.5 41.5861C20.5 42.3455 19.9357 42.9731 19.2035 43.0724L19 43.0861L11.5 43.0861Z" fill="var(--tiny-first-color, #191919)" fill-rule="evenodd"/>
</svg>
