<svg viewBox="0 0 48 48" xmlns="http://www.w3.org/2000/svg" xmlns:xlink="http://www.w3.org/1999/xlink" width="48.000000" height="48.000000" fill="none">
  <path id="减去顶层" d="M31 4L17 4C15.88 4 15 4.88 15 6L15 8C15 9.1 15.88 10 17 10L31 10C32.1 10 33 9.1 33 8L33 6C33 4.88 32.1 4 31 4ZM12 7C11.9342 7.1974 11.955 7.41212 11.9769 7.63846C11.9883 7.7561 12 7.87688 12 8L12 9C12 11.2 13.78 13 16 13L32 13C34.2 13 36 11.2 36 9L36 8C36 7.64 35.94 7.3 35.86 7C39.18 7 42 9.68 42 13L42 38C42 41.3 39.3 44 36 44L12 44C8.68 44 6 41.3 6 38L6 13C6 9.68 8.68 7 12 7ZM17.5648 19.3002L17.4722 18.8221C17.3545 18.2147 17.1116 17.7592 16.7434 17.4555C16.3753 17.1519 15.8819 17 15.2632 17L13.05 17C12.7 17 12.4375 17.0875 12.2625 17.2625C12.0875 17.4375 12 17.7 12 18.05C12 18.4 12.0875 18.6625 12.2625 18.8375C12.4375 19.0125 12.7 19.1 13.05 19.1L15.2632 19.1C15.2878 19.1203 15.4026 19.181 15.4105 19.2215L17.6549 30.8062C17.8353 31.7375 18.2078 32.4359 18.7723 32.9016C19.3368 33.3672 20.0933 33.6 21.0419 33.6L32.2124 33.6C32.5624 33.6 32.8249 33.5125 32.9999 33.3375C33.1749 33.1625 33.2624 32.9 33.2624 32.55C33.2624 32.2 33.1749 31.9375 32.9999 31.7625C32.8249 31.5875 32.5624 31.5 32.2124 31.5L21.0419 31.5C20.6707 31.5 20.3747 31.4089 20.1538 31.2267C19.9329 31.0445 19.7871 30.7712 19.7165 30.4068L19.6759 30.1969L30.7113 30.1969C31.5309 30.1969 32.1953 29.9981 32.7045 29.6006C33.2138 29.2031 33.568 28.6069 33.767 27.8119L35.6648 20.2323C35.6899 20.1319 35.6955 20.0343 35.6814 19.9397C35.6674 19.8451 35.6338 19.7533 35.5805 19.6645C35.474 19.4869 35.3203 19.3729 35.1194 19.3226C35.0889 19.3189 34.968 19.3002 34.9372 19.3002L17.5648 19.3002ZM20.0379 37.3628C20.3295 37.6544 20.767 37.8003 21.3504 37.8003C21.592 37.8003 21.8159 37.7576 22.0222 37.6721C22.2284 37.5867 22.4169 37.4586 22.5878 37.2877C22.7586 37.1169 22.8868 36.9283 22.9722 36.7221C23.0576 36.5158 23.1004 36.2919 23.1004 36.0503C23.1004 35.8086 23.0576 35.5847 22.9722 35.3785C22.8868 35.1722 22.7586 34.9837 22.5878 34.8128C22.4169 34.642 22.2284 34.5138 22.0222 34.4284C21.8159 34.343 21.592 34.3003 21.3504 34.3003C20.767 34.3003 20.3295 34.4461 20.0379 34.7378C19.7462 35.0294 19.6004 35.4669 19.6004 36.0503C19.6004 36.6336 19.7462 37.0711 20.0379 37.3628ZM28.0378 37.3628C28.3295 37.6544 28.767 37.8003 29.3504 37.8003C29.592 37.8003 29.8159 37.7576 30.0222 37.6721C30.2284 37.5867 30.4169 37.4586 30.5878 37.2877C30.7586 37.1169 30.8868 36.9283 30.9722 36.7221C31.0576 36.5158 31.1004 36.2919 31.1004 36.0503C31.1004 35.8086 31.0576 35.5847 30.9722 35.3785C30.8868 35.1722 30.7586 34.9837 30.5878 34.8128C30.4169 34.642 30.2284 34.5138 30.0222 34.4284C29.8159 34.343 29.592 34.3003 29.3504 34.3003C29.1087 34.3003 28.8848 34.343 28.6785 34.4284C28.4723 34.5138 28.2838 34.642 28.1129 34.8128C27.9421 34.9837 27.8139 35.1722 27.7285 35.3785C27.6431 35.5847 27.6004 35.8086 27.6004 36.0503C27.6004 36.6336 27.7462 37.0711 28.0378 37.3628Z" fill="var(--tiny-first-color, #191919)" fill-rule="evenodd"/>
  <path id="合并" d="M17.4722 18.8221L17.5648 19.3001L34.9373 19.3001C34.968 19.3001 35.089 19.3188 35.1194 19.3226C35.3203 19.3729 35.474 19.4869 35.5805 19.6645C35.6338 19.7533 35.6674 19.845 35.6815 19.9397C35.6955 20.0343 35.69 20.1318 35.6648 20.2323L33.7671 27.8119C33.568 28.6069 33.2139 29.2031 32.7046 29.6006C32.1953 29.9981 31.5309 30.1968 30.7114 30.1968L19.6759 30.1968L19.7166 30.4068C19.7872 30.7712 19.9329 31.0445 20.1538 31.2267C20.3747 31.4089 20.6707 31.5 21.0419 31.5L32.2125 31.5C32.5625 31.5 32.8249 31.5875 33 31.7625C33.1749 31.9375 33.2625 32.2 33.2625 32.55C33.2625 32.9 33.1749 33.1625 33 33.3375C32.825 33.5125 32.5625 33.6 32.2125 33.6L21.0419 33.6C20.0933 33.6 19.3368 33.3672 18.7723 32.9016C18.2078 32.4359 17.8353 31.7375 17.6549 30.8062L15.4105 19.2215C15.4027 19.181 15.2878 19.1202 15.2633 19.1L13.05 19.1C12.7 19.1 12.4375 19.0125 12.2625 18.8375C12.0875 18.6625 12 18.4 12 18.05C12 17.7 12.0875 17.4375 12.2625 17.2625C12.4375 17.0875 12.7 17 13.05 17L15.2633 17C15.8819 17 16.3753 17.1518 16.7435 17.4555C17.1116 17.7592 17.3545 18.2147 17.4722 18.8221ZM21.3504 37.8002C20.7671 37.8002 20.3296 37.6544 20.0379 37.3627C19.7462 37.0711 19.6004 36.6336 19.6004 36.0502C19.6004 35.4669 19.7462 35.0294 20.0379 34.7377C20.3296 34.4461 20.767 34.3002 21.3504 34.3002C21.592 34.3002 21.8159 34.343 22.0222 34.4284C22.2284 34.5138 22.417 34.642 22.5878 34.8128C22.7587 34.9837 22.8868 35.1722 22.9722 35.3785C23.0577 35.5847 23.1004 35.8086 23.1004 36.0502C23.1004 36.2919 23.0577 36.5158 22.9722 36.722C22.8868 36.9283 22.7587 37.1168 22.5878 37.2877C22.417 37.4585 22.2284 37.5867 22.0222 37.6721C21.8159 37.7575 21.592 37.8002 21.3504 37.8002ZM29.3504 37.8002C28.767 37.8002 28.3295 37.6544 28.0379 37.3627C27.7462 37.0711 27.6004 36.6336 27.6004 36.0502C27.6004 35.8086 27.6431 35.5847 27.7285 35.3785C27.8139 35.1722 27.9421 34.9837 28.1129 34.8128C28.2838 34.642 28.4723 34.5138 28.6786 34.4284C28.8848 34.343 29.1088 34.3002 29.3504 34.3002C29.592 34.3002 29.8159 34.343 30.0222 34.4284C30.2284 34.5138 30.417 34.642 30.5878 34.8128C30.7587 34.9837 30.8868 35.1722 30.9722 35.3784C31.0577 35.5847 31.1004 35.8086 31.1004 36.0502C31.1004 36.2919 31.0577 36.5158 30.9722 36.7221C30.8868 36.9283 30.7587 37.1168 30.5878 37.2877C30.417 37.4585 30.2284 37.5867 30.0222 37.6721C29.8159 37.7575 29.592 37.8002 29.3504 37.8002Z" fill="var(--tiny-second-color, #aeaeAE)" fill-rule="evenodd"/>
</svg>
