<svg viewBox="0 0 48 48" xmlns="http://www.w3.org/2000/svg" xmlns:xlink="http://www.w3.org/1999/xlink" width="48.000000" height="48.000000">
  <path id="path" d="M33.84 6.3999C33.5867 5.6999 33.1533 5.1266 32.54 4.67993C31.9333 4.2266 31.2466 4 30.48 4L17.52 4C16.7534 4 16.0667 4.2266 15.46 4.67993C14.8467 5.1266 14.4133 5.6999 14.16 6.3999L12.48 6.3999C11.3266 6.3999 10.2533 6.69671 9.26001 7.29004C8.27334 7.88337 7.48335 8.68327 6.89001 9.68994C6.29668 10.6966 6 11.7766 6 12.9299L6 37.96C6 39.1066 6.29668 40.1766 6.89001 41.1699C7.48335 42.1633 8.27334 42.9567 9.26001 43.55C10.2533 44.1434 11.3266 44.4399 12.48 44.4399L35.52 44.4399C36.6734 44.4399 37.7467 44.1434 38.74 43.55C39.7267 42.9567 40.5167 42.1633 41.11 41.1699C41.7033 40.1766 42 39.1066 42 37.96L42 12.9299C42 11.7766 41.7033 10.6966 41.11 9.68994C40.5167 8.68327 39.7267 7.88337 38.74 7.29004C37.7467 6.69671 36.6734 6.3999 35.52 6.3999L33.84 6.3999ZM16.99 7.51001C16.99 7.35001 17.04 7.22012 17.14 7.12012C17.2333 7.02678 17.36 6.97998 17.52 6.97998L30.48 6.97998C30.64 6.97998 30.7667 7.02678 30.86 7.12012C30.96 7.22012 31.01 7.35001 31.01 7.51001L31.01 10.9199C31.01 11.0466 30.96 11.1567 30.86 11.25C30.7667 11.35 30.64 11.3999 30.48 11.3999L17.52 11.3999C17.1667 11.3999 16.99 11.2399 16.99 10.9199L16.99 7.51001ZM39.02 37.96C39.02 38.92 38.67 39.7433 37.97 40.4299C37.2633 41.1166 36.4467 41.46 35.52 41.46L12.48 41.46C11.52 41.46 10.7034 41.1166 10.03 40.4299C9.3567 39.7433 9.02002 38.92 9.02002 37.96L9.02002 12.9299C9.02002 11.9699 9.3567 11.1466 10.03 10.46C10.7034 9.77329 11.52 9.42993 12.48 9.42993L14.02 9.42993L14.02 10.9199C14.02 11.8466 14.3633 12.6601 15.05 13.3601C15.7367 14.0668 16.56 14.4199 17.52 14.4199L30.48 14.4199C31.44 14.4199 32.2633 14.0668 32.95 13.3601C33.6367 12.6601 33.98 11.8466 33.98 10.9199L33.98 9.42993L35.52 9.42993C36.4467 9.42993 37.2633 9.77329 37.97 10.46C38.67 11.1466 39.02 11.9699 39.02 12.9299L39.02 37.96Z" fill="var(--tiny-first-color)" fill-rule="nonzero"/>
  <path id="合并" d="M13.05 17L15.2633 17C15.4138 17 15.5617 17.0134 15.7073 17.0402C15.8413 17.0648 15.9732 17.1009 16.103 17.1482C16.2316 17.1951 16.3545 17.2519 16.4719 17.3185C16.5948 17.3882 16.7116 17.4687 16.8223 17.56C16.933 17.6513 17.0342 17.7506 17.126 17.858C17.2137 17.9606 17.2928 18.0705 17.3633 18.1878C17.4346 18.3063 17.495 18.4289 17.5447 18.5558C17.5987 18.6936 17.64 18.8363 17.6686 18.984L34.9373 19.0001C34.9628 19.0017 35.0649 19.0064 35.0903 19.0095C35.1411 19.0158 35.1913 19.0251 35.2409 19.0376C35.4084 19.0795 35.5561 19.1479 35.6842 19.2429C35.8123 19.3379 35.9207 19.4594 36.0094 19.6074C36.0982 19.7554 36.1543 19.9083 36.1777 20.066C36.2011 20.2237 36.1918 20.3863 36.1499 20.5537L34.2521 28.1333C34.1994 28.3439 34.1293 28.5467 34.0418 28.7417C33.9629 28.9177 33.8698 29.0873 33.7626 29.2505C33.6556 29.4134 33.5372 29.5658 33.4075 29.7079C33.2701 29.8583 33.12 29.9971 32.9572 30.1242C32.7943 30.2513 32.6233 30.3632 32.444 30.4599C32.2748 30.5512 32.0979 30.6291 31.9141 30.6933C31.7296 30.7576 31.5425 30.8068 31.3526 30.8406C31.1423 30.8781 30.9284 30.8968 30.7114 30.8968L20.028 30.8968C20.0942 31.0082 20.204 31.1495 20.3102 31.2371C20.4164 31.3248 20.5305 31.3905 20.6525 31.4343C20.7744 31.4781 20.9043 31.5 21.042 31.5L32.2125 31.5C32.9125 31.5 33.4625 32.05 33.4625 32.75C33.4625 33.45 32.9125 34 32.2125 34L21.042 34C20.8147 34 20.5913 33.9795 20.3717 33.9385C20.1751 33.9019 19.9816 33.8488 19.7911 33.7793C19.6011 33.71 19.4194 33.6262 19.2457 33.528C19.0611 33.4236 18.8856 33.3028 18.7194 33.1657C18.5532 33.0286 18.4013 32.8794 18.2636 32.7179C18.1342 32.5661 18.0174 32.4036 17.9132 32.2303C17.8087 32.0565 17.7198 31.8766 17.6464 31.6906C17.5644 31.4828 17.5018 31.2673 17.4586 31.0442L17.2503 29.969L15.412 20.4877L15.2221 19.5L13.05 19.5C12.35 19.5 11.8 18.95 11.8 18.25C11.8 17.55 12.35 17 13.05 17ZM19.4922 28.3968L30.7114 28.3968C30.8433 28.3968 30.9682 28.3766 31.0862 28.336C31.2041 28.2954 31.315 28.2345 31.419 28.1534C31.523 28.0722 31.609 27.9794 31.677 27.8749C31.745 27.7703 31.795 27.6541 31.827 27.5261L33.3358 21.5001L18.1561 21.5001L19.4922 28.3968ZM23.1004 36.2502C23.1004 36.376 23.0875 36.499 23.0616 36.6192C23.0387 36.7255 23.0057 36.8297 22.9626 36.9317C22.9199 37.0327 22.8687 37.1281 22.809 37.2179C22.745 37.3143 22.6713 37.4042 22.5879 37.4877C22.5044 37.5711 22.4145 37.6449 22.3181 37.7089C22.2283 37.7685 22.1329 37.8197 22.0318 37.8624C21.9299 37.9055 21.8257 37.9385 21.7194 37.9614C21.5993 37.9873 21.4761 38.0002 21.3504 38.0002C21.2246 38.0002 21.1016 37.9873 20.9814 37.9614C20.8751 37.9385 20.771 37.9055 20.669 37.8624C20.568 37.8197 20.4726 37.7685 20.3827 37.7089C20.2864 37.6449 20.1964 37.5711 20.113 37.4877C20.0295 37.4042 19.9558 37.3143 19.8918 37.2179C19.8322 37.1281 19.781 37.0327 19.7383 36.9317C19.6951 36.8297 19.6621 36.7255 19.6392 36.6192C19.6134 36.499 19.6004 36.376 19.6004 36.2502C19.6004 36.1245 19.6134 36.0015 19.6392 35.8813C19.6621 35.7749 19.6951 35.6708 19.7383 35.5688C19.781 35.4678 19.8322 35.3724 19.8918 35.2826C19.9558 35.1862 20.0295 35.0963 20.113 35.0128C20.1964 34.9294 20.2864 34.8556 20.3827 34.7916C20.4726 34.732 20.568 34.6808 20.669 34.6381C20.771 34.5949 20.8751 34.5619 20.9814 34.5391C21.1016 34.5132 21.2246 34.5002 21.3504 34.5002C21.4762 34.5002 21.5992 34.5132 21.7194 34.5391C21.8257 34.5619 21.9299 34.5949 22.0318 34.6381C22.1329 34.6808 22.2283 34.732 22.3181 34.7916C22.4145 34.8556 22.5044 34.9294 22.5879 35.0128C22.6713 35.0963 22.745 35.1862 22.809 35.2826C22.8687 35.3724 22.9199 35.4678 22.9626 35.5688C23.0057 35.6708 23.0387 35.7749 23.0616 35.8813C23.0875 36.0015 23.1004 36.1245 23.1004 36.2502ZM31.1004 36.2502C31.1004 36.376 31.0875 36.499 31.0616 36.6193C31.0387 36.7254 31.0056 36.8299 30.9626 36.9317C30.9199 37.0327 30.8687 37.1281 30.809 37.2179C30.745 37.3143 30.6713 37.4042 30.5879 37.4877C30.5044 37.5711 30.4145 37.6449 30.3181 37.7088C30.2283 37.7685 30.1329 37.8197 30.0318 37.8624C29.9299 37.9055 29.8257 37.9385 29.7194 37.9614C29.5992 37.9873 29.4762 38.0002 29.3504 38.0002C29.2246 38.0002 29.1017 37.9873 28.9814 37.9614C28.8751 37.9385 28.771 37.9055 28.669 37.8624C28.568 37.8197 28.4726 37.7685 28.3828 37.7089C28.2864 37.6449 28.1964 37.5711 28.113 37.4877C28.0295 37.4042 27.9558 37.3143 27.8918 37.2179C27.8322 37.1281 27.781 37.0327 27.7383 36.9317C27.6951 36.8297 27.6621 36.7255 27.6392 36.6192C27.6134 36.499 27.6004 36.376 27.6004 36.2502C27.6004 36.1245 27.6134 36.0015 27.6392 35.8812C27.6621 35.7749 27.6951 35.6708 27.7383 35.5688C27.781 35.4678 27.8322 35.3724 27.8918 35.2826C27.9558 35.1862 28.0295 35.0963 28.113 35.0128C28.1964 34.9294 28.2864 34.8556 28.3827 34.7916C28.4725 34.732 28.568 34.6808 28.669 34.6381C28.771 34.5949 28.8751 34.5619 28.9814 34.5391C29.1016 34.5132 29.2246 34.5002 29.3504 34.5002C29.4762 34.5002 29.5992 34.5132 29.7194 34.5391C29.8257 34.5619 29.9299 34.5949 30.0318 34.6381C30.1329 34.6808 30.2283 34.732 30.3181 34.7916C30.4145 34.8556 30.5044 34.9294 30.5879 35.0128C30.6713 35.0963 30.7451 35.1862 30.8091 35.2826C30.8687 35.3724 30.9199 35.4678 30.9626 35.5688C31.0057 35.6708 31.0387 35.7749 31.0616 35.8812C31.0875 36.0015 31.1004 36.1245 31.1004 36.2502Z" fill="var(--tiny-second-color)" fill-rule="evenodd"/>
</svg>