<svg xmlns="http://www.w3.org/2000/svg" xmlns:xlink="http://www.w3.org/1999/xlink" width="24.000000" height="24.000000" viewBox="0 0 24 24" fill="none"><script xmlns=""/>
	<desc>
			Created with Pixso.
	</desc>
	<defs>
		<clipPath id="clip235_1008">
			<rect id="pushpin" width="24.000000" height="24.000000" fill="white" fill-opacity="0"/>
		</clipPath>
	</defs>
	<g clip-path="url(#clip235_1008)">
		<g opacity="0.000000"/>
		<path xmlns="http://www.w3.org/2000/svg" id="矢量 242" d="M15.33 2.96C14.37 2.01 12.83 2.01 11.87 2.96L11.72 3.11C10.93 3.91 10.62 5.05 10.89 6.13L10.97 6.42C11.12 6.98 10.96 7.6 10.53 8.03L10.18 8.38C9.81 8.76 9.26 8.89 8.75 8.74L8.61 8.69C8.2 8.58 7.73 8.49 7.18 8.41C6.56 8.32 5.84 8.31 5.01 8.35C4.29 8.39 3.62 8.7 3.1 9.21L2.97 9.35C1.96 10.51 2 12.27 3.1 13.37L6.33 16.61L2.46 20.46C2.25 20.76 2.2 21.26 2.46 21.53C2.76 21.82 3.23 21.82 3.53 21.53L7.31 17.74L10.59 20.88C11.1 21.39 11.78 21.7 12.5 21.74C14.12 21.83 15.51 20.59 15.6 18.97C15.65 18.14 15.63 17.42 15.54 16.8C15.47 16.28 15.38 15.83 15.28 15.45L15.19 15.14C15.07 14.67 15.22 14.14 15.57 13.78L15.96 13.4C16.4 12.96 17.01 12.76 17.62 12.87L17.9 12.93C19.05 13.18 20.23 12.84 21.05 12.02L21.14 11.91C21.97 10.98 21.93 9.59 21.07 8.73L15.33 2.96Z" fill-opacity="1.000000" fill-rule="evenodd"/>
	</g>
</svg>