<svg xmlns="http://www.w3.org/2000/svg" xmlns:xlink="http://www.w3.org/1999/xlink" width="24.000000" height="24.000000" viewBox="0 0 24 24" fill="none"><script xmlns=""/>
	<desc>
			Created with Pixso.
	</desc>
	<defs>
		<clipPath id="clip235_1013">
			<rect id="pushpin" width="24.000000" height="24.000000" fill="white" fill-opacity="0"/>
		</clipPath>
	</defs>
	<g clip-path="url(#clip235_1013)">
		<g opacity="0.000000"/>
		<path id="矢量 242" d="M15.33 2.96C14.37 2.01 12.83 2.01 11.87 2.96L11.72 3.11C10.93 3.91 10.62 5.05 10.89 6.13L10.97 6.42C11.12 6.98 10.96 7.6 10.53 8.03L10.18 8.38C9.81 8.76 9.26 8.89 8.75 8.74L8.61 8.69C8.2 8.58 7.73 8.49 7.18 8.41C6.56 8.32 5.84 8.31 5.01 8.35C4.29 8.39 3.62 8.7 3.1 9.21L2.97 9.35C1.96 10.51 2 12.27 3.1 13.37L6.33 16.61L2.46 20.46C2.25 20.76 2.2 21.26 2.46 21.53C2.76 21.82 3.23 21.82 3.53 21.53L7.31 17.74L10.59 20.88C11.1 21.39 11.78 21.7 12.5 21.74C14.12 21.83 15.51 20.59 15.6 18.97C15.65 18.14 15.63 17.42 15.54 16.8C15.47 16.28 15.38 15.83 15.28 15.45L15.19 15.14C15.07 14.67 15.22 14.14 15.57 13.78L15.96 13.4C16.4 12.96 17.01 12.76 17.62 12.87L17.9 12.93C19.05 13.18 20.23 12.84 21.05 12.02L21.14 11.91C21.97 10.98 21.93 9.59 21.07 8.73L15.33 2.96ZM12.94 4.02C13.3 3.65 13.9 3.65 14.26 4.02L20.01 9.78C20.31 10.09 20.32 10.58 20.04 10.9C19.6 11.34 18.87 11.61 18.24 11.47L17.94 11.4C16.92 11.2 15.84 11.49 15.05 12.19L11.77 8.9C12.44 8.11 12.69 7.03 12.41 6.01L12.38 5.89C12.18 5.27 12.34 4.62 12.78 4.17L12.94 4.02ZM6.97 9.9C6.46 9.82 5.83 9.81 5.1 9.85C4.75 9.87 4.42 10.02 4.17 10.27C3.6 10.83 3.6 11.75 4.17 12.31L11.66 19.82C11.9 20.07 12.24 20.22 12.59 20.24C13.38 20.29 14.06 19.68 14.1 18.89C14.15 18.15 14.13 17.52 14.06 17.01C13.99 16.55 13.92 16.16 13.83 15.84L13.75 15.53C13.55 14.77 13.67 13.98 14.05 13.32L10.64 9.9C9.95 10.31 9.1 10.42 8.31 10.17L8.19 10.14C7.87 10.05 7.46 9.96 6.97 9.9Z" fill-opacity="1.000000" fill-rule="evenodd"/>
	</g>
<script xmlns=""/></svg>