<svg viewBox="0 0 48 48" xmlns="http://www.w3.org/2000/svg" xmlns:xlink="http://www.w3.org/1999/xlink" width="48.000000" height="48.000000" fill="none">
  <path id="合并" d="M24.5789 7.47564C25.5722 6.48041 26.8777 5.97559 28.1887 5.97559C29.2079 5.97559 30.2305 6.28171 31.1124 6.9004L31.4091 7.12485L40.3878 16.0687C41.3503 17.0319 41.8843 18.3195 41.8871 19.6837C41.8877 21.0467 41.3551 22.3345 40.393 23.2972C39.1915 24.5004 37.9872 24.7885 36.1351 24.7489L35.728 24.7356L35.0349 24.7254C34.5618 24.7254 33.7531 25.1995 32.8768 26.153C32.5745 26.482 32.2915 26.8439 32.0369 27.2113L20.7046 15.8791C20.8743 15.7526 21.0438 15.618 21.2103 15.4759C22.3126 14.5366 23.0291 13.4926 23.1328 12.9533L23.123 11.7422C23.0853 9.88241 23.3764 8.67804 24.5789 7.47564ZM18.9774 16.8963C18.5659 17.0707 18.2331 17.1517 18.0462 17.1214C17.881 17.0946 17.7348 17.0758 17.5621 17.0581L17.0715 17.0122L16.5757 16.9003C14.4384 16.4756 12.453 16.8293 10.813 17.7937C9.6693 18.4662 8.88553 19.2998 8.40421 20.0608L8.26069 20.3376C7.70012 21.5523 7.93464 22.9502 8.85801 23.8742L14.9127 29.9346L14.9166 29.9307L17.7451 32.7591L17.7408 32.7633L23.9969 39.0234L24.2228 39.2283C25.2353 40.0604 26.667 40.1683 27.8153 39.4752C28.5795 38.9929 29.4055 38.2189 30.074 37.0952C31.0386 35.4738 31.3995 33.5145 30.9599 31.2692L30.8478 30.7512L30.7686 29.8388C30.79 29.6427 30.8778 29.3584 31.0198 29.0227L19.1799 17.1829C19.0936 17.0965 19.0261 16.9995 18.9774 16.8963ZM14.1164 31.2521L15.1771 30.1914L17.2984 32.3127L16.2378 33.3734L16.2236 33.3875L8.79971 40.8114C8.20574 41.4054 7.27236 41.4054 6.67839 40.8114C6.08442 40.2175 6.08442 39.2841 6.67839 38.6901L14.1164 31.2521Z" fill="var(--tiny-first-color, #191919)" fill-rule="evenodd"/>
  <path id="矢量 1915(边框)" d="M15.177 30.1914L14.1164 31.2521L6.69011 38.6783C6.09614 39.2723 6.09614 40.2057 6.69011 40.7996C7.28408 41.3936 8.21746 41.3936 8.81143 40.7996L16.2235 33.3875L16.2377 33.3734L17.2983 32.3127L15.177 30.1914Z" fill="var(--tiny-second-color, #aeaeAE)" fill-rule="evenodd"/>
</svg>
