<svg viewBox="0 0 48 48" xmlns="http://www.w3.org/2000/svg" xmlns:xlink="http://www.w3.org/1999/xlink" width="48.000000" height="48.000000">
  <path id="矢量 1975" d="M2.55762 17.8153L19.0883 4.24608C19.347 4.03319 19.6202 3.84765 19.9078 3.68749C20.1638 3.54492 20.4313 3.42382 20.7102 3.32324C20.9892 3.22265 21.2726 3.14551 21.5602 3.09277C21.5641 3.0918 21.5681 3.09082 21.572 3.08984C21.875 3.03418 22.1828 3.00391 22.4953 3C22.8119 2.99609 23.1243 3.01953 23.4324 3.06836C23.7213 3.11523 24.0065 3.18554 24.2879 3.27832C24.5692 3.37207 24.8396 3.48632 25.0991 3.62206C25.3906 3.77441 25.6683 3.95409 25.9322 4.15917L43.4131 17.7918C44.0769 18.3094 44.1943 19.241 43.6798 19.909C43.1654 20.577 42.2397 20.6951 41.576 20.1776L40.5 19.3377L40.5 23.2176C38.8296 22.4363 36.9658 21.9998 35 21.9998C34.6702 21.9998 34.3434 22.0125 34.0198 22.0359C33.8824 22.0115 33.7425 21.9998 33.6 21.9998L30.4 21.9998C30.2311 21.9998 30.0657 22.0164 29.904 22.0506L29.9039 22.0506C29.7547 22.0828 29.6085 22.1287 29.4654 22.1893C29.325 22.2488 29.1926 22.3191 29.0681 22.4031C28.9377 22.49 28.816 22.5896 28.7029 22.7029C28.5899 22.8162 28.4899 22.9373 28.4029 23.0681C28.3198 23.1922 28.2486 23.325 28.1892 23.4656C28.1287 23.6082 28.0827 23.7547 28.0512 23.9041L28.0512 23.9041L28.0512 23.9041C28.0427 23.9441 28.0353 23.9842 28.0289 24.0252C27.6739 24.2508 27.3305 24.4939 27 24.7517L27 24.4002C27 24.2312 26.9829 24.0652 26.9488 23.9041C26.9173 23.7547 26.8713 23.6082 26.8108 23.4656C26.7516 23.325 26.6806 23.1931 26.5977 23.0691L26.5977 23.0691L26.5971 23.0681C26.5101 22.9373 26.4101 22.8162 26.2971 22.7029C26.184 22.5896 26.0623 22.49 25.9319 22.4031C25.8074 22.3191 25.675 22.2488 25.5346 22.1893C25.3915 22.1287 25.2453 22.0828 25.0961 22.0506C24.9343 22.0164 24.769 21.9998 24.6 21.9998L21.4 21.9998C21.2311 21.9998 21.0657 22.0164 20.904 22.0506L20.9039 22.0506C20.7547 22.0828 20.6085 22.1287 20.4654 22.1893C20.325 22.2488 20.1926 22.3191 20.0681 22.4031C19.9377 22.49 19.816 22.5896 19.7029 22.7029C19.5899 22.8162 19.4899 22.9373 19.4029 23.0681C19.3198 23.1922 19.2486 23.325 19.1892 23.4656C19.1287 23.6082 19.0827 23.7547 19.0512 23.9041L19.051 23.9051L19.051 23.9051C19.017 24.0662 19 24.2312 19 24.4002L19 27.5994C19 27.7683 19.0171 27.9343 19.0512 28.0954C19.0827 28.2449 19.1287 28.3913 19.1892 28.5339C19.2486 28.6745 19.3198 28.8073 19.4029 28.9314C19.4899 29.0622 19.5899 29.1833 19.7029 29.2966C19.816 29.4099 19.9377 29.5095 20.0681 29.5964C20.1926 29.6804 20.325 29.7507 20.4654 29.8103C20.6085 29.8708 20.7547 29.9167 20.9039 29.9489C21.0657 29.9831 21.231 29.9997 21.4 29.9997L22.9963 29.9997C22.86 30.3269 22.7367 30.6599 22.627 30.9997L21.4 30.9997C21.2311 30.9997 21.0657 31.0163 20.904 31.0505L20.9039 31.0505C20.7547 31.0827 20.6085 31.1286 20.4654 31.1892C20.325 31.2487 20.1926 31.319 20.0681 31.403C19.9377 31.4899 19.816 31.5895 19.7029 31.7028C19.5899 31.8161 19.4899 31.9372 19.4029 32.0681C19.3198 32.1921 19.2486 32.3249 19.1892 32.4655C19.1288 32.6081 19.0828 32.7536 19.0514 32.903L19.0512 32.903L19.0512 32.904C19.0171 33.0651 19 33.2311 19 33.4001L19 36.5993C19 36.7682 19.017 36.9332 19.051 37.0944L19.051 37.0944L19.0512 37.0953C19.0827 37.2448 19.1287 37.3912 19.1892 37.5338C19.2486 37.6744 19.3198 37.8073 19.4029 37.9313C19.4899 38.0621 19.5899 38.1832 19.7029 38.2965C19.816 38.4098 19.9377 38.5094 20.0681 38.5963C20.1926 38.6803 20.325 38.7506 20.4654 38.8102C20.6085 38.8707 20.7547 38.9166 20.9039 38.9488C21.0657 38.983 21.231 38.9996 21.4 38.9996L22.627 38.9996C23.0998 40.4635 23.8252 41.8131 24.7518 42.9986L11.5 42.9986C8.18629 42.9986 5.5 40.3131 5.5 36.9987L5.5 19.2948L4.45346 20.1541C3.80276 20.6883 2.87441 20.5936 2.34357 19.9383C1.81274 19.284 1.90692 18.3494 2.55762 17.8153ZM26.9488 19.0955C26.9829 18.9344 27 18.7684 27 18.5994L27 15.4003C27 15.2313 26.983 15.0663 26.9489 14.9042L26.9488 14.9042C26.9173 14.7548 26.8713 14.6083 26.8108 14.4657C26.7514 14.3251 26.6802 14.1923 26.5971 14.0682C26.5101 13.9374 26.4101 13.8163 26.2971 13.703C26.184 13.5897 26.0623 13.4901 25.9319 13.4032C25.8074 13.3192 25.675 13.2489 25.5346 13.1893C25.3915 13.1288 25.2453 13.0829 25.0961 13.0507C24.9343 13.0165 24.769 12.9999 24.6 12.9999L21.4 12.9999C21.2311 12.9999 21.0657 13.0165 20.904 13.0507L20.9039 13.0507C20.7547 13.0829 20.6085 13.1288 20.4654 13.1893C20.325 13.2489 20.1926 13.3192 20.0681 13.4032C19.9377 13.4901 19.816 13.5897 19.7029 13.703C19.5899 13.8163 19.4899 13.9374 19.4029 14.0682C19.3198 14.1923 19.2486 14.3251 19.1892 14.4657C19.1287 14.6083 19.0827 14.7548 19.0512 14.9042L19.051 14.9042C19.017 15.0663 19 15.2313 19 15.4003L19 18.5994C19 18.7684 19.0171 18.9344 19.0512 19.0955C19.0827 19.2449 19.1287 19.3914 19.1892 19.534C19.2486 19.6746 19.3198 19.8074 19.4029 19.9315C19.4899 20.0623 19.5899 20.1834 19.7029 20.2967C19.816 20.41 19.9377 20.5096 20.0681 20.5965C20.1926 20.6805 20.325 20.7508 20.4654 20.8104C20.6085 20.8709 20.7547 20.9168 20.9039 20.949C21.0657 20.9832 21.231 20.9998 21.4 20.9998L24.6 20.9998C24.769 20.9998 24.9343 20.9832 25.0961 20.949C25.2453 20.9168 25.3915 20.8709 25.5346 20.8104C25.675 20.7508 25.8074 20.6805 25.9319 20.5965C26.0623 20.5096 26.184 20.41 26.2971 20.2967C26.4101 20.1834 26.5101 20.0623 26.5972 19.9315C26.6802 19.8074 26.7514 19.6746 26.8108 19.534C26.8713 19.3914 26.9173 19.2449 26.9488 19.0955ZM17.9488 28.0954C17.9829 27.9343 18 27.7683 18 27.5994L18 24.4002C18 24.2312 17.9829 24.0652 17.9488 23.9041C17.9173 23.7547 17.8713 23.6082 17.8108 23.4656C17.7514 23.325 17.6802 23.1922 17.5971 23.0681C17.5101 22.9373 17.4101 22.8162 17.2971 22.7029C17.184 22.5896 17.0623 22.49 16.9319 22.4031C16.8074 22.3191 16.675 22.2488 16.5346 22.1893C16.3915 22.1287 16.2453 22.0828 16.0961 22.0506L16.0956 22.0506L16.0956 22.0506L16.0949 22.0506C15.9335 22.0164 15.7685 21.9998 15.6 21.9998L12.4 21.9998C12.2312 21.9998 12.0661 22.0164 11.9045 22.0506L11.9039 22.0506C11.7547 22.0828 11.6085 22.1287 11.4654 22.1893C11.325 22.2488 11.1926 22.3191 11.0681 22.4031C10.9377 22.49 10.816 22.5896 10.7029 22.7029C10.5899 22.8162 10.4899 22.9373 10.4029 23.0681C10.3198 23.1922 10.2486 23.325 10.1892 23.4656C10.1287 23.6082 10.0827 23.7547 10.0512 23.9041L10.051 23.9051L10.051 23.9051C10.017 24.0662 10 24.2312 10 24.4002L10 27.5994C10 27.7683 10.0171 27.9343 10.0512 28.0954C10.0827 28.2449 10.1287 28.3913 10.1892 28.5339C10.2486 28.6745 10.3198 28.8073 10.4029 28.9314C10.4899 29.0622 10.5899 29.1833 10.7029 29.2966C10.816 29.4099 10.9377 29.5095 11.0681 29.5964C11.1926 29.6804 11.325 29.7507 11.4654 29.8103C11.6085 29.8708 11.7547 29.9167 11.9039 29.9489L11.904 29.9489C12.0657 29.9831 12.2311 29.9997 12.4 29.9997L15.6 29.9997C15.769 29.9997 15.9343 29.9831 16.0961 29.9489C16.2453 29.9167 16.3915 29.8708 16.5346 29.8103C16.675 29.7507 16.8074 29.6804 16.9319 29.5964C17.0623 29.5095 17.184 29.4099 17.2971 29.2966C17.4101 29.1833 17.5101 29.0622 17.5972 28.9314C17.6802 28.8073 17.7514 28.6745 17.8108 28.5339C17.8713 28.3913 17.9173 28.2449 17.9488 28.0954ZM17.9488 37.0953C17.9829 36.9342 18 36.7682 18 36.5993L18 33.4001C18 33.2311 17.9829 33.0651 17.9488 32.904C17.9173 32.7546 17.8713 32.6081 17.8108 32.4655C17.7514 32.3249 17.6802 32.1921 17.5971 32.0681C17.5101 31.9372 17.4101 31.8161 17.2971 31.7028C17.184 31.5895 17.0623 31.4899 16.9319 31.403C16.8074 31.319 16.675 31.2487 16.5346 31.1892C16.3915 31.1286 16.2453 31.0827 16.0961 31.0505C15.9343 31.0163 15.769 30.9997 15.6 30.9997L12.4 30.9997C12.2312 30.9997 12.0661 31.0163 11.9045 31.0505L11.9039 31.0505C11.7547 31.0827 11.6085 31.1286 11.4654 31.1892C11.325 31.2487 11.1926 31.319 11.0681 31.403C10.9377 31.4899 10.816 31.5895 10.7029 31.7028C10.5899 31.8161 10.4899 31.9372 10.4029 32.0681C10.3198 32.1921 10.2486 32.3249 10.1892 32.4655C10.1289 32.6081 10.0829 32.7536 10.0515 32.902L10.0512 32.903L10.0512 32.903L10.0512 32.904C10.0171 33.0651 10 33.2311 10 33.4001L10 36.5993C10 36.7682 10.017 36.9332 10.0509 37.0944L10.0512 37.0953C10.0827 37.2448 10.1287 37.3912 10.1892 37.5338C10.2486 37.6744 10.3198 37.8073 10.4029 37.9313L10.4037 37.9332C10.4905 38.0631 10.5903 38.1842 10.7029 38.2965C10.816 38.4098 10.9377 38.5094 11.0681 38.5963C11.1926 38.6803 11.325 38.7506 11.4654 38.8102C11.6085 38.8707 11.7547 38.9166 11.9039 38.9488L11.904 38.9488L11.9054 38.9488C12.0667 38.983 12.2316 38.9996 12.4 38.9996L15.6 38.9996C15.769 38.9996 15.9343 38.983 16.0961 38.9488C16.2453 38.9166 16.3915 38.8707 16.5346 38.8102C16.675 38.7506 16.8074 38.6803 16.9319 38.5963L16.9319 38.5963C17.0623 38.5094 17.184 38.4098 17.2971 38.2965C17.4101 38.1832 17.5101 38.0621 17.5972 37.9313C17.6802 37.8073 17.7514 37.6744 17.8108 37.5338C17.8713 37.3912 17.9173 37.2448 17.9488 37.0953Z" fill="var(--tiny-first-color, #191919)" fill-rule="evenodd"/>
  <path id="矢量 1976" d="M35 24C41.0751 24 46 28.9248 46 35C46 41.0752 41.0751 46 35 46C28.9249 46 24 41.0752 24 35C24 28.9248 28.9249 24 35 24ZM34.7385 33.502L35.7054 32.6074C36.3218 32.0361 36.3579 31.1035 35.7873 30.4873C35.2167 29.8711 34.2841 29.835 33.6676 30.4053L29.8907 33.9014C29.8766 33.9141 29.8627 33.9277 29.849 33.9414C29.8353 33.9551 29.8219 33.9688 29.8088 33.9834C29.5274 34.2871 29.3947 34.6455 29.4107 35.0596C29.4267 35.4736 29.5867 35.8213 29.8907 36.1025L33.6676 39.5986C34.2841 40.1699 35.2167 40.1328 35.7873 39.5166C36.3579 38.9004 36.3218 37.9678 35.7054 37.3965L34.7385 36.502L39.4077 36.502C40.2477 36.502 40.9077 35.8418 40.9077 35.002C40.9077 34.1621 40.2477 33.502 39.4077 33.502L34.7385 33.502Z" fill="var(--tiny-second-color, #aeaeAE)" fill-rule="evenodd"/>
</svg>