<svg viewBox="0 0 48 48" xmlns="http://www.w3.org/2000/svg" xmlns:xlink="http://www.w3.org/1999/xlink" width="48.000000" height="48.000000">
  <g id="ic_huawei_cloud_store_new-新店/base/ic_huawei_cloud_store_new">
    <path id="减去顶层" d="M23.5696 28.1824C22.9499 28.2294 22.358 28.3722 21.7939 28.6108C21.1158 28.8976 20.5156 29.3022 19.9932 29.8245C19.4709 30.3469 19.0663 30.9471 18.7795 31.6252C18.6425 31.9489 18.5372 32.2795 18.4633 32.6171L18.4632 32.6175C18.3768 33.0127 18.3335 33.4173 18.3335 33.8313L18.3335 38.9977L13.1672 38.9977C12.8931 38.9977 12.6261 38.9673 12.3662 38.9065L12.3662 38.9065C12.1754 38.8618 11.9885 38.8007 11.8053 38.7233C11.3868 38.5463 11.0158 38.2961 10.6924 37.9726C10.5165 37.7967 10.3623 37.6067 10.2297 37.4027C10.1185 37.2316 10.0225 37.0506 9.94179 36.8597C9.75885 36.4272 9.66737 35.9733 9.66737 35.4979L9.66737 23.996C8.56218 23.9621 7.53515 23.6971 6.66737 23.2627L6.66737 35.4979C6.66737 35.9746 6.71728 36.4402 6.81709 36.895L6.81719 36.8954C6.90184 37.281 7.02237 37.6586 7.17877 38.0284C7.33544 38.3988 7.52275 38.7489 7.7407 39.0788L7.74082 39.079C7.98053 39.4418 8.25729 39.7801 8.57112 40.094C9.17036 40.6932 9.85889 41.1573 10.6367 41.4863C11.0065 41.6427 11.3842 41.7632 11.7697 41.8479C12.2246 41.9478 12.6904 41.9977 13.1672 41.9977L19.8335 41.9977C20.3335 41.9977 20.7085 41.8727 20.9585 41.6227C21.2085 41.3727 21.3335 40.9977 21.3335 40.4977L21.3335 33.8313C21.3335 33.469 21.4032 33.1232 21.5425 32.7939C21.6773 32.475 21.868 32.1924 22.1145 31.9458C22.2497 31.8107 22.3957 31.6923 22.5525 31.5908C22.6818 31.507 22.8185 31.4347 22.9626 31.3738C22.9803 31.3663 22.9981 31.3589 23.0159 31.3518C23.0698 30.2541 23.2599 29.1921 23.5696 28.1824ZM26.7558 41.1402C26.8182 41.3338 26.9135 41.4947 27.0415 41.6227C27.1891 41.7703 27.3803 41.8744 27.6151 41.9348C27.3169 41.6828 27.0301 41.4177 26.7558 41.1402Z" fill="var(--tiny-first-color, #191919)" fill-rule="evenodd"/>
    <path id="path6(边框)" d="M8.23589 22.3931C8.68796 22.4936 9.1512 22.5438 9.62561 22.5438C10.1 22.5438 10.5633 22.4936 11.0153 22.3931C11.3719 22.3138 11.7215 22.2033 12.0642 22.0615C12.8161 21.7504 13.4823 21.311 14.0626 20.7432C14.1867 20.6219 14.3048 20.4966 14.417 20.3675C14.5587 20.5307 14.7098 20.6875 14.8703 20.8377C15.1496 21.0993 15.4475 21.332 15.7639 21.5359C16.0999 21.7524 16.4568 21.9364 16.8346 22.0878C17.5929 22.3918 18.3842 22.5438 19.2085 22.5438C19.683 22.5438 20.1463 22.4936 20.5984 22.3931C20.9549 22.3138 21.3045 22.2033 21.6471 22.0615C22.399 21.7504 23.0652 21.311 23.6456 20.7432C23.7696 20.6219 23.8877 20.4966 23.9999 20.3675C24.1416 20.5307 24.2927 20.6875 24.4532 20.8377C24.7325 21.0993 25.0304 21.332 25.3468 21.5359C25.6828 21.7524 26.0397 21.9364 26.4175 22.0878C27.1758 22.3918 27.9671 22.5438 28.7915 22.5438C29.2659 22.5438 29.7291 22.4936 30.1812 22.3931C30.5377 22.3138 30.8874 22.2033 31.23 22.0615C31.982 21.7504 32.6481 21.311 33.2285 20.7432C33.3526 20.6218 33.4707 20.4965 33.5829 20.3674C33.6951 20.4965 33.8133 20.6218 33.9374 20.7432C34.2182 21.0179 34.519 21.2625 34.84 21.4771C35.1824 21.7061 35.5477 21.9009 35.9358 22.0615C36.7129 22.3831 37.5258 22.5438 38.3744 22.5438C38.8489 22.5438 39.3121 22.4936 39.7642 22.3931C40.1208 22.3138 40.4703 22.2033 40.8129 22.0615C41.5649 21.7504 42.2311 21.311 42.8114 20.7432C43.3941 20.1732 43.8456 19.5176 44.1661 18.7763C44.3249 18.409 44.4459 18.0335 44.529 17.6498C44.6202 17.2286 44.6659 16.7975 44.6659 16.3565C44.6659 16.1333 44.6425 15.8276 44.5957 15.4394L44.5765 15.2995C44.5704 15.2544 44.5622 15.2098 44.552 15.1657C44.5418 15.1216 44.5296 15.0779 44.5154 15.0346L41.9988 7.37698C41.842 6.88053 41.6114 6.4219 41.307 6.00109C41.1625 5.80122 41.0046 5.61445 40.8335 5.44079C40.6528 5.25746 40.4573 5.08873 40.247 4.93461C39.8374 4.6345 39.392 4.40467 38.9106 4.24512C38.4177 4.08171 37.9109 4 37.3902 4L10.6098 4C10.3366 4 10.0673 4.02249 9.80181 4.06746C9.5612 4.10821 9.32372 4.16743 9.08937 4.24512C8.8552 4.32274 8.62953 4.417 8.41236 4.52789C8.18313 4.64493 7.96336 4.7805 7.75305 4.93461C7.54275 5.0887 7.34727 5.25741 7.16661 5.44071C6.99543 5.61439 6.83755 5.80118 6.69297 6.00109C6.47802 6.2983 6.30078 6.6115 6.16126 6.94068C6.10323 7.07758 6.05173 7.21724 6.00674 7.35967L3.49299 14.9918C3.46712 15.0703 3.44788 15.1505 3.43526 15.2322L3.41668 15.3532C3.40064 15.4498 3.38694 15.5466 3.37558 15.6437C3.34796 15.8797 3.33415 16.1173 3.33415 16.3565C3.33415 16.7975 3.37977 17.2286 3.471 17.6499C3.55411 18.0335 3.67506 18.409 3.83387 18.7763C3.97417 19.1008 4.13959 19.4089 4.33013 19.7006C4.57485 20.0752 4.861 20.4227 5.1886 20.7432C5.76895 21.311 6.43511 21.7504 7.18706 22.0615C7.52972 22.2033 7.87933 22.3138 8.23589 22.3931ZM32.0829 16.3615L32.0829 16.3565C32.0829 15.8565 32.2079 15.4815 32.4579 15.2315C32.7079 14.9815 33.0829 14.8565 33.5829 14.8565C34.0829 14.8565 34.4579 14.9815 34.7079 15.2315C34.9579 15.4815 35.0829 15.8565 35.0829 16.3565L35.0829 16.3615C35.0836 16.7885 35.168 17.1966 35.3363 17.5858C35.5007 17.9661 35.7337 18.3037 36.0353 18.5987C36.3391 18.896 36.6883 19.1262 37.0828 19.2895C37.4927 19.459 37.9232 19.5438 38.3744 19.5438C38.8256 19.5438 39.2561 19.459 39.6659 19.2895C40.0605 19.1262 40.4097 18.896 40.7135 18.5987C40.9007 18.4156 41.0614 18.2161 41.1957 18.0002C41.2779 17.8682 41.3501 17.7301 41.4125 17.5858C41.5814 17.1951 41.6658 16.7854 41.6659 16.3565C41.6659 16.253 41.6517 16.0829 41.6234 15.8464L41.6228 15.8416L39.1382 8.28086C39.0178 7.8996 38.7963 7.59081 38.4738 7.35449C38.1513 7.11816 37.7901 7 37.3902 7L10.6098 7C10.4098 7 10.2196 7.02954 10.039 7.08862C9.85841 7.1477 9.68749 7.23633 9.52623 7.35449C9.20371 7.59082 8.98036 7.90537 8.85617 8.29817L6.38107 15.813L6.37613 15.8448C6.34814 16.0133 6.33415 16.1839 6.33415 16.3565C6.33415 16.5906 6.35932 16.8191 6.40966 17.0418C6.45153 17.2271 6.51081 17.4084 6.58751 17.5858C6.75194 17.9661 6.98493 18.3037 7.28648 18.5987C7.59033 18.896 7.93953 19.1262 8.33406 19.2895C8.49331 19.3553 8.65567 19.4084 8.82116 19.4487C9.08159 19.5121 9.34974 19.5438 9.62562 19.5438C10.0768 19.5438 10.5073 19.459 10.9172 19.2895C11.3117 19.1262 11.6609 18.896 11.9647 18.5987C12.1519 18.4156 12.3126 18.2162 12.4469 18.0002C12.5291 17.8682 12.6013 17.7301 12.6637 17.5858C12.7404 17.4084 12.7997 17.227 12.8416 17.0417C12.8919 16.819 12.9171 16.5906 12.9171 16.3565C12.9171 15.3799 13.4053 14.88 14.3816 14.857C14.8815 14.8451 15.2593 14.9612 15.5152 15.2053C15.771 15.4493 15.9048 15.8212 15.9167 16.3211L15.9214 16.5223C15.9427 16.9283 16.0402 17.315 16.2141 17.6822C16.2792 17.8196 16.3532 17.9511 16.4364 18.0765C16.5733 18.2833 16.7349 18.4738 16.9209 18.648C17.2225 18.9305 17.5659 19.1489 17.9509 19.3033C18.1037 19.3645 18.2593 19.4141 18.4177 19.452C18.674 19.5132 18.9376 19.5438 19.2085 19.5438C19.6597 19.5438 20.0902 19.459 20.5001 19.2895C20.8946 19.1262 21.2438 18.896 21.5477 18.5987C21.7348 18.4157 21.8955 18.2162 22.0298 18.0003C22.112 17.8683 22.1842 17.7301 22.2466 17.5858C22.4155 17.1951 22.5 16.7854 22.5 16.3565C22.5 15.3799 22.9882 14.88 23.9646 14.857C24.9643 14.8333 25.476 15.3214 25.4996 16.3211L25.5043 16.5223C25.5151 16.7271 25.5452 16.9269 25.5947 17.1218C25.6434 17.3134 25.7108 17.5002 25.797 17.6822C25.9693 18.0461 26.2049 18.3681 26.5039 18.648C26.8055 18.9305 27.1488 19.1489 27.5339 19.3033C27.9339 19.4637 28.3531 19.5438 28.7915 19.5438C29.2426 19.5438 29.6731 19.459 30.083 19.2895C30.4776 19.1262 30.8267 18.896 31.1306 18.5987C31.4321 18.3037 31.6651 17.9661 31.8296 17.5858C31.9063 17.4084 31.9656 17.227 32.0074 17.0418C32.0574 16.8206 32.0826 16.5939 32.0829 16.3615Z" fill="var(--tiny-first-color, #191919)" fill-rule="evenodd"/>
  </g>
  <path id="合并" d="M25.5414 31.6615Q25.5414 30.6685 25.75 29.7214Q25.9241 28.9305 26.2437 28.1715Q26.5702 27.3961 27.026 26.7061Q27.5166 25.9636 28.1568 25.3199Q28.824 24.6491 29.5982 24.1416L29.5983 24.1415Q30.2582 23.7089 30.9958 23.395Q31.7682 23.0662 32.574 22.8902C33.1927 22.7551 33.8262 22.6875 34.4745 22.6875Q35.4283 22.6875 36.3399 22.8836L36.3399 22.8836Q37.1602 23.0601 37.9464 23.3953Q38.6676 23.7029 39.3149 24.1242Q40.1034 24.6376 40.782 25.3199C41.2055 25.7456 41.58 26.2038 41.9057 26.6945C42.2129 27.1573 42.4767 27.649 42.6968 28.1696C43.1668 29.2806 43.4037 30.4446 43.4076 31.6615Q43.4076 32.6545 43.1991 33.6016Q43.0669 34.2017 42.8511 34.7834L45.6265 38.2486C45.8231 38.4958 45.9426 38.7763 45.9848 39.0904C46.0278 39.4102 45.9841 39.7138 45.8538 40.0012C45.7279 40.2931 45.5379 40.5317 45.2838 40.7172C45.0299 40.9024 44.7417 41.0112 44.4191 41.0436L42.1152 41.2571L41.3754 43.4669C41.3304 43.6099 41.2693 43.7427 41.192 43.8653C41.1007 44.0101 40.9869 44.1405 40.8504 44.2568C40.6181 44.4547 40.3553 44.5817 40.0619 44.6377C39.9593 44.6615 39.8478 44.6734 39.7273 44.6734C39.468 44.6734 39.2212 44.6186 38.987 44.509C38.736 44.3915 38.5302 44.2278 38.3696 44.0178L35.651 40.5593C35.2644 40.6101 34.8722 40.6356 34.4745 40.6356Q33.9008 40.6356 33.3425 40.565L30.6283 44.0214C30.5562 44.1156 30.476 44.2005 30.3878 44.276C30.2731 44.3742 30.1447 44.4565 30.0028 44.5229C29.8894 44.576 29.7731 44.6162 29.6538 44.6436C29.5267 44.6727 29.3963 44.6873 29.2625 44.6873C29.1326 44.6873 29.013 44.6735 28.9039 44.6458C28.6133 44.5812 28.3571 44.4548 28.1355 44.2665C27.9795 44.1341 27.8539 43.9843 27.7587 43.8173C27.7017 43.7172 27.6555 43.611 27.6202 43.4985L26.8746 41.271L24.5629 41.0568C24.3835 41.0387 24.2141 40.9965 24.0548 40.9301C23.933 40.8794 23.8172 40.8145 23.7072 40.7355C23.5582 40.6286 23.4324 40.5048 23.3295 40.3642C23.2391 40.2406 23.1665 40.104 23.1117 39.9544Q23.0263 39.7214 23.0058 39.4828L23.0058 39.4828L23.0058 39.4827Q22.9884 39.2789 23.0183 39.071C23.0435 38.8957 23.0921 38.7313 23.1639 38.5778C23.2205 38.4568 23.2915 38.3426 23.377 38.2352L23.3793 38.2323L26.1128 34.823Q25.8866 34.2222 25.75 33.6017L25.75 33.6017C25.611 32.9703 25.5414 32.3236 25.5414 31.6615ZM28.324 33.0817L28.3241 33.0817C28.4055 33.4392 28.5184 33.7896 28.663 34.1328Q28.8904 34.6729 29.2067 35.1547Q29.5577 35.6893 30.0179 36.152Q30.5045 36.6412 31.0706 37.0073Q31.5219 37.2992 32.0239 37.5128C32.3746 37.6621 32.7329 37.7778 33.0987 37.8599C33.5461 37.9604 34.0046 38.0106 34.4745 38.0106Q35.1793 38.0106 35.8503 37.8599L35.8503 37.8599L35.8503 37.8599Q36.3991 37.7367 36.9251 37.5128C37.6795 37.1917 38.3481 36.7381 38.9311 36.152C39.2379 35.8436 39.5083 35.5112 39.7422 35.1549C39.9531 34.8336 40.1344 34.4929 40.2861 34.1328C40.4306 33.7896 40.5436 33.4392 40.625 33.0817C40.7301 32.6203 40.7826 32.1469 40.7826 31.6615C40.7798 30.8022 40.612 29.9791 40.2792 29.1922C40.125 28.8276 39.9407 28.483 39.7261 28.1582C39.4933 27.8057 39.2248 27.4766 38.9209 27.171Q38.4226 26.6701 37.8418 26.2982C37.5491 26.1109 37.2408 25.9481 36.9167 25.8099Q36.3771 25.5798 35.8142 25.4562L35.8142 25.4562C35.3782 25.3604 34.9316 25.3125 34.4745 25.3125C34.0047 25.3125 33.5461 25.3627 33.0988 25.4631C32.733 25.5452 32.3746 25.661 32.0239 25.8103Q31.5219 26.0239 31.0706 26.3158C30.6932 26.5598 30.3423 26.8449 30.0179 27.171C29.7111 27.4795 29.4407 27.8119 29.2068 28.1683L29.2067 28.1683Q28.8904 28.6501 28.663 29.1903C28.5184 29.5335 28.4055 29.8838 28.3241 30.2413C28.219 30.7028 28.1664 31.1762 28.1664 31.6615Q28.1664 32.3895 28.324 33.0817ZM34.4745 34.6027C36.0939 34.6027 37.4003 33.2893 37.4003 31.6612C37.4003 30.0331 36.0803 28.7197 34.4745 28.7197C32.8551 28.7197 31.5488 30.0331 31.5488 31.6612C31.5488 33.2893 32.8551 34.6027 34.4745 34.6027ZM41.72 37.4242C41.8342 37.2793 41.9438 37.1315 42.0487 36.9809L43.744 39.0976L40.6325 39.3859L39.6292 42.3839L37.9622 40.2631C38.1443 40.1884 38.3243 40.1077 38.5023 40.0209C38.7696 39.8907 39.0293 39.7482 39.2816 39.5935C39.6216 39.3851 39.9479 39.1545 40.2606 38.9017C40.5189 38.693 40.7646 38.4718 40.9978 38.2381C41.2536 37.9818 41.4943 37.7105 41.72 37.4242ZM25.2383 39.1108L28.3573 39.3998L29.3607 42.3974L31.0153 40.2904C30.8352 40.2165 30.657 40.1369 30.4809 40.0513C30.2079 39.9188 29.9427 39.7737 29.6852 39.616C29.3512 39.4114 29.0301 39.1856 28.722 38.9385C28.446 38.7173 28.1842 38.4819 27.9365 38.2326C27.6962 37.9907 27.4692 37.7356 27.2556 37.4673C27.1381 37.3199 27.0256 37.1695 26.9178 37.0161L25.2383 39.1108ZM39.942 42.7818C39.94 42.7793 39.938 42.7768 39.936 42.7743L39.942 42.7818ZM29.0464 42.7978C29.0442 42.8005 29.042 42.8032 29.0399 42.806L29.0464 42.7978ZM39.4673 42.8676C39.4687 42.8629 39.4703 42.8584 39.4719 42.8539L39.4673 42.8676ZM29.5141 42.8556C29.5151 42.8583 29.516 42.861 29.5168 42.8637L29.5141 42.8556Z" fill="var(--tiny-second-color, #aeaeAE)" fill-rule="evenodd"/>
</svg>