<svg viewBox="0 0 48 48" xmlns="http://www.w3.org/2000/svg" xmlns:xlink="http://www.w3.org/1999/xlink" width="48.000000" height="48.000000">
  <g id="ic_huawei_cloud_store_new-新店/base/ic_huawei_cloud_store_new">
    <path id="减去顶层" d="M7.37591 22.8471C7.86485 22.9468 8.37881 23 8.90908 23C11.0673 23 12.9553 22.1191 13.9865 20.8037C15.0972 22.1191 17.1303 23 19.4546 23C21.6872 23 23.6513 22.1865 24.787 20.957C24.9947 21.228 25.2443 21.4794 25.5293 21.7066C23.4411 24.0576 22.1327 27.1167 22.0096 30.4784C20.5945 31.203 19.6259 32.6759 19.6259 34.375L19.6259 41.375L12.6259 41.375C9.72641 41.375 7.37591 39.0245 7.37591 36.125L7.37591 22.8471L7.37591 22.8471Z" fill="var(--tiny-first-color, #191919)" fill-rule="evenodd"/>
    <path id="path7" d="M13.9384 16.0249C13.9384 18.7431 11.6858 20.9467 8.90717 20.9467C6.12848 20.9467 3.87592 18.7431 3.87592 16.0249C3.87592 15.754 3.89827 15.4883 3.94128 15.2294L3.96365 15.0846L6.6032 7.07047C7.06321 5.61466 8.4138 4.625 9.94056 4.625L38.0613 4.625C39.588 4.625 40.9386 5.61466 41.3986 7.07047L44.0467 15.1285L44.0668 15.2755C44.1062 15.6035 44.1259 15.8533 44.1259 16.0249C44.1259 18.7431 41.8734 20.9467 39.0947 20.9467C36.316 20.9467 34.0634 18.7431 34.0634 16.0249M24.0009 16.0249C24.0009 18.7431 21.7484 20.9467 18.9697 20.9467C16.2704 20.9467 14.0676 18.8673 13.9439 16.2566L13.9384 16.0249M34.0634 16.0249C34.0634 18.7431 31.8109 20.9467 29.0322 20.9467C26.3329 20.9467 24.1301 18.8673 24.0064 16.2566L24.0009 16.0249" fill="var(--tiny-first-color, #191919)" fill-rule="evenodd"/>
  </g>
  <path id="合并" d="M33.5 22C28.8098 22 25 25.8098 25 30.5C25 35.1902 28.8098 39 33.5 39C38.1902 39 42 35.1902 42 30.5C41.9848 25.8098 38.175 22 33.5 22ZM33.4745 33.6027C35.0939 33.6027 36.4003 32.2893 36.4003 30.6612C36.4003 29.0331 35.0803 27.7197 33.4745 27.7197C31.8551 27.7197 30.5488 29.0331 30.5488 30.6612C30.5488 32.2893 31.8551 33.6027 33.4745 33.6027ZM41.9182 35.2188L44.844 38.8717C45.0073 39.0769 45.0481 39.3642 44.9392 39.5968C44.8304 39.8567 44.599 40.0209 44.3269 40.0483L41.3739 40.3219L40.4213 43.1676C40.3397 43.4275 40.1083 43.6191 39.8498 43.6601C39.809 43.6738 39.7681 43.6738 39.7273 43.6738C39.5096 43.6738 39.2919 43.578 39.1558 43.4002L36.2844 39.7473C38.7747 39.1863 40.8432 37.4898 41.9182 35.2188ZM25.0444 35.2598L22.1595 38.8579C21.9962 39.0632 21.9554 39.3505 22.0506 39.6104C22.1459 39.8704 22.3908 40.0345 22.663 40.0619L25.6159 40.3355L26.5685 43.1812C26.6502 43.4412 26.8679 43.619 27.1401 43.6738C27.1809 43.6875 27.2217 43.6875 27.2625 43.6875C27.4803 43.6875 27.698 43.5917 27.8341 43.4138L30.6918 39.7746C28.2151 39.2137 26.1331 37.5309 25.0444 35.2598Z" fill="var(--tiny-second-color, #aeaeAE)" fill-rule="evenodd"/>
</svg>