<svg viewBox="0 0 48 48" xmlns="http://www.w3.org/2000/svg" xmlns:xlink="http://www.w3.org/1999/xlink" width="48.000000" height="48.000000" fill="none">
  <path id="矢量 1935" d="M44 24C44 12.9722 35.028 4 24 4C12.972 4 4 12.9722 4 24C4 35.0278 12.972 44 24 44C35.028 44 44 35.0278 44 24ZM36 24C36 17.3726 30.6274 12 24 12C17.3726 12 12 17.3726 12 24C12 30.6274 17.3726 36 24 36C30.6274 36 36 30.6274 36 24Z" fill="var(--tiny-first-color, #191919)" fill-rule="evenodd"/>
  <path id="形状结合" d="M24 15.5C28.6944 15.5 32.5 19.3056 32.5 24C32.5 28.6944 28.6944 32.5 24 32.5C19.3056 32.5 15.5 28.6944 15.5 24C15.5 19.3056 19.3056 15.5 24 15.5Z" fill="var(--tiny-second-color, #aeaeAE)" fill-rule="evenodd"/>
</svg>
