<svg viewBox="0 0 48 48" xmlns="http://www.w3.org/2000/svg" xmlns:xlink="http://www.w3.org/1999/xlink" width="48.000000" height="48.000000">
  <path id="合并" d="M24 4C28.4341 4 32.6516 5.44838 36.1066 8.07848C36.7657 8.58028 36.8933 9.52142 36.3915 10.1806C35.8897 10.8397 34.9486 10.9673 34.2894 10.4655C31.3523 8.22962 27.7718 7 24 7C14.6117 7 7 14.6111 7 24C7 33.3876 14.6124 41 24 41C33.3889 41 41 33.3883 41 24C41 20.2292 39.7717 16.6507 37.5362 13.7122C37.0346 13.0529 37.1625 12.1118 37.8218 11.6102C38.4811 11.1086 39.4222 11.2365 39.9238 11.8958C42.5532 15.352 44 19.5672 44 24C44 35.0451 35.0458 44 24 44C12.9556 44 4 35.0444 4 24C4 12.9542 12.9549 4 24 4ZM23.9995 15.5C19.3051 15.5 15.4995 19.3056 15.4995 24C15.4995 28.6944 19.3051 32.5 23.9995 32.5C28.6939 32.5 32.4995 28.6944 32.4995 24C32.4995 19.3056 28.6939 15.5 23.9995 15.5ZM23.9995 18.5C20.9619 18.5 18.4995 20.9624 18.4995 24C18.4995 27.0376 20.9619 29.5 23.9995 29.5C27.0371 29.5 29.4995 27.0376 29.4995 24C29.4995 20.9624 27.0371 18.5 23.9995 18.5Z" fill="var(--tiny-first-color)" fill-rule="evenodd"/>
  <path id="椭圆 155 (边框)" d="M15.4995 24C15.4995 19.3056 19.3051 15.5 23.9995 15.5C28.6939 15.5 32.4995 19.3056 32.4995 24C32.4995 28.6944 28.6939 32.5 23.9995 32.5C19.3051 32.5 15.4995 28.6944 15.4995 24ZM18.4995 24C18.4995 20.9624 20.9619 18.5 23.9995 18.5C27.0371 18.5 29.4995 20.9624 29.4995 24C29.4995 27.0376 27.0371 29.5 23.9995 29.5C20.9619 29.5 18.4995 27.0376 18.4995 24Z" fill="var(--tiny-second-color)" fill-rule="evenodd"/>
</svg>