<svg viewBox="0 0 48 48" xmlns="http://www.w3.org/2000/svg" xmlns:xlink="http://www.w3.org/1999/xlink" width="48.000000" height="48.000000">
  <path id="减去顶层" d="M27.3181 20.5L38 20.5L38 12L37.9898 11.6475C37.8073 8.49784 35.1954 6 32 6L11 6L10.6475 6.01019C7.49784 6.19268 5 8.80464 5 12L5 36L5.01019 36.3525C5.19268 39.5022 7.80464 42 11 42L26.8303 41.998L20.7207 35.5638C19.0308 33.9713 19.251 32.0333 20.1602 30.7934C20.1506 30.7936 20.1409 30.7937 20.1312 30.7937C19.2912 30.7937 18.6312 30.1338 18.6312 29.2937L18.6312 26.4082L14.5 26.4082C13.66 26.4082 13 25.7483 13 24.9082C13 24.0684 13.66 23.4082 14.5 23.4082L18.6312 23.4082L18.6312 21.1458L14.6229 21.1458C13.7829 21.1458 13.1229 20.4859 13.1229 19.6458C13.1229 18.8059 13.7829 18.1458 14.6229 18.1458L18.4137 18.1458L15.4516 14.4432C14.9269 13.7874 15.0299 12.8597 15.6859 12.335C16.3418 11.8101 17.2695 11.9131 17.7942 12.5691L20.1654 15.5332L22.7085 12.5362C23.252 11.8956 24.1822 11.8194 24.8227 12.3628C25.4632 12.9063 25.5395 13.8367 24.996 14.4771L21.8829 18.1458L25.6395 18.1458C26.4795 18.1458 27.1395 18.8059 27.1395 19.6458C27.1395 19.9875 27.0304 20.2993 26.8443 20.5491C26.9972 20.5169 27.1557 20.5 27.3181 20.5ZM25.7246 21.1435C25.6965 21.145 25.6681 21.1458 25.6395 21.1458L21.6312 21.1458L21.6312 23.4082L24.7625 23.4082C24.8458 23.4082 24.9275 23.4147 25.0068 23.4273L25.0068 22.8342C25.0068 22.169 25.2824 21.5687 25.7246 21.1435ZM25.0068 26.3892C24.9275 26.4017 24.8458 26.4082 24.7625 26.4082L21.6312 26.4082L21.6312 29.2937C21.6312 29.4264 21.6148 29.5547 21.5837 29.6765C21.8243 29.5882 22.0711 29.5405 22.316 29.5405L25.0068 29.5405L25.0068 26.3892Z" fill="var(--tiny-first-color, #191919)" fill-rule="evenodd"/>
  <path id="矢量 1949" d="M37.7206 23.7505C37.7206 22.7837 36.9445 22 35.9872 22L28.9886 22C28.0312 22 27.2551 22.7837 27.2551 23.7505L27.2551 31.0303L23.737 31.0303C22.1728 31.0303 21.4087 32.9576 22.5405 34.0479L31.3316 42.5162C32.0028 43.1627 33.0593 43.1612 33.7285 42.5123L42.4635 34.044C43.59 32.9517 42.8245 31.0303 41.263 31.0303L37.7206 31.0303L37.7206 23.7505Z" fill="var(--tiny-second-color, #aeaeAE)" fill-rule="evenodd"/>
</svg>