<svg viewBox="0 0 48 48" xmlns="http://www.w3.org/2000/svg" xmlns:xlink="http://www.w3.org/1999/xlink" width="48.000000" height="48.000000">
  <path id="减去顶层" d="M22.0051 4.00846C15.8379 4.22227 12.7474 8.47538 12.7474 15.0061L12.7519 15.332C12.0316 16.4511 11.7984 18.1502 12.2974 19.5962L12.4259 19.9331C12.8416 20.9259 13.5249 21.7515 14.3564 22.2621L14.6059 22.402L14.9175 22.9167C15.0202 23.0771 15.1263 23.234 15.2357 23.3872L15.4473 23.6701C16.5719 25.1917 16.6216 25.7457 15.9343 26.1562L15.6754 26.2918L15.4171 26.4109L14.986 26.5936L14.6342 26.7343L12.5582 27.5198L11.3605 27.9852L10.1041 28.5112L9.61078 28.7332C9.42667 28.8179 9.25832 28.8975 9.09325 28.9776L8.6062 29.2208C5.05841 31.0454 3.0117 33.2517 3.02057 36.2676L3 38.0269L3.00171 38.5488L3.01892 39.0888L3.04059 39.4075C3.22787 41.5712 4.24692 42.9115 6.37421 42.9979L25.6918 42.9992C24.6606 42.1414 23.7642 41.1271 23.0391 39.9928L6.27699 39.9837C6.14963 39.9554 6.10597 39.8698 6.06903 39.5626L6.03146 39.1754L6.00891 38.8007L6.00117 38.5037L5.99985 38.042L6.01439 37.0034L6.02052 36.2758C6.01588 34.6661 7.32812 33.2516 9.96255 31.8966L10.4187 31.6689L10.8541 31.4634L11.5423 31.1571L12.015 30.9576L12.9385 30.5873L15.7263 29.5284L16.3045 29.2947L16.642 29.1492L17.1432 28.9125C19.8327 27.5446 20.0171 25.0089 18.0779 22.1927L17.6567 21.6159C17.4356 21.3055 17.2131 20.9379 17.0115 20.5449C16.8642 20.2576 16.6292 20.0275 16.3437 19.8858L16.1208 19.7966C15.7642 19.6861 15.3496 19.2443 15.1333 18.6176C14.8821 17.8897 15.0015 17.2233 15.2503 17.0096C15.6055 16.7045 15.7978 16.2511 15.7703 15.7837C15.755 15.5243 15.7474 15.2648 15.7474 15.0061C15.7474 9.80698 17.8707 7 22.4984 7C27.1261 7 29.2494 9.80698 29.2494 15.0061C29.2494 15.2647 29.2417 15.5242 29.2265 15.7827C29.199 16.2492 29.3905 16.7018 29.7444 17.007C29.9944 17.2226 30.1138 17.8896 29.8626 18.6176C29.6464 19.244 29.2319 19.6859 28.8759 19.7964C28.4907 19.9159 28.1698 20.1855 27.9857 20.5444C27.8228 20.8621 27.6459 21.1636 27.4556 21.4478L27.0499 22.0119C28.6621 20.99 30.5146 20.3131 32.5036 20.0852C32.5756 19.9266 32.6408 19.7634 32.6985 19.5962L32.8102 19.2331C33.1722 17.8966 33.0122 16.5129 32.3533 15.4866L32.2494 15.0061C32.2494 8.30352 28.994 4 22.4984 4L22.0051 4.00846Z" fill="var(--tiny-first-color, #191919)" fill-rule="evenodd"/>
  <path id="合并" d="M34 22C40.0751 22 45 26.9249 45 33C45 39.0751 40.0751 44 34 44C27.9249 44 23 39.0751 23 33C23 26.9249 27.9249 22 34 22ZM25.64 33C25.64 28.3829 29.3829 24.64 34 24.64C38.6171 24.64 42.36 28.3829 42.36 33C42.36 37.6171 38.6171 41.36 34 41.36C29.3829 41.36 25.64 37.6171 25.64 33ZM39.539 27.9586L37.0864 27.9586L37.0864 27L35.7353 27L35.7353 27.9586L33.2444 27.9586L33.2444 32.8541L39.539 32.8541L39.539 27.9586ZM32.4312 36.8616L33.1932 36.7302L33.1003 35.2586C32.8036 35.312 32.5806 35.3473 32.4312 35.3644L32.4312 28.9685L32.9562 28.9685L32.9562 27.5226L28.2081 27.5226L28.2081 28.9685L28.6275 28.9685L28.6275 35.9158L28 35.9928L28.1441 37.4643C29.079 37.3511 30.0576 37.2196 31.08 37.07L31.08 38.8974L32.4312 38.8974L32.4312 36.8616ZM31.08 28.9685L31.08 30.2669L29.9915 30.2669L29.9915 28.9685L31.08 28.9685ZM35.7353 29.1769L35.7353 29.8469L34.5443 29.8469L34.5443 29.1769L35.7353 29.1769ZM38.2423 29.1769L38.2423 29.8469L37.0864 29.8469L37.0864 29.1769L38.2423 29.1769ZM34.5443 30.9915L35.7353 30.9915L35.7353 31.6743L34.5443 31.6743L34.5443 30.9915ZM37.0864 31.6743L37.0864 30.9915L38.2423 30.9915L38.2423 31.6743L37.0864 31.6743ZM29.9915 31.6743L31.08 31.6743L31.08 32.9343L29.9915 32.9343L29.9915 31.6743ZM35.4088 34.5886L40 34.5886L40 33.4184L32.8506 33.4184L32.8506 34.5886L33.9936 34.5886L33.7183 36.3487L37.81 36.3487C37.7908 36.5667 37.7513 36.8028 37.6916 37.0572C37.6553 37.2239 37.6126 37.3446 37.5635 37.4194C37.5165 37.4943 37.4429 37.5445 37.3426 37.5701C37.2423 37.5958 37.0832 37.6086 36.8655 37.6086C36.2359 37.6086 35.6713 37.5733 35.1718 37.5028L35.4216 38.9231C35.9125 38.9744 36.4109 39 36.9168 39C37.4418 39 37.8399 38.9562 38.111 38.8686C38.3821 38.7809 38.587 38.6228 38.7257 38.3941C38.8666 38.1675 38.9808 37.8138 39.0683 37.3329C39.1985 36.6062 39.286 35.8881 39.3308 35.1785L35.3159 35.1785L35.4088 34.5886ZM29.9915 35.7299L29.9915 34.3385L31.08 34.3385L31.08 35.5728L29.9915 35.7299Z" fill="var(--tiny-second-color, #aeaeAE)" fill-rule="evenodd"/>
</svg>