<svg viewBox="0 0 48 48" xmlns="http://www.w3.org/2000/svg" xmlns:xlink="http://www.w3.org/1999/xlink" width="48.000000" height="48.000000">
  <path id="形状结合" d="M34 4C37.1955 4 39.8073 6.49849 39.9898 9.64752L40 10L40 21C40 21.8284 39.3284 22.5 38.5 22.5C37.7406 22.5 37.113 21.9357 37.0137 21.2035L37 21L37 10C37 8.44107 35.8102 7.15916 34.2889 7.01374L34 7L14 7C12.4407 7 11.1591 8.19021 11.0137 9.71116L11 10L11 38.002C11 39.5604 12.1893 40.841 13.711 40.9863L14 41L23 41C23.8284 41 24.5 41.6716 24.5 42.5C24.5 43.2594 23.9357 43.887 23.2035 43.9863L23 44L14 44C10.8043 44 8.19266 41.5032 8.01018 38.3545L8 38.002L8 10C8 6.80531 10.4977 4.19273 13.6474 4.01019L14 4L34 4ZM26 19.5C26.8284 19.5 27.5 20.1716 27.5 21C27.5 21.7594 26.9357 22.387 26.2035 22.4863L26 22.5L17 22.5C16.1716 22.5 15.5 21.8284 15.5 21C15.5 20.2406 16.0643 19.613 16.7965 19.5137L17 19.5L26 19.5ZM31 11.5C31.8284 11.5 32.5 12.1716 32.5 13C32.5 13.7594 31.9357 14.387 31.2035 14.4863L31 14.5L17 14.5C16.1716 14.5 15.5 13.8284 15.5 13C15.5 12.2406 16.0643 11.613 16.7965 11.5137L17 11.5L31 11.5Z" fill="var(--tiny-first-color)" fill-rule="evenodd"/>
  <path id="椭圆 392(边框)" d="M4.69135 8.10528C4.92094 8.03913 5.11472 7.98151 5.27268 7.93242C6.07483 7.68312 6.50921 6.85698 6.25991 6.05482C6.04629 5.36747 5.40913 4.95016 4.72644 5.00163C5.04053 4.70946 5.37451 4.44774 5.72839 4.21646C6.09988 3.97368 6.4933 3.76445 6.90865 3.58877C7.3129 3.41778 7.72569 3.28404 8.14701 3.18754C8.69287 3.06251 9.25303 3 9.82752 3C10.402 3 10.9622 3.06251 11.508 3.18754C11.9293 3.28404 12.3421 3.41778 12.7464 3.58877C13.1618 3.76445 13.5552 3.97369 13.9267 4.21649C14.3576 4.49809 14.7589 4.82482 15.1308 5.1967C15.5027 5.56857 15.8294 5.96994 16.111 6.40081C16.3538 6.77231 16.5631 7.16575 16.7388 7.58112C16.9098 7.9854 17.0435 8.39822 17.14 8.81956C17.265 9.36539 17.3275 9.92554 17.3275 10.5C17.3275 11.0745 17.265 11.6346 17.14 12.1804C17.0435 12.6018 16.9097 13.0146 16.7388 13.4189C16.5631 13.8343 16.3538 14.2277 16.111 14.5992C15.8294 15.0301 15.5027 15.4314 15.1308 15.8033C14.7589 16.1752 14.3575 16.5019 13.9267 16.7835C13.5552 17.0263 13.1617 17.2356 12.7464 17.4112C12.3422 17.5822 11.9294 17.716 11.5081 17.8125C10.9622 17.9375 10.402 18 9.82753 18C9.253 18 8.69279 17.9375 8.14691 17.8124C7.72562 17.7159 7.31287 17.5822 6.90865 17.4112C6.49328 17.2355 6.09984 17.0263 5.72833 16.7835C5.29746 16.5019 4.89609 16.1752 4.52422 15.8033C4.14548 15.4246 3.81364 15.0154 3.52871 14.5759C3.28327 14.1972 3.07263 13.7961 2.89679 13.3723C2.57483 12.5965 1.71227 12.2398 0.936419 12.5618C0.160567 12.8837 -0.196069 13.7463 0.125884 14.5221C0.37782 15.1293 0.680584 15.7031 1.03418 16.2438C1.42752 16.8452 1.88376 17.4055 2.4029 17.9246C2.9127 18.4344 3.46242 18.8837 4.05205 19.2724C4.5824 19.622 5.14505 19.9226 5.73999 20.1742C7.04153 20.7247 8.40404 21 9.82753 21C10.6047 21 11.3637 20.918 12.1045 20.7539C12.7206 20.6174 13.3241 20.4242 13.9151 20.1742C15.1714 19.6428 16.2838 18.893 17.2521 17.9246C17.7619 17.4149 18.2111 16.8652 18.5998 16.2756C18.9495 15.7452 19.2501 15.1825 19.5018 14.5875C19.7517 13.9966 19.9449 13.393 20.0814 12.7769C20.2455 12.0361 20.3275 11.2771 20.3275 10.5C20.3275 9.72286 20.2455 8.96389 20.0814 8.22309C19.9449 7.60698 19.7517 7.00344 19.5018 6.41247C18.9704 5.15608 18.2205 4.04372 17.2521 3.07538C16.7424 2.5656 16.1927 2.11637 15.6031 1.72769C15.0727 1.37805 14.51 1.07741 13.9151 0.825758C13.3241 0.575819 12.7206 0.382619 12.1046 0.246157C11.3637 0.0820522 10.6047 1.19209e-07 9.82752 0C9.05033 -1.19209e-07 8.29131 0.0820518 7.55046 0.246156C6.9344 0.382618 6.33091 0.575819 5.73999 0.825758C5.14502 1.07741 4.58236 1.37805 4.05199 1.72768C3.46238 2.11637 2.91268 2.5656 2.4029 3.07538C1.95398 3.5243 1.48658 4.12982 1.00071 4.89194C0.814893 5.1834 0.643422 5.47155 0.486294 5.7564C0.333485 6.03342 0.215703 6.26833 0.132947 6.46113C0.0789046 6.58703 0.0413389 6.71558 0.0202502 6.84679C0.0080905 6.92244 0.0014087 6.99897 0.00020504 7.07638C-0.00212884 7.22647 0.0154657 7.3712 0.0529889 7.51056C0.0889292 7.64404 0.143152 7.7726 0.215658 7.89624C0.341993 8.11167 0.511081 8.28802 0.722923 8.42529C0.854121 8.51031 0.996742 8.57616 1.15079 8.62285C1.40614 8.70024 1.70892 8.72377 2.05911 8.69343C2.4006 8.66384 2.85836 8.57981 3.4324 8.44134C3.81147 8.3499 4.23112 8.23788 4.69135 8.10528Z" fill="var(--tiny-second-color)" fill-rule="evenodd" transform="matrix(0.965926,-0.258819,0.258819,0.965926,21.8007,26.4849)"/>
</svg>