<svg viewBox="0 0 48 48" xmlns="http://www.w3.org/2000/svg" xmlns:xlink="http://www.w3.org/1999/xlink" width="48.000000" height="48.000000" fill="none">
  <path id="形状结合" d="M38.4503 21.4991C38.4271 21.4955 38.2275 21.4753 38.2042 21.4707C38.1809 21.4634 38.0106 21.4185 37.9867 21.4098C37.9635 21.3988 37.8051 21.33 37.7807 21.3167C37.7143 21.2665 37.4885 21.1098 37.4393 21.0606L33.8453 17.4666C33.2596 16.8808 33.2596 15.9311 33.8453 15.3453C34.3779 14.8128 35.2112 14.7644 35.7984 15.2001L36.4939 15.8682C35.76 12.9266 34.241 10.1995 32.0213 7.97862C25.3831 1.34041 14.6169 1.34041 7.97866 7.97862C1.34042 14.6169 1.34042 25.3812 7.97866 32.0213C14.6169 38.6595 25.3831 38.6595 32.0213 32.0213C32.6071 31.4355 33.5569 31.4355 34.1427 32.0213C34.7284 32.6071 34.7284 33.5568 34.1427 34.1426C26.3329 41.9524 13.6671 41.9524 5.85719 34.1425C-1.95242 26.3307 -1.95242 13.6671 5.85734 5.8573C13.6671 -1.95248 26.3329 -1.95248 34.143 5.8576C37.9434 9.66016 40 14.7322 40 20C40 20.0937 39.9914 20.1853 39.975 20.2743C39.9641 20.3212 39.9368 20.4345 39.922 20.4785C39.9082 20.5074 39.8226 20.7092 39.8063 20.7381C39.7204 20.8516 39.5111 21.117 39.3975 21.202C39.3572 21.2283 39.2401 21.3059 39.1968 21.3286C39.1433 21.3541 39.033 21.4039 38.9745 21.4234C38.8376 21.4652 38.6026 21.4991 38.4503 21.4991Z" fill="var(--tiny-first-color)" fill-rule="evenodd" transform="matrix(-1,0,0,1,44,4)"/>
</svg>