<svg viewBox="0 0 48 48" xmlns="http://www.w3.org/2000/svg" xmlns:xlink="http://www.w3.org/1999/xlink" width="48.000000" height="48.000000" fill="none">
  <path id="减去顶层" d="M37 4C40.866 4 44 7.13401 44 11L44 24.3388C41.4363 21.0873 37.4619 19 33 19C25.268 19 19 25.268 19 33C19 36.427 20.2314 39.5665 22.2758 42L11 42C7.13401 42 4 38.866 4 35L4 11C4 7.13401 7.13401 4 11 4L37 4ZM34.2555 9.6979C34.9746 9.28669 35.891 9.53634 36.3022 10.2555C36.6791 10.9147 36.5008 11.7397 35.9145 12.1893L35.7446 12.3022L25.9642 17.8898C24.8862 18.6161 23.4861 18.6959 22.4177 18.1664L22.1578 18.0214L12.3144 12.963C11.5776 12.5844 11.2872 11.6801 11.6659 10.9433C12.013 10.2679 12.8017 9.96759 13.4983 10.2139L13.6856 10.2947L23.6339 15.4124C23.79 15.5092 23.9946 15.5254 24.2144 15.4334L24.3816 15.3436L34.2555 9.6979Z" fill="var(--tiny-first-color, #191919)" fill-rule="evenodd"/>
  <path id="减去顶层" d="M22 33C22 26.9249 26.9249 22 33 22C39.0751 22 44 26.9249 44 33C44 39.0751 39.0751 44 33 44C26.9249 44 22 39.0751 22 33ZM30.4455 27.9298C31.0365 27.3493 31.9863 27.3579 32.5667 27.949C33.0944 28.4863 33.1352 29.3201 32.6942 29.9033L32.5475 30.0702L31.0915 31.5L39.5 31.5C40.3285 31.5 41 32.1716 41 33C41 33.7594 40.4357 34.387 39.7036 34.4863L39.5 34.5L31.0953 34.5L32.551 35.9298C33.0883 36.4574 33.1443 37.2903 32.7139 37.8815L32.5702 38.051C32.0426 38.5883 31.2097 38.6443 30.6185 38.2139L30.449 38.0702L26.502 34.1942C25.8884 33.5917 25.8373 32.6363 26.3486 31.9749L26.502 31.8023L30.4455 27.9298Z" fill="var(--tiny-second-color, #aeaeAE)" fill-rule="evenodd"/>
</svg>
