<svg viewBox="0 0 48 48" xmlns="http://www.w3.org/2000/svg" xmlns:xlink="http://www.w3.org/1999/xlink" width="48.000000" height="48.000000" fill="none">
  <path id="形状结合" d="M38.097 13.9473C41.712 15.9649 44 19.7818 44 24.0012C44 30.2104 39.0846 35.2708 32.9316 35.5029L32.49 35.5112L19.1243 35.5105L20.5957 36.9836C21.1277 37.5166 21.1753 38.35 20.739 38.9368C20.2059 39.4688 19.2272 39.6845 18.6404 39.2482L14.4483 35.0708C13.5544 34.1752 14.1083 32.6792 15.3048 32.5242L15.51 32.5112L32.49 32.5112C37.1908 32.5112 41 28.7015 41 24.0012C41 20.8798 39.3095 18.0596 36.635 16.567C35.9116 16.1633 35.6525 15.2496 36.0562 14.5262C36.4599 13.8028 37.3736 13.5436 38.097 13.9473ZM29.3596 8.75153L33.5517 12.9289C34.4456 13.8246 33.8917 15.3205 32.6952 15.4755L32.49 15.4885L15.51 15.4885C10.8089 15.4885 7 19.2985 7 24.0005C7 27.12 8.69067 29.9404 11.3657 31.4351C12.0888 31.8392 12.3475 32.753 11.9435 33.4762C11.5394 34.1994 10.6255 34.4581 9.90234 34.054C6.28777 32.0344 4 28.2178 4 24.0005C4 17.7897 8.91503 12.7289 15.0684 12.4969L15.51 12.4885L28.8759 12.4885L27.4043 11.0161C26.8723 10.4831 26.8247 9.64971 27.261 9.06292C27.7941 8.53092 28.7728 8.31524 29.3596 8.75153Z" fill="var(--tiny-first-color)" fill-rule="evenodd"/>
  <path id="形状结合" d="M38.0968 13.9473C41.7119 15.9648 43.9998 19.7817 43.9998 24.0011C43.9998 30.2103 39.0845 35.2708 32.9314 35.5028L32.4898 35.5111L19.1242 35.5105L20.5956 36.9835C21.1276 37.5166 21.1751 38.3499 20.7389 38.9367C20.2058 39.4687 19.227 39.6844 18.6402 39.2481L14.4481 35.0707C13.5543 34.1751 14.1082 32.6792 15.3046 32.5242L15.5098 32.5111L32.4898 32.5111C37.1907 32.5111 40.9998 28.7014 40.9998 24.0011C40.9998 20.8798 39.3093 18.0595 36.6348 16.5669C35.9114 16.1632 35.6523 15.2495 36.056 14.5261C36.4597 13.8027 37.3735 13.5436 38.0968 13.9473Z" fill="var(--tiny-second-color)" fill-rule="evenodd"/>
</svg>