<svg viewBox="0 0 48 48" xmlns="http://www.w3.org/2000/svg" xmlns:xlink="http://www.w3.org/1999/xlink" width="48.000000" height="48.000000">
  <path id="形状结合" d="M24 4C28.4341 4 32.6516 5.44838 36.1066 8.07848C36.7657 8.58028 36.8933 9.52142 36.3915 10.1806C35.8897 10.8397 34.9486 10.9673 34.2894 10.4655C31.3523 8.22962 27.7718 7 24 7C14.6117 7 7 14.6111 7 24C7 33.3876 14.6124 41 24 41C33.3889 41 41 33.3883 41 24C41 20.2292 39.7717 16.6507 37.5362 13.7122C37.0346 13.0529 37.1625 12.1118 37.8218 11.6102C38.4811 11.1086 39.4222 11.2365 39.9238 11.8958C42.5532 15.352 44 19.5672 44 24C44 35.0451 35.0458 44 24 44C12.9556 44 4 35.0444 4 24C4 12.9542 12.9549 4 24 4Z" fill="var(--tiny-first-color)" fill-rule="nonzero"/>
  <path id="合并" d="M14.7225 25.9744L17.8252 27.3136C18.5581 27.6299 19.3824 27.3026 19.6987 26.5698C20.015 25.837 19.6877 25.0127 18.9549 24.6964L15.8521 23.3571L27.4702 19.4331L20.3117 26.1014C20.2764 26.1294 20.2428 26.159 20.2106 26.1902C20.0911 26.3064 19.9937 26.4454 19.9183 26.607C19.8224 26.8298 19.7637 27.0976 19.7821 27.322L19.7821 30.1498C19.7821 30.3531 19.8029 30.552 19.8445 30.7465C19.8818 30.9212 19.9359 31.0923 20.0067 31.2598C20.0767 31.4251 20.1605 31.5812 20.2582 31.7281C20.3621 31.8843 20.4817 32.0301 20.6171 32.1654C20.7524 32.3008 20.8981 32.4204 21.0544 32.5243C21.2012 32.622 21.3574 32.7058 21.5227 32.7758C21.6902 32.8466 21.8613 32.9007 22.036 32.938C22.2305 32.9796 22.4294 33.0004 22.6327 33.0004C22.8542 33.0004 23.07 32.9759 23.28 32.9269C23.4901 32.878 23.6945 32.8045 23.8931 32.7066C24.0918 32.6087 24.2745 32.4913 24.4412 32.3545C24.608 32.2177 24.7588 32.0615 24.8937 31.8858L25.7777 30.7346L28.516 31.9136C28.6233 31.9598 28.7326 31.9992 28.8439 32.0317C28.9549 32.0641 29.0679 32.0897 29.1828 32.1086C29.3835 32.1414 29.5832 32.153 29.7818 32.1434C29.9602 32.1348 30.1378 32.1091 30.3145 32.0662C30.489 32.0239 30.6566 31.9664 30.8174 31.8937C30.9883 31.8164 31.1515 31.7219 31.3069 31.6102C31.4623 31.4985 31.604 31.374 31.7318 31.2366C31.8519 31.1074 31.9598 30.9669 32.0555 30.8151C32.1525 30.6612 32.2335 30.5011 32.2985 30.3348C32.371 30.1496 32.4236 29.9566 32.4565 29.7559L34.4201 17.7602C34.452 17.5656 34.4601 17.373 34.4445 17.1824C34.4289 16.9918 34.3895 16.8031 34.3265 16.6164C34.2728 16.4576 34.2043 16.3075 34.1207 16.1663C34.0441 16.0367 33.9549 15.9146 33.8531 15.7999C33.7531 15.6872 33.6446 15.5857 33.5275 15.4954C33.4044 15.4005 33.2719 15.3179 33.1299 15.2476C32.9878 15.1772 32.8418 15.1219 32.6917 15.0816C32.5488 15.0432 32.4024 15.0184 32.2522 15.0072C32.0993 14.9958 31.948 14.9989 31.7985 15.0165C31.6356 15.0357 31.4747 15.0721 31.3158 15.1258L14.939 20.6559C14.7474 20.7205 14.5666 20.8033 14.3965 20.9042C14.2265 21.0051 14.0671 21.124 13.9185 21.2611C13.7699 21.3981 13.6384 21.5473 13.5241 21.7087C13.4098 21.8701 13.3127 22.0436 13.2328 22.2293C13.1523 22.4161 13.0928 22.607 13.054 22.8021C13.0192 22.9772 13.0012 23.1558 13.0001 23.3376C12.9989 23.5172 13.0142 23.6937 13.0458 23.8672C13.0795 24.0518 13.1317 24.233 13.2025 24.4108C13.2732 24.5887 13.3598 24.7562 13.4622 24.9134C13.5585 25.0612 13.6687 25.2 13.7929 25.3296C13.9224 25.4647 14.0623 25.585 14.2126 25.6904C14.371 25.8016 14.5409 25.8962 14.7225 25.9744ZM23.7768 26.7695L29.6433 29.2954L31.1867 19.8668L23.7768 26.7695ZM22.6327 30.1498L23.0764 29.572L22.6327 29.3809L22.6327 30.1498Z" fill="var(--tiny-second-color)" fill-rule="evenodd"/>
</svg>