<svg viewBox="0 0 48 48" xmlns="http://www.w3.org/2000/svg" xmlns:xlink="http://www.w3.org/1999/xlink" width="48.000000" height="48.000000" fill="none">
  <path id="减去顶层" d="M44 24C44 12.972 35.026 4 24 4C12.972 4 4 12.972 4 24C4 35.026 12.972 44 24 44C35.026 44 44 35.026 44 24ZM13.1354 22.4153C12.7739 23.2573 13.1614 24.2339 14.001 24.5964L18.7066 26.6285L28.7124 19.4242L21.7045 27.9231L21.7045 31.3401C21.7045 32.2568 22.4452 33 23.3595 33C23.8739 33 24.3582 32.7602 24.6714 32.351L26.4821 29.9863L30.0173 31.513C30.1413 31.5665 30.2713 31.6046 30.4045 31.6265C31.3066 31.7746 32.1576 31.1612 32.3053 30.2565L34.5855 16.2857C34.6147 16.1072 34.5998 15.9243 34.542 15.7529C34.3471 15.1738 33.721 14.8629 33.1436 15.0584L14.1261 21.4991C13.6812 21.6497 13.3211 21.9828 13.1354 22.4153Z" fill="var(--tiny-first-color, #191919)" fill-rule="evenodd"/>
  <path id="矢量 1727" d="M14.001 24.5964C13.1614 24.2339 12.7738 23.2573 13.1354 22.4153C13.3211 21.9828 13.6812 21.6497 14.126 21.4991L33.1435 15.0584C33.7209 14.8629 34.347 15.1738 34.542 15.7529C34.5997 15.9243 34.6147 16.1072 34.5855 16.2857L32.3052 30.2565C32.1576 31.1612 31.3066 31.7746 30.4045 31.6265C30.2713 31.6046 30.1413 31.5665 30.0173 31.513L26.4821 29.9863L24.6713 32.351C24.3582 32.7602 23.8738 33 23.3594 33C22.4451 33 21.7044 32.2568 21.7044 31.3401L21.7044 27.9231L28.7123 19.4242L18.7066 26.6285L14.001 24.5964Z" fill="var(--tiny-second-color, #aeaeAE)" fill-rule="evenodd"/>
</svg>
