<svg viewBox="0 0 48 48" xmlns="http://www.w3.org/2000/svg" xmlns:xlink="http://www.w3.org/1999/xlink" width="48.000000" height="48.000000">
  <path id="矢量 1987(边框)" d="M39.3976 8.64983C38.9427 8.54994 38.4768 8.5 38 8.5C37.16 8.5 36.5 9.16 36.5 10C36.5 10.84 37.16 11.5 38 11.5C38.2741 11.5 38.5411 11.5304 38.801 11.5913C38.9918 11.6359 39.1788 11.697 39.3619 11.7744C39.5527 11.8552 39.7337 11.9511 39.9048 12.0623C40.1089 12.1949 40.2989 12.3492 40.4749 12.5251C40.6508 12.7011 40.8051 12.8911 40.9377 13.0952C41.0489 13.2663 41.1448 13.4472 41.2256 13.6381C41.303 13.8212 41.3641 14.0082 41.4087 14.1989C41.4696 14.4588 41.5 14.7259 41.5 15L41.5 37C41.5 37.3493 41.4615 37.6896 41.3846 38.0211C41.327 38.2694 41.2478 38.5128 41.147 38.7511C41.0425 38.9981 40.9183 39.2322 40.7742 39.4533C40.6043 39.7141 40.4069 39.957 40.182 40.182C39.9571 40.4069 39.7142 40.6043 39.4534 40.7742C39.2322 40.9183 38.9981 41.0425 38.7511 41.147C38.5128 41.2478 38.2694 41.327 38.021 41.3847C37.6896 41.4616 37.3493 41.5 37 41.5L13 41.5C12.8385 41.5 12.6815 41.4816 12.5289 41.4448C12.4245 41.4196 12.3222 41.3858 12.222 41.3434C12.1153 41.2983 12.014 41.2448 11.918 41.183C11.799 41.1063 11.6882 41.0167 11.5858 40.9142C11.4833 40.8117 11.3937 40.7009 11.3169 40.5819C11.2551 40.486 11.2017 40.3847 11.1566 40.278C11.1142 40.1778 11.0804 40.0755 11.0552 39.9712C11.0184 39.8186 11 39.6615 11 39.5C11 38.66 10.34 38 9.5 38C8.66 38 8 38.66 8 39.5C8 39.8642 8.03791 40.2201 8.11372 40.5678C8.17894 40.8669 8.27221 41.1598 8.39354 41.4467C8.51462 41.733 8.65949 42.0035 8.82812 42.2583C9.01198 42.5361 9.22409 42.7952 9.46447 43.0355C9.70484 43.2759 9.96392 43.488 10.2417 43.6719C10.4965 43.8405 10.767 43.9854 11.0533 44.1065C11.3402 44.2278 11.6331 44.3211 11.9322 44.3863C12.2798 44.4621 12.6358 44.5 13 44.5L37 44.5C37.552 44.5 38.0912 44.442 38.6176 44.3261C39.0607 44.2284 39.4948 44.0898 39.9198 43.91C40.3464 43.7296 40.7498 43.5139 41.1299 43.2629C41.5493 42.986 41.9405 42.6661 42.3033 42.3033C42.6662 41.9404 42.9861 41.5492 43.2631 41.1296C43.514 40.7496 43.7296 40.3463 43.91 39.9198C44.0898 39.4948 44.2284 39.0608 44.326 38.6177C44.442 38.0912 44.5 37.552 44.5 37L44.5 15C44.5 14.5232 44.4501 14.0573 44.3502 13.6024C44.2655 13.2169 44.145 12.8392 43.9886 12.4694C43.8319 12.099 43.6445 11.7488 43.4265 11.4188C43.1868 11.056 42.91 10.7176 42.5962 10.4038C42.2823 10.0899 41.944 9.81314 41.5811 9.57341C41.2512 9.35543 40.901 9.1681 40.5306 9.01142C40.1608 8.85502 39.7831 8.73449 39.3976 8.64983Z" fill="var(--tiny-second-color, #aeaeAE)" fill-rule="evenodd"/>
  <path id="合并" d="M33.6175 3.67391L33.6175 3.67391C34.0606 3.77152 34.4947 3.91022 34.9198 4.09C35.3464 4.27044 35.7497 4.48612 36.1298 4.73704C36.5493 5.01399 36.9405 5.33388 37.3033 5.6967C37.6661 6.05949 37.986 6.45062 38.2629 6.87009C38.5138 7.25019 38.7295 7.65356 38.91 8.0802C39.0898 8.50529 39.2285 8.93943 39.3261 9.38262C39.442 9.90898 39.5 10.4481 39.5 11L39.5 33C39.5 33.552 39.442 34.0912 39.3261 34.6176C39.2285 35.0607 39.0898 35.4948 38.91 35.9198C38.7296 36.3464 38.5139 36.7496 38.2631 37.1297C37.9861 37.5492 37.6662 37.9404 37.3033 38.3033C36.9405 38.6661 36.5493 38.986 36.1298 39.263C35.7497 39.5139 35.3464 39.7296 34.9198 39.91C34.4948 40.0898 34.0607 40.2284 33.6176 40.3261C33.0912 40.442 32.552 40.5 32 40.5L10 40.5C9.44811 40.5 8.90899 40.442 8.38262 40.3261C7.93943 40.2285 7.50529 40.0898 7.0802 39.91C6.65361 39.7296 6.25029 39.5139 5.87023 39.263C5.45071 38.986 5.05953 38.6661 4.6967 38.3033C4.33386 37.9405 4.01395 37.5493 3.73699 37.1297C3.48609 36.7497 3.27043 36.3464 3.09 35.9198C2.91025 35.4948 2.77156 35.0608 2.67396 34.6177L2.67391 34.6175C2.55797 34.0911 2.5 33.5519 2.5 33L2.5 11C2.5 10.4481 2.55797 9.90893 2.67391 9.38255C2.77152 8.93938 2.91021 8.50527 3.09 8.0802C3.27043 7.65363 3.48609 7.25032 3.73699 6.87027L3.73699 6.87026C4.01395 6.45073 4.33386 6.05954 4.6967 5.6967C5.05954 5.33385 5.45074 5.01395 5.87028 4.73698L5.87028 4.73698C6.25033 4.48608 6.65363 4.27043 7.0802 4.09C7.50524 3.91023 7.93933 3.77153 8.38247 3.67393L8.38254 3.67391C8.90892 3.55797 9.44808 3.5 10 3.5L32 3.5C32.5519 3.5 33.0911 3.55797 33.6175 3.67391ZM32 6.5L10 6.5C9.65079 6.5 9.31051 6.53844 8.97913 6.61531L8.97909 6.61532C8.73067 6.67295 8.48726 6.75218 8.24886 6.85302C8.00189 6.95747 7.76782 7.08173 7.54665 7.22579C7.28584 7.39567 7.04296 7.59308 6.81802 7.81802C6.59308 8.04296 6.39567 8.28583 6.2258 8.54664C6.08174 8.76781 5.95748 9.00189 5.85302 9.24886C5.75218 9.48727 5.67294 9.73069 5.61531 9.97912C5.53844 10.3105 5.5 10.6508 5.5 11L5.5 33C5.5 33.3492 5.53844 33.6895 5.61533 34.0209C5.67296 34.2694 5.75219 34.5128 5.85302 34.7511C5.95747 34.9981 6.08173 35.2322 6.22578 35.4533C6.39566 35.7141 6.59307 35.957 6.81802 36.182C7.04292 36.4069 7.28575 36.6043 7.5465 36.7741C7.76772 36.9182 8.00184 37.0425 8.24886 37.147C8.48732 37.2478 8.73079 37.3271 8.97928 37.3847C9.31061 37.4616 9.65085 37.5 10 37.5L32 37.5C32.3492 37.5 32.6895 37.4616 33.0209 37.3847C33.2693 37.3271 33.5127 37.2478 33.7511 37.147C33.9981 37.0425 34.2323 36.9182 34.4535 36.7741C34.7142 36.6043 34.9571 36.4069 35.182 36.182C35.4069 35.9571 35.6043 35.7142 35.7742 35.4534C35.9182 35.2322 36.0425 34.9981 36.147 34.7511C36.2478 34.5128 36.327 34.2694 36.3847 34.021C36.4616 33.6896 36.5 33.3492 36.5 33L36.5 11C36.5 10.6509 36.4616 10.3106 36.3847 9.97934C36.3271 9.73083 36.2478 9.48734 36.147 9.24886C36.0425 9.0018 35.9182 8.76766 35.7741 8.54641C35.6042 8.28569 35.4069 8.04289 35.182 7.81802C34.9571 7.5931 34.7142 7.39571 34.4534 7.22585C34.2322 7.08177 33.9981 6.95749 33.7511 6.85302C33.5127 6.75218 33.2693 6.67295 33.0209 6.61532C32.6895 6.53844 32.3492 6.5 32 6.5ZM31.5495 13.4967C32.0366 12.9482 32.0601 12.1125 31.5727 11.5353C31.0366 10.9003 30.0852 10.8186 29.4478 11.3527L22.2246 16.5627L18.5489 13.269C17.9984 12.8898 17.2494 12.9145 16.7228 13.3546L10.3069 17.5761C9.81905 18.124 9.95029 19.1193 10.437 19.6971C10.987 20.1831 11.8259 20.2075 12.4059 19.7227L17.6359 16.5126L21.3137 19.8085C21.8647 20.1879 22.6145 20.1627 23.1411 19.7215L31.5495 13.4967ZM32 31.4978L32 20.4807C32 19.6394 31.3364 18.9783 30.4919 18.9783C29.6474 18.9783 28.9838 19.6394 28.9838 20.4807L28.9838 31.4978C28.9838 32.3391 29.6474 33.0002 30.4919 33.0002C31.3364 33.0002 32 32.3391 32 31.4978ZM13.378 31.4977L13.378 24.4867C13.378 23.6454 12.7145 22.9844 11.8699 22.9844C11.0254 22.9844 10.3618 23.6454 10.3618 24.4867L10.3618 31.4977C10.3618 32.339 11.0254 33 11.8699 33C12.7145 33 13.378 32.339 13.378 31.4977ZM23.4321 31.4977L23.4321 26.4899C23.4321 25.6485 22.7685 24.9875 21.924 24.9875C21.0794 24.9875 20.4159 25.6485 20.4159 26.4899L20.4159 31.4977C20.4159 32.339 21.0794 33 21.924 33C22.7685 33 23.4321 32.339 23.4321 31.4977Z" fill="var(--tiny-first-color, #191919)" fill-rule="evenodd"/>
</svg>