<svg viewBox="0 0 48 48" xmlns="http://www.w3.org/2000/svg" xmlns:xlink="http://www.w3.org/1999/xlink" width="48.000000" height="48.000000" fill="none">
  <path id="形状结合" d="M37.9949 4C41.3086 4 43.9949 6.68513 43.9949 9.99741C43.9949 10.8255 43.3233 11.4968 42.4949 11.4968C41.6665 11.4968 40.9949 10.8255 40.9949 9.99741C40.9949 8.45957 39.8368 7.1921 38.3447 7.01888L37.9949 6.99871L10.0049 6.99871C8.46638 6.99871 7.19836 8.15633 7.02507 9.6477L7.00488 9.99741L7.00488 31.2239C7.00488 32.244 7.52268 33.1847 8.3613 33.7329L8.69043 33.9194L22.6962 40.6987C23.407 41.0443 24.2198 41.0938 24.9604 40.8464L25.3239 40.698L39.3081 33.9211C40.2254 33.4747 40.8447 32.5983 40.971 31.6033L40.9949 31.2251L40.9949 14.9961C40.9949 14.168 41.6665 13.4967 42.4949 13.4967C43.2313 13.4967 43.8437 14.0271 43.9707 14.7265L43.9949 14.9961L43.9949 31.2251C43.9949 33.3557 42.8656 35.3129 41.05 36.3867L40.6191 36.6184L26.6348 43.395C25.1436 44.1208 23.4263 44.1932 21.8909 43.6138L21.3864 43.3965L7.38062 36.6172C5.46306 35.685 4.19598 33.8126 4.02475 31.7122L4.00488 31.2239L4.00488 9.99741C4.00488 6.83569 6.45252 4.2454 9.5571 4.01645L10.0049 4L37.9949 4Z" fill="var(--tiny-first-color, #191919)" fill-rule="evenodd"/>
  <path id="矢量 257" d="M36 12L22 12C21.16 12 20.5 12.6599 20.5 13.5C20.5 14.3398 21.16 15 22 15L36 15C36.84 15 37.5 14.3398 37.5 13.5C37.5 12.6599 36.84 12 36 12ZM36 17.3999L22 17.3999C21.16 17.3999 20.5 18.0598 20.5 18.8999C20.5 19.74 21.16 20.3999 22 20.3999L36 20.3999C36.84 20.3999 37.5 19.74 37.5 18.8999C37.5 18.0598 36.84 17.3999 36 17.3999ZM22 24.5999L36 24.5999C36.84 24.5999 37.5 25.2598 37.5 26.0999C37.5 26.9399 36.84 27.5999 36 27.5999L22 27.5999C21.16 27.5999 20.5 26.9399 20.5 26.0999C20.5 25.2598 21.16 24.5999 22 24.5999ZM36 30L22 30C21.16 30 20.5 30.6599 20.5 31.5C20.5 32.3398 21.16 33 22 33L36 33C36.84 33 37.5 32.3398 37.5 31.5C37.5 30.6599 36.84 30 36 30Z" fill="var(--tiny-second-color, #aeaeAE)" fill-rule="evenodd"/>
  <path id="矩形 180(边框)" d="M16.5783 11.8107C16.3899 11.7702 16.1971 11.75 16 11.75L12 11.75C11.8029 11.75 11.6101 11.7702 11.4217 11.8107C11.2541 11.8467 11.0899 11.8986 10.9292 11.9666C10.7702 12.0339 10.62 12.1145 10.4786 12.2084C10.3275 12.3088 10.1864 12.4245 10.0555 12.5555C9.92452 12.6864 9.80883 12.8275 9.70838 12.9786C9.61447 13.12 9.53389 13.2702 9.46662 13.4292C9.39864 13.5899 9.34666 13.7541 9.31068 13.9217C9.27023 14.1101 9.25 14.3029 9.25 14.5L9.25 18.5C9.25 18.6971 9.27023 18.8899 9.31068 19.0783C9.34666 19.2459 9.39864 19.4101 9.46662 19.5708C9.53389 19.7298 9.61447 19.88 9.70837 20.0214C9.80883 20.1725 9.92452 20.3136 10.0555 20.4445C10.1864 20.5755 10.3274 20.6912 10.4786 20.7916C10.62 20.8855 10.7702 20.9661 10.9292 21.0334C11.0899 21.1014 11.2541 21.1533 11.4217 21.1893C11.6101 21.2298 11.8029 21.25 12 21.25L16 21.25C16.1971 21.25 16.3899 21.2298 16.5784 21.1893C16.7459 21.1533 16.9101 21.1014 17.0708 21.0334C17.4 20.8942 17.6912 20.6979 17.9445 20.4445C18.0755 20.3136 18.1912 20.1725 18.2916 20.0213C18.3855 19.88 18.4661 19.7298 18.5334 19.5708C18.6778 19.2294 18.75 18.8724 18.75 18.5L18.75 14.5C18.75 14.3029 18.7298 14.1101 18.6893 13.9217C18.6533 13.7541 18.6014 13.5899 18.5334 13.4292C18.3942 13.1 18.1979 12.8088 17.9445 12.5555C17.8136 12.4245 17.6726 12.3088 17.5214 12.2084C17.38 12.1145 17.2298 12.0339 17.0708 11.9666C16.9101 11.8986 16.7459 11.8467 16.5783 11.8107ZM12 14.25L16 14.25C16.0345 14.25 16.0665 14.2561 16.096 14.2683C16.1254 14.2805 16.1524 14.2988 16.1768 14.3232C16.2256 14.372 16.25 14.431 16.25 14.5L16.25 18.5C16.25 18.5345 16.2439 18.5665 16.2317 18.596C16.2195 18.6254 16.2012 18.6524 16.1768 18.6768C16.128 18.7256 16.069 18.75 16 18.75L12 18.75C11.931 18.75 11.872 18.7256 11.8232 18.6768C11.7744 18.628 11.75 18.569 11.75 18.5L11.75 14.5C11.75 14.4655 11.7561 14.4335 11.7683 14.404C11.7805 14.3746 11.7988 14.3476 11.8232 14.3232C11.8476 14.2988 11.8746 14.2805 11.904 14.2683C11.9335 14.2561 11.9655 14.25 12 14.25Z" fill="var(--tiny-second-color, #aeaeAE)" fill-rule="evenodd"/>
  <path id="矩形 181(边框)" d="M16.5783 23.8107C16.3899 23.7702 16.1971 23.75 16 23.75L12 23.75C11.8029 23.75 11.6101 23.7702 11.4217 23.8107C11.2541 23.8467 11.0899 23.8986 10.9292 23.9666C10.7702 24.0339 10.62 24.1145 10.4786 24.2084C10.3275 24.3088 10.1864 24.4245 10.0555 24.5555C9.92452 24.6864 9.80883 24.8275 9.70838 24.9786C9.61447 25.12 9.53389 25.2702 9.46662 25.4292C9.39864 25.5899 9.34666 25.7541 9.31068 25.9217C9.27023 26.1101 9.25 26.3029 9.25 26.5L9.25 30.5C9.25 30.6971 9.27023 30.8899 9.31068 31.0783C9.34666 31.2459 9.39864 31.4101 9.46662 31.5708C9.53389 31.7298 9.61447 31.88 9.70837 32.0214C9.80883 32.1725 9.92452 32.3136 10.0555 32.4445C10.1864 32.5755 10.3274 32.6912 10.4786 32.7916C10.62 32.8855 10.7702 32.9661 10.9292 33.0334C11.0899 33.1014 11.2541 33.1533 11.4217 33.1893C11.6101 33.2298 11.8029 33.25 12 33.25L16 33.25C16.1971 33.25 16.3899 33.2298 16.5784 33.1893C16.7459 33.1533 16.9101 33.1014 17.0708 33.0334C17.4 32.8942 17.6912 32.6979 17.9445 32.4445C18.0755 32.3136 18.1912 32.1725 18.2916 32.0213C18.3855 31.88 18.4661 31.7298 18.5334 31.5708C18.6778 31.2294 18.75 30.8724 18.75 30.5L18.75 26.5C18.75 26.3029 18.7298 26.1101 18.6893 25.9217C18.6533 25.7541 18.6014 25.5899 18.5334 25.4292C18.3942 25.1 18.1979 24.8088 17.9445 24.5555C17.8136 24.4245 17.6726 24.3088 17.5214 24.2084C17.38 24.1145 17.2298 24.0339 17.0708 23.9666C16.9101 23.8986 16.7459 23.8467 16.5783 23.8107ZM12 26.25L16 26.25C16.0345 26.25 16.0665 26.2561 16.096 26.2683C16.1254 26.2805 16.1524 26.2988 16.1768 26.3232C16.2256 26.372 16.25 26.431 16.25 26.5L16.25 30.5C16.25 30.5345 16.2439 30.5665 16.2317 30.596C16.2195 30.6254 16.2012 30.6524 16.1768 30.6768C16.128 30.7256 16.069 30.75 16 30.75L12 30.75C11.931 30.75 11.872 30.7256 11.8232 30.6768C11.7744 30.628 11.75 30.569 11.75 30.5L11.75 26.5C11.75 26.4655 11.7561 26.4335 11.7683 26.404C11.7805 26.3746 11.7988 26.3476 11.8232 26.3232C11.8476 26.2988 11.8746 26.2805 11.904 26.2683C11.9335 26.2561 11.9655 26.25 12 26.25Z" fill="var(--tiny-second-color, #aeaeAE)" fill-rule="evenodd"/>
</svg>
