<svg viewBox="0 0 48 48" xmlns="http://www.w3.org/2000/svg" xmlns:xlink="http://www.w3.org/1999/xlink" width="48.000000" height="48.000000" fill="none">
  <path id="矢量 163" d="M44 30.8289C44 32.8381 42.8982 34.6812 41.1399 35.6128L26.4731 43.3845C24.9241 44.2053 23.0759 44.2053 21.5269 43.3845L6.86011 35.6128C5.10181 34.6812 4 32.8381 4 30.8289L4 9.39941C4 6.41748 6.3877 4 9.33325 4L38.6667 4C41.6123 4 44 6.41748 44 9.39941L44 30.8289ZM36.24 10.5002L22.24 10.5002C21.4 10.5002 20.74 11.1602 20.74 12.0002C20.74 12.8401 21.4 13.5002 22.24 13.5002L36.24 13.5002C37.08 13.5002 37.74 12.8401 37.74 12.0002C37.74 11.1602 37.08 10.5002 36.24 10.5002ZM16.2415 11.0002L12.2385 11.0002C11.1348 11.0002 10.24 11.8955 10.24 13.0002L10.24 17.0002C10.24 18.1047 11.1348 19.0002 12.2385 19.0002L16.2415 19.0002C17.3452 19.0002 18.24 18.1047 18.24 17.0002L18.24 13.0002C18.24 11.8955 17.3452 11.0002 16.2415 11.0002ZM36.24 15.9001L22.24 15.9001C21.4 15.9001 20.74 16.5601 20.74 17.4001C20.74 18.2402 21.4 18.9001 22.24 18.9001L36.24 18.9001C37.08 18.9001 37.74 18.2402 37.74 17.4001C37.74 16.5601 37.08 15.9001 36.24 15.9001ZM12.2385 23.0002L16.2415 23.0002C17.3452 23.0002 18.24 23.8955 18.24 25.0002L18.24 29.0002C18.24 30.1047 17.3452 31.0002 16.2415 31.0002L12.2385 31.0002C11.1348 31.0002 10.24 30.1047 10.24 29.0002L10.24 25.0002C10.24 23.8955 11.1348 23.0002 12.2385 23.0002ZM22.24 23.1001L36.24 23.1001C37.08 23.1001 37.74 23.76 37.74 24.6001C37.74 25.4402 37.08 26.1001 36.24 26.1001L22.24 26.1001C21.4 26.1001 20.74 25.4402 20.74 24.6001C20.74 23.76 21.4 23.1001 22.24 23.1001ZM36.24 28.5002L22.24 28.5002C21.4 28.5002 20.74 29.1602 20.74 30.0002C20.74 30.8401 21.4 31.5002 22.24 31.5002L36.24 31.5002C37.08 31.5002 37.74 30.8401 37.74 30.0002C37.74 29.1602 37.08 28.5002 36.24 28.5002Z" fill="var(--tiny-first-color)" fill-rule="evenodd"/>
  <path id="矢量 164" d="M36.2402 10.5L22.2402 10.5C21.4003 10.5 20.7402 11.1599 20.7402 12C20.7402 12.8398 21.4003 13.5 22.2402 13.5L36.2402 13.5C37.0802 13.5 37.7402 12.8398 37.7402 12C37.7402 11.1599 37.0802 10.5 36.2402 10.5ZM16.2417 11L12.2388 11C11.135 11 10.2402 11.8953 10.2402 13L10.2402 17C10.2402 18.1045 11.135 19 12.2388 19L16.2417 19C17.3455 19 18.2402 18.1045 18.2402 17L18.2402 13C18.2402 11.8953 17.3455 11 16.2417 11ZM36.2402 15.8999L22.2402 15.8999C21.4003 15.8999 20.7402 16.5598 20.7402 17.3999C20.7402 18.24 21.4003 18.8999 22.2402 18.8999L36.2402 18.8999C37.0802 18.8999 37.7402 18.24 37.7402 17.3999C37.7402 16.5598 37.0802 15.8999 36.2402 15.8999ZM12.2388 23L16.2417 23C17.3455 23 18.2402 23.8953 18.2402 25L18.2402 29C18.2402 30.1045 17.3455 31 16.2417 31L12.2388 31C11.135 31 10.2402 30.1045 10.2402 29L10.2402 25C10.2402 23.8953 11.135 23 12.2388 23ZM22.2402 23.0999L36.2402 23.0999C37.0802 23.0999 37.7402 23.7598 37.7402 24.5999C37.7402 25.4399 37.0802 26.0999 36.2402 26.0999L22.2402 26.0999C21.4003 26.0999 20.7402 25.4399 20.7402 24.5999C20.7402 23.7598 21.4003 23.0999 22.2402 23.0999ZM36.2402 28.5L22.2402 28.5C21.4003 28.5 20.7402 29.1599 20.7402 30C20.7402 30.8398 21.4003 31.5 22.2402 31.5L36.2402 31.5C37.0802 31.5 37.7402 30.8398 37.7402 30C37.7402 29.1599 37.0802 28.5 36.2402 28.5Z" fill="var(--tiny-second-color)" fill-rule="evenodd"/>
</svg>