<svg viewBox="0 0 48 48" xmlns="http://www.w3.org/2000/svg" xmlns:xlink="http://www.w3.org/1999/xlink" width="48.000000" height="48.000000" fill="none">
  <path id="合并" d="M20.0006 4C25.3697 4 29.7226 8.35221 29.7226 13.722L29.722 18.498L30 18.4994C33.1941 18.4994 35.8072 20.9984 35.9898 24.147L36 24.4994L36 37.9994C36 41.3132 33.313 43.9994 30 43.9994L10 43.9994C6.68699 43.9994 4 41.3132 4 37.9994L4 24.4994C4 21.187 6.68757 18.4994 10 18.4994L10.276 18.498L10.2766 13.722C10.2766 8.49698 14.3978 4.23598 19.5674 4.00947L20.0006 4ZM43 6.49994L43 42.9999C43 43.8399 42.34 44.4999 41.5 44.4999C40.66 44.4999 40 43.8399 40 42.9999L40 6.49994C40 5.65994 40.66 4.99994 41.5 4.99994C42.34 4.99994 43 5.65994 43 6.49994ZM20.0006 7C16.2865 7 13.2766 10.0089 13.2766 13.722L13.276 18.4982L26.722 18.4982L26.7226 13.722C26.7226 10.1329 23.9102 7.20139 20.3694 7.00995L20.0006 7ZM11.7462 21.4997L10 21.4994C8.34443 21.4994 7 22.8438 7 24.4994L7 37.9994C7 39.6562 8.34363 40.9994 10 40.9994L30 40.9994C31.6564 40.9994 33 39.6562 33 37.9994L33 24.4994C33 22.8438 31.6556 21.4994 30 21.4994L28.252 21.498L11.7462 21.4997ZM20 26.0092C20.7594 26.0092 21.387 26.5735 21.4863 27.3057L21.5 27.5092L21.5035 31.5023C22.1086 31.9587 22.5 32.6836 22.5 33.4994C22.5 34.8794 21.38 35.9994 20 35.9994C18.62 35.9994 17.5 34.8794 17.5 33.4994C17.5 32.6827 17.8923 31.9571 18.4985 31.5008L18.5 27.5092C18.5 26.6808 19.1716 26.0092 20 26.0092Z" fill="var(--tiny-first-color, #191919)" fill-rule="evenodd"/>
  <path id="合并" d="M43 6.5L43 43C43 43.84 42.34 44.5 41.5 44.5C40.66 44.5 40 43.84 40 43L40 6.5C40 5.66 40.66 5 41.5 5C42.34 5 43 5.66 43 6.5Z" fill="var(--tiny-second-color, #aeaeAE)" fill-rule="evenodd"/>
</svg>
