<svg viewBox="0 0 48 48" xmlns="http://www.w3.org/2000/svg" xmlns:xlink="http://www.w3.org/1999/xlink" width="48.000000" height="48.000000" fill="none">
  <path id="合并" d="M19.9994 4C25.3614 4 29.7234 8.362 29.7234 13.722L29.722 18.5L30 18.5C33.308 18.5 36 21.192 36 24.5L36 38C36 41.308 33.308 44 30 44L10 44C6.692 44 4 41.308 4 38L4 24.5C4 21.192 6.692 18.5 10 18.5L10.276 18.5L10.2774 13.722C10.2774 8.362 14.6394 4 19.9994 4ZM43 5.51899L43 42.481C43 43.3316 42.34 44 41.5 44C40.66 44 40 43.3316 40 42.481L40 5.51899C40 4.66835 40.66 4 41.5 4C42.34 4 43 4.66835 43 5.51899ZM19.9994 7C16.2934 7 13.2774 10.016 13.2774 13.722L13.2774 18.5L26.7234 18.5L26.7234 13.722C26.7234 10.016 23.7074 7 19.9994 7ZM20 26.01C19.172 26.01 18.5 26.682 18.5 27.51L18.5 31.55C17.906 32.008 17.5 32.694 17.5 33.5C17.5 34.88 18.62 36 20 36C21.38 36 22.5 34.88 22.5 33.5C22.5 32.694 22.094 32.008 21.5 31.55L21.5 27.51C21.5 26.682 20.828 26.01 20 26.01Z" fill="var(--tiny-first-color)" fill-rule="evenodd"/>
  <path id="合并" d="M43 5.51899L43 42.481C43 43.3316 42.34 44 41.5 44C40.66 44 40 43.3316 40 42.481L40 5.51899C40 4.66835 40.66 4 41.5 4C42.34 4 43 4.66835 43 5.51899Z" fill="var(--tiny-second-color)" fill-rule="evenodd"/>
</svg>