<svg viewBox="0 0 48 48" xmlns="http://www.w3.org/2000/svg" xmlns:xlink="http://www.w3.org/1999/xlink" width="48.000000" height="48.000000" fill="none">
  <path id="path-1" d="M38.0198 28.8C39.1134 28.8 40 29.6955 40 30.8C40 31.9046 39.1134 32.8 38.0198 32.8L1.9802 32.8C0.886568 32.8 0 31.9046 0 30.8C0 29.6955 0.886568 28.8 1.9802 28.8L38.0198 28.8ZM37.8218 14.3999C38.9154 14.3999 39.802 15.2953 39.802 16.3999C39.802 17.5045 38.9154 18.3999 37.8218 18.3999L1.9802 18.3999C0.886565 18.3999 0 17.5045 0 16.3999C0 15.2953 0.886565 14.3999 1.9802 14.3999L37.8218 14.3999ZM37.8665 0C38.9602 0 39.8467 0.895431 39.8467 2C39.8467 3.10457 38.9602 4 37.8665 4L1.9802 4C0.886568 4 0 3.10457 0 2C0 0.895431 0.886568 0 1.9802 0L37.8665 0Z" fill="var(--tiny-first-color)" fill-rule="nonzero" transform="matrix(0,-1,1,0,7.59998,44)"/>
  <path id="path-2" d="M37.8218 0C38.9154 0 39.802 0.895432 39.802 2C39.802 3.10457 38.9154 4 37.8218 4L1.9802 4C0.886565 4 0 3.10457 0 2C0 0.895432 0.886565 0 1.9802 0L37.8218 0Z" fill="var(--tiny-second-color)" fill-rule="nonzero" transform="matrix(0,-1,1,0,21.9999,44)"/>
</svg>