<svg viewBox="0 0 48 48" xmlns="http://www.w3.org/2000/svg" xmlns:xlink="http://www.w3.org/1999/xlink" width="48.000000" height="48.000000">
  <path id="path-1" d="M42.0198 36.4001C43.1134 36.4001 44 37.2956 44 38.4001C44 39.5047 43.1134 40.4001 42.0198 40.4001L5.9802 40.4001C4.88657 40.4001 4 39.5047 4 38.4001C4 37.2956 4.88657 36.4001 5.9802 36.4001L42.0198 36.4001ZM41.8218 22C42.9154 22 43.802 22.8954 43.802 24C43.802 25.1046 42.9154 26 41.8218 26L5.9802 26C4.88657 26 4 25.1046 4 24C4 22.8954 4.88657 22 5.9802 22L41.8218 22ZM41.8665 7.6001C42.9602 7.6001 43.8467 8.49553 43.8467 9.6001C43.8467 10.7047 42.9602 11.6001 41.8665 11.6001L5.9802 11.6001C4.88657 11.6001 4 10.7047 4 9.6001C4 8.49553 4.88657 7.6001 5.9802 7.6001L41.8665 7.6001Z" fill="var(--tiny-first-color)" fill-rule="nonzero"/>
  <path id="path-2" d="M41.8218 22C42.9154 22 43.802 22.8954 43.802 24C43.802 25.1046 42.9154 26 41.8218 26L5.9802 26C4.88657 26 4 25.1046 4 24C4 22.8954 4.88657 22 5.9802 22L41.8218 22Z" fill="var(--tiny-second-color)" fill-rule="nonzero"/>
</svg>