<svg viewBox="0 0 48 48" xmlns="http://www.w3.org/2000/svg" xmlns:xlink="http://www.w3.org/1999/xlink" width="48.000000" height="48.000000">
  <path id="矢量 65" d="M30.1044 4.5L11.8571 4.5C8.34259 4.5 5.5 7.37299 5.5 10.9091L5.5 37.0909C5.5 40.627 8.34259 43.5 11.8571 43.5L36.1429 43.5C39.6574 43.5 42.5 40.627 42.5 37.0909L42.5 16.0099C42.5 14.6329 41.9095 13.3221 40.8788 12.4153L33.2213 5.67807C32.3583 4.91885 31.251 4.5 30.1044 4.5ZM30.1044 7.5L11.8571 7.5C10.0067 7.5 8.5 9.02277 8.5 10.9091L8.5 37.0909C8.5 38.9772 10.0067 40.5 11.8571 40.5L36.1429 40.5C37.9933 40.5 39.5 38.9772 39.5 37.0909L39.5 16.0099C39.5 15.4937 39.2794 15.0039 38.8972 14.6677L31.2396 7.93042C30.9236 7.65244 30.5206 7.5 30.1044 7.5ZM30.7143 22.5L16.2857 22.5C14.6915 22.5 13.5 23.89 13.5 25.5L13.5 34.5C13.5 36.11 14.6915 37.5 16.2857 37.5L30.7143 37.5C32.3085 37.5 33.5 36.11 33.5 34.5L33.5 25.5C33.5 23.89 32.3085 22.5 30.7143 22.5ZM16.5 34.5L16.5 25.5L30.5 25.5L30.5 34.5L16.5 34.5Z" fill="var(--tiny-first-color)" fill-rule="evenodd"/>
  <path id="合并" d="M15.5 8.02L15.5 7.5L18.5 7.5L18.5 14.5L27.5 14.5L27.5 7.5L30.5 7.5L30.5 14.5C30.5 14.9062 30.4212 15.2956 30.2636 15.6682C30.1117 16.0273 29.8976 16.345 29.6213 16.6213C29.4789 16.7637 29.3255 16.8896 29.1611 16.999C29.0065 17.1018 28.8422 17.19 28.6682 17.2636C28.4919 17.3382 28.3118 17.3951 28.128 17.4344C27.9233 17.4781 27.714 17.5 27.5 17.5L18.5 17.5C18.286 17.5 18.0766 17.4781 17.872 17.4344C17.6882 17.3951 17.5081 17.3382 17.3318 17.2636C17.1578 17.19 16.9935 17.1018 16.8389 16.999C16.6745 16.8896 16.5211 16.7637 16.3787 16.6213C16.2363 16.4789 16.1104 16.3255 16.001 16.1611C15.8982 16.0065 15.81 15.8422 15.7364 15.6682C15.6618 15.4919 15.6049 15.3119 15.5656 15.128C15.5219 14.9234 15.5 14.714 15.5 14.5L15.5 8.02ZM16.2857 22.5L30.7143 22.5C32.3085 22.5 33.5 23.89 33.5 25.5L33.5 34.5C33.5 36.11 32.3085 37.5 30.7143 37.5L16.2857 37.5C14.6915 37.5 13.5 36.11 13.5 34.5L13.5 25.5C13.5 23.89 14.6915 22.5 16.2857 22.5ZM16.5 25.5L16.5 34.5L30.5 34.5L30.5 25.5L16.5 25.5Z" fill="var(--tiny-second-color)" fill-rule="evenodd"/>
</svg>