<svg viewBox="0 0 48 48" xmlns="http://www.w3.org/2000/svg" xmlns:xlink="http://www.w3.org/1999/xlink" width="48.000000" height="48.000000">
  <path id="减去顶层" d="M15.5 5L12.3571 5C8.84259 5 6 7.87299 6 11.4091L6 37.5909C6 41.127 8.84259 44 12.3571 44L35.6429 44C39.1574 44 42 41.127 42 37.5909L42 16.51C42 15.133 41.4095 13.8221 40.3788 12.9153L32.7213 6.1781C32.6492 6.11468 32.5754 6.05364 32.5 5.99501L32.5 16.1314C32.5 17.8991 31.1086 19.394 29.3034 19.394L18.6966 19.394C16.8914 19.394 15.5 17.8991 15.5 16.1314L15.5 5ZM16.3877 24.9091L31.6123 24.9091C32.9787 24.9091 34 26.215 34 27.7274L34 36.1818C34 37.6942 32.9787 39.0001 31.6123 39.0001L16.3877 39.0001C15.0213 39.0001 14 37.6942 14 36.1818L14 27.7274C14 26.215 15.0213 24.9091 16.3877 24.9091Z" fill="var(--tiny-first-color)" fill-rule="evenodd"/>
  <path id="合并" d="M28.2 5L19.8 5C18.776 5 18 6.01253 18 7.19193L18 14.2374C18 15.8491 19.0447 17.2121 20.4 17.2121L27.6 17.2121C28.9553 17.2121 30 15.8491 30 14.2374L30 7.19193C30 6.01253 29.2239 5 28.2 5Z" fill="var(--tiny-first-color)" fill-rule="evenodd"/>
  <path id="合并" d="M19.8 4.99951L28.2 4.99951C29.2239 4.99951 30 6.01204 30 7.19144L30 14.2369C30 15.8486 28.9553 17.2116 27.6 17.2116L20.4 17.2116C19.0447 17.2116 18 15.8486 18 14.2369L18 7.19144C18 6.01204 18.776 4.99951 19.8 4.99951ZM16.3877 24.9087L31.6123 24.9087C32.9787 24.9087 34 26.2146 34 27.727L34 36.1814C34 37.6938 32.9787 38.9997 31.6123 38.9997L16.3877 38.9997C15.0213 38.9997 14 37.6938 14 36.1814L14 27.727C14 26.2146 15.0213 24.9087 16.3877 24.9087Z" fill="var(--tiny-second-color)" fill-rule="evenodd"/>
</svg>