<svg viewBox="0 0 48 48" xmlns="http://www.w3.org/2000/svg" xmlns:xlink="http://www.w3.org/1999/xlink" width="48.000000" height="48.000000" fill="none">
  <path id="形状结合" d="M15.7446 18.828C16.3306 18.242 17.2806 18.242 17.8666 18.828L24.0006 24.96L30.1346 18.828C30.7206 18.242 31.6686 18.242 32.2546 18.828C32.8406 19.414 32.8406 20.364 32.2546 20.95L26.1226 27.082L30.7826 31.742C31.8006 31.106 32.9906 30.722 34.2786 30.722C37.9386 30.722 40.9166 33.702 40.9166 37.362C40.9166 41.022 37.9386 44 34.2786 44C30.6186 44 27.6406 41.022 27.6406 37.362C27.6406 36.074 28.0246 34.88 28.6606 33.864L24.0006 29.204L19.3406 33.864C19.9786 34.88 20.3626 36.074 20.3626 37.362C20.3626 41.022 17.3846 44 13.7246 44C10.0626 44 7.08259 41.022 7.08259 37.362C7.08259 33.702 10.0626 30.722 13.7246 30.722C15.0106 30.722 16.2026 31.106 17.2206 31.742L21.8806 27.082L15.7446 20.95C15.1586 20.364 15.1586 19.414 15.7446 18.828ZM34.2786 33.722C32.2726 33.722 30.6406 35.356 30.6406 37.362C30.6406 39.368 32.2726 41 34.2786 41C36.2846 41 37.9166 39.368 37.9166 37.362C37.9166 35.356 36.2846 33.722 34.2786 33.722ZM13.7246 33.722C11.7166 33.722 10.0826 35.356 10.0826 37.362C10.0826 39.368 11.7166 41 13.7246 41C15.7306 41 17.3626 39.368 17.3626 37.362C17.3626 35.356 15.7306 33.722 13.7246 33.722ZM35.821 4C39.199 4 41.945 6.746 41.945 10.124L41.945 22.46C41.945 25.838 39.199 28.584 35.821 28.584L30.453 28.584L28.951 27.082L33.669 22.364C34.331 21.704 34.695 20.824 34.695 19.888C34.695 18.954 34.331 18.074 33.669 17.414C33.009 16.752 32.131 16.388 31.195 16.388C30.259 16.388 29.381 16.752 28.721 17.414L24.001 22.132L19.281 17.414C18.621 16.752 17.741 16.388 16.805 16.388C15.871 16.388 14.991 16.752 14.331 17.414C13.669 18.074 13.305 18.954 13.305 19.888C13.305 20.824 13.669 21.704 14.331 22.364L19.051 27.082L17.551 28.584L12.179 28.584C8.80299 28.584 6.05499 25.838 6.05499 22.46L6.05499 10.124C6.05499 6.746 8.80299 4 12.179 4L35.821 4Z" fill="var(--tiny-first-color)" fill-rule="evenodd"/>
  <path id="形状结合" d="M15.7447 18.8272C16.3307 18.2412 17.2807 18.2412 17.8667 18.8272L24.0007 24.9592L30.1347 18.8272C30.7207 18.2412 31.6687 18.2412 32.2547 18.8272C32.8407 19.4132 32.8407 20.3632 32.2547 20.9492L26.1227 27.0812L30.7827 31.7412C31.8007 31.1052 32.9907 30.7212 34.2787 30.7212C37.9387 30.7212 40.9167 33.7012 40.9167 37.3612C40.9167 41.0212 37.9387 43.9992 34.2787 43.9992C30.6187 43.9992 27.6407 41.0212 27.6407 37.3612C27.6407 36.0732 28.0247 34.8792 28.6607 33.8632L24.0007 29.2032L19.3407 33.8632C19.9787 34.8792 20.3627 36.0732 20.3627 37.3612C20.3627 41.0212 17.3847 43.9992 13.7247 43.9992C10.0627 43.9992 7.08265 41.0212 7.08265 37.3612C7.08265 33.7012 10.0627 30.7212 13.7247 30.7212C15.0107 30.7212 16.2027 31.1052 17.2207 31.7412L21.8807 27.0812L15.7447 20.9492C15.1587 20.3632 15.1587 19.4132 15.7447 18.8272ZM34.2787 33.7212C32.2727 33.7212 30.6407 35.3552 30.6407 37.3612C30.6407 39.3672 32.2727 40.9992 34.2787 40.9992C36.2847 40.9992 37.9167 39.3672 37.9167 37.3612C37.9167 35.3552 36.2847 33.7212 34.2787 33.7212ZM13.7247 33.7212C11.7167 33.7212 10.0827 35.3552 10.0827 37.3612C10.0827 39.3672 11.7167 40.9992 13.7247 40.9992C15.7307 40.9992 17.3627 39.3672 17.3627 37.3612C17.3627 35.3552 15.7307 33.7212 13.7247 33.7212Z" fill="var(--tiny-second-color)" fill-rule="evenodd"/>
</svg>