<svg viewBox="0 0 48 48" xmlns="http://www.w3.org/2000/svg" xmlns:xlink="http://www.w3.org/1999/xlink" width="48.000000" height="48.000000" fill="none">
  <path id="形状结合" d="M21.3001 3.7002C30.4241 3.7002 37.8441 11.1222 37.8441 20.2462C37.8441 22.8562 37.2541 25.3542 36.0881 27.6702C35.5901 28.6602 34.3821 29.0502 33.4021 28.5602C32.4141 28.0622 32.0161 26.8602 32.5121 25.8742C33.3981 24.1182 33.8441 22.2262 33.8441 20.2462C33.8441 13.3282 28.2181 7.7002 21.3001 7.7002C14.3821 7.7002 8.7561 13.3282 8.7561 20.2462C8.7561 27.1642 14.3821 32.7902 21.3001 32.7902C24.1781 32.7902 26.9901 31.7922 29.2161 29.9782C29.2878 29.9199 29.3622 29.8673 29.4389 29.8205C29.4842 29.7962 29.6192 29.7222 29.6656 29.7015C29.7223 29.678 29.8294 29.6361 29.8875 29.6181C29.9332 29.6062 30.0666 29.5713 30.1117 29.5629C30.1444 29.5592 30.3127 29.5358 30.3454 29.5336C30.3902 29.5332 30.5426 29.5297 30.5884 29.5322C30.6206 29.5364 30.7767 29.5511 30.8093 29.5566C30.825 29.5611 31.0249 29.6046 31.0401 29.609C31.0821 29.6243 31.2396 29.6779 31.2803 29.6955C31.3262 29.7177 31.4407 29.7732 31.4843 29.7984C31.514 29.8178 31.6604 29.9128 31.6883 29.9339C31.6926 29.9395 31.8888 30.1095 31.8933 30.114L42.6573 40.886C43.4393 41.668 43.4393 42.934 42.6573 43.714C42.2673 44.104 41.7553 44.3 41.2433 44.3C40.7313 44.3 40.2193 44.104 39.8293 43.714L30.2709 34.1486C27.6103 35.8615 24.4848 36.7902 21.3001 36.7902C12.1761 36.7902 4.7561 29.3682 4.7561 20.2462C4.7561 11.1222 12.1761 3.7002 21.3001 3.7002Z" fill="var(--tiny-first-color, #191919)" fill-rule="evenodd"/>
</svg>
