<svg viewBox="0 0 48 48" xmlns="http://www.w3.org/2000/svg" xmlns:xlink="http://www.w3.org/1999/xlink" width="48.000000" height="48.000000" fill="none">
  <path id="形状结合" d="M26.3545 26.0906C29.8625 22.5826 35.5725 22.5826 39.0825 26.0906C40.7825 27.7906 41.7185 30.0506 41.7185 32.4526C41.7185 34.1726 41.2045 35.7966 40.3065 37.2146L43.1625 40.0686C43.9425 40.8506 43.9425 42.1146 43.1625 42.8966C42.7705 43.2866 42.2585 43.4826 41.7485 43.4826C41.2365 43.4826 40.7245 43.2866 40.3345 42.8966L37.4765 40.0406C36.0585 40.9366 34.4365 41.4526 32.7185 41.4526C30.3145 41.4526 28.0545 40.5166 26.3545 38.8166C24.6545 37.1166 23.7185 34.8566 23.7185 32.4526C23.7185 30.0506 24.6545 27.7906 26.3545 26.0906ZM24.2555 25.5098C22.6415 27.4718 21.7195 29.8818 21.7195 32.4538C21.7195 34.8238 22.4955 37.0598 23.8755 38.9338L11.0655 38.9338C7.36353 38.9338 4.35353 35.9238 4.35353 32.2218C4.35353 28.5218 7.36353 25.5098 11.0655 25.5098L24.2555 25.5098ZM32.7485 27.4826C31.4665 27.4826 30.1865 27.9706 29.2125 28.9506C28.2685 29.9006 27.7485 31.1646 27.7485 32.5066C27.7485 33.8506 28.2685 35.1086 29.2125 36.0586C31.1025 37.9586 34.3925 37.9546 36.2825 36.0586C37.2265 35.1086 37.7485 33.8506 37.7485 32.5066C37.7485 31.1646 37.2265 29.9006 36.2825 28.9506C35.3085 27.9706 34.0285 27.4826 32.7485 27.4826ZM36.4829 8C40.2169 8 43.2529 11.038 43.2529 14.77C43.2529 18.504 40.2169 21.542 36.4829 21.542L5.25293 21.542C4.70093 21.542 4.25293 21.094 4.25293 20.542C4.25293 19.988 4.70093 19.542 5.25293 19.542C7.88493 19.542 10.0249 17.4 10.0249 14.77C10.0249 12.138 7.88493 10 5.25293 10C4.70093 10 4.25293 9.552 4.25293 9C4.25293 8.448 4.70093 8 5.25293 8L36.4829 8Z" fill="var(--tiny-first-color)" fill-rule="evenodd"/>
  <path id="形状结合" d="M26.355 26.0906C29.863 22.5826 35.573 22.5826 39.083 26.0906C40.783 27.7906 41.719 30.0506 41.719 32.4526C41.719 34.1726 41.205 35.7966 40.307 37.2146L43.163 40.0686C43.943 40.8506 43.943 42.1146 43.163 42.8966C42.771 43.2866 42.259 43.4826 41.749 43.4826C41.237 43.4826 40.725 43.2866 40.335 42.8966L37.477 40.0406C36.059 40.9366 34.437 41.4526 32.719 41.4526C30.315 41.4526 28.055 40.5166 26.355 38.8166C24.655 37.1166 23.719 34.8566 23.719 32.4526C23.719 30.0506 24.655 27.7906 26.355 26.0906ZM32.749 27.4826C31.467 27.4826 30.187 27.9706 29.213 28.9506C28.269 29.9006 27.749 31.1646 27.749 32.5066C27.749 33.8506 28.269 35.1086 29.213 36.0586C31.103 37.9586 34.393 37.9546 36.283 36.0586C37.227 35.1086 37.749 33.8506 37.749 32.5066C37.749 31.1646 37.227 29.9006 36.283 28.9506C35.309 27.9706 34.029 27.4826 32.749 27.4826Z" fill="var(--tiny-second-color)" fill-rule="evenodd"/>
</svg>