<svg viewBox="0 0 48 48" xmlns="http://www.w3.org/2000/svg" xmlns:xlink="http://www.w3.org/1999/xlink" width="48.000000" height="48.000000" fill="none">
  <path id="合并" d="M41.7346 27.9329L41.0275 28.64C40.9916 28.6759 40.9545 28.7096 40.9163 28.7411L27.5165 42.1409C27.2325 42.425 26.9253 42.6729 26.5949 42.8847C26.3123 43.0659 26.0128 43.2207 25.6963 43.349C25.38 43.4772 25.0575 43.5749 24.7287 43.6419C24.3691 43.7152 24.002 43.7518 23.6274 43.7518C23.2529 43.7518 22.8858 43.7152 22.5261 43.6419C22.1974 43.5749 21.8748 43.4772 21.5585 43.349C21.2421 43.2207 20.9426 43.0659 20.6601 42.8848C20.3297 42.673 20.0224 42.425 19.7383 42.1409L2.76777 25.1704C2.48371 24.8863 2.23576 24.5791 2.02394 24.2487C1.84277 23.9661 1.68802 23.6666 1.5597 23.3502C1.43145 23.0339 1.33382 22.7114 1.26681 22.3826C1.19351 22.023 1.15686 21.6559 1.15686 21.2813C1.15686 20.9067 1.19351 20.5396 1.26681 20.1799C1.33381 19.8512 1.43144 19.5286 1.5597 19.2124C1.68802 18.8959 1.84276 18.5964 2.02392 18.3139C2.23575 17.9835 2.4837 17.6763 2.76777 17.3922L13.3744 6.78558C13.6584 6.50151 13.9657 6.25356 14.2961 6.04173C14.5786 5.86057 14.8781 5.70583 15.1946 5.5775C15.5108 5.44925 15.8333 5.35162 16.1621 5.28462C16.5218 5.21132 16.8889 5.17467 17.2635 5.17467C17.6381 5.17467 18.0053 5.21133 18.365 5.28466C18.6937 5.35166 19.0161 5.44927 19.3324 5.5775C19.6488 5.70583 19.9483 5.86057 20.2309 6.04174C20.5613 6.25356 20.8685 6.50151 21.1525 6.78558L39.8959 25.5289L41.7346 23.6902C41.9285 23.4964 42.0958 23.2861 42.2365 23.0593C42.3398 22.8928 42.4289 22.7174 42.5036 22.5332C42.5815 22.3411 42.6416 22.1453 42.6839 21.9458C42.7345 21.7077 42.7598 21.4642 42.7598 21.2153C42.7598 20.9665 42.7345 20.723 42.6839 20.4849C42.6416 20.2854 42.5815 20.0896 42.5036 19.8975C42.4289 19.7133 42.3398 19.5379 42.2365 19.3714C42.0958 19.1446 41.9285 18.9343 41.7346 18.7405L31.8831 8.88897C31.7424 8.74823 31.5896 8.6271 31.4247 8.52558C31.3081 8.45382 31.1855 8.39185 31.0569 8.33969C30.9213 8.28472 30.7831 8.24214 30.6423 8.21194C30.4706 8.17514 30.295 8.15674 30.1154 8.15674C29.9358 8.15674 29.7602 8.17514 29.5885 8.21194C29.4476 8.24213 29.3094 8.28472 29.1739 8.33969C29.0452 8.39185 28.9226 8.45382 28.806 8.52559C28.6412 8.62711 28.4883 8.74823 28.3476 8.88897C27.7536 9.48294 26.8203 9.48294 26.2263 8.88897C25.6323 8.295 25.6323 7.36162 26.2263 6.76765C26.5103 6.48361 26.8175 6.23569 27.1479 6.02388C27.4305 5.84268 27.73 5.68792 28.0465 5.55958C28.3627 5.43133 28.6852 5.33371 29.0139 5.26671C29.3736 5.19339 29.7408 5.15674 30.1154 5.15674C30.49 5.15674 30.8571 5.19339 31.2168 5.2667C31.5455 5.3337 31.868 5.43133 32.1843 5.55958C32.5007 5.68791 32.8002 5.84266 33.0828 6.02383C33.4132 6.23565 33.7204 6.48359 34.0045 6.76765L43.856 16.6192C44.1931 16.9563 44.4872 17.3211 44.7383 17.7134C44.951 18.0458 45.1328 18.3981 45.2837 18.7702C45.4349 19.1429 45.55 19.523 45.6292 19.9104C45.7162 20.3365 45.7598 20.7715 45.7598 21.2153C45.7598 21.6592 45.7162 22.0942 45.6292 22.5203C45.55 22.9077 45.4349 23.2878 45.2837 23.6605C45.1328 24.0326 44.951 24.3849 44.7383 24.7173C44.4872 25.1096 44.1931 25.4744 43.856 25.8115L41.7346 27.9329ZM37.7696 27.6452L19.0312 8.9069C18.8905 8.76614 18.7376 8.645 18.5727 8.54347C18.4562 8.47172 18.3336 8.40977 18.205 8.35761C18.0695 8.30266 17.9313 8.26009 17.7905 8.22989C17.6188 8.19308 17.4431 8.17466 17.2635 8.17466C17.0839 8.17466 16.9083 8.19306 16.7366 8.22986C16.5957 8.26006 16.4575 8.30264 16.3219 8.35761C16.1933 8.40978 16.0707 8.47175 15.9541 8.54353C15.7892 8.64504 15.6364 8.76616 15.4957 8.9069L4.88909 19.5135C4.74836 19.6542 4.62724 19.807 4.52572 19.9719C4.45395 20.0885 4.39198 20.2111 4.33981 20.3398C4.28483 20.4753 4.24225 20.6135 4.21206 20.7544C4.17526 20.9261 4.15686 21.1017 4.15686 21.2813C4.15686 21.4608 4.17526 21.6365 4.21206 21.8081C4.24226 21.949 4.28484 22.0872 4.33981 22.2228C4.39198 22.3514 4.45394 22.474 4.52571 22.5906C4.62723 22.7555 4.74836 22.9083 4.88909 23.049L21.8597 40.0196C22.0004 40.1603 22.1532 40.2814 22.318 40.3829C22.4346 40.4547 22.5572 40.5167 22.6859 40.5689C22.8215 40.6238 22.9597 40.6664 23.1005 40.6966C23.2722 40.7334 23.4479 40.7518 23.6274 40.7518C23.807 40.7518 23.9826 40.7334 24.1542 40.6966C24.2951 40.6664 24.4334 40.6239 24.5689 40.5689C24.6976 40.5167 24.8202 40.4547 24.9368 40.383C25.1016 40.2815 25.2545 40.1603 25.3952 40.0196L37.7696 27.6452Z" fill="var(--tiny-first-color, #191919)" fill-rule="evenodd"/>
  <path id="合并" d="M0 1.5C0 0.671573 0.671573 0 1.5 0C2.32843 0 3 0.671573 3 1.5L3 13.3016L0 13.3016L0 1.5ZM6 1.5C6 0.671573 6.67157 0 7.5 0C8.32843 0 9 0.671573 9 1.5L9 13.3016L6 13.3016L6 1.5ZM13.5 0C12.6716 0 12 0.671573 12 1.5L12 13.3016L15 13.3016L15 1.5C15 0.671573 14.3284 0 13.5 0Z" fill="var(--tiny-second-color, #aeaeAE)" fill-rule="evenodd" transform="matrix(0.707107,-0.707107,0.707107,0.707107,16,30.6064)"/>
</svg>
