<svg viewBox="0 0 48 48" xmlns="http://www.w3.org/2000/svg" xmlns:xlink="http://www.w3.org/1999/xlink" width="48.000000" height="48.000000">
  <path id="减去顶层" d="M44.8264 23.7997L43.5136 25.1071L25.806 7.47573L27.1188 6.16862C28.6836 4.61046 31.2205 4.61046 32.7853 6.16862L44.8264 18.1578C46.3912 19.7157 46.3912 22.2418 44.8264 23.7997ZM15.2147 6.38436L3.17356 18.3736C1.60881 19.9315 1.60881 22.4576 3.17356 24.0155L21.0666 41.8314C22.6313 43.3895 25.1683 43.3895 26.733 41.8314L41.6074 27.0212L20.8812 6.38436C19.3164 4.8262 16.7795 4.8262 15.2147 6.38436ZM25.2118 21.4818C24.6251 20.8974 24.6251 19.9502 25.2118 19.3661C25.7986 18.7817 26.75 18.7817 27.3368 19.3661L35.6959 27.6892L33.571 29.8049L25.2118 21.4818ZM20.962 23.5976C20.3752 24.1818 20.3752 25.129 20.962 25.7134L29.3212 34.0365L31.4461 31.9207L23.0869 23.5976C22.5001 23.0132 21.5488 23.0132 20.962 23.5976ZM16.7122 27.8292C16.1254 28.4133 16.1254 29.3605 16.7122 29.9447L25.0713 38.2681L27.1963 36.1523L18.8371 27.8292C18.2503 27.2448 17.299 27.2448 16.7122 27.8292Z" fill="var(--tiny-first-color)" fill-rule="evenodd"/>
  <path id="矢量 1903" d="M44.8264 23.7997L43.5136 25.1071L25.806 7.47573L27.1188 6.16862C28.6836 4.61046 31.2205 4.61046 32.7853 6.16862L44.8264 18.1578C46.3912 19.7157 46.3912 22.2418 44.8264 23.7997Z" fill="var(--tiny-second-color)" fill-rule="evenodd"/>
</svg>