<svg viewBox="0 0 48 48" xmlns="http://www.w3.org/2000/svg" xmlns:xlink="http://www.w3.org/1999/xlink" width="48.000000" height="48.000000" fill="none">
  <path id="形状结合" d="M42.5 35.7998C43.3284 35.7998 44 36.4714 44 37.2998C44 38.0592 43.4357 38.6868 42.7035 38.7861L42.5 38.7998L5.5 38.7998C4.67157 38.7998 4 38.1282 4 37.2998C4 36.5404 4.56431 35.9128 5.29646 35.8135L5.5 35.7998L42.5 35.7998ZM24.0672 6.7998C27.0988 6.7998 29.5554 9.12102 29.5554 11.9822C29.5554 15.2198 28.6587 17.542 27.2861 18.8854L27.0232 19.1258L33.0997 22.769C34.3022 23.4898 35.2073 24.5735 35.6718 25.8382L35.7978 26.2229L36.6966 29.3308C37.0951 30.7126 36.0719 32.0776 34.5995 32.2175L34.3501 32.2292L13.7858 32.2292C12.2681 32.2292 11.1426 30.9369 11.3874 29.5607L11.441 29.3308L12.3398 26.2229C12.7148 24.9238 13.5433 23.7875 14.6859 22.996L15.0379 22.769L21.2426 19.0498C19.606 17.6161 18.5823 15.0249 18.5823 11.9822C18.5823 9.12102 21.0388 6.7998 24.0672 6.7998ZM32.5147 8.00904C35.1585 8.00904 37.2991 10.2169 37.2991 12.9387C37.2991 16.0169 36.5162 18.2254 35.3208 19.503L35.0919 19.7316L40.3885 23.1959C41.4277 23.8752 42.2115 24.8929 42.6201 26.08L42.7422 26.4818L43.5238 29.4368C43.8707 30.7428 42.9916 32.0325 41.7219 32.1797L41.4795 32.1937L38.3508 32.1948C38.7482 31.3046 38.8751 30.3073 38.7075 29.3233L38.6176 28.9027L37.8133 25.782C37.3307 23.9019 36.2581 22.273 34.773 21.143L34.3932 20.871L31.0379 18.6143C31.8186 16.9612 32.3002 14.8121 32.3002 12.1172C32.3002 10.6896 31.8842 9.35139 31.1794 8.20455C31.6018 8.07717 32.0505 8.00904 32.5147 8.00904ZM15.3853 8.00904C15.9415 8.00904 16.4755 8.10686 16.9692 8.28732C16.353 9.41558 16 10.7238 16 12.1172C16 14.5875 16.4028 16.5992 17.0712 18.1907L17.26 18.6143L13.5068 20.871L13.127 21.143C11.7656 22.1788 10.7509 23.6339 10.2195 25.3174L10.0867 25.782L9.28245 28.9027L9.19252 29.3233C9.04888 30.1667 9.12157 31.0199 9.39554 31.8071L9.54923 32.1948L6.4205 32.1937L6.17806 32.1797C4.98775 32.0417 4.14068 30.8995 4.32529 29.6812L4.37618 29.4368L5.15779 26.4818L5.27993 26.08C5.64313 25.0248 6.30277 24.1034 7.17472 23.4346L7.5115 23.1959L12.8081 19.7316L12.5792 19.503C11.3838 18.2254 10.6009 16.0169 10.6009 12.9387C10.6009 10.2169 12.7415 8.00904 15.3853 8.00904Z" fill="var(--tiny-first-color, #191919)" fill-rule="evenodd"/>
  <path id="形状结合" d="M42.5 35.7998C43.3284 35.7998 44 36.4714 44 37.2998C44 38.0592 43.4357 38.6868 42.7035 38.7861L42.5 38.7998L5.5 38.7998C4.67157 38.7998 4 38.1282 4 37.2998C4 36.5404 4.56431 35.9128 5.29646 35.8135L5.5 35.7998L42.5 35.7998Z" fill="var(--tiny-second-color, #aeaeAE)" fill-rule="evenodd"/>
</svg>
