<svg viewBox="0 0 48 48" xmlns="http://www.w3.org/2000/svg" xmlns:xlink="http://www.w3.org/1999/xlink" width="48.000000" height="48.000000" fill="none">
  <path id="形状结合" d="M43.0001 35.5002C43.8285 35.5002 44.5001 36.1718 44.5001 37.0002C44.5001 37.7596 43.9358 38.3872 43.2037 38.4865L43.0001 38.5002L6.00011 38.5002C5.17168 38.5002 4.50011 37.8286 4.50011 37.0002C4.50011 36.2408 5.06442 35.6132 5.79657 35.5139L6.00011 35.5002L43.0001 35.5002ZM32.4923 7.23396L32.6958 7.24788C36.5718 7.77612 38.2003 10.5752 38.2003 14.3336L38.1796 14.9941C38.0953 16.3545 37.7537 17.5354 37.1194 18.6336L36.9856 18.8502L39.714 20.6458L40.0893 20.9095C41.0666 21.6418 41.8522 22.6032 42.3751 23.7118L43.4548 26.0006L43.5773 26.2872C44.3545 28.3084 43.4505 30.6174 41.4605 31.5561C40.9036 31.8187 40.2956 31.955 39.6799 31.955L8.21869 31.955C7.603 31.955 6.99493 31.8187 6.43808 31.5561C4.44804 30.6174 3.54404 28.3084 4.32127 26.2872L4.44381 26.0006L5.52342 23.7118C6.04636 22.6032 6.83198 21.6418 7.78779 20.924L10.7441 18.8682C10.1193 17.7637 9.78689 16.4885 9.715 14.9868L9.69927 14.4754C9.69927 10.8859 11.1796 8.02021 14.7473 7.32314C15.5604 7.16429 16.3483 7.69462 16.5071 8.50767C16.666 9.32073 16.1357 10.1086 15.3226 10.2675C13.5591 10.612 12.7904 11.8549 12.7061 13.934L12.6989 14.4315C12.7247 16.1943 13.0528 17.1994 13.9751 18.2241C14.5291 18.8397 14.4727 19.7729 13.8877 20.3207L9.83338 23.1521C9.24091 23.5419 8.75037 24.0652 8.40003 24.678L8.23671 24.9917L7.1571 27.2805C6.88055 27.8668 7.13164 28.5662 7.71794 28.8428C7.82234 28.892 7.93314 28.9255 8.04671 28.9423L39.6799 28.955C39.7934 28.9381 40.0762 28.892 40.1806 28.8428C40.7669 28.5662 41.018 27.8668 40.7415 27.2805L39.6618 24.9917L39.4985 24.678C39.1482 24.0652 38.6577 23.5419 38.0652 23.1521L34.0047 20.4807C33.3866 19.9398 33.1471 18.8542 33.7142 18.2241C34.7502 17.073 35.1768 15.9899 35.1996 14.4315L35.1935 13.9583C35.1113 11.7583 34.2778 10.4912 32.2907 10.2204C31.4699 10.1085 30.8951 9.35242 31.007 8.53158C31.1189 7.71074 31.875 7.13601 32.6958 7.24788L32.4923 7.23396ZM23.7119 6.49711L24.0444 6.5077L24.391 6.53753C27.7138 6.91198 30.2064 9.76551 29.7669 13.6622L29.7109 14.069C29.4443 15.7101 28.993 17.1208 28.3656 18.2346L32.4861 21.2097C33.471 21.9197 34.1868 22.9418 34.5175 24.11L34.7564 24.9542C34.982 25.7514 34.5187 26.5804 33.7216 26.806C32.9244 27.0316 32.0954 26.5683 31.8698 25.7712L31.6308 24.927C31.5089 24.4961 31.2685 24.1101 30.9391 23.8112L30.7309 23.6427L26.3004 20.4434C25.7546 20.7589 25.1509 20.9523 24.4912 21.0102C23.5259 21.0948 22.5674 20.9129 21.573 20.4402L16.8844 23.6566C16.4258 23.9715 16.0919 24.4369 15.9405 24.9721L15.6963 25.8354C15.4708 26.6326 14.6418 27.096 13.8446 26.8705C13.0475 26.645 12.5841 25.816 12.8096 25.0188L13.0538 24.1555C13.3578 23.0806 13.9877 22.1305 14.8515 21.433L15.1862 21.1835L19.2349 18.4057C18.5001 17.26 18.0234 15.7859 17.8114 14.006C17.274 9.49485 20.368 6.28807 24.0444 6.5077L23.7119 6.49711ZM23.6289 9.49788C21.9068 9.53605 20.4897 11.128 20.7903 13.6511C21.0158 15.5444 21.5737 16.8005 22.1999 17.3695C22.9232 17.8501 23.6283 18.0743 24.229 18.0216C25.2849 17.929 26.286 16.443 26.7497 13.5881C27.142 11.1719 25.7667 9.61594 23.9142 9.50448L23.6289 9.49788Z" fill="var(--tiny-first-color, #191919)" fill-rule="evenodd"/>
  <path id="形状结合" d="M43.0001 35.5C43.8285 35.5 44.5001 36.1716 44.5001 37C44.5001 37.7594 43.9358 38.387 43.2037 38.4863L43.0001 38.5L6.00011 38.5C5.17169 38.5 4.50011 37.8284 4.50011 37C4.50011 36.2406 5.06442 35.613 5.79657 35.5137L6.00011 35.5L43.0001 35.5Z" fill="var(--tiny-second-color, #aeaeAE)" fill-rule="evenodd"/>
</svg>
