<svg viewBox="0 0 48 48" xmlns="http://www.w3.org/2000/svg" xmlns:xlink="http://www.w3.org/1999/xlink" width="48.000000" height="48.000000" fill="none">
  <path id="形状结合" d="M27.4629 4C29.0428 4 30.4279 5.06049 30.8412 6.58733L31.6037 9.4208L32.2083 9.78261L32.8257 10.1208L35.6572 9.36843C37.0825 8.98922 38.5803 9.54648 39.4175 10.7365L39.5866 11.0011L40.6134 12.7831L43.0524 17.0008C43.44 17.6731 43.5901 18.4464 43.4901 19.2035C43.3902 19.9637 43.0467 20.6715 42.4997 21.2186L40.4517 23.2708L40.4758 23.7809L40.4799 24.1427L40.4517 24.7288L42.4942 26.778C42.9662 27.247 43.2869 27.836 43.4321 28.4733L43.49 28.7956C43.5902 29.5545 43.4397 30.3309 43.0517 31.0005L39.5863 37.0015C39.0024 38.0137 37.9566 38.6606 36.8077 38.7419C36.4226 38.7704 36.0349 38.734 35.6572 38.6336L32.8237 37.8788L32.2669 38.1843L31.6057 38.5788L30.8408 41.4159C30.4279 42.9415 29.0428 44 27.4629 44L20.5329 44C18.9516 44 17.568 42.942 17.1547 41.4147L16.3877 38.5788L15.9324 38.3025L15.1737 37.8788L12.3386 38.6336C12.0553 38.7089 11.7666 38.7482 11.4784 38.7512L11.1907 38.7422C10.0385 38.6604 8.9931 38.0131 8.4097 37.0017L6.41029 33.5367L4.93556 30.9854C4.84929 30.832 4.79747 30.6919 4.76487 30.5773L4.6796 30.3583C4.51272 29.8786 4.44661 29.3975 4.49492 29.032L4.508 28.7799L4.56368 28.4733C4.70879 27.8362 5.02885 27.2478 5.49616 26.7834L7.54172 24.7288L7.51292 24L7.54172 23.2708L5.49826 21.2207C5.01776 20.7402 4.69473 20.1381 4.54596 19.3549L4.49372 19.0148L4.48082 18.7975C4.47949 18.4274 4.542 18.058 4.66219 17.6946L4.76572 17.4208C4.79746 17.3351 4.88248 17.112 4.94425 16.9994L8.41025 10.9994C9.20125 9.63087 10.8115 8.96214 12.3386 9.36844L15.1677 10.1208L15.7123 9.82563L16.3877 9.4208L17.155 6.58613C17.568 5.06001 18.9516 4 20.5329 4L27.4629 4ZM27.4629 7L20.5329 7C20.3072 7 20.11 7.15108 20.0512 7.36867L19.119 10.8211C19.0104 11.2235 18.7391 11.5626 18.3704 11.7569L18.0559 11.9201L17.2863 12.3814L16.437 12.8526C16.0748 13.1055 15.4442 13.2992 15.0172 13.1856L11.5673 12.2676C11.3502 12.2098 11.1205 12.3052 11.008 12.5L7.60372 18.3908L7.50945 18.6396L7.50571 18.9194L10.1417 21.6314C10.4533 21.9443 10.6112 22.3785 10.5734 22.8184L10.5434 23.2978L10.528 23.7255L10.5132 23.9895L10.5434 24.7049L10.5734 25.1836C10.6112 25.6235 10.4533 26.0577 10.1417 26.3706L7.61625 28.906C7.54228 28.9795 7.49463 29.0777 7.47784 29.2041L7.60372 29.6088L11.0083 35.5025C11.0911 35.6461 11.2397 35.7382 11.4067 35.75L15.0172 34.8164C15.4198 34.7093 15.8488 34.7745 16.2015 34.9963L16.4938 35.1832L17.2833 35.6169L18.1278 36.1213C18.5254 36.3091 19.0044 36.7564 19.119 37.1809L20.0508 40.6321C20.1097 40.8498 20.3061 41 20.5329 41L27.4629 41C27.6887 41 27.8863 40.8489 27.9447 40.6333L28.8768 37.1809C28.9914 36.7564 29.2866 36.4035 29.6843 36.2157L30.6239 35.6683L31.5573 35.1503C31.9195 34.8973 32.5517 34.7028 32.9786 34.8164L36.4286 35.7344C36.5937 35.7227 36.9047 35.6462 36.9876 35.5024L40.4551 29.4979C40.509 29.4049 40.5301 29.2962 40.5158 29.1884C40.5012 29.0777 40.4536 28.9795 40.3742 28.9006L37.8542 26.3706C37.5426 26.0577 37.3846 25.6235 37.4224 25.1836L37.4827 24.0129L37.4524 23.2962L37.4224 22.8184C37.3846 22.3785 37.5426 21.9443 37.8542 21.6314L40.3763 19.0993C40.4535 19.0221 40.501 18.9241 40.5158 18.8116C40.5301 18.7038 40.5091 18.5957 40.4544 18.5009L38.0153 14.2829L36.9883 12.5006C36.8753 12.3052 36.6456 12.2098 36.4286 12.2676L32.9786 13.1856C32.5517 13.2992 32.0963 13.2188 31.7341 12.9658L30.8856 12.4806L29.8167 11.8524C29.4163 11.6653 28.992 11.2477 28.8768 10.8211L27.945 7.36987C27.886 7.15197 27.6875 7 27.4629 7ZM23.9975 15.5106C28.6919 15.5106 32.4975 19.3162 32.4975 24.0106C32.4975 28.705 28.6919 32.5106 23.9975 32.5106C19.3031 32.5106 15.4975 28.705 15.4975 24.0106C15.4975 19.3162 19.3031 15.5106 23.9975 15.5106ZM23.9975 18.5106C20.9599 18.5106 18.4975 20.973 18.4975 24.0106C18.4975 27.0482 20.9599 29.5106 23.9975 29.5106C27.0351 29.5106 29.4975 27.0482 29.4975 24.0106C29.4975 20.973 27.0351 18.5106 23.9975 18.5106Z" fill="var(--tiny-first-color, #191919)" fill-rule="evenodd"/>
  <path id="形状结合" d="M23.998 15.5106C28.6924 15.5106 32.498 19.3162 32.498 24.0106C32.498 28.705 28.6924 32.5106 23.998 32.5106C19.3036 32.5106 15.498 28.705 15.498 24.0106C15.498 19.3162 19.3036 15.5106 23.998 15.5106ZM23.998 18.5106C20.9604 18.5106 18.498 20.973 18.498 24.0106C18.498 27.0482 20.9604 29.5106 23.998 29.5106C27.0356 29.5106 29.498 27.0482 29.498 24.0106C29.498 20.973 27.0356 18.5106 23.998 18.5106Z" fill="var(--tiny-second-color, #aeaeAE)" fill-rule="evenodd"/>
</svg>
