<svg viewBox="0 0 48 48" xmlns="http://www.w3.org/2000/svg" xmlns:xlink="http://www.w3.org/1999/xlink" width="48.000000" height="48.000000" fill="none">
  <path id="形状结合" d="M8 8.5L40 8.5C41.1046 8.5 42 9.39543 42 10.5C42 11.6046 41.1046 12.5 40 12.5L8 12.5C6.89543 12.5 6 11.6046 6 10.5C6 9.39543 6.89543 8.5 8 8.5ZM8 22L40 22C41.1046 22 42 22.8954 42 24C42 25.1046 41.1046 26 40 26L8 26C6.89543 26 6 25.1046 6 24C6 22.8954 6.89543 22 8 22ZM8 35.5L40 35.5C41.1046 35.5 42 36.3954 42 37.5C42 38.6046 41.1046 39.5 40 39.5L8 39.5C6.89543 39.5 6 38.6046 6 37.5C6 36.3954 6.89543 35.5 8 35.5Z" fill="var(--tiny-first-color, #191919)" fill-rule="evenodd"/>
  <circle id="椭圆形" cx="30.5" cy="10.5" r="4.5" fill="var(--tiny-first-color, #191919)"/>
  <circle id="椭圆形备份" cx="16.5" cy="24" r="4.5" fill="var(--tiny-first-color, #191919)"/>
  <circle id="椭圆形备份-2" cx="32.5" cy="37.5" r="4.5" fill="var(--tiny-first-color, #191919)"/>
  <path id="矢量 1706" d="M26.2556 9.0014C26.09 9.47015 26 9.97449 26 10.4999C26 11.0266 26.0905 11.5321 26.2567 12.0018L26.353 12.2501C27.0359 13.866 28.6355 14.9999 30.5 14.9999C32.3644 14.9999 33.9641 13.866 34.6469 12.2502L34.7433 12.0018C34.9095 11.5321 35 11.0266 35 10.4999C35 9.98218 34.9126 9.48486 34.7516 9.02191C34.1401 7.2627 32.4675 6 30.5 6C30.4102 6 30.321 6.00256 30.2325 6.00769C28.3923 6.1156 26.8466 7.33685 26.2556 9.0014ZM20.7438 25.5005C20.9097 25.0312 21 24.5262 21 24.0001C21 21.5148 18.9853 19.5001 16.5 19.5001C14.0147 19.5001 12 21.5148 12 24.0001C12 24.5262 12.0903 25.0312 12.2562 25.5005L12.3536 25.7516C13.0368 27.3667 14.636 28.5 16.5 28.5C18.364 28.5 19.9633 27.3667 20.6464 25.7516L20.7438 25.5005ZM36.7516 36.0219C36.1401 34.2627 34.4675 33 32.5 33C32.4097 33 32.32 33.0026 32.2311 33.0078C30.3916 33.1162 28.8492 34.3296 28.2583 35.9937C28.0928 36.4623 28 36.9745 28 37.4999C28 38.0261 28.0903 38.5311 28.2563 39.0005L28.3531 39.2502C29.0363 40.8652 30.6361 41.9999 32.5 41.9999C34.3639 41.9999 35.9631 40.8666 36.6463 39.2516L36.7433 39.0018C36.9092 38.5324 37 38.0261 37 37.4999C37 36.9822 36.9126 36.4849 36.7516 36.0219Z" fill="var(--tiny-second-color, #aeaeAE)" fill-rule="evenodd"/>
</svg>
