<svg viewBox="0 0 48 48" xmlns="http://www.w3.org/2000/svg" xmlns:xlink="http://www.w3.org/1999/xlink" width="48.000000" height="48.000000" fill="none">
  <path id="形状结合" d="M27.5552 4.00098C28.9292 4.00098 30.1432 4.92898 30.5012 6.25698L31.3452 9.38298C31.4992 9.46898 31.6552 9.56298 31.8072 9.65698L32.5152 10.065C32.6732 10.149 32.8312 10.235 32.9892 10.327L36.1092 9.49498C37.4432 9.14298 38.8472 9.72698 39.5372 10.919L43.0952 17.083C43.4292 17.661 43.5652 18.341 43.4792 19.003C43.3932 19.667 43.0832 20.293 42.6132 20.763L40.3452 23.041C40.3572 23.237 40.3632 23.435 40.3692 23.635L40.3872 24.001L40.3779 24.2187C40.3679 24.4767 40.3572 24.751 40.3452 24.963L42.6152 27.239C43.0832 27.709 43.3932 28.333 43.4792 28.997C43.5652 29.667 43.4332 30.331 43.0972 30.915L39.5392 37.081C39.0312 37.961 38.1232 38.529 37.1092 38.601C36.7692 38.619 36.4312 38.593 36.1052 38.503L32.9892 37.675C32.8312 37.767 32.6732 37.851 32.5152 37.937L31.7892 38.355C31.6432 38.445 31.4972 38.535 31.3452 38.619L30.5012 41.741C30.1432 43.071 28.9312 43.999 27.5552 43.999L20.4372 43.999C19.0632 43.999 17.8512 43.071 17.4932 41.743L16.6492 38.619C16.4972 38.535 16.3512 38.445 16.2052 38.355L15.4792 37.937C15.3212 37.851 15.1632 37.767 15.0052 37.675L11.8832 38.505C11.5612 38.593 11.2232 38.621 10.8852 38.601C9.87116 38.529 8.96316 37.961 8.45516 37.081L4.89916 30.919C4.85916 30.855 4.78516 30.669 4.76116 30.597C4.55516 30.117 4.46716 29.623 4.50516 29.135C4.58916 28.485 4.90916 27.711 5.38116 27.237L7.64916 24.963C7.63916 24.763 7.63116 24.565 7.62516 24.367L7.60716 24.001C7.60716 23.977 7.61716 23.757 7.61916 23.733C7.62916 23.475 7.63716 23.251 7.64916 23.041L5.37916 20.761C4.90916 20.291 4.59916 19.665 4.51316 19.003C4.47116 18.511 4.55316 17.881 4.77116 17.387C4.78116 17.341 4.82116 17.219 4.89716 17.085L8.45716 10.919C9.14316 9.72698 10.5512 9.14098 11.8852 9.49498L15.0052 10.327C15.1632 10.235 15.3212 10.149 15.4792 10.065L16.1872 9.65698C16.3392 9.56298 16.4952 9.46898 16.6492 9.38298L17.4932 6.25898C17.8512 4.92898 19.0632 4.00098 20.4372 4.00098L27.5552 4.00098ZM23.9972 15.011C19.0272 15.011 14.9972 19.041 14.9972 24.011C14.9972 28.981 19.0272 33.011 23.9972 33.011C28.9672 33.011 32.9972 28.981 32.9972 24.011C32.9972 19.041 28.9672 15.011 23.9972 15.011ZM23.9972 18.0012C27.3112 18.0012 29.9972 20.6872 29.9972 24.0012C29.9972 27.3132 27.3112 30.0012 23.9972 30.0012C20.6832 30.0012 17.9972 27.3132 17.9972 24.0012C17.9972 20.6872 20.6832 18.0012 23.9972 18.0012Z" fill="var(--tiny-first-color, #191919)" fill-rule="evenodd"/>
  <path id="形状结合" d="M23.9977 18.0012C27.3117 18.0012 29.9977 20.6872 29.9977 24.0012C29.9977 27.3132 27.3117 30.0012 23.9977 30.0012C20.6837 30.0012 17.9977 27.3132 17.9977 24.0012C17.9977 20.6872 20.6837 18.0012 23.9977 18.0012Z" fill="var(--tiny-second-color, #aeaeAE)" fill-rule="evenodd"/>
</svg>
