<svg viewBox="0 0 48 48" xmlns="http://www.w3.org/2000/svg" xmlns:xlink="http://www.w3.org/1999/xlink" width="48.000000" height="48.000000" fill="none">
  <path id="形状结合" d="M32.5 33C34.4675 33 36.1401 34.2627 36.7516 36.0219L40.5 36C41.3284 36 42 36.6716 42 37.5C42 38.3284 41.3284 39 40.5 39L36.7438 39.0005L36.6464 39.2516C35.9632 40.8667 34.364 42 32.5 42C30.636 42 29.0368 40.8667 28.3536 39.2516L28.2562 39.0005L7.5 39C6.67157 39 6 38.3284 6 37.5C6 36.6716 6.67157 36 7.5 36L28.2555 36.0015C28.867 34.2423 30.5325 33 32.5 33ZM32.5 36C31.6716 36 31 36.6716 31 37.5C31 38.3284 31.6716 39 32.5 39C33.3284 39 34 38.3284 34 37.5C34 36.6716 33.3284 36 32.5 36ZM16.5 19.5C18.4675 19.5 20.1401 20.7627 20.7516 22.5219L40.5 22.5C41.3284 22.5 42 23.1716 42 24C42 24.8284 41.3284 25.5 40.5 25.5L20.7438 25.5005L20.6464 25.7516C19.9632 27.3667 18.364 28.5 16.5 28.5C14.636 28.5 13.0368 27.3667 12.3536 25.7516L12.2562 25.5005L7.5 25.5C6.67157 25.5 6 24.8284 6 24C6 23.1716 6.67157 22.5 7.5 22.5L12.2555 22.5015C12.867 20.7423 14.5325 19.5 16.5 19.5ZM16.5 22.5C15.6716 22.5 15 23.1716 15 24C15 24.8284 15.6716 25.5 16.5 25.5C17.3284 25.5 18 24.8284 18 24C18 23.1716 17.3284 22.5 16.5 22.5ZM30.5 6C32.4675 6 34.1401 7.2627 34.7516 9.02193L40.5 9C41.3284 9 42 9.67157 42 10.5C42 11.3284 41.3284 12 40.5 12L34.7438 12.0005L34.6464 12.2516C33.9632 13.8667 32.364 15 30.5 15C28.636 15 27.0368 13.8667 26.3536 12.2516L26.2562 12.0005L7.5 12C6.67157 12 6 11.3284 6 10.5C6 9.67157 6.67157 9 7.5 9L26.2556 9.00138C26.8671 7.24214 28.5325 6 30.5 6ZM30.5 9C29.6716 9 29 9.67157 29 10.5C29 11.3284 29.6716 12 30.5 12C31.3284 12 32 11.3284 32 10.5C32 9.67157 31.3284 9 30.5 9Z" fill="var(--tiny-first-color)" fill-rule="evenodd"/>
  <path id="矢量 1706" d="M26.2556 9.0014C26.09 9.47015 26 9.97449 26 10.4999C26 11.0266 26.0905 11.5321 26.2567 12.0018L26.353 12.2501C27.0359 13.866 28.6355 14.9999 30.5 14.9999C32.3644 14.9999 33.9641 13.866 34.6469 12.2502L34.7433 12.0018C34.9095 11.5321 35 11.0266 35 10.4999C35 9.98218 34.9126 9.48486 34.7516 9.02191C34.1401 7.2627 32.4675 6 30.5 6C30.4102 6 30.321 6.00256 30.2325 6.00769C28.3923 6.1156 26.8466 7.33685 26.2556 9.0014ZM30.5 9C29.6716 9 29 9.67157 29 10.5C29 11.3284 29.6716 12 30.5 12C31.3284 12 32 11.3284 32 10.5C32 9.67157 31.3284 9 30.5 9ZM20.7438 25.5005C20.9097 25.0312 21 24.5262 21 24.0001C21 21.5148 18.9853 19.5001 16.5 19.5001C14.0147 19.5001 12 21.5148 12 24.0001C12 24.5262 12.0903 25.0312 12.2562 25.5005L12.3536 25.7516C13.0368 27.3667 14.636 28.5 16.5 28.5C18.364 28.5 19.9633 27.3667 20.6464 25.7516L20.7438 25.5005ZM16.5 22.5C15.6716 22.5 15 23.1716 15 24C15 24.8284 15.6716 25.5 16.5 25.5C17.3284 25.5 18 24.8284 18 24C18 23.1716 17.3284 22.5 16.5 22.5ZM36.7516 36.0219C36.1401 34.2627 34.4675 33 32.5 33C32.4097 33 32.32 33.0026 32.2311 33.0078C30.3916 33.1162 28.8492 34.3296 28.2583 35.9937C28.0928 36.4623 28 36.9745 28 37.4999C28 38.0261 28.0903 38.5311 28.2563 39.0005L28.3531 39.2502C29.0363 40.8652 30.6361 41.9999 32.5 41.9999C34.3639 41.9999 35.9631 40.8666 36.6463 39.2516L36.7433 39.0018C36.9092 38.5324 37 38.0261 37 37.4999C37 36.9822 36.9126 36.4849 36.7516 36.0219ZM32.5 36C31.6716 36 31 36.6716 31 37.5C31 38.3284 31.6716 39 32.5 39C33.3284 39 34 38.3284 34 37.5C34 36.6716 33.3284 36 32.5 36Z" fill="var(--tiny-second-color)" fill-rule="evenodd"/>
</svg>