<svg viewBox="0 0 48 48" xmlns="http://www.w3.org/2000/svg" xmlns:xlink="http://www.w3.org/1999/xlink" width="48.000000" height="48.000000">
  <path id="Path" d="M14.8662 29.8854C14.5822 29.7474 14.4122 29.4454 14.4462 29.1294C14.4622 28.9654 16.3442 12.9174 32.9882 12.4494L32.9882 7.63743C32.9882 6.99143 33.3722 6.41143 33.9702 6.16543C34.5702 5.91943 35.2502 6.05343 35.7062 6.50943L45.4742 16.2774C45.7762 16.5794 45.9422 16.9814 45.9422 17.4054C45.9422 17.8294 45.7762 18.2314 45.4722 18.5314L35.7062 28.2994C35.2502 28.7534 34.5702 28.8934 33.9702 28.6454C33.3722 28.3974 32.9882 27.8194 32.9882 27.1714L32.9882 22.3754C22.8162 22.5374 19.3882 26.0174 16.3562 29.0974L15.7222 29.7394C15.5782 29.8814 15.3862 29.9574 15.1922 29.9574C15.0822 29.9574 14.9722 29.9334 14.8662 29.8854ZM10 40.0002C6.692 40.0002 4 37.3082 4 34.0002L4 14.0002C4 10.6922 6.692 8.00023 10 8.00023L27.5 8.00023C28.328 8.00023 29 8.67223 29 9.50023C29 10.3282 28.328 11.0002 27.5 11.0002L10 11.0002C8.346 11.0002 7 12.3462 7 14.0002L7 34.0002C7 35.6542 8.346 37.0002 10 37.0002L38 37.0002C39.654 37.0002 41 35.6542 41 34.0002L41 26.6002C41 25.7722 41.672 25.1002 42.5 25.1002C43.328 25.1002 44 25.7722 44 26.6002L44 34.0002C44 37.3082 41.308 40.0002 38 40.0002L10 40.0002Z" fill="var(--tiny-first-color)" fill-rule="evenodd"/>
  <path id="Path" d="M14.8662 29.8854C14.5822 29.7474 14.4122 29.4454 14.4462 29.1294C14.4622 28.9654 16.3442 12.9174 32.9882 12.4494L32.9882 7.63743C32.9882 6.99143 33.3722 6.41143 33.9702 6.16543C34.5702 5.91943 35.2502 6.05343 35.7062 6.50943L45.4742 16.2774C45.7762 16.5794 45.9422 16.9814 45.9422 17.4054C45.9422 17.8294 45.7762 18.2314 45.4722 18.5314L35.7062 28.2994C35.2502 28.7534 34.5702 28.8934 33.9702 28.6454C33.3722 28.3974 32.9882 27.8194 32.9882 27.1714L32.9882 22.3754C22.8162 22.5374 19.3882 26.0174 16.3562 29.0974L15.7222 29.7394C15.5782 29.8814 15.3862 29.9574 15.1922 29.9574C15.0822 29.9574 14.9722 29.9334 14.8662 29.8854Z" fill="var(--tiny-second-color)" fill-rule="evenodd"/>
</svg>