<svg viewBox="0 0 48 48" xmlns="http://www.w3.org/2000/svg" xmlns:xlink="http://www.w3.org/1999/xlink" width="48.000000" height="48.000000">
  <path id="Path" d="M33.4946 29.0688C32.6286 28.7108 32.0706 27.8728 32.0706 26.9368L32.0706 23.0584C24.9662 22.9905 20.0561 25.2199 17.1554 29.7131C16.7061 30.4091 15.7776 30.6091 15.0816 30.1598C14.8951 30.0393 14.7442 29.8845 14.6319 29.709C14.4445 29.4283 14.3503 29.0834 14.3881 28.7224C14.4056 28.5613 16.2247 13.0663 32.0706 12.1433L32.0706 8.30475C32.0706 7.36875 32.6286 6.53275 33.4926 6.17475C34.3606 5.81875 35.3426 6.01675 36.0046 6.67675L45.3206 15.9908C45.7546 16.4248 45.9946 17.0048 45.9946 17.6208C45.9946 18.2368 45.7546 18.8168 45.3186 19.2508L36.0026 28.5668C35.5646 29.0068 34.9766 29.2428 34.3766 29.2428C34.0786 29.2428 33.7806 29.1848 33.4946 29.0688ZM4 34C4 37.306 6.692 39.998 10 39.998L38 39.998C41.308 39.998 44 37.306 44 34L44 27C44 26.172 43.328 25.5 42.5 25.5C41.672 25.5 41 26.172 41 27L41 34C41 35.652 39.654 36.998 38 36.998L10 36.998C8.346 36.998 7 35.652 7 34L7 13.998C7 12.344 8.346 10.998 10 10.998L26.4 10.998C27.228 10.998 27.9 10.328 27.9 9.498C27.9 8.67 27.228 7.998 26.4 7.998L10 7.998C6.692 7.998 4 10.69 4 13.998L4 34ZM35.0706 21.6408C35.0706 21.059 34.7389 20.5543 34.2544 20.3055C34.0518 20.1864 33.8182 20.1133 33.5671 20.1013C27.6205 19.8158 22.7827 20.924 19.1216 23.4382C21.0748 19.5662 25.1457 15.1122 33.5367 15.1004C33.5479 15.1006 33.5592 15.1008 33.5706 15.1008C34.3986 15.1008 35.0706 14.4288 35.0706 13.6008L35.0706 9.98475L42.7066 17.6208L35.0706 25.2568L35.0706 21.6408Z" fill="var(--tiny-first-color)" fill-rule="evenodd"/>
  <path id="Path" d="M33.4946 29.0688C32.6286 28.7108 32.0706 27.8728 32.0706 26.9368L32.0706 23.0584C24.9662 22.9905 20.0561 25.2199 17.1554 29.7131C16.7061 30.4091 15.7776 30.6091 15.0816 30.1598C14.8951 30.0393 14.7442 29.8845 14.6319 29.709C14.4445 29.4283 14.3503 29.0834 14.3881 28.7224C14.4056 28.5613 16.2247 13.0663 32.0706 12.1433L32.0706 8.30475C32.0706 7.36875 32.6286 6.53275 33.4926 6.17475C34.3606 5.81875 35.3426 6.01675 36.0046 6.67675L45.3206 15.9908C45.7546 16.4248 45.9946 17.0048 45.9946 17.6208C45.9946 18.2368 45.7546 18.8168 45.3186 19.2508L36.0026 28.5668C35.5646 29.0068 34.9766 29.2428 34.3766 29.2428C34.0786 29.2428 33.7806 29.1848 33.4946 29.0688ZM35.0706 21.6408C35.0706 21.059 34.7389 20.5543 34.2544 20.3055C34.0518 20.1864 33.8182 20.1133 33.5671 20.1013C27.6205 19.8158 22.7827 20.924 19.1216 23.4382C21.0748 19.5662 25.1457 15.1122 33.5367 15.1004C33.5479 15.1006 33.5592 15.1008 33.5706 15.1008C34.3986 15.1008 35.0706 14.4288 35.0706 13.6008L35.0706 9.98475L42.7066 17.6208L35.0706 25.2568L35.0706 21.6408Z" fill="var(--tiny-second-color)" fill-rule="evenodd"/>
</svg>