<svg viewBox="0 0 48 48" xmlns="http://www.w3.org/2000/svg" xmlns:xlink="http://www.w3.org/1999/xlink" width="48.000000" height="48.000000" fill="none">
  <path id="形状结合" d="M23.9988 5.95215C26.8707 5.95215 29.1988 8.28116 29.1988 11.1521C29.1988 14.0247 26.8711 16.3541 23.9988 16.3541C23.5835 16.3541 23.1796 16.3054 22.7924 16.2133L12.9016 33.1948C13.4885 33.7899 13.933 34.5255 14.1801 35.3465L33.8195 35.3467C34.4635 33.2062 36.4496 31.6453 38.7996 31.6453C41.6713 31.6453 43.9996 33.9762 43.9996 36.8474C43.9996 39.7183 41.6715 42.0473 38.7996 42.0473C36.4495 42.0473 34.4635 40.4877 33.8194 38.3478L14.1801 38.3479C13.5359 40.488 11.5494 42.0473 9.198 42.0473C6.3277 42.0473 4 39.7179 4 36.8474C4 33.9767 6.32783 31.6453 9.198 31.6453C9.56376 31.6453 9.92069 31.6831 10.2651 31.7549L20.1976 14.7C19.3311 13.7705 18.8008 12.5231 18.8008 11.1521C18.8008 8.28159 21.1285 5.95215 23.9988 5.95215Z" fill="var(--tiny-first-color, #191919)" fill-rule="evenodd"/>
  <path id="矢量 1769" d="M33.8208 35.3496C33.6777 35.8247 33.6011 36.3281 33.6011 36.8496C33.6011 37.3701 33.6777 37.873 33.8203 38.3477L14.1821 38.3477C14.3247 37.8735 14.4014 37.3706 14.4014 36.8496C14.4014 36.3281 14.3247 35.8247 14.1816 35.3501L33.8208 35.3496ZM12.9067 33.1997L22.7593 16.2046C21.7617 15.96 20.8774 15.4272 20.1987 14.7002L10.2661 31.7563C11.2925 31.9683 12.1987 32.4805 12.9067 33.1997Z" fill="var(--tiny-second-color, #aeaeAE)" fill-rule="evenodd"/>
</svg>
