<svg viewBox="0 0 48 48" xmlns="http://www.w3.org/2000/svg" xmlns:xlink="http://www.w3.org/1999/xlink" width="48.000000" height="48.000000">
  <path id="形状结合" d="M23.9988 5.95117C26.8705 5.95117 29.1988 8.28205 29.1988 11.1532C29.1988 14.0242 26.8707 16.3532 23.9988 16.3532C23.5836 16.3532 23.1797 16.3044 22.7926 16.2123L12.9019 33.1951C13.4886 33.7898 13.9331 34.5251 14.1801 35.3458L33.8194 35.346C34.4635 33.206 36.4495 31.6464 38.7996 31.6464C41.6715 31.6464 43.9996 33.9754 43.9996 36.8464C43.9996 39.7175 41.6713 42.0484 38.7996 42.0484C36.4496 42.0484 34.4635 40.4875 33.8195 38.347L14.1801 38.3472C13.5359 40.4878 11.5493 42.0484 9.198 42.0484C6.32783 42.0484 4 39.7171 4 36.8464C4 33.9758 6.3277 31.6464 9.198 31.6464C9.56377 31.6464 9.92072 31.6841 10.2652 31.7559L20.1977 14.6995C19.3312 13.7703 18.8008 12.5234 18.8008 11.1532C18.8008 8.28248 21.1286 5.95117 23.9988 5.95117ZM9.198 34.6464C7.98506 34.6464 7 35.6322 7 36.8464C7 38.0612 7.98569 39.0484 9.198 39.0484C10.4139 39.0484 11.4 38.0616 11.4 36.8464C11.3942 36.0272 10.9577 35.3262 10.3096 34.9468C10.0058 34.7919 9.54731 34.6464 9.198 34.6464ZM38.7996 34.6464C37.5848 34.6464 36.5996 35.632 36.5996 36.8464C36.5996 38.0614 37.5855 39.0484 38.7996 39.0484C40.0137 39.0484 40.9996 38.0614 40.9996 36.8464C40.9996 35.632 40.0144 34.6464 38.7996 34.6464ZM23.9988 8.95117C22.7865 8.95117 21.8008 9.93834 21.8008 11.1532C21.8008 12.3674 22.7859 13.3532 23.9988 13.3532C25.2136 13.3532 26.1988 12.3676 26.1988 11.1532C26.1988 9.93815 25.2129 8.95117 23.9988 8.95117Z" fill="var(--tiny-first-color)" fill-rule="evenodd"/>
  <path id="矢量 1769" d="M33.8208 35.3496C33.6777 35.8247 33.6011 36.3281 33.6011 36.8496C33.6011 37.3701 33.6777 37.873 33.8203 38.3477L14.1821 38.3477C14.3247 37.8735 14.4014 37.3706 14.4014 36.8496C14.4014 36.3281 14.3247 35.8247 14.1816 35.3501L33.8208 35.3496ZM12.9067 33.1997L22.7593 16.2046C21.7617 15.96 20.8774 15.4272 20.1987 14.7002L10.2661 31.7563C11.2925 31.9683 12.1987 32.4805 12.9067 33.1997Z" fill="var(--tiny-second-color)" fill-rule="evenodd"/>
</svg>