<svg viewBox="0 0 48 48" xmlns="http://www.w3.org/2000/svg" xmlns:xlink="http://www.w3.org/1999/xlink" width="48.000000" height="48.000000">
  <path id="减去顶层" d="M31 4L17 4C15.88 4 15 4.88 15 6L15 8C15 9.1 15.88 10 17 10L31 10C32.1 10 33 9.1 33 8L33 6C33 4.88 32.1 4 31 4ZM12 7C11.9342 7.1974 11.955 7.41212 11.9769 7.63846C11.9883 7.7561 12 7.87688 12 8L12 9C12 11.2 13.78 13 16 13L32 13C34.2 13 36 11.2 36 9L36 8C36 7.64 35.94 7.3 35.86 7C39.18 7 42 9.68 42 13L42 38C42 41.3 39.3 44 36 44L12 44C8.68 44 6 41.3 6 38L6 13C6 9.68 8.68 7 12 7ZM35.0048 34.8818C34.9426 33.2793 33.6239 31.999 32.0061 31.999C30.3852 31.999 29.0644 33.2842 29.0071 34.8911L22.0014 34.9023C21.9498 33.29 20.6266 31.999 19.002 31.999C17.3741 31.999 16.0489 33.2954 16.0023 34.9121L14.2007 34.915C13.5376 34.9146 13.0001 34.3711 13 33.7002L13 20.2266C13 19.5562 13.5367 19.0127 14.1992 19.0122L24.7653 18.9995L24.7667 18.9995L24.9067 19.0078C25.5038 19.0776 25.9673 19.5913 25.9673 20.2139L25.9673 30.0132C25.968 30.5156 26.3712 30.9224 26.8678 30.9219C27.3653 30.9209 27.7683 30.5127 27.7683 30.0098L27.7683 23.186L27.778 23.0669C27.8346 22.7207 28.1322 22.457 28.4903 22.458L31.7118 22.4648C32.1342 22.5107 32.5208 22.7363 32.7714 23.0898L36.614 27.7363L36.7164 27.8955C36.9066 28.2217 37.0078 28.5942 37.0078 28.9751L37.0078 32.791L37.0009 32.9653C36.9234 33.9297 36.2094 34.7124 35.2856 34.8813L35.0048 34.8818ZM21.0026 34.9995C21.0026 33.8945 20.1069 32.999 19.0019 32.999C17.897 32.999 17.0013 33.8945 17.0013 34.9995C17.0013 36.1045 17.897 37 19.0019 37C20.1069 37 21.0026 36.1045 21.0026 34.9995ZM34.007 34.9995C34.007 33.8945 33.1112 32.999 32.0063 32.999C30.9014 32.999 30.0056 33.8945 30.0056 34.9995C30.0056 36.1045 30.9014 37 32.0063 37C33.1112 37 34.007 36.1045 34.007 34.9995Z" fill="var(--tiny-first-color, #191919)" fill-rule="evenodd"/>
  <path id="合并" d="M32.0061 31.9992C33.6239 31.9992 34.9426 33.2793 35.0048 34.8818L35.2856 34.8813C36.2094 34.7123 36.9234 33.9298 37.0009 32.9652L37.0078 32.7909L37.0078 28.9753C37.0078 28.5943 36.9066 28.2216 36.7164 27.8954L36.614 27.7364L32.7714 23.0897C32.5208 22.7364 32.1342 22.5108 31.7118 22.4651L28.4903 22.458C28.1322 22.4572 27.8346 22.7209 27.778 23.067L27.7683 23.186L27.7683 30.0096C27.7683 30.5129 27.3653 30.9211 26.8678 30.9217C26.3711 30.9224 25.968 30.5157 25.9673 30.0133L25.9673 20.2141C25.9673 19.5912 25.5038 19.0778 24.9067 19.0077L24.7667 18.9995L24.7653 18.9995L14.1993 19.012C13.5367 19.0128 13 19.5563 13 20.2265L13 33.7002C13.0001 34.3709 13.5376 34.9147 14.2007 34.9148L16.0022 34.912C16.0489 33.2954 17.3741 31.9992 19.002 31.9992C20.6266 31.9992 21.9498 33.2903 22.0014 34.9024L29.0071 34.8913C29.0644 33.2843 30.3852 31.9992 32.0061 31.9992ZM23.2181 25.3569L20.6321 27.8879C20.5583 27.9602 20.4581 28.0008 20.3537 28.0008C20.1363 28.0008 19.96 27.8282 19.96 27.6154L19.96 26.2337L16.3947 26.2336C16.1772 26.2336 16.001 26.0613 16.001 25.8485L16.001 24.307C16.001 24.0942 16.1772 23.9219 16.3947 23.9219L19.96 23.9217L19.96 22.3841C19.96 22.2783 20.0045 22.1772 20.0829 22.1044C20.2408 21.958 20.49 21.9646 20.6395 22.1191L23.2258 24.7909C23.3794 24.9496 23.3759 25.2025 23.2181 25.3569ZM19.0019 32.9988C20.1069 32.9988 21.0026 33.8945 21.0026 34.9995C21.0026 36.1044 20.1069 37.0001 19.0019 37.0001C17.897 37.0001 17.0013 36.1044 17.0013 34.9995C17.0013 33.8945 17.897 32.9988 19.0019 32.9988ZM32.0063 32.9988C33.1112 32.9988 34.007 33.8945 34.007 34.9995C34.007 36.1044 33.1112 37.0001 32.0063 37.0001C30.9014 37.0001 30.0056 36.1044 30.0056 34.9995C30.0056 33.8945 30.9014 32.9988 32.0063 32.9988Z" fill="var(--tiny-second-color, #aeaeAE)" fill-rule="evenodd"/>
</svg>