<svg viewBox="0 0 48 48" xmlns="http://www.w3.org/2000/svg" xmlns:xlink="http://www.w3.org/1999/xlink" width="48.000000" height="48.000000">
  <path id="合并" d="M12 10.2564L12 9.3913C12 8.95038 11.952 8.52044 11.8561 8.10147L11.8561 8.10135C11.7974 7.84491 11.7207 7.59259 11.6261 7.34438C11.5874 7.24276 11.546 7.14293 11.5021 7.04489C11.4974 7.03224 11.4926 7.01962 11.4878 7.00704L34.5 7.00704C34.8492 7.00704 35.1895 7.04548 35.5209 7.12235C35.7693 7.17998 36.0127 7.25922 36.2512 7.36006C36.4982 7.46453 36.7323 7.58881 36.9535 7.73289C37.2142 7.90276 37.4571 8.10015 37.682 8.32506C37.9069 8.54996 38.1043 8.79279 38.2741 9.05355C38.4182 9.27477 38.5425 9.50888 38.647 9.7559C38.7479 9.99434 38.8271 10.2378 38.8847 10.4863C38.9616 10.8176 39 11.1579 39 11.507L39 38.0023C39 38.4744 39.0528 38.9341 39.1584 39.3813C39.264 39.8284 39.4223 40.2631 39.6334 40.6853C39.6873 40.793 39.7439 40.8984 39.8031 41.0016L16.5 41.0016C16.1508 41.0016 15.8105 40.9632 15.4791 40.8863C15.2307 40.8287 14.9873 40.7494 14.7489 40.6486C14.5019 40.5442 14.2678 40.4199 14.0467 40.2758C13.7859 40.106 13.543 39.9086 13.318 39.6836C13.0931 39.4586 12.8956 39.2158 12.7258 38.9549C12.5817 38.7338 12.4575 38.4997 12.353 38.2528C12.2522 38.0144 12.1729 37.7709 12.1153 37.5225C12.0384 37.1911 12 36.8508 12 36.5016L12 24.5043L12 10.2564ZM9 25.002L9 36.5016C9 37.0535 9.05796 37.5926 9.17389 38.119L9.174 38.1195C9.2716 38.5625 9.41027 38.9965 9.59 39.4214C9.77042 39.848 9.98608 40.2513 10.237 40.6313C10.5139 41.0509 10.8338 41.4421 11.1967 41.8049C11.5595 42.1678 11.9507 42.4877 12.3702 42.7646C12.7503 43.0155 13.1536 43.2312 13.5802 43.4116C14.0052 43.5914 14.4393 43.7301 14.8824 43.8277C15.4088 43.9436 15.948 44.0016 16.5 44.0016L45.0002 44.0016C45.9612 44.0016 46.369 42.7782 45.6001 42.2016L43.1998 40.4016C43.0109 40.2599 42.8429 40.1009 42.6957 39.9246L42.6955 39.9243C42.5484 39.7481 42.4221 39.5545 42.3167 39.3435C42.2111 39.1325 42.132 38.9152 42.0792 38.6917C42.0264 38.4681 42 38.2383 42 38.0023L42 11.507C42 10.9552 41.9421 10.416 41.8261 9.88967C41.7285 9.44648 41.5898 9.01233 41.41 8.58724C41.2296 8.16065 41.0139 7.75733 40.763 7.37727C40.486 6.95775 40.1661 6.56657 39.8033 6.20374C39.4405 5.84092 39.0493 5.52104 38.6298 5.24409C38.2498 4.99317 37.8464 4.77748 37.4198 4.59704C36.9948 4.41726 36.5607 4.27856 36.1175 4.18095C35.5911 4.06501 35.0519 4.00704 34.5 4.00704L8.20295 4.00704C8.01505 3.99047 7.83421 4.00315 7.66043 4.04508C7.6579 4.04569 7.65537 4.04631 7.65284 4.04693C7.43824 4.01694 7.22055 4.00195 6.99975 4.00195C6.67825 4.00195 6.3633 4.03375 6.05491 4.09735C5.69426 4.17173 5.34258 4.28959 4.99987 4.45095C4.8154 4.5378 4.63767 4.6353 4.46667 4.74344C4.08052 4.98766 3.7287 5.28616 3.41123 5.63896C3.25946 5.80762 3.11941 5.98441 2.99108 6.16933C2.74075 6.53007 2.53501 6.92176 2.37388 7.3444C2.27922 7.5927 2.20253 7.84512 2.14382 8.10164C2.04794 8.52056 2 8.95045 2 9.3913L2 23.4658C2 23.5699 2.01016 23.6719 2.03049 23.7719C2.05071 23.8714 2.08099 23.9688 2.12134 24.0642C2.16018 24.156 2.20694 24.2426 2.2616 24.3238C2.31643 24.4052 2.37921 24.4813 2.44994 24.552C2.52067 24.6227 2.59676 24.6855 2.6782 24.7404C2.7594 24.795 2.84593 24.8418 2.93777 24.8806C3.03316 24.921 3.13058 24.9512 3.23006 24.9715C3.33003 24.9918 3.43208 25.002 3.53619 25.002L9 25.002ZM9 22.002L9 10.253C8.99976 9.40326 8.90659 8.71195 8.7205 8.17911C8.64256 8.02266 8.55009 7.87791 8.44307 7.74485C8.4159 7.71107 8.38778 7.67804 8.35874 7.64576C8.17686 7.44367 7.97266 7.28732 7.74612 7.17671C7.73814 7.17282 7.73013 7.16898 7.7221 7.1652C7.58184 7.09917 7.43805 7.05317 7.29073 7.02721C7.19522 7.01037 7.09823 7.00195 6.99975 7.00195C6.90166 7.00195 6.80504 7.01031 6.70988 7.02704C6.56231 7.05297 6.41828 7.09901 6.27778 7.16516C6.26989 7.16887 6.26203 7.17264 6.25419 7.17647C6.02753 7.28708 5.82322 7.44349 5.64125 7.6457C5.61223 7.67795 5.58415 7.71095 5.557 7.74471C5.39844 7.94184 5.2718 8.16465 5.17706 8.41312C5.14756 8.4905 5.12175 8.56892 5.09962 8.64835C5.03321 8.88675 5 9.1344 5 9.3913L5 22.002L9 22.002Z" fill="var(--tiny-first-color, #191919)" fill-rule="evenodd"/>
  <path id="合并" d="M27.75 15.5L27.75 14.75C27.75 14.5904 27.7338 14.4343 27.7013 14.2816C27.6718 14.1428 27.629 14.0069 27.5727 13.8738C27.5173 13.7429 27.4509 13.6192 27.3734 13.503C27.2916 13.3801 27.1974 13.2655 27.091 13.159C26.9845 13.0526 26.8699 12.9584 26.7471 12.8766C26.6308 12.7991 26.5072 12.7327 26.3762 12.6773C26.2431 12.621 26.1072 12.5782 25.9685 12.5487L25.9684 12.5487L25.9684 12.5487C25.8157 12.5162 25.6596 12.5 25.5 12.5L18 12.5C17.8404 12.5 17.6843 12.5162 17.5316 12.5487L17.5316 12.5487C17.3928 12.5782 17.2569 12.621 17.1238 12.6773C16.9928 12.7327 16.8692 12.7991 16.7529 12.8766L16.7529 12.8766L16.7528 12.8767C16.63 12.9585 16.5154 13.0526 16.409 13.159C16.3026 13.2654 16.2085 13.3801 16.1267 13.5029L16.1266 13.5029C16.0492 13.6192 15.9827 13.7428 15.9273 13.8738C15.871 14.0069 15.8281 14.1428 15.7987 14.2816C15.7662 14.4343 15.75 14.5904 15.75 14.75L15.75 24.75C15.75 24.9096 15.7662 25.0657 15.7987 25.2184C15.8282 25.3572 15.871 25.4931 15.9273 25.6262C15.9827 25.7572 16.0491 25.8808 16.1266 25.9971C16.2084 26.1199 16.3026 26.2345 16.409 26.341C16.5155 26.4474 16.6301 26.5416 16.753 26.6234C16.8692 26.7009 16.9929 26.7673 17.1238 26.8227C17.2569 26.879 17.3928 26.9218 17.5316 26.9513C17.6843 26.9838 17.8404 27 18 27L19.4387 27C19.8052 27.4572 20.3684 27.75 21 27.75L17.5366 27.75C16.6761 27.75 16 28.41 16 29.25C16 30.09 16.6761 30.75 17.5366 30.75L35.4634 30.75C36.3239 30.75 37 30.09 37 29.25C37 28.41 36.3239 27.75 35.4634 27.75L29 27.75C29.6316 27.75 30.1948 27.4572 30.5613 27L33 27C33.1596 27 33.3157 26.9838 33.4684 26.9513C33.6071 26.9219 33.7431 26.879 33.8762 26.8227C34.0071 26.7673 34.1308 26.7009 34.247 26.6234C34.3699 26.5416 34.4845 26.4474 34.591 26.341C34.6974 26.2346 34.7916 26.1199 34.8734 25.9971C34.9508 25.8808 35.0173 25.7572 35.0727 25.6262C35.129 25.4931 35.1719 25.3571 35.2013 25.2183C35.2338 25.0657 35.25 24.9096 35.25 24.75L35.25 21.5931C35.25 21.468 35.2399 21.3447 35.2196 21.223L35.2196 21.2229C35.1993 21.1012 35.1688 20.9812 35.1282 20.8629C35.0876 20.7446 35.038 20.6312 34.9793 20.5227C34.9206 20.4141 34.8528 20.3105 34.776 20.2117L31.787 16.3686C31.6804 16.2316 31.5615 16.1098 31.4302 16.0031C31.299 15.8965 31.1554 15.8051 30.9995 15.7288C30.8436 15.6525 30.6833 15.5954 30.5186 15.5572L30.5184 15.5572C30.3537 15.5191 30.1845 15.5 30.0109 15.5L27.75 15.5ZM29 27.75L21 27.75C21.6316 27.75 22.1948 27.4572 22.5613 27L27.4387 27C27.8052 27.4572 28.3684 27.75 29 27.75ZM18.25 24.5L19.4387 24.5C19.8052 24.0428 20.3684 23.75 21 23.75C21.6316 23.75 22.1948 24.0428 22.5613 24.5L27.4387 24.5C27.8052 24.0428 28.3684 23.75 29 23.75C29.6316 23.75 30.1948 24.0428 30.5613 24.5L32.75 24.5L32.75 21.6789L29.8886 18L27.75 18L27.75 21.25C27.75 21.95 27.2 22.5 26.5 22.5C25.8 22.5 25.25 21.95 25.25 21.25L25.25 15L18.25 15L18.25 24.5ZM25 32.75L15.5 32.75C14.66 32.75 14 33.41 14 34.25C14 35.09 14.66 35.75 15.5 35.75L25 35.75C25.84 35.75 26.5 35.09 26.5 34.25C26.5 33.41 25.84 32.75 25 32.75ZM30.5 32.75L33.25 32.75C34.09 32.75 34.75 33.41 34.75 34.25C34.75 35.09 34.09 35.75 33.25 35.75L30.5 35.75C29.66 35.75 29 35.09 29 34.25C29 33.41 29.66 32.75 30.5 32.75Z" fill="var(--tiny-second-color, #aeaeAE)" fill-rule="evenodd"/>
</svg>