<svg viewBox="0 0 48 48" xmlns="http://www.w3.org/2000/svg" xmlns:xlink="http://www.w3.org/1999/xlink" width="48.000000" height="48.000000" fill="none">
  <path id="形状结合" d="M5.48853 4.75098C7.54043 4.75098 9.34067 6.08026 9.96138 8.01022L10.0538 8.33732L10.2365 9.09098L42.5107 9.09278C43.4055 9.09278 44.0847 9.86494 44.005 10.7273L43.9729 10.9276L40.3153 26.9019C39.7209 29.5113 37.4732 31.395 34.8296 31.5539L34.4667 31.5648L15.7185 31.563L16.4141 34.407L35.6865 34.407C38.1029 34.4372 40.1059 36.4055 40.1059 38.8292C40.1059 41.2716 38.1284 43.2492 35.6859 43.2492C33.2434 43.2492 31.2639 41.2715 31.2639 38.8292C31.2639 38.3316 31.3461 37.8533 31.4975 37.407L19.4248 37.4065C19.5763 37.853 19.6585 38.3315 19.6585 38.8292C19.6585 41.2711 17.6795 43.2492 15.2385 43.2492C12.796 43.2492 10.8165 41.2715 10.8165 38.8292C10.8165 37.0334 11.8866 35.4879 13.424 34.7953L7.1393 9.04865C6.97192 8.36284 6.40282 7.86037 5.71996 7.76674L5.48853 7.75098C4.6601 7.75098 3.98853 7.0794 3.98853 6.25098C3.98853 5.42255 4.6601 4.75098 5.48853 4.75098ZM15.2385 37.4072C14.453 37.4072 13.8165 38.0436 13.8165 38.8292C13.8165 39.614 14.4523 40.2492 15.2385 40.2492C16.0229 40.2492 16.6585 39.6139 16.6585 38.8292C16.6585 38.0438 16.0222 37.4072 15.2385 37.4072ZM35.6859 37.4072C34.9003 37.4072 34.2639 38.0436 34.2639 38.8292C34.2639 39.614 34.8997 40.2492 35.6859 40.2492C36.4715 40.2492 37.1059 39.6147 37.1059 38.8292C37.1059 38.0429 36.4708 37.4072 35.6859 37.4072Z" fill="var(--tiny-first-color)" fill-rule="evenodd"/>
  <path id="矢量 1713" d="M35.4341 43.2426C33.1147 43.1061 31.2764 41.1827 31.2759 38.8292C31.2764 36.3885 33.2551 34.4102 35.6958 34.4102C38.137 34.4102 40.116 36.389 40.116 38.8302C40.116 41.2712 38.137 43.2501 35.6958 43.2501C35.6079 43.2501 35.5208 43.2476 35.4341 43.2426ZM35.698 37.4083C34.9116 37.4083 34.2759 38.0435 34.2759 38.8282C34.2759 39.6139 34.9124 40.2502 35.698 40.2502C36.4817 40.2502 37.1179 39.6136 37.1179 38.8282C37.1179 38.0436 36.4822 37.4083 35.698 37.4083Z" fill="var(--tiny-second-color)" fill-rule="evenodd"/>
  <path id="矢量 1713" d="M14.9849 43.2426C12.6655 43.1061 10.8271 41.1827 10.8267 38.8292C10.8271 36.3885 12.8059 34.4102 15.2466 34.4102C17.6877 34.4102 19.6667 36.389 19.6667 38.8302C19.6667 41.2712 17.6877 43.2501 15.2466 43.2501C15.1587 43.2501 15.0715 43.2476 14.9849 43.2426ZM15.2488 37.4083C14.4624 37.4083 13.8267 38.0435 13.8267 38.8282C13.8267 39.6139 14.4631 40.2502 15.2488 40.2502C16.0325 40.2502 16.6687 39.6136 16.6687 38.8282C16.6687 38.0436 16.033 37.4083 15.2488 37.4083Z" fill="var(--tiny-second-color)" fill-rule="evenodd"/>
</svg>