<svg viewBox="0 0 48 48" xmlns="http://www.w3.org/2000/svg" xmlns:xlink="http://www.w3.org/1999/xlink" width="48.000000" height="48.000000" fill="none">
  <path id="形状结合" d="M5.49829 4.75C7.54944 4.75 9.34996 6.08032 9.97108 8.00943L10.0635 8.33637L14.9963 28.562L34.4729 28.5638C35.781 28.5638 36.9252 27.7212 37.3245 26.4982L37.3984 26.2305L40.6199 12.0908L14.2116 12.0918C13.4522 12.0918 12.8246 11.5275 12.7253 10.7953L12.7116 10.5918C12.7116 9.83241 13.2759 9.20482 14.008 9.10549L14.2116 9.0918L42.5009 9.0918C43.3951 9.0918 44.0742 9.86302 43.9953 10.7249L43.9634 10.9251L40.3236 26.8963C39.7296 29.5094 37.482 31.394 34.8361 31.5529L34.4729 31.5638L15.7283 31.562L16.4239 34.4068L35.6963 34.408C38.1127 34.4382 40.1157 36.4046 40.1157 38.8282C40.1157 41.2707 38.1381 43.2502 35.6957 43.2502C33.2533 43.2502 31.2737 41.2706 31.2737 38.8282C31.2737 38.3304 31.3559 37.852 31.5075 37.4056L19.4345 37.4058C19.5861 37.8521 19.6683 38.3305 19.6683 38.8282C19.6683 41.2702 17.6892 43.2502 15.2483 43.2502C12.8059 43.2502 10.8263 41.2706 10.8263 38.8282C10.8263 37.0325 11.8964 35.488 13.4338 34.796L7.14918 9.04814C6.9817 8.3629 6.41178 7.8596 5.72949 7.76579L5.49829 7.75C4.66986 7.75 3.99829 7.07843 3.99829 6.25C3.99829 5.42157 4.66986 4.75 5.49829 4.75ZM15.2483 37.4082C14.462 37.4082 13.8263 38.0433 13.8263 38.8282C13.8263 39.6138 14.4627 40.2502 15.2483 40.2502C16.032 40.2502 16.6683 39.6136 16.6683 38.8282C16.6683 38.0435 16.0327 37.4082 15.2483 37.4082ZM35.6957 37.4082C34.9094 37.4082 34.2737 38.0433 34.2737 38.8282C34.2737 39.6138 34.9101 40.2502 35.6957 40.2502C36.4806 40.2502 37.1157 39.6145 37.1157 38.8282C37.1157 38.0426 36.4813 37.4082 35.6957 37.4082Z" fill="var(--tiny-first-color)" fill-rule="evenodd"/>
  <path id="矢量 1713" d="M35.4341 43.2426C33.1147 43.1061 31.2764 41.1827 31.2759 38.8292C31.2764 36.3885 33.2551 34.4102 35.6958 34.4102C38.137 34.4102 40.116 36.389 40.116 38.8302C40.116 41.2712 38.137 43.2501 35.6958 43.2501C35.6079 43.2501 35.5208 43.2476 35.4341 43.2426ZM35.698 37.4083C34.9116 37.4083 34.2759 38.0435 34.2759 38.8282C34.2759 39.6139 34.9124 40.2502 35.698 40.2502C36.4817 40.2502 37.1179 39.6136 37.1179 38.8282C37.1179 38.0436 36.4822 37.4083 35.698 37.4083Z" fill="var(--tiny-second-color)" fill-rule="evenodd"/>
  <path id="矢量 1713" d="M14.9849 43.2426C12.6655 43.1061 10.8271 41.1827 10.8267 38.8292C10.8271 36.3885 12.8059 34.4102 15.2466 34.4102C17.6877 34.4102 19.6667 36.389 19.6667 38.8302C19.6667 41.2712 17.6877 43.2501 15.2466 43.2501C15.1587 43.2501 15.0715 43.2476 14.9849 43.2426ZM15.2488 37.4083C14.4624 37.4083 13.8267 38.0435 13.8267 38.8282C13.8267 39.6139 14.4631 40.2502 15.2488 40.2502C16.0325 40.2502 16.6687 39.6136 16.6687 38.8282C16.6687 38.0436 16.033 37.4083 15.2488 37.4083Z" fill="var(--tiny-second-color)" fill-rule="evenodd"/>
</svg>