<svg viewBox="0 0 48 48" xmlns="http://www.w3.org/2000/svg" xmlns:xlink="http://www.w3.org/1999/xlink" width="48.000000" height="48.000000">
  <path id="减去顶层" d="M15 5L31 5C33.2091 5 35 6.79077 35 9L35 11L39 11C41.2091 11 43 12.7908 43 15L43 21L40.9361 21C38.9295 19.733 36.5512 19 34 19C33.47 19 32.9473 19.0318 32.4336 19.0937C32.0727 18.7256 31.5671 18.5 31 18.5C30.064 18.5 29.2956 19.1146 29.0684 19.9703C28.3715 20.2568 27.7047 20.602 27.0743 21L17 21L17 20.5C17 19.3799 16.12 18.5 15 18.5C13.88 18.5 13 19.3799 13 20.5L13 21L3 21L3 15C3 12.7908 4.79086 11 7 11L11 11L11 9C11 6.79077 12.7909 5 15 5ZM23.0464 25L17 25L17 26.5C17 27.6201 16.12 28.5 15 28.5C13.88 28.5 13 27.6201 13 26.5L13 25L3 25L3 38C3 40.2092 4.79086 42 7 42L25.7072 42C22.8341 39.6124 21 36.0141 21 32C21 29.4217 21.7517 27.02 23.0464 25Z" fill="var(--tiny-first-color, #191919)" fill-rule="evenodd"/>
  <path id="减去顶层" d="M23 32C23 25.92 27.94 21 34 21C40.08 21 45 25.92 45 32C45 38.06 40.08 43 34 43C27.94 43 23 38.06 23 32ZM35.5 26.0001L35.5 30.0001C35.5 30.8401 34.84 31.5001 34 31.5001C33.16 31.5001 32.5 30.8401 32.5 30.0001L32.5 26.0001C32.5 25.1601 33.16 24.5001 34 24.5001C34.84 24.5001 35.5 25.1601 35.5 26.0001ZM37.182 28.8179C36.588 28.2239 36.588 27.2905 37.182 26.6966C37.7759 26.1026 38.7093 26.1026 39.3033 26.6966C39.6661 27.0594 39.9861 27.4506 40.263 27.8702L40.2638 27.8714C40.5144 28.2511 40.7298 28.654 40.91 29.0801C41.0898 29.5051 41.2285 29.9393 41.3261 30.3824L41.3261 30.3825C41.442 30.9089 41.5 31.448 41.5 31.9999C41.5 32.5518 41.442 33.0909 41.3261 33.6173C41.2285 34.0605 41.0898 34.4946 40.91 34.9197C40.7296 35.3463 40.5139 35.7496 40.263 36.1297C39.986 36.5492 39.6661 36.9403 39.3033 37.3032C38.9405 37.666 38.5494 37.9858 38.1299 38.2628L38.1298 38.2629C37.7497 38.5138 37.3464 38.7294 36.9198 38.9099C36.4947 39.0897 36.0606 39.2284 35.6175 39.326C35.0911 39.4419 34.5519 39.4999 34 39.4999C33.4481 39.4999 32.909 39.4419 32.3826 39.326C31.9394 39.2284 31.5053 39.0897 31.0802 38.9099C30.6536 38.7294 30.2503 38.5138 29.8702 38.2629L29.8695 38.2624C29.4503 37.9855 29.0593 37.6658 28.6967 37.3032C28.3339 36.9403 28.0139 36.5491 27.737 36.1296C27.4861 35.7496 27.2704 35.3462 27.09 34.9197C26.9102 34.4946 26.7715 34.0605 26.6739 33.6174C26.558 33.091 26.5 32.5518 26.5 31.9999C26.5 31.448 26.558 30.9088 26.6739 30.3824L26.6739 30.3824C26.7715 29.9392 26.9102 29.5051 27.09 29.0801C27.2704 28.6535 27.4861 28.2502 27.737 27.8701L27.737 27.8701L27.737 27.8701L27.737 27.8701C28.014 27.4506 28.3339 27.0594 28.6967 26.6966C29.2907 26.1026 30.224 26.1026 30.818 26.6966C31.412 27.2905 31.412 28.2239 30.818 28.8179C30.5931 29.0428 30.3957 29.2857 30.2258 29.5465C30.0817 29.7677 29.9575 30.0018 29.853 30.2487C29.7522 30.4871 29.6729 30.7306 29.6153 30.979C29.5384 31.3104 29.5 31.6507 29.5 31.9999C29.5 32.3491 29.5384 32.6894 29.6153 33.0207L29.6153 33.0208C29.673 33.2692 29.7522 33.5126 29.853 33.751C29.9575 33.998 30.0817 34.2321 30.2258 34.4533C30.3957 34.7141 30.5931 34.9569 30.818 35.1819C31.0429 35.4068 31.2858 35.6042 31.5466 35.7741C31.7678 35.9181 32.0019 36.0424 32.2489 36.1469C32.4873 36.2477 32.7307 36.3269 32.9791 36.3846L32.9792 36.3846L32.9792 36.3846C33.3105 36.4614 33.6508 36.4999 34 36.4999C34.3492 36.4999 34.6895 36.4614 35.0209 36.3846C35.2693 36.3269 35.5127 36.2477 35.7511 36.1469C35.9981 36.0424 36.2322 35.9181 36.4533 35.7741C36.7142 35.6042 36.957 35.4068 37.182 35.1819C37.4069 34.9569 37.6043 34.7141 37.7742 34.4533C37.9183 34.2321 38.0425 33.998 38.147 33.751C38.2478 33.5126 38.3271 33.2692 38.3847 33.0207L38.3847 33.0207C38.4616 32.6893 38.5 32.3491 38.5 31.9999C38.5 31.6507 38.4616 31.3104 38.3847 30.979L38.3847 30.979C38.3271 30.7306 38.2478 30.4872 38.147 30.2487C38.0425 30.0018 37.9183 29.7677 37.7742 29.5465L37.7742 29.5465L37.7742 29.5465C37.6043 29.2857 37.4069 29.0428 37.182 28.8179Z" fill="var(--tiny-second-color, #aeaeAE)" fill-rule="evenodd"/>
</svg>