<svg viewBox="0 0 48 48" xmlns="http://www.w3.org/2000/svg" xmlns:xlink="http://www.w3.org/1999/xlink" width="48.000000" height="48.000000" fill="none">
  <path id="path" d="M24 17.7002C27.3075 17.7002 30.0375 20.2727 30.2738 23.5539L30.2738 23.9739L30.2738 38.7002C30.2738 42.0077 27.7013 44.7377 24.42 44.9739L24 45.0002L9.27375 45.0002C5.96625 45.0002 3.23625 42.4014 3 39.1202L3 38.7002L3 23.9739C3 20.6664 5.5725 17.9364 8.85375 17.7002L9.27375 17.7002L24 17.7002ZM16.65 22.7664L16.3612 22.7927C15.6788 22.8977 15.075 23.2914 14.76 23.8952L14.655 24.1577L9.93 37.1777C9.7725 37.9389 10.14 38.9364 10.875 39.1989C11.0325 39.2514 11.2163 39.3039 11.4 39.3039C11.9775 39.3039 12.5025 38.9889 12.765 38.4902L13.6838 36.0752L19.6425 36.0752L20.43 38.2539C20.6663 38.8839 21.27 39.3039 21.9 39.3039C22.0837 39.3039 22.2675 39.2514 22.4513 39.1989C23.1863 38.9364 23.6062 38.1752 23.4487 37.4402L18.6712 24.1577C18.3563 23.3177 17.5688 22.7664 16.65 22.7664ZM16.65 27.8589L18.4875 32.9252L14.8125 32.9252L16.65 27.8589Z" fill="var(--tiny-first-color, #191919)" fill-rule="nonzero"/>
  <path id="path" d="M24 17.7002C27.3075 17.7002 30.0375 20.2727 30.2738 23.5539L30.2738 23.9739L30.2738 38.7002C30.2738 42.0077 27.7013 44.7377 24.42 44.9739L24 45.0002L9.27375 45.0002C5.96625 45.0002 3.23625 42.4014 3 39.1202L3 38.7002L3 23.9739C3 20.6664 5.5725 17.9364 8.85375 17.7002L9.27375 17.7002L24 17.7002ZM16.65 22.7664L16.3612 22.7927C15.6788 22.8977 15.075 23.2914 14.76 23.8952L14.655 24.1577L9.93 37.1777C9.7725 37.9389 10.14 38.9364 10.875 39.1989C11.0325 39.2514 11.2163 39.3039 11.4 39.3039C11.9775 39.3039 12.5025 38.9889 12.765 38.4902L13.6838 36.0752L19.6425 36.0752L20.43 38.2539C20.6663 38.8839 21.27 39.3039 21.9 39.3039C22.0837 39.3039 22.2675 39.2514 22.4513 39.1989C23.1863 38.9364 23.6062 38.1752 23.4487 37.4402L18.6712 24.1577C18.3563 23.3177 17.5688 22.7664 16.65 22.7664ZM16.65 27.8589L18.4875 32.9252L14.8125 32.9252L16.65 27.8589Z" fill="var(--tiny-second-color, #aeaeAE)" fill-rule="nonzero"/>
  <path id="减去顶层" d="M39.4799 1.99854L25.493 1.99854C21.3469 1.99854 18 5.35539 18 9.49153L18 14.5001L23.5 14.5001C24.7219 14.5001 25.8926 14.7193 26.975 15.1204C26.746 14.592 26.5364 14.0599 26.3422 13.5278C26.3022 13.4378 26.2723 13.3479 26.2423 13.268L24.5139 13.268C23.6747 13.268 23.0153 12.6086 23.0153 11.7694C23.0153 10.9302 23.6747 10.2708 24.5139 10.2708L31.0678 10.2708C30.9978 10.021 30.8979 9.7313 30.7681 9.42159C30.6981 9.24176 30.6382 9.0919 30.5882 8.97201C30.2585 8.20273 30.5982 7.34353 31.3675 7.00385C32.1268 6.66417 32.996 7.00385 33.3357 7.77313C33.4056 7.93298 33.4755 8.11281 33.5654 8.33261C33.7353 8.7722 33.8752 9.18181 33.985 9.54148C34.045 9.78125 34.1049 10.021 34.1649 10.2708L40.499 10.2708C41.3382 10.2708 41.9976 10.9302 41.9976 11.7694C41.9976 12.6086 41.3382 13.268 40.499 13.268L38.5108 13.268C38.4808 13.3479 38.4509 13.4378 38.4109 13.5278C38.1412 14.2671 37.8414 15.0064 37.5018 15.7357C37.0222 16.7747 36.5027 17.7238 35.9532 18.593C35.5036 19.2924 35.0441 19.9318 34.5645 20.5112C34.8542 20.711 35.1639 20.9108 35.4836 21.1007C36.2329 21.5403 37.0422 21.9399 37.9314 22.2896C38.5708 22.5393 39.2102 22.7591 39.8596 22.9389C40.1693 23.0289 40.419 23.0888 40.5889 23.1288C41.4081 23.2886 41.9276 24.0679 41.7578 24.8971C41.5879 25.7163 40.8087 26.2259 39.9894 26.066C39.7497 26.0161 39.43 25.9361 39.0503 25.8262C38.311 25.6164 37.5717 25.3667 36.8324 25.0769C35.7934 24.6673 34.8442 24.2078 33.9551 23.6882C33.779 23.5814 33.606 23.4735 33.4362 23.364C33.4783 23.7369 33.5 24.116 33.5 24.5001L33.5 30.9714L39.4799 30.9714C43.616 30.9714 46.9729 27.6146 46.9729 23.4784L46.9729 9.49153C46.9729 5.35539 43.616 1.99854 39.4799 1.99854ZM34.7843 14.4769C34.9641 14.0772 35.144 13.6676 35.3038 13.268L29.4493 13.268C29.6091 13.6676 29.789 14.0772 29.9688 14.4769C30.3984 15.386 30.848 16.2252 31.3275 16.9945C31.6672 17.524 32.0169 18.0136 32.3766 18.4531C32.7362 18.0136 33.0759 17.524 33.4156 16.9945C33.9051 16.2252 34.3547 15.386 34.7843 14.4769Z" fill="var(--tiny-first-color, #191919)" fill-rule="evenodd"/>
</svg>
