<svg viewBox="0 0 48 48" xmlns="http://www.w3.org/2000/svg" xmlns:xlink="http://www.w3.org/1999/xlink" width="48.000000" height="48.000000" fill="none">
  <path id="path7" d="M39.985 2.03809L25.9981 2.03809C21.852 2.03809 18.5051 5.39495 18.5051 9.53108L18.5051 14.0269L23.5005 14.0269C24.9391 14.0269 26.2878 14.2866 27.5267 14.7962C27.9363 14.966 28.3359 15.1658 28.7256 15.3856L31.5629 7.99252C31.6428 7.78271 31.7527 7.61287 31.9026 7.473C32.0425 7.32314 32.2123 7.21324 32.4221 7.13332C32.8917 6.95349 33.2813 6.93351 33.611 7.07338C33.9307 7.22324 34.1805 7.52296 34.3603 7.99252L40.5545 23.9776C40.8542 24.7568 40.4846 25.616 39.6953 25.9158C38.916 26.2155 38.0668 25.8358 37.7571 25.0566L36.2285 21.0903L33.4412 21.0903C33.8008 22.1593 33.9906 23.2982 33.9906 24.5171L33.9906 31.011L39.985 31.011C44.1212 31.011 47.478 27.6541 47.478 23.518L47.478 9.53108C47.478 5.39495 44.1212 2.03809 39.985 2.03809ZM31.8027 18.0931L35.0596 18.0931L32.9716 12.6981L31.1733 17.3637C31.3931 17.6035 31.6129 17.8433 31.8027 18.0931Z" fill="var(--tiny-first-color)" fill-rule="evenodd"/>
  <path id="path8" d="M23.5004 17.0244L9.51353 17.0244C5.36741 17.0244 2.02054 20.3813 2.02054 24.5174L2.02054 38.5043C2.02054 42.6405 5.36741 45.9973 9.51353 45.9973L23.5004 45.9973C27.6366 45.9973 30.9934 42.6405 30.9934 38.5043L30.9934 24.5174C30.9934 20.3813 27.6366 17.0244 23.5004 17.0244ZM15.388 22.0297C16.1473 21.69 17.0165 22.0297 17.3562 22.799C17.4261 22.9589 17.4961 23.1387 17.586 23.3585C17.7558 23.7981 17.8957 24.2077 18.0056 24.5674C18.0655 24.8071 18.1255 25.0469 18.1854 25.2967L24.5195 25.2967C25.3587 25.2967 26.0181 25.9561 26.0181 26.7953C26.0181 27.6345 25.3587 28.2939 24.5195 28.2939L22.5314 28.2939C22.5014 28.3738 22.4714 28.4637 22.4314 28.5536C22.1617 29.2929 21.862 30.0322 21.5223 30.7616C21.0427 31.8006 20.5232 32.7497 19.9737 33.6189C19.5242 34.3182 19.0646 34.9576 18.585 35.5371C18.8748 35.7369 19.1845 35.9367 19.5042 36.1265C20.2535 36.5661 21.0627 36.9658 21.9519 37.3154C22.5913 37.5652 23.2307 37.785 23.8801 37.9648C24.1898 38.0547 24.4396 38.1147 24.6094 38.1546C25.4286 38.3145 25.9482 39.0938 25.7783 39.923C25.6085 40.7422 24.8292 41.2518 24.01 41.0919C23.7702 41.0419 23.4505 40.962 23.0708 40.8521C22.3315 40.6423 21.5922 40.3926 20.8529 40.1028C19.8139 39.6932 18.8648 39.2336 17.9756 38.7141C17.4161 38.3744 16.8866 38.0248 16.3971 37.6451C15.9075 38.0248 15.378 38.3744 14.8086 38.7141C13.9294 39.2336 12.9803 39.6932 11.9413 40.1028C11.2019 40.3926 10.4626 40.6423 9.72333 40.8521C9.34369 40.962 9.02399 41.0419 8.78421 41.0919C7.96498 41.2518 7.18571 40.7422 7.01587 39.923C6.84602 39.0938 7.35555 38.3145 8.18477 38.1546C8.35461 38.1147 8.60438 38.0547 8.91409 37.9648C9.55349 37.785 10.2029 37.5652 10.8423 37.3154C11.7315 36.9658 12.5407 36.5661 13.29 36.1265C13.6097 35.9367 13.9194 35.7369 14.2091 35.5371C13.7296 34.9576 13.27 34.3182 12.8204 33.6189C12.271 32.7497 11.7514 31.8006 11.2719 30.7616C10.9322 30.0322 10.6325 29.2929 10.3627 28.5536C10.3228 28.4637 10.2928 28.3738 10.2628 28.2939L8.53445 28.2939C7.69523 28.2939 7.03585 27.6345 7.03585 26.7953C7.03585 25.9561 7.69523 25.2967 8.53445 25.2967L15.0883 25.2967C15.0184 25.0469 14.9185 24.7572 14.7886 24.4475C14.7187 24.2676 14.6587 24.1178 14.6088 23.9979C14.2791 23.2286 14.6188 22.3694 15.388 22.0297ZM18.8048 29.5027C18.9847 29.1031 19.1645 28.6935 19.3244 28.2939L13.4698 28.2939C13.6297 28.6935 13.8095 29.1031 13.9893 29.5027C14.4189 30.4119 14.8685 31.2511 15.3481 32.0204C15.6878 32.5499 16.0374 33.0394 16.3971 33.479C16.7568 33.0394 17.0964 32.5499 17.4361 32.0204C17.9257 31.2511 18.3752 30.4119 18.8048 29.5027Z" fill="var(--tiny-first-color)" fill-rule="evenodd"/>
  <path id="path8" d="M23.5004 17.0244L9.5135 17.0244C5.36738 17.0244 2.02051 20.3813 2.02051 24.5174L2.02051 38.5043C2.02051 42.6405 5.36738 45.9973 9.5135 45.9973L23.5004 45.9973C27.6365 45.9973 30.9934 42.6405 30.9934 38.5043L30.9934 24.5174C30.9934 20.3813 27.6365 17.0244 23.5004 17.0244ZM15.388 22.0297C16.1473 21.69 17.0165 22.0297 17.3562 22.799C17.4261 22.9589 17.496 23.1387 17.5859 23.3585C17.7558 23.7981 17.8957 24.2077 18.0056 24.5674C18.0655 24.8071 18.1254 25.0469 18.1854 25.2967L24.5195 25.2967C25.3587 25.2967 26.0181 25.9561 26.0181 26.7953C26.0181 27.6345 25.3587 28.2939 24.5195 28.2939L22.5313 28.2939C22.5014 28.3738 22.4714 28.4637 22.4314 28.5536C22.1617 29.2929 21.8619 30.0322 21.5223 30.7616C21.0427 31.8006 20.5232 32.7497 19.9737 33.6189C19.5241 34.3182 19.0646 34.9576 18.585 35.5371C18.8747 35.7369 19.1845 35.9367 19.5042 36.1265C20.2535 36.5661 21.0627 36.9658 21.9519 37.3154C22.5913 37.5652 23.2307 37.785 23.8801 37.9648C24.1898 38.0547 24.4395 38.1147 24.6094 38.1546C25.4286 38.3145 25.9481 39.0938 25.7783 39.923C25.6084 40.7422 24.8292 41.2518 24.0099 41.0919C23.7702 41.0419 23.4505 40.962 23.0708 40.8521C22.3315 40.6423 21.5922 40.3926 20.8529 40.1028C19.8139 39.6932 18.8648 39.2336 17.9756 38.7141C17.4161 38.3744 16.8866 38.0248 16.3971 37.6451C15.9075 38.0248 15.378 38.3744 14.8085 38.7141C13.9294 39.2336 12.9803 39.6932 11.9412 40.1028C11.2019 40.3926 10.4626 40.6423 9.7233 40.8521C9.34366 40.962 9.02396 41.0419 8.78418 41.0919C7.96495 41.2518 7.18568 40.7422 7.01584 39.923C6.84599 39.0938 7.35552 38.3145 8.18474 38.1546C8.35458 38.1147 8.60435 38.0547 8.91406 37.9648C9.55346 37.785 10.2029 37.5652 10.8423 37.3154C11.7314 36.9658 12.5407 36.5661 13.29 36.1265C13.6097 35.9367 13.9194 35.7369 14.2091 35.5371C13.7296 34.9576 13.27 34.3182 12.8204 33.6189C12.2709 32.7497 11.7514 31.8006 11.2719 30.7616C10.9322 30.0322 10.6325 29.2929 10.3627 28.5536C10.3227 28.4637 10.2928 28.3738 10.2628 28.2939L8.53442 28.2939C7.6952 28.2939 7.03582 27.6345 7.03582 26.7953C7.03582 25.9561 7.6952 25.2967 8.53442 25.2967L15.0883 25.2967C15.0183 25.0469 14.9184 24.7572 14.7886 24.4475C14.7186 24.2676 14.6587 24.1178 14.6087 23.9979C14.279 23.2286 14.6187 22.3694 15.388 22.0297ZM18.8048 29.5027C18.9846 29.1031 19.1645 28.6935 19.3243 28.2939L13.4698 28.2939C13.6296 28.6935 13.8095 29.1031 13.9893 29.5027C14.4189 30.4119 14.8685 31.2511 15.348 32.0204C15.6877 32.5499 16.0374 33.0394 16.3971 33.479C16.7567 33.0394 17.0964 32.5499 17.4361 32.0204C17.9256 31.2511 18.3752 30.4119 18.8048 29.5027Z" fill="var(--tiny-second-color)" fill-rule="evenodd"/>
</svg>