<svg viewBox="0 0 48 48" xmlns="http://www.w3.org/2000/svg" xmlns:xlink="http://www.w3.org/1999/xlink" width="48.000000" height="48.000000">
  <path id="形状结合" d="M24 4C28.4341 4 32.6516 5.44838 36.1066 8.07848C36.7657 8.58028 36.8933 9.52142 36.3915 10.1806C35.8897 10.8397 34.9486 10.9673 34.2894 10.4655C31.3523 8.22962 27.7718 7 24 7C14.6117 7 7 14.6111 7 24C7 33.3876 14.6124 41 24 41C33.3889 41 41 33.3883 41 24C41 20.2292 39.7717 16.6507 37.5362 13.7122C37.0346 13.0529 37.1625 12.1118 37.8218 11.6102C38.4811 11.1086 39.4222 11.2365 39.9238 11.8958C42.5532 15.352 44 19.5672 44 24C44 35.0451 35.0458 44 24 44C12.9556 44 4 35.0444 4 24C4 12.9542 12.9549 4 24 4ZM34 24.5C34.8284 24.5 35.5 25.1716 35.5 26C35.5 32.3518 30.3511 37.5 24 37.5C17.6489 37.5 12.5 32.3518 12.5 26C12.5 25.1716 13.1716 24.5 14 24.5L34 24.5ZM32.366 27.4988L15.632 27.4988C16.3613 31.2903 19.6309 34.3014 23.5882 34.4902L24 34.5C28.142 34.5 31.6115 31.421 32.366 27.4988ZM32 15.625C33.3804 15.625 34.5 16.7446 34.5 18.125C34.5 19.5037 33.3802 20.625 32 20.625C30.6198 20.625 29.5 19.5037 29.5 18.125C29.5 16.7446 30.6196 15.625 32 15.625ZM16 15.625C17.3804 15.625 18.5 16.7446 18.5 18.125C18.5 19.5037 17.3802 20.625 16 20.625C14.6198 20.625 13.5 19.5037 13.5 18.125C13.5 16.7446 14.6196 15.625 16 15.625Z" fill="var(--tiny-first-color)" fill-rule="evenodd"/>
  <path id="形状结合" d="M34 24.5C34.8284 24.5 35.5 25.1716 35.5 26C35.5 32.3518 30.3511 37.5 24 37.5C17.6489 37.5 12.5 32.3518 12.5 26C12.5 25.1716 13.1716 24.5 14 24.5L34 24.5ZM32.366 27.4988L15.632 27.4988C16.3613 31.2902 19.6309 34.3014 23.5882 34.4902L24 34.5C28.142 34.5 31.6115 31.421 32.366 27.4988ZM32 15.625C33.3804 15.625 34.5 16.7446 34.5 18.125C34.5 19.5037 33.3802 20.625 32 20.625C30.6198 20.625 29.5 19.5037 29.5 18.125C29.5 16.7446 30.6196 15.625 32 15.625ZM16 15.625C17.3804 15.625 18.5 16.7446 18.5 18.125C18.5 19.5037 17.3802 20.625 16 20.625C14.6198 20.625 13.5 19.5037 13.5 18.125C13.5 16.7446 14.6196 15.625 16 15.625Z" fill="var(--tiny-second-color)" fill-rule="evenodd"/>
</svg>