<svg viewBox="0 0 48 48" xmlns="http://www.w3.org/2000/svg" xmlns:xlink="http://www.w3.org/1999/xlink" width="48.000000" height="48.000000" fill="none">
  <path id="形状结合" d="M24 4C35.028 4 44 12.972 44 24C44 35.028 35.028 44 24 44C12.972 44 4 35.028 4 24C4 12.972 12.972 4 24 4ZM33.348 25.999L14.652 25.999C14.266 25.999 13.952 26.315 13.952 26.701C13.952 32.243 18.458 36.749 24 36.749C29.542 36.749 34.048 32.243 34.048 26.701C34.048 26.315 33.734 25.999 33.348 25.999ZM32 15.623C30.622 15.623 29.5 16.745 29.5 18.123C29.5 19.501 30.622 20.623 32 20.623C33.378 20.623 34.5 19.501 34.5 18.123C34.5 16.745 33.378 15.623 32 15.623ZM16 15.623C14.622 15.623 13.5 16.745 13.5 18.123C13.5 19.501 14.622 20.623 16 20.623C17.378 20.623 18.5 19.501 18.5 18.123C18.5 16.745 17.378 15.623 16 15.623Z" fill="var(--tiny-first-color)" fill-rule="evenodd"/>
  <path id="形状结合" d="M33.348 25.999L14.652 25.999C14.266 25.999 13.952 26.315 13.952 26.701C13.952 32.243 18.458 36.749 24 36.749C29.542 36.749 34.048 32.243 34.048 26.701C34.048 26.315 33.734 25.999 33.348 25.999ZM32 15.623C30.622 15.623 29.5 16.745 29.5 18.123C29.5 19.501 30.622 20.623 32 20.623C33.378 20.623 34.5 19.501 34.5 18.123C34.5 16.745 33.378 15.623 32 15.623ZM16 15.623C14.622 15.623 13.5 16.745 13.5 18.123C13.5 19.501 14.622 20.623 16 20.623C17.378 20.623 18.5 19.501 18.5 18.123C18.5 16.745 17.378 15.623 16 15.623Z" fill="var(--tiny-second-color)" fill-rule="evenodd"/>
</svg>