<svg viewBox="0 0 48 48" xmlns="http://www.w3.org/2000/svg" xmlns:xlink="http://www.w3.org/1999/xlink" width="48.000000" height="48.000000">
  <path id="形状结合" d="M38.0004 18.0005C39.1064 18.0005 40.0004 18.8945 40.0004 20.0005C40.0004 21.1065 39.1064 22.0005 38.0004 22.0005L6.82838 22.0005L9.41438 24.5865C10.1964 25.3685 10.1964 26.6325 9.41438 27.4145C9.02438 27.8045 8.51238 28.0005 8.00038 28.0005C7.48838 28.0005 6.97638 27.8045 6.58638 27.4145L0.586379 21.4145C0.0143785 20.8425 -0.157621 19.9825 0.152379 19.2345C0.460379 18.4865 1.19238 18.0005 2.00038 18.0005L38.0004 18.0005ZM33.4144 0.5865L39.4144 6.5865C39.9864 7.1585 40.1584 8.0185 39.8484 8.7665C39.5404 9.5145 38.8084 10.0005 38.0004 10.0005L2.00038 10.0005C0.894379 10.0005 0.000378609 9.1065 0.000378609 8.0005C0.000378609 6.8945 0.894379 6.0005 2.00038 6.0005L33.1724 6.0005L30.5864 3.4145C29.8044 2.6325 29.8044 1.3685 30.5864 0.5865C31.3684 -0.1955 32.6324 -0.1955 33.4144 0.5865Z" fill="var(--tiny-first-color)" fill-rule="evenodd" transform="matrix(0,-1,1,0,9.99976,44.0005)"/>
  <path id="形状结合" d="M33.4144 0.5865L39.4144 6.5865C39.9864 7.1585 40.1584 8.0185 39.8484 8.7665C39.5404 9.5145 38.8084 10.0005 38.0004 10.0005L2.00038 10.0005C0.894379 10.0005 0.000378549 9.1065 0.000378549 8.0005C0.000378549 6.8945 0.894379 6.0005 2.00038 6.0005L33.1724 6.0005L30.5864 3.4145C29.8044 2.6325 29.8044 1.3685 30.5864 0.5865C31.3684 -0.1955 32.6324 -0.1955 33.4144 0.5865Z" fill="var(--tiny-second-color)" fill-rule="evenodd" transform="matrix(0,-1,1,0,9.99951,44.0005)"/>
</svg>