<svg viewBox="0 0 48 48" xmlns="http://www.w3.org/2000/svg" xmlns:xlink="http://www.w3.org/1999/xlink" width="48.000000" height="48.000000" fill="none">
  <path id="矢量 12" d="M26.8092 42.9312L37.6423 33.1623C38.5068 32.3826 39.0005 31.2764 39.0005 30.1155C39.0005 27.8396 37.1421 26 34.8561 26L13.1449 26C11.9786 26 10.8656 26.4881 10.0798 27.3455C8.53561 29.0304 8.66389 31.6402 10.3651 33.168L21.2432 42.9369C22.824 44.3566 25.2314 44.3541 26.8092 42.9312ZM12.0832 31.2548L22.9613 41.0238C23.5633 41.5644 24.4863 41.5634 25.0871 41.0216L35.9202 31.2526C36.2449 30.9598 36.4291 30.5472 36.4291 30.1155C36.4291 29.2657 35.7277 28.5714 34.8561 28.5714L13.1449 28.5714C12.6984 28.5714 12.2735 28.7578 11.9756 29.0829C11.3981 29.7129 11.4458 30.6824 12.0832 31.2548Z" fill="var(--tiny-first-color, #191919)" fill-rule="evenodd"/>
  <path id="矢量 12" d="M17.8087 16.9312L28.6418 7.16225C29.5063 6.38264 30 5.27637 30 4.11548C30 1.83963 28.1416 0 25.8556 0L4.14444 0C2.97813 0 1.86511 0.488107 1.07933 1.34546C-0.464879 3.03045 -0.3366 5.64017 1.36461 7.168L12.2427 16.9369C13.8235 18.3566 16.2309 18.3541 17.8087 16.9312ZM3.08271 5.25481L13.9608 15.0238C14.5628 15.5644 15.4858 15.5634 16.0867 15.0216L26.9197 5.25262C27.2444 4.95975 27.4286 4.54719 27.4286 4.11548C27.4286 3.26566 26.7273 2.57143 25.8556 2.57143L4.14446 2.57143C3.69787 2.57143 3.27301 2.75778 2.97507 3.08287C2.39764 3.71286 2.44527 4.68237 3.08271 5.25481Z" fill="var(--tiny-second-color, #aeaeAE)" fill-rule="evenodd" transform="matrix(1,0,0,-1,9.00049,22)"/>
</svg>
