<svg viewBox="0 0 48.0001 48" xmlns="http://www.w3.org/2000/svg" xmlns:xlink="http://www.w3.org/1999/xlink" width="48.000061" height="48.000000" fill="none">
  <path id="矢量 95" d="M17.2 4.5C19.6876 4.5 21.7238 6.43256 21.8892 8.87823L21.9 9.20001L21.9 16.0406C21.9 16.8691 21.2285 17.5406 20.4 17.5406C19.5716 17.5406 18.9 16.8691 18.9 16.0406L18.9 9.20001C18.9 8.33331 18.2515 7.61816 17.4133 7.51324L17.2 7.5L9.20002 7.5C8.33332 7.5 7.61817 8.1485 7.51325 8.98676L7.5 9.20001L7.5 38.8C7.5 39.6667 8.1485 40.3818 8.98676 40.4868L9.20002 40.5L17.2 40.5C18.0667 40.5 18.7819 39.8515 18.8868 39.0132L18.9 38.8L18.9 31.9593C18.9 31.1309 19.5716 30.4594 20.4 30.4594C21.2285 30.4594 21.9 31.1309 21.9 31.9593L21.9 38.8C21.9 41.2876 19.9675 43.3238 17.5218 43.4891L17.2 43.5L9.20002 43.5C6.7124 43.5 4.67621 41.5674 4.51086 39.1218L4.5 38.8L4.5 9.20001C4.5 6.7124 6.43256 4.67621 8.87824 4.51086L9.20002 4.5L17.2 4.5ZM38.8 4.5C41.2876 4.5 43.3238 6.43256 43.4892 8.87823L43.5 9.20001L43.5 38.8C43.5 41.2876 41.5675 43.3238 39.1218 43.4891L38.8 43.5L30.8 43.5C28.3125 43.5 26.2762 41.5674 26.1109 39.1218L26.1 38.8L26.1 31.9593C26.1 31.1309 26.7716 30.4594 27.6 30.4594C28.4284 30.4594 29.1 31.1309 29.1 31.9593L29.1 38.8C29.1 39.6667 29.7486 40.3818 30.5867 40.4868L30.8 40.5L38.8 40.5C39.6667 40.5 40.3819 39.8515 40.4868 39.0132L40.5 38.8L40.5 9.20001C40.5 8.33331 39.8515 7.61816 39.0133 7.51324L38.8 7.5L30.8 7.5C29.9334 7.5 29.2182 8.1485 29.1132 8.98676L29.1 9.20001L29.1 16.0406C29.1 16.8691 28.4284 17.5406 27.6 17.5406C26.7716 17.5406 26.1 16.8691 26.1 16.0406L26.1 9.20001C26.1 6.7124 28.0325 4.67621 30.4782 4.51086L30.8 4.5L38.8 4.5ZM17.3159 19.9697C17.745 19.3776 17.6872 18.5449 17.1487 18.0183C16.5563 17.4391 15.6068 17.4499 15.0276 18.0422L10.2275 22.9513C9.80359 23.5336 9.70942 24.5187 10.2275 25.0487L15.0276 29.9578C15.6099 30.4001 16.6102 30.5082 17.1487 29.9817C17.591 29.3994 17.6991 28.3989 17.1726 27.8603L14.864 25.5L21.7 25.5L21.9036 25.4863C22.6357 25.387 23.2 24.7594 23.2 24C23.2 23.1716 22.5284 22.5 21.7 22.5L14.8621 22.5L17.3159 19.9697ZM33.5725 18.0422C32.9934 17.4499 32.0437 17.4391 31.4514 18.0183C30.9129 18.5449 30.8551 19.3776 31.2842 19.9697L33.7361 22.5L26.9 22.5C26.0716 22.5 25.4 23.1716 25.4 24C25.4 24.7594 25.9644 25.387 26.6965 25.4863L26.9 25.5L33.734 25.5L31.4275 27.8603C30.901 28.3989 30.862 29.2327 31.3042 29.8149C31.8427 30.3414 32.8238 30.5472 33.406 30.1049L38.3726 25.0487C38.8908 24.5187 38.9379 23.7007 38.5139 23.1184L33.5725 18.0422Z" fill="var(--tiny-first-color)" fill-rule="evenodd"/>
  <path id="矢量 95" d="M17.3159 19.9697C17.745 19.3776 17.6872 18.5448 17.1487 18.0183C16.5563 17.4391 15.6067 17.4498 15.0276 18.0422L10.2275 22.9513C9.80356 23.5336 9.70938 24.5187 10.2275 25.0487L15.0276 29.9577C15.6098 30.4 16.6102 30.5081 17.1487 29.9816C17.591 29.3994 17.6991 28.3988 17.1726 27.8603L14.864 25.5L21.6999 25.5L21.9035 25.4863C22.6357 25.3869 23.1999 24.7594 23.1999 24C23.1999 23.1715 22.5284 22.5 21.6999 22.5L14.862 22.5L17.3159 19.9697ZM33.5725 18.0422C32.9933 17.4498 32.0437 17.4391 31.4514 18.0183C30.9129 18.5448 30.8551 19.3776 31.2842 19.9697L33.7361 22.5L26.9 22.5C26.0716 22.5 25.4 23.1715 25.4 24C25.4 24.7594 25.9643 25.3869 26.6965 25.4863L26.9 25.5L33.734 25.5L31.4275 27.8603C30.901 28.3988 30.8619 29.2326 31.3042 29.8149C31.8426 30.3414 32.8237 30.5471 33.406 30.1048L38.3725 25.0487C38.8907 24.5187 38.9379 23.7007 38.5139 23.1184L33.5725 18.0422Z" fill="var(--tiny-second-color)" fill-rule="evenodd"/>
</svg>