<svg viewBox="0 0 48 48" xmlns="http://www.w3.org/2000/svg" xmlns:xlink="http://www.w3.org/1999/xlink" width="48.000000" height="48.000000" fill="none">
  <path id="Stroke-1" d="M20.6726 6.99761C21.9842 4.33889 25.6837 4.24393 27.1657 6.71256L27.321 6.9974L31.797 16.0674C32.1636 16.8103 31.8586 17.7097 31.1157 18.0763C30.4347 18.4124 29.6222 18.1841 29.2091 17.5715L24.6306 8.32481C24.3968 7.85069 23.7677 7.80328 23.4546 8.18273L18.887 17.395C18.6998 17.7744 18.3629 18.054 17.9629 18.1709L17.758 18.2156L7.82205 19.6601C7.35711 19.7753 6.9979 20.3613 7.25275 20.7531L14.5986 27.9348C14.9018 28.2303 15.0637 28.6373 15.0512 29.0541L15.0303 29.2629L13.3078 39.319C13.2721 39.8057 13.7523 40.1695 14.2082 40.0382L23.2997 35.2736C23.6744 35.0766 24.1116 35.0484 24.5041 35.1892L33.5906 39.954C34.0457 40.1389 34.6697 39.8596 34.6856 39.3864L32.9635 29.2629C32.8919 28.8455 33.0003 28.4209 33.2556 28.0911L40.6416 20.8783C41.0231 20.5055 40.8667 19.8838 40.399 19.7112L35.1976 18.9375C34.3779 18.8181 33.8101 18.0567 33.9295 17.237C34.039 16.4855 34.6879 15.9458 35.4267 15.9531L35.6301 15.9689L40.6791 16.7045C43.6193 17.1268 44.8522 20.632 42.9449 22.8059L42.7364 23.0259L36.0539 29.5337L37.6323 38.7337C38.1087 41.5115 35.4492 43.7299 32.7919 42.865L32.5172 42.7644L32.2536 42.6388L23.9959 38.2957L15.7393 42.6392C13.2444 43.9494 10.3079 42.1067 10.3125 39.3137L10.3237 39.0215L10.3615 38.7336L11.9379 29.5317L5.26101 23.0255C3.24709 21.063 4.08028 17.7128 6.7146 16.8474L7.0037 16.7643L7.31176 16.7049L16.5439 15.3597L20.6726 6.99761Z" fill="var(--tiny-first-color, #191919)" fill-rule="evenodd"/>
</svg>
