<svg viewBox="0 0 48 48" xmlns="http://www.w3.org/2000/svg" xmlns:xlink="http://www.w3.org/1999/xlink" width="48.000000" height="48.000000" fill="none">
  <path id="形状结合" d="M24 4C28.4341 4 32.6516 5.44838 36.1066 8.07848C36.7657 8.58028 36.8933 9.52142 36.3915 10.1806C35.8897 10.8397 34.9486 10.9673 34.2894 10.4655C31.3523 8.22962 27.7718 7 24 7C14.6117 7 7 14.6111 7 24C7 33.3876 14.6124 41 24 41C33.3889 41 41 33.3883 41 24C41 20.2292 39.7717 16.6507 37.5362 13.7122C37.0346 13.0529 37.1625 12.1118 37.8218 11.6102C38.4811 11.1086 39.4222 11.2365 39.9238 11.8958C42.5532 15.352 44 19.5672 44 24C44 35.0451 35.0458 44 24 44C12.9556 44 4 35.0444 4 24C4 12.9542 12.9549 4 24 4ZM17.209 18.3176C17.209 15.6229 20.1249 13.9393 22.4589 15.2865L32.2949 20.9645C34.629 22.3118 34.629 25.6794 32.2951 27.0266L22.4589 32.7067C20.1249 34.0539 17.209 32.3703 17.209 29.6756L17.209 18.3176ZM20.9591 17.8847C20.6252 17.6919 20.209 17.9322 20.209 18.3176L20.209 29.6756C20.209 30.061 20.6252 30.3013 20.9589 30.1086L30.7951 24.4285C31.129 24.2358 31.129 23.7554 30.7951 23.5627L20.9591 17.8847Z" fill="var(--tiny-first-color)" fill-rule="evenodd"/>
  <path id="形状结合" d="M17.209 18.3176C17.209 15.6229 20.1249 13.9393 22.4589 15.2865L32.2949 20.9645C34.629 22.3118 34.629 25.6794 32.2951 27.0266L22.4589 32.7067C20.1249 34.0539 17.209 32.3703 17.209 29.6756L17.209 18.3176ZM20.9591 17.8847C20.6252 17.6919 20.209 17.9322 20.209 18.3176L20.209 29.6756C20.209 30.061 20.6252 30.3013 20.9589 30.1086L30.7951 24.4285C31.129 24.2358 31.129 23.7554 30.7951 23.5627L20.9591 17.8847Z" fill="var(--tiny-second-color)" fill-rule="evenodd"/>
</svg>