<svg viewBox="0 0 48 48" xmlns="http://www.w3.org/2000/svg" xmlns:xlink="http://www.w3.org/1999/xlink" width="48.000000" height="48.000000" fill="none">
  <path id="形状结合" d="M24 4C35.028 4 44 12.972 44 24C44 35.028 35.028 44 24 44C12.972 44 4 35.028 4 24C4 12.972 12.972 4 24 4ZM21.709 16.5866C20.375 15.8146 18.709 16.7766 18.709 18.3166L18.709 29.6766C18.709 31.2146 20.375 32.1786 21.709 31.4066L31.545 25.7286C32.879 24.9586 32.879 23.0326 31.545 22.2646L21.709 16.5866Z" fill="var(--tiny-first-color, #191919)" fill-rule="evenodd"/>
  <path id="形状结合" d="M21.709 16.5881C20.375 15.8161 18.709 16.7781 18.709 18.3181L18.709 29.6781C18.709 31.2161 20.375 32.1801 21.709 31.4081L31.545 25.7301C32.879 24.9601 32.879 23.0341 31.545 22.2661L21.709 16.5881Z" fill="var(--tiny-second-color, #aeaeAE)" fill-rule="evenodd"/>
</svg>
