<svg viewBox="0 0 48 48" xmlns="http://www.w3.org/2000/svg" xmlns:xlink="http://www.w3.org/1999/xlink" width="48.000000" height="48.000000" fill="none">
  <path id="形状结合" d="M11.492 17.25C13.288 17.25 14.75 18.71 14.75 20.508L14.75 35.992C14.75 37.79 13.288 39.25 11.492 39.25L8.506 39.25C6.71 39.25 5.25 37.79 5.25 35.992L5.25 20.508C5.25 18.71 6.71 17.25 8.506 17.25L11.492 17.25ZM39.492 25.25C41.288 25.25 42.75 26.71 42.75 28.508L42.75 35.992C42.75 37.79 41.288 39.25 39.492 39.25L36.506 39.25C34.71 39.25 33.25 37.79 33.25 35.992L33.25 28.508C33.25 26.71 34.71 25.25 36.506 25.25L39.492 25.25ZM25.492 8.75C27.288 8.75 28.75 10.21 28.75 12.008L28.75 35.992C28.75 37.79 27.288 39.25 25.492 39.25L22.506 39.25C20.71 39.25 19.25 37.79 19.25 35.992L19.25 12.008C19.25 10.21 20.71 8.75 22.506 8.75L25.492 8.75Z" fill="var(--tiny-first-color)" fill-rule="evenodd"/>
  <path id="形状结合" d="M39.492 25.25C41.288 25.25 42.75 26.71 42.75 28.508L42.75 35.992C42.75 37.79 41.288 39.25 39.492 39.25L36.506 39.25C34.71 39.25 33.25 37.79 33.25 35.992L33.25 28.508C33.25 26.71 34.71 25.25 36.506 25.25L39.492 25.25Z" fill="var(--tiny-second-color)" fill-rule="evenodd"/>
</svg>