<svg viewBox="0 0 48 48" xmlns="http://www.w3.org/2000/svg" xmlns:xlink="http://www.w3.org/1999/xlink" width="48.000000" height="48.000000">
  <path id="合并" d="M43.9821 13.2319C43.9821 9.92393 41.2921 7.23193 37.9821 7.23193L10.0181 7.23193C6.70807 7.23193 4.01807 9.92393 4.01807 13.2319L4.01807 28.8759C4.01807 32.1839 6.70807 34.8759 10.0181 34.8759L22.0001 34.8759C22.2761 34.8759 22.5001 35.0999 22.5001 35.3759L22.4981 37.7679L12.0001 37.7679C11.1721 37.7679 10.5001 38.4399 10.5001 39.2679C10.5001 40.0959 11.1721 40.7679 12.0001 40.7679L36.0001 40.7679C36.8281 40.7679 37.5001 40.0959 37.5001 39.2679C37.5001 38.4399 36.8281 37.7679 36.0001 37.7679L25.4981 37.7679L25.5001 35.3759C25.5001 33.4459 23.9301 31.8759 22.0001 31.8759L10.0181 31.8759C8.36407 31.8759 7.01807 30.5299 7.01807 28.8759L7.01807 13.2319C7.01807 11.5779 8.36407 10.2319 10.0181 10.2319L37.9821 10.2319C39.6361 10.2319 40.9821 11.5779 40.9821 13.2319L40.9821 28.8759C40.9821 30.5299 39.6361 31.8759 37.9821 31.8759L29.0001 31.8759C28.1721 31.8759 27.5001 32.5479 27.5001 33.3759C27.5001 34.2039 28.1721 34.8759 29.0001 34.8759L37.9821 34.8759C41.2921 34.8759 43.9821 32.1839 43.9821 28.8759L43.9821 13.2319ZM35.5738 15.025C36.0584 14.4774 36.0817 13.643 35.5969 13.0666C35.0637 12.4327 34.1174 12.3511 33.4835 12.8843L27.2991 17.0862L21.6432 13.7976C21.0957 13.419 20.3506 13.4437 19.8269 13.8832L12.4455 19.0981C11.9603 19.6451 12.0908 20.6388 12.5749 21.2158C13.122 21.701 13.9563 21.7254 14.5333 21.2413L20.7351 17.0362L26.3931 20.327C26.9411 20.7058 27.687 20.6806 28.2107 20.2401L35.5738 15.025ZM36.5 22L36.5 28C36.5 28.84 35.84 29.5 35 29.5C34.16 29.5 33.5 28.84 33.5 28L33.5 22C33.5 21.16 34.16 20.5 35 20.5C35.84 20.5 36.5 21.16 36.5 22ZM26.5 28L26.5 24C26.5 23.16 25.84 22.5 25 22.5C24.16 22.5 23.5 23.16 23.5 24L23.5 28C23.5 28.84 24.16 29.5 25 29.5C25.84 29.5 26.5 28.84 26.5 28ZM15.5 28L15.5 26C15.5 25.16 14.84 24.5 14 24.5C13.16 24.5 12.5 25.16 12.5 26L12.5 28C12.5 28.84 13.16 29.5 14 29.5C14.84 29.5 15.5 28.84 15.5 28Z" fill="var(--tiny-first-color, #191919)" fill-rule="evenodd"/>
  <path id="合并" d="M35.5968 13.0667C36.0816 13.643 36.0583 14.4774 35.5737 15.025L28.2105 20.2401C27.6868 20.6807 26.941 20.7058 26.393 20.327L20.735 17.0363L14.5331 21.2413C13.9562 21.7254 13.1218 21.701 12.5748 21.2158C12.0907 20.6389 11.9602 19.6451 12.4454 19.0981L19.8268 13.8832C20.3505 13.4437 21.0956 13.4191 21.6431 13.7976L27.299 17.0863L33.4834 12.8844C34.1173 12.3511 35.0635 12.4327 35.5968 13.0667ZM36.5 22L36.5 28C36.5 28.84 35.84 29.5 35 29.5C34.16 29.5 33.5 28.84 33.5 28L33.5 22C33.5 21.16 34.16 20.5 35 20.5C35.84 20.5 36.5 21.16 36.5 22ZM26.5 24L26.5 28C26.5 28.84 25.84 29.5 25 29.5C24.16 29.5 23.5 28.84 23.5 28L23.5 24C23.5 23.16 24.16 22.5 25 22.5C25.84 22.5 26.5 23.16 26.5 24ZM15.5 26L15.5 28C15.5 28.84 14.84 29.5 14 29.5C13.16 29.5 12.5 28.84 12.5 28L12.5 26C12.5 25.16 13.16 24.5 14 24.5C14.84 24.5 15.5 25.16 15.5 26Z" fill="var(--tiny-second-color, #aeaeAE)" fill-rule="evenodd"/>
</svg>