<svg viewBox="0 0 48 48" xmlns="http://www.w3.org/2000/svg" xmlns:xlink="http://www.w3.org/1999/xlink" width="48.000000" height="48.000000" fill="none">
  <path id="形状结合备份" d="M10.992 16.5C13.2044 16.5 15 18.2956 15 20.508L15 37.494C15 39.7064 13.2044 41.5 10.992 41.5L8.006 41.5C5.79357 41.5 4 39.7064 4 37.494L4 20.508C4 18.2956 5.79358 16.5 8.006 16.5L10.992 16.5ZM25.494 6.5C27.7064 6.5 29.5 8.29556 29.5 10.508L29.5 37.494C29.5 39.7064 27.7064 41.5 25.494 41.5L22.508 41.5C20.2941 41.5 18.5 39.7069 18.5 37.494L18.5 10.508C18.5 8.29507 20.2941 6.5 22.508 6.5L25.494 6.5ZM39.973 24.494C41.8791 24.494 43.5123 25.8312 43.9042 27.674C44.0765 28.4843 43.5593 29.2809 42.749 29.4532C42.0062 29.6111 41.275 29.1897 41.0255 28.4942C40.9392 28.0882 40.5547 27.5809 40.1504 27.5095L37.013 27.494C36.5128 27.494 36.0959 27.8555 36.0095 28.3309L35.993 37.478C35.993 37.9806 36.3535 38.3972 36.8296 38.4836L39.979 38.5C40.4765 38.5 40.8907 38.1408 40.9767 37.6667L40.993 32.9957C40.993 32.1672 41.6646 31.4957 42.493 31.4957C43.2524 31.4957 43.88 32.06 43.9793 32.7921L43.993 32.9957L43.993 37.484C43.993 39.6011 42.3556 41.3357 40.2786 41.489L39.979 41.5L37.013 41.5C34.893 41.5 33.1574 39.8599 33.004 37.7782L32.993 37.478L32.993 28.514C32.993 26.3959 34.6332 24.6586 36.713 24.505L37.013 24.494L39.973 24.494ZM10.992 19.5L8.006 19.5C7.45118 19.5 7 19.9517 7 20.508L7 37.494C7 38.0496 7.45043 38.5 8.006 38.5L10.992 38.5C11.5483 38.5 12 38.0488 12 37.494L12 20.508C12 19.9524 11.5476 19.5 10.992 19.5ZM25.494 9.5L22.508 9.5C21.9513 9.5 21.5 9.95155 21.5 10.508L21.5 37.494C21.5 38.0497 21.9506 38.5 22.508 38.5L25.494 38.5C26.0496 38.5 26.5 38.0496 26.5 37.494L26.5 10.508C26.5 9.95168 26.0488 9.5 25.494 9.5Z" fill="var(--tiny-first-color)" fill-rule="evenodd"/>
  <path id="形状结合备份" d="M39.9729 24.4941C41.879 24.4941 43.5122 25.8314 43.9041 27.6741C44.0764 28.4844 43.5592 29.281 42.7489 29.4533C42.0061 29.6113 41.2749 29.1899 41.0255 28.4944C40.9391 28.0884 40.5547 27.5811 40.1503 27.5097L37.0129 27.4941C36.5127 27.4941 36.0958 27.8557 36.0094 28.331L35.9929 37.4781C35.9929 37.9808 36.3535 38.3973 36.8295 38.4837L39.9789 38.5001C40.4764 38.5001 40.8907 38.141 40.9766 37.6669L40.9929 32.9958C40.9929 32.1674 41.6645 31.4958 42.4929 31.4958C43.2523 31.4958 43.8799 32.0601 43.9792 32.7923L43.9929 32.9958L43.9929 37.4841C43.9929 39.6013 42.3555 41.3358 40.2785 41.4891L39.9789 41.5001L37.0129 41.5001C34.893 41.5001 33.1573 39.86 33.0039 37.7784L32.9929 37.4781L32.9929 28.5141C32.9929 26.3961 34.6331 24.6587 36.7129 24.5052L37.0129 24.4941L39.9729 24.4941Z" fill="var(--tiny-second-color)" fill-rule="evenodd"/>
</svg>