<svg viewBox="0 0 48 48" xmlns="http://www.w3.org/2000/svg" xmlns:xlink="http://www.w3.org/1999/xlink" width="48.000000" height="48.000000">
  <path id="减去顶层" d="M37.9821 7.23242C41.1719 7.23242 43.789 9.73557 43.9719 12.8804L43.9821 13.2324L43.9821 28.8744C43.9821 32.0662 41.4789 34.6815 38.334 34.8642L37.9821 34.8744L25.4981 34.8744L25.4981 37.7664L35.9997 37.7676C36.8277 37.7676 37.4997 38.4396 37.4997 39.2676C37.4997 40.0956 36.8277 40.7676 35.9997 40.7676L11.9997 40.7676C11.1717 40.7676 10.4997 40.0956 10.4997 39.2676C10.4997 38.4396 11.1717 37.7676 11.9997 37.7676L22.4981 37.7664L22.4981 34.8744L10.0181 34.8744C6.82628 34.8744 4.211 32.3731 4.02827 29.2266L4.01807 28.8744L4.01807 13.2324C4.01807 10.0426 6.51935 7.42549 9.66589 7.24263L10.0181 7.23242L37.9821 7.23242ZM35.4335 14.4927C35.9181 13.9453 35.9415 13.1108 35.4567 12.5347C34.9234 11.9004 33.9771 11.8188 33.3432 12.352L27.1588 16.5542L21.5029 13.2656C20.9554 12.8867 20.2104 12.9116 19.6866 13.3511L12.3053 18.5659C11.82 19.1128 11.9506 20.1064 12.4347 20.6836C12.9817 21.1689 13.816 21.1933 14.393 20.709L20.5948 16.5039L26.2528 19.7949C26.8008 20.1738 27.5467 20.1484 28.0704 19.708L35.4335 14.4927ZM36.3598 27.4677L36.3598 21.4678C36.3598 20.6279 35.6998 19.9678 34.8598 19.9678C34.0198 19.9678 33.3598 20.6279 33.3598 21.4678L33.3598 27.4677C33.3598 28.3076 34.0198 28.9677 34.8598 28.9677C35.6998 28.9677 36.3598 28.3076 36.3598 27.4677ZM26.3598 27.4677L26.3598 23.4677C26.3598 22.6279 25.6998 21.9678 24.8598 21.9678C24.0198 21.9678 23.3598 22.6279 23.3598 23.4677L23.3598 27.4677C23.3598 28.3076 24.0198 28.9677 24.8598 28.9677C25.6998 28.9677 26.3598 28.3076 26.3598 27.4677ZM15.3598 27.4677L15.3598 25.4677C15.3598 24.6279 14.6998 23.9677 13.8598 23.9677C13.0198 23.9677 12.3598 24.6279 12.3598 25.4677L12.3598 27.4677C12.3598 28.3076 13.0198 28.9677 13.8598 28.9677C14.6998 28.9677 15.3598 28.3076 15.3598 27.4677Z" fill="var(--tiny-first-color, #191919)" fill-rule="evenodd"/>
  <path id="合并" d="M35.4567 12.5344C35.9415 13.1108 35.9181 13.9452 35.4335 14.4928L28.0704 19.7079C27.5467 20.1485 26.8008 20.1736 26.2528 19.7948L20.5948 16.504L14.393 20.7091C13.816 21.1932 12.9817 21.1688 12.4347 20.6836C11.9506 20.1066 11.82 19.1129 12.3053 18.5659L19.6866 13.351C20.2104 12.9115 20.9554 12.8869 21.5029 13.2654L27.1588 16.554L33.3432 12.3522C33.9771 11.8189 34.9234 11.9005 35.4567 12.5344ZM36.3598 21.4678L36.3598 27.4678C36.3598 28.3078 35.6998 28.9678 34.8598 28.9678C34.0198 28.9678 33.3598 28.3078 33.3598 27.4678L33.3598 21.4678C33.3598 20.6278 34.0198 19.9678 34.8598 19.9678C35.6998 19.9678 36.3598 20.6278 36.3598 21.4678ZM26.3598 23.4678L26.3598 27.4678C26.3598 28.3078 25.6998 28.9678 24.8598 28.9678C24.0198 28.9678 23.3598 28.3078 23.3598 27.4678L23.3598 23.4678C23.3598 22.6278 24.0198 21.9678 24.8598 21.9678C25.6998 21.9678 26.3598 22.6278 26.3598 23.4678ZM15.3598 25.4678L15.3598 27.4678C15.3598 28.3078 14.6998 28.9678 13.8598 28.9678C13.0198 28.9678 12.3598 28.3078 12.3598 27.4678L12.3598 25.4678C12.3598 24.6278 13.0198 23.9678 13.8598 23.9678C14.6998 23.9678 15.3598 24.6278 15.3598 25.4678Z" fill="var(--tiny-second-color, #aeaeAE)" fill-rule="evenodd"/>
</svg>