<svg viewBox="0 0 48 48" xmlns="http://www.w3.org/2000/svg" xmlns:xlink="http://www.w3.org/1999/xlink" width="48.000000" height="48.000000" fill="none">
  <path id="矢量 1900" d="M17 6L31 6C32.6569 6 34 7.34326 34 9L14 9C14 7.34326 15.3431 6 17 6ZM33 13L15 13C12.7909 13 11 14.7908 11 17L19.9679 17C19.9277 17.0811 19.8898 17.1638 19.8542 17.248C19.7446 17.5071 19.6604 17.772 19.6017 18.0422L19.6017 18.0422L19.6017 18.0422C19.5339 18.3542 19.5 18.6733 19.5 19C19.5 19.3267 19.5339 19.646 19.6017 19.9578C19.6604 20.228 19.7446 20.4929 19.8542 20.752C19.9635 21.0103 20.0941 21.2542 20.2463 21.4839C20.4116 21.7334 20.6021 21.9661 20.818 22.1819C21.0339 22.3979 21.2666 22.5884 21.516 22.7537C21.7458 22.9058 21.9897 23.0366 22.2479 23.1458C22.5071 23.2554 22.7719 23.3396 23.0422 23.3984C23.3541 23.4661 23.6734 23.5 24 23.5C24.3266 23.5 24.6459 23.4661 24.9578 23.3984C25.2281 23.3396 25.4929 23.2554 25.7521 23.1458C26.0096 23.0369 26.2531 22.9065 26.4823 22.7546L26.4824 22.7546L26.484 22.7537C26.7334 22.5884 26.9661 22.3979 27.182 22.1819C27.3979 21.9661 27.5884 21.7334 27.7537 21.4839C27.9059 21.2542 28.0365 21.0103 28.1458 20.752C28.2554 20.4929 28.3396 20.228 28.3983 19.9578C28.4661 19.646 28.5 19.3267 28.5 19C28.5 18.6733 28.4661 18.354 28.3983 18.0422C28.3396 17.772 28.2554 17.5071 28.1458 17.248C28.1102 17.1638 28.0723 17.0811 28.0321 17L37 17C37 14.7908 35.2091 13 33 13ZM24 17.5C23.8761 17.5 23.7556 17.5144 23.6388 17.5432C23.5632 17.5618 23.4892 17.5867 23.4166 17.6172C23.338 17.6504 23.2633 17.6897 23.1924 17.7351C23.1017 17.7932 23.0173 17.8613 22.9393 17.9395C22.8613 18.0173 22.7933 18.1018 22.7352 18.1924C22.6898 18.2632 22.6505 18.3379 22.6173 18.4165C22.5866 18.4893 22.5619 18.5632 22.5432 18.6389L22.5432 18.6392C22.5144 18.7559 22.5 18.8762 22.5 19C22.5 19.124 22.5144 19.2444 22.5432 19.3611C22.5619 19.4368 22.5866 19.5107 22.6173 19.5835C22.6505 19.6621 22.6898 19.7368 22.7352 19.8076C22.7933 19.8982 22.8613 19.9827 22.9393 20.0605C23.0173 20.1387 23.1017 20.2068 23.1924 20.2649C23.2633 20.3103 23.338 20.3496 23.4166 20.3828C23.4892 20.4133 23.5633 20.4382 23.6388 20.4568C23.7557 20.4856 23.8761 20.5 24 20.5C24.1239 20.5 24.2443 20.4856 24.3612 20.4568C24.4367 20.4382 24.5108 20.4133 24.5834 20.3828C24.662 20.3496 24.7367 20.3103 24.8076 20.2649C24.8983 20.2068 24.9827 20.1387 25.0607 20.0605C25.1387 19.9827 25.2067 19.8982 25.2648 19.8076C25.3102 19.7368 25.3495 19.6621 25.3827 19.5835C25.4134 19.5107 25.4381 19.4368 25.4568 19.3611C25.4856 19.2444 25.5 19.124 25.5 19C25.5 18.876 25.4856 18.7556 25.4568 18.6389C25.4381 18.5632 25.4135 18.4893 25.3827 18.4165C25.3495 18.3379 25.3102 18.2632 25.2648 18.1924C25.2067 18.1018 25.1387 18.0173 25.0607 17.9395C24.9827 17.8613 24.8983 17.7932 24.8076 17.7351C24.7367 17.6897 24.662 17.6504 24.5834 17.6172C24.5108 17.5867 24.4368 17.5618 24.3612 17.5432C24.2444 17.5144 24.1239 17.5 24 17.5ZM10.9435 24.0007C10.7906 24.0049 10.642 24.0256 10.4977 24.0627C10.4041 24.0869 10.3124 24.1179 10.2224 24.156C10.1219 24.1985 10.026 24.2485 9.93491 24.3059L9.93353 24.3069C9.89941 24.3284 9.86595 24.3511 9.83315 24.3748C9.746 24.4377 9.66354 24.5081 9.58578 24.5857C9.56824 24.6033 9.55106 24.6211 9.53426 24.6392C9.44868 24.7312 9.37294 24.8291 9.30699 24.9333L9.30688 24.9336C9.24901 25.0251 9.1987 25.1213 9.15594 25.2224C9.15416 25.2266 9.15239 25.231 9.15063 25.2351C9.11499 25.3208 9.08568 25.4084 9.06268 25.4976L9.06268 25.4978C9.05093 25.5432 9.04083 25.5894 9.03238 25.6357C9.01079 25.7544 9 25.8757 9 26L9 39C9 39.1482 9.01538 39.2927 9.04616 39.4329C9.05124 39.4561 9.05675 39.4792 9.06268 39.5022C9.08681 39.5959 9.11789 39.6875 9.15594 39.7776C9.1586 39.7839 9.1613 39.7903 9.16405 39.7964C9.17665 39.8254 9.18988 39.854 9.20375 39.8823C9.23494 39.9456 9.2693 40.0071 9.30687 40.0664L9.30698 40.0667L9.30832 40.0688C9.37518 40.1743 9.45212 40.2732 9.53908 40.366C9.55434 40.3823 9.5699 40.3984 9.58578 40.4143C9.69279 40.5212 9.8087 40.6143 9.93347 40.6931L9.93356 40.6931C10.0251 40.751 10.1214 40.8013 10.2224 40.844C10.3124 40.8821 10.4041 40.9131 10.4977 40.9373C10.6395 40.9739 10.7854 40.9944 10.9355 40.999C10.9569 40.9998 10.9784 41 11 41L37 41C37.0422 41 37.0841 40.9988 37.1256 40.9963C37.2543 40.9885 37.3798 40.9688 37.5023 40.9373C37.5959 40.9131 37.6876 40.8821 37.7776 40.844C37.8785 40.8013 37.9747 40.7512 38.0661 40.6934L38.0662 40.6934L38.0665 40.6931L38.0665 40.6931C38.0743 40.6882 38.082 40.6831 38.0898 40.6782C38.186 40.6155 38.2769 40.5442 38.3624 40.4644C38.3799 40.448 38.3972 40.4314 38.4142 40.4143C38.4409 40.3877 38.4667 40.3604 38.4915 40.3325C38.5663 40.2493 38.6332 40.1611 38.6922 40.0679L38.693 40.0667L38.6932 40.0664L38.6933 40.0662C38.7005 40.0547 38.7076 40.0432 38.7146 40.0317C38.7635 39.9507 38.8067 39.866 38.8441 39.7776C38.8819 39.688 38.9129 39.5967 38.937 39.5034L38.9373 39.5024L38.9377 39.501C38.9792 39.3394 39 39.1724 39 39L39 26C39 25.8274 38.9791 25.6599 38.9374 25.498L38.9373 25.4978L38.9373 25.4976C38.9358 25.4917 38.9343 25.4861 38.9327 25.48C38.9093 25.3926 38.8797 25.3066 38.8441 25.2224C38.8414 25.2161 38.8387 25.2097 38.836 25.2036C38.8201 25.167 38.8032 25.1311 38.7854 25.0959C38.7571 25.0403 38.7264 24.9861 38.6931 24.9336L38.693 24.9333L38.6927 24.9329C38.6533 24.8706 38.6104 24.8105 38.564 24.7527C38.5269 24.7065 38.4876 24.6616 38.4461 24.6184C38.4356 24.6074 38.425 24.5964 38.4142 24.5857C38.3875 24.5591 38.3602 24.5332 38.3323 24.5081C38.2559 24.4397 38.1754 24.3777 38.0907 24.3225C38.0827 24.3171 38.0747 24.312 38.0666 24.3069L38.0665 24.3069L38.0662 24.3066L38.0661 24.3066C37.9747 24.249 37.8785 24.1987 37.7776 24.156C37.6877 24.1179 37.596 24.0869 37.5025 24.0627L37.5023 24.0627L37.5022 24.0627L37.5019 24.0625C37.3602 24.0259 37.2144 24.0056 37.0645 24.001C37.0431 24.0002 37.0216 24 37 24L28.899 24C29.7355 23.1802 30.3672 22.1523 30.7101 21L37 21C37.2703 21 37.5356 21.0215 37.7943 21.0627C38.1147 21.1138 38.425 21.1956 38.722 21.3044L38.7287 21.3069C38.7332 21.3086 38.7379 21.3103 38.7426 21.312C38.843 21.3494 38.942 21.3899 39.0392 21.4333C39.2581 21.5312 39.4686 21.6445 39.6695 21.7715C40.0005 21.981 40.3053 22.228 40.5777 22.5071C40.6103 22.5405 40.6423 22.5742 40.6739 22.6084C40.8798 22.8313 41.0657 23.073 41.2287 23.3308C41.2427 23.3528 41.2566 23.3752 41.2702 23.3977C41.3979 23.6067 41.5106 23.8257 41.607 24.0535C41.7017 24.2776 41.7807 24.51 41.8423 24.7493C41.8574 24.8079 41.8714 24.8669 41.8844 24.9263C41.9513 25.2317 41.9902 25.5474 41.9984 25.8708C41.9995 25.9138 42 25.957 42 26L42 39C42 39.0503 41.9993 39.1001 41.9978 39.1501C41.9791 39.783 41.8428 40.3865 41.61 40.9392L41.6066 40.9473L41.6039 40.9539C41.5477 41.0859 41.4861 41.2151 41.4191 41.3413C41.3674 41.4385 41.3126 41.5339 41.2548 41.6274C41.2515 41.6328 41.2482 41.6382 41.2448 41.6436C41.2392 41.6526 41.2335 41.6616 41.2278 41.6707C41.0439 41.9612 40.8309 42.2314 40.5928 42.4773C40.3836 42.6934 40.1551 42.8906 39.91 43.0664C39.658 43.2471 39.3884 43.405 39.1044 43.5369C38.9904 43.5898 38.8741 43.6387 38.7557 43.6831C38.2476 43.8735 37.7002 43.9839 37.1291 43.9983C37.0861 43.9995 37.0431 44 37 44L11 44C10.9639 44 10.928 43.9995 10.8921 43.9988C10.659 43.9939 10.4299 43.9731 10.2057 43.9373C10.0511 43.9126 9.8988 43.8809 9.74925 43.8423C9.60913 43.8062 9.47137 43.7642 9.33629 43.7166C9.31456 43.709 9.29291 43.7012 9.27132 43.6931C9.15733 43.6511 9.0453 43.605 8.93539 43.5552C8.72559 43.46 8.52353 43.3506 8.33041 43.2285C7.92455 42.9717 7.5582 42.6582 7.24255 42.2988C7.06966 42.1021 6.91197 41.8916 6.77135 41.6692C6.73784 41.6162 6.70529 41.5627 6.67375 41.5083C6.57793 41.3435 6.49127 41.1726 6.41446 40.9963C6.37367 40.9028 6.33568 40.8079 6.30055 40.7114C6.10608 40.1775 6 39.6011 6 39L6 26C6 25.7297 6.02142 25.4646 6.06268 25.2061C6.0874 25.051 6.11926 24.8984 6.15788 24.7485L6.15808 24.7478C6.21642 24.5215 6.29019 24.3015 6.37823 24.0889C6.38678 24.0681 6.39548 24.0476 6.4043 24.0271C6.47133 23.8711 6.54605 23.7192 6.62802 23.572C6.67358 23.4902 6.72139 23.4097 6.77135 23.3308C6.96173 23.0298 7.18335 22.7505 7.43166 22.4976C7.45911 22.4695 7.48688 22.4419 7.51497 22.4146C7.55333 22.3774 7.59229 22.3406 7.63182 22.3047C8.00406 21.9651 8.42778 21.6812 8.88991 21.4658C9.16379 21.3381 9.45116 21.2344 9.74928 21.1577C9.89882 21.1191 10.0511 21.0874 10.2057 21.0627C10.4644 21.0215 10.7297 21 11 21L17.2899 21C17.6328 22.1523 18.2645 23.1802 19.101 24L11 24C10.9811 24 10.9623 24.0002 10.9435 24.0007Z" fill="var(--tiny-first-color)" fill-rule="evenodd"/>
  <path id="矢量 1897(边框)" d="M30.1532 29.6619C29.5026 29.1306 29.4089 28.2019 29.9402 27.5513C30.4716 26.9007 31.4002 26.807 32.0508 27.3383L35.8624 30.451C36.0453 30.6004 36.1946 30.7702 36.3105 30.9604C36.4132 31.1292 36.4896 31.3141 36.5395 31.515C36.586 31.7018 36.6057 31.8876 36.5987 32.0724C36.5911 32.2734 36.5519 32.4731 36.4812 32.6716C36.4104 32.8702 36.3144 33.0497 36.1932 33.2101C36.0817 33.3577 35.9489 33.4891 35.7948 33.6044C35.629 33.7284 35.4529 33.8233 35.2666 33.889C35.0565 33.9631 34.8334 34.0001 34.5973 34.0001L15.8852 34.0001L17.4162 35.3893C18.0382 35.9537 18.0835 36.886 17.519 37.5081C16.9545 38.1302 16.0223 38.1754 15.4002 37.611L11.9511 34.4812C11.7809 34.3268 11.6434 34.1544 11.5386 33.964C11.4452 33.7943 11.3778 33.6104 11.3363 33.4121C11.2975 33.2271 11.2845 33.044 11.2973 32.8626C11.3111 32.6662 11.3551 32.4719 11.4293 32.2798C11.5035 32.0876 11.6015 31.9142 11.7232 31.7595C11.8356 31.6166 11.9683 31.4896 12.1213 31.3787C12.2853 31.2598 12.4588 31.1688 12.642 31.106C12.8476 31.0354 13.0653 31.0001 13.2951 31.0001L31.7919 31.0001L30.1532 29.6619L30.1532 29.6619Z" fill="var(--tiny-second-color)" fill-rule="evenodd"/>
</svg>