<svg viewBox="0 0 48 48" xmlns="http://www.w3.org/2000/svg" xmlns:xlink="http://www.w3.org/1999/xlink" width="48.000000" height="48.000000" fill="none">
  <path id="减去顶层" d="M18 6L30 6C32.2091 6 34 7.79077 34 10L14 10C14 7.79077 15.7909 6 18 6ZM15 13L33 13C35.2091 13 37 14.7908 37 17L37 18L27.874 18C27.9563 18.3196 28 18.6548 28 19C28 21.2092 26.2091 23 24 23C21.7909 23 20 21.2092 20 19C20 18.6548 20.0437 18.3196 20.126 18L11 18L11 17C11 14.7908 12.7909 13 15 13ZM17.2899 21L11 21C8.23857 21 6 23.2385 6 26L6 39C6 41.7615 8.23857 44 11 44L37 44C39.7614 44 42 41.7615 42 39L42 26C42 23.2385 39.7614 21 37 21L30.7101 21C29.8496 23.8916 27.171 26 24 26C20.829 26 18.1504 23.8916 17.2899 21ZM29.9402 27.5513C29.4089 28.2019 29.5026 29.1306 30.1532 29.6619L31.7918 31.0001L13.2951 31.0001C13.0653 31.0001 12.8476 31.0354 12.6421 31.106L12.642 31.106C12.4588 31.1688 12.2853 31.2598 12.1213 31.3787C11.9683 31.4896 11.8356 31.6166 11.7232 31.7595C11.6014 31.9142 11.5035 32.0876 11.4293 32.2798C11.3551 32.4719 11.3111 32.6662 11.2973 32.8626C11.2845 33.044 11.2975 33.2271 11.3363 33.4121C11.3778 33.6104 11.4452 33.7943 11.5386 33.964C11.6434 34.1544 11.7809 34.3268 11.9511 34.4812L15.4002 37.611C16.0222 38.1754 16.9545 38.1302 17.519 37.5081C18.0835 36.886 18.0382 35.9537 17.4161 35.3893L15.8852 34.0001L34.5973 34.0001C34.8334 34.0001 35.0565 33.9631 35.2666 33.889C35.4529 33.8233 35.629 33.7284 35.7948 33.6044C35.9489 33.4891 36.0817 33.3577 36.1932 33.2101C36.3144 33.0497 36.4104 32.8702 36.4812 32.6716C36.5519 32.4731 36.5911 32.2734 36.5987 32.0724C36.6057 31.8876 36.586 31.7018 36.5395 31.515C36.4896 31.3141 36.4132 31.1292 36.3104 30.9604C36.1946 30.7702 36.0453 30.6004 35.8624 30.451L32.0508 27.3383C31.4002 26.807 30.4716 26.9007 29.9402 27.5513Z" fill="var(--tiny-first-color, #191919)" fill-rule="evenodd"/>
  <path id="矢量 1897(边框)" d="M30.1532 29.6619C29.5026 29.1306 29.4089 28.2019 29.9402 27.5513C30.4716 26.9007 31.4002 26.807 32.0508 27.3383L35.8624 30.451C36.0453 30.6004 36.1946 30.7702 36.3104 30.9604C36.4132 31.1292 36.4896 31.3141 36.5395 31.515C36.586 31.7018 36.6057 31.8876 36.5987 32.0724C36.5911 32.2734 36.5519 32.4731 36.4812 32.6716C36.4104 32.8702 36.3144 33.0497 36.1932 33.2101C36.0817 33.3577 35.9489 33.4891 35.7948 33.6044C35.629 33.7284 35.4529 33.8233 35.2666 33.889C35.0565 33.9631 34.8334 34.0001 34.5973 34.0001L15.8852 34.0001L17.4161 35.3893C18.0382 35.9537 18.0835 36.886 17.519 37.5081C16.9545 38.1302 16.0222 38.1754 15.4002 37.611L11.9511 34.4812C11.7809 34.3268 11.6434 34.1544 11.5386 33.964C11.4452 33.7943 11.3778 33.6104 11.3363 33.4121C11.2975 33.2271 11.2845 33.044 11.2973 32.8626C11.3111 32.6662 11.3551 32.4719 11.4293 32.2798C11.5035 32.0876 11.6014 31.9142 11.7232 31.7595C11.8356 31.6166 11.9683 31.4896 12.1213 31.3787C12.2853 31.2598 12.4588 31.1688 12.642 31.106C12.8476 31.0354 13.0653 31.0001 13.2951 31.0001L31.7918 31.0001L30.1532 29.6619L30.1532 29.6619Z" fill="var(--tiny-second-color, #aeaeAE)" fill-rule="evenodd"/>
</svg>
