<svg viewBox="0 0 48 48" xmlns="http://www.w3.org/2000/svg" xmlns:xlink="http://www.w3.org/1999/xlink" width="48.000000" height="48.000000">
  <path id="矢量 185(边框)" d="M39.6965 3.68307C38.6199 3.22769 37.493 3 36.3158 3L6 3C5.77061 3 5.54674 3.02457 5.3284 3.07371C5.24354 3.09281 5.1595 3.11563 5.07631 3.14215C4.92965 3.18892 4.78831 3.24633 4.65231 3.31438C4.52109 3.38004 4.39484 3.4556 4.27354 3.54108C4.17599 3.60982 4.08322 3.68386 3.99522 3.76321C3.8708 3.8754 3.75594 3.99819 3.65063 4.13158C3.5727 4.23029 3.50141 4.33302 3.43677 4.43977C3.35724 4.57108 3.28776 4.70848 3.22833 4.85197C3.1689 4.99544 3.12088 5.14171 3.08427 5.29078C3.05449 5.41199 3.03226 5.53506 3.01757 5.65998C2.98368 5.94812 2.99132 6.23412 3.0405 6.51798C3.06583 6.6642 3.10168 6.80692 3.14804 6.94614C3.19609 7.09041 3.25542 7.23092 3.32605 7.36767C3.36614 7.44529 3.40945 7.52087 3.45597 7.59442C3.5756 7.78351 3.7165 7.95915 3.87867 8.12133L39.8787 44.1213C40.1039 44.3466 40.3552 44.5308 40.6323 44.674C40.9011 44.8127 41.1843 44.9079 41.4821 44.9595C41.7659 45.0087 42.0519 45.0163 42.3401 44.9824C42.6186 44.9496 42.8879 44.8794 43.148 44.7716C43.4082 44.6639 43.6483 44.5231 43.8684 44.3493C44.0961 44.1696 44.293 43.9619 44.4589 43.7264C44.633 43.4794 44.766 43.2118 44.8578 42.9237C44.9526 42.6265 45 42.3186 45 42L45 11.6842C45 10.507 44.7723 9.38009 44.3169 8.30346C43.8774 7.26431 43.2572 6.34435 42.4564 5.54355C42.0356 5.12268 41.5818 4.75171 41.0951 4.43063C40.6557 4.14078 40.1895 3.8916 39.6965 3.68307ZM6 6L36.3158 6C37.0874 6 37.8248 6.14869 38.5279 6.44608C38.8413 6.57864 39.1382 6.73643 39.4187 6.91945C39.7467 7.13344 40.0522 7.38191 40.3351 7.66487C40.8601 8.18984 41.2663 8.79226 41.5539 9.47213C41.8513 10.1752 42 10.9126 42 11.6842L42 42L5.99999 6.00001L6 6Z" fill="var(--tiny-first-color)" fill-rule="evenodd"/>
  <path id="矢量 186" d="M39.0434 10.9223C38.4481 10.3461 37.4984 10.3615 36.9223 10.9567L28.318 19.842L23.0777 14.4295C22.4976 13.9844 21.4977 13.8713 20.9567 14.3951C20.3615 14.9714 20.3461 15.921 20.9223 16.5162L27.2412 23.0433C27.8352 23.4963 28.8607 23.5969 29.3966 23.0433L39.0777 13.0433C39.5037 12.4492 39.5844 11.4461 39.0434 10.9223Z" fill="var(--tiny-second-color)" fill-rule="evenodd"/>
</svg>