<svg viewBox="0 0 48 48" xmlns="http://www.w3.org/2000/svg" xmlns:xlink="http://www.w3.org/1999/xlink" width="48.000000" height="48.000000">
  <path id="矢量 185" d="M6.00012 4.5L36.3159 4.5C40.2836 4.5 43.5001 7.71649 43.5001 11.6842L43.5001 42C43.5001 43.3364 41.8844 44.0056 40.9395 43.0607L4.93945 7.06067C3.99451 6.11572 4.6637 4.5 6.00012 4.5ZM39.0435 10.9223C38.4482 10.3461 37.4985 10.3615 36.9224 10.9567L28.3181 19.842L23.0778 14.4295C22.4977 13.9844 21.4978 13.8713 20.9568 14.3951C20.3616 14.9714 20.3462 15.921 20.9224 16.5162L27.2413 23.0433C27.8353 23.4963 28.8608 23.5969 29.3967 23.0433L39.0778 13.0433C39.5038 12.4492 39.5845 11.4461 39.0435 10.9223Z" fill="var(--tiny-first-color)" fill-rule="evenodd"/>
  <path id="矢量 186" d="M39.0434 10.9223C38.4481 10.3461 37.4984 10.3615 36.9223 10.9567L28.318 19.842L23.0777 14.4295C22.4976 13.9844 21.4977 13.8713 20.9567 14.3951C20.3615 14.9714 20.3461 15.921 20.9223 16.5162L27.2412 23.0433C27.8352 23.4963 28.8607 23.5969 29.3966 23.0433L39.0777 13.0433C39.5037 12.4492 39.5844 11.4461 39.0434 10.9223Z" fill="var(--tiny-second-color)" fill-rule="evenodd"/>
</svg>