<svg viewBox="0 0 48 48" xmlns="http://www.w3.org/2000/svg" xmlns:xlink="http://www.w3.org/1999/xlink" width="48.000000" height="48.000000" fill="none">
  <path id="Stroke-1" d="M21.8021 4.11782C28.5719 3.39323 35.0287 6.06135 39.2876 11.1034C40.7002 12.7757 40.631 15.2305 39.2267 16.8773L38.9804 17.144L23.0064 33.118C22.4738 33.6505 21.6405 33.6989 21.0533 33.2632L12.8851 25.118C12.2993 24.5322 12.2993 23.5824 12.8851 22.9966C13.4176 22.4641 14.2509 22.4157 14.8381 22.8514L21.9458 29.9359L36.8591 15.0226C37.3563 14.5254 37.4491 13.7663 37.1208 13.2147C33.4971 8.9247 27.889 6.48346 22.1214 7.10078C14.2065 7.94822 7.7895 14.479 7.07163 22.4122C6.11187 33.0377 14.9254 41.869 25.5499 40.9311C33.397 40.2386 39.9119 33.9579 40.867 26.1541C41.1574 23.7948 41.0754 21.8777 40.44 19.6802C40.2099 18.8843 40.6641 18.0503 41.46 17.8202C42.2558 17.5901 43.0899 18.0443 43.32 18.8402C44.0677 21.4262 44.1845 23.7581 43.8446 26.5195C42.7174 35.7297 35.0696 43.1027 25.8136 43.9195C13.3269 45.0218 2.95584 34.6298 4.08382 22.1421C4.93057 12.7846 12.464 5.11764 21.8021 4.11782Z" fill="var(--tiny-first-color, #191919)" fill-rule="evenodd"/>
</svg>
