<svg viewBox="0 0 48 48" xmlns="http://www.w3.org/2000/svg" xmlns:xlink="http://www.w3.org/1999/xlink" width="48.000000" height="48.000000">
  <path id="Fill-1" d="M36.068 18.054L22.052 32.066C21.76 32.358 21.376 32.506 20.992 32.506C20.608 32.506 20.224 32.358 19.932 32.066L11.932 24.066C11.346 23.48 11.346 22.53 11.932 21.944C12.518 21.358 13.466 21.358 14.052 21.944L20.992 28.884L33.946 15.932C34.532 15.346 35.482 15.346 36.068 15.932C36.654 16.518 36.654 17.468 36.068 18.054ZM24 4C12.972 4 4 12.972 4 24C4 35.026 12.972 44 24 44C35.026 44 44 35.026 44 24C44 12.972 35.026 4 24 4Z" fill="var(--tiny-first-color)" fill-rule="evenodd"/>
  <path id="Fill-1" d="M36.068 18.0537L22.052 32.0657C21.76 32.3577 21.376 32.5057 20.992 32.5057C20.608 32.5057 20.224 32.3577 19.932 32.0657L11.932 24.0657C11.346 23.4797 11.346 22.5297 11.932 21.9437C12.518 21.3577 13.466 21.3577 14.052 21.9437L20.992 28.8837L33.946 15.9317C34.532 15.3457 35.482 15.3457 36.068 15.9317C36.654 16.5177 36.654 17.4677 36.068 18.0537Z" fill="var(--tiny-second-color)" fill-rule="evenodd"/>
</svg>