<svg viewBox="0 0 48 48" xmlns="http://www.w3.org/2000/svg" xmlns:xlink="http://www.w3.org/1999/xlink" width="48.000000" height="48.000000">
  <path id="合并" d="M24.6499 3.03848C24.4348 3.01283 24.2181 3 24 3C23.7819 3 23.5653 3.01283 23.3502 3.03847C22.725 3.11303 22.1128 3.29594 21.5135 3.5872C20.7945 3.93663 20.1129 4.43493 19.4686 5.08211C18.3284 6.22755 17.3388 7.79647 16.4999 9.78886C16.4006 10.0246 16.3042 10.2645 16.2106 10.5085C15.9526 10.4675 15.6967 10.4311 15.443 10.3992C13.298 10.1295 11.4445 10.2021 9.88242 10.6169C8.99983 10.8512 8.22746 11.1924 7.56535 11.6403C7.01346 12.0137 6.54895 12.4524 6.17181 12.9566C6.04205 13.13 5.92265 13.3112 5.81358 13.5001C5.7045 13.689 5.6073 13.883 5.52198 14.0821C5.27397 14.6608 5.12627 15.2824 5.07885 15.9471C5.02197 16.7444 5.1127 17.5839 5.35104 18.4654C5.77289 20.0257 6.63682 21.6671 7.94283 23.3898C8.09736 23.5936 8.25686 23.7971 8.42135 24.0001C8.25686 24.2031 8.09735 24.4065 7.94283 24.6104C6.63682 26.3331 5.77289 27.9745 5.35104 29.5348C5.1127 30.4163 5.02196 31.2557 5.07885 32.0531C5.12626 32.7178 5.27397 33.3394 5.52198 33.9181C5.6073 34.1172 5.7045 34.3112 5.81357 34.5001C5.92264 34.689 6.04206 34.8702 6.17181 35.0436C6.54895 35.5477 7.01346 35.9865 7.56535 36.3599C8.22746 36.8078 8.99982 37.149 9.88241 37.3833C11.4445 37.7981 13.298 37.8707 15.443 37.601C15.6967 37.5691 15.9526 37.5326 16.2107 37.4917C16.3042 37.7356 16.4006 37.9754 16.4999 38.2111C17.3388 40.2035 18.3284 41.7724 19.4686 42.9179C20.1129 43.5651 20.7945 44.0634 21.5135 44.4128C22.1128 44.7041 22.725 44.887 23.3502 44.9615C23.5652 44.9872 23.7819 45 24 45C24.2181 45 24.4347 44.9872 24.6498 44.9615C25.275 44.887 25.8872 44.7041 26.4865 44.4128C27.2055 44.0634 27.8871 43.5651 28.5314 42.9179C29.6716 41.7724 30.6612 40.2035 31.5001 38.2111C31.5994 37.9754 31.6958 37.7356 31.7893 37.4917C32.0475 37.5326 32.3034 37.5691 32.5573 37.601C34.7022 37.8707 36.5557 37.7981 38.1178 37.3833C39.0004 37.149 39.7727 36.8078 40.4349 36.3599C40.9867 35.9865 41.4512 35.5478 41.8284 35.0437C41.9581 34.8702 42.0776 34.689 42.1866 34.5001C42.2957 34.3112 42.3929 34.1172 42.4782 33.9182L42.4782 33.9181C42.7262 33.3394 42.8739 32.7178 42.9214 32.0531C42.9782 31.2557 42.8875 30.4163 42.6492 29.5348C42.2273 27.9745 41.3634 26.3331 40.0574 24.6104C39.9029 24.4065 39.7433 24.2031 39.5789 24.0001C39.7433 23.7971 39.9029 23.5937 40.0574 23.3898C41.3634 21.6671 42.2273 20.0257 42.6492 18.4654C42.8875 17.5839 42.9782 16.7445 42.9214 15.9471C42.8739 15.2824 42.7262 14.6608 42.4782 14.0821C42.3929 13.883 42.2957 13.689 42.1866 13.5001C42.0776 13.3112 41.9582 13.13 41.8284 12.9566C41.4513 12.4525 40.9868 12.0137 40.4349 11.6403C39.7727 11.1924 39.0004 10.8512 38.1178 10.6169C36.5557 10.2021 34.7022 10.1295 32.5573 10.3992C32.3034 10.4311 32.0475 10.4676 31.7894 10.5085C31.6958 10.2645 31.5994 10.0246 31.5001 9.78886C30.6612 7.79647 29.6716 6.22755 28.5314 5.08211C27.8871 4.43493 27.2055 3.93663 26.4865 3.58719C25.8872 3.29594 25.275 3.11304 24.6499 3.03848ZM36.8099 21.0519C36.83 21.0257 36.85 20.9995 36.8698 20.9733C37.372 20.3109 37.7874 19.6716 38.1161 19.0552C38.4272 18.4717 38.6511 17.9271 38.7878 17.4214C39.0098 16.6004 38.988 15.96 38.7225 15.5001C38.457 15.0402 37.9133 14.7012 37.0913 14.4829C36.5849 14.3485 36.0014 14.2701 35.3405 14.2478C34.6424 14.2242 33.8809 14.2643 33.0563 14.368C33.0236 14.3721 32.9909 14.3763 32.9581 14.3806C33.0984 14.9862 33.2258 15.6106 33.3403 16.2537C33.4672 16.9662 33.5758 17.688 33.6661 18.4193C34.2543 18.8631 34.8252 19.3181 35.3788 19.7843C35.8785 20.205 36.3555 20.6276 36.8099 21.0519ZM33.9999 23.9009C34.0355 23.934 34.071 23.967 34.1064 24.0001C34.0711 24.0331 34.0356 24.0662 33.9999 24.0993C34 24.0663 34 24.0332 34 24C34 23.967 34 23.9339 33.9999 23.9009ZM29.0858 15.3894C29.075 15.3421 29.0641 15.2949 29.0531 15.2478C29.0069 15.2619 28.9606 15.2761 28.9143 15.2904C28.9428 15.3068 28.9714 15.3233 29.0001 15.3398C29.0287 15.3563 29.0572 15.3729 29.0858 15.3894ZM24.0001 17.2238C25.0009 17.7003 26.0009 18.227 27.0001 18.8039C27.9993 19.3808 28.9554 19.9835 29.8684 20.6119C29.9561 21.7168 30 22.8462 30 24C30 25.1539 29.9561 26.2833 29.8684 27.3883C28.9554 28.0167 27.9993 28.6194 27.0001 29.1963C26.0009 29.7731 25.0009 30.2999 24.0001 30.7764C22.9993 30.2999 21.9993 29.7731 21.0001 29.1962C20.0009 28.6193 19.0447 28.0166 18.1316 27.3882C18.0438 26.2832 18 25.1538 18 24C18 22.8463 18.0438 21.717 18.1315 20.612C19.0447 19.9836 20.0008 19.3809 21.0001 18.8039C21.9993 18.227 22.9993 17.7003 24.0001 17.2238ZM24.0001 12.8387C24.6785 12.5512 25.358 12.2843 26.0384 12.038C26.6526 11.8156 27.2571 11.6138 27.8518 11.4324C27.8391 11.4019 27.8264 11.3714 27.8136 11.3411C27.491 10.575 27.145 9.8956 26.7755 9.30275C26.4258 8.74161 26.0661 8.2754 25.6965 7.90412C25.0965 7.30137 24.531 7 24 7C23.469 7 22.9035 7.30137 22.3034 7.90412C21.9338 8.2754 21.5742 8.74161 21.2245 9.30275C20.855 9.89559 20.509 10.575 20.1864 11.3411C20.1736 11.3714 20.1609 11.4018 20.1483 11.4324C20.743 11.6137 21.3475 11.8156 21.9618 12.038C22.6422 12.2843 23.3217 12.5512 24.0001 12.8387ZM18.9469 15.2478C18.9932 15.2618 19.0395 15.276 19.086 15.2904C19.0574 15.3068 19.0288 15.3233 19.0001 15.3398C18.9714 15.3564 18.9427 15.373 18.9142 15.3896C18.925 15.3421 18.9359 15.2949 18.9469 15.2478ZM15.0419 14.3805C15.0092 14.3763 14.9765 14.3721 14.944 14.368C14.1193 14.2643 13.3578 14.2242 12.6597 14.2478C11.9989 14.2701 11.4153 14.3485 10.9089 14.4829C10.0869 14.7012 9.54318 15.0402 9.27767 15.5001C9.01217 15.96 8.99041 16.6004 9.21239 17.4214C9.34913 17.9271 9.57305 18.4717 9.88414 19.0552C10.2128 19.6716 10.6282 20.3109 11.1304 20.9733C11.1502 20.9995 11.1702 21.0257 11.1903 21.0519C11.6447 20.6276 12.1217 20.205 12.6214 19.7843C13.175 19.3182 13.7458 18.8633 14.3339 18.4195C14.4242 17.6882 14.5328 16.9662 14.6597 16.2537C14.7742 15.6106 14.9016 14.9862 15.0419 14.3805ZM11.1903 26.9482C11.1702 26.9744 11.1503 27.0007 11.1304 27.0269C10.6282 27.6892 10.2128 28.3286 9.88414 28.945C9.57304 29.5285 9.34913 30.0731 9.21239 30.5788C8.99041 31.3998 9.01217 32.0402 9.27767 32.5001C9.54317 32.96 10.0869 33.299 10.9089 33.5173C11.4153 33.6517 11.9989 33.7301 12.6597 33.7524C13.3578 33.776 14.1193 33.7359 14.944 33.6322C14.9766 33.6281 15.0092 33.6239 15.0419 33.6196C14.9016 33.0139 14.7742 32.3895 14.6597 31.7463C14.5328 31.0338 14.4242 30.312 14.3339 29.5807C13.7458 29.1369 13.175 28.682 12.6214 28.2159C12.1217 27.7952 11.6447 27.3726 11.1903 26.9482ZM14.0001 24.0991C13.9645 24.0661 13.9291 24.0331 13.8939 24.0001C13.9291 23.9671 13.9645 23.9341 14.0001 23.9011C14 23.9341 14 23.967 14 24C14 24.033 14 24.0661 14.0001 24.0991ZM18.9142 32.6107C18.9251 32.6581 18.9359 32.7053 18.9469 32.7524C18.9932 32.7383 19.0395 32.7241 19.086 32.7098C19.0573 32.6934 19.0287 32.6769 19.0001 32.6603C18.9713 32.6437 18.9427 32.6272 18.9142 32.6107ZM24.0001 35.1615C23.3217 35.449 22.6422 35.7159 21.9618 35.9622C21.3475 36.1846 20.7431 36.3865 20.1483 36.5678C20.1609 36.5982 20.1736 36.6286 20.1864 36.6589C20.509 37.425 20.855 38.1044 21.2245 38.6973C21.5742 39.2584 21.9338 39.7246 22.3034 40.0959C22.9035 40.6986 23.469 41 24 41C24.531 41 25.0965 40.6986 25.6965 40.0959C26.0661 39.7246 26.4258 39.2584 26.7755 38.6973C27.145 38.1044 27.491 37.425 27.8136 36.6589C27.8264 36.6285 27.8391 36.5981 27.8517 36.5677C27.257 36.3864 26.6526 36.1846 26.0384 35.9622C25.358 35.7159 24.6785 35.449 24.0001 35.1615ZM32.958 33.6196C33.0984 33.0139 33.2258 32.3894 33.3403 31.7463C33.4672 31.0339 33.5758 30.3121 33.666 29.5809C34.2542 29.1371 34.8252 28.6821 35.3788 28.2159C35.8785 27.7952 36.3555 27.3726 36.8099 26.9483C36.83 26.9745 36.85 27.0007 36.8698 27.0269C37.372 27.6893 37.7874 28.3286 38.1161 28.945C38.4272 29.5285 38.6511 30.0731 38.7878 30.5788C39.0098 31.3998 38.988 32.0402 38.7225 32.5001C38.457 32.96 37.9133 33.299 37.0913 33.5173C36.5849 33.6517 36.0014 33.7301 35.3405 33.7524C34.6424 33.776 33.8809 33.7359 33.0563 33.6322C33.0236 33.6281 32.9909 33.6239 32.958 33.6196ZM29.0531 32.7523C29.0067 32.7382 28.9604 32.7241 28.9142 32.7098C28.9429 32.6934 28.9715 32.6769 29.0001 32.6604C29.0285 32.6439 29.0571 32.6274 29.0857 32.6108C29.0749 32.6581 29.0641 32.7053 29.0531 32.7523Z" fill="var(--tiny-first-color)" fill-rule="evenodd"/>
</svg>