<svg viewBox="0 0 48 48" xmlns="http://www.w3.org/2000/svg" xmlns:xlink="http://www.w3.org/1999/xlink" width="48.000000" height="48.000000">
  <defs>
    <filter id="pixso_custom_mask_type_luminance">
      <feColorMatrix values="1 0 0 0 0 0 1 0 0 0 0 0 1 0 0 0 0 0 1 0 "/>
    </filter>
  </defs>
  <mask id="mask_0" width="42.001801" height="42.000008" x="3.000015" y="3.000000" maskUnits="userSpaceOnUse">
    <g filter="url(#pixso_custom_mask_type_luminance)">
      <g id="mask-2">
        <path id="path-1" d="M45.0018 21.8268L45.0009 45L3.00091 45L3.00002 21.8268C4.40642 23.5051 6.53397 24.5717 8.90716 24.5717L9.13633 24.5684C10.9632 24.5154 12.6333 23.8303 13.9251 22.725L13.9419 22.7094L14.0006 22.7604C15.3418 23.8942 17.0801 24.5717 18.9697 24.5717L19.1988 24.5684C21.0257 24.5154 22.6958 23.8303 23.9876 22.725L24.0044 22.7094L24.0631 22.7604C25.4043 23.8942 27.1426 24.5717 29.0322 24.5717L29.2613 24.5684C31.0882 24.5154 32.7583 23.8303 34.0501 22.725L34.0634 22.712L34.0768 22.725C35.4224 23.8763 37.1785 24.5717 39.0947 24.5717C41.4679 24.5717 43.5954 23.5051 45.0018 21.8268ZM45.0009 3L45.0009 10.6248L43.8924 7.25095C43.12 4.80599 40.8708 3.10256 38.2962 3.00447L38.0613 3L45.0009 3ZM9.94056 3C7.26873 3 4.90519 4.7319 4.10018 7.27957L3.00089 10.616L3.00091 3L9.94056 3Z" fill="#FFFFFF" fill-rule="evenodd"/>
      </g>
    </g>
  </mask>
  <g id="ic_huawei_cloud_store_new-新店/base/ic_huawei_cloud_store_new">
    <g id="mask" mask="url(#mask_0)">
      <path id="path5" d="M35.3759 9.125C38.2754 9.125 40.6259 11.4755 40.6259 14.375L40.6259 37.125C40.6259 40.0245 38.2754 42.375 35.3759 42.375L28.3759 42.375L28.3759 35.375C28.3759 33.0223 26.5189 31.1034 24.1907 31.004L24.0009 31C21.5847 31 19.6259 32.9588 19.6259 35.375L19.6259 42.375L12.6259 42.375C9.72642 42.375 7.37592 40.0245 7.37592 37.125L7.37592 14.375C7.37592 11.4755 9.72642 9.125 12.6259 9.125L35.3759 9.125Z" fill="var(--tiny-first-color, #191919)" fill-rule="evenodd"/>
    </g>
    <path id="path6" d="M13.9384 17.0249C13.9384 19.7431 11.6858 21.9467 8.90717 21.9467C6.12848 21.9467 3.87592 19.7431 3.87592 17.0249C3.87592 16.754 3.89827 16.4883 3.94128 16.2294L3.96365 16.0846L6.6032 8.07047C7.06321 6.61466 8.4138 5.625 9.94056 5.625L38.0613 5.625C39.588 5.625 40.9386 6.61466 41.3986 8.07047L44.0467 16.1285L44.0668 16.2755C44.1062 16.6035 44.1259 16.8533 44.1259 17.0249C44.1259 19.7431 41.8734 21.9467 39.0947 21.9467C36.316 21.9467 34.0634 19.7431 34.0634 17.0249M24.0009 17.0249C24.0009 19.7431 21.7484 21.9467 18.9697 21.9467C16.2704 21.9467 14.0676 19.8673 13.9439 17.2566L13.9384 17.0249M34.0634 17.0249C34.0634 19.7431 31.8109 21.9467 29.0322 21.9467C26.3329 21.9467 24.1301 19.8673 24.0064 17.2566L24.0009 17.0249" fill="var(--tiny-second-color, #aeaeAE)" fill-rule="evenodd"/>
  </g>
</svg>