<svg viewBox="0 0 48 48" xmlns="http://www.w3.org/2000/svg" xmlns:xlink="http://www.w3.org/1999/xlink" width="48.000000" height="48.000000">
  <path id="减去顶层" d="M25.168 4.03613C26.092 4.03613 26.996 4.41213 27.65 5.06813L36.904 14.3581C37.0625 14.5171 37.2038 14.6887 37.327 14.8708L20.8037 31.3954L18.6615 35.7759L16.3455 40.5787C15.8811 41.5419 16.8621 42.5647 17.8439 42.1407L22.2765 40.2262L27.1081 38.0112L37.922 27.1979L37.922 37.9641C37.922 41.2721 35.23 43.9641 31.922 43.9641L12.078 43.9641C8.77 43.9641 6.078 41.2721 6.078 37.9641L6.078 10.0361C6.078 6.72813 8.77 4.03613 12.078 4.03613L25.168 4.03613ZM25.524 7.18413L25.5194 13.5127C25.5194 15.0657 26.7153 16.3529 28.2316 16.4989L28.5194 16.5127L34.8117 16.5118L25.524 7.18413ZM13.7692 18.5384C13.4614 18.5384 13.169 18.4922 12.8919 18.3999C12.7167 18.3415 12.5476 18.2646 12.3846 18.1692C12.1982 18.0601 12.0284 17.9333 11.8752 17.7889L11.8752 17.7888L11.8751 17.7887L11.875 17.7887L11.875 17.7887C11.6828 17.6074 11.5167 17.3984 11.3769 17.1615C11.2663 16.9742 11.1801 16.7795 11.1182 16.5773L11.1181 16.5771L11.1181 16.577C11.0394 16.3198 11 16.0505 11 15.7692C11 15.539 11.028 15.3161 11.0841 15.1005L11.0841 15.1003C11.148 14.8548 11.2481 14.6188 11.3846 14.3923C11.5185 14.1701 11.6754 13.9716 11.8554 13.797C12.0201 13.637 12.2042 13.497 12.4077 13.3769C12.6588 13.2287 12.9198 13.1241 13.1905 13.0634L13.1908 13.0633C13.3789 13.0211 13.5717 13 13.7692 13C14.077 13 14.3694 13.0462 14.6465 13.1385L14.6466 13.1385L14.6473 13.1388C14.8223 13.1972 14.9911 13.274 15.1538 13.3692C15.3403 13.4784 15.5101 13.6051 15.6632 13.7496L15.6634 13.7497C15.8556 13.931 16.0217 14.1401 16.1615 14.3769C16.2721 14.5643 16.3584 14.7591 16.4203 14.9614L16.4203 14.9615L16.4204 14.9616C16.4991 15.2188 16.5384 15.488 16.5384 15.7692C16.5384 16.0505 16.4991 16.3198 16.4203 16.577L16.4203 16.577L16.4202 16.5772L16.4202 16.5775C16.3583 16.7796 16.272 16.9743 16.1615 17.1615C16.0217 17.3983 15.8557 17.6074 15.6635 17.7886L15.6633 17.7888L15.6633 17.7888C15.5101 17.9333 15.3403 18.06 15.1538 18.1692C14.9909 18.2646 14.8218 18.3415 14.6465 18.3999L14.6465 18.3999C14.3694 18.4922 14.077 18.5384 13.7692 18.5384ZM21.1539 13.2315L11.4617 24.4621L12.8463 25.8467L22.5385 14.6315L21.1539 13.2315ZM13.7696 16.7703C13.8763 16.7703 13.9776 16.7543 14.0736 16.7223L14.0736 16.7223C14.2176 16.6743 14.3496 16.5903 14.4696 16.4703C14.5896 16.3503 14.6736 16.2183 14.7216 16.0743L14.7217 16.0741C14.7536 15.9782 14.7696 15.8769 14.7696 15.7703C14.7696 15.6636 14.7536 15.5623 14.7216 15.4663C14.6736 15.3223 14.5896 15.1903 14.4696 15.0703C14.3496 14.9503 14.2176 14.8663 14.0736 14.8183L14.0735 14.8182C13.9775 14.7863 13.8762 14.7703 13.7696 14.7703C13.663 14.7703 13.5616 14.7863 13.4656 14.8183L13.4656 14.8183C13.3216 14.8663 13.1896 14.9503 13.0696 15.0703C12.9496 15.1903 12.8656 15.3223 12.8176 15.4663L12.8176 15.4665C12.7856 15.5624 12.7696 15.6637 12.7696 15.7703C12.7696 15.8769 12.7856 15.9783 12.8176 16.0743L12.8177 16.0743C12.8657 16.2183 12.9496 16.3503 13.0696 16.4703C13.1896 16.5903 13.3216 16.6743 13.4656 16.7223C13.5616 16.7543 13.663 16.7703 13.7696 16.7703ZM18.8462 25.7085C19.0091 25.8039 19.1782 25.8808 19.3535 25.9392C19.6305 26.0315 19.923 26.0777 20.2308 26.0777C20.5386 26.0777 20.831 26.0315 21.108 25.9392L21.1081 25.9392C21.2833 25.8808 21.4524 25.8039 21.6154 25.7085C22.0359 25.4623 22.3718 25.1264 22.6231 24.7008C22.7337 24.5134 22.82 24.3186 22.8819 24.1164L22.8819 24.1163L22.882 24.1159C22.9607 23.8588 23 23.5897 23 23.3085C23 23.0272 22.9606 22.7579 22.8819 22.5007L22.8819 22.5006C22.82 22.2984 22.7337 22.1035 22.6231 21.9162C22.3718 21.4906 22.0359 21.1547 21.6154 20.9085C21.4524 20.8131 21.2833 20.7362 21.1081 20.6778C20.831 20.5855 20.5386 20.5393 20.2308 20.5393C20.0332 20.5393 19.8403 20.5604 19.6521 20.6026C19.3813 20.6634 19.1204 20.7679 18.8693 20.9162C18.4436 21.1675 18.1026 21.5059 17.8462 21.9316C17.7097 22.1582 17.6095 22.3942 17.5457 22.6398L17.5455 22.6404C17.4896 22.8558 17.4616 23.0785 17.4616 23.3085C17.4616 23.5898 17.501 23.8591 17.5797 24.1163L17.5797 24.1164C17.6416 24.3186 17.7279 24.5134 17.8385 24.7008C18.0898 25.1264 18.4257 25.4623 18.8462 25.7085ZM20.2312 24.308C20.4979 24.308 20.7312 24.208 20.9312 24.008C21.0512 23.888 21.1352 23.756 21.1832 23.612C21.2152 23.516 21.2312 23.4146 21.2312 23.308C21.2312 23.0413 21.1312 22.808 20.9312 22.608C20.7312 22.408 20.4979 22.308 20.2312 22.308C19.9646 22.308 19.7312 22.408 19.5312 22.608C19.3312 22.808 19.2312 23.0413 19.2312 23.308C19.2312 23.4146 19.2472 23.516 19.2792 23.612C19.3272 23.756 19.4112 23.888 19.5312 24.008C19.7312 24.208 19.9646 24.308 20.2312 24.308Z" fill="var(--tiny-first-color, #191919)" fill-rule="evenodd"/>
  <path id="形状结合" d="M34.568 19.5582L39.008 23.9982L26.32 36.6842L23 38.2062L18 40.4982L20.516 35.1482L21.988 32.1382L34.568 19.5582ZM41.1736 16.8749L41.4124 17.0846C42.5964 18.2328 42.682 20.0844 41.6542 21.332L41.4484 21.5586L41.1284 21.8766L36.6884 17.4366L37.0084 17.1186C38.1447 15.9823 39.9401 15.8972 41.1736 16.8749Z" fill="var(--tiny-second-color, #aeaeAE)" fill-rule="evenodd"/>
</svg>