<svg viewBox="0 0 48 48" xmlns="http://www.w3.org/2000/svg" xmlns:xlink="http://www.w3.org/1999/xlink" width="48.000000" height="48.000000">
  <g id="ic_huawei_cloud_store_new-新店/base/ic_huawei_cloud_store_new">
    <path id="减去顶层" d="M6.66736 35.4984L6.66736 23.2632C7.53513 23.6976 8.56217 23.9626 9.66736 23.9965L9.66736 35.4984C9.66736 35.9738 9.75883 36.4277 9.94177 36.8602C10.0225 37.0511 10.1185 37.2321 10.2296 37.4032C10.3622 37.6072 10.5165 37.7972 10.6924 37.9731C11.0158 38.2965 11.3868 38.5468 11.8053 38.7238C11.9884 38.8012 12.1754 38.8623 12.3662 38.9069L12.3662 38.9069C12.6261 38.9678 12.893 38.9982 13.1671 38.9982L18.3335 38.9982L18.3335 33.8318C18.3335 33.4178 18.3767 33.0131 18.4632 32.618L18.4633 32.6175C18.5371 32.28 18.6425 31.9494 18.7794 31.6257C19.0663 30.9476 19.4708 30.3474 19.9932 29.825C20.5156 29.3026 21.1158 28.8981 21.7939 28.6112C22.4967 28.314 23.2428 28.1654 24.032 28.1657L24.2447 28.1705C24.6349 28.1872 25.0154 28.2422 25.3862 28.3356C25.5564 28.3784 25.7245 28.4293 25.8905 28.4883C25.3102 29.3178 24.8467 30.2351 24.5239 31.2162C24.3909 31.1898 24.2552 31.1737 24.1168 31.1678L23.9681 31.165C23.627 31.1652 23.2919 31.235 22.9626 31.3743C22.8185 31.4352 22.6818 31.5075 22.5525 31.5912C22.3957 31.6928 22.2497 31.8112 22.1145 31.9463C21.868 32.1928 21.6773 32.4755 21.5425 32.7944C21.4032 33.1237 21.3335 33.4695 21.3335 33.8318L21.3335 40.4982C21.3335 40.9982 21.2085 41.3732 20.9585 41.6232C20.7085 41.8732 20.3335 41.9982 19.8335 41.9982L13.1671 41.9982C12.6904 41.9982 12.2245 41.9483 11.7697 41.8484C11.3841 41.7637 11.0065 41.6432 10.6367 41.4868C9.85887 41.1578 9.17035 40.6937 8.5711 40.0945C8.25728 39.7806 7.98051 39.4423 7.74081 39.0795L7.74068 39.0793C7.52273 38.7494 7.33542 38.3993 7.17876 38.0289C7.02236 37.6591 6.90183 37.2814 6.81718 36.8959L6.81708 36.8955C6.71726 36.4407 6.66736 35.975 6.66736 35.4984ZM41.3327 26.5275L41.3327 23.9117C40.9323 23.9697 40.5169 24.0002 40.0909 24.0002C39.4786 24.0002 38.8881 23.9371 38.3327 23.8201L38.3327 24.722C39.4359 25.1547 40.4482 25.7688 41.3327 26.5275Z" fill="var(--tiny-first-color, #191919)" fill-rule="evenodd"/>
    <path id="path6(边框)" d="M8.23588 22.3931C8.68795 22.4936 9.15119 22.5438 9.6256 22.5438C10.1 22.5438 10.5632 22.4936 11.0153 22.3931C11.3719 22.3138 11.7215 22.2033 12.0642 22.0615C12.8161 21.7504 13.4823 21.311 14.0626 20.7432C14.1867 20.6219 14.3048 20.4966 14.417 20.3675C14.5587 20.5307 14.7098 20.6875 14.8702 20.8377C15.1496 21.0993 15.4474 21.332 15.7639 21.5359C16.0999 21.7524 16.4568 21.9364 16.8346 22.0878C17.5929 22.3918 18.3842 22.5438 19.2085 22.5438C19.683 22.5438 20.1463 22.4936 20.5984 22.3931C20.9549 22.3138 21.3045 22.2033 21.6471 22.0615C22.399 21.7504 23.0652 21.311 23.6455 20.7432C23.7696 20.6219 23.8877 20.4966 23.9999 20.3675C24.1416 20.5307 24.2927 20.6875 24.4532 20.8377C24.7325 21.0993 25.0304 21.332 25.3468 21.5359C25.6828 21.7524 26.0397 21.9364 26.4175 22.0878C27.1758 22.3918 27.9671 22.5438 28.7914 22.5438C29.2659 22.5438 29.7291 22.4936 30.1812 22.3931C30.5377 22.3138 30.8873 22.2033 31.23 22.0615C31.982 21.7504 32.6481 21.311 33.2285 20.7432C33.3526 20.6218 33.4707 20.4965 33.5829 20.3674C33.6951 20.4965 33.8133 20.6218 33.9374 20.7432C34.2181 21.0179 34.519 21.2625 34.8399 21.4771C35.1824 21.7061 35.5477 21.9009 35.9358 22.0615C36.7129 22.3831 37.5258 22.5438 38.3744 22.5438C38.8488 22.5438 39.3121 22.4936 39.7642 22.3931C40.1207 22.3138 40.4703 22.2033 40.8129 22.0615C41.5649 21.7504 42.231 21.311 42.8114 20.7432C43.394 20.1732 43.8456 19.5176 44.1661 18.7763C44.3249 18.409 44.4459 18.0335 44.529 17.6498C44.6202 17.2286 44.6658 16.7975 44.6658 16.3565C44.6658 16.1333 44.6425 15.8276 44.5957 15.4394L44.5765 15.2995C44.5704 15.2544 44.5622 15.2098 44.552 15.1657C44.5418 15.1216 44.5296 15.0779 44.5154 15.0346L41.9988 7.37698C41.842 6.88053 41.6114 6.4219 41.307 6.00109C41.1625 5.80122 41.0046 5.61445 40.8335 5.44079C40.6528 5.25746 40.4573 5.08873 40.2469 4.93461C39.8374 4.6345 39.3919 4.40467 38.9106 4.24512C38.4177 4.08171 37.9109 4 37.3902 4L10.6097 4C10.3366 4 10.0673 4.02249 9.8018 4.06746C9.56119 4.10821 9.32371 4.16743 9.08935 4.24512C8.85519 4.32274 8.62952 4.417 8.41234 4.52789C8.18311 4.64493 7.96334 4.7805 7.75303 4.93461C7.54274 5.0887 7.34725 5.25741 7.16659 5.44071C6.99541 5.61439 6.83753 5.80118 6.69296 6.00109C6.47801 6.2983 6.30077 6.6115 6.16124 6.94068C6.10321 7.07758 6.05171 7.21724 6.00673 7.35967L3.49297 14.9918C3.46711 15.0703 3.44786 15.1505 3.43525 15.2322L3.41666 15.3532C3.40062 15.4498 3.38692 15.5466 3.37556 15.6437C3.34795 15.8797 3.33414 16.1173 3.33414 16.3565C3.33414 16.7975 3.37975 17.2286 3.47099 17.6499C3.55409 18.0335 3.67505 18.409 3.83385 18.7763C3.97415 19.1008 4.13957 19.4089 4.33011 19.7006C4.57483 20.0752 4.86099 20.4227 5.18858 20.7432C5.76894 21.311 6.43509 21.7504 7.18705 22.0615C7.52971 22.2033 7.87932 22.3138 8.23588 22.3931ZM32.0829 16.3615L32.0829 16.3565C32.0829 15.8565 32.2079 15.4815 32.4579 15.2315C32.7079 14.9815 33.0829 14.8565 33.5829 14.8565C34.0829 14.8565 34.4579 14.9815 34.7079 15.2315C34.9579 15.4815 35.0829 15.8565 35.0829 16.3565L35.0829 16.3615C35.0836 16.7885 35.168 17.1966 35.3363 17.5858C35.5007 17.9661 35.7337 18.3037 36.0352 18.5987C36.3391 18.896 36.6883 19.1262 37.0828 19.2895C37.4927 19.459 37.9232 19.5438 38.3744 19.5438C38.8255 19.5438 39.2561 19.459 39.6659 19.2895C40.0605 19.1262 40.4097 18.896 40.7135 18.5987C40.9006 18.4156 41.0614 18.2161 41.1957 18.0002C41.2778 17.8682 41.3501 17.7301 41.4125 17.5858C41.5814 17.1951 41.6658 16.7854 41.6658 16.3565C41.6658 16.253 41.6517 16.0829 41.6234 15.8464L41.6227 15.8416L39.1382 8.28086C39.0178 7.8996 38.7963 7.59081 38.4738 7.35449C38.1512 7.11816 37.7901 7 37.3902 7L10.6097 7C10.4098 7 10.2196 7.02954 10.039 7.08862C9.8584 7.1477 9.68747 7.23633 9.52621 7.35449C9.2037 7.59082 8.98034 7.90537 8.85615 8.29817L6.38105 15.813L6.37611 15.8448C6.34813 16.0133 6.33414 16.1839 6.33414 16.3565C6.33414 16.5906 6.35931 16.8191 6.40965 17.0418C6.45152 17.2271 6.5108 17.4084 6.58749 17.5858C6.75192 17.9661 6.98491 18.3037 7.28647 18.5987C7.59032 18.896 7.93951 19.1262 8.33405 19.2895C8.49329 19.3553 8.65566 19.4084 8.82114 19.4487C9.08157 19.5121 9.34973 19.5438 9.6256 19.5438C10.0768 19.5438 10.5073 19.459 10.9172 19.2895C11.3117 19.1262 11.6609 18.896 11.9647 18.5987C12.1519 18.4156 12.3126 18.2162 12.4469 18.0002C12.5291 17.8682 12.6013 17.7301 12.6637 17.5858C12.7404 17.4084 12.7997 17.227 12.8416 17.0417C12.8919 16.819 12.9171 16.5906 12.9171 16.3565C12.9171 15.3799 13.4052 14.88 14.3816 14.857C14.8815 14.8451 15.2593 14.9612 15.5152 15.2053C15.771 15.4493 15.9048 15.8212 15.9166 16.3211L15.9214 16.5223C15.9427 16.9283 16.0402 17.315 16.2141 17.6822C16.2791 17.8196 16.3532 17.9511 16.4363 18.0765C16.5733 18.2833 16.7349 18.4738 16.9209 18.648C17.2225 18.9305 17.5659 19.1489 17.9509 19.3033C18.1037 19.3645 18.2593 19.4141 18.4177 19.452C18.674 19.5132 18.9376 19.5438 19.2085 19.5438C19.6597 19.5438 20.0902 19.459 20.5001 19.2895C20.8946 19.1262 21.2438 18.896 21.5477 18.5987C21.7348 18.4157 21.8955 18.2162 22.0298 18.0003C22.112 17.8683 22.1842 17.7301 22.2466 17.5858C22.4155 17.1951 22.5 16.7854 22.5 16.3565C22.5 15.3799 22.9882 14.88 23.9645 14.857C24.9643 14.8333 25.4759 15.3214 25.4996 16.3211L25.5043 16.5223C25.5151 16.7271 25.5452 16.9269 25.5947 17.1218C25.6434 17.3134 25.7108 17.5002 25.797 17.6822C25.9693 18.0461 26.2049 18.3681 26.5038 18.648C26.8055 18.9305 27.1488 19.1489 27.5338 19.3033C27.9339 19.4637 28.3531 19.5438 28.7914 19.5438C29.2426 19.5438 29.6731 19.459 30.083 19.2895C30.4775 19.1262 30.8267 18.896 31.1306 18.5987C31.4321 18.3037 31.6651 17.9661 31.8296 17.5858C31.9063 17.4084 31.9655 17.227 32.0074 17.0418C32.0574 16.8206 32.0826 16.5939 32.0829 16.3615Z" fill="var(--tiny-first-color, #191919)" fill-rule="evenodd"/>
  </g>
  <path id="合并" d="M34.5 26.0005C35.127 26.0005 35.7394 26.0665 36.3373 26.1985L36.3373 26.1985C36.8381 26.309 37.3287 26.4659 37.809 26.6691C38.2917 26.8732 38.7482 27.1172 39.1783 27.401L39.1784 27.4011C39.6546 27.7153 40.0986 28.0783 40.5104 28.4901C40.9222 28.9019 41.2853 29.3459 41.5995 29.8222C41.8833 30.2523 42.1273 30.7088 42.3314 31.1914C42.5346 31.6718 42.6914 32.1624 42.802 32.6632C42.934 33.261 43 33.8735 43 34.5005C43 35.1275 42.934 35.7399 42.802 36.3378C42.6915 36.8386 42.5346 37.3292 42.3314 37.8095C42.1273 38.2922 41.8833 38.7486 41.5995 39.1788C41.5597 39.239 41.5192 39.2988 41.4779 39.358L44.172 42.0522C44.766 42.6461 44.766 43.5795 44.172 44.1735C43.578 44.7675 42.6447 44.7675 42.0507 44.1735L39.3564 41.4792C39.2975 41.5202 39.2382 41.5605 39.1783 41.6C38.7481 41.8838 38.2917 42.1277 37.809 42.3319C37.3287 42.5351 36.8381 42.6919 36.3373 42.8025C35.7394 42.9345 35.127 43.0005 34.5 43.0005C33.873 43.0005 33.2606 42.9345 32.6627 42.8025C32.1619 42.6919 31.6713 42.5351 31.191 42.3319C30.7083 42.1277 30.2518 41.8838 29.8217 41.6C29.3455 41.2857 28.9014 40.9227 28.4896 40.5109C28.0778 40.0991 27.7147 39.655 27.4005 39.1788L27.4005 39.1787C27.1167 38.7486 26.8727 38.2922 26.6686 37.8095C26.4654 37.3292 26.3086 36.8386 26.198 36.3378L26.198 36.3378C26.066 35.7399 26 35.1275 26 34.5005C26 33.8735 26.066 33.261 26.198 32.6632L26.198 32.6632C26.3086 32.1624 26.4654 31.6718 26.6686 31.1914C26.8728 30.7087 27.1167 30.2523 27.4006 29.8221C27.7148 29.3459 28.0778 28.9019 28.4896 28.4901C28.9014 28.0783 29.3454 27.7153 29.8217 27.401L29.8217 27.401L29.8217 27.401C30.2518 27.1172 30.7083 26.8732 31.191 26.6691C31.6713 26.4659 32.1619 26.309 32.6627 26.1985L32.6627 26.1985C33.2605 26.0665 33.873 26.0005 34.5 26.0005ZM34.5 29.0005C34.0757 29.0005 33.6621 29.0469 33.2592 29.1399C32.9532 29.2105 32.6533 29.3079 32.3596 29.4321C32.0565 29.5603 31.7693 29.7129 31.498 29.8898C31.1805 30.097 30.8848 30.3375 30.6109 30.6114C30.337 30.8853 30.0965 31.181 29.8894 31.4985C29.7124 31.7698 29.5598 32.057 29.4316 32.3601C29.3074 32.6538 29.21 32.9537 29.1394 33.2597C29.0465 33.6626 29 34.0762 29 34.5005C29 34.9248 29.0465 35.3384 29.1394 35.7412L29.1394 35.7413C29.21 36.0473 29.3074 36.3472 29.4316 36.6409C29.5598 36.944 29.7124 37.2311 29.8893 37.5024C30.0964 37.8199 30.337 38.1156 30.6109 38.3896C30.8848 38.6635 31.1806 38.904 31.4981 39.1112L31.4981 39.1112C31.7694 39.2881 32.0565 39.4407 32.3596 39.5689C32.6533 39.6931 32.9532 39.7905 33.2592 39.8611L33.2593 39.8611C33.6621 39.954 34.0757 40.0005 34.5 40.0005C34.9243 40.0005 35.3379 39.954 35.7407 39.8611C36.0468 39.7905 36.3467 39.6931 36.6404 39.5689C36.9435 39.4407 37.2306 39.2881 37.5019 39.1112C37.8194 38.9041 38.1151 38.6635 38.3891 38.3896C38.663 38.1156 38.9036 37.8199 39.1107 37.5024C39.2876 37.2311 39.4402 36.944 39.5684 36.6409C39.6926 36.3472 39.79 36.0473 39.8606 35.7412C39.9535 35.3384 40 34.9248 40 34.5005C40 34.0762 39.9535 33.6626 39.8606 33.2598C39.79 32.9537 39.6926 32.6538 39.5684 32.3601C39.4402 32.057 39.2876 31.7698 39.1107 31.4985C38.9035 31.181 38.663 30.8853 38.3891 30.6114C38.1152 30.3375 37.8194 30.0969 37.5019 29.8898C37.2306 29.7129 36.9435 29.5603 36.6404 29.4321C36.3467 29.3079 36.0468 29.2105 35.7407 29.1399C35.3379 29.0469 34.9243 29.0005 34.5 29.0005Z" fill="var(--tiny-second-color, #aeaeAE)" fill-rule="evenodd"/>
</svg>