<svg viewBox="0 0 48 48" xmlns="http://www.w3.org/2000/svg" xmlns:xlink="http://www.w3.org/1999/xlink" width="48.000000" height="48.000000">
  <g id="ic_huawei_cloud_store_new-新店/base/ic_huawei_cloud_store_new">
    <path id="减去顶层" d="M7.37592 22.8471C7.86486 22.9468 8.37882 23 8.90909 23C11.0673 23 12.9553 22.1191 13.9865 20.8037C15.0972 22.1191 17.1303 23 19.4546 23C21.6872 23 23.6513 22.1865 24.787 20.957C25.2616 21.576 25.9544 22.0932 26.7891 22.4523C23.8275 24.3405 21.7146 27.4418 21.1502 31.0561C20.217 31.8584 19.6259 33.0477 19.6259 34.375L19.6259 41.375L12.6259 41.375C9.72642 41.375 7.37592 39.0245 7.37592 36.125L7.37592 22.8471L7.37592 22.8471Z" fill="var(--tiny-first-color, #191919)" fill-rule="evenodd"/>
    <path id="path7" d="M13.9384 16.0249C13.9384 18.7431 11.6858 20.9467 8.90717 20.9467C6.12848 20.9467 3.87592 18.7431 3.87592 16.0249C3.87592 15.754 3.89827 15.4883 3.94128 15.2294L3.96365 15.0846L6.6032 7.07047C7.06321 5.61466 8.4138 4.625 9.94056 4.625L38.0613 4.625C39.588 4.625 40.9386 5.61466 41.3986 7.07047L44.0467 15.1285L44.0668 15.2755C44.1062 15.6035 44.1259 15.8533 44.1259 16.0249C44.1259 18.7431 41.8734 20.9467 39.0947 20.9467C36.316 20.9467 34.0634 18.7431 34.0634 16.0249M24.0009 16.0249C24.0009 18.7431 21.7484 20.9467 18.9697 20.9467C16.2704 20.9467 14.0676 18.8673 13.9439 16.2566L13.9384 16.0249M34.0634 16.0249C34.0634 18.7431 31.8109 20.9467 29.0322 20.9467C26.3329 20.9467 24.1301 18.8673 24.0064 16.2566L24.0009 16.0249" fill="var(--tiny-first-color, #191919)" fill-rule="evenodd"/>
  </g>
  <path id="减去顶层" d="M33.5 23C27.701 23 23 27.701 23 33.5C23 39.299 27.701 44 33.5 44C39.299 44 44 39.299 44 33.5C44 27.701 39.299 23 33.5 23ZM33.4881 29.2009L31.4278 27.4943C30.9719 26.9243 30.1659 26.8348 29.5959 27.2909C29.026 27.7467 28.9365 28.5528 29.3924 29.1226L31.9661 31.4708L30.4101 31.4708C29.6802 31.4708 29.1068 32.0444 29.1068 32.7741C29.1068 33.5041 29.6802 34.0774 30.4101 34.0774L32.1551 34.0774L32.1551 35.1743L30.3033 35.1743C29.5735 35.1743 29 35.7479 29 36.4776C29 37.2076 29.5735 37.7809 30.3033 37.7809L32.1551 37.7809L32.1551 39.4192C32.1551 40.1491 32.7285 40.7225 33.4584 40.7225C34.1882 40.7225 34.7617 40.1491 34.7617 39.4192L34.7617 37.7809L36.6134 37.7809C37.3433 37.7809 37.9168 37.2076 37.9168 36.4776C37.9168 35.7479 37.3433 35.1743 36.6134 35.1743L34.7617 35.1743L34.7617 34.0774L36.5066 34.0774C37.2365 34.0774 37.8099 33.5041 37.8099 32.7741C37.8099 32.0444 37.2365 31.4708 36.5066 31.4708L34.9804 31.4708L37.6852 29.1521C38.1574 28.5957 38.0912 27.7872 37.5347 27.3151C36.9782 26.8429 36.1699 26.909 35.6977 27.4657L33.4881 29.2009Z" fill="var(--tiny-second-color, #aeaeAE)" fill-rule="evenodd"/>
</svg>