<svg viewBox="0 0 48 48" xmlns="http://www.w3.org/2000/svg" xmlns:xlink="http://www.w3.org/1999/xlink" width="48.000000" height="48.000000">
  <g id="ic_huawei_cloud_store_new-新店/base/ic_huawei_cloud_store_new">
    <path id="减去顶层" d="M7.37592 23.7221L7.37592 37C7.37592 39.8995 9.72642 42.25 12.6259 42.25L19.6259 42.25L19.6259 35.25C19.6259 33.4702 20.6886 31.9387 22.2141 31.2553C22.9033 27.8932 25.1995 25.1169 28.2649 23.7641C26.7729 23.5008 25.5198 22.7877 24.787 21.832C23.6513 23.0615 21.6872 23.875 19.4546 23.875C17.1303 23.875 15.0972 22.9941 13.9865 21.6787C12.9553 22.9941 11.0673 23.875 8.90909 23.875C8.37882 23.875 7.86486 23.8218 7.37592 23.7221ZM33.1246 22.8933C33.5103 22.6471 33.8483 22.3618 34.1273 22.0459C35.18 23.1465 37.0098 23.875 39.0909 23.875C39.6218 23.875 40.1364 23.8276 40.6259 23.7387L40.6259 26.7247C38.8236 24.5251 36.1457 23.0705 33.1246 22.8933Z" fill="var(--tiny-first-color, #191919)" fill-rule="evenodd"/>
    <path id="path7" d="M13.9384 16.8999C13.9384 19.6181 11.6858 21.8217 8.90717 21.8217C6.12848 21.8217 3.87592 19.6181 3.87592 16.8999C3.87592 16.629 3.89827 16.3633 3.94128 16.1044L3.96365 15.9596L6.6032 7.94547C7.06321 6.48966 8.4138 5.5 9.94056 5.5L38.0613 5.5C39.588 5.5 40.9386 6.48966 41.3986 7.94547L44.0467 16.0035L44.0668 16.1505C44.1062 16.4785 44.1259 16.7283 44.1259 16.8999C44.1259 19.6181 41.8734 21.8217 39.0947 21.8217C36.316 21.8217 34.0634 19.6181 34.0634 16.8999M24.0009 16.8999C24.0009 19.6181 21.7484 21.8217 18.9697 21.8217C16.2704 21.8217 14.0676 19.7423 13.9439 17.1316L13.9384 16.8999M34.0634 16.8999C34.0634 19.6181 31.8109 21.8217 29.0322 21.8217C26.3329 21.8217 24.1301 19.7423 24.0064 17.1316L24.0009 16.8999" fill="var(--tiny-first-color, #191919)" fill-rule="evenodd"/>
  </g>
  <path id="合并" d="M32.5 25C33.127 25 33.7394 25.066 34.3373 25.198L34.3373 25.198C34.8381 25.3086 35.3287 25.4654 35.809 25.6686C36.2917 25.8728 36.7482 26.1167 37.1783 26.4005L37.1784 26.4006C37.6546 26.7148 38.0986 27.0778 38.5104 27.4896C38.9222 27.9014 39.2853 28.3455 39.5995 28.8217C39.8833 29.2518 40.1273 29.7083 40.3314 30.191C40.5346 30.6713 40.6914 31.1619 40.802 31.6627C40.934 32.2605 41 32.873 41 33.5C41 34.127 40.934 34.7394 40.802 35.3373C40.6915 35.8381 40.5346 36.3287 40.3314 36.809C40.1273 37.2917 39.8833 37.7481 39.5995 38.1783C39.5597 38.2386 39.5192 38.2983 39.4779 38.3575L42.172 41.0517C42.766 41.6456 42.766 42.579 42.172 43.173C41.578 43.767 40.6447 43.767 40.0507 43.173L37.3564 40.4787C37.2975 40.5197 37.2382 40.56 37.1783 40.5995C36.7481 40.8833 36.2917 41.1273 35.809 41.3314C35.3287 41.5346 34.8381 41.6915 34.3373 41.802C33.7394 41.934 33.127 42 32.5 42C31.873 42 31.2606 41.934 30.6627 41.802C30.1619 41.6915 29.6713 41.5346 29.191 41.3314C28.7083 41.1273 28.2518 40.8833 27.8217 40.5995C27.3455 40.2853 26.9014 39.9222 26.4896 39.5104C26.0778 39.0986 25.7147 38.6545 25.4005 38.1783L25.4005 38.1782C25.1167 37.7481 24.8727 37.2917 24.6686 36.809C24.4654 36.3287 24.3086 35.8381 24.198 35.3373L24.198 35.3373C24.066 34.7394 24 34.127 24 33.5C24 32.873 24.066 32.2606 24.198 31.6627L24.198 31.6627C24.3086 31.1619 24.4654 30.6713 24.6686 30.191C24.8728 29.7083 25.1167 29.2518 25.4006 28.8217C25.7148 28.3454 26.0778 27.9014 26.4896 27.4896C26.9014 27.0778 27.3454 26.7148 27.8217 26.4006L27.8217 26.4006L27.8217 26.4005C28.2518 26.1167 28.7083 25.8728 29.191 25.6686C29.6713 25.4654 30.1619 25.3086 30.6627 25.198L30.6627 25.198C31.2605 25.066 31.873 25 32.5 25ZM32.5 28C32.0757 28 31.6621 28.0465 31.2592 28.1394C30.9532 28.21 30.6533 28.3074 30.3596 28.4316C30.0565 28.5598 29.7693 28.7124 29.498 28.8894C29.1805 29.0965 28.8848 29.337 28.6109 29.6109C28.337 29.8848 28.0965 30.1805 27.8894 30.498C27.7124 30.7693 27.5598 31.0565 27.4316 31.3596C27.3074 31.6533 27.21 31.9532 27.1394 32.2593C27.0465 32.6621 27 33.0757 27 33.5C27 33.9243 27.0465 34.3379 27.1394 34.7407L27.1394 34.7408C27.21 35.0468 27.3074 35.3467 27.4316 35.6404C27.5598 35.9435 27.7124 36.2306 27.8893 36.5019C28.0964 36.8194 28.337 37.1152 28.6109 37.3891C28.8848 37.663 29.1806 37.9035 29.4981 38.1107L29.4981 38.1107C29.7694 38.2877 30.0565 38.4402 30.3596 38.5684C30.6533 38.6926 30.9532 38.79 31.2592 38.8606L31.2593 38.8606C31.6621 38.9535 32.0757 39 32.5 39C32.9243 39 33.3379 38.9535 33.7407 38.8606C34.0468 38.79 34.3467 38.6926 34.6404 38.5684C34.9435 38.4402 35.2306 38.2876 35.5019 38.1107C35.8194 37.9036 36.1151 37.663 36.3891 37.3891C36.663 37.1152 36.9036 36.8194 37.1107 36.5019C37.2876 36.2306 37.4402 35.9435 37.5684 35.6404C37.6926 35.3467 37.79 35.0468 37.8606 34.7407C37.9535 34.3379 38 33.9243 38 33.5C38 33.0757 37.9535 32.6621 37.8606 32.2593C37.79 31.9532 37.6926 31.6533 37.5684 31.3596C37.4402 31.0565 37.2876 30.7693 37.1107 30.4981C36.9035 30.1806 36.663 29.8848 36.3891 29.6109C36.1152 29.337 35.8194 29.0964 35.5019 28.8893C35.2306 28.7124 34.9435 28.5598 34.6404 28.4316C34.3467 28.3074 34.0468 28.21 33.7407 28.1394C33.3379 28.0465 32.9243 28 32.5 28Z" fill="var(--tiny-second-color, #aeaeAE)" fill-rule="evenodd"/>
</svg>