<svg viewBox="0 0 48 48" xmlns="http://www.w3.org/2000/svg" xmlns:xlink="http://www.w3.org/1999/xlink" width="48.000000" height="48.000000" fill="none">
  <path id="合并" d="M14.4326 11L26.5673 11C27.5432 11 28.4855 10.6432 29.2167 9.99681L30.0641 9.24761C32.1338 7.41787 30.8396 4 28.0771 4L12.9228 4C10.1602 4 8.86605 7.41787 10.9358 9.24761L11.7832 9.99681C12.5144 10.6432 13.4566 11 14.4326 11ZM15.8253 12.5L25.35 12.5C28.7369 12.5 31.7568 14.6328 32.8894 17.8247L33.1727 18.623C29.0536 19.1821 25.5162 21.6041 23.4471 25.0163L22.3708 25.0163L26.6104 20.1239C26.9105 19.4488 26.673 18.6388 26.0268 18.2399C25.3219 17.8047 24.3977 18.0233 23.9625 18.7282L19.9908 23.1583L15.9006 18.5622C15.4314 17.9914 14.6009 17.8409 13.9548 18.2399C13.2499 18.6751 13.0313 19.5994 13.4665 20.3043L17.6088 25.0163L12.9908 25.0163L12.7873 25.03C12.0551 25.1293 11.4908 25.7569 11.4908 26.5163C11.4908 27.3447 12.1624 28.0163 12.9908 28.0163L18.4908 28.0163L18.4908 30.0163L12.9908 30.0163L12.7873 30.03C12.0551 30.1293 11.4908 30.7569 11.4908 31.5163C11.4908 32.3447 12.1624 33.0163 12.9908 33.0163L18.4908 33.0163L18.4908 37.5153L18.5045 37.7189C18.6038 38.451 19.2314 39.0153 19.9908 39.0153C20.8192 39.0153 21.4908 38.3437 21.4908 37.5153L21.4908 33.0163C21.8228 37.4444 24.3528 41.2876 27.9406 43.5L10.9866 43.5C5.55873 43.5 1.70653 38.2097 3.37289 33.044L8.2116 18.044C9.27753 14.7396 12.3532 12.5 15.8253 12.5ZM21.6449 30.0163C21.7459 29.3315 21.8984 28.6635 22.0982 28.0163L21.4908 28.0163L21.4908 30.0163L21.6449 30.0163Z" fill="var(--tiny-first-color, #191919)" fill-rule="evenodd"/>
  <path id="减去顶层" d="M35 21C28.94 21 24 25.92 24 32C24 38.06 28.94 43 35 43C41.08 43 46 38.06 46 32C46 25.92 41.08 21 35 21ZM40.0573 28.3906C40.524 28.8612 40.5635 29.5947 40.1779 30.1098L34.7249 35.5374C34.2571 36.0012 33.3811 35.9169 32.866 35.5374L29.3906 32.091C28.8729 31.5777 28.8694 30.7419 29.3827 30.2243C29.8494 29.7537 30.7311 29.8352 31.2494 30.2164L33.7942 32.7398L38.1906 28.3827C38.7082 27.8694 39.544 27.873 40.0573 28.3906Z" fill="var(--tiny-first-color, #191919)" fill-rule="evenodd"/>
  <path id="减去顶层" d="M35 21C28.94 21 24 25.92 24 32C24 38.06 28.94 43 35 43C41.08 43 46 38.06 46 32C46 25.92 41.08 21 35 21ZM40.0573 28.3906C40.524 28.8612 40.5635 29.5947 40.1779 30.1098L34.7249 35.5374C34.2571 36.0012 33.3811 35.9169 32.866 35.5374L29.3906 32.091C28.8729 31.5777 28.8694 30.7419 29.3827 30.2243C29.8494 29.7537 30.7311 29.8352 31.2494 30.2164L33.7942 32.7398L38.1906 28.3827C38.7082 27.8694 39.544 27.873 40.0573 28.3906Z" fill="var(--tiny-second-color, #aeaeAE)" fill-rule="evenodd"/>
</svg>
