<svg viewBox="0 0 48 48" xmlns="http://www.w3.org/2000/svg" xmlns:xlink="http://www.w3.org/1999/xlink" width="48.000000" height="48.000000" fill="none">
  <path id="合并" d="M30.2103 13.1206C30.1255 13.1956 30.0389 13.2676 29.9505 13.3367C30.6493 14.0568 31.1975 14.9886 31.5952 16.1323L32.3327 18.2538C31.3345 18.4463 30.3741 18.7449 29.4636 19.1373L28.7615 17.1177C28.4582 16.2452 27.9997 15.5906 27.3862 15.1543C26.7727 14.718 26.004 14.5 25.0803 14.5L17.5891 14.5C16.0976 14.5 14.8459 14.8483 13.8339 15.5449C12.822 16.2415 12.0498 17.2864 11.5174 18.6797L7.54959 31.6798C7.14307 32.7436 6.9996 33.7759 7.11919 34.7769C7.23881 35.7779 7.62153 36.7476 8.26732 37.6857C8.91306 38.6237 9.68206 39.3273 10.5743 39.7963C11.4666 40.2653 12.4826 40.5 13.6214 40.5L23.8748 40.5C24.6299 41.4868 25.5133 42.3701 26.5001 43.1252L26.5001 43.5L13.6214 43.5C11.9569 43.5 10.4726 43.1573 9.16846 42.4718C7.86435 41.7862 6.74 40.7577 5.79622 39.3868C4.85239 38.0157 4.29305 36.5987 4.11822 35.1357C3.94343 33.6728 4.15308 32.1637 4.74723 30.6089L8.71502 17.6089C9.36297 15.9133 10.2539 14.5707 11.3878 13.5811C11.1795 13.4424 10.9802 13.2889 10.7898 13.1206L9.94233 12.3714C9.64351 12.1072 9.38618 11.8151 9.17035 11.4949C9.11753 11.4166 9.06719 11.3366 9.01934 11.2549C8.89916 11.0497 8.79678 10.8376 8.71219 10.6187C8.6319 10.4109 8.56765 10.1969 8.51942 9.97673C8.4836 9.81323 8.45715 9.64877 8.44006 9.48335C8.41207 9.21239 8.4092 8.93884 8.43145 8.66269C8.44627 8.47873 8.47196 8.29698 8.50851 8.11744C8.55758 7.87647 8.62623 7.63948 8.71446 7.40648C8.80269 7.17344 8.90825 6.9504 9.03111 6.73733C9.12262 6.57865 9.22375 6.42547 9.33447 6.27787C9.50069 6.05626 9.68401 5.85323 9.88443 5.66878C10.0068 5.55614 10.1356 5.45044 10.2707 5.35166C10.4527 5.21865 10.6426 5.10089 10.8403 4.99839C11.0487 4.89043 11.2659 4.7993 11.4918 4.72519C11.5817 4.69568 11.6724 4.66907 11.7639 4.64536C12.1376 4.54845 12.524 4.5 12.9229 4.5L28.0772 4.5C28.4761 4.5 28.8624 4.54846 29.2362 4.64537C29.3276 4.66908 29.4183 4.69569 29.5082 4.72519C29.7342 4.79933 29.9514 4.8904 30.1597 4.9984C30.3575 5.1009 30.5474 5.21865 30.7293 5.35166C30.8644 5.45041 30.9932 5.55609 31.1155 5.66869C31.316 5.85316 31.4993 6.05622 31.6656 6.27787C31.7763 6.42553 31.8775 6.57873 31.969 6.73748C32.0919 6.9505 32.1974 7.1735 32.2856 7.40648C32.3738 7.63952 32.4425 7.87654 32.4916 8.11756C32.5281 8.29706 32.5538 8.47877 32.5686 8.66269C32.5909 8.93882 32.588 9.21234 32.56 9.48327C32.5429 9.64873 32.5164 9.81321 32.4806 9.97673C32.4324 10.1969 32.3681 10.4109 32.2878 10.6187C32.2033 10.8376 32.1009 11.0497 31.9807 11.2549C31.9329 11.3366 31.8825 11.4166 31.8297 11.495C31.6139 11.8151 31.3565 12.1072 31.0577 12.3714L30.2103 13.1206ZM14.4327 11.5L17.5859 11.5L25.0803 11.5L26.5674 11.5C26.7199 11.5 26.8699 11.4865 27.0174 11.4595C27.165 11.4325 27.3101 11.392 27.4527 11.338C27.5953 11.284 27.7309 11.2182 27.8593 11.1407C27.9877 11.0632 28.109 10.974 28.2232 10.873L29.0707 10.1238C29.2557 9.96026 29.3908 9.77597 29.476 9.57095C29.5075 9.49507 29.5323 9.41634 29.5501 9.33477C29.5717 9.23632 29.5831 9.13774 29.5844 9.03902C29.587 8.84945 29.5521 8.65939 29.48 8.46883C29.4078 8.27825 29.308 8.11279 29.1806 7.97243C29.1142 7.89937 29.0403 7.83306 28.959 7.77361C28.8916 7.72433 28.8209 7.68172 28.747 7.64575C28.5474 7.5486 28.3241 7.5 28.0772 7.5L12.9229 7.5C12.6759 7.5 12.4527 7.54858 12.253 7.64575C12.1791 7.68171 12.1085 7.72434 12.0411 7.77361C11.9597 7.83307 11.8859 7.89935 11.8195 7.97243C11.692 8.11279 11.5922 8.27825 11.5201 8.46883C11.4479 8.65938 11.4131 8.84944 11.4156 9.039C11.4169 9.1377 11.4284 9.23633 11.4499 9.33477C11.4678 9.41632 11.4925 9.49504 11.524 9.57092C11.6092 9.77595 11.7443 9.96025 11.9294 10.1238L12.7768 10.873C12.8911 10.974 13.0124 11.0633 13.1408 11.1408C13.2693 11.2183 13.4048 11.284 13.5474 11.338C13.69 11.392 13.8351 11.4325 13.9826 11.4595C14.1302 11.4865 14.2802 11.5 14.4327 11.5ZM22.3709 25.0163L22.8636 25.0163C22.3233 25.9532 21.8883 26.9586 21.575 28.0163L21.4909 28.3121C21.1709 29.4871 21.0001 30.7236 21.0001 32C21.0001 33.2764 21.1709 34.5129 21.4909 35.6879L21.4909 37.5153C21.4909 38.3437 20.8193 39.0153 19.9909 39.0153C19.2315 39.0153 18.6039 38.451 18.5046 37.7189L18.4909 37.5153L18.4909 33.0163L12.9909 33.0163C12.1625 33.0163 11.4909 32.3447 11.4909 31.5163C11.4909 30.7569 12.0552 30.1293 12.7873 30.03L12.9909 30.0163L18.4909 30.0163L18.4909 28.0163L12.9909 28.0163C12.1625 28.0163 11.4909 27.3447 11.4909 26.5163C11.4909 25.7569 12.0552 25.1293 12.7873 25.03L12.9909 25.0163L17.6089 25.0163L13.4666 20.3043C13.0314 19.5994 13.25 18.6751 13.9549 18.2399C14.601 17.8409 15.4315 17.9914 15.9006 18.5622L19.9909 23.1583L23.9626 18.7282C24.3978 18.0233 25.322 17.8047 26.0269 18.2399C26.6731 18.6388 26.9106 19.4488 26.6105 20.1239L22.3709 25.0163Z" fill="var(--tiny-first-color)" fill-rule="evenodd"/>
  <path id="矢量 1734" d="M46 32C46 25.9249 41.0751 21 35 21C28.9249 21 24 25.9249 24 32C24 38.0751 28.9249 43 35 43C41.0751 43 46 38.0751 46 32ZM35 23.64C30.3829 23.64 26.64 27.3829 26.64 32C26.64 36.6171 30.3829 40.36 35 40.36C39.6171 40.36 43.36 36.6171 43.36 32C43.36 27.3829 39.6171 23.64 35 23.64ZM40.4579 30.5898C40.8435 30.0746 40.804 29.3411 40.3373 28.8706C39.824 28.3529 38.9882 28.3494 38.4705 28.8627L34.0742 33.2198L31.5294 30.6964C31.0111 30.3151 30.1294 30.2336 29.6627 30.7042C29.1494 31.2219 29.1529 32.0576 29.6705 32.571L33.146 36.0173C33.6611 36.3969 34.5371 36.4812 35.0049 36.0173L40.4579 30.5898Z" fill="var(--tiny-second-color)" fill-rule="evenodd"/>
</svg>