<svg viewBox="0 0 48 48" xmlns="http://www.w3.org/2000/svg" xmlns:xlink="http://www.w3.org/1999/xlink" width="48.000000" height="48.000000" fill="none">
  <path id="合并" d="M17.5891 14.5C16.0976 14.5 14.8459 14.8483 13.8339 15.5449C12.822 16.2415 12.0498 17.2864 11.5174 18.6797L7.54959 31.6798C7.14307 32.7436 6.9996 33.7759 7.11919 34.7769C7.23882 35.7779 7.62154 36.7476 8.26732 37.6857C8.91306 38.6237 9.68206 39.3273 10.5743 39.7963C11.4666 40.2653 12.4826 40.5 13.6214 40.5L23.8748 40.5C24.6299 41.4868 25.5133 42.3701 26.5001 43.1252L26.5001 43.5L13.6214 43.5C11.9569 43.5 10.4726 43.1573 9.16846 42.4718C7.86435 41.7862 6.74 40.7577 5.79622 39.3868C4.85239 38.0157 4.29305 36.5987 4.11822 35.1357C3.94339 33.6727 4.15306 32.1637 4.74723 30.6089L8.71503 17.6089C9.36297 15.9133 10.2539 14.5707 11.3878 13.581C11.1795 13.4424 10.9802 13.2889 10.7898 13.1206L9.94237 12.3714C9.64354 12.1072 9.38622 11.8151 9.17039 11.4949C9.11756 11.4166 9.06722 11.3366 9.01937 11.2549C8.89919 11.0497 8.79681 10.8376 8.71222 10.6187C8.63194 10.4109 8.56768 10.1969 8.51945 9.97673C8.48364 9.81323 8.45719 9.64877 8.4401 9.48334C8.41211 9.21239 8.40924 8.93884 8.43148 8.66269C8.4463 8.47873 8.47199 8.29698 8.50855 8.11744C8.55762 7.87647 8.62626 7.63948 8.71449 7.40648C8.80273 7.17344 8.90828 6.9504 9.03115 6.73733C9.12266 6.57864 9.22378 6.42548 9.3345 6.27787C9.50072 6.05626 9.68404 5.85323 9.88446 5.66878C10.0068 5.55614 10.1356 5.45044 10.2707 5.35166C10.4527 5.21864 10.6426 5.10089 10.8404 4.99838C11.0487 4.89039 11.2659 4.79932 11.4918 4.72519C11.5818 4.69568 11.6725 4.66907 11.7639 4.64536C12.1377 4.54845 12.524 4.5 12.9229 4.5L28.0772 4.5C28.4761 4.5 28.8625 4.54846 29.2362 4.64538C29.3277 4.66908 29.4184 4.69569 29.5083 4.72519C29.7342 4.79933 29.9514 4.8904 30.1598 4.9984C30.3576 5.1009 30.5474 5.21865 30.7294 5.35166C30.8645 5.45041 30.9932 5.55609 31.1156 5.66869C31.316 5.85316 31.4994 6.05622 31.6656 6.27787C31.7764 6.42553 31.8775 6.57873 31.9691 6.73748C32.0919 6.9505 32.1974 7.1735 32.2856 7.40648C32.3739 7.63952 32.4425 7.87654 32.4916 8.11756C32.5281 8.29706 32.5538 8.47877 32.5686 8.66269C32.5909 8.93881 32.588 9.21233 32.56 9.48326C32.5429 9.64872 32.5165 9.81321 32.4807 9.97673C32.4324 10.1969 32.3682 10.4109 32.2879 10.6187C32.2033 10.8376 32.1009 11.0497 31.9807 11.2549C31.9329 11.3366 31.8825 11.4166 31.8297 11.495C31.6139 11.8151 31.3566 12.1072 31.0577 12.3714L30.2103 13.1206C30.1255 13.1956 30.0389 13.2676 29.9505 13.3367C30.6493 14.0568 31.1975 14.9886 31.5952 16.1323L32.3327 18.2538C31.3345 18.4463 30.3741 18.7449 29.4636 19.1373L28.7615 17.1177C28.4582 16.2452 27.9997 15.5906 27.3862 15.1543C26.7727 14.718 26.004 14.5 25.0803 14.5L17.5891 14.5ZM25.0803 11.5L26.5674 11.5C26.7199 11.5 26.8699 11.4865 27.0175 11.4595C27.165 11.4325 27.3101 11.392 27.4527 11.338C27.5953 11.284 27.7309 11.2182 27.8593 11.1407C27.9877 11.0632 28.109 10.974 28.2233 10.873L29.0707 10.1238C29.2557 9.96026 29.3908 9.77597 29.476 9.57095C29.5076 9.49507 29.5323 9.41634 29.5502 9.33477C29.5717 9.23632 29.5832 9.13774 29.5845 9.03901C29.587 8.84945 29.5522 8.65939 29.48 8.46883C29.4079 8.27825 29.3081 8.11279 29.1806 7.97243C29.1142 7.89935 29.0404 7.83307 28.959 7.77361C28.8916 7.72433 28.821 7.68172 28.7471 7.64575C28.5474 7.54858 28.3242 7.5 28.0772 7.5L12.9229 7.5C12.676 7.5 12.4527 7.54859 12.253 7.64576C12.1791 7.68172 12.1085 7.72434 12.0411 7.77361C11.9597 7.83307 11.8859 7.89935 11.8195 7.97243C11.6921 8.11279 11.5923 8.27825 11.5201 8.46883C11.4479 8.6594 11.4131 8.84948 11.4156 9.03906C11.417 9.13776 11.4284 9.23633 11.45 9.33477C11.4678 9.41632 11.4925 9.49504 11.5241 9.57092C11.6093 9.77595 11.7444 9.96025 11.9294 10.1238L12.7768 10.873C12.8911 10.974 13.0124 11.0633 13.1409 11.1408C13.2693 11.2183 13.4048 11.284 13.5474 11.338C13.69 11.392 13.8351 11.4325 13.9826 11.4595C14.1302 11.4865 14.2802 11.5 14.4327 11.5L25.0803 11.5ZM22.8636 25.0163L22.3709 25.0163L26.6105 20.1239C26.9106 19.4488 26.6731 18.6388 26.0269 18.2399C25.322 17.8047 24.3978 18.0233 23.9626 18.7282L19.9909 23.1583L15.9007 18.5622C15.4315 17.9914 14.601 17.8409 13.9549 18.2399C13.25 18.6751 13.0314 19.5994 13.4666 20.3043L17.6089 25.0163L12.9909 25.0163L12.7874 25.03C12.0552 25.1293 11.4909 25.7569 11.4909 26.5163C11.4909 27.3447 12.1625 28.0163 12.9909 28.0163L18.4909 28.0163L18.4909 30.0163L12.9909 30.0163L12.7874 30.03C12.0552 30.1293 11.4909 30.7569 11.4909 31.5163C11.4909 32.3447 12.1625 33.0163 12.9909 33.0163L18.4909 33.0163L18.4909 37.5153L18.5046 37.7189C18.6039 38.451 19.2315 39.0153 19.9909 39.0153C20.8193 39.0153 21.4909 38.3437 21.4909 37.5153L21.4909 35.6879C21.1709 34.5129 21.0001 33.2764 21.0001 32C21.0001 30.7236 21.1709 29.4871 21.4909 28.3121L21.4909 28.0163C21.8043 26.9586 22.3233 25.9532 22.8636 25.0163Z" fill="var(--tiny-first-color, #191919)" fill-rule="evenodd"/>
  <path id="合并" d="M45.5 32C45.5 25.9249 40.5751 21 34.5 21C28.4249 21 23.5 25.9249 23.5 32C23.5 38.0751 28.4249 43 34.5 43C40.5751 43 45.5 38.0751 45.5 32ZM34.5 23.64C29.8829 23.64 26.14 27.3829 26.14 32C26.14 36.6171 29.8829 40.36 34.5 40.36C39.1171 40.36 42.86 36.6171 42.86 32C42.86 27.3829 39.1171 23.64 34.5 23.64ZM35 28.5L35 31.75L38.4 34.3C39.072 34.804 39.204 35.728 38.7 36.4C38.196 37.072 37.272 37.204 36.6 36.7L33 34C32.8426 33.882 32.7026 33.7495 32.5799 33.6025C32.4572 33.4555 32.3519 33.294 32.2639 33.1181C32.176 32.9421 32.11 32.7609 32.066 32.5746C32.022 32.3883 32 32.1968 32 32L32 28.5C32 27.66 32.66 27 33.5 27C34.34 27 35 27.66 35 28.5Z" fill="var(--tiny-second-color, #aeaeAE)" fill-rule="evenodd"/>
</svg>
