<svg viewBox="0 0 48 48" xmlns="http://www.w3.org/2000/svg" xmlns:xlink="http://www.w3.org/1999/xlink" width="48.000000" height="48.000000" fill="none">
  <path id="形状" d="M34.5 6C38.5085 6 41.7825 9.14472 41.9896 13.1017L42 13.5L42 15.003C42 15.8314 41.3284 16.503 40.5 16.503C39.7406 16.503 39.113 15.9386 39.0137 15.2065L39 15.003L39 13.5C39 11.1183 37.1497 9.16871 34.8081 9.01038L34.5 9L13.5 9C11.1183 9 9.16871 10.8503 9.01038 13.1919L9 13.5L8.99834 18.5L38.5 18.5007C40.3363 18.5007 41.8424 19.915 41.9884 21.7137L42 22.0007L42 34.5C42 38.5085 38.8553 41.7825 34.8983 41.9896L34.5 42L13.5 42C9.49148 42 6.21745 38.8553 6.0104 34.8983L6 34.5L6 13.5C6 9.49148 9.14472 6.21745 13.1017 6.0104L13.5 6L34.5 6ZM18.4997 21.4988L8.99834 21.5L9 34.5C9 36.8817 10.8503 38.8313 13.1919 38.9896L13.5 39L18.4997 38.9981L18.4997 21.4988ZM38.5 21.5007L21.4997 21.4988L21.4997 38.9981L34.5 39C36.8817 39 38.8313 37.1497 38.9896 34.8081L39 34.5L39 22.0007C39 21.764 38.7209 21.5526 38.5 21.5007Z" fill="var(--tiny-first-color)" fill-rule="nonzero"/>
</svg>