<svg viewBox="0 0 48 48" xmlns="http://www.w3.org/2000/svg" xmlns:xlink="http://www.w3.org/1999/xlink" width="48.000000" height="48.000000" fill="none">
  <path id="形状" d="M6 21.5L18.5 21.5007L18.5 42L12.0003 42C8.68663 42 6.00034 39.3137 6.00034 36L6 21.5ZM42 21.5L42.0003 36C42.0003 39.3137 39.314 42 36.0003 42L21.5 42L21.5 21.5007L42 21.5ZM36.0003 6C39.314 6 42.0003 8.68629 42.0003 12L42.0003 18.5L6 18.5L6 12C6 8.68629 8.68663 6 12.0003 6L36.0003 6Z" fill="var(--tiny-first-color, #191919)" fill-rule="evenodd"/>
  <path id="形状" d="M36.0003 6C39.314 6 42.0003 8.68629 42.0003 12L42.0003 18.5L6 18.5L6 12C6 8.68629 8.68663 6 12.0003 6L36.0003 6Z" fill="var(--tiny-second-color, #aeaeAE)" fill-rule="evenodd"/>
</svg>
