<svg viewBox="0 0 48 48" xmlns="http://www.w3.org/2000/svg" xmlns:xlink="http://www.w3.org/1999/xlink" width="48.000000" height="48.000000">
  <path id="减去顶层" d="M23.104 4.167C23.678 3.945 24.318 3.943 24.904 4.169L37.9 9.041C39.354 9.589 40.334 11.001 40.334 12.555L40.334 25.917C40.334 32.145 36.872 37.745 31.302 40.529L24.686 43.839C24.47 43.947 24.234 44.001 24 44.001C23.766 44.001 23.53 43.947 23.314 43.839L16.698 40.529C11.128 37.745 7.66602 32.145 7.66602 25.917L7.66602 12.555C7.66602 11.001 8.64602 9.589 10.1 9.041L23.104 4.167ZM23 18.5C23 16.5674 21.433 15 19.5 15C17.567 15 16 16.5674 16 18.5C16 20.4326 17.567 22 19.5 22C21.433 22 23 20.4326 23 18.5ZM31.0254 17.6221L18.8592 31.8408C18.3131 32.4785 17.3825 32.5508 16.7442 32.0049C16.106 31.459 16.0336 30.5283 16.5798 29.8896L28.7459 15.6719C29.2921 15.0332 30.2226 14.9609 30.8609 15.5068C31.4991 16.0537 31.5715 16.9844 31.0254 17.6221ZM31 29.5C31 27.5674 29.433 26 27.5 26C25.567 26 24 27.5674 24 29.5C24 31.4326 25.567 33 27.5 33C29.433 33 31 31.4326 31 29.5Z" fill="var(--tiny-first-color, #191919)" fill-rule="evenodd"/>
  <path id="合并" d="M19.5 15C21.433 15 23 16.567 23 18.5C23 20.433 21.433 22 19.5 22C17.567 22 16 20.433 16 18.5C16 16.567 17.567 15 19.5 15ZM31.0254 17.6221L18.8592 31.8404C18.3131 32.4787 17.3825 32.551 16.7442 32.0049C16.106 31.4588 16.0336 30.5282 16.5798 29.89L28.7459 15.6717C29.2921 15.0335 30.2226 14.9611 30.8609 15.5072C31.4991 16.0533 31.5715 16.9839 31.0254 17.6221ZM19.5 18C19.431 18 19.367 18.0122 19.3081 18.0366C19.2491 18.061 19.1953 18.0976 19.1464 18.1464C19.0976 18.1953 19.061 18.2491 19.0366 18.3081C19.0122 18.367 19 18.431 19 18.5C19 18.569 19.0122 18.633 19.0366 18.6919L19.0366 18.6919C19.061 18.7509 19.0976 18.8047 19.1464 18.8536C19.1953 18.9024 19.2491 18.939 19.3081 18.9634C19.367 18.9878 19.431 19 19.5 19C19.569 19 19.633 18.9878 19.6919 18.9634C19.7509 18.939 19.8047 18.9024 19.8536 18.8536C19.9024 18.8047 19.939 18.7509 19.9634 18.6919C19.9878 18.633 20 18.569 20 18.5C20 18.431 19.9878 18.367 19.9634 18.3081C19.939 18.2491 19.9024 18.1953 19.8536 18.1464C19.8047 18.0976 19.7509 18.061 19.6919 18.0366L19.6919 18.0366C19.633 18.0122 19.569 18 19.5 18ZM31 29.5C31 27.567 29.433 26 27.5 26C25.567 26 24 27.567 24 29.5C24 31.433 25.567 33 27.5 33C29.433 33 31 31.433 31 29.5ZM27.3081 29.0366C27.367 29.0122 27.431 29 27.5 29C27.569 29 27.633 29.0122 27.6919 29.0366C27.7509 29.061 27.8047 29.0976 27.8536 29.1464C27.9024 29.1953 27.939 29.2491 27.9634 29.3081C27.9878 29.367 28 29.431 28 29.5C28 29.569 27.9878 29.633 27.9634 29.6919C27.939 29.7509 27.9024 29.8047 27.8536 29.8536C27.8047 29.9024 27.7509 29.939 27.6919 29.9634C27.633 29.9878 27.569 30 27.5 30C27.431 30 27.367 29.9878 27.3081 29.9634C27.2491 29.939 27.1953 29.9024 27.1464 29.8536C27.0976 29.8047 27.061 29.7509 27.0366 29.6919C27.0122 29.633 27 29.569 27 29.5C27 29.431 27.0122 29.367 27.0366 29.3081C27.061 29.2491 27.0976 29.1953 27.1464 29.1464C27.1953 29.0976 27.2491 29.061 27.3081 29.0366Z" fill="var(--tiny-second-color, #aeaeAE)" fill-rule="evenodd"/>
</svg>