<svg viewBox="0 0 48 48" xmlns="http://www.w3.org/2000/svg" xmlns:xlink="http://www.w3.org/1999/xlink" width="48.000000" height="48.000000">
  <path id="形状结合" d="M32.5836 11.7241L32.7881 11.7378C36.6825 12.2569 38.3188 15.0076 38.3188 18.7009L38.298 19.35C38.2133 20.6868 37.87 21.8473 37.2327 22.9265L37.0983 23.1393L39.8397 24.9039L40.2168 25.163C41.1987 25.8826 41.9881 26.8274 42.5135 27.9168L43.5982 30.166L43.7214 30.4476C44.5023 32.4339 43.594 35.6856 41.5945 36.608C41.035 36.8661 40.424 37 39.8054 37L8.19459 37C7.57598 37 6.96502 36.8661 6.40552 36.608C4.40602 35.6856 3.49772 32.4339 4.27865 30.4476L4.40176 30.166L5.48651 27.9168C6.01193 26.8274 6.8013 25.8826 7.76165 25.1773L10.732 23.157C10.1043 22.0716 9.77025 20.8185 9.69803 19.3428L9.68222 18.8403C9.68222 15.3129 11.1696 12.4968 14.7543 11.8118C15.5712 11.6557 16.3629 12.1768 16.5225 12.9758C16.6821 13.7748 16.1492 14.549 15.3323 14.7051C13.5604 15.0437 12.7881 16.2651 12.7034 18.3082L12.6962 18.7971C12.7221 20.5294 13.0517 21.5171 13.9783 22.5241C14.535 23.129 14.4783 24.046 13.8905 24.5844L9.81697 27.3668C9.22168 27.7498 8.72881 28.2641 8.3768 28.8663L8.21271 29.1745L7.12796 31.4237C6.85009 31.9999 7.10238 33.6699 7.69147 33.9417C7.79636 33.9901 7.90769 34.0229 8.0218 34.0395L39.8054 34.0519C39.9195 34.0354 40.2036 33.9901 40.3085 33.9417C40.8976 33.6699 41.1499 31.9999 40.872 31.4237L39.7873 29.1745L39.6232 28.8663C39.2712 28.2641 38.7783 27.7498 38.183 27.3668L34.1032 24.7416C33.4822 24.2101 33.2416 23.1432 33.8113 22.5241C34.8523 21.3929 35.2809 20.3285 35.3038 18.7971L35.2977 18.3321C35.2151 16.1701 34.3777 14.925 32.3811 14.6589C31.5564 14.549 30.9789 13.8059 31.0913 12.9993C31.2037 12.1927 31.9634 11.6279 32.7881 11.7378L32.5836 11.7241ZM23.7614 11L24.0956 11.0104L24.4438 11.0398C27.7824 11.4077 30.2869 14.2119 29.8453 18.0412L29.789 18.4409C29.5212 20.0535 29.0677 21.4399 28.4373 22.5344L33.5822 26.4407C34.5717 27.1385 35.291 28.1429 35.6232 29.2908L35.8633 30.1204C36.0899 30.9038 35.6244 31.7185 34.8235 31.9402C34.0226 32.1619 33.1896 31.7066 32.9629 30.9233L32.7229 30.0937C32.6003 29.6702 32.3588 29.2909 32.0278 28.9972L31.8187 28.8316L26.3623 24.7049C25.8139 25.015 25.2074 25.205 24.5445 25.2619C23.5746 25.3451 22.6115 25.1663 21.6124 24.7018L15.8967 28.8453C15.436 29.1547 15.1005 29.612 14.9484 30.138L14.703 30.9864C14.4764 31.7697 13.6435 32.2251 12.8425 32.0035C12.0416 31.7819 11.576 30.9672 11.8025 30.1839L12.0479 29.3355C12.3534 28.2792 12.9863 27.3455 13.8542 26.6601L14.1905 26.415L19.2632 22.7026C18.5249 21.5767 18.0459 20.1281 17.8329 18.379C17.293 13.9459 20.4017 10.7946 24.0956 11.0104L23.7614 11ZM23.6781 13.9489C21.9478 13.9864 20.524 15.5507 20.826 18.0302C21.0526 19.8907 21.6131 21.1252 22.2423 21.6843C22.969 22.1566 23.6774 22.3769 24.2811 22.3251C25.342 22.2341 26.3478 20.7738 26.8137 17.9683C27.208 15.5939 25.826 14.0649 23.9647 13.9554L23.6781 13.9489Z" fill="var(--tiny-first-color, #191919)" fill-rule="evenodd"/>
</svg>