<svg viewBox="0 0 48 48" xmlns="http://www.w3.org/2000/svg" xmlns:xlink="http://www.w3.org/1999/xlink" width="48.000000" height="48.000000" fill="none">
  <path id="形状结合" d="M24 4C28.4341 4 32.6516 5.44838 36.1066 8.07848C36.7657 8.58028 36.8933 9.52142 36.3915 10.1806C35.8897 10.8397 34.9486 10.9673 34.2894 10.4655C31.3523 8.22962 27.7718 7 24 7C14.6117 7 7 14.6111 7 24C7 33.3876 14.6124 41 24 41C33.3889 41 41 33.3883 41 24C41 20.2292 39.7717 16.6507 37.5362 13.7122C37.0346 13.0529 37.1625 12.1118 37.8218 11.6102C38.4811 11.1086 39.4222 11.2365 39.9238 11.8958C42.5532 15.352 44 19.5672 44 24C44 35.0451 35.0458 44 24 44C12.9556 44 4 35.0444 4 24C4 12.9542 12.9549 4 24 4Z" fill="var(--tiny-first-color)" fill-rule="nonzero"/>
  <path id="矢量 1749" d="M18.9569 13C20.2468 13.0029 21.1905 13.8657 21.6088 15.0805C21.6515 15.2046 21.702 15.3414 21.7615 15.4948L22.2621 16.7381L22.427 17.1886L22.6551 17.8462L22.8258 18.3959C22.9538 18.8431 23.0226 19.1996 23.0226 19.5241C23.0226 20.1535 22.7939 20.8732 22.3885 21.4486L22.3786 21.8143C22.8066 22.7061 23.5048 23.5614 24.3755 24.3053L24.7099 24.5789C25.0296 24.8294 25.3525 25.0502 25.6487 25.2267L25.8966 25.2153C26.4624 24.6874 27.2586 24.4015 28.1258 24.5379L28.3879 24.5916L28.6352 24.6537L31.2885 25.2948L31.6579 25.3984L32.5258 25.6642L32.842 25.7562C34.0961 26.1074 34.9971 27.1231 35 28.4322L34.9686 28.7286L34.8763 29.1514L34.5505 30.576L34.4124 31.1315L34.2901 31.5847L34.1832 31.9373C33.7514 33.2516 33.0308 34.1336 31.7766 34.2456L31.408 34.2562L30.5603 34.1785C28.954 34.0047 27.5644 33.7263 26.4141 33.3471L25.3159 32.966C19.3957 30.8487 15.6007 26.9191 14.0935 21.3721C13.61 20.0869 13.2728 18.5286 13.076 16.7137L13 15.9151C13 14.3949 14.2272 13.0007 15.7478 13L18.9569 13ZM15.7693 15.7709L18.9499 15.7727L19.0757 16.2315L19.6684 17.7186L19.9839 18.6008L20.1264 19.0462L20.2446 19.4923L20.1513 19.8154C19.4548 20.0217 19.1482 20.7086 19.3158 21.4284C19.7963 23.4923 21.176 25.3325 22.9998 26.7615C23.7025 27.3121 24.4345 27.7647 25.0617 28.0461C25.4028 28.1992 25.7138 28.3031 26.0032 28.3472C26.6687 28.4015 27.492 28.2046 27.7527 27.4214L30.3755 27.924L30.804 28.0376L32.1895 28.4516L31.8679 29.8719L31.6872 30.594L31.549 31.072L31.4517 31.3782L30.8984 31.4259C29.4562 31.2708 28.2486 31.03 27.2645 30.7071L26.2786 30.3653C21.1521 28.5276 18.0272 25.279 16.7286 20.5192C16.3042 19.3759 16.0134 18.046 15.8369 16.4518L15.7693 15.7709ZM20.1513 19.8154L20.3784 19.7578C20.3419 19.7656 20.1865 19.8051 20.1513 19.8154Z" fill="var(--tiny-second-color)" fill-rule="evenodd"/>
</svg>