<svg viewBox="0 0 48 48" xmlns="http://www.w3.org/2000/svg" xmlns:xlink="http://www.w3.org/1999/xlink" width="48.000000" height="48.000000" fill="none">
  <path id="减去顶层" d="M24 4C35.026 4 44 12.972 44 24C44 35.026 35.026 44 24 44C12.972 44 4 35.026 4 24C4 12.972 12.972 4 24 4ZM21.6088 15.0806C21.1905 13.8658 20.2468 13.003 18.9569 13.0001L15.7478 13.0001C14.2272 13.0008 13 14.395 13 15.9151L13.076 16.7138C13.2728 18.5287 13.61 20.087 14.0935 21.3722C15.6007 26.9192 19.3957 30.8488 25.3159 32.966L26.4141 33.3472C27.5644 33.7263 28.954 34.0048 30.5603 34.1786L31.408 34.2563L31.7766 34.2457C33.0308 34.1336 33.7514 33.2516 34.1832 31.9374L34.2901 31.5848L34.4124 31.1316L34.5505 30.5761L34.8763 29.1515L34.9686 28.7287L35 28.4323C34.9971 27.1231 34.0961 26.1075 32.842 25.7563L32.5258 25.6643L31.6579 25.3985L31.2885 25.2948L28.6352 24.6538L28.3879 24.5917L28.1258 24.538C27.2586 24.4016 26.4624 24.6874 25.8966 25.2154L25.6487 25.2267C25.3525 25.0502 25.0296 24.8295 24.7099 24.579L24.3755 24.3054C23.5048 23.5615 22.8066 22.7062 22.3786 21.8144L22.3885 21.4487C22.7939 20.8733 23.0226 20.1535 23.0226 19.5242C23.0226 19.1997 22.9538 18.8431 22.8258 18.396L22.6551 17.8462L22.427 17.1887L22.2621 16.7382L21.7615 15.4948C21.702 15.3414 21.6515 15.2046 21.6088 15.0806Z" fill="var(--tiny-first-color, #191919)" fill-rule="evenodd"/>
  <path id="矢量 1749" d="M18.9569 13C20.2468 13.0029 21.1905 13.8657 21.6088 15.0805C21.6515 15.2046 21.702 15.3414 21.7615 15.4948L22.2621 16.7381L22.427 17.1886L22.6551 17.8462L22.8258 18.3959C22.9538 18.8431 23.0226 19.1996 23.0226 19.5241C23.0226 20.1535 22.7939 20.8732 22.3885 21.4486L22.3786 21.8143C22.8066 22.7061 23.5048 23.5614 24.3755 24.3053L24.7099 24.5789C25.0296 24.8294 25.3525 25.0502 25.6487 25.2267L25.8966 25.2153C26.4624 24.6874 27.2586 24.4015 28.1258 24.5379L28.3879 24.5916L28.6352 24.6537L31.2885 25.2948L31.6579 25.3984L32.5258 25.6642L32.842 25.7562C34.0961 26.1074 34.9971 27.1231 35 28.4322L34.9686 28.7286L34.8763 29.1514L34.5505 30.576L34.4124 31.1315L34.2901 31.5847L34.1832 31.9373C33.7514 33.2516 33.0308 34.1336 31.7766 34.2456L31.408 34.2562L30.5603 34.1785C28.954 34.0047 27.5644 33.7263 26.4141 33.3471L25.3159 32.966C19.3957 30.8487 15.6007 26.9191 14.0935 21.3721C13.61 20.0869 13.2728 18.5286 13.076 16.7137L13 15.9151C13 14.3949 14.2272 13.0007 15.7478 13L18.9569 13Z" fill="var(--tiny-second-color, #aeaeAE)" fill-rule="evenodd"/>
</svg>
