<svg viewBox="0 0 48 48" xmlns="http://www.w3.org/2000/svg" xmlns:xlink="http://www.w3.org/1999/xlink" width="48.000000" height="48.000000" fill="none">
  <path id="Stroke-1" d="M14.5345 5.50293L9.93252 5.50293C7.31218 5.50293 5.23263 7.75554 5.47707 10.3629C7.0295 27.0188 20.0343 40.3992 36.6082 42.4516C39.85 42.853 42.5425 40.54 42.5425 37.2829L42.5425 33.5509C42.5425 31.5536 41.0694 29.8511 39.0893 29.5971C36.9061 29.3244 34.7873 28.7493 32.7776 27.8946L32.4642 27.7742C30.7823 27.1967 28.9531 27.6479 27.7516 28.8789L27.4972 28.7226C24.2421 26.6281 21.4667 23.8529 19.3683 20.5949L19.2096 20.3389C20.5228 19.0573 20.9498 17.0749 20.1983 15.3126C19.3391 13.2969 18.7621 11.1648 18.4891 8.96611C18.2446 6.98151 16.5381 5.50293 14.5345 5.50293ZM9.93252 8.50293L14.5345 8.50293C15.036 8.50293 15.454 8.86506 15.5118 9.33431C15.8195 11.8133 16.47 14.2168 17.4387 16.4891C17.7576 17.237 17.4686 18.0717 16.7758 18.4325L16.5039 18.5756C15.7571 18.9686 15.4814 19.9001 15.894 20.6363C18.6085 25.4797 22.6167 29.488 27.4561 32.1959C28.1935 32.6086 29.126 32.3309 29.5177 31.5822L29.6537 31.3222C30.015 30.6252 30.8524 30.3355 31.6028 30.655C33.8676 31.6182 36.2562 32.2666 38.7126 32.5734C39.18 32.6333 39.5425 33.0523 39.5425 33.5509L39.5425 37.2829C39.5425 38.7168 38.4486 39.6565 36.9769 39.4743C21.8001 37.5949 9.8857 25.3364 8.46405 10.0837C8.3854 9.24476 9.07024 8.50293 9.93252 8.50293Z" fill="var(--tiny-first-color, #191919)" fill-rule="evenodd"/>
</svg>
