<svg viewBox="0 0 48 48" xmlns="http://www.w3.org/2000/svg" xmlns:xlink="http://www.w3.org/1999/xlink" width="48.000000" height="48.000000" fill="none">
  <path id="Fill-1" d="M28.5788 31.016L28.4368 31.294C23.5648 28.566 19.5328 24.532 16.8028 19.66L17.0868 19.514C18.5688 18.74 19.1708 16.966 18.5148 15.426C17.5588 13.184 16.9008 10.786 16.5908 8.27795C16.4268 6.97195 15.2968 6.00195 13.9788 6.00195L9.10478 6.00195C7.26678 6.00195 5.79678 7.58195 5.96878 9.41195C7.54678 26.338 20.7708 39.884 37.5448 41.962C40.0268 42.27 42.0448 40.562 42.0448 38.064L42.0448 34.112C42.0448 32.798 41.0808 31.668 39.7768 31.504C37.2848 31.19 34.8988 30.534 32.6728 29.584C31.1308 28.928 29.3528 29.532 28.5788 31.016Z" fill="var(--tiny-first-color, #191919)" fill-rule="evenodd"/>
</svg>
