<svg viewBox="0 0 48 48" xmlns="http://www.w3.org/2000/svg" xmlns:xlink="http://www.w3.org/1999/xlink" width="48.000000" height="48.000000">
  <path id="合并" d="M24 4C25.6587 4 27.2702 4.20191 28.8113 4.5825L27.4789 5.99329C27.1725 6.31775 27.009 6.75155 27.0251 7.19755L27.1014 9.32101C26.1007 9.11063 25.0633 9 24 9C15.7157 9 9 15.7158 9 24C9 32.2842 15.7157 39 24 39C32.2843 39 39 32.2842 39 24C39 22.8482 38.8702 21.7267 38.6244 20.6493L41.3364 20.6493C41.7625 20.6493 42.1725 20.4861 42.482 20.1932L43.4412 19.2855C43.8064 20.7973 44 22.376 44 24C44 35.0459 35.0457 44 24 44C12.9543 44 4 35.0459 4 24C4 12.9541 12.9543 4 24 4ZM24 12.333C25.2194 12.333 26.3951 12.5201 27.5 12.8671L27.5 16.0679C27.4577 16.0493 27.4152 16.0309 27.3725 16.0128C26.9142 15.819 26.4461 15.6666 25.9685 15.5556C25.3296 15.4072 24.6734 15.333 24 15.333C23.3266 15.333 22.6705 15.4072 22.0316 15.5556L22.0315 15.5556C21.5539 15.6665 21.0859 15.819 20.6275 16.0128C20.1522 16.2138 19.7018 16.4529 19.2762 16.7301L19.2761 16.7301C18.7734 17.0574 18.3053 17.4379 17.8717 17.8714C17.4382 18.305 17.0578 18.7731 16.7304 19.2758L16.7304 19.2758L16.7304 19.2759L16.7304 19.2759C16.4532 19.7015 16.2142 20.1519 16.0132 20.6271C15.8193 21.0855 15.6669 21.5535 15.5559 22.0312C15.4075 22.6701 15.3333 23.3263 15.3333 23.9997C15.3333 24.673 15.4075 25.3292 15.5559 25.9681L15.5559 25.9681C15.6669 26.4458 15.8193 26.9138 16.0132 27.3722C16.2142 27.8474 16.4532 28.2978 16.7304 28.7235L16.7304 28.7235L16.7305 28.7236C17.0578 29.2263 17.4382 29.6944 17.8717 30.1279C18.3053 30.5615 18.7735 30.9419 19.2762 31.2693L19.2775 31.2702C19.7028 31.5469 20.1528 31.7857 20.6275 31.9865C21.0858 32.1804 21.5538 32.3328 22.0314 32.4437L22.0316 32.4437C22.6705 32.5921 23.3266 32.6663 24 32.6663C24.6734 32.6663 25.3295 32.5921 25.9684 32.4437L25.9686 32.4437C26.4462 32.3328 26.9142 32.1804 27.3725 31.9865C27.8475 31.7856 28.2977 31.5467 28.7232 31.2697L28.7238 31.2693L28.7244 31.2689C29.2269 30.9417 29.6949 30.5613 30.1283 30.1279C30.5617 29.6945 30.942 29.2266 31.2692 28.7241L31.2696 28.7235C31.5468 28.2978 31.7858 27.8474 31.9868 27.3722C32.1807 26.9139 32.3331 26.4459 32.444 25.9683L32.4441 25.9681C32.5925 25.3292 32.6667 24.673 32.6667 23.9997C32.6667 23.3263 32.5925 22.6701 32.4441 22.0312L32.4439 22.0306L32.4439 22.0303C32.3347 21.5607 32.1855 21.1003 31.9962 20.6493L35.1785 20.6493C35.4961 21.7105 35.6667 22.8352 35.6667 23.9997C35.6667 30.443 30.4433 35.6663 24 35.6663C17.5567 35.6663 12.3333 30.443 12.3333 23.9997C12.3333 17.5564 17.5567 12.333 24 12.333Z" fill="var(--tiny-first-color, #191919)" fill-rule="evenodd"/>
  <path id="Path" d="M37.502 2.35383L37.502 10.487L45.9396 10.487C46.5252 10.487 47 10.9618 47 11.5474C47 11.8173 46.8971 12.077 46.7123 12.2736L41.7486 17.5548C41.4336 17.89 40.9941 18.0801 40.5341 18.0801L32.9217 18.0801L24.2212 26.529C23.9102 26.8311 23.4937 27 23.0601 27L22.6667 27C21.7462 27 21 26.2538 21 25.3333L21 24.8725C21 24.4401 21.1681 24.0246 21.4687 23.7137L29.8974 15L29.8974 7.35436C29.8974 6.91077 30.0742 6.48548 30.3887 6.17266L35.1934 1.39394C35.4471 1.14163 35.7903 1 36.1481 1C36.8958 1 37.502 1.60613 37.502 2.35383Z" fill="var(--tiny-second-color, #aeaeAE)" fill-rule="evenodd"/>
</svg>