<svg viewBox="0 0 48 48" xmlns="http://www.w3.org/2000/svg" xmlns:xlink="http://www.w3.org/1999/xlink" width="48.000000" height="48.000000">
  <path id="合并" d="M44 24C44 22.9282 43.9157 21.8761 43.7534 20.85L42.4482 22.0784C42.1589 22.3507 41.782 22.5107 41.3852 22.5296L39.927 22.599C39.9752 23.0633 40 23.5308 40 24C40 32.2842 32.2843 40 24 40C15.7157 40 8 32.2842 8 24C8 15.7158 15.7157 8 24 8C24.5488 8 25.095 8.03386 25.6368 8.09949L25.5476 6.626C25.5175 6.12769 25.7123 5.64211 26.0785 5.30281L27.2083 4.25596C26.1637 4.08753 25.0921 4 24 4C12.9543 4 4 12.9541 4 24C4 35.0459 12.9543 44 24 44C35.0457 44 44 35.0459 44 24ZM38.8489 12.1359L38.8489 10.6015C39.2913 11.0916 39.7099 11.6036 40.1027 12.1359L38.8489 12.1359ZM24 12.333C24.6136 12.333 25.2162 12.3804 25.8042 12.4717L25.9267 15.546C25.301 15.404 24.6587 15.333 24 15.333C23.3266 15.333 22.6705 15.4072 22.0316 15.5556L22.0315 15.5556C21.5539 15.6665 21.0859 15.819 20.6275 16.0128C20.1522 16.2138 19.7018 16.4529 19.2762 16.7301L19.2761 16.7301C18.7734 17.0574 18.3053 17.4379 17.8717 17.8714C17.4382 18.305 17.0578 18.7731 16.7304 19.2758L16.7304 19.2758L16.7304 19.2759L16.7304 19.2759C16.4532 19.7015 16.2142 20.1519 16.0132 20.6271C15.8193 21.0855 15.6669 21.5535 15.5559 22.0312C15.4075 22.6701 15.3333 23.3263 15.3333 23.9997C15.3333 24.673 15.4075 25.3292 15.5559 25.9681L15.5559 25.9681C15.6669 26.4458 15.8193 26.9138 16.0132 27.3722C16.2142 27.8474 16.4532 28.2978 16.7304 28.7235L16.7304 28.7235L16.7305 28.7236C17.0578 29.2263 17.4382 29.6944 17.8717 30.1279C18.3053 30.5615 18.7735 30.9419 19.2762 31.2693L19.2775 31.2702C19.7028 31.5469 20.1528 31.7857 20.6275 31.9865C21.0858 32.1804 21.5538 32.3328 22.0314 32.4437L22.0316 32.4437C22.6705 32.5921 23.3266 32.6663 24 32.6663C24.6734 32.6663 25.3295 32.5921 25.9684 32.4437L25.9686 32.4437C26.4462 32.3328 26.9142 32.1804 27.3725 31.9865C27.8475 31.7856 28.2977 31.5467 28.7232 31.2697L28.7238 31.2693L28.7244 31.2689C29.2269 30.9417 29.6949 30.5613 30.1283 30.1279C30.5617 29.6945 30.942 29.2266 31.2692 28.7241L31.2696 28.7235C31.5468 28.2978 31.7858 27.8474 31.9868 27.3722C32.1807 26.9139 32.3331 26.4459 32.444 25.9683L32.4441 25.9681C32.5925 25.3292 32.6667 24.673 32.6667 23.9997C32.6667 23.462 32.6194 22.9353 32.5248 22.4197L35.5436 22.2992C35.6247 22.8543 35.6667 23.4221 35.6667 23.9997C35.6667 30.443 30.4433 35.6663 24 35.6663C17.5567 35.6663 12.3333 30.443 12.3333 23.9997C12.3333 17.5564 17.5567 12.333 24 12.333Z" fill="var(--tiny-first-color, #191919)" fill-rule="evenodd"/>
  <path id="Path(边框)" d="M37.6804 10.3094L37.6804 4.25713C37.6804 4.06137 37.6605 3.86984 37.6206 3.68255C37.5845 3.5127 37.532 3.34634 37.4631 3.18347C37.3235 2.85343 37.1268 2.56146 36.8728 2.30754C36.6189 2.05363 36.327 1.85688 35.9969 1.71728C35.834 1.6484 35.6677 1.59589 35.4979 1.55976C35.3106 1.51992 35.119 1.5 34.9233 1.5C34.7411 1.5 34.5624 1.51737 34.3871 1.55211C34.2118 1.58685 34.04 1.63896 33.8716 1.70845C33.7032 1.77793 33.5446 1.86216 33.3958 1.96113C33.2471 2.0601 33.1081 2.17381 32.979 2.30227L28.5526 6.70475C28.4032 6.85333 28.2709 7.0134 28.1558 7.18496C28.0406 7.35654 27.9426 7.53962 27.8617 7.73419C27.6999 8.1233 27.619 8.52857 27.619 8.94998L27.619 15.3935L20.3899 22.8714C20.2472 23.019 20.1209 23.1773 20.0111 23.3463C19.9013 23.5153 19.8079 23.695 19.7309 23.8853C19.6539 24.0756 19.5962 24.2697 19.5577 24.4676C19.5192 24.6654 19.5 24.867 19.5 25.0723L19.5 26.5C19.5 26.7706 19.5526 27.0303 19.6578 27.279C19.7591 27.5184 19.9017 27.7302 20.0858 27.9142C20.2698 28.0983 20.4816 28.2409 20.721 28.3422C20.9697 28.4474 21.2294 28.5 21.5 28.5L22.8649 28.5C23.2766 28.5 23.6733 28.4226 24.0549 28.2679C24.4364 28.1132 24.775 27.8924 25.0704 27.6057L32.5355 20.36L38.9445 20.36C39.1629 20.36 39.3769 20.3384 39.5864 20.295C39.7959 20.2517 40.0009 20.1866 40.2015 20.0999C40.6025 19.9264 40.9527 19.6805 41.2519 19.3621L45.8258 14.4957C46.0424 14.2653 46.2089 14.0031 46.3253 13.7092C46.4418 13.4153 46.5 13.1102 46.5 12.794C46.5 12.6187 46.4823 12.4471 46.4468 12.2793C46.4142 12.1252 46.3666 11.9742 46.3041 11.8264C46.2428 11.6814 46.1692 11.5445 46.0834 11.4158C45.9932 11.2806 45.8895 11.1543 45.7723 11.0371C45.6551 10.92 45.5289 10.8163 45.3937 10.7261C45.265 10.6403 45.1281 10.5666 44.9829 10.5053C44.6742 10.3747 44.3517 10.3094 44.0154 10.3094L37.6804 10.3094ZM34.6804 4.84123L34.6804 13.3094L42.8237 13.3094L39.0659 17.3075C39.033 17.3425 38.9925 17.36 38.9445 17.36L31.319 17.36L22.981 25.4529C22.9487 25.4843 22.91 25.5 22.8649 25.5L22.5 25.5L22.5 25.0723C22.5 25.0274 22.5156 24.9888 22.5468 24.9565L30.619 16.6065L30.619 8.94998C30.619 8.90378 30.6354 8.86439 30.6681 8.83181L34.6804 4.84123Z" fill="var(--tiny-second-color, #aeaeAE)" fill-rule="evenodd"/>
</svg>