<svg viewBox="0 0 48 48" xmlns="http://www.w3.org/2000/svg" xmlns:xlink="http://www.w3.org/1999/xlink" width="48.000000" height="48.000000" fill="none">
  <path id="形状结合" d="M36.002 6C39.308 6 42 8.692 42 11.998L42 36.002C42 39.308 39.308 42 36.002 42L11.996 42C8.69 42 6 39.308 6 36.002L6 11.998C6 8.692 8.69 6 11.996 6L36.002 6ZM32 14.2L16 14.2L15.7965 14.2137C15.0643 14.313 14.5 14.9406 14.5 15.7C14.5 16.5284 15.1716 17.2 16 17.2L22.5 17.2L22.5 32.3L22.5137 32.5035C22.613 33.2357 23.2406 33.8 24 33.8C24.8284 33.8 25.5 33.1284 25.5 32.3L25.5 17.2L32 17.2L32.2035 17.1863C32.9357 17.087 33.5 16.4594 33.5 15.7C33.5 14.8716 32.8284 14.2 32 14.2Z" fill="var(--tiny-first-color)" fill-rule="evenodd"/>
  <path id="形状结合" d="M32 14.2C32.8284 14.2 33.5 14.8716 33.5 15.7C33.5 16.4594 32.9357 17.087 32.2035 17.1863L32 17.2L25.5 17.2L25.5 32.3C25.5 33.1284 24.8284 33.8 24 33.8C23.2406 33.8 22.613 33.2357 22.5137 32.5035L22.5 32.3L22.5 17.2L16 17.2C15.1716 17.2 14.5 16.5284 14.5 15.7C14.5 14.9406 15.0643 14.313 15.7965 14.2137L16 14.2L32 14.2Z" fill="var(--tiny-second-color)" fill-rule="evenodd"/>
</svg>