<svg viewBox="0 0 48 48" xmlns="http://www.w3.org/2000/svg" xmlns:xlink="http://www.w3.org/1999/xlink" width="48.000000" height="48.000000" fill="none">
  <path id="减去顶层" d="M37.5535 4.50049C40.738 4.50049 43.3414 6.99022 43.5233 10.1291L43.5335 10.4805L43.5335 28.3425C43.5335 29.7733 43.0278 31.1316 42.1226 32.2014C41.5875 32.8338 40.641 32.9127 40.0086 32.3776C39.3762 31.8425 39.2973 30.896 39.8324 30.2636C40.2185 29.8073 40.4578 29.2475 40.5183 28.6463L40.5335 28.3425L40.5335 10.4805C40.5335 8.93171 39.3514 7.65856 37.8405 7.51413L37.5535 7.50049L17.4295 7.50049C15.8807 7.50049 14.6076 8.68254 14.4631 10.1935L14.4495 10.4805L31.5 10.5003C34.808 10.5003 37.5 13.1923 37.5 16.5003L37.5 37.5003C37.5 40.8083 34.808 43.5003 31.5 43.5003L10.5 43.5003C7.192 43.5003 4.5 40.8083 4.5 37.5003L4.5 16.5003C4.5 13.1923 7.192 10.5003 10.5 10.5003L11.448 10.4985C11.448 7.31401 13.9392 4.69254 17.0782 4.51064L17.4295 4.50049L37.5535 4.50049ZM9.5 19.5001L33 19.5001C33.84 19.5001 34.5 20.1601 34.5 21.0001C34.5 21.8401 33.84 22.5001 33 22.5001L9.5 22.5001C8.66 22.5001 8 21.8401 8 21.0001C8 20.1601 8.66 19.5001 9.5 19.5001Z" fill="var(--tiny-first-color, #191919)" fill-rule="evenodd"/>
  <path id="形状结合" d="M43.5236 10.1287C43.3417 6.98973 40.7382 4.5 37.5537 4.5L17.4297 4.5L17.0784 4.51015C13.9395 4.69205 11.4482 7.31352 11.4482 10.498L14.4497 10.48L14.4634 10.193C14.6078 8.68205 15.881 7.5 17.4297 7.5L37.5537 7.5L37.8407 7.51364C39.3517 7.65807 40.5337 8.93123 40.5337 10.48L40.5337 28.342L40.5185 28.6458C40.4581 29.247 40.2188 29.8068 39.8327 30.2631C39.2975 30.8955 39.3764 31.842 40.0088 32.3771C40.6412 32.9122 41.5877 32.8333 42.1228 32.2009C43.028 31.1311 43.5337 29.7728 43.5337 28.342L43.5337 10.48L43.5236 10.1287Z" fill="var(--tiny-second-color, #aeaeAE)" fill-rule="evenodd"/>
</svg>
