<svg viewBox="0 0 48 48" xmlns="http://www.w3.org/2000/svg" xmlns:xlink="http://www.w3.org/1999/xlink" width="48.000000" height="48.000000">
  <path id="合并" d="M37.5538 4.50049C40.7383 4.50049 43.3417 6.99022 43.5236 10.1291L43.5338 10.4805L43.5338 28.3425C43.5338 29.7733 43.0281 31.1316 42.1229 32.2014C41.5878 32.8338 40.6413 32.9127 40.0089 32.3776C39.3765 31.8425 39.2976 30.896 39.8327 30.2636C40.2188 29.8073 40.4581 29.2475 40.5186 28.6463L40.5338 28.3425L40.5338 10.4805C40.5338 8.93171 39.3517 7.65856 37.8408 7.51413L37.5538 7.50049L19.4298 7.50049C17.881 7.50049 16.6079 8.68254 16.4634 10.1935L16.4488 10.4605L31.5228 10.4623C34.7077 10.4623 37.3108 12.9524 37.4926 16.0928L37.5028 16.4443L37.5028 37.5203C37.5028 40.7048 35.0131 43.3082 31.8741 43.4901L31.5228 43.5003L10.4468 43.5003C7.26231 43.5003 4.65885 41.0106 4.47695 37.8716L4.4668 37.5203L4.4668 16.4443C4.4668 13.396 6.75651 10.8468 9.76188 10.5021C10.5849 10.4077 11.3286 10.9983 11.423 11.8214C11.5174 12.6444 10.9268 13.3881 10.1037 13.4825C8.70197 13.6433 7.61089 14.7705 7.47998 16.1626L7.4668 16.4443L7.4668 37.5203C7.4668 39.0691 8.64885 40.3422 10.1598 40.4866L10.4468 40.5003L31.5228 40.5003C33.0716 40.5003 34.3447 39.3182 34.4892 37.8072L34.5028 37.5203L34.5028 22.5001L7.49999 22.5001L7.49999 19.5001L34.5028 19.5001L34.5028 16.4443C34.5028 14.8938 33.3209 13.6204 31.8098 13.4759L31.5228 13.4623L14.9488 13.4623C14.7927 13.4623 14.6422 13.4384 14.5007 13.3942C14.3547 13.3483 14.2187 13.2811 14.096 13.196C13.705 12.9259 13.4488 12.474 13.4488 11.9623L13.4498 10.4805C13.4498 7.296 15.9395 4.69254 19.0785 4.51064L19.4298 4.50049L37.5538 4.50049Z" fill="var(--tiny-first-color)" fill-rule="evenodd"/>
  <path id="矢量 1721" d="M37.5537 4.5C40.7383 4.5 43.3418 6.98975 43.5234 10.1287L43.5342 10.48L43.5342 28.342C43.5342 29.7728 43.0283 31.1311 42.123 32.2009C41.5879 32.8333 40.6416 32.9122 40.0088 32.3771C39.377 31.842 39.2979 30.8955 39.833 30.2631C40.2188 29.8068 40.458 29.247 40.5186 28.6458L40.5342 28.342L40.5342 10.48C40.5342 8.93121 39.3516 7.65808 37.8408 7.51367L37.5537 7.5L19.4297 7.5C17.8809 7.5 16.6074 8.68207 16.4639 10.1931L16.4492 10.46L31.5225 10.4618L13.4502 10.4619C13.459 7.28564 15.9453 4.69171 19.0781 4.51013L19.4297 4.5L37.5537 4.5Z" fill="var(--tiny-second-color)" fill-rule="evenodd"/>
</svg>