<svg viewBox="0 0 48 48" xmlns="http://www.w3.org/2000/svg" xmlns:xlink="http://www.w3.org/1999/xlink" width="48.000000" height="48.000000">
  <path id="形状结合" d="M0 6C0 2.80464 2.49784 0.192678 5.64745 0.0101852L6 0L30 0C33.1954 0 35.8073 2.49784 35.9898 5.64745L36 6L36 30C36 33.1954 33.5022 35.8073 30.3525 35.9898L30 36L6 36C2.80464 36 0.192678 33.5022 0.0101852 30.3525L0 30L0 24.4927L10.9241 24.492L10.9253 36L13.9253 36L13.9241 24.492L21.9241 24.492L21.9253 36L24.9253 36L24.9241 24.492L36 24.4927L36 21.4927L0 21.4927L0 6Z" fill="var(--tiny-first-color)" fill-rule="evenodd" transform="matrix(0,1,-1,0,42,6)"/>
  <path id="矢量 1746" d="M0 6C0 2.80469 2.49786 0.192871 5.64746 0.0102539L6 0L30 0C33.1954 0 35.8073 2.49805 35.9898 5.64746L36 6L36 21.4927L0 21.4927L0 6Z" fill="var(--tiny-second-color)" fill-rule="evenodd" transform="matrix(0,1,-1,0,42,6)"/>
</svg>