<svg viewBox="0 0 48 48" xmlns="http://www.w3.org/2000/svg" xmlns:xlink="http://www.w3.org/1999/xlink" width="48.000000" height="48.000000" fill="none">
  <path id="形状结合" d="M30 0C33.3137 0 36 2.68629 36 6L36 30C36 33.3137 33.3137 36 30 36L6 36C2.68629 36 0 33.3137 0 30L0 6C0 2.68629 2.68629 0 6 0L30 0ZM10.9241 24.492L3 24.492L3 30C3 31.5594 4.18978 32.8409 5.71108 32.9863L6 33L10.924 33L10.9241 24.492ZM21.9241 24.492L13.9241 24.492L13.924 33L21.924 33L21.9241 24.492ZM33 24.486L24.9241 24.492L24.924 33L30 33C31.5594 33 32.8409 31.8102 32.9863 30.2889L33 30L33 24.486ZM30 3L6 3C4.34315 3 3 4.34315 3 6L3 21.492L32.9253 21.4927L33 6C33 4.44061 31.8102 3.1591 30.2889 3.01373L30 3Z" fill="var(--tiny-first-color)" fill-rule="evenodd" transform="matrix(0,1,-1,0,42,6.00732)"/>
</svg>