<svg viewBox="0 0 48 48" xmlns="http://www.w3.org/2000/svg" xmlns:xlink="http://www.w3.org/1999/xlink" width="48.000000" height="48.000000">
  <path id="形状结合" d="M34 24C39.5238 24 44 28.4769 44 34C44 39.5244 39.5244 44 34 44C28.4756 44 24 39.5244 24 34C24 28.4769 28.4762 24 34 24ZM24 4C34.8547 4 43.7209 12.6586 43.9936 23.4878C44.0144 24.3159 43.36 25.0042 42.5318 25.025C41.7036 25.0459 41.0154 24.3914 40.9945 23.5633C40.9224 20.6984 40.1424 18.0122 38.824 15.671L39.498 15.75L38.5381 15.6374C37.5586 15.5381 36.5701 15.488 35.5752 15.488C35.0254 15.488 34.4784 15.5035 33.9347 15.534C33.7988 15.8568 33.6078 16.1494 33.3742 16.4018C33.6952 17.6952 33.9328 19.0081 34.0874 20.3333C34.1834 21.1562 33.5942 21.9011 32.7714 21.9971C31.9485 22.0931 31.2037 21.5039 31.1076 20.6811C30.9743 19.5388 30.773 18.4066 30.5044 17.2893C29.8462 17.14 29.2728 16.7752 28.8593 16.2745C23.6919 17.4997 19.0037 20.1182 15.2702 23.777C15.3739 24.0849 15.4249 24.4157 15.4179 24.7589C15.4115 25.071 15.3578 25.371 15.2639 25.6521C17.0894 27.4493 19.1513 28.9939 21.3992 30.2508C22.1223 30.6551 22.3807 31.569 21.9764 32.2921C21.5721 33.0152 20.6581 33.2736 19.9351 32.8693C17.3914 31.447 15.0629 29.6903 13.0054 27.6413C12.7988 27.6852 12.5819 27.7052 12.3599 27.7009C12.22 27.698 12.0826 27.6856 11.9482 27.6644C10.9003 29.1332 9.98111 30.7142 9.21117 32.3897C12.0595 37.3981 17.3766 40.8237 23.5212 40.9934C24.3493 41.0163 25.002 41.7061 24.9792 42.5342C24.9563 43.3623 24.2665 44.0151 23.4384 43.9923C12.6303 43.6938 4 34.8363 4 24C4 12.9543 12.9543 4 24 4ZM34 27C30.1332 27 27 30.1337 27 34C27 37.8676 30.1324 41 34 41C37.8676 41 41 37.8676 41 34C41 30.1337 37.8668 27 34 27ZM7.43291 20.1712C7.14966 21.4018 7 22.6834 7 24C7 25.6621 7.2389 27.2695 7.68444 28.7892C8.27378 27.7407 8.919 26.733 9.61511 25.7683C9.48139 25.4198 9.41172 25.0387 9.41988 24.6409C9.42661 24.2925 9.49249 23.9591 9.60777 23.6501C8.88102 22.6366 8.2067 21.5726 7.59186 20.4634L7.43291 20.1712ZM10.2157 19.009C10.7411 19.9568 11.3142 20.868 11.9318 21.7402C12.1094 21.7107 12.2918 21.6973 12.4779 21.7009C12.6699 21.7046 12.8574 21.7263 13.0388 21.7644C17.227 17.6117 22.524 14.6539 28.3685 13.3061C28.4848 12.9896 28.6555 12.6996 28.8673 12.4453C28.4428 11.4634 27.9554 10.4995 27.4118 9.55812C27.0772 8.9785 26.7244 8.41271 26.354 7.86127L25.82 7.096L25.221 7.04323C24.8177 7.01457 24.4105 7 24 7C17.6048 7 12.0344 10.5313 9.13231 15.7503L8.868 16.242L9.09885 16.7761C9.43779 17.5326 9.81018 18.2774 10.2157 19.009ZM30.0358 8.10326L30.4699 8.88217C30.9171 9.7113 31.3257 10.5554 31.6956 11.4123C32.4116 11.5645 33.1357 11.9893 33.5622 12.5494C34.2283 12.5092 34.8998 12.488 35.5752 12.488L36.5254 12.5055C34.7498 10.5723 32.5328 9.052 30.0358 8.10326Z" fill="var(--tiny-first-color, #191919)" fill-rule="evenodd"/>
  <path id="合并" d="M44 33.999C44 28.476 39.5238 23.999 34 23.999C28.4762 23.999 24 28.476 24 33.999C24 39.5234 28.4756 43.999 34 43.999C39.5244 43.999 44 39.5234 44 33.999ZM27 33.999C27 30.1327 30.1332 26.999 34 26.999C37.8668 26.999 41 30.1327 41 33.999C41 37.8666 37.8676 40.999 34 40.999C30.1324 40.999 27 37.8666 27 33.999ZM35 34.25L35 30.5C35 29.66 34.34 29 33.5 29C32.66 29 32 29.66 32 30.5L32 34.5C32 34.6967 32.022 34.8882 32.066 35.0746L32.066 35.0746C32.11 35.2609 32.176 35.4421 32.2639 35.618C32.3519 35.794 32.4572 35.9555 32.5799 36.1025C32.7026 36.2495 32.8426 36.382 33 36.5L35.6 38.2C36.272 38.704 37.196 38.572 37.7 37.9C38.204 37.228 38.072 36.304 37.4 35.8L35 34.25Z" fill="var(--tiny-second-color, #aeaeAE)" fill-rule="evenodd"/>
</svg>