<svg viewBox="0 0 48 48" xmlns="http://www.w3.org/2000/svg" xmlns:xlink="http://www.w3.org/1999/xlink" width="48.000000" height="48.000000">
  <path id="减去顶层" d="M23.534 4.13379C23.9528 4.60852 24.2442 4.96309 24.6338 5.46503C25.4754 6.54924 26.2467 7.69478 26.9432 8.89733C27.6514 10.1201 28.2661 11.376 28.7883 12.6559C28.6232 12.8659 28.4908 13.0968 28.3906 13.3444C22.5633 14.7612 17.2853 17.7277 13.0791 21.8508C12.8854 21.8057 12.6842 21.781 12.4779 21.777C12.28 21.7732 12.0862 21.7886 11.8983 21.8213C11.1638 20.8208 10.4483 19.7169 9.83277 18.61C9.16715 17.413 8.58785 16.1818 8.09617 14.9227C7.86854 14.3398 7.65979 13.7511 7.47004 13.1575C10.8627 8.12433 16.4196 4.52063 22.8715 4.16291L23.534 4.13379ZM28.3906 13.3444C28.5947 13.2948 28.7994 13.2471 29.0047 13.2013L28.39 13.346L28.3906 13.3444ZM27.6248 4.45736C32.6335 5.37279 36.9891 8.14595 39.9465 12.034L40.4103 12.6646C39.0329 12.4912 37.6393 12.4037 36.2353 12.4037C35.3005 12.4037 34.3729 12.4428 33.4543 12.5197C32.9844 11.9725 32.3146 11.5935 31.5539 11.4974C30.9838 10.1032 30.3131 8.73471 29.5413 7.40204C28.951 6.38283 28.3113 5.40049 27.6248 4.45736ZM36.2353 15.3943C37.6082 15.3943 38.9692 15.4861 40.3123 15.6679L41.2418 15.8085L42.1647 15.9778C43.2635 18.443 44 21.1948 44 24.0689C44 25.0827 43.9241 26.0789 43.7776 27.052C41.6018 23.9952 38.0302 21.9998 34 21.9998C33.8937 20.2162 33.5958 18.4346 33.1935 16.674C33.5488 16.3507 33.8276 15.9413 33.9953 15.4781L35.1222 15.4147C35.4919 15.4011 35.8629 15.3943 36.2353 15.3943ZM28.8223 16.3221C29.1873 16.7806 29.685 17.1304 30.2586 17.3135C30.6442 18.989 30.8836 20.6857 30.9789 22.3849C26.8561 23.4583 23.592 26.6697 22.4443 30.7587C19.8334 29.4335 17.4141 27.7242 15.2752 25.6727C15.3634 25.4039 15.4118 25.1201 15.4179 24.8254C15.4246 24.4995 15.3786 24.1847 15.2877 23.8891C18.9007 20.3717 23.3807 17.793 28.3222 16.4486L28.8223 16.3221ZM5.49305 16.4894C5.99051 17.7062 6.56285 18.898 7.20891 20.0599C7.92981 21.3563 8.72863 22.5889 9.59711 23.7539C9.48803 24.051 9.42638 24.3724 9.41988 24.7078C9.41167 25.1066 9.4822 25.4886 9.61721 25.8392C8.12342 27.863 6.85106 30.0768 5.83988 32.4478C4.65991 29.8936 4 27.0581 4 24.0689C4 21.7116 4.41039 19.4499 5.16382 17.3509L5.49305 16.4894ZM34 23.9998C39.514 23.9998 44 28.4858 44 33.9998C44 39.5138 39.514 43.9998 34 43.9998C28.486 43.9998 24 39.5138 24 33.9998C24 28.4858 28.486 23.9998 34 23.9998ZM13.0524 27.6918C15.6879 30.2497 18.7179 32.332 22.0016 33.8752C22.0016 36.9724 23.1784 39.9232 25.1105 42.0539L24.8993 42.3469C24.49 42.889 24.0623 43.4174 23.6168 43.9312C17.1562 43.7542 11.2843 40.5903 7.75518 35.7013L8.60073 33.6179C9.5017 31.5053 10.6307 29.53 11.9534 27.7176C12.0881 27.7435 12.2228 27.7554 12.3599 27.7582C12.5977 27.7628 12.8295 27.7396 13.0524 27.6918ZM35 34.2498L35 30.4998C35 29.6598 34.34 28.9998 33.5 28.9998C32.66 28.9998 32 29.6598 32 30.4998L32 34.4998C32 34.6965 32.022 34.888 32.066 35.0743L32.066 35.0744C32.11 35.2607 32.176 35.4419 32.2639 35.6178C32.3519 35.7938 32.4572 35.9553 32.5799 36.1022C32.7026 36.2492 32.8426 36.3818 33 36.4998L35.6 38.1998C36.272 38.7038 37.196 38.5718 37.7 37.8998C38.204 37.2278 38.072 36.3038 37.4 35.7998L35 34.2498Z" fill="var(--tiny-first-color, #191919)" fill-rule="evenodd"/>
  <path id="减去顶层" d="M44.0003 34C44.0003 28.486 39.5143 24 34.0003 24C28.4863 24 24.0003 28.486 24.0003 34C24.0003 39.514 28.4863 44 34.0003 44C39.5143 44 44.0003 39.514 44.0003 34ZM35 34.25L35 30.5C35 29.66 34.34 29 33.5 29C32.66 29 32 29.66 32 30.5L32 34.5C32 34.6967 32.022 34.8882 32.066 35.0746L32.066 35.0746C32.11 35.2609 32.176 35.4421 32.2639 35.618C32.3519 35.794 32.4572 35.9555 32.5799 36.1025C32.7026 36.2495 32.8426 36.382 33 36.5L35.6 38.2C36.272 38.704 37.196 38.572 37.7 37.9C38.204 37.228 38.072 36.304 37.4 35.8L35 34.25Z" fill="var(--tiny-second-color, #aeaeAE)" fill-rule="evenodd"/>
</svg>