<svg viewBox="0 0 48 48" xmlns="http://www.w3.org/2000/svg" xmlns:xlink="http://www.w3.org/1999/xlink" width="48.000000" height="48.000000" fill="none">
  <path id="减去顶层" d="M23.2079 7C28.3045 7 32.8218 9.96986 34.8596 14.4129L34.996 14.7293L35.2812 14.7487C40.845 15.2059 45.2558 19.6953 45.4902 25.2574L45.5 25.7233C45.5 26.235 45.4647 26.7384 45.3963 27.2314C43.8161 22.4501 39.311 19 34 19C27.3726 19 22 24.3724 22 31C22 33.0775 22.528 35.0318 23.4571 36.7359L11.8793 36.7354L11.5222 36.7234C6.48069 36.4635 2.5 32.3446 2.5 27.3297C2.5 22.7234 5.84981 18.8974 10.2672 18.083L10.5224 18.0409L10.5753 17.6609C11.5045 11.7656 16.5664 7.23162 22.7315 7.0086L23.2079 7Z" fill="var(--tiny-first-color, #191919)" fill-rule="evenodd"/>
  <path id="矢量 1744" d="M25 31C25 26.0293 29.0294 22 34 22C38.9706 22 43 26.0293 43 31C43 35.9705 38.9706 40 34 40C29.0294 40 25 35.9705 25 31ZM34.5 30.7383L34.5 27.5C34.5 26.6599 33.84 26 33 26C32.16 26 31.5 26.6599 31.5 27.5L31.5 31.4861C31.5 31.9849 31.6991 32.384 32.0974 32.6841L36.0974 35.698C36.7683 36.2034 37.6925 36.0735 38.198 35.4026C38.7035 34.7317 38.5735 33.8074 37.9026 33.3018L34.5 30.7383Z" fill="var(--tiny-second-color, #aeaeAE)" fill-rule="evenodd"/>
</svg>
