<svg viewBox="0 0 48 48" xmlns="http://www.w3.org/2000/svg" xmlns:xlink="http://www.w3.org/1999/xlink" width="48.000000" height="48.000000">
  <path id="合并" d="M33 22C28.0294 22 24 26.0294 24 31C24 35.9706 28.0294 40 33 40C37.9706 40 42 35.9706 42 31C42 26.0294 37.9706 22 33 22ZM33 25C29.6863 25 27 27.6863 27 31C27 34.3137 29.6863 37 33 37C36.3137 37 39 34.3137 39 31C39 27.6863 36.3137 25 33 25ZM33.5 28L33.5 30.6295L36.2442 32.1976C36.9735 32.6144 37.2191 33.5149 36.8024 34.2442C36.3856 34.9735 35.4851 35.2191 34.7558 34.8024L31.7597 33.0903C31.5649 32.979 31.3907 32.8471 31.2371 32.6944C31.0834 32.5418 30.9503 32.3685 30.8377 32.1745C30.7252 31.9805 30.6407 31.779 30.5844 31.5698C30.5281 31.3607 30.5 31.144 30.5 30.9197L30.5 28C30.5 27.16 31.16 26.5 32 26.5C32.84 26.5 33.5 27.16 33.5 28Z" fill="var(--tiny-second-color)" fill-rule="evenodd"/>
  <path id="形状结合(边框)" d="M12.4189 36.7825L21.1493 36.7829C21.9502 36.7829 22.5796 36.1536 22.5796 35.3527C22.5797 34.5518 21.9504 33.9224 21.1495 33.9224L12.4672 33.922L12.1508 33.9113C11.7119 33.8886 11.2812 33.8294 10.8588 33.7336C10.337 33.6153 9.82787 33.4411 9.33136 33.2113C8.4613 32.8084 7.69392 32.2616 7.02922 31.5708C6.649 31.1757 6.31834 30.7501 6.03725 30.2938C5.82727 29.9531 5.64494 29.5952 5.49028 29.2204C5.11691 28.3154 4.93023 27.37 4.93023 26.3839C4.93023 25.8638 4.98229 25.3545 5.08641 24.856C5.16357 24.4867 5.26932 24.1233 5.40366 23.7659C5.53068 23.4279 5.68042 23.1025 5.85288 22.7896C6.09486 22.3505 6.38158 21.9361 6.71303 21.5464C6.98226 21.2298 7.27314 20.9386 7.58565 20.6729C7.92844 20.3815 8.29727 20.1207 8.69214 19.8905C9.0701 19.6702 9.461 19.4845 9.86484 19.3332C10.2843 19.1762 10.7178 19.0564 11.1653 18.9739L12.4205 18.767L12.6163 17.3622C12.6845 16.9297 12.7795 16.5051 12.9012 16.0882C13.1181 15.345 13.42 14.6267 13.8069 13.9331C14.0596 13.4802 14.3421 13.0501 14.6545 12.643C15.0725 12.0979 15.5441 11.5939 16.069 11.1309C16.5328 10.7218 17.0241 10.3573 17.5429 10.0374C18.0553 9.72152 18.5945 9.44909 19.1604 9.22014C19.662 9.01726 20.1729 8.85344 20.6932 8.72868C21.3926 8.56097 22.109 8.46385 22.8422 8.43732L23.2706 8.42982C23.6746 8.42988 24.0761 8.45239 24.4751 8.49736C25.1066 8.56852 25.7318 8.69594 26.3506 8.87959C26.8486 9.0274 27.3312 9.20881 27.7982 9.42383C28.2537 9.6335 28.6945 9.87512 29.1205 10.1487C29.6019 10.4578 30.0533 10.8005 30.4747 11.1767C30.8032 11.47 31.1135 11.7836 31.4055 12.1177C31.7893 12.5567 32.1327 13.0207 32.4357 13.5098C32.6624 13.8758 32.8664 14.2557 33.0478 14.6497L33.5168 15.7373L34.6594 15.8151C35.7788 15.9071 36.8485 16.1964 37.8684 16.6828C38.37 16.922 38.8427 17.2012 39.2866 17.5206C39.7202 17.8325 40.1264 18.1827 40.505 18.5711C40.9486 19.0262 41.3373 19.5162 41.6711 20.0412C41.9141 20.4234 42.1279 20.824 42.3127 21.2432C42.7646 22.2686 43.0143 23.3436 43.0617 24.4683C43.0954 25.2685 43.7506 25.8707 44.5509 25.837C45.3511 25.8033 45.9533 25.1481 45.9196 24.3478C45.8571 22.8636 45.5273 21.4442 44.9302 20.0895C44.3527 18.7793 43.5604 17.6076 42.5533 16.5744C41.5496 15.5447 40.3984 14.7202 39.0997 14.1009C37.9393 13.5475 36.719 13.1882 35.4386 13.0229C34.9323 12.0184 34.3058 11.0891 33.559 10.2349C33.178 9.79915 32.7727 9.39086 32.343 9.01005C31.8201 8.5466 31.2611 8.12384 30.6661 7.74176C30.126 7.39494 29.5672 7.08875 28.9898 6.82318C28.4008 6.55231 27.7923 6.3237 27.1644 6.13735C26.8087 6.03176 26.4498 5.94091 26.0878 5.86479C25.1522 5.66803 24.1959 5.56971 23.2189 5.56982L22.7388 5.57873C21.838 5.61131 20.957 5.72849 20.0957 5.93025C19.414 6.08997 18.7447 6.30269 18.0878 6.56841C17.3708 6.85845 16.6878 7.20364 16.0388 7.604C15.3835 8.0083 14.7629 8.46885 14.1769 8.98565C13.5295 9.55662 12.9461 10.1772 12.4267 10.8473C12.0136 11.38 11.6411 11.9441 11.3089 12.5396C10.9747 13.1387 10.6897 13.7561 10.4539 14.3917C10.2213 15.0188 10.0366 15.6636 9.89976 16.3262C8.97097 16.5672 8.08824 16.9316 7.25158 17.4193C6.71602 17.7315 6.21527 18.0848 5.74935 18.4793C5.31379 18.848 4.90866 19.2527 4.53396 19.6933C4.09486 20.2096 3.71249 20.7578 3.38686 21.3379C3.13179 21.7922 2.91154 22.2661 2.72608 22.7595C2.53082 23.279 2.37913 23.8072 2.27101 24.3443C2.13685 25.0107 2.06976 25.6905 2.06976 26.3839C2.06976 27.1128 2.14366 27.8261 2.29146 28.5237C2.42023 29.1315 2.60508 29.7273 2.84604 30.3113C3.06963 30.8533 3.33482 31.3692 3.6416 31.859C4.02035 32.4638 4.46251 33.0289 4.96806 33.5542C5.42366 34.0277 5.91438 34.4519 6.44023 34.8269C6.96795 35.2032 7.53104 35.5299 8.1295 35.807C9.36261 36.3779 10.6709 36.699 12.0542 36.7701L12.4189 36.7825Z" fill="var(--tiny-first-color)" fill-rule="evenodd"/>
</svg>