<svg viewBox="0 0 48 48" xmlns="http://www.w3.org/2000/svg" xmlns:xlink="http://www.w3.org/1999/xlink" width="48.000000" height="48.000000" fill="none">
  <path id="合并" d="M18 4.5L30 4.5C30.2545 4.5 30.5033 4.52635 30.7464 4.57905C30.9535 4.62396 31.1566 4.68801 31.3554 4.77119C31.564 4.85845 31.7607 4.96363 31.9454 5.08674C32.1323 5.21135 32.307 5.35433 32.4695 5.51568C32.6357 5.68077 32.7827 5.85874 32.9105 6.04958C33.0324 6.2315 33.1367 6.42511 33.2236 6.63042C33.3041 6.82059 33.367 7.01477 33.4123 7.21297C33.4708 7.46863 33.5 7.73097 33.5 8L33.5 10C33.5 10.2431 33.4757 10.4812 33.427 10.7141C33.3808 10.935 33.3127 11.1513 33.2228 11.3631C33.1387 11.561 33.0384 11.7482 32.9218 11.9246C32.7923 12.1207 32.6428 12.3036 32.4732 12.4732C32.3036 12.6428 32.1207 12.7923 31.9246 12.9218C31.7482 13.0384 31.561 13.1387 31.3631 13.2228C31.1513 13.3127 30.935 13.3808 30.714 13.427C30.4811 13.4757 30.2431 13.5 30 13.5L28 13.5L28 15L32.1926 15C34.4419 15 36.4144 16.502 37.0125 18.6704L42.2539 36.6704C43.1322 39.8543 40.7369 43 37.4339 43L10.5661 43C7.26317 43 4.86778 39.8543 5.74612 36.6704L10.9875 18.6704C11.5857 16.502 13.5581 15 15.8075 15L20 15L20 13.5L18 13.5C17.731 13.5 17.4686 13.4708 17.213 13.4123C17.0148 13.367 16.8206 13.3041 16.6304 13.2236C16.4251 13.1367 16.2314 13.0323 16.0495 12.9105C15.8587 12.7827 15.6807 12.6357 15.5157 12.4695C15.3543 12.307 15.2114 12.1323 15.0868 11.9454C14.9636 11.7607 14.8584 11.564 14.7712 11.3554C14.688 11.1565 14.624 10.9535 14.579 10.7464C14.5263 10.5033 14.5 10.2545 14.5 10L14.5 8C14.5 7.71875 14.5316 7.44498 14.5947 7.17869C14.6382 6.99492 14.6968 6.81472 14.7704 6.63808C14.8603 6.42231 14.9694 6.21949 15.0976 6.02963C15.2206 5.84763 15.3611 5.67753 15.5193 5.51934C15.6775 5.36114 15.8476 5.22057 16.0296 5.09762C16.2195 4.96936 16.4223 4.86029 16.6381 4.77038C16.8147 4.69678 16.9949 4.63821 17.1787 4.59466C17.445 4.53155 17.7188 4.5 18 4.5ZM18 7.5C17.9039 7.5 17.819 7.52039 17.7455 7.56117C17.7076 7.58223 17.6726 7.60872 17.6407 7.64066C17.6087 7.6726 17.5822 7.70755 17.5612 7.74552C17.5204 7.81904 17.5 7.90386 17.5 8L17.5 10C17.5 10.0763 17.5143 10.1462 17.5428 10.2097C17.5667 10.2628 17.6005 10.3114 17.6443 10.3555C17.6855 10.397 17.7309 10.4295 17.7806 10.4531C17.8463 10.4844 17.9194 10.5 18 10.5L30 10.5C30.0613 10.5 30.1189 10.4899 30.1727 10.4698C30.238 10.4453 30.2977 10.406 30.3518 10.3518C30.406 10.2977 30.4453 10.238 30.4698 10.1727C30.4899 10.1189 30.5 10.0613 30.5 10L30.5 8C30.5 7.91944 30.4844 7.8463 30.4531 7.7806C30.4295 7.73093 30.397 7.6855 30.3555 7.64432C30.3114 7.6005 30.2628 7.56666 30.2097 7.54279C30.1462 7.51426 30.0763 7.5 30 7.5L18 7.5ZM32.1926 18L15.8075 18C15.6752 18 15.5453 18.0126 15.418 18.0378C15.3311 18.055 15.2453 18.0781 15.1607 18.107C15.0692 18.1383 14.9809 18.1758 14.8958 18.2194L14.8958 18.2195C14.791 18.2732 14.691 18.3363 14.5958 18.4088C14.5006 18.4813 14.4131 18.5609 14.3335 18.6477C14.2687 18.7181 14.2091 18.7933 14.1546 18.8731C14.1042 18.947 14.0591 19.0236 14.0194 19.1028L14.0194 19.1029C13.9613 19.2189 13.9147 19.3406 13.8795 19.4681L8.6381 37.4681C8.57934 37.6811 8.55505 37.8924 8.56521 38.1021L8.56521 38.1022C8.57003 38.2014 8.58255 38.3002 8.60277 38.3986C8.62665 38.5147 8.66025 38.627 8.70355 38.7354C8.77067 38.9035 8.86112 39.0622 8.9749 39.2117C9.08867 39.3611 9.21762 39.4905 9.36176 39.5999C9.45478 39.6704 9.55411 39.7327 9.65977 39.7866C9.7493 39.8323 9.84126 39.8707 9.93563 39.9017L9.93591 39.9018C10.1352 39.9673 10.3453 40 10.5661 40L37.4339 40C37.6549 40 37.865 39.9672 38.0644 39.9017C38.1588 39.8707 38.2507 39.8323 38.3403 39.7866C38.4459 39.7327 38.5452 39.6705 38.6382 39.5999C38.7824 39.4905 38.9113 39.3611 39.0251 39.2117C39.1389 39.0623 39.2293 38.9035 39.2965 38.7355L39.2965 38.7353C39.3398 38.627 39.3734 38.5147 39.3972 38.3986C39.4175 38.3002 39.43 38.2014 39.4348 38.1023L39.4348 38.1021C39.445 37.8925 39.4207 37.6811 39.3619 37.4681L34.1205 19.4681C34.0854 19.3406 34.0387 19.2188 33.9805 19.1027L33.9805 19.1027C33.9408 19.0235 33.8958 18.947 33.8454 18.8731C33.7909 18.7933 33.7314 18.7182 33.6667 18.6478L33.6666 18.6478C33.5869 18.561 33.4995 18.4813 33.4042 18.4088C33.309 18.3363 33.209 18.2732 33.1042 18.2194L33.1022 18.2184C33.0177 18.1752 32.9301 18.1381 32.8393 18.107C32.7547 18.0781 32.6689 18.055 32.582 18.0378C32.4547 18.0126 32.3249 18 32.1926 18Z" fill="var(--tiny-first-color, #191919)" fill-rule="evenodd"/>
  <path id="合并" d="M12.5 33.5C12.5 32.6477 12.5901 31.8154 12.7702 31.0031L12.7702 31.003C12.9197 30.3294 13.131 29.6694 13.4043 29.0232C13.6797 28.3721 14.0087 27.7564 14.3912 27.1759L14.3912 27.1759C14.8172 26.5296 15.3095 25.927 15.8683 25.3683C16.427 24.8095 17.0295 24.3172 17.6758 23.8913L17.6758 23.8913L17.6758 23.8913C18.2563 23.5087 18.8721 23.1797 19.5232 22.9043C20.1694 22.631 20.8294 22.4196 21.5031 22.2702C22.3154 22.0901 23.1477 22 24 22C24.8523 22 25.6846 22.0901 26.4969 22.2702L26.4969 22.2702C27.1706 22.4197 27.8306 22.631 28.4768 22.9043C29.1279 23.1797 29.7437 23.5087 30.3241 23.8912C30.9704 24.3172 31.573 24.8095 32.1317 25.3683C32.6905 25.927 33.1828 26.5296 33.6088 27.1759C33.9913 27.7564 34.3203 28.3721 34.5957 29.0232C34.869 29.6695 35.0804 30.3295 35.2298 31.0032C35.4099 31.8155 35.5 32.6478 35.5 33.5C35.5 34.34 34.84 35 34 35C33.16 35 32.5 34.34 32.5 33.5C32.5 32.8504 32.4295 32.217 32.2884 31.5997L32.2884 31.5995C32.1789 31.1206 32.027 30.6514 31.8326 30.1919C31.6332 29.7204 31.3957 29.2739 31.12 28.8523L31.12 28.8523C30.8011 28.3647 30.4313 27.9105 30.0104 27.4896C29.5896 27.0687 29.1354 26.6989 28.6478 26.3801C28.2262 26.1044 27.7796 25.8668 27.3081 25.6674C26.8486 25.473 26.3793 25.3211 25.9003 25.2116L25.9003 25.2116C25.283 25.0705 24.6496 25 24 25C23.3504 25 22.717 25.0705 22.0997 25.2116L22.0996 25.2116C21.6207 25.3211 21.1514 25.473 20.6919 25.6674C20.2204 25.8668 19.7738 26.1044 19.3522 26.3801L19.3521 26.3801C18.8646 26.6989 18.4104 27.0688 17.9896 27.4896C17.5687 27.9104 17.1989 28.3647 16.8801 28.8522L16.88 28.8522C16.6043 29.2738 16.3668 29.7204 16.1674 30.1919C15.973 30.6514 15.8211 31.1207 15.7116 31.5996C15.5705 32.217 15.5 32.8504 15.5 33.5C15.5 34.34 14.84 35 14 35C13.16 35 12.5 34.34 12.5 33.5ZM27.7577 30.3064L25.7519 33.7805C25.8451 34.2414 25.777 34.7369 25.5234 35.1761C24.9711 36.1327 23.748 36.4605 22.7914 35.9082C21.8348 35.3559 21.507 34.1327 22.0593 33.1761C22.3129 32.7369 22.708 32.4302 23.1538 32.2805L25.1596 28.8064C25.5796 28.0789 26.4812 27.8373 27.2086 28.2573C27.9361 28.6773 28.1777 29.5789 27.7577 30.3064Z" fill="var(--tiny-second-color, #aeaeAE)" fill-rule="evenodd"/>
</svg>
