<svg viewBox="0 0 48 48" xmlns="http://www.w3.org/2000/svg" xmlns:xlink="http://www.w3.org/1999/xlink" width="48.000000" height="48.000000" fill="none">
  <path id="矢量 171(边框)" d="M32.6943 43.0026C31.3881 43.4865 30 42.5201 30 41.1271L30 6.87318C30 5.48011 31.3881 4.5138 32.6943 4.9972L44 9.18226L44 38.818L32.6943 43.0026ZM27 8.46156L27 39.5387L19.478 41.3903C18.2175 41.7003 17 40.7462 17 39.4479L17 8.55189C17 7.25404 18.2175 6.29993 19.478 6.60999L27 8.46156ZM33 8.3093L41 11.2707L41 36.7295L33 39.6905L33 8.3093ZM14 10.1539L14 37.8463L6.42114 39.4786C5.17554 39.7467 4 38.7975 4 37.5236L4 10.4767C4 9.20277 5.17554 8.25306 6.42114 8.52161L14 10.1539ZM20 9.82803L24 10.8126L24 37.1876L20 38.1722L20 9.82803ZM7 11.7151L11 12.5766L11 35.4237L7 36.2852L7 11.7151Z" fill="var(--tiny-first-color)" fill-rule="evenodd"/>
  <path id="矢量 171(边框)" d="M44 9.18226L32.6943 4.9972C31.3881 4.5138 30 5.48011 30 6.87318L30 41.1271C30 42.5201 31.3881 43.4865 32.6943 43.0026L44 38.818L44 9.18226ZM41 11.2707L41 36.7295L33 39.6905L33 8.3093L41 11.2707Z" fill="var(--tiny-second-color)" fill-rule="evenodd"/>
</svg>