<svg viewBox="0 0 48 48" xmlns="http://www.w3.org/2000/svg" xmlns:xlink="http://www.w3.org/1999/xlink" width="48.000000" height="48.000000" fill="none">
  <path id="减去顶层" d="M31 4.5L17 4.5C15.88 4.5 15 5.37988 15 6.5L15 9.5C15 10.6001 15.88 11.5 17 11.5L20 11.5L20 14.5L15.8075 14.5C13.5581 14.5 11.5857 16.002 10.9875 18.1704L5.74613 37.1704C4.86777 40.3542 7.26315 43.5 10.5661 43.5L37.4339 43.5C40.7369 43.5 43.1322 40.3542 42.2539 37.1704L37.0125 18.1704C36.4144 16.002 34.4419 14.5 32.1926 14.5L28 14.5L28 11.5L31 11.5C32.1 11.5 33 10.6001 33 9.5L33 6.5C33 5.37988 32.1 4.5 31 4.5ZM12.7702 31.5032C12.5901 32.3154 12.5 33.1477 12.5 34C12.5 34.8401 13.16 35.5 14 35.5C14.84 35.5 15.5 34.8401 15.5 34C15.5 33.3504 15.5705 32.7171 15.7116 32.0996C15.8211 31.6206 15.973 31.1514 16.1674 30.6919C16.3668 30.2205 16.6043 29.7739 16.88 29.3523L16.8801 29.3523C17.1989 28.8648 17.5687 28.4104 17.9896 27.9895C18.4104 27.5689 18.8646 27.199 19.3521 26.8801L19.3522 26.8801C19.7738 26.6043 20.2204 26.3667 20.6919 26.1672C21.1514 25.9729 21.6207 25.8211 22.0996 25.7117L22.0997 25.7117C22.717 25.5706 23.3504 25.5 24 25.5C24.6496 25.5 25.283 25.5706 25.9003 25.7117L25.9004 25.7117C26.3793 25.8211 26.8486 25.9729 27.3081 26.1672C27.7796 26.3667 28.2262 26.6043 28.6478 26.8801C29.1354 27.199 29.5896 27.5689 30.0104 27.9895C30.4313 28.4104 30.8011 28.8648 31.12 29.3523L31.12 29.3523C31.3957 29.7739 31.6332 30.2205 31.8326 30.6919C32.027 31.1514 32.1789 31.6206 32.2884 32.0996L32.2884 32.0996C32.4295 32.7171 32.5 33.3504 32.5 34C32.5 34.8401 33.16 35.5 34 35.5C34.84 35.5 35.5 34.8401 35.5 34C35.5 33.1477 35.4099 32.3154 35.2298 31.5032C35.0804 30.8294 34.869 30.1694 34.5956 29.5232C34.3203 28.8721 33.9913 28.2564 33.6088 27.6758C33.1829 27.0295 32.6905 26.427 32.1317 25.8682C31.573 25.3096 30.9704 24.8171 30.3241 24.3914C29.7437 24.0088 29.1279 23.6797 28.4768 23.4043C27.8306 23.1311 27.1706 22.9197 26.4969 22.7703C25.6846 22.5901 24.8523 22.5 24 22.5C23.1477 22.5 22.3154 22.5901 21.5031 22.7703C20.8294 22.9197 20.1694 23.1311 19.5232 23.4043C18.8721 23.6797 18.2563 24.0088 17.6758 24.3914L17.6758 24.3914C17.0295 24.8171 16.427 25.3096 15.8683 25.8682C15.3095 26.427 14.8172 27.0295 14.3912 27.6758L14.3912 27.6758C14.0087 28.2564 13.6797 28.8721 13.4044 29.5232C13.131 30.1694 12.9196 30.8294 12.7702 31.5029L12.7702 31.5032ZM25.7519 34.2805L27.7577 30.8064C28.1776 30.0789 27.9361 29.1773 27.2086 28.7573C26.4811 28.3374 25.5796 28.5789 25.1596 29.3064L23.1538 32.7805C22.708 32.9302 22.3129 33.2368 22.0593 33.6763C21.507 34.6328 21.8348 35.856 22.7914 36.4082C23.748 36.9605 24.9711 36.6328 25.5234 35.6763C25.777 35.2368 25.8451 34.7415 25.7519 34.2805Z" fill="var(--tiny-first-color)" fill-rule="evenodd"/>
  <path id="合并" d="M12.5 34C12.5 33.1477 12.5901 32.3154 12.7702 31.5031L12.7702 31.503C12.9197 30.8294 13.131 30.1694 13.4043 29.5232C13.6797 28.8721 14.0087 28.2564 14.3912 27.6759L14.3912 27.6759C14.8172 27.0296 15.3095 26.427 15.8683 25.8683C16.427 25.3095 17.0295 24.8172 17.6758 24.3913L17.6758 24.3913L17.6758 24.3913C18.2563 24.0087 18.8721 23.6797 19.5232 23.4043C20.1694 23.131 20.8294 22.9196 21.5031 22.7702C22.3154 22.5901 23.1477 22.5 24 22.5C24.8523 22.5 25.6846 22.5901 26.4969 22.7702L26.4969 22.7702C27.1706 22.9197 27.8306 23.131 28.4768 23.4043C29.1279 23.6797 29.7437 24.0087 30.3241 24.3912C30.9704 24.8172 31.573 25.3095 32.1317 25.8683C32.6905 26.427 33.1828 27.0296 33.6088 27.6759C33.9913 28.2564 34.3203 28.8721 34.5957 29.5232C34.869 30.1695 35.0804 30.8295 35.2298 31.5032C35.4099 32.3155 35.5 33.1478 35.5 34C35.5 34.84 34.84 35.5 34 35.5C33.16 35.5 32.5 34.84 32.5 34C32.5 33.3504 32.4295 32.717 32.2884 32.0997L32.2884 32.0995C32.1789 31.6206 32.027 31.1514 31.8326 30.6919C31.6332 30.2204 31.3957 29.7739 31.12 29.3523L31.12 29.3523C30.8011 28.8647 30.4313 28.4105 30.0104 27.9896C29.5896 27.5687 29.1354 27.1989 28.6478 26.8801C28.2262 26.6044 27.7796 26.3668 27.3081 26.1674C26.8486 25.973 26.3793 25.8211 25.9003 25.7116L25.9003 25.7116C25.283 25.5705 24.6496 25.5 24 25.5C23.3504 25.5 22.717 25.5705 22.0997 25.7116L22.0996 25.7116C21.6207 25.8211 21.1514 25.973 20.6919 26.1674C20.2204 26.3668 19.7738 26.6044 19.3522 26.8801L19.3521 26.8801C18.8646 27.1989 18.4104 27.5688 17.9896 27.9896C17.5687 28.4104 17.1989 28.8647 16.8801 29.3522L16.88 29.3522C16.6043 29.7738 16.3668 30.2204 16.1674 30.6919C15.973 31.1514 15.8211 31.6207 15.7116 32.0996C15.5705 32.717 15.5 33.3504 15.5 34C15.5 34.84 14.84 35.5 14 35.5C13.16 35.5 12.5 34.84 12.5 34ZM27.7577 30.8064L25.7519 34.2805C25.8451 34.7414 25.777 35.2369 25.5234 35.6762C24.9711 36.6327 23.748 36.9605 22.7914 36.4082C21.8348 35.8559 21.507 34.6327 22.0593 33.6762C22.3129 33.2369 22.708 32.9302 23.1538 32.7805L25.1596 29.3064C25.5796 28.5789 26.4812 28.3373 27.2086 28.7573C27.9361 29.1773 28.1777 30.0789 27.7577 30.8064Z" fill="var(--tiny-second-color)" fill-rule="evenodd"/>
</svg>