<svg viewBox="0 0 48 48" xmlns="http://www.w3.org/2000/svg" xmlns:xlink="http://www.w3.org/1999/xlink" width="48.000000" height="48.000000" fill="none">
  <path id="合并" d="M41.615 16.6841C42.8767 15.4224 42.8767 13.3768 41.615 12.1151L36.2845 6.78465C35.0228 5.52296 32.9772 5.52296 31.7155 6.78465L26.385 12.1151C25.1233 13.3768 25.1233 15.4224 26.385 16.6841L31.7155 22.0146C32.9772 23.2763 35.0228 23.2763 36.2845 22.0146L41.615 16.6841ZM22.7396 10.1922C22.5812 7.85126 20.6309 6.00015 18.25 6.00015L10.498 6.00015L10.19 6.01054C7.84934 6.16892 6 8.11917 6 10.5002L6 18.2522L6.01038 18.5601C6.16862 20.9009 8.11709 22.7502 10.498 22.7502L18.25 22.7502L18.558 22.7398C20.899 22.5815 22.75 20.633 22.75 18.2522L22.75 10.5002L22.7396 10.1922ZM22.7396 29.4422C22.5812 27.1013 20.6309 25.2502 18.25 25.2502L10.498 25.2502L10.19 25.2605C7.84934 25.4189 6 27.3692 6 29.7502L6 37.5022L6.01038 37.8101C6.16862 40.1509 8.11709 42.0001 10.498 42.0001L18.25 42.0001L18.558 41.9898C20.899 41.8315 22.75 39.883 22.75 37.5022L22.75 29.7502L22.7396 29.4422ZM41.9896 29.4422C41.8312 27.1013 39.8809 25.2502 37.5 25.2502L29.748 25.2502L29.44 25.2605C27.0993 25.4189 25.25 27.3692 25.25 29.7502L25.25 37.5022L25.2604 37.8101C25.4186 40.1509 27.3671 42.0001 29.748 42.0001L37.5 42.0001L37.808 41.9898C40.149 41.8315 42 39.883 42 37.5022L42 29.7502L41.9896 29.4422Z" fill="var(--tiny-first-color)" fill-rule="evenodd"/>
  <rect id="矩形 242" width="13.999998" height="13.999998" x="0.000000" y="0.000000" rx="3.230769" fill="var(--tiny-second-color)" transform="matrix(0.707107,0.707107,-0.707107,0.707107,34,4.5)"/>
</svg>