<svg viewBox="0 0 48 48" xmlns="http://www.w3.org/2000/svg" xmlns:xlink="http://www.w3.org/1999/xlink" width="48.000000" height="48.000000" fill="none">
  <path id="合并" d="M40.3639 9.75724L40.8942 10.2875L41.4245 10.8178Q41.7725 11.1658 42.0322 11.5705Q42.2551 11.9181 42.413 12.3074C42.5184 12.5674 42.5986 12.8326 42.6534 13.1029C42.7129 13.3959 42.7426 13.6949 42.7426 14C42.7426 14.3055 42.7128 14.6049 42.6532 14.8982C42.5984 15.1681 42.5183 15.4329 42.413 15.6926C42.3072 15.9534 42.1795 16.2001 42.0299 16.4328C41.8573 16.7012 41.6555 16.9509 41.4245 17.1819L37.182 21.4244C36.9515 21.655 36.7023 21.8565 36.4344 22.0289C36.2013 22.1789 35.9541 22.3069 35.6927 22.413C35.4328 22.5184 35.1678 22.5985 34.8977 22.6534C34.6045 22.7129 34.3053 22.7427 34 22.7427C33.6947 22.7427 33.3955 22.7129 33.1023 22.6534C32.8322 22.5985 32.5672 22.5184 32.3073 22.413Q31.9164 22.2544 31.5677 22.0302L31.5675 22.0302C31.2989 21.8574 31.049 21.6555 30.8179 21.4243L26.5754 17.1818C26.3448 16.9513 26.1433 16.702 25.9709 16.4341C25.821 16.201 25.693 15.9539 25.587 15.6926C25.4817 15.4329 25.4016 15.1682 25.3468 14.8983C25.2872 14.6049 25.2574 14.3055 25.2574 14C25.2574 13.6949 25.2871 13.3959 25.3466 13.1029C25.4014 12.8326 25.4816 12.5674 25.587 12.3074C25.6927 12.0468 25.8202 11.8002 25.9697 11.5677C26.1423 11.299 26.3442 11.0491 26.5753 10.818L30.818 6.5752C31.0493 6.34398 31.2993 6.142 31.5682 5.96926Q31.9168 5.74529 32.3075 5.58687Q32.697 5.42892 33.102 5.34668L33.1021 5.34665Q33.542 5.25732 34 5.25732C34.3054 5.25732 34.6047 5.28711 34.898 5.34668Q35.303 5.42892 35.6925 5.58687C35.9535 5.69268 36.2004 5.82042 36.4331 5.97009Q36.8356 6.22889 37.1819 6.57511C37.7759 7.16903 37.776 8.10241 37.1821 8.69643C36.5882 9.29045 35.6548 9.29052 35.0608 8.6966C34.9733 8.60911 34.8781 8.53428 34.7753 8.47211C34.7085 8.43175 34.6385 8.39673 34.5653 8.36705C34.4863 8.335 34.4057 8.30998 34.3236 8.29198C34.2183 8.26888 34.1104 8.25732 34 8.25732C33.8896 8.25732 33.7817 8.26888 33.6764 8.29198C33.5943 8.30998 33.5137 8.33501 33.4347 8.36705C33.361 8.39693 33.2906 8.43222 33.2234 8.47291Q33.07 8.5659 32.9393 8.69651L28.6969 12.939Q28.5652 13.0707 28.4717 13.2256C28.4316 13.2921 28.3967 13.3618 28.3671 13.4347C28.335 13.514 28.3099 13.5949 28.2918 13.6773C28.2689 13.7824 28.2574 13.8899 28.2574 14C28.2574 14.1104 28.269 14.2184 28.2921 14.3237C28.3101 14.4057 28.3351 14.4862 28.3671 14.5651C28.3965 14.6376 28.4312 14.707 28.4711 14.7732C28.5335 14.8767 28.6087 14.9725 28.6967 15.0605L32.9395 19.3033C33.0272 19.391 33.1227 19.4661 33.2259 19.5284C33.2923 19.5685 33.362 19.6034 33.4349 19.6329C33.514 19.6651 33.5947 19.6901 33.677 19.7081C33.7821 19.7312 33.8898 19.7427 34 19.7427C34.1102 19.7427 34.2179 19.7312 34.3231 19.7081C34.4053 19.6901 34.486 19.665 34.5651 19.6329C34.6373 19.6037 34.7063 19.5692 34.7722 19.5296C34.8761 19.467 34.9723 19.3915 35.0607 19.3031L39.3034 15.0604C39.391 14.9728 39.4659 14.8775 39.5281 14.7745C39.5684 14.7079 39.6033 14.6381 39.6329 14.5651C39.6649 14.4862 39.6899 14.4057 39.7079 14.3237C39.731 14.2183 39.7426 14.1104 39.7426 14C39.7426 13.8899 39.7311 13.7824 39.7082 13.6773C39.6901 13.5949 39.665 13.514 39.6329 13.4347C39.6029 13.3607 39.5674 13.29 39.5265 13.2226C39.4646 13.1206 39.3902 13.0261 39.3033 12.9392L38.2427 11.8787C37.6487 11.2847 37.6486 10.3514 38.2425 9.75736C38.8365 9.16336 39.7699 9.1633 40.3639 9.75724ZM22.7396 10.192C22.5812 7.85111 20.6309 6 18.25 6L10.498 6L10.19 6.01039C7.84934 6.16877 6 8.11902 6 10.5L6 18.252L6.01038 18.56C6.16862 20.9007 8.11709 22.75 10.498 22.75L18.25 22.75L18.558 22.7396C20.899 22.5814 22.75 20.6328 22.75 18.252L22.75 10.5L22.7396 10.192ZM10.498 9L18.25 9C19.0776 9 19.75 9.67243 19.75 10.5L19.75 18.252L19.7363 18.4552C19.637 19.1861 19.0092 19.75 18.25 19.75L10.498 19.75L10.2947 19.7363C9.56334 19.6372 9 19.0106 9 18.252L9 10.5L9.01368 10.2965C9.11294 9.56445 9.74002 9 10.498 9ZM22.7396 29.442C22.5812 27.1011 20.6309 25.25 18.25 25.25L10.498 25.25L10.19 25.2604C7.84934 25.4188 6 27.369 6 29.75L6 37.502L6.01038 37.81C6.16862 40.1507 8.11709 42 10.498 42L18.25 42L18.558 41.9896C20.899 41.8314 22.75 39.8828 22.75 37.502L22.75 29.75L22.7396 29.442ZM41.9896 29.442C41.8312 27.1011 39.8809 25.25 37.5 25.25L29.748 25.25L29.44 25.2604C27.0993 25.4188 25.25 27.369 25.25 29.75L25.25 37.502L25.2604 37.81C25.4186 40.1507 27.3671 42 29.748 42L37.5 42L37.808 41.9896C40.149 41.8314 42 39.8828 42 37.502L42 29.75L41.9896 29.442ZM10.498 28.25L18.25 28.25C19.0776 28.25 19.75 28.9224 19.75 29.75L19.75 37.502L19.7363 37.7052C19.637 38.4361 19.0092 39 18.25 39L10.498 39L10.2947 38.9863C9.56334 38.8872 9 38.2606 9 37.502L9 29.75L9.01368 29.5465C9.11294 28.8144 9.74002 28.25 10.498 28.25ZM29.748 28.25L37.5 28.25C38.3276 28.25 39 28.9224 39 29.75L39 37.502L38.9863 37.7052C38.887 38.4361 38.2592 39 37.5 39L29.748 39L29.5447 38.9863C28.8133 38.8872 28.25 38.2606 28.25 37.502L28.25 29.75L28.2637 29.5465C28.3629 28.8144 28.99 28.25 29.748 28.25Z" fill="var(--tiny-first-color)" fill-rule="evenodd"/>
  <path id="矩形 241(边框)" d="M9.75 0L9 0C8.16 0 7.5 0.66 7.5 1.5C7.5 2.34 8.16 3 9 3L10.5 3C10.7041 3 10.8986 3.03909 11.0834 3.11726C11.2627 3.19309 11.4218 3.30045 11.5607 3.43934C11.6996 3.57823 11.8069 3.73732 11.8827 3.91659C11.9134 3.98918 11.9381 4.06326 11.9568 4.13883C11.9856 4.25566 12 4.37605 12 4.5L12 10.5C12 10.7041 11.9609 10.8986 11.8827 11.0834C11.8069 11.2627 11.6996 11.4218 11.5607 11.5607C11.4218 11.6996 11.2627 11.8069 11.0834 11.8827C10.8986 11.9609 10.7041 12 10.5 12L4.5 12C4.37606 12 4.25568 11.9856 4.13885 11.9568C4.06328 11.9381 3.98919 11.9134 3.91659 11.8827C3.73732 11.8069 3.57823 11.6996 3.43934 11.5607C3.30045 11.4218 3.19309 11.2627 3.11726 11.0834C3.03909 10.8986 3 10.7041 3 10.5L3 4.5C3 4.37605 3.01441 4.25566 3.04324 4.13882C3.06189 4.06326 3.08656 3.98918 3.11726 3.91659C3.19309 3.73731 3.30045 3.57823 3.43934 3.43934C3.51734 3.36134 3.60171 3.29328 3.69245 3.23517C3.76328 3.18981 3.838 3.1505 3.91659 3.11726C3.98918 3.08656 4.06326 3.06189 4.13882 3.04324C4.25566 3.01441 4.37605 3 4.5 3C5.34 3 6 2.34 6 1.5C6 0.66 5.34 0 4.5 0C4.17335 1.19209e-07 3.85407 0.0338955 3.54215 0.101686C3.27188 0.160425 3.00714 0.244613 2.74794 0.354248C2.48975 0.463452 2.24579 0.594139 2.01606 0.746309C1.7666 0.911548 1.53392 1.10212 1.31802 1.31802C1.10212 1.53392 0.911553 1.7666 0.746316 2.01605C0.594143 2.24578 0.463454 2.48974 0.354248 2.74794C0.244611 3.00715 0.160423 3.27189 0.101683 3.54216C0.0338944 3.85408 0 4.17336 0 4.5L0 10.5C1.19209e-07 10.8267 0.0338956 11.1459 0.101687 11.4579C0.160426 11.7281 0.244613 11.9929 0.354248 12.2521C0.463454 12.5103 0.594142 12.7542 0.746313 12.9839C0.911551 13.2334 1.10212 13.4661 1.31802 13.682C1.53392 13.8979 1.76659 14.0884 2.01604 14.2537C2.24578 14.4059 2.48974 14.5365 2.74794 14.6458C3.30629 14.8819 3.89031 15 4.5 15L10.5 15C11.1097 15 11.6937 14.8819 12.2521 14.6458C12.7906 14.418 13.2673 14.0967 13.682 13.682C14.0967 13.2673 14.418 12.7906 14.6458 12.2521C14.8819 11.6937 15 11.1097 15 10.5L15 4.5C15 3.89031 14.8819 3.30629 14.6458 2.74794C14.418 2.20938 14.0967 1.73275 13.682 1.31802C13.2673 0.903294 12.7906 0.582037 12.2521 0.354248C11.6937 0.118083 11.1097 0 10.5 0L9.75 0Z" fill="var(--tiny-second-color)" fill-rule="evenodd" transform="matrix(0.707107,0.707107,-0.707107,0.707107,34,3.39355)"/>
</svg>