<svg viewBox="0 0 48 48" xmlns="http://www.w3.org/2000/svg" xmlns:xlink="http://www.w3.org/1999/xlink" width="48.000000" height="48.000000" fill="none">
  <path id="Path" d="M20.9997 5.01645L9.06025 11.9101C7.20396 12.9796 6.05908 14.9629 6.05908 17.1058L6.05908 30.8938C6.05908 33.0375 7.20276 35.0187 9.05885 36.0907L20.9992 42.9829C21.9189 43.5134 22.9432 43.7813 23.9683 43.7867C23.9788 43.7869 23.9892 43.787 23.9996 43.787L24.0307 43.7867C25.0562 43.7815 26.0804 43.5135 26.9993 42.9827L38.9409 36.091C40.7966 35.0176 41.9411 33.0362 41.9411 30.8938L41.9411 17.1098C41.9411 14.9678 40.7971 12.9868 38.9413 11.9149L27.0014 5.01699C25.1427 3.94495 22.8575 3.94495 20.9997 5.01645ZM25.4996 40.3845L37.44 33.4934C38.3681 32.9566 38.9411 31.9646 38.9411 30.8938L38.9411 17.5721L25.4996 25.3017L25.4996 40.3845ZM37.8083 14.7629C37.6931 14.6713 37.5704 14.5875 37.4407 14.5126L25.5017 7.61518C24.5715 7.07869 23.4287 7.07869 22.4991 7.61483L10.5598 14.5085L24.3768 22.4867L37.8083 14.7629ZM9.05908 17.1061L9.05908 30.8938C9.05908 31.9658 9.63113 32.9568 10.559 33.4927L22.4985 40.3844L22.4985 40.3844L22.4996 24.8669L9.05908 17.1061Z" fill="var(--tiny-first-color, #191919)" fill-rule="evenodd"/>
  <path id="合并" d="M24.0382 9.57924L18.0817 13.0273C17.3547 13.4479 17.1142 14.3497 17.5349 15.0768C17.9557 15.8038 18.8577 16.0446 19.5845 15.6234L25.5411 12.1759C26.2681 11.7548 26.5087 10.8529 26.0878 10.1259C25.6671 9.39935 24.7653 9.1586 24.0382 9.57924ZM22.8117 15.4276L28.764 11.98C29.491 11.5593 30.3929 11.7996 30.8138 12.5261C31.2348 13.2531 30.9945 14.1549 30.2677 14.576L24.3153 18.0237C23.5884 18.4448 22.6865 18.2045 22.2655 17.4775C21.8444 16.7505 22.0848 15.8487 22.8117 15.4276ZM36.6718 22.878L36.6718 31.2779C36.6718 32.1183 36.0118 32.7779 35.1718 32.7779C34.3318 32.7779 33.6718 32.1183 33.6718 31.2779L33.6718 22.878C33.6718 22.0382 34.3318 21.378 35.1718 21.378C36.0118 21.378 36.6718 22.0382 36.6718 22.878ZM31.3034 35.1276L31.3034 25.7276C31.3034 24.8878 30.6434 24.2276 29.8034 24.2276C28.9634 24.2276 28.3034 24.8878 28.3034 25.7276L28.3034 35.1276C28.3034 35.9679 28.9634 36.6276 29.8034 36.6276C30.6434 36.6276 31.3034 35.9679 31.3034 35.1276Z" fill="var(--tiny-second-color, #aeaeAE)" fill-rule="evenodd"/>
</svg>
