<svg viewBox="0 0 48 48" xmlns="http://www.w3.org/2000/svg" xmlns:xlink="http://www.w3.org/1999/xlink" width="48.000000" height="48.000000" fill="none">
  <path id="减去顶层" d="M29.256 22.7945C29.2094 22.8214 29.1619 22.8456 29.1137 22.867L25.5 24.9449L25.5 43.6865C26.018 43.5525 26.524 43.3545 27 43.0805L38.94 36.1865C40.79 35.1165 41.94 33.1265 41.94 30.9925L41.94 17.2085C41.94 16.6585 41.858 16.1205 41.714 15.6025L33.636 20.266L33.6363 20.2665L33.3489 20.4317L29.256 22.7945ZM38.369 32.8284L38.369 22.4285C38.369 21.5887 37.7089 20.9285 36.869 20.9285C36.029 20.9285 35.369 21.5887 35.369 22.4285L35.369 32.8284C35.369 33.6688 36.029 34.3284 36.869 34.3284C37.7089 34.3284 38.369 33.6688 38.369 32.8284ZM33.0005 26.2781L33.0005 36.678C33.0005 37.5184 32.3405 38.178 31.5005 38.178C30.6606 38.178 30.0005 37.5184 30.0005 36.678L30.0005 26.2781C30.0005 25.4383 30.6606 24.7781 31.5005 24.7781C32.3405 24.7781 33.0005 25.4383 33.0005 26.2781Z" fill="var(--tiny-first-color)" fill-rule="evenodd"/>
  <path id="减去顶层" d="M29.256 22.7945C29.2094 22.8214 29.1619 22.8456 29.1137 22.867L25.5 24.9449L25.5 43.6865C26.018 43.5525 26.524 43.3545 27 43.0805L38.94 36.1865C40.79 35.1165 41.94 33.1265 41.94 30.9925L41.94 17.2085C41.94 16.6585 41.858 16.1205 41.714 15.6025L33.636 20.266L33.6363 20.2665L33.3489 20.4317L29.256 22.7945ZM38.369 32.8284L38.369 22.4285C38.369 21.5887 37.7089 20.9285 36.869 20.9285C36.029 20.9285 35.369 21.5887 35.369 22.4285L35.369 32.8284C35.369 33.6688 36.029 34.3284 36.869 34.3284C37.7089 34.3284 38.369 33.6688 38.369 32.8284ZM33.0005 26.2781L33.0005 36.678C33.0005 37.5184 32.3405 38.178 31.5005 38.178C30.6606 38.178 30.0005 37.5184 30.0005 36.678L30.0005 26.2781C30.0005 25.4383 30.6606 24.7781 31.5005 24.7781C32.3405 24.7781 33.0005 25.4383 33.0005 26.2781Z" fill="var(--tiny-second-color)" fill-rule="evenodd"/>
  <path id="减去顶层" d="M27.7569 20.1965C27.7173 20.2193 27.6792 20.2437 27.6426 20.2694L23.9991 22.3644L7.78491 13.0025C8.15891 12.6205 8.58491 12.2825 9.05891 12.0065L21.0009 5.11451C22.8489 4.04451 25.1509 4.04451 27.0009 5.11451L38.9409 12.0125C39.4149 12.2865 39.8389 12.6225 40.2129 13.0045L27.7569 20.1965ZM24.1275 8.78155L18.171 12.2296C17.444 12.6502 17.2034 13.552 17.6242 14.2791C18.045 15.0061 18.9469 15.2469 19.6738 14.8258L25.6304 11.3782C26.3574 10.9571 26.598 10.0553 26.1771 9.32822C25.7564 8.60166 24.8546 8.36091 24.1275 8.78155ZM22.9009 14.6299L28.8533 11.1823C29.5802 10.7616 30.4822 11.0019 30.9031 11.7284C31.3241 12.4555 31.0837 13.3573 30.357 13.7784L24.4046 17.226C23.6777 17.6471 22.7758 17.4068 22.3548 16.6798C21.9337 15.9528 22.1741 15.051 22.9009 14.6299ZM6.28606 15.6016L22.5001 24.9636L22.5001 43.6876C21.9801 43.5536 21.4741 43.3556 21.0001 43.0796L9.06006 36.1876C7.20806 35.1176 6.06006 33.1276 6.06006 30.9916L6.06006 17.2036C6.06006 16.6536 6.14006 16.1176 6.28606 15.6016Z" fill="var(--tiny-first-color)" fill-rule="evenodd"/>
</svg>