<svg viewBox="0 0 48 48" xmlns="http://www.w3.org/2000/svg" xmlns:xlink="http://www.w3.org/1999/xlink" width="48.000000" height="48.000000">
  <path id="形状" d="M32.4794 4C36.4879 4 39.7619 7.14472 39.969 11.1017L39.9794 11.5L39.978 25.5065L40.5 25.5075C41.3284 25.5075 42 26.1791 42 27.0075C42 27.7669 41.4357 28.3945 40.7035 28.4938L40.5 28.5075L39.978 28.5065L39.9794 33.5205C39.9794 36.5922 38.1329 39.2325 35.4893 40.3921L35.4941 42.5C35.4941 43.3284 34.8226 44 33.9941 44C33.2348 44 32.6072 43.4357 32.5078 42.7035L32.4941 42.5L32.494 41.0205L15.4958 41.0205L15.4941 42.5C15.4941 43.3284 14.8226 44 13.9941 44C13.2348 44 12.6072 43.4357 12.5078 42.7035L12.4941 42.5L12.4941 40.4856C9.96367 39.3818 8.16794 36.8349 8.00922 33.9374L7.99784 33.5205L7.996 28.5065L7.5 28.5075C6.67157 28.5075 6 27.836 6 27.0075C6 26.2481 6.56431 25.6206 7.29646 25.5212L7.5 25.5075L7.996 25.5065L7.99784 11.5C7.99784 7.49148 11.1426 4.21745 15.0995 4.0104L15.4978 4L32.4794 4ZM36.978 28.5065L10.996 28.5065L10.9978 33.5205C10.9978 35.9023 12.8482 37.8518 15.1897 38.0102L15.4978 38.0205L32.4794 38.0205C34.8611 38.0205 36.8107 36.1702 36.969 33.8286L36.9794 33.5205L36.978 28.5065ZM15.9941 31.0075C17.0987 31.0075 17.9941 31.903 17.9941 33.0075C17.9941 34.1121 17.0987 35.0075 15.9941 35.0075C14.8896 35.0075 13.9941 34.1121 13.9941 33.0075C13.9941 31.903 14.8896 31.0075 15.9941 31.0075ZM31.9941 31.0075C33.0987 31.0075 33.9941 31.903 33.9941 33.0075C33.9941 34.1121 33.0987 35.0075 31.9941 35.0075C30.8896 35.0075 29.9941 34.1121 29.9941 33.0075C29.9941 31.903 30.8896 31.0075 31.9941 31.0075ZM32.4794 7L15.4978 7C13.1161 7 11.1665 8.85032 11.0082 11.1919L10.9978 11.5L10.996 25.5065L36.978 25.5065L36.9794 11.5C36.9794 9.11827 35.1291 7.16871 32.7875 7.01038L32.4794 7Z" fill="var(--tiny-first-color, #191919)" fill-rule="nonzero"/>
  <path id="形状" d="M15.9941 31.0078C17.0987 31.0078 17.9941 31.9032 17.9941 33.0078C17.9941 34.1124 17.0987 35.0078 15.9941 35.0078C14.8896 35.0078 13.9941 34.1124 13.9941 33.0078C13.9941 31.9032 14.8896 31.0078 15.9941 31.0078ZM31.9941 31.0078C33.0987 31.0078 33.9941 31.9032 33.9941 33.0078C33.9941 34.1124 33.0987 35.0078 31.9941 35.0078C30.8896 35.0078 29.9941 34.1124 29.9941 33.0078C29.9941 31.9032 30.8896 31.0078 31.9941 31.0078Z" fill="var(--tiny-second-color, #aeaeAE)" fill-rule="nonzero"/>
</svg>