<svg viewBox="0 0 48 48" xmlns="http://www.w3.org/2000/svg" xmlns:xlink="http://www.w3.org/1999/xlink" width="48.000000" height="48.000000">
  <path id="减去顶层" d="M19.0883 4.24601L2.55761 17.8152C1.90692 18.3494 1.81274 19.2839 2.34356 19.9382C2.87442 20.5935 3.80276 20.6882 4.45346 20.1541L4.5 20.116L4.5 36.9996C4.5 37.5513 4.55798 38.0904 4.67392 38.6168C4.77151 39.0601 4.91021 39.4947 5.08999 39.9195C5.27041 40.3462 5.48608 40.7495 5.737 41.1294C6.01394 41.5484 6.33386 41.94 6.69668 42.3032C7.05957 42.6655 7.45077 42.9859 7.87036 43.2622C8.25036 43.5132 8.65365 43.729 9.0802 43.9097C9.50528 44.0894 9.93945 44.228 10.3826 44.3257C10.909 44.4419 11.4481 44.4995 12 44.4995L27.3336 44.4995C26.1944 43.6663 25.1959 42.6522 24.3803 41.4995L12 41.4995C11.6508 41.4995 11.3105 41.4615 10.9791 41.3843C10.7307 41.3267 10.4872 41.2476 10.2489 41.147C10.0019 41.0425 9.76785 40.9175 9.54669 40.774C9.28585 40.604 9.04296 40.4068 8.81802 40.1812C8.59307 39.9566 8.39566 39.7134 8.22577 39.4527C8.08172 39.232 7.95745 38.9976 7.85302 38.7505C7.75216 38.5123 7.67294 38.2691 7.61532 38.0201C7.53845 37.689 7.5 37.3492 7.5 36.9996L7.5 17.6531L20.9842 6.58388C21.1097 6.48134 21.2426 6.3915 21.3827 6.3163C21.4911 6.25771 21.6038 6.20693 21.7209 6.16494C21.8426 6.12099 21.9662 6.08681 22.0916 6.0624C22.2362 6.03506 22.3832 6.02041 22.5328 6.01846C22.6823 6.0165 22.8297 6.02724 22.9749 6.05166C23.1009 6.07314 23.2253 6.10342 23.3481 6.14443C23.4662 6.18349 23.5801 6.23134 23.6899 6.28701C23.8319 6.35927 23.9669 6.44521 24.095 6.54482L38.5141 17.7898C38.5048 17.8582 38.5 17.9285 38.5 17.9998L38.5 21.4761C39.5609 21.772 40.5671 22.199 41.5 22.7387L41.5 20.1179L41.576 20.1775C42.2397 20.6951 43.1654 20.5769 43.6798 19.9089C44.1943 19.241 44.0769 18.3093 43.4131 17.7918L25.9322 4.1591C25.6683 3.95402 25.3906 3.77434 25.0991 3.62199C24.8396 3.48625 24.5692 3.372 24.2879 3.27825C24.0065 3.18548 23.7213 3.11516 23.4324 3.06829C23.1243 3.01946 22.8119 2.99602 22.4953 2.99993C22.1828 3.00384 21.875 3.03411 21.572 3.08977L21.5602 3.0927C21.2725 3.14544 20.9892 3.22258 20.7102 3.32317C20.4313 3.42375 20.1638 3.54485 19.9078 3.68742C19.6202 3.84758 19.347 4.03312 19.0883 4.24601ZM29.9007 22.0377C29.9649 21.8708 30 21.6894 30 21.4997C30 20.6716 29.3284 19.9998 28.5 19.9998L13.5 19.9998C12.6716 19.9998 12 20.6716 12 21.4997C12 22.3288 12.6716 22.9997 13.5 22.9997L28.0683 22.9997C28.6496 22.6326 29.262 22.3103 29.9007 22.0377ZM23.9561 27.1381C23.7943 26.4845 23.2037 25.9997 22.5 25.9997L13.5 25.9997C12.6716 25.9997 12 26.6716 12 27.4997C12 28.3288 12.6716 28.9997 13.5 28.9997L22.5 28.9997C22.6897 28.9997 22.8711 28.9645 23.0382 28.9003C23.2998 28.2873 23.6072 27.6985 23.9561 27.1381ZM18 33.4996C18 34.3287 17.3284 34.9996 16.5 34.9996L13.5 34.9996C12.6716 34.9996 12 34.3287 12 33.4996C12 32.6715 12.6716 31.9996 13.5 31.9996L16.5 31.9996C17.3284 31.9996 18 32.6715 18 33.4996Z" fill="var(--tiny-first-color, #191919)" fill-rule="evenodd"/>
  <path id="合并" d="M35 23C41.0751 23 46 27.9249 46 34C46 40.0751 41.0751 45 35 45C28.9249 45 24 40.0751 24 34C24 27.9249 28.9249 23 35 23ZM26.64 34C26.64 29.3829 30.3829 25.64 35 25.64C39.6171 25.64 43.36 29.3829 43.36 34C43.36 38.6171 39.6171 42.36 35 42.36C30.3829 42.36 26.64 38.6171 26.64 34ZM36.0368 35.73C34.4778 35.263 32.5382 35.8851 30.2178 37.5963C29.6593 38.0082 28.8793 37.5216 29.1236 36.872C29.8747 34.875 30.959 33.4917 32.3765 32.7221C33.4171 32.1571 34.6372 31.9228 36.0368 32.0192L36.0368 30.6619C36.0368 30.0346 36.7875 29.712 37.2426 30.1436L40.7926 33.5106C41.0962 33.7985 41.0884 34.2847 40.7756 34.5627L37.2256 37.7181C36.765 38.1276 36.0368 37.8006 36.0368 37.1842L36.0368 35.73Z" fill="var(--tiny-second-color, #aeaeAE)" fill-rule="evenodd"/>
</svg>