<svg viewBox="0 0 48 48" xmlns="http://www.w3.org/2000/svg" xmlns:xlink="http://www.w3.org/1999/xlink" width="48.000000" height="48.000000">
  <path id="形状结合" d="M37.9006 24.8466C38.5605 24.8466 39.1334 25.276 39.3293 25.8891L39.3802 26.1L40.1693 30.846L40.9006 30.8466C41.66 30.8466 42.2876 31.4109 42.3869 32.1431L42.4006 32.3466L42.4006 38.3466C42.4006 38.9994 41.9835 39.5549 41.4013 39.761L41.4006 40.3466C41.4006 41.175 40.729 41.8466 39.9006 41.8466C39.1412 41.8466 38.5136 41.2823 38.4143 40.5501L38.4006 40.3466L38.3993 39.846L25.3993 39.846L25.4006 40.3466C25.4006 41.175 24.729 41.8466 23.9006 41.8466C23.1412 41.8466 22.5136 41.2823 22.4143 40.5501L22.4006 40.3466L22.399 39.7607C21.8172 39.5543 21.4006 38.9991 21.4006 38.3466L21.4006 32.3466C21.4006 31.5182 22.0722 30.8466 22.9006 30.8466L23.6293 30.846L24.421 26.1C24.5295 25.449 25.0472 24.9546 25.6842 24.8622L25.9006 24.8466L37.9006 24.8466ZM39.3996 33.846L24.3996 33.846L24.3996 36.846L39.3996 36.846L39.3996 33.846ZM36.6276 27.8448L27.1716 27.8448L26.6713 30.846L37.1273 30.846L36.6276 27.8448ZM13.6559 5.05771L13.8778 5.14056L28.6953 12.05L36.7269 9.12622C37.6202 8.80114 38.5807 8.71428 39.5132 8.87054L39.9108 8.95241L42.3241 9.54025C44.8718 10.1596 45.8567 13.2125 44.3202 15.1126L44.0467 15.4256C43.5585 15.9388 42.9768 16.3524 42.3315 16.647L41.9368 16.8093L12.6148 27.4821C11.4723 27.8961 10.2062 27.6877 9.26332 26.9479L9.01452 26.7331L3.41652 21.4331C2.6608 20.7176 2.85438 19.4933 3.7354 19.0231L8.37862 17.3163C8.74548 17.1827 9.14679 17.1984 9.49844 17.3539L9.70281 17.464L11.1936 18.422L14.2527 17.3083C14.9663 17.0485 15.749 17.3641 16.0928 18.0181C16.3526 18.7317 16.1195 19.701 15.4655 20.0448L11.5209 21.4953C11.154 21.6289 10.7528 21.6132 10.4011 21.4577L10.1968 21.3476L8.70559 20.388L7.23959 20.922L11.0784 24.5558C11.1809 24.6531 11.3179 24.7005 11.455 24.691L40.9061 13.992C41.2006 13.8837 41.4712 13.7232 41.6616 13.5687L41.8797 13.3493C42.1324 13.083 42.0448 12.661 41.7393 12.5018L39.1991 11.8668C38.8154 11.7728 38.4165 11.7716 38.0352 11.8611L37.7531 11.9452L32.3446 13.9125C32.7011 14.3448 32.7999 14.9603 32.5472 15.502C32.2263 16.1902 31.4496 16.5205 30.7441 16.3011L28.0137 15.0441L13.1716 8.12L11.6376 8.678L22.6981 17.0943C23.2975 17.5504 23.4575 18.3696 23.1048 19.0101C22.6487 19.6094 21.7082 19.9557 21.0677 19.603L7.63745 9.4037C6.75211 8.73 6.89412 7.38823 7.83416 6.8887L12.7307 5.09047C13.0298 4.98161 13.3537 4.97137 13.6559 5.05771Z" fill="var(--tiny-first-color, #191919)" fill-rule="evenodd"/>
  <path id="形状结合" d="M37.9006 24.8466C38.5605 24.8466 39.1334 25.276 39.3293 25.8891L39.3802 26.1L40.1693 30.846L40.9006 30.8466C41.66 30.8466 42.2876 31.4109 42.3869 32.1431L42.4006 32.3466L42.4006 38.3466C42.4006 38.9994 41.9835 39.5549 41.4013 39.761L41.4006 40.3466C41.4006 41.175 40.729 41.8466 39.9006 41.8466C39.1412 41.8466 38.5136 41.2823 38.4143 40.5501L38.4006 40.3466L38.3993 39.846L25.3993 39.846L25.4006 40.3466C25.4006 41.175 24.729 41.8466 23.9006 41.8466C23.1412 41.8466 22.5136 41.2823 22.4143 40.5501L22.4006 40.3466L22.399 39.7607C21.8172 39.5543 21.4006 38.9991 21.4006 38.3466L21.4006 32.3466C21.4006 31.5182 22.0722 30.8466 22.9006 30.8466L23.6293 30.846L24.421 26.1C24.5295 25.449 25.0472 24.9546 25.6842 24.8622L25.9006 24.8466L37.9006 24.8466ZM39.3996 33.846L24.3996 33.846L24.3996 36.846L39.3996 36.846L39.3996 33.846ZM36.6276 27.8448L27.1716 27.8448L26.6713 30.846L37.1273 30.846L36.6276 27.8448Z" fill="var(--tiny-second-color, #aeaeAE)" fill-rule="evenodd"/>
</svg>