<svg viewBox="0 0 48 48" xmlns="http://www.w3.org/2000/svg" xmlns:xlink="http://www.w3.org/1999/xlink" width="48.000000" height="48.000000">
  <path id="减去顶层" d="M33 4C36.1954 4 38.8073 6.49784 38.9898 9.64745L39 10L39 18.3438C39 19.1722 38.3284 19.8438 37.5 19.8438C36.7406 19.8438 36.113 19.2794 36.0137 18.5473L36 18.3438L36 10C36 8.44061 34.8102 7.1591 33.2889 7.01373L33 7L12 7C10.4406 7 9.1591 8.18978 9.01373 9.71108L9 10L9 37C9 38.5594 10.1898 39.8409 11.7111 39.9863L12 40L22.8 40C23.0863 40 23.3539 40.0802 23.5814 40.2194C23.7995 40.6188 24.0378 41.0055 24.2951 41.3781C24.2984 41.4183 24.3 41.459 24.3 41.5C24.3 42.2594 23.7357 42.887 23.0035 42.9863L22.8 43L12 43C8.80464 43 6.19268 40.5022 6.01019 37.3525L6 37L6 10C6 6.80464 8.49784 4.19268 11.6475 4.01019L12 4L33 4ZM33.314 21.1083C33.3912 20.9327 33.434 20.7385 33.434 20.5343L33.434 13.3915C33.434 12.6025 32.7944 11.9629 32.0054 11.9629L22.0054 11.9629C21.2164 11.9629 20.5768 12.6025 20.5768 13.3915L20.5768 20.5343C20.5768 21.3233 21.2164 21.9629 22.0054 21.9629L30.0809 21.9629C31.1003 21.5459 32.1844 21.2546 33.314 21.1083ZM25.6549 24.9629L22.0054 24.9629C21.2164 24.9629 20.5768 25.6025 20.5768 26.3915L20.5768 33.5343C20.5768 34.3233 21.2164 34.9629 22.0054 34.9629L22.0351 34.9629C22.0118 34.645 22 34.3239 22 34C22 30.4885 23.3923 27.3021 25.6549 24.9629ZM18.434 29.0343L16.2911 29.0343C16.1779 29.0343 16.068 29.021 15.9614 28.9945L15.9614 28.9945C15.8941 28.9777 15.828 28.9557 15.7633 28.9283C15.6928 28.8984 15.6256 28.8632 15.562 28.8225C15.4793 28.7697 15.4025 28.7078 15.3315 28.6368C15.2605 28.5658 15.1986 28.489 15.1458 28.4063C15.1051 28.3427 15.0699 28.2755 15.04 28.205C15.0127 28.1403 14.9906 28.0742 14.9738 28.0069C14.9473 27.9003 14.934 27.7904 14.934 27.6772L14.934 19.1057C14.934 18.9925 14.9473 18.8826 14.9738 18.776C14.9906 18.7087 15.0127 18.6426 15.04 18.5779C15.0699 18.5074 15.1051 18.4402 15.1458 18.3766C15.1986 18.2939 15.2605 18.2171 15.3315 18.1461C15.4025 18.0751 15.4793 18.0132 15.562 17.9604C15.6256 17.9198 15.6928 17.8845 15.7633 17.8546C15.828 17.8273 15.8941 17.8052 15.9614 17.7884C16.068 17.7619 16.1779 17.7486 16.2911 17.7486L18.434 17.7486L18.434 14.7486L16.2911 14.7486C15.9752 14.7486 15.6664 14.7814 15.3647 14.8468C15.1027 14.9037 14.846 14.9853 14.5947 15.0916C14.3445 15.1974 14.1081 15.3241 13.8856 15.4716C13.6442 15.6315 13.4191 15.8159 13.2102 16.0248C13.0013 16.2337 12.8169 16.4588 12.6569 16.7002C12.5095 16.9227 12.3828 17.1591 12.277 17.4093C12.1707 17.6606 12.0891 17.9173 12.0322 18.1793C11.9667 18.481 11.934 18.7898 11.934 19.1057L11.934 27.6772C11.934 27.993 11.9667 28.3018 12.0322 28.6034L12.0322 28.6035L12.0322 28.6036C12.0891 28.8656 12.1707 29.1223 12.277 29.3736C12.3828 29.6238 12.5095 29.8602 12.657 30.0828C12.8169 30.3241 13.0013 30.5492 13.2102 30.7581C13.4191 30.967 13.6442 31.1515 13.8856 31.3114C14.1081 31.4588 14.3445 31.5855 14.5947 31.6913C14.846 31.7976 15.1027 31.8792 15.3647 31.9361C15.6664 32.0016 15.9752 32.0343 16.2911 32.0343L18.434 32.0343L18.434 29.0343ZM30.434 14.9629L23.5768 14.9629L23.5768 18.9629L30.434 18.9629L30.434 14.9629Z" fill="var(--tiny-first-color, #191919)" fill-rule="evenodd"/>
  <path id="合并" d="M35 23C41.0751 23 46 27.9249 46 34C46 40.0751 41.0751 45 35 45C28.9249 45 24 40.0751 24 34C24 27.9249 28.9249 23 35 23ZM26.64 34C26.64 29.3829 30.3829 25.64 35 25.64C39.6171 25.64 43.36 29.3829 43.36 34C43.36 38.6171 39.6171 42.36 35 42.36C30.3829 42.36 26.64 38.6171 26.64 34ZM36.0368 35.73C34.4778 35.263 32.5382 35.8851 30.2178 37.5963C29.6593 38.0082 28.8793 37.5216 29.1236 36.872C29.8747 34.875 30.959 33.4917 32.3765 32.7221C33.4171 32.1571 34.6372 31.9228 36.0368 32.0192L36.0368 30.6619C36.0368 30.0346 36.7875 29.712 37.2426 30.1436L40.7926 33.5106C41.0962 33.7985 41.0884 34.2847 40.7756 34.5627L37.2256 37.7181C36.765 38.1276 36.0368 37.8006 36.0368 37.1842L36.0368 35.73Z" fill="var(--tiny-second-color, #aeaeAE)" fill-rule="evenodd"/>
</svg>