<svg viewBox="0 0 48 48" xmlns="http://www.w3.org/2000/svg" xmlns:xlink="http://www.w3.org/1999/xlink" width="48.000000" height="48.000000">
  <path id="减去顶层" d="M19.0883 4.2465L2.55762 17.8157C1.90692 18.3499 1.81273 19.2844 2.34357 19.9387C2.87441 20.594 3.80277 20.6887 4.45346 20.1545L5.5 19.2952L5.5 37.0001C5.5 40.3135 8.1863 43 11.5 43L25.6191 43C23.3776 40.6642 22 37.493 22 34C22 32.1899 22.3699 30.4663 23.0383 28.9005C22.8712 28.9648 22.6897 29 22.5 29L13.5 29C12.6716 29 12 28.3284 12 27.5C12 26.6716 12.6716 26 13.5 26L22.5 26C23.2038 26 23.7944 26.4848 23.9562 27.1385C24.9963 25.4679 26.4051 24.0505 28.0686 23L13.5 23C12.6716 23 12 22.3284 12 21.5C12 20.6716 12.6716 20 13.5 20L28.5 20C29.3284 20 30 20.6716 30 21.5C30 21.6897 29.9648 21.8712 29.9005 22.0383C31.4663 21.3699 33.1899 21 35 21C36.9658 21 38.8296 21.4363 40.5 22.2174L40.5 19.3381L41.576 20.178C42.2397 20.6955 43.1654 20.5774 43.6798 19.9094C44.1943 19.2415 44.0769 18.3098 43.4131 17.7923L25.9322 4.15959C25.6683 3.95451 25.3906 3.77483 25.0991 3.62248C24.8396 3.48674 24.5692 3.37249 24.2879 3.27874C24.0065 3.18596 23.7213 3.11565 23.4324 3.06878C23.1243 3.01995 22.8119 2.99651 22.4953 3.00042C22.1828 3.00433 21.875 3.0346 21.572 3.09026C21.5681 3.09124 21.5641 3.09222 21.5602 3.09319C21.2726 3.14593 20.9892 3.22307 20.7102 3.32366C20.4313 3.42424 20.1639 3.54534 19.9078 3.68791C19.6202 3.84807 19.347 4.03361 19.0883 4.2465ZM16.5 35C17.3284 35 18 34.3284 18 33.5C18 32.6716 17.3284 32 16.5 32L13.5 32C12.6716 32 12 32.6716 12 33.5C12 34.3284 12.6716 35 13.5 35L16.5 35Z" fill="var(--tiny-first-color, #191919)" fill-rule="evenodd"/>
  <path id="合并" d="M35 23C41.0751 23 46 27.9249 46 34C46 40.0751 41.0751 45 35 45C28.9249 45 24 40.0751 24 34C24 27.9249 28.9249 23 35 23ZM35.9464 35.73C34.3874 35.263 32.4477 35.8851 30.1273 37.5963C29.5688 38.0082 28.7888 37.5216 29.0331 36.872C29.7843 34.875 30.8686 33.4917 32.2861 32.7221C33.3266 32.1571 34.5467 31.9228 35.9464 32.0192L35.9464 30.6619C35.9464 30.0346 36.697 29.712 37.1522 30.1436L40.7021 33.5106C41.0058 33.7985 40.9979 34.2847 40.6851 34.5627L37.1352 37.7181C36.6745 38.1276 35.9464 37.8006 35.9464 37.1842L35.9464 35.73Z" fill="var(--tiny-second-color, #aeaeAE)" fill-rule="evenodd"/>
</svg>