<svg viewBox="0 0 48 48" xmlns="http://www.w3.org/2000/svg" xmlns:xlink="http://www.w3.org/1999/xlink" width="48.000000" height="48.000000">
  <path id="形状结合" d="M13.8453 30.7448C15.8655 30.7448 17.8453 32.7246 17.8453 34.7448C17.8453 36.7651 15.8655 38.7448 13.8453 38.7448C11.825 38.7448 9.84528 36.7651 9.84528 34.7448C9.84528 32.4438 11.615 30.7448 13.8453 30.7448ZM34.5998 30.7448C36.6201 30.7448 38.5998 32.7246 38.5998 34.7448C38.5998 36.7651 36.6201 38.7448 34.5998 38.7448C32.5795 38.7448 30.5998 36.7651 30.5998 34.7448C30.5998 32.4438 32.3695 30.7448 34.5998 30.7448ZM24.3931 8L41.9934 8.02055C43.0971 8.02184 43.9911 8.91689 43.9911 10.0205L43.9911 32.2075C43.9909 33.312 43.0956 34.2074 41.9911 34.2076L41.5761 34.2063C41.2727 30.7495 38.0964 27.7448 34.5998 27.7448C30.8749 27.7448 27.8853 30.5292 27.6191 34.2086L20.8218 34.2083C20.5194 30.7507 17.3426 27.7448 13.8453 27.7448C10.1394 27.7448 7.16127 30.5009 6.86885 34.1525C5.33002 33.8742 4.14054 32.5856 4.0116 30.9972L4 30.7102L4 24.4271C4 23.7997 4.16856 23.1859 4.48536 22.6489L4.65602 22.387L11.0569 14.7353C11.4743 14.1535 12.1182 13.7821 12.8219 13.7067L18.1882 13.6951C18.7846 13.6938 19.2804 14.1279 19.3746 14.6979L19.3907 26.1303C19.3907 26.959 20.062 27.6312 20.8907 27.6323C21.7181 27.6334 22.3896 26.9636 22.3907 26.1363L22.3907 10C22.3907 8.97433 23.1628 8.12899 24.1575 8.01346L24.3931 8Z" fill="var(--tiny-first-color, #191919)" fill-rule="evenodd"/>
  <path id="形状结合" d="M13.8453 30.7446C15.8655 30.7446 17.8453 32.7243 17.8453 34.7446C17.8453 36.7648 15.8655 38.7446 13.8453 38.7446C11.825 38.7446 9.84528 36.7648 9.84528 34.7446C9.84528 32.4435 11.615 30.7446 13.8453 30.7446ZM34.5998 30.7446C36.6201 30.7446 38.5998 32.7243 38.5998 34.7446C38.5998 36.7648 36.6201 38.7446 34.5998 38.7446C32.5795 38.7446 30.5998 36.7648 30.5998 34.7446C30.5998 32.4435 32.3695 30.7446 34.5998 30.7446Z" fill="var(--tiny-second-color, #aeaeAE)" fill-rule="evenodd"/>
</svg>