<svg viewBox="0 0 48 48" xmlns="http://www.w3.org/2000/svg" xmlns:xlink="http://www.w3.org/1999/xlink" width="48.000000" height="48.000000" fill="none">
  <path id="形状结合" d="M24 4C28.4341 4 32.6516 5.44838 36.1066 8.07848C36.7657 8.58028 36.8933 9.52142 36.3915 10.1806C35.8897 10.8397 34.9486 10.9673 34.2894 10.4655C31.3523 8.22962 27.7718 7 24 7C14.6117 7 7 14.6111 7 24C7 33.3876 14.6124 41 24 41C33.3889 41 41 33.3883 41 24C41 20.2292 39.7717 16.6507 37.5362 13.7122C37.0346 13.0529 37.1625 12.1118 37.8218 11.6102C38.4811 11.1086 39.4222 11.2365 39.9238 11.8958C42.5532 15.352 44 19.5672 44 24C44 35.0451 35.0458 44 24 44C12.9556 44 4 35.0444 4 24C4 12.9542 12.9549 4 24 4Z" fill="var(--tiny-first-color)" fill-rule="nonzero"/>
  <path id="矢量 1728" d="M25.3671 20.9621L25.3671 13.3671C25.3671 12.6016 24.7656 12 24 12C23.2344 12 22.6329 12.6016 22.6329 13.3671L22.6329 20.9621C22.6329 21.7276 23.2344 22.3292 24 22.3292C24.7656 22.3292 25.3671 21.7276 25.3671 20.9621ZM17.4501 17.3698C17.0016 17.8202 16.6062 18.3055 16.2639 18.8258C15.953 19.2983 15.6859 19.7997 15.4626 20.3298C15.2521 20.8295 15.0872 21.3396 14.968 21.8602C14.8121 22.5408 14.7342 23.2392 14.7342 23.9554C14.7342 24.6716 14.8121 25.37 14.968 26.0506C15.0872 26.5712 15.2521 27.0813 15.4626 27.5809C15.6859 28.1111 15.953 28.6125 16.2639 29.0851C16.6062 29.6053 17.0016 30.0906 17.4501 30.5409C17.9178 31.0106 18.4233 31.4223 18.9665 31.7759C19.4169 32.069 19.8933 32.3222 20.3956 32.5356C20.9039 32.7515 21.4232 32.9195 21.9532 33.0397C22.6184 33.1905 23.3006 33.2659 24 33.266C24.6994 33.266 25.3816 33.1906 26.0468 33.0398C26.5768 32.9196 27.096 32.7515 27.6044 32.5356C28.1067 32.3222 28.5831 32.069 29.0336 31.7759C29.5767 31.4223 30.0823 31.0106 30.5499 30.5409C30.9985 30.0906 31.3939 29.6052 31.7362 29.0849C32.047 28.6125 32.3142 28.111 32.5374 27.5809C32.7479 27.0813 32.9128 26.5712 33.032 26.0506C33.1879 25.3701 33.2658 24.6716 33.2658 23.9554C33.2658 23.2391 33.1879 22.5407 33.032 21.8602C32.9128 21.3396 32.7479 20.8295 32.5374 20.3298C32.3142 19.7997 32.047 19.2984 31.7361 18.8258C31.3938 18.3055 30.9984 17.8201 30.5499 17.3698C30.0097 16.8273 30.0115 15.9767 30.5539 15.4364C31.0964 14.8963 31.9471 14.8981 32.4873 15.4405C33.5936 16.5515 34.4503 17.8275 35.0572 19.2686C35.3391 19.9378 35.5578 20.6211 35.7132 21.3185C35.9044 22.1761 36 23.0551 36 23.9554C36 24.8556 35.9044 25.7346 35.7132 26.5923C35.5578 27.2896 35.3391 27.9731 35.0572 28.6423C34.7651 29.3359 34.415 29.9914 34.0071 30.6087C33.5677 31.2735 33.0611 31.8941 32.4873 32.4703C31.3806 33.5816 30.1093 34.4423 28.6733 35.0522C27.9943 35.3407 27.3007 35.5633 26.5925 35.72C25.749 35.9067 24.8848 36.0002 24 36.0002C23.1152 36.0002 22.2509 35.9068 21.4074 35.72C20.6993 35.5632 20.0057 35.3407 19.3267 35.0522C17.8908 34.4423 16.6194 33.5816 15.5127 32.4703C14.9389 31.8941 14.4324 31.2735 13.9929 30.6087C13.585 29.9914 13.235 29.336 12.9428 28.6423C12.6609 27.9731 12.4423 27.2898 12.2868 26.5924C12.0958 25.7349 12 24.8554 12 23.9554C12 23.0553 12.0955 22.1765 12.2866 21.319C12.4421 20.6216 12.6609 19.9377 12.9428 19.2686C13.235 18.5748 13.585 17.9193 13.9929 17.302C14.4324 16.6371 14.939 16.0166 15.5127 15.4405C16.0529 14.8981 16.9036 14.8963 17.4461 15.4364C17.9885 15.9767 17.9903 16.8273 17.4501 17.3698Z" fill="var(--tiny-second-color)" fill-rule="evenodd"/>
</svg>