<svg viewBox="0 0 48 48" xmlns="http://www.w3.org/2000/svg" xmlns:xlink="http://www.w3.org/1999/xlink" width="48.000000" height="48.000000" fill="none">
  <path id="矢量 1917" d="M7.5 10.5L14.6533 10.5L15.4053 8.13574C15.4824 7.89404 15.5781 7.66211 15.6924 7.43994C15.7964 7.23779 15.916 7.04395 16.0508 6.85791C16.1855 6.67188 16.333 6.49854 16.4922 6.33691C16.6602 6.16699 16.8423 6.01025 17.0376 5.86768C17.2329 5.72461 17.437 5.59912 17.6499 5.49023C17.8521 5.38721 18.0625 5.2998 18.2803 5.22754C18.4985 5.15527 18.7197 5.1001 18.9438 5.0625C19.1904 5.021 19.4404 5 19.6938 5L28.3062 5C28.5596 5 28.8096 5.021 29.0562 5.0625C29.2803 5.1001 29.5015 5.15527 29.7197 5.22754C29.9375 5.2998 30.1479 5.38721 30.3501 5.49023C30.563 5.59863 30.7671 5.72461 30.9624 5.86768C31.1577 6.01025 31.3394 6.16699 31.5073 6.33691L31.5078 6.33691C31.6675 6.49854 31.8145 6.67188 31.9492 6.85791C32.084 7.04395 32.2036 7.23779 32.3076 7.43994C32.4219 7.66211 32.5176 7.89404 32.5947 8.13574L33.3467 10.5L40.5 10.5C41.3398 10.5 42 11.1602 42 12C42 12.8398 41.3398 13.5 40.5 13.5L32.25 13.5C31.9233 13.5 31.6284 13.4038 31.3647 13.2109C31.1011 13.0181 30.9194 12.7661 30.8208 12.4546L29.7358 9.04541C29.686 8.88965 29.6162 8.74854 29.5254 8.62256C29.4346 8.49658 29.3237 8.38574 29.1919 8.28906C29.0601 8.19287 28.9204 8.12061 28.7725 8.07227C28.625 8.02393 28.4697 8 28.3062 8L19.6938 8C19.5303 8 19.375 8.02393 19.2275 8.07227C19.0801 8.12061 18.9399 8.19287 18.8081 8.28906C18.6763 8.38574 18.5654 8.49658 18.4746 8.62256L18.4746 8.62305C18.3838 8.74902 18.314 8.88965 18.2642 9.04541L17.1797 12.4546C17.0806 12.7661 16.8994 13.0181 16.6357 13.2109C16.3721 13.4038 16.0767 13.5 15.75 13.5L7.5 13.5C6.66016 13.5 6 12.8398 6 12C6 11.1602 6.66016 10.5 7.5 10.5ZM11.4912 15.8369C11.3999 15.002 10.6724 14.4175 9.8374 14.5083C9.00244 14.5996 8.41797 15.3271 8.50879 16.1621L11.0225 36.2046C11.1123 37.0293 11.3345 37.7856 11.688 38.4746C12.0415 39.1641 12.5269 39.7852 13.1445 40.3389C13.7617 40.8926 14.4321 41.3076 15.1553 41.5845L15.1558 41.585C15.8789 41.8613 16.6553 42 17.4844 42L30.5156 42C31.3452 42 32.1211 41.8613 32.8447 41.5845C33.5679 41.3076 34.2383 40.8926 34.8555 40.3389C35.4731 39.7852 35.9585 39.1641 36.312 38.4746C36.6655 37.7856 36.8877 37.0293 36.9775 36.2046L39.4912 16.1621C39.582 15.3271 38.9976 14.5996 38.1626 14.5083C37.3276 14.4175 36.6001 15.002 36.5088 15.8369L36.127 19.3369L33.9951 35.8794C33.8818 36.9194 33.5352 37.6997 32.9551 38.2197C32.375 38.7397 31.562 39 30.5156 39L17.4844 39C16.438 39 15.625 38.7397 15.0449 38.2197C14.4648 37.6997 14.1182 36.9194 14.0049 35.8794L11.4912 15.8369ZM23.0669 19.4492C23.5942 19.9863 23.6353 20.8203 23.1943 21.4033L21.5649 23.0278C27.6333 22.73 31.5 25.5527 31.5 30.5C31.5 31.3286 30.8286 32 30 32C29.1714 32 28.5 31.3286 28.5 30.5C28.5 27.4712 26.1533 25.7427 21.6201 26.0234L23.0513 27.4297C23.5884 27.9575 23.6445 28.79 23.2139 29.3813C22.686 29.9189 21.71 30.144 21.1187 29.7139L17.002 25.6943C16.3887 25.0918 16.3374 24.1362 16.8486 23.4751L20.9453 19.4297C21.5366 18.8491 22.4863 18.8579 23.0669 19.4492Z" fill="var(--tiny-first-color)" fill-rule="evenodd"/>
  <path id="矢量 1750" d="M23.0667 19.449C23.5944 19.9864 23.6353 20.8201 23.1942 21.4034L21.5651 23.0276C27.6334 22.7298 31.5 25.5527 31.5 30.5C31.5 31.3284 30.8285 32 30 32C29.1716 32 28.5 31.3284 28.5 30.5C28.5 27.4712 26.1535 25.7428 21.6199 26.0235L23.051 27.4297C23.5883 27.9573 23.6443 28.7902 23.2139 29.3814C22.6862 29.9187 21.7097 30.1442 21.1185 29.7139L17.002 25.6944C16.3884 25.0918 16.3373 24.1364 16.8486 23.4751L20.9455 19.4297C21.5366 18.8493 22.4863 18.858 23.0667 19.449Z" fill="var(--tiny-second-color)" fill-rule="evenodd"/>
</svg>