<svg viewBox="0 0 48 48" xmlns="http://www.w3.org/2000/svg" xmlns:xlink="http://www.w3.org/1999/xlink" width="48.000000" height="48.000000">
  <path id="减去顶层" d="M28.3063 6C30.266 6 32.0003 7.26819 32.5945 9.1356L33.346 11.5L40.5 11.5C41.2594 11.5 41.887 12.0643 41.9863 12.7965L42 13C42 13.8284 41.3284 14.5 40.5 14.5L39.3449 14.5034L8.654 14.502L7.5 14.5C6.67157 14.5 6 13.8284 6 13C6 12.1716 6.67157 11.5 7.5 11.5L14.652 11.5L15.4055 9.1357C15.9647 7.37809 17.5339 6.15128 19.3504 6.01303L19.6937 6L28.3063 6ZM39.126 16.502L36.9775 36.2049C36.6177 39.5024 33.8328 42 30.5158 42L17.4842 42C14.1672 42 11.3823 39.5024 11.0225 36.2049L8.872 16.502L39.126 16.502ZM23.1942 24.4033C23.6353 23.8201 23.5944 22.9864 23.0667 22.449C22.4863 21.8579 21.5366 21.8493 20.9455 22.4297L16.8487 26.4751C16.3373 27.1364 16.3884 28.0918 17.002 28.6944L21.1186 32.7139C21.7097 33.1442 22.6862 32.9187 23.214 32.3814C23.6443 31.7902 23.5883 30.9573 23.051 30.4297L21.6199 29.0235C26.1535 28.7428 28.5001 30.4712 28.5001 33.5C28.5001 34.3284 29.1716 35 30.0001 35C30.8285 35 31.5001 34.3284 31.5001 33.5C31.5001 28.5526 27.6335 25.7298 21.5651 26.0276L23.1942 24.4033Z" fill="var(--tiny-first-color)" fill-rule="evenodd"/>
  <path id="形状结合" d="M28.3063 6C30.266 6 32.0003 7.26819 32.5945 9.1356L33.346 11.5L40.5 11.5C41.2594 11.5 41.887 12.0643 41.9863 12.7965L42 13C42 13.8284 41.3284 14.5 40.5 14.5L39.3449 14.5034L8.654 14.502L7.5 14.5C6.67157 14.5 6 13.8284 6 13C6 12.1716 6.67157 11.5 7.5 11.5L14.652 11.5L15.4055 9.1357C15.9647 7.37809 17.5339 6.15128 19.3504 6.01303L19.6937 6L28.3063 6Z" fill="var(--tiny-second-color)" fill-rule="nonzero"/>
</svg>