<svg viewBox="0 0 48 48" xmlns="http://www.w3.org/2000/svg" xmlns:xlink="http://www.w3.org/1999/xlink" width="48.000000" height="48.000000">
  <path id="矢量 34" d="M32 4L12 4C8.68628 4 6 6.68628 6 10L6 38C6 41.3137 8.68628 44 12 44L23.7849 44C19.7192 41.5502 17 37.0927 17 32C17 24.2681 23.2681 18 31 18C33.55 18 35.9407 18.6818 38 19.8729L38 10C38 6.68628 35.3137 4 32 4ZM12 10.5L27 10.5C27.8401 10.5 28.5 11.16 28.5 12C28.5 12.84 27.8401 13.5 27 13.5L12 13.5C11.1599 13.5 10.5 12.84 10.5 12C10.5 11.16 11.1599 10.5 12 10.5ZM12 17.5L16 17.5C16.8401 17.5 17.5 18.16 17.5 19C17.5 19.84 16.8401 20.5 16 20.5L12 20.5C11.1599 20.5 10.5 19.84 10.5 19C10.5 18.16 11.1599 17.5 12 17.5ZM20 32C20 25.9249 24.9248 21 31 21C37.0752 21 42 25.9249 42 32C42 38.0752 37.0752 43 31 43C24.9248 43 20 38.0752 20 32ZM27.3831 29.3208C27.5144 29.1443 27.6594 28.9767 27.8181 28.818C28.0431 28.5931 28.2859 28.3957 28.5466 28.2258C28.7678 28.0818 29.0019 27.9574 29.2488 27.853C29.4873 27.7522 29.7307 27.673 29.9792 27.6154C30.3105 27.5385 30.6509 27.5 31 27.5C31.3491 27.5 31.6894 27.5385 32.0208 27.6154C32.269 27.673 32.5127 27.7522 32.7512 27.853C32.998 27.9575 33.2322 28.0818 33.4534 28.2258C33.7141 28.3956 33.957 28.5931 34.1819 28.818C34.407 29.043 34.6042 29.2858 34.7742 29.5466C34.9182 29.7678 35.0425 30.0018 35.147 30.2489C35.2478 30.4873 35.3271 30.7307 35.3848 30.9791C35.4616 31.3105 35.5 31.6508 35.5 32C35.5 32.3492 35.4616 32.6895 35.3848 33.0209C35.3271 33.2693 35.2478 33.5127 35.147 33.7511C35.0425 33.9982 34.9182 34.2322 34.7742 34.4534C34.6042 34.7141 34.407 34.957 34.1819 35.182C33.957 35.4069 33.7141 35.6044 33.4534 35.7742C33.2322 35.9182 32.998 36.0425 32.7512 36.147C32.5127 36.2478 32.2693 36.327 32.0208 36.3846C31.69 36.4612 31.3485 36.5 31 36.5C30.5354 36.5 30.0913 36.4344 29.6675 36.3032C29.2727 36.1812 28.8958 36.0022 28.5361 35.7664C27.8337 35.3057 26.9199 35.4956 26.4592 36.1979C25.9985 36.9003 26.1885 37.8142 26.8909 38.2749C27.211 38.4849 27.5432 38.6685 27.8875 38.8257C28.189 38.9633 28.5002 39.0808 28.8203 39.178C29.1113 39.2662 29.4058 39.3364 29.7031 39.3884C30.1289 39.4628 30.5612 39.5 31 39.5C31.5519 39.5 32.0911 39.442 32.6174 39.326C33.0605 39.2285 33.4946 39.0898 33.9199 38.91C34.3464 38.7296 34.7498 38.5139 35.1296 38.2629C35.5483 37.9863 35.9411 37.6655 36.3032 37.3033C36.666 36.9404 36.9861 36.5493 37.2629 36.1298C37.5139 35.7497 37.7296 35.3464 37.9099 34.9198C38.0898 34.4948 38.2285 34.0605 38.3262 33.6174C38.4421 33.0911 38.5 32.5518 38.5 32C38.5 31.4481 38.4421 30.9089 38.3262 30.3826C38.2285 29.9393 38.0898 29.5052 37.9099 29.0802C37.7296 28.6536 37.5139 28.2503 37.2629 27.8702C36.9861 27.4507 36.6663 27.0596 36.3032 26.6967C35.9404 26.3339 35.5492 26.014 35.1296 25.7369C34.7496 25.486 34.3464 25.2704 33.9199 25.09C33.4946 24.9102 33.0605 24.7715 32.6174 24.674C32.0911 24.5581 31.5518 24.5 31 24.5C30.448 24.5 29.9089 24.558 29.3826 24.674C28.9394 24.7715 28.5053 24.9102 28.0803 25.09C27.6537 25.2704 27.2504 25.486 26.8704 25.7369C26.4509 26.0139 26.0596 26.3339 25.6968 26.6967C25.3337 27.0596 25.0139 27.4507 24.7371 27.8702C24.4861 28.2504 24.2705 28.6537 24.0901 29.0802C23.9102 29.5052 23.7715 29.9395 23.6738 30.3826C23.5579 30.9089 23.5 31.4482 23.5 32C23.5 32.3157 23.5906 32.6028 23.772 32.8612C24.0591 33.2706 24.3767 33.5059 24.7249 33.567C25.073 33.6282 25.4519 33.5151 25.8613 33.2281L27.6873 31.9475C28.375 31.4652 28.5364 30.5459 28.0542 29.8582C27.8779 29.6068 27.6433 29.4258 27.3831 29.3208Z" fill="var(--tiny-first-color)" fill-rule="evenodd"/>
  <path id="矢量 34" d="M20 32C20 25.9249 24.9248 21 31 21C37.0752 21 42 25.9249 42 32C42 38.0752 37.0752 43 31 43C24.9248 43 20 38.0752 20 32ZM27.3831 29.3208C27.5144 29.1443 27.6594 28.9767 27.8181 28.818C28.0431 28.5931 28.2859 28.3957 28.5466 28.2258C28.7678 28.0818 29.0019 27.9574 29.2488 27.853C29.4873 27.7522 29.7307 27.673 29.9792 27.6154C30.3105 27.5385 30.6509 27.5 31 27.5C31.3491 27.5 31.6894 27.5385 32.0208 27.6154C32.269 27.673 32.5127 27.7522 32.7512 27.853C32.998 27.9575 33.2322 28.0818 33.4534 28.2258C33.7141 28.3956 33.957 28.5931 34.1819 28.818C34.407 29.043 34.6042 29.2858 34.7742 29.5466C34.9182 29.7678 35.0425 30.0018 35.147 30.2489C35.2478 30.4873 35.3271 30.7307 35.3848 30.9791C35.4616 31.3105 35.5 31.6508 35.5 32C35.5 32.3492 35.4616 32.6895 35.3848 33.0209C35.3271 33.2693 35.2478 33.5127 35.147 33.7511C35.0425 33.9982 34.9182 34.2322 34.7742 34.4534C34.6042 34.7141 34.407 34.957 34.1819 35.182C33.957 35.4069 33.7141 35.6044 33.4534 35.7742C33.2322 35.9182 32.998 36.0425 32.7512 36.147C32.5127 36.2478 32.2693 36.327 32.0208 36.3846C31.69 36.4612 31.3485 36.5 31 36.5C30.5354 36.5 30.0913 36.4344 29.6675 36.3032C29.2727 36.1812 28.8958 36.0022 28.5361 35.7664C27.8337 35.3057 26.9199 35.4956 26.4592 36.1979C25.9985 36.9003 26.1885 37.8142 26.8909 38.2749C27.211 38.4849 27.5432 38.6685 27.8875 38.8257C28.189 38.9633 28.5002 39.0808 28.8203 39.178C29.1113 39.2662 29.4058 39.3364 29.7031 39.3884C30.1289 39.4628 30.5612 39.5 31 39.5C31.5519 39.5 32.0911 39.442 32.6174 39.326C33.0605 39.2285 33.4946 39.0898 33.9199 38.91C34.3464 38.7296 34.7498 38.5139 35.1296 38.2629C35.5483 37.9863 35.9411 37.6655 36.3032 37.3033C36.666 36.9404 36.9861 36.5493 37.2629 36.1298C37.5139 35.7497 37.7296 35.3464 37.9099 34.9198C38.0898 34.4948 38.2285 34.0605 38.3262 33.6174C38.4421 33.0911 38.5 32.5518 38.5 32C38.5 31.4481 38.4421 30.9089 38.3262 30.3826C38.2285 29.9393 38.0898 29.5052 37.9099 29.0802C37.7296 28.6536 37.5139 28.2503 37.2629 27.8702C36.9861 27.4507 36.6663 27.0596 36.3032 26.6967C35.9404 26.3339 35.5492 26.014 35.1296 25.7369C34.7496 25.486 34.3464 25.2704 33.9199 25.09C33.4946 24.9102 33.0605 24.7715 32.6174 24.674C32.0911 24.5581 31.5518 24.5 31 24.5C30.448 24.5 29.9089 24.558 29.3826 24.674C28.9394 24.7715 28.5053 24.9102 28.0803 25.09C27.6537 25.2704 27.2504 25.486 26.8704 25.7369C26.4509 26.0139 26.0596 26.3339 25.6968 26.6967C25.3337 27.0596 25.0139 27.4507 24.7371 27.8702C24.4861 28.2504 24.2705 28.6537 24.0901 29.0802C23.9102 29.5052 23.7715 29.9395 23.6738 30.3826C23.5579 30.9089 23.5 31.4482 23.5 32C23.5 32.3157 23.5906 32.6028 23.772 32.8612C24.0591 33.2706 24.3767 33.5059 24.7249 33.567C25.073 33.6282 25.4519 33.5151 25.8613 33.2281L27.6873 31.9475C28.375 31.4652 28.5364 30.5459 28.0542 29.8582C27.8779 29.6068 27.6433 29.4258 27.3831 29.3208Z" fill="var(--tiny-second-color)" fill-rule="evenodd"/>
</svg>