<svg viewBox="0 0 48 48" xmlns="http://www.w3.org/2000/svg" xmlns:xlink="http://www.w3.org/1999/xlink" width="48.000000" height="48.000000" fill="none">
  <path id="形状结合" d="M38.0977 5.99561C40.2516 5.99561 41.9977 7.74169 41.9977 9.89561C41.9977 10.8515 41.6468 11.7697 41.0188 12.4796L40.7705 12.7357L30.3269 22.5632L30.3274 34.8813C30.3274 35.8605 29.918 36.7842 29.2161 37.4396L28.9714 37.6478L28.706 37.8344L23.011 41.4572C21.3801 42.4947 19.2168 42.0136 18.1793 40.3827C17.8817 39.9148 17.7003 39.3843 17.6481 38.8353L17.6324 38.5041L17.6309 22.4992L7.23298 12.7388C5.828 11.4197 5.61784 9.30499 6.64518 7.74965L6.83933 7.48126L7.05923 7.22613C7.7145 6.52821 8.60039 6.09877 9.54557 6.01196L9.90245 5.99561L38.0977 5.99561Z" fill="var(--tiny-first-color)" fill-rule="evenodd"/>
</svg>