<svg viewBox="0 0 48 48" xmlns="http://www.w3.org/2000/svg" xmlns:xlink="http://www.w3.org/1999/xlink" width="48.000000" height="48.000000">
  <path id="路径" d="M38.0977 5.99561C40.2516 5.99561 41.9977 7.74169 41.9977 9.89561C41.9977 10.8515 41.6468 11.7697 41.0188 12.4796L40.7705 12.7357L30.7116 22.2021C30.1083 22.7699 29.159 22.7411 28.5913 22.1378C28.0751 21.5893 28.052 20.7549 28.5053 20.1812L38.7145 10.551C38.8952 10.3809 38.9977 10.1438 38.9977 9.89561C38.9977 9.45378 38.6793 9.08631 38.2595 9.01011L9.90245 8.99561C9.65392 8.99561 9.41644 9.09838 9.24633 9.27957C8.94863 9.59665 8.92516 10.0724 9.1667 10.4143L20.1592 20.76C20.4108 20.9963 20.5717 21.3105 20.6183 21.6484L20.6324 21.8536L20.6324 38.5041C20.6324 38.5991 20.6595 38.6922 20.7106 38.7725C20.8341 38.9666 21.0693 39.0467 21.2791 38.9822L27.0958 35.3031C27.204 35.2343 27.2802 35.1276 27.3115 35.0064L27.3274 25.9424C27.3274 25.114 27.999 24.4424 28.8274 24.4424C29.5868 24.4424 30.2144 25.0067 30.3137 25.7389L30.3274 25.9424L30.3274 34.8813C30.3274 35.9693 29.822 36.9888 28.9714 37.6478L28.706 37.8344L23.011 41.4572C21.3801 42.4947 19.2168 42.0136 18.1793 40.3827C17.8817 39.9148 17.7003 39.3843 17.6481 38.8353L17.6324 38.5041L17.6309 22.5007L7.23298 12.7388C5.74536 11.3421 5.59724 9.05345 6.83934 7.48126L7.05923 7.22613C7.7145 6.52821 8.60039 6.09877 9.54557 6.01196L9.90245 5.99561L38.0977 5.99561Z" fill="var(--tiny-first-color)" fill-rule="evenodd"/>
</svg>