<svg viewBox="0 0 48 48" xmlns="http://www.w3.org/2000/svg" xmlns:xlink="http://www.w3.org/1999/xlink" width="48.000000" height="48.000000">
  <path id="Fill-1" d="M27.336 24.48C26.186 25.112 25.5 26.164 25.5 27.29L25.5 28.576C25.5 29.404 24.828 30.076 24 30.076C23.172 30.076 22.5 29.404 22.5 28.576L22.5 27.29C22.5 25.054 23.766 23.022 25.886 21.852C27.38 21.028 28.154 19.396 27.856 17.694C27.578 16.126 26.292 14.84 24.724 14.566C23.534 14.35 22.388 14.66 21.484 15.416C20.594 16.164 20.084 17.258 20.084 18.418C20.084 19.246 19.412 19.918 18.584 19.918C17.756 19.918 17.084 19.246 17.084 18.418C17.084 16.368 17.984 14.438 19.554 13.118C21.126 11.8 23.196 11.25 25.242 11.61C28.03 12.098 30.318 14.386 30.808 17.176C31.326 20.114 29.93 23.05 27.336 24.48ZM24 35.994C22.896 35.994 22 35.098 22 33.994C22 32.888 22.896 31.994 24 31.994C25.106 31.994 26 32.888 26 33.994C26 35.098 25.106 35.994 24 35.994ZM24 4C12.972 4 4 12.972 4 24C4 35.026 12.972 44 24 44C35.028 44 44 35.026 44 24C44 12.972 35.028 4 24 4Z" fill="var(--tiny-first-color)" fill-rule="evenodd"/>
  <path id="形状结合" d="M24 31.9928C25.106 31.9928 26 32.8868 26 33.9928C26 35.0968 25.106 35.9928 24 35.9928C22.894 35.9928 22 35.0968 22 33.9928C22 32.8868 22.894 31.9928 24 31.9928ZM25.2424 11.6074C28.0425 12.1011 30.3185 14.3764 30.8096 17.1761C31.3114 20.0439 30.0252 22.8112 27.6645 24.2854L27.336 24.4784C26.2803 25.0601 25.6173 25.9895 25.5141 27.0102L25.5 27.2906L25.5 28.5746C25.5 29.4031 24.8284 30.0746 24 30.0746C23.2406 30.0746 22.613 29.5103 22.5137 28.7782L22.5 28.5746L22.5 27.2906C22.5 25.1469 23.6695 23.2293 25.5309 22.0611L25.8879 21.851C27.3472 21.0467 28.1555 19.4136 27.8546 17.6938C27.5818 16.1386 26.2793 14.8365 24.7232 14.5622C22.2653 14.1317 20.082 15.9833 20.082 18.4166C20.082 19.2451 19.4104 19.9166 18.582 19.9166C17.7536 19.9166 17.082 19.2451 17.082 18.4166C17.082 14.1262 20.9403 10.854 25.2424 11.6074Z" fill="var(--tiny-second-color)" fill-rule="evenodd"/>
</svg>