<svg viewBox="0 0 48 48" xmlns="http://www.w3.org/2000/svg" xmlns:xlink="http://www.w3.org/1999/xlink" width="48.000000" height="48.000000" fill="none">
  <path id="形状结合" d="M13.7533 4C18.9766 4 23.2392 8.12143 23.4658 13.289L23.4753 13.722L23.4753 18.472L37.9685 18.4726C41.1645 18.4726 43.7758 20.9698 43.9583 24.12L43.9685 24.4726L43.9685 37.9726C43.9685 41.2856 41.2823 43.9726 37.9685 43.9726L17.9684 43.9726C14.6546 43.9726 11.9685 41.2856 11.9685 37.9726L11.9685 24.4726C11.9685 21.1582 14.654 18.4726 17.9684 18.4726L20.4753 18.472L20.4753 13.722C20.4753 10.0104 17.4648 7 13.7533 7C10.1642 7 7.23264 9.81238 7.04119 13.3532L7.03125 13.722L7.03125 20.002C7.03125 20.8304 6.35968 21.502 5.53125 21.502C4.77186 21.502 4.14427 20.9377 4.04494 20.2055L4.03125 20.002L4.03125 13.722C4.03125 8.35294 8.38346 4 13.7533 4ZM21.7029 21.4753L17.9684 21.4726C16.3109 21.4726 14.9685 22.815 14.9685 24.4726L14.9685 37.9726C14.9685 39.629 16.3117 40.9726 17.9684 40.9726L37.9685 40.9726C39.6252 40.9726 40.9685 39.629 40.9685 37.9726L40.9685 24.4726C40.9685 22.815 39.626 21.4726 37.9685 21.4726L22.2476 21.4753C22.1592 21.4915 22.0682 21.5 21.9753 21.5C21.8823 21.5 21.7913 21.4915 21.7029 21.4753ZM27.9684 25.9804C28.7278 25.9804 29.3554 26.5447 29.4548 27.2769L29.4684 27.4804L29.4699 31.474C30.0762 31.9303 30.4685 32.6559 30.4685 33.4726C30.4685 34.8526 29.3484 35.9726 27.9684 35.9726C26.5884 35.9726 25.4684 34.8526 25.4684 33.4726C25.4684 32.6559 25.8607 31.9303 26.467 31.474L26.4684 27.4804C26.4684 26.652 27.14 25.9804 27.9684 25.9804Z" fill="var(--tiny-first-color, #191919)" fill-rule="evenodd"/>
  <path id="矢量 1928" d="M13.7532 4C18.9766 4 23.2393 8.12109 23.4658 13.2881L23.4753 13.7207L23.4753 18.4702L20.4753 18.4702L20.4753 13.7207C20.4753 10.0098 17.4648 6.99951 13.7532 6.99951C10.1643 6.99951 7.23267 9.81152 7.04126 13.3521L7.03125 13.7207L7.03125 20C7.03125 20.8286 6.35962 21.5 5.53125 21.5C4.77197 21.5 4.14429 20.9355 4.04492 20.2036L4.03125 20L4.03125 13.7207C4.03125 8.35254 8.38354 4 13.7532 4Z" fill="var(--tiny-second-color, #aeaeAE)" fill-rule="evenodd"/>
</svg>
