<svg viewBox="0 0 48 48" xmlns="http://www.w3.org/2000/svg" xmlns:xlink="http://www.w3.org/1999/xlink" width="48.000000" height="48.000000" fill="none">
  <path id="形状结合" d="M13.7535 4.01465C19.1135 4.01465 23.4755 8.37665 23.4755 13.7346L23.4755 18.4846L37.9685 18.4854C41.2765 18.4854 43.9685 21.1774 43.9685 24.4854L43.9685 37.9855C43.9685 41.2934 41.2765 43.9855 37.9685 43.9855L17.9685 43.9855C14.6605 43.9855 11.9685 41.2934 11.9685 37.9855L11.9685 24.4854C11.9685 21.1774 14.6605 18.4854 17.9685 18.4854L20.4755 18.4846L20.4755 13.7346C20.4755 10.0306 17.4595 7.01465 13.7535 7.01465C10.0475 7.01465 7.03149 10.0306 7.03149 13.7346L7.03149 20.0146C7.03149 20.8426 6.35949 21.5146 5.53149 21.5146C4.70349 21.5146 4.03149 20.8426 4.03149 20.0146L4.03149 13.7346C4.03149 8.37665 8.39149 4.01465 13.7535 4.01465ZM27.9685 25.9955C27.1405 25.9955 26.4685 26.6674 26.4685 27.4954L26.4685 31.5354C25.8765 31.9935 25.4685 32.6795 25.4685 33.4855C25.4685 34.8654 26.5885 35.9855 27.9685 35.9855C29.3485 35.9855 30.4685 34.8654 30.4685 33.4855C30.4685 32.6795 30.0605 31.9935 29.4685 31.5354L29.4685 27.4954C29.4685 26.6674 28.7965 25.9955 27.9685 25.9955Z" fill="var(--tiny-first-color)" fill-rule="evenodd"/>
  <path id="减去顶层" d="M13.7535 4.01465C19.1135 4.01465 23.4755 8.37665 23.4755 13.7346L23.4755 18.48L20.4755 18.48L20.4755 13.7346C20.4755 10.0306 17.4595 7.01465 13.7535 7.01465C10.0475 7.01465 7.03149 10.0306 7.03149 13.7346L7.03149 20.0146C7.03149 20.8426 6.35949 21.5146 5.53149 21.5146C4.70349 21.5146 4.03149 20.8426 4.03149 20.0146L4.03149 13.7346C4.03149 8.37665 8.39149 4.01465 13.7535 4.01465Z" fill="var(--tiny-second-color)" fill-rule="evenodd"/>
</svg>