<svg viewBox="0 0 48 48" xmlns="http://www.w3.org/2000/svg" xmlns:xlink="http://www.w3.org/1999/xlink" width="48.000000" height="48.000000" fill="none">
  <path id="合并" d="M19.4119 41.5L11 41.5C10.448 41.5 9.90883 41.442 9.3824 41.3261C8.93928 41.2285 8.50522 41.0898 8.0802 40.91C7.65362 40.7296 7.2503 40.5139 6.87024 40.263C6.45072 39.986 6.05954 39.6661 5.6967 39.3033C5.33388 38.9405 5.01399 38.5493 4.73704 38.1298C4.48612 37.7497 4.27044 37.3464 4.09 36.9198C3.91022 36.4947 3.77152 36.0606 3.67391 35.6175C3.55797 35.0911 3.5 34.5519 3.5 34L3.5 11C3.5 10.4481 3.55797 9.90893 3.67391 9.38255C3.77152 8.93938 3.91021 8.50527 4.09 8.0802C4.27043 7.65363 4.48609 7.25032 4.73699 6.87027L4.73699 6.87026C5.01395 6.45073 5.33386 6.05954 5.6967 5.6967C6.05954 5.33385 6.45074 5.01395 6.87028 4.73698L6.87028 4.73698C7.25033 4.48608 7.65363 4.27043 8.0802 4.09C8.50524 3.91023 8.93933 3.77153 9.38247 3.67393L9.38254 3.67391C9.90892 3.55797 10.4481 3.5 11 3.5L37 3.5C37.5519 3.5 38.0911 3.55797 38.6175 3.67391C39.0606 3.77152 39.4947 3.91022 39.9198 4.09C40.3464 4.27043 40.7497 4.4861 41.1298 4.73701C41.5493 5.01397 41.9405 5.33387 42.3033 5.6967C42.6662 6.05955 42.9861 6.45075 43.263 6.87029L43.2631 6.87042C43.514 7.25042 43.7296 7.65368 43.91 8.0802C44.0898 8.50522 44.2285 8.93929 44.3261 9.38241C44.442 9.90884 44.5 10.448 44.5 11L44.5 21.0312C44.5 21.8713 43.84 22.5312 43 22.5312C42.16 22.5312 41.5 21.8713 41.5 21.0312L41.5 11C41.5 10.6508 41.4616 10.3105 41.3847 9.9791C41.3271 9.73068 41.2478 9.48726 41.147 9.24886C41.0425 9.0019 40.9183 8.76783 40.7742 8.54666C40.6043 8.28585 40.4069 8.04297 40.182 7.81802C39.957 7.59304 39.7141 7.3956 39.4532 7.2257C39.2321 7.08168 38.9981 6.95745 38.7511 6.85302C38.5127 6.75218 38.2693 6.67294 38.0209 6.61531C37.6895 6.53844 37.3492 6.5 37 6.5L11 6.5C10.6508 6.5 10.3105 6.53844 9.97913 6.61531L9.97909 6.61532C9.73067 6.67295 9.48726 6.75218 9.24886 6.85302C9.00189 6.95747 8.76782 7.08173 8.54665 7.22579C8.28584 7.39567 8.04296 7.59308 7.81802 7.81802C7.59308 8.04296 7.39567 8.28583 7.2258 8.54664C7.08174 8.76781 6.95748 9.00189 6.85302 9.24886C6.75218 9.48727 6.67294 9.73069 6.61531 9.97912C6.53844 10.3105 6.5 10.6508 6.5 11L6.5 34C6.5 34.3492 6.53844 34.6895 6.61532 35.0209C6.67295 35.2693 6.75218 35.5127 6.85302 35.7511C6.95747 35.9981 7.08172 36.2322 7.22577 36.4533C7.39565 36.7141 7.59307 36.957 7.81802 37.182C8.04298 37.4069 8.28588 37.6044 8.54671 37.7743C8.76787 37.9183 9.00191 38.0425 9.24886 38.147C9.48726 38.2478 9.73068 38.3271 9.9791 38.3847C10.3105 38.4616 10.6508 38.5 11 38.5L19.4119 38.5C20.2519 38.5 20.9119 39.16 20.9119 40C20.9119 40.84 20.2519 41.5 19.4119 41.5ZM36.3022 11.2555C35.891 10.5363 34.9747 10.2866 34.2555 10.6978L24.3816 16.3436L24.2144 16.4333C23.9946 16.5254 23.79 16.5092 23.6339 16.4124L13.6856 11.2947L13.4983 11.2138C12.8017 10.9675 12.013 11.2678 11.6659 11.9432C11.2872 12.6801 11.5776 13.5843 12.3144 13.963L22.1578 19.0213L22.4177 19.1664C23.4862 19.6958 24.8862 19.616 25.9643 18.8898L35.7446 13.3022L35.9145 13.1893C36.5008 12.7396 36.6791 11.9147 36.3022 11.2555Z" fill="var(--tiny-first-color)" fill-rule="evenodd"/>
  <path id="形状结合" d="M33.5 22.5C39.5762 22.5 44.5 27.4246 44.5 33.5C44.5 39.5769 39.5769 44.5 33.5 44.5C27.4231 44.5 22.5 39.5769 22.5 33.5C22.5 27.4246 27.4238 22.5 33.5 22.5ZM33.5 25.8C29.2465 25.8 25.8 29.2471 25.8 33.5C25.8 37.7543 29.2457 41.2 33.5 41.2C37.7543 41.2 41.2 37.7543 41.2 33.5C41.2 29.2471 37.7535 25.8 33.5 25.8ZM37.7944 29.0506C38.3851 29.6413 38.4343 30.5684 37.9421 31.2151L35.9164 33.26L37.7944 35.1387C38.4388 35.783 38.4388 36.8278 37.7944 37.4721C37.2037 38.0628 36.2766 38.112 35.6299 37.6198L33.5822 35.5942L31.7064 37.4721C31.062 38.1165 30.0173 38.1165 29.3729 37.4721C28.7822 36.8815 28.733 35.9544 29.2252 35.3076L31.248 33.26L29.3729 31.3841C28.7285 30.7397 28.7285 29.695 29.3729 29.0506C29.9636 28.46 30.8906 28.4107 31.5374 28.903L33.5822 30.9258L35.4609 29.0506C36.1053 28.4063 37.15 28.4063 37.7944 29.0506Z" fill="var(--tiny-second-color)" fill-rule="evenodd"/>
</svg>