<svg viewBox="0 0 48 48" xmlns="http://www.w3.org/2000/svg" xmlns:xlink="http://www.w3.org/1999/xlink" width="48.000000" height="48.000000">
  <path id="减去顶层" d="M37 4C40.866 4 44 7.13401 44 11L44 24.3388C41.4363 21.0873 37.4619 19 33 19C25.268 19 19 25.268 19 33C19 36.427 20.2314 39.5665 22.2758 42L11 42C7.13401 42 4 38.866 4 35L4 11C4 7.13401 7.13401 4 11 4L37 4ZM34.2555 9.6979C34.9746 9.28669 35.891 9.53634 36.3022 10.2555C36.6791 10.9147 36.5008 11.7397 35.9145 12.1893L35.7446 12.3022L25.9642 17.8898C24.8862 18.6161 23.4861 18.6959 22.4177 18.1664L22.1578 18.0214L12.3144 12.963C11.5776 12.5844 11.2872 11.6801 11.6659 10.9433C12.013 10.2679 12.8017 9.96759 13.4983 10.2139L13.6856 10.2947L23.6339 15.4124C23.79 15.5092 23.9946 15.5254 24.2144 15.4334L24.3816 15.3436L34.2555 9.6979Z" fill="var(--tiny-first-color)" fill-rule="evenodd"/>
  <path id="形状结合" d="M33 22C39.0654 22 44 26.9346 44 33C44 39.0654 39.0654 44 33 44C26.9346 44 22 39.0654 22 33C22 26.9346 26.9346 22 33 22ZM35.3557 28.9232L33.2919 30.9581L31.4161 29.0829C30.7693 28.5907 29.6733 28.4923 29.0826 29.0829C28.4968 29.6687 28.4436 30.5854 28.9229 31.2313L30.9577 33.2923L29.0826 35.171C28.5904 35.8177 28.4919 36.9138 29.0826 37.5044C29.6684 38.0902 30.5851 38.1435 31.231 37.6642L33.2919 35.6265L35.1707 37.5044C35.8174 37.9967 36.9134 38.0951 37.5041 37.5044C38.0899 36.9187 38.1432 36.002 37.6639 35.356L35.6261 33.2923L37.5041 31.4164C37.9963 30.7697 38.0948 29.6736 37.5041 29.0829C36.9183 28.4972 36.0017 28.4439 35.3557 28.9232Z" fill="var(--tiny-second-color)" fill-rule="evenodd"/>
</svg>