<svg viewBox="0 0 48 48" xmlns="http://www.w3.org/2000/svg" xmlns:xlink="http://www.w3.org/1999/xlink" width="48.000000" height="48.000000">
  <path id="Fill-1" d="M36.0005 18.711C35.4885 18.711 34.9765 18.515 34.5865 18.125L19.7085 4.247C19.4525 3.991 19.1545 3.953 19.0005 3.953C18.8465 3.953 18.5485 3.991 18.2945 4.247L3.4145 18.125C2.6325 18.907 1.3685 18.907 0.5865 18.125C-0.1955 17.343 -0.1955 16.079 0.5865 15.297L15.4645 1.419C17.3525 -0.473 20.6485 -0.473 22.5365 1.419L37.4145 15.297C38.1965 16.079 38.1965 17.343 37.4145 18.125C37.0245 18.515 36.5125 18.711 36.0005 18.711Z" fill="var(--tiny-first-color)" fill-rule="evenodd" transform="matrix(1,0,0,-1,4.99951,22)"/>
  <path id="Fill-1" d="M40.9998 44.711C40.4878 44.711 39.9758 44.515 39.5858 44.125L24.7078 30.247C24.4518 29.991 24.1538 29.953 23.9998 29.953C23.8458 29.953 23.5478 29.991 23.2938 30.247L8.41377 44.125C7.63177 44.907 6.36777 44.907 5.58577 44.125C4.80377 43.343 4.80377 42.079 5.58577 41.297L20.4638 27.419C22.3518 25.527 25.6478 25.527 27.5358 27.419L42.4138 41.297C43.1958 42.079 43.1958 43.343 42.4138 44.125C42.0238 44.515 41.5118 44.711 40.9998 44.711Z" fill="var(--tiny-second-color)" fill-rule="evenodd"/>
</svg>