<svg viewBox="0 0 48 48" xmlns="http://www.w3.org/2000/svg" xmlns:xlink="http://www.w3.org/1999/xlink" width="48.000000" height="48.000000" fill="none">
  <path id="Stroke-1" d="M5.93934 4.43934C6.47187 3.90681 7.3052 3.85839 7.89242 4.2941L22.9387 18.3173C23.4716 18.8503 24.3054 18.8987 24.893 18.4627L39.9393 4.43934C40.5251 3.85355 41.4749 3.85355 42.0607 4.43934C42.5932 4.97187 42.6416 5.8052 42.2059 6.39242L27.1827 20.4387C25.5086 22.1127 22.8441 22.1925 21.0756 20.6778L20.8173 20.4387L5.93934 6.56066C5.35355 5.97487 5.35355 5.02513 5.93934 4.43934Z" fill="var(--tiny-first-color)" fill-rule="evenodd"/>
  <path id="Stroke-1" d="M0.43934 0.43934C0.971873 -0.0931931 1.8052 -0.141605 2.39242 0.294104L17.4387 14.3173C17.9716 14.8503 18.8054 14.8987 19.393 14.4627L34.4393 0.43934C35.0251 -0.146446 35.9749 -0.146446 36.5607 0.43934C37.0932 0.971873 37.1416 1.8052 36.7059 2.39242L21.6827 16.4387C20.0086 18.1127 17.3441 18.1925 15.5756 16.6778L15.3173 16.4387L0.43934 2.56066C-0.146447 1.97487 -0.146447 1.02513 0.43934 0.43934Z" fill="var(--tiny-second-color)" fill-rule="evenodd" transform="matrix(1,0,0,-1,5.5,44)"/>
</svg>