<svg viewBox="0 0 48 48" xmlns="http://www.w3.org/2000/svg" xmlns:xlink="http://www.w3.org/1999/xlink" width="48.000000" height="48.000000" fill="none">
  <path id="形状结合" d="M30.2231 40.2137C31.0515 40.2137 31.7231 40.8853 31.7231 41.7137C31.7231 42.4731 31.1588 43.1007 30.4266 43.2L30.2231 43.2137L16.9231 43.2137C16.0947 43.2137 15.4231 42.5421 15.4231 41.7137C15.4231 40.9543 15.9874 40.3267 16.7195 40.2274L16.9231 40.2137L30.2231 40.2137ZM21.9777 6.62154C22.8477 5.85554 24.1197 5.79554 25.0537 6.44354L25.2797 6.61954L40.4457 19.9415C40.9877 20.4155 41.2977 21.0995 41.2977 21.8195C41.2977 23.1135 40.3137 24.1795 39.0517 24.3075L38.7977 24.3195L31.6957 24.3195L31.6957 34.2335C31.6957 35.8895 30.3517 37.2335 28.6957 37.2335L18.4137 37.2335C16.8557 37.2335 15.5737 36.0435 15.4277 34.5215L15.4137 34.2335L15.4137 24.3195L8.49971 24.3195C7.87171 24.3195 7.26971 24.0835 6.81171 23.6615C5.95971 22.6935 5.80371 21.0635 6.65371 20.1335L21.9777 6.62154ZM23.6277 9.16154L9.82371 21.3195L16.9137 21.3195C17.6737 21.3195 18.3017 21.8835 18.4017 22.6155L18.4137 22.8195L18.4137 34.2335L28.6957 34.2335L28.6957 22.8195C28.6957 22.0595 29.2597 21.4335 29.9917 21.3335L30.1957 21.3195L37.4677 21.3195L23.6277 9.16154Z" fill="var(--tiny-first-color, #191919)" fill-rule="evenodd"/>
  <path id="形状结合" d="M30.2199 40.2198C31.0483 40.2198 31.7199 40.8914 31.7199 41.7198C31.7199 42.4792 31.1556 43.1068 30.4234 43.2061L30.2199 43.2198L16.9199 43.2198C16.0915 43.2198 15.4199 42.5482 15.4199 41.7198C15.4199 40.9604 15.9842 40.3328 16.7163 40.2335L16.9199 40.2198L30.2199 40.2198Z" fill="var(--tiny-second-color, #aeaeAE)" fill-rule="evenodd"/>
</svg>
