<svg viewBox="0 0 48 48" xmlns="http://www.w3.org/2000/svg" xmlns:xlink="http://www.w3.org/1999/xlink" width="48.000000" height="48.000000" fill="none">
  <path id="形状结合" d="M30.22 40.22C31.0484 40.22 31.72 40.8916 31.72 41.72C31.72 42.4794 31.1557 43.107 30.4235 43.2063L30.22 43.22L16.92 43.22C16.0916 43.22 15.42 42.5484 15.42 41.72C15.42 40.9606 15.9843 40.333 16.7165 40.2337L16.92 40.22L30.22 40.22ZM25.0529 6.44486L25.2788 6.62155L40.4466 19.9421C40.987 20.4168 41.2969 21.1012 41.2969 21.8205C41.2969 23.115 40.3131 24.1796 39.0525 24.3076L38.7969 24.3205L31.6943 24.3197L31.6954 34.2336C31.6954 35.6955 30.6497 36.9132 29.2655 37.1795L28.9843 37.2199L28.6954 37.2336L18.4147 37.2336C16.8553 37.2336 15.5738 36.0438 15.4285 34.5225L15.4147 34.2336L15.4143 24.3197L8.50003 24.3205C7.96137 24.3205 7.44222 24.1468 7.01608 23.8325L6.81111 23.6638C5.95953 22.6966 5.8028 21.0648 6.65322 20.1352L21.977 6.62364C22.848 5.85682 24.1195 5.79707 25.0529 6.44486Z" fill="var(--tiny-first-color, #191919)" fill-rule="evenodd"/>
  <path id="形状结合" d="M30.2199 40.2198C31.0483 40.2198 31.7199 40.8914 31.7199 41.7198C31.7199 42.4792 31.1556 43.1068 30.4234 43.2061L30.2199 43.2198L16.9199 43.2198C16.0915 43.2198 15.4199 42.5482 15.4199 41.7198C15.4199 40.9604 15.9842 40.3328 16.7163 40.2335L16.9199 40.2198L30.2199 40.2198Z" fill="var(--tiny-second-color, #aeaeAE)" fill-rule="evenodd"/>
</svg>
