<svg viewBox="0 0 48 48" xmlns="http://www.w3.org/2000/svg" xmlns:xlink="http://www.w3.org/1999/xlink" width="48.000000" height="48.000000">
  <path id="形状结合" d="M40 32.4996C40.7594 32.4996 41.387 33.0639 41.4863 33.796L41.5 33.9996L41.5 37.4996C41.5 40.6956 39.0028 43.3069 35.8526 43.4894L35.5 43.4996L12.5 43.4996C9.30531 43.4996 6.69273 41.0018 6.51019 37.8521L6.5 37.4996L6.5 33.9996C6.5 33.1711 7.17157 32.4996 8 32.4996C8.75939 32.4996 9.38698 33.0639 9.48631 33.796L9.5 33.9996L9.5 37.4996C9.5 39.0589 10.6902 40.3405 12.2112 40.4858L12.5 40.4996L35.5 40.4996C37.0601 40.4996 38.341 39.3104 38.4863 37.7886L38.5 37.4996L38.5 33.9996C38.5 33.1711 39.1716 32.4996 40 32.4996ZM26.9247 5.57953L27.1827 5.8187L37.0607 15.6967C37.6464 16.2825 37.6464 17.2322 37.0607 17.818C36.5281 18.3506 35.6948 18.399 35.1076 17.9633L25.5 8.378L25.5 34.15C25.5 34.9784 24.8284 35.65 24 35.65C23.2406 35.65 22.613 35.0857 22.5137 34.3535L22.5 34.15L22.5 8.378L13.0607 17.818C12.4749 18.4038 11.5251 18.4038 10.9393 17.818C10.4068 17.2855 10.3584 16.4522 10.7941 15.8649L20.8173 5.8187C21.6934 4.94263 22.8413 4.50315 23.9898 4.50026C25.038 4.49789 26.0827 4.85739 26.9247 5.57953Z" fill="var(--tiny-first-color)" fill-rule="evenodd"/>
  <path id="形状结合" d="M26.9247 5.58025L27.1827 5.81943L37.0607 15.6974C37.6464 16.2832 37.6464 17.233 37.0607 17.8187C36.5281 18.3513 35.6948 18.3997 35.1076 17.964L25.5 8.37872L25.5 34.1507C25.5 34.9791 24.8284 35.6507 24 35.6507C23.2406 35.6507 22.613 35.0864 22.5137 34.3542L22.5 34.1507L22.5 8.37872L13.0607 17.8187C12.4749 18.4045 11.5251 18.4045 10.9393 17.8187C10.4068 17.2862 10.3584 16.4529 10.7941 15.8657L20.8173 5.81943C21.6934 4.94335 22.8413 4.50387 23.9898 4.50099C25.038 4.49862 26.0827 4.85812 26.9247 5.58025Z" fill="var(--tiny-second-color)" fill-rule="evenodd"/>
</svg>