<svg viewBox="0 0 48 48" xmlns="http://www.w3.org/2000/svg" xmlns:xlink="http://www.w3.org/1999/xlink" width="48.000000" height="48.000000" fill="none">
  <path id="合并" d="M26 23.5L26 19.5L23 19.5L23 23.5L13 23.5C12.7484 23.5 12.5025 23.5259 12.2621 23.5776C12.0494 23.6234 11.8411 23.6894 11.6372 23.7757C11.4351 23.8611 11.2443 23.9635 11.0646 24.0828C10.8719 24.2108 10.692 24.3582 10.5251 24.5251C10.3582 24.692 10.2108 24.8719 10.0828 25.0646C9.96351 25.2442 9.86113 25.4351 9.77566 25.6372C9.68941 25.8411 9.6234 26.0494 9.57763 26.262C9.52588 26.5024 9.5 26.7484 9.5 27L9.5 30L12.5 30L12.5 27C12.5 26.931 12.5122 26.867 12.5366 26.8081C12.561 26.7491 12.5976 26.6953 12.6464 26.6464C12.6953 26.5976 12.7491 26.561 12.8081 26.5366C12.867 26.5122 12.931 26.5 13 26.5L35 26.5C35.069 26.5 35.133 26.5122 35.1919 26.5366C35.2509 26.561 35.3047 26.5976 35.3536 26.6464C35.4024 26.6953 35.439 26.7491 35.4634 26.8081C35.4878 26.867 35.5 26.931 35.5 27L35.5 30L38.5 30L38.5 27C38.5 26.7485 38.4741 26.5025 38.4224 26.2621C38.3766 26.0494 38.3106 25.8411 38.2243 25.6372C38.1389 25.4352 38.0366 25.2444 37.9173 25.0648C37.7893 24.872 37.6418 24.6921 37.4749 24.5251C37.308 24.3582 37.1281 24.2108 36.9354 24.0828C36.7558 23.9635 36.5649 23.8611 36.3628 23.7757C36.1589 23.6894 35.9506 23.6234 35.738 23.5776C35.4976 23.5259 35.2516 23.5 35 23.5L26 23.5Z" fill="var(--tiny-second-color)" fill-rule="evenodd"/>
  <path id="合并" d="M28.738 4.57762C28.4975 4.52587 28.2516 4.5 28 4.5L20 4.5C19.7484 4.5 19.5025 4.52587 19.262 4.57762C19.0494 4.62339 18.8411 4.68941 18.6372 4.77566C18.4351 4.86113 18.2443 4.9635 18.0646 5.08277C17.8719 5.21076 17.692 5.35821 17.5251 5.52513C17.3582 5.69204 17.2108 5.87188 17.0828 6.06464C16.9635 6.24426 16.8611 6.43511 16.7757 6.63718C16.6894 6.84111 16.6234 7.0494 16.5776 7.26204C16.5259 7.50246 16.5 7.74844 16.5 8L16.5 16C16.5 16.2516 16.5259 16.4975 16.5776 16.738C16.6234 16.9506 16.6894 17.1589 16.7757 17.3628C16.8611 17.5649 16.9635 17.7557 17.0828 17.9354C17.2108 18.1281 17.3582 18.308 17.5251 18.4749C17.692 18.6418 17.8719 18.7892 18.0647 18.9172C18.2443 19.0365 18.4351 19.1389 18.6372 19.2243C18.8411 19.3106 19.0494 19.3766 19.2621 19.4224C19.5025 19.4741 19.7484 19.5 20 19.5L28 19.5C28.2516 19.5 28.4976 19.4741 28.738 19.4224C28.9506 19.3766 29.1589 19.3106 29.3628 19.2243C29.5649 19.1389 29.7557 19.0365 29.9353 18.9173C30.1281 18.7893 30.3079 18.6418 30.4749 18.4749C30.6418 18.308 30.7892 18.1281 30.9172 17.9353C31.0365 17.7557 31.1389 17.5649 31.2243 17.3628C31.3106 17.1589 31.3766 16.9506 31.4224 16.7379C31.4741 16.4975 31.5 16.2515 31.5 16L31.5 8C31.5 7.74843 31.4741 7.50243 31.4224 7.262C31.3766 7.04937 31.3106 6.8411 31.2243 6.63718C31.1389 6.43514 31.0365 6.24431 30.9173 6.06471C30.7893 5.87192 30.6418 5.69206 30.4749 5.52513C30.308 5.35821 30.1281 5.21076 29.9354 5.08276C29.7557 4.9635 29.5649 4.86113 29.3628 4.77566C29.1589 4.68941 28.9506 4.62339 28.738 4.57762ZM20 7.5L28 7.5C28.069 7.5 28.133 7.5122 28.1919 7.53661C28.2509 7.56102 28.3047 7.59763 28.3536 7.64645C28.4024 7.69526 28.439 7.74913 28.4634 7.80806C28.4878 7.86698 28.5 7.93096 28.5 8L28.5 16C28.5 16.069 28.4878 16.133 28.4634 16.1919C28.439 16.2509 28.4024 16.3047 28.3536 16.3536C28.3047 16.4024 28.2509 16.439 28.1919 16.4634C28.133 16.4878 28.069 16.5 28 16.5L20 16.5C19.931 16.5 19.867 16.4878 19.8081 16.4634C19.7491 16.439 19.6953 16.4024 19.6464 16.3536C19.5976 16.3047 19.561 16.2509 19.5366 16.1919C19.5122 16.133 19.5 16.069 19.5 16L19.5 8C19.5 7.93096 19.5122 7.86698 19.5366 7.80806C19.561 7.74913 19.5976 7.69526 19.6464 7.64645C19.6953 7.59763 19.7491 7.56102 19.8081 7.53661C19.867 7.5122 19.931 7.5 20 7.5ZM15.738 28.5776C15.4975 28.5259 15.2516 28.5 15 28.5L7 28.5C6.74844 28.5 6.50245 28.5259 6.26204 28.5776C6.04939 28.6234 5.84111 28.6894 5.63718 28.7757C5.43524 28.8611 5.24451 28.9634 5.06499 29.0825C4.87246 29.2104 4.69185 29.3584 4.52513 29.5251C4.35821 29.692 4.21076 29.8719 4.08278 30.0646C3.96355 30.2442 3.86111 30.4352 3.77566 30.6372C3.68941 30.8411 3.62339 31.0494 3.57762 31.262C3.52587 31.5025 3.5 31.7484 3.5 32L3.5 40C3.5 40.2515 3.52587 40.4975 3.57762 40.7379C3.62339 40.9506 3.6894 41.1589 3.77566 41.3628C3.86113 41.5649 3.9635 41.7557 4.08278 41.9354C4.21075 42.1281 4.35823 42.308 4.52513 42.4749C4.69203 42.6418 4.87186 42.7892 5.06461 42.9172C5.24422 43.0365 5.43514 43.1389 5.63718 43.2243C5.84112 43.3106 6.04942 43.3766 6.26207 43.4224C6.50248 43.4741 6.74845 43.5 7 43.5L15 43.5C15.2516 43.5 15.4976 43.4741 15.738 43.4224C15.9503 43.3766 16.1592 43.3105 16.3628 43.2243C16.5648 43.1389 16.7556 43.0366 16.9352 42.9174C17.1279 42.7894 17.3079 42.6418 17.4749 42.4749C17.6418 42.308 17.7892 42.1282 17.9172 41.9354C18.0365 41.7558 18.1389 41.5649 18.2243 41.3628C18.3106 41.1589 18.3766 40.9506 18.4224 40.738C18.4741 40.4976 18.5 40.2515 18.5 40L18.5 32C18.5 31.7484 18.4741 31.5024 18.4224 31.262C18.3766 31.0494 18.3106 30.8411 18.2243 30.6372C18.1389 30.4351 18.0365 30.2443 17.9173 30.0647C17.7893 29.8719 17.6418 29.6921 17.4749 29.5251C17.308 29.3582 17.1282 29.2108 16.9354 29.0828C16.7561 28.9639 16.5644 28.8609 16.3628 28.7757C16.1589 28.6894 15.9506 28.6234 15.738 28.5776ZM41.7379 28.5776C41.9505 28.6234 42.1589 28.6894 42.3628 28.7757C42.5649 28.8611 42.7557 28.9635 42.9354 29.0828C43.1281 29.2108 43.308 29.3582 43.4749 29.5251C43.6418 29.692 43.7892 29.8718 43.9172 30.0646C44.0364 30.2442 44.1389 30.4351 44.2243 30.6372C44.3106 30.8411 44.3766 31.0493 44.4224 31.2619C44.4741 31.5024 44.5 31.7484 44.5 32L44.5 40C44.5 40.2515 44.4741 40.4975 44.4224 40.7378C44.3766 40.9505 44.3106 41.1589 44.2243 41.3628C44.1389 41.5649 44.0365 41.7557 43.9172 41.9354C43.7892 42.1281 43.6418 42.308 43.4749 42.4749C43.308 42.6418 43.1281 42.7893 42.9353 42.9172C42.7557 43.0365 42.5649 43.1389 42.3628 43.2243C42.1589 43.3106 41.9506 43.3766 41.738 43.4224C41.4976 43.4741 41.2515 43.5 41 43.5L33 43.5C32.7485 43.5 32.5025 43.4741 32.2621 43.4224C32.0494 43.3766 31.8411 43.3106 31.6372 43.2243C31.4351 43.1389 31.2443 43.0365 31.0647 42.9172C30.8719 42.7893 30.692 42.6418 30.5251 42.4749C30.3582 42.308 30.2108 42.1281 30.0828 41.9354C29.9635 41.7557 29.8611 41.5649 29.7757 41.3628C29.6894 41.1589 29.6234 40.9506 29.5776 40.738C29.5259 40.4976 29.5 40.2515 29.5 40L29.5 32C29.5 31.7484 29.5259 31.5025 29.5776 31.262C29.6234 31.0494 29.6894 30.8411 29.7757 30.6372C29.8611 30.4351 29.9635 30.2443 30.0828 30.0646C30.2108 29.8719 30.3582 29.692 30.5251 29.5251C30.692 29.3582 30.8718 29.2108 31.0646 29.0828C31.2442 28.9636 31.4351 28.8611 31.6372 28.7757C31.8411 28.6894 32.0494 28.6234 32.262 28.5776C32.5025 28.5259 32.7484 28.5 33 28.5L41 28.5C41.2515 28.5 41.4975 28.5259 41.7379 28.5776ZM7 31.5L15 31.5C15.069 31.5 15.133 31.5122 15.1919 31.5366C15.2509 31.561 15.3047 31.5976 15.3536 31.6464C15.4023 31.6952 15.4389 31.749 15.4633 31.8079C15.4877 31.8668 15.5 31.931 15.5 32L15.5 40C15.5 40.0689 15.4878 40.1328 15.4635 40.1917C15.4391 40.2506 15.4024 40.3047 15.3536 40.3536C15.3048 40.4023 15.2509 40.4389 15.192 40.4634C15.1331 40.4878 15.069 40.5 15 40.5L7 40.5C6.93097 40.5 6.86699 40.4878 6.80806 40.4634C6.74913 40.439 6.69525 40.4024 6.64645 40.3536C6.59763 40.3047 6.56102 40.2509 6.53661 40.1919C6.5122 40.133 6.5 40.069 6.5 40L6.5 32C6.5 31.931 6.5122 31.867 6.5366 31.8081C6.56101 31.7492 6.59765 31.6952 6.64645 31.6464C6.69526 31.5976 6.74913 31.561 6.80806 31.5366C6.86699 31.5122 6.93097 31.5 7 31.5ZM41 31.5L33 31.5C32.931 31.5 32.867 31.5122 32.8081 31.5366C32.7491 31.561 32.6953 31.5976 32.6464 31.6464C32.5976 31.6953 32.561 31.7491 32.5366 31.8081C32.5122 31.867 32.5 31.931 32.5 32L32.5 40C32.5 40.069 32.5122 40.133 32.5366 40.1919C32.561 40.2509 32.5976 40.3047 32.6464 40.3536C32.6953 40.4024 32.7491 40.439 32.8081 40.4634C32.867 40.4878 32.931 40.5 33 40.5L41 40.5C41.069 40.5 41.133 40.4878 41.1919 40.4634C41.2509 40.439 41.3047 40.4024 41.3536 40.3536C41.4024 40.3047 41.439 40.2509 41.4634 40.1919C41.4878 40.133 41.5 40.069 41.5 40L41.5 32C41.5 31.931 41.4878 31.867 41.4634 31.8081C41.439 31.7491 41.4024 31.6953 41.3536 31.6464C41.3047 31.5976 41.2509 31.561 41.1919 31.5366C41.133 31.5122 41.069 31.5 41 31.5Z" fill="var(--tiny-first-color)" fill-rule="evenodd"/>
</svg>