<svg viewBox="0 0 48 48" xmlns="http://www.w3.org/2000/svg" xmlns:xlink="http://www.w3.org/1999/xlink" width="48.000000" height="48.000000" fill="none">
  <path id="矢量 6" d="M36.4989 5.5C39.8126 5.5 42.4989 8.18628 42.4989 11.5L42.4989 36.5C42.4989 39.8137 39.8126 42.5 36.4989 42.5L11.5 42.5C8.18628 42.5 5.5 39.8137 5.5 36.5L5.5 11.5C5.5 8.18628 8.18628 5.5 11.5 5.5L36.4989 5.5ZM27.8118 16L15.3882 16C13.517 16 12 17.3431 12 19L12 29C12 30.6569 13.517 32 15.3882 32L27.8118 32C29.683 32 31.2 30.6569 31.2 29L31.2 27.8132L34.6835 29.5161C34.7969 29.5715 34.9178 29.6 35.04 29.6C35.5702 29.6 36 29.0747 36 28.4268L36 19.5736C36 19.4243 35.9767 19.2764 35.9313 19.1378C35.7344 18.5363 35.1757 18.2435 34.6835 18.4843L31.2 20.1871L31.2 19C31.2 17.3431 29.683 16 27.8118 16Z" fill="var(--tiny-first-color)" fill-rule="evenodd"/>
  <path id="矢量 6" d="M27.8118 16L15.3882 16C13.517 16 12 17.3431 12 19L12 29C12 30.6569 13.517 32 15.3882 32L27.8118 32C29.683 32 31.2 30.6569 31.2 29L31.2 27.8132L34.6835 29.5161C34.7969 29.5715 34.9178 29.6 35.04 29.6C35.5702 29.6 36 29.0747 36 28.4268L36 19.5736C36 19.4243 35.9767 19.2764 35.9313 19.1378C35.7344 18.5363 35.1757 18.2435 34.6835 18.4843L31.2 20.1871L31.2 19C31.2 17.3431 29.683 16 27.8118 16ZM20.4761 20.1438C20.0914 19.8737 19.5789 19.9952 19.3315 20.4156C19.2457 20.5615 19.2 20.7314 19.2 20.9049L19.2 27.0952C19.2 27.595 19.5708 28 20.0282 28C20.187 28 20.3425 27.9501 20.4761 27.8563L25.2196 24.7611C25.5883 24.5021 25.7059 23.9772 25.4974 23.564C25.4332 23.455 25.3193 23.3091 25.2196 23.2389L20.4761 20.1438Z" fill="var(--tiny-second-color)" fill-rule="evenodd"/>
</svg>