<svg viewBox="0 0 48 48" xmlns="http://www.w3.org/2000/svg" xmlns:xlink="http://www.w3.org/1999/xlink" width="48.000000" height="48.000000" fill="none">
  <path id="形状结合" d="M11.998 42C8.692 42 6 39.308 6 36.002L6 11.998C6 8.692 8.692 6 11.998 6L36.002 6C39.308 6 42 8.692 42 11.998C42 12.826 41.328 13.498 40.5 13.498C39.672 13.498 39 12.826 39 11.998C39 10.346 37.654 9 36.002 9L11.998 9C10.346 9 9 10.346 9 11.998L9 36.002C9 37.654 10.346 39 11.998 39L36.002 39C37.654 39 39 37.654 39 36.002L39 17.0126C39 16.1846 39.672 15.5126 40.5 15.5126C41.328 15.5126 42 16.1846 42 17.0126L42 36.002C42 39.308 39.308 42 36.002 42L11.998 42Z" fill="var(--tiny-first-color)" fill-rule="evenodd"/>
  <path id="合并" d="M26.6163 15C26.9429 15 27.2622 15.0339 27.5741 15.1017C27.8444 15.1604 28.1091 15.2446 28.3683 15.3542C28.6265 15.4635 28.8705 15.5942 29.1003 15.7463C29.3497 15.9116 29.5824 16.1021 29.7983 16.318C30.213 16.7327 30.5342 17.2094 30.762 17.7479C30.8717 18.0071 30.9559 18.2719 31.0146 18.5422C31.043 18.673 31.0655 18.8052 31.082 18.9386L32.3902 18.2905C32.7919 18.0916 33.2143 18.0062 33.6576 18.0345C33.8571 18.0472 34.0497 18.0822 34.2354 18.1395C34.4379 18.202 34.6321 18.291 34.8183 18.4065C35.1751 18.628 35.4579 18.9196 35.6669 19.2814C35.7703 19.4605 35.8496 19.6466 35.9049 19.8395C35.9683 20.0608 36 20.2912 36 20.5307L36 27.9531C36 28.1926 35.9683 28.4231 35.9049 28.6444C35.8496 28.8373 35.7703 29.0233 35.6669 29.2025C35.5669 29.3755 35.4501 29.5325 35.3163 29.6735C35.1704 29.8272 35.0044 29.9618 34.8183 30.0773C34.4614 30.2988 34.0745 30.4228 33.6576 30.4494C33.2143 30.4777 32.7919 30.3923 32.3902 30.1933L31.0326 29.5208C30.9758 29.8048 30.89 30.0825 30.7751 30.354C30.5558 30.8726 30.2465 31.3315 29.8471 31.7309C29.4478 32.1302 28.9889 32.4395 28.4703 32.6589C27.9326 32.8863 27.3702 33 26.7832 33L16.5 33C16.1733 33 15.854 32.9661 15.5421 32.8983C15.2719 32.8396 15.0071 32.7554 14.7479 32.6458C14.2094 32.418 13.7327 32.0967 13.318 31.682C13.1021 31.4661 12.9115 31.2334 12.7463 30.9839C12.5941 30.7542 12.4634 30.5102 12.3542 30.2521C12.2446 29.9929 12.1604 29.7281 12.1017 29.4579C12.0339 29.1459 12 28.8266 12 28.5L12 19.5C12 19.1734 12.0339 18.8541 12.1017 18.5422L12.1017 18.5422C12.1604 18.2719 12.2446 18.0071 12.3542 17.7479C12.4635 17.4897 12.5941 17.2458 12.7463 17.016C12.9116 16.7666 13.1021 16.5339 13.318 16.318C13.5339 16.1021 13.7666 15.9116 14.0161 15.7463L14.0161 15.7463L14.0161 15.7463C14.2458 15.5941 14.4898 15.4634 14.7479 15.3542C15.0071 15.2446 15.2719 15.1604 15.5422 15.1017C15.8541 15.0339 16.1734 15 16.5 15L26.6163 15ZM26.6163 18L16.5 18C16.376 18 16.2557 18.0144 16.1388 18.0432C16.0633 18.0619 15.9892 18.0866 15.9166 18.1173C15.7373 18.1931 15.5782 18.3004 15.4393 18.4393C15.3613 18.5173 15.2933 18.6017 15.2352 18.6924C15.1898 18.7633 15.1505 18.838 15.1173 18.9166C15.0866 18.9892 15.0619 19.0633 15.0432 19.1388C15.0144 19.2557 15 19.3761 15 19.5L15 28.5C15 28.7041 15.0391 28.8986 15.1173 29.0834C15.1931 29.2627 15.3004 29.4218 15.4393 29.5607C15.5782 29.6996 15.7373 29.8069 15.9166 29.8827C15.9892 29.9134 16.0633 29.9381 16.1388 29.9568C16.2557 29.9856 16.3761 30 16.5 30L26.7832 30C26.8946 30 27.0027 29.9869 27.1076 29.9608C27.1735 29.9443 27.2382 29.9227 27.3016 29.8959C27.4609 29.8285 27.6023 29.733 27.7258 29.6095C27.8493 29.486 27.9448 29.3447 28.0121 29.1853C28.0389 29.122 28.0606 29.0573 28.077 28.9914C28.1032 28.8865 28.1163 28.7783 28.1163 28.6669C28.1163 28.4333 28.1471 28.2085 28.2089 27.9925C28.2629 27.8034 28.3407 27.621 28.4421 27.4453C28.6463 27.0916 28.9229 26.8064 29.2717 26.59C29.4534 26.4772 29.6431 26.3903 29.8407 26.3292C30.0226 26.273 30.2112 26.2387 30.4065 26.2262C30.84 26.1986 31.253 26.282 31.6457 26.4766L33 27.1475L33 21.3364L31.726 21.9675C31.3244 22.1665 30.9019 22.2519 30.4587 22.2236C30.0417 22.197 29.6548 22.073 29.298 21.8515C28.9412 21.6301 28.6583 21.3385 28.4494 20.9767C28.346 20.7975 28.2666 20.6115 28.2114 20.4186C28.148 20.1972 28.1163 19.9668 28.1163 19.7273L28.1163 19.5C28.1163 19.3761 28.1019 19.2557 28.073 19.1388C28.0544 19.0633 28.0297 18.9892 27.999 18.9166C27.9232 18.7373 27.8158 18.5782 27.6769 18.4393C27.5989 18.3613 27.5146 18.2933 27.4238 18.2352C27.353 18.1898 27.2783 18.1505 27.1997 18.1173C27.0149 18.0391 26.8204 18 26.6163 18ZM20.5812 27.8705L24.8608 24.8137C25.4191 24.4149 25.4191 23.5851 24.8608 23.1863L20.5812 20.1295C19.9194 19.6567 19 20.1298 19 20.9432L19 27.0568C19 27.8702 19.9194 28.3433 20.5812 27.8705Z" fill="var(--tiny-second-color)" fill-rule="evenodd"/>
</svg>