<svg viewBox="0 0 48 48" xmlns="http://www.w3.org/2000/svg" xmlns:xlink="http://www.w3.org/1999/xlink" width="48.000000" height="48.000000">
  <path id="形状结合" d="M11.438 6C13.7348 6 15.6996 7.42357 16.4974 9.43601L33.7 9.4376C38.2844 9.4376 42 13.1548 42 17.7396C42 22.1852 38.5063 25.8136 34.1143 26.0294L33.7 26.0396L29.0418 26.0399C28.2343 28.0325 26.2803 29.438 23.998 29.438C21.7169 29.438 19.7634 28.0323 18.9561 26.0397L14.302 26.0396C11.9248 26.0396 10 27.964 10 30.3396C10 32.612 11.761 34.4714 13.9946 34.6288L14.302 34.6396L24.2285 34.6384C26.0011 31.7428 29.105 29.9871 32.645 29.9871C36.3325 29.9871 39.6691 32.1181 41.8027 36.037L41.9189 36.3337C42.0436 36.6641 42.0284 37.0454 41.846 37.3806C39.7123 41.2995 36.3757 43.4305 32.6882 43.4305C29.0919 43.4305 25.9457 41.6185 24.1882 38.6401L14.302 38.6398C9.71584 38.6398 6 34.9246 6 30.3396C6 25.8936 9.49405 22.2656 13.8876 22.0498L14.302 22.0396L18.9241 22.0383C19.7108 20.0037 21.6864 18.56 23.998 18.56C26.3108 18.56 28.2869 20.0035 29.0739 22.0382L33.7 22.0396C36.0754 22.0396 38 20.115 38 17.7396C38 15.4669 36.2386 13.6059 34.0071 13.4484L33.7 13.4376L16.4987 13.4376C15.7019 15.4526 13.7364 16.878 11.438 16.878C8.43515 16.878 6 14.442 6 11.438C6 8.43557 8.43557 6 11.438 6ZM32.6846 34.1791C31.2875 34.1791 30.1549 35.3117 30.1549 36.7088C30.1549 38.1059 31.2875 39.2385 32.6846 39.2385C34.0818 39.2385 35.2143 38.1059 35.2143 36.7088C35.2143 35.3117 34.0818 34.1791 32.6846 34.1791Z" fill="var(--tiny-first-color)" fill-rule="nonzero"/>
  <path id="形状结合" d="M32.6442 29.9873C29.1042 29.9873 26.0004 31.743 24.2278 34.6386C24.0346 34.9565 23.7922 35.5415 23.6158 35.9964C23.4561 36.4082 23.451 36.863 23.6023 37.2781C23.7685 37.7342 23.9982 38.3201 24.1874 38.6403C25.9449 41.6186 29.0912 43.4306 32.6875 43.4306C36.3749 43.4306 39.7116 41.2996 41.8452 37.3808C42.0277 37.0456 42.0429 36.6643 41.9182 36.3338L41.802 36.0372C39.6684 32.1183 36.3317 29.9873 32.6442 29.9873ZM30.1542 36.709C30.1542 35.3118 31.2868 34.1793 32.6839 34.1793C34.081 34.1793 35.2136 35.3118 35.2136 36.709C35.2136 38.1061 34.081 39.2387 32.6839 39.2387C31.2868 39.2387 30.1542 38.1061 30.1542 36.709Z" fill="var(--tiny-second-color)" fill-rule="evenodd"/>
</svg>