<svg viewBox="0 0 48 48" xmlns="http://www.w3.org/2000/svg" xmlns:xlink="http://www.w3.org/1999/xlink" width="48.000000" height="48.000000" fill="none">
  <path id="形状" d="M13.0801 5.08789C15.5627 5.08789 17.6574 6.75108 18.3097 9.02338L35.8421 9.02549C40.1503 9.02549 43.6421 12.5188 43.6421 16.8275C43.6421 21.0013 40.3653 24.4085 36.2435 24.6173L35.8421 24.6275L30.8586 24.6274C30.1939 26.8811 28.1091 28.5259 25.6401 28.5259C23.1724 28.5259 21.0881 26.8808 20.4235 24.6272L15.4441 24.6275C12.7908 24.6275 10.6421 26.7757 10.6421 29.4275C10.6421 31.9688 12.6154 34.0476 15.1152 34.2164L15.4441 34.2275L25.5679 34.2256C27.3037 31.1357 30.5068 29.2475 34.1789 29.2475C37.8682 29.2475 41.2065 31.3795 43.3412 35.3003C43.3934 35.3962 43.4319 35.4959 43.4574 35.5971C43.5822 35.9281 43.567 36.3096 43.3844 36.645C41.2498 40.5658 37.9114 42.6978 34.2221 42.6978C30.3593 42.6978 27.0154 40.6083 25.3526 37.2286L15.4441 37.2275C11.134 37.2275 7.64209 33.7363 7.64209 29.4275C7.64209 25.2533 10.9192 21.8465 15.0425 21.6376L15.4441 21.6275L20.4011 21.6235C21.0401 19.3309 23.1442 17.6479 25.6401 17.6479C28.138 17.6479 30.2431 19.3316 30.8816 21.6254L35.8421 21.6275C38.4937 21.6275 40.6421 19.4791 40.6421 16.8275C40.6421 14.2859 38.6685 12.2055 36.1707 12.0366L35.8421 12.0255L18.3107 12.0258C17.6595 14.3008 15.5643 15.9659 13.0801 15.9659C10.0772 15.9659 7.64209 13.5299 7.64209 10.5259C7.64209 7.52346 10.0777 5.08789 13.0801 5.08789ZM34.2156 31.7784C31.286 31.7784 28.7954 33.3538 27.5716 35.9282C28.7828 38.5559 31.2963 40.1669 34.2589 40.1669C36.8158 40.1669 39.1753 38.7632 40.8655 36.0103C39.1725 33.2063 36.7945 31.7784 34.2156 31.7784ZM34.2186 33.4426C35.6158 33.4426 36.7486 34.5754 36.7486 35.9726C36.7486 37.3699 35.6158 38.5026 34.2186 38.5026C32.8213 38.5026 31.6886 37.3699 31.6886 35.9726C31.6886 34.5754 32.8213 33.4426 34.2186 33.4426ZM13.0801 8.08789C11.7345 8.08789 10.6421 9.18032 10.6421 10.5259C10.6421 11.8733 11.7343 12.9659 13.0801 12.9659C14.4277 12.9659 15.5201 11.8735 15.5201 10.5259C15.5201 9.18013 14.4275 8.08789 13.0801 8.08789Z" fill="var(--tiny-first-color)" fill-rule="nonzero"/>
  <path id="形状" d="M34.1793 29.2476C30.5071 29.2476 27.3041 31.1358 25.5683 34.2257C24.9111 35.5493 24.9111 35.9277 24.9111 35.9277C24.9111 35.9277 24.9835 36.4634 25.353 37.2287C27.0158 40.6084 30.3596 42.6979 34.2225 42.6979C37.9118 42.6979 41.2501 40.5659 43.3848 36.6451C43.5674 36.3097 43.5826 35.9282 43.4578 35.5972C43.4323 35.496 43.3938 35.3963 43.3416 35.3004C41.2069 31.3796 37.8686 29.2476 34.1793 29.2476ZM27.572 35.9282C28.7958 33.3538 31.2864 31.7785 34.216 31.7785C36.7949 31.7785 39.1729 33.2064 40.8659 36.0104C39.1757 38.7633 36.8162 40.167 34.2593 40.167C31.2967 40.167 28.7832 38.5559 27.572 35.9282ZM34.2189 33.4427C35.6162 33.4427 36.7489 34.5755 36.7489 35.9727C36.7489 37.37 35.6162 38.5027 34.2189 38.5027C32.8217 38.5027 31.6889 37.37 31.6889 35.9727C31.6889 34.5755 32.8217 33.4427 34.2189 33.4427Z" fill="var(--tiny-second-color)" fill-rule="evenodd"/>
</svg>