<svg viewBox="0 0 48 48" xmlns="http://www.w3.org/2000/svg" xmlns:xlink="http://www.w3.org/1999/xlink" width="48.000000" height="48.000000" fill="none">
  <path id="合并" d="M7.12109 5.00367C6.56302 4.37585 5.63125 4.32104 5.00343 4.87911C4.37561 5.43717 4.3208 6.36894 4.87886 6.99677L8.49998 11.0705L8.49998 29.0002C8.49998 29.8336 8.70831 30.4586 9.12498 30.8752C9.54164 31.2919 10.1666 31.5002 11 31.5002L42 31.5002C42.84 31.5002 43.5 30.8402 43.5 30.0002C43.5 29.1602 42.84 28.5002 42 28.5002L11.5 28.5002L11.5 9.92992L7.12109 5.00367ZM15 35.0002C12.2386 35.0002 9.99998 37.2388 9.99998 40.0002C9.99998 42.7616 12.2386 45.0002 15 45.0002C17.7614 45.0002 20 42.7616 20 40.0002C20 37.2388 17.7614 35.0002 15 35.0002ZM30.5 40.0002C30.5 37.2388 32.7386 35.0002 35.5 35.0002C38.2614 35.0002 40.5 37.2388 40.5 40.0002C40.5 42.7616 38.2614 45.0002 35.5 45.0002C32.7386 45.0002 30.5 42.7616 30.5 40.0002ZM15 38.0002C13.8954 38.0002 13 38.8957 13 40.0002C13 41.1048 13.8954 42.0002 15 42.0002C16.1045 42.0002 17 41.1048 17 40.0002C17 38.8957 16.1045 38.0002 15 38.0002ZM33.5 40.0002C33.5 38.8957 34.3954 38.0002 35.5 38.0002C36.6045 38.0002 37.5 38.8957 37.5 40.0002C37.5 41.1048 36.6045 42.0002 35.5 42.0002C34.3954 42.0002 33.5 41.1048 33.5 40.0002Z" fill="var(--tiny-first-color, #191919)" fill-rule="evenodd"/>
  <path id="合并" d="M34 5.5C34.3267 5.5 34.6459 5.5339 34.9579 5.60169C35.2281 5.66043 35.4929 5.74463 35.7521 5.85425C36.0102 5.96345 36.2542 6.09414 36.4839 6.24631C36.7334 6.41155 36.9661 6.60212 37.182 6.81802C37.3979 7.03393 37.5885 7.26662 37.7537 7.51609C37.9059 7.74581 38.0366 7.98976 38.1458 8.24794C38.2554 8.50715 38.3396 8.77189 38.3983 9.04216C38.4661 9.35408 38.5 9.67336 38.5 10L38.5 24C38.5 24.3267 38.4661 24.6459 38.3983 24.9579C38.3396 25.2281 38.2554 25.4929 38.1458 25.7521C38.0366 26.0102 37.9059 26.2541 37.7538 26.4838C37.5885 26.7333 37.3979 26.9661 37.182 27.182C36.9661 27.3979 36.7334 27.5884 36.484 27.7537C36.2543 27.9058 36.0102 28.0366 35.7521 28.1458C35.4929 28.2554 35.2282 28.3395 34.958 28.3983C34.6461 28.4661 34.3267 28.5 34 28.5L20 28.5C19.6734 28.5 19.3541 28.4661 19.0422 28.3983C18.7719 28.3396 18.5071 28.2554 18.2479 28.1458C17.9898 28.0366 17.7458 27.9059 17.5161 27.7537C17.2667 27.5885 17.0339 27.3979 16.818 27.182C16.6021 26.9661 16.4115 26.7334 16.2463 26.4839C16.0941 26.2542 15.9634 26.0102 15.8542 25.7521C15.7446 25.4929 15.6604 25.2282 15.6017 24.958C15.5339 24.646 15.5 24.3267 15.5 24L15.5 10C15.5 9.67335 15.5339 9.35407 15.6017 9.04216C15.6604 8.77189 15.7446 8.50714 15.8542 8.24794C15.9635 7.98975 16.0941 7.74578 16.2463 7.51605C16.4116 7.2666 16.6021 7.03392 16.818 6.81802C17.0339 6.60212 17.2666 6.41155 17.5161 6.24631C17.7458 6.09414 17.9897 5.96345 18.2479 5.85425C18.5071 5.74461 18.7719 5.66043 19.0421 5.60169C19.3541 5.5339 19.6733 5.5 20 5.5L34 5.5ZM34 8.5L20 8.5C19.876 8.5 19.7556 8.51441 19.6388 8.54324C19.5633 8.56189 19.4892 8.58656 19.4166 8.61726C19.338 8.6505 19.2633 8.6898 19.1925 8.73515C19.1017 8.79327 19.0173 8.86134 18.9393 8.93934C18.8613 9.01734 18.7933 9.1017 18.7352 9.19244C18.6898 9.26327 18.6505 9.338 18.6173 9.41659C18.5866 9.48918 18.5619 9.56325 18.5432 9.63881C18.5144 9.75565 18.5 9.87605 18.5 10L18.5 24C18.5 24.1239 18.5144 24.2443 18.5432 24.3612C18.5619 24.4367 18.5866 24.5109 18.6173 24.5834C18.6505 24.662 18.6898 24.7367 18.7352 24.8076C18.7933 24.8983 18.8614 24.9827 18.9393 25.0607C19.0173 25.1387 19.1017 25.2067 19.1925 25.2648C19.2633 25.3102 19.338 25.3495 19.4166 25.3827C19.4891 25.4134 19.5632 25.4381 19.6387 25.4567C19.7556 25.4856 19.876 25.5 20 25.5L34 25.5C34.124 25.5 34.2444 25.4856 34.3613 25.4567C34.4368 25.4381 34.5109 25.4134 34.5834 25.3827C34.662 25.3495 34.7367 25.3102 34.8076 25.2648C34.8983 25.2067 34.9827 25.1386 35.0607 25.0607C35.1386 24.9827 35.2067 24.8983 35.2648 24.8076C35.3101 24.7368 35.3495 24.662 35.3827 24.5834C35.4134 24.5109 35.4381 24.4368 35.4567 24.3613C35.4856 24.2444 35.5 24.124 35.5 24L35.5 10C35.5 9.87602 35.4856 9.75559 35.4567 9.63873C35.4381 9.5632 35.4134 9.48915 35.3827 9.41659C35.3495 9.338 35.3102 9.26329 35.2648 9.19247C35.2067 9.10172 35.1387 9.01734 35.0607 8.93934C34.9827 8.86135 34.8983 8.79329 34.8076 8.73518C34.7367 8.68981 34.662 8.65051 34.5834 8.61726C34.5108 8.58657 34.4368 8.56191 34.3613 8.54326C34.2444 8.51444 34.1239 8.5 34 8.5ZM26.5 12L26.5 17L31.5 17C32.34 17 33 17.66 33 18.5C33 19.34 32.34 20 31.5 20L26 20C25.8235 20 25.6508 19.9821 25.4819 19.9464C25.3269 19.9136 25.1751 19.8658 25.0264 19.8029C24.8805 19.7412 24.7428 19.6672 24.6133 19.5808C24.4772 19.4901 24.3502 19.3857 24.2322 19.2678C24.1143 19.1498 24.01 19.0228 23.9192 18.8868C23.8329 18.7572 23.7588 18.6195 23.6971 18.4736C23.6342 18.3249 23.5864 18.1731 23.5536 18.0181C23.5179 17.8492 23.5 17.6765 23.5 17.5L23.5 12C23.5 11.16 24.16 10.5 25 10.5C25.84 10.5 26.5 11.16 26.5 12Z" fill="var(--tiny-second-color, #aeaeAE)" fill-rule="evenodd"/>
</svg>
