<svg viewBox="0 0 48 48" xmlns="http://www.w3.org/2000/svg" xmlns:xlink="http://www.w3.org/1999/xlink" width="48.000000" height="48.000000" fill="none">
  <path id="Path" d="M19.0603 12.0012C19.0403 12.0004 19.0202 12 19 12C18.9798 12 17.52 12.0004 17.5 12.0012L17.5 15.0012L17.5 28.998L17.5131 29.2023C17.6602 30.3289 19.0095 30.9114 19.937 30.1693L23.998 26.9206L28.0404 30.1692L28.2079 30.287C29.1785 30.8782 30.4781 30.1907 30.48 29.0024L30.4978 15.0012L30.4978 12.0012L19.0603 12.0012ZM20.5 15.0012L20.5 25.8766L23.063 23.8267C23.5508 23.4364 24.2213 23.3938 24.749 23.6983L24.9396 23.8288L27.484 25.8746L27.4974 15.0012L20.5 15.0012Z" fill="var(--tiny-second-color, #aeaeAE)" fill-rule="evenodd"/>
  <path id="形状结合" d="M36.96 4.03027C40.2503 4.03027 42.918 6.69963 42.918 9.99023L42.918 37.9702C42.918 41.2846 40.2325 43.9702 36.918 43.9702L11.042 43.9702C7.7496 43.9702 5.08203 41.3027 5.08203 38.0103L5.08203 9.99023C5.08203 6.69922 7.75018 4.03027 11.042 4.03027L36.96 4.03027ZM39.918 15.9863L8.08203 15.9863L8.08203 38.0103C8.08203 39.5496 9.25523 40.8134 10.7568 40.9568L11.042 40.9702L36.918 40.9702C38.5756 40.9702 39.918 39.6278 39.918 37.9702L39.918 15.9863ZM36.96 7.03027L11.042 7.03027C9.40724 7.03027 8.08203 8.35587 8.08203 9.99023L8.08203 11.9863L39.918 11.9863L39.918 9.99023C39.918 8.4522 38.7443 7.18744 37.2448 7.04395L36.96 7.03027Z" fill="var(--tiny-first-color, #191919)" fill-rule="evenodd"/>
</svg>
