<svg viewBox="0 0 48 48" xmlns="http://www.w3.org/2000/svg" xmlns:xlink="http://www.w3.org/1999/xlink" width="48.000000" height="48.000000" fill="none">
  <path id="合并" d="M6.50117 11.9101L18.4406 5.01645C20.2984 3.94495 22.5836 3.94495 24.4424 5.01699L36.3822 11.9149C38.238 12.9868 39.382 14.9678 39.382 17.1098L39.382 22.1974C38.4336 21.8497 37.4272 21.6236 36.382 21.5383L36.382 17.5721L22.9406 25.3017L22.9406 40.3845L25.5511 38.8779C26.0717 39.7526 26.705 40.5521 27.4312 41.2566L24.4402 42.9827C23.5213 43.5135 22.4971 43.7815 21.4716 43.7867C20.4465 43.7813 19.3598 43.5134 18.4401 42.9829L6.49977 36.0907C4.64367 35.0187 3.5 33.0375 3.5 30.8938L3.5 17.1058C3.5 14.9629 4.64488 12.9796 6.50117 11.9101ZM34.8816 14.5126C35.0113 14.5875 35.134 14.6713 35.2492 14.7629L21.8178 22.4867L8.00069 14.5085L19.94 7.61483C20.8696 7.07869 22.0124 7.07869 22.9426 7.61518L34.8816 14.5126ZM6.5 30.8938L6.5 17.1061L19.9406 24.8669L19.9394 40.3844L7.99987 33.4927C7.07205 32.9568 6.5 31.9658 6.5 30.8938ZM10.4767 23.172L16.9947 27.083C17.1475 27.1803 17.2429 27.3463 17.2372 27.5274L17.1625 29.9133C17.1506 30.2948 16.7328 30.5228 16.4055 30.3264L9.88758 26.4155C9.73475 26.3182 9.63941 26.1522 9.64508 25.9711L9.71971 23.5851C9.73165 23.2036 10.1494 22.9756 10.4767 23.172Z" fill="var(--tiny-first-color)" fill-rule="evenodd"/>
  <path id="合并" d="M35 24C30.0294 24 26 28.0294 26 33C26 37.9706 30.0294 42 35 42C39.9706 42 44 37.9706 44 33C44 28.0294 39.9706 24 35 24ZM35 27C31.6863 27 29 29.6863 29 33C29 36.3137 31.6863 39 35 39C38.3137 39 41 36.3137 41 33C41 29.6863 38.3137 27 35 27ZM35.5 30L35.5 32.6295L38.2442 34.1976C38.9735 34.6144 39.2191 35.5149 38.8024 36.2442C38.3856 36.9735 37.4851 37.2191 36.7558 36.8024L33.7597 35.0903C33.5649 34.979 33.3907 34.8471 33.2371 34.6944C33.0834 34.5418 32.9503 34.3685 32.8377 34.1745C32.7252 33.9805 32.6407 33.779 32.5844 33.5698C32.5281 33.3607 32.5 33.144 32.5 32.9197L32.5 30C32.5 29.16 33.16 28.5 34 28.5C34.84 28.5 35.5 29.16 35.5 30Z" fill="var(--tiny-second-color)" fill-rule="evenodd"/>
</svg>