<svg viewBox="0 0 48 48" xmlns="http://www.w3.org/2000/svg" xmlns:xlink="http://www.w3.org/1999/xlink" width="48.000000" height="48.000000" fill="none">
  <path id="减去顶层" d="M24.3931 8L41.9934 8.02055C43.0971 8.02184 43.9911 8.91689 43.9911 10.0205L43.9911 32.2075C43.9909 33.312 43.0956 34.2074 41.9911 34.2076L41.5761 34.2063C41.2727 30.7495 38.0964 27.7448 34.5998 27.7448C30.8749 27.7448 27.8853 30.5292 27.6191 34.2086L20.8218 34.2083C20.5194 30.7507 17.3426 27.7448 13.8453 27.7448C10.1394 27.7448 7.16127 30.5009 6.86885 34.1525C5.33002 33.8742 4.14054 32.5856 4.0116 30.9972L4 30.7102L4 24.427C4 23.7997 4.16856 23.1859 4.48536 22.6489L4.65602 22.387L11.0569 14.7353C11.4743 14.1535 12.1182 13.7821 12.8219 13.7067L18.1882 13.6951C18.7846 13.6938 19.2804 14.1279 19.3746 14.6979L19.3907 26.1303C19.3907 26.959 20.062 27.6312 20.8907 27.6323C21.7181 27.6334 22.3896 26.9636 22.3907 26.1363L22.3907 10C22.3907 8.97433 23.1628 8.12898 24.1575 8.01345L24.3931 8ZM33.5 17.2504L33.5 13.0004C33.5 12.1604 32.84 11.5004 32 11.5004C31.16 11.5004 30.5 12.1604 30.5 13.0004L30.5 17.5004C30.5 17.6971 30.522 17.8886 30.566 18.075C30.61 18.2613 30.676 18.4425 30.7639 18.6184C30.8519 18.7944 30.9572 18.9558 31.0799 19.1028C31.2026 19.2498 31.3426 19.3823 31.5 19.5004L35.1 22.2004C35.772 22.7044 36.696 22.5724 37.2 21.9004C37.704 21.2284 37.572 20.3044 36.9 19.8004L33.5 17.2504ZM13.8453 30.7448C15.8655 30.7448 17.8453 32.7246 17.8453 34.7448C17.8453 36.7651 15.8655 38.7448 13.8453 38.7448C11.825 38.7448 9.84528 36.7651 9.84528 34.7448C9.84528 32.4438 11.615 30.7448 13.8453 30.7448ZM34.5998 30.7448C36.6201 30.7448 38.5998 32.7246 38.5998 34.7448C38.5998 36.7651 36.6201 38.7448 34.5998 38.7448C32.5795 38.7448 30.5998 36.7651 30.5998 34.7448C30.5998 32.4438 32.3695 30.7448 34.5998 30.7448Z" fill="var(--tiny-first-color)" fill-rule="evenodd"/>
  <path id="形状结合" d="M13.8453 30.745C15.8655 30.745 17.8453 32.7248 17.8453 34.745C17.8453 36.7653 15.8655 38.745 13.8453 38.745C11.825 38.745 9.84528 36.7653 9.84528 34.745C9.84528 32.444 11.615 30.745 13.8453 30.745ZM34.5998 30.745C36.6201 30.745 38.5998 32.7248 38.5998 34.745C38.5998 36.7653 36.6201 38.745 34.5998 38.745C32.5795 38.745 30.5998 36.7653 30.5998 34.745C30.5998 32.444 32.3695 30.745 34.5998 30.745Z" fill="var(--tiny-second-color)" fill-rule="evenodd"/>
</svg>