<svg viewBox="0 0 48 48" xmlns="http://www.w3.org/2000/svg" xmlns:xlink="http://www.w3.org/1999/xlink" width="48.000000" height="48.000000">
  <path id="形状结合" d="M26.9491 6.11642L27.1034 6.3854L43.215 37.3927C44.3835 39.6384 42.8528 42.3068 40.388 42.4945L40.1104 42.505L7.88837 42.505C5.35747 42.505 3.69659 39.9181 4.66483 37.6446L4.78333 37.3934L20.8953 6.38551C22.1529 3.96463 25.5342 3.87496 26.9491 6.11642ZM23.6412 7.65112L7.44585 38.7758C7.29255 39.0713 7.46585 39.4176 7.76899 39.491L40.1104 39.505C40.4434 39.505 40.6708 39.1917 40.5959 38.889L24.4413 7.76852C24.2785 7.45526 23.8663 7.41611 23.6412 7.65112ZM23.9998 33.2216C25.1058 33.2216 25.9998 34.1156 25.9998 35.2216C25.9998 36.3256 25.1058 37.2216 23.9998 37.2216C22.8938 37.2216 21.9998 36.3256 21.9998 35.2216C21.9998 34.1156 22.8938 33.2216 23.9998 33.2216ZM23.9998 15.7216C24.7592 15.7216 25.3867 16.2859 25.4861 17.0181L25.4998 17.2216L25.4998 28.9696C25.4998 29.798 24.8282 30.4696 23.9998 30.4696C23.2404 30.4696 22.6128 29.9053 22.5135 29.1732L22.4998 28.9696L22.4998 17.2216C22.4998 16.3932 23.1713 15.7216 23.9998 15.7216Z" fill="var(--tiny-first-color)" fill-rule="evenodd"/>
  <path id="形状结合" d="M23.9998 33.2217C25.1058 33.2217 25.9998 34.1157 25.9998 35.2217C25.9998 36.3257 25.1058 37.2217 23.9998 37.2217C22.8938 37.2217 21.9998 36.3257 21.9998 35.2217C21.9998 34.1157 22.8938 33.2217 23.9998 33.2217ZM23.9998 15.7217C24.7591 15.7217 25.3867 16.286 25.4861 17.0181L25.4998 17.2217L25.4998 28.9697C25.4998 29.7981 24.8282 30.4697 23.9998 30.4697C23.2404 30.4697 22.6128 29.9054 22.5134 29.1732L22.4998 28.9697L22.4998 17.2217C22.4998 16.3933 23.1713 15.7217 23.9998 15.7217Z" fill="var(--tiny-second-color)" fill-rule="evenodd"/>
</svg>