<svg viewBox="0 0 48 48" xmlns="http://www.w3.org/2000/svg" xmlns:xlink="http://www.w3.org/1999/xlink" width="48.000000" height="48.000000" fill="none">
  <path id="形状结合" d="M37.9819 7.23242C41.178 7.23242 43.7893 9.72959 43.9718 12.8798L43.9819 13.2324L43.9819 28.8744C43.9819 32.0705 41.4848 34.6818 38.3346 34.8642L37.9819 34.8744L28.9999 34.8744C28.1715 34.8744 27.4999 34.2029 27.4999 33.3744C27.4999 32.615 28.0643 31.9874 28.7964 31.8881L28.9999 31.8744L37.9819 31.8744C39.542 31.8744 40.8229 30.6853 40.9682 29.1635L40.9819 28.8744L40.9819 13.2324C40.9819 11.6724 39.7928 10.3914 38.271 10.2461L37.9819 10.2324L10.0179 10.2324C8.45788 10.2324 7.17697 11.4216 7.03167 12.9434L7.01794 13.2324L7.01794 28.8744C7.01794 30.4345 8.20708 31.7154 9.72891 31.8607L10.0179 31.8744L21.9999 31.8744C23.8358 31.8744 25.3423 33.2892 25.4883 35.0874L25.4999 35.3744L25.4979 37.7664L35.9999 37.767C36.8284 37.767 37.4999 38.4386 37.4999 39.267C37.4999 40.0264 36.9356 40.654 36.2035 40.7533L35.9999 40.767L11.9999 40.767C11.1715 40.767 10.4999 40.0954 10.4999 39.267C10.4999 38.5076 11.0643 37.88 11.7964 37.7807L11.9999 37.767L22.4979 37.7664L22.4999 35.3744C22.4999 35.1382 22.3351 34.9396 22.1144 34.8877L10.0179 34.8744C6.82189 34.8744 4.21057 32.3773 4.02813 29.227L4.01794 28.8744L4.01794 13.2324C4.01794 10.0364 6.51512 7.42505 9.66533 7.2426L10.0179 7.23242L37.9819 7.23242Z" fill="var(--tiny-first-color, #191919)" fill-rule="evenodd"/>
</svg>
