<svg viewBox="0 0 48 48" xmlns="http://www.w3.org/2000/svg" xmlns:xlink="http://www.w3.org/1999/xlink" width="48.000000" height="48.000000">
  <path id="减去顶层" d="M11.996 6L36.002 6C39.308 6 42 8.692 42 11.998L42 36.002C42 39.308 39.308 42 36.002 42L11.996 42C8.69 42 6 39.308 6 36.002L6 11.998C6 8.692 8.69 6 11.996 6ZM19.635 25.9182L16.7327 16.556C16.484 15.7536 15.6582 15.3187 14.8558 15.5674C14.0535 15.8161 13.6185 16.6419 13.8673 17.4443L18.2073 31.4443C18.3299 31.8399 18.5745 32.1342 18.941 32.3273C19.3074 32.5203 19.6885 32.5555 20.0841 32.4329C20.3208 32.3595 20.5267 32.2351 20.7017 32.0597C20.8767 31.8844 21.0007 31.6783 21.0736 31.4415L23.95 22.0982L26.8264 31.4415C26.9483 31.8373 27.1923 32.1322 27.5584 32.3259C27.9245 32.5197 28.3055 32.5556 28.7013 32.4337C28.9388 32.3606 29.1454 32.2362 29.321 32.0604C29.4966 31.8847 29.6209 31.6781 29.6939 31.4405L33.9939 17.4405C34.2405 16.6376 33.8034 15.8129 33.0004 15.5662C32.1974 15.3196 31.3727 15.7567 31.1261 16.5597L28.2583 25.8967L25.3836 16.5588C25.3105 16.3215 25.1862 16.115 25.0107 15.9395C24.8351 15.7639 24.6286 15.6396 24.3913 15.5665C23.9955 15.4446 23.6145 15.4806 23.2484 15.6743C22.8823 15.8681 22.6383 16.1629 22.5164 16.5588L19.635 25.9182Z" fill="var(--tiny-first-color)" fill-rule="evenodd"/>
  <path id="path7 (边框)" d="M19.635 25.9185L16.7327 16.5562C16.4839 15.7539 15.6581 15.3189 14.8558 15.5676C14.0535 15.8164 13.6185 16.6422 13.8672 17.4445L18.2072 31.4445C18.3552 31.9221 18.5857 32.2433 18.8985 32.408C19.2113 32.5728 19.6065 32.5812 20.0841 32.4331C20.5884 32.2768 20.9182 31.9463 21.0735 31.4417L23.9499 22.0984L26.8263 31.4417C27.1206 32.3975 27.7455 32.7282 28.7013 32.434C29.2075 32.2781 29.5383 31.9471 29.6938 31.4408L33.9938 17.4408C34.2405 16.6378 33.8033 15.8131 33.0003 15.5665C32.1974 15.3199 31.3727 15.757 31.126 16.56L28.2583 25.8969L25.3835 16.559C25.2278 16.0532 24.8971 15.7225 24.3913 15.5668C23.9134 15.4197 23.5182 15.4288 23.2057 15.5942C22.8932 15.7595 22.6634 16.0812 22.5163 16.559L19.635 25.9185Z" fill="var(--tiny-second-color)" fill-rule="evenodd"/>
</svg>