<svg viewBox="0 0 48 48" xmlns="http://www.w3.org/2000/svg" xmlns:xlink="http://www.w3.org/1999/xlink" width="48.000000" height="48.000000">
  <path id="形状结合" d="M11.998 42C8.692 42 6 39.308 6 36.002L6 11.998C6 8.692 8.692 6 11.998 6L36.002 6C39.308 6 42 8.692 42 11.998C42 12.826 41.328 13.498 40.5 13.498C39.672 13.498 39 12.826 39 11.998C39 10.346 37.654 9 36.002 9L11.998 9C10.346 9 9 10.346 9 11.998L9 36.002C9 37.654 10.346 39 11.998 39L36.002 39C37.654 39 39 37.654 39 36.002L39 17.0126C39 16.1846 39.672 15.5126 40.5 15.5126C41.328 15.5126 42 16.1846 42 17.0126L42 36.002C42 39.308 39.308 42 36.002 42L11.998 42Z" fill="var(--tiny-first-color)" fill-rule="evenodd"/>
  <path id="path7(边框)" d="M19.635 25.918L16.7327 16.5557C16.484 15.7534 15.6582 15.3184 14.8558 15.5672C14.0535 15.8159 13.6185 16.6417 13.8673 17.444L18.2073 31.444C18.3553 31.9216 18.5857 32.2428 18.8985 32.4076C19.2114 32.5723 19.6066 32.5807 20.0841 32.4326C20.5884 32.2763 20.9182 31.9458 21.0736 31.4412L23.95 22.0979L26.8264 31.4412C27.1206 32.397 27.7456 32.7277 28.7013 32.4335C29.2075 32.2777 29.5384 31.9466 29.6939 31.4403L33.9939 17.4403C34.2405 16.6373 33.8034 15.8126 33.0004 15.566C32.1974 15.3194 31.3727 15.7565 31.1261 16.5595L28.2583 25.8964L25.3836 16.5585C25.2279 16.0528 24.8971 15.722 24.3913 15.5663C23.9135 15.4192 23.5183 15.4283 23.2058 15.5937C22.8933 15.7591 22.6635 16.0807 22.5164 16.5585L19.635 25.918Z" fill="var(--tiny-second-color)" fill-rule="evenodd"/>
</svg>