<svg viewBox="0 0 48 48" xmlns="http://www.w3.org/2000/svg" xmlns:xlink="http://www.w3.org/1999/xlink" width="48.000000" height="48.000000" fill="none">
  <path id="形状结合" d="M11.998 42C8.692 42 6 39.308 6 36.002L6 11.998C6 8.692 8.692 6 11.998 6L36.002 6C39.308 6 42 8.692 42 11.998C42 12.826 41.328 13.498 40.5 13.498C39.672 13.498 39 12.826 39 11.998C39 10.346 37.654 9 36.002 9L11.998 9C10.346 9 9 10.346 9 11.998L9 36.002C9 37.654 10.346 39 11.998 39L36.002 39C37.654 39 39 37.654 39 36.002L39 17.0126C39 16.1846 39.672 15.5126 40.5 15.5126C41.328 15.5126 42 16.1846 42 17.0126L42 36.002C42 39.308 39.308 42 36.002 42L11.998 42Z" fill="var(--tiny-first-color, #191919)" fill-rule="evenodd"/>
  <rect id="矩形 251" width="22.000000" height="3.000000" x="13.000000" y="32.000000" rx="1.000000" fill="var(--tiny-second-color, #aeaeAE)"/>
  <path id="多边形 3(边框)" d="M35.0954 24.7083C34.9667 24.3873 34.7922 24.0891 34.5719 23.8137L26.7331 14.0152C26.549 13.785 26.343 13.5835 26.1153 13.4107C25.9206 13.2629 25.71 13.1361 25.4835 13.0303C25.26 12.9259 25.0307 12.8463 24.7956 12.7917C24.5374 12.7317 24.2722 12.7017 24.0001 12.7017C23.728 12.7017 23.4628 12.7317 23.2046 12.7917C22.9695 12.8463 22.7402 12.9259 22.5167 13.0303C22.2902 13.1361 22.0796 13.2629 21.8849 13.4107C21.6572 13.5835 21.4512 13.785 21.2671 14.0152L13.4283 23.8137C13.208 24.0891 13.0335 24.3873 12.9048 24.7083C12.7804 25.0188 12.7028 25.3404 12.6722 25.6733C12.6428 25.9925 12.6575 26.3107 12.7164 26.628C12.742 26.7661 12.7756 26.9018 12.8171 27.0349C12.8682 27.1991 12.9315 27.3596 13.0068 27.5163C13.1432 27.8 13.3139 28.0606 13.519 28.2979C13.73 28.5421 13.9692 28.7524 14.2368 28.9288C14.5159 29.1128 14.8156 29.2532 15.1358 29.35C15.2246 29.3769 15.3142 29.4001 15.4046 29.4198C15.651 29.4733 15.9033 29.5001 16.1613 29.5001L31.8388 29.5001C32.0969 29.5001 32.3491 29.4733 32.5955 29.4198C32.6859 29.4001 32.7756 29.3769 32.8644 29.35C33.1846 29.2532 33.4843 29.1128 33.7633 28.9288C34.0309 28.7524 34.2702 28.5421 34.4812 28.2979C34.573 28.1917 34.6579 28.0808 34.736 27.9652C34.8323 27.8226 34.9181 27.673 34.9934 27.5163C35.1298 27.2325 35.2266 26.9364 35.2838 26.628C35.3427 26.3107 35.3574 25.9925 35.328 25.6733C35.2974 25.3404 35.2198 25.0188 35.0954 24.7083ZM24.3905 15.8893L32.2293 25.6877C32.2951 25.77 32.3323 25.8569 32.3407 25.9485C32.349 26.0389 32.332 26.1284 32.2895 26.2167C32.247 26.305 32.1879 26.3742 32.112 26.4242C32.1039 26.4296 32.0956 26.4347 32.0871 26.4395C32.0158 26.4799 31.9331 26.5001 31.8388 26.5001L16.1613 26.5001C16.0671 26.5001 15.9844 26.4799 15.9131 26.4395C15.9046 26.4347 15.8963 26.4296 15.8882 26.4242C15.8123 26.3742 15.7531 26.305 15.7107 26.2167C15.6682 26.1284 15.6512 26.0389 15.6595 25.9485C15.6604 25.9387 15.6616 25.9291 15.6632 25.9195C15.6761 25.8386 15.7121 25.7613 15.7709 25.6878L23.6097 15.8893C23.6597 15.8268 23.7173 15.7799 23.7823 15.7486C23.8474 15.7173 23.92 15.7017 24.0001 15.7017C24.0802 15.7017 24.1528 15.7173 24.2179 15.7486C24.2829 15.7799 24.3405 15.8268 24.3905 15.8893Z" fill="var(--tiny-second-color, #aeaeAE)" fill-rule="evenodd"/>
</svg>
