<svg viewBox="0 0 48 48" xmlns="http://www.w3.org/2000/svg" xmlns:xlink="http://www.w3.org/1999/xlink" width="48.000000" height="48.000000">
  <path id="减去顶层" d="M29 4.5C29.828 4.5 30.5 5.172 30.5 6L30.5 7.916L34 7.916C35.3572 7.916 36.5978 8.38418 37.6021 9.14995L37.928 9.416C39.08 10.51 40 12.208 40 13.916L40 15.5L4 15.5L4 13.916C4 12.208 4.726 10.67 5.878 9.576C6.934 8.654 8.492 7.916 10 7.916L13.5 7.916L13.5 6C13.5 5.172 14.172 4.5 15 4.5C15.828 4.5 16.5 5.172 16.5 6L16.5 7.916L27.5 7.916L27.5 6C27.5 5.172 28.172 4.5 29 4.5ZM23.5063 42.084C21.0344 39.6351 19.5 36.2415 19.5 32.5C19.5 30.2608 20.0459 28.1499 21.0111 26.2918C20.4678 26.2818 20.0298 25.8358 20.0298 25.292L20.0298 23.292C20.0298 22.74 20.4778 22.292 21.0298 22.292L23.0298 22.292C23.3318 22.292 23.6026 22.426 23.786 22.6378C26.2012 20.3808 29.4434 19 33 19C35.5638 19 37.9595 19.7128 40 20.9513L40 18.5L4 18.5L4 36.084C4 39.392 6.692 42.084 10 42.084L23.5063 42.084ZM14.9597 22.2921C15.5117 22.2921 15.9597 22.7401 15.9597 23.2921L15.9597 25.2921C15.9597 25.8421 15.5117 26.2921 14.9597 26.2921L12.9597 26.2921C12.4077 26.2921 11.9597 25.8421 11.9597 25.2921L11.9597 23.2921C11.9597 22.7401 12.4077 22.2921 12.9597 22.2921L14.9597 22.2921ZM14.9872 30.2921C15.5392 30.2921 15.9872 30.7401 15.9872 31.2921L15.9872 33.2921C15.9872 33.8421 15.5392 34.2921 14.9872 34.2921L12.9872 34.2921C12.4352 34.2921 11.9872 33.8421 11.9872 33.2921L11.9872 31.2921C11.9872 30.7401 12.4352 30.2921 12.9872 30.2921L14.9872 30.2921Z" fill="var(--tiny-first-color, #191919)" fill-rule="evenodd"/>
  <path id="减去顶层" d="M22 32.5C22 26.42 26.94 21.5 33 21.5C39.08 21.5 44 26.42 44 32.5C44 38.56 39.08 43.5 33 43.5C26.94 43.5 22 38.56 22 32.5ZM34 32.25L34 27.5C34 26.66 33.34 26 32.5 26C31.66 26 31 26.66 31 27.5L31 32.5C31 32.6967 31.022 32.8882 31.066 33.0746L31.066 33.0746C31.11 33.2609 31.176 33.4421 31.2639 33.618C31.3519 33.794 31.4572 33.9555 31.5799 34.1025C31.7026 34.2495 31.8426 34.382 32 34.5L35.6 37.2C36.272 37.704 37.196 37.572 37.7 36.9C38.204 36.228 38.072 35.304 37.4 34.8L34 32.25Z" fill="var(--tiny-second-color, #aeaeAE)" fill-rule="evenodd"/>
</svg>