<svg viewBox="0 0 48 48" xmlns="http://www.w3.org/2000/svg" xmlns:xlink="http://www.w3.org/1999/xlink" width="48.000000" height="48.000000" fill="none">
  <path id="减去顶层" d="M11.996 6L36.002 6C39.308 6 42 8.692 42 11.998L42 36.002C42 39.308 39.308 42 36.002 42L11.996 42C8.69 42 6 39.308 6 36.002L6 11.998C6 8.692 8.69 6 11.996 6Z" fill="var(--tiny-first-color)" fill-rule="evenodd"/>
  <rect id="矩形 251" width="24.000000" height="5.000000" x="12.258301" y="31.000000" rx="2.000000" fill="var(--tiny-second-color)"/>
  <path id="多边形 3" d="M25.5787 12.0298L35.4894 24.7721C36.5112 26.0858 35.575 28 33.9107 28L14.0893 28C12.425 28 11.4888 26.0858 12.5106 24.7721L22.4213 12.0298C23.222 11.0003 24.778 11.0003 25.5787 12.0298Z" fill="var(--tiny-second-color)" fill-rule="evenodd"/>
</svg>