<svg viewBox="0 0 48 48" xmlns="http://www.w3.org/2000/svg" xmlns:xlink="http://www.w3.org/1999/xlink" width="48.000000" height="48.000000" fill="none">
  <path id="减去顶层" d="M31 4L17 4C15.88 4 15 4.88 15 6L15 8C15 9.1 15.88 10 17 10L31 10C32.1 10 33 9.1 33 8L33 6C33 4.88 32.1 4 31 4ZM12 7C11.9342 7.1974 11.955 7.41212 11.9769 7.63846C11.9883 7.7561 12 7.87688 12 8L12 9C12 11.2 13.78 13 16 13L32 13C34.2 13 36 11.2 36 9L36 8C36 7.64 35.94 7.3 35.86 7C39.18 7 42 9.68 42 13L42 38C42 41.3 39.3 44 36 44L12 44C8.68 44 6 41.3 6 38L6 13C6 9.68 8.68 7 12 7ZM25.2722 18L22.2014 18C21.6931 18 21.2847 18.1208 20.9722 18.3708C20.6597 18.6208 20.4472 18.9917 20.3347 19.4875L20.0139 20.8958L19.4431 21.225L18.0681 20.7958C17.5806 20.6458 17.1514 20.6458 16.7806 20.7917C16.4097 20.9333 16.0972 21.2292 15.8431 21.6708L14.3097 24.325C14.0556 24.7667 13.9556 25.1875 14.0181 25.5792C14.0764 25.9708 14.2931 26.3417 14.6681 26.6875L15.7264 27.6708L15.7264 28.325L14.6681 29.3083C14.2931 29.6542 14.0764 30.025 14.0181 30.4167C13.9556 30.8125 14.0556 31.2292 14.3097 31.6708L15.8431 34.325C16.0972 34.7667 16.4097 35.0625 16.7806 35.2042C17.1514 35.35 17.5806 35.35 18.0681 35.2L19.4514 34.7708L20.0139 35.0958L20.3347 36.5083C20.4472 37.0042 20.6597 37.375 20.9722 37.625C21.2847 37.875 21.6931 38 22.2014 38L25.2722 38C25.7806 38 26.1889 37.875 26.5014 37.625C26.8139 37.375 27.0264 37.0042 27.1389 36.5083L27.4597 35.0917L28.0181 34.7708L29.4056 35.2C29.8931 35.35 30.3222 35.35 30.6931 35.2042C31.0639 35.0625 31.3764 34.7667 31.6306 34.325L33.1639 31.6708C33.4181 31.2292 33.5181 30.8125 33.4556 30.4167C33.3972 30.025 33.1806 29.6542 32.8056 29.3083L31.7431 28.3208L31.7431 27.675L32.8056 26.6875C33.1806 26.3417 33.3972 25.9708 33.4556 25.5792C33.5181 25.1875 33.4181 24.7667 33.1639 24.325L31.6306 21.6708C31.3764 21.2292 31.0639 20.9333 30.6931 20.7917C30.3222 20.6458 29.8931 20.6458 29.4056 20.7958L28.0264 21.225L27.4597 20.8958L27.1389 19.4875C27.0264 18.9917 26.8139 18.6208 26.5014 18.3708C26.1889 18.1208 25.7806 18 25.2722 18Z" fill="var(--tiny-first-color, #191919)" fill-rule="evenodd"/>
  <path id="合并" d="M25.2723 18L22.2014 18C21.6931 18 21.2848 18.1208 20.9723 18.3708C20.6598 18.6208 20.4473 18.9917 20.3348 19.4875L20.0139 20.8958L19.4431 21.225L18.0681 20.7958C17.5806 20.6458 17.1514 20.6458 16.7806 20.7917C16.4098 20.9333 16.0973 21.2292 15.8431 21.6708L14.3098 24.325C14.0556 24.7667 13.9556 25.1875 14.0181 25.5792C14.0764 25.9708 14.2931 26.3417 14.6681 26.6875L15.7264 27.6708L15.7264 28.325L14.6681 29.3083C14.2931 29.6542 14.0764 30.025 14.0181 30.4167C13.9556 30.8125 14.0556 31.2292 14.3098 31.6708L15.8431 34.325C16.0973 34.7667 16.4098 35.0625 16.7806 35.2042C17.1514 35.35 17.5806 35.35 18.0681 35.2L19.4514 34.7708L20.0139 35.0958L20.3348 36.5083C20.4473 37.0042 20.6598 37.375 20.9723 37.625C21.2848 37.875 21.6931 38 22.2014 38L25.2723 38C25.7806 38 26.1889 37.875 26.5014 37.625C26.8139 37.375 27.0264 37.0042 27.1389 36.5083L27.4598 35.0917L28.0181 34.7708L29.4056 35.2C29.8931 35.35 30.3223 35.35 30.6931 35.2042C31.0639 35.0625 31.3764 34.7667 31.6306 34.325L33.1639 31.6708C33.4181 31.2292 33.5181 30.8125 33.4556 30.4167C33.3973 30.025 33.1806 29.6542 32.8056 29.3083L31.7431 28.3208L31.7431 27.675L32.8056 26.6875C33.1806 26.3417 33.3973 25.9708 33.4556 25.5792C33.5181 25.1875 33.4181 24.7667 33.1639 24.325L31.6306 21.6708C31.3764 21.2292 31.0639 20.9333 30.6931 20.7917C30.3223 20.6458 29.8931 20.6458 29.4056 20.7958L28.0264 21.225L27.4598 20.8958L27.1389 19.4875C27.0264 18.9917 26.8139 18.6208 26.5014 18.3708C26.1889 18.1208 25.7806 18 25.2723 18ZM19.3639 28C19.3639 25.5833 21.3223 23.625 23.7389 23.625C26.1514 23.625 28.1139 25.5833 28.1139 28C28.1139 30.4125 26.1514 32.375 23.7389 32.375C21.3223 32.375 19.3639 30.4125 19.3639 28ZM20.6138 28C20.6138 26.2708 22.0096 24.875 23.7388 24.875C25.4638 24.875 26.8638 26.2708 26.8638 28C26.8638 29.725 25.4638 31.125 23.7388 31.125C22.0096 31.125 20.6138 29.725 20.6138 28Z" fill="var(--tiny-second-color, #aeaeAE)" fill-rule="evenodd"/>
</svg>
