<svg viewBox="0 0 48 48" xmlns="http://www.w3.org/2000/svg" xmlns:xlink="http://www.w3.org/1999/xlink" width="48.000000" height="48.000000" fill="none">
  <path id="形状结合" d="M37.4821 5.8501C38.6721 5.8501 39.8661 6.3081 40.7781 7.2221C42.5901 9.0341 42.6081 11.9541 40.8181 13.7421L38.8164 15.7401L38.8164 36.1493C38.8164 39.3338 36.3081 41.9558 33.1678 42.1391L32.8164 42.1493L11.8164 42.1493C8.63192 42.1493 6.00986 39.641 5.82663 36.5007L5.81641 36.1493L5.81641 15.1493C5.81641 11.9648 8.32474 9.34275 11.465 9.15952L11.8164 9.14929L25.8409 9.14929C26.6693 9.14929 27.3409 9.82086 27.3409 10.6493C27.3409 11.4087 26.7766 12.0363 26.0444 12.1356L25.8409 12.1493L11.8164 12.1493C10.2676 12.1493 8.97676 13.3491 8.83025 14.8621L8.81641 15.1493L8.81641 36.1493C8.81641 37.6981 10.0162 38.9889 11.5292 39.1354L11.8164 39.1493L32.8164 39.1493C34.3652 39.1493 35.6561 37.9495 35.8026 36.4364L35.8164 36.1493L35.8164 18.7401L25.8261 28.7341C25.7181 28.8434 25.5977 28.9394 25.4678 29.0203L25.2661 29.1301L16.9741 33.0401C16.7561 33.1421 16.5341 33.1881 16.3221 33.1881C15.2921 33.1881 14.4601 32.0901 14.9621 31.0261L18.8701 22.7341C18.9681 22.5281 19.1021 22.3361 19.2661 22.1741L34.2581 7.1821C35.1461 6.2941 36.3121 5.8501 37.4821 5.8501ZM33.9264 11.7541L21.5101 24.1721L19.4401 28.5581L23.8281 26.4901L36.2444 14.0721L33.9264 11.7541ZM37.4821 8.8501C37.2238 8.8692 36.7159 8.96467 36.3781 9.3041L36.0484 9.6321L38.3664 11.9501L38.6981 11.6221C39.0376 11.2827 39.1272 10.8874 39.1459 10.6265C39.1439 10.1885 38.9721 9.6561 38.6581 9.3421C38.3401 9.0261 37.9221 8.8501 37.4821 8.8501Z" fill="var(--tiny-first-color, #191919)" fill-rule="evenodd"/>
  <path id="形状结合" d="M40.7781 7.2221C39.8661 6.3081 38.6721 5.8501 37.4821 5.8501C36.3121 5.8501 35.1461 6.2941 34.2581 7.1821L19.2661 22.1741C19.1021 22.3361 18.9681 22.5281 18.8701 22.7341L14.9621 31.0261C14.4601 32.0901 15.2921 33.1881 16.3221 33.1881C16.5341 33.1881 16.7561 33.1421 16.9741 33.0401L25.2661 29.1301L25.4677 29.0203C25.5977 28.9394 25.7181 28.8434 25.8261 28.7341L40.8181 13.7421C42.6081 11.9541 42.5901 9.0341 40.7781 7.2221ZM21.5101 24.1721L33.9264 11.7541L36.2444 14.0721L23.8281 26.4901L19.4401 28.5581L21.5101 24.1721ZM36.3781 9.3041C36.7158 8.96467 37.2237 8.8692 37.4821 8.8501C37.9221 8.8501 38.3401 9.0261 38.6581 9.3421C38.9721 9.6561 39.1439 10.1885 39.1459 10.6265C39.1272 10.8874 39.0375 11.2827 38.6981 11.6221L38.3664 11.9501L36.0484 9.6321L36.3781 9.3041Z" fill="var(--tiny-second-color, #aeaeAE)" fill-rule="evenodd"/>
</svg>
