<svg viewBox="0 0 48 48" xmlns="http://www.w3.org/2000/svg" xmlns:xlink="http://www.w3.org/1999/xlink" width="48.000000" height="48.000000">
  <path id="形状结合" d="M11.998 42C8.692 42 6 39.308 6 36.002L6 11.998C6 8.692 8.692 6 11.998 6L36.002 6C39.308 6 42 8.692 42 11.998C42 12.826 41.328 13.498 40.5 13.498C39.672 13.498 39 12.826 39 11.998C39 10.346 37.654 9 36.002 9L11.998 9C10.346 9 9 10.346 9 11.998L9 36.002C9 37.654 10.346 39 11.998 39L36.002 39C37.654 39 39 37.654 39 36.002L39 17.0126C39 16.1846 39.672 15.5126 40.5 15.5126C41.328 15.5126 42 16.1846 42 17.0126L42 36.002C42 39.308 39.308 42 36.002 42L11.998 42Z" fill="var(--tiny-first-color)" fill-rule="evenodd"/>
  <path id="合并" d="M24.4 12L27.6 12C27.8209 12 28 12.1791 28 12.4L28 15.6C28 15.8209 27.8209 16 27.6 16L24.4 16C24.1791 16 24 15.8209 24 15.6L24 12.4C24 12.1791 24.1791 12 24.4 12ZM23.6 16L20.4 16C20.1791 16 20 16.1791 20 16.4L20 19.6C20 19.8209 20.1791 20 20.4 20L23.6 20C23.8209 20 24 19.8209 24 19.6L24 16.4C24 16.1791 23.8209 16 23.6 16ZM27.6 20L24.4 20C24.1791 20 24 20.1791 24 20.4L24 23.6C24 23.8209 24.1791 24 24.4 24L27.6 24C27.8209 24 28 23.8209 28 23.6L28 20.4C28 20.1791 27.8209 20 27.6 20ZM20.4 24L23.6 24C23.8209 24 24 24.1791 24 24.4L24 27.6C24 27.8209 23.8209 28 23.6 28L20.4 28C20.1791 28 20 27.8209 20 27.6L20 24.4C20 24.1791 20.1791 24 20.4 24ZM24.4 28L27.6 28C27.8209 28 28 28.1791 28 28.4L28 31.6C28 31.8209 27.8209 32 27.6 32L24.4 32C24.1791 32 24 31.8209 24 31.6L24 28.4C24 28.1791 24.1791 28 24.4 28ZM23.6 32L20.4 32C20.1791 32 20 32.1791 20 32.4L20 35.6C20 35.8209 20.1791 36 20.4 36L23.6 36C23.8209 36 24 35.8209 24 35.6L24 32.4C24 32.1791 23.8209 32 23.6 32Z" fill="var(--tiny-second-color)" fill-rule="evenodd"/>
</svg>