<svg viewBox="0 0 48 48" xmlns="http://www.w3.org/2000/svg" xmlns:xlink="http://www.w3.org/1999/xlink" width="48.000000" height="48.000000" fill="none">
  <path id="形状结合" d="M21.297 4.19922C30.1554 4.19922 37.337 11.3808 37.337 20.2392C37.337 22.9956 36.6392 25.6539 35.3282 28.0137C34.9259 28.7379 34.0127 28.9988 33.2885 28.5965C32.5643 28.1941 32.3034 27.2809 32.7057 26.5568C33.7707 24.6399 34.337 22.4825 34.337 20.2392C34.337 13.0376 28.4985 7.19922 21.297 7.19922C14.0941 7.19922 8.25696 13.0369 8.25696 20.2392C8.25696 27.4415 14.0941 33.2792 21.297 33.2792C24.4908 33.2792 27.5028 32.1282 29.8614 30.0724C30.3973 29.6054 31.1766 29.5843 31.7333 29.9929L42.5267 40.8098C43.1111 41.397 43.109 42.3467 42.5219 42.9312C41.9881 43.4625 41.1547 43.509 40.5685 43.072L30.7294 33.2109L30.3179 33.5038C27.8652 35.1752 24.9823 36.1443 21.9491 36.2661L21.297 36.2792C12.4372 36.2792 5.25696 29.0983 5.25696 20.2392C5.25696 11.3801 12.4372 4.19922 21.297 4.19922ZM27.2889 18.744C28.1173 18.744 28.7889 19.4156 28.7889 20.244C28.7889 21.0034 28.2246 21.631 27.4924 21.7303L27.2889 21.744L15.2889 21.744C14.4604 21.744 13.7889 21.0724 13.7889 20.244C13.7889 19.4846 14.3532 18.857 15.0853 18.7577L15.2889 18.744L27.2889 18.744Z" fill="var(--tiny-first-color)" fill-rule="evenodd"/>
  <path id="形状结合" d="M27.2889 18.744C28.1173 18.744 28.7889 19.4156 28.7889 20.244C28.7889 21.0034 28.2246 21.631 27.4924 21.7303L27.2889 21.744L15.2889 21.744C14.4604 21.744 13.7889 21.0724 13.7889 20.244C13.7889 19.4846 14.3532 18.857 15.0853 18.7577L15.2889 18.744L27.2889 18.744Z" fill="var(--tiny-second-color)" fill-rule="evenodd"/>
</svg>