<svg viewBox="0 0 48 48" xmlns="http://www.w3.org/2000/svg" xmlns:xlink="http://www.w3.org/1999/xlink" width="48.000000" height="48.000000" fill="none">
  <path id="形状结合" d="M21.2968 4.19922C30.1553 4.19922 37.3368 11.3808 37.3368 20.2392C37.3368 22.9956 36.6391 25.6539 35.3281 28.0137C34.9258 28.7379 34.0125 28.9988 33.2884 28.5965C32.5642 28.1941 32.3033 27.2809 32.7056 26.5568C33.7705 24.6399 34.3368 22.4825 34.3368 20.2392C34.3368 13.0376 28.4984 7.19922 21.2968 7.19922C14.094 7.19922 8.25684 13.0369 8.25684 20.2392C8.25684 27.4415 14.094 33.2792 21.2968 33.2792C24.4906 33.2792 27.5026 32.1282 29.8613 30.0724C30.3972 29.6054 31.1765 29.5843 31.7332 29.9929L42.5266 40.8098C43.111 41.397 43.1089 42.3467 42.5218 42.9312C41.988 43.4625 41.1546 43.509 40.5683 43.072L30.7293 33.2109L30.3177 33.5038C27.8651 35.1752 24.9822 36.1443 21.949 36.2661L21.2968 36.2792C12.4371 36.2792 5.25684 29.0983 5.25684 20.2392C5.25684 11.3801 12.4371 4.19922 21.2968 4.19922ZM21.299 12.744C22.0584 12.744 22.686 13.3083 22.7853 14.0405L22.799 14.244L22.7988 18.7432L27.299 18.744C28.1275 18.744 28.799 19.4156 28.799 20.244C28.799 21.0034 28.2347 21.631 27.5026 21.7303L27.299 21.744L22.7988 21.7432L22.799 26.244C22.799 27.0724 22.1275 27.744 21.299 27.744C20.5396 27.744 19.9121 27.1797 19.8127 26.4476L19.799 26.244L19.7988 21.7432L15.299 21.744C14.4706 21.744 13.799 21.0724 13.799 20.244C13.799 19.4846 14.3633 18.857 15.0955 18.7577L15.299 18.744L19.7988 18.7432L19.799 14.244C19.799 13.4156 20.4706 12.744 21.299 12.744Z" fill="var(--tiny-first-color, #191919)" fill-rule="evenodd"/>
  <path id="形状结合" d="M21.299 12.744C22.0584 12.744 22.686 13.3083 22.7853 14.0405L22.799 14.244L22.7988 18.7432L27.299 18.744C28.1275 18.744 28.799 19.4156 28.799 20.244C28.799 21.0034 28.2347 21.631 27.5026 21.7303L27.299 21.744L22.7988 21.7432L22.799 26.244C22.799 27.0724 22.1275 27.744 21.299 27.744C20.5396 27.744 19.9121 27.1797 19.8127 26.4476L19.799 26.244L19.7988 21.7432L15.299 21.744C14.4706 21.744 13.799 21.0724 13.799 20.244C13.799 19.4846 14.3633 18.857 15.0955 18.7577L15.299 18.744L19.7988 18.7432L19.799 14.244C19.799 13.4156 20.4706 12.744 21.299 12.744Z" fill="var(--tiny-second-color, #aeaeAE)" fill-rule="evenodd"/>
</svg>
