<svg viewBox="0 0 48 48" xmlns="http://www.w3.org/2000/svg" xmlns:xlink="http://www.w3.org/1999/xlink" width="48.000000" height="48.000000" fill="none">
  <path id="形状结合" d="M21.2995 3.69922C30.4235 3.69922 37.8435 11.1212 37.8435 20.2452C37.8435 22.8552 37.2535 25.3532 36.0875 27.6712C35.5915 28.6612 34.3875 29.0572 33.4015 28.5612C32.4155 28.0652 32.0175 26.8612 32.5135 25.8752C33.3975 24.1192 33.8435 22.2252 33.8435 20.2452C33.8435 13.3272 28.2155 7.69922 21.2995 7.69922C14.3835 7.69922 8.75549 13.3272 8.75549 20.2452C8.75549 27.1632 14.3835 32.7892 21.2995 32.7892C24.2195 32.7892 26.9575 31.8172 29.2155 29.9772C29.287 29.9191 29.3613 29.8666 29.4378 29.8199C29.4731 29.8013 29.622 29.7198 29.658 29.7036C29.7052 29.6847 29.8376 29.6323 29.8855 29.6174C29.9364 29.6034 30.0616 29.5708 30.113 29.5613C30.154 29.5557 30.3057 29.5348 30.3464 29.5321C30.3934 29.5311 30.5387 29.5282 30.5847 29.5306C30.6013 29.533 30.7864 29.5515 30.8036 29.5543C30.8336 29.5619 31.0167 29.601 31.0465 29.6098C31.0742 29.6206 31.2395 29.6773 31.2664 29.6888C31.303 29.7076 31.4519 29.7791 31.4872 29.7996C31.5373 29.8314 31.6425 29.899 31.6897 29.9349C31.6958 29.9408 31.8861 30.1054 31.8937 30.113L42.6597 40.887C43.4397 41.669 43.4397 42.935 42.6577 43.715C42.2677 44.105 41.7557 44.301 41.2437 44.301C40.7317 44.301 40.2197 44.105 39.8277 43.715L30.2692 34.1476C27.6102 35.8606 24.4859 36.7892 21.2995 36.7892C12.1755 36.7892 4.75549 29.3672 4.75549 20.2452C4.75549 11.1212 12.1755 3.69922 21.2995 3.69922ZM27.2497 18.1956C28.3537 18.1956 29.2497 19.0896 29.2497 20.1956C29.2497 21.3016 28.3537 22.1956 27.2497 22.1956L15.2497 22.1956C14.1457 22.1956 13.2497 21.3016 13.2497 20.1956C13.2497 19.0896 14.1457 18.1956 15.2497 18.1956L27.2497 18.1956Z" fill="var(--tiny-first-color, #191919)" fill-rule="evenodd"/>
  <path id="形状结合" d="M27.2497 18.1956C28.3537 18.1956 29.2497 19.0896 29.2497 20.1956C29.2497 21.3016 28.3537 22.1956 27.2497 22.1956L15.2497 22.1956C14.1457 22.1956 13.2497 21.3016 13.2497 20.1956C13.2497 19.0896 14.1457 18.1956 15.2497 18.1956L27.2497 18.1956Z" fill="var(--tiny-second-color, #aeaeAE)" fill-rule="evenodd"/>
</svg>
